<?xml version="1.0" encoding="UTF-8" standalone="no"?>
<!DOCTYPE svg PUBLIC "-//W3C//DTD SVG 1.1//EN"
 "http://www.w3.org/Graphics/SVG/1.1/DTD/svg11.dtd">
<!-- Generated by graphviz version 7.0.5 (0)
 -->
<!-- Title: src/AnimationMachine.h Pages: 1 -->
<svg width="964pt" height="247pt"
 viewBox="0.00 0.00 964.00 247.00" xmlns="http://www.w3.org/2000/svg" xmlns:xlink="http://www.w3.org/1999/xlink">
<g id="graph0" class="graph" transform="scale(1 1) rotate(0) translate(4 243)">
<title>src/AnimationMachine.h</title>
<!-- Node1 -->
<g id="node1" class="node">
<title>Node1</title>
<g id="a_node1"><a xlink:title=" ">
<polygon fill="#999999" stroke="#666666" points="544,-239 410,-239 410,-220 544,-220 544,-239"/>
<text text-anchor="middle" x="477" y="-227" font-family="Helvetica,sans-Serif" font-size="10.00">src/AnimationMachine.h</text>
</a>
</g>
</g>
<!-- Node2 -->
<g id="node2" class="node">
<title>Node2</title>
<g id="a_node2"><a xlink:title=" ">
<polygon fill="#e0e0e0" stroke="#999999" points="110,-74 0,-74 0,-55 110,-55 110,-74"/>
<text text-anchor="middle" x="55" y="-62" font-family="Helvetica,sans-Serif" font-size="10.00">SFML/Graphics.hpp</text>
</a>
</g>
</g>
<!-- Node1&#45;&gt;Node2 -->
<g id="edge1" class="edge">
<title>Node1&#45;&gt;Node2</title>
<path fill="none" stroke="#63b8ff" d="M409.69,-223.5C331.77,-216.91 208.77,-203.78 167,-184 120.47,-161.97 83.53,-111.44 66.03,-84.02"/>
<polygon fill="#63b8ff" stroke="#63b8ff" points="69.15,-82.4 60.91,-75.73 63.19,-86.07 69.15,-82.4"/>
</g>
<!-- Node3 -->
<g id="node3" class="node">
<title>Node3</title>
<g id="a_node3"><a xlink:title=" ">
<polygon fill="#e0e0e0" stroke="#999999" points="716.5,-184 575.5,-184 575.5,-165 716.5,-165 716.5,-184"/>
<text text-anchor="middle" x="646" y="-172" font-family="Helvetica,sans-Serif" font-size="10.00">SFML/Graphics/Sprite.hpp</text>
</a>
</g>
</g>
<!-- Node1&#45;&gt;Node3 -->
<g id="edge2" class="edge">
<title>Node1&#45;&gt;Node3</title>
<path fill="none" stroke="#63b8ff" d="M505.67,-219.51C533.43,-210.8 575.75,-197.53 606.65,-187.84"/>
<polygon fill="#63b8ff" stroke="#63b8ff" points="607.53,-191.23 616.03,-184.9 605.44,-184.55 607.53,-191.23"/>
</g>
<!-- Node4 -->
<g id="node4" class="node">
<title>Node4</title>
<g id="a_node4"><a xlink:title=" ">
<polygon fill="#e0e0e0" stroke="#999999" points="551.5,-129 402.5,-129 402.5,-110 551.5,-110 551.5,-129"/>
<text text-anchor="middle" x="477" y="-117" font-family="Helvetica,sans-Serif" font-size="10.00">SFML/Graphics/Texture.hpp</text>
</a>
</g>
</g>
<!-- Node1&#45;&gt;Node4 -->
<g id="edge3" class="edge">
<title>Node1&#45;&gt;Node4</title>
<path fill="none" stroke="#63b8ff" d="M477,-219.66C477,-202.57 477,-164.61 477,-140.92"/>
<polygon fill="#63b8ff" stroke="#63b8ff" points="480.5,-140.97 477,-130.97 473.5,-140.97 480.5,-140.97"/>
</g>
<!-- Node5 -->
<g id="node5" class="node">
<title>Node5</title>
<g id="a_node5"><a xlink:title=" ">
<polygon fill="#e0e0e0" stroke="#999999" points="865.5,-184 734.5,-184 734.5,-165 865.5,-165 865.5,-184"/>
<text text-anchor="middle" x="800" y="-172" font-family="Helvetica,sans-Serif" font-size="10.00">SFML/System/Time.hpp</text>
</a>
</g>
</g>
<!-- Node1&#45;&gt;Node5 -->
<g id="edge4" class="edge">
<title>Node1&#45;&gt;Node5</title>
<path fill="none" stroke="#63b8ff" d="M531.79,-219.51C587.68,-210.34 674.42,-196.11 734.03,-186.32"/>
<polygon fill="#63b8ff" stroke="#63b8ff" points="734.41,-189.81 743.72,-184.74 733.28,-182.9 734.41,-189.81"/>
</g>
<!-- Node6 -->
<g id="node6" class="node">
<title>Node6</title>
<g id="a_node6"><a xlink:title=" ">
<polygon fill="#e0e0e0" stroke="#999999" points="956,-184 884,-184 884,-165 956,-165 956,-184"/>
<text text-anchor="middle" x="920" y="-172" font-family="Helvetica,sans-Serif" font-size="10.00">sys/types.h</text>
</a>
</g>
</g>
<!-- Node1&#45;&gt;Node6 -->
<g id="edge5" class="edge">
<title>Node1&#45;&gt;Node6</title>
<path fill="none" stroke="#63b8ff" d="M544.45,-222.52C621.38,-215.35 751.16,-202.2 872.37,-184.29"/>
<polygon fill="#63b8ff" stroke="#63b8ff" points="872.82,-187.76 882.19,-182.82 871.79,-180.84 872.82,-187.76"/>
</g>
<!-- Node7 -->
<g id="node7" class="node">
<title>Node7</title>
<g id="a_node7"><a xlink:title=" ">
<polygon fill="#e0e0e0" stroke="#999999" points="438,-19 378,-19 378,0 438,0 438,-19"/>
<text text-anchor="middle" x="408" y="-7" font-family="Helvetica,sans-Serif" font-size="10.00">iostream</text>
</a>
</g>
</g>
<!-- Node1&#45;&gt;Node7 -->
<g id="edge6" class="edge">
<title>Node1&#45;&gt;Node7</title>
<path fill="none" stroke="#63b8ff" d="M491.65,-219.77C521.54,-200.77 584.81,-153.89 561,-110 536.93,-65.64 483.59,-37.96 446.71,-23.38"/>
<polygon fill="#63b8ff" stroke="#63b8ff" points="448.32,-20.25 437.73,-19.98 445.84,-26.79 448.32,-20.25"/>
</g>
<!-- Node8 -->
<g id="node8" class="node">
<title>Node8</title>
<g id="a_node8"><a xlink:href="Consts_8h.html" target="_top" xlink:title=" ">
<polygon fill="white" stroke="#666666" points="175.5,-129 116.5,-129 116.5,-110 175.5,-110 175.5,-129"/>
<text text-anchor="middle" x="146" y="-117" font-family="Helvetica,sans-Serif" font-size="10.00">Consts.h</text>
</a>
</g>
</g>
<!-- Node1&#45;&gt;Node8 -->
<g id="edge7" class="edge">
<title>Node1&#45;&gt;Node8</title>
<path fill="none" stroke="#63b8ff" d="M409.67,-224.18C336.61,-218.43 225.63,-206.31 190,-184 173.32,-173.55 161.3,-154.22 154.08,-139.61"/>
<polygon fill="#63b8ff" stroke="#63b8ff" points="157.29,-138.2 149.96,-130.55 150.92,-141.11 157.29,-138.2"/>
</g>
<!-- Node9 -->
<g id="node9" class="node">
<title>Node9</title>
<g id="a_node9"><a xlink:href="Enums_8h.html" target="_top" xlink:title=" ">
<polygon fill="white" stroke="#666666" points="271.5,-74 212.5,-74 212.5,-55 271.5,-55 271.5,-74"/>
<text text-anchor="middle" x="242" y="-62" font-family="Helvetica,sans-Serif" font-size="10.00">Enums.h</text>
</a>
</g>
</g>
<!-- Node1&#45;&gt;Node9 -->
<g id="edge13" class="edge">
<title>Node1&#45;&gt;Node9</title>
<path fill="none" stroke="#63b8ff" d="M409.5,-227.61C367.36,-223.88 314.08,-213.05 276,-184 245.74,-160.91 241.11,-112.72 241.11,-85.44"/>
<polygon fill="#63b8ff" stroke="#63b8ff" points="244.6,-85.83 241.34,-75.75 237.6,-85.66 244.6,-85.83"/>
</g>
<!-- Node12 -->
<g id="node12" class="node">
<title>Node12</title>
<g id="a_node12"><a xlink:href="TextureHolder_8h.html" target="_top" xlink:title=" ">
<polygon fill="white" stroke="#666666" points="378.5,-184 285.5,-184 285.5,-165 378.5,-165 378.5,-184"/>
<text text-anchor="middle" x="332" y="-172" font-family="Helvetica,sans-Serif" font-size="10.00">TextureHolder.h</text>
</a>
</g>
</g>
<!-- Node1&#45;&gt;Node12 -->
<g id="edge14" class="edge">
<title>Node1&#45;&gt;Node12</title>
<path fill="none" stroke="#63b8ff" d="M452.4,-219.51C428.93,-210.93 393.33,-197.92 366.93,-188.27"/>
<polygon fill="#63b8ff" stroke="#63b8ff" points="368.25,-185.02 357.66,-184.88 365.85,-191.6 368.25,-185.02"/>
</g>
<!-- Node8&#45;&gt;Node2 -->
<g id="edge8" class="edge">
<title>Node8&#45;&gt;Node2</title>
<path fill="none" stroke="#63b8ff" d="M130.56,-109.51C116.75,-101.47 96.25,-89.53 80.09,-80.11"/>
<polygon fill="#63b8ff" stroke="#63b8ff" points="81.92,-77.13 71.52,-75.12 78.4,-83.18 81.92,-77.13"/>
</g>
<!-- Node8&#45;&gt;Node9 -->
<g id="edge9" class="edge">
<title>Node8&#45;&gt;Node9</title>
<path fill="none" stroke="#63b8ff" d="M162.29,-109.51C176.99,-101.39 198.89,-89.3 216.02,-79.85"/>
<polygon fill="#63b8ff" stroke="#63b8ff" points="217.57,-82.99 224.63,-75.09 214.18,-76.86 217.57,-82.99"/>
</g>
<!-- Node10 -->
<g id="node10" class="node">
<title>Node10</title>
<g id="a_node10"><a xlink:href="Random_8h.html" target="_top" xlink:title=" ">
<polygon fill="white" stroke="#666666" points="194,-74 128,-74 128,-55 194,-55 194,-74"/>
<text text-anchor="middle" x="161" y="-62" font-family="Helvetica,sans-Serif" font-size="10.00">Random.h</text>
</a>
</g>
</g>
<!-- Node8&#45;&gt;Node10 -->
<g id="edge10" class="edge">
<title>Node8&#45;&gt;Node10</title>
<path fill="none" stroke="#63b8ff" d="M148.48,-109.75C150.35,-103.11 153.01,-93.73 155.39,-85.31"/>
<polygon fill="#63b8ff" stroke="#63b8ff" points="158.7,-86.47 158.06,-75.9 151.97,-84.57 158.7,-86.47"/>
</g>
<!-- Node10&#45;&gt;Node7 -->
<g id="edge12" class="edge">
<title>Node10&#45;&gt;Node7</title>
<path fill="none" stroke="#63b8ff" d="M194.31,-56.35C238.93,-46.78 318.08,-29.79 366.52,-19.4"/>
<polygon fill="#63b8ff" stroke="#63b8ff" points="367.02,-22.87 376.06,-17.35 365.55,-16.03 367.02,-22.87"/>
</g>
<!-- Node11 -->
<g id="node11" class="node">
<title>Node11</title>
<g id="a_node11"><a xlink:title=" ">
<polygon fill="#e0e0e0" stroke="#999999" points="188,-19 134,-19 134,0 188,0 188,-19"/>
<text text-anchor="middle" x="161" y="-7" font-family="Helvetica,sans-Serif" font-size="10.00">random</text>
</a>
</g>
</g>
<!-- Node10&#45;&gt;Node11 -->
<g id="edge11" class="edge">
<title>Node10&#45;&gt;Node11</title>
<path fill="none" stroke="#63b8ff" d="M161,-54.75C161,-48.27 161,-39.16 161,-30.9"/>
<polygon fill="#63b8ff" stroke="#63b8ff" points="164.5,-30.96 161,-20.96 157.5,-30.96 164.5,-30.96"/>
</g>
<!-- Node12&#45;&gt;Node4 -->
<g id="edge17" class="edge">
<title>Node12&#45;&gt;Node4</title>
<path fill="none" stroke="#63b8ff" d="M356.6,-164.51C380.07,-155.93 415.67,-142.92 442.07,-133.27"/>
<polygon fill="#63b8ff" stroke="#63b8ff" points="443.15,-136.6 451.34,-129.88 440.75,-130.02 443.15,-136.6"/>
</g>
<!-- Node12&#45;&gt;Node8 -->
<g id="edge19" class="edge">
<title>Node12&#45;&gt;Node8</title>
<path fill="none" stroke="#63b8ff" d="M300.45,-164.51C269.16,-155.59 221.08,-141.89 186.88,-132.15"/>
<polygon fill="#63b8ff" stroke="#63b8ff" points="187.89,-128.8 177.31,-129.42 185.97,-135.53 187.89,-128.8"/>
</g>
<!-- Node12&#45;&gt;Node9 -->
<g id="edge18" class="edge">
<title>Node12&#45;&gt;Node9</title>
<path fill="none" stroke="#63b8ff" d="M309.41,-164.51C293.7,-157.16 273.43,-145.32 261,-129 251.38,-116.37 246.61,-98.92 244.26,-85.51"/>
<polygon fill="#63b8ff" stroke="#63b8ff" points="247.74,-85.09 242.88,-75.67 240.8,-86.06 247.74,-85.09"/>
</g>
<!-- Node13 -->
<g id="node13" class="node">
<title>Node13</title>
<g id="a_node13"><a xlink:title=" ">
<polygon fill="#e0e0e0" stroke="#999999" points="328,-129 270,-129 270,-110 328,-110 328,-129"/>
<text text-anchor="middle" x="299" y="-117" font-family="Helvetica,sans-Serif" font-size="10.00">memory</text>
</a>
</g>
</g>
<!-- Node12&#45;&gt;Node13 -->
<g id="edge15" class="edge">
<title>Node12&#45;&gt;Node13</title>
<path fill="none" stroke="#63b8ff" d="M326.55,-164.75C322.23,-157.81 316.04,-147.86 310.62,-139.16"/>
<polygon fill="#63b8ff" stroke="#63b8ff" points="313.62,-137.37 305.37,-130.73 307.68,-141.07 313.62,-137.37"/>
</g>
<!-- Node14 -->
<g id="node14" class="node">
<title>Node14</title>
<g id="a_node14"><a xlink:title=" ">
<polygon fill="#e0e0e0" stroke="#999999" points="384,-129 346,-129 346,-110 384,-110 384,-129"/>
<text text-anchor="middle" x="365" y="-117" font-family="Helvetica,sans-Serif" font-size="10.00">map</text>
</a>
</g>
</g>
<!-- Node12&#45;&gt;Node14 -->
<g id="edge16" class="edge">
<title>Node12&#45;&gt;Node14</title>
<path fill="none" stroke="#63b8ff" d="M337.45,-164.75C341.77,-157.81 347.96,-147.86 353.38,-139.16"/>
<polygon fill="#63b8ff" stroke="#63b8ff" points="356.32,-141.07 358.63,-130.73 350.38,-137.37 356.32,-141.07"/>
</g>
</g>
</svg>
