<?xml version="1.0" encoding="UTF-8" standalone="no"?>
<!DOCTYPE svg PUBLIC "-//W3C//DTD SVG 1.1//EN"
 "http://www.w3.org/Graphics/SVG/1.1/DTD/svg11.dtd">
<!-- Generated by graphviz version 7.0.5 (0)
 -->
<!-- Title: src/AudioController.h Pages: 1 -->
<svg width="1065pt" height="357pt"
 viewBox="0.00 0.00 1064.50 357.00" xmlns="http://www.w3.org/2000/svg" xmlns:xlink="http://www.w3.org/1999/xlink">
<g id="graph0" class="graph" transform="scale(1 1) rotate(0) translate(4 353)">
<title>src/AudioController.h</title>
<!-- Node1 -->
<g id="node1" class="node">
<title>Node1</title>
<g id="a_node1"><a xlink:title=" ">
<polygon fill="#999999" stroke="#666666" points="522.5,-349 404.5,-349 404.5,-330 522.5,-330 522.5,-349"/>
<text text-anchor="middle" x="463.5" y="-337" font-family="Helvetica,sans-Serif" font-size="10.00">src/AudioController.h</text>
</a>
</g>
</g>
<!-- Node2 -->
<g id="node2" class="node">
<title>Node2</title>
<g id="a_node2"><a xlink:href="AudioController_8cpp.html" target="_top" xlink:title=" ">
<polygon fill="white" stroke="#666666" points="129,-294 0,-294 0,-275 129,-275 129,-294"/>
<text text-anchor="middle" x="64.5" y="-282" font-family="Helvetica,sans-Serif" font-size="10.00">src/AudioController.cpp</text>
</a>
</g>
</g>
<!-- Node1&#45;&gt;Node2 -->
<g id="edge1" class="edge">
<title>Node1&#45;&gt;Node2</title>
<path fill="none" stroke="#63b8ff" d="M393.06,-329.14C318.51,-319.24 201.83,-303.74 129.43,-294.13"/>
<polygon fill="#63b8ff" stroke="#63b8ff" points="392.32,-332.58 402.7,-330.42 393.24,-325.64 392.32,-332.58"/>
</g>
<!-- Node3 -->
<g id="node3" class="node">
<title>Node3</title>
<g id="a_node3"><a xlink:href="Camera_8cpp.html" target="_top" xlink:title=" ">
<polygon fill="white" stroke="#666666" points="239.5,-294 147.5,-294 147.5,-275 239.5,-275 239.5,-294"/>
<text text-anchor="middle" x="193.5" y="-282" font-family="Helvetica,sans-Serif" font-size="10.00">src/Camera.cpp</text>
</a>
</g>
</g>
<!-- Node1&#45;&gt;Node3 -->
<g id="edge2" class="edge">
<title>Node1&#45;&gt;Node3</title>
<path fill="none" stroke="#63b8ff" d="M406.46,-327.3C356.62,-317.52 285.19,-303.5 239.08,-294.45"/>
<polygon fill="#63b8ff" stroke="#63b8ff" points="405.73,-330.73 416.21,-329.22 407.07,-323.86 405.73,-330.73"/>
</g>
<!-- Node4 -->
<g id="node4" class="node">
<title>Node4</title>
<g id="a_node4"><a xlink:href="Effects_8cpp.html" target="_top" xlink:title=" ">
<polygon fill="white" stroke="#666666" points="345,-294 258,-294 258,-275 345,-275 345,-294"/>
<text text-anchor="middle" x="301.5" y="-282" font-family="Helvetica,sans-Serif" font-size="10.00">src/Effects.cpp</text>
</a>
</g>
</g>
<!-- Node1&#45;&gt;Node4 -->
<g id="edge3" class="edge">
<title>Node1&#45;&gt;Node4</title>
<path fill="none" stroke="#63b8ff" d="M425.24,-325.98C395.61,-316.29 355.29,-303.1 328.85,-294.45"/>
<polygon fill="#63b8ff" stroke="#63b8ff" points="423.99,-329.26 434.58,-329.04 426.16,-322.6 423.99,-329.26"/>
</g>
<!-- Node5 -->
<g id="node5" class="node">
<title>Node5</title>
<g id="a_node5"><a xlink:href="GameState_8cpp.html" target="_top" xlink:title=" ">
<polygon fill="white" stroke="#666666" points="553,-129 444,-129 444,-110 553,-110 553,-129"/>
<text text-anchor="middle" x="498.5" y="-117" font-family="Helvetica,sans-Serif" font-size="10.00">src/GameState.cpp</text>
</a>
</g>
</g>
<!-- Node1&#45;&gt;Node5 -->
<g id="edge4" class="edge">
<title>Node1&#45;&gt;Node5</title>
<path fill="none" stroke="#63b8ff" d="M439.11,-323.7C392.27,-293.43 298.06,-222.47 341.5,-165 354.01,-148.45 403.62,-136.27 443.77,-128.87"/>
<polygon fill="#63b8ff" stroke="#63b8ff" points="436.98,-326.49 447.3,-328.87 440.72,-320.57 436.98,-326.49"/>
</g>
<!-- Node6 -->
<g id="node6" class="node">
<title>Node6</title>
<g id="a_node6"><a xlink:href="PlayerState_8cpp.html" target="_top" xlink:title=" ">
<polygon fill="white" stroke="#666666" points="785.5,-294 675.5,-294 675.5,-275 785.5,-275 785.5,-294"/>
<text text-anchor="middle" x="730.5" y="-282" font-family="Helvetica,sans-Serif" font-size="10.00">src/PlayerState.cpp</text>
</a>
</g>
</g>
<!-- Node1&#45;&gt;Node6 -->
<g id="edge5" class="edge">
<title>Node1&#45;&gt;Node6</title>
<path fill="none" stroke="#63b8ff" d="M519.9,-327.3C569.19,-317.52 639.83,-303.5 685.43,-294.45"/>
<polygon fill="#63b8ff" stroke="#63b8ff" points="519.4,-323.83 510.28,-329.21 520.77,-330.7 519.4,-323.83"/>
</g>
<!-- Node7 -->
<g id="node7" class="node">
<title>Node7</title>
<g id="a_node7"><a xlink:href="ScoreState_8h.html" target="_top" xlink:title=" ">
<polygon fill="white" stroke="#666666" points="845,-239 750,-239 750,-220 845,-220 845,-239"/>
<text text-anchor="middle" x="797.5" y="-227" font-family="Helvetica,sans-Serif" font-size="10.00">src/ScoreState.h</text>
</a>
</g>
</g>
<!-- Node1&#45;&gt;Node7 -->
<g id="edge6" class="edge">
<title>Node1&#45;&gt;Node7</title>
<path fill="none" stroke="#63b8ff" d="M501.64,-326.01C527.01,-317.49 560.98,-305.67 590.5,-294 609.93,-286.32 613.81,-281.98 633.5,-275 675.21,-260.22 724.35,-247.48 757.89,-239.47"/>
<polygon fill="#63b8ff" stroke="#63b8ff" points="500.8,-322.61 492.42,-329.09 503.01,-329.25 500.8,-322.61"/>
</g>
<!-- Node14 -->
<g id="node14" class="node">
<title>Node14</title>
<g id="a_node14"><a xlink:href="SettingState_8h.html" target="_top" xlink:title=" ">
<polygon fill="white" stroke="#666666" points="966,-239 863,-239 863,-220 966,-220 966,-239"/>
<text text-anchor="middle" x="914.5" y="-227" font-family="Helvetica,sans-Serif" font-size="10.00">src/SettingState.h</text>
</a>
</g>
</g>
<!-- Node1&#45;&gt;Node14 -->
<g id="edge13" class="edge">
<title>Node1&#45;&gt;Node14</title>
<path fill="none" stroke="#63b8ff" d="M514.32,-326.84C546.59,-318.88 589,-307.37 625.5,-294 644.36,-287.09 647.35,-281.05 666.5,-275 702.22,-263.73 801.13,-247.62 862.7,-238.2"/>
<polygon fill="#63b8ff" stroke="#63b8ff" points="513.72,-323.39 504.83,-329.15 515.37,-330.19 513.72,-323.39"/>
</g>
<!-- Node16 -->
<g id="node16" class="node">
<title>Node16</title>
<g id="a_node16"><a xlink:href="State_8h.html" target="_top" xlink:title=" ">
<polygon fill="white" stroke="#666666" points="581.5,-294 513.5,-294 513.5,-275 581.5,-275 581.5,-294"/>
<text text-anchor="middle" x="547.5" y="-282" font-family="Helvetica,sans-Serif" font-size="10.00">src/State.h</text>
</a>
</g>
</g>
<!-- Node1&#45;&gt;Node16 -->
<g id="edge16" class="edge">
<title>Node1&#45;&gt;Node16</title>
<path fill="none" stroke="#63b8ff" d="M487.34,-323.46C502.23,-314.06 520.9,-302.28 533.46,-294.36"/>
<polygon fill="#63b8ff" stroke="#63b8ff" points="485.62,-320.41 479.03,-328.7 489.35,-326.33 485.62,-320.41"/>
</g>
<!-- Node8 -->
<g id="node8" class="node">
<title>Node8</title>
<g id="a_node8"><a xlink:href="MainMenuState_8h.html" target="_top" xlink:title=" ">
<polygon fill="white" stroke="#666666" points="936,-129 817,-129 817,-110 936,-110 936,-129"/>
<text text-anchor="middle" x="876.5" y="-117" font-family="Helvetica,sans-Serif" font-size="10.00">src/MainMenuState.h</text>
</a>
</g>
</g>
<!-- Node7&#45;&gt;Node8 -->
<g id="edge7" class="edge">
<title>Node7&#45;&gt;Node8</title>
<path fill="none" stroke="#63b8ff" d="M824.66,-213.73C836.25,-206.2 849.03,-196.07 857.5,-184 869.39,-167.04 873.96,-142.54 875.62,-129.48"/>
<polygon fill="#63b8ff" stroke="#63b8ff" points="822.93,-210.68 816.21,-218.87 826.57,-216.66 822.93,-210.68"/>
</g>
<!-- Node13 -->
<g id="node13" class="node">
<title>Node13</title>
<g id="a_node13"><a xlink:href="ScoreState_8cpp.html" target="_top" xlink:title=" ">
<polygon fill="white" stroke="#666666" points="848,-184 741,-184 741,-165 848,-165 848,-184"/>
<text text-anchor="middle" x="794.5" y="-172" font-family="Helvetica,sans-Serif" font-size="10.00">src/ScoreState.cpp</text>
</a>
</g>
</g>
<!-- Node7&#45;&gt;Node13 -->
<g id="edge12" class="edge">
<title>Node7&#45;&gt;Node13</title>
<path fill="none" stroke="#63b8ff" d="M796.36,-208.35C795.89,-200.1 795.38,-190.97 795.01,-184.44"/>
<polygon fill="#63b8ff" stroke="#63b8ff" points="792.86,-208.45 796.92,-218.24 799.85,-208.06 792.86,-208.45"/>
</g>
<!-- Node9 -->
<g id="node9" class="node">
<title>Node9</title>
<g id="a_node9"><a xlink:href="Game_8h.html" target="_top" xlink:title=" ">
<polygon fill="white" stroke="#666666" points="852.5,-74 780.5,-74 780.5,-55 852.5,-55 852.5,-74"/>
<text text-anchor="middle" x="816.5" y="-62" font-family="Helvetica,sans-Serif" font-size="10.00">src/Game.h</text>
</a>
</g>
</g>
<!-- Node8&#45;&gt;Node9 -->
<g id="edge8" class="edge">
<title>Node8&#45;&gt;Node9</title>
<path fill="none" stroke="#63b8ff" d="M857.92,-102.09C847.56,-92.94 835.07,-81.9 826.53,-74.36"/>
<polygon fill="#63b8ff" stroke="#63b8ff" points="855.38,-104.51 865.19,-108.51 860.01,-99.26 855.38,-104.51"/>
</g>
<!-- Node12 -->
<g id="node12" class="node">
<title>Node12</title>
<g id="a_node12"><a xlink:href="MainMenuState_8cpp.html" target="_top" xlink:title=" ">
<polygon fill="white" stroke="#666666" points="1002,-74 871,-74 871,-55 1002,-55 1002,-74"/>
<text text-anchor="middle" x="936.5" y="-62" font-family="Helvetica,sans-Serif" font-size="10.00">src/MainMenuState.cpp</text>
</a>
</g>
</g>
<!-- Node8&#45;&gt;Node12 -->
<g id="edge11" class="edge">
<title>Node8&#45;&gt;Node12</title>
<path fill="none" stroke="#63b8ff" d="M895.08,-102.09C905.44,-92.94 917.93,-81.9 926.47,-74.36"/>
<polygon fill="#63b8ff" stroke="#63b8ff" points="892.99,-99.26 887.81,-108.51 897.62,-104.51 892.99,-99.26"/>
</g>
<!-- Node10 -->
<g id="node10" class="node">
<title>Node10</title>
<g id="a_node10"><a xlink:href="FinalProjectCS202_8cpp.html" target="_top" xlink:title=" ">
<polygon fill="white" stroke="#666666" points="822.5,-19 680.5,-19 680.5,0 822.5,0 822.5,-19"/>
<text text-anchor="middle" x="751.5" y="-7" font-family="Helvetica,sans-Serif" font-size="10.00">src/FinalProjectCS202.cpp</text>
</a>
</g>
</g>
<!-- Node9&#45;&gt;Node10 -->
<g id="edge9" class="edge">
<title>Node9&#45;&gt;Node10</title>
<path fill="none" stroke="#63b8ff" d="M796.71,-47.37C785.42,-38.16 771.71,-26.98 762.36,-19.36"/>
<polygon fill="#63b8ff" stroke="#63b8ff" points="794.34,-49.95 804.3,-53.55 798.76,-44.52 794.34,-49.95"/>
</g>
<!-- Node11 -->
<g id="node11" class="node">
<title>Node11</title>
<g id="a_node11"><a xlink:href="Game_8cpp.html" target="_top" xlink:title=" ">
<polygon fill="white" stroke="#666666" points="924,-19 841,-19 841,0 924,0 924,-19"/>
<text text-anchor="middle" x="882.5" y="-7" font-family="Helvetica,sans-Serif" font-size="10.00">src/Game.cpp</text>
</a>
</g>
</g>
<!-- Node9&#45;&gt;Node11 -->
<g id="edge10" class="edge">
<title>Node9&#45;&gt;Node11</title>
<path fill="none" stroke="#63b8ff" d="M836.59,-47.37C848.05,-38.16 861.98,-26.98 871.47,-19.36"/>
<polygon fill="#63b8ff" stroke="#63b8ff" points="834.48,-44.57 828.88,-53.56 838.86,-50.03 834.48,-44.57"/>
</g>
<!-- Node14&#45;&gt;Node8 -->
<g id="edge14" class="edge">
<title>Node14&#45;&gt;Node8</title>
<path fill="none" stroke="#63b8ff" d="M907.6,-208.9C899.31,-185.33 885.76,-146.81 879.65,-129.46"/>
<polygon fill="#63b8ff" stroke="#63b8ff" points="904.27,-209.96 910.89,-218.23 910.87,-207.64 904.27,-209.96"/>
</g>
<!-- Node15 -->
<g id="node15" class="node">
<title>Node15</title>
<g id="a_node15"><a xlink:href="SettingState_8cpp.html" target="_top" xlink:title=" ">
<polygon fill="white" stroke="#666666" points="1056.5,-184 942.5,-184 942.5,-165 1056.5,-165 1056.5,-184"/>
<text text-anchor="middle" x="999.5" y="-172" font-family="Helvetica,sans-Serif" font-size="10.00">src/SettingState.cpp</text>
</a>
</g>
</g>
<!-- Node14&#45;&gt;Node15 -->
<g id="edge15" class="edge">
<title>Node14&#45;&gt;Node15</title>
<path fill="none" stroke="#63b8ff" d="M938.62,-213.46C953.69,-204.06 972.59,-192.28 985.29,-184.36"/>
<polygon fill="#63b8ff" stroke="#63b8ff" points="936.84,-210.45 930.2,-218.71 940.54,-216.39 936.84,-210.45"/>
</g>
<!-- Node16&#45;&gt;Node7 -->
<g id="edge24" class="edge">
<title>Node16&#45;&gt;Node7</title>
<path fill="none" stroke="#63b8ff" d="M593.2,-273.81C639.49,-264 710.5,-248.94 755.44,-239.42"/>
<polygon fill="#63b8ff" stroke="#63b8ff" points="592.54,-270.37 583.48,-275.87 593.99,-277.22 592.54,-270.37"/>
</g>
<!-- Node16&#45;&gt;Node14 -->
<g id="edge25" class="edge">
<title>Node16&#45;&gt;Node14</title>
<path fill="none" stroke="#63b8ff" d="M592.95,-276.94C661.44,-267.04 790.75,-248.37 862.76,-237.97"/>
<polygon fill="#63b8ff" stroke="#63b8ff" points="592.59,-273.45 583.19,-278.35 593.59,-280.38 592.59,-273.45"/>
</g>
<!-- Node17 -->
<g id="node17" class="node">
<title>Node17</title>
<g id="a_node17"><a xlink:href="GameState_8h.html" target="_top" xlink:title=" ">
<polygon fill="white" stroke="#666666" points="722.5,-184 624.5,-184 624.5,-165 722.5,-165 722.5,-184"/>
<text text-anchor="middle" x="673.5" y="-172" font-family="Helvetica,sans-Serif" font-size="10.00">src/GameState.h</text>
</a>
</g>
</g>
<!-- Node16&#45;&gt;Node17 -->
<g id="edge17" class="edge">
<title>Node16&#45;&gt;Node17</title>
<path fill="none" stroke="#63b8ff" d="M561.81,-265.96C573.19,-252.58 589.89,-234.11 606.5,-220 622.89,-206.08 643.81,-192.8 657.87,-184.43"/>
<polygon fill="#63b8ff" stroke="#63b8ff" points="559.24,-263.59 555.52,-273.51 564.62,-268.07 559.24,-263.59"/>
</g>
<!-- Node18 -->
<g id="node18" class="node">
<title>Node18</title>
<g id="a_node18"><a xlink:href="PauseMenu_8h.html" target="_top" xlink:title=" ">
<polygon fill="white" stroke="#666666" points="558.5,-239 460.5,-239 460.5,-220 558.5,-220 558.5,-239"/>
<text text-anchor="middle" x="509.5" y="-227" font-family="Helvetica,sans-Serif" font-size="10.00">src/PauseMenu.h</text>
</a>
</g>
</g>
<!-- Node16&#45;&gt;Node18 -->
<g id="edge20" class="edge">
<title>Node16&#45;&gt;Node18</title>
<path fill="none" stroke="#63b8ff" d="M534.7,-265.65C528.38,-256.84 521.04,-246.59 515.91,-239.44"/>
<polygon fill="#63b8ff" stroke="#63b8ff" points="531.67,-267.43 540.34,-273.52 537.36,-263.35 531.67,-267.43"/>
</g>
<!-- Node21 -->
<g id="node21" class="node">
<title>Node21</title>
<g id="a_node21"><a xlink:href="State_8cpp.html" target="_top" xlink:title=" ">
<polygon fill="white" stroke="#666666" points="442.5,-239 362.5,-239 362.5,-220 442.5,-220 442.5,-239"/>
<text text-anchor="middle" x="402.5" y="-227" font-family="Helvetica,sans-Serif" font-size="10.00">src/State.cpp</text>
</a>
</g>
</g>
<!-- Node16&#45;&gt;Node21 -->
<g id="edge26" class="edge">
<title>Node16&#45;&gt;Node21</title>
<path fill="none" stroke="#63b8ff" d="M512.16,-270.58C485.66,-260.9 450.08,-247.89 426.73,-239.36"/>
<polygon fill="#63b8ff" stroke="#63b8ff" points="510.89,-273.84 521.48,-273.99 513.29,-267.27 510.89,-273.84"/>
</g>
<!-- Node22 -->
<g id="node22" class="node">
<title>Node22</title>
<g id="a_node22"><a xlink:href="SummaryMenu_8h.html" target="_top" xlink:title=" ">
<polygon fill="white" stroke="#666666" points="732,-239 615,-239 615,-220 732,-220 732,-239"/>
<text text-anchor="middle" x="673.5" y="-227" font-family="Helvetica,sans-Serif" font-size="10.00">src/SummaryMenu.h</text>
</a>
</g>
</g>
<!-- Node16&#45;&gt;Node22 -->
<g id="edge27" class="edge">
<title>Node16&#45;&gt;Node22</title>
<path fill="none" stroke="#63b8ff" d="M579.45,-270.06C602.34,-260.43 632.52,-247.74 652.44,-239.36"/>
<polygon fill="#63b8ff" stroke="#63b8ff" points="578.13,-266.82 570.27,-273.92 580.84,-273.27 578.13,-266.82"/>
</g>
<!-- Node17&#45;&gt;Node5 -->
<g id="edge18" class="edge">
<title>Node17&#45;&gt;Node5</title>
<path fill="none" stroke="#63b8ff" d="M633.01,-161.24C600.93,-151.52 556.86,-138.18 528.04,-129.45"/>
<polygon fill="#63b8ff" stroke="#63b8ff" points="631.78,-164.52 642.37,-164.07 633.81,-157.82 631.78,-164.52"/>
</g>
<!-- Node17&#45;&gt;Node8 -->
<g id="edge19" class="edge">
<title>Node17&#45;&gt;Node8</title>
<path fill="none" stroke="#63b8ff" d="M719.01,-161.62C756.34,-151.87 808.36,-138.29 842.23,-129.45"/>
<polygon fill="#63b8ff" stroke="#63b8ff" points="718.19,-158.21 709.4,-164.13 719.96,-164.99 718.19,-158.21"/>
</g>
<!-- Node18&#45;&gt;Node17 -->
<g id="edge21" class="edge">
<title>Node18&#45;&gt;Node17</title>
<path fill="none" stroke="#63b8ff" d="M548.23,-215.98C578.23,-206.29 619.04,-193.1 645.82,-184.45"/>
<polygon fill="#63b8ff" stroke="#63b8ff" points="547.2,-212.64 538.76,-219.04 549.35,-219.3 547.2,-212.64"/>
</g>
<!-- Node19 -->
<g id="node19" class="node">
<title>Node19</title>
<g id="a_node19"><a xlink:href="PauseMenu_8cpp.html" target="_top" xlink:title=" ">
<polygon fill="white" stroke="#666666" points="460.5,-184 350.5,-184 350.5,-165 460.5,-165 460.5,-184"/>
<text text-anchor="middle" x="405.5" y="-172" font-family="Helvetica,sans-Serif" font-size="10.00">src/PauseMenu.cpp</text>
</a>
</g>
</g>
<!-- Node18&#45;&gt;Node19 -->
<g id="edge22" class="edge">
<title>Node18&#45;&gt;Node19</title>
<path fill="none" stroke="#63b8ff" d="M481.83,-214.4C463.11,-204.86 438.95,-192.55 422.88,-184.36"/>
<polygon fill="#63b8ff" stroke="#63b8ff" points="480.01,-217.4 490.51,-218.82 483.19,-211.16 480.01,-217.4"/>
</g>
<!-- Node20 -->
<g id="node20" class="node">
<title>Node20</title>
<g id="a_node20"><a xlink:href="SummaryMenu_8cpp.html" target="_top" xlink:title=" ">
<polygon fill="white" stroke="#666666" points="606.5,-184 478.5,-184 478.5,-165 606.5,-165 606.5,-184"/>
<text text-anchor="middle" x="542.5" y="-172" font-family="Helvetica,sans-Serif" font-size="10.00">src/SummaryMenu.cpp</text>
</a>
</g>
</g>
<!-- Node18&#45;&gt;Node20 -->
<g id="edge23" class="edge">
<title>Node18&#45;&gt;Node20</title>
<path fill="none" stroke="#63b8ff" d="M520.97,-210.08C526.38,-201.4 532.58,-191.44 536.93,-184.44"/>
<polygon fill="#63b8ff" stroke="#63b8ff" points="518.06,-208.12 515.75,-218.46 524.01,-211.82 518.06,-208.12"/>
</g>
<!-- Node22&#45;&gt;Node17 -->
<g id="edge28" class="edge">
<title>Node22&#45;&gt;Node17</title>
<path fill="none" stroke="#63b8ff" d="M673.5,-208.35C673.5,-200.1 673.5,-190.97 673.5,-184.44"/>
<polygon fill="#63b8ff" stroke="#63b8ff" points="670,-208.23 673.5,-218.23 677,-208.23 670,-208.23"/>
</g>
</g>
</svg>
