<?xml version="1.0" encoding="UTF-8" standalone="no"?>
<!DOCTYPE svg PUBLIC "-//W3C//DTD SVG 1.1//EN"
 "http://www.w3.org/Graphics/SVG/1.1/DTD/svg11.dtd">
<!-- Generated by graphviz version 7.0.5 (0)
 -->
<!-- Title: src/Camera.h Pages: 1 -->
<!--zoomable 467 -->
<svg id="main" version="1.1" xmlns="http://www.w3.org/2000/svg" xmlns:xlink="http://www.w3.org/1999/xlink" xml:space="preserve" onload="init(evt)">
<style type="text/css"><![CDATA[
.edge:hover path { stroke: red; }
.edge:hover polygon { stroke: red; fill: red; }
]]></style>
<script type="text/javascript"><![CDATA[
var edges = document.getElementsByTagName('g');
if (edges && edges.length) {
  for (var i=0;i<edges.length;i++) {
    if (edges[i].id.substr(0,4)=='edge') {
      edges[i].setAttribute('class','edge');
    }
  }
}
]]></script>
        <defs>
                <circle id="rim" cx="0" cy="0" r="7"/>
                <circle id="rim2" cx="0" cy="0" r="3.5"/>
                <g id="zoomPlus">
                        <use xlink:href="#rim" fill="#404040">
                                <set attributeName="fill" to="#808080" begin="zoomplus.mouseover" end="zoomplus.mouseout"/>
                        </use>
                        <path d="M-4,0h8M0,-4v8" fill="none" stroke="white" stroke-width="1.5" pointer-events="none"/>
                </g>
                <g id="zoomMin">
                        <use xlink:href="#rim" fill="#404040">
                                <set attributeName="fill" to="#808080" begin="zoomminus.mouseover" end="zoomminus.mouseout"/>
                        </use>
                        <path d="M-4,0h8" fill="none" stroke="white" stroke-width="1.5" pointer-events="none"/>
                </g>
                <g id="dirArrow">
                        <path fill="none" stroke="white" stroke-width="1.5" d="M0,-3.0v7 M-2.5,-0.5L0,-3.0L2.5,-0.5"/>
                </g>
               <g id="resetDef">
                       <use xlink:href="#rim2" fill="#404040">
                               <set attributeName="fill" to="#808080" begin="reset.mouseover" end="reset.mouseout"/>
                       </use>
               </g>
        </defs>

<script type="text/javascript">
var viewWidth = 3268;
var viewHeight = 467;
var sectionId = 'dynsection-0';
</script>
<script xlink:href="svgpan.js"/>
<svg id="graph" class="graph">
<g id="viewport">
<title>src/Camera.h</title>
<!-- Node1 -->
<g id="node1" class="node">
<title>Node1</title>
<g id="a_node1"><a xlink:title=" ">
<polygon fill="#999999" stroke="#666666" points="1673.5,-459 1592.5,-459 1592.5,-440 1673.5,-440 1673.5,-459"/>
<text text-anchor="middle" x="1633" y="-447" font-family="Helvetica,sans-Serif" font-size="10.00">src/Camera.h</text>
</a>
</g>
</g>
<!-- Node2 -->
<g id="node2" class="node">
<title>Node2</title>
<g id="a_node2"><a xlink:href="Enums_8h.html" target="_top" xlink:title=" ">
<polygon fill="white" stroke="#666666" points="1960.5,-74 1901.5,-74 1901.5,-55 1960.5,-55 1960.5,-74"/>
<text text-anchor="middle" x="1931" y="-62" font-family="Helvetica,sans-Serif" font-size="10.00">Enums.h</text>
</a>
</g>
</g>
<!-- Node1&#45;&gt;Node2 -->
<g id="edge1" class="edge">
<title>Node1&#45;&gt;Node2</title>
<path fill="none" stroke="#63b8ff" d="M1592.13,-448.08C1399.91,-445.98 584.6,-435.34 332,-404 199.34,-387.54 38,-474.18 38,-340.5 38,-340.5 38,-340.5 38,-173.5 38,-77.41 1613.25,-66.76 1889.8,-65.63"/>
<polygon fill="#63b8ff" stroke="#63b8ff" points="1889.77,-69.13 1899.75,-65.59 1889.74,-62.13 1889.77,-69.13"/>
</g>
<!-- Node3 -->
<g id="node3" class="node">
<title>Node3</title>
<g id="a_node3"><a xlink:href="SceneNode_8h.html" target="_top" xlink:title=" ">
<polygon fill="white" stroke="#666666" points="1407,-239 1327,-239 1327,-220 1407,-220 1407,-239"/>
<text text-anchor="middle" x="1367" y="-227" font-family="Helvetica,sans-Serif" font-size="10.00">SceneNode.h</text>
</a>
</g>
</g>
<!-- Node1&#45;&gt;Node3 -->
<g id="edge2" class="edge">
<title>Node1&#45;&gt;Node3</title>
<path fill="none" stroke="#63b8ff" d="M1592.27,-441.88C1561.03,-435.53 1517.71,-423.9 1484,-404 1428.87,-371.45 1420.38,-350.88 1391,-294 1383.7,-279.88 1377.43,-263.01 1373.13,-250.21"/>
<polygon fill="#63b8ff" stroke="#63b8ff" points="1376.51,-249.28 1370.11,-240.84 1369.85,-251.43 1376.51,-249.28"/>
</g>
<!-- Node4 -->
<g id="node4" class="node">
<title>Node4</title>
<g id="a_node4"><a xlink:title=" ">
<polygon fill="#e0e0e0" stroke="#999999" points="2652,-74 2542,-74 2542,-55 2652,-55 2652,-74"/>
<text text-anchor="middle" x="2597" y="-62" font-family="Helvetica,sans-Serif" font-size="10.00">SFML/Graphics.hpp</text>
</a>
</g>
</g>
<!-- Node1&#45;&gt;Node4 -->
<g id="edge77" class="edge">
<title>Node1&#45;&gt;Node4</title>
<path fill="none" stroke="#63b8ff" d="M1673.76,-447.57C1905.44,-442.04 3046,-411.23 3046,-340.5 3046,-340.5 3046,-340.5 3046,-173.5 3046,-95.75 2788.29,-73.82 2663.36,-67.76"/>
<polygon fill="#63b8ff" stroke="#63b8ff" points="2663.72,-64.27 2653.57,-67.3 2663.4,-71.26 2663.72,-64.27"/>
</g>
<!-- Node12 -->
<g id="node12" class="node">
<title>Node12</title>
<g id="a_node12"><a xlink:title=" ">
<polygon fill="#e0e0e0" stroke="#999999" points="1731.5,-184 1588.5,-184 1588.5,-165 1731.5,-165 1731.5,-184"/>
<text text-anchor="middle" x="1660" y="-172" font-family="Helvetica,sans-Serif" font-size="10.00">SFML/System/Vector2.hpp</text>
</a>
</g>
</g>
<!-- Node1&#45;&gt;Node12 -->
<g id="edge80" class="edge">
<title>Node1&#45;&gt;Node12</title>
<path fill="none" stroke="#63b8ff" d="M1633,-439.54C1633,-421.03 1633,-377.25 1633,-340.5 1633,-340.5 1633,-340.5 1633,-283.5 1633,-251.69 1644.16,-216.13 1652.13,-194.8"/>
<polygon fill="#63b8ff" stroke="#63b8ff" points="1655.32,-196.27 1655.7,-185.68 1648.8,-193.73 1655.32,-196.27"/>
</g>
<!-- Node14 -->
<g id="node14" class="node">
<title>Node14</title>
<g id="a_node14"><a xlink:title=" ">
<polygon fill="#e0e0e0" stroke="#999999" points="189.5,-184 142.5,-184 142.5,-165 189.5,-165 189.5,-184"/>
<text text-anchor="middle" x="166" y="-172" font-family="Helvetica,sans-Serif" font-size="10.00">vector</text>
</a>
</g>
</g>
<!-- Node1&#45;&gt;Node14 -->
<g id="edge82" class="edge">
<title>Node1&#45;&gt;Node14</title>
<path fill="none" stroke="#63b8ff" d="M1592.23,-447.72C1353.95,-442.88 152,-414.82 152,-340.5 152,-340.5 152,-340.5 152,-283.5 152,-252.67 157.68,-217.29 161.81,-195.67"/>
<polygon fill="#63b8ff" stroke="#63b8ff" points="165.23,-196.39 163.76,-185.89 158.37,-195.02 165.23,-196.39"/>
</g>
<!-- Node16 -->
<g id="node16" class="node">
<title>Node16</title>
<g id="a_node16"><a xlink:title=" ">
<polygon fill="#e0e0e0" stroke="#999999" points="286,-19 226,-19 226,0 286,0 286,-19"/>
<text text-anchor="middle" x="256" y="-7" font-family="Helvetica,sans-Serif" font-size="10.00">iostream</text>
</a>
</g>
</g>
<!-- Node1&#45;&gt;Node16 -->
<g id="edge81" class="edge">
<title>Node1&#45;&gt;Node16</title>
<path fill="none" stroke="#63b8ff" d="M1592.17,-448.37C1350.58,-447.49 116.34,-441.15 46,-404 15.19,-387.72 0,-375.35 0,-340.5 0,-340.5 0,-340.5 0,-173.5 0,-72.97 142.2,-31.75 214.63,-17.27"/>
<polygon fill="#63b8ff" stroke="#63b8ff" points="214.98,-20.77 224.14,-15.46 213.66,-13.89 214.98,-20.77"/>
</g>
<!-- Node17 -->
<g id="node17" class="node">
<title>Node17</title>
<g id="a_node17"><a xlink:href="World_8h.html" target="_top" xlink:title=" ">
<polygon fill="white" stroke="#666666" points="1545.5,-404 1492.5,-404 1492.5,-385 1545.5,-385 1545.5,-404"/>
<text text-anchor="middle" x="1519" y="-392" font-family="Helvetica,sans-Serif" font-size="10.00">World.h</text>
</a>
</g>
</g>
<!-- Node1&#45;&gt;Node17 -->
<g id="edge17" class="edge">
<title>Node1&#45;&gt;Node17</title>
<path fill="none" stroke="#63b8ff" d="M1613.66,-439.51C1595.78,-431.2 1568.96,-418.73 1548.43,-409.18"/>
<polygon fill="#63b8ff" stroke="#63b8ff" points="1549.97,-406.04 1539.43,-405 1547.02,-412.39 1549.97,-406.04"/>
</g>
<!-- Node28 -->
<g id="node28" class="node">
<title>Node28</title>
<g id="a_node28"><a xlink:title=" ">
<polygon fill="#e0e0e0" stroke="#999999" points="2623.5,-184 2492.5,-184 2492.5,-165 2623.5,-165 2623.5,-184"/>
<text text-anchor="middle" x="2558" y="-172" font-family="Helvetica,sans-Serif" font-size="10.00">SFML/System/Time.hpp</text>
</a>
</g>
</g>
<!-- Node1&#45;&gt;Node28 -->
<g id="edge79" class="edge">
<title>Node1&#45;&gt;Node28</title>
<path fill="none" stroke="#63b8ff" d="M1665.63,-439.54C1697.8,-430.67 1748.35,-416.62 1792,-404 2070.41,-323.52 2404.32,-222.29 2517.92,-187.72"/>
<polygon fill="#63b8ff" stroke="#63b8ff" points="2518.84,-191.1 2527.38,-184.84 2516.8,-184.4 2518.84,-191.1"/>
</g>
<!-- Node37 -->
<g id="node37" class="node">
<title>Node37</title>
<g id="a_node37"><a xlink:href="PlayerCollidable_8h.html" target="_top" xlink:title=" ">
<polygon fill="white" stroke="#666666" points="1782.5,-404 1677.5,-404 1677.5,-385 1782.5,-385 1782.5,-404"/>
<text text-anchor="middle" x="1730" y="-392" font-family="Helvetica,sans-Serif" font-size="10.00">PlayerCollidable.h</text>
</a>
</g>
</g>
<!-- Node1&#45;&gt;Node37 -->
<g id="edge68" class="edge">
<title>Node1&#45;&gt;Node37</title>
<path fill="none" stroke="#63b8ff" d="M1649.45,-439.51C1664.32,-431.39 1686.44,-419.3 1703.75,-409.85"/>
<polygon fill="#63b8ff" stroke="#63b8ff" points="1705.36,-412.95 1712.46,-405.08 1702.01,-406.81 1705.36,-412.95"/>
</g>
<!-- Node38 -->
<g id="node38" class="node">
<title>Node38</title>
<g id="a_node38"><a xlink:href="PlayerState_8h.html" target="_top" xlink:title=" ">
<polygon fill="white" stroke="#666666" points="2288,-404 2206,-404 2206,-385 2288,-385 2288,-404"/>
<text text-anchor="middle" x="2247" y="-392" font-family="Helvetica,sans-Serif" font-size="10.00">PlayerState.h</text>
</a>
</g>
</g>
<!-- Node1&#45;&gt;Node38 -->
<g id="edge70" class="edge">
<title>Node1&#45;&gt;Node38</title>
<path fill="none" stroke="#63b8ff" d="M1673.78,-446.29C1766.2,-441.05 1998.61,-426.61 2192,-404 2192.83,-403.9 2193.66,-403.8 2194.5,-403.7"/>
<polygon fill="#63b8ff" stroke="#63b8ff" points="2194.65,-407.21 2204.1,-402.43 2193.73,-400.27 2194.65,-407.21"/>
</g>
<!-- Node39 -->
<g id="node39" class="node">
<title>Node39</title>
<g id="a_node39"><a xlink:title=" ">
<polygon fill="#e0e0e0" stroke="#999999" points="3259.5,-404 3074.5,-404 3074.5,-385 3259.5,-385 3259.5,-404"/>
<text text-anchor="middle" x="3167" y="-392" font-family="Helvetica,sans-Serif" font-size="10.00">SFML/Graphics/RenderWindow.hpp</text>
</a>
</g>
</g>
<!-- Node1&#45;&gt;Node39 -->
<g id="edge78" class="edge">
<title>Node1&#45;&gt;Node39</title>
<path fill="none" stroke="#63b8ff" d="M1673.9,-447.94C1843.95,-445.48 2511.82,-434.3 3060,-404 3061.02,-403.94 3062.04,-403.89 3063.07,-403.83"/>
<polygon fill="#63b8ff" stroke="#63b8ff" points="3062.95,-407.34 3072.71,-403.24 3062.52,-400.35 3062.95,-407.34"/>
</g>
<!-- Node3&#45;&gt;Node2 -->
<g id="edge3" class="edge">
<title>Node3&#45;&gt;Node2</title>
<path fill="none" stroke="#63b8ff" d="M1398.99,-219.57C1419.67,-212.54 1446.15,-201.05 1465,-184 1493.21,-158.48 1476.07,-130.67 1508,-110 1570.41,-69.59 1796.4,-65.22 1889.98,-65.19"/>
<polygon fill="#63b8ff" stroke="#63b8ff" points="1889.72,-68.69 1899.73,-65.21 1889.73,-61.69 1889.72,-68.69"/>
</g>
<!-- Node3&#45;&gt;Node4 -->
<g id="edge4" class="edge">
<title>Node3&#45;&gt;Node4</title>
<path fill="none" stroke="#63b8ff" d="M1390.54,-219.61C1436.56,-202.25 1534.14,-165.47 1536,-165 1903.1,-72.92 2361.02,-64.47 2530.19,-64.79"/>
<polygon fill="#63b8ff" stroke="#63b8ff" points="2530.1,-68.29 2540.11,-64.82 2530.12,-61.29 2530.1,-68.29"/>
</g>
<!-- Node5 -->
<g id="node5" class="node">
<title>Node5</title>
<g id="a_node5"><a xlink:title=" ">
<polygon fill="#e0e0e0" stroke="#999999" points="1063.5,-184 904.5,-184 904.5,-165 1063.5,-165 1063.5,-184"/>
<text text-anchor="middle" x="984" y="-172" font-family="Helvetica,sans-Serif" font-size="10.00">SFML/Graphics/Drawable.hpp</text>
</a>
</g>
</g>
<!-- Node3&#45;&gt;Node5 -->
<g id="edge5" class="edge">
<title>Node3&#45;&gt;Node5</title>
<path fill="none" stroke="#63b8ff" d="M1326.74,-222.93C1263.54,-214.18 1140.03,-197.09 1059.82,-185.99"/>
<polygon fill="#63b8ff" stroke="#63b8ff" points="1060.69,-182.58 1050.3,-184.67 1059.73,-189.51 1060.69,-182.58"/>
</g>
<!-- Node6 -->
<g id="node6" class="node">
<title>Node6</title>
<g id="a_node6"><a xlink:title=" ">
<polygon fill="#e0e0e0" stroke="#999999" points="1922,-184 1788,-184 1788,-165 1922,-165 1922,-184"/>
<text text-anchor="middle" x="1855" y="-172" font-family="Helvetica,sans-Serif" font-size="10.00">SFML/Graphics/Rect.hpp</text>
</a>
</g>
</g>
<!-- Node3&#45;&gt;Node6 -->
<g id="edge6" class="edge">
<title>Node3&#45;&gt;Node6</title>
<path fill="none" stroke="#63b8ff" d="M1407.35,-224.12C1488.21,-215.34 1671.34,-195.45 1776.6,-184.01"/>
<polygon fill="#63b8ff" stroke="#63b8ff" points="1776.72,-187.52 1786.29,-182.96 1775.97,-180.56 1776.72,-187.52"/>
</g>
<!-- Node7 -->
<g id="node7" class="node">
<title>Node7</title>
<g id="a_node7"><a xlink:title=" ">
<polygon fill="#e0e0e0" stroke="#999999" points="1260,-184 1082,-184 1082,-165 1260,-165 1260,-184"/>
<text text-anchor="middle" x="1171" y="-172" font-family="Helvetica,sans-Serif" font-size="10.00">SFML/Graphics/RenderStates.hpp</text>
</a>
</g>
</g>
<!-- Node3&#45;&gt;Node7 -->
<g id="edge7" class="edge">
<title>Node3&#45;&gt;Node7</title>
<path fill="none" stroke="#63b8ff" d="M1333.75,-219.51C1300.99,-210.65 1250.75,-197.07 1214.76,-187.33"/>
<polygon fill="#63b8ff" stroke="#63b8ff" points="1216.11,-184.07 1205.55,-184.84 1214.28,-190.83 1216.11,-184.07"/>
</g>
<!-- Node8 -->
<g id="node8" class="node">
<title>Node8</title>
<g id="a_node8"><a xlink:title=" ">
<polygon fill="#e0e0e0" stroke="#999999" points="1455.5,-184 1278.5,-184 1278.5,-165 1455.5,-165 1455.5,-184"/>
<text text-anchor="middle" x="1367" y="-172" font-family="Helvetica,sans-Serif" font-size="10.00">SFML/Graphics/RenderTarget.hpp</text>
</a>
</g>
</g>
<!-- Node3&#45;&gt;Node8 -->
<g id="edge8" class="edge">
<title>Node3&#45;&gt;Node8</title>
<path fill="none" stroke="#63b8ff" d="M1367,-219.75C1367,-213.27 1367,-204.16 1367,-195.9"/>
<polygon fill="#63b8ff" stroke="#63b8ff" points="1370.5,-195.96 1367,-185.96 1363.5,-195.96 1370.5,-195.96"/>
</g>
<!-- Node9 -->
<g id="node9" class="node">
<title>Node9</title>
<g id="a_node9"><a xlink:title=" ">
<polygon fill="#e0e0e0" stroke="#999999" points="445.5,-184 284.5,-184 284.5,-165 445.5,-165 445.5,-184"/>
<text text-anchor="middle" x="365" y="-172" font-family="Helvetica,sans-Serif" font-size="10.00">SFML/Graphics/Transform.hpp</text>
</a>
</g>
</g>
<!-- Node3&#45;&gt;Node9 -->
<g id="edge9" class="edge">
<title>Node3&#45;&gt;Node9</title>
<path fill="none" stroke="#63b8ff" d="M1326.51,-227.18C1199.94,-222.92 800.31,-208.4 457.35,-184.13"/>
<polygon fill="#63b8ff" stroke="#63b8ff" points="457.67,-180.65 447.45,-183.43 457.17,-187.63 457.67,-180.65"/>
</g>
<!-- Node10 -->
<g id="node10" class="node">
<title>Node10</title>
<g id="a_node10"><a xlink:title=" ">
<polygon fill="#e0e0e0" stroke="#999999" points="646,-184 464,-184 464,-165 646,-165 646,-184"/>
<text text-anchor="middle" x="555" y="-172" font-family="Helvetica,sans-Serif" font-size="10.00">SFML/Graphics/Transformable.hpp</text>
</a>
</g>
</g>
<!-- Node3&#45;&gt;Node10 -->
<g id="edge10" class="edge">
<title>Node3&#45;&gt;Node10</title>
<path fill="none" stroke="#63b8ff" d="M1326.83,-226.31C1219.94,-220.4 919.35,-203.35 657.54,-184.17"/>
<polygon fill="#63b8ff" stroke="#63b8ff" points="658.02,-180.7 647.79,-183.45 657.5,-187.68 658.02,-180.7"/>
</g>
<!-- Node11 -->
<g id="node11" class="node">
<title>Node11</title>
<g id="a_node11"><a xlink:title=" ">
<polygon fill="#e0e0e0" stroke="#999999" points="836,-184 664,-184 664,-165 836,-165 836,-184"/>
<text text-anchor="middle" x="750" y="-172" font-family="Helvetica,sans-Serif" font-size="10.00">SFML/System/NonCopyable.hpp</text>
</a>
</g>
</g>
<!-- Node3&#45;&gt;Node11 -->
<g id="edge11" class="edge">
<title>Node3&#45;&gt;Node11</title>
<path fill="none" stroke="#63b8ff" d="M1326.72,-225.12C1240.85,-217.91 1033.17,-200.41 847.8,-184.24"/>
<polygon fill="#63b8ff" stroke="#63b8ff" points="848.24,-180.77 837.97,-183.38 847.63,-187.74 848.24,-180.77"/>
</g>
<!-- Node3&#45;&gt;Node12 -->
<g id="edge12" class="edge">
<title>Node3&#45;&gt;Node12</title>
<path fill="none" stroke="#63b8ff" d="M1407.43,-221.19C1457.1,-212.2 1541.84,-196.87 1599.33,-186.47"/>
<polygon fill="#63b8ff" stroke="#63b8ff" points="1599.74,-189.96 1608.96,-184.73 1598.5,-183.07 1599.74,-189.96"/>
</g>
<!-- Node13 -->
<g id="node13" class="node">
<title>Node13</title>
<g id="a_node13"><a xlink:title=" ">
<polygon fill="#e0e0e0" stroke="#999999" points="2017,-129 1959,-129 1959,-110 2017,-110 2017,-129"/>
<text text-anchor="middle" x="1988" y="-117" font-family="Helvetica,sans-Serif" font-size="10.00">memory</text>
</a>
</g>
</g>
<!-- Node3&#45;&gt;Node13 -->
<g id="edge13" class="edge">
<title>Node3&#45;&gt;Node13</title>
<path fill="none" stroke="#63b8ff" d="M1407.46,-219.65C1442.02,-211.67 1492.84,-198.91 1536,-184 1556.13,-177.05 1559.4,-170.44 1580,-165 1711.28,-130.34 1873.18,-122.62 1947.38,-120.94"/>
<polygon fill="#63b8ff" stroke="#63b8ff" points="1947.07,-124.45 1957,-120.75 1946.94,-117.45 1947.07,-124.45"/>
</g>
<!-- Node3&#45;&gt;Node14 -->
<g id="edge14" class="edge">
<title>Node3&#45;&gt;Node14</title>
<path fill="none" stroke="#63b8ff" d="M1326.58,-227.95C1180.39,-225.74 665.44,-216.01 242,-184 228.62,-182.99 213.96,-181.45 201.12,-179.96"/>
<polygon fill="#63b8ff" stroke="#63b8ff" points="201.77,-176.51 191.42,-178.8 200.94,-183.46 201.77,-176.51"/>
</g>
<!-- Node15 -->
<g id="node15" class="node">
<title>Node15</title>
<g id="a_node15"><a xlink:title=" ">
<polygon fill="#e0e0e0" stroke="#999999" points="886,-184 854,-184 854,-165 886,-165 886,-184"/>
<text text-anchor="middle" x="870" y="-172" font-family="Helvetica,sans-Serif" font-size="10.00">set</text>
</a>
</g>
</g>
<!-- Node3&#45;&gt;Node15 -->
<g id="edge15" class="edge">
<title>Node3&#45;&gt;Node15</title>
<path fill="none" stroke="#63b8ff" d="M1326.74,-227.86C1246.48,-225.92 1060.93,-218.05 897.48,-184.02"/>
<polygon fill="#63b8ff" stroke="#63b8ff" points="898.24,-180.61 887.73,-181.95 896.79,-187.45 898.24,-180.61"/>
</g>
<!-- Node3&#45;&gt;Node16 -->
<g id="edge16" class="edge">
<title>Node3&#45;&gt;Node16</title>
<path fill="none" stroke="#63b8ff" d="M1326.5,-228.31C1133.42,-227.24 314.13,-220.54 275,-184 232.61,-144.41 242.99,-67.01 250.93,-30.49"/>
<polygon fill="#63b8ff" stroke="#63b8ff" points="254.3,-31.41 253.19,-20.88 247.49,-29.81 254.3,-31.41"/>
</g>
<!-- Node17&#45;&gt;Node3 -->
<g id="edge64" class="edge">
<title>Node17&#45;&gt;Node3</title>
<path fill="none" stroke="#63b8ff" d="M1501.23,-384.56C1486.45,-376.56 1465.41,-363.83 1450,-349 1418.3,-318.49 1391.12,-274.25 1377.12,-249.35"/>
<polygon fill="#63b8ff" stroke="#63b8ff" points="1380.26,-247.8 1372.37,-240.72 1374.12,-251.17 1380.26,-247.8"/>
</g>
<!-- Node17&#45;&gt;Node6 -->
<g id="edge65" class="edge">
<title>Node17&#45;&gt;Node6</title>
<path fill="none" stroke="#63b8ff" d="M1532.59,-384.68C1583.98,-351.34 1766.85,-232.69 1831.86,-190.51"/>
<polygon fill="#63b8ff" stroke="#63b8ff" points="1833.49,-193.63 1839.97,-185.25 1829.68,-187.76 1833.49,-193.63"/>
</g>
<!-- Node17&#45;&gt;Node12 -->
<g id="edge66" class="edge">
<title>Node17&#45;&gt;Node12</title>
<path fill="none" stroke="#63b8ff" d="M1522.94,-384.61C1534.96,-358.01 1573.19,-277.29 1619,-220 1626.53,-210.58 1635.55,-200.66 1643.21,-192.58"/>
<polygon fill="#63b8ff" stroke="#63b8ff" points="1645.66,-195.09 1650.08,-185.46 1640.62,-190.23 1645.66,-195.09"/>
</g>
<!-- Node18 -->
<g id="node18" class="node">
<title>Node18</title>
<g id="a_node18"><a xlink:href="Level_8h.html" target="_top" xlink:title=" ">
<polygon fill="white" stroke="#666666" points="290,-294 238,-294 238,-275 290,-275 290,-294"/>
<text text-anchor="middle" x="264" y="-282" font-family="Helvetica,sans-Serif" font-size="10.00">Level.h</text>
</a>
</g>
</g>
<!-- Node17&#45;&gt;Node18 -->
<g id="edge18" class="edge">
<title>Node17&#45;&gt;Node18</title>
<path fill="none" stroke="#63b8ff" d="M1492.21,-391.19C1330.93,-377.32 489.92,-304.94 301.49,-288.73"/>
<polygon fill="#63b8ff" stroke="#63b8ff" points="302.05,-285.26 291.79,-287.89 301.45,-292.24 302.05,-285.26"/>
</g>
<!-- Node22 -->
<g id="node22" class="node">
<title>Node22</title>
<g id="a_node22"><a xlink:href="Player_8h.html" target="_top" xlink:title=" ">
<polygon fill="white" stroke="#666666" points="1823,-349 1767,-349 1767,-330 1823,-330 1823,-349"/>
<text text-anchor="middle" x="1795" y="-337" font-family="Helvetica,sans-Serif" font-size="10.00">Player.h</text>
</a>
</g>
</g>
<!-- Node17&#45;&gt;Node22 -->
<g id="edge27" class="edge">
<title>Node17&#45;&gt;Node22</title>
<path fill="none" stroke="#63b8ff" d="M1545.97,-388.32C1594.95,-378.92 1698.72,-358.99 1755.63,-348.06"/>
<polygon fill="#63b8ff" stroke="#63b8ff" points="1756.04,-351.54 1765.2,-346.22 1754.72,-344.67 1756.04,-351.54"/>
</g>
<!-- Node36 -->
<g id="node36" class="node">
<title>Node36</title>
<g id="a_node36"><a xlink:title=" ">
<polygon fill="#e0e0e0" stroke="#999999" points="1491,-349 1459,-349 1459,-330 1491,-330 1491,-349"/>
<text text-anchor="middle" x="1475" y="-337" font-family="Helvetica,sans-Serif" font-size="10.00">list</text>
</a>
</g>
</g>
<!-- Node17&#45;&gt;Node36 -->
<g id="edge67" class="edge">
<title>Node17&#45;&gt;Node36</title>
<path fill="none" stroke="#63b8ff" d="M1511.73,-384.75C1505.72,-377.5 1496.99,-366.98 1489.54,-358.02"/>
<polygon fill="#63b8ff" stroke="#63b8ff" points="1492.47,-356.07 1483.39,-350.61 1487.08,-360.54 1492.47,-356.07"/>
</g>
<!-- Node18&#45;&gt;Node2 -->
<g id="edge22" class="edge">
<title>Node18&#45;&gt;Node2</title>
<path fill="none" stroke="#63b8ff" d="M261.51,-274.77C255.82,-252.73 244.57,-194.46 275,-165 334.87,-107.04 1640.2,-72.55 1889.91,-66.47"/>
<polygon fill="#63b8ff" stroke="#63b8ff" points="1889.9,-69.97 1899.81,-66.23 1889.73,-62.97 1889.9,-69.97"/>
</g>
<!-- Node18&#45;&gt;Node3 -->
<g id="edge23" class="edge">
<title>Node18&#45;&gt;Node3</title>
<path fill="none" stroke="#63b8ff" d="M290.45,-282.23C434.04,-275.33 1120.7,-242.33 1315.42,-232.98"/>
<polygon fill="#63b8ff" stroke="#63b8ff" points="1315.4,-236.48 1325.22,-232.51 1315.06,-229.49 1315.4,-236.48"/>
</g>
<!-- Node18&#45;&gt;Node12 -->
<g id="edge19" class="edge">
<title>Node18&#45;&gt;Node12</title>
<path fill="none" stroke="#63b8ff" d="M290.19,-283.26C439.87,-281.75 1188.3,-272.62 1416,-239 1454.95,-233.25 1559.66,-204.22 1618.47,-187.47"/>
<polygon fill="#63b8ff" stroke="#63b8ff" points="1619.12,-190.92 1627.78,-184.81 1617.2,-184.19 1619.12,-190.92"/>
</g>
<!-- Node19 -->
<g id="node19" class="node">
<title>Node19</title>
<g id="a_node19"><a xlink:title=" ">
<polygon fill="#e0e0e0" stroke="#999999" points="236,-239 180,-239 180,-220 236,-220 236,-239"/>
<text text-anchor="middle" x="208" y="-227" font-family="Helvetica,sans-Serif" font-size="10.00">assert.h</text>
</a>
</g>
</g>
<!-- Node18&#45;&gt;Node19 -->
<g id="edge20" class="edge">
<title>Node18&#45;&gt;Node19</title>
<path fill="none" stroke="#63b8ff" d="M254.5,-274.51C246.57,-267 235.05,-256.1 225.46,-247.03"/>
<polygon fill="#63b8ff" stroke="#63b8ff" points="228.13,-244.73 218.46,-240.4 223.32,-249.81 228.13,-244.73"/>
</g>
<!-- Node20 -->
<g id="node20" class="node">
<title>Node20</title>
<g id="a_node20"><a xlink:title=" ">
<polygon fill="#e0e0e0" stroke="#999999" points="154,-19 100,-19 100,0 154,0 154,-19"/>
<text text-anchor="middle" x="127" y="-7" font-family="Helvetica,sans-Serif" font-size="10.00">random</text>
</a>
</g>
</g>
<!-- Node18&#45;&gt;Node20 -->
<g id="edge21" class="edge">
<title>Node18&#45;&gt;Node20</title>
<path fill="none" stroke="#63b8ff" d="M237.86,-280.64C186.2,-273.39 76,-249.28 76,-175.5 76,-175.5 76,-175.5 76,-118.5 76,-84.09 97.43,-48.9 112.51,-28.41"/>
<polygon fill="#63b8ff" stroke="#63b8ff" points="115.23,-30.62 118.55,-20.56 109.68,-26.35 115.23,-30.62"/>
</g>
<!-- Node21 -->
<g id="node21" class="node">
<title>Node21</title>
<g id="a_node21"><a xlink:href="Random_8h.html" target="_top" xlink:title=" ">
<polygon fill="white" stroke="#666666" points="211,-74 145,-74 145,-55 211,-55 211,-74"/>
<text text-anchor="middle" x="178" y="-62" font-family="Helvetica,sans-Serif" font-size="10.00">Random.h</text>
</a>
</g>
</g>
<!-- Node18&#45;&gt;Node21 -->
<g id="edge24" class="edge">
<title>Node18&#45;&gt;Node21</title>
<path fill="none" stroke="#63b8ff" d="M237.85,-275.16C217.96,-267.88 190.75,-255.84 171,-239 148.4,-219.72 141.85,-212.36 133,-184 121.64,-147.58 146.3,-106.15 163.41,-83.19"/>
<polygon fill="#63b8ff" stroke="#63b8ff" points="166.03,-85.52 169.43,-75.48 160.51,-81.21 166.03,-85.52"/>
</g>
<!-- Node21&#45;&gt;Node16 -->
<g id="edge26" class="edge">
<title>Node21&#45;&gt;Node16</title>
<path fill="none" stroke="#63b8ff" d="M191.23,-54.51C202.84,-46.62 219.97,-34.98 233.7,-25.65"/>
<polygon fill="#63b8ff" stroke="#63b8ff" points="235.41,-28.72 241.71,-20.21 231.47,-22.93 235.41,-28.72"/>
</g>
<!-- Node21&#45;&gt;Node20 -->
<g id="edge25" class="edge">
<title>Node21&#45;&gt;Node20</title>
<path fill="none" stroke="#63b8ff" d="M169.58,-54.75C162.53,-47.43 152.27,-36.76 143.59,-27.74"/>
<polygon fill="#63b8ff" stroke="#63b8ff" points="146.11,-25.31 136.65,-20.53 141.07,-30.17 146.11,-25.31"/>
</g>
<!-- Node22&#45;&gt;Node2 -->
<g id="edge53" class="edge">
<title>Node22&#45;&gt;Node2</title>
<path fill="none" stroke="#63b8ff" d="M1823.35,-333.78C1968.2,-309.61 2619.54,-200.17 2633,-184 2686.74,-119.44 2956.06,-200.72 2365,-110 2221.33,-87.95 2049.19,-73.95 1971.98,-68.33"/>
<polygon fill="#63b8ff" stroke="#63b8ff" points="1972.6,-64.86 1962.37,-67.63 1972.09,-71.84 1972.6,-64.86"/>
</g>
<!-- Node22&#45;&gt;Node3 -->
<g id="edge54" class="edge">
<title>Node22&#45;&gt;Node3</title>
<path fill="none" stroke="#63b8ff" d="M1766.59,-331.33C1694.24,-313.07 1502.5,-264.69 1413.55,-242.25"/>
<polygon fill="#63b8ff" stroke="#63b8ff" points="1414.48,-238.87 1403.93,-239.82 1412.77,-245.66 1414.48,-238.87"/>
</g>
<!-- Node22&#45;&gt;Node6 -->
<g id="edge62" class="edge">
<title>Node22&#45;&gt;Node6</title>
<path fill="none" stroke="#63b8ff" d="M1810.41,-329.72C1822.38,-321.99 1838.21,-309.55 1846,-294 1861.82,-262.43 1860.51,-220.1 1857.9,-195.51"/>
<polygon fill="#63b8ff" stroke="#63b8ff" points="1861.42,-195.41 1856.69,-185.93 1854.47,-196.29 1861.42,-195.41"/>
</g>
<!-- Node22&#45;&gt;Node12 -->
<g id="edge63" class="edge">
<title>Node22&#45;&gt;Node12</title>
<path fill="none" stroke="#63b8ff" d="M1766.91,-330.9C1746.93,-324.18 1720.76,-312.51 1704,-294 1678.42,-265.75 1667.3,-221.3 1662.79,-195.62"/>
<polygon fill="#63b8ff" stroke="#63b8ff" points="1666.27,-195.22 1661.27,-185.88 1659.35,-196.3 1666.27,-195.22"/>
</g>
<!-- Node23 -->
<g id="node23" class="node">
<title>Node23</title>
<g id="a_node23"><a xlink:href="Effect_8h.html" target="_top" xlink:title=" ">
<polygon fill="white" stroke="#666666" points="1765.5,-294 1712.5,-294 1712.5,-275 1765.5,-275 1765.5,-294"/>
<text text-anchor="middle" x="1739" y="-282" font-family="Helvetica,sans-Serif" font-size="10.00">Effect.h</text>
</a>
</g>
</g>
<!-- Node22&#45;&gt;Node23 -->
<g id="edge28" class="edge">
<title>Node22&#45;&gt;Node23</title>
<path fill="none" stroke="#63b8ff" d="M1785.5,-329.51C1777.57,-322 1766.05,-311.1 1756.46,-302.03"/>
<polygon fill="#63b8ff" stroke="#63b8ff" points="1759.13,-299.73 1749.46,-295.4 1754.32,-304.81 1759.13,-299.73"/>
</g>
<!-- Node24 -->
<g id="node24" class="node">
<title>Node24</title>
<g id="a_node24"><a xlink:href="Entity_8h.html" target="_top" xlink:title=" ">
<polygon fill="white" stroke="#666666" points="1836.5,-294 1783.5,-294 1783.5,-275 1836.5,-275 1836.5,-294"/>
<text text-anchor="middle" x="1810" y="-282" font-family="Helvetica,sans-Serif" font-size="10.00">Entity.h</text>
</a>
</g>
</g>
<!-- Node22&#45;&gt;Node24 -->
<g id="edge29" class="edge">
<title>Node22&#45;&gt;Node24</title>
<path fill="none" stroke="#63b8ff" d="M1797.48,-329.75C1799.35,-323.11 1802.01,-313.73 1804.39,-305.31"/>
<polygon fill="#63b8ff" stroke="#63b8ff" points="1807.7,-306.47 1807.06,-295.9 1800.97,-304.57 1807.7,-306.47"/>
</g>
<!-- Node33 -->
<g id="node33" class="node">
<title>Node33</title>
<g id="a_node33"><a xlink:href="Effects_8h.html" target="_top" xlink:title=" ">
<polygon fill="white" stroke="#666666" points="2719.5,-239 2660.5,-239 2660.5,-220 2719.5,-220 2719.5,-239"/>
<text text-anchor="middle" x="2690" y="-227" font-family="Helvetica,sans-Serif" font-size="10.00">Effects.h</text>
</a>
</g>
</g>
<!-- Node22&#45;&gt;Node33 -->
<g id="edge55" class="edge">
<title>Node22&#45;&gt;Node33</title>
<path fill="none" stroke="#63b8ff" d="M1823.26,-335.09C1953.43,-319.38 2495.4,-253.98 2649.16,-235.43"/>
<polygon fill="#63b8ff" stroke="#63b8ff" points="2649.37,-238.93 2658.88,-234.26 2648.53,-231.98 2649.37,-238.93"/>
</g>
<!-- Node24&#45;&gt;Node2 -->
<g id="edge48" class="edge">
<title>Node24&#45;&gt;Node2</title>
<path fill="none" stroke="#63b8ff" d="M1803.51,-274.65C1789.38,-254.21 1758.67,-202.6 1779,-165 1802.89,-120.81 1855.89,-93.09 1892.53,-78.45"/>
<polygon fill="#63b8ff" stroke="#63b8ff" points="1893.36,-81.88 1901.45,-75.04 1890.86,-75.35 1893.36,-81.88"/>
</g>
<!-- Node24&#45;&gt;Node3 -->
<g id="edge49" class="edge">
<title>Node24&#45;&gt;Node3</title>
<path fill="none" stroke="#63b8ff" d="M1783.32,-276.64C1780.52,-276.04 1777.71,-275.47 1775,-275 1647.99,-252.75 1496.68,-239.72 1418.88,-233.99"/>
<polygon fill="#63b8ff" stroke="#63b8ff" points="1419.23,-230.51 1409,-233.28 1418.72,-237.49 1419.23,-230.51"/>
</g>
<!-- Node24&#45;&gt;Node6 -->
<g id="edge50" class="edge">
<title>Node24&#45;&gt;Node6</title>
<path fill="none" stroke="#63b8ff" d="M1813.68,-274.66C1820.9,-257.34 1837.06,-218.55 1846.9,-194.95"/>
<polygon fill="#63b8ff" stroke="#63b8ff" points="1850.07,-196.43 1850.68,-185.86 1843.61,-193.74 1850.07,-196.43"/>
</g>
<!-- Node24&#45;&gt;Node12 -->
<g id="edge52" class="edge">
<title>Node24&#45;&gt;Node12</title>
<path fill="none" stroke="#63b8ff" d="M1797.72,-274.66C1772.23,-256.31 1713.29,-213.87 1681.4,-190.91"/>
<polygon fill="#63b8ff" stroke="#63b8ff" points="1683.83,-188.35 1673.67,-185.34 1679.74,-194.03 1683.83,-188.35"/>
</g>
<!-- Node25 -->
<g id="node25" class="node">
<title>Node25</title>
<g id="a_node25"><a xlink:href="AnimationMachine_8h.html" target="_top" xlink:title=" ">
<polygon fill="white" stroke="#666666" points="2285.5,-239 2168.5,-239 2168.5,-220 2285.5,-220 2285.5,-239"/>
<text text-anchor="middle" x="2227" y="-227" font-family="Helvetica,sans-Serif" font-size="10.00">AnimationMachine.h</text>
</a>
</g>
</g>
<!-- Node24&#45;&gt;Node25 -->
<g id="edge30" class="edge">
<title>Node24&#45;&gt;Node25</title>
<path fill="none" stroke="#63b8ff" d="M1836.72,-280.1C1900.39,-272.01 2062.77,-251.37 2156.8,-239.42"/>
<polygon fill="#63b8ff" stroke="#63b8ff" points="2157.22,-242.9 2166.69,-238.16 2156.33,-235.95 2157.22,-242.9"/>
</g>
<!-- Node24&#45;&gt;Node28 -->
<g id="edge51" class="edge">
<title>Node24&#45;&gt;Node28</title>
<path fill="none" stroke="#63b8ff" d="M1836.87,-282.18C1925.38,-277.66 2207.12,-261.79 2295,-239 2315.22,-233.75 2318.09,-226.33 2338,-220 2385.73,-204.83 2440.98,-193.67 2484.17,-186.33"/>
<polygon fill="#63b8ff" stroke="#63b8ff" points="2484.67,-189.79 2493.96,-184.7 2483.52,-182.89 2484.67,-189.79"/>
</g>
<!-- Node25&#45;&gt;Node2 -->
<g id="edge41" class="edge">
<title>Node25&#45;&gt;Node2</title>
<path fill="none" stroke="#63b8ff" d="M2168.21,-221.46C2097.11,-212.47 1985.02,-196.57 1970,-184 1940.74,-159.51 1933.28,-112.61 1931.48,-85.74"/>
<polygon fill="#63b8ff" stroke="#63b8ff" points="1934.98,-85.69 1931.04,-75.85 1927.98,-86 1934.98,-85.69"/>
</g>
<!-- Node25&#45;&gt;Node4 -->
<g id="edge31" class="edge">
<title>Node25&#45;&gt;Node4</title>
<path fill="none" stroke="#63b8ff" d="M2268.54,-219.51C2300.71,-211.88 2346.04,-199.69 2384,-184 2456.57,-154.01 2535.84,-105.24 2573.97,-80.67"/>
<polygon fill="#63b8ff" stroke="#63b8ff" points="2575.85,-83.62 2582.33,-75.24 2572.04,-77.75 2575.85,-83.62"/>
</g>
<!-- Node25&#45;&gt;Node16 -->
<g id="edge36" class="edge">
<title>Node25&#45;&gt;Node16</title>
<path fill="none" stroke="#63b8ff" d="M2276.95,-219.55C2315.7,-211.95 2370.48,-199.77 2417,-184 2475.09,-164.31 2703.97,-98.77 2661,-55 2617.88,-11.07 613.04,-10.31 297.58,-10.47"/>
<polygon fill="#63b8ff" stroke="#63b8ff" points="297.77,-6.97 287.77,-10.47 297.78,-13.97 297.77,-6.97"/>
</g>
<!-- Node26 -->
<g id="node26" class="node">
<title>Node26</title>
<g id="a_node26"><a xlink:title=" ">
<polygon fill="#e0e0e0" stroke="#999999" points="2359.5,-184 2218.5,-184 2218.5,-165 2359.5,-165 2359.5,-184"/>
<text text-anchor="middle" x="2289" y="-172" font-family="Helvetica,sans-Serif" font-size="10.00">SFML/Graphics/Sprite.hpp</text>
</a>
</g>
</g>
<!-- Node25&#45;&gt;Node26 -->
<g id="edge32" class="edge">
<title>Node25&#45;&gt;Node26</title>
<path fill="none" stroke="#63b8ff" d="M2237.52,-219.51C2246.39,-211.93 2259.31,-200.88 2269.99,-191.75"/>
<polygon fill="#63b8ff" stroke="#63b8ff" points="2272.16,-194.5 2277.49,-185.34 2267.61,-189.18 2272.16,-194.5"/>
</g>
<!-- Node27 -->
<g id="node27" class="node">
<title>Node27</title>
<g id="a_node27"><a xlink:title=" ">
<polygon fill="#e0e0e0" stroke="#999999" points="2278.5,-129 2129.5,-129 2129.5,-110 2278.5,-110 2278.5,-129"/>
<text text-anchor="middle" x="2204" y="-117" font-family="Helvetica,sans-Serif" font-size="10.00">SFML/Graphics/Texture.hpp</text>
</a>
</g>
</g>
<!-- Node25&#45;&gt;Node27 -->
<g id="edge33" class="edge">
<title>Node25&#45;&gt;Node27</title>
<path fill="none" stroke="#63b8ff" d="M2275.82,-219.57C2312.3,-211.79 2357.72,-199.36 2369,-184 2374,-177.19 2374.14,-171.7 2369,-165 2357.51,-149.99 2316.57,-138.9 2278.36,-131.54"/>
<polygon fill="#63b8ff" stroke="#63b8ff" points="2279.11,-128.12 2268.64,-129.75 2277.84,-135.01 2279.11,-128.12"/>
</g>
<!-- Node25&#45;&gt;Node28 -->
<g id="edge34" class="edge">
<title>Node25&#45;&gt;Node28</title>
<path fill="none" stroke="#63b8ff" d="M2283.15,-219.51C2340.54,-210.32 2429.67,-196.05 2490.78,-186.26"/>
<polygon fill="#63b8ff" stroke="#63b8ff" points="2491.04,-189.77 2500.36,-184.73 2489.93,-182.85 2491.04,-189.77"/>
</g>
<!-- Node29 -->
<g id="node29" class="node">
<title>Node29</title>
<g id="a_node29"><a xlink:title=" ">
<polygon fill="#e0e0e0" stroke="#999999" points="2200,-184 2128,-184 2128,-165 2200,-165 2200,-184"/>
<text text-anchor="middle" x="2164" y="-172" font-family="Helvetica,sans-Serif" font-size="10.00">sys/types.h</text>
</a>
</g>
</g>
<!-- Node25&#45;&gt;Node29 -->
<g id="edge35" class="edge">
<title>Node25&#45;&gt;Node29</title>
<path fill="none" stroke="#63b8ff" d="M2216.31,-219.51C2207.3,-211.93 2194.17,-200.88 2183.32,-191.75"/>
<polygon fill="#63b8ff" stroke="#63b8ff" points="2185.59,-189.09 2175.69,-185.33 2181.09,-194.45 2185.59,-189.09"/>
</g>
<!-- Node30 -->
<g id="node30" class="node">
<title>Node30</title>
<g id="a_node30"><a xlink:href="Consts_8h.html" target="_top" xlink:title=" ">
<polygon fill="white" stroke="#666666" points="2355.5,-129 2296.5,-129 2296.5,-110 2355.5,-110 2355.5,-129"/>
<text text-anchor="middle" x="2326" y="-117" font-family="Helvetica,sans-Serif" font-size="10.00">Consts.h</text>
</a>
</g>
</g>
<!-- Node25&#45;&gt;Node30 -->
<g id="edge37" class="edge">
<title>Node25&#45;&gt;Node30</title>
<path fill="none" stroke="#63b8ff" d="M2182.5,-219.54C2143.88,-209.75 2097.31,-191.8 2119,-165 2165.15,-107.99 2208.86,-141.98 2285.15,-129.32"/>
<polygon fill="#63b8ff" stroke="#63b8ff" points="2285.49,-132.82 2294.65,-127.5 2284.17,-125.95 2285.49,-132.82"/>
</g>
<!-- Node31 -->
<g id="node31" class="node">
<title>Node31</title>
<g id="a_node31"><a xlink:href="TextureHolder_8h.html" target="_top" xlink:title=" ">
<polygon fill="white" stroke="#666666" points="2071.5,-184 1978.5,-184 1978.5,-165 2071.5,-165 2071.5,-184"/>
<text text-anchor="middle" x="2025" y="-172" font-family="Helvetica,sans-Serif" font-size="10.00">TextureHolder.h</text>
</a>
</g>
</g>
<!-- Node25&#45;&gt;Node31 -->
<g id="edge42" class="edge">
<title>Node25&#45;&gt;Node31</title>
<path fill="none" stroke="#63b8ff" d="M2192.73,-219.51C2158.97,-210.65 2107.19,-197.07 2070.1,-187.33"/>
<polygon fill="#63b8ff" stroke="#63b8ff" points="2071.12,-183.98 2060.56,-184.83 2069.35,-190.75 2071.12,-183.98"/>
</g>
<!-- Node30&#45;&gt;Node2 -->
<g id="edge39" class="edge">
<title>Node30&#45;&gt;Node2</title>
<path fill="none" stroke="#63b8ff" d="M2296.18,-111.55C2293.42,-110.99 2290.66,-110.46 2288,-110 2174.22,-90.23 2038.56,-75.8 1971.99,-69.32"/>
<polygon fill="#63b8ff" stroke="#63b8ff" points="1972.56,-65.86 1962.27,-68.38 1971.89,-72.82 1972.56,-65.86"/>
</g>
<!-- Node30&#45;&gt;Node4 -->
<g id="edge38" class="edge">
<title>Node30&#45;&gt;Node4</title>
<path fill="none" stroke="#63b8ff" d="M2355.78,-112.68C2400.03,-104.02 2483.96,-87.61 2540.2,-76.61"/>
<polygon fill="#63b8ff" stroke="#63b8ff" points="2540.78,-80.06 2549.92,-74.71 2539.44,-73.19 2540.78,-80.06"/>
</g>
<!-- Node30&#45;&gt;Node21 -->
<g id="edge40" class="edge">
<title>Node30&#45;&gt;Node21</title>
<path fill="none" stroke="#63b8ff" d="M2296.23,-111.25C2293.46,-110.76 2290.68,-110.33 2288,-110 2076.55,-84.38 508.42,-68.59 222.63,-65.91"/>
<polygon fill="#63b8ff" stroke="#63b8ff" points="223.04,-62.41 213.01,-65.82 222.97,-69.41 223.04,-62.41"/>
</g>
<!-- Node31&#45;&gt;Node2 -->
<g id="edge46" class="edge">
<title>Node31&#45;&gt;Node2</title>
<path fill="none" stroke="#63b8ff" d="M2027.9,-164.89C2031.72,-151.88 2036.77,-126.93 2026,-110 2013.96,-91.07 1991.51,-80.05 1971.46,-73.72"/>
<polygon fill="#63b8ff" stroke="#63b8ff" points="1972.68,-70.42 1962.1,-71.07 1970.77,-77.16 1972.68,-70.42"/>
</g>
<!-- Node31&#45;&gt;Node13 -->
<g id="edge43" class="edge">
<title>Node31&#45;&gt;Node13</title>
<path fill="none" stroke="#63b8ff" d="M2018.89,-164.75C2013.99,-157.73 2006.95,-147.64 2000.83,-138.87"/>
<polygon fill="#63b8ff" stroke="#63b8ff" points="2003.7,-136.88 1995.11,-130.68 1997.96,-140.89 2003.7,-136.88"/>
</g>
<!-- Node31&#45;&gt;Node27 -->
<g id="edge45" class="edge">
<title>Node31&#45;&gt;Node27</title>
<path fill="none" stroke="#63b8ff" d="M2055.36,-164.51C2084.9,-155.76 2129.98,-142.42 2162.75,-132.71"/>
<polygon fill="#63b8ff" stroke="#63b8ff" points="2163.74,-136.07 2172.33,-129.88 2161.75,-129.36 2163.74,-136.07"/>
</g>
<!-- Node31&#45;&gt;Node30 -->
<g id="edge47" class="edge">
<title>Node31&#45;&gt;Node30</title>
<path fill="none" stroke="#63b8ff" d="M2071.69,-166.36C2122.01,-158.49 2204.72,-145.08 2284.87,-129.54"/>
<polygon fill="#63b8ff" stroke="#63b8ff" points="2285.53,-132.97 2294.67,-127.62 2284.19,-126.1 2285.53,-132.97"/>
</g>
<!-- Node32 -->
<g id="node32" class="node">
<title>Node32</title>
<g id="a_node32"><a xlink:title=" ">
<polygon fill="#e0e0e0" stroke="#999999" points="2111,-129 2073,-129 2073,-110 2111,-110 2111,-129"/>
<text text-anchor="middle" x="2092" y="-117" font-family="Helvetica,sans-Serif" font-size="10.00">map</text>
</a>
</g>
</g>
<!-- Node31&#45;&gt;Node32 -->
<g id="edge44" class="edge">
<title>Node31&#45;&gt;Node32</title>
<path fill="none" stroke="#63b8ff" d="M2036.37,-164.51C2046.05,-156.85 2060.2,-145.66 2071.81,-136.47"/>
<polygon fill="#63b8ff" stroke="#63b8ff" points="2073.94,-139.25 2079.62,-130.3 2069.6,-133.76 2073.94,-139.25"/>
</g>
<!-- Node33&#45;&gt;Node2 -->
<g id="edge57" class="edge">
<title>Node33&#45;&gt;Node2</title>
<path fill="none" stroke="#63b8ff" d="M2687.71,-219.58C2683.86,-206.15 2674.9,-180.67 2659,-165 2618.07,-124.67 2597.59,-124.55 2542,-110 2433.82,-81.68 2091.12,-69.86 1972.16,-66.54"/>
<polygon fill="#63b8ff" stroke="#63b8ff" points="1972.31,-63.04 1962.22,-66.27 1972.12,-70.04 1972.31,-63.04"/>
</g>
<!-- Node33&#45;&gt;Node12 -->
<g id="edge60" class="edge">
<title>Node33&#45;&gt;Node12</title>
<path fill="none" stroke="#63b8ff" d="M2660.1,-227.28C2545.76,-222.58 2125.16,-204.81 1779,-184 1767.41,-183.3 1755.18,-182.5 1743.16,-181.68"/>
<polygon fill="#63b8ff" stroke="#63b8ff" points="1743.45,-178.19 1733.23,-180.99 1742.96,-185.17 1743.45,-178.19"/>
</g>
<!-- Node33&#45;&gt;Node13 -->
<g id="edge59" class="edge">
<title>Node33&#45;&gt;Node13</title>
<path fill="none" stroke="#63b8ff" d="M2685.11,-219.55C2676.65,-205.09 2657.8,-177.02 2633,-165 2518.98,-109.75 2190.21,-140.04 2064,-129 2052.39,-127.98 2039.81,-126.67 2028.29,-125.37"/>
<polygon fill="#63b8ff" stroke="#63b8ff" points="2029.04,-121.94 2018.7,-124.27 2028.24,-128.89 2029.04,-121.94"/>
</g>
<!-- Node33&#45;&gt;Node28 -->
<g id="edge61" class="edge">
<title>Node33&#45;&gt;Node28</title>
<path fill="none" stroke="#63b8ff" d="M2667.61,-219.51C2646.43,-211.01 2614.41,-198.15 2590.44,-188.53"/>
<polygon fill="#63b8ff" stroke="#63b8ff" points="2592.05,-185.4 2581.47,-184.92 2589.44,-191.9 2592.05,-185.4"/>
</g>
<!-- Node34 -->
<g id="node34" class="node">
<title>Node34</title>
<g id="a_node34"><a xlink:title=" ">
<polygon fill="#e0e0e0" stroke="#999999" points="2820,-184 2756,-184 2756,-165 2820,-165 2820,-184"/>
<text text-anchor="middle" x="2788" y="-172" font-family="Helvetica,sans-Serif" font-size="10.00">algorithm</text>
</a>
</g>
</g>
<!-- Node33&#45;&gt;Node34 -->
<g id="edge56" class="edge">
<title>Node33&#45;&gt;Node34</title>
<path fill="none" stroke="#63b8ff" d="M2706.62,-219.51C2721.78,-211.31 2744.42,-199.07 2761.97,-189.58"/>
<polygon fill="#63b8ff" stroke="#63b8ff" points="2763.16,-192.91 2770.29,-185.08 2759.83,-186.76 2763.16,-192.91"/>
</g>
<!-- Node35 -->
<g id="node35" class="node">
<title>Node35</title>
<g id="a_node35"><a xlink:title=" ">
<polygon fill="#e0e0e0" stroke="#999999" points="2903.5,-184 2838.5,-184 2838.5,-165 2903.5,-165 2903.5,-184"/>
<text text-anchor="middle" x="2871" y="-172" font-family="Helvetica,sans-Serif" font-size="10.00">functional</text>
</a>
</g>
</g>
<!-- Node33&#45;&gt;Node35 -->
<g id="edge58" class="edge">
<title>Node33&#45;&gt;Node35</title>
<path fill="none" stroke="#63b8ff" d="M2719.89,-219.75C2749.84,-210.98 2796.18,-197.41 2829.65,-187.61"/>
<polygon fill="#63b8ff" stroke="#63b8ff" points="2830.4,-191.04 2839.01,-184.87 2828.43,-184.32 2830.4,-191.04"/>
</g>
<!-- Node37&#45;&gt;Node22 -->
<g id="edge69" class="edge">
<title>Node37&#45;&gt;Node22</title>
<path fill="none" stroke="#63b8ff" d="M1741.03,-384.51C1750.42,-376.85 1764.15,-365.66 1775.41,-356.47"/>
<polygon fill="#63b8ff" stroke="#63b8ff" points="1777.43,-359.35 1782.96,-350.31 1773,-353.92 1777.43,-359.35"/>
</g>
<!-- Node38&#45;&gt;Node4 -->
<g id="edge73" class="edge">
<title>Node38&#45;&gt;Node4</title>
<path fill="none" stroke="#63b8ff" d="M2288.48,-394.19C2381.83,-394.89 2615,-391.77 2804,-349 2881.04,-331.57 2970,-364.49 2970,-285.5 2970,-285.5 2970,-285.5 2970,-228.5 2970,-96.39 2771.1,-70.3 2663.79,-65.84"/>
<polygon fill="#63b8ff" stroke="#63b8ff" points="2664.07,-62.35 2653.95,-65.49 2663.82,-69.35 2664.07,-62.35"/>
</g>
<!-- Node38&#45;&gt;Node6 -->
<g id="edge74" class="edge">
<title>Node38&#45;&gt;Node6</title>
<path fill="none" stroke="#63b8ff" d="M2242.45,-384.62C2230.78,-362.72 2197.63,-305.71 2154,-275 2084.15,-225.84 1988.29,-199.63 1924.12,-186.67"/>
<polygon fill="#63b8ff" stroke="#63b8ff" points="1924.89,-183.25 1914.41,-184.76 1923.55,-190.12 1924.89,-183.25"/>
</g>
<!-- Node38&#45;&gt;Node12 -->
<g id="edge75" class="edge">
<title>Node38&#45;&gt;Node12</title>
<path fill="none" stroke="#63b8ff" d="M2222.89,-384.55C2131.01,-350.42 1802.45,-228.4 1694.59,-188.34"/>
<polygon fill="#63b8ff" stroke="#63b8ff" points="1695.99,-185.13 1685.4,-184.93 1693.56,-191.7 1695.99,-185.13"/>
</g>
<!-- Node38&#45;&gt;Node16 -->
<g id="edge76" class="edge">
<title>Node38&#45;&gt;Node16</title>
<path fill="none" stroke="#63b8ff" d="M2288.23,-392.91C2411.59,-390.8 2776.32,-381.86 2890,-349 2947.21,-332.46 3008,-345.06 3008,-285.5 3008,-285.5 3008,-285.5 3008,-118.5 3008,31.29 2825.99,-70.54 2677,-55 2188.81,-4.06 576.77,-9.03 297.43,-10.29"/>
<polygon fill="#63b8ff" stroke="#63b8ff" points="297.72,-6.79 287.74,-10.34 297.76,-13.79 297.72,-6.79"/>
</g>
<!-- Node38&#45;&gt;Node22 -->
<g id="edge72" class="edge">
<title>Node38&#45;&gt;Node22</title>
<path fill="none" stroke="#63b8ff" d="M2205.69,-388.66C2119.1,-378.5 1919.59,-355.11 1834.55,-345.14"/>
<polygon fill="#63b8ff" stroke="#63b8ff" points="1835.18,-341.69 1824.84,-344 1834.37,-348.64 1835.18,-341.69"/>
</g>
<!-- Node38&#45;&gt;Node30 -->
<g id="edge71" class="edge">
<title>Node38&#45;&gt;Node30</title>
<path fill="none" stroke="#63b8ff" d="M2288.31,-391.38C2436.4,-383.22 2932,-351.04 2932,-285.5 2932,-285.5 2932,-285.5 2932,-228.5 2932,-199.04 2935.95,-183.47 2913,-165 2891.75,-147.89 2497.37,-128.35 2367.26,-122.35"/>
<polygon fill="#63b8ff" stroke="#63b8ff" points="2367.52,-118.86 2357.37,-121.9 2367.2,-125.85 2367.52,-118.86"/>
</g>
</g>
</svg>
        <g id="navigator" transform="translate(0 0)" fill="#404254">
                <rect fill="#f2f5e9" fill-opacity="0.5" stroke="#606060" stroke-width=".5" x="0" y="0" width="60" height="60"/>
                <use id="zoomplus" xlink:href="#zoomPlus" x="17" y="9" onmousedown="handleZoom(evt,'in')"/>
                <use id="zoomminus" xlink:href="#zoomMin" x="42" y="9" onmousedown="handleZoom(evt,'out')"/>
                <use id="reset" xlink:href="#resetDef" x="30" y="36" onmousedown="handleReset()"/>
                <g id="arrowUp" xlink:href="#dirArrow" transform="translate(30 24)" onmousedown="handlePan(0,-1)">
                  <use xlink:href="#rim" fill="#404040">
                        <set attributeName="fill" to="#808080" begin="arrowUp.mouseover" end="arrowUp.mouseout"/>
                  </use>
                  <path fill="none" stroke="white" stroke-width="1.5" d="M0,-3.0v7 M-2.5,-0.5L0,-3.0L2.5,-0.5"/>
                </g>
                <g id="arrowRight" xlink:href="#dirArrow" transform="rotate(90) translate(36 -43)" onmousedown="handlePan(1,0)">
                  <use xlink:href="#rim" fill="#404040">
                        <set attributeName="fill" to="#808080" begin="arrowRight.mouseover" end="arrowRight.mouseout"/>
                  </use>
                  <path fill="none" stroke="white" stroke-width="1.5" d="M0,-3.0v7 M-2.5,-0.5L0,-3.0L2.5,-0.5"/>
                </g>
                <g id="arrowDown" xlink:href="#dirArrow" transform="rotate(180) translate(-30 -48)" onmousedown="handlePan(0,1)">
                  <use xlink:href="#rim" fill="#404040">
                        <set attributeName="fill" to="#808080" begin="arrowDown.mouseover" end="arrowDown.mouseout"/>
                  </use>
                  <path fill="none" stroke="white" stroke-width="1.5" d="M0,-3.0v7 M-2.5,-0.5L0,-3.0L2.5,-0.5"/>
                </g>
                <g id="arrowLeft" xlink:href="#dirArrow" transform="rotate(270) translate(-36 17)" onmousedown="handlePan(-1,0)">
                  <use xlink:href="#rim" fill="#404040">
                        <set attributeName="fill" to="#808080" begin="arrowLeft.mouseover" end="arrowLeft.mouseout"/>
                  </use>
                  <path fill="none" stroke="white" stroke-width="1.5" d="M0,-3.0v7 M-2.5,-0.5L0,-3.0L2.5,-0.5"/>
                </g>
        </g>
        <svg viewBox="0 0 15 15" width="100%" height="30px" preserveAspectRatio="xMaxYMin meet">
         <g id="arrow_out" transform="scale(0.3 0.3)">
          <a xlink:href="Camera_8h__incl_org.svg" target="_base">
           <rect id="button" ry="5" rx="5" y="6" x="6" height="38" width="38"
                fill="#f2f5e9" fill-opacity="0.5" stroke="#606060" stroke-width="1.0"/>
           <path id="arrow"
             d="M 11.500037,31.436501 C 11.940474,20.09759 22.043105,11.32322 32.158766,21.979434 L 37.068811,17.246167 C 37.068811,17.246167 37.088388,32 37.088388,32 L 22.160133,31.978069 C 22.160133,31.978069 26.997745,27.140456 26.997745,27.140456 C 18.528582,18.264221 13.291696,25.230495 11.500037,31.436501 z"
             style="fill:#404040;"/>
          </a>
         </g>
        </svg>
</svg>
