<?xml version="1.0" encoding="UTF-8" standalone="no"?>
<!DOCTYPE svg PUBLIC "-//W3C//DTD SVG 1.1//EN"
 "http://www.w3.org/Graphics/SVG/1.1/DTD/svg11.dtd">
<!-- Generated by graphviz version 7.0.5 (0)
 -->
<!-- Title: Effect Pages: 1 -->
<svg width="442pt" height="478pt"
 viewBox="0.00 0.00 441.50 478.00" xmlns="http://www.w3.org/2000/svg" xmlns:xlink="http://www.w3.org/1999/xlink">
<g id="graph0" class="graph" transform="scale(1 1) rotate(0) translate(4 474)">
<title>Effect</title>
<!-- Node1 -->
<g id="node1" class="node">
<title>Node1</title>
<g id="a_node1"><a xlink:title=" ">
<polygon fill="#999999" stroke="#666666" points="291,-393 0,-393 0,-88 291,-88 291,-393"/>
<text text-anchor="middle" x="145.5" y="-381" font-family="Helvetica,sans-Serif" font-size="10.00">{Effect</text>
<text text-anchor="start" x="8" y="-370" font-family="Helvetica,sans-Serif" font-size="10.00">||+ &#160;Effect()=default</text>
<text text-anchor="start" x="8" y="-359" font-family="Helvetica,sans-Serif" font-size="10.00">+ &#160;Effect(std::unique_ptr&lt; Effect &gt; wrapper)</text>
<text text-anchor="start" x="8" y="-348" font-family="Helvetica,sans-Serif" font-size="10.00">+ void concat(std::unique_ptr&lt; Effect &gt; boost)</text>
<text text-anchor="start" x="8" y="-337" font-family="Helvetica,sans-Serif" font-size="10.00">+ float healthDelta() const</text>
<text text-anchor="start" x="8" y="-326" font-family="Helvetica,sans-Serif" font-size="10.00">+ sf::Vector2f sizeScale() const</text>
<text text-anchor="start" x="8" y="-315" font-family="Helvetica,sans-Serif" font-size="10.00">+ sf::Vector2i distanceScale() const</text>
<text text-anchor="start" x="8" y="-304" font-family="Helvetica,sans-Serif" font-size="10.00">+ float jumpDurationScale() const</text>
<text text-anchor="start" x="8" y="-293" font-family="Helvetica,sans-Serif" font-size="10.00">+ int invincible() const</text>
<text text-anchor="start" x="8" y="-282" font-family="Helvetica,sans-Serif" font-size="10.00">+ sf::Time durationEach() const</text>
<text text-anchor="start" x="8" y="-271" font-family="Helvetica,sans-Serif" font-size="10.00">+ int times() const</text>
<text text-anchor="start" x="8" y="-260" font-family="Helvetica,sans-Serif" font-size="10.00">+ void runMisc() const</text>
<text text-anchor="start" x="8" y="-249" font-family="Helvetica,sans-Serif" font-size="10.00">+ std::unique_ptr&lt; Effect &gt; onEnd() const</text>
<text text-anchor="start" x="8" y="-238" font-family="Helvetica,sans-Serif" font-size="10.00">+ std::unique_ptr&lt; Effect &gt; nextEffect()</text>
<text text-anchor="start" x="8" y="-227" font-family="Helvetica,sans-Serif" font-size="10.00">+ virtual ~Effect()=default</text>
<text text-anchor="start" x="8" y="-216" font-family="Helvetica,sans-Serif" font-size="10.00"># virtual float healthDeltaCurrent() const</text>
<text text-anchor="start" x="8" y="-205" font-family="Helvetica,sans-Serif" font-size="10.00"># virtual sf::Vector2f sizeScaleCurrent() const</text>
<text text-anchor="start" x="8" y="-194" font-family="Helvetica,sans-Serif" font-size="10.00"># virtual sf::Vector2i distanceScaleCurrent() const</text>
<text text-anchor="start" x="8" y="-183" font-family="Helvetica,sans-Serif" font-size="10.00"># virtual float jumpDurationScaleCurrent() const</text>
<text text-anchor="start" x="8" y="-172" font-family="Helvetica,sans-Serif" font-size="10.00"># virtual int invincibleCurrent() const</text>
<text text-anchor="start" x="8" y="-161" font-family="Helvetica,sans-Serif" font-size="10.00"># virtual sf::Time durationEachCurrent() const</text>
<text text-anchor="start" x="8" y="-150" font-family="Helvetica,sans-Serif" font-size="10.00"># virtual int timesCurrent() const</text>
<text text-anchor="start" x="8" y="-139" font-family="Helvetica,sans-Serif" font-size="10.00"># virtual void runMiscCurrentBefore() const</text>
<text text-anchor="start" x="8" y="-128" font-family="Helvetica,sans-Serif" font-size="10.00"># virtual void runMiscCurrentAfter() const</text>
<text text-anchor="start" x="8" y="-117" font-family="Helvetica,sans-Serif" font-size="10.00"># virtual std::unique_ptr&lt; Effect &gt; onEndCurrent() const</text>
<text text-anchor="start" x="8" y="-106" font-family="Helvetica,sans-Serif" font-size="10.00"># virtual std::unique_ptr&lt; Effect &gt; nextEffectCurrent()</text>
<text text-anchor="middle" x="145.5" y="-95" font-family="Helvetica,sans-Serif" font-size="10.00">}</text>
</a>
</g>
</g>
<!-- Node2 -->
<g id="node2" class="node">
<title>Node2</title>
<g id="a_node2"><a xlink:title=" ">
<polygon fill="white" stroke="#666666" points="266.5,-41 120.5,-41 120.5,0 266.5,0 266.5,-41"/>
<text text-anchor="middle" x="193.5" y="-29" font-family="Helvetica,sans-Serif" font-size="10.00">{std::unique_ptr&lt; Effect &gt;</text>
<text text-anchor="start" x="128.5" y="-18" font-family="Helvetica,sans-Serif" font-size="10.00">||+ Effect * operator&#45;&gt;()</text>
<text text-anchor="middle" x="193.5" y="-7" font-family="Helvetica,sans-Serif" font-size="10.00">}</text>
</a>
</g>
</g>
<!-- Node1&#45;&gt;Node2 -->
<g id="edge2" class="edge">
<title>Node1&#45;&gt;Node2</title>
<path fill="none" stroke="#404040" d="M144.55,-87.74C147.08,-77.81 150.34,-68.14 154.5,-59 155.7,-56.36 157.18,-53.81 158.85,-51.37"/>
<polygon fill="none" stroke="#404040" points="158.9,-51.32 159.67,-44.15 166.58,-42.1 165.81,-49.27 158.9,-51.32"/>
<text text-anchor="middle" x="167" y="-62" font-family="Helvetica,sans-Serif" font-size="10.00"> +ptr</text>
</g>
<!-- Node2&#45;&gt;Node1 -->
<g id="edge1" class="edge">
<title>Node2&#45;&gt;Node1</title>
<path fill="none" stroke="#404040" d="M189.14,-41.31C187.13,-50.42 184.55,-62.14 181.65,-75.32"/>
<polygon fill="none" stroke="#404040" points="181.68,-75.2 184.29,-81.92 179.1,-86.91 176.48,-80.19 181.68,-75.2"/>
<text text-anchor="middle" x="208" y="-62" font-family="Helvetica,sans-Serif" font-size="10.00"> &#45;wrapper</text>
</g>
<!-- Node3 -->
<g id="node3" class="node">
<title>Node3</title>
<g id="a_node3"><a xlink:title=" ">
<polygon fill="white" stroke="#666666" points="433.5,-261 309.5,-261 309.5,-220 433.5,-220 433.5,-261"/>
<text text-anchor="middle" x="371.5" y="-249" font-family="Helvetica,sans-Serif" font-size="10.00">{std::unique_ptr&lt; T &gt;</text>
<text text-anchor="start" x="317.5" y="-238" font-family="Helvetica,sans-Serif" font-size="10.00">||+ T * operator&#45;&gt;()</text>
<text text-anchor="middle" x="371.5" y="-227" font-family="Helvetica,sans-Serif" font-size="10.00">}</text>
</a>
</g>
</g>
<!-- Node3&#45;&gt;Node2 -->
<g id="edge3" class="edge">
<title>Node3&#45;&gt;Node2</title>
<path fill="none" stroke="orange" d="M362.87,-208.75C352.42,-175.86 332.17,-123.64 300.5,-88 283.14,-68.46 258.67,-52.67 237.51,-41.39"/>
<polygon fill="orange" stroke="orange" points="359.45,-209.53 365.72,-218.07 366.14,-207.48 359.45,-209.53"/>
<text text-anchor="middle" x="307.5" y="-62" font-family="Helvetica,sans-Serif" font-size="10.00"> &lt; Effect &gt;</text>
</g>
<!-- Node4 -->
<g id="node4" class="node">
<title>Node4</title>
<g id="a_node4"><a xlink:title=" ">
<polygon fill="white" stroke="#666666" points="386,-470 357,-470 357,-440 386,-440 386,-470"/>
<text text-anchor="middle" x="371.5" y="-458" font-family="Helvetica,sans-Serif" font-size="10.00">{T</text>
<text text-anchor="middle" x="371.5" y="-447" font-family="Helvetica,sans-Serif" font-size="10.00">||}</text>
</a>
</g>
</g>
<!-- Node4&#45;&gt;Node3 -->
<g id="edge4" class="edge">
<title>Node4&#45;&gt;Node3</title>
<path fill="none" stroke="#404040" d="M371.5,-439.73C371.5,-406.18 371.5,-321.57 371.5,-274.46"/>
<polygon fill="none" stroke="#404040" points="371.5,-274.32 367.5,-268.32 371.5,-262.32 375.5,-268.32 371.5,-274.32"/>
<text text-anchor="middle" x="384" y="-414" font-family="Helvetica,sans-Serif" font-size="10.00"> +ptr</text>
</g>
</g>
</svg>
