<?xml version="1.0" encoding="UTF-8" standalone="no"?>
<!DOCTYPE svg PUBLIC "-//W3C//DTD SVG 1.1//EN"
 "http://www.w3.org/Graphics/SVG/1.1/DTD/svg11.dtd">
<!-- Generated by graphviz version 7.0.5 (0)
 -->
<!-- Title: InvinciblePickup Pages: 1 -->
<svg width="388pt" height="1133pt"
 viewBox="0.00 0.00 388.00 1133.00" xmlns="http://www.w3.org/2000/svg" xmlns:xlink="http://www.w3.org/1999/xlink">
<g id="graph0" class="graph" transform="scale(1 1) rotate(0) translate(4 1129)">
<title>InvinciblePickup</title>
<!-- Node1 -->
<g id="node1" class="node">
<title>Node1</title>
<g id="a_node1"><a xlink:title=" ">
<polygon fill="#999999" stroke="#666666" points="0,-0.5 0,-79.5 114,-79.5 114,-0.5 0,-0.5"/>
<text text-anchor="middle" x="57" y="-67.5" font-family="Helvetica,sans-Serif" font-size="10.00">InvinciblePickup</text>
<polyline fill="none" stroke="#666666" points="0,-60.5 114,-60.5"/>
<text text-anchor="middle" x="57" y="-48.5" font-family="Helvetica,sans-Serif" font-size="10.00"> </text>
<polyline fill="none" stroke="#666666" points="0,-41.5 114,-41.5"/>
<text text-anchor="start" x="8" y="-29.5" font-family="Helvetica,sans-Serif" font-size="10.00">+ InvinciblePickup()</text>
<text text-anchor="start" x="8" y="-18.5" font-family="Helvetica,sans-Serif" font-size="10.00">+ getCategory()</text>
<text text-anchor="start" x="8" y="-7.5" font-family="Helvetica,sans-Serif" font-size="10.00">+ getClassName()</text>
</a>
</g>
</g>
<!-- Node2 -->
<g id="node2" class="node">
<title>Node2</title>
<g id="a_node2"><a xlink:href="classPlayerCollidable.html" target="_top" xlink:title=" ">
<polygon fill="white" stroke="#bfbfbf" points="73,-117.5 73,-196.5 205,-196.5 205,-117.5 73,-117.5"/>
<text text-anchor="middle" x="139" y="-184.5" font-family="Helvetica,sans-Serif" font-size="10.00">PlayerCollidable</text>
<polyline fill="none" stroke="#bfbfbf" points="73,-177.5 205,-177.5"/>
<text text-anchor="start" x="81" y="-165.5" font-family="Helvetica,sans-Serif" font-size="10.00"># isCollidingWithPlayer</text>
<polyline fill="none" stroke="#bfbfbf" points="73,-158.5 205,-158.5"/>
<text text-anchor="start" x="81" y="-146.5" font-family="Helvetica,sans-Serif" font-size="10.00">+ onPlayerCollision()</text>
<text text-anchor="start" x="81" y="-135.5" font-family="Helvetica,sans-Serif" font-size="10.00">+ updateCurrent()</text>
<text text-anchor="start" x="81" y="-124.5" font-family="Helvetica,sans-Serif" font-size="10.00">+ SceneNode()</text>
</a>
</g>
</g>
<!-- Node2&#45;&gt;Node1 -->
<g id="edge1" class="edge">
<title>Node2&#45;&gt;Node1</title>
<path fill="none" stroke="#63b8ff" d="M105.12,-108.49C98.15,-98.71 90.89,-88.52 84.19,-79.13"/>
<polygon fill="none" stroke="#63b8ff" points="102.16,-110.36 110.82,-116.47 107.86,-106.3 102.16,-110.36"/>
</g>
<!-- Node3 -->
<g id="node3" class="node">
<title>Node3</title>
<g id="a_node3"><a xlink:href="classSceneNode.html" target="_top" xlink:title="A node in the scene graph.">
<polygon fill="white" stroke="#666666" points="147.5,-763.5 147.5,-1029.5 282.5,-1029.5 282.5,-763.5 147.5,-763.5"/>
<text text-anchor="middle" x="215" y="-1017.5" font-family="Helvetica,sans-Serif" font-size="10.00">SceneNode</text>
<polyline fill="none" stroke="#666666" points="147.5,-1010.5 282.5,-1010.5"/>
<text text-anchor="middle" x="215" y="-998.5" font-family="Helvetica,sans-Serif" font-size="10.00"> </text>
<polyline fill="none" stroke="#666666" points="147.5,-991.5 282.5,-991.5"/>
<text text-anchor="start" x="155.5" y="-979.5" font-family="Helvetica,sans-Serif" font-size="10.00">+ SceneNode()</text>
<text text-anchor="start" x="155.5" y="-968.5" font-family="Helvetica,sans-Serif" font-size="10.00">+ attachChild()</text>
<text text-anchor="start" x="155.5" y="-957.5" font-family="Helvetica,sans-Serif" font-size="10.00">+ detachChild()</text>
<text text-anchor="start" x="155.5" y="-946.5" font-family="Helvetica,sans-Serif" font-size="10.00">+ update()</text>
<text text-anchor="start" x="155.5" y="-935.5" font-family="Helvetica,sans-Serif" font-size="10.00">+ getAbsTransform()</text>
<text text-anchor="start" x="155.5" y="-924.5" font-family="Helvetica,sans-Serif" font-size="10.00">+ getAbsPosition()</text>
<text text-anchor="start" x="155.5" y="-913.5" font-family="Helvetica,sans-Serif" font-size="10.00">+ checkNodeCollision()</text>
<text text-anchor="start" x="155.5" y="-902.5" font-family="Helvetica,sans-Serif" font-size="10.00">+ checkSceneCollision()</text>
<text text-anchor="start" x="155.5" y="-891.5" font-family="Helvetica,sans-Serif" font-size="10.00">+ setDebug()</text>
<text text-anchor="start" x="155.5" y="-880.5" font-family="Helvetica,sans-Serif" font-size="10.00">+ getCategory()</text>
<text text-anchor="start" x="155.5" y="-869.5" font-family="Helvetica,sans-Serif" font-size="10.00">+ saveNode()</text>
<text text-anchor="start" x="155.5" y="-858.5" font-family="Helvetica,sans-Serif" font-size="10.00">+ operator&lt;()</text>
<text text-anchor="start" x="155.5" y="-847.5" font-family="Helvetica,sans-Serif" font-size="10.00">+ getBoundingRect()</text>
<text text-anchor="start" x="155.5" y="-836.5" font-family="Helvetica,sans-Serif" font-size="10.00">+ getLocalBounds()</text>
<text text-anchor="start" x="155.5" y="-825.5" font-family="Helvetica,sans-Serif" font-size="10.00">+ draw()</text>
<text text-anchor="start" x="155.5" y="-814.5" font-family="Helvetica,sans-Serif" font-size="10.00"># getClassName()</text>
<text text-anchor="start" x="155.5" y="-803.5" font-family="Helvetica,sans-Serif" font-size="10.00"># saveCurrentNode()</text>
<text text-anchor="start" x="155.5" y="-792.5" font-family="Helvetica,sans-Serif" font-size="10.00"># loadCurrentNode()</text>
<text text-anchor="start" x="155.5" y="-781.5" font-family="Helvetica,sans-Serif" font-size="10.00"># onLoadingFinished()</text>
<text text-anchor="start" x="155.5" y="-770.5" font-family="Helvetica,sans-Serif" font-size="10.00"># shouldSave()</text>
</a>
</g>
</g>
<!-- Node3&#45;&gt;Node2 -->
<g id="edge2" class="edge">
<title>Node3&#45;&gt;Node2</title>
<path fill="none" stroke="#63b8ff" d="M224.09,-752.2C229.37,-619.16 229.31,-416.27 195,-244 191.59,-226.88 182.58,-210.26 172.77,-196.27"/>
<polygon fill="none" stroke="#63b8ff" points="220.6,-752 223.68,-762.14 227.59,-752.29 220.6,-752"/>
</g>
<!-- Node8 -->
<g id="node8" class="node">
<title>Node8</title>
<g id="a_node8"><a xlink:href="classEntity.html" target="_top" xlink:title=" ">
<polygon fill="white" stroke="#666666" points="29,-471.5 29,-715.5 159,-715.5 159,-471.5 29,-471.5"/>
<text text-anchor="middle" x="94" y="-703.5" font-family="Helvetica,sans-Serif" font-size="10.00">Entity</text>
<polyline fill="none" stroke="#666666" points="29,-696.5 159,-696.5"/>
<text text-anchor="start" x="37" y="-684.5" font-family="Helvetica,sans-Serif" font-size="10.00"># velocity</text>
<text text-anchor="start" x="37" y="-673.5" font-family="Helvetica,sans-Serif" font-size="10.00"># localBounds</text>
<text text-anchor="start" x="37" y="-662.5" font-family="Helvetica,sans-Serif" font-size="10.00"># spriteBounds</text>
<polyline fill="none" stroke="#666666" points="29,-655.5 159,-655.5"/>
<text text-anchor="start" x="37" y="-643.5" font-family="Helvetica,sans-Serif" font-size="10.00">+ Entity()</text>
<text text-anchor="start" x="37" y="-632.5" font-family="Helvetica,sans-Serif" font-size="10.00">+ Entity()</text>
<text text-anchor="start" x="37" y="-621.5" font-family="Helvetica,sans-Serif" font-size="10.00">+ Entity()</text>
<text text-anchor="start" x="37" y="-610.5" font-family="Helvetica,sans-Serif" font-size="10.00">+ Entity()</text>
<text text-anchor="start" x="37" y="-599.5" font-family="Helvetica,sans-Serif" font-size="10.00">+ getVelocity()</text>
<text text-anchor="start" x="37" y="-588.5" font-family="Helvetica,sans-Serif" font-size="10.00">+ setVelocity()</text>
<text text-anchor="start" x="37" y="-577.5" font-family="Helvetica,sans-Serif" font-size="10.00">+ getLocalBounds()</text>
<text text-anchor="start" x="37" y="-566.5" font-family="Helvetica,sans-Serif" font-size="10.00">+ getSpriteBounds()</text>
<text text-anchor="start" x="37" y="-555.5" font-family="Helvetica,sans-Serif" font-size="10.00">+ adjustSpriteBounds()</text>
<text text-anchor="start" x="37" y="-544.5" font-family="Helvetica,sans-Serif" font-size="10.00">+ adjustBounds()</text>
<text text-anchor="start" x="37" y="-533.5" font-family="Helvetica,sans-Serif" font-size="10.00">+ getClassName()</text>
<text text-anchor="start" x="37" y="-522.5" font-family="Helvetica,sans-Serif" font-size="10.00">+ saveCurrentNode()</text>
<text text-anchor="start" x="37" y="-511.5" font-family="Helvetica,sans-Serif" font-size="10.00">+ loadCurrentNode()</text>
<text text-anchor="start" x="37" y="-500.5" font-family="Helvetica,sans-Serif" font-size="10.00"># drawCurrent()</text>
<text text-anchor="start" x="37" y="-489.5" font-family="Helvetica,sans-Serif" font-size="10.00"># updateCurrent()</text>
<text text-anchor="start" x="37" y="-478.5" font-family="Helvetica,sans-Serif" font-size="10.00"># shouldSave()</text>
</a>
</g>
</g>
<!-- Node3&#45;&gt;Node8 -->
<g id="edge8" class="edge">
<title>Node3&#45;&gt;Node8</title>
<path fill="none" stroke="#63b8ff" d="M157.83,-753.29C152.74,-740.61 147.61,-727.86 142.59,-715.38"/>
<polygon fill="none" stroke="#63b8ff" points="154.56,-754.54 161.54,-762.51 161.06,-751.93 154.56,-754.54"/>
</g>
<!-- Node4 -->
<g id="node4" class="node">
<title>Node4</title>
<g id="a_node4"><a xlink:title=" ">
<polygon fill="white" stroke="#bfbfbf" points="69.5,-1067.5 69.5,-1124.5 146.5,-1124.5 146.5,-1067.5 69.5,-1067.5"/>
<text text-anchor="middle" x="108" y="-1112.5" font-family="Helvetica,sans-Serif" font-size="10.00">sf::Drawable</text>
<polyline fill="none" stroke="#bfbfbf" points="69.5,-1105.5 146.5,-1105.5"/>
<text text-anchor="middle" x="108" y="-1093.5" font-family="Helvetica,sans-Serif" font-size="10.00"> </text>
<polyline fill="none" stroke="#bfbfbf" points="69.5,-1086.5 146.5,-1086.5"/>
<text text-anchor="middle" x="108" y="-1074.5" font-family="Helvetica,sans-Serif" font-size="10.00"> </text>
</a>
</g>
</g>
<!-- Node4&#45;&gt;Node3 -->
<g id="edge3" class="edge">
<title>Node4&#45;&gt;Node3</title>
<path fill="none" stroke="#63b8ff" d="M128.32,-1057.49C134.07,-1046.89 140.65,-1034.73 147.57,-1021.96"/>
<polygon fill="none" stroke="#63b8ff" points="125.29,-1055.75 123.6,-1066.21 131.44,-1059.08 125.29,-1055.75"/>
</g>
<!-- Node5 -->
<g id="node5" class="node">
<title>Node5</title>
<g id="a_node5"><a xlink:title=" ">
<polygon fill="white" stroke="#bfbfbf" points="164.5,-1067.5 164.5,-1124.5 265.5,-1124.5 265.5,-1067.5 164.5,-1067.5"/>
<text text-anchor="middle" x="215" y="-1112.5" font-family="Helvetica,sans-Serif" font-size="10.00">sf::Transformable</text>
<polyline fill="none" stroke="#bfbfbf" points="164.5,-1105.5 265.5,-1105.5"/>
<text text-anchor="middle" x="215" y="-1093.5" font-family="Helvetica,sans-Serif" font-size="10.00"> </text>
<polyline fill="none" stroke="#bfbfbf" points="164.5,-1086.5 265.5,-1086.5"/>
<text text-anchor="middle" x="215" y="-1074.5" font-family="Helvetica,sans-Serif" font-size="10.00"> </text>
</a>
</g>
</g>
<!-- Node5&#45;&gt;Node3 -->
<g id="edge4" class="edge">
<title>Node5&#45;&gt;Node3</title>
<path fill="none" stroke="#63b8ff" d="M215,-1056.16C215,-1047.92 215,-1038.79 215,-1029.18"/>
<polygon fill="none" stroke="#63b8ff" points="211.5,-1056.02 215,-1066.02 218.5,-1056.02 211.5,-1056.02"/>
</g>
<!-- Node6 -->
<g id="node6" class="node">
<title>Node6</title>
<g id="a_node6"><a xlink:title=" ">
<polygon fill="white" stroke="#bfbfbf" points="284,-1067.5 284,-1124.5 380,-1124.5 380,-1067.5 284,-1067.5"/>
<text text-anchor="middle" x="332" y="-1112.5" font-family="Helvetica,sans-Serif" font-size="10.00">sf::NonCopyable</text>
<polyline fill="none" stroke="#bfbfbf" points="284,-1105.5 380,-1105.5"/>
<text text-anchor="middle" x="332" y="-1093.5" font-family="Helvetica,sans-Serif" font-size="10.00"> </text>
<polyline fill="none" stroke="#bfbfbf" points="284,-1086.5 380,-1086.5"/>
<text text-anchor="middle" x="332" y="-1074.5" font-family="Helvetica,sans-Serif" font-size="10.00"> </text>
</a>
</g>
</g>
<!-- Node6&#45;&gt;Node3 -->
<g id="edge5" class="edge">
<title>Node6&#45;&gt;Node3</title>
<path fill="none" stroke="#8b1a1a" d="M309.88,-1057.67C301.82,-1044.06 292.23,-1027.87 282.3,-1011.1"/>
<polygon fill="none" stroke="#8b1a1a" points="306.85,-1059.42 314.96,-1066.24 312.87,-1055.85 306.85,-1059.42"/>
</g>
<!-- Node7 -->
<g id="node7" class="node">
<title>Node7</title>
<g id="a_node7"><a xlink:href="classPlayer.html" target="_top" xlink:title=" ">
<polygon fill="white" stroke="#bfbfbf" points="73.5,-244.5 73.5,-433.5 186.5,-433.5 186.5,-244.5 73.5,-244.5"/>
<text text-anchor="middle" x="130" y="-421.5" font-family="Helvetica,sans-Serif" font-size="10.00">Player</text>
<polyline fill="none" stroke="#bfbfbf" points="73.5,-414.5 186.5,-414.5"/>
<text text-anchor="middle" x="130" y="-402.5" font-family="Helvetica,sans-Serif" font-size="10.00"> </text>
<polyline fill="none" stroke="#bfbfbf" points="73.5,-395.5 186.5,-395.5"/>
<text text-anchor="start" x="81.5" y="-383.5" font-family="Helvetica,sans-Serif" font-size="10.00">+ Player()</text>
<text text-anchor="start" x="81.5" y="-372.5" font-family="Helvetica,sans-Serif" font-size="10.00">+ Player()</text>
<text text-anchor="start" x="81.5" y="-361.5" font-family="Helvetica,sans-Serif" font-size="10.00">+ onKeyPressed()</text>
<text text-anchor="start" x="81.5" y="-350.5" font-family="Helvetica,sans-Serif" font-size="10.00">+ getCategory()</text>
<text text-anchor="start" x="81.5" y="-339.5" font-family="Helvetica,sans-Serif" font-size="10.00">+ setState()</text>
<text text-anchor="start" x="81.5" y="-328.5" font-family="Helvetica,sans-Serif" font-size="10.00">+ addHealth()</text>
<text text-anchor="start" x="81.5" y="-317.5" font-family="Helvetica,sans-Serif" font-size="10.00">+ isDead()</text>
<text text-anchor="start" x="81.5" y="-306.5" font-family="Helvetica,sans-Serif" font-size="10.00">+ addEffect()</text>
<text text-anchor="start" x="81.5" y="-295.5" font-family="Helvetica,sans-Serif" font-size="10.00">+ isInvincible()</text>
<text text-anchor="start" x="81.5" y="-284.5" font-family="Helvetica,sans-Serif" font-size="10.00">+ getDirectionVec()</text>
<text text-anchor="start" x="81.5" y="-273.5" font-family="Helvetica,sans-Serif" font-size="10.00">and 7 more...</text>
<text text-anchor="start" x="81.5" y="-262.5" font-family="Helvetica,sans-Serif" font-size="10.00"># updateCurrent()</text>
<text text-anchor="start" x="81.5" y="-251.5" font-family="Helvetica,sans-Serif" font-size="10.00"># drawCurrent()</text>
</a>
</g>
</g>
<!-- Node7&#45;&gt;Node2 -->
<g id="edge6" class="edge">
<title>Node7&#45;&gt;Node2</title>
<path fill="none" stroke="#404040" d="M134.67,-244.57C135.28,-232.4 135.88,-220.31 136.44,-209.2"/>
<polygon fill="none" stroke="#404040" points="136.45,-209.08 132.75,-202.88 137.05,-197.09 140.74,-203.28 136.45,-209.08"/>
<text text-anchor="middle" x="158.5" y="-218" font-family="Helvetica,sans-Serif" font-size="10.00"> #player</text>
</g>
<!-- Node8&#45;&gt;Node1 -->
<g id="edge10" class="edge">
<title>Node8&#45;&gt;Node1</title>
<path fill="none" stroke="#63b8ff" d="M67.26,-460.37C66,-451.47 64.89,-442.62 64,-434 50.69,-304.51 53.33,-149.8 55.54,-79.34"/>
<polygon fill="none" stroke="#63b8ff" points="63.79,-460.79 68.72,-470.16 70.71,-459.75 63.79,-460.79"/>
</g>
<!-- Node8&#45;&gt;Node7 -->
<g id="edge7" class="edge">
<title>Node8&#45;&gt;Node7</title>
<path fill="none" stroke="#63b8ff" d="M112.81,-460.57C114.12,-451.38 115.43,-442.23 116.7,-433.31"/>
<polygon fill="none" stroke="#63b8ff" points="109.37,-459.9 111.42,-470.3 116.3,-460.89 109.37,-459.9"/>
</g>
<!-- Node9 -->
<g id="node9" class="node">
<title>Node9</title>
<g id="a_node9"><a xlink:href="classAnimationMachine.html" target="_top" xlink:title="Component of Entity that holds the animation data, can be used to replace the sprite of the entity.">
<polygon fill="white" stroke="#666666" points="2.5,-829.5 2.5,-963.5 129.5,-963.5 129.5,-829.5 2.5,-829.5"/>
<text text-anchor="middle" x="66" y="-951.5" font-family="Helvetica,sans-Serif" font-size="10.00">AnimationMachine</text>
<polyline fill="none" stroke="#666666" points="2.5,-944.5 129.5,-944.5"/>
<text text-anchor="middle" x="66" y="-932.5" font-family="Helvetica,sans-Serif" font-size="10.00"> </text>
<polyline fill="none" stroke="#666666" points="2.5,-925.5 129.5,-925.5"/>
<text text-anchor="start" x="10.5" y="-913.5" font-family="Helvetica,sans-Serif" font-size="10.00">+ AnimationMachine()</text>
<text text-anchor="start" x="10.5" y="-902.5" font-family="Helvetica,sans-Serif" font-size="10.00">+ AnimationMachine()</text>
<text text-anchor="start" x="10.5" y="-891.5" font-family="Helvetica,sans-Serif" font-size="10.00">+ update()</text>
<text text-anchor="start" x="10.5" y="-880.5" font-family="Helvetica,sans-Serif" font-size="10.00">+ toSprite()</text>
<text text-anchor="start" x="10.5" y="-869.5" font-family="Helvetica,sans-Serif" font-size="10.00">+ isFinished()</text>
<text text-anchor="start" x="10.5" y="-858.5" font-family="Helvetica,sans-Serif" font-size="10.00">+ getID()</text>
<text text-anchor="start" x="10.5" y="-847.5" font-family="Helvetica,sans-Serif" font-size="10.00">+ save()</text>
<text text-anchor="start" x="10.5" y="-836.5" font-family="Helvetica,sans-Serif" font-size="10.00">+ load()</text>
</a>
</g>
</g>
<!-- Node9&#45;&gt;Node8 -->
<g id="edge9" class="edge">
<title>Node9&#45;&gt;Node8</title>
<path fill="none" stroke="#404040" d="M72.11,-829.82C74.89,-799.93 78.29,-763.41 81.57,-728.15"/>
<polygon fill="none" stroke="#404040" points="81.57,-728.08 78.15,-721.73 82.69,-716.13 86.11,-722.47 81.57,-728.08"/>
<text text-anchor="middle" x="111.5" y="-737" font-family="Helvetica,sans-Serif" font-size="10.00"> #animation</text>
</g>
</g>
</svg>
