<?xml version="1.0" encoding="UTF-8" standalone="no"?>
<!DOCTYPE svg PUBLIC "-//W3C//DTD SVG 1.1//EN"
 "http://www.w3.org/Graphics/SVG/1.1/DTD/svg11.dtd">
<!-- Generated by graphviz version 7.0.5 (0)
 -->
<!-- Title: RiverController Pages: 1 -->
<svg width="372pt" height="995pt"
 viewBox="0.00 0.00 371.50 995.00" xmlns="http://www.w3.org/2000/svg" xmlns:xlink="http://www.w3.org/1999/xlink">
<g id="graph0" class="graph" transform="scale(1 1) rotate(0) translate(4 991)">
<title>RiverController</title>
<!-- Node1 -->
<g id="node1" class="node">
<title>Node1</title>
<g id="a_node1"><a xlink:title=" ">
<polygon fill="#999999" stroke="#666666" points="152,-0.5 152,-134.5 283,-134.5 283,-0.5 152,-0.5"/>
<text text-anchor="middle" x="217.5" y="-122.5" font-family="Helvetica,sans-Serif" font-size="10.00">RiverController</text>
<polyline fill="none" stroke="#666666" points="152,-115.5 283,-115.5"/>
<text text-anchor="middle" x="217.5" y="-103.5" font-family="Helvetica,sans-Serif" font-size="10.00"> </text>
<polyline fill="none" stroke="#666666" points="152,-96.5 283,-96.5"/>
<text text-anchor="start" x="160" y="-84.5" font-family="Helvetica,sans-Serif" font-size="10.00">+ getType()</text>
<text text-anchor="start" x="160" y="-73.5" font-family="Helvetica,sans-Serif" font-size="10.00">+ getClassName()</text>
<text text-anchor="start" x="160" y="-62.5" font-family="Helvetica,sans-Serif" font-size="10.00">+ saveCurrentNode()</text>
<text text-anchor="start" x="160" y="-51.5" font-family="Helvetica,sans-Serif" font-size="10.00">+ loadCurrentNode()</text>
<text text-anchor="start" x="160" y="-40.5" font-family="Helvetica,sans-Serif" font-size="10.00">+ RoadLaneController()</text>
<text text-anchor="start" x="160" y="-29.5" font-family="Helvetica,sans-Serif" font-size="10.00">+ RoadLaneController()</text>
<text text-anchor="start" x="160" y="-18.5" font-family="Helvetica,sans-Serif" font-size="10.00">+ RoadLaneController()</text>
<text text-anchor="start" x="160" y="-7.5" font-family="Helvetica,sans-Serif" font-size="10.00"># newLane()</text>
</a>
</g>
</g>
<!-- Node2 -->
<g id="node2" class="node">
<title>Node2</title>
<g id="a_node2"><a xlink:href="classRoadLaneController.html" target="_top" xlink:title=" ">
<polygon fill="white" stroke="#bfbfbf" points="149,-172.5 149,-427.5 286,-427.5 286,-172.5 149,-172.5"/>
<text text-anchor="middle" x="217.5" y="-415.5" font-family="Helvetica,sans-Serif" font-size="10.00">RoadLaneController</text>
<polyline fill="none" stroke="#bfbfbf" points="149,-408.5 286,-408.5"/>
<text text-anchor="start" x="157" y="-396.5" font-family="Helvetica,sans-Serif" font-size="10.00"># lanes</text>
<text text-anchor="start" x="157" y="-385.5" font-family="Helvetica,sans-Serif" font-size="10.00"># laneCount</text>
<text text-anchor="start" x="157" y="-374.5" font-family="Helvetica,sans-Serif" font-size="10.00"># laneHeight</text>
<text text-anchor="start" x="157" y="-363.5" font-family="Helvetica,sans-Serif" font-size="10.00"># commuterSize</text>
<text text-anchor="start" x="157" y="-352.5" font-family="Helvetica,sans-Serif" font-size="10.00"># frequencyFunction</text>
<polyline fill="none" stroke="#bfbfbf" points="149,-345.5 286,-345.5"/>
<text text-anchor="start" x="157" y="-333.5" font-family="Helvetica,sans-Serif" font-size="10.00">+ RoadLaneController()</text>
<text text-anchor="start" x="157" y="-322.5" font-family="Helvetica,sans-Serif" font-size="10.00">+ RoadLaneController()</text>
<text text-anchor="start" x="157" y="-311.5" font-family="Helvetica,sans-Serif" font-size="10.00">+ RoadLaneController()</text>
<text text-anchor="start" x="157" y="-300.5" font-family="Helvetica,sans-Serif" font-size="10.00">+ getType()</text>
<text text-anchor="start" x="157" y="-289.5" font-family="Helvetica,sans-Serif" font-size="10.00">+ build()</text>
<text text-anchor="start" x="157" y="-278.5" font-family="Helvetica,sans-Serif" font-size="10.00">+ setLaneHeight()</text>
<text text-anchor="start" x="157" y="-267.5" font-family="Helvetica,sans-Serif" font-size="10.00">+ setPosY()</text>
<text text-anchor="start" x="157" y="-256.5" font-family="Helvetica,sans-Serif" font-size="10.00">+ setCommuterSize()</text>
<text text-anchor="start" x="157" y="-245.5" font-family="Helvetica,sans-Serif" font-size="10.00">+ getClassName()</text>
<text text-anchor="start" x="157" y="-234.5" font-family="Helvetica,sans-Serif" font-size="10.00">+ saveCurrentNode()</text>
<text text-anchor="start" x="157" y="-223.5" font-family="Helvetica,sans-Serif" font-size="10.00">+ loadCurrentNode()</text>
<text text-anchor="start" x="157" y="-212.5" font-family="Helvetica,sans-Serif" font-size="10.00">+ setLaneCount()</text>
<text text-anchor="start" x="157" y="-201.5" font-family="Helvetica,sans-Serif" font-size="10.00">+ setSpeedDistribution()</text>
<text text-anchor="start" x="157" y="-190.5" font-family="Helvetica,sans-Serif" font-size="10.00">+ onLoadingFinished()</text>
<text text-anchor="start" x="157" y="-179.5" font-family="Helvetica,sans-Serif" font-size="10.00"># newLane()</text>
</a>
</g>
</g>
<!-- Node2&#45;&gt;Node1 -->
<g id="edge1" class="edge">
<title>Node2&#45;&gt;Node1</title>
<path fill="none" stroke="#63b8ff" d="M217.5,-161.23C217.5,-151.96 217.5,-142.89 217.5,-134.28"/>
<polygon fill="none" stroke="#63b8ff" points="214,-161.11 217.5,-171.11 221,-161.11 214,-161.11"/>
</g>
<!-- Node3 -->
<g id="node3" class="node">
<title>Node3</title>
<g id="a_node3"><a xlink:href="classLane.html" target="_top" xlink:title=" ">
<polygon fill="white" stroke="#bfbfbf" points="92,-492 92,-571 199,-571 199,-492 92,-492"/>
<text text-anchor="middle" x="145.5" y="-559" font-family="Helvetica,sans-Serif" font-size="10.00">Lane</text>
<polyline fill="none" stroke="#bfbfbf" points="92,-552 199,-552"/>
<text text-anchor="middle" x="145.5" y="-540" font-family="Helvetica,sans-Serif" font-size="10.00"> </text>
<polyline fill="none" stroke="#bfbfbf" points="92,-533 199,-533"/>
<text text-anchor="start" x="100" y="-521" font-family="Helvetica,sans-Serif" font-size="10.00">+ setPosY()</text>
<text text-anchor="start" x="100" y="-510" font-family="Helvetica,sans-Serif" font-size="10.00">+ setLaneHeight()</text>
<text text-anchor="start" x="100" y="-499" font-family="Helvetica,sans-Serif" font-size="10.00">+ getClassName()</text>
</a>
</g>
</g>
<!-- Node3&#45;&gt;Node2 -->
<g id="edge2" class="edge">
<title>Node3&#45;&gt;Node2</title>
<path fill="none" stroke="#63b8ff" d="M160.92,-481.35C165.98,-465.21 171.87,-446.45 177.89,-427.26"/>
<polygon fill="none" stroke="#63b8ff" points="157.66,-480.05 158,-490.64 164.34,-482.15 157.66,-480.05"/>
</g>
<!-- Node4 -->
<g id="node4" class="node">
<title>Node4</title>
<g id="a_node4"><a xlink:href="classSceneNode.html" target="_top" xlink:title="A node in the scene graph.">
<polygon fill="white" stroke="#666666" points="78,-625.5 78,-891.5 213,-891.5 213,-625.5 78,-625.5"/>
<text text-anchor="middle" x="145.5" y="-879.5" font-family="Helvetica,sans-Serif" font-size="10.00">SceneNode</text>
<polyline fill="none" stroke="#666666" points="78,-872.5 213,-872.5"/>
<text text-anchor="middle" x="145.5" y="-860.5" font-family="Helvetica,sans-Serif" font-size="10.00"> </text>
<polyline fill="none" stroke="#666666" points="78,-853.5 213,-853.5"/>
<text text-anchor="start" x="86" y="-841.5" font-family="Helvetica,sans-Serif" font-size="10.00">+ SceneNode()</text>
<text text-anchor="start" x="86" y="-830.5" font-family="Helvetica,sans-Serif" font-size="10.00">+ attachChild()</text>
<text text-anchor="start" x="86" y="-819.5" font-family="Helvetica,sans-Serif" font-size="10.00">+ detachChild()</text>
<text text-anchor="start" x="86" y="-808.5" font-family="Helvetica,sans-Serif" font-size="10.00">+ update()</text>
<text text-anchor="start" x="86" y="-797.5" font-family="Helvetica,sans-Serif" font-size="10.00">+ getAbsTransform()</text>
<text text-anchor="start" x="86" y="-786.5" font-family="Helvetica,sans-Serif" font-size="10.00">+ getAbsPosition()</text>
<text text-anchor="start" x="86" y="-775.5" font-family="Helvetica,sans-Serif" font-size="10.00">+ checkNodeCollision()</text>
<text text-anchor="start" x="86" y="-764.5" font-family="Helvetica,sans-Serif" font-size="10.00">+ checkSceneCollision()</text>
<text text-anchor="start" x="86" y="-753.5" font-family="Helvetica,sans-Serif" font-size="10.00">+ setDebug()</text>
<text text-anchor="start" x="86" y="-742.5" font-family="Helvetica,sans-Serif" font-size="10.00">+ getCategory()</text>
<text text-anchor="start" x="86" y="-731.5" font-family="Helvetica,sans-Serif" font-size="10.00">+ saveNode()</text>
<text text-anchor="start" x="86" y="-720.5" font-family="Helvetica,sans-Serif" font-size="10.00">+ operator&lt;()</text>
<text text-anchor="start" x="86" y="-709.5" font-family="Helvetica,sans-Serif" font-size="10.00">+ getBoundingRect()</text>
<text text-anchor="start" x="86" y="-698.5" font-family="Helvetica,sans-Serif" font-size="10.00">+ getLocalBounds()</text>
<text text-anchor="start" x="86" y="-687.5" font-family="Helvetica,sans-Serif" font-size="10.00">+ draw()</text>
<text text-anchor="start" x="86" y="-676.5" font-family="Helvetica,sans-Serif" font-size="10.00"># getClassName()</text>
<text text-anchor="start" x="86" y="-665.5" font-family="Helvetica,sans-Serif" font-size="10.00"># saveCurrentNode()</text>
<text text-anchor="start" x="86" y="-654.5" font-family="Helvetica,sans-Serif" font-size="10.00"># loadCurrentNode()</text>
<text text-anchor="start" x="86" y="-643.5" font-family="Helvetica,sans-Serif" font-size="10.00"># onLoadingFinished()</text>
<text text-anchor="start" x="86" y="-632.5" font-family="Helvetica,sans-Serif" font-size="10.00"># shouldSave()</text>
</a>
</g>
</g>
<!-- Node4&#45;&gt;Node3 -->
<g id="edge3" class="edge">
<title>Node4&#45;&gt;Node3</title>
<path fill="none" stroke="#63b8ff" d="M145.5,-614.52C145.5,-598.64 145.5,-583.64 145.5,-570.92"/>
<polygon fill="none" stroke="#63b8ff" points="142,-614.13 145.5,-624.13 149,-614.13 142,-614.13"/>
</g>
<!-- Node5 -->
<g id="node5" class="node">
<title>Node5</title>
<g id="a_node5"><a xlink:title=" ">
<polygon fill="white" stroke="#bfbfbf" points="0,-929.5 0,-986.5 77,-986.5 77,-929.5 0,-929.5"/>
<text text-anchor="middle" x="38.5" y="-974.5" font-family="Helvetica,sans-Serif" font-size="10.00">sf::Drawable</text>
<polyline fill="none" stroke="#bfbfbf" points="0,-967.5 77,-967.5"/>
<text text-anchor="middle" x="38.5" y="-955.5" font-family="Helvetica,sans-Serif" font-size="10.00"> </text>
<polyline fill="none" stroke="#bfbfbf" points="0,-948.5 77,-948.5"/>
<text text-anchor="middle" x="38.5" y="-936.5" font-family="Helvetica,sans-Serif" font-size="10.00"> </text>
</a>
</g>
</g>
<!-- Node5&#45;&gt;Node4 -->
<g id="edge4" class="edge">
<title>Node5&#45;&gt;Node4</title>
<path fill="none" stroke="#63b8ff" d="M58.82,-919.49C64.57,-908.89 71.15,-896.73 78.07,-883.96"/>
<polygon fill="none" stroke="#63b8ff" points="55.79,-917.75 54.1,-928.21 61.94,-921.08 55.79,-917.75"/>
</g>
<!-- Node6 -->
<g id="node6" class="node">
<title>Node6</title>
<g id="a_node6"><a xlink:title=" ">
<polygon fill="white" stroke="#bfbfbf" points="95,-929.5 95,-986.5 196,-986.5 196,-929.5 95,-929.5"/>
<text text-anchor="middle" x="145.5" y="-974.5" font-family="Helvetica,sans-Serif" font-size="10.00">sf::Transformable</text>
<polyline fill="none" stroke="#bfbfbf" points="95,-967.5 196,-967.5"/>
<text text-anchor="middle" x="145.5" y="-955.5" font-family="Helvetica,sans-Serif" font-size="10.00"> </text>
<polyline fill="none" stroke="#bfbfbf" points="95,-948.5 196,-948.5"/>
<text text-anchor="middle" x="145.5" y="-936.5" font-family="Helvetica,sans-Serif" font-size="10.00"> </text>
</a>
</g>
</g>
<!-- Node6&#45;&gt;Node4 -->
<g id="edge5" class="edge">
<title>Node6&#45;&gt;Node4</title>
<path fill="none" stroke="#63b8ff" d="M145.5,-918.16C145.5,-909.92 145.5,-900.79 145.5,-891.18"/>
<polygon fill="none" stroke="#63b8ff" points="142,-918.02 145.5,-928.02 149,-918.02 142,-918.02"/>
</g>
<!-- Node7 -->
<g id="node7" class="node">
<title>Node7</title>
<g id="a_node7"><a xlink:title=" ">
<polygon fill="white" stroke="#bfbfbf" points="214.5,-929.5 214.5,-986.5 310.5,-986.5 310.5,-929.5 214.5,-929.5"/>
<text text-anchor="middle" x="262.5" y="-974.5" font-family="Helvetica,sans-Serif" font-size="10.00">sf::NonCopyable</text>
<polyline fill="none" stroke="#bfbfbf" points="214.5,-967.5 310.5,-967.5"/>
<text text-anchor="middle" x="262.5" y="-955.5" font-family="Helvetica,sans-Serif" font-size="10.00"> </text>
<polyline fill="none" stroke="#bfbfbf" points="214.5,-948.5 310.5,-948.5"/>
<text text-anchor="middle" x="262.5" y="-936.5" font-family="Helvetica,sans-Serif" font-size="10.00"> </text>
</a>
</g>
</g>
<!-- Node7&#45;&gt;Node4 -->
<g id="edge6" class="edge">
<title>Node7&#45;&gt;Node4</title>
<path fill="none" stroke="#8b1a1a" d="M240.38,-919.67C232.32,-906.06 222.73,-889.87 212.8,-873.1"/>
<polygon fill="none" stroke="#8b1a1a" points="237.35,-921.42 245.46,-928.24 243.37,-917.85 237.35,-921.42"/>
</g>
<!-- Node8 -->
<g id="node8" class="node">
<title>Node8</title>
<g id="a_node8"><a xlink:href="classRandom.html" target="_top" xlink:title=" ">
<polygon fill="white" stroke="#666666" points="217.5,-475.5 217.5,-587.5 361.5,-587.5 361.5,-475.5 217.5,-475.5"/>
<text text-anchor="start" x="225.5" y="-575.5" font-family="Helvetica,sans-Serif" font-size="10.00">Random&lt; std::normal</text>
<text text-anchor="middle" x="289.5" y="-564.5" font-family="Helvetica,sans-Serif" font-size="10.00">_distribution&lt; double &gt; &gt;</text>
<polyline fill="none" stroke="#666666" points="217.5,-557.5 361.5,-557.5"/>
<text text-anchor="middle" x="289.5" y="-545.5" font-family="Helvetica,sans-Serif" font-size="10.00"> </text>
<polyline fill="none" stroke="#666666" points="217.5,-538.5 361.5,-538.5"/>
<text text-anchor="start" x="225.5" y="-526.5" font-family="Helvetica,sans-Serif" font-size="10.00">+ Random()</text>
<text text-anchor="start" x="225.5" y="-515.5" font-family="Helvetica,sans-Serif" font-size="10.00">+ Random()</text>
<text text-anchor="start" x="225.5" y="-504.5" font-family="Helvetica,sans-Serif" font-size="10.00">+ get()</text>
<text text-anchor="start" x="225.5" y="-493.5" font-family="Helvetica,sans-Serif" font-size="10.00">+ get()</text>
<text text-anchor="start" x="225.5" y="-482.5" font-family="Helvetica,sans-Serif" font-size="10.00">+ dis()</text>
</a>
</g>
</g>
<!-- Node8&#45;&gt;Node2 -->
<g id="edge7" class="edge">
<title>Node8&#45;&gt;Node2</title>
<path fill="none" stroke="#404040" d="M272.25,-475.53C268.75,-464.37 264.93,-452.17 260.97,-439.57"/>
<polygon fill="none" stroke="#404040" points="261.01,-439.7 255.4,-435.17 257.42,-428.25 263.03,-432.78 261.01,-439.7"/>
<text text-anchor="middle" x="314.5" y="-449" font-family="Helvetica,sans-Serif" font-size="10.00"> #speedDistribution</text>
</g>
</g>
</svg>
