<?xml version="1.0" encoding="UTF-8" standalone="no"?>
<!DOCTYPE svg PUBLIC "-//W3C//DTD SVG 1.1//EN"
 "http://www.w3.org/Graphics/SVG/1.1/DTD/svg11.dtd">
<!-- Generated by graphviz version 7.0.5 (0)
 -->
<!-- Title: StunnedState Pages: 1 -->
<svg width="109pt" height="215pt"
 viewBox="0.00 0.00 109.00 215.00" xmlns="http://www.w3.org/2000/svg" xmlns:xlink="http://www.w3.org/1999/xlink">
<g id="graph0" class="graph" transform="scale(1 1) rotate(0) translate(4 211)">
<title>StunnedState</title>
<!-- Node1 -->
<g id="node1" class="node">
<title>Node1</title>
<g id="a_node1"><a xlink:title=" ">
<polygon fill="#999999" stroke="#666666" points="0,-0.5 0,-79.5 101,-79.5 101,-0.5 0,-0.5"/>
<text text-anchor="middle" x="50.5" y="-67.5" font-family="Helvetica,sans-Serif" font-size="10.00">StunnedState</text>
<polyline fill="none" stroke="#666666" points="0,-60.5 101,-60.5"/>
<text text-anchor="middle" x="50.5" y="-48.5" font-family="Helvetica,sans-Serif" font-size="10.00"> </text>
<polyline fill="none" stroke="#666666" points="0,-41.5 101,-41.5"/>
<text text-anchor="start" x="8" y="-29.5" font-family="Helvetica,sans-Serif" font-size="10.00">+ StunnedState()</text>
<text text-anchor="start" x="8" y="-18.5" font-family="Helvetica,sans-Serif" font-size="10.00">+ update()</text>
<text text-anchor="start" x="8" y="-7.5" font-family="Helvetica,sans-Serif" font-size="10.00">+ getStateID()</text>
</a>
</g>
</g>
<!-- Node2 -->
<g id="node2" class="node">
<title>Node2</title>
<g id="a_node2"><a xlink:href="classPlayerState.html" target="_top" xlink:title=" ">
<polygon fill="white" stroke="#bfbfbf" points="0.5,-116.5 0.5,-206.5 100.5,-206.5 100.5,-116.5 0.5,-116.5"/>
<text text-anchor="middle" x="50.5" y="-194.5" font-family="Helvetica,sans-Serif" font-size="10.00">PlayerState</text>
<polyline fill="none" stroke="#bfbfbf" points="0.5,-187.5 100.5,-187.5"/>
<text text-anchor="start" x="8.5" y="-175.5" font-family="Helvetica,sans-Serif" font-size="10.00">+ player</text>
<polyline fill="none" stroke="#bfbfbf" points="0.5,-168.5 100.5,-168.5"/>
<text text-anchor="start" x="8.5" y="-156.5" font-family="Helvetica,sans-Serif" font-size="10.00">+ PlayerState()</text>
<text text-anchor="start" x="8.5" y="-145.5" font-family="Helvetica,sans-Serif" font-size="10.00">+ ~PlayerState()</text>
<text text-anchor="start" x="8.5" y="-134.5" font-family="Helvetica,sans-Serif" font-size="10.00">+ update()</text>
<text text-anchor="start" x="8.5" y="-123.5" font-family="Helvetica,sans-Serif" font-size="10.00">+ getStateID()</text>
</a>
</g>
</g>
<!-- Node2&#45;&gt;Node1 -->
<g id="edge1" class="edge">
<title>Node2&#45;&gt;Node1</title>
<path fill="none" stroke="#63b8ff" d="M50.5,-105.27C50.5,-96.49 50.5,-87.57 50.5,-79.29"/>
<polygon fill="none" stroke="#63b8ff" points="47,-105.17 50.5,-115.17 54,-105.17 47,-105.17"/>
</g>
</g>
</svg>
