<?xml version="1.0" encoding="UTF-8" standalone="no"?>
<!DOCTYPE svg PUBLIC "-//W3C//DTD SVG 1.1//EN"
 "http://www.w3.org/Graphics/SVG/1.1/DTD/svg11.dtd">
<!-- Generated by graphviz version 7.0.5 (0)
 -->
<!-- Title: AudioController Pages: 1 -->
<svg width="820pt" height="629pt"
 viewBox="0.00 0.00 819.50 629.00" xmlns="http://www.w3.org/2000/svg" xmlns:xlink="http://www.w3.org/1999/xlink">
<g id="graph0" class="graph" transform="scale(1 1) rotate(0) translate(4 625)">
<title>AudioController</title>
<!-- Node1 -->
<g id="node1" class="node">
<title>Node1</title>
<g id="a_node1"><a xlink:title=" ">
<polygon fill="#999999" stroke="#666666" points="680,-239 325,-239 325,0 680,0 680,-239"/>
<text text-anchor="middle" x="502.5" y="-227" font-family="Helvetica,sans-Serif" font-size="10.00">{AudioController</text>
<text text-anchor="start" x="333" y="-216" font-family="Helvetica,sans-Serif" font-size="10.00">|&#45; sf::Music music</text>
<text text-anchor="start" x="333" y="-205" font-family="Helvetica,sans-Serif" font-size="10.00">&#45; float musicVolume</text>
<text text-anchor="start" x="333" y="-194" font-family="Helvetica,sans-Serif" font-size="10.00">&#45; bool isMuted</text>
<text text-anchor="start" x="333" y="-183" font-family="Helvetica,sans-Serif" font-size="10.00">|+ &#160;AudioController(const AudioController &amp;)=delete</text>
<text text-anchor="start" x="333" y="-172" font-family="Helvetica,sans-Serif" font-size="10.00">+ void operator=(const AudioController &amp;)=delete</text>
<text text-anchor="start" x="333" y="-161" font-family="Helvetica,sans-Serif" font-size="10.00">+ void playMusic(Music::ID id, bool loop=false)</text>
<text text-anchor="start" x="333" y="-150" font-family="Helvetica,sans-Serif" font-size="10.00">+ void resumeMusic()</text>
<text text-anchor="start" x="333" y="-139" font-family="Helvetica,sans-Serif" font-size="10.00">+ void pauseMusic()</text>
<text text-anchor="start" x="333" y="-128" font-family="Helvetica,sans-Serif" font-size="10.00">+ void pauseSound()</text>
<text text-anchor="start" x="333" y="-117" font-family="Helvetica,sans-Serif" font-size="10.00">+ void setMuted(bool)</text>
<text text-anchor="start" x="333" y="-106" font-family="Helvetica,sans-Serif" font-size="10.00">+ void setMusicVolume(float vol)</text>
<text text-anchor="start" x="333" y="-95" font-family="Helvetica,sans-Serif" font-size="10.00">+ void loadMusicFromFile(Music::ID type, const std::string &amp;path)</text>
<text text-anchor="start" x="333" y="-84" font-family="Helvetica,sans-Serif" font-size="10.00">+ void loadSoundFromFile(SoundEffect::ID id, const std::string &amp;path)</text>
<text text-anchor="start" x="333" y="-73" font-family="Helvetica,sans-Serif" font-size="10.00">+ void playSound(SoundEffect::ID id)</text>
<text text-anchor="start" x="333" y="-62" font-family="Helvetica,sans-Serif" font-size="10.00">+ void removeStoppedSounds()</text>
<text text-anchor="start" x="333" y="-51" font-family="Helvetica,sans-Serif" font-size="10.00">+ static AudioController &amp; instance()</text>
<text text-anchor="start" x="333" y="-40" font-family="Helvetica,sans-Serif" font-size="10.00">&#45; &#160;AudioController()=default</text>
<text text-anchor="start" x="333" y="-29" font-family="Helvetica,sans-Serif" font-size="10.00">&#45; sf::SoundBuffer &amp; getSoundBuffer(SoundEffect::ID id)</text>
<text text-anchor="start" x="333" y="-18" font-family="Helvetica,sans-Serif" font-size="10.00">&#45; void updateSettings()</text>
<text text-anchor="middle" x="502.5" y="-7" font-family="Helvetica,sans-Serif" font-size="10.00">}</text>
</a>
</g>
</g>
<!-- Node1&#45;&gt;Node1 -->
<g id="edge1" class="edge">
<title>Node1&#45;&gt;Node1</title>
<path fill="none" stroke="#404040" d="M680.49,-138.18C691.42,-133.76 698,-127.53 698,-119.5 698,-114.73 695.68,-110.6 691.51,-107.1"/>
<polygon fill="none" stroke="#404040" points="691.7,-107.21 684.5,-107.71 681.27,-101.27 688.47,-100.76 691.7,-107.21"/>
<text text-anchor="middle" x="725" y="-117" font-family="Helvetica,sans-Serif" font-size="10.00"> &#45;_instance</text>
</g>
<!-- Node2 -->
<g id="node2" class="node">
<title>Node2</title>
<g id="a_node2"><a xlink:title=" ">
<polygon fill="white" stroke="#666666" points="596.5,-327 408.5,-327 408.5,-286 596.5,-286 596.5,-327"/>
<text text-anchor="middle" x="502.5" y="-315" font-family="Helvetica,sans-Serif" font-size="10.00">{std::map&lt; Music::ID, std::string &gt;</text>
<text text-anchor="start" x="416.5" y="-304" font-family="Helvetica,sans-Serif" font-size="10.00">|+ Music::ID keys</text>
<text text-anchor="middle" x="502.5" y="-293" font-family="Helvetica,sans-Serif" font-size="10.00">|}</text>
</a>
</g>
</g>
<!-- Node2&#45;&gt;Node1 -->
<g id="edge2" class="edge">
<title>Node2&#45;&gt;Node1</title>
<path fill="none" stroke="#404040" d="M502.5,-285.7C502.5,-276.59 502.5,-264.93 502.5,-252.04"/>
<polygon fill="none" stroke="#404040" points="502.5,-252.24 498.5,-246.24 502.5,-240.24 506.5,-246.24 502.5,-252.24"/>
<text text-anchor="middle" x="539" y="-260" font-family="Helvetica,sans-Serif" font-size="10.00"> &#45;musicPlaylist</text>
</g>
<!-- Node3 -->
<g id="node3" class="node">
<title>Node3</title>
<g id="a_node3"><a xlink:title=" ">
<polygon fill="white" stroke="#666666" points="647,-445 576,-445 576,-415 647,-415 647,-445"/>
<text text-anchor="middle" x="611.5" y="-433" font-family="Helvetica,sans-Serif" font-size="10.00">{std::string</text>
<text text-anchor="middle" x="611.5" y="-422" font-family="Helvetica,sans-Serif" font-size="10.00">||}</text>
</a>
</g>
</g>
<!-- Node3&#45;&gt;Node2 -->
<g id="edge3" class="edge">
<title>Node3&#45;&gt;Node2</title>
<path fill="none" stroke="#404040" d="M612.26,-414.8C612.47,-396.57 610.13,-364.92 593.5,-345 590.27,-341.13 586.57,-337.65 582.56,-334.52"/>
<polygon fill="none" stroke="#404040" points="582.74,-334.64 575.53,-334.63 572.77,-327.97 579.98,-327.98 582.74,-334.64"/>
<text text-anchor="middle" x="638.5" y="-363" font-family="Helvetica,sans-Serif" font-size="10.00"> +elements</text>
</g>
<!-- Node4 -->
<g id="node4" class="node">
<title>Node4</title>
<g id="a_node4"><a xlink:title=" ">
<polygon fill="white" stroke="#666666" points="680,-538.5 533,-538.5 533,-508.5 680,-508.5 680,-538.5"/>
<text text-anchor="middle" x="606.5" y="-526.5" font-family="Helvetica,sans-Serif" font-size="10.00">{std::basic_string&lt; Char &gt;</text>
<text text-anchor="middle" x="606.5" y="-515.5" font-family="Helvetica,sans-Serif" font-size="10.00">||}</text>
</a>
</g>
</g>
<!-- Node4&#45;&gt;Node3 -->
<g id="edge4" class="edge">
<title>Node4&#45;&gt;Node3</title>
<path fill="none" stroke="#63b8ff" d="M607.89,-497.06C608.8,-480.43 609.95,-459.32 610.71,-445.5"/>
<polygon fill="none" stroke="#63b8ff" points="604.41,-496.52 607.36,-506.69 611.4,-496.9 604.41,-496.52"/>
</g>
<!-- Node5 -->
<g id="node5" class="node">
<title>Node5</title>
<g id="a_node5"><a xlink:title=" ">
<polygon fill="white" stroke="#666666" points="436,-445 329,-445 329,-415 436,-415 436,-445"/>
<text text-anchor="middle" x="382.5" y="-433" font-family="Helvetica,sans-Serif" font-size="10.00">{std::map&lt; K, T &gt;</text>
<text text-anchor="middle" x="382.5" y="-422" font-family="Helvetica,sans-Serif" font-size="10.00">||}</text>
</a>
</g>
</g>
<!-- Node5&#45;&gt;Node2 -->
<g id="edge5" class="edge">
<title>Node5&#45;&gt;Node2</title>
<path fill="none" stroke="orange" d="M419.07,-408.39C428.18,-402.06 437.37,-394.48 444.5,-386 457.43,-370.63 451.84,-361.35 463.5,-345 467.97,-338.73 473.58,-332.63 479.14,-327.23"/>
<polygon fill="orange" stroke="orange" points="417.41,-405.3 410.96,-413.71 421.24,-411.15 417.41,-405.3"/>
<text text-anchor="middle" x="526.5" y="-363" font-family="Helvetica,sans-Serif" font-size="10.00"> &lt; Music::ID, std::string &gt;</text>
</g>
<!-- Node8 -->
<g id="node8" class="node">
<title>Node8</title>
<g id="a_node8"><a xlink:title=" ">
<polygon fill="white" stroke="#666666" points="337,-327 0,-327 0,-286 337,-286 337,-327"/>
<text text-anchor="middle" x="168.5" y="-315" font-family="Helvetica,sans-Serif" font-size="10.00">{std::map&lt; SoundEffect::ID, std::unique_ptr&lt; sf::SoundBuffer &gt; &gt;</text>
<text text-anchor="start" x="8" y="-304" font-family="Helvetica,sans-Serif" font-size="10.00">|+ SoundEffect::ID keys</text>
<text text-anchor="middle" x="168.5" y="-293" font-family="Helvetica,sans-Serif" font-size="10.00">|}</text>
</a>
</g>
</g>
<!-- Node5&#45;&gt;Node8 -->
<g id="edge12" class="edge">
<title>Node5&#45;&gt;Node8</title>
<path fill="none" stroke="orange" d="M317.35,-420.32C257.04,-411.61 175.22,-397.83 165.5,-386 152.17,-369.77 155.96,-344.66 161.1,-327.23"/>
<polygon fill="orange" stroke="orange" points="316.83,-423.78 327.23,-421.72 317.82,-416.85 316.83,-423.78"/>
<text text-anchor="middle" x="303" y="-363" font-family="Helvetica,sans-Serif" font-size="10.00"> &lt; SoundEffect::ID, std::unique_ptr&lt; sf::SoundBuffer &gt; &gt;</text>
</g>
<!-- Node6 -->
<g id="node6" class="node">
<title>Node6</title>
<g id="a_node6"><a xlink:title=" ">
<polygon fill="white" stroke="#666666" points="371,-538.5 342,-538.5 342,-508.5 371,-508.5 371,-538.5"/>
<text text-anchor="middle" x="356.5" y="-526.5" font-family="Helvetica,sans-Serif" font-size="10.00">{K</text>
<text text-anchor="middle" x="356.5" y="-515.5" font-family="Helvetica,sans-Serif" font-size="10.00">||}</text>
</a>
</g>
</g>
<!-- Node6&#45;&gt;Node5 -->
<g id="edge6" class="edge">
<title>Node6&#45;&gt;Node5</title>
<path fill="none" stroke="#404040" d="M355.8,-508.22C355.7,-498.42 356.32,-485.2 359.5,-474 361.16,-468.16 363.69,-462.22 366.48,-456.69"/>
<polygon fill="none" stroke="#404040" points="366.46,-456.72 365.89,-449.53 372.31,-446.24 372.88,-453.43 366.46,-456.72"/>
<text text-anchor="middle" x="376.5" y="-477" font-family="Helvetica,sans-Serif" font-size="10.00"> +keys</text>
</g>
<!-- Node7 -->
<g id="node7" class="node">
<title>Node7</title>
<g id="a_node7"><a xlink:title=" ">
<polygon fill="white" stroke="#666666" points="422,-621 393,-621 393,-591 422,-591 422,-621"/>
<text text-anchor="middle" x="407.5" y="-609" font-family="Helvetica,sans-Serif" font-size="10.00">{T</text>
<text text-anchor="middle" x="407.5" y="-598" font-family="Helvetica,sans-Serif" font-size="10.00">||}</text>
</a>
</g>
</g>
<!-- Node7&#45;&gt;Node5 -->
<g id="edge7" class="edge">
<title>Node7&#45;&gt;Node5</title>
<path fill="none" stroke="#404040" d="M406.65,-590.75C405.06,-566.59 401.09,-516.09 393.5,-474 392.54,-468.69 391.29,-463.07 389.97,-457.71"/>
<polygon fill="none" stroke="#404040" points="389.96,-457.7 384.57,-452.91 386.92,-446.09 392.31,-450.88 389.96,-457.7"/>
<text text-anchor="middle" x="431.5" y="-521" font-family="Helvetica,sans-Serif" font-size="10.00"> +elements</text>
</g>
<!-- Node10 -->
<g id="node10" class="node">
<title>Node10</title>
<g id="a_node10"><a xlink:title=" ">
<polygon fill="white" stroke="#666666" points="309.5,-544 185.5,-544 185.5,-503 309.5,-503 309.5,-544"/>
<text text-anchor="middle" x="247.5" y="-532" font-family="Helvetica,sans-Serif" font-size="10.00">{std::unique_ptr&lt; T &gt;</text>
<text text-anchor="start" x="193.5" y="-521" font-family="Helvetica,sans-Serif" font-size="10.00">||+ T * operator&#45;&gt;()</text>
<text text-anchor="middle" x="247.5" y="-510" font-family="Helvetica,sans-Serif" font-size="10.00">}</text>
</a>
</g>
</g>
<!-- Node7&#45;&gt;Node10 -->
<g id="edge11" class="edge">
<title>Node7&#45;&gt;Node10</title>
<path fill="none" stroke="#404040" d="M392.73,-597.57C371.42,-586.85 330.99,-566.51 298.19,-550"/>
<polygon fill="none" stroke="#404040" points="298.47,-550.15 291.32,-551.02 287.75,-544.75 294.91,-543.88 298.47,-550.15"/>
<text text-anchor="middle" x="355" y="-565" font-family="Helvetica,sans-Serif" font-size="10.00"> +ptr</text>
</g>
<!-- Node12 -->
<g id="node12" class="node">
<title>Node12</title>
<g id="a_node12"><a xlink:title=" ">
<polygon fill="white" stroke="#666666" points="785,-538.5 698,-538.5 698,-508.5 785,-508.5 785,-538.5"/>
<text text-anchor="middle" x="741.5" y="-526.5" font-family="Helvetica,sans-Serif" font-size="10.00">{std::list&lt; T &gt;</text>
<text text-anchor="middle" x="741.5" y="-515.5" font-family="Helvetica,sans-Serif" font-size="10.00">||}</text>
</a>
</g>
</g>
<!-- Node7&#45;&gt;Node12 -->
<g id="edge15" class="edge">
<title>Node7&#45;&gt;Node12</title>
<path fill="none" stroke="#404040" d="M422.37,-602.57C464.66,-595.5 589.06,-573.52 689.5,-544 690.61,-543.67 691.74,-543.33 692.87,-542.98"/>
<polygon fill="none" stroke="#404040" points="692.84,-542.99 697.27,-537.3 704.22,-539.21 699.79,-544.89 692.84,-542.99"/>
<text text-anchor="middle" x="649.5" y="-565" font-family="Helvetica,sans-Serif" font-size="10.00"> +elements</text>
</g>
<!-- Node8&#45;&gt;Node1 -->
<g id="edge8" class="edge">
<title>Node8&#45;&gt;Node1</title>
<path fill="none" stroke="#404040" d="M204.56,-285.53C231.89,-270.39 271.76,-248.31 313.49,-225.19"/>
<polygon fill="none" stroke="#404040" points="313.43,-225.22 316.74,-218.82 323.93,-219.41 320.62,-225.81 313.43,-225.22"/>
<text text-anchor="middle" x="276" y="-260" font-family="Helvetica,sans-Serif" font-size="10.00"> &#45;soundBar</text>
</g>
<!-- Node9 -->
<g id="node9" class="node">
<title>Node9</title>
<g id="a_node9"><a xlink:title=" ">
<polygon fill="white" stroke="#666666" points="208,-456 17,-456 17,-404 208,-404 208,-456"/>
<text text-anchor="middle" x="112.5" y="-444" font-family="Helvetica,sans-Serif" font-size="10.00">{std::unique_ptr&lt; sf::SoundBuffer &gt;</text>
<text text-anchor="start" x="25" y="-433" font-family="Helvetica,sans-Serif" font-size="10.00">|+ sf::SoundBuffer ptr</text>
<text text-anchor="start" x="25" y="-422" font-family="Helvetica,sans-Serif" font-size="10.00">|+ sf::SoundBuffer * operator&#45;&gt;()</text>
<text text-anchor="middle" x="112.5" y="-411" font-family="Helvetica,sans-Serif" font-size="10.00">}</text>
</a>
</g>
</g>
<!-- Node9&#45;&gt;Node8 -->
<g id="edge9" class="edge">
<title>Node9&#45;&gt;Node8</title>
<path fill="none" stroke="#404040" d="M94.96,-403.55C85.24,-386.03 77.19,-362.79 88.5,-345 90.69,-341.55 93.29,-338.41 96.2,-335.56"/>
<polygon fill="none" stroke="#404040" points="96.31,-335.47 98.48,-328.59 105.66,-327.95 103.49,-334.83 96.31,-335.47"/>
<text text-anchor="middle" x="117.5" y="-363" font-family="Helvetica,sans-Serif" font-size="10.00"> +elements</text>
</g>
<!-- Node10&#45;&gt;Node9 -->
<g id="edge10" class="edge">
<title>Node10&#45;&gt;Node9</title>
<path fill="none" stroke="orange" d="M208.89,-496.33C190.39,-483.79 168.32,-468.83 149.96,-456.39"/>
<polygon fill="orange" stroke="orange" points="206.71,-499.08 216.95,-501.8 210.64,-493.29 206.71,-499.08"/>
<text text-anchor="middle" x="242.5" y="-477" font-family="Helvetica,sans-Serif" font-size="10.00"> &lt; sf::SoundBuffer &gt;</text>
</g>
<!-- Node11 -->
<g id="node11" class="node">
<title>Node11</title>
<g id="a_node11"><a xlink:title=" ">
<polygon fill="white" stroke="#666666" points="804,-386 679,-386 679,-345 804,-345 804,-386"/>
<text text-anchor="middle" x="741.5" y="-374" font-family="Helvetica,sans-Serif" font-size="10.00">{std::list&lt; sf::Sound &gt;</text>
<text text-anchor="start" x="687" y="-363" font-family="Helvetica,sans-Serif" font-size="10.00">|+ sf::Sound elements</text>
<text text-anchor="middle" x="741.5" y="-352" font-family="Helvetica,sans-Serif" font-size="10.00">|}</text>
</a>
</g>
</g>
<!-- Node11&#45;&gt;Node1 -->
<g id="edge13" class="edge">
<title>Node11&#45;&gt;Node1</title>
<path fill="none" stroke="#404040" d="M721.94,-344.53C700.63,-322.77 664.64,-286.03 627.9,-248.52"/>
<polygon fill="none" stroke="#404040" points="628.09,-248.71 621.03,-247.23 619.69,-240.14 626.75,-241.63 628.09,-248.71"/>
<text text-anchor="middle" x="722.5" y="-304" font-family="Helvetica,sans-Serif" font-size="10.00"> &#45;sounds</text>
</g>
<!-- Node12&#45;&gt;Node11 -->
<g id="edge14" class="edge">
<title>Node12&#45;&gt;Node11</title>
<path fill="none" stroke="orange" d="M741.5,-496.98C741.5,-466.05 741.5,-414.6 741.5,-386.44"/>
<polygon fill="orange" stroke="orange" points="738,-496.59 741.5,-506.59 745,-496.59 738,-496.59"/>
<text text-anchor="middle" x="776.5" y="-477" font-family="Helvetica,sans-Serif" font-size="10.00"> &lt; sf::Sound &gt;</text>
</g>
</g>
</svg>
