<?xml version="1.0" encoding="UTF-8" standalone="no"?>
<!DOCTYPE svg PUBLIC "-//W3C//DTD SVG 1.1//EN"
 "http://www.w3.org/Graphics/SVG/1.1/DTD/svg11.dtd">
<!-- Generated by graphviz version 7.0.5 (0)
 -->
<!-- Title: TextureHolder Pages: 1 -->
<svg width="768pt" height="500pt"
 viewBox="0.00 0.00 768.00 500.00" xmlns="http://www.w3.org/2000/svg" xmlns:xlink="http://www.w3.org/1999/xlink">
<g id="graph0" class="graph" transform="scale(1 1) rotate(0) translate(4 496)">
<title>TextureHolder</title>
<!-- Node1 -->
<g id="node1" class="node">
<title>Node1</title>
<g id="a_node1"><a xlink:title="A singleton that handles textures. &#160;TextureSheet stores sf::Texture. SpriteSheet represents the sprit...">
<polygon fill="#999999" stroke="#666666" points="760,-118 43,-118 43,0 760,0 760,-118"/>
<text text-anchor="middle" x="401.5" y="-106" font-family="Helvetica,sans-Serif" font-size="10.00">{TextureHolder</text>
<text text-anchor="start" x="51" y="-95" font-family="Helvetica,sans-Serif" font-size="10.00">||+ &#160;TextureHolder(const TextureHolder &amp;)=delete</text>
<text text-anchor="start" x="51" y="-84" font-family="Helvetica,sans-Serif" font-size="10.00">+ void operator=(const TextureHolder &amp;)=delete</text>
<text text-anchor="start" x="51" y="-73" font-family="Helvetica,sans-Serif" font-size="10.00">+ void load(Texture::ID, const std::string &amp;filename, sf::Vector2u spriteSize={0, 0}, unsigned int spriteCount=1, unsigned int texturePerRow=0)</text>
<text text-anchor="start" x="51" y="-62" font-family="Helvetica,sans-Serif" font-size="10.00">+ void add(Texture::ID, const SpriteSheet &amp;)</text>
<text text-anchor="start" x="51" y="-51" font-family="Helvetica,sans-Serif" font-size="10.00">+ sf::Texture const &amp; getTexture(Texture::ID) const</text>
<text text-anchor="start" x="51" y="-40" font-family="Helvetica,sans-Serif" font-size="10.00">+ Sheet const &amp; getSheet(Texture::ID) const</text>
<text text-anchor="start" x="51" y="-29" font-family="Helvetica,sans-Serif" font-size="10.00">+ static TextureHolder &amp; instance()</text>
<text text-anchor="start" x="51" y="-18" font-family="Helvetica,sans-Serif" font-size="10.00">&#45; &#160;TextureHolder()=default</text>
<text text-anchor="middle" x="401.5" y="-7" font-family="Helvetica,sans-Serif" font-size="10.00">}</text>
</a>
</g>
</g>
<!-- Node2 -->
<g id="node2" class="node">
<title>Node2</title>
<g id="a_node2"><a xlink:title=" ">
<polygon fill="white" stroke="#666666" points="536,-206 267,-206 267,-165 536,-165 536,-206"/>
<text text-anchor="middle" x="401.5" y="-194" font-family="Helvetica,sans-Serif" font-size="10.00">{std::map&lt; Texture::ID, std::unique_ptr&lt; Sheet &gt; &gt;</text>
<text text-anchor="start" x="275" y="-183" font-family="Helvetica,sans-Serif" font-size="10.00">|+ Texture::ID keys</text>
<text text-anchor="middle" x="401.5" y="-172" font-family="Helvetica,sans-Serif" font-size="10.00">|}</text>
</a>
</g>
</g>
<!-- Node2&#45;&gt;Node1 -->
<g id="edge1" class="edge">
<title>Node2&#45;&gt;Node1</title>
<path fill="none" stroke="#404040" d="M401.5,-164.77C401.5,-155.41 401.5,-143.59 401.5,-131.28"/>
<polygon fill="none" stroke="#404040" points="401.5,-131.27 397.5,-125.27 401.5,-119.27 405.5,-125.27 401.5,-131.27"/>
<text text-anchor="middle" x="421.5" y="-139" font-family="Helvetica,sans-Serif" font-size="10.00"> &#45;sheets</text>
</g>
<!-- Node3 -->
<g id="node3" class="node">
<title>Node3</title>
<g id="a_node3"><a xlink:title=" ">
<polygon fill="white" stroke="#666666" points="414.5,-294 268.5,-294 268.5,-253 414.5,-253 414.5,-294"/>
<text text-anchor="middle" x="341.5" y="-282" font-family="Helvetica,sans-Serif" font-size="10.00">{std::unique_ptr&lt; Sheet &gt;</text>
<text text-anchor="start" x="276.5" y="-271" font-family="Helvetica,sans-Serif" font-size="10.00">||+ Sheet * operator&#45;&gt;()</text>
<text text-anchor="middle" x="341.5" y="-260" font-family="Helvetica,sans-Serif" font-size="10.00">}</text>
</a>
</g>
</g>
<!-- Node3&#45;&gt;Node2 -->
<g id="edge2" class="edge">
<title>Node3&#45;&gt;Node2</title>
<path fill="none" stroke="#404040" d="M355.42,-252.55C362.84,-241.92 372.12,-228.61 380.41,-216.73"/>
<polygon fill="none" stroke="#404040" points="380.28,-216.92 380.43,-209.71 387.14,-207.08 386.99,-214.29 380.28,-216.92"/>
<text text-anchor="middle" x="404.5" y="-227" font-family="Helvetica,sans-Serif" font-size="10.00"> +elements</text>
</g>
<!-- Node4 -->
<g id="node4" class="node">
<title>Node4</title>
<g id="a_node4"><a xlink:href="classSheet.html" target="_top" xlink:title=" ">
<polygon fill="white" stroke="#666666" points="261,-415 0,-415 0,-341 261,-341 261,-415"/>
<text text-anchor="middle" x="130.5" y="-403" font-family="Helvetica,sans-Serif" font-size="10.00">{Sheet</text>
<text text-anchor="start" x="8" y="-392" font-family="Helvetica,sans-Serif" font-size="10.00">||+ virtual unsigned int getCount() const =0</text>
<text text-anchor="start" x="8" y="-381" font-family="Helvetica,sans-Serif" font-size="10.00">+ virtual sf::Texture const &amp; getTexture() const =0</text>
<text text-anchor="start" x="8" y="-370" font-family="Helvetica,sans-Serif" font-size="10.00">+ virtual sf::Sprite getSprite(unsigned i) const =0</text>
<text text-anchor="start" x="8" y="-359" font-family="Helvetica,sans-Serif" font-size="10.00">+ virtual ~Sheet()=default</text>
<text text-anchor="middle" x="130.5" y="-348" font-family="Helvetica,sans-Serif" font-size="10.00">}</text>
</a>
</g>
</g>
<!-- Node4&#45;&gt;Node3 -->
<g id="edge3" class="edge">
<title>Node4&#45;&gt;Node3</title>
<path fill="none" stroke="#404040" d="M205.48,-340.57C233.09,-327.16 263.75,-312.27 288.97,-300.02"/>
<polygon fill="none" stroke="#404040" points="288.9,-300.05 292.54,-293.83 299.69,-294.81 296.04,-301.03 288.9,-300.05"/>
<text text-anchor="middle" x="274" y="-315" font-family="Helvetica,sans-Serif" font-size="10.00"> +ptr</text>
</g>
<!-- Node5 -->
<g id="node5" class="node">
<title>Node5</title>
<g id="a_node5"><a xlink:title=" ">
<polygon fill="white" stroke="#666666" points="403.5,-398.5 279.5,-398.5 279.5,-357.5 403.5,-357.5 403.5,-398.5"/>
<text text-anchor="middle" x="341.5" y="-386.5" font-family="Helvetica,sans-Serif" font-size="10.00">{std::unique_ptr&lt; T &gt;</text>
<text text-anchor="start" x="287.5" y="-375.5" font-family="Helvetica,sans-Serif" font-size="10.00">||+ T * operator&#45;&gt;()</text>
<text text-anchor="middle" x="341.5" y="-364.5" font-family="Helvetica,sans-Serif" font-size="10.00">}</text>
</a>
</g>
</g>
<!-- Node5&#45;&gt;Node3 -->
<g id="edge4" class="edge">
<title>Node5&#45;&gt;Node3</title>
<path fill="none" stroke="orange" d="M341.5,-345.75C341.5,-328.97 341.5,-308.79 341.5,-294.2"/>
<polygon fill="orange" stroke="orange" points="338,-345.72 341.5,-355.72 345,-345.72 338,-345.72"/>
<text text-anchor="middle" x="368.5" y="-315" font-family="Helvetica,sans-Serif" font-size="10.00"> &lt; Sheet &gt;</text>
</g>
<!-- Node6 -->
<g id="node6" class="node">
<title>Node6</title>
<g id="a_node6"><a xlink:title=" ">
<polygon fill="white" stroke="#666666" points="384,-492 355,-492 355,-462 384,-462 384,-492"/>
<text text-anchor="middle" x="369.5" y="-480" font-family="Helvetica,sans-Serif" font-size="10.00">{T</text>
<text text-anchor="middle" x="369.5" y="-469" font-family="Helvetica,sans-Serif" font-size="10.00">||}</text>
</a>
</g>
</g>
<!-- Node6&#45;&gt;Node5 -->
<g id="edge5" class="edge">
<title>Node6&#45;&gt;Node5</title>
<path fill="none" stroke="#404040" d="M356.66,-461.68C352.71,-456.46 348.8,-450.3 346.5,-444 342.83,-433.95 341.19,-422.45 340.58,-411.95"/>
<polygon fill="none" stroke="#404040" points="340.58,-411.82 336.44,-405.92 340.31,-399.83 344.44,-405.74 340.58,-411.82"/>
<text text-anchor="middle" x="359" y="-436" font-family="Helvetica,sans-Serif" font-size="10.00"> +ptr</text>
</g>
<!-- Node7 -->
<g id="node7" class="node">
<title>Node7</title>
<g id="a_node7"><a xlink:title=" ">
<polygon fill="white" stroke="#666666" points="529,-393 422,-393 422,-363 529,-363 529,-393"/>
<text text-anchor="middle" x="475.5" y="-381" font-family="Helvetica,sans-Serif" font-size="10.00">{std::map&lt; K, T &gt;</text>
<text text-anchor="middle" x="475.5" y="-370" font-family="Helvetica,sans-Serif" font-size="10.00">||}</text>
</a>
</g>
</g>
<!-- Node6&#45;&gt;Node7 -->
<g id="edge8" class="edge">
<title>Node6&#45;&gt;Node7</title>
<path fill="none" stroke="#404040" d="M383.57,-461.85C392.11,-453.36 403.3,-442.42 413.5,-433 424.79,-422.58 437.54,-411.38 448.53,-401.9"/>
<polygon fill="none" stroke="#404040" points="448.64,-401.81 450.59,-394.87 457.74,-394 455.79,-400.94 448.64,-401.81"/>
<text text-anchor="middle" x="442.5" y="-436" font-family="Helvetica,sans-Serif" font-size="10.00"> +elements</text>
</g>
<!-- Node7&#45;&gt;Node2 -->
<g id="edge6" class="edge">
<title>Node7&#45;&gt;Node2</title>
<path fill="none" stroke="orange" d="M473.21,-351.3C469.5,-319.65 460.15,-265.04 437.5,-224 434.01,-217.68 429.19,-211.65 424.2,-206.34"/>
<polygon fill="orange" stroke="orange" points="469.71,-351.52 474.25,-361.1 476.67,-350.79 469.71,-351.52"/>
<text text-anchor="middle" x="567.5" y="-271" font-family="Helvetica,sans-Serif" font-size="10.00"> &lt; Texture::ID, std::unique_ptr&lt; Sheet &gt; &gt;</text>
</g>
<!-- Node8 -->
<g id="node8" class="node">
<title>Node8</title>
<g id="a_node8"><a xlink:title=" ">
<polygon fill="white" stroke="#666666" points="490,-492 461,-492 461,-462 490,-462 490,-492"/>
<text text-anchor="middle" x="475.5" y="-480" font-family="Helvetica,sans-Serif" font-size="10.00">{K</text>
<text text-anchor="middle" x="475.5" y="-469" font-family="Helvetica,sans-Serif" font-size="10.00">||}</text>
</a>
</g>
</g>
<!-- Node8&#45;&gt;Node7 -->
<g id="edge7" class="edge">
<title>Node8&#45;&gt;Node7</title>
<path fill="none" stroke="#404040" d="M475.5,-461.69C475.5,-447.14 475.5,-424.26 475.5,-406.25"/>
<polygon fill="none" stroke="#404040" points="475.5,-406.27 471.5,-400.27 475.5,-394.27 479.5,-400.27 475.5,-406.27"/>
<text text-anchor="middle" x="492.5" y="-436" font-family="Helvetica,sans-Serif" font-size="10.00"> +keys</text>
</g>
</g>
</svg>
