<?xml version="1.0" encoding="UTF-8" standalone="no"?>
<!DOCTYPE svg PUBLIC "-//W3C//DTD SVG 1.1//EN"
 "http://www.w3.org/Graphics/SVG/1.1/DTD/svg11.dtd">
<!-- Generated by graphviz version 7.0.5 (0)
 -->
<!-- Title: PlayerState Pages: 1 -->
<svg width="819pt" height="342pt"
 viewBox="0.00 0.00 818.50 342.00" xmlns="http://www.w3.org/2000/svg" xmlns:xlink="http://www.w3.org/1999/xlink">
<g id="graph0" class="graph" transform="scale(1 1) rotate(0) translate(4 338)">
<title>PlayerState</title>
<!-- Node1 -->
<g id="node1" class="node">
<title>Node1</title>
<g id="a_node1"><a xlink:title=" ">
<polygon fill="#999999" stroke="#666666" points="352,-243.5 352,-333.5 452,-333.5 452,-243.5 352,-243.5"/>
<text text-anchor="middle" x="402" y="-321.5" font-family="Helvetica,sans-Serif" font-size="10.00">PlayerState</text>
<polyline fill="none" stroke="#666666" points="352,-314.5 452,-314.5"/>
<text text-anchor="start" x="360" y="-302.5" font-family="Helvetica,sans-Serif" font-size="10.00">+ player</text>
<polyline fill="none" stroke="#666666" points="352,-295.5 452,-295.5"/>
<text text-anchor="start" x="360" y="-283.5" font-family="Helvetica,sans-Serif" font-size="10.00">+ PlayerState()</text>
<text text-anchor="start" x="360" y="-272.5" font-family="Helvetica,sans-Serif" font-size="10.00">+ ~PlayerState()</text>
<text text-anchor="start" x="360" y="-261.5" font-family="Helvetica,sans-Serif" font-size="10.00">+ update()</text>
<text text-anchor="start" x="360" y="-250.5" font-family="Helvetica,sans-Serif" font-size="10.00">+ getStateID()</text>
</a>
</g>
</g>
<!-- Node2 -->
<g id="node2" class="node">
<title>Node2</title>
<g id="a_node2"><a xlink:href="classCollidingState.html" target="_top" xlink:title=" ">
<polygon fill="white" stroke="#bfbfbf" points="18,-105.5 18,-206.5 128,-206.5 128,-105.5 18,-105.5"/>
<text text-anchor="middle" x="73" y="-194.5" font-family="Helvetica,sans-Serif" font-size="10.00">CollidingState</text>
<polyline fill="none" stroke="#bfbfbf" points="18,-187.5 128,-187.5"/>
<text text-anchor="start" x="26" y="-175.5" font-family="Helvetica,sans-Serif" font-size="10.00"># collisionTime</text>
<text text-anchor="start" x="26" y="-164.5" font-family="Helvetica,sans-Serif" font-size="10.00"># collisionPos</text>
<text text-anchor="start" x="26" y="-153.5" font-family="Helvetica,sans-Serif" font-size="10.00"># collisionDuration</text>
<polyline fill="none" stroke="#bfbfbf" points="18,-146.5 128,-146.5"/>
<text text-anchor="start" x="26" y="-134.5" font-family="Helvetica,sans-Serif" font-size="10.00">+ CollidingState()</text>
<text text-anchor="start" x="26" y="-123.5" font-family="Helvetica,sans-Serif" font-size="10.00">+ update()</text>
<text text-anchor="start" x="26" y="-112.5" font-family="Helvetica,sans-Serif" font-size="10.00">+ getStateID()</text>
</a>
</g>
</g>
<!-- Node1&#45;&gt;Node2 -->
<g id="edge1" class="edge">
<title>Node1&#45;&gt;Node2</title>
<path fill="none" stroke="#63b8ff" d="M341.3,-275.53C286.2,-263.17 203.75,-240.88 138,-207 134.58,-205.24 131.16,-203.29 127.78,-201.22"/>
<polygon fill="none" stroke="#63b8ff" points="340.29,-278.89 350.8,-277.62 341.79,-272.06 340.29,-278.89"/>
</g>
<!-- Node4 -->
<g id="node4" class="node">
<title>Node4</title>
<g id="a_node4"><a xlink:href="classDeadState.html" target="_top" xlink:title=" ">
<polygon fill="white" stroke="#bfbfbf" points="146.5,-116.5 146.5,-195.5 233.5,-195.5 233.5,-116.5 146.5,-116.5"/>
<text text-anchor="middle" x="190" y="-183.5" font-family="Helvetica,sans-Serif" font-size="10.00">DeadState</text>
<polyline fill="none" stroke="#bfbfbf" points="146.5,-176.5 233.5,-176.5"/>
<text text-anchor="middle" x="190" y="-164.5" font-family="Helvetica,sans-Serif" font-size="10.00"> </text>
<polyline fill="none" stroke="#bfbfbf" points="146.5,-157.5 233.5,-157.5"/>
<text text-anchor="start" x="154.5" y="-145.5" font-family="Helvetica,sans-Serif" font-size="10.00">+ DeadState()</text>
<text text-anchor="start" x="154.5" y="-134.5" font-family="Helvetica,sans-Serif" font-size="10.00">+ update()</text>
<text text-anchor="start" x="154.5" y="-123.5" font-family="Helvetica,sans-Serif" font-size="10.00">+ getStateID()</text>
</a>
</g>
</g>
<!-- Node1&#45;&gt;Node4 -->
<g id="edge3" class="edge">
<title>Node1&#45;&gt;Node4</title>
<path fill="none" stroke="#63b8ff" d="M342.1,-262.17C311.28,-247.92 273.82,-228.65 243,-207 238.03,-203.51 233.06,-199.57 228.27,-195.47"/>
<polygon fill="none" stroke="#63b8ff" points="340.35,-265.22 350.9,-266.18 343.25,-258.85 340.35,-265.22"/>
</g>
<!-- Node5 -->
<g id="node5" class="node">
<title>Node5</title>
<g id="a_node5"><a xlink:href="classDyingState.html" target="_top" xlink:title=" ">
<polygon fill="white" stroke="#bfbfbf" points="251.5,-116.5 251.5,-195.5 340.5,-195.5 340.5,-116.5 251.5,-116.5"/>
<text text-anchor="middle" x="296" y="-183.5" font-family="Helvetica,sans-Serif" font-size="10.00">DyingState</text>
<polyline fill="none" stroke="#bfbfbf" points="251.5,-176.5 340.5,-176.5"/>
<text text-anchor="middle" x="296" y="-164.5" font-family="Helvetica,sans-Serif" font-size="10.00"> </text>
<polyline fill="none" stroke="#bfbfbf" points="251.5,-157.5 340.5,-157.5"/>
<text text-anchor="start" x="259.5" y="-145.5" font-family="Helvetica,sans-Serif" font-size="10.00">+ DyingState()</text>
<text text-anchor="start" x="259.5" y="-134.5" font-family="Helvetica,sans-Serif" font-size="10.00">+ update()</text>
<text text-anchor="start" x="259.5" y="-123.5" font-family="Helvetica,sans-Serif" font-size="10.00">+ getStateID()</text>
</a>
</g>
</g>
<!-- Node1&#45;&gt;Node5 -->
<g id="edge4" class="edge">
<title>Node1&#45;&gt;Node5</title>
<path fill="none" stroke="#63b8ff" d="M359.41,-235.06C348.59,-221.75 337.18,-207.7 327.06,-195.24"/>
<polygon fill="none" stroke="#63b8ff" points="356.43,-236.95 365.45,-242.51 361.87,-232.54 356.43,-236.95"/>
</g>
<!-- Node6 -->
<g id="node6" class="node">
<title>Node6</title>
<g id="a_node6"><a xlink:href="classIdleState.html" target="_top" xlink:title=" ">
<polygon fill="white" stroke="#bfbfbf" points="358.5,-116.5 358.5,-195.5 445.5,-195.5 445.5,-116.5 358.5,-116.5"/>
<text text-anchor="middle" x="402" y="-183.5" font-family="Helvetica,sans-Serif" font-size="10.00">IdleState</text>
<polyline fill="none" stroke="#bfbfbf" points="358.5,-176.5 445.5,-176.5"/>
<text text-anchor="middle" x="402" y="-164.5" font-family="Helvetica,sans-Serif" font-size="10.00"> </text>
<polyline fill="none" stroke="#bfbfbf" points="358.5,-157.5 445.5,-157.5"/>
<text text-anchor="start" x="366.5" y="-145.5" font-family="Helvetica,sans-Serif" font-size="10.00">+ IdleState()</text>
<text text-anchor="start" x="366.5" y="-134.5" font-family="Helvetica,sans-Serif" font-size="10.00">+ update()</text>
<text text-anchor="start" x="366.5" y="-123.5" font-family="Helvetica,sans-Serif" font-size="10.00">+ getStateID()</text>
</a>
</g>
</g>
<!-- Node1&#45;&gt;Node6 -->
<g id="edge5" class="edge">
<title>Node1&#45;&gt;Node6</title>
<path fill="none" stroke="#63b8ff" d="M402,-232.39C402,-219.88 402,-206.87 402,-195.24"/>
<polygon fill="none" stroke="#63b8ff" points="398.5,-232.17 402,-242.17 405.5,-232.17 398.5,-232.17"/>
</g>
<!-- Node7 -->
<g id="node7" class="node">
<title>Node7</title>
<g id="a_node7"><a xlink:href="classInvincibleState.html" target="_top" xlink:title=" ">
<polygon fill="white" stroke="#bfbfbf" points="464,-116.5 464,-195.5 572,-195.5 572,-116.5 464,-116.5"/>
<text text-anchor="middle" x="518" y="-183.5" font-family="Helvetica,sans-Serif" font-size="10.00">InvincibleState</text>
<polyline fill="none" stroke="#bfbfbf" points="464,-176.5 572,-176.5"/>
<text text-anchor="middle" x="518" y="-164.5" font-family="Helvetica,sans-Serif" font-size="10.00"> </text>
<polyline fill="none" stroke="#bfbfbf" points="464,-157.5 572,-157.5"/>
<text text-anchor="start" x="472" y="-145.5" font-family="Helvetica,sans-Serif" font-size="10.00">+ InvincibleState()</text>
<text text-anchor="start" x="472" y="-134.5" font-family="Helvetica,sans-Serif" font-size="10.00">+ update()</text>
<text text-anchor="start" x="472" y="-123.5" font-family="Helvetica,sans-Serif" font-size="10.00">+ getStateID()</text>
</a>
</g>
</g>
<!-- Node1&#45;&gt;Node7 -->
<g id="edge6" class="edge">
<title>Node1&#45;&gt;Node7</title>
<path fill="none" stroke="#63b8ff" d="M448.27,-235.44C460.21,-222.02 472.83,-207.81 484.01,-195.24"/>
<polygon fill="none" stroke="#63b8ff" points="445.98,-232.75 441.95,-242.55 451.21,-237.4 445.98,-232.75"/>
</g>
<!-- Node8 -->
<g id="node8" class="node">
<title>Node8</title>
<g id="a_node8"><a xlink:href="classJumpingState.html" target="_top" xlink:title=" ">
<polygon fill="white" stroke="#bfbfbf" points="590.5,-111 590.5,-201 691.5,-201 691.5,-111 590.5,-111"/>
<text text-anchor="middle" x="641" y="-189" font-family="Helvetica,sans-Serif" font-size="10.00">JumpingState</text>
<polyline fill="none" stroke="#bfbfbf" points="590.5,-182 691.5,-182"/>
<text text-anchor="middle" x="641" y="-170" font-family="Helvetica,sans-Serif" font-size="10.00"> </text>
<polyline fill="none" stroke="#bfbfbf" points="590.5,-163 691.5,-163"/>
<text text-anchor="start" x="598.5" y="-151" font-family="Helvetica,sans-Serif" font-size="10.00">+ JumpingState()</text>
<text text-anchor="start" x="598.5" y="-140" font-family="Helvetica,sans-Serif" font-size="10.00">+ isJumping()</text>
<text text-anchor="start" x="598.5" y="-129" font-family="Helvetica,sans-Serif" font-size="10.00">+ update()</text>
<text text-anchor="start" x="598.5" y="-118" font-family="Helvetica,sans-Serif" font-size="10.00">+ getStateID()</text>
</a>
</g>
</g>
<!-- Node1&#45;&gt;Node8 -->
<g id="edge7" class="edge">
<title>Node1&#45;&gt;Node8</title>
<path fill="none" stroke="#63b8ff" d="M461.98,-265.31C497.76,-250.92 543.39,-230.51 581,-207 584.22,-204.99 587.45,-202.82 590.66,-200.55"/>
<polygon fill="none" stroke="#63b8ff" points="461.1,-261.89 453.1,-268.83 463.68,-268.4 461.1,-261.89"/>
</g>
<!-- Node9 -->
<g id="node9" class="node">
<title>Node9</title>
<g id="a_node9"><a xlink:href="classStunnedState.html" target="_top" xlink:title=" ">
<polygon fill="white" stroke="#bfbfbf" points="709.5,-116.5 709.5,-195.5 810.5,-195.5 810.5,-116.5 709.5,-116.5"/>
<text text-anchor="middle" x="760" y="-183.5" font-family="Helvetica,sans-Serif" font-size="10.00">StunnedState</text>
<polyline fill="none" stroke="#bfbfbf" points="709.5,-176.5 810.5,-176.5"/>
<text text-anchor="middle" x="760" y="-164.5" font-family="Helvetica,sans-Serif" font-size="10.00"> </text>
<polyline fill="none" stroke="#bfbfbf" points="709.5,-157.5 810.5,-157.5"/>
<text text-anchor="start" x="717.5" y="-145.5" font-family="Helvetica,sans-Serif" font-size="10.00">+ StunnedState()</text>
<text text-anchor="start" x="717.5" y="-134.5" font-family="Helvetica,sans-Serif" font-size="10.00">+ update()</text>
<text text-anchor="start" x="717.5" y="-123.5" font-family="Helvetica,sans-Serif" font-size="10.00">+ getStateID()</text>
</a>
</g>
</g>
<!-- Node1&#45;&gt;Node9 -->
<g id="edge8" class="edge">
<title>Node1&#45;&gt;Node9</title>
<path fill="none" stroke="#63b8ff" d="M463.05,-279.12C525.59,-268.73 624.25,-247.25 701,-207 707.18,-203.76 713.29,-199.77 719.09,-195.47"/>
<polygon fill="none" stroke="#63b8ff" points="462.62,-275.64 453.3,-280.69 463.73,-282.55 462.62,-275.64"/>
</g>
<!-- Node3 -->
<g id="node3" class="node">
<title>Node3</title>
<g id="a_node3"><a xlink:href="classObstacleCollidingState.html" target="_top" xlink:title=" ">
<polygon fill="white" stroke="#bfbfbf" points="0,-0.5 0,-68.5 146,-68.5 146,-0.5 0,-0.5"/>
<text text-anchor="middle" x="73" y="-56.5" font-family="Helvetica,sans-Serif" font-size="10.00">ObstacleCollidingState</text>
<polyline fill="none" stroke="#bfbfbf" points="0,-49.5 146,-49.5"/>
<text text-anchor="middle" x="73" y="-37.5" font-family="Helvetica,sans-Serif" font-size="10.00"> </text>
<polyline fill="none" stroke="#bfbfbf" points="0,-30.5 146,-30.5"/>
<text text-anchor="start" x="8" y="-18.5" font-family="Helvetica,sans-Serif" font-size="10.00">+ ObstacleCollidingState()</text>
<text text-anchor="start" x="8" y="-7.5" font-family="Helvetica,sans-Serif" font-size="10.00">+ update()</text>
</a>
</g>
</g>
<!-- Node2&#45;&gt;Node3 -->
<g id="edge2" class="edge">
<title>Node2&#45;&gt;Node3</title>
<path fill="none" stroke="#63b8ff" d="M73,-94.37C73,-85.39 73,-76.43 73,-68.32"/>
<polygon fill="none" stroke="#63b8ff" points="69.5,-94.19 73,-104.19 76.5,-94.19 69.5,-94.19"/>
</g>
</g>
</svg>
