<?xml version="1.0" encoding="UTF-8" standalone="no"?>
<!DOCTYPE svg PUBLIC "-//W3C//DTD SVG 1.1//EN"
 "http://www.w3.org/Graphics/SVG/1.1/DTD/svg11.dtd">
<!-- Generated by graphviz version 7.0.5 (0)
 -->
<!-- Title: Game Pages: 1 -->
<svg width="828pt" height="610pt"
 viewBox="0.00 0.00 827.50 610.00" xmlns="http://www.w3.org/2000/svg" xmlns:xlink="http://www.w3.org/1999/xlink">
<g id="graph0" class="graph" transform="scale(1 1) rotate(0) translate(4 606)">
<title>Game</title>
<!-- Node1 -->
<g id="node1" class="node">
<title>Node1</title>
<g id="a_node1"><a xlink:title=" ">
<polygon fill="#999999" stroke="#666666" points="783.5,-349 587.5,-349 587.5,0 783.5,0 783.5,-349"/>
<text text-anchor="middle" x="685.5" y="-337" font-family="Helvetica,sans-Serif" font-size="10.00">{Game</text>
<text text-anchor="start" x="595.5" y="-326" font-family="Helvetica,sans-Serif" font-size="10.00">|&#45; sf::RenderWindow * window</text>
<text text-anchor="start" x="595.5" y="-315" font-family="Helvetica,sans-Serif" font-size="10.00">&#45; sf::VideoMode videoMode</text>
<text text-anchor="start" x="595.5" y="-304" font-family="Helvetica,sans-Serif" font-size="10.00">&#45; sf::Event ev</text>
<text text-anchor="start" x="595.5" y="-293" font-family="Helvetica,sans-Serif" font-size="10.00">&#45; sf::ContextSettings windowSettings</text>
<text text-anchor="start" x="595.5" y="-282" font-family="Helvetica,sans-Serif" font-size="10.00">&#45; bool fullscreen</text>
<text text-anchor="start" x="595.5" y="-271" font-family="Helvetica,sans-Serif" font-size="10.00">&#45; sf::Clock dtClock</text>
<text text-anchor="start" x="595.5" y="-260" font-family="Helvetica,sans-Serif" font-size="10.00">&#45; float dt</text>
<text text-anchor="start" x="595.5" y="-249" font-family="Helvetica,sans-Serif" font-size="10.00">|+ &#160;Game()</text>
<text text-anchor="start" x="595.5" y="-238" font-family="Helvetica,sans-Serif" font-size="10.00">+ virtual ~Game()</text>
<text text-anchor="start" x="595.5" y="-227" font-family="Helvetica,sans-Serif" font-size="10.00">+ bool running() const</text>
<text text-anchor="start" x="595.5" y="-216" font-family="Helvetica,sans-Serif" font-size="10.00">+ void endApplication()</text>
<text text-anchor="start" x="595.5" y="-205" font-family="Helvetica,sans-Serif" font-size="10.00">+ void updateSFMLEvents()</text>
<text text-anchor="start" x="595.5" y="-194" font-family="Helvetica,sans-Serif" font-size="10.00">+ void update()</text>
<text text-anchor="start" x="595.5" y="-183" font-family="Helvetica,sans-Serif" font-size="10.00">+ void render()</text>
<text text-anchor="start" x="595.5" y="-172" font-family="Helvetica,sans-Serif" font-size="10.00">+ void run()</text>
<text text-anchor="start" x="595.5" y="-161" font-family="Helvetica,sans-Serif" font-size="10.00">+ void closeWindow()</text>
<text text-anchor="start" x="595.5" y="-150" font-family="Helvetica,sans-Serif" font-size="10.00">+ void keyReleasedProc()</text>
<text text-anchor="start" x="595.5" y="-139" font-family="Helvetica,sans-Serif" font-size="10.00">+ void mouseProc()</text>
<text text-anchor="start" x="595.5" y="-128" font-family="Helvetica,sans-Serif" font-size="10.00">&#45; void initVariables()</text>
<text text-anchor="start" x="595.5" y="-117" font-family="Helvetica,sans-Serif" font-size="10.00">&#45; void initWindow()</text>
<text text-anchor="start" x="595.5" y="-106" font-family="Helvetica,sans-Serif" font-size="10.00">&#45; void initState()</text>
<text text-anchor="start" x="595.5" y="-95" font-family="Helvetica,sans-Serif" font-size="10.00">&#45; void initMusic()</text>
<text text-anchor="start" x="595.5" y="-84" font-family="Helvetica,sans-Serif" font-size="10.00">&#45; void initKeys()</text>
<text text-anchor="start" x="595.5" y="-73" font-family="Helvetica,sans-Serif" font-size="10.00">&#45; void initMainCharacterTextures()</text>
<text text-anchor="start" x="595.5" y="-62" font-family="Helvetica,sans-Serif" font-size="10.00">&#45; void initTrafficLightTextures()</text>
<text text-anchor="start" x="595.5" y="-51" font-family="Helvetica,sans-Serif" font-size="10.00">&#45; void initLaneTextures()</text>
<text text-anchor="start" x="595.5" y="-40" font-family="Helvetica,sans-Serif" font-size="10.00">&#45; void initTextures()</text>
<text text-anchor="start" x="595.5" y="-29" font-family="Helvetica,sans-Serif" font-size="10.00">&#45; void updateEvents()</text>
<text text-anchor="start" x="595.5" y="-18" font-family="Helvetica,sans-Serif" font-size="10.00">&#45; void updateDt()</text>
<text text-anchor="middle" x="685.5" y="-7" font-family="Helvetica,sans-Serif" font-size="10.00">}</text>
</a>
</g>
</g>
<!-- Node2 -->
<g id="node2" class="node">
<title>Node2</title>
<g id="a_node2"><a xlink:title=" ">
<polygon fill="white" stroke="#666666" points="819.5,-448 653.5,-448 653.5,-407 819.5,-407 819.5,-448"/>
<text text-anchor="middle" x="736.5" y="-436" font-family="Helvetica,sans-Serif" font-size="10.00">{std::vector&lt; sf::VideoMode &gt;</text>
<text text-anchor="start" x="661.5" y="-425" font-family="Helvetica,sans-Serif" font-size="10.00">|+ sf::VideoMode elements</text>
<text text-anchor="middle" x="736.5" y="-414" font-family="Helvetica,sans-Serif" font-size="10.00">|}</text>
</a>
</g>
</g>
<!-- Node2&#45;&gt;Node1 -->
<g id="edge1" class="edge">
<title>Node2&#45;&gt;Node1</title>
<path fill="none" stroke="#404040" d="M732.5,-406.8C730.18,-395.4 727.01,-379.79 723.4,-362.02"/>
<polygon fill="none" stroke="#404040" points="723.4,-362.05 718.29,-356.97 721.01,-350.29 726.13,-355.37 723.4,-362.05"/>
<text text-anchor="middle" x="760.5" y="-375.5" font-family="Helvetica,sans-Serif" font-size="10.00"> &#45;videoModes</text>
</g>
<!-- Node3 -->
<g id="node3" class="node">
<title>Node3</title>
<g id="a_node3"><a xlink:title=" ">
<polygon fill="white" stroke="#666666" points="648,-525 545,-525 545,-495 648,-495 648,-525"/>
<text text-anchor="middle" x="596.5" y="-513" font-family="Helvetica,sans-Serif" font-size="10.00">{std::vector&lt; T &gt;</text>
<text text-anchor="middle" x="596.5" y="-502" font-family="Helvetica,sans-Serif" font-size="10.00">||}</text>
</a>
</g>
</g>
<!-- Node3&#45;&gt;Node2 -->
<g id="edge2" class="edge">
<title>Node3&#45;&gt;Node2</title>
<path fill="none" stroke="orange" d="M631.27,-489.01C652.84,-476.61 680.44,-460.74 701.96,-448.36"/>
<polygon fill="orange" stroke="orange" points="629.77,-485.83 622.84,-493.85 633.26,-491.9 629.77,-485.83"/>
<text text-anchor="middle" x="718" y="-469" font-family="Helvetica,sans-Serif" font-size="10.00"> &lt; sf::VideoMode &gt;</text>
</g>
<!-- Node10 -->
<g id="node10" class="node">
<title>Node10</title>
<g id="a_node10"><a xlink:title=" ">
<polygon fill="white" stroke="#666666" points="635,-442.5 504,-442.5 504,-412.5 635,-412.5 635,-442.5"/>
<text text-anchor="middle" x="569.5" y="-430.5" font-family="Helvetica,sans-Serif" font-size="10.00">{std::vector&lt; State * &gt;</text>
<text text-anchor="middle" x="569.5" y="-419.5" font-family="Helvetica,sans-Serif" font-size="10.00">||}</text>
</a>
</g>
</g>
<!-- Node3&#45;&gt;Node10 -->
<g id="edge17" class="edge">
<title>Node3&#45;&gt;Node10</title>
<path fill="none" stroke="orange" d="M588.12,-484.02C583.57,-470.46 578.11,-454.18 574.29,-442.77"/>
<polygon fill="orange" stroke="orange" points="584.69,-484.81 591.19,-493.17 591.33,-482.58 584.69,-484.81"/>
<text text-anchor="middle" x="614.5" y="-469" font-family="Helvetica,sans-Serif" font-size="10.00"> &lt; State * &gt;</text>
</g>
<!-- Node4 -->
<g id="node4" class="node">
<title>Node4</title>
<g id="a_node4"><a xlink:title=" ">
<polygon fill="white" stroke="#666666" points="570,-602 541,-602 541,-572 570,-572 570,-602"/>
<text text-anchor="middle" x="555.5" y="-590" font-family="Helvetica,sans-Serif" font-size="10.00">{T</text>
<text text-anchor="middle" x="555.5" y="-579" font-family="Helvetica,sans-Serif" font-size="10.00">||}</text>
</a>
</g>
</g>
<!-- Node4&#45;&gt;Node3 -->
<g id="edge3" class="edge">
<title>Node4&#45;&gt;Node3</title>
<path fill="none" stroke="#404040" d="M564.21,-571.77C567.51,-566.27 571.25,-559.88 574.5,-554 577.5,-548.57 580.6,-542.68 583.5,-537.06"/>
<polygon fill="none" stroke="#404040" points="583.55,-536.96 582.7,-529.8 588.98,-526.26 589.83,-533.42 583.55,-536.96"/>
<text text-anchor="middle" x="608.5" y="-546" font-family="Helvetica,sans-Serif" font-size="10.00"> +elements</text>
</g>
<!-- Node8 -->
<g id="node8" class="node">
<title>Node8</title>
<g id="a_node8"><a xlink:title=" ">
<polygon fill="white" stroke="#666666" points="520,-525 413,-525 413,-495 520,-495 520,-525"/>
<text text-anchor="middle" x="466.5" y="-513" font-family="Helvetica,sans-Serif" font-size="10.00">{std::map&lt; K, T &gt;</text>
<text text-anchor="middle" x="466.5" y="-502" font-family="Helvetica,sans-Serif" font-size="10.00">||}</text>
</a>
</g>
</g>
<!-- Node4&#45;&gt;Node8 -->
<g id="edge9" class="edge">
<title>Node4&#45;&gt;Node8</title>
<path fill="none" stroke="#404040" d="M540.86,-575.73C532.39,-569.63 521.64,-561.63 512.5,-554 505,-547.74 497.13,-540.61 490.06,-533.98"/>
<polygon fill="none" stroke="#404040" points="490.38,-534.27 483.27,-533.03 481.69,-526 488.79,-527.24 490.38,-534.27"/>
<text text-anchor="middle" x="541.5" y="-546" font-family="Helvetica,sans-Serif" font-size="10.00"> +elements</text>
</g>
<!-- Node5 -->
<g id="node5" class="node">
<title>Node5</title>
<g id="a_node5"><a xlink:title=" ">
<polygon fill="white" stroke="#666666" points="485,-448 330,-448 330,-407 485,-407 485,-448"/>
<text text-anchor="middle" x="407.5" y="-436" font-family="Helvetica,sans-Serif" font-size="10.00">{std::map&lt; std::string, int &gt;</text>
<text text-anchor="start" x="338" y="-425" font-family="Helvetica,sans-Serif" font-size="10.00">|+ int elements</text>
<text text-anchor="middle" x="407.5" y="-414" font-family="Helvetica,sans-Serif" font-size="10.00">|}</text>
</a>
</g>
</g>
<!-- Node5&#45;&gt;Node1 -->
<g id="edge4" class="edge">
<title>Node5&#45;&gt;Node1</title>
<path fill="none" stroke="#404040" d="M428.71,-406.69C434.79,-400.99 441.42,-394.76 447.5,-389 457.77,-379.27 457.85,-373.33 470.5,-367 510.61,-346.92 534.23,-371.63 576.06,-349.46"/>
<polygon fill="none" stroke="#404040" points="576.08,-349.45 579.14,-342.92 586.34,-343.23 583.29,-349.76 576.08,-349.45"/>
<text text-anchor="middle" x="510" y="-375.5" font-family="Helvetica,sans-Serif" font-size="10.00"> &#45;supportedKeys</text>
</g>
<!-- Node11 -->
<g id="node11" class="node">
<title>Node11</title>
<g id="a_node11"><a xlink:href="classState.html" target="_top" xlink:title=" ">
<polygon fill="white" stroke="#666666" points="569,-288.5 0,-288.5 0,-60.5 569,-60.5 569,-288.5"/>
<text text-anchor="middle" x="284.5" y="-276.5" font-family="Helvetica,sans-Serif" font-size="10.00">{State</text>
<text text-anchor="start" x="8" y="-265.5" font-family="Helvetica,sans-Serif" font-size="10.00">|+ sf::Event ev</text>
<text text-anchor="start" x="8" y="-254.5" font-family="Helvetica,sans-Serif" font-size="10.00"># sf::RenderWindow * window</text>
<text text-anchor="start" x="8" y="-243.5" font-family="Helvetica,sans-Serif" font-size="10.00"># bool quit</text>
<text text-anchor="start" x="8" y="-232.5" font-family="Helvetica,sans-Serif" font-size="10.00"># tgui::Gui * gui</text>
<text text-anchor="start" x="8" y="-221.5" font-family="Helvetica,sans-Serif" font-size="10.00"># sf::Vector2i mousePosScreen</text>
<text text-anchor="start" x="8" y="-210.5" font-family="Helvetica,sans-Serif" font-size="10.00"># sf::Vector2i mousePosWindow</text>
<text text-anchor="start" x="8" y="-199.5" font-family="Helvetica,sans-Serif" font-size="10.00"># sf::Vector2f mousePosView</text>
<text text-anchor="start" x="8" y="-188.5" font-family="Helvetica,sans-Serif" font-size="10.00">|+ &#160;State(sf::RenderWindow *window, std::vector&lt; State * &gt; *states)</text>
<text text-anchor="start" x="8" y="-177.5" font-family="Helvetica,sans-Serif" font-size="10.00">+ &#160;State(sf::RenderWindow *window, std::map&lt; std::string, int &gt; *supportedKeys, std::vector&lt; State * &gt; *states)</text>
<text text-anchor="start" x="8" y="-166.5" font-family="Helvetica,sans-Serif" font-size="10.00">+ virtual ~State()</text>
<text text-anchor="start" x="8" y="-155.5" font-family="Helvetica,sans-Serif" font-size="10.00">+ const bool &amp; getQuit() const</text>
<text text-anchor="start" x="8" y="-144.5" font-family="Helvetica,sans-Serif" font-size="10.00">+ void endState()</text>
<text text-anchor="start" x="8" y="-133.5" font-family="Helvetica,sans-Serif" font-size="10.00">+ virtual void updateMousePos()</text>
<text text-anchor="start" x="8" y="-122.5" font-family="Helvetica,sans-Serif" font-size="10.00">+ virtual void updateInput(const float &amp;dt)=0</text>
<text text-anchor="start" x="8" y="-111.5" font-family="Helvetica,sans-Serif" font-size="10.00">+ virtual void updateEvents()=0</text>
<text text-anchor="start" x="8" y="-100.5" font-family="Helvetica,sans-Serif" font-size="10.00">+ virtual void update(const float &amp;dt)=0</text>
<text text-anchor="start" x="8" y="-89.5" font-family="Helvetica,sans-Serif" font-size="10.00">+ virtual void render(sf::RenderTarget *target=nullptr)=0</text>
<text text-anchor="start" x="8" y="-78.5" font-family="Helvetica,sans-Serif" font-size="10.00"># virtual void initKeyBinds()</text>
<text text-anchor="middle" x="284.5" y="-67.5" font-family="Helvetica,sans-Serif" font-size="10.00">}</text>
</a>
</g>
</g>
<!-- Node5&#45;&gt;Node11 -->
<g id="edge13" class="edge">
<title>Node5&#45;&gt;Node11</title>
<path fill="none" stroke="#404040" d="M330.15,-406.55C307.95,-400.08 288.79,-393.43 285.5,-389 267,-364.09 260.5,-332.63 260.12,-301.59"/>
<polygon fill="none" stroke="#404040" points="260.11,-301.69 256.2,-295.64 260.28,-289.7 264.2,-295.75 260.11,-301.69"/>
<text text-anchor="middle" x="326" y="-381" font-family="Helvetica,sans-Serif" font-size="10.00"> #keybinds</text>
<text text-anchor="middle" x="326" y="-370" font-family="Helvetica,sans-Serif" font-size="10.00">#supportedKeys</text>
</g>
<!-- Node6 -->
<g id="node6" class="node">
<title>Node6</title>
<g id="a_node6"><a xlink:title=" ">
<polygon fill="white" stroke="#666666" points="259,-525 188,-525 188,-495 259,-495 259,-525"/>
<text text-anchor="middle" x="223.5" y="-513" font-family="Helvetica,sans-Serif" font-size="10.00">{std::string</text>
<text text-anchor="middle" x="223.5" y="-502" font-family="Helvetica,sans-Serif" font-size="10.00">||}</text>
</a>
</g>
</g>
<!-- Node6&#45;&gt;Node5 -->
<g id="edge5" class="edge">
<title>Node6&#45;&gt;Node5</title>
<path fill="none" stroke="#404040" d="M229.8,-494.53C234.67,-485.03 242.3,-473.09 252.5,-466 255.64,-463.82 284.89,-456.55 317.16,-448.98"/>
<polygon fill="none" stroke="#404040" points="317.06,-449 321.99,-443.74 328.74,-446.28 323.81,-451.53 317.06,-449"/>
<text text-anchor="middle" x="269.5" y="-469" font-family="Helvetica,sans-Serif" font-size="10.00"> +keys</text>
</g>
<!-- Node12 -->
<g id="node12" class="node">
<title>Node12</title>
<g id="a_node12"><a xlink:title=" ">
<polygon fill="white" stroke="#666666" points="310,-448 109,-448 109,-407 310,-407 310,-448"/>
<text text-anchor="middle" x="209.5" y="-436" font-family="Helvetica,sans-Serif" font-size="10.00">{std::map&lt; std::string, sf::Texture * &gt;</text>
<text text-anchor="start" x="117" y="-425" font-family="Helvetica,sans-Serif" font-size="10.00">|+ sf::Texture * elements</text>
<text text-anchor="middle" x="209.5" y="-414" font-family="Helvetica,sans-Serif" font-size="10.00">|}</text>
</a>
</g>
</g>
<!-- Node6&#45;&gt;Node12 -->
<g id="edge15" class="edge">
<title>Node6&#45;&gt;Node12</title>
<path fill="none" stroke="#404040" d="M206.99,-494.58C202.36,-489.54 197.94,-483.5 195.5,-477 193.52,-471.74 193.42,-466.07 194.36,-460.53"/>
<polygon fill="none" stroke="#404040" points="194.39,-460.43 192.29,-453.53 197.85,-448.94 199.95,-455.84 194.39,-460.43"/>
<text text-anchor="middle" x="212.5" y="-469" font-family="Helvetica,sans-Serif" font-size="10.00"> +keys</text>
</g>
<!-- Node7 -->
<g id="node7" class="node">
<title>Node7</title>
<g id="a_node7"><a xlink:title=" ">
<polygon fill="white" stroke="#666666" points="297,-602 150,-602 150,-572 297,-572 297,-602"/>
<text text-anchor="middle" x="223.5" y="-590" font-family="Helvetica,sans-Serif" font-size="10.00">{std::basic_string&lt; Char &gt;</text>
<text text-anchor="middle" x="223.5" y="-579" font-family="Helvetica,sans-Serif" font-size="10.00">||}</text>
</a>
</g>
</g>
<!-- Node7&#45;&gt;Node6 -->
<g id="edge6" class="edge">
<title>Node7&#45;&gt;Node6</title>
<path fill="none" stroke="#63b8ff" d="M223.5,-560.23C223.5,-548.58 223.5,-535.26 223.5,-525.42"/>
<polygon fill="none" stroke="#63b8ff" points="220,-560.03 223.5,-570.03 227,-560.03 220,-560.03"/>
</g>
<!-- Node8&#45;&gt;Node5 -->
<g id="edge7" class="edge">
<title>Node8&#45;&gt;Node5</title>
<path fill="none" stroke="orange" d="M458.2,-484.04C455.58,-477.87 452.34,-471.46 448.5,-466 444.06,-459.69 438.39,-453.66 432.69,-448.35"/>
<polygon fill="orange" stroke="orange" points="454.87,-485.15 461.71,-493.24 461.41,-482.65 454.87,-485.15"/>
<text text-anchor="middle" x="501.5" y="-469" font-family="Helvetica,sans-Serif" font-size="10.00"> &lt; std::string, int &gt;</text>
</g>
<!-- Node8&#45;&gt;Node12 -->
<g id="edge16" class="edge">
<title>Node8&#45;&gt;Node12</title>
<path fill="none" stroke="orange" d="M401.55,-501.07C371.66,-496.17 336.12,-488.54 305.5,-477 296.37,-473.56 295.11,-470.58 286.5,-466 275.34,-460.06 263.11,-453.93 251.74,-448.4"/>
<polygon fill="orange" stroke="orange" points="400.79,-504.49 411.22,-502.58 401.88,-497.58 400.79,-504.49"/>
<text text-anchor="middle" x="375" y="-469" font-family="Helvetica,sans-Serif" font-size="10.00"> &lt; std::string, sf::Texture * &gt;</text>
</g>
<!-- Node9 -->
<g id="node9" class="node">
<title>Node9</title>
<g id="a_node9"><a xlink:title=" ">
<polygon fill="white" stroke="#666666" points="473,-602 444,-602 444,-572 473,-572 473,-602"/>
<text text-anchor="middle" x="458.5" y="-590" font-family="Helvetica,sans-Serif" font-size="10.00">{K</text>
<text text-anchor="middle" x="458.5" y="-579" font-family="Helvetica,sans-Serif" font-size="10.00">||}</text>
</a>
</g>
</g>
<!-- Node9&#45;&gt;Node8 -->
<g id="edge8" class="edge">
<title>Node9&#45;&gt;Node8</title>
<path fill="none" stroke="#404040" d="M458.15,-571.62C458.11,-563.24 458.36,-552.49 459.5,-543 459.7,-541.35 459.94,-539.66 460.22,-537.95"/>
<polygon fill="none" stroke="#404040" points="460.23,-537.89 457.49,-531.22 462.59,-526.12 465.34,-532.79 460.23,-537.89"/>
<text text-anchor="middle" x="476.5" y="-546" font-family="Helvetica,sans-Serif" font-size="10.00"> +keys</text>
</g>
<!-- Node10&#45;&gt;Node1 -->
<g id="edge10" class="edge">
<title>Node10&#45;&gt;Node1</title>
<path fill="none" stroke="#404040" d="M593.53,-412.09C602.12,-405.91 611.22,-398.03 617.5,-389 623.65,-380.16 629.26,-370.74 634.39,-360.97"/>
<polygon fill="none" stroke="#404040" points="634.42,-360.89 633.52,-353.74 639.77,-350.15 640.68,-357.31 634.42,-360.89"/>
<text text-anchor="middle" x="648" y="-375.5" font-family="Helvetica,sans-Serif" font-size="10.00"> &#45;states</text>
</g>
<!-- Node10&#45;&gt;Node11 -->
<g id="edge12" class="edge">
<title>Node10&#45;&gt;Node11</title>
<path fill="none" stroke="#404040" d="M567.24,-412.13C564.67,-399.3 559.45,-380.51 549.5,-367 530.78,-341.58 507.69,-318.16 483.01,-297.08"/>
<polygon fill="none" stroke="#404040" points="483,-297.08 475.83,-296.31 473.79,-289.39 480.96,-290.16 483,-297.08"/>
<text text-anchor="middle" x="581.5" y="-375.5" font-family="Helvetica,sans-Serif" font-size="10.00"> #states</text>
</g>
<!-- Node11&#45;&gt;Node10 -->
<g id="edge11" class="edge">
<title>Node11&#45;&gt;Node10</title>
<path fill="none" stroke="#404040" d="M326.89,-288.74C345.45,-332.39 367.13,-375.14 385.5,-389 424.7,-418.57 446.47,-396.81 494.5,-407 497.61,-407.66 500.78,-408.36 503.98,-409.1"/>
<polygon fill="none" stroke="#404040" points="503.83,-409.06 510.59,-406.56 515.5,-411.84 508.74,-414.34 503.83,-409.06"/>
<text text-anchor="middle" x="414.5" y="-375.5" font-family="Helvetica,sans-Serif" font-size="10.00"> +elements</text>
</g>
<!-- Node12&#45;&gt;Node11 -->
<g id="edge14" class="edge">
<title>Node12&#45;&gt;Node11</title>
<path fill="none" stroke="#404040" d="M208.11,-406.76C207.71,-395.09 207.95,-380.08 210.5,-367 214.74,-345.26 221.29,-322.79 228.77,-301.22"/>
<polygon fill="none" stroke="#404040" points="228.79,-301.14 227.05,-294.15 232.83,-289.84 234.58,-296.84 228.79,-301.14"/>
<text text-anchor="middle" x="236.5" y="-375.5" font-family="Helvetica,sans-Serif" font-size="10.00"> #textures</text>
</g>
</g>
</svg>
