<?xml version="1.0" encoding="UTF-8" standalone="no"?>
<!DOCTYPE svg PUBLIC "-//W3C//DTD SVG 1.1//EN"
 "http://www.w3.org/Graphics/SVG/1.1/DTD/svg11.dtd">
<!-- Generated by graphviz version 7.0.5 (0)
 -->
<!-- Title: Sheet Pages: 1 -->
<svg width="234pt" height="314pt"
 viewBox="0.00 0.00 233.50 314.00" xmlns="http://www.w3.org/2000/svg" xmlns:xlink="http://www.w3.org/1999/xlink">
<g id="graph0" class="graph" transform="scale(1 1) rotate(0) translate(4 310)">
<title>Sheet</title>
<!-- Node1 -->
<g id="node1" class="node">
<title>Node1</title>
<g id="a_node1"><a xlink:title=" ">
<polygon fill="#999999" stroke="#666666" points="71.5,-215.5 71.5,-305.5 158.5,-305.5 158.5,-215.5 71.5,-215.5"/>
<text text-anchor="middle" x="115" y="-293.5" font-family="Helvetica,sans-Serif" font-size="10.00">Sheet</text>
<polyline fill="none" stroke="#666666" points="71.5,-286.5 158.5,-286.5"/>
<text text-anchor="middle" x="115" y="-274.5" font-family="Helvetica,sans-Serif" font-size="10.00"> </text>
<polyline fill="none" stroke="#666666" points="71.5,-267.5 158.5,-267.5"/>
<text text-anchor="start" x="79.5" y="-255.5" font-family="Helvetica,sans-Serif" font-size="10.00">+ getCount()</text>
<text text-anchor="start" x="79.5" y="-244.5" font-family="Helvetica,sans-Serif" font-size="10.00">+ getTexture()</text>
<text text-anchor="start" x="79.5" y="-233.5" font-family="Helvetica,sans-Serif" font-size="10.00">+ getSprite()</text>
<text text-anchor="start" x="79.5" y="-222.5" font-family="Helvetica,sans-Serif" font-size="10.00">+ ~Sheet()</text>
</a>
</g>
</g>
<!-- Node2 -->
<g id="node2" class="node">
<title>Node2</title>
<g id="a_node2"><a xlink:href="structSpriteSheet.html" target="_top" xlink:title="A class that stores information of a part of a texture, with effects on it.">
<polygon fill="white" stroke="#666666" points="0,-0.5 0,-178.5 108,-178.5 108,-0.5 0,-0.5"/>
<text text-anchor="middle" x="54" y="-166.5" font-family="Helvetica,sans-Serif" font-size="10.00">SpriteSheet</text>
<polyline fill="none" stroke="#666666" points="0,-159.5 108,-159.5"/>
<text text-anchor="start" x="8" y="-147.5" font-family="Helvetica,sans-Serif" font-size="10.00">+ texture</text>
<text text-anchor="start" x="8" y="-136.5" font-family="Helvetica,sans-Serif" font-size="10.00">+ startIdx</text>
<text text-anchor="start" x="8" y="-125.5" font-family="Helvetica,sans-Serif" font-size="10.00">+ endIdx</text>
<text text-anchor="start" x="8" y="-114.5" font-family="Helvetica,sans-Serif" font-size="10.00">+ mirrorVertical</text>
<text text-anchor="start" x="8" y="-103.5" font-family="Helvetica,sans-Serif" font-size="10.00">+ mirrorHorizontal</text>
<polyline fill="none" stroke="#666666" points="0,-96.5 108,-96.5"/>
<text text-anchor="start" x="8" y="-84.5" font-family="Helvetica,sans-Serif" font-size="10.00">+ SpriteSheet()</text>
<text text-anchor="start" x="8" y="-73.5" font-family="Helvetica,sans-Serif" font-size="10.00">+ SpriteSheet()</text>
<text text-anchor="start" x="8" y="-62.5" font-family="Helvetica,sans-Serif" font-size="10.00">+ SpriteSheet()</text>
<text text-anchor="start" x="8" y="-51.5" font-family="Helvetica,sans-Serif" font-size="10.00">+ SpriteSheet()</text>
<text text-anchor="start" x="8" y="-40.5" font-family="Helvetica,sans-Serif" font-size="10.00">+ SpriteSheet()</text>
<text text-anchor="start" x="8" y="-29.5" font-family="Helvetica,sans-Serif" font-size="10.00">+ getCount()</text>
<text text-anchor="start" x="8" y="-18.5" font-family="Helvetica,sans-Serif" font-size="10.00">+ getTexture()</text>
<text text-anchor="start" x="8" y="-7.5" font-family="Helvetica,sans-Serif" font-size="10.00">+ getSprite()</text>
</a>
</g>
</g>
<!-- Node1&#45;&gt;Node2 -->
<g id="edge1" class="edge">
<title>Node1&#45;&gt;Node2</title>
<path fill="none" stroke="#63b8ff" d="M95.31,-204.94C92.21,-196.35 88.94,-187.29 85.65,-178.17"/>
<polygon fill="none" stroke="#63b8ff" points="91.93,-205.9 98.62,-214.11 98.52,-203.52 91.93,-205.9"/>
</g>
<!-- Node3 -->
<g id="node3" class="node">
<title>Node3</title>
<g id="a_node3"><a xlink:href="classTextureSheet.html" target="_top" xlink:title="A class that stores texture&#39;s related information.">
<polygon fill="white" stroke="#666666" points="126.5,-44.5 126.5,-134.5 225.5,-134.5 225.5,-44.5 126.5,-44.5"/>
<text text-anchor="middle" x="176" y="-122.5" font-family="Helvetica,sans-Serif" font-size="10.00">TextureSheet</text>
<polyline fill="none" stroke="#666666" points="126.5,-115.5 225.5,-115.5"/>
<text text-anchor="middle" x="176" y="-103.5" font-family="Helvetica,sans-Serif" font-size="10.00"> </text>
<polyline fill="none" stroke="#666666" points="126.5,-96.5 225.5,-96.5"/>
<text text-anchor="start" x="134.5" y="-84.5" font-family="Helvetica,sans-Serif" font-size="10.00">+ TextureSheet()</text>
<text text-anchor="start" x="134.5" y="-73.5" font-family="Helvetica,sans-Serif" font-size="10.00">+ getCount()</text>
<text text-anchor="start" x="134.5" y="-62.5" font-family="Helvetica,sans-Serif" font-size="10.00">+ getTexture()</text>
<text text-anchor="start" x="134.5" y="-51.5" font-family="Helvetica,sans-Serif" font-size="10.00">+ getSprite()</text>
</a>
</g>
</g>
<!-- Node1&#45;&gt;Node3 -->
<g id="edge2" class="edge">
<title>Node1&#45;&gt;Node3</title>
<path fill="none" stroke="#63b8ff" d="M134.69,-204.95C142.95,-182.07 152.42,-155.82 160.21,-134.24"/>
<polygon fill="none" stroke="#63b8ff" points="131.48,-203.52 131.38,-214.11 138.07,-205.9 131.48,-203.52"/>
</g>
</g>
</svg>
