<?xml version="1.0" encoding="UTF-8" standalone="no"?>
<!DOCTYPE svg PUBLIC "-//W3C//DTD SVG 1.1//EN"
 "http://www.w3.org/Graphics/SVG/1.1/DTD/svg11.dtd">
<!-- Generated by graphviz version 7.0.5 (0)
 -->
<!-- Title: Player Pages: 1 -->
<svg width="319pt" height="887pt"
 viewBox="0.00 0.00 318.50 887.00" xmlns="http://www.w3.org/2000/svg" xmlns:xlink="http://www.w3.org/1999/xlink">
<g id="graph0" class="graph" transform="scale(1 1) rotate(0) translate(4 883)">
<title>Player</title>
<!-- Node1 -->
<g id="node1" class="node">
<title>Node1</title>
<g id="a_node1"><a xlink:title=" ">
<polygon fill="#999999" stroke="#666666" points="89,-0.5 89,-189.5 202,-189.5 202,-0.5 89,-0.5"/>
<text text-anchor="middle" x="145.5" y="-177.5" font-family="Helvetica,sans-Serif" font-size="10.00">Player</text>
<polyline fill="none" stroke="#666666" points="89,-170.5 202,-170.5"/>
<text text-anchor="middle" x="145.5" y="-158.5" font-family="Helvetica,sans-Serif" font-size="10.00"> </text>
<polyline fill="none" stroke="#666666" points="89,-151.5 202,-151.5"/>
<text text-anchor="start" x="97" y="-139.5" font-family="Helvetica,sans-Serif" font-size="10.00">+ Player()</text>
<text text-anchor="start" x="97" y="-128.5" font-family="Helvetica,sans-Serif" font-size="10.00">+ Player()</text>
<text text-anchor="start" x="97" y="-117.5" font-family="Helvetica,sans-Serif" font-size="10.00">+ onKeyPressed()</text>
<text text-anchor="start" x="97" y="-106.5" font-family="Helvetica,sans-Serif" font-size="10.00">+ getCategory()</text>
<text text-anchor="start" x="97" y="-95.5" font-family="Helvetica,sans-Serif" font-size="10.00">+ setState()</text>
<text text-anchor="start" x="97" y="-84.5" font-family="Helvetica,sans-Serif" font-size="10.00">+ addHealth()</text>
<text text-anchor="start" x="97" y="-73.5" font-family="Helvetica,sans-Serif" font-size="10.00">+ isDead()</text>
<text text-anchor="start" x="97" y="-62.5" font-family="Helvetica,sans-Serif" font-size="10.00">+ addEffect()</text>
<text text-anchor="start" x="97" y="-51.5" font-family="Helvetica,sans-Serif" font-size="10.00">+ isInvincible()</text>
<text text-anchor="start" x="97" y="-40.5" font-family="Helvetica,sans-Serif" font-size="10.00">+ getDirectionVec()</text>
<text text-anchor="start" x="97" y="-29.5" font-family="Helvetica,sans-Serif" font-size="10.00">and 7 more...</text>
<text text-anchor="start" x="97" y="-18.5" font-family="Helvetica,sans-Serif" font-size="10.00"># updateCurrent()</text>
<text text-anchor="start" x="97" y="-7.5" font-family="Helvetica,sans-Serif" font-size="10.00"># drawCurrent()</text>
</a>
</g>
</g>
<!-- Node2 -->
<g id="node2" class="node">
<title>Node2</title>
<g id="a_node2"><a xlink:href="classEntity.html" target="_top" xlink:title=" ">
<polygon fill="white" stroke="#666666" points="80.5,-226.5 80.5,-481.5 210.5,-481.5 210.5,-226.5 80.5,-226.5"/>
<text text-anchor="middle" x="145.5" y="-469.5" font-family="Helvetica,sans-Serif" font-size="10.00">Entity</text>
<polyline fill="none" stroke="#666666" points="80.5,-462.5 210.5,-462.5"/>
<text text-anchor="start" x="88.5" y="-450.5" font-family="Helvetica,sans-Serif" font-size="10.00"># velocity</text>
<text text-anchor="start" x="88.5" y="-439.5" font-family="Helvetica,sans-Serif" font-size="10.00"># localBounds</text>
<text text-anchor="start" x="88.5" y="-428.5" font-family="Helvetica,sans-Serif" font-size="10.00"># spriteBounds</text>
<text text-anchor="start" x="88.5" y="-417.5" font-family="Helvetica,sans-Serif" font-size="10.00"># animation</text>
<polyline fill="none" stroke="#666666" points="80.5,-410.5 210.5,-410.5"/>
<text text-anchor="start" x="88.5" y="-398.5" font-family="Helvetica,sans-Serif" font-size="10.00">+ Entity()</text>
<text text-anchor="start" x="88.5" y="-387.5" font-family="Helvetica,sans-Serif" font-size="10.00">+ Entity()</text>
<text text-anchor="start" x="88.5" y="-376.5" font-family="Helvetica,sans-Serif" font-size="10.00">+ Entity()</text>
<text text-anchor="start" x="88.5" y="-365.5" font-family="Helvetica,sans-Serif" font-size="10.00">+ Entity()</text>
<text text-anchor="start" x="88.5" y="-354.5" font-family="Helvetica,sans-Serif" font-size="10.00">+ getVelocity()</text>
<text text-anchor="start" x="88.5" y="-343.5" font-family="Helvetica,sans-Serif" font-size="10.00">+ setVelocity()</text>
<text text-anchor="start" x="88.5" y="-332.5" font-family="Helvetica,sans-Serif" font-size="10.00">+ getLocalBounds()</text>
<text text-anchor="start" x="88.5" y="-321.5" font-family="Helvetica,sans-Serif" font-size="10.00">+ getSpriteBounds()</text>
<text text-anchor="start" x="88.5" y="-310.5" font-family="Helvetica,sans-Serif" font-size="10.00">+ adjustSpriteBounds()</text>
<text text-anchor="start" x="88.5" y="-299.5" font-family="Helvetica,sans-Serif" font-size="10.00">+ adjustBounds()</text>
<text text-anchor="start" x="88.5" y="-288.5" font-family="Helvetica,sans-Serif" font-size="10.00">+ getClassName()</text>
<text text-anchor="start" x="88.5" y="-277.5" font-family="Helvetica,sans-Serif" font-size="10.00">+ saveCurrentNode()</text>
<text text-anchor="start" x="88.5" y="-266.5" font-family="Helvetica,sans-Serif" font-size="10.00">+ loadCurrentNode()</text>
<text text-anchor="start" x="88.5" y="-255.5" font-family="Helvetica,sans-Serif" font-size="10.00"># drawCurrent()</text>
<text text-anchor="start" x="88.5" y="-244.5" font-family="Helvetica,sans-Serif" font-size="10.00"># updateCurrent()</text>
<text text-anchor="start" x="88.5" y="-233.5" font-family="Helvetica,sans-Serif" font-size="10.00"># shouldSave()</text>
</a>
</g>
</g>
<!-- Node2&#45;&gt;Node1 -->
<g id="edge1" class="edge">
<title>Node2&#45;&gt;Node1</title>
<path fill="none" stroke="#63b8ff" d="M145.5,-215.28C145.5,-206.56 145.5,-197.9 145.5,-189.45"/>
<polygon fill="none" stroke="#63b8ff" points="142,-215.25 145.5,-225.25 149,-215.25 142,-215.25"/>
</g>
<!-- Node3 -->
<g id="node3" class="node">
<title>Node3</title>
<g id="a_node3"><a xlink:href="classSceneNode.html" target="_top" xlink:title="A node in the scene graph.">
<polygon fill="white" stroke="#666666" points="78,-518.5 78,-784.5 213,-784.5 213,-518.5 78,-518.5"/>
<text text-anchor="middle" x="145.5" y="-772.5" font-family="Helvetica,sans-Serif" font-size="10.00">SceneNode</text>
<polyline fill="none" stroke="#666666" points="78,-765.5 213,-765.5"/>
<text text-anchor="middle" x="145.5" y="-753.5" font-family="Helvetica,sans-Serif" font-size="10.00"> </text>
<polyline fill="none" stroke="#666666" points="78,-746.5 213,-746.5"/>
<text text-anchor="start" x="86" y="-734.5" font-family="Helvetica,sans-Serif" font-size="10.00">+ SceneNode()</text>
<text text-anchor="start" x="86" y="-723.5" font-family="Helvetica,sans-Serif" font-size="10.00">+ attachChild()</text>
<text text-anchor="start" x="86" y="-712.5" font-family="Helvetica,sans-Serif" font-size="10.00">+ detachChild()</text>
<text text-anchor="start" x="86" y="-701.5" font-family="Helvetica,sans-Serif" font-size="10.00">+ update()</text>
<text text-anchor="start" x="86" y="-690.5" font-family="Helvetica,sans-Serif" font-size="10.00">+ getAbsTransform()</text>
<text text-anchor="start" x="86" y="-679.5" font-family="Helvetica,sans-Serif" font-size="10.00">+ getAbsPosition()</text>
<text text-anchor="start" x="86" y="-668.5" font-family="Helvetica,sans-Serif" font-size="10.00">+ checkNodeCollision()</text>
<text text-anchor="start" x="86" y="-657.5" font-family="Helvetica,sans-Serif" font-size="10.00">+ checkSceneCollision()</text>
<text text-anchor="start" x="86" y="-646.5" font-family="Helvetica,sans-Serif" font-size="10.00">+ setDebug()</text>
<text text-anchor="start" x="86" y="-635.5" font-family="Helvetica,sans-Serif" font-size="10.00">+ getCategory()</text>
<text text-anchor="start" x="86" y="-624.5" font-family="Helvetica,sans-Serif" font-size="10.00">+ saveNode()</text>
<text text-anchor="start" x="86" y="-613.5" font-family="Helvetica,sans-Serif" font-size="10.00">+ operator&lt;()</text>
<text text-anchor="start" x="86" y="-602.5" font-family="Helvetica,sans-Serif" font-size="10.00">+ getBoundingRect()</text>
<text text-anchor="start" x="86" y="-591.5" font-family="Helvetica,sans-Serif" font-size="10.00">+ getLocalBounds()</text>
<text text-anchor="start" x="86" y="-580.5" font-family="Helvetica,sans-Serif" font-size="10.00">+ draw()</text>
<text text-anchor="start" x="86" y="-569.5" font-family="Helvetica,sans-Serif" font-size="10.00"># getClassName()</text>
<text text-anchor="start" x="86" y="-558.5" font-family="Helvetica,sans-Serif" font-size="10.00"># saveCurrentNode()</text>
<text text-anchor="start" x="86" y="-547.5" font-family="Helvetica,sans-Serif" font-size="10.00"># loadCurrentNode()</text>
<text text-anchor="start" x="86" y="-536.5" font-family="Helvetica,sans-Serif" font-size="10.00"># onLoadingFinished()</text>
<text text-anchor="start" x="86" y="-525.5" font-family="Helvetica,sans-Serif" font-size="10.00"># shouldSave()</text>
</a>
</g>
</g>
<!-- Node3&#45;&gt;Node2 -->
<g id="edge2" class="edge">
<title>Node3&#45;&gt;Node2</title>
<path fill="none" stroke="#63b8ff" d="M145.5,-507.31C145.5,-498.6 145.5,-489.87 145.5,-481.24"/>
<polygon fill="none" stroke="#63b8ff" points="142,-507.22 145.5,-517.22 149,-507.22 142,-507.22"/>
</g>
<!-- Node4 -->
<g id="node4" class="node">
<title>Node4</title>
<g id="a_node4"><a xlink:title=" ">
<polygon fill="white" stroke="#bfbfbf" points="0,-821.5 0,-878.5 77,-878.5 77,-821.5 0,-821.5"/>
<text text-anchor="middle" x="38.5" y="-866.5" font-family="Helvetica,sans-Serif" font-size="10.00">sf::Drawable</text>
<polyline fill="none" stroke="#bfbfbf" points="0,-859.5 77,-859.5"/>
<text text-anchor="middle" x="38.5" y="-847.5" font-family="Helvetica,sans-Serif" font-size="10.00"> </text>
<polyline fill="none" stroke="#bfbfbf" points="0,-840.5 77,-840.5"/>
<text text-anchor="middle" x="38.5" y="-828.5" font-family="Helvetica,sans-Serif" font-size="10.00"> </text>
</a>
</g>
</g>
<!-- Node4&#45;&gt;Node3 -->
<g id="edge3" class="edge">
<title>Node4&#45;&gt;Node3</title>
<path fill="none" stroke="#63b8ff" d="M58.82,-811.68C64.57,-801.13 71.15,-789.04 78.07,-776.33"/>
<polygon fill="none" stroke="#63b8ff" points="55.81,-809.89 54.1,-820.35 61.96,-813.24 55.81,-809.89"/>
</g>
<!-- Node5 -->
<g id="node5" class="node">
<title>Node5</title>
<g id="a_node5"><a xlink:title=" ">
<polygon fill="white" stroke="#bfbfbf" points="95,-821.5 95,-878.5 196,-878.5 196,-821.5 95,-821.5"/>
<text text-anchor="middle" x="145.5" y="-866.5" font-family="Helvetica,sans-Serif" font-size="10.00">sf::Transformable</text>
<polyline fill="none" stroke="#bfbfbf" points="95,-859.5 196,-859.5"/>
<text text-anchor="middle" x="145.5" y="-847.5" font-family="Helvetica,sans-Serif" font-size="10.00"> </text>
<polyline fill="none" stroke="#bfbfbf" points="95,-840.5 196,-840.5"/>
<text text-anchor="middle" x="145.5" y="-828.5" font-family="Helvetica,sans-Serif" font-size="10.00"> </text>
</a>
</g>
</g>
<!-- Node5&#45;&gt;Node3 -->
<g id="edge4" class="edge">
<title>Node5&#45;&gt;Node3</title>
<path fill="none" stroke="#63b8ff" d="M145.5,-810.31C145.5,-802.36 145.5,-793.58 145.5,-784.35"/>
<polygon fill="none" stroke="#63b8ff" points="142,-810.16 145.5,-820.16 149,-810.16 142,-810.16"/>
</g>
<!-- Node6 -->
<g id="node6" class="node">
<title>Node6</title>
<g id="a_node6"><a xlink:title=" ">
<polygon fill="white" stroke="#bfbfbf" points="214.5,-821.5 214.5,-878.5 310.5,-878.5 310.5,-821.5 214.5,-821.5"/>
<text text-anchor="middle" x="262.5" y="-866.5" font-family="Helvetica,sans-Serif" font-size="10.00">sf::NonCopyable</text>
<polyline fill="none" stroke="#bfbfbf" points="214.5,-859.5 310.5,-859.5"/>
<text text-anchor="middle" x="262.5" y="-847.5" font-family="Helvetica,sans-Serif" font-size="10.00"> </text>
<polyline fill="none" stroke="#bfbfbf" points="214.5,-840.5 310.5,-840.5"/>
<text text-anchor="middle" x="262.5" y="-828.5" font-family="Helvetica,sans-Serif" font-size="10.00"> </text>
</a>
</g>
</g>
<!-- Node6&#45;&gt;Node3 -->
<g id="edge5" class="edge">
<title>Node6&#45;&gt;Node3</title>
<path fill="none" stroke="#8b1a1a" d="M240.38,-811.86C232.32,-798.32 222.73,-782.21 212.8,-765.52"/>
<polygon fill="none" stroke="#8b1a1a" points="237.33,-813.58 245.46,-820.38 243.35,-809.99 237.33,-813.58"/>
</g>
</g>
</svg>
