<?xml version="1.0" encoding="UTF-8" standalone="no"?>
<!DOCTYPE svg PUBLIC "-//W3C//DTD SVG 1.1//EN"
 "http://www.w3.org/Graphics/SVG/1.1/DTD/svg11.dtd">
<!-- Generated by graphviz version 7.0.5 (0)
 -->
<!-- Title: LightObserver Pages: 1 -->
<svg width="266pt" height="226pt"
 viewBox="0.00 0.00 266.00 226.00" xmlns="http://www.w3.org/2000/svg" xmlns:xlink="http://www.w3.org/1999/xlink">
<g id="graph0" class="graph" transform="scale(1 1) rotate(0) translate(4 222)">
<title>LightObserver</title>
<!-- Node1 -->
<g id="node1" class="node">
<title>Node1</title>
<g id="a_node1"><a xlink:title=" ">
<polygon fill="#999999" stroke="#666666" points="69,-160.5 69,-217.5 183,-217.5 183,-160.5 69,-160.5"/>
<text text-anchor="middle" x="126" y="-205.5" font-family="Helvetica,sans-Serif" font-size="10.00">LightObserver</text>
<polyline fill="none" stroke="#666666" points="69,-198.5 183,-198.5"/>
<text text-anchor="middle" x="126" y="-186.5" font-family="Helvetica,sans-Serif" font-size="10.00"> </text>
<polyline fill="none" stroke="#666666" points="69,-179.5 183,-179.5"/>
<text text-anchor="start" x="77" y="-167.5" font-family="Helvetica,sans-Serif" font-size="10.00">+ onLightChanged()</text>
</a>
</g>
</g>
<!-- Node2 -->
<g id="node2" class="node">
<title>Node2</title>
<g id="a_node2"><a xlink:href="classVehicle.html" target="_top" xlink:title=" ">
<polygon fill="white" stroke="#bfbfbf" points="0,-0.5 0,-123.5 114,-123.5 114,-0.5 0,-0.5"/>
<text text-anchor="middle" x="57" y="-111.5" font-family="Helvetica,sans-Serif" font-size="10.00">Vehicle</text>
<polyline fill="none" stroke="#bfbfbf" points="0,-104.5 114,-104.5"/>
<text text-anchor="middle" x="57" y="-92.5" font-family="Helvetica,sans-Serif" font-size="10.00"> </text>
<polyline fill="none" stroke="#bfbfbf" points="0,-85.5 114,-85.5"/>
<text text-anchor="start" x="8" y="-73.5" font-family="Helvetica,sans-Serif" font-size="10.00">+ onLightChanged()</text>
<text text-anchor="start" x="8" y="-62.5" font-family="Helvetica,sans-Serif" font-size="10.00">+ getCategory()</text>
<text text-anchor="start" x="8" y="-51.5" font-family="Helvetica,sans-Serif" font-size="10.00">+ getClassName()</text>
<text text-anchor="start" x="8" y="-40.5" font-family="Helvetica,sans-Serif" font-size="10.00">+ Entity()</text>
<text text-anchor="start" x="8" y="-29.5" font-family="Helvetica,sans-Serif" font-size="10.00">+ Entity()</text>
<text text-anchor="start" x="8" y="-18.5" font-family="Helvetica,sans-Serif" font-size="10.00">+ Entity()</text>
<text text-anchor="start" x="8" y="-7.5" font-family="Helvetica,sans-Serif" font-size="10.00">+ Entity()</text>
</a>
</g>
</g>
<!-- Node1&#45;&gt;Node2 -->
<g id="edge1" class="edge">
<title>Node1&#45;&gt;Node2</title>
<path fill="none" stroke="#63b8ff" d="M105.33,-150.55C100.6,-141.99 95.46,-132.67 90.35,-123.42"/>
<polygon fill="none" stroke="#63b8ff" points="102.23,-152.18 110.13,-159.24 108.36,-148.8 102.23,-152.18"/>
</g>
<!-- Node3 -->
<g id="node3" class="node">
<title>Node3</title>
<g id="a_node3"><a xlink:href="classVehicleLane.html" target="_top" xlink:title=" ">
<polygon fill="white" stroke="#bfbfbf" points="132,-0.5 132,-123.5 258,-123.5 258,-0.5 132,-0.5"/>
<text text-anchor="middle" x="195" y="-111.5" font-family="Helvetica,sans-Serif" font-size="10.00">VehicleLane</text>
<polyline fill="none" stroke="#bfbfbf" points="132,-104.5 258,-104.5"/>
<text text-anchor="middle" x="195" y="-92.5" font-family="Helvetica,sans-Serif" font-size="10.00"> </text>
<polyline fill="none" stroke="#bfbfbf" points="132,-85.5 258,-85.5"/>
<text text-anchor="start" x="140" y="-73.5" font-family="Helvetica,sans-Serif" font-size="10.00">+ getType()</text>
<text text-anchor="start" x="140" y="-62.5" font-family="Helvetica,sans-Serif" font-size="10.00">+ onLightChanged()</text>
<text text-anchor="start" x="140" y="-51.5" font-family="Helvetica,sans-Serif" font-size="10.00">+ getClassName()</text>
<text text-anchor="start" x="140" y="-40.5" font-family="Helvetica,sans-Serif" font-size="10.00">+ RoadLane()</text>
<text text-anchor="start" x="140" y="-29.5" font-family="Helvetica,sans-Serif" font-size="10.00">+ RoadLane()</text>
<text text-anchor="start" x="140" y="-18.5" font-family="Helvetica,sans-Serif" font-size="10.00">+ RoadLane()</text>
<text text-anchor="start" x="140" y="-7.5" font-family="Helvetica,sans-Serif" font-size="10.00"># updateCommuters()</text>
</a>
</g>
</g>
<!-- Node1&#45;&gt;Node3 -->
<g id="edge2" class="edge">
<title>Node1&#45;&gt;Node3</title>
<path fill="none" stroke="#63b8ff" d="M146.67,-150.55C151.4,-141.99 156.54,-132.67 161.65,-123.42"/>
<polygon fill="none" stroke="#63b8ff" points="143.64,-148.8 141.87,-159.24 149.77,-152.18 143.64,-148.8"/>
</g>
</g>
</svg>
