<?xml version="1.0" encoding="UTF-8" standalone="no"?>
<!DOCTYPE svg PUBLIC "-//W3C//DTD SVG 1.1//EN"
 "http://www.w3.org/Graphics/SVG/1.1/DTD/svg11.dtd">
<!-- Generated by graphviz version 7.0.5 (0)
 -->
<!-- Title: InvincibleState Pages: 1 -->
<svg width="366pt" height="1144pt"
 viewBox="0.00 0.00 366.00 1144.00" xmlns="http://www.w3.org/2000/svg" xmlns:xlink="http://www.w3.org/1999/xlink">
<g id="graph0" class="graph" transform="scale(1 1) rotate(0) translate(4 1140)">
<title>InvincibleState</title>
<!-- Node1 -->
<g id="node1" class="node">
<title>Node1</title>
<g id="a_node1"><a xlink:title=" ">
<polygon fill="#999999" stroke="#666666" points="165.5,-0.5 165.5,-79.5 273.5,-79.5 273.5,-0.5 165.5,-0.5"/>
<text text-anchor="middle" x="219.5" y="-67.5" font-family="Helvetica,sans-Serif" font-size="10.00">InvincibleState</text>
<polyline fill="none" stroke="#666666" points="165.5,-60.5 273.5,-60.5"/>
<text text-anchor="middle" x="219.5" y="-48.5" font-family="Helvetica,sans-Serif" font-size="10.00"> </text>
<polyline fill="none" stroke="#666666" points="165.5,-41.5 273.5,-41.5"/>
<text text-anchor="start" x="173.5" y="-29.5" font-family="Helvetica,sans-Serif" font-size="10.00">+ InvincibleState()</text>
<text text-anchor="start" x="173.5" y="-18.5" font-family="Helvetica,sans-Serif" font-size="10.00">+ update()</text>
<text text-anchor="start" x="173.5" y="-7.5" font-family="Helvetica,sans-Serif" font-size="10.00">+ getStateID()</text>
</a>
</g>
</g>
<!-- Node2 -->
<g id="node2" class="node">
<title>Node2</title>
<g id="a_node2"><a xlink:href="classPlayerState.html" target="_top" xlink:title=" ">
<polygon fill="white" stroke="#bfbfbf" points="169.5,-117.5 169.5,-207.5 269.5,-207.5 269.5,-117.5 169.5,-117.5"/>
<text text-anchor="middle" x="219.5" y="-195.5" font-family="Helvetica,sans-Serif" font-size="10.00">PlayerState</text>
<polyline fill="none" stroke="#bfbfbf" points="169.5,-188.5 269.5,-188.5"/>
<text text-anchor="middle" x="219.5" y="-176.5" font-family="Helvetica,sans-Serif" font-size="10.00"> </text>
<polyline fill="none" stroke="#bfbfbf" points="169.5,-169.5 269.5,-169.5"/>
<text text-anchor="start" x="177.5" y="-157.5" font-family="Helvetica,sans-Serif" font-size="10.00">+ PlayerState()</text>
<text text-anchor="start" x="177.5" y="-146.5" font-family="Helvetica,sans-Serif" font-size="10.00">+ ~PlayerState()</text>
<text text-anchor="start" x="177.5" y="-135.5" font-family="Helvetica,sans-Serif" font-size="10.00">+ update()</text>
<text text-anchor="start" x="177.5" y="-124.5" font-family="Helvetica,sans-Serif" font-size="10.00">+ getStateID()</text>
</a>
</g>
</g>
<!-- Node2&#45;&gt;Node1 -->
<g id="edge1" class="edge">
<title>Node2&#45;&gt;Node1</title>
<path fill="none" stroke="#63b8ff" d="M219.5,-106.3C219.5,-97.22 219.5,-87.99 219.5,-79.43"/>
<polygon fill="none" stroke="#63b8ff" points="216,-106.14 219.5,-116.14 223,-106.14 216,-106.14"/>
</g>
<!-- Node3 -->
<g id="node3" class="node">
<title>Node3</title>
<g id="a_node3"><a xlink:href="classPlayer.html" target="_top" xlink:title=" ">
<polygon fill="white" stroke="#bfbfbf" points="163,-255.5 163,-444.5 276,-444.5 276,-255.5 163,-255.5"/>
<text text-anchor="middle" x="219.5" y="-432.5" font-family="Helvetica,sans-Serif" font-size="10.00">Player</text>
<polyline fill="none" stroke="#bfbfbf" points="163,-425.5 276,-425.5"/>
<text text-anchor="middle" x="219.5" y="-413.5" font-family="Helvetica,sans-Serif" font-size="10.00"> </text>
<polyline fill="none" stroke="#bfbfbf" points="163,-406.5 276,-406.5"/>
<text text-anchor="start" x="171" y="-394.5" font-family="Helvetica,sans-Serif" font-size="10.00">+ Player()</text>
<text text-anchor="start" x="171" y="-383.5" font-family="Helvetica,sans-Serif" font-size="10.00">+ Player()</text>
<text text-anchor="start" x="171" y="-372.5" font-family="Helvetica,sans-Serif" font-size="10.00">+ onKeyPressed()</text>
<text text-anchor="start" x="171" y="-361.5" font-family="Helvetica,sans-Serif" font-size="10.00">+ getCategory()</text>
<text text-anchor="start" x="171" y="-350.5" font-family="Helvetica,sans-Serif" font-size="10.00">+ setState()</text>
<text text-anchor="start" x="171" y="-339.5" font-family="Helvetica,sans-Serif" font-size="10.00">+ addHealth()</text>
<text text-anchor="start" x="171" y="-328.5" font-family="Helvetica,sans-Serif" font-size="10.00">+ isDead()</text>
<text text-anchor="start" x="171" y="-317.5" font-family="Helvetica,sans-Serif" font-size="10.00">+ addEffect()</text>
<text text-anchor="start" x="171" y="-306.5" font-family="Helvetica,sans-Serif" font-size="10.00">+ isInvincible()</text>
<text text-anchor="start" x="171" y="-295.5" font-family="Helvetica,sans-Serif" font-size="10.00">+ getDirectionVec()</text>
<text text-anchor="start" x="171" y="-284.5" font-family="Helvetica,sans-Serif" font-size="10.00">and 7 more...</text>
<text text-anchor="start" x="171" y="-273.5" font-family="Helvetica,sans-Serif" font-size="10.00"># updateCurrent()</text>
<text text-anchor="start" x="171" y="-262.5" font-family="Helvetica,sans-Serif" font-size="10.00"># drawCurrent()</text>
</a>
</g>
</g>
<!-- Node3&#45;&gt;Node2 -->
<g id="edge2" class="edge">
<title>Node3&#45;&gt;Node2</title>
<path fill="none" stroke="#404040" d="M219.5,-255.71C219.5,-243.52 219.5,-231.34 219.5,-220.01"/>
<polygon fill="none" stroke="#404040" points="219.5,-220.07 215.5,-214.07 219.5,-208.07 223.5,-214.07 219.5,-220.07"/>
<text text-anchor="middle" x="241" y="-229" font-family="Helvetica,sans-Serif" font-size="10.00"> +player</text>
</g>
<!-- Node4 -->
<g id="node4" class="node">
<title>Node4</title>
<g id="a_node4"><a xlink:href="classEntity.html" target="_top" xlink:title=" ">
<polygon fill="white" stroke="#666666" points="154.5,-482.5 154.5,-726.5 284.5,-726.5 284.5,-482.5 154.5,-482.5"/>
<text text-anchor="middle" x="219.5" y="-714.5" font-family="Helvetica,sans-Serif" font-size="10.00">Entity</text>
<polyline fill="none" stroke="#666666" points="154.5,-707.5 284.5,-707.5"/>
<text text-anchor="start" x="162.5" y="-695.5" font-family="Helvetica,sans-Serif" font-size="10.00"># velocity</text>
<text text-anchor="start" x="162.5" y="-684.5" font-family="Helvetica,sans-Serif" font-size="10.00"># localBounds</text>
<text text-anchor="start" x="162.5" y="-673.5" font-family="Helvetica,sans-Serif" font-size="10.00"># spriteBounds</text>
<polyline fill="none" stroke="#666666" points="154.5,-666.5 284.5,-666.5"/>
<text text-anchor="start" x="162.5" y="-654.5" font-family="Helvetica,sans-Serif" font-size="10.00">+ Entity()</text>
<text text-anchor="start" x="162.5" y="-643.5" font-family="Helvetica,sans-Serif" font-size="10.00">+ Entity()</text>
<text text-anchor="start" x="162.5" y="-632.5" font-family="Helvetica,sans-Serif" font-size="10.00">+ Entity()</text>
<text text-anchor="start" x="162.5" y="-621.5" font-family="Helvetica,sans-Serif" font-size="10.00">+ Entity()</text>
<text text-anchor="start" x="162.5" y="-610.5" font-family="Helvetica,sans-Serif" font-size="10.00">+ getVelocity()</text>
<text text-anchor="start" x="162.5" y="-599.5" font-family="Helvetica,sans-Serif" font-size="10.00">+ setVelocity()</text>
<text text-anchor="start" x="162.5" y="-588.5" font-family="Helvetica,sans-Serif" font-size="10.00">+ getLocalBounds()</text>
<text text-anchor="start" x="162.5" y="-577.5" font-family="Helvetica,sans-Serif" font-size="10.00">+ getSpriteBounds()</text>
<text text-anchor="start" x="162.5" y="-566.5" font-family="Helvetica,sans-Serif" font-size="10.00">+ adjustSpriteBounds()</text>
<text text-anchor="start" x="162.5" y="-555.5" font-family="Helvetica,sans-Serif" font-size="10.00">+ adjustBounds()</text>
<text text-anchor="start" x="162.5" y="-544.5" font-family="Helvetica,sans-Serif" font-size="10.00">+ getClassName()</text>
<text text-anchor="start" x="162.5" y="-533.5" font-family="Helvetica,sans-Serif" font-size="10.00">+ saveCurrentNode()</text>
<text text-anchor="start" x="162.5" y="-522.5" font-family="Helvetica,sans-Serif" font-size="10.00">+ loadCurrentNode()</text>
<text text-anchor="start" x="162.5" y="-511.5" font-family="Helvetica,sans-Serif" font-size="10.00"># drawCurrent()</text>
<text text-anchor="start" x="162.5" y="-500.5" font-family="Helvetica,sans-Serif" font-size="10.00"># updateCurrent()</text>
<text text-anchor="start" x="162.5" y="-489.5" font-family="Helvetica,sans-Serif" font-size="10.00"># shouldSave()</text>
</a>
</g>
</g>
<!-- Node4&#45;&gt;Node3 -->
<g id="edge3" class="edge">
<title>Node4&#45;&gt;Node3</title>
<path fill="none" stroke="#63b8ff" d="M219.5,-471.57C219.5,-462.38 219.5,-453.23 219.5,-444.31"/>
<polygon fill="none" stroke="#63b8ff" points="216,-471.28 219.5,-481.28 223,-471.28 216,-471.28"/>
</g>
<!-- Node5 -->
<g id="node5" class="node">
<title>Node5</title>
<g id="a_node5"><a xlink:href="classSceneNode.html" target="_top" xlink:title="A node in the scene graph.">
<polygon fill="white" stroke="#666666" points="78,-774.5 78,-1040.5 213,-1040.5 213,-774.5 78,-774.5"/>
<text text-anchor="middle" x="145.5" y="-1028.5" font-family="Helvetica,sans-Serif" font-size="10.00">SceneNode</text>
<polyline fill="none" stroke="#666666" points="78,-1021.5 213,-1021.5"/>
<text text-anchor="middle" x="145.5" y="-1009.5" font-family="Helvetica,sans-Serif" font-size="10.00"> </text>
<polyline fill="none" stroke="#666666" points="78,-1002.5 213,-1002.5"/>
<text text-anchor="start" x="86" y="-990.5" font-family="Helvetica,sans-Serif" font-size="10.00">+ SceneNode()</text>
<text text-anchor="start" x="86" y="-979.5" font-family="Helvetica,sans-Serif" font-size="10.00">+ attachChild()</text>
<text text-anchor="start" x="86" y="-968.5" font-family="Helvetica,sans-Serif" font-size="10.00">+ detachChild()</text>
<text text-anchor="start" x="86" y="-957.5" font-family="Helvetica,sans-Serif" font-size="10.00">+ update()</text>
<text text-anchor="start" x="86" y="-946.5" font-family="Helvetica,sans-Serif" font-size="10.00">+ getAbsTransform()</text>
<text text-anchor="start" x="86" y="-935.5" font-family="Helvetica,sans-Serif" font-size="10.00">+ getAbsPosition()</text>
<text text-anchor="start" x="86" y="-924.5" font-family="Helvetica,sans-Serif" font-size="10.00">+ checkNodeCollision()</text>
<text text-anchor="start" x="86" y="-913.5" font-family="Helvetica,sans-Serif" font-size="10.00">+ checkSceneCollision()</text>
<text text-anchor="start" x="86" y="-902.5" font-family="Helvetica,sans-Serif" font-size="10.00">+ setDebug()</text>
<text text-anchor="start" x="86" y="-891.5" font-family="Helvetica,sans-Serif" font-size="10.00">+ getCategory()</text>
<text text-anchor="start" x="86" y="-880.5" font-family="Helvetica,sans-Serif" font-size="10.00">+ saveNode()</text>
<text text-anchor="start" x="86" y="-869.5" font-family="Helvetica,sans-Serif" font-size="10.00">+ operator&lt;()</text>
<text text-anchor="start" x="86" y="-858.5" font-family="Helvetica,sans-Serif" font-size="10.00">+ getBoundingRect()</text>
<text text-anchor="start" x="86" y="-847.5" font-family="Helvetica,sans-Serif" font-size="10.00">+ getLocalBounds()</text>
<text text-anchor="start" x="86" y="-836.5" font-family="Helvetica,sans-Serif" font-size="10.00">+ draw()</text>
<text text-anchor="start" x="86" y="-825.5" font-family="Helvetica,sans-Serif" font-size="10.00"># getClassName()</text>
<text text-anchor="start" x="86" y="-814.5" font-family="Helvetica,sans-Serif" font-size="10.00"># saveCurrentNode()</text>
<text text-anchor="start" x="86" y="-803.5" font-family="Helvetica,sans-Serif" font-size="10.00"># loadCurrentNode()</text>
<text text-anchor="start" x="86" y="-792.5" font-family="Helvetica,sans-Serif" font-size="10.00"># onLoadingFinished()</text>
<text text-anchor="start" x="86" y="-781.5" font-family="Helvetica,sans-Serif" font-size="10.00"># shouldSave()</text>
</a>
</g>
</g>
<!-- Node5&#45;&gt;Node4 -->
<g id="edge4" class="edge">
<title>Node5&#45;&gt;Node4</title>
<path fill="none" stroke="#63b8ff" d="M180.56,-763.91C183.64,-751.36 186.75,-738.73 189.78,-726.38"/>
<polygon fill="none" stroke="#63b8ff" points="177.2,-762.9 178.21,-773.45 184,-764.57 177.2,-762.9"/>
</g>
<!-- Node6 -->
<g id="node6" class="node">
<title>Node6</title>
<g id="a_node6"><a xlink:title=" ">
<polygon fill="white" stroke="#bfbfbf" points="0,-1078.5 0,-1135.5 77,-1135.5 77,-1078.5 0,-1078.5"/>
<text text-anchor="middle" x="38.5" y="-1123.5" font-family="Helvetica,sans-Serif" font-size="10.00">sf::Drawable</text>
<polyline fill="none" stroke="#bfbfbf" points="0,-1116.5 77,-1116.5"/>
<text text-anchor="middle" x="38.5" y="-1104.5" font-family="Helvetica,sans-Serif" font-size="10.00"> </text>
<polyline fill="none" stroke="#bfbfbf" points="0,-1097.5 77,-1097.5"/>
<text text-anchor="middle" x="38.5" y="-1085.5" font-family="Helvetica,sans-Serif" font-size="10.00"> </text>
</a>
</g>
</g>
<!-- Node6&#45;&gt;Node5 -->
<g id="edge5" class="edge">
<title>Node6&#45;&gt;Node5</title>
<path fill="none" stroke="#63b8ff" d="M58.82,-1068.49C64.57,-1057.89 71.15,-1045.73 78.07,-1032.96"/>
<polygon fill="none" stroke="#63b8ff" points="55.79,-1066.75 54.1,-1077.21 61.94,-1070.08 55.79,-1066.75"/>
</g>
<!-- Node7 -->
<g id="node7" class="node">
<title>Node7</title>
<g id="a_node7"><a xlink:title=" ">
<polygon fill="white" stroke="#bfbfbf" points="95,-1078.5 95,-1135.5 196,-1135.5 196,-1078.5 95,-1078.5"/>
<text text-anchor="middle" x="145.5" y="-1123.5" font-family="Helvetica,sans-Serif" font-size="10.00">sf::Transformable</text>
<polyline fill="none" stroke="#bfbfbf" points="95,-1116.5 196,-1116.5"/>
<text text-anchor="middle" x="145.5" y="-1104.5" font-family="Helvetica,sans-Serif" font-size="10.00"> </text>
<polyline fill="none" stroke="#bfbfbf" points="95,-1097.5 196,-1097.5"/>
<text text-anchor="middle" x="145.5" y="-1085.5" font-family="Helvetica,sans-Serif" font-size="10.00"> </text>
</a>
</g>
</g>
<!-- Node7&#45;&gt;Node5 -->
<g id="edge6" class="edge">
<title>Node7&#45;&gt;Node5</title>
<path fill="none" stroke="#63b8ff" d="M145.5,-1067.16C145.5,-1058.92 145.5,-1049.79 145.5,-1040.18"/>
<polygon fill="none" stroke="#63b8ff" points="142,-1067.02 145.5,-1077.02 149,-1067.02 142,-1067.02"/>
</g>
<!-- Node8 -->
<g id="node8" class="node">
<title>Node8</title>
<g id="a_node8"><a xlink:title=" ">
<polygon fill="white" stroke="#bfbfbf" points="214.5,-1078.5 214.5,-1135.5 310.5,-1135.5 310.5,-1078.5 214.5,-1078.5"/>
<text text-anchor="middle" x="262.5" y="-1123.5" font-family="Helvetica,sans-Serif" font-size="10.00">sf::NonCopyable</text>
<polyline fill="none" stroke="#bfbfbf" points="214.5,-1116.5 310.5,-1116.5"/>
<text text-anchor="middle" x="262.5" y="-1104.5" font-family="Helvetica,sans-Serif" font-size="10.00"> </text>
<polyline fill="none" stroke="#bfbfbf" points="214.5,-1097.5 310.5,-1097.5"/>
<text text-anchor="middle" x="262.5" y="-1085.5" font-family="Helvetica,sans-Serif" font-size="10.00"> </text>
</a>
</g>
</g>
<!-- Node8&#45;&gt;Node5 -->
<g id="edge7" class="edge">
<title>Node8&#45;&gt;Node5</title>
<path fill="none" stroke="#8b1a1a" d="M238.82,-1069.06C233.08,-1059.93 227.01,-1050.15 221.5,-1041 218.7,-1036.34 215.86,-1031.58 213,-1026.76"/>
<polygon fill="none" stroke="#8b1a1a" points="235.77,-1070.78 244.08,-1077.36 241.69,-1067.04 235.77,-1070.78"/>
</g>
<!-- Node9 -->
<g id="node9" class="node">
<title>Node9</title>
<g id="a_node9"><a xlink:href="classAnimationMachine.html" target="_top" xlink:title="Component of Entity that holds the animation data, can be used to replace the sprite of the entity.">
<polygon fill="white" stroke="#666666" points="231,-840.5 231,-974.5 358,-974.5 358,-840.5 231,-840.5"/>
<text text-anchor="middle" x="294.5" y="-962.5" font-family="Helvetica,sans-Serif" font-size="10.00">AnimationMachine</text>
<polyline fill="none" stroke="#666666" points="231,-955.5 358,-955.5"/>
<text text-anchor="middle" x="294.5" y="-943.5" font-family="Helvetica,sans-Serif" font-size="10.00"> </text>
<polyline fill="none" stroke="#666666" points="231,-936.5 358,-936.5"/>
<text text-anchor="start" x="239" y="-924.5" font-family="Helvetica,sans-Serif" font-size="10.00">+ AnimationMachine()</text>
<text text-anchor="start" x="239" y="-913.5" font-family="Helvetica,sans-Serif" font-size="10.00">+ AnimationMachine()</text>
<text text-anchor="start" x="239" y="-902.5" font-family="Helvetica,sans-Serif" font-size="10.00">+ update()</text>
<text text-anchor="start" x="239" y="-891.5" font-family="Helvetica,sans-Serif" font-size="10.00">+ toSprite()</text>
<text text-anchor="start" x="239" y="-880.5" font-family="Helvetica,sans-Serif" font-size="10.00">+ isFinished()</text>
<text text-anchor="start" x="239" y="-869.5" font-family="Helvetica,sans-Serif" font-size="10.00">+ getID()</text>
<text text-anchor="start" x="239" y="-858.5" font-family="Helvetica,sans-Serif" font-size="10.00">+ save()</text>
<text text-anchor="start" x="239" y="-847.5" font-family="Helvetica,sans-Serif" font-size="10.00">+ load()</text>
</a>
</g>
</g>
<!-- Node9&#45;&gt;Node4 -->
<g id="edge8" class="edge">
<title>Node9&#45;&gt;Node4</title>
<path fill="none" stroke="#404040" d="M278.13,-840.82C270.65,-810.8 261.51,-774.09 252.69,-738.69"/>
<polygon fill="none" stroke="#404040" points="252.7,-738.75 247.37,-733.89 249.8,-727.1 255.13,-731.96 252.7,-738.75"/>
<text text-anchor="middle" x="288" y="-748" font-family="Helvetica,sans-Serif" font-size="10.00"> #animation</text>
</g>
</g>
</svg>
