<?xml version="1.0" encoding="UTF-8" standalone="no"?>
<!DOCTYPE svg PUBLIC "-//W3C//DTD SVG 1.1//EN"
 "http://www.w3.org/Graphics/SVG/1.1/DTD/svg11.dtd">
<!-- Generated by graphviz version 7.0.5 (0)
 -->
<!-- Title: Lane Pages: 1 -->
<svg width="874pt" height="1102pt"
 viewBox="0.00 0.00 873.50 1102.00" xmlns="http://www.w3.org/2000/svg" xmlns:xlink="http://www.w3.org/1999/xlink">
<g id="graph0" class="graph" transform="scale(1 1) rotate(0) translate(4 1098)">
<title>Lane</title>
<!-- Node1 -->
<g id="node1" class="node">
<title>Node1</title>
<g id="a_node1"><a xlink:title=" ">
<polygon fill="#999999" stroke="#666666" points="324,-617.5 324,-696.5 431,-696.5 431,-617.5 324,-617.5"/>
<text text-anchor="middle" x="377.5" y="-684.5" font-family="Helvetica,sans-Serif" font-size="10.00">Lane</text>
<polyline fill="none" stroke="#666666" points="324,-677.5 431,-677.5"/>
<text text-anchor="middle" x="377.5" y="-665.5" font-family="Helvetica,sans-Serif" font-size="10.00"> </text>
<polyline fill="none" stroke="#666666" points="324,-658.5 431,-658.5"/>
<text text-anchor="start" x="332" y="-646.5" font-family="Helvetica,sans-Serif" font-size="10.00">+ setPosY()</text>
<text text-anchor="start" x="332" y="-635.5" font-family="Helvetica,sans-Serif" font-size="10.00">+ setLaneHeight()</text>
<text text-anchor="start" x="332" y="-624.5" font-family="Helvetica,sans-Serif" font-size="10.00">+ getClassName()</text>
</a>
</g>
</g>
<!-- Node6 -->
<g id="node6" class="node">
<title>Node6</title>
<g id="a_node6"><a xlink:href="classRoadLane.html" target="_top" xlink:title=" ">
<polygon fill="white" stroke="#bfbfbf" points="230.5,-226.5 230.5,-580.5 368.5,-580.5 368.5,-226.5 230.5,-226.5"/>
<text text-anchor="middle" x="299.5" y="-568.5" font-family="Helvetica,sans-Serif" font-size="10.00">RoadLane</text>
<polyline fill="none" stroke="#bfbfbf" points="230.5,-561.5 368.5,-561.5"/>
<text text-anchor="start" x="238.5" y="-549.5" font-family="Helvetica,sans-Serif" font-size="10.00"># speedX</text>
<text text-anchor="start" x="238.5" y="-538.5" font-family="Helvetica,sans-Serif" font-size="10.00"># direction</text>
<text text-anchor="start" x="238.5" y="-527.5" font-family="Helvetica,sans-Serif" font-size="10.00"># frequency</text>
<text text-anchor="start" x="238.5" y="-516.5" font-family="Helvetica,sans-Serif" font-size="10.00"># timer</text>
<text text-anchor="start" x="238.5" y="-505.5" font-family="Helvetica,sans-Serif" font-size="10.00"># laneTexture</text>
<text text-anchor="start" x="238.5" y="-494.5" font-family="Helvetica,sans-Serif" font-size="10.00"># height</text>
<text text-anchor="start" x="238.5" y="-483.5" font-family="Helvetica,sans-Serif" font-size="10.00"># commuterTexture</text>
<text text-anchor="start" x="238.5" y="-472.5" font-family="Helvetica,sans-Serif" font-size="10.00"># commuterSize</text>
<text text-anchor="start" x="238.5" y="-461.5" font-family="Helvetica,sans-Serif" font-size="10.00"># commuters</text>
<polyline fill="none" stroke="#bfbfbf" points="230.5,-454.5 368.5,-454.5"/>
<text text-anchor="start" x="238.5" y="-442.5" font-family="Helvetica,sans-Serif" font-size="10.00">+ RoadLane()</text>
<text text-anchor="start" x="238.5" y="-431.5" font-family="Helvetica,sans-Serif" font-size="10.00">+ RoadLane()</text>
<text text-anchor="start" x="238.5" y="-420.5" font-family="Helvetica,sans-Serif" font-size="10.00">+ RoadLane()</text>
<text text-anchor="start" x="238.5" y="-409.5" font-family="Helvetica,sans-Serif" font-size="10.00">+ getType()</text>
<text text-anchor="start" x="238.5" y="-398.5" font-family="Helvetica,sans-Serif" font-size="10.00">+ getDirection()</text>
<text text-anchor="start" x="238.5" y="-387.5" font-family="Helvetica,sans-Serif" font-size="10.00">+ getLocalBounds()</text>
<text text-anchor="start" x="238.5" y="-376.5" font-family="Helvetica,sans-Serif" font-size="10.00">+ setPosY()</text>
<text text-anchor="start" x="238.5" y="-365.5" font-family="Helvetica,sans-Serif" font-size="10.00">+ setLaneHeight()</text>
<text text-anchor="start" x="238.5" y="-354.5" font-family="Helvetica,sans-Serif" font-size="10.00">+ setCommuterTexture()</text>
<text text-anchor="start" x="238.5" y="-343.5" font-family="Helvetica,sans-Serif" font-size="10.00">+ setLaneTexture()</text>
<text text-anchor="start" x="238.5" y="-332.5" font-family="Helvetica,sans-Serif" font-size="10.00">+ setCommuterSize()</text>
<text text-anchor="start" x="238.5" y="-321.5" font-family="Helvetica,sans-Serif" font-size="10.00">+ setDirection()</text>
<text text-anchor="start" x="238.5" y="-310.5" font-family="Helvetica,sans-Serif" font-size="10.00">+ setSpeed()</text>
<text text-anchor="start" x="238.5" y="-299.5" font-family="Helvetica,sans-Serif" font-size="10.00">+ setFrequency()</text>
<text text-anchor="start" x="238.5" y="-288.5" font-family="Helvetica,sans-Serif" font-size="10.00">+ getClassName()</text>
<text text-anchor="start" x="238.5" y="-277.5" font-family="Helvetica,sans-Serif" font-size="10.00"># newCommuter()</text>
<text text-anchor="start" x="238.5" y="-266.5" font-family="Helvetica,sans-Serif" font-size="10.00"># updateCommuters()</text>
<text text-anchor="start" x="238.5" y="-255.5" font-family="Helvetica,sans-Serif" font-size="10.00"># getVelocity()</text>
<text text-anchor="start" x="238.5" y="-244.5" font-family="Helvetica,sans-Serif" font-size="10.00"># updateCurrent()</text>
<text text-anchor="start" x="238.5" y="-233.5" font-family="Helvetica,sans-Serif" font-size="10.00"># drawCurrent()</text>
</a>
</g>
</g>
<!-- Node1&#45;&gt;Node6 -->
<g id="edge5" class="edge">
<title>Node1&#45;&gt;Node6</title>
<path fill="none" stroke="#63b8ff" d="M362.24,-606.79C359.69,-598.57 356.92,-589.66 354.02,-580.3"/>
<polygon fill="none" stroke="#63b8ff" points="358.82,-607.57 365.12,-616.08 365.5,-605.5 358.82,-607.57"/>
</g>
<!-- Node10 -->
<g id="node10" class="node">
<title>Node10</title>
<g id="a_node10"><a xlink:href="classRoadLaneController.html" target="_top" xlink:title=" ">
<polygon fill="white" stroke="#bfbfbf" points="460,-270.5 460,-536.5 597,-536.5 597,-270.5 460,-270.5"/>
<text text-anchor="middle" x="528.5" y="-524.5" font-family="Helvetica,sans-Serif" font-size="10.00">RoadLaneController</text>
<polyline fill="none" stroke="#bfbfbf" points="460,-517.5 597,-517.5"/>
<text text-anchor="start" x="468" y="-505.5" font-family="Helvetica,sans-Serif" font-size="10.00"># lanes</text>
<text text-anchor="start" x="468" y="-494.5" font-family="Helvetica,sans-Serif" font-size="10.00"># laneCount</text>
<text text-anchor="start" x="468" y="-483.5" font-family="Helvetica,sans-Serif" font-size="10.00"># laneHeight</text>
<text text-anchor="start" x="468" y="-472.5" font-family="Helvetica,sans-Serif" font-size="10.00"># commuterSize</text>
<text text-anchor="start" x="468" y="-461.5" font-family="Helvetica,sans-Serif" font-size="10.00"># speedDistribution</text>
<text text-anchor="start" x="468" y="-450.5" font-family="Helvetica,sans-Serif" font-size="10.00"># frequencyFunction</text>
<polyline fill="none" stroke="#bfbfbf" points="460,-443.5 597,-443.5"/>
<text text-anchor="start" x="468" y="-431.5" font-family="Helvetica,sans-Serif" font-size="10.00">+ RoadLaneController()</text>
<text text-anchor="start" x="468" y="-420.5" font-family="Helvetica,sans-Serif" font-size="10.00">+ RoadLaneController()</text>
<text text-anchor="start" x="468" y="-409.5" font-family="Helvetica,sans-Serif" font-size="10.00">+ RoadLaneController()</text>
<text text-anchor="start" x="468" y="-398.5" font-family="Helvetica,sans-Serif" font-size="10.00">+ getType()</text>
<text text-anchor="start" x="468" y="-387.5" font-family="Helvetica,sans-Serif" font-size="10.00">+ build()</text>
<text text-anchor="start" x="468" y="-376.5" font-family="Helvetica,sans-Serif" font-size="10.00">+ setLaneHeight()</text>
<text text-anchor="start" x="468" y="-365.5" font-family="Helvetica,sans-Serif" font-size="10.00">+ setPosY()</text>
<text text-anchor="start" x="468" y="-354.5" font-family="Helvetica,sans-Serif" font-size="10.00">+ setCommuterSize()</text>
<text text-anchor="start" x="468" y="-343.5" font-family="Helvetica,sans-Serif" font-size="10.00">+ getClassName()</text>
<text text-anchor="start" x="468" y="-332.5" font-family="Helvetica,sans-Serif" font-size="10.00">+ saveCurrentNode()</text>
<text text-anchor="start" x="468" y="-321.5" font-family="Helvetica,sans-Serif" font-size="10.00">+ loadCurrentNode()</text>
<text text-anchor="start" x="468" y="-310.5" font-family="Helvetica,sans-Serif" font-size="10.00">+ setLaneCount()</text>
<text text-anchor="start" x="468" y="-299.5" font-family="Helvetica,sans-Serif" font-size="10.00">+ setSpeedDistribution()</text>
<text text-anchor="start" x="468" y="-288.5" font-family="Helvetica,sans-Serif" font-size="10.00">+ onLoadingFinished()</text>
<text text-anchor="start" x="468" y="-277.5" font-family="Helvetica,sans-Serif" font-size="10.00"># newLane()</text>
</a>
</g>
</g>
<!-- Node1&#45;&gt;Node10 -->
<g id="edge9" class="edge">
<title>Node1&#45;&gt;Node10</title>
<path fill="none" stroke="#63b8ff" d="M406.46,-607.76C421.77,-582.27 441.26,-549.8 460.15,-518.34"/>
<polygon fill="none" stroke="#63b8ff" points="403.52,-605.86 401.38,-616.23 409.53,-609.46 403.52,-605.86"/>
</g>
<!-- Node2 -->
<g id="node2" class="node">
<title>Node2</title>
<g id="a_node2"><a xlink:href="classSceneNode.html" target="_top" xlink:title="A node in the scene graph.">
<polygon fill="white" stroke="#666666" points="310,-733.5 310,-999.5 445,-999.5 445,-733.5 310,-733.5"/>
<text text-anchor="middle" x="377.5" y="-987.5" font-family="Helvetica,sans-Serif" font-size="10.00">SceneNode</text>
<polyline fill="none" stroke="#666666" points="310,-980.5 445,-980.5"/>
<text text-anchor="middle" x="377.5" y="-968.5" font-family="Helvetica,sans-Serif" font-size="10.00"> </text>
<polyline fill="none" stroke="#666666" points="310,-961.5 445,-961.5"/>
<text text-anchor="start" x="318" y="-949.5" font-family="Helvetica,sans-Serif" font-size="10.00">+ SceneNode()</text>
<text text-anchor="start" x="318" y="-938.5" font-family="Helvetica,sans-Serif" font-size="10.00">+ attachChild()</text>
<text text-anchor="start" x="318" y="-927.5" font-family="Helvetica,sans-Serif" font-size="10.00">+ detachChild()</text>
<text text-anchor="start" x="318" y="-916.5" font-family="Helvetica,sans-Serif" font-size="10.00">+ update()</text>
<text text-anchor="start" x="318" y="-905.5" font-family="Helvetica,sans-Serif" font-size="10.00">+ getAbsTransform()</text>
<text text-anchor="start" x="318" y="-894.5" font-family="Helvetica,sans-Serif" font-size="10.00">+ getAbsPosition()</text>
<text text-anchor="start" x="318" y="-883.5" font-family="Helvetica,sans-Serif" font-size="10.00">+ checkNodeCollision()</text>
<text text-anchor="start" x="318" y="-872.5" font-family="Helvetica,sans-Serif" font-size="10.00">+ checkSceneCollision()</text>
<text text-anchor="start" x="318" y="-861.5" font-family="Helvetica,sans-Serif" font-size="10.00">+ setDebug()</text>
<text text-anchor="start" x="318" y="-850.5" font-family="Helvetica,sans-Serif" font-size="10.00">+ getCategory()</text>
<text text-anchor="start" x="318" y="-839.5" font-family="Helvetica,sans-Serif" font-size="10.00">+ saveNode()</text>
<text text-anchor="start" x="318" y="-828.5" font-family="Helvetica,sans-Serif" font-size="10.00">+ operator&lt;()</text>
<text text-anchor="start" x="318" y="-817.5" font-family="Helvetica,sans-Serif" font-size="10.00">+ getBoundingRect()</text>
<text text-anchor="start" x="318" y="-806.5" font-family="Helvetica,sans-Serif" font-size="10.00">+ getLocalBounds()</text>
<text text-anchor="start" x="318" y="-795.5" font-family="Helvetica,sans-Serif" font-size="10.00">+ draw()</text>
<text text-anchor="start" x="318" y="-784.5" font-family="Helvetica,sans-Serif" font-size="10.00"># getClassName()</text>
<text text-anchor="start" x="318" y="-773.5" font-family="Helvetica,sans-Serif" font-size="10.00"># saveCurrentNode()</text>
<text text-anchor="start" x="318" y="-762.5" font-family="Helvetica,sans-Serif" font-size="10.00"># loadCurrentNode()</text>
<text text-anchor="start" x="318" y="-751.5" font-family="Helvetica,sans-Serif" font-size="10.00"># onLoadingFinished()</text>
<text text-anchor="start" x="318" y="-740.5" font-family="Helvetica,sans-Serif" font-size="10.00"># shouldSave()</text>
</a>
</g>
</g>
<!-- Node2&#45;&gt;Node1 -->
<g id="edge1" class="edge">
<title>Node2&#45;&gt;Node1</title>
<path fill="none" stroke="#63b8ff" d="M377.5,-722.31C377.5,-713.07 377.5,-704.32 377.5,-696.43"/>
<polygon fill="none" stroke="#63b8ff" points="374,-722.28 377.5,-732.28 381,-722.28 374,-722.28"/>
</g>
<!-- Node3 -->
<g id="node3" class="node">
<title>Node3</title>
<g id="a_node3"><a xlink:title=" ">
<polygon fill="white" stroke="#bfbfbf" points="232,-1036.5 232,-1093.5 309,-1093.5 309,-1036.5 232,-1036.5"/>
<text text-anchor="middle" x="270.5" y="-1081.5" font-family="Helvetica,sans-Serif" font-size="10.00">sf::Drawable</text>
<polyline fill="none" stroke="#bfbfbf" points="232,-1074.5 309,-1074.5"/>
<text text-anchor="middle" x="270.5" y="-1062.5" font-family="Helvetica,sans-Serif" font-size="10.00"> </text>
<polyline fill="none" stroke="#bfbfbf" points="232,-1055.5 309,-1055.5"/>
<text text-anchor="middle" x="270.5" y="-1043.5" font-family="Helvetica,sans-Serif" font-size="10.00"> </text>
</a>
</g>
</g>
<!-- Node3&#45;&gt;Node2 -->
<g id="edge2" class="edge">
<title>Node3&#45;&gt;Node2</title>
<path fill="none" stroke="#63b8ff" d="M290.82,-1026.68C296.57,-1016.13 303.15,-1004.04 310.07,-991.33"/>
<polygon fill="none" stroke="#63b8ff" points="287.81,-1024.89 286.1,-1035.35 293.96,-1028.24 287.81,-1024.89"/>
</g>
<!-- Node4 -->
<g id="node4" class="node">
<title>Node4</title>
<g id="a_node4"><a xlink:title=" ">
<polygon fill="white" stroke="#bfbfbf" points="327,-1036.5 327,-1093.5 428,-1093.5 428,-1036.5 327,-1036.5"/>
<text text-anchor="middle" x="377.5" y="-1081.5" font-family="Helvetica,sans-Serif" font-size="10.00">sf::Transformable</text>
<polyline fill="none" stroke="#bfbfbf" points="327,-1074.5 428,-1074.5"/>
<text text-anchor="middle" x="377.5" y="-1062.5" font-family="Helvetica,sans-Serif" font-size="10.00"> </text>
<polyline fill="none" stroke="#bfbfbf" points="327,-1055.5 428,-1055.5"/>
<text text-anchor="middle" x="377.5" y="-1043.5" font-family="Helvetica,sans-Serif" font-size="10.00"> </text>
</a>
</g>
</g>
<!-- Node4&#45;&gt;Node2 -->
<g id="edge3" class="edge">
<title>Node4&#45;&gt;Node2</title>
<path fill="none" stroke="#63b8ff" d="M377.5,-1025.31C377.5,-1017.36 377.5,-1008.58 377.5,-999.35"/>
<polygon fill="none" stroke="#63b8ff" points="374,-1025.16 377.5,-1035.16 381,-1025.16 374,-1025.16"/>
</g>
<!-- Node5 -->
<g id="node5" class="node">
<title>Node5</title>
<g id="a_node5"><a xlink:title=" ">
<polygon fill="white" stroke="#bfbfbf" points="446.5,-1036.5 446.5,-1093.5 542.5,-1093.5 542.5,-1036.5 446.5,-1036.5"/>
<text text-anchor="middle" x="494.5" y="-1081.5" font-family="Helvetica,sans-Serif" font-size="10.00">sf::NonCopyable</text>
<polyline fill="none" stroke="#bfbfbf" points="446.5,-1074.5 542.5,-1074.5"/>
<text text-anchor="middle" x="494.5" y="-1062.5" font-family="Helvetica,sans-Serif" font-size="10.00"> </text>
<polyline fill="none" stroke="#bfbfbf" points="446.5,-1055.5 542.5,-1055.5"/>
<text text-anchor="middle" x="494.5" y="-1043.5" font-family="Helvetica,sans-Serif" font-size="10.00"> </text>
</a>
</g>
</g>
<!-- Node5&#45;&gt;Node2 -->
<g id="edge4" class="edge">
<title>Node5&#45;&gt;Node2</title>
<path fill="none" stroke="#8b1a1a" d="M472.38,-1026.86C464.32,-1013.32 454.73,-997.21 444.8,-980.52"/>
<polygon fill="none" stroke="#8b1a1a" points="469.33,-1028.58 477.46,-1035.38 475.35,-1024.99 469.33,-1028.58"/>
</g>
<!-- Node7 -->
<g id="node7" class="node">
<title>Node7</title>
<g id="a_node7"><a xlink:href="classAnimalLane.html" target="_top" xlink:title=" ">
<polygon fill="white" stroke="#bfbfbf" points="0,-44.5 0,-145.5 107,-145.5 107,-44.5 0,-44.5"/>
<text text-anchor="middle" x="53.5" y="-133.5" font-family="Helvetica,sans-Serif" font-size="10.00">AnimalLane</text>
<polyline fill="none" stroke="#bfbfbf" points="0,-126.5 107,-126.5"/>
<text text-anchor="middle" x="53.5" y="-114.5" font-family="Helvetica,sans-Serif" font-size="10.00"> </text>
<polyline fill="none" stroke="#bfbfbf" points="0,-107.5 107,-107.5"/>
<text text-anchor="start" x="8" y="-95.5" font-family="Helvetica,sans-Serif" font-size="10.00">+ getType()</text>
<text text-anchor="start" x="8" y="-84.5" font-family="Helvetica,sans-Serif" font-size="10.00">+ getClassName()</text>
<text text-anchor="start" x="8" y="-73.5" font-family="Helvetica,sans-Serif" font-size="10.00">+ RoadLane()</text>
<text text-anchor="start" x="8" y="-62.5" font-family="Helvetica,sans-Serif" font-size="10.00">+ RoadLane()</text>
<text text-anchor="start" x="8" y="-51.5" font-family="Helvetica,sans-Serif" font-size="10.00">+ RoadLane()</text>
</a>
</g>
</g>
<!-- Node6&#45;&gt;Node7 -->
<g id="edge6" class="edge">
<title>Node6&#45;&gt;Node7</title>
<path fill="none" stroke="#63b8ff" d="M223.15,-318.59C189.36,-280.27 149.81,-233.76 116.5,-190 105.67,-175.78 94.58,-159.79 84.78,-145.08"/>
<polygon fill="none" stroke="#63b8ff" points="220.46,-320.84 229.71,-326.01 225.7,-316.2 220.46,-320.84"/>
</g>
<!-- Node8 -->
<g id="node8" class="node">
<title>Node8</title>
<g id="a_node8"><a xlink:href="classVehicleLane.html" target="_top" xlink:title=" ">
<polygon fill="white" stroke="#bfbfbf" points="125.5,-33.5 125.5,-156.5 251.5,-156.5 251.5,-33.5 125.5,-33.5"/>
<text text-anchor="middle" x="188.5" y="-144.5" font-family="Helvetica,sans-Serif" font-size="10.00">VehicleLane</text>
<polyline fill="none" stroke="#bfbfbf" points="125.5,-137.5 251.5,-137.5"/>
<text text-anchor="middle" x="188.5" y="-125.5" font-family="Helvetica,sans-Serif" font-size="10.00"> </text>
<polyline fill="none" stroke="#bfbfbf" points="125.5,-118.5 251.5,-118.5"/>
<text text-anchor="start" x="133.5" y="-106.5" font-family="Helvetica,sans-Serif" font-size="10.00">+ getType()</text>
<text text-anchor="start" x="133.5" y="-95.5" font-family="Helvetica,sans-Serif" font-size="10.00">+ onLightChanged()</text>
<text text-anchor="start" x="133.5" y="-84.5" font-family="Helvetica,sans-Serif" font-size="10.00">+ getClassName()</text>
<text text-anchor="start" x="133.5" y="-73.5" font-family="Helvetica,sans-Serif" font-size="10.00">+ RoadLane()</text>
<text text-anchor="start" x="133.5" y="-62.5" font-family="Helvetica,sans-Serif" font-size="10.00">+ RoadLane()</text>
<text text-anchor="start" x="133.5" y="-51.5" font-family="Helvetica,sans-Serif" font-size="10.00">+ RoadLane()</text>
<text text-anchor="start" x="133.5" y="-40.5" font-family="Helvetica,sans-Serif" font-size="10.00"># updateCommuters()</text>
</a>
</g>
</g>
<!-- Node6&#45;&gt;Node8 -->
<g id="edge7" class="edge">
<title>Node6&#45;&gt;Node8</title>
<path fill="none" stroke="#63b8ff" d="M232.05,-216.26C224.28,-194.79 216.83,-174.22 210.36,-156.36"/>
<polygon fill="none" stroke="#63b8ff" points="228.68,-217.24 235.38,-225.45 235.27,-214.86 228.68,-217.24"/>
</g>
<!-- Node9 -->
<g id="node9" class="node">
<title>Node9</title>
<g id="a_node9"><a xlink:href="classWoodLane.html" target="_top" xlink:title=" ">
<polygon fill="white" stroke="#bfbfbf" points="270,-28 270,-162 407,-162 407,-28 270,-28"/>
<text text-anchor="middle" x="338.5" y="-150" font-family="Helvetica,sans-Serif" font-size="10.00">WoodLane</text>
<polyline fill="none" stroke="#bfbfbf" points="270,-143 407,-143"/>
<text text-anchor="middle" x="338.5" y="-131" font-family="Helvetica,sans-Serif" font-size="10.00"> </text>
<polyline fill="none" stroke="#bfbfbf" points="270,-124 407,-124"/>
<text text-anchor="start" x="278" y="-112" font-family="Helvetica,sans-Serif" font-size="10.00">+ WoodLane()</text>
<text text-anchor="start" x="278" y="-101" font-family="Helvetica,sans-Serif" font-size="10.00">+ WoodLane()</text>
<text text-anchor="start" x="278" y="-90" font-family="Helvetica,sans-Serif" font-size="10.00">+ WoodLane()</text>
<text text-anchor="start" x="278" y="-79" font-family="Helvetica,sans-Serif" font-size="10.00">+ getType()</text>
<text text-anchor="start" x="278" y="-68" font-family="Helvetica,sans-Serif" font-size="10.00">+ getClassName()</text>
<text text-anchor="start" x="278" y="-57" font-family="Helvetica,sans-Serif" font-size="10.00">+ getCategory()</text>
<text text-anchor="start" x="278" y="-46" font-family="Helvetica,sans-Serif" font-size="10.00">+ setMaxWaterWidth()</text>
<text text-anchor="start" x="278" y="-35" font-family="Helvetica,sans-Serif" font-size="10.00">+ spawnWaterInMiddle()</text>
</a>
</g>
</g>
<!-- Node6&#45;&gt;Node9 -->
<g id="edge8" class="edge">
<title>Node6&#45;&gt;Node9</title>
<path fill="none" stroke="#63b8ff" d="M323.29,-215.55C325.72,-196.45 328.06,-178.08 330.14,-161.71"/>
<polygon fill="none" stroke="#63b8ff" points="319.83,-215.01 322.04,-225.37 326.77,-215.89 319.83,-215.01"/>
</g>
<!-- Node11 -->
<g id="node11" class="node">
<title>Node11</title>
<g id="a_node11"><a xlink:href="classAnimalLaneController.html" target="_top" xlink:title=" ">
<polygon fill="white" stroke="#bfbfbf" points="425,-39 425,-151 556,-151 556,-39 425,-39"/>
<text text-anchor="middle" x="490.5" y="-139" font-family="Helvetica,sans-Serif" font-size="10.00">AnimalLaneController</text>
<polyline fill="none" stroke="#bfbfbf" points="425,-132 556,-132"/>
<text text-anchor="middle" x="490.5" y="-120" font-family="Helvetica,sans-Serif" font-size="10.00"> </text>
<polyline fill="none" stroke="#bfbfbf" points="425,-113 556,-113"/>
<text text-anchor="start" x="433" y="-101" font-family="Helvetica,sans-Serif" font-size="10.00">+ getType()</text>
<text text-anchor="start" x="433" y="-90" font-family="Helvetica,sans-Serif" font-size="10.00">+ getClassName()</text>
<text text-anchor="start" x="433" y="-79" font-family="Helvetica,sans-Serif" font-size="10.00">+ RoadLaneController()</text>
<text text-anchor="start" x="433" y="-68" font-family="Helvetica,sans-Serif" font-size="10.00">+ RoadLaneController()</text>
<text text-anchor="start" x="433" y="-57" font-family="Helvetica,sans-Serif" font-size="10.00">+ RoadLaneController()</text>
<text text-anchor="start" x="433" y="-46" font-family="Helvetica,sans-Serif" font-size="10.00"># newLane()</text>
</a>
</g>
</g>
<!-- Node10&#45;&gt;Node11 -->
<g id="edge10" class="edge">
<title>Node10&#45;&gt;Node11</title>
<path fill="none" stroke="#63b8ff" d="M510.75,-259.32C505.96,-220.66 501.06,-181.14 497.28,-150.66"/>
<polygon fill="none" stroke="#63b8ff" points="507.27,-259.74 511.98,-269.24 514.22,-258.88 507.27,-259.74"/>
</g>
<!-- Node12 -->
<g id="node12" class="node">
<title>Node12</title>
<g id="a_node12"><a xlink:href="classRiverController.html" target="_top" xlink:title=" ">
<polygon fill="white" stroke="#bfbfbf" points="574,-28 574,-162 705,-162 705,-28 574,-28"/>
<text text-anchor="middle" x="639.5" y="-150" font-family="Helvetica,sans-Serif" font-size="10.00">RiverController</text>
<polyline fill="none" stroke="#bfbfbf" points="574,-143 705,-143"/>
<text text-anchor="middle" x="639.5" y="-131" font-family="Helvetica,sans-Serif" font-size="10.00"> </text>
<polyline fill="none" stroke="#bfbfbf" points="574,-124 705,-124"/>
<text text-anchor="start" x="582" y="-112" font-family="Helvetica,sans-Serif" font-size="10.00">+ getType()</text>
<text text-anchor="start" x="582" y="-101" font-family="Helvetica,sans-Serif" font-size="10.00">+ getClassName()</text>
<text text-anchor="start" x="582" y="-90" font-family="Helvetica,sans-Serif" font-size="10.00">+ saveCurrentNode()</text>
<text text-anchor="start" x="582" y="-79" font-family="Helvetica,sans-Serif" font-size="10.00">+ loadCurrentNode()</text>
<text text-anchor="start" x="582" y="-68" font-family="Helvetica,sans-Serif" font-size="10.00">+ RoadLaneController()</text>
<text text-anchor="start" x="582" y="-57" font-family="Helvetica,sans-Serif" font-size="10.00">+ RoadLaneController()</text>
<text text-anchor="start" x="582" y="-46" font-family="Helvetica,sans-Serif" font-size="10.00">+ RoadLaneController()</text>
<text text-anchor="start" x="582" y="-35" font-family="Helvetica,sans-Serif" font-size="10.00"># newLane()</text>
</a>
</g>
</g>
<!-- Node10&#45;&gt;Node12 -->
<g id="edge11" class="edge">
<title>Node10&#45;&gt;Node12</title>
<path fill="none" stroke="#63b8ff" d="M580.07,-260.11C592.5,-225.77 605.2,-190.7 615.65,-161.85"/>
<polygon fill="none" stroke="#63b8ff" points="576.85,-258.72 576.73,-269.31 583.43,-261.1 576.85,-258.72"/>
</g>
<!-- Node13 -->
<g id="node13" class="node">
<title>Node13</title>
<g id="a_node13"><a xlink:href="classVehicleLaneController.html" target="_top" xlink:title=" ">
<polygon fill="white" stroke="#bfbfbf" points="723.5,-0.5 723.5,-189.5 865.5,-189.5 865.5,-0.5 723.5,-0.5"/>
<text text-anchor="middle" x="794.5" y="-177.5" font-family="Helvetica,sans-Serif" font-size="10.00">VehicleLaneController</text>
<polyline fill="none" stroke="#bfbfbf" points="723.5,-170.5 865.5,-170.5"/>
<text text-anchor="middle" x="794.5" y="-158.5" font-family="Helvetica,sans-Serif" font-size="10.00"> </text>
<polyline fill="none" stroke="#bfbfbf" points="723.5,-151.5 865.5,-151.5"/>
<text text-anchor="start" x="731.5" y="-139.5" font-family="Helvetica,sans-Serif" font-size="10.00">+ VehicleLaneController()</text>
<text text-anchor="start" x="731.5" y="-128.5" font-family="Helvetica,sans-Serif" font-size="10.00">+ VehicleLaneController()</text>
<text text-anchor="start" x="731.5" y="-117.5" font-family="Helvetica,sans-Serif" font-size="10.00">+ getType()</text>
<text text-anchor="start" x="731.5" y="-106.5" font-family="Helvetica,sans-Serif" font-size="10.00">+ setRedDuration()</text>
<text text-anchor="start" x="731.5" y="-95.5" font-family="Helvetica,sans-Serif" font-size="10.00">+ setGreenDuration()</text>
<text text-anchor="start" x="731.5" y="-84.5" font-family="Helvetica,sans-Serif" font-size="10.00">+ build()</text>
<text text-anchor="start" x="731.5" y="-73.5" font-family="Helvetica,sans-Serif" font-size="10.00">+ getClassName()</text>
<text text-anchor="start" x="731.5" y="-62.5" font-family="Helvetica,sans-Serif" font-size="10.00">+ saveCurrentNode()</text>
<text text-anchor="start" x="731.5" y="-51.5" font-family="Helvetica,sans-Serif" font-size="10.00">+ loadCurrentNode()</text>
<text text-anchor="start" x="731.5" y="-40.5" font-family="Helvetica,sans-Serif" font-size="10.00">+ RoadLaneController()</text>
<text text-anchor="start" x="731.5" y="-29.5" font-family="Helvetica,sans-Serif" font-size="10.00">+ RoadLaneController()</text>
<text text-anchor="start" x="731.5" y="-18.5" font-family="Helvetica,sans-Serif" font-size="10.00">+ RoadLaneController()</text>
<text text-anchor="start" x="731.5" y="-7.5" font-family="Helvetica,sans-Serif" font-size="10.00"># newLane()</text>
</a>
</g>
</g>
<!-- Node10&#45;&gt;Node13 -->
<g id="edge12" class="edge">
<title>Node10&#45;&gt;Node13</title>
<path fill="none" stroke="#63b8ff" d="M604.35,-316.4C638.18,-277.84 678.46,-231.75 714.5,-190 717.51,-186.51 720.58,-182.95 723.68,-179.34"/>
<polygon fill="none" stroke="#63b8ff" points="601.75,-314.05 597.78,-323.87 607.01,-318.67 601.75,-314.05"/>
</g>
</g>
</svg>
