<?xml version="1.0" encoding="UTF-8" standalone="no"?>
<!DOCTYPE svg PUBLIC "-//W3C//DTD SVG 1.1//EN"
 "http://www.w3.org/Graphics/SVG/1.1/DTD/svg11.dtd">
<!-- Generated by graphviz version 7.0.5 (0)
 -->
<!-- Title: PlayerState Pages: 1 -->
<svg width="366pt" height="1027pt"
 viewBox="0.00 0.00 366.00 1027.00" xmlns="http://www.w3.org/2000/svg" xmlns:xlink="http://www.w3.org/1999/xlink">
<g id="graph0" class="graph" transform="scale(1 1) rotate(0) translate(4 1023)">
<title>PlayerState</title>
<!-- Node1 -->
<g id="node1" class="node">
<title>Node1</title>
<g id="a_node1"><a xlink:title=" ">
<polygon fill="#999999" stroke="#666666" points="169.5,-0.5 169.5,-90.5 269.5,-90.5 269.5,-0.5 169.5,-0.5"/>
<text text-anchor="middle" x="219.5" y="-78.5" font-family="Helvetica,sans-Serif" font-size="10.00">PlayerState</text>
<polyline fill="none" stroke="#666666" points="169.5,-71.5 269.5,-71.5"/>
<text text-anchor="middle" x="219.5" y="-59.5" font-family="Helvetica,sans-Serif" font-size="10.00"> </text>
<polyline fill="none" stroke="#666666" points="169.5,-52.5 269.5,-52.5"/>
<text text-anchor="start" x="177.5" y="-40.5" font-family="Helvetica,sans-Serif" font-size="10.00">+ PlayerState()</text>
<text text-anchor="start" x="177.5" y="-29.5" font-family="Helvetica,sans-Serif" font-size="10.00">+ ~PlayerState()</text>
<text text-anchor="start" x="177.5" y="-18.5" font-family="Helvetica,sans-Serif" font-size="10.00">+ update()</text>
<text text-anchor="start" x="177.5" y="-7.5" font-family="Helvetica,sans-Serif" font-size="10.00">+ getStateID()</text>
</a>
</g>
</g>
<!-- Node2 -->
<g id="node2" class="node">
<title>Node2</title>
<g id="a_node2"><a xlink:href="classPlayer.html" target="_top" xlink:title=" ">
<polygon fill="white" stroke="#bfbfbf" points="163,-138.5 163,-327.5 276,-327.5 276,-138.5 163,-138.5"/>
<text text-anchor="middle" x="219.5" y="-315.5" font-family="Helvetica,sans-Serif" font-size="10.00">Player</text>
<polyline fill="none" stroke="#bfbfbf" points="163,-308.5 276,-308.5"/>
<text text-anchor="middle" x="219.5" y="-296.5" font-family="Helvetica,sans-Serif" font-size="10.00"> </text>
<polyline fill="none" stroke="#bfbfbf" points="163,-289.5 276,-289.5"/>
<text text-anchor="start" x="171" y="-277.5" font-family="Helvetica,sans-Serif" font-size="10.00">+ Player()</text>
<text text-anchor="start" x="171" y="-266.5" font-family="Helvetica,sans-Serif" font-size="10.00">+ Player()</text>
<text text-anchor="start" x="171" y="-255.5" font-family="Helvetica,sans-Serif" font-size="10.00">+ onKeyPressed()</text>
<text text-anchor="start" x="171" y="-244.5" font-family="Helvetica,sans-Serif" font-size="10.00">+ getCategory()</text>
<text text-anchor="start" x="171" y="-233.5" font-family="Helvetica,sans-Serif" font-size="10.00">+ setState()</text>
<text text-anchor="start" x="171" y="-222.5" font-family="Helvetica,sans-Serif" font-size="10.00">+ addHealth()</text>
<text text-anchor="start" x="171" y="-211.5" font-family="Helvetica,sans-Serif" font-size="10.00">+ isDead()</text>
<text text-anchor="start" x="171" y="-200.5" font-family="Helvetica,sans-Serif" font-size="10.00">+ addEffect()</text>
<text text-anchor="start" x="171" y="-189.5" font-family="Helvetica,sans-Serif" font-size="10.00">+ isInvincible()</text>
<text text-anchor="start" x="171" y="-178.5" font-family="Helvetica,sans-Serif" font-size="10.00">+ getDirectionVec()</text>
<text text-anchor="start" x="171" y="-167.5" font-family="Helvetica,sans-Serif" font-size="10.00">and 7 more...</text>
<text text-anchor="start" x="171" y="-156.5" font-family="Helvetica,sans-Serif" font-size="10.00"># updateCurrent()</text>
<text text-anchor="start" x="171" y="-145.5" font-family="Helvetica,sans-Serif" font-size="10.00"># drawCurrent()</text>
</a>
</g>
</g>
<!-- Node2&#45;&gt;Node1 -->
<g id="edge1" class="edge">
<title>Node2&#45;&gt;Node1</title>
<path fill="none" stroke="#404040" d="M219.5,-138.71C219.5,-126.52 219.5,-114.34 219.5,-103.01"/>
<polygon fill="none" stroke="#404040" points="219.5,-103.07 215.5,-97.07 219.5,-91.07 223.5,-97.07 219.5,-103.07"/>
<text text-anchor="middle" x="241" y="-112" font-family="Helvetica,sans-Serif" font-size="10.00"> +player</text>
</g>
<!-- Node3 -->
<g id="node3" class="node">
<title>Node3</title>
<g id="a_node3"><a xlink:href="classEntity.html" target="_top" xlink:title=" ">
<polygon fill="white" stroke="#666666" points="154.5,-365.5 154.5,-609.5 284.5,-609.5 284.5,-365.5 154.5,-365.5"/>
<text text-anchor="middle" x="219.5" y="-597.5" font-family="Helvetica,sans-Serif" font-size="10.00">Entity</text>
<polyline fill="none" stroke="#666666" points="154.5,-590.5 284.5,-590.5"/>
<text text-anchor="start" x="162.5" y="-578.5" font-family="Helvetica,sans-Serif" font-size="10.00"># velocity</text>
<text text-anchor="start" x="162.5" y="-567.5" font-family="Helvetica,sans-Serif" font-size="10.00"># localBounds</text>
<text text-anchor="start" x="162.5" y="-556.5" font-family="Helvetica,sans-Serif" font-size="10.00"># spriteBounds</text>
<polyline fill="none" stroke="#666666" points="154.5,-549.5 284.5,-549.5"/>
<text text-anchor="start" x="162.5" y="-537.5" font-family="Helvetica,sans-Serif" font-size="10.00">+ Entity()</text>
<text text-anchor="start" x="162.5" y="-526.5" font-family="Helvetica,sans-Serif" font-size="10.00">+ Entity()</text>
<text text-anchor="start" x="162.5" y="-515.5" font-family="Helvetica,sans-Serif" font-size="10.00">+ Entity()</text>
<text text-anchor="start" x="162.5" y="-504.5" font-family="Helvetica,sans-Serif" font-size="10.00">+ Entity()</text>
<text text-anchor="start" x="162.5" y="-493.5" font-family="Helvetica,sans-Serif" font-size="10.00">+ getVelocity()</text>
<text text-anchor="start" x="162.5" y="-482.5" font-family="Helvetica,sans-Serif" font-size="10.00">+ setVelocity()</text>
<text text-anchor="start" x="162.5" y="-471.5" font-family="Helvetica,sans-Serif" font-size="10.00">+ getLocalBounds()</text>
<text text-anchor="start" x="162.5" y="-460.5" font-family="Helvetica,sans-Serif" font-size="10.00">+ getSpriteBounds()</text>
<text text-anchor="start" x="162.5" y="-449.5" font-family="Helvetica,sans-Serif" font-size="10.00">+ adjustSpriteBounds()</text>
<text text-anchor="start" x="162.5" y="-438.5" font-family="Helvetica,sans-Serif" font-size="10.00">+ adjustBounds()</text>
<text text-anchor="start" x="162.5" y="-427.5" font-family="Helvetica,sans-Serif" font-size="10.00">+ getClassName()</text>
<text text-anchor="start" x="162.5" y="-416.5" font-family="Helvetica,sans-Serif" font-size="10.00">+ saveCurrentNode()</text>
<text text-anchor="start" x="162.5" y="-405.5" font-family="Helvetica,sans-Serif" font-size="10.00">+ loadCurrentNode()</text>
<text text-anchor="start" x="162.5" y="-394.5" font-family="Helvetica,sans-Serif" font-size="10.00"># drawCurrent()</text>
<text text-anchor="start" x="162.5" y="-383.5" font-family="Helvetica,sans-Serif" font-size="10.00"># updateCurrent()</text>
<text text-anchor="start" x="162.5" y="-372.5" font-family="Helvetica,sans-Serif" font-size="10.00"># shouldSave()</text>
</a>
</g>
</g>
<!-- Node3&#45;&gt;Node2 -->
<g id="edge2" class="edge">
<title>Node3&#45;&gt;Node2</title>
<path fill="none" stroke="#63b8ff" d="M219.5,-354.57C219.5,-345.38 219.5,-336.23 219.5,-327.31"/>
<polygon fill="none" stroke="#63b8ff" points="216,-354.28 219.5,-364.28 223,-354.28 216,-354.28"/>
</g>
<!-- Node4 -->
<g id="node4" class="node">
<title>Node4</title>
<g id="a_node4"><a xlink:href="classSceneNode.html" target="_top" xlink:title="A node in the scene graph.">
<polygon fill="white" stroke="#666666" points="78,-657.5 78,-923.5 213,-923.5 213,-657.5 78,-657.5"/>
<text text-anchor="middle" x="145.5" y="-911.5" font-family="Helvetica,sans-Serif" font-size="10.00">SceneNode</text>
<polyline fill="none" stroke="#666666" points="78,-904.5 213,-904.5"/>
<text text-anchor="middle" x="145.5" y="-892.5" font-family="Helvetica,sans-Serif" font-size="10.00"> </text>
<polyline fill="none" stroke="#666666" points="78,-885.5 213,-885.5"/>
<text text-anchor="start" x="86" y="-873.5" font-family="Helvetica,sans-Serif" font-size="10.00">+ SceneNode()</text>
<text text-anchor="start" x="86" y="-862.5" font-family="Helvetica,sans-Serif" font-size="10.00">+ attachChild()</text>
<text text-anchor="start" x="86" y="-851.5" font-family="Helvetica,sans-Serif" font-size="10.00">+ detachChild()</text>
<text text-anchor="start" x="86" y="-840.5" font-family="Helvetica,sans-Serif" font-size="10.00">+ update()</text>
<text text-anchor="start" x="86" y="-829.5" font-family="Helvetica,sans-Serif" font-size="10.00">+ getAbsTransform()</text>
<text text-anchor="start" x="86" y="-818.5" font-family="Helvetica,sans-Serif" font-size="10.00">+ getAbsPosition()</text>
<text text-anchor="start" x="86" y="-807.5" font-family="Helvetica,sans-Serif" font-size="10.00">+ checkNodeCollision()</text>
<text text-anchor="start" x="86" y="-796.5" font-family="Helvetica,sans-Serif" font-size="10.00">+ checkSceneCollision()</text>
<text text-anchor="start" x="86" y="-785.5" font-family="Helvetica,sans-Serif" font-size="10.00">+ setDebug()</text>
<text text-anchor="start" x="86" y="-774.5" font-family="Helvetica,sans-Serif" font-size="10.00">+ getCategory()</text>
<text text-anchor="start" x="86" y="-763.5" font-family="Helvetica,sans-Serif" font-size="10.00">+ saveNode()</text>
<text text-anchor="start" x="86" y="-752.5" font-family="Helvetica,sans-Serif" font-size="10.00">+ operator&lt;()</text>
<text text-anchor="start" x="86" y="-741.5" font-family="Helvetica,sans-Serif" font-size="10.00">+ getBoundingRect()</text>
<text text-anchor="start" x="86" y="-730.5" font-family="Helvetica,sans-Serif" font-size="10.00">+ getLocalBounds()</text>
<text text-anchor="start" x="86" y="-719.5" font-family="Helvetica,sans-Serif" font-size="10.00">+ draw()</text>
<text text-anchor="start" x="86" y="-708.5" font-family="Helvetica,sans-Serif" font-size="10.00"># getClassName()</text>
<text text-anchor="start" x="86" y="-697.5" font-family="Helvetica,sans-Serif" font-size="10.00"># saveCurrentNode()</text>
<text text-anchor="start" x="86" y="-686.5" font-family="Helvetica,sans-Serif" font-size="10.00"># loadCurrentNode()</text>
<text text-anchor="start" x="86" y="-675.5" font-family="Helvetica,sans-Serif" font-size="10.00"># onLoadingFinished()</text>
<text text-anchor="start" x="86" y="-664.5" font-family="Helvetica,sans-Serif" font-size="10.00"># shouldSave()</text>
</a>
</g>
</g>
<!-- Node4&#45;&gt;Node3 -->
<g id="edge3" class="edge">
<title>Node4&#45;&gt;Node3</title>
<path fill="none" stroke="#63b8ff" d="M180.56,-646.91C183.64,-634.36 186.75,-621.73 189.78,-609.38"/>
<polygon fill="none" stroke="#63b8ff" points="177.2,-645.9 178.21,-656.45 184,-647.57 177.2,-645.9"/>
</g>
<!-- Node5 -->
<g id="node5" class="node">
<title>Node5</title>
<g id="a_node5"><a xlink:title=" ">
<polygon fill="white" stroke="#bfbfbf" points="0,-961.5 0,-1018.5 77,-1018.5 77,-961.5 0,-961.5"/>
<text text-anchor="middle" x="38.5" y="-1006.5" font-family="Helvetica,sans-Serif" font-size="10.00">sf::Drawable</text>
<polyline fill="none" stroke="#bfbfbf" points="0,-999.5 77,-999.5"/>
<text text-anchor="middle" x="38.5" y="-987.5" font-family="Helvetica,sans-Serif" font-size="10.00"> </text>
<polyline fill="none" stroke="#bfbfbf" points="0,-980.5 77,-980.5"/>
<text text-anchor="middle" x="38.5" y="-968.5" font-family="Helvetica,sans-Serif" font-size="10.00"> </text>
</a>
</g>
</g>
<!-- Node5&#45;&gt;Node4 -->
<g id="edge4" class="edge">
<title>Node5&#45;&gt;Node4</title>
<path fill="none" stroke="#63b8ff" d="M58.82,-951.49C64.57,-940.89 71.15,-928.73 78.07,-915.96"/>
<polygon fill="none" stroke="#63b8ff" points="55.79,-949.75 54.1,-960.21 61.94,-953.08 55.79,-949.75"/>
</g>
<!-- Node6 -->
<g id="node6" class="node">
<title>Node6</title>
<g id="a_node6"><a xlink:title=" ">
<polygon fill="white" stroke="#bfbfbf" points="95,-961.5 95,-1018.5 196,-1018.5 196,-961.5 95,-961.5"/>
<text text-anchor="middle" x="145.5" y="-1006.5" font-family="Helvetica,sans-Serif" font-size="10.00">sf::Transformable</text>
<polyline fill="none" stroke="#bfbfbf" points="95,-999.5 196,-999.5"/>
<text text-anchor="middle" x="145.5" y="-987.5" font-family="Helvetica,sans-Serif" font-size="10.00"> </text>
<polyline fill="none" stroke="#bfbfbf" points="95,-980.5 196,-980.5"/>
<text text-anchor="middle" x="145.5" y="-968.5" font-family="Helvetica,sans-Serif" font-size="10.00"> </text>
</a>
</g>
</g>
<!-- Node6&#45;&gt;Node4 -->
<g id="edge5" class="edge">
<title>Node6&#45;&gt;Node4</title>
<path fill="none" stroke="#63b8ff" d="M145.5,-950.16C145.5,-941.92 145.5,-932.79 145.5,-923.18"/>
<polygon fill="none" stroke="#63b8ff" points="142,-950.02 145.5,-960.02 149,-950.02 142,-950.02"/>
</g>
<!-- Node7 -->
<g id="node7" class="node">
<title>Node7</title>
<g id="a_node7"><a xlink:title=" ">
<polygon fill="white" stroke="#bfbfbf" points="214.5,-961.5 214.5,-1018.5 310.5,-1018.5 310.5,-961.5 214.5,-961.5"/>
<text text-anchor="middle" x="262.5" y="-1006.5" font-family="Helvetica,sans-Serif" font-size="10.00">sf::NonCopyable</text>
<polyline fill="none" stroke="#bfbfbf" points="214.5,-999.5 310.5,-999.5"/>
<text text-anchor="middle" x="262.5" y="-987.5" font-family="Helvetica,sans-Serif" font-size="10.00"> </text>
<polyline fill="none" stroke="#bfbfbf" points="214.5,-980.5 310.5,-980.5"/>
<text text-anchor="middle" x="262.5" y="-968.5" font-family="Helvetica,sans-Serif" font-size="10.00"> </text>
</a>
</g>
</g>
<!-- Node7&#45;&gt;Node4 -->
<g id="edge6" class="edge">
<title>Node7&#45;&gt;Node4</title>
<path fill="none" stroke="#8b1a1a" d="M238.82,-952.06C233.08,-942.93 227.01,-933.15 221.5,-924 218.7,-919.34 215.86,-914.58 213,-909.76"/>
<polygon fill="none" stroke="#8b1a1a" points="235.77,-953.78 244.08,-960.36 241.69,-950.04 235.77,-953.78"/>
</g>
<!-- Node8 -->
<g id="node8" class="node">
<title>Node8</title>
<g id="a_node8"><a xlink:href="classAnimationMachine.html" target="_top" xlink:title="Component of Entity that holds the animation data, can be used to replace the sprite of the entity.">
<polygon fill="white" stroke="#666666" points="231,-723.5 231,-857.5 358,-857.5 358,-723.5 231,-723.5"/>
<text text-anchor="middle" x="294.5" y="-845.5" font-family="Helvetica,sans-Serif" font-size="10.00">AnimationMachine</text>
<polyline fill="none" stroke="#666666" points="231,-838.5 358,-838.5"/>
<text text-anchor="middle" x="294.5" y="-826.5" font-family="Helvetica,sans-Serif" font-size="10.00"> </text>
<polyline fill="none" stroke="#666666" points="231,-819.5 358,-819.5"/>
<text text-anchor="start" x="239" y="-807.5" font-family="Helvetica,sans-Serif" font-size="10.00">+ AnimationMachine()</text>
<text text-anchor="start" x="239" y="-796.5" font-family="Helvetica,sans-Serif" font-size="10.00">+ AnimationMachine()</text>
<text text-anchor="start" x="239" y="-785.5" font-family="Helvetica,sans-Serif" font-size="10.00">+ update()</text>
<text text-anchor="start" x="239" y="-774.5" font-family="Helvetica,sans-Serif" font-size="10.00">+ toSprite()</text>
<text text-anchor="start" x="239" y="-763.5" font-family="Helvetica,sans-Serif" font-size="10.00">+ isFinished()</text>
<text text-anchor="start" x="239" y="-752.5" font-family="Helvetica,sans-Serif" font-size="10.00">+ getID()</text>
<text text-anchor="start" x="239" y="-741.5" font-family="Helvetica,sans-Serif" font-size="10.00">+ save()</text>
<text text-anchor="start" x="239" y="-730.5" font-family="Helvetica,sans-Serif" font-size="10.00">+ load()</text>
</a>
</g>
</g>
<!-- Node8&#45;&gt;Node3 -->
<g id="edge7" class="edge">
<title>Node8&#45;&gt;Node3</title>
<path fill="none" stroke="#404040" d="M278.13,-723.82C270.65,-693.8 261.51,-657.09 252.69,-621.69"/>
<polygon fill="none" stroke="#404040" points="252.7,-621.75 247.37,-616.89 249.8,-610.1 255.13,-614.96 252.7,-621.75"/>
<text text-anchor="middle" x="288" y="-631" font-family="Helvetica,sans-Serif" font-size="10.00"> #animation</text>
</g>
</g>
</svg>
