<?xml version="1.0" encoding="UTF-8" standalone="no"?>
<!DOCTYPE svg PUBLIC "-//W3C//DTD SVG 1.1//EN"
 "http://www.w3.org/Graphics/SVG/1.1/DTD/svg11.dtd">
<!-- Generated by graphviz version 7.0.5 (0)
 -->
<!-- Title: Layer Pages: 1 -->
<svg width="319pt" height="507pt"
 viewBox="0.00 0.00 318.50 507.00" xmlns="http://www.w3.org/2000/svg" xmlns:xlink="http://www.w3.org/1999/xlink">
<g id="graph0" class="graph" transform="scale(1 1) rotate(0) translate(4 503)">
<title>Layer</title>
<!-- Node1 -->
<g id="node1" class="node">
<title>Node1</title>
<g id="a_node1"><a xlink:title=" ">
<polygon fill="#999999" stroke="#666666" points="92,-0.5 92,-101.5 199,-101.5 199,-0.5 92,-0.5"/>
<text text-anchor="middle" x="145.5" y="-89.5" font-family="Helvetica,sans-Serif" font-size="10.00">Layer</text>
<polyline fill="none" stroke="#666666" points="92,-82.5 199,-82.5"/>
<text text-anchor="middle" x="145.5" y="-70.5" font-family="Helvetica,sans-Serif" font-size="10.00"> </text>
<polyline fill="none" stroke="#666666" points="92,-63.5 199,-63.5"/>
<text text-anchor="start" x="100" y="-51.5" font-family="Helvetica,sans-Serif" font-size="10.00">+ Layer()</text>
<text text-anchor="start" x="100" y="-40.5" font-family="Helvetica,sans-Serif" font-size="10.00">+ ~Layer()</text>
<text text-anchor="start" x="100" y="-29.5" font-family="Helvetica,sans-Serif" font-size="10.00">+ updateCurrent()</text>
<text text-anchor="start" x="100" y="-18.5" font-family="Helvetica,sans-Serif" font-size="10.00">+ drawCurrent()</text>
<text text-anchor="start" x="100" y="-7.5" font-family="Helvetica,sans-Serif" font-size="10.00">+ getClassName()</text>
</a>
</g>
</g>
<!-- Node2 -->
<g id="node2" class="node">
<title>Node2</title>
<g id="a_node2"><a xlink:href="classSceneNode.html" target="_top" xlink:title="A node in the scene graph.">
<polygon fill="white" stroke="#666666" points="78,-138.5 78,-404.5 213,-404.5 213,-138.5 78,-138.5"/>
<text text-anchor="middle" x="145.5" y="-392.5" font-family="Helvetica,sans-Serif" font-size="10.00">SceneNode</text>
<polyline fill="none" stroke="#666666" points="78,-385.5 213,-385.5"/>
<text text-anchor="middle" x="145.5" y="-373.5" font-family="Helvetica,sans-Serif" font-size="10.00"> </text>
<polyline fill="none" stroke="#666666" points="78,-366.5 213,-366.5"/>
<text text-anchor="start" x="86" y="-354.5" font-family="Helvetica,sans-Serif" font-size="10.00">+ SceneNode()</text>
<text text-anchor="start" x="86" y="-343.5" font-family="Helvetica,sans-Serif" font-size="10.00">+ attachChild()</text>
<text text-anchor="start" x="86" y="-332.5" font-family="Helvetica,sans-Serif" font-size="10.00">+ detachChild()</text>
<text text-anchor="start" x="86" y="-321.5" font-family="Helvetica,sans-Serif" font-size="10.00">+ update()</text>
<text text-anchor="start" x="86" y="-310.5" font-family="Helvetica,sans-Serif" font-size="10.00">+ getAbsTransform()</text>
<text text-anchor="start" x="86" y="-299.5" font-family="Helvetica,sans-Serif" font-size="10.00">+ getAbsPosition()</text>
<text text-anchor="start" x="86" y="-288.5" font-family="Helvetica,sans-Serif" font-size="10.00">+ checkNodeCollision()</text>
<text text-anchor="start" x="86" y="-277.5" font-family="Helvetica,sans-Serif" font-size="10.00">+ checkSceneCollision()</text>
<text text-anchor="start" x="86" y="-266.5" font-family="Helvetica,sans-Serif" font-size="10.00">+ setDebug()</text>
<text text-anchor="start" x="86" y="-255.5" font-family="Helvetica,sans-Serif" font-size="10.00">+ getCategory()</text>
<text text-anchor="start" x="86" y="-244.5" font-family="Helvetica,sans-Serif" font-size="10.00">+ saveNode()</text>
<text text-anchor="start" x="86" y="-233.5" font-family="Helvetica,sans-Serif" font-size="10.00">+ operator&lt;()</text>
<text text-anchor="start" x="86" y="-222.5" font-family="Helvetica,sans-Serif" font-size="10.00">+ getBoundingRect()</text>
<text text-anchor="start" x="86" y="-211.5" font-family="Helvetica,sans-Serif" font-size="10.00">+ getLocalBounds()</text>
<text text-anchor="start" x="86" y="-200.5" font-family="Helvetica,sans-Serif" font-size="10.00">+ draw()</text>
<text text-anchor="start" x="86" y="-189.5" font-family="Helvetica,sans-Serif" font-size="10.00"># getClassName()</text>
<text text-anchor="start" x="86" y="-178.5" font-family="Helvetica,sans-Serif" font-size="10.00"># saveCurrentNode()</text>
<text text-anchor="start" x="86" y="-167.5" font-family="Helvetica,sans-Serif" font-size="10.00"># loadCurrentNode()</text>
<text text-anchor="start" x="86" y="-156.5" font-family="Helvetica,sans-Serif" font-size="10.00"># onLoadingFinished()</text>
<text text-anchor="start" x="86" y="-145.5" font-family="Helvetica,sans-Serif" font-size="10.00"># shouldSave()</text>
</a>
</g>
</g>
<!-- Node2&#45;&gt;Node1 -->
<g id="edge1" class="edge">
<title>Node2&#45;&gt;Node1</title>
<path fill="none" stroke="#63b8ff" d="M145.5,-127.39C145.5,-118.27 145.5,-109.51 145.5,-101.38"/>
<polygon fill="none" stroke="#63b8ff" points="142,-127.16 145.5,-137.16 149,-127.16 142,-127.16"/>
</g>
<!-- Node3 -->
<g id="node3" class="node">
<title>Node3</title>
<g id="a_node3"><a xlink:title=" ">
<polygon fill="white" stroke="#bfbfbf" points="0,-441.5 0,-498.5 77,-498.5 77,-441.5 0,-441.5"/>
<text text-anchor="middle" x="38.5" y="-486.5" font-family="Helvetica,sans-Serif" font-size="10.00">sf::Drawable</text>
<polyline fill="none" stroke="#bfbfbf" points="0,-479.5 77,-479.5"/>
<text text-anchor="middle" x="38.5" y="-467.5" font-family="Helvetica,sans-Serif" font-size="10.00"> </text>
<polyline fill="none" stroke="#bfbfbf" points="0,-460.5 77,-460.5"/>
<text text-anchor="middle" x="38.5" y="-448.5" font-family="Helvetica,sans-Serif" font-size="10.00"> </text>
</a>
</g>
</g>
<!-- Node3&#45;&gt;Node2 -->
<g id="edge2" class="edge">
<title>Node3&#45;&gt;Node2</title>
<path fill="none" stroke="#63b8ff" d="M58.82,-431.68C64.57,-421.13 71.15,-409.04 78.07,-396.33"/>
<polygon fill="none" stroke="#63b8ff" points="55.81,-429.89 54.1,-440.35 61.96,-433.24 55.81,-429.89"/>
</g>
<!-- Node4 -->
<g id="node4" class="node">
<title>Node4</title>
<g id="a_node4"><a xlink:title=" ">
<polygon fill="white" stroke="#bfbfbf" points="95,-441.5 95,-498.5 196,-498.5 196,-441.5 95,-441.5"/>
<text text-anchor="middle" x="145.5" y="-486.5" font-family="Helvetica,sans-Serif" font-size="10.00">sf::Transformable</text>
<polyline fill="none" stroke="#bfbfbf" points="95,-479.5 196,-479.5"/>
<text text-anchor="middle" x="145.5" y="-467.5" font-family="Helvetica,sans-Serif" font-size="10.00"> </text>
<polyline fill="none" stroke="#bfbfbf" points="95,-460.5 196,-460.5"/>
<text text-anchor="middle" x="145.5" y="-448.5" font-family="Helvetica,sans-Serif" font-size="10.00"> </text>
</a>
</g>
</g>
<!-- Node4&#45;&gt;Node2 -->
<g id="edge3" class="edge">
<title>Node4&#45;&gt;Node2</title>
<path fill="none" stroke="#63b8ff" d="M145.5,-430.31C145.5,-422.36 145.5,-413.58 145.5,-404.35"/>
<polygon fill="none" stroke="#63b8ff" points="142,-430.16 145.5,-440.16 149,-430.16 142,-430.16"/>
</g>
<!-- Node5 -->
<g id="node5" class="node">
<title>Node5</title>
<g id="a_node5"><a xlink:title=" ">
<polygon fill="white" stroke="#bfbfbf" points="214.5,-441.5 214.5,-498.5 310.5,-498.5 310.5,-441.5 214.5,-441.5"/>
<text text-anchor="middle" x="262.5" y="-486.5" font-family="Helvetica,sans-Serif" font-size="10.00">sf::NonCopyable</text>
<polyline fill="none" stroke="#bfbfbf" points="214.5,-479.5 310.5,-479.5"/>
<text text-anchor="middle" x="262.5" y="-467.5" font-family="Helvetica,sans-Serif" font-size="10.00"> </text>
<polyline fill="none" stroke="#bfbfbf" points="214.5,-460.5 310.5,-460.5"/>
<text text-anchor="middle" x="262.5" y="-448.5" font-family="Helvetica,sans-Serif" font-size="10.00"> </text>
</a>
</g>
</g>
<!-- Node5&#45;&gt;Node2 -->
<g id="edge4" class="edge">
<title>Node5&#45;&gt;Node2</title>
<path fill="none" stroke="#8b1a1a" d="M240.38,-431.86C232.32,-418.32 222.73,-402.21 212.8,-385.52"/>
<polygon fill="none" stroke="#8b1a1a" points="237.33,-433.58 245.46,-440.38 243.35,-429.99 237.33,-433.58"/>
</g>
</g>
</svg>
