<?xml version="1.0" encoding="UTF-8" standalone="no"?>
<!DOCTYPE svg PUBLIC "-//W3C//DTD SVG 1.1//EN"
 "http://www.w3.org/Graphics/SVG/1.1/DTD/svg11.dtd">
<!-- Generated by graphviz version 7.0.5 (0)
 -->
<!-- Title: WoodLane Pages: 1 -->
<!--zoomable 1352 -->
<svg id="main" version="1.1" xmlns="http://www.w3.org/2000/svg" xmlns:xlink="http://www.w3.org/1999/xlink" xml:space="preserve" onload="init(evt)">
<style type="text/css"><![CDATA[
.edge:hover path { stroke: red; }
.edge:hover polygon { stroke: red; fill: red; }
]]></style>
<script type="text/javascript"><![CDATA[
var edges = document.getElementsByTagName('g');
if (edges && edges.length) {
  for (var i=0;i<edges.length;i++) {
    if (edges[i].id.substr(0,4)=='edge') {
      edges[i].setAttribute('class','edge');
    }
  }
}
]]></script>
        <defs>
                <circle id="rim" cx="0" cy="0" r="7"/>
                <circle id="rim2" cx="0" cy="0" r="3.5"/>
                <g id="zoomPlus">
                        <use xlink:href="#rim" fill="#404040">
                                <set attributeName="fill" to="#808080" begin="zoomplus.mouseover" end="zoomplus.mouseout"/>
                        </use>
                        <path d="M-4,0h8M0,-4v8" fill="none" stroke="white" stroke-width="1.5" pointer-events="none"/>
                </g>
                <g id="zoomMin">
                        <use xlink:href="#rim" fill="#404040">
                                <set attributeName="fill" to="#808080" begin="zoomminus.mouseover" end="zoomminus.mouseout"/>
                        </use>
                        <path d="M-4,0h8" fill="none" stroke="white" stroke-width="1.5" pointer-events="none"/>
                </g>
                <g id="dirArrow">
                        <path fill="none" stroke="white" stroke-width="1.5" d="M0,-3.0v7 M-2.5,-0.5L0,-3.0L2.5,-0.5"/>
                </g>
               <g id="resetDef">
                       <use xlink:href="#rim2" fill="#404040">
                               <set attributeName="fill" to="#808080" begin="reset.mouseover" end="reset.mouseout"/>
                       </use>
               </g>
        </defs>

<script type="text/javascript">
var viewWidth = 503;
var viewHeight = 1352;
var sectionId = 'dynsection-1';
</script>
<script xlink:href="svgpan.js"/>
<svg id="graph" class="graph">
<g id="viewport">
<title>WoodLane</title>
<!-- Node1 -->
<g id="node1" class="node">
<title>Node1</title>
<g id="a_node1"><a xlink:title=" ">
<polygon fill="#999999" stroke="#666666" points="176,-0.5 176,-134.5 313,-134.5 313,-0.5 176,-0.5"/>
<text text-anchor="middle" x="244.5" y="-122.5" font-family="Helvetica,sans-Serif" font-size="10.00">WoodLane</text>
<polyline fill="none" stroke="#666666" points="176,-115.5 313,-115.5"/>
<text text-anchor="middle" x="244.5" y="-103.5" font-family="Helvetica,sans-Serif" font-size="10.00"> </text>
<polyline fill="none" stroke="#666666" points="176,-96.5 313,-96.5"/>
<text text-anchor="start" x="184" y="-84.5" font-family="Helvetica,sans-Serif" font-size="10.00">+ WoodLane()</text>
<text text-anchor="start" x="184" y="-73.5" font-family="Helvetica,sans-Serif" font-size="10.00">+ WoodLane()</text>
<text text-anchor="start" x="184" y="-62.5" font-family="Helvetica,sans-Serif" font-size="10.00">+ WoodLane()</text>
<text text-anchor="start" x="184" y="-51.5" font-family="Helvetica,sans-Serif" font-size="10.00">+ getType()</text>
<text text-anchor="start" x="184" y="-40.5" font-family="Helvetica,sans-Serif" font-size="10.00">+ getClassName()</text>
<text text-anchor="start" x="184" y="-29.5" font-family="Helvetica,sans-Serif" font-size="10.00">+ getCategory()</text>
<text text-anchor="start" x="184" y="-18.5" font-family="Helvetica,sans-Serif" font-size="10.00">+ setMaxWaterWidth()</text>
<text text-anchor="start" x="184" y="-7.5" font-family="Helvetica,sans-Serif" font-size="10.00">+ spawnWaterInMiddle()</text>
</a>
</g>
</g>
<!-- Node2 -->
<g id="node2" class="node">
<title>Node2</title>
<g id="a_node2"><a xlink:href="classRoadLane.html" target="_top" xlink:title=" ">
<polygon fill="white" stroke="#bfbfbf" points="224.5,-299.5 224.5,-642.5 362.5,-642.5 362.5,-299.5 224.5,-299.5"/>
<text text-anchor="middle" x="293.5" y="-630.5" font-family="Helvetica,sans-Serif" font-size="10.00">RoadLane</text>
<polyline fill="none" stroke="#bfbfbf" points="224.5,-623.5 362.5,-623.5"/>
<text text-anchor="start" x="232.5" y="-611.5" font-family="Helvetica,sans-Serif" font-size="10.00"># speedX</text>
<text text-anchor="start" x="232.5" y="-600.5" font-family="Helvetica,sans-Serif" font-size="10.00"># direction</text>
<text text-anchor="start" x="232.5" y="-589.5" font-family="Helvetica,sans-Serif" font-size="10.00"># timer</text>
<text text-anchor="start" x="232.5" y="-578.5" font-family="Helvetica,sans-Serif" font-size="10.00"># laneTexture</text>
<text text-anchor="start" x="232.5" y="-567.5" font-family="Helvetica,sans-Serif" font-size="10.00"># height</text>
<text text-anchor="start" x="232.5" y="-556.5" font-family="Helvetica,sans-Serif" font-size="10.00"># commuterTexture</text>
<text text-anchor="start" x="232.5" y="-545.5" font-family="Helvetica,sans-Serif" font-size="10.00"># commuterSize</text>
<text text-anchor="start" x="232.5" y="-534.5" font-family="Helvetica,sans-Serif" font-size="10.00"># commuters</text>
<polyline fill="none" stroke="#bfbfbf" points="224.5,-527.5 362.5,-527.5"/>
<text text-anchor="start" x="232.5" y="-515.5" font-family="Helvetica,sans-Serif" font-size="10.00">+ RoadLane()</text>
<text text-anchor="start" x="232.5" y="-504.5" font-family="Helvetica,sans-Serif" font-size="10.00">+ RoadLane()</text>
<text text-anchor="start" x="232.5" y="-493.5" font-family="Helvetica,sans-Serif" font-size="10.00">+ RoadLane()</text>
<text text-anchor="start" x="232.5" y="-482.5" font-family="Helvetica,sans-Serif" font-size="10.00">+ getType()</text>
<text text-anchor="start" x="232.5" y="-471.5" font-family="Helvetica,sans-Serif" font-size="10.00">+ getDirection()</text>
<text text-anchor="start" x="232.5" y="-460.5" font-family="Helvetica,sans-Serif" font-size="10.00">+ getLocalBounds()</text>
<text text-anchor="start" x="232.5" y="-449.5" font-family="Helvetica,sans-Serif" font-size="10.00">+ setPosY()</text>
<text text-anchor="start" x="232.5" y="-438.5" font-family="Helvetica,sans-Serif" font-size="10.00">+ setLaneHeight()</text>
<text text-anchor="start" x="232.5" y="-427.5" font-family="Helvetica,sans-Serif" font-size="10.00">+ setCommuterTexture()</text>
<text text-anchor="start" x="232.5" y="-416.5" font-family="Helvetica,sans-Serif" font-size="10.00">+ setLaneTexture()</text>
<text text-anchor="start" x="232.5" y="-405.5" font-family="Helvetica,sans-Serif" font-size="10.00">+ setCommuterSize()</text>
<text text-anchor="start" x="232.5" y="-394.5" font-family="Helvetica,sans-Serif" font-size="10.00">+ setDirection()</text>
<text text-anchor="start" x="232.5" y="-383.5" font-family="Helvetica,sans-Serif" font-size="10.00">+ setSpeed()</text>
<text text-anchor="start" x="232.5" y="-372.5" font-family="Helvetica,sans-Serif" font-size="10.00">+ setFrequency()</text>
<text text-anchor="start" x="232.5" y="-361.5" font-family="Helvetica,sans-Serif" font-size="10.00">+ getClassName()</text>
<text text-anchor="start" x="232.5" y="-350.5" font-family="Helvetica,sans-Serif" font-size="10.00"># newCommuter()</text>
<text text-anchor="start" x="232.5" y="-339.5" font-family="Helvetica,sans-Serif" font-size="10.00"># updateCommuters()</text>
<text text-anchor="start" x="232.5" y="-328.5" font-family="Helvetica,sans-Serif" font-size="10.00"># getVelocity()</text>
<text text-anchor="start" x="232.5" y="-317.5" font-family="Helvetica,sans-Serif" font-size="10.00"># updateCurrent()</text>
<text text-anchor="start" x="232.5" y="-306.5" font-family="Helvetica,sans-Serif" font-size="10.00"># drawCurrent()</text>
</a>
</g>
</g>
<!-- Node2&#45;&gt;Node1 -->
<g id="edge1" class="edge">
<title>Node2&#45;&gt;Node1</title>
<path fill="none" stroke="#63b8ff" d="M285.36,-288.21C282.16,-249.69 277.7,-209.38 271.5,-172 269.46,-159.73 266.64,-146.79 263.59,-134.37"/>
<polygon fill="none" stroke="#63b8ff" points="281.86,-288.37 286.15,-298.05 288.83,-287.81 281.86,-288.37"/>
</g>
<!-- Node3 -->
<g id="node3" class="node">
<title>Node3</title>
<g id="a_node3"><a xlink:href="classLane.html" target="_top" xlink:title=" ">
<polygon fill="white" stroke="#bfbfbf" points="225,-773 225,-852 332,-852 332,-773 225,-773"/>
<text text-anchor="middle" x="278.5" y="-840" font-family="Helvetica,sans-Serif" font-size="10.00">Lane</text>
<polyline fill="none" stroke="#bfbfbf" points="225,-833 332,-833"/>
<text text-anchor="middle" x="278.5" y="-821" font-family="Helvetica,sans-Serif" font-size="10.00"> </text>
<polyline fill="none" stroke="#bfbfbf" points="225,-814 332,-814"/>
<text text-anchor="start" x="233" y="-802" font-family="Helvetica,sans-Serif" font-size="10.00">+ setPosY()</text>
<text text-anchor="start" x="233" y="-791" font-family="Helvetica,sans-Serif" font-size="10.00">+ setLaneHeight()</text>
<text text-anchor="start" x="233" y="-780" font-family="Helvetica,sans-Serif" font-size="10.00">+ getClassName()</text>
</a>
</g>
</g>
<!-- Node3&#45;&gt;Node2 -->
<g id="edge2" class="edge">
<title>Node3&#45;&gt;Node2</title>
<path fill="none" stroke="#63b8ff" d="M280.69,-761.97C282.1,-729.96 284.03,-686.23 285.97,-642.43"/>
<polygon fill="none" stroke="#63b8ff" points="277.2,-761.56 280.26,-771.7 284.2,-761.87 277.2,-761.56"/>
</g>
<!-- Node4 -->
<g id="node4" class="node">
<title>Node4</title>
<g id="a_node4"><a xlink:href="classSceneNode.html" target="_top" xlink:title="A node in the scene graph.">
<polygon fill="white" stroke="#666666" points="145,-982.5 145,-1248.5 280,-1248.5 280,-982.5 145,-982.5"/>
<text text-anchor="middle" x="212.5" y="-1236.5" font-family="Helvetica,sans-Serif" font-size="10.00">SceneNode</text>
<polyline fill="none" stroke="#666666" points="145,-1229.5 280,-1229.5"/>
<text text-anchor="middle" x="212.5" y="-1217.5" font-family="Helvetica,sans-Serif" font-size="10.00"> </text>
<polyline fill="none" stroke="#666666" points="145,-1210.5 280,-1210.5"/>
<text text-anchor="start" x="153" y="-1198.5" font-family="Helvetica,sans-Serif" font-size="10.00">+ SceneNode()</text>
<text text-anchor="start" x="153" y="-1187.5" font-family="Helvetica,sans-Serif" font-size="10.00">+ attachChild()</text>
<text text-anchor="start" x="153" y="-1176.5" font-family="Helvetica,sans-Serif" font-size="10.00">+ detachChild()</text>
<text text-anchor="start" x="153" y="-1165.5" font-family="Helvetica,sans-Serif" font-size="10.00">+ update()</text>
<text text-anchor="start" x="153" y="-1154.5" font-family="Helvetica,sans-Serif" font-size="10.00">+ getAbsTransform()</text>
<text text-anchor="start" x="153" y="-1143.5" font-family="Helvetica,sans-Serif" font-size="10.00">+ getAbsPosition()</text>
<text text-anchor="start" x="153" y="-1132.5" font-family="Helvetica,sans-Serif" font-size="10.00">+ checkNodeCollision()</text>
<text text-anchor="start" x="153" y="-1121.5" font-family="Helvetica,sans-Serif" font-size="10.00">+ checkSceneCollision()</text>
<text text-anchor="start" x="153" y="-1110.5" font-family="Helvetica,sans-Serif" font-size="10.00">+ setDebug()</text>
<text text-anchor="start" x="153" y="-1099.5" font-family="Helvetica,sans-Serif" font-size="10.00">+ getCategory()</text>
<text text-anchor="start" x="153" y="-1088.5" font-family="Helvetica,sans-Serif" font-size="10.00">+ saveNode()</text>
<text text-anchor="start" x="153" y="-1077.5" font-family="Helvetica,sans-Serif" font-size="10.00">+ operator&lt;()</text>
<text text-anchor="start" x="153" y="-1066.5" font-family="Helvetica,sans-Serif" font-size="10.00">+ getBoundingRect()</text>
<text text-anchor="start" x="153" y="-1055.5" font-family="Helvetica,sans-Serif" font-size="10.00">+ getLocalBounds()</text>
<text text-anchor="start" x="153" y="-1044.5" font-family="Helvetica,sans-Serif" font-size="10.00">+ draw()</text>
<text text-anchor="start" x="153" y="-1033.5" font-family="Helvetica,sans-Serif" font-size="10.00"># getClassName()</text>
<text text-anchor="start" x="153" y="-1022.5" font-family="Helvetica,sans-Serif" font-size="10.00"># saveCurrentNode()</text>
<text text-anchor="start" x="153" y="-1011.5" font-family="Helvetica,sans-Serif" font-size="10.00"># loadCurrentNode()</text>
<text text-anchor="start" x="153" y="-1000.5" font-family="Helvetica,sans-Serif" font-size="10.00"># onLoadingFinished()</text>
<text text-anchor="start" x="153" y="-989.5" font-family="Helvetica,sans-Serif" font-size="10.00"># shouldSave()</text>
</a>
</g>
</g>
<!-- Node4&#45;&gt;Node3 -->
<g id="edge3" class="edge">
<title>Node4&#45;&gt;Node3</title>
<path fill="none" stroke="#63b8ff" d="M243.81,-971.72C253.49,-927.56 263.37,-882.52 270.09,-851.84"/>
<polygon fill="none" stroke="#63b8ff" points="240.4,-970.92 241.68,-981.44 247.24,-972.42 240.4,-970.92"/>
</g>
<!-- Node9 -->
<g id="node9" class="node">
<title>Node9</title>
<g id="a_node9"><a xlink:href="classPlayerCollidable.html" target="_top" xlink:title=" ">
<polygon fill="white" stroke="#bfbfbf" points="130.5,-172.5 130.5,-251.5 262.5,-251.5 262.5,-172.5 130.5,-172.5"/>
<text text-anchor="middle" x="196.5" y="-239.5" font-family="Helvetica,sans-Serif" font-size="10.00">PlayerCollidable</text>
<polyline fill="none" stroke="#bfbfbf" points="130.5,-232.5 262.5,-232.5"/>
<text text-anchor="start" x="138.5" y="-220.5" font-family="Helvetica,sans-Serif" font-size="10.00"># isCollidingWithPlayer</text>
<polyline fill="none" stroke="#bfbfbf" points="130.5,-213.5 262.5,-213.5"/>
<text text-anchor="start" x="138.5" y="-201.5" font-family="Helvetica,sans-Serif" font-size="10.00">+ onPlayerCollision()</text>
<text text-anchor="start" x="138.5" y="-190.5" font-family="Helvetica,sans-Serif" font-size="10.00">+ updateCurrent()</text>
<text text-anchor="start" x="138.5" y="-179.5" font-family="Helvetica,sans-Serif" font-size="10.00">+ SceneNode()</text>
</a>
</g>
</g>
<!-- Node4&#45;&gt;Node9 -->
<g id="edge9" class="edge">
<title>Node4&#45;&gt;Node9</title>
<path fill="none" stroke="#63b8ff" d="M209.97,-971.73C206.21,-759.88 199.36,-374.08 197.18,-251.48"/>
<polygon fill="none" stroke="#63b8ff" points="206.46,-971.48 210.14,-981.42 213.46,-971.36 206.46,-971.48"/>
</g>
<!-- Node11 -->
<g id="node11" class="node">
<title>Node11</title>
<g id="a_node11"><a xlink:href="classEntity.html" target="_top" xlink:title=" ">
<polygon fill="white" stroke="#666666" points="38.5,-690.5 38.5,-934.5 168.5,-934.5 168.5,-690.5 38.5,-690.5"/>
<text text-anchor="middle" x="103.5" y="-922.5" font-family="Helvetica,sans-Serif" font-size="10.00">Entity</text>
<polyline fill="none" stroke="#666666" points="38.5,-915.5 168.5,-915.5"/>
<text text-anchor="start" x="46.5" y="-903.5" font-family="Helvetica,sans-Serif" font-size="10.00"># velocity</text>
<text text-anchor="start" x="46.5" y="-892.5" font-family="Helvetica,sans-Serif" font-size="10.00"># localBounds</text>
<text text-anchor="start" x="46.5" y="-881.5" font-family="Helvetica,sans-Serif" font-size="10.00"># spriteBounds</text>
<polyline fill="none" stroke="#666666" points="38.5,-874.5 168.5,-874.5"/>
<text text-anchor="start" x="46.5" y="-862.5" font-family="Helvetica,sans-Serif" font-size="10.00">+ Entity()</text>
<text text-anchor="start" x="46.5" y="-851.5" font-family="Helvetica,sans-Serif" font-size="10.00">+ Entity()</text>
<text text-anchor="start" x="46.5" y="-840.5" font-family="Helvetica,sans-Serif" font-size="10.00">+ Entity()</text>
<text text-anchor="start" x="46.5" y="-829.5" font-family="Helvetica,sans-Serif" font-size="10.00">+ Entity()</text>
<text text-anchor="start" x="46.5" y="-818.5" font-family="Helvetica,sans-Serif" font-size="10.00">+ getVelocity()</text>
<text text-anchor="start" x="46.5" y="-807.5" font-family="Helvetica,sans-Serif" font-size="10.00">+ setVelocity()</text>
<text text-anchor="start" x="46.5" y="-796.5" font-family="Helvetica,sans-Serif" font-size="10.00">+ getLocalBounds()</text>
<text text-anchor="start" x="46.5" y="-785.5" font-family="Helvetica,sans-Serif" font-size="10.00">+ getSpriteBounds()</text>
<text text-anchor="start" x="46.5" y="-774.5" font-family="Helvetica,sans-Serif" font-size="10.00">+ adjustSpriteBounds()</text>
<text text-anchor="start" x="46.5" y="-763.5" font-family="Helvetica,sans-Serif" font-size="10.00">+ adjustBounds()</text>
<text text-anchor="start" x="46.5" y="-752.5" font-family="Helvetica,sans-Serif" font-size="10.00">+ getClassName()</text>
<text text-anchor="start" x="46.5" y="-741.5" font-family="Helvetica,sans-Serif" font-size="10.00">+ saveCurrentNode()</text>
<text text-anchor="start" x="46.5" y="-730.5" font-family="Helvetica,sans-Serif" font-size="10.00">+ loadCurrentNode()</text>
<text text-anchor="start" x="46.5" y="-719.5" font-family="Helvetica,sans-Serif" font-size="10.00"># drawCurrent()</text>
<text text-anchor="start" x="46.5" y="-708.5" font-family="Helvetica,sans-Serif" font-size="10.00"># updateCurrent()</text>
<text text-anchor="start" x="46.5" y="-697.5" font-family="Helvetica,sans-Serif" font-size="10.00"># shouldSave()</text>
</a>
</g>
</g>
<!-- Node4&#45;&gt;Node11 -->
<g id="edge12" class="edge">
<title>Node4&#45;&gt;Node11</title>
<path fill="none" stroke="#63b8ff" d="M161,-972.29C156.41,-959.61 151.79,-946.86 147.27,-934.38"/>
<polygon fill="none" stroke="#63b8ff" points="157.64,-973.28 164.33,-981.49 164.22,-970.9 157.64,-973.28"/>
</g>
<!-- Node5 -->
<g id="node5" class="node">
<title>Node5</title>
<g id="a_node5"><a xlink:title=" ">
<polygon fill="white" stroke="#bfbfbf" points="67,-1286.5 67,-1343.5 144,-1343.5 144,-1286.5 67,-1286.5"/>
<text text-anchor="middle" x="105.5" y="-1331.5" font-family="Helvetica,sans-Serif" font-size="10.00">sf::Drawable</text>
<polyline fill="none" stroke="#bfbfbf" points="67,-1324.5 144,-1324.5"/>
<text text-anchor="middle" x="105.5" y="-1312.5" font-family="Helvetica,sans-Serif" font-size="10.00"> </text>
<polyline fill="none" stroke="#bfbfbf" points="67,-1305.5 144,-1305.5"/>
<text text-anchor="middle" x="105.5" y="-1293.5" font-family="Helvetica,sans-Serif" font-size="10.00"> </text>
</a>
</g>
</g>
<!-- Node5&#45;&gt;Node4 -->
<g id="edge4" class="edge">
<title>Node5&#45;&gt;Node4</title>
<path fill="none" stroke="#63b8ff" d="M125.82,-1276.49C131.57,-1265.89 138.15,-1253.73 145.07,-1240.96"/>
<polygon fill="none" stroke="#63b8ff" points="122.79,-1274.75 121.1,-1285.21 128.94,-1278.08 122.79,-1274.75"/>
</g>
<!-- Node6 -->
<g id="node6" class="node">
<title>Node6</title>
<g id="a_node6"><a xlink:title=" ">
<polygon fill="white" stroke="#bfbfbf" points="162,-1286.5 162,-1343.5 263,-1343.5 263,-1286.5 162,-1286.5"/>
<text text-anchor="middle" x="212.5" y="-1331.5" font-family="Helvetica,sans-Serif" font-size="10.00">sf::Transformable</text>
<polyline fill="none" stroke="#bfbfbf" points="162,-1324.5 263,-1324.5"/>
<text text-anchor="middle" x="212.5" y="-1312.5" font-family="Helvetica,sans-Serif" font-size="10.00"> </text>
<polyline fill="none" stroke="#bfbfbf" points="162,-1305.5 263,-1305.5"/>
<text text-anchor="middle" x="212.5" y="-1293.5" font-family="Helvetica,sans-Serif" font-size="10.00"> </text>
</a>
</g>
</g>
<!-- Node6&#45;&gt;Node4 -->
<g id="edge5" class="edge">
<title>Node6&#45;&gt;Node4</title>
<path fill="none" stroke="#63b8ff" d="M212.5,-1275.16C212.5,-1266.92 212.5,-1257.79 212.5,-1248.18"/>
<polygon fill="none" stroke="#63b8ff" points="209,-1275.02 212.5,-1285.02 216,-1275.02 209,-1275.02"/>
</g>
<!-- Node7 -->
<g id="node7" class="node">
<title>Node7</title>
<g id="a_node7"><a xlink:title=" ">
<polygon fill="white" stroke="#bfbfbf" points="281.5,-1286.5 281.5,-1343.5 377.5,-1343.5 377.5,-1286.5 281.5,-1286.5"/>
<text text-anchor="middle" x="329.5" y="-1331.5" font-family="Helvetica,sans-Serif" font-size="10.00">sf::NonCopyable</text>
<polyline fill="none" stroke="#bfbfbf" points="281.5,-1324.5 377.5,-1324.5"/>
<text text-anchor="middle" x="329.5" y="-1312.5" font-family="Helvetica,sans-Serif" font-size="10.00"> </text>
<polyline fill="none" stroke="#bfbfbf" points="281.5,-1305.5 377.5,-1305.5"/>
<text text-anchor="middle" x="329.5" y="-1293.5" font-family="Helvetica,sans-Serif" font-size="10.00"> </text>
</a>
</g>
</g>
<!-- Node7&#45;&gt;Node4 -->
<g id="edge6" class="edge">
<title>Node7&#45;&gt;Node4</title>
<path fill="none" stroke="#8b1a1a" d="M307.38,-1276.67C299.32,-1263.06 289.73,-1246.87 279.8,-1230.1"/>
<polygon fill="none" stroke="#8b1a1a" points="304.35,-1278.42 312.46,-1285.24 310.37,-1274.85 304.35,-1278.42"/>
</g>
<!-- Node8 -->
<g id="node8" class="node">
<title>Node8</title>
<g id="a_node8"><a xlink:href="classRandom.html" target="_top" xlink:title=" ">
<polygon fill="white" stroke="#666666" points="350.5,-756.5 350.5,-868.5 494.5,-868.5 494.5,-756.5 350.5,-756.5"/>
<text text-anchor="start" x="358.5" y="-856.5" font-family="Helvetica,sans-Serif" font-size="10.00">Random&lt; std::normal</text>
<text text-anchor="middle" x="422.5" y="-845.5" font-family="Helvetica,sans-Serif" font-size="10.00">_distribution&lt; double &gt; &gt;</text>
<polyline fill="none" stroke="#666666" points="350.5,-838.5 494.5,-838.5"/>
<text text-anchor="middle" x="422.5" y="-826.5" font-family="Helvetica,sans-Serif" font-size="10.00"> </text>
<polyline fill="none" stroke="#666666" points="350.5,-819.5 494.5,-819.5"/>
<text text-anchor="start" x="358.5" y="-807.5" font-family="Helvetica,sans-Serif" font-size="10.00">+ Random()</text>
<text text-anchor="start" x="358.5" y="-796.5" font-family="Helvetica,sans-Serif" font-size="10.00">+ Random()</text>
<text text-anchor="start" x="358.5" y="-785.5" font-family="Helvetica,sans-Serif" font-size="10.00">+ get()</text>
<text text-anchor="start" x="358.5" y="-774.5" font-family="Helvetica,sans-Serif" font-size="10.00">+ get()</text>
<text text-anchor="start" x="358.5" y="-763.5" font-family="Helvetica,sans-Serif" font-size="10.00">+ dis()</text>
</a>
</g>
</g>
<!-- Node8&#45;&gt;Node2 -->
<g id="edge7" class="edge">
<title>Node8&#45;&gt;Node2</title>
<path fill="none" stroke="#404040" d="M401.63,-756.58C390.85,-728.21 377.02,-691.79 362.86,-654.55"/>
<polygon fill="none" stroke="#404040" points="362.84,-654.5 356.97,-650.31 358.58,-643.28 364.45,-647.47 362.84,-654.5"/>
<text text-anchor="middle" x="397" y="-664" font-family="Helvetica,sans-Serif" font-size="10.00"> #frequency</text>
</g>
<!-- Node9&#45;&gt;Node1 -->
<g id="edge8" class="edge">
<title>Node9&#45;&gt;Node1</title>
<path fill="none" stroke="#63b8ff" d="M212.95,-162.17C215.97,-153.19 219.18,-143.68 222.34,-134.3"/>
<polygon fill="none" stroke="#63b8ff" points="209.72,-160.78 209.85,-171.38 216.36,-163.02 209.72,-160.78"/>
</g>
<!-- Node10 -->
<g id="node10" class="node">
<title>Node10</title>
<g id="a_node10"><a xlink:href="classPlayer.html" target="_top" xlink:title=" ">
<polygon fill="white" stroke="#bfbfbf" points="53,-376.5 53,-565.5 166,-565.5 166,-376.5 53,-376.5"/>
<text text-anchor="middle" x="109.5" y="-553.5" font-family="Helvetica,sans-Serif" font-size="10.00">Player</text>
<polyline fill="none" stroke="#bfbfbf" points="53,-546.5 166,-546.5"/>
<text text-anchor="middle" x="109.5" y="-534.5" font-family="Helvetica,sans-Serif" font-size="10.00"> </text>
<polyline fill="none" stroke="#bfbfbf" points="53,-527.5 166,-527.5"/>
<text text-anchor="start" x="61" y="-515.5" font-family="Helvetica,sans-Serif" font-size="10.00">+ Player()</text>
<text text-anchor="start" x="61" y="-504.5" font-family="Helvetica,sans-Serif" font-size="10.00">+ Player()</text>
<text text-anchor="start" x="61" y="-493.5" font-family="Helvetica,sans-Serif" font-size="10.00">+ onKeyPressed()</text>
<text text-anchor="start" x="61" y="-482.5" font-family="Helvetica,sans-Serif" font-size="10.00">+ getCategory()</text>
<text text-anchor="start" x="61" y="-471.5" font-family="Helvetica,sans-Serif" font-size="10.00">+ setState()</text>
<text text-anchor="start" x="61" y="-460.5" font-family="Helvetica,sans-Serif" font-size="10.00">+ addHealth()</text>
<text text-anchor="start" x="61" y="-449.5" font-family="Helvetica,sans-Serif" font-size="10.00">+ isDead()</text>
<text text-anchor="start" x="61" y="-438.5" font-family="Helvetica,sans-Serif" font-size="10.00">+ addEffect()</text>
<text text-anchor="start" x="61" y="-427.5" font-family="Helvetica,sans-Serif" font-size="10.00">+ isInvincible()</text>
<text text-anchor="start" x="61" y="-416.5" font-family="Helvetica,sans-Serif" font-size="10.00">+ getDirectionVec()</text>
<text text-anchor="start" x="61" y="-405.5" font-family="Helvetica,sans-Serif" font-size="10.00">and 7 more...</text>
<text text-anchor="start" x="61" y="-394.5" font-family="Helvetica,sans-Serif" font-size="10.00"># updateCurrent()</text>
<text text-anchor="start" x="61" y="-383.5" font-family="Helvetica,sans-Serif" font-size="10.00"># drawCurrent()</text>
</a>
</g>
</g>
<!-- Node10&#45;&gt;Node9 -->
<g id="edge10" class="edge">
<title>Node10&#45;&gt;Node9</title>
<path fill="none" stroke="#404040" d="M111.28,-376.69C115.02,-341.72 123.06,-302.6 139.5,-270 140.96,-267.1 142.63,-264.26 144.44,-261.49"/>
<polygon fill="none" stroke="#404040" points="144.41,-261.54 144.79,-254.33 151.58,-251.91 151.2,-259.11 144.41,-261.54"/>
<text text-anchor="middle" x="161" y="-273" font-family="Helvetica,sans-Serif" font-size="10.00"> #player</text>
</g>
<!-- Node11&#45;&gt;Node10 -->
<g id="edge11" class="edge">
<title>Node11&#45;&gt;Node10</title>
<path fill="none" stroke="#63b8ff" d="M105.83,-679.63C106.51,-641.47 107.23,-600.61 107.85,-565.32"/>
<polygon fill="none" stroke="#63b8ff" points="102.34,-679.28 105.66,-689.34 109.34,-679.4 102.34,-679.28"/>
</g>
<!-- Node12 -->
<g id="node12" class="node">
<title>Node12</title>
<g id="a_node12"><a xlink:href="classAnimationMachine.html" target="_top" xlink:title="Component of Entity that holds the animation data, can be used to replace the sprite of the entity.">
<polygon fill="white" stroke="#666666" points="0,-1048.5 0,-1182.5 127,-1182.5 127,-1048.5 0,-1048.5"/>
<text text-anchor="middle" x="63.5" y="-1170.5" font-family="Helvetica,sans-Serif" font-size="10.00">AnimationMachine</text>
<polyline fill="none" stroke="#666666" points="0,-1163.5 127,-1163.5"/>
<text text-anchor="middle" x="63.5" y="-1151.5" font-family="Helvetica,sans-Serif" font-size="10.00"> </text>
<polyline fill="none" stroke="#666666" points="0,-1144.5 127,-1144.5"/>
<text text-anchor="start" x="8" y="-1132.5" font-family="Helvetica,sans-Serif" font-size="10.00">+ AnimationMachine()</text>
<text text-anchor="start" x="8" y="-1121.5" font-family="Helvetica,sans-Serif" font-size="10.00">+ AnimationMachine()</text>
<text text-anchor="start" x="8" y="-1110.5" font-family="Helvetica,sans-Serif" font-size="10.00">+ update()</text>
<text text-anchor="start" x="8" y="-1099.5" font-family="Helvetica,sans-Serif" font-size="10.00">+ toSprite()</text>
<text text-anchor="start" x="8" y="-1088.5" font-family="Helvetica,sans-Serif" font-size="10.00">+ isFinished()</text>
<text text-anchor="start" x="8" y="-1077.5" font-family="Helvetica,sans-Serif" font-size="10.00">+ getID()</text>
<text text-anchor="start" x="8" y="-1066.5" font-family="Helvetica,sans-Serif" font-size="10.00">+ save()</text>
<text text-anchor="start" x="8" y="-1055.5" font-family="Helvetica,sans-Serif" font-size="10.00">+ load()</text>
</a>
</g>
</g>
<!-- Node12&#45;&gt;Node11 -->
<g id="edge13" class="edge">
<title>Node12&#45;&gt;Node11</title>
<path fill="none" stroke="#404040" d="M72.23,-1048.82C76.2,-1018.93 81.05,-982.41 85.74,-947.15"/>
<polygon fill="none" stroke="#404040" points="85.76,-947.02 82.58,-940.54 87.34,-935.12 90.51,-941.6 85.76,-947.02"/>
<text text-anchor="middle" x="116" y="-956" font-family="Helvetica,sans-Serif" font-size="10.00"> #animation</text>
</g>
</g>
</svg>
        <g id="navigator" transform="translate(0 0)" fill="#404254">
                <rect fill="#f2f5e9" fill-opacity="0.5" stroke="#606060" stroke-width=".5" x="0" y="0" width="60" height="60"/>
                <use id="zoomplus" xlink:href="#zoomPlus" x="17" y="9" onmousedown="handleZoom(evt,'in')"/>
                <use id="zoomminus" xlink:href="#zoomMin" x="42" y="9" onmousedown="handleZoom(evt,'out')"/>
                <use id="reset" xlink:href="#resetDef" x="30" y="36" onmousedown="handleReset()"/>
                <g id="arrowUp" xlink:href="#dirArrow" transform="translate(30 24)" onmousedown="handlePan(0,-1)">
                  <use xlink:href="#rim" fill="#404040">
                        <set attributeName="fill" to="#808080" begin="arrowUp.mouseover" end="arrowUp.mouseout"/>
                  </use>
                  <path fill="none" stroke="white" stroke-width="1.5" d="M0,-3.0v7 M-2.5,-0.5L0,-3.0L2.5,-0.5"/>
                </g>
                <g id="arrowRight" xlink:href="#dirArrow" transform="rotate(90) translate(36 -43)" onmousedown="handlePan(1,0)">
                  <use xlink:href="#rim" fill="#404040">
                        <set attributeName="fill" to="#808080" begin="arrowRight.mouseover" end="arrowRight.mouseout"/>
                  </use>
                  <path fill="none" stroke="white" stroke-width="1.5" d="M0,-3.0v7 M-2.5,-0.5L0,-3.0L2.5,-0.5"/>
                </g>
                <g id="arrowDown" xlink:href="#dirArrow" transform="rotate(180) translate(-30 -48)" onmousedown="handlePan(0,1)">
                  <use xlink:href="#rim" fill="#404040">
                        <set attributeName="fill" to="#808080" begin="arrowDown.mouseover" end="arrowDown.mouseout"/>
                  </use>
                  <path fill="none" stroke="white" stroke-width="1.5" d="M0,-3.0v7 M-2.5,-0.5L0,-3.0L2.5,-0.5"/>
                </g>
                <g id="arrowLeft" xlink:href="#dirArrow" transform="rotate(270) translate(-36 17)" onmousedown="handlePan(-1,0)">
                  <use xlink:href="#rim" fill="#404040">
                        <set attributeName="fill" to="#808080" begin="arrowLeft.mouseover" end="arrowLeft.mouseout"/>
                  </use>
                  <path fill="none" stroke="white" stroke-width="1.5" d="M0,-3.0v7 M-2.5,-0.5L0,-3.0L2.5,-0.5"/>
                </g>
        </g>
        <svg viewBox="0 0 15 15" width="100%" height="30px" preserveAspectRatio="xMaxYMin meet">
         <g id="arrow_out" transform="scale(0.3 0.3)">
          <a xlink:href="classWoodLane__coll__graph_org.svg" target="_base">
           <rect id="button" ry="5" rx="5" y="6" x="6" height="38" width="38"
                fill="#f2f5e9" fill-opacity="0.5" stroke="#606060" stroke-width="1.0"/>
           <path id="arrow"
             d="M 11.500037,31.436501 C 11.940474,20.09759 22.043105,11.32322 32.158766,21.979434 L 37.068811,17.246167 C 37.068811,17.246167 37.088388,32 37.088388,32 L 22.160133,31.978069 C 22.160133,31.978069 26.997745,27.140456 26.997745,27.140456 C 18.528582,18.264221 13.291696,25.230495 11.500037,31.436501 z"
             style="fill:#404040;"/>
          </a>
         </g>
        </svg>
</svg>
