<?xml version="1.0" encoding="UTF-8" standalone="no"?>
<!DOCTYPE svg PUBLIC "-//W3C//DTD SVG 1.1//EN"
 "http://www.w3.org/Graphics/SVG/1.1/DTD/svg11.dtd">
<!-- Generated by graphviz version 7.0.5 (0)
 -->
<!-- Title: RoadLaneController Pages: 1 -->
<svg width="372pt" height="823pt"
 viewBox="0.00 0.00 371.50 823.00" xmlns="http://www.w3.org/2000/svg" xmlns:xlink="http://www.w3.org/1999/xlink">
<g id="graph0" class="graph" transform="scale(1 1) rotate(0) translate(4 819)">
<title>RoadLaneController</title>
<!-- Node1 -->
<g id="node1" class="node">
<title>Node1</title>
<g id="a_node1"><a xlink:title=" ">
<polygon fill="#999999" stroke="#666666" points="149,-0.5 149,-255.5 286,-255.5 286,-0.5 149,-0.5"/>
<text text-anchor="middle" x="217.5" y="-243.5" font-family="Helvetica,sans-Serif" font-size="10.00">RoadLaneController</text>
<polyline fill="none" stroke="#666666" points="149,-236.5 286,-236.5"/>
<text text-anchor="start" x="157" y="-224.5" font-family="Helvetica,sans-Serif" font-size="10.00"># lanes</text>
<text text-anchor="start" x="157" y="-213.5" font-family="Helvetica,sans-Serif" font-size="10.00"># laneCount</text>
<text text-anchor="start" x="157" y="-202.5" font-family="Helvetica,sans-Serif" font-size="10.00"># laneHeight</text>
<text text-anchor="start" x="157" y="-191.5" font-family="Helvetica,sans-Serif" font-size="10.00"># commuterSize</text>
<text text-anchor="start" x="157" y="-180.5" font-family="Helvetica,sans-Serif" font-size="10.00"># frequencyFunction</text>
<polyline fill="none" stroke="#666666" points="149,-173.5 286,-173.5"/>
<text text-anchor="start" x="157" y="-161.5" font-family="Helvetica,sans-Serif" font-size="10.00">+ RoadLaneController()</text>
<text text-anchor="start" x="157" y="-150.5" font-family="Helvetica,sans-Serif" font-size="10.00">+ RoadLaneController()</text>
<text text-anchor="start" x="157" y="-139.5" font-family="Helvetica,sans-Serif" font-size="10.00">+ RoadLaneController()</text>
<text text-anchor="start" x="157" y="-128.5" font-family="Helvetica,sans-Serif" font-size="10.00">+ getType()</text>
<text text-anchor="start" x="157" y="-117.5" font-family="Helvetica,sans-Serif" font-size="10.00">+ build()</text>
<text text-anchor="start" x="157" y="-106.5" font-family="Helvetica,sans-Serif" font-size="10.00">+ setLaneHeight()</text>
<text text-anchor="start" x="157" y="-95.5" font-family="Helvetica,sans-Serif" font-size="10.00">+ setPosY()</text>
<text text-anchor="start" x="157" y="-84.5" font-family="Helvetica,sans-Serif" font-size="10.00">+ setCommuterSize()</text>
<text text-anchor="start" x="157" y="-73.5" font-family="Helvetica,sans-Serif" font-size="10.00">+ getClassName()</text>
<text text-anchor="start" x="157" y="-62.5" font-family="Helvetica,sans-Serif" font-size="10.00">+ saveCurrentNode()</text>
<text text-anchor="start" x="157" y="-51.5" font-family="Helvetica,sans-Serif" font-size="10.00">+ loadCurrentNode()</text>
<text text-anchor="start" x="157" y="-40.5" font-family="Helvetica,sans-Serif" font-size="10.00">+ setLaneCount()</text>
<text text-anchor="start" x="157" y="-29.5" font-family="Helvetica,sans-Serif" font-size="10.00">+ setSpeedDistribution()</text>
<text text-anchor="start" x="157" y="-18.5" font-family="Helvetica,sans-Serif" font-size="10.00">+ onLoadingFinished()</text>
<text text-anchor="start" x="157" y="-7.5" font-family="Helvetica,sans-Serif" font-size="10.00"># newLane()</text>
</a>
</g>
</g>
<!-- Node2 -->
<g id="node2" class="node">
<title>Node2</title>
<g id="a_node2"><a xlink:href="classLane.html" target="_top" xlink:title=" ">
<polygon fill="white" stroke="#bfbfbf" points="92,-320 92,-399 199,-399 199,-320 92,-320"/>
<text text-anchor="middle" x="145.5" y="-387" font-family="Helvetica,sans-Serif" font-size="10.00">Lane</text>
<polyline fill="none" stroke="#bfbfbf" points="92,-380 199,-380"/>
<text text-anchor="middle" x="145.5" y="-368" font-family="Helvetica,sans-Serif" font-size="10.00"> </text>
<polyline fill="none" stroke="#bfbfbf" points="92,-361 199,-361"/>
<text text-anchor="start" x="100" y="-349" font-family="Helvetica,sans-Serif" font-size="10.00">+ setPosY()</text>
<text text-anchor="start" x="100" y="-338" font-family="Helvetica,sans-Serif" font-size="10.00">+ setLaneHeight()</text>
<text text-anchor="start" x="100" y="-327" font-family="Helvetica,sans-Serif" font-size="10.00">+ getClassName()</text>
</a>
</g>
</g>
<!-- Node2&#45;&gt;Node1 -->
<g id="edge1" class="edge">
<title>Node2&#45;&gt;Node1</title>
<path fill="none" stroke="#63b8ff" d="M160.92,-309.35C165.98,-293.21 171.87,-274.45 177.89,-255.26"/>
<polygon fill="none" stroke="#63b8ff" points="157.66,-308.05 158,-318.64 164.34,-310.15 157.66,-308.05"/>
</g>
<!-- Node3 -->
<g id="node3" class="node">
<title>Node3</title>
<g id="a_node3"><a xlink:href="classSceneNode.html" target="_top" xlink:title="A node in the scene graph.">
<polygon fill="white" stroke="#666666" points="78,-453.5 78,-719.5 213,-719.5 213,-453.5 78,-453.5"/>
<text text-anchor="middle" x="145.5" y="-707.5" font-family="Helvetica,sans-Serif" font-size="10.00">SceneNode</text>
<polyline fill="none" stroke="#666666" points="78,-700.5 213,-700.5"/>
<text text-anchor="middle" x="145.5" y="-688.5" font-family="Helvetica,sans-Serif" font-size="10.00"> </text>
<polyline fill="none" stroke="#666666" points="78,-681.5 213,-681.5"/>
<text text-anchor="start" x="86" y="-669.5" font-family="Helvetica,sans-Serif" font-size="10.00">+ SceneNode()</text>
<text text-anchor="start" x="86" y="-658.5" font-family="Helvetica,sans-Serif" font-size="10.00">+ attachChild()</text>
<text text-anchor="start" x="86" y="-647.5" font-family="Helvetica,sans-Serif" font-size="10.00">+ detachChild()</text>
<text text-anchor="start" x="86" y="-636.5" font-family="Helvetica,sans-Serif" font-size="10.00">+ update()</text>
<text text-anchor="start" x="86" y="-625.5" font-family="Helvetica,sans-Serif" font-size="10.00">+ getAbsTransform()</text>
<text text-anchor="start" x="86" y="-614.5" font-family="Helvetica,sans-Serif" font-size="10.00">+ getAbsPosition()</text>
<text text-anchor="start" x="86" y="-603.5" font-family="Helvetica,sans-Serif" font-size="10.00">+ checkNodeCollision()</text>
<text text-anchor="start" x="86" y="-592.5" font-family="Helvetica,sans-Serif" font-size="10.00">+ checkSceneCollision()</text>
<text text-anchor="start" x="86" y="-581.5" font-family="Helvetica,sans-Serif" font-size="10.00">+ setDebug()</text>
<text text-anchor="start" x="86" y="-570.5" font-family="Helvetica,sans-Serif" font-size="10.00">+ getCategory()</text>
<text text-anchor="start" x="86" y="-559.5" font-family="Helvetica,sans-Serif" font-size="10.00">+ saveNode()</text>
<text text-anchor="start" x="86" y="-548.5" font-family="Helvetica,sans-Serif" font-size="10.00">+ operator&lt;()</text>
<text text-anchor="start" x="86" y="-537.5" font-family="Helvetica,sans-Serif" font-size="10.00">+ getBoundingRect()</text>
<text text-anchor="start" x="86" y="-526.5" font-family="Helvetica,sans-Serif" font-size="10.00">+ getLocalBounds()</text>
<text text-anchor="start" x="86" y="-515.5" font-family="Helvetica,sans-Serif" font-size="10.00">+ draw()</text>
<text text-anchor="start" x="86" y="-504.5" font-family="Helvetica,sans-Serif" font-size="10.00"># getClassName()</text>
<text text-anchor="start" x="86" y="-493.5" font-family="Helvetica,sans-Serif" font-size="10.00"># saveCurrentNode()</text>
<text text-anchor="start" x="86" y="-482.5" font-family="Helvetica,sans-Serif" font-size="10.00"># loadCurrentNode()</text>
<text text-anchor="start" x="86" y="-471.5" font-family="Helvetica,sans-Serif" font-size="10.00"># onLoadingFinished()</text>
<text text-anchor="start" x="86" y="-460.5" font-family="Helvetica,sans-Serif" font-size="10.00"># shouldSave()</text>
</a>
</g>
</g>
<!-- Node3&#45;&gt;Node2 -->
<g id="edge2" class="edge">
<title>Node3&#45;&gt;Node2</title>
<path fill="none" stroke="#63b8ff" d="M145.5,-442.52C145.5,-426.64 145.5,-411.64 145.5,-398.92"/>
<polygon fill="none" stroke="#63b8ff" points="142,-442.13 145.5,-452.13 149,-442.13 142,-442.13"/>
</g>
<!-- Node4 -->
<g id="node4" class="node">
<title>Node4</title>
<g id="a_node4"><a xlink:title=" ">
<polygon fill="white" stroke="#bfbfbf" points="0,-757.5 0,-814.5 77,-814.5 77,-757.5 0,-757.5"/>
<text text-anchor="middle" x="38.5" y="-802.5" font-family="Helvetica,sans-Serif" font-size="10.00">sf::Drawable</text>
<polyline fill="none" stroke="#bfbfbf" points="0,-795.5 77,-795.5"/>
<text text-anchor="middle" x="38.5" y="-783.5" font-family="Helvetica,sans-Serif" font-size="10.00"> </text>
<polyline fill="none" stroke="#bfbfbf" points="0,-776.5 77,-776.5"/>
<text text-anchor="middle" x="38.5" y="-764.5" font-family="Helvetica,sans-Serif" font-size="10.00"> </text>
</a>
</g>
</g>
<!-- Node4&#45;&gt;Node3 -->
<g id="edge3" class="edge">
<title>Node4&#45;&gt;Node3</title>
<path fill="none" stroke="#63b8ff" d="M58.82,-747.49C64.57,-736.89 71.15,-724.73 78.07,-711.96"/>
<polygon fill="none" stroke="#63b8ff" points="55.79,-745.75 54.1,-756.21 61.94,-749.08 55.79,-745.75"/>
</g>
<!-- Node5 -->
<g id="node5" class="node">
<title>Node5</title>
<g id="a_node5"><a xlink:title=" ">
<polygon fill="white" stroke="#bfbfbf" points="95,-757.5 95,-814.5 196,-814.5 196,-757.5 95,-757.5"/>
<text text-anchor="middle" x="145.5" y="-802.5" font-family="Helvetica,sans-Serif" font-size="10.00">sf::Transformable</text>
<polyline fill="none" stroke="#bfbfbf" points="95,-795.5 196,-795.5"/>
<text text-anchor="middle" x="145.5" y="-783.5" font-family="Helvetica,sans-Serif" font-size="10.00"> </text>
<polyline fill="none" stroke="#bfbfbf" points="95,-776.5 196,-776.5"/>
<text text-anchor="middle" x="145.5" y="-764.5" font-family="Helvetica,sans-Serif" font-size="10.00"> </text>
</a>
</g>
</g>
<!-- Node5&#45;&gt;Node3 -->
<g id="edge4" class="edge">
<title>Node5&#45;&gt;Node3</title>
<path fill="none" stroke="#63b8ff" d="M145.5,-746.16C145.5,-737.92 145.5,-728.79 145.5,-719.18"/>
<polygon fill="none" stroke="#63b8ff" points="142,-746.02 145.5,-756.02 149,-746.02 142,-746.02"/>
</g>
<!-- Node6 -->
<g id="node6" class="node">
<title>Node6</title>
<g id="a_node6"><a xlink:title=" ">
<polygon fill="white" stroke="#bfbfbf" points="214.5,-757.5 214.5,-814.5 310.5,-814.5 310.5,-757.5 214.5,-757.5"/>
<text text-anchor="middle" x="262.5" y="-802.5" font-family="Helvetica,sans-Serif" font-size="10.00">sf::NonCopyable</text>
<polyline fill="none" stroke="#bfbfbf" points="214.5,-795.5 310.5,-795.5"/>
<text text-anchor="middle" x="262.5" y="-783.5" font-family="Helvetica,sans-Serif" font-size="10.00"> </text>
<polyline fill="none" stroke="#bfbfbf" points="214.5,-776.5 310.5,-776.5"/>
<text text-anchor="middle" x="262.5" y="-764.5" font-family="Helvetica,sans-Serif" font-size="10.00"> </text>
</a>
</g>
</g>
<!-- Node6&#45;&gt;Node3 -->
<g id="edge5" class="edge">
<title>Node6&#45;&gt;Node3</title>
<path fill="none" stroke="#8b1a1a" d="M240.38,-747.67C232.32,-734.06 222.73,-717.87 212.8,-701.1"/>
<polygon fill="none" stroke="#8b1a1a" points="237.35,-749.42 245.46,-756.24 243.37,-745.85 237.35,-749.42"/>
</g>
<!-- Node7 -->
<g id="node7" class="node">
<title>Node7</title>
<g id="a_node7"><a xlink:href="classRandom.html" target="_top" xlink:title=" ">
<polygon fill="white" stroke="#666666" points="217.5,-303.5 217.5,-415.5 361.5,-415.5 361.5,-303.5 217.5,-303.5"/>
<text text-anchor="start" x="225.5" y="-403.5" font-family="Helvetica,sans-Serif" font-size="10.00">Random&lt; std::normal</text>
<text text-anchor="middle" x="289.5" y="-392.5" font-family="Helvetica,sans-Serif" font-size="10.00">_distribution&lt; double &gt; &gt;</text>
<polyline fill="none" stroke="#666666" points="217.5,-385.5 361.5,-385.5"/>
<text text-anchor="middle" x="289.5" y="-373.5" font-family="Helvetica,sans-Serif" font-size="10.00"> </text>
<polyline fill="none" stroke="#666666" points="217.5,-366.5 361.5,-366.5"/>
<text text-anchor="start" x="225.5" y="-354.5" font-family="Helvetica,sans-Serif" font-size="10.00">+ Random()</text>
<text text-anchor="start" x="225.5" y="-343.5" font-family="Helvetica,sans-Serif" font-size="10.00">+ Random()</text>
<text text-anchor="start" x="225.5" y="-332.5" font-family="Helvetica,sans-Serif" font-size="10.00">+ get()</text>
<text text-anchor="start" x="225.5" y="-321.5" font-family="Helvetica,sans-Serif" font-size="10.00">+ get()</text>
<text text-anchor="start" x="225.5" y="-310.5" font-family="Helvetica,sans-Serif" font-size="10.00">+ dis()</text>
</a>
</g>
</g>
<!-- Node7&#45;&gt;Node1 -->
<g id="edge6" class="edge">
<title>Node7&#45;&gt;Node1</title>
<path fill="none" stroke="#404040" d="M272.25,-303.53C268.75,-292.37 264.93,-280.17 260.97,-267.57"/>
<polygon fill="none" stroke="#404040" points="261.01,-267.7 255.4,-263.17 257.42,-256.25 263.03,-260.78 261.01,-267.7"/>
<text text-anchor="middle" x="314.5" y="-277" font-family="Helvetica,sans-Serif" font-size="10.00"> #speedDistribution</text>
</g>
</g>
</svg>
