<?xml version="1.0" encoding="UTF-8" standalone="no"?>
<!DOCTYPE svg PUBLIC "-//W3C//DTD SVG 1.1//EN"
 "http://www.w3.org/Graphics/SVG/1.1/DTD/svg11.dtd">
<!-- Generated by graphviz version 7.0.5 (0)
 -->
<!-- Title: SceneBuilder Pages: 1 -->
<svg width="722pt" height="1050pt"
 viewBox="0.00 0.00 721.50 1050.00" xmlns="http://www.w3.org/2000/svg" xmlns:xlink="http://www.w3.org/1999/xlink">
<g id="graph0" class="graph" transform="scale(1 1) rotate(0) translate(4 1046)">
<title>SceneBuilder</title>
<!-- Node1 -->
<g id="node1" class="node">
<title>Node1</title>
<g id="a_node1"><a xlink:title=" ">
<polygon fill="#999999" stroke="#666666" points="713,-195 151,-195 151,0 713,0 713,-195"/>
<text text-anchor="middle" x="432" y="-183" font-family="Helvetica,sans-Serif" font-size="10.00">{SceneBuilder</text>
<text text-anchor="start" x="159" y="-172" font-family="Helvetica,sans-Serif" font-size="10.00">|&#45; sf::Vector2f sceneSize</text>
<text text-anchor="start" x="159" y="-161" font-family="Helvetica,sans-Serif" font-size="10.00">|+ &#160;SceneBuilder(sf::Vector2f size)</text>
<text text-anchor="start" x="159" y="-150" font-family="Helvetica,sans-Serif" font-size="10.00">+ SceneBuilder &amp; addBackground(Texture::ID id)</text>
<text text-anchor="start" x="159" y="-139" font-family="Helvetica,sans-Serif" font-size="10.00">+ SceneBuilder &amp; addRoadController(RoadLane::Type type, int lanes, float pos, float minSpeed, float maxSpeed,</text>
<text text-anchor="start" x="159" y="-128" font-family="Helvetica,sans-Serif" font-size="10.00"> float minSpawnRate, float maxSpawnRate)</text>
<text text-anchor="start" x="159" y="-117" font-family="Helvetica,sans-Serif" font-size="10.00">+ SceneBuilder &amp; addRock(sf::Vector2f pos, sf::Vector2f size)</text>
<text text-anchor="start" x="159" y="-106" font-family="Helvetica,sans-Serif" font-size="10.00">+ SceneBuilder &amp; addReward(sf::Vector2f pos, sf::Vector2f size)</text>
<text text-anchor="start" x="159" y="-95" font-family="Helvetica,sans-Serif" font-size="10.00">+ SceneBuilder &amp; addBoost(sf::Vector2f pos, sf::Vector2f size)</text>
<text text-anchor="start" x="159" y="-84" font-family="Helvetica,sans-Serif" font-size="10.00">+ SceneBuilder &amp; addBombard(sf::Vector2f pos)</text>
<text text-anchor="start" x="159" y="-73" font-family="Helvetica,sans-Serif" font-size="10.00">+ SceneBuilder &amp; addElectricGate(sf::Vector2f pos, float width)</text>
<text text-anchor="start" x="159" y="-62" font-family="Helvetica,sans-Serif" font-size="10.00">+ SceneBuilder &amp; addTree(sf::Vector2f pos)</text>
<text text-anchor="start" x="159" y="-51" font-family="Helvetica,sans-Serif" font-size="10.00">+ SceneBuilder &amp; addHouse(sf::Vector2f pos)</text>
<text text-anchor="start" x="159" y="-40" font-family="Helvetica,sans-Serif" font-size="10.00">+ SceneBuilder &amp; addHole(sf::Vector2f pos)</text>
<text text-anchor="start" x="159" y="-29" font-family="Helvetica,sans-Serif" font-size="10.00">+ SceneBuilder &amp; addMudHole(sf::Vector2f pos)</text>
<text text-anchor="start" x="159" y="-18" font-family="Helvetica,sans-Serif" font-size="10.00">+ std::unique_ptr&lt; Level &gt; build()</text>
<text text-anchor="middle" x="432" y="-7" font-family="Helvetica,sans-Serif" font-size="10.00">}</text>
</a>
</g>
</g>
<!-- Node2 -->
<g id="node2" class="node">
<title>Node2</title>
<g id="a_node2"><a xlink:title=" ">
<polygon fill="white" stroke="#666666" points="504,-283 360,-283 360,-242 504,-242 504,-283"/>
<text text-anchor="middle" x="432" y="-271" font-family="Helvetica,sans-Serif" font-size="10.00">{std::unique_ptr&lt; Level &gt;</text>
<text text-anchor="start" x="368" y="-260" font-family="Helvetica,sans-Serif" font-size="10.00">||+ Level * operator&#45;&gt;()</text>
<text text-anchor="middle" x="432" y="-249" font-family="Helvetica,sans-Serif" font-size="10.00">}</text>
</a>
</g>
</g>
<!-- Node2&#45;&gt;Node1 -->
<g id="edge1" class="edge">
<title>Node2&#45;&gt;Node1</title>
<path fill="none" stroke="#404040" d="M432,-241.51C432,-232.4 432,-220.82 432,-208.22"/>
<polygon fill="none" stroke="#404040" points="432,-208.24 428,-202.24 432,-196.24 436,-202.24 432,-208.24"/>
<text text-anchor="middle" x="450" y="-216" font-family="Helvetica,sans-Serif" font-size="10.00"> &#45;scene</text>
</g>
<!-- Node3 -->
<g id="node3" class="node">
<title>Node3</title>
<g id="a_node3"><a xlink:href="classLevel.html" target="_top" xlink:title=" ">
<polygon fill="white" stroke="#666666" points="483.5,-426 128.5,-426 128.5,-341 483.5,-341 483.5,-426"/>
<text text-anchor="middle" x="306" y="-414" font-family="Helvetica,sans-Serif" font-size="10.00">{Level</text>
<text text-anchor="start" x="136.5" y="-403" font-family="Helvetica,sans-Serif" font-size="10.00">||+ void removeObject(const SceneNode &amp;object)</text>
<text text-anchor="start" x="136.5" y="-392" font-family="Helvetica,sans-Serif" font-size="10.00">+ void loadCurrentNode(std::istream &amp;in=std::cin) override</text>
<text text-anchor="start" x="136.5" y="-381" font-family="Helvetica,sans-Serif" font-size="10.00">+ void saveCurrentNode(std::ostream &amp;out=std::cout) const override</text>
<text text-anchor="start" x="136.5" y="-370" font-family="Helvetica,sans-Serif" font-size="10.00">+ std::string getClassName() const override</text>
<text text-anchor="start" x="136.5" y="-359" font-family="Helvetica,sans-Serif" font-size="10.00">&#45; bool shouldSave() const override</text>
<text text-anchor="middle" x="306" y="-348" font-family="Helvetica,sans-Serif" font-size="10.00">}</text>
</a>
</g>
</g>
<!-- Node3&#45;&gt;Node2 -->
<g id="edge2" class="edge">
<title>Node3&#45;&gt;Node2</title>
<path fill="none" stroke="#404040" d="M350.42,-340.55C367.44,-324.47 386.44,-306.53 401.82,-292"/>
<polygon fill="none" stroke="#404040" points="401.5,-292.31 403.11,-285.28 410.22,-284.07 408.61,-291.1 401.5,-292.31"/>
<text text-anchor="middle" x="403.5" y="-309.5" font-family="Helvetica,sans-Serif" font-size="10.00"> +ptr</text>
</g>
<!-- Node4 -->
<g id="node4" class="node">
<title>Node4</title>
<g id="a_node4"><a xlink:href="classSceneNode.html" target="_top" xlink:title="A node in the scene graph.">
<polygon fill="white" stroke="#666666" points="410,-800 0,-800 0,-473 410,-473 410,-800"/>
<text text-anchor="middle" x="205" y="-788" font-family="Helvetica,sans-Serif" font-size="10.00">{SceneNode</text>
<text text-anchor="start" x="8" y="-777" font-family="Helvetica,sans-Serif" font-size="10.00">|&#45; int idx</text>
<text text-anchor="start" x="8" y="-766" font-family="Helvetica,sans-Serif" font-size="10.00">&#45; bool debug</text>
<text text-anchor="start" x="8" y="-755" font-family="Helvetica,sans-Serif" font-size="10.00">&#45; bool applyDebugToChildren</text>
<text text-anchor="start" x="8" y="-744" font-family="Helvetica,sans-Serif" font-size="10.00">|+ &#160;SceneNode()</text>
<text text-anchor="start" x="8" y="-733" font-family="Helvetica,sans-Serif" font-size="10.00">+ virtual void attachChild(Ptr child)</text>
<text text-anchor="start" x="8" y="-722" font-family="Helvetica,sans-Serif" font-size="10.00">+ virtual Ptr detachChild(const SceneNode &amp;child)</text>
<text text-anchor="start" x="8" y="-711" font-family="Helvetica,sans-Serif" font-size="10.00">+ virtual void update(sf::Time dt)</text>
<text text-anchor="start" x="8" y="-700" font-family="Helvetica,sans-Serif" font-size="10.00">+ sf::Transform getAbsTransform() const</text>
<text text-anchor="start" x="8" y="-689" font-family="Helvetica,sans-Serif" font-size="10.00">+ sf::Vector2f getAbsPosition() const</text>
<text text-anchor="start" x="8" y="-678" font-family="Helvetica,sans-Serif" font-size="10.00">+ void checkNodeCollision(SceneNode &amp;node, std::set&lt; Pair &gt; &amp;collisions)</text>
<text text-anchor="start" x="8" y="-667" font-family="Helvetica,sans-Serif" font-size="10.00">+ void checkSceneCollision(SceneNode &amp;node, std::set&lt; Pair &gt; &amp;collisions)</text>
<text text-anchor="start" x="8" y="-656" font-family="Helvetica,sans-Serif" font-size="10.00">+ void setDebug(bool on, bool recursive=false)</text>
<text text-anchor="start" x="8" y="-645" font-family="Helvetica,sans-Serif" font-size="10.00">+ virtual Category::Type getCategory() const</text>
<text text-anchor="start" x="8" y="-634" font-family="Helvetica,sans-Serif" font-size="10.00">+ virtual void saveNode(std::ostream &amp;out) const</text>
<text text-anchor="start" x="8" y="-623" font-family="Helvetica,sans-Serif" font-size="10.00">+ bool operator&lt;(SceneNode const &amp;other) const</text>
<text text-anchor="start" x="8" y="-612" font-family="Helvetica,sans-Serif" font-size="10.00">+ virtual sf::FloatRect getBoundingRect() const</text>
<text text-anchor="start" x="8" y="-601" font-family="Helvetica,sans-Serif" font-size="10.00">+ virtual sf::FloatRect getLocalBounds() const</text>
<text text-anchor="start" x="8" y="-590" font-family="Helvetica,sans-Serif" font-size="10.00">+ virtual void draw(sf::RenderTarget &amp;target, sf::RenderStates state) const</text>
<text text-anchor="start" x="8" y="-579" font-family="Helvetica,sans-Serif" font-size="10.00"># virtual std::string getClassName() const</text>
<text text-anchor="start" x="8" y="-568" font-family="Helvetica,sans-Serif" font-size="10.00"># virtual void saveCurrentNode(std::ostream &amp;out=std::cout) const</text>
<text text-anchor="start" x="8" y="-557" font-family="Helvetica,sans-Serif" font-size="10.00"># virtual void loadCurrentNode(std::istream &amp;in=std::cin)</text>
<text text-anchor="start" x="8" y="-546" font-family="Helvetica,sans-Serif" font-size="10.00"># virtual void onLoadingFinished()</text>
<text text-anchor="start" x="8" y="-535" font-family="Helvetica,sans-Serif" font-size="10.00"># virtual bool shouldSave() const</text>
<text text-anchor="start" x="8" y="-524" font-family="Helvetica,sans-Serif" font-size="10.00">&#45; void drawBoundingBox(sf::RenderTarget &amp;target, sf::RenderStates states) const</text>
<text text-anchor="start" x="8" y="-513" font-family="Helvetica,sans-Serif" font-size="10.00">&#45; virtual void drawCurrent(sf::RenderTarget &amp;target, sf::RenderStates state) const</text>
<text text-anchor="start" x="8" y="-502" font-family="Helvetica,sans-Serif" font-size="10.00">&#45; virtual void updateCurrent(sf::Time dt)</text>
<text text-anchor="start" x="8" y="-491" font-family="Helvetica,sans-Serif" font-size="10.00">&#45; void updateChildren(sf::Time dt)</text>
<text text-anchor="middle" x="205" y="-480" font-family="Helvetica,sans-Serif" font-size="10.00">}</text>
</a>
</g>
</g>
<!-- Node4&#45;&gt;Node1 -->
<g id="edge17" class="edge">
<title>Node4&#45;&gt;Node1</title>
<path fill="none" stroke="#404040" d="M114.92,-472.79C101.93,-428.86 98.84,-382.13 119,-341 145.98,-285.97 192.13,-239.86 240.83,-203.12"/>
<polygon fill="none" stroke="#404040" points="240.87,-203.09 243.33,-196.31 250.53,-195.96 248.08,-202.75 240.87,-203.09"/>
<text text-anchor="middle" x="187.5" y="-315" font-family="Helvetica,sans-Serif" font-size="10.00"> &#45;backgroundLayer</text>
<text text-anchor="middle" x="187.5" y="-304" font-family="Helvetica,sans-Serif" font-size="10.00">&#45;roadLayer</text>
</g>
<!-- Node4&#45;&gt;Node3 -->
<g id="edge3" class="edge">
<title>Node4&#45;&gt;Node3</title>
<path fill="none" stroke="#63b8ff" d="M274.78,-462.09C280,-449.12 284.89,-436.96 289.18,-426.29"/>
<polygon fill="none" stroke="#63b8ff" points="271.58,-460.65 271.1,-471.24 278.08,-463.27 271.58,-460.65"/>
</g>
<!-- Node4&#45;&gt;Node4 -->
<g id="edge12" class="edge">
<title>Node4&#45;&gt;Node4</title>
<path fill="none" stroke="#404040" d="M410.25,-659.84C421.39,-654.14 428,-646.36 428,-636.5 428,-630.34 425.42,-624.99 420.76,-620.45"/>
<polygon fill="none" stroke="#404040" points="420.85,-620.51 413.64,-620.38 410.99,-613.67 418.2,-613.8 420.85,-620.51"/>
<text text-anchor="middle" x="452" y="-634" font-family="Helvetica,sans-Serif" font-size="10.00"> &#45;mParent</text>
</g>
<!-- Node12 -->
<g id="node12" class="node">
<title>Node12</title>
<g id="a_node12"><a xlink:title=" ">
<polygon fill="white" stroke="#666666" points="713.5,-404 540.5,-404 540.5,-363 713.5,-363 713.5,-404"/>
<text text-anchor="middle" x="627" y="-392" font-family="Helvetica,sans-Serif" font-size="10.00">{std::unique_ptr&lt; SceneNode &gt;</text>
<text text-anchor="start" x="548.5" y="-381" font-family="Helvetica,sans-Serif" font-size="10.00">||+ SceneNode * operator&#45;&gt;()</text>
<text text-anchor="middle" x="627" y="-370" font-family="Helvetica,sans-Serif" font-size="10.00">}</text>
</a>
</g>
</g>
<!-- Node4&#45;&gt;Node12 -->
<g id="edge15" class="edge">
<title>Node4&#45;&gt;Node12</title>
<path fill="none" stroke="#404040" d="M410.44,-513.31C475.2,-474.79 540.66,-435.86 582.39,-411.03"/>
<polygon fill="none" stroke="#404040" points="582.42,-411.01 585.54,-404.51 592.74,-404.88 589.63,-411.38 582.42,-411.01"/>
<text text-anchor="middle" x="537.5" y="-447" font-family="Helvetica,sans-Serif" font-size="10.00"> +ptr</text>
</g>
<!-- Node5 -->
<g id="node5" class="node">
<title>Node5</title>
<g id="a_node5"><a xlink:title=" ">
<polygon fill="white" stroke="#666666" points="235.5,-877 152.5,-877 152.5,-847 235.5,-847 235.5,-877"/>
<text text-anchor="middle" x="194" y="-865" font-family="Helvetica,sans-Serif" font-size="10.00">{sf::Drawable</text>
<text text-anchor="middle" x="194" y="-854" font-family="Helvetica,sans-Serif" font-size="10.00">||}</text>
</a>
</g>
</g>
<!-- Node5&#45;&gt;Node4 -->
<g id="edge4" class="edge">
<title>Node5&#45;&gt;Node4</title>
<path fill="none" stroke="#63b8ff" d="M195.27,-835.2C195.75,-825.43 196.34,-813.46 196.99,-800.28"/>
<polygon fill="none" stroke="#63b8ff" points="191.78,-835.01 194.78,-845.17 198.77,-835.35 191.78,-835.01"/>
</g>
<!-- Node6 -->
<g id="node6" class="node">
<title>Node6</title>
<g id="a_node6"><a xlink:title=" ">
<polygon fill="white" stroke="#666666" points="134.5,-877 27.5,-877 27.5,-847 134.5,-847 134.5,-877"/>
<text text-anchor="middle" x="81" y="-865" font-family="Helvetica,sans-Serif" font-size="10.00">{sf::Transformable</text>
<text text-anchor="middle" x="81" y="-854" font-family="Helvetica,sans-Serif" font-size="10.00">||}</text>
</a>
</g>
</g>
<!-- Node6&#45;&gt;Node4 -->
<g id="edge5" class="edge">
<title>Node6&#45;&gt;Node4</title>
<path fill="none" stroke="#63b8ff" d="M94.41,-836.82C99.99,-826.77 106.97,-814.2 114.69,-800.28"/>
<polygon fill="none" stroke="#63b8ff" points="91.47,-834.91 89.68,-845.36 97.59,-838.31 91.47,-834.91"/>
</g>
<!-- Node7 -->
<g id="node7" class="node">
<title>Node7</title>
<g id="a_node7"><a xlink:title=" ">
<polygon fill="white" stroke="#666666" points="484,-877 382,-877 382,-847 484,-847 484,-877"/>
<text text-anchor="middle" x="433" y="-865" font-family="Helvetica,sans-Serif" font-size="10.00">{sf::NonCopyable</text>
<text text-anchor="middle" x="433" y="-854" font-family="Helvetica,sans-Serif" font-size="10.00">||}</text>
</a>
</g>
</g>
<!-- Node7&#45;&gt;Node4 -->
<g id="edge6" class="edge">
<title>Node7&#45;&gt;Node4</title>
<path fill="none" stroke="#8b1a1a" d="M410.27,-838.72C399.72,-828.37 386.16,-815.09 371.05,-800.28"/>
<polygon fill="none" stroke="#8b1a1a" points="407.72,-841.12 417.31,-845.62 412.62,-836.12 407.72,-841.12"/>
</g>
<!-- Node8 -->
<g id="node8" class="node">
<title>Node8</title>
<g id="a_node8"><a xlink:title=" ">
<polygon fill="white" stroke="#666666" points="364,-877 254,-877 254,-847 364,-847 364,-877"/>
<text text-anchor="middle" x="309" y="-865" font-family="Helvetica,sans-Serif" font-size="10.00">{std::vector&lt; Ptr &gt;</text>
<text text-anchor="middle" x="309" y="-854" font-family="Helvetica,sans-Serif" font-size="10.00">||}</text>
</a>
</g>
</g>
<!-- Node8&#45;&gt;Node4 -->
<g id="edge7" class="edge">
<title>Node8&#45;&gt;Node4</title>
<path fill="none" stroke="#404040" d="M302.34,-846.68C298.3,-838.01 292.68,-825.93 286.16,-811.91"/>
<polygon fill="none" stroke="#404040" points="286.19,-811.97 280.03,-808.22 281.12,-801.09 287.28,-804.85 286.19,-811.97"/>
<text text-anchor="middle" x="323" y="-821" font-family="Helvetica,sans-Serif" font-size="10.00"> &#45;mChildren</text>
</g>
<!-- Node9 -->
<g id="node9" class="node">
<title>Node9</title>
<g id="a_node9"><a xlink:title=" ">
<polygon fill="white" stroke="#666666" points="548,-965 424,-965 424,-924 548,-924 548,-965"/>
<text text-anchor="middle" x="486" y="-953" font-family="Helvetica,sans-Serif" font-size="10.00">{std::unique_ptr&lt; T &gt;</text>
<text text-anchor="start" x="432" y="-942" font-family="Helvetica,sans-Serif" font-size="10.00">||+ T * operator&#45;&gt;()</text>
<text text-anchor="middle" x="486" y="-931" font-family="Helvetica,sans-Serif" font-size="10.00">}</text>
</a>
</g>
</g>
<!-- Node9&#45;&gt;Node2 -->
<g id="edge13" class="edge">
<title>Node9&#45;&gt;Node2</title>
<path fill="none" stroke="orange" d="M500.77,-913.02C506.63,-898.27 512,-880.09 512,-863 512,-863 512,-863 512,-382.5 512,-341.92 479.57,-304.77 456,-283.14"/>
<polygon fill="orange" stroke="orange" points="497.57,-911.6 496.87,-922.17 504.01,-914.34 497.57,-911.6"/>
<text text-anchor="middle" x="538" y="-634" font-family="Helvetica,sans-Serif" font-size="10.00"> &lt; Level &gt;</text>
</g>
<!-- Node9&#45;&gt;Node8 -->
<g id="edge8" class="edge">
<title>Node9&#45;&gt;Node8</title>
<path fill="none" stroke="#404040" d="M442.25,-923.6C414.87,-911.15 379.74,-895.17 352.43,-882.75"/>
<polygon fill="none" stroke="#404040" points="352.61,-882.83 345.49,-883.99 341.68,-877.86 348.8,-876.71 352.61,-882.83"/>
<text text-anchor="middle" x="431" y="-898" font-family="Helvetica,sans-Serif" font-size="10.00"> +elements</text>
</g>
<!-- Node9&#45;&gt;Node12 -->
<g id="edge16" class="edge">
<title>Node9&#45;&gt;Node12</title>
<path fill="none" stroke="orange" d="M518.56,-915.46C521.26,-912.42 523.79,-909.25 526,-906 554.51,-864.1 555.01,-848.98 568,-800 607.49,-651.05 622,-464.61 625.85,-404.3"/>
<polygon fill="orange" stroke="orange" points="516.14,-912.92 511.7,-922.54 521.17,-917.79 516.14,-912.92"/>
<text text-anchor="middle" x="603.5" y="-821" font-family="Helvetica,sans-Serif" font-size="10.00"> &lt; SceneNode &gt;</text>
</g>
<!-- Node10 -->
<g id="node10" class="node">
<title>Node10</title>
<g id="a_node10"><a xlink:title=" ">
<polygon fill="white" stroke="#666666" points="407.5,-1042 378.5,-1042 378.5,-1012 407.5,-1012 407.5,-1042"/>
<text text-anchor="middle" x="393" y="-1030" font-family="Helvetica,sans-Serif" font-size="10.00">{T</text>
<text text-anchor="middle" x="393" y="-1019" font-family="Helvetica,sans-Serif" font-size="10.00">||}</text>
</a>
</g>
</g>
<!-- Node10&#45;&gt;Node9 -->
<g id="edge9" class="edge">
<title>Node10&#45;&gt;Node9</title>
<path fill="none" stroke="#404040" d="M407.94,-1013.07C420.16,-1002.49 437.87,-987.16 453.34,-973.77"/>
<polygon fill="none" stroke="#404040" points="453.34,-973.77 455.26,-966.82 462.42,-965.91 460.5,-972.86 453.34,-973.77"/>
<text text-anchor="middle" x="454.5" y="-986" font-family="Helvetica,sans-Serif" font-size="10.00"> +ptr</text>
</g>
<!-- Node11 -->
<g id="node11" class="node">
<title>Node11</title>
<g id="a_node11"><a xlink:title=" ">
<polygon fill="white" stroke="#666666" points="379.5,-959.5 276.5,-959.5 276.5,-929.5 379.5,-929.5 379.5,-959.5"/>
<text text-anchor="middle" x="328" y="-947.5" font-family="Helvetica,sans-Serif" font-size="10.00">{std::vector&lt; T &gt;</text>
<text text-anchor="middle" x="328" y="-936.5" font-family="Helvetica,sans-Serif" font-size="10.00">||}</text>
</a>
</g>
</g>
<!-- Node10&#45;&gt;Node11 -->
<g id="edge11" class="edge">
<title>Node10&#45;&gt;Node11</title>
<path fill="none" stroke="#404040" d="M381.38,-1011.61C371.95,-999.93 358.46,-983.22 347.4,-969.52"/>
<polygon fill="none" stroke="#404040" points="347.63,-969.8 340.74,-967.65 340.09,-960.47 346.97,-962.62 347.63,-969.8"/>
<text text-anchor="middle" x="395" y="-986" font-family="Helvetica,sans-Serif" font-size="10.00"> +elements</text>
</g>
<!-- Node11&#45;&gt;Node8 -->
<g id="edge10" class="edge">
<title>Node11&#45;&gt;Node8</title>
<path fill="none" stroke="orange" d="M322.01,-918.11C318.83,-904.63 315.03,-888.57 312.37,-877.27"/>
<polygon fill="orange" stroke="orange" points="318.55,-918.71 324.26,-927.64 325.36,-917.1 318.55,-918.71"/>
<text text-anchor="middle" x="339" y="-898" font-family="Helvetica,sans-Serif" font-size="10.00"> &lt; Ptr &gt;</text>
</g>
<!-- Node12&#45;&gt;Node1 -->
<g id="edge14" class="edge">
<title>Node12&#45;&gt;Node1</title>
<path fill="none" stroke="#404040" d="M613.29,-362.53C591.05,-330.14 545.58,-263.92 505.75,-205.91"/>
<polygon fill="none" stroke="#404040" points="505.69,-205.82 498.99,-203.14 498.9,-195.93 505.59,-198.61 505.69,-205.82"/>
<text text-anchor="middle" x="567.5" y="-260" font-family="Helvetica,sans-Serif" font-size="10.00"> &#45;bg</text>
</g>
</g>
</svg>
