<?xml version="1.0" encoding="UTF-8" standalone="no"?>
<!DOCTYPE svg PUBLIC "-//W3C//DTD SVG 1.1//EN"
 "http://www.w3.org/Graphics/SVG/1.1/DTD/svg11.dtd">
<!-- Generated by graphviz version 7.0.5 (0)
 -->
<!-- Title: StopOnCommandEffect Pages: 1 -->
<svg width="456pt" height="522pt"
 viewBox="0.00 0.00 456.00 522.00" xmlns="http://www.w3.org/2000/svg" xmlns:xlink="http://www.w3.org/1999/xlink">
<g id="graph0" class="graph" transform="scale(1 1) rotate(0) translate(4 518)">
<title>StopOnCommandEffect</title>
<!-- Node1 -->
<g id="node1" class="node">
<title>Node1</title>
<g id="a_node1"><a xlink:title=" ">
<polygon fill="#999999" stroke="#666666" points="232,-85 0,-85 0,0 232,0 232,-85"/>
<text text-anchor="middle" x="116" y="-73" font-family="Helvetica,sans-Serif" font-size="10.00">{StopOnCommandEffect</text>
<text text-anchor="start" x="8" y="-62" font-family="Helvetica,sans-Serif" font-size="10.00">|&#45; bool stop_</text>
<text text-anchor="start" x="8" y="-51" font-family="Helvetica,sans-Serif" font-size="10.00">|+ void stop()</text>
<text text-anchor="start" x="8" y="-40" font-family="Helvetica,sans-Serif" font-size="10.00">+ &#160;Effect()=default</text>
<text text-anchor="start" x="8" y="-29" font-family="Helvetica,sans-Serif" font-size="10.00">+ &#160;Effect(std::unique_ptr&lt; Effect &gt; wrapper)</text>
<text text-anchor="start" x="8" y="-18" font-family="Helvetica,sans-Serif" font-size="10.00">&#45; int timesCurrent() const override</text>
<text text-anchor="middle" x="116" y="-7" font-family="Helvetica,sans-Serif" font-size="10.00">}</text>
</a>
</g>
</g>
<!-- Node2 -->
<g id="node2" class="node">
<title>Node2</title>
<g id="a_node2"><a xlink:href="classEffect.html" target="_top" xlink:title=" ">
<polygon fill="white" stroke="#666666" points="305.5,-437 14.5,-437 14.5,-132 305.5,-132 305.5,-437"/>
<text text-anchor="middle" x="160" y="-425" font-family="Helvetica,sans-Serif" font-size="10.00">{Effect</text>
<text text-anchor="start" x="22.5" y="-414" font-family="Helvetica,sans-Serif" font-size="10.00">||+ &#160;Effect()=default</text>
<text text-anchor="start" x="22.5" y="-403" font-family="Helvetica,sans-Serif" font-size="10.00">+ &#160;Effect(std::unique_ptr&lt; Effect &gt; wrapper)</text>
<text text-anchor="start" x="22.5" y="-392" font-family="Helvetica,sans-Serif" font-size="10.00">+ void concat(std::unique_ptr&lt; Effect &gt; boost)</text>
<text text-anchor="start" x="22.5" y="-381" font-family="Helvetica,sans-Serif" font-size="10.00">+ float healthDelta() const</text>
<text text-anchor="start" x="22.5" y="-370" font-family="Helvetica,sans-Serif" font-size="10.00">+ sf::Vector2f sizeScale() const</text>
<text text-anchor="start" x="22.5" y="-359" font-family="Helvetica,sans-Serif" font-size="10.00">+ sf::Vector2i distanceScale() const</text>
<text text-anchor="start" x="22.5" y="-348" font-family="Helvetica,sans-Serif" font-size="10.00">+ float jumpDurationScale() const</text>
<text text-anchor="start" x="22.5" y="-337" font-family="Helvetica,sans-Serif" font-size="10.00">+ int invincible() const</text>
<text text-anchor="start" x="22.5" y="-326" font-family="Helvetica,sans-Serif" font-size="10.00">+ sf::Time durationEach() const</text>
<text text-anchor="start" x="22.5" y="-315" font-family="Helvetica,sans-Serif" font-size="10.00">+ int times() const</text>
<text text-anchor="start" x="22.5" y="-304" font-family="Helvetica,sans-Serif" font-size="10.00">+ void runMisc() const</text>
<text text-anchor="start" x="22.5" y="-293" font-family="Helvetica,sans-Serif" font-size="10.00">+ std::unique_ptr&lt; Effect &gt; onEnd() const</text>
<text text-anchor="start" x="22.5" y="-282" font-family="Helvetica,sans-Serif" font-size="10.00">+ std::unique_ptr&lt; Effect &gt; nextEffect()</text>
<text text-anchor="start" x="22.5" y="-271" font-family="Helvetica,sans-Serif" font-size="10.00">+ virtual ~Effect()=default</text>
<text text-anchor="start" x="22.5" y="-260" font-family="Helvetica,sans-Serif" font-size="10.00"># virtual float healthDeltaCurrent() const</text>
<text text-anchor="start" x="22.5" y="-249" font-family="Helvetica,sans-Serif" font-size="10.00"># virtual sf::Vector2f sizeScaleCurrent() const</text>
<text text-anchor="start" x="22.5" y="-238" font-family="Helvetica,sans-Serif" font-size="10.00"># virtual sf::Vector2i distanceScaleCurrent() const</text>
<text text-anchor="start" x="22.5" y="-227" font-family="Helvetica,sans-Serif" font-size="10.00"># virtual float jumpDurationScaleCurrent() const</text>
<text text-anchor="start" x="22.5" y="-216" font-family="Helvetica,sans-Serif" font-size="10.00"># virtual int invincibleCurrent() const</text>
<text text-anchor="start" x="22.5" y="-205" font-family="Helvetica,sans-Serif" font-size="10.00"># virtual sf::Time durationEachCurrent() const</text>
<text text-anchor="start" x="22.5" y="-194" font-family="Helvetica,sans-Serif" font-size="10.00"># virtual int timesCurrent() const</text>
<text text-anchor="start" x="22.5" y="-183" font-family="Helvetica,sans-Serif" font-size="10.00"># virtual void runMiscCurrentBefore() const</text>
<text text-anchor="start" x="22.5" y="-172" font-family="Helvetica,sans-Serif" font-size="10.00"># virtual void runMiscCurrentAfter() const</text>
<text text-anchor="start" x="22.5" y="-161" font-family="Helvetica,sans-Serif" font-size="10.00"># virtual std::unique_ptr&lt; Effect &gt; onEndCurrent() const</text>
<text text-anchor="start" x="22.5" y="-150" font-family="Helvetica,sans-Serif" font-size="10.00"># virtual std::unique_ptr&lt; Effect &gt; nextEffectCurrent()</text>
<text text-anchor="middle" x="160" y="-139" font-family="Helvetica,sans-Serif" font-size="10.00">}</text>
</a>
</g>
</g>
<!-- Node2&#45;&gt;Node1 -->
<g id="edge1" class="edge">
<title>Node2&#45;&gt;Node1</title>
<path fill="none" stroke="#63b8ff" d="M130.08,-120.28C127.77,-107.7 125.6,-95.85 123.68,-85.4"/>
<polygon fill="none" stroke="#63b8ff" points="126.62,-120.81 131.86,-130.02 133.5,-119.55 126.62,-120.81"/>
</g>
<!-- Node3 -->
<g id="node3" class="node">
<title>Node3</title>
<g id="a_node3"><a xlink:title=" ">
<polygon fill="white" stroke="#666666" points="396,-63 250,-63 250,-22 396,-22 396,-63"/>
<text text-anchor="middle" x="323" y="-51" font-family="Helvetica,sans-Serif" font-size="10.00">{std::unique_ptr&lt; Effect &gt;</text>
<text text-anchor="start" x="258" y="-40" font-family="Helvetica,sans-Serif" font-size="10.00">||+ Effect * operator&#45;&gt;()</text>
<text text-anchor="middle" x="323" y="-29" font-family="Helvetica,sans-Serif" font-size="10.00">}</text>
</a>
</g>
</g>
<!-- Node2&#45;&gt;Node3 -->
<g id="edge3" class="edge">
<title>Node2&#45;&gt;Node3</title>
<path fill="none" stroke="#404040" d="M230.41,-131.83C236.9,-121.77 243.78,-112.05 251,-103 260.22,-91.45 271.99,-80.59 283.34,-71.38"/>
<polygon fill="none" stroke="#404040" points="283.37,-71.35 285.65,-64.51 292.84,-63.98 290.57,-70.82 283.37,-71.35"/>
<text text-anchor="middle" x="263.5" y="-106" font-family="Helvetica,sans-Serif" font-size="10.00"> +ptr</text>
</g>
<!-- Node3&#45;&gt;Node2 -->
<g id="edge2" class="edge">
<title>Node3&#45;&gt;Node2</title>
<path fill="none" stroke="#404040" d="M309.6,-63.24C300,-77.37 286.05,-97.9 270.49,-120.82"/>
<polygon fill="none" stroke="#404040" points="270.48,-120.83 270.42,-128.04 263.74,-130.76 263.8,-123.55 270.48,-120.83"/>
<text text-anchor="middle" x="303.5" y="-106" font-family="Helvetica,sans-Serif" font-size="10.00"> &#45;wrapper</text>
</g>
<!-- Node4 -->
<g id="node4" class="node">
<title>Node4</title>
<g id="a_node4"><a xlink:title=" ">
<polygon fill="white" stroke="#666666" points="448,-305 324,-305 324,-264 448,-264 448,-305"/>
<text text-anchor="middle" x="386" y="-293" font-family="Helvetica,sans-Serif" font-size="10.00">{std::unique_ptr&lt; T &gt;</text>
<text text-anchor="start" x="332" y="-282" font-family="Helvetica,sans-Serif" font-size="10.00">||+ T * operator&#45;&gt;()</text>
<text text-anchor="middle" x="386" y="-271" font-family="Helvetica,sans-Serif" font-size="10.00">}</text>
</a>
</g>
</g>
<!-- Node4&#45;&gt;Node3 -->
<g id="edge4" class="edge">
<title>Node4&#45;&gt;Node3</title>
<path fill="none" stroke="orange" d="M377.95,-252.82C364.83,-202.86 339.23,-105.32 328.23,-63.41"/>
<polygon fill="orange" stroke="orange" points="374.54,-253.61 380.46,-262.4 381.31,-251.83 374.54,-253.61"/>
<text text-anchor="middle" x="366" y="-106" font-family="Helvetica,sans-Serif" font-size="10.00"> &lt; Effect &gt;</text>
</g>
<!-- Node5 -->
<g id="node5" class="node">
<title>Node5</title>
<g id="a_node5"><a xlink:title=" ">
<polygon fill="white" stroke="#666666" points="400.5,-514 371.5,-514 371.5,-484 400.5,-484 400.5,-514"/>
<text text-anchor="middle" x="386" y="-502" font-family="Helvetica,sans-Serif" font-size="10.00">{T</text>
<text text-anchor="middle" x="386" y="-491" font-family="Helvetica,sans-Serif" font-size="10.00">||}</text>
</a>
</g>
</g>
<!-- Node5&#45;&gt;Node4 -->
<g id="edge5" class="edge">
<title>Node5&#45;&gt;Node4</title>
<path fill="none" stroke="#404040" d="M386,-483.73C386,-450.18 386,-365.57 386,-318.46"/>
<polygon fill="none" stroke="#404040" points="386,-318.32 382,-312.32 386,-306.32 390,-312.32 386,-318.32"/>
<text text-anchor="middle" x="398.5" y="-458" font-family="Helvetica,sans-Serif" font-size="10.00"> +ptr</text>
</g>
</g>
</svg>
