<?xml version="1.0" encoding="UTF-8" standalone="no"?>
<!DOCTYPE svg PUBLIC "-//W3C//DTD SVG 1.1//EN"
 "http://www.w3.org/Graphics/SVG/1.1/DTD/svg11.dtd">
<!-- Generated by graphviz version 7.0.5 (0)
 -->
<!-- Title: SizeEffect Pages: 1 -->
<svg width="552pt" height="522pt"
 viewBox="0.00 0.00 552.00 522.00" xmlns="http://www.w3.org/2000/svg" xmlns:xlink="http://www.w3.org/1999/xlink">
<g id="graph0" class="graph" transform="scale(1 1) rotate(0) translate(4 518)">
<title>SizeEffect</title>
<!-- Node1 -->
<g id="node1" class="node">
<title>Node1</title>
<g id="a_node1"><a xlink:title=" ">
<polygon fill="#999999" stroke="#666666" points="296,-85 0,-85 0,0 296,0 296,-85"/>
<text text-anchor="middle" x="148" y="-73" font-family="Helvetica,sans-Serif" font-size="10.00">{SizeEffect</text>
<text text-anchor="start" x="8" y="-62" font-family="Helvetica,sans-Serif" font-size="10.00">|&#45; sf::Vector2f sizeScale_</text>
<text text-anchor="start" x="8" y="-51" font-family="Helvetica,sans-Serif" font-size="10.00">&#45; bool reverse_</text>
<text text-anchor="start" x="8" y="-40" font-family="Helvetica,sans-Serif" font-size="10.00">|+ &#160;SizeEffect(sf::Vector2f sizeScale, bool reverse=true)</text>
<text text-anchor="start" x="8" y="-29" font-family="Helvetica,sans-Serif" font-size="10.00">&#45; sf::Vector2f sizeScaleCurrent() const override</text>
<text text-anchor="start" x="8" y="-18" font-family="Helvetica,sans-Serif" font-size="10.00">&#45; std::unique_ptr&lt; Effect &gt; onEndCurrent() const override</text>
<text text-anchor="middle" x="148" y="-7" font-family="Helvetica,sans-Serif" font-size="10.00">}</text>
</a>
</g>
</g>
<!-- Node2 -->
<g id="node2" class="node">
<title>Node2</title>
<g id="a_node2"><a xlink:href="classEffect.html" target="_top" xlink:title=" ">
<polygon fill="white" stroke="#666666" points="401.5,-437 110.5,-437 110.5,-132 401.5,-132 401.5,-437"/>
<text text-anchor="middle" x="256" y="-425" font-family="Helvetica,sans-Serif" font-size="10.00">{Effect</text>
<text text-anchor="start" x="118.5" y="-414" font-family="Helvetica,sans-Serif" font-size="10.00">||+ &#160;Effect()=default</text>
<text text-anchor="start" x="118.5" y="-403" font-family="Helvetica,sans-Serif" font-size="10.00">+ &#160;Effect(std::unique_ptr&lt; Effect &gt; wrapper)</text>
<text text-anchor="start" x="118.5" y="-392" font-family="Helvetica,sans-Serif" font-size="10.00">+ void concat(std::unique_ptr&lt; Effect &gt; boost)</text>
<text text-anchor="start" x="118.5" y="-381" font-family="Helvetica,sans-Serif" font-size="10.00">+ float healthDelta() const</text>
<text text-anchor="start" x="118.5" y="-370" font-family="Helvetica,sans-Serif" font-size="10.00">+ sf::Vector2f sizeScale() const</text>
<text text-anchor="start" x="118.5" y="-359" font-family="Helvetica,sans-Serif" font-size="10.00">+ sf::Vector2i distanceScale() const</text>
<text text-anchor="start" x="118.5" y="-348" font-family="Helvetica,sans-Serif" font-size="10.00">+ float jumpDurationScale() const</text>
<text text-anchor="start" x="118.5" y="-337" font-family="Helvetica,sans-Serif" font-size="10.00">+ int invincible() const</text>
<text text-anchor="start" x="118.5" y="-326" font-family="Helvetica,sans-Serif" font-size="10.00">+ sf::Time durationEach() const</text>
<text text-anchor="start" x="118.5" y="-315" font-family="Helvetica,sans-Serif" font-size="10.00">+ int times() const</text>
<text text-anchor="start" x="118.5" y="-304" font-family="Helvetica,sans-Serif" font-size="10.00">+ void runMisc() const</text>
<text text-anchor="start" x="118.5" y="-293" font-family="Helvetica,sans-Serif" font-size="10.00">+ std::unique_ptr&lt; Effect &gt; onEnd() const</text>
<text text-anchor="start" x="118.5" y="-282" font-family="Helvetica,sans-Serif" font-size="10.00">+ std::unique_ptr&lt; Effect &gt; nextEffect()</text>
<text text-anchor="start" x="118.5" y="-271" font-family="Helvetica,sans-Serif" font-size="10.00">+ virtual ~Effect()=default</text>
<text text-anchor="start" x="118.5" y="-260" font-family="Helvetica,sans-Serif" font-size="10.00"># virtual float healthDeltaCurrent() const</text>
<text text-anchor="start" x="118.5" y="-249" font-family="Helvetica,sans-Serif" font-size="10.00"># virtual sf::Vector2f sizeScaleCurrent() const</text>
<text text-anchor="start" x="118.5" y="-238" font-family="Helvetica,sans-Serif" font-size="10.00"># virtual sf::Vector2i distanceScaleCurrent() const</text>
<text text-anchor="start" x="118.5" y="-227" font-family="Helvetica,sans-Serif" font-size="10.00"># virtual float jumpDurationScaleCurrent() const</text>
<text text-anchor="start" x="118.5" y="-216" font-family="Helvetica,sans-Serif" font-size="10.00"># virtual int invincibleCurrent() const</text>
<text text-anchor="start" x="118.5" y="-205" font-family="Helvetica,sans-Serif" font-size="10.00"># virtual sf::Time durationEachCurrent() const</text>
<text text-anchor="start" x="118.5" y="-194" font-family="Helvetica,sans-Serif" font-size="10.00"># virtual int timesCurrent() const</text>
<text text-anchor="start" x="118.5" y="-183" font-family="Helvetica,sans-Serif" font-size="10.00"># virtual void runMiscCurrentBefore() const</text>
<text text-anchor="start" x="118.5" y="-172" font-family="Helvetica,sans-Serif" font-size="10.00"># virtual void runMiscCurrentAfter() const</text>
<text text-anchor="start" x="118.5" y="-161" font-family="Helvetica,sans-Serif" font-size="10.00"># virtual std::unique_ptr&lt; Effect &gt; onEndCurrent() const</text>
<text text-anchor="start" x="118.5" y="-150" font-family="Helvetica,sans-Serif" font-size="10.00"># virtual std::unique_ptr&lt; Effect &gt; nextEffectCurrent()</text>
<text text-anchor="middle" x="256" y="-139" font-family="Helvetica,sans-Serif" font-size="10.00">}</text>
</a>
</g>
</g>
<!-- Node2&#45;&gt;Node1 -->
<g id="edge1" class="edge">
<title>Node2&#45;&gt;Node1</title>
<path fill="none" stroke="#63b8ff" d="M182.89,-121.04C177.1,-108.18 171.65,-96.06 166.85,-85.4"/>
<polygon fill="none" stroke="#63b8ff" points="179.69,-122.44 186.98,-130.12 186.07,-119.57 179.69,-122.44"/>
</g>
<!-- Node3 -->
<g id="node3" class="node">
<title>Node3</title>
<g id="a_node3"><a xlink:title=" ">
<polygon fill="white" stroke="#666666" points="460,-63 314,-63 314,-22 460,-22 460,-63"/>
<text text-anchor="middle" x="387" y="-51" font-family="Helvetica,sans-Serif" font-size="10.00">{std::unique_ptr&lt; Effect &gt;</text>
<text text-anchor="start" x="322" y="-40" font-family="Helvetica,sans-Serif" font-size="10.00">||+ Effect * operator&#45;&gt;()</text>
<text text-anchor="middle" x="387" y="-29" font-family="Helvetica,sans-Serif" font-size="10.00">}</text>
</a>
</g>
</g>
<!-- Node2&#45;&gt;Node3 -->
<g id="edge3" class="edge">
<title>Node2&#45;&gt;Node3</title>
<path fill="none" stroke="#404040" d="M306.24,-131.65C311.39,-121.69 316.97,-112.04 323,-103 330.52,-91.74 340.57,-81.1 350.48,-72.01"/>
<polygon fill="none" stroke="#404040" points="350.53,-71.97 352.41,-65.01 359.56,-64.07 357.68,-71.04 350.53,-71.97"/>
<text text-anchor="middle" x="335.5" y="-106" font-family="Helvetica,sans-Serif" font-size="10.00"> +ptr</text>
</g>
<!-- Node3&#45;&gt;Node2 -->
<g id="edge2" class="edge">
<title>Node3&#45;&gt;Node2</title>
<path fill="none" stroke="#404040" d="M376.23,-63.24C368.58,-77.24 357.51,-97.53 345.13,-120.2"/>
<polygon fill="none" stroke="#404040" points="345.15,-120.18 345.78,-127.36 339.4,-130.71 338.76,-123.53 345.15,-120.18"/>
<text text-anchor="middle" x="375.5" y="-106" font-family="Helvetica,sans-Serif" font-size="10.00"> &#45;wrapper</text>
</g>
<!-- Node4 -->
<g id="node4" class="node">
<title>Node4</title>
<g id="a_node4"><a xlink:title=" ">
<polygon fill="white" stroke="#666666" points="544,-305 420,-305 420,-264 544,-264 544,-305"/>
<text text-anchor="middle" x="482" y="-293" font-family="Helvetica,sans-Serif" font-size="10.00">{std::unique_ptr&lt; T &gt;</text>
<text text-anchor="start" x="428" y="-282" font-family="Helvetica,sans-Serif" font-size="10.00">||+ T * operator&#45;&gt;()</text>
<text text-anchor="middle" x="482" y="-271" font-family="Helvetica,sans-Serif" font-size="10.00">}</text>
</a>
</g>
</g>
<!-- Node4&#45;&gt;Node3 -->
<g id="edge4" class="edge">
<title>Node4&#45;&gt;Node3</title>
<path fill="none" stroke="orange" d="M470.1,-253.45C450.41,-203.68 411.54,-105.49 394.88,-63.41"/>
<polygon fill="orange" stroke="orange" points="466.73,-254.44 473.67,-262.45 473.24,-251.87 466.73,-254.44"/>
<text text-anchor="middle" x="439" y="-106" font-family="Helvetica,sans-Serif" font-size="10.00"> &lt; Effect &gt;</text>
</g>
<!-- Node5 -->
<g id="node5" class="node">
<title>Node5</title>
<g id="a_node5"><a xlink:title=" ">
<polygon fill="white" stroke="#666666" points="496.5,-514 467.5,-514 467.5,-484 496.5,-484 496.5,-514"/>
<text text-anchor="middle" x="482" y="-502" font-family="Helvetica,sans-Serif" font-size="10.00">{T</text>
<text text-anchor="middle" x="482" y="-491" font-family="Helvetica,sans-Serif" font-size="10.00">||}</text>
</a>
</g>
</g>
<!-- Node5&#45;&gt;Node4 -->
<g id="edge5" class="edge">
<title>Node5&#45;&gt;Node4</title>
<path fill="none" stroke="#404040" d="M482,-483.73C482,-450.18 482,-365.57 482,-318.46"/>
<polygon fill="none" stroke="#404040" points="482,-318.32 478,-312.32 482,-306.32 486,-312.32 482,-318.32"/>
<text text-anchor="middle" x="494.5" y="-458" font-family="Helvetica,sans-Serif" font-size="10.00"> +ptr</text>
</g>
</g>
</svg>
