<?xml version="1.0" encoding="UTF-8" standalone="no"?>
<!DOCTYPE svg PUBLIC "-//W3C//DTD SVG 1.1//EN"
 "http://www.w3.org/Graphics/SVG/1.1/DTD/svg11.dtd">
<!-- Generated by graphviz version 7.0.5 (0)
 -->
<!-- Title: RoadLaneController Pages: 1 -->
<svg width="449pt" height="1014pt"
 viewBox="0.00 0.00 448.50 1014.00" xmlns="http://www.w3.org/2000/svg" xmlns:xlink="http://www.w3.org/1999/xlink">
<g id="graph0" class="graph" transform="scale(1 1) rotate(0) translate(4 1010)">
<title>RoadLaneController</title>
<!-- Node1 -->
<g id="node1" class="node">
<title>Node1</title>
<g id="a_node1"><a xlink:title=" ">
<polygon fill="#999999" stroke="#666666" points="146,-226.5 146,-492.5 283,-492.5 283,-226.5 146,-226.5"/>
<text text-anchor="middle" x="214.5" y="-480.5" font-family="Helvetica,sans-Serif" font-size="10.00">RoadLaneController</text>
<polyline fill="none" stroke="#666666" points="146,-473.5 283,-473.5"/>
<text text-anchor="start" x="154" y="-461.5" font-family="Helvetica,sans-Serif" font-size="10.00"># lanes</text>
<text text-anchor="start" x="154" y="-450.5" font-family="Helvetica,sans-Serif" font-size="10.00"># laneCount</text>
<text text-anchor="start" x="154" y="-439.5" font-family="Helvetica,sans-Serif" font-size="10.00"># laneHeight</text>
<text text-anchor="start" x="154" y="-428.5" font-family="Helvetica,sans-Serif" font-size="10.00"># commuterSize</text>
<text text-anchor="start" x="154" y="-417.5" font-family="Helvetica,sans-Serif" font-size="10.00"># speedDistribution</text>
<text text-anchor="start" x="154" y="-406.5" font-family="Helvetica,sans-Serif" font-size="10.00"># frequencyFunction</text>
<polyline fill="none" stroke="#666666" points="146,-399.5 283,-399.5"/>
<text text-anchor="start" x="154" y="-387.5" font-family="Helvetica,sans-Serif" font-size="10.00">+ RoadLaneController()</text>
<text text-anchor="start" x="154" y="-376.5" font-family="Helvetica,sans-Serif" font-size="10.00">+ RoadLaneController()</text>
<text text-anchor="start" x="154" y="-365.5" font-family="Helvetica,sans-Serif" font-size="10.00">+ RoadLaneController()</text>
<text text-anchor="start" x="154" y="-354.5" font-family="Helvetica,sans-Serif" font-size="10.00">+ getType()</text>
<text text-anchor="start" x="154" y="-343.5" font-family="Helvetica,sans-Serif" font-size="10.00">+ build()</text>
<text text-anchor="start" x="154" y="-332.5" font-family="Helvetica,sans-Serif" font-size="10.00">+ setLaneHeight()</text>
<text text-anchor="start" x="154" y="-321.5" font-family="Helvetica,sans-Serif" font-size="10.00">+ setPosY()</text>
<text text-anchor="start" x="154" y="-310.5" font-family="Helvetica,sans-Serif" font-size="10.00">+ setCommuterSize()</text>
<text text-anchor="start" x="154" y="-299.5" font-family="Helvetica,sans-Serif" font-size="10.00">+ getClassName()</text>
<text text-anchor="start" x="154" y="-288.5" font-family="Helvetica,sans-Serif" font-size="10.00">+ saveCurrentNode()</text>
<text text-anchor="start" x="154" y="-277.5" font-family="Helvetica,sans-Serif" font-size="10.00">+ loadCurrentNode()</text>
<text text-anchor="start" x="154" y="-266.5" font-family="Helvetica,sans-Serif" font-size="10.00">+ setLaneCount()</text>
<text text-anchor="start" x="154" y="-255.5" font-family="Helvetica,sans-Serif" font-size="10.00">+ setSpeedDistribution()</text>
<text text-anchor="start" x="154" y="-244.5" font-family="Helvetica,sans-Serif" font-size="10.00">+ onLoadingFinished()</text>
<text text-anchor="start" x="154" y="-233.5" font-family="Helvetica,sans-Serif" font-size="10.00"># newLane()</text>
</a>
</g>
</g>
<!-- Node7 -->
<g id="node7" class="node">
<title>Node7</title>
<g id="a_node7"><a xlink:href="classAnimalLaneController.html" target="_top" xlink:title=" ">
<polygon fill="white" stroke="#bfbfbf" points="0,-39 0,-151 131,-151 131,-39 0,-39"/>
<text text-anchor="middle" x="65.5" y="-139" font-family="Helvetica,sans-Serif" font-size="10.00">AnimalLaneController</text>
<polyline fill="none" stroke="#bfbfbf" points="0,-132 131,-132"/>
<text text-anchor="middle" x="65.5" y="-120" font-family="Helvetica,sans-Serif" font-size="10.00"> </text>
<polyline fill="none" stroke="#bfbfbf" points="0,-113 131,-113"/>
<text text-anchor="start" x="8" y="-101" font-family="Helvetica,sans-Serif" font-size="10.00">+ getType()</text>
<text text-anchor="start" x="8" y="-90" font-family="Helvetica,sans-Serif" font-size="10.00">+ getClassName()</text>
<text text-anchor="start" x="8" y="-79" font-family="Helvetica,sans-Serif" font-size="10.00">+ RoadLaneController()</text>
<text text-anchor="start" x="8" y="-68" font-family="Helvetica,sans-Serif" font-size="10.00">+ RoadLaneController()</text>
<text text-anchor="start" x="8" y="-57" font-family="Helvetica,sans-Serif" font-size="10.00">+ RoadLaneController()</text>
<text text-anchor="start" x="8" y="-46" font-family="Helvetica,sans-Serif" font-size="10.00"># newLane()</text>
</a>
</g>
</g>
<!-- Node1&#45;&gt;Node7 -->
<g id="edge6" class="edge">
<title>Node1&#45;&gt;Node7</title>
<path fill="none" stroke="#63b8ff" d="M140.62,-228.35C125.11,-201.02 109.56,-173.63 96.67,-150.91"/>
<polygon fill="none" stroke="#63b8ff" points="137.38,-229.72 145.36,-236.69 143.47,-226.27 137.38,-229.72"/>
</g>
<!-- Node8 -->
<g id="node8" class="node">
<title>Node8</title>
<g id="a_node8"><a xlink:href="classRiverController.html" target="_top" xlink:title=" ">
<polygon fill="white" stroke="#bfbfbf" points="149,-28 149,-162 280,-162 280,-28 149,-28"/>
<text text-anchor="middle" x="214.5" y="-150" font-family="Helvetica,sans-Serif" font-size="10.00">RiverController</text>
<polyline fill="none" stroke="#bfbfbf" points="149,-143 280,-143"/>
<text text-anchor="middle" x="214.5" y="-131" font-family="Helvetica,sans-Serif" font-size="10.00"> </text>
<polyline fill="none" stroke="#bfbfbf" points="149,-124 280,-124"/>
<text text-anchor="start" x="157" y="-112" font-family="Helvetica,sans-Serif" font-size="10.00">+ getType()</text>
<text text-anchor="start" x="157" y="-101" font-family="Helvetica,sans-Serif" font-size="10.00">+ getClassName()</text>
<text text-anchor="start" x="157" y="-90" font-family="Helvetica,sans-Serif" font-size="10.00">+ saveCurrentNode()</text>
<text text-anchor="start" x="157" y="-79" font-family="Helvetica,sans-Serif" font-size="10.00">+ loadCurrentNode()</text>
<text text-anchor="start" x="157" y="-68" font-family="Helvetica,sans-Serif" font-size="10.00">+ RoadLaneController()</text>
<text text-anchor="start" x="157" y="-57" font-family="Helvetica,sans-Serif" font-size="10.00">+ RoadLaneController()</text>
<text text-anchor="start" x="157" y="-46" font-family="Helvetica,sans-Serif" font-size="10.00">+ RoadLaneController()</text>
<text text-anchor="start" x="157" y="-35" font-family="Helvetica,sans-Serif" font-size="10.00"># newLane()</text>
</a>
</g>
</g>
<!-- Node1&#45;&gt;Node8 -->
<g id="edge7" class="edge">
<title>Node1&#45;&gt;Node8</title>
<path fill="none" stroke="#63b8ff" d="M214.5,-215.47C214.5,-196.7 214.5,-178.25 214.5,-161.68"/>
<polygon fill="none" stroke="#63b8ff" points="211,-215.35 214.5,-225.35 218,-215.35 211,-215.35"/>
</g>
<!-- Node9 -->
<g id="node9" class="node">
<title>Node9</title>
<g id="a_node9"><a xlink:href="classVehicleLaneController.html" target="_top" xlink:title=" ">
<polygon fill="white" stroke="#bfbfbf" points="298.5,-0.5 298.5,-189.5 440.5,-189.5 440.5,-0.5 298.5,-0.5"/>
<text text-anchor="middle" x="369.5" y="-177.5" font-family="Helvetica,sans-Serif" font-size="10.00">VehicleLaneController</text>
<polyline fill="none" stroke="#bfbfbf" points="298.5,-170.5 440.5,-170.5"/>
<text text-anchor="middle" x="369.5" y="-158.5" font-family="Helvetica,sans-Serif" font-size="10.00"> </text>
<polyline fill="none" stroke="#bfbfbf" points="298.5,-151.5 440.5,-151.5"/>
<text text-anchor="start" x="306.5" y="-139.5" font-family="Helvetica,sans-Serif" font-size="10.00">+ VehicleLaneController()</text>
<text text-anchor="start" x="306.5" y="-128.5" font-family="Helvetica,sans-Serif" font-size="10.00">+ VehicleLaneController()</text>
<text text-anchor="start" x="306.5" y="-117.5" font-family="Helvetica,sans-Serif" font-size="10.00">+ getType()</text>
<text text-anchor="start" x="306.5" y="-106.5" font-family="Helvetica,sans-Serif" font-size="10.00">+ setRedDuration()</text>
<text text-anchor="start" x="306.5" y="-95.5" font-family="Helvetica,sans-Serif" font-size="10.00">+ setGreenDuration()</text>
<text text-anchor="start" x="306.5" y="-84.5" font-family="Helvetica,sans-Serif" font-size="10.00">+ build()</text>
<text text-anchor="start" x="306.5" y="-73.5" font-family="Helvetica,sans-Serif" font-size="10.00">+ getClassName()</text>
<text text-anchor="start" x="306.5" y="-62.5" font-family="Helvetica,sans-Serif" font-size="10.00">+ saveCurrentNode()</text>
<text text-anchor="start" x="306.5" y="-51.5" font-family="Helvetica,sans-Serif" font-size="10.00">+ loadCurrentNode()</text>
<text text-anchor="start" x="306.5" y="-40.5" font-family="Helvetica,sans-Serif" font-size="10.00">+ RoadLaneController()</text>
<text text-anchor="start" x="306.5" y="-29.5" font-family="Helvetica,sans-Serif" font-size="10.00">+ RoadLaneController()</text>
<text text-anchor="start" x="306.5" y="-18.5" font-family="Helvetica,sans-Serif" font-size="10.00">+ RoadLaneController()</text>
<text text-anchor="start" x="306.5" y="-7.5" font-family="Helvetica,sans-Serif" font-size="10.00"># newLane()</text>
</a>
</g>
</g>
<!-- Node1&#45;&gt;Node9 -->
<g id="edge8" class="edge">
<title>Node1&#45;&gt;Node9</title>
<path fill="none" stroke="#63b8ff" d="M288.64,-232.95C297.33,-218.22 306.08,-203.4 314.45,-189.23"/>
<polygon fill="none" stroke="#63b8ff" points="285.78,-230.91 283.71,-241.3 291.8,-234.46 285.78,-230.91"/>
</g>
<!-- Node2 -->
<g id="node2" class="node">
<title>Node2</title>
<g id="a_node2"><a xlink:href="classLane.html" target="_top" xlink:title=" ">
<polygon fill="white" stroke="#bfbfbf" points="161,-529.5 161,-608.5 268,-608.5 268,-529.5 161,-529.5"/>
<text text-anchor="middle" x="214.5" y="-596.5" font-family="Helvetica,sans-Serif" font-size="10.00">Lane</text>
<polyline fill="none" stroke="#bfbfbf" points="161,-589.5 268,-589.5"/>
<text text-anchor="middle" x="214.5" y="-577.5" font-family="Helvetica,sans-Serif" font-size="10.00"> </text>
<polyline fill="none" stroke="#bfbfbf" points="161,-570.5 268,-570.5"/>
<text text-anchor="start" x="169" y="-558.5" font-family="Helvetica,sans-Serif" font-size="10.00">+ setPosY()</text>
<text text-anchor="start" x="169" y="-547.5" font-family="Helvetica,sans-Serif" font-size="10.00">+ setLaneHeight()</text>
<text text-anchor="start" x="169" y="-536.5" font-family="Helvetica,sans-Serif" font-size="10.00">+ getClassName()</text>
</a>
</g>
</g>
<!-- Node2&#45;&gt;Node1 -->
<g id="edge1" class="edge">
<title>Node2&#45;&gt;Node1</title>
<path fill="none" stroke="#63b8ff" d="M214.5,-518.48C214.5,-510.34 214.5,-501.57 214.5,-492.49"/>
<polygon fill="none" stroke="#63b8ff" points="211,-518.43 214.5,-528.43 218,-518.43 211,-518.43"/>
</g>
<!-- Node3 -->
<g id="node3" class="node">
<title>Node3</title>
<g id="a_node3"><a xlink:href="classSceneNode.html" target="_top" xlink:title="A node in the scene graph.">
<polygon fill="white" stroke="#666666" points="147,-645.5 147,-911.5 282,-911.5 282,-645.5 147,-645.5"/>
<text text-anchor="middle" x="214.5" y="-899.5" font-family="Helvetica,sans-Serif" font-size="10.00">SceneNode</text>
<polyline fill="none" stroke="#666666" points="147,-892.5 282,-892.5"/>
<text text-anchor="middle" x="214.5" y="-880.5" font-family="Helvetica,sans-Serif" font-size="10.00"> </text>
<polyline fill="none" stroke="#666666" points="147,-873.5 282,-873.5"/>
<text text-anchor="start" x="155" y="-861.5" font-family="Helvetica,sans-Serif" font-size="10.00">+ SceneNode()</text>
<text text-anchor="start" x="155" y="-850.5" font-family="Helvetica,sans-Serif" font-size="10.00">+ attachChild()</text>
<text text-anchor="start" x="155" y="-839.5" font-family="Helvetica,sans-Serif" font-size="10.00">+ detachChild()</text>
<text text-anchor="start" x="155" y="-828.5" font-family="Helvetica,sans-Serif" font-size="10.00">+ update()</text>
<text text-anchor="start" x="155" y="-817.5" font-family="Helvetica,sans-Serif" font-size="10.00">+ getAbsTransform()</text>
<text text-anchor="start" x="155" y="-806.5" font-family="Helvetica,sans-Serif" font-size="10.00">+ getAbsPosition()</text>
<text text-anchor="start" x="155" y="-795.5" font-family="Helvetica,sans-Serif" font-size="10.00">+ checkNodeCollision()</text>
<text text-anchor="start" x="155" y="-784.5" font-family="Helvetica,sans-Serif" font-size="10.00">+ checkSceneCollision()</text>
<text text-anchor="start" x="155" y="-773.5" font-family="Helvetica,sans-Serif" font-size="10.00">+ setDebug()</text>
<text text-anchor="start" x="155" y="-762.5" font-family="Helvetica,sans-Serif" font-size="10.00">+ getCategory()</text>
<text text-anchor="start" x="155" y="-751.5" font-family="Helvetica,sans-Serif" font-size="10.00">+ saveNode()</text>
<text text-anchor="start" x="155" y="-740.5" font-family="Helvetica,sans-Serif" font-size="10.00">+ operator&lt;()</text>
<text text-anchor="start" x="155" y="-729.5" font-family="Helvetica,sans-Serif" font-size="10.00">+ getBoundingRect()</text>
<text text-anchor="start" x="155" y="-718.5" font-family="Helvetica,sans-Serif" font-size="10.00">+ getLocalBounds()</text>
<text text-anchor="start" x="155" y="-707.5" font-family="Helvetica,sans-Serif" font-size="10.00">+ draw()</text>
<text text-anchor="start" x="155" y="-696.5" font-family="Helvetica,sans-Serif" font-size="10.00"># getClassName()</text>
<text text-anchor="start" x="155" y="-685.5" font-family="Helvetica,sans-Serif" font-size="10.00"># saveCurrentNode()</text>
<text text-anchor="start" x="155" y="-674.5" font-family="Helvetica,sans-Serif" font-size="10.00"># loadCurrentNode()</text>
<text text-anchor="start" x="155" y="-663.5" font-family="Helvetica,sans-Serif" font-size="10.00"># onLoadingFinished()</text>
<text text-anchor="start" x="155" y="-652.5" font-family="Helvetica,sans-Serif" font-size="10.00"># shouldSave()</text>
</a>
</g>
</g>
<!-- Node3&#45;&gt;Node2 -->
<g id="edge2" class="edge">
<title>Node3&#45;&gt;Node2</title>
<path fill="none" stroke="#63b8ff" d="M214.5,-634.31C214.5,-625.07 214.5,-616.32 214.5,-608.43"/>
<polygon fill="none" stroke="#63b8ff" points="211,-634.28 214.5,-644.28 218,-634.28 211,-634.28"/>
</g>
<!-- Node4 -->
<g id="node4" class="node">
<title>Node4</title>
<g id="a_node4"><a xlink:title=" ">
<polygon fill="white" stroke="#bfbfbf" points="69,-948.5 69,-1005.5 146,-1005.5 146,-948.5 69,-948.5"/>
<text text-anchor="middle" x="107.5" y="-993.5" font-family="Helvetica,sans-Serif" font-size="10.00">sf::Drawable</text>
<polyline fill="none" stroke="#bfbfbf" points="69,-986.5 146,-986.5"/>
<text text-anchor="middle" x="107.5" y="-974.5" font-family="Helvetica,sans-Serif" font-size="10.00"> </text>
<polyline fill="none" stroke="#bfbfbf" points="69,-967.5 146,-967.5"/>
<text text-anchor="middle" x="107.5" y="-955.5" font-family="Helvetica,sans-Serif" font-size="10.00"> </text>
</a>
</g>
</g>
<!-- Node4&#45;&gt;Node3 -->
<g id="edge3" class="edge">
<title>Node4&#45;&gt;Node3</title>
<path fill="none" stroke="#63b8ff" d="M127.82,-938.68C133.57,-928.13 140.15,-916.04 147.07,-903.33"/>
<polygon fill="none" stroke="#63b8ff" points="124.81,-936.89 123.1,-947.35 130.96,-940.24 124.81,-936.89"/>
</g>
<!-- Node5 -->
<g id="node5" class="node">
<title>Node5</title>
<g id="a_node5"><a xlink:title=" ">
<polygon fill="white" stroke="#bfbfbf" points="164,-948.5 164,-1005.5 265,-1005.5 265,-948.5 164,-948.5"/>
<text text-anchor="middle" x="214.5" y="-993.5" font-family="Helvetica,sans-Serif" font-size="10.00">sf::Transformable</text>
<polyline fill="none" stroke="#bfbfbf" points="164,-986.5 265,-986.5"/>
<text text-anchor="middle" x="214.5" y="-974.5" font-family="Helvetica,sans-Serif" font-size="10.00"> </text>
<polyline fill="none" stroke="#bfbfbf" points="164,-967.5 265,-967.5"/>
<text text-anchor="middle" x="214.5" y="-955.5" font-family="Helvetica,sans-Serif" font-size="10.00"> </text>
</a>
</g>
</g>
<!-- Node5&#45;&gt;Node3 -->
<g id="edge4" class="edge">
<title>Node5&#45;&gt;Node3</title>
<path fill="none" stroke="#63b8ff" d="M214.5,-937.31C214.5,-929.36 214.5,-920.58 214.5,-911.35"/>
<polygon fill="none" stroke="#63b8ff" points="211,-937.16 214.5,-947.16 218,-937.16 211,-937.16"/>
</g>
<!-- Node6 -->
<g id="node6" class="node">
<title>Node6</title>
<g id="a_node6"><a xlink:title=" ">
<polygon fill="white" stroke="#bfbfbf" points="283.5,-948.5 283.5,-1005.5 379.5,-1005.5 379.5,-948.5 283.5,-948.5"/>
<text text-anchor="middle" x="331.5" y="-993.5" font-family="Helvetica,sans-Serif" font-size="10.00">sf::NonCopyable</text>
<polyline fill="none" stroke="#bfbfbf" points="283.5,-986.5 379.5,-986.5"/>
<text text-anchor="middle" x="331.5" y="-974.5" font-family="Helvetica,sans-Serif" font-size="10.00"> </text>
<polyline fill="none" stroke="#bfbfbf" points="283.5,-967.5 379.5,-967.5"/>
<text text-anchor="middle" x="331.5" y="-955.5" font-family="Helvetica,sans-Serif" font-size="10.00"> </text>
</a>
</g>
</g>
<!-- Node6&#45;&gt;Node3 -->
<g id="edge5" class="edge">
<title>Node6&#45;&gt;Node3</title>
<path fill="none" stroke="#8b1a1a" d="M309.38,-938.86C301.32,-925.32 291.73,-909.21 281.8,-892.52"/>
<polygon fill="none" stroke="#8b1a1a" points="306.33,-940.58 314.46,-947.38 312.35,-936.99 306.33,-940.58"/>
</g>
</g>
</svg>
