<?xml version="1.0" encoding="UTF-8" standalone="no"?>
<!DOCTYPE svg PUBLIC "-//W3C//DTD SVG 1.1//EN"
 "http://www.w3.org/Graphics/SVG/1.1/DTD/svg11.dtd">
<!-- Generated by graphviz version 7.0.5 (0)
 -->
<!-- Title: VehicleLane Pages: 1 -->
<!--zoomable 1072 -->
<svg id="main" version="1.1" xmlns="http://www.w3.org/2000/svg" xmlns:xlink="http://www.w3.org/1999/xlink" xml:space="preserve" onload="init(evt)">
<style type="text/css"><![CDATA[
.edge:hover path { stroke: red; }
.edge:hover polygon { stroke: red; fill: red; }
]]></style>
<script type="text/javascript"><![CDATA[
var edges = document.getElementsByTagName('g');
if (edges && edges.length) {
  for (var i=0;i<edges.length;i++) {
    if (edges[i].id.substr(0,4)=='edge') {
      edges[i].setAttribute('class','edge');
    }
  }
}
]]></script>
        <defs>
                <circle id="rim" cx="0" cy="0" r="7"/>
                <circle id="rim2" cx="0" cy="0" r="3.5"/>
                <g id="zoomPlus">
                        <use xlink:href="#rim" fill="#404040">
                                <set attributeName="fill" to="#808080" begin="zoomplus.mouseover" end="zoomplus.mouseout"/>
                        </use>
                        <path d="M-4,0h8M0,-4v8" fill="none" stroke="white" stroke-width="1.5" pointer-events="none"/>
                </g>
                <g id="zoomMin">
                        <use xlink:href="#rim" fill="#404040">
                                <set attributeName="fill" to="#808080" begin="zoomminus.mouseover" end="zoomminus.mouseout"/>
                        </use>
                        <path d="M-4,0h8" fill="none" stroke="white" stroke-width="1.5" pointer-events="none"/>
                </g>
                <g id="dirArrow">
                        <path fill="none" stroke="white" stroke-width="1.5" d="M0,-3.0v7 M-2.5,-0.5L0,-3.0L2.5,-0.5"/>
                </g>
               <g id="resetDef">
                       <use xlink:href="#rim2" fill="#404040">
                               <set attributeName="fill" to="#808080" begin="reset.mouseover" end="reset.mouseout"/>
                       </use>
               </g>
        </defs>

<script type="text/javascript">
var viewWidth = 427;
var viewHeight = 1072;
var sectionId = 'dynsection-1';
</script>
<script xlink:href="svgpan.js"/>
<svg id="graph" class="graph">
<g id="viewport">
<title>VehicleLane</title>
<!-- Node1 -->
<g id="node1" class="node">
<title>Node1</title>
<g id="a_node1"><a xlink:title=" ">
<polygon fill="#999999" stroke="#666666" points="226.5,-0.5 226.5,-123.5 352.5,-123.5 352.5,-0.5 226.5,-0.5"/>
<text text-anchor="middle" x="289.5" y="-111.5" font-family="Helvetica,sans-Serif" font-size="10.00">VehicleLane</text>
<polyline fill="none" stroke="#666666" points="226.5,-104.5 352.5,-104.5"/>
<text text-anchor="middle" x="289.5" y="-92.5" font-family="Helvetica,sans-Serif" font-size="10.00"> </text>
<polyline fill="none" stroke="#666666" points="226.5,-85.5 352.5,-85.5"/>
<text text-anchor="start" x="234.5" y="-73.5" font-family="Helvetica,sans-Serif" font-size="10.00">+ getType()</text>
<text text-anchor="start" x="234.5" y="-62.5" font-family="Helvetica,sans-Serif" font-size="10.00">+ onLightChanged()</text>
<text text-anchor="start" x="234.5" y="-51.5" font-family="Helvetica,sans-Serif" font-size="10.00">+ getClassName()</text>
<text text-anchor="start" x="234.5" y="-40.5" font-family="Helvetica,sans-Serif" font-size="10.00">+ RoadLane()</text>
<text text-anchor="start" x="234.5" y="-29.5" font-family="Helvetica,sans-Serif" font-size="10.00">+ RoadLane()</text>
<text text-anchor="start" x="234.5" y="-18.5" font-family="Helvetica,sans-Serif" font-size="10.00">+ RoadLane()</text>
<text text-anchor="start" x="234.5" y="-7.5" font-family="Helvetica,sans-Serif" font-size="10.00"># updateCommuters()</text>
</a>
</g>
</g>
<!-- Node2 -->
<g id="node2" class="node">
<title>Node2</title>
<g id="a_node2"><a xlink:href="classRoadLane.html" target="_top" xlink:title=" ">
<polygon fill="white" stroke="#bfbfbf" points="148.5,-161.5 148.5,-504.5 286.5,-504.5 286.5,-161.5 148.5,-161.5"/>
<text text-anchor="middle" x="217.5" y="-492.5" font-family="Helvetica,sans-Serif" font-size="10.00">RoadLane</text>
<polyline fill="none" stroke="#bfbfbf" points="148.5,-485.5 286.5,-485.5"/>
<text text-anchor="start" x="156.5" y="-473.5" font-family="Helvetica,sans-Serif" font-size="10.00"># speedX</text>
<text text-anchor="start" x="156.5" y="-462.5" font-family="Helvetica,sans-Serif" font-size="10.00"># direction</text>
<text text-anchor="start" x="156.5" y="-451.5" font-family="Helvetica,sans-Serif" font-size="10.00"># timer</text>
<text text-anchor="start" x="156.5" y="-440.5" font-family="Helvetica,sans-Serif" font-size="10.00"># laneTexture</text>
<text text-anchor="start" x="156.5" y="-429.5" font-family="Helvetica,sans-Serif" font-size="10.00"># height</text>
<text text-anchor="start" x="156.5" y="-418.5" font-family="Helvetica,sans-Serif" font-size="10.00"># commuterTexture</text>
<text text-anchor="start" x="156.5" y="-407.5" font-family="Helvetica,sans-Serif" font-size="10.00"># commuterSize</text>
<text text-anchor="start" x="156.5" y="-396.5" font-family="Helvetica,sans-Serif" font-size="10.00"># commuters</text>
<polyline fill="none" stroke="#bfbfbf" points="148.5,-389.5 286.5,-389.5"/>
<text text-anchor="start" x="156.5" y="-377.5" font-family="Helvetica,sans-Serif" font-size="10.00">+ RoadLane()</text>
<text text-anchor="start" x="156.5" y="-366.5" font-family="Helvetica,sans-Serif" font-size="10.00">+ RoadLane()</text>
<text text-anchor="start" x="156.5" y="-355.5" font-family="Helvetica,sans-Serif" font-size="10.00">+ RoadLane()</text>
<text text-anchor="start" x="156.5" y="-344.5" font-family="Helvetica,sans-Serif" font-size="10.00">+ getType()</text>
<text text-anchor="start" x="156.5" y="-333.5" font-family="Helvetica,sans-Serif" font-size="10.00">+ getDirection()</text>
<text text-anchor="start" x="156.5" y="-322.5" font-family="Helvetica,sans-Serif" font-size="10.00">+ getLocalBounds()</text>
<text text-anchor="start" x="156.5" y="-311.5" font-family="Helvetica,sans-Serif" font-size="10.00">+ setPosY()</text>
<text text-anchor="start" x="156.5" y="-300.5" font-family="Helvetica,sans-Serif" font-size="10.00">+ setLaneHeight()</text>
<text text-anchor="start" x="156.5" y="-289.5" font-family="Helvetica,sans-Serif" font-size="10.00">+ setCommuterTexture()</text>
<text text-anchor="start" x="156.5" y="-278.5" font-family="Helvetica,sans-Serif" font-size="10.00">+ setLaneTexture()</text>
<text text-anchor="start" x="156.5" y="-267.5" font-family="Helvetica,sans-Serif" font-size="10.00">+ setCommuterSize()</text>
<text text-anchor="start" x="156.5" y="-256.5" font-family="Helvetica,sans-Serif" font-size="10.00">+ setDirection()</text>
<text text-anchor="start" x="156.5" y="-245.5" font-family="Helvetica,sans-Serif" font-size="10.00">+ setSpeed()</text>
<text text-anchor="start" x="156.5" y="-234.5" font-family="Helvetica,sans-Serif" font-size="10.00">+ setFrequency()</text>
<text text-anchor="start" x="156.5" y="-223.5" font-family="Helvetica,sans-Serif" font-size="10.00">+ getClassName()</text>
<text text-anchor="start" x="156.5" y="-212.5" font-family="Helvetica,sans-Serif" font-size="10.00"># newCommuter()</text>
<text text-anchor="start" x="156.5" y="-201.5" font-family="Helvetica,sans-Serif" font-size="10.00"># updateCommuters()</text>
<text text-anchor="start" x="156.5" y="-190.5" font-family="Helvetica,sans-Serif" font-size="10.00"># getVelocity()</text>
<text text-anchor="start" x="156.5" y="-179.5" font-family="Helvetica,sans-Serif" font-size="10.00"># updateCurrent()</text>
<text text-anchor="start" x="156.5" y="-168.5" font-family="Helvetica,sans-Serif" font-size="10.00"># drawCurrent()</text>
</a>
</g>
</g>
<!-- Node2&#45;&gt;Node1 -->
<g id="edge1" class="edge">
<title>Node2&#45;&gt;Node1</title>
<path fill="none" stroke="#63b8ff" d="M266.02,-150.73C268.57,-141.2 271.03,-132.02 273.33,-123.43"/>
<polygon fill="none" stroke="#63b8ff" points="262.69,-149.61 263.49,-160.18 269.46,-151.42 262.69,-149.61"/>
</g>
<!-- Node3 -->
<g id="node3" class="node">
<title>Node3</title>
<g id="a_node3"><a xlink:href="classLane.html" target="_top" xlink:title=" ">
<polygon fill="white" stroke="#bfbfbf" points="92,-569 92,-648 199,-648 199,-569 92,-569"/>
<text text-anchor="middle" x="145.5" y="-636" font-family="Helvetica,sans-Serif" font-size="10.00">Lane</text>
<polyline fill="none" stroke="#bfbfbf" points="92,-629 199,-629"/>
<text text-anchor="middle" x="145.5" y="-617" font-family="Helvetica,sans-Serif" font-size="10.00"> </text>
<polyline fill="none" stroke="#bfbfbf" points="92,-610 199,-610"/>
<text text-anchor="start" x="100" y="-598" font-family="Helvetica,sans-Serif" font-size="10.00">+ setPosY()</text>
<text text-anchor="start" x="100" y="-587" font-family="Helvetica,sans-Serif" font-size="10.00">+ setLaneHeight()</text>
<text text-anchor="start" x="100" y="-576" font-family="Helvetica,sans-Serif" font-size="10.00">+ getClassName()</text>
</a>
</g>
</g>
<!-- Node3&#45;&gt;Node2 -->
<g id="edge2" class="edge">
<title>Node3&#45;&gt;Node2</title>
<path fill="none" stroke="#63b8ff" d="M158.49,-558.15C162.66,-542.31 167.54,-523.77 172.68,-504.27"/>
<polygon fill="none" stroke="#63b8ff" points="155.13,-557.16 155.97,-567.72 161.9,-558.94 155.13,-557.16"/>
</g>
<!-- Node4 -->
<g id="node4" class="node">
<title>Node4</title>
<g id="a_node4"><a xlink:href="classSceneNode.html" target="_top" xlink:title="A node in the scene graph.">
<polygon fill="white" stroke="#666666" points="78,-702.5 78,-968.5 213,-968.5 213,-702.5 78,-702.5"/>
<text text-anchor="middle" x="145.5" y="-956.5" font-family="Helvetica,sans-Serif" font-size="10.00">SceneNode</text>
<polyline fill="none" stroke="#666666" points="78,-949.5 213,-949.5"/>
<text text-anchor="middle" x="145.5" y="-937.5" font-family="Helvetica,sans-Serif" font-size="10.00"> </text>
<polyline fill="none" stroke="#666666" points="78,-930.5 213,-930.5"/>
<text text-anchor="start" x="86" y="-918.5" font-family="Helvetica,sans-Serif" font-size="10.00">+ SceneNode()</text>
<text text-anchor="start" x="86" y="-907.5" font-family="Helvetica,sans-Serif" font-size="10.00">+ attachChild()</text>
<text text-anchor="start" x="86" y="-896.5" font-family="Helvetica,sans-Serif" font-size="10.00">+ detachChild()</text>
<text text-anchor="start" x="86" y="-885.5" font-family="Helvetica,sans-Serif" font-size="10.00">+ update()</text>
<text text-anchor="start" x="86" y="-874.5" font-family="Helvetica,sans-Serif" font-size="10.00">+ getAbsTransform()</text>
<text text-anchor="start" x="86" y="-863.5" font-family="Helvetica,sans-Serif" font-size="10.00">+ getAbsPosition()</text>
<text text-anchor="start" x="86" y="-852.5" font-family="Helvetica,sans-Serif" font-size="10.00">+ checkNodeCollision()</text>
<text text-anchor="start" x="86" y="-841.5" font-family="Helvetica,sans-Serif" font-size="10.00">+ checkSceneCollision()</text>
<text text-anchor="start" x="86" y="-830.5" font-family="Helvetica,sans-Serif" font-size="10.00">+ setDebug()</text>
<text text-anchor="start" x="86" y="-819.5" font-family="Helvetica,sans-Serif" font-size="10.00">+ getCategory()</text>
<text text-anchor="start" x="86" y="-808.5" font-family="Helvetica,sans-Serif" font-size="10.00">+ saveNode()</text>
<text text-anchor="start" x="86" y="-797.5" font-family="Helvetica,sans-Serif" font-size="10.00">+ operator&lt;()</text>
<text text-anchor="start" x="86" y="-786.5" font-family="Helvetica,sans-Serif" font-size="10.00">+ getBoundingRect()</text>
<text text-anchor="start" x="86" y="-775.5" font-family="Helvetica,sans-Serif" font-size="10.00">+ getLocalBounds()</text>
<text text-anchor="start" x="86" y="-764.5" font-family="Helvetica,sans-Serif" font-size="10.00">+ draw()</text>
<text text-anchor="start" x="86" y="-753.5" font-family="Helvetica,sans-Serif" font-size="10.00"># getClassName()</text>
<text text-anchor="start" x="86" y="-742.5" font-family="Helvetica,sans-Serif" font-size="10.00"># saveCurrentNode()</text>
<text text-anchor="start" x="86" y="-731.5" font-family="Helvetica,sans-Serif" font-size="10.00"># loadCurrentNode()</text>
<text text-anchor="start" x="86" y="-720.5" font-family="Helvetica,sans-Serif" font-size="10.00"># onLoadingFinished()</text>
<text text-anchor="start" x="86" y="-709.5" font-family="Helvetica,sans-Serif" font-size="10.00"># shouldSave()</text>
</a>
</g>
</g>
<!-- Node4&#45;&gt;Node3 -->
<g id="edge3" class="edge">
<title>Node4&#45;&gt;Node3</title>
<path fill="none" stroke="#63b8ff" d="M145.5,-691.52C145.5,-675.64 145.5,-660.64 145.5,-647.92"/>
<polygon fill="none" stroke="#63b8ff" points="142,-691.13 145.5,-701.13 149,-691.13 142,-691.13"/>
</g>
<!-- Node5 -->
<g id="node5" class="node">
<title>Node5</title>
<g id="a_node5"><a xlink:title=" ">
<polygon fill="white" stroke="#bfbfbf" points="0,-1006.5 0,-1063.5 77,-1063.5 77,-1006.5 0,-1006.5"/>
<text text-anchor="middle" x="38.5" y="-1051.5" font-family="Helvetica,sans-Serif" font-size="10.00">sf::Drawable</text>
<polyline fill="none" stroke="#bfbfbf" points="0,-1044.5 77,-1044.5"/>
<text text-anchor="middle" x="38.5" y="-1032.5" font-family="Helvetica,sans-Serif" font-size="10.00"> </text>
<polyline fill="none" stroke="#bfbfbf" points="0,-1025.5 77,-1025.5"/>
<text text-anchor="middle" x="38.5" y="-1013.5" font-family="Helvetica,sans-Serif" font-size="10.00"> </text>
</a>
</g>
</g>
<!-- Node5&#45;&gt;Node4 -->
<g id="edge4" class="edge">
<title>Node5&#45;&gt;Node4</title>
<path fill="none" stroke="#63b8ff" d="M58.82,-996.49C64.57,-985.89 71.15,-973.73 78.07,-960.96"/>
<polygon fill="none" stroke="#63b8ff" points="55.79,-994.75 54.1,-1005.21 61.94,-998.08 55.79,-994.75"/>
</g>
<!-- Node6 -->
<g id="node6" class="node">
<title>Node6</title>
<g id="a_node6"><a xlink:title=" ">
<polygon fill="white" stroke="#bfbfbf" points="95,-1006.5 95,-1063.5 196,-1063.5 196,-1006.5 95,-1006.5"/>
<text text-anchor="middle" x="145.5" y="-1051.5" font-family="Helvetica,sans-Serif" font-size="10.00">sf::Transformable</text>
<polyline fill="none" stroke="#bfbfbf" points="95,-1044.5 196,-1044.5"/>
<text text-anchor="middle" x="145.5" y="-1032.5" font-family="Helvetica,sans-Serif" font-size="10.00"> </text>
<polyline fill="none" stroke="#bfbfbf" points="95,-1025.5 196,-1025.5"/>
<text text-anchor="middle" x="145.5" y="-1013.5" font-family="Helvetica,sans-Serif" font-size="10.00"> </text>
</a>
</g>
</g>
<!-- Node6&#45;&gt;Node4 -->
<g id="edge5" class="edge">
<title>Node6&#45;&gt;Node4</title>
<path fill="none" stroke="#63b8ff" d="M145.5,-995.16C145.5,-986.92 145.5,-977.79 145.5,-968.18"/>
<polygon fill="none" stroke="#63b8ff" points="142,-995.02 145.5,-1005.02 149,-995.02 142,-995.02"/>
</g>
<!-- Node7 -->
<g id="node7" class="node">
<title>Node7</title>
<g id="a_node7"><a xlink:title=" ">
<polygon fill="white" stroke="#bfbfbf" points="214.5,-1006.5 214.5,-1063.5 310.5,-1063.5 310.5,-1006.5 214.5,-1006.5"/>
<text text-anchor="middle" x="262.5" y="-1051.5" font-family="Helvetica,sans-Serif" font-size="10.00">sf::NonCopyable</text>
<polyline fill="none" stroke="#bfbfbf" points="214.5,-1044.5 310.5,-1044.5"/>
<text text-anchor="middle" x="262.5" y="-1032.5" font-family="Helvetica,sans-Serif" font-size="10.00"> </text>
<polyline fill="none" stroke="#bfbfbf" points="214.5,-1025.5 310.5,-1025.5"/>
<text text-anchor="middle" x="262.5" y="-1013.5" font-family="Helvetica,sans-Serif" font-size="10.00"> </text>
</a>
</g>
</g>
<!-- Node7&#45;&gt;Node4 -->
<g id="edge6" class="edge">
<title>Node7&#45;&gt;Node4</title>
<path fill="none" stroke="#8b1a1a" d="M240.38,-996.67C232.32,-983.06 222.73,-966.87 212.8,-950.1"/>
<polygon fill="none" stroke="#8b1a1a" points="237.35,-998.42 245.46,-1005.24 243.37,-994.85 237.35,-998.42"/>
</g>
<!-- Node8 -->
<g id="node8" class="node">
<title>Node8</title>
<g id="a_node8"><a xlink:href="classRandom.html" target="_top" xlink:title=" ">
<polygon fill="white" stroke="#666666" points="217.5,-552.5 217.5,-664.5 361.5,-664.5 361.5,-552.5 217.5,-552.5"/>
<text text-anchor="start" x="225.5" y="-652.5" font-family="Helvetica,sans-Serif" font-size="10.00">Random&lt; std::normal</text>
<text text-anchor="middle" x="289.5" y="-641.5" font-family="Helvetica,sans-Serif" font-size="10.00">_distribution&lt; double &gt; &gt;</text>
<polyline fill="none" stroke="#666666" points="217.5,-634.5 361.5,-634.5"/>
<text text-anchor="middle" x="289.5" y="-622.5" font-family="Helvetica,sans-Serif" font-size="10.00"> </text>
<polyline fill="none" stroke="#666666" points="217.5,-615.5 361.5,-615.5"/>
<text text-anchor="start" x="225.5" y="-603.5" font-family="Helvetica,sans-Serif" font-size="10.00">+ Random()</text>
<text text-anchor="start" x="225.5" y="-592.5" font-family="Helvetica,sans-Serif" font-size="10.00">+ Random()</text>
<text text-anchor="start" x="225.5" y="-581.5" font-family="Helvetica,sans-Serif" font-size="10.00">+ get()</text>
<text text-anchor="start" x="225.5" y="-570.5" font-family="Helvetica,sans-Serif" font-size="10.00">+ get()</text>
<text text-anchor="start" x="225.5" y="-559.5" font-family="Helvetica,sans-Serif" font-size="10.00">+ dis()</text>
</a>
</g>
</g>
<!-- Node8&#45;&gt;Node2 -->
<g id="edge7" class="edge">
<title>Node8&#45;&gt;Node2</title>
<path fill="none" stroke="#404040" d="M275.1,-552.81C272.2,-541.77 268.99,-529.59 265.62,-516.8"/>
<polygon fill="none" stroke="#404040" points="265.64,-516.85 260.24,-512.06 262.58,-505.24 267.98,-510.03 265.64,-516.85"/>
<text text-anchor="middle" x="299" y="-526" font-family="Helvetica,sans-Serif" font-size="10.00"> #frequency</text>
</g>
<!-- Node9 -->
<g id="node9" class="node">
<title>Node9</title>
<g id="a_node9"><a xlink:href="classLightObserver.html" target="_top" xlink:title=" ">
<polygon fill="white" stroke="#bfbfbf" points="304.5,-304.5 304.5,-361.5 418.5,-361.5 418.5,-304.5 304.5,-304.5"/>
<text text-anchor="middle" x="361.5" y="-349.5" font-family="Helvetica,sans-Serif" font-size="10.00">LightObserver</text>
<polyline fill="none" stroke="#bfbfbf" points="304.5,-342.5 418.5,-342.5"/>
<text text-anchor="middle" x="361.5" y="-330.5" font-family="Helvetica,sans-Serif" font-size="10.00"> </text>
<polyline fill="none" stroke="#bfbfbf" points="304.5,-323.5 418.5,-323.5"/>
<text text-anchor="start" x="312.5" y="-311.5" font-family="Helvetica,sans-Serif" font-size="10.00">+ onLightChanged()</text>
</a>
</g>
</g>
<!-- Node9&#45;&gt;Node1 -->
<g id="edge8" class="edge">
<title>Node9&#45;&gt;Node1</title>
<path fill="none" stroke="#63b8ff" d="M351.28,-293.83C339.4,-249.42 319.62,-175.53 305.65,-123.33"/>
<polygon fill="none" stroke="#63b8ff" points="347.84,-294.51 353.81,-303.26 354.6,-292.7 347.84,-294.51"/>
</g>
</g>
</svg>
        <g id="navigator" transform="translate(0 0)" fill="#404254">
                <rect fill="#f2f5e9" fill-opacity="0.5" stroke="#606060" stroke-width=".5" x="0" y="0" width="60" height="60"/>
                <use id="zoomplus" xlink:href="#zoomPlus" x="17" y="9" onmousedown="handleZoom(evt,'in')"/>
                <use id="zoomminus" xlink:href="#zoomMin" x="42" y="9" onmousedown="handleZoom(evt,'out')"/>
                <use id="reset" xlink:href="#resetDef" x="30" y="36" onmousedown="handleReset()"/>
                <g id="arrowUp" xlink:href="#dirArrow" transform="translate(30 24)" onmousedown="handlePan(0,-1)">
                  <use xlink:href="#rim" fill="#404040">
                        <set attributeName="fill" to="#808080" begin="arrowUp.mouseover" end="arrowUp.mouseout"/>
                  </use>
                  <path fill="none" stroke="white" stroke-width="1.5" d="M0,-3.0v7 M-2.5,-0.5L0,-3.0L2.5,-0.5"/>
                </g>
                <g id="arrowRight" xlink:href="#dirArrow" transform="rotate(90) translate(36 -43)" onmousedown="handlePan(1,0)">
                  <use xlink:href="#rim" fill="#404040">
                        <set attributeName="fill" to="#808080" begin="arrowRight.mouseover" end="arrowRight.mouseout"/>
                  </use>
                  <path fill="none" stroke="white" stroke-width="1.5" d="M0,-3.0v7 M-2.5,-0.5L0,-3.0L2.5,-0.5"/>
                </g>
                <g id="arrowDown" xlink:href="#dirArrow" transform="rotate(180) translate(-30 -48)" onmousedown="handlePan(0,1)">
                  <use xlink:href="#rim" fill="#404040">
                        <set attributeName="fill" to="#808080" begin="arrowDown.mouseover" end="arrowDown.mouseout"/>
                  </use>
                  <path fill="none" stroke="white" stroke-width="1.5" d="M0,-3.0v7 M-2.5,-0.5L0,-3.0L2.5,-0.5"/>
                </g>
                <g id="arrowLeft" xlink:href="#dirArrow" transform="rotate(270) translate(-36 17)" onmousedown="handlePan(-1,0)">
                  <use xlink:href="#rim" fill="#404040">
                        <set attributeName="fill" to="#808080" begin="arrowLeft.mouseover" end="arrowLeft.mouseout"/>
                  </use>
                  <path fill="none" stroke="white" stroke-width="1.5" d="M0,-3.0v7 M-2.5,-0.5L0,-3.0L2.5,-0.5"/>
                </g>
        </g>
        <svg viewBox="0 0 15 15" width="100%" height="30px" preserveAspectRatio="xMaxYMin meet">
         <g id="arrow_out" transform="scale(0.3 0.3)">
          <a xlink:href="classVehicleLane__coll__graph_org.svg" target="_base">
           <rect id="button" ry="5" rx="5" y="6" x="6" height="38" width="38"
                fill="#f2f5e9" fill-opacity="0.5" stroke="#606060" stroke-width="1.0"/>
           <path id="arrow"
             d="M 11.500037,31.436501 C 11.940474,20.09759 22.043105,11.32322 32.158766,21.979434 L 37.068811,17.246167 C 37.068811,17.246167 37.088388,32 37.088388,32 L 22.160133,31.978069 C 22.160133,31.978069 26.997745,27.140456 26.997745,27.140456 C 18.528582,18.264221 13.291696,25.230495 11.500037,31.436501 z"
             style="fill:#404040;"/>
          </a>
         </g>
        </svg>
</svg>
