<?xml version="1.0" encoding="UTF-8" standalone="no"?>
<!DOCTYPE svg PUBLIC "-//W3C//DTD SVG 1.1//EN"
 "http://www.w3.org/Graphics/SVG/1.1/DTD/svg11.dtd">
<!-- Generated by graphviz version 7.0.5 (0)
 -->
<!-- Title: Rock Pages: 1 -->
<svg width="322pt" height="915pt"
 viewBox="0.00 0.00 321.50 915.00" xmlns="http://www.w3.org/2000/svg" xmlns:xlink="http://www.w3.org/1999/xlink">
<g id="graph0" class="graph" transform="scale(1 1) rotate(0) translate(4 911)">
<title>Rock</title>
<!-- Node1 -->
<g id="node1" class="node">
<title>Node1</title>
<g id="a_node1"><a xlink:title=" ">
<polygon fill="#999999" stroke="#666666" points="95,-0.5 95,-90.5 202,-90.5 202,-0.5 95,-0.5"/>
<text text-anchor="middle" x="148.5" y="-78.5" font-family="Helvetica,sans-Serif" font-size="10.00">Rock</text>
<polyline fill="none" stroke="#666666" points="95,-71.5 202,-71.5"/>
<text text-anchor="middle" x="148.5" y="-59.5" font-family="Helvetica,sans-Serif" font-size="10.00"> </text>
<polyline fill="none" stroke="#666666" points="95,-52.5 202,-52.5"/>
<text text-anchor="start" x="103" y="-40.5" font-family="Helvetica,sans-Serif" font-size="10.00">+ Rock()</text>
<text text-anchor="start" x="103" y="-29.5" font-family="Helvetica,sans-Serif" font-size="10.00">+ getCategory()</text>
<text text-anchor="start" x="103" y="-18.5" font-family="Helvetica,sans-Serif" font-size="10.00">+ getClassName()</text>
<text text-anchor="start" x="103" y="-7.5" font-family="Helvetica,sans-Serif" font-size="10.00">+ shouldSave()</text>
</a>
</g>
</g>
<!-- Node2 -->
<g id="node2" class="node">
<title>Node2</title>
<g id="a_node2"><a xlink:href="classObstacle.html" target="_top" xlink:title=" ">
<polygon fill="white" stroke="#bfbfbf" points="0,-215.5 0,-294.5 143,-294.5 143,-215.5 0,-215.5"/>
<text text-anchor="middle" x="71.5" y="-282.5" font-family="Helvetica,sans-Serif" font-size="10.00">Obstacle</text>
<polyline fill="none" stroke="#bfbfbf" points="0,-275.5 143,-275.5"/>
<text text-anchor="middle" x="71.5" y="-263.5" font-family="Helvetica,sans-Serif" font-size="10.00"> </text>
<polyline fill="none" stroke="#bfbfbf" points="0,-256.5 143,-256.5"/>
<text text-anchor="start" x="8" y="-244.5" font-family="Helvetica,sans-Serif" font-size="10.00">+ getCategory()</text>
<text text-anchor="start" x="8" y="-233.5" font-family="Helvetica,sans-Serif" font-size="10.00">+ getClassName()</text>
<text text-anchor="start" x="8" y="-222.5" font-family="Helvetica,sans-Serif" font-size="10.00"># onStartPlayerCollision()</text>
</a>
</g>
</g>
<!-- Node2&#45;&gt;Node1 -->
<g id="edge1" class="edge">
<title>Node2&#45;&gt;Node1</title>
<path fill="none" stroke="#63b8ff" d="M89.48,-205.54C102.4,-170.72 119.68,-124.17 132.2,-90.43"/>
<polygon fill="none" stroke="#63b8ff" points="86.35,-203.93 86.15,-214.52 92.91,-206.36 86.35,-203.93"/>
</g>
<!-- Node3 -->
<g id="node3" class="node">
<title>Node3</title>
<g id="a_node3"><a xlink:href="classPlayerCollidable.html" target="_top" xlink:title=" ">
<polygon fill="white" stroke="#bfbfbf" points="35.5,-419.5 35.5,-509.5 167.5,-509.5 167.5,-419.5 35.5,-419.5"/>
<text text-anchor="middle" x="101.5" y="-497.5" font-family="Helvetica,sans-Serif" font-size="10.00">PlayerCollidable</text>
<polyline fill="none" stroke="#bfbfbf" points="35.5,-490.5 167.5,-490.5"/>
<text text-anchor="start" x="43.5" y="-478.5" font-family="Helvetica,sans-Serif" font-size="10.00"># isCollidingWithPlayer</text>
<text text-anchor="start" x="43.5" y="-467.5" font-family="Helvetica,sans-Serif" font-size="10.00"># player</text>
<polyline fill="none" stroke="#bfbfbf" points="35.5,-460.5 167.5,-460.5"/>
<text text-anchor="start" x="43.5" y="-448.5" font-family="Helvetica,sans-Serif" font-size="10.00">+ onPlayerCollision()</text>
<text text-anchor="start" x="43.5" y="-437.5" font-family="Helvetica,sans-Serif" font-size="10.00">+ updateCurrent()</text>
<text text-anchor="start" x="43.5" y="-426.5" font-family="Helvetica,sans-Serif" font-size="10.00">+ SceneNode()</text>
</a>
</g>
</g>
<!-- Node3&#45;&gt;Node2 -->
<g id="edge2" class="edge">
<title>Node3&#45;&gt;Node2</title>
<path fill="none" stroke="#63b8ff" d="M93.54,-408.46C88.35,-372.52 81.69,-326.49 77.06,-294.46"/>
<polygon fill="none" stroke="#63b8ff" points="90.06,-408.85 94.96,-418.25 96.99,-407.85 90.06,-408.85"/>
</g>
<!-- Node4 -->
<g id="node4" class="node">
<title>Node4</title>
<g id="a_node4"><a xlink:href="classSceneNode.html" target="_top" xlink:title="A node in the scene graph.">
<polygon fill="white" stroke="#666666" points="81,-546.5 81,-812.5 216,-812.5 216,-546.5 81,-546.5"/>
<text text-anchor="middle" x="148.5" y="-800.5" font-family="Helvetica,sans-Serif" font-size="10.00">SceneNode</text>
<polyline fill="none" stroke="#666666" points="81,-793.5 216,-793.5"/>
<text text-anchor="middle" x="148.5" y="-781.5" font-family="Helvetica,sans-Serif" font-size="10.00"> </text>
<polyline fill="none" stroke="#666666" points="81,-774.5 216,-774.5"/>
<text text-anchor="start" x="89" y="-762.5" font-family="Helvetica,sans-Serif" font-size="10.00">+ SceneNode()</text>
<text text-anchor="start" x="89" y="-751.5" font-family="Helvetica,sans-Serif" font-size="10.00">+ attachChild()</text>
<text text-anchor="start" x="89" y="-740.5" font-family="Helvetica,sans-Serif" font-size="10.00">+ detachChild()</text>
<text text-anchor="start" x="89" y="-729.5" font-family="Helvetica,sans-Serif" font-size="10.00">+ update()</text>
<text text-anchor="start" x="89" y="-718.5" font-family="Helvetica,sans-Serif" font-size="10.00">+ getAbsTransform()</text>
<text text-anchor="start" x="89" y="-707.5" font-family="Helvetica,sans-Serif" font-size="10.00">+ getAbsPosition()</text>
<text text-anchor="start" x="89" y="-696.5" font-family="Helvetica,sans-Serif" font-size="10.00">+ checkNodeCollision()</text>
<text text-anchor="start" x="89" y="-685.5" font-family="Helvetica,sans-Serif" font-size="10.00">+ checkSceneCollision()</text>
<text text-anchor="start" x="89" y="-674.5" font-family="Helvetica,sans-Serif" font-size="10.00">+ setDebug()</text>
<text text-anchor="start" x="89" y="-663.5" font-family="Helvetica,sans-Serif" font-size="10.00">+ getCategory()</text>
<text text-anchor="start" x="89" y="-652.5" font-family="Helvetica,sans-Serif" font-size="10.00">+ saveNode()</text>
<text text-anchor="start" x="89" y="-641.5" font-family="Helvetica,sans-Serif" font-size="10.00">+ operator&lt;()</text>
<text text-anchor="start" x="89" y="-630.5" font-family="Helvetica,sans-Serif" font-size="10.00">+ getBoundingRect()</text>
<text text-anchor="start" x="89" y="-619.5" font-family="Helvetica,sans-Serif" font-size="10.00">+ getLocalBounds()</text>
<text text-anchor="start" x="89" y="-608.5" font-family="Helvetica,sans-Serif" font-size="10.00">+ draw()</text>
<text text-anchor="start" x="89" y="-597.5" font-family="Helvetica,sans-Serif" font-size="10.00"># getClassName()</text>
<text text-anchor="start" x="89" y="-586.5" font-family="Helvetica,sans-Serif" font-size="10.00"># saveCurrentNode()</text>
<text text-anchor="start" x="89" y="-575.5" font-family="Helvetica,sans-Serif" font-size="10.00"># loadCurrentNode()</text>
<text text-anchor="start" x="89" y="-564.5" font-family="Helvetica,sans-Serif" font-size="10.00"># onLoadingFinished()</text>
<text text-anchor="start" x="89" y="-553.5" font-family="Helvetica,sans-Serif" font-size="10.00"># shouldSave()</text>
</a>
</g>
</g>
<!-- Node4&#45;&gt;Node3 -->
<g id="edge3" class="edge">
<title>Node4&#45;&gt;Node3</title>
<path fill="none" stroke="#63b8ff" d="M116.96,-535.58C114.92,-526.32 112.97,-517.47 111.18,-509.37"/>
<polygon fill="none" stroke="#63b8ff" points="113.5,-536.14 119.08,-545.16 120.34,-534.64 113.5,-536.14"/>
</g>
<!-- Node8 -->
<g id="node8" class="node">
<title>Node8</title>
<g id="a_node8"><a xlink:href="classEntity.html" target="_top" xlink:title=" ">
<polygon fill="white" stroke="#666666" points="161.5,-127.5 161.5,-382.5 291.5,-382.5 291.5,-127.5 161.5,-127.5"/>
<text text-anchor="middle" x="226.5" y="-370.5" font-family="Helvetica,sans-Serif" font-size="10.00">Entity</text>
<polyline fill="none" stroke="#666666" points="161.5,-363.5 291.5,-363.5"/>
<text text-anchor="start" x="169.5" y="-351.5" font-family="Helvetica,sans-Serif" font-size="10.00"># velocity</text>
<text text-anchor="start" x="169.5" y="-340.5" font-family="Helvetica,sans-Serif" font-size="10.00"># localBounds</text>
<text text-anchor="start" x="169.5" y="-329.5" font-family="Helvetica,sans-Serif" font-size="10.00"># spriteBounds</text>
<text text-anchor="start" x="169.5" y="-318.5" font-family="Helvetica,sans-Serif" font-size="10.00"># animation</text>
<polyline fill="none" stroke="#666666" points="161.5,-311.5 291.5,-311.5"/>
<text text-anchor="start" x="169.5" y="-299.5" font-family="Helvetica,sans-Serif" font-size="10.00">+ Entity()</text>
<text text-anchor="start" x="169.5" y="-288.5" font-family="Helvetica,sans-Serif" font-size="10.00">+ Entity()</text>
<text text-anchor="start" x="169.5" y="-277.5" font-family="Helvetica,sans-Serif" font-size="10.00">+ Entity()</text>
<text text-anchor="start" x="169.5" y="-266.5" font-family="Helvetica,sans-Serif" font-size="10.00">+ Entity()</text>
<text text-anchor="start" x="169.5" y="-255.5" font-family="Helvetica,sans-Serif" font-size="10.00">+ getVelocity()</text>
<text text-anchor="start" x="169.5" y="-244.5" font-family="Helvetica,sans-Serif" font-size="10.00">+ setVelocity()</text>
<text text-anchor="start" x="169.5" y="-233.5" font-family="Helvetica,sans-Serif" font-size="10.00">+ getLocalBounds()</text>
<text text-anchor="start" x="169.5" y="-222.5" font-family="Helvetica,sans-Serif" font-size="10.00">+ getSpriteBounds()</text>
<text text-anchor="start" x="169.5" y="-211.5" font-family="Helvetica,sans-Serif" font-size="10.00">+ adjustSpriteBounds()</text>
<text text-anchor="start" x="169.5" y="-200.5" font-family="Helvetica,sans-Serif" font-size="10.00">+ adjustBounds()</text>
<text text-anchor="start" x="169.5" y="-189.5" font-family="Helvetica,sans-Serif" font-size="10.00">+ getClassName()</text>
<text text-anchor="start" x="169.5" y="-178.5" font-family="Helvetica,sans-Serif" font-size="10.00">+ saveCurrentNode()</text>
<text text-anchor="start" x="169.5" y="-167.5" font-family="Helvetica,sans-Serif" font-size="10.00">+ loadCurrentNode()</text>
<text text-anchor="start" x="169.5" y="-156.5" font-family="Helvetica,sans-Serif" font-size="10.00"># drawCurrent()</text>
<text text-anchor="start" x="169.5" y="-145.5" font-family="Helvetica,sans-Serif" font-size="10.00"># updateCurrent()</text>
<text text-anchor="start" x="169.5" y="-134.5" font-family="Helvetica,sans-Serif" font-size="10.00"># shouldSave()</text>
</a>
</g>
</g>
<!-- Node4&#45;&gt;Node8 -->
<g id="edge8" class="edge">
<title>Node4&#45;&gt;Node8</title>
<path fill="none" stroke="#63b8ff" d="M174.92,-535.39C184.09,-485.73 194.29,-430.45 203.19,-382.25"/>
<polygon fill="none" stroke="#63b8ff" points="171.51,-534.6 173.13,-545.07 178.39,-535.87 171.51,-534.6"/>
</g>
<!-- Node5 -->
<g id="node5" class="node">
<title>Node5</title>
<g id="a_node5"><a xlink:title=" ">
<polygon fill="white" stroke="#bfbfbf" points="3,-849.5 3,-906.5 80,-906.5 80,-849.5 3,-849.5"/>
<text text-anchor="middle" x="41.5" y="-894.5" font-family="Helvetica,sans-Serif" font-size="10.00">sf::Drawable</text>
<polyline fill="none" stroke="#bfbfbf" points="3,-887.5 80,-887.5"/>
<text text-anchor="middle" x="41.5" y="-875.5" font-family="Helvetica,sans-Serif" font-size="10.00"> </text>
<polyline fill="none" stroke="#bfbfbf" points="3,-868.5 80,-868.5"/>
<text text-anchor="middle" x="41.5" y="-856.5" font-family="Helvetica,sans-Serif" font-size="10.00"> </text>
</a>
</g>
</g>
<!-- Node5&#45;&gt;Node4 -->
<g id="edge4" class="edge">
<title>Node5&#45;&gt;Node4</title>
<path fill="none" stroke="#63b8ff" d="M61.82,-839.68C67.57,-829.13 74.15,-817.04 81.07,-804.33"/>
<polygon fill="none" stroke="#63b8ff" points="58.81,-837.89 57.1,-848.35 64.96,-841.24 58.81,-837.89"/>
</g>
<!-- Node6 -->
<g id="node6" class="node">
<title>Node6</title>
<g id="a_node6"><a xlink:title=" ">
<polygon fill="white" stroke="#bfbfbf" points="98,-849.5 98,-906.5 199,-906.5 199,-849.5 98,-849.5"/>
<text text-anchor="middle" x="148.5" y="-894.5" font-family="Helvetica,sans-Serif" font-size="10.00">sf::Transformable</text>
<polyline fill="none" stroke="#bfbfbf" points="98,-887.5 199,-887.5"/>
<text text-anchor="middle" x="148.5" y="-875.5" font-family="Helvetica,sans-Serif" font-size="10.00"> </text>
<polyline fill="none" stroke="#bfbfbf" points="98,-868.5 199,-868.5"/>
<text text-anchor="middle" x="148.5" y="-856.5" font-family="Helvetica,sans-Serif" font-size="10.00"> </text>
</a>
</g>
</g>
<!-- Node6&#45;&gt;Node4 -->
<g id="edge5" class="edge">
<title>Node6&#45;&gt;Node4</title>
<path fill="none" stroke="#63b8ff" d="M148.5,-838.31C148.5,-830.36 148.5,-821.58 148.5,-812.35"/>
<polygon fill="none" stroke="#63b8ff" points="145,-838.16 148.5,-848.16 152,-838.16 145,-838.16"/>
</g>
<!-- Node7 -->
<g id="node7" class="node">
<title>Node7</title>
<g id="a_node7"><a xlink:title=" ">
<polygon fill="white" stroke="#bfbfbf" points="217.5,-849.5 217.5,-906.5 313.5,-906.5 313.5,-849.5 217.5,-849.5"/>
<text text-anchor="middle" x="265.5" y="-894.5" font-family="Helvetica,sans-Serif" font-size="10.00">sf::NonCopyable</text>
<polyline fill="none" stroke="#bfbfbf" points="217.5,-887.5 313.5,-887.5"/>
<text text-anchor="middle" x="265.5" y="-875.5" font-family="Helvetica,sans-Serif" font-size="10.00"> </text>
<polyline fill="none" stroke="#bfbfbf" points="217.5,-868.5 313.5,-868.5"/>
<text text-anchor="middle" x="265.5" y="-856.5" font-family="Helvetica,sans-Serif" font-size="10.00"> </text>
</a>
</g>
</g>
<!-- Node7&#45;&gt;Node4 -->
<g id="edge6" class="edge">
<title>Node7&#45;&gt;Node4</title>
<path fill="none" stroke="#8b1a1a" d="M243.38,-839.86C235.32,-826.32 225.73,-810.21 215.8,-793.52"/>
<polygon fill="none" stroke="#8b1a1a" points="240.33,-841.58 248.46,-848.38 246.35,-837.99 240.33,-841.58"/>
</g>
<!-- Node8&#45;&gt;Node1 -->
<g id="edge7" class="edge">
<title>Node8&#45;&gt;Node1</title>
<path fill="none" stroke="#63b8ff" d="M174.97,-116.92C171.46,-107.58 168.1,-98.65 165.03,-90.47"/>
<polygon fill="none" stroke="#63b8ff" points="171.66,-118.07 178.46,-126.2 178.22,-115.61 171.66,-118.07"/>
</g>
</g>
</svg>
