<?xml version="1.0" encoding="UTF-8" standalone="no"?>
<!DOCTYPE svg PUBLIC "-//W3C//DTD SVG 1.1//EN"
 "http://www.w3.org/Graphics/SVG/1.1/DTD/svg11.dtd">
<!-- Generated by graphviz version 7.0.5 (0)
 -->
<!-- Title: HealthEffect Pages: 1 -->
<svg width="552pt" height="544pt"
 viewBox="0.00 0.00 552.00 544.00" xmlns="http://www.w3.org/2000/svg" xmlns:xlink="http://www.w3.org/1999/xlink">
<g id="graph0" class="graph" transform="scale(1 1) rotate(0) translate(4 540)">
<title>HealthEffect</title>
<!-- Node1 -->
<g id="node1" class="node">
<title>Node1</title>
<g id="a_node1"><a xlink:title=" ">
<polygon fill="#999999" stroke="#666666" points="296,-107 0,-107 0,0 296,0 296,-107"/>
<text text-anchor="middle" x="148" y="-95" font-family="Helvetica,sans-Serif" font-size="10.00">{HealthEffect</text>
<text text-anchor="start" x="8" y="-84" font-family="Helvetica,sans-Serif" font-size="10.00">|&#45; float healthDelta_</text>
<text text-anchor="start" x="8" y="-73" font-family="Helvetica,sans-Serif" font-size="10.00">&#45; bool reverse_</text>
<text text-anchor="start" x="8" y="-62" font-family="Helvetica,sans-Serif" font-size="10.00">|+ &#160;HealthEffect(float healthDelta, bool reverse=true)</text>
<text text-anchor="start" x="8" y="-51" font-family="Helvetica,sans-Serif" font-size="10.00">+ &#160;Effect()=default</text>
<text text-anchor="start" x="8" y="-40" font-family="Helvetica,sans-Serif" font-size="10.00">+ &#160;Effect(std::unique_ptr&lt; Effect &gt; wrapper)</text>
<text text-anchor="start" x="8" y="-29" font-family="Helvetica,sans-Serif" font-size="10.00">&#45; float healthDeltaCurrent() const override</text>
<text text-anchor="start" x="8" y="-18" font-family="Helvetica,sans-Serif" font-size="10.00">&#45; std::unique_ptr&lt; Effect &gt; onEndCurrent() const override</text>
<text text-anchor="middle" x="148" y="-7" font-family="Helvetica,sans-Serif" font-size="10.00">}</text>
</a>
</g>
</g>
<!-- Node2 -->
<g id="node2" class="node">
<title>Node2</title>
<g id="a_node2"><a xlink:href="classEffect.html" target="_top" xlink:title=" ">
<polygon fill="white" stroke="#666666" points="401.5,-459 110.5,-459 110.5,-154 401.5,-154 401.5,-459"/>
<text text-anchor="middle" x="256" y="-447" font-family="Helvetica,sans-Serif" font-size="10.00">{Effect</text>
<text text-anchor="start" x="118.5" y="-436" font-family="Helvetica,sans-Serif" font-size="10.00">||+ &#160;Effect()=default</text>
<text text-anchor="start" x="118.5" y="-425" font-family="Helvetica,sans-Serif" font-size="10.00">+ &#160;Effect(std::unique_ptr&lt; Effect &gt; wrapper)</text>
<text text-anchor="start" x="118.5" y="-414" font-family="Helvetica,sans-Serif" font-size="10.00">+ void concat(std::unique_ptr&lt; Effect &gt; boost)</text>
<text text-anchor="start" x="118.5" y="-403" font-family="Helvetica,sans-Serif" font-size="10.00">+ float healthDelta() const</text>
<text text-anchor="start" x="118.5" y="-392" font-family="Helvetica,sans-Serif" font-size="10.00">+ sf::Vector2f sizeScale() const</text>
<text text-anchor="start" x="118.5" y="-381" font-family="Helvetica,sans-Serif" font-size="10.00">+ sf::Vector2i distanceScale() const</text>
<text text-anchor="start" x="118.5" y="-370" font-family="Helvetica,sans-Serif" font-size="10.00">+ float jumpDurationScale() const</text>
<text text-anchor="start" x="118.5" y="-359" font-family="Helvetica,sans-Serif" font-size="10.00">+ int invincible() const</text>
<text text-anchor="start" x="118.5" y="-348" font-family="Helvetica,sans-Serif" font-size="10.00">+ sf::Time durationEach() const</text>
<text text-anchor="start" x="118.5" y="-337" font-family="Helvetica,sans-Serif" font-size="10.00">+ int times() const</text>
<text text-anchor="start" x="118.5" y="-326" font-family="Helvetica,sans-Serif" font-size="10.00">+ void runMisc() const</text>
<text text-anchor="start" x="118.5" y="-315" font-family="Helvetica,sans-Serif" font-size="10.00">+ std::unique_ptr&lt; Effect &gt; onEnd() const</text>
<text text-anchor="start" x="118.5" y="-304" font-family="Helvetica,sans-Serif" font-size="10.00">+ std::unique_ptr&lt; Effect &gt; nextEffect()</text>
<text text-anchor="start" x="118.5" y="-293" font-family="Helvetica,sans-Serif" font-size="10.00">+ virtual ~Effect()=default</text>
<text text-anchor="start" x="118.5" y="-282" font-family="Helvetica,sans-Serif" font-size="10.00"># virtual float healthDeltaCurrent() const</text>
<text text-anchor="start" x="118.5" y="-271" font-family="Helvetica,sans-Serif" font-size="10.00"># virtual sf::Vector2f sizeScaleCurrent() const</text>
<text text-anchor="start" x="118.5" y="-260" font-family="Helvetica,sans-Serif" font-size="10.00"># virtual sf::Vector2i distanceScaleCurrent() const</text>
<text text-anchor="start" x="118.5" y="-249" font-family="Helvetica,sans-Serif" font-size="10.00"># virtual float jumpDurationScaleCurrent() const</text>
<text text-anchor="start" x="118.5" y="-238" font-family="Helvetica,sans-Serif" font-size="10.00"># virtual int invincibleCurrent() const</text>
<text text-anchor="start" x="118.5" y="-227" font-family="Helvetica,sans-Serif" font-size="10.00"># virtual sf::Time durationEachCurrent() const</text>
<text text-anchor="start" x="118.5" y="-216" font-family="Helvetica,sans-Serif" font-size="10.00"># virtual int timesCurrent() const</text>
<text text-anchor="start" x="118.5" y="-205" font-family="Helvetica,sans-Serif" font-size="10.00"># virtual void runMiscCurrentBefore() const</text>
<text text-anchor="start" x="118.5" y="-194" font-family="Helvetica,sans-Serif" font-size="10.00"># virtual void runMiscCurrentAfter() const</text>
<text text-anchor="start" x="118.5" y="-183" font-family="Helvetica,sans-Serif" font-size="10.00"># virtual std::unique_ptr&lt; Effect &gt; onEndCurrent() const</text>
<text text-anchor="start" x="118.5" y="-172" font-family="Helvetica,sans-Serif" font-size="10.00"># virtual std::unique_ptr&lt; Effect &gt; nextEffectCurrent()</text>
<text text-anchor="middle" x="256" y="-161" font-family="Helvetica,sans-Serif" font-size="10.00">}</text>
</a>
</g>
</g>
<!-- Node2&#45;&gt;Node1 -->
<g id="edge1" class="edge">
<title>Node2&#45;&gt;Node1</title>
<path fill="none" stroke="#63b8ff" d="M186.23,-143.35C180.73,-130.57 175.47,-118.34 170.71,-107.27"/>
<polygon fill="none" stroke="#63b8ff" points="182.92,-144.51 190.09,-152.31 189.35,-141.74 182.92,-144.51"/>
</g>
<!-- Node3 -->
<g id="node3" class="node">
<title>Node3</title>
<g id="a_node3"><a xlink:title=" ">
<polygon fill="white" stroke="#666666" points="460,-74 314,-74 314,-33 460,-33 460,-74"/>
<text text-anchor="middle" x="387" y="-62" font-family="Helvetica,sans-Serif" font-size="10.00">{std::unique_ptr&lt; Effect &gt;</text>
<text text-anchor="start" x="322" y="-51" font-family="Helvetica,sans-Serif" font-size="10.00">||+ Effect * operator&#45;&gt;()</text>
<text text-anchor="middle" x="387" y="-40" font-family="Helvetica,sans-Serif" font-size="10.00">}</text>
</a>
</g>
</g>
<!-- Node2&#45;&gt;Node3 -->
<g id="edge3" class="edge">
<title>Node2&#45;&gt;Node3</title>
<path fill="none" stroke="#404040" d="M300.41,-153.85C305.16,-143.84 310.35,-134.12 316,-125 325.63,-109.47 339.33,-94.8 352.13,-82.9"/>
<polygon fill="none" stroke="#404040" points="352.05,-82.98 353.86,-76 360.99,-74.98 359.19,-81.96 352.05,-82.98"/>
<text text-anchor="middle" x="328.5" y="-128" font-family="Helvetica,sans-Serif" font-size="10.00"> +ptr</text>
</g>
<!-- Node3&#45;&gt;Node2 -->
<g id="edge2" class="edge">
<title>Node3&#45;&gt;Node2</title>
<path fill="none" stroke="#404040" d="M376.61,-74.41C368.15,-90.61 355.33,-115.18 341.15,-142.34"/>
<polygon fill="none" stroke="#404040" points="341.19,-142.26 341.96,-149.43 335.64,-152.9 334.87,-145.73 341.19,-142.26"/>
<text text-anchor="middle" x="372.5" y="-128" font-family="Helvetica,sans-Serif" font-size="10.00"> &#45;wrapper</text>
</g>
<!-- Node4 -->
<g id="node4" class="node">
<title>Node4</title>
<g id="a_node4"><a xlink:title=" ">
<polygon fill="white" stroke="#666666" points="544,-327 420,-327 420,-286 544,-286 544,-327"/>
<text text-anchor="middle" x="482" y="-315" font-family="Helvetica,sans-Serif" font-size="10.00">{std::unique_ptr&lt; T &gt;</text>
<text text-anchor="start" x="428" y="-304" font-family="Helvetica,sans-Serif" font-size="10.00">||+ T * operator&#45;&gt;()</text>
<text text-anchor="middle" x="482" y="-293" font-family="Helvetica,sans-Serif" font-size="10.00">}</text>
</a>
</g>
</g>
<!-- Node4&#45;&gt;Node3 -->
<g id="edge4" class="edge">
<title>Node4&#45;&gt;Node3</title>
<path fill="none" stroke="orange" d="M470.55,-275.26C450.88,-223.27 411.15,-118.3 394.55,-74.45"/>
<polygon fill="orange" stroke="orange" points="467.2,-276.28 474.01,-284.39 473.74,-273.8 467.2,-276.28"/>
<text text-anchor="middle" x="444" y="-128" font-family="Helvetica,sans-Serif" font-size="10.00"> &lt; Effect &gt;</text>
</g>
<!-- Node5 -->
<g id="node5" class="node">
<title>Node5</title>
<g id="a_node5"><a xlink:title=" ">
<polygon fill="white" stroke="#666666" points="496.5,-536 467.5,-536 467.5,-506 496.5,-506 496.5,-536"/>
<text text-anchor="middle" x="482" y="-524" font-family="Helvetica,sans-Serif" font-size="10.00">{T</text>
<text text-anchor="middle" x="482" y="-513" font-family="Helvetica,sans-Serif" font-size="10.00">||}</text>
</a>
</g>
</g>
<!-- Node5&#45;&gt;Node4 -->
<g id="edge5" class="edge">
<title>Node5&#45;&gt;Node4</title>
<path fill="none" stroke="#404040" d="M482,-505.73C482,-472.18 482,-387.57 482,-340.46"/>
<polygon fill="none" stroke="#404040" points="482,-340.32 478,-334.32 482,-328.32 486,-334.32 482,-340.32"/>
<text text-anchor="middle" x="494.5" y="-480" font-family="Helvetica,sans-Serif" font-size="10.00"> +ptr</text>
</g>
</g>
</svg>
