<?xml version="1.0" encoding="UTF-8" standalone="no"?>
<!DOCTYPE svg PUBLIC "-//W3C//DTD SVG 1.1//EN"
 "http://www.w3.org/Graphics/SVG/1.1/DTD/svg11.dtd">
<!-- Generated by graphviz version 7.0.5 (0)
 -->
<!-- Title: State Pages: 1 -->
<svg width="691pt" height="585pt"
 viewBox="0.00 0.00 690.50 585.00" xmlns="http://www.w3.org/2000/svg" xmlns:xlink="http://www.w3.org/1999/xlink">
<g id="graph0" class="graph" transform="scale(1 1) rotate(0) translate(4 581)">
<title>State</title>
<!-- Node1 -->
<g id="node1" class="node">
<title>Node1</title>
<g id="a_node1"><a xlink:title=" ">
<polygon fill="#999999" stroke="#666666" points="569,-305 0,-305 0,-77 569,-77 569,-305"/>
<text text-anchor="middle" x="284.5" y="-293" font-family="Helvetica,sans-Serif" font-size="10.00">{State</text>
<text text-anchor="start" x="8" y="-282" font-family="Helvetica,sans-Serif" font-size="10.00">|+ sf::Event ev</text>
<text text-anchor="start" x="8" y="-271" font-family="Helvetica,sans-Serif" font-size="10.00"># sf::RenderWindow * window</text>
<text text-anchor="start" x="8" y="-260" font-family="Helvetica,sans-Serif" font-size="10.00"># bool quit</text>
<text text-anchor="start" x="8" y="-249" font-family="Helvetica,sans-Serif" font-size="10.00"># tgui::Gui * gui</text>
<text text-anchor="start" x="8" y="-238" font-family="Helvetica,sans-Serif" font-size="10.00"># sf::Vector2i mousePosScreen</text>
<text text-anchor="start" x="8" y="-227" font-family="Helvetica,sans-Serif" font-size="10.00"># sf::Vector2i mousePosWindow</text>
<text text-anchor="start" x="8" y="-216" font-family="Helvetica,sans-Serif" font-size="10.00"># sf::Vector2f mousePosView</text>
<text text-anchor="start" x="8" y="-205" font-family="Helvetica,sans-Serif" font-size="10.00">|+ &#160;State(sf::RenderWindow *window, std::vector&lt; State * &gt; *states)</text>
<text text-anchor="start" x="8" y="-194" font-family="Helvetica,sans-Serif" font-size="10.00">+ &#160;State(sf::RenderWindow *window, std::map&lt; std::string, int &gt; *supportedKeys, std::vector&lt; State * &gt; *states)</text>
<text text-anchor="start" x="8" y="-183" font-family="Helvetica,sans-Serif" font-size="10.00">+ virtual ~State()</text>
<text text-anchor="start" x="8" y="-172" font-family="Helvetica,sans-Serif" font-size="10.00">+ const bool &amp; getQuit() const</text>
<text text-anchor="start" x="8" y="-161" font-family="Helvetica,sans-Serif" font-size="10.00">+ void endState()</text>
<text text-anchor="start" x="8" y="-150" font-family="Helvetica,sans-Serif" font-size="10.00">+ virtual void updateMousePos()</text>
<text text-anchor="start" x="8" y="-139" font-family="Helvetica,sans-Serif" font-size="10.00">+ virtual void updateInput(const float &amp;dt)=0</text>
<text text-anchor="start" x="8" y="-128" font-family="Helvetica,sans-Serif" font-size="10.00">+ virtual void updateEvents()=0</text>
<text text-anchor="start" x="8" y="-117" font-family="Helvetica,sans-Serif" font-size="10.00">+ virtual void update(const float &amp;dt)=0</text>
<text text-anchor="start" x="8" y="-106" font-family="Helvetica,sans-Serif" font-size="10.00">+ virtual void render(sf::RenderTarget *target=nullptr)=0</text>
<text text-anchor="start" x="8" y="-95" font-family="Helvetica,sans-Serif" font-size="10.00"># virtual void initKeyBinds()</text>
<text text-anchor="middle" x="284.5" y="-84" font-family="Helvetica,sans-Serif" font-size="10.00">}</text>
</a>
</g>
</g>
<!-- Node2 -->
<g id="node2" class="node">
<title>Node2</title>
<g id="a_node2"><a xlink:title=" ">
<polygon fill="white" stroke="#666666" points="431,-30 300,-30 300,0 431,0 431,-30"/>
<text text-anchor="middle" x="365.5" y="-18" font-family="Helvetica,sans-Serif" font-size="10.00">{std::vector&lt; State * &gt;</text>
<text text-anchor="middle" x="365.5" y="-7" font-family="Helvetica,sans-Serif" font-size="10.00">||}</text>
</a>
</g>
</g>
<!-- Node1&#45;&gt;Node2 -->
<g id="edge2" class="edge">
<title>Node1&#45;&gt;Node2</title>
<path fill="none" stroke="#404040" d="M272.2,-76.52C274.67,-66.36 278.61,-56.66 284.5,-48 287.21,-44.01 290.5,-40.53 294.19,-37.47"/>
<polygon fill="none" stroke="#404040" points="294.04,-37.57 296.78,-30.9 303.99,-30.86 301.25,-37.53 294.04,-37.57"/>
<text text-anchor="middle" x="313.5" y="-51" font-family="Helvetica,sans-Serif" font-size="10.00"> +elements</text>
</g>
<!-- Node2&#45;&gt;Node1 -->
<g id="edge1" class="edge">
<title>Node2&#45;&gt;Node1</title>
<path fill="none" stroke="#404040" d="M358.75,-30.49C354.67,-39.26 349.03,-51.37 342.67,-65.05"/>
<polygon fill="none" stroke="#404040" points="342.61,-65.16 343.71,-72.29 337.55,-76.04 336.46,-68.91 342.61,-65.16"/>
<text text-anchor="middle" x="371.5" y="-51" font-family="Helvetica,sans-Serif" font-size="10.00"> #states</text>
</g>
<!-- Node3 -->
<g id="node3" class="node">
<title>Node3</title>
<g id="a_node3"><a xlink:title=" ">
<polygon fill="white" stroke="#666666" points="649,-452 546,-452 546,-422 649,-422 649,-452"/>
<text text-anchor="middle" x="597.5" y="-440" font-family="Helvetica,sans-Serif" font-size="10.00">{std::vector&lt; T &gt;</text>
<text text-anchor="middle" x="597.5" y="-429" font-family="Helvetica,sans-Serif" font-size="10.00">||}</text>
</a>
</g>
</g>
<!-- Node3&#45;&gt;Node2 -->
<g id="edge3" class="edge">
<title>Node3&#45;&gt;Node2</title>
<path fill="none" stroke="orange" d="M605.08,-410.66C622.51,-346.76 658.11,-177 578.5,-77 560.08,-53.87 486.96,-36.52 431.48,-26.35"/>
<polygon fill="orange" stroke="orange" points="601.74,-409.62 602.38,-420.2 608.47,-411.53 601.74,-409.62"/>
<text text-anchor="middle" x="652.5" y="-331.5" font-family="Helvetica,sans-Serif" font-size="10.00"> &lt; State * &gt;</text>
</g>
<!-- Node4 -->
<g id="node4" class="node">
<title>Node4</title>
<g id="a_node4"><a xlink:title=" ">
<polygon fill="white" stroke="#666666" points="542,-577 513,-577 513,-547 542,-547 542,-577"/>
<text text-anchor="middle" x="527.5" y="-565" font-family="Helvetica,sans-Serif" font-size="10.00">{T</text>
<text text-anchor="middle" x="527.5" y="-554" font-family="Helvetica,sans-Serif" font-size="10.00">||}</text>
</a>
</g>
</g>
<!-- Node4&#45;&gt;Node3 -->
<g id="edge4" class="edge">
<title>Node4&#45;&gt;Node3</title>
<path fill="none" stroke="#404040" d="M535.53,-546.89C547.07,-526.61 568.54,-488.88 582.93,-463.6"/>
<polygon fill="none" stroke="#404040" points="582.97,-463.54 582.46,-456.34 588.9,-453.11 589.41,-460.3 582.97,-463.54"/>
<text text-anchor="middle" x="579.5" y="-521" font-family="Helvetica,sans-Serif" font-size="10.00"> +elements</text>
</g>
<!-- Node8 -->
<g id="node8" class="node">
<title>Node8</title>
<g id="a_node8"><a xlink:title=" ">
<polygon fill="white" stroke="#666666" points="455,-500 348,-500 348,-470 455,-470 455,-500"/>
<text text-anchor="middle" x="401.5" y="-488" font-family="Helvetica,sans-Serif" font-size="10.00">{std::map&lt; K, T &gt;</text>
<text text-anchor="middle" x="401.5" y="-477" font-family="Helvetica,sans-Serif" font-size="10.00">||}</text>
</a>
</g>
</g>
<!-- Node4&#45;&gt;Node8 -->
<g id="edge10" class="edge">
<title>Node4&#45;&gt;Node8</title>
<path fill="none" stroke="#404040" d="M512.55,-552.1C493.9,-541 461.4,-521.66 436.37,-506.75"/>
<polygon fill="none" stroke="#404040" points="436.55,-506.86 429.35,-507.23 426.24,-500.73 433.44,-500.36 436.55,-506.86"/>
<text text-anchor="middle" x="500.5" y="-521" font-family="Helvetica,sans-Serif" font-size="10.00"> +elements</text>
</g>
<!-- Node5 -->
<g id="node5" class="node">
<title>Node5</title>
<g id="a_node5"><a xlink:title=" ">
<polygon fill="white" stroke="#666666" points="277,-404 122,-404 122,-363 277,-363 277,-404"/>
<text text-anchor="middle" x="199.5" y="-392" font-family="Helvetica,sans-Serif" font-size="10.00">{std::map&lt; std::string, int &gt;</text>
<text text-anchor="start" x="130" y="-381" font-family="Helvetica,sans-Serif" font-size="10.00">|+ int elements</text>
<text text-anchor="middle" x="199.5" y="-370" font-family="Helvetica,sans-Serif" font-size="10.00">|}</text>
</a>
</g>
</g>
<!-- Node5&#45;&gt;Node1 -->
<g id="edge5" class="edge">
<title>Node5&#45;&gt;Node1</title>
<path fill="none" stroke="#404040" d="M208.28,-362.83C213.57,-350.98 220.8,-334.77 228.72,-317.02"/>
<polygon fill="none" stroke="#404040" points="228.75,-316.95 227.54,-309.84 233.64,-305.99 234.84,-313.1 228.75,-316.95"/>
<text text-anchor="middle" x="266" y="-337" font-family="Helvetica,sans-Serif" font-size="10.00"> #keybinds</text>
<text text-anchor="middle" x="266" y="-326" font-family="Helvetica,sans-Serif" font-size="10.00">#supportedKeys</text>
</g>
<!-- Node6 -->
<g id="node6" class="node">
<title>Node6</title>
<g id="a_node6"><a xlink:title=" ">
<polygon fill="white" stroke="#666666" points="234,-500 163,-500 163,-470 234,-470 234,-500"/>
<text text-anchor="middle" x="198.5" y="-488" font-family="Helvetica,sans-Serif" font-size="10.00">{std::string</text>
<text text-anchor="middle" x="198.5" y="-477" font-family="Helvetica,sans-Serif" font-size="10.00">||}</text>
</a>
</g>
</g>
<!-- Node6&#45;&gt;Node5 -->
<g id="edge6" class="edge">
<title>Node6&#45;&gt;Node5</title>
<path fill="none" stroke="#404040" d="M182.85,-469.81C178.29,-464.69 173.9,-458.55 171.5,-452 166.92,-439.48 167.3,-434.65 171.5,-422 172.29,-419.63 173.29,-417.29 174.44,-415"/>
<polygon fill="none" stroke="#404040" points="174.37,-415.11 174.15,-407.91 180.71,-404.92 180.94,-412.13 174.37,-415.11"/>
<text text-anchor="middle" x="188.5" y="-434.5" font-family="Helvetica,sans-Serif" font-size="10.00"> +keys</text>
</g>
<!-- Node10 -->
<g id="node10" class="node">
<title>Node10</title>
<g id="a_node10"><a xlink:title=" ">
<polygon fill="white" stroke="#666666" points="496,-404 295,-404 295,-363 496,-363 496,-404"/>
<text text-anchor="middle" x="395.5" y="-392" font-family="Helvetica,sans-Serif" font-size="10.00">{std::map&lt; std::string, sf::Texture * &gt;</text>
<text text-anchor="start" x="303" y="-381" font-family="Helvetica,sans-Serif" font-size="10.00">|+ sf::Texture * elements</text>
<text text-anchor="middle" x="395.5" y="-370" font-family="Helvetica,sans-Serif" font-size="10.00">|}</text>
</a>
</g>
</g>
<!-- Node6&#45;&gt;Node10 -->
<g id="edge12" class="edge">
<title>Node6&#45;&gt;Node10</title>
<path fill="none" stroke="#404040" d="M201.6,-469.66C205.44,-455.4 213.42,-433.96 228.5,-422 233.72,-417.86 255.81,-412.01 282.3,-406.16"/>
<polygon fill="none" stroke="#404040" points="282.12,-406.2 287.14,-401.03 293.85,-403.67 288.83,-408.85 282.12,-406.2"/>
<text text-anchor="middle" x="245.5" y="-434.5" font-family="Helvetica,sans-Serif" font-size="10.00"> +keys</text>
</g>
<!-- Node7 -->
<g id="node7" class="node">
<title>Node7</title>
<g id="a_node7"><a xlink:title=" ">
<polygon fill="white" stroke="#666666" points="272,-577 125,-577 125,-547 272,-547 272,-577"/>
<text text-anchor="middle" x="198.5" y="-565" font-family="Helvetica,sans-Serif" font-size="10.00">{std::basic_string&lt; Char &gt;</text>
<text text-anchor="middle" x="198.5" y="-554" font-family="Helvetica,sans-Serif" font-size="10.00">||}</text>
</a>
</g>
</g>
<!-- Node7&#45;&gt;Node6 -->
<g id="edge7" class="edge">
<title>Node7&#45;&gt;Node6</title>
<path fill="none" stroke="#63b8ff" d="M198.5,-535.23C198.5,-523.58 198.5,-510.26 198.5,-500.42"/>
<polygon fill="none" stroke="#63b8ff" points="195,-535.03 198.5,-545.03 202,-535.03 195,-535.03"/>
</g>
<!-- Node8&#45;&gt;Node5 -->
<g id="edge8" class="edge">
<title>Node8&#45;&gt;Node5</title>
<path fill="none" stroke="orange" d="M336.93,-467.8C324.16,-463.48 311.13,-458.24 299.5,-452 280.85,-441.99 279.86,-434.11 262.5,-422 253.84,-415.96 244.17,-409.89 235.06,-404.45"/>
<polygon fill="orange" stroke="orange" points="335.52,-471.02 346.11,-470.75 337.66,-464.36 335.52,-471.02"/>
<text text-anchor="middle" x="346.5" y="-434.5" font-family="Helvetica,sans-Serif" font-size="10.00"> &lt; std::string, int &gt;</text>
</g>
<!-- Node8&#45;&gt;Node10 -->
<g id="edge13" class="edge">
<title>Node8&#45;&gt;Node10</title>
<path fill="none" stroke="orange" d="M398.99,-458.4C398.81,-456.24 398.64,-454.08 398.5,-452 397.39,-435.97 396.61,-417.76 396.12,-404.3"/>
<polygon fill="orange" stroke="orange" points="395.48,-458.52 399.87,-468.17 402.46,-457.89 395.48,-458.52"/>
<text text-anchor="middle" x="468" y="-434.5" font-family="Helvetica,sans-Serif" font-size="10.00"> &lt; std::string, sf::Texture * &gt;</text>
</g>
<!-- Node9 -->
<g id="node9" class="node">
<title>Node9</title>
<g id="a_node9"><a xlink:title=" ">
<polygon fill="white" stroke="#666666" points="416,-577 387,-577 387,-547 416,-547 416,-577"/>
<text text-anchor="middle" x="401.5" y="-565" font-family="Helvetica,sans-Serif" font-size="10.00">{K</text>
<text text-anchor="middle" x="401.5" y="-554" font-family="Helvetica,sans-Serif" font-size="10.00">||}</text>
</a>
</g>
</g>
<!-- Node9&#45;&gt;Node8 -->
<g id="edge9" class="edge">
<title>Node9&#45;&gt;Node8</title>
<path fill="none" stroke="#404040" d="M401.5,-546.54C401.5,-537.1 401.5,-524.47 401.5,-513.2"/>
<polygon fill="none" stroke="#404040" points="401.5,-513.32 397.5,-507.32 401.5,-501.32 405.5,-507.32 401.5,-513.32"/>
<text text-anchor="middle" x="418.5" y="-521" font-family="Helvetica,sans-Serif" font-size="10.00"> +keys</text>
</g>
<!-- Node10&#45;&gt;Node1 -->
<g id="edge11" class="edge">
<title>Node10&#45;&gt;Node1</title>
<path fill="none" stroke="#404040" d="M384.04,-362.83C377.03,-350.81 367.42,-334.3 356.9,-316.26"/>
<polygon fill="none" stroke="#404040" points="356.94,-316.32 350.46,-313.15 350.9,-305.95 357.37,-309.12 356.94,-316.32"/>
<text text-anchor="middle" x="398.5" y="-331.5" font-family="Helvetica,sans-Serif" font-size="10.00"> #textures</text>
</g>
</g>
</svg>
