<?xml version="1.0" encoding="UTF-8" standalone="no"?>
<!DOCTYPE svg PUBLIC "-//W3C//DTD SVG 1.1//EN"
 "http://www.w3.org/Graphics/SVG/1.1/DTD/svg11.dtd">
<!-- Generated by graphviz version 7.0.5 (0)
 -->
<!-- Title: TextureSheet Pages: 1 -->
<svg width="107pt" height="226pt"
 viewBox="0.00 0.00 107.00 226.00" xmlns="http://www.w3.org/2000/svg" xmlns:xlink="http://www.w3.org/1999/xlink">
<g id="graph0" class="graph" transform="scale(1 1) rotate(0) translate(4 222)">
<title>TextureSheet</title>
<!-- Node1 -->
<g id="node1" class="node">
<title>Node1</title>
<g id="a_node1"><a xlink:title="A class that stores texture&#39;s related information.">
<polygon fill="#999999" stroke="#666666" points="0,-0.5 0,-90.5 99,-90.5 99,-0.5 0,-0.5"/>
<text text-anchor="middle" x="49.5" y="-78.5" font-family="Helvetica,sans-Serif" font-size="10.00">TextureSheet</text>
<polyline fill="none" stroke="#666666" points="0,-71.5 99,-71.5"/>
<text text-anchor="middle" x="49.5" y="-59.5" font-family="Helvetica,sans-Serif" font-size="10.00"> </text>
<polyline fill="none" stroke="#666666" points="0,-52.5 99,-52.5"/>
<text text-anchor="start" x="8" y="-40.5" font-family="Helvetica,sans-Serif" font-size="10.00">+ TextureSheet()</text>
<text text-anchor="start" x="8" y="-29.5" font-family="Helvetica,sans-Serif" font-size="10.00">+ getCount()</text>
<text text-anchor="start" x="8" y="-18.5" font-family="Helvetica,sans-Serif" font-size="10.00">+ getTexture()</text>
<text text-anchor="start" x="8" y="-7.5" font-family="Helvetica,sans-Serif" font-size="10.00">+ getSprite()</text>
</a>
</g>
</g>
<!-- Node2 -->
<g id="node2" class="node">
<title>Node2</title>
<g id="a_node2"><a xlink:href="classSheet.html" target="_top" xlink:title=" ">
<polygon fill="white" stroke="#bfbfbf" points="6,-127.5 6,-217.5 93,-217.5 93,-127.5 6,-127.5"/>
<text text-anchor="middle" x="49.5" y="-205.5" font-family="Helvetica,sans-Serif" font-size="10.00">Sheet</text>
<polyline fill="none" stroke="#bfbfbf" points="6,-198.5 93,-198.5"/>
<text text-anchor="middle" x="49.5" y="-186.5" font-family="Helvetica,sans-Serif" font-size="10.00"> </text>
<polyline fill="none" stroke="#bfbfbf" points="6,-179.5 93,-179.5"/>
<text text-anchor="start" x="14" y="-167.5" font-family="Helvetica,sans-Serif" font-size="10.00">+ getCount()</text>
<text text-anchor="start" x="14" y="-156.5" font-family="Helvetica,sans-Serif" font-size="10.00">+ getTexture()</text>
<text text-anchor="start" x="14" y="-145.5" font-family="Helvetica,sans-Serif" font-size="10.00">+ getSprite()</text>
<text text-anchor="start" x="14" y="-134.5" font-family="Helvetica,sans-Serif" font-size="10.00">+ ~Sheet()</text>
</a>
</g>
</g>
<!-- Node2&#45;&gt;Node1 -->
<g id="edge1" class="edge">
<title>Node2&#45;&gt;Node1</title>
<path fill="none" stroke="#63b8ff" d="M49.5,-116.48C49.5,-107.76 49.5,-98.83 49.5,-90.41"/>
<polygon fill="none" stroke="#63b8ff" points="46,-116.27 49.5,-126.27 53,-116.27 46,-116.27"/>
</g>
</g>
</svg>
