<?xml version="1.0" encoding="UTF-8" standalone="no"?>
<!DOCTYPE svg PUBLIC "-//W3C//DTD SVG 1.1//EN"
 "http://www.w3.org/Graphics/SVG/1.1/DTD/svg11.dtd">
<!-- Generated by graphviz version 7.0.5 (0)
 -->
<!-- Title: PlayerCollidable Pages: 1 -->
<svg width="1239pt" height="827pt"
 viewBox="0.00 0.00 1239.00 827.00" xmlns="http://www.w3.org/2000/svg" xmlns:xlink="http://www.w3.org/1999/xlink">
<g id="graph0" class="graph" transform="scale(1 1) rotate(0) translate(4 823)">
<title>PlayerCollidable</title>
<!-- Node1 -->
<g id="node1" class="node">
<title>Node1</title>
<g id="a_node1"><a xlink:title=" ">
<polygon fill="#999999" stroke="#666666" points="571.5,-331.5 571.5,-421.5 703.5,-421.5 703.5,-331.5 571.5,-331.5"/>
<text text-anchor="middle" x="637.5" y="-409.5" font-family="Helvetica,sans-Serif" font-size="10.00">PlayerCollidable</text>
<polyline fill="none" stroke="#666666" points="571.5,-402.5 703.5,-402.5"/>
<text text-anchor="start" x="579.5" y="-390.5" font-family="Helvetica,sans-Serif" font-size="10.00"># isCollidingWithPlayer</text>
<text text-anchor="start" x="579.5" y="-379.5" font-family="Helvetica,sans-Serif" font-size="10.00"># player</text>
<polyline fill="none" stroke="#666666" points="571.5,-372.5 703.5,-372.5"/>
<text text-anchor="start" x="579.5" y="-360.5" font-family="Helvetica,sans-Serif" font-size="10.00">+ onPlayerCollision()</text>
<text text-anchor="start" x="579.5" y="-349.5" font-family="Helvetica,sans-Serif" font-size="10.00">+ updateCurrent()</text>
<text text-anchor="start" x="579.5" y="-338.5" font-family="Helvetica,sans-Serif" font-size="10.00">+ SceneNode()</text>
</a>
</g>
</g>
<!-- Node6 -->
<g id="node6" class="node">
<title>Node6</title>
<g id="a_node6"><a xlink:href="classEnemy.html" target="_top" xlink:title=" ">
<polygon fill="white" stroke="#bfbfbf" points="0,-188 0,-267 143,-267 143,-188 0,-188"/>
<text text-anchor="middle" x="71.5" y="-255" font-family="Helvetica,sans-Serif" font-size="10.00">Enemy</text>
<polyline fill="none" stroke="#bfbfbf" points="0,-248 143,-248"/>
<text text-anchor="middle" x="71.5" y="-236" font-family="Helvetica,sans-Serif" font-size="10.00"> </text>
<polyline fill="none" stroke="#bfbfbf" points="0,-229 143,-229"/>
<text text-anchor="start" x="8" y="-217" font-family="Helvetica,sans-Serif" font-size="10.00">+ getCategory()</text>
<text text-anchor="start" x="8" y="-206" font-family="Helvetica,sans-Serif" font-size="10.00">+ getClassName()</text>
<text text-anchor="start" x="8" y="-195" font-family="Helvetica,sans-Serif" font-size="10.00"># onStartPlayerCollision()</text>
</a>
</g>
</g>
<!-- Node1&#45;&gt;Node6 -->
<g id="edge5" class="edge">
<title>Node1&#45;&gt;Node6</title>
<path fill="none" stroke="#63b8ff" d="M560.46,-375.02C461.48,-371.72 286.36,-356.66 151.5,-295 136.39,-288.09 121.81,-277.56 109.32,-266.9"/>
<polygon fill="none" stroke="#63b8ff" points="560.24,-378.52 570.34,-375.32 560.45,-371.52 560.24,-378.52"/>
</g>
<!-- Node9 -->
<g id="node9" class="node">
<title>Node9</title>
<g id="a_node9"><a xlink:href="classHealthPickup.html" target="_top" xlink:title=" ">
<polygon fill="white" stroke="#bfbfbf" points="161,-188 161,-267 268,-267 268,-188 161,-188"/>
<text text-anchor="middle" x="214.5" y="-255" font-family="Helvetica,sans-Serif" font-size="10.00">HealthPickup</text>
<polyline fill="none" stroke="#bfbfbf" points="161,-248 268,-248"/>
<text text-anchor="middle" x="214.5" y="-236" font-family="Helvetica,sans-Serif" font-size="10.00"> </text>
<polyline fill="none" stroke="#bfbfbf" points="161,-229 268,-229"/>
<text text-anchor="start" x="169" y="-217" font-family="Helvetica,sans-Serif" font-size="10.00">+ HealthPickup()</text>
<text text-anchor="start" x="169" y="-206" font-family="Helvetica,sans-Serif" font-size="10.00">+ getCategory()</text>
<text text-anchor="start" x="169" y="-195" font-family="Helvetica,sans-Serif" font-size="10.00">+ getClassName()</text>
</a>
</g>
</g>
<!-- Node1&#45;&gt;Node9 -->
<g id="edge8" class="edge">
<title>Node1&#45;&gt;Node9</title>
<path fill="none" stroke="#63b8ff" d="M560.22,-371.28C483.96,-364.22 366.24,-345.36 277.5,-295 264.91,-287.86 253.31,-277.39 243.59,-266.86"/>
<polygon fill="none" stroke="#63b8ff" points="559.85,-374.76 570.12,-372.14 560.46,-367.78 559.85,-374.76"/>
</g>
<!-- Node10 -->
<g id="node10" class="node">
<title>Node10</title>
<g id="a_node10"><a xlink:href="classInvinciblePickup.html" target="_top" xlink:title=" ">
<polygon fill="white" stroke="#bfbfbf" points="286.5,-188 286.5,-267 400.5,-267 400.5,-188 286.5,-188"/>
<text text-anchor="middle" x="343.5" y="-255" font-family="Helvetica,sans-Serif" font-size="10.00">InvinciblePickup</text>
<polyline fill="none" stroke="#bfbfbf" points="286.5,-248 400.5,-248"/>
<text text-anchor="middle" x="343.5" y="-236" font-family="Helvetica,sans-Serif" font-size="10.00"> </text>
<polyline fill="none" stroke="#bfbfbf" points="286.5,-229 400.5,-229"/>
<text text-anchor="start" x="294.5" y="-217" font-family="Helvetica,sans-Serif" font-size="10.00">+ InvinciblePickup()</text>
<text text-anchor="start" x="294.5" y="-206" font-family="Helvetica,sans-Serif" font-size="10.00">+ getCategory()</text>
<text text-anchor="start" x="294.5" y="-195" font-family="Helvetica,sans-Serif" font-size="10.00">+ getClassName()</text>
</a>
</g>
</g>
<!-- Node1&#45;&gt;Node10 -->
<g id="edge9" class="edge">
<title>Node1&#45;&gt;Node10</title>
<path fill="none" stroke="#63b8ff" d="M560.74,-357.7C514.58,-344.8 455.97,-324.41 409.5,-295 397.41,-287.34 385.83,-277.09 375.84,-266.94"/>
<polygon fill="none" stroke="#63b8ff" points="559.56,-361.01 570.13,-360.26 561.4,-354.25 559.56,-361.01"/>
</g>
<!-- Node11 -->
<g id="node11" class="node">
<title>Node11</title>
<g id="a_node11"><a xlink:href="classObstacle.html" target="_top" xlink:title=" ">
<polygon fill="white" stroke="#bfbfbf" points="419,-188 419,-267 562,-267 562,-188 419,-188"/>
<text text-anchor="middle" x="490.5" y="-255" font-family="Helvetica,sans-Serif" font-size="10.00">Obstacle</text>
<polyline fill="none" stroke="#bfbfbf" points="419,-248 562,-248"/>
<text text-anchor="middle" x="490.5" y="-236" font-family="Helvetica,sans-Serif" font-size="10.00"> </text>
<polyline fill="none" stroke="#bfbfbf" points="419,-229 562,-229"/>
<text text-anchor="start" x="427" y="-217" font-family="Helvetica,sans-Serif" font-size="10.00">+ getCategory()</text>
<text text-anchor="start" x="427" y="-206" font-family="Helvetica,sans-Serif" font-size="10.00">+ getClassName()</text>
<text text-anchor="start" x="427" y="-195" font-family="Helvetica,sans-Serif" font-size="10.00"># onStartPlayerCollision()</text>
</a>
</g>
</g>
<!-- Node1&#45;&gt;Node11 -->
<g id="edge10" class="edge">
<title>Node1&#45;&gt;Node11</title>
<path fill="none" stroke="#63b8ff" d="M585.89,-323.89C567.11,-305.11 546.23,-284.23 528.8,-266.8"/>
<polygon fill="none" stroke="#63b8ff" points="583.18,-326.13 592.72,-330.72 588.13,-321.18 583.18,-326.13"/>
</g>
<!-- Node13 -->
<g id="node13" class="node">
<title>Node13</title>
<g id="a_node13"><a xlink:href="classSmallSizePickup.html" target="_top" xlink:title=" ">
<polygon fill="white" stroke="#bfbfbf" points="580,-188 580,-267 695,-267 695,-188 580,-188"/>
<text text-anchor="middle" x="637.5" y="-255" font-family="Helvetica,sans-Serif" font-size="10.00">SmallSizePickup</text>
<polyline fill="none" stroke="#bfbfbf" points="580,-248 695,-248"/>
<text text-anchor="middle" x="637.5" y="-236" font-family="Helvetica,sans-Serif" font-size="10.00"> </text>
<polyline fill="none" stroke="#bfbfbf" points="580,-229 695,-229"/>
<text text-anchor="start" x="588" y="-217" font-family="Helvetica,sans-Serif" font-size="10.00">+ SmallSizePickup()</text>
<text text-anchor="start" x="588" y="-206" font-family="Helvetica,sans-Serif" font-size="10.00">+ getCategory()</text>
<text text-anchor="start" x="588" y="-195" font-family="Helvetica,sans-Serif" font-size="10.00">+ getClassName()</text>
</a>
</g>
</g>
<!-- Node1&#45;&gt;Node13 -->
<g id="edge13" class="edge">
<title>Node1&#45;&gt;Node13</title>
<path fill="none" stroke="#63b8ff" d="M637.5,-320.34C637.5,-302.51 637.5,-283.14 637.5,-266.8"/>
<polygon fill="none" stroke="#63b8ff" points="634,-320.28 637.5,-330.28 641,-320.28 634,-320.28"/>
</g>
<!-- Node14 -->
<g id="node14" class="node">
<title>Node14</title>
<g id="a_node14"><a xlink:href="classSpeedPickup.html" target="_top" xlink:title=" ">
<polygon fill="white" stroke="#bfbfbf" points="713,-188 713,-267 820,-267 820,-188 713,-188"/>
<text text-anchor="middle" x="766.5" y="-255" font-family="Helvetica,sans-Serif" font-size="10.00">SpeedPickup</text>
<polyline fill="none" stroke="#bfbfbf" points="713,-248 820,-248"/>
<text text-anchor="middle" x="766.5" y="-236" font-family="Helvetica,sans-Serif" font-size="10.00"> </text>
<polyline fill="none" stroke="#bfbfbf" points="713,-229 820,-229"/>
<text text-anchor="start" x="721" y="-217" font-family="Helvetica,sans-Serif" font-size="10.00">+ SpeedPickup()</text>
<text text-anchor="start" x="721" y="-206" font-family="Helvetica,sans-Serif" font-size="10.00">+ getCategory()</text>
<text text-anchor="start" x="721" y="-195" font-family="Helvetica,sans-Serif" font-size="10.00">+ getClassName()</text>
</a>
</g>
</g>
<!-- Node1&#45;&gt;Node14 -->
<g id="edge14" class="edge">
<title>Node1&#45;&gt;Node14</title>
<path fill="none" stroke="#63b8ff" d="M683.23,-323.38C699.6,-304.73 717.73,-284.07 732.89,-266.8"/>
<polygon fill="none" stroke="#63b8ff" points="680.82,-320.83 676.85,-330.66 686.08,-325.45 680.82,-320.83"/>
</g>
<!-- Node15 -->
<g id="node15" class="node">
<title>Node15</title>
<g id="a_node15"><a xlink:href="classWall.html" target="_top" xlink:title=" ">
<polygon fill="white" stroke="#bfbfbf" points="838,-182.5 838,-272.5 951,-272.5 951,-182.5 838,-182.5"/>
<text text-anchor="middle" x="894.5" y="-260.5" font-family="Helvetica,sans-Serif" font-size="10.00">Wall</text>
<polyline fill="none" stroke="#bfbfbf" points="838,-253.5 951,-253.5"/>
<text text-anchor="middle" x="894.5" y="-241.5" font-family="Helvetica,sans-Serif" font-size="10.00"> </text>
<polyline fill="none" stroke="#bfbfbf" points="838,-234.5 951,-234.5"/>
<text text-anchor="start" x="846" y="-222.5" font-family="Helvetica,sans-Serif" font-size="10.00">+ Wall()</text>
<text text-anchor="start" x="846" y="-211.5" font-family="Helvetica,sans-Serif" font-size="10.00">+ getLocalBounds()</text>
<text text-anchor="start" x="846" y="-200.5" font-family="Helvetica,sans-Serif" font-size="10.00">+ setVelocity()</text>
<text text-anchor="start" x="846" y="-189.5" font-family="Helvetica,sans-Serif" font-size="10.00">+ updateCurrent()</text>
</a>
</g>
</g>
<!-- Node1&#45;&gt;Node15 -->
<g id="edge15" class="edge">
<title>Node1&#45;&gt;Node15</title>
<path fill="none" stroke="#63b8ff" d="M714.04,-351.06C750.42,-337.54 793.49,-318.65 828.5,-295 838.07,-288.54 847.41,-280.54 855.91,-272.36"/>
<polygon fill="none" stroke="#63b8ff" points="713.1,-347.68 704.9,-354.39 715.49,-354.25 713.1,-347.68"/>
</g>
<!-- Node16 -->
<g id="node16" class="node">
<title>Node16</title>
<g id="a_node16"><a xlink:href="classWater.html" target="_top" xlink:title=" ">
<polygon fill="white" stroke="#bfbfbf" points="969,-182.5 969,-272.5 1076,-272.5 1076,-182.5 969,-182.5"/>
<text text-anchor="middle" x="1022.5" y="-260.5" font-family="Helvetica,sans-Serif" font-size="10.00">Water</text>
<polyline fill="none" stroke="#bfbfbf" points="969,-253.5 1076,-253.5"/>
<text text-anchor="middle" x="1022.5" y="-241.5" font-family="Helvetica,sans-Serif" font-size="10.00"> </text>
<polyline fill="none" stroke="#bfbfbf" points="969,-234.5 1076,-234.5"/>
<text text-anchor="start" x="977" y="-222.5" font-family="Helvetica,sans-Serif" font-size="10.00">+ Water()</text>
<text text-anchor="start" x="977" y="-211.5" font-family="Helvetica,sans-Serif" font-size="10.00">+ Water()</text>
<text text-anchor="start" x="977" y="-200.5" font-family="Helvetica,sans-Serif" font-size="10.00">+ getCategory()</text>
<text text-anchor="start" x="977" y="-189.5" font-family="Helvetica,sans-Serif" font-size="10.00">+ getClassName()</text>
</a>
</g>
</g>
<!-- Node1&#45;&gt;Node16 -->
<g id="edge16" class="edge">
<title>Node1&#45;&gt;Node16</title>
<path fill="none" stroke="#63b8ff" d="M714.36,-368.81C782.91,-360.05 883.97,-340.08 960.5,-295 970.7,-288.99 980.25,-280.8 988.64,-272.21"/>
<polygon fill="none" stroke="#63b8ff" points="714.22,-365.3 704.72,-369.98 715.07,-372.24 714.22,-365.3"/>
</g>
<!-- Node17 -->
<g id="node17" class="node">
<title>Node17</title>
<g id="a_node17"><a xlink:href="classWoodLane.html" target="_top" xlink:title=" ">
<polygon fill="white" stroke="#bfbfbf" points="1094,-160.5 1094,-294.5 1231,-294.5 1231,-160.5 1094,-160.5"/>
<text text-anchor="middle" x="1162.5" y="-282.5" font-family="Helvetica,sans-Serif" font-size="10.00">WoodLane</text>
<polyline fill="none" stroke="#bfbfbf" points="1094,-275.5 1231,-275.5"/>
<text text-anchor="middle" x="1162.5" y="-263.5" font-family="Helvetica,sans-Serif" font-size="10.00"> </text>
<polyline fill="none" stroke="#bfbfbf" points="1094,-256.5 1231,-256.5"/>
<text text-anchor="start" x="1102" y="-244.5" font-family="Helvetica,sans-Serif" font-size="10.00">+ WoodLane()</text>
<text text-anchor="start" x="1102" y="-233.5" font-family="Helvetica,sans-Serif" font-size="10.00">+ WoodLane()</text>
<text text-anchor="start" x="1102" y="-222.5" font-family="Helvetica,sans-Serif" font-size="10.00">+ WoodLane()</text>
<text text-anchor="start" x="1102" y="-211.5" font-family="Helvetica,sans-Serif" font-size="10.00">+ getType()</text>
<text text-anchor="start" x="1102" y="-200.5" font-family="Helvetica,sans-Serif" font-size="10.00">+ getClassName()</text>
<text text-anchor="start" x="1102" y="-189.5" font-family="Helvetica,sans-Serif" font-size="10.00">+ getCategory()</text>
<text text-anchor="start" x="1102" y="-178.5" font-family="Helvetica,sans-Serif" font-size="10.00">+ setMaxWaterWidth()</text>
<text text-anchor="start" x="1102" y="-167.5" font-family="Helvetica,sans-Serif" font-size="10.00">+ spawnWaterInMiddle()</text>
</a>
</g>
</g>
<!-- Node1&#45;&gt;Node17 -->
<g id="edge17" class="edge">
<title>Node1&#45;&gt;Node17</title>
<path fill="none" stroke="#63b8ff" d="M714.97,-373.89C807.4,-369.26 964.6,-352.67 1085.5,-295 1088.37,-293.63 1091.22,-292.13 1094.03,-290.51"/>
<polygon fill="none" stroke="#63b8ff" points="714.81,-370.39 704.99,-374.35 715.14,-377.39 714.81,-370.39"/>
</g>
<!-- Node2 -->
<g id="node2" class="node">
<title>Node2</title>
<g id="a_node2"><a xlink:href="classSceneNode.html" target="_top" xlink:title="A node in the scene graph.">
<polygon fill="white" stroke="#666666" points="570,-458.5 570,-724.5 705,-724.5 705,-458.5 570,-458.5"/>
<text text-anchor="middle" x="637.5" y="-712.5" font-family="Helvetica,sans-Serif" font-size="10.00">SceneNode</text>
<polyline fill="none" stroke="#666666" points="570,-705.5 705,-705.5"/>
<text text-anchor="middle" x="637.5" y="-693.5" font-family="Helvetica,sans-Serif" font-size="10.00"> </text>
<polyline fill="none" stroke="#666666" points="570,-686.5 705,-686.5"/>
<text text-anchor="start" x="578" y="-674.5" font-family="Helvetica,sans-Serif" font-size="10.00">+ SceneNode()</text>
<text text-anchor="start" x="578" y="-663.5" font-family="Helvetica,sans-Serif" font-size="10.00">+ attachChild()</text>
<text text-anchor="start" x="578" y="-652.5" font-family="Helvetica,sans-Serif" font-size="10.00">+ detachChild()</text>
<text text-anchor="start" x="578" y="-641.5" font-family="Helvetica,sans-Serif" font-size="10.00">+ update()</text>
<text text-anchor="start" x="578" y="-630.5" font-family="Helvetica,sans-Serif" font-size="10.00">+ getAbsTransform()</text>
<text text-anchor="start" x="578" y="-619.5" font-family="Helvetica,sans-Serif" font-size="10.00">+ getAbsPosition()</text>
<text text-anchor="start" x="578" y="-608.5" font-family="Helvetica,sans-Serif" font-size="10.00">+ checkNodeCollision()</text>
<text text-anchor="start" x="578" y="-597.5" font-family="Helvetica,sans-Serif" font-size="10.00">+ checkSceneCollision()</text>
<text text-anchor="start" x="578" y="-586.5" font-family="Helvetica,sans-Serif" font-size="10.00">+ setDebug()</text>
<text text-anchor="start" x="578" y="-575.5" font-family="Helvetica,sans-Serif" font-size="10.00">+ getCategory()</text>
<text text-anchor="start" x="578" y="-564.5" font-family="Helvetica,sans-Serif" font-size="10.00">+ saveNode()</text>
<text text-anchor="start" x="578" y="-553.5" font-family="Helvetica,sans-Serif" font-size="10.00">+ operator&lt;()</text>
<text text-anchor="start" x="578" y="-542.5" font-family="Helvetica,sans-Serif" font-size="10.00">+ getBoundingRect()</text>
<text text-anchor="start" x="578" y="-531.5" font-family="Helvetica,sans-Serif" font-size="10.00">+ getLocalBounds()</text>
<text text-anchor="start" x="578" y="-520.5" font-family="Helvetica,sans-Serif" font-size="10.00">+ draw()</text>
<text text-anchor="start" x="578" y="-509.5" font-family="Helvetica,sans-Serif" font-size="10.00"># getClassName()</text>
<text text-anchor="start" x="578" y="-498.5" font-family="Helvetica,sans-Serif" font-size="10.00"># saveCurrentNode()</text>
<text text-anchor="start" x="578" y="-487.5" font-family="Helvetica,sans-Serif" font-size="10.00"># loadCurrentNode()</text>
<text text-anchor="start" x="578" y="-476.5" font-family="Helvetica,sans-Serif" font-size="10.00"># onLoadingFinished()</text>
<text text-anchor="start" x="578" y="-465.5" font-family="Helvetica,sans-Serif" font-size="10.00"># shouldSave()</text>
</a>
</g>
</g>
<!-- Node2&#45;&gt;Node1 -->
<g id="edge1" class="edge">
<title>Node2&#45;&gt;Node1</title>
<path fill="none" stroke="#63b8ff" d="M637.5,-447.28C637.5,-438.13 637.5,-429.38 637.5,-421.37"/>
<polygon fill="none" stroke="#63b8ff" points="634,-447.12 637.5,-457.12 641,-447.12 634,-447.12"/>
</g>
<!-- Node3 -->
<g id="node3" class="node">
<title>Node3</title>
<g id="a_node3"><a xlink:title=" ">
<polygon fill="white" stroke="#bfbfbf" points="492,-761.5 492,-818.5 569,-818.5 569,-761.5 492,-761.5"/>
<text text-anchor="middle" x="530.5" y="-806.5" font-family="Helvetica,sans-Serif" font-size="10.00">sf::Drawable</text>
<polyline fill="none" stroke="#bfbfbf" points="492,-799.5 569,-799.5"/>
<text text-anchor="middle" x="530.5" y="-787.5" font-family="Helvetica,sans-Serif" font-size="10.00"> </text>
<polyline fill="none" stroke="#bfbfbf" points="492,-780.5 569,-780.5"/>
<text text-anchor="middle" x="530.5" y="-768.5" font-family="Helvetica,sans-Serif" font-size="10.00"> </text>
</a>
</g>
</g>
<!-- Node3&#45;&gt;Node2 -->
<g id="edge2" class="edge">
<title>Node3&#45;&gt;Node2</title>
<path fill="none" stroke="#63b8ff" d="M550.82,-751.68C556.57,-741.13 563.15,-729.04 570.07,-716.33"/>
<polygon fill="none" stroke="#63b8ff" points="547.81,-749.89 546.1,-760.35 553.96,-753.24 547.81,-749.89"/>
</g>
<!-- Node4 -->
<g id="node4" class="node">
<title>Node4</title>
<g id="a_node4"><a xlink:title=" ">
<polygon fill="white" stroke="#bfbfbf" points="587,-761.5 587,-818.5 688,-818.5 688,-761.5 587,-761.5"/>
<text text-anchor="middle" x="637.5" y="-806.5" font-family="Helvetica,sans-Serif" font-size="10.00">sf::Transformable</text>
<polyline fill="none" stroke="#bfbfbf" points="587,-799.5 688,-799.5"/>
<text text-anchor="middle" x="637.5" y="-787.5" font-family="Helvetica,sans-Serif" font-size="10.00"> </text>
<polyline fill="none" stroke="#bfbfbf" points="587,-780.5 688,-780.5"/>
<text text-anchor="middle" x="637.5" y="-768.5" font-family="Helvetica,sans-Serif" font-size="10.00"> </text>
</a>
</g>
</g>
<!-- Node4&#45;&gt;Node2 -->
<g id="edge3" class="edge">
<title>Node4&#45;&gt;Node2</title>
<path fill="none" stroke="#63b8ff" d="M637.5,-750.31C637.5,-742.36 637.5,-733.58 637.5,-724.35"/>
<polygon fill="none" stroke="#63b8ff" points="634,-750.16 637.5,-760.16 641,-750.16 634,-750.16"/>
</g>
<!-- Node5 -->
<g id="node5" class="node">
<title>Node5</title>
<g id="a_node5"><a xlink:title=" ">
<polygon fill="white" stroke="#bfbfbf" points="706.5,-761.5 706.5,-818.5 802.5,-818.5 802.5,-761.5 706.5,-761.5"/>
<text text-anchor="middle" x="754.5" y="-806.5" font-family="Helvetica,sans-Serif" font-size="10.00">sf::NonCopyable</text>
<polyline fill="none" stroke="#bfbfbf" points="706.5,-799.5 802.5,-799.5"/>
<text text-anchor="middle" x="754.5" y="-787.5" font-family="Helvetica,sans-Serif" font-size="10.00"> </text>
<polyline fill="none" stroke="#bfbfbf" points="706.5,-780.5 802.5,-780.5"/>
<text text-anchor="middle" x="754.5" y="-768.5" font-family="Helvetica,sans-Serif" font-size="10.00"> </text>
</a>
</g>
</g>
<!-- Node5&#45;&gt;Node2 -->
<g id="edge4" class="edge">
<title>Node5&#45;&gt;Node2</title>
<path fill="none" stroke="#8b1a1a" d="M732.38,-751.86C724.32,-738.32 714.73,-722.21 704.8,-705.52"/>
<polygon fill="none" stroke="#8b1a1a" points="729.33,-753.58 737.46,-760.38 735.35,-749.99 729.33,-753.58"/>
</g>
<!-- Node7 -->
<g id="node7" class="node">
<title>Node7</title>
<g id="a_node7"><a xlink:href="classAnimal.html" target="_top" xlink:title=" ">
<polygon fill="white" stroke="#bfbfbf" points="18,-6 18,-118 125,-118 125,-6 18,-6"/>
<text text-anchor="middle" x="71.5" y="-106" font-family="Helvetica,sans-Serif" font-size="10.00">Animal</text>
<polyline fill="none" stroke="#bfbfbf" points="18,-99 125,-99"/>
<text text-anchor="middle" x="71.5" y="-87" font-family="Helvetica,sans-Serif" font-size="10.00"> </text>
<polyline fill="none" stroke="#bfbfbf" points="18,-80 125,-80"/>
<text text-anchor="start" x="26" y="-68" font-family="Helvetica,sans-Serif" font-size="10.00">+ getClassName()</text>
<text text-anchor="start" x="26" y="-57" font-family="Helvetica,sans-Serif" font-size="10.00">+ getCategory()</text>
<text text-anchor="start" x="26" y="-46" font-family="Helvetica,sans-Serif" font-size="10.00">+ Entity()</text>
<text text-anchor="start" x="26" y="-35" font-family="Helvetica,sans-Serif" font-size="10.00">+ Entity()</text>
<text text-anchor="start" x="26" y="-24" font-family="Helvetica,sans-Serif" font-size="10.00">+ Entity()</text>
<text text-anchor="start" x="26" y="-13" font-family="Helvetica,sans-Serif" font-size="10.00">+ Entity()</text>
</a>
</g>
</g>
<!-- Node6&#45;&gt;Node7 -->
<g id="edge6" class="edge">
<title>Node6&#45;&gt;Node7</title>
<path fill="none" stroke="#63b8ff" d="M71.5,-176.67C71.5,-158.06 71.5,-136.84 71.5,-117.81"/>
<polygon fill="none" stroke="#63b8ff" points="68,-176.65 71.5,-186.65 75,-176.65 68,-176.65"/>
</g>
<!-- Node8 -->
<g id="node8" class="node">
<title>Node8</title>
<g id="a_node8"><a xlink:href="classVehicle.html" target="_top" xlink:title=" ">
<polygon fill="white" stroke="#bfbfbf" points="224.5,-0.5 224.5,-123.5 338.5,-123.5 338.5,-0.5 224.5,-0.5"/>
<text text-anchor="middle" x="281.5" y="-111.5" font-family="Helvetica,sans-Serif" font-size="10.00">Vehicle</text>
<polyline fill="none" stroke="#bfbfbf" points="224.5,-104.5 338.5,-104.5"/>
<text text-anchor="middle" x="281.5" y="-92.5" font-family="Helvetica,sans-Serif" font-size="10.00"> </text>
<polyline fill="none" stroke="#bfbfbf" points="224.5,-85.5 338.5,-85.5"/>
<text text-anchor="start" x="232.5" y="-73.5" font-family="Helvetica,sans-Serif" font-size="10.00">+ onLightChanged()</text>
<text text-anchor="start" x="232.5" y="-62.5" font-family="Helvetica,sans-Serif" font-size="10.00">+ getCategory()</text>
<text text-anchor="start" x="232.5" y="-51.5" font-family="Helvetica,sans-Serif" font-size="10.00">+ getClassName()</text>
<text text-anchor="start" x="232.5" y="-40.5" font-family="Helvetica,sans-Serif" font-size="10.00">+ Entity()</text>
<text text-anchor="start" x="232.5" y="-29.5" font-family="Helvetica,sans-Serif" font-size="10.00">+ Entity()</text>
<text text-anchor="start" x="232.5" y="-18.5" font-family="Helvetica,sans-Serif" font-size="10.00">+ Entity()</text>
<text text-anchor="start" x="232.5" y="-7.5" font-family="Helvetica,sans-Serif" font-size="10.00">+ Entity()</text>
</a>
</g>
</g>
<!-- Node6&#45;&gt;Node8 -->
<g id="edge7" class="edge">
<title>Node6&#45;&gt;Node8</title>
<path fill="none" stroke="#63b8ff" d="M125.68,-180.82C134.26,-173.77 143.08,-166.64 151.5,-160 175.17,-141.35 201.76,-121.35 224.7,-104.38"/>
<polygon fill="none" stroke="#63b8ff" points="123.5,-178.07 118.02,-187.14 127.96,-183.47 123.5,-178.07"/>
</g>
<!-- Node11&#45;&gt;Node8 -->
<g id="edge12" class="edge">
<title>Node11&#45;&gt;Node8</title>
<path fill="none" stroke="#63b8ff" d="M435.83,-181.14C427.07,-174.01 418.07,-166.76 409.5,-160 386.41,-141.78 360.61,-122.1 338.26,-105.27"/>
<polygon fill="none" stroke="#63b8ff" points="433.36,-183.63 443.32,-187.25 437.79,-178.21 433.36,-183.63"/>
</g>
<!-- Node12 -->
<g id="node12" class="node">
<title>Node12</title>
<g id="a_node12"><a xlink:href="classRock.html" target="_top" xlink:title=" ">
<polygon fill="white" stroke="#bfbfbf" points="437,-17 437,-107 544,-107 544,-17 437,-17"/>
<text text-anchor="middle" x="490.5" y="-95" font-family="Helvetica,sans-Serif" font-size="10.00">Rock</text>
<polyline fill="none" stroke="#bfbfbf" points="437,-88 544,-88"/>
<text text-anchor="middle" x="490.5" y="-76" font-family="Helvetica,sans-Serif" font-size="10.00"> </text>
<polyline fill="none" stroke="#bfbfbf" points="437,-69 544,-69"/>
<text text-anchor="start" x="445" y="-57" font-family="Helvetica,sans-Serif" font-size="10.00">+ Rock()</text>
<text text-anchor="start" x="445" y="-46" font-family="Helvetica,sans-Serif" font-size="10.00">+ getCategory()</text>
<text text-anchor="start" x="445" y="-35" font-family="Helvetica,sans-Serif" font-size="10.00">+ getClassName()</text>
<text text-anchor="start" x="445" y="-24" font-family="Helvetica,sans-Serif" font-size="10.00">+ shouldSave()</text>
</a>
</g>
</g>
<!-- Node11&#45;&gt;Node12 -->
<g id="edge11" class="edge">
<title>Node11&#45;&gt;Node12</title>
<path fill="none" stroke="#63b8ff" d="M490.5,-176.89C490.5,-154.57 490.5,-128.46 490.5,-106.87"/>
<polygon fill="none" stroke="#63b8ff" points="487,-176.65 490.5,-186.65 494,-176.65 487,-176.65"/>
</g>
</g>
</svg>
