<?xml version="1.0" encoding="UTF-8" standalone="no"?>
<!DOCTYPE svg PUBLIC "-//W3C//DTD SVG 1.1//EN"
 "http://www.w3.org/Graphics/SVG/1.1/DTD/svg11.dtd">
<!-- Generated by graphviz version 7.0.5 (0)
 -->
<!-- Title: Camera Pages: 1 -->
<svg width="1332pt" height="2167pt"
 viewBox="0.00 0.00 1332.00 2167.00" xmlns="http://www.w3.org/2000/svg" xmlns:xlink="http://www.w3.org/1999/xlink">
<g id="graph0" class="graph" transform="scale(1 1) rotate(0) translate(4 2163)">
<title>Camera</title>
<!-- Node1 -->
<g id="node1" class="node">
<title>Node1</title>
<g id="a_node1"><a xlink:title=" ">
<polygon fill="#999999" stroke="#666666" points="544,-239 146,-239 146,0 544,0 544,-239"/>
<text text-anchor="middle" x="345" y="-227" font-family="Helvetica,sans-Serif" font-size="10.00">{Camera</text>
<text text-anchor="start" x="154" y="-216" font-family="Helvetica,sans-Serif" font-size="10.00">|&#45; sf::Vector2f balancePos</text>
<text text-anchor="start" x="154" y="-205" font-family="Helvetica,sans-Serif" font-size="10.00">&#45; sf::Vector2f velocity</text>
<text text-anchor="start" x="154" y="-194" font-family="Helvetica,sans-Serif" font-size="10.00">&#45; sf::Vector2f futurePos</text>
<text text-anchor="start" x="154" y="-183" font-family="Helvetica,sans-Serif" font-size="10.00">&#45; bool isTransitioning</text>
<text text-anchor="start" x="154" y="-172" font-family="Helvetica,sans-Serif" font-size="10.00">&#45; sf::Time transitionTime</text>
<text text-anchor="start" x="154" y="-161" font-family="Helvetica,sans-Serif" font-size="10.00">&#45; sf::RenderWindow &amp; window</text>
<text text-anchor="start" x="154" y="-150" font-family="Helvetica,sans-Serif" font-size="10.00">&#45; bool isShaking</text>
<text text-anchor="start" x="154" y="-139" font-family="Helvetica,sans-Serif" font-size="10.00">&#45; sf::Time shakeTime</text>
<text text-anchor="start" x="154" y="-128" font-family="Helvetica,sans-Serif" font-size="10.00">|+ &#160;Camera(SceneNode &amp;follower, sf::RenderWindow &amp;window, World &amp;world)</text>
<text text-anchor="start" x="154" y="-117" font-family="Helvetica,sans-Serif" font-size="10.00">+ &#160;~Camera()</text>
<text text-anchor="start" x="154" y="-106" font-family="Helvetica,sans-Serif" font-size="10.00">+ void save(std::ostream &amp;out)</text>
<text text-anchor="start" x="154" y="-95" font-family="Helvetica,sans-Serif" font-size="10.00">+ void load(std::istream &amp;in)</text>
<text text-anchor="start" x="154" y="-84" font-family="Helvetica,sans-Serif" font-size="10.00">+ void update(sf::Time dt)</text>
<text text-anchor="start" x="154" y="-73" font-family="Helvetica,sans-Serif" font-size="10.00">+ void shake(sf::Time duration, float intensity)</text>
<text text-anchor="start" x="154" y="-62" font-family="Helvetica,sans-Serif" font-size="10.00">+ bool checkIsTransistioning()</text>
<text text-anchor="start" x="154" y="-51" font-family="Helvetica,sans-Serif" font-size="10.00">&#45; bool needReposition()</text>
<text text-anchor="start" x="154" y="-40" font-family="Helvetica,sans-Serif" font-size="10.00">&#45; void reposition()</text>
<text text-anchor="start" x="154" y="-29" font-family="Helvetica,sans-Serif" font-size="10.00">&#45; void updateVelocity(sf::Time dt)</text>
<text text-anchor="start" x="154" y="-18" font-family="Helvetica,sans-Serif" font-size="10.00">&#45; void shakingUpdate(sf::Time dt)</text>
<text text-anchor="middle" x="345" y="-7" font-family="Helvetica,sans-Serif" font-size="10.00">}</text>
</a>
</g>
</g>
<!-- Node2 -->
<g id="node2" class="node">
<title>Node2</title>
<g id="a_node2"><a xlink:href="classSceneNode.html" target="_top" xlink:title="A node in the scene graph.">
<polygon fill="white" stroke="#666666" points="446,-1868 36,-1868 36,-1541 446,-1541 446,-1868"/>
<text text-anchor="middle" x="241" y="-1856" font-family="Helvetica,sans-Serif" font-size="10.00">{SceneNode</text>
<text text-anchor="start" x="44" y="-1845" font-family="Helvetica,sans-Serif" font-size="10.00">|&#45; int idx</text>
<text text-anchor="start" x="44" y="-1834" font-family="Helvetica,sans-Serif" font-size="10.00">&#45; bool debug</text>
<text text-anchor="start" x="44" y="-1823" font-family="Helvetica,sans-Serif" font-size="10.00">&#45; bool applyDebugToChildren</text>
<text text-anchor="start" x="44" y="-1812" font-family="Helvetica,sans-Serif" font-size="10.00">|+ &#160;SceneNode()</text>
<text text-anchor="start" x="44" y="-1801" font-family="Helvetica,sans-Serif" font-size="10.00">+ virtual void attachChild(Ptr child)</text>
<text text-anchor="start" x="44" y="-1790" font-family="Helvetica,sans-Serif" font-size="10.00">+ virtual Ptr detachChild(const SceneNode &amp;child)</text>
<text text-anchor="start" x="44" y="-1779" font-family="Helvetica,sans-Serif" font-size="10.00">+ virtual void update(sf::Time dt)</text>
<text text-anchor="start" x="44" y="-1768" font-family="Helvetica,sans-Serif" font-size="10.00">+ sf::Transform getAbsTransform() const</text>
<text text-anchor="start" x="44" y="-1757" font-family="Helvetica,sans-Serif" font-size="10.00">+ sf::Vector2f getAbsPosition() const</text>
<text text-anchor="start" x="44" y="-1746" font-family="Helvetica,sans-Serif" font-size="10.00">+ void checkNodeCollision(SceneNode &amp;node, std::set&lt; Pair &gt; &amp;collisions)</text>
<text text-anchor="start" x="44" y="-1735" font-family="Helvetica,sans-Serif" font-size="10.00">+ void checkSceneCollision(SceneNode &amp;node, std::set&lt; Pair &gt; &amp;collisions)</text>
<text text-anchor="start" x="44" y="-1724" font-family="Helvetica,sans-Serif" font-size="10.00">+ void setDebug(bool on, bool recursive=false)</text>
<text text-anchor="start" x="44" y="-1713" font-family="Helvetica,sans-Serif" font-size="10.00">+ virtual Category::Type getCategory() const</text>
<text text-anchor="start" x="44" y="-1702" font-family="Helvetica,sans-Serif" font-size="10.00">+ virtual void saveNode(std::ostream &amp;out) const</text>
<text text-anchor="start" x="44" y="-1691" font-family="Helvetica,sans-Serif" font-size="10.00">+ bool operator&lt;(SceneNode const &amp;other) const</text>
<text text-anchor="start" x="44" y="-1680" font-family="Helvetica,sans-Serif" font-size="10.00">+ virtual sf::FloatRect getBoundingRect() const</text>
<text text-anchor="start" x="44" y="-1669" font-family="Helvetica,sans-Serif" font-size="10.00">+ virtual sf::FloatRect getLocalBounds() const</text>
<text text-anchor="start" x="44" y="-1658" font-family="Helvetica,sans-Serif" font-size="10.00">+ virtual void draw(sf::RenderTarget &amp;target, sf::RenderStates state) const</text>
<text text-anchor="start" x="44" y="-1647" font-family="Helvetica,sans-Serif" font-size="10.00"># virtual std::string getClassName() const</text>
<text text-anchor="start" x="44" y="-1636" font-family="Helvetica,sans-Serif" font-size="10.00"># virtual void saveCurrentNode(std::ostream &amp;out=std::cout) const</text>
<text text-anchor="start" x="44" y="-1625" font-family="Helvetica,sans-Serif" font-size="10.00"># virtual void loadCurrentNode(std::istream &amp;in=std::cin)</text>
<text text-anchor="start" x="44" y="-1614" font-family="Helvetica,sans-Serif" font-size="10.00"># virtual void onLoadingFinished()</text>
<text text-anchor="start" x="44" y="-1603" font-family="Helvetica,sans-Serif" font-size="10.00"># virtual bool shouldSave() const</text>
<text text-anchor="start" x="44" y="-1592" font-family="Helvetica,sans-Serif" font-size="10.00">&#45; void drawBoundingBox(sf::RenderTarget &amp;target, sf::RenderStates states) const</text>
<text text-anchor="start" x="44" y="-1581" font-family="Helvetica,sans-Serif" font-size="10.00">&#45; virtual void drawCurrent(sf::RenderTarget &amp;target, sf::RenderStates state) const</text>
<text text-anchor="start" x="44" y="-1570" font-family="Helvetica,sans-Serif" font-size="10.00">&#45; virtual void updateCurrent(sf::Time dt)</text>
<text text-anchor="start" x="44" y="-1559" font-family="Helvetica,sans-Serif" font-size="10.00">&#45; void updateChildren(sf::Time dt)</text>
<text text-anchor="middle" x="241" y="-1548" font-family="Helvetica,sans-Serif" font-size="10.00">}</text>
</a>
</g>
</g>
<!-- Node2&#45;&gt;Node1 -->
<g id="edge1" class="edge">
<title>Node2&#45;&gt;Node1</title>
<path fill="none" stroke="#404040" d="M60.9,-1540.6C49.42,-1525.61 38.92,-1510.01 30,-1494 1.25,-1442.39 0,-1423.58 0,-1364.5 0,-1364.5 0,-1364.5 0,-300 0,-226.61 62.2,-183.18 133.78,-157.5"/>
<polygon fill="none" stroke="#404040" points="133.61,-157.56 137.99,-151.83 144.96,-153.67 140.58,-159.4 133.61,-157.56"/>
<text text-anchor="middle" x="23.5" y="-624" font-family="Helvetica,sans-Serif" font-size="10.00"> &#45;follower</text>
</g>
<!-- Node2&#45;&gt;Node2 -->
<g id="edge10" class="edge">
<title>Node2&#45;&gt;Node2</title>
<path fill="none" stroke="#404040" d="M446.25,-1727.84C457.39,-1722.14 464,-1714.36 464,-1704.5 464,-1698.34 461.42,-1692.99 456.76,-1688.45"/>
<polygon fill="none" stroke="#404040" points="456.85,-1688.51 449.64,-1688.38 446.99,-1681.67 454.2,-1681.8 456.85,-1688.51"/>
<text text-anchor="middle" x="488" y="-1702" font-family="Helvetica,sans-Serif" font-size="10.00"> &#45;mParent</text>
</g>
<!-- Node10 -->
<g id="node10" class="node">
<title>Node10</title>
<g id="a_node10"><a xlink:href="classWorld.html" target="_top" xlink:title=" ">
<polygon fill="white" stroke="#666666" points="559.5,-746 130.5,-746 130.5,-507 559.5,-507 559.5,-746"/>
<text text-anchor="middle" x="345" y="-734" font-family="Helvetica,sans-Serif" font-size="10.00">{World</text>
<text text-anchor="start" x="138.5" y="-723" font-family="Helvetica,sans-Serif" font-size="10.00">|&#45; int currentLevelNumber</text>
<text text-anchor="start" x="138.5" y="-712" font-family="Helvetica,sans-Serif" font-size="10.00">&#45; sf::Vector2f sceneSize</text>
<text text-anchor="start" x="138.5" y="-701" font-family="Helvetica,sans-Serif" font-size="10.00">&#45; bool levelTransitioning</text>
<text text-anchor="start" x="138.5" y="-690" font-family="Helvetica,sans-Serif" font-size="10.00">&#45; bool outOfView</text>
<text text-anchor="start" x="138.5" y="-679" font-family="Helvetica,sans-Serif" font-size="10.00">|+ &#160;World()=default</text>
<text text-anchor="start" x="138.5" y="-668" font-family="Helvetica,sans-Serif" font-size="10.00">+ &#160;World(sf::Vector2f sceneSize)</text>
<text text-anchor="start" x="138.5" y="-657" font-family="Helvetica,sans-Serif" font-size="10.00">+ void init()</text>
<text text-anchor="start" x="138.5" y="-646" font-family="Helvetica,sans-Serif" font-size="10.00">+ void addNewLevel()</text>
<text text-anchor="start" x="138.5" y="-635" font-family="Helvetica,sans-Serif" font-size="10.00">+ void updateCurrent(sf::Time dt) override</text>
<text text-anchor="start" x="138.5" y="-624" font-family="Helvetica,sans-Serif" font-size="10.00">+ Level * getCurrentLevel() const</text>
<text text-anchor="start" x="138.5" y="-613" font-family="Helvetica,sans-Serif" font-size="10.00">+ void drawCurrent(sf::RenderTarget &amp;target, sf::RenderStates states) const override</text>
<text text-anchor="start" x="138.5" y="-602" font-family="Helvetica,sans-Serif" font-size="10.00">+ void loadCurrentNode(std::istream &amp;in=std::cin) override</text>
<text text-anchor="start" x="138.5" y="-591" font-family="Helvetica,sans-Serif" font-size="10.00">+ void saveCurrentNode(std::ostream &amp;out=std::cout) const override</text>
<text text-anchor="start" x="138.5" y="-580" font-family="Helvetica,sans-Serif" font-size="10.00">+ void attachChild(Ptr child) override</text>
<text text-anchor="start" x="138.5" y="-569" font-family="Helvetica,sans-Serif" font-size="10.00">+ std::string getClassName() const override</text>
<text text-anchor="start" x="138.5" y="-558" font-family="Helvetica,sans-Serif" font-size="10.00">&#45; sf::Vector2f worldCoordToRealCoord(sf::Vector2i worldCoord)</text>
<text text-anchor="start" x="138.5" y="-547" font-family="Helvetica,sans-Serif" font-size="10.00">&#45; sf::Vector2i realCoordToWorldCoord(sf::Vector2f realCoord)</text>
<text text-anchor="start" x="138.5" y="-536" font-family="Helvetica,sans-Serif" font-size="10.00">&#45; void makeLevelTransition()</text>
<text text-anchor="start" x="138.5" y="-525" font-family="Helvetica,sans-Serif" font-size="10.00">&#45; bool shouldSave() const override</text>
<text text-anchor="middle" x="345" y="-514" font-family="Helvetica,sans-Serif" font-size="10.00">}</text>
</a>
</g>
</g>
<!-- Node2&#45;&gt;Node10 -->
<g id="edge12" class="edge">
<title>Node2&#45;&gt;Node10</title>
<path fill="none" stroke="#63b8ff" d="M413.19,-1530.99C420.08,-1519.01 426.12,-1506.65 431,-1494 472.76,-1385.78 476.69,-1339.62 431,-1233 420.85,-1209.31 408.84,-1209.46 389,-1193 378.46,-1184.26 370.45,-1187.08 364,-1175 325.82,-1103.54 330.04,-884.69 337.14,-746.29"/>
<polygon fill="none" stroke="#63b8ff" points="410.39,-1528.85 408.26,-1539.22 416.4,-1532.44 410.39,-1528.85"/>
</g>
<!-- Node2&#45;&gt;Node10 -->
<g id="edge13" class="edge">
<title>Node2&#45;&gt;Node10</title>
<path fill="none" stroke="#404040" d="M80.12,-1540.76C70.98,-1525.73 63.06,-1510.08 57,-1494 16.1,-1385.45 35.85,-1347.06 57,-1233 95.2,-1027.03 126.48,-977.33 226,-793 232.44,-781.08 239.61,-769.02 247.15,-757.14"/>
<polygon fill="none" stroke="#404040" points="247.17,-757.11 247.07,-749.9 253.69,-747.04 253.79,-754.25 247.17,-757.11"/>
<text text-anchor="middle" x="91.5" y="-1207" font-family="Helvetica,sans-Serif" font-size="10.00"> &#45;gridLayer</text>
<text text-anchor="middle" x="91.5" y="-1196" font-family="Helvetica,sans-Serif" font-size="10.00">&#45;levelLayer</text>
</g>
<!-- Node12 -->
<g id="node12" class="node">
<title>Node12</title>
<g id="a_node12"><a xlink:href="classEntity.html" target="_top" xlink:title=" ">
<polygon fill="white" stroke="#666666" points="1185.5,-1494 560.5,-1494 560.5,-1233 1185.5,-1233 1185.5,-1494"/>
<text text-anchor="middle" x="873" y="-1482" font-family="Helvetica,sans-Serif" font-size="10.00">{Entity</text>
<text text-anchor="start" x="568.5" y="-1471" font-family="Helvetica,sans-Serif" font-size="10.00">|# sf::Vector2f velocity</text>
<text text-anchor="start" x="568.5" y="-1460" font-family="Helvetica,sans-Serif" font-size="10.00"># sf::FloatRect localBounds</text>
<text text-anchor="start" x="568.5" y="-1449" font-family="Helvetica,sans-Serif" font-size="10.00"># sf::FloatRect spriteBounds</text>
<text text-anchor="start" x="568.5" y="-1438" font-family="Helvetica,sans-Serif" font-size="10.00">|+ &#160;Entity()</text>
<text text-anchor="start" x="568.5" y="-1427" font-family="Helvetica,sans-Serif" font-size="10.00">+ &#160;Entity(Texture::ID texture, sf::Vector2f velocity, sf::Time animationDuration=DEF_ANIMATION_DURATION, bool loop=true)</text>
<text text-anchor="start" x="568.5" y="-1416" font-family="Helvetica,sans-Serif" font-size="10.00">+ &#160;Entity(Texture::ID texture, sf::Vector2f position, sf::Vector2f size, sf::Vector2f velocity, sf::Time</text>
<text text-anchor="start" x="568.5" y="-1405" font-family="Helvetica,sans-Serif" font-size="10.00"> animationDuration=DEF_ANIMATION_DURATION, bool loop=true)</text>
<text text-anchor="start" x="568.5" y="-1394" font-family="Helvetica,sans-Serif" font-size="10.00">+ &#160;Entity(Texture::ID texture, sf::FloatRect boundRect, sf::Vector2f velocity, sf::Time animationDuration</text>
<text text-anchor="start" x="568.5" y="-1383" font-family="Helvetica,sans-Serif" font-size="10.00">=DEF_ANIMATION_DURATION, bool loop=true)</text>
<text text-anchor="start" x="568.5" y="-1372" font-family="Helvetica,sans-Serif" font-size="10.00">+ sf::Vector2f getVelocity() const</text>
<text text-anchor="start" x="568.5" y="-1361" font-family="Helvetica,sans-Serif" font-size="10.00">+ void setVelocity(sf::Vector2f velocity)</text>
<text text-anchor="start" x="568.5" y="-1350" font-family="Helvetica,sans-Serif" font-size="10.00">+ sf::FloatRect getLocalBounds() const override</text>
<text text-anchor="start" x="568.5" y="-1339" font-family="Helvetica,sans-Serif" font-size="10.00">+ sf::FloatRect getSpriteBounds() const</text>
<text text-anchor="start" x="568.5" y="-1328" font-family="Helvetica,sans-Serif" font-size="10.00">+ void adjustSpriteBounds(float offX, float offY)</text>
<text text-anchor="start" x="568.5" y="-1317" font-family="Helvetica,sans-Serif" font-size="10.00">+ void adjustBounds(float offX, float offY, float cropWidth, float cropHeight)</text>
<text text-anchor="start" x="568.5" y="-1306" font-family="Helvetica,sans-Serif" font-size="10.00">+ std::string getClassName() const override</text>
<text text-anchor="start" x="568.5" y="-1295" font-family="Helvetica,sans-Serif" font-size="10.00">+ void saveCurrentNode(std::ostream &amp;out=std::cout) const override</text>
<text text-anchor="start" x="568.5" y="-1284" font-family="Helvetica,sans-Serif" font-size="10.00">+ void loadCurrentNode(std::istream &amp;in=std::cin) override</text>
<text text-anchor="start" x="568.5" y="-1273" font-family="Helvetica,sans-Serif" font-size="10.00"># void drawCurrent(sf::RenderTarget &amp;target, sf::RenderStates state) const override</text>
<text text-anchor="start" x="568.5" y="-1262" font-family="Helvetica,sans-Serif" font-size="10.00"># void updateCurrent(sf::Time dt) override</text>
<text text-anchor="start" x="568.5" y="-1251" font-family="Helvetica,sans-Serif" font-size="10.00"># virtual bool shouldSave() const override</text>
<text text-anchor="middle" x="873" y="-1240" font-family="Helvetica,sans-Serif" font-size="10.00">}</text>
</a>
</g>
</g>
<!-- Node2&#45;&gt;Node12 -->
<g id="edge16" class="edge">
<title>Node2&#45;&gt;Node12</title>
<path fill="none" stroke="#63b8ff" d="M456.26,-1579.33C479.71,-1566.23 503.3,-1553.24 526,-1541 554.41,-1525.69 584.29,-1509.95 614.11,-1494.47"/>
<polygon fill="none" stroke="#63b8ff" points="454.56,-1576.27 447.54,-1584.21 457.98,-1582.38 454.56,-1576.27"/>
</g>
<!-- Node17 -->
<g id="node17" class="node">
<title>Node17</title>
<g id="a_node17"><a xlink:href="classLevel.html" target="_top" xlink:title=" ">
<polygon fill="white" stroke="#666666" points="421.5,-1406 66.5,-1406 66.5,-1321 421.5,-1321 421.5,-1406"/>
<text text-anchor="middle" x="244" y="-1394" font-family="Helvetica,sans-Serif" font-size="10.00">{Level</text>
<text text-anchor="start" x="74.5" y="-1383" font-family="Helvetica,sans-Serif" font-size="10.00">||+ void removeObject(const SceneNode &amp;object)</text>
<text text-anchor="start" x="74.5" y="-1372" font-family="Helvetica,sans-Serif" font-size="10.00">+ void loadCurrentNode(std::istream &amp;in=std::cin) override</text>
<text text-anchor="start" x="74.5" y="-1361" font-family="Helvetica,sans-Serif" font-size="10.00">+ void saveCurrentNode(std::ostream &amp;out=std::cout) const override</text>
<text text-anchor="start" x="74.5" y="-1350" font-family="Helvetica,sans-Serif" font-size="10.00">+ std::string getClassName() const override</text>
<text text-anchor="start" x="74.5" y="-1339" font-family="Helvetica,sans-Serif" font-size="10.00">&#45; bool shouldSave() const override</text>
<text text-anchor="middle" x="244" y="-1328" font-family="Helvetica,sans-Serif" font-size="10.00">}</text>
</a>
</g>
</g>
<!-- Node2&#45;&gt;Node17 -->
<g id="edge24" class="edge">
<title>Node2&#45;&gt;Node17</title>
<path fill="none" stroke="#63b8ff" d="M242.54,-1529.57C242.95,-1483.55 243.35,-1437.97 243.63,-1406.4"/>
<polygon fill="none" stroke="#63b8ff" points="239.04,-1529.41 242.45,-1539.44 246.04,-1529.47 239.04,-1529.41"/>
</g>
<!-- Node21 -->
<g id="node21" class="node">
<title>Node21</title>
<g id="a_node21"><a xlink:href="classPlayerCollidable.html" target="_top" xlink:title=" ">
<polygon fill="white" stroke="#666666" points="803,-680 579,-680 579,-573 803,-573 803,-680"/>
<text text-anchor="middle" x="691" y="-668" font-family="Helvetica,sans-Serif" font-size="10.00">{PlayerCollidable</text>
<text text-anchor="start" x="587" y="-657" font-family="Helvetica,sans-Serif" font-size="10.00">|# bool isCollidingWithPlayer</text>
<text text-anchor="start" x="587" y="-646" font-family="Helvetica,sans-Serif" font-size="10.00">|+ void onPlayerCollision(Player &amp;player)</text>
<text text-anchor="start" x="587" y="-635" font-family="Helvetica,sans-Serif" font-size="10.00">+ void updateCurrent(sf::Time dt) override</text>
<text text-anchor="start" x="587" y="-624" font-family="Helvetica,sans-Serif" font-size="10.00">+ &#160;SceneNode()</text>
<text text-anchor="start" x="587" y="-613" font-family="Helvetica,sans-Serif" font-size="10.00">&#45; virtual void onStartPlayerCollision()</text>
<text text-anchor="start" x="587" y="-602" font-family="Helvetica,sans-Serif" font-size="10.00">&#45; virtual void onRepeatPlayerCollision()</text>
<text text-anchor="start" x="587" y="-591" font-family="Helvetica,sans-Serif" font-size="10.00">&#45; virtual void onEndPlayerCollision()</text>
<text text-anchor="middle" x="691" y="-580" font-family="Helvetica,sans-Serif" font-size="10.00">}</text>
</a>
</g>
</g>
<!-- Node2&#45;&gt;Node21 -->
<g id="edge31" class="edge">
<title>Node2&#45;&gt;Node21</title>
<path fill="none" stroke="#63b8ff" d="M439.54,-1531.56C447.66,-1519.47 454.92,-1506.93 461,-1494 600.23,-1197.92 412.32,-1057.94 556,-764 561.09,-753.59 600.45,-714.25 635.37,-680.45"/>
<polygon fill="none" stroke="#63b8ff" points="436.88,-1529.26 434.04,-1539.47 442.62,-1533.26 436.88,-1529.26"/>
</g>
<!-- Node3 -->
<g id="node3" class="node">
<title>Node3</title>
<g id="a_node3"><a xlink:title=" ">
<polygon fill="white" stroke="#666666" points="274.5,-1975 191.5,-1975 191.5,-1945 274.5,-1945 274.5,-1975"/>
<text text-anchor="middle" x="233" y="-1963" font-family="Helvetica,sans-Serif" font-size="10.00">{sf::Drawable</text>
<text text-anchor="middle" x="233" y="-1952" font-family="Helvetica,sans-Serif" font-size="10.00">||}</text>
</a>
</g>
</g>
<!-- Node3&#45;&gt;Node2 -->
<g id="edge2" class="edge">
<title>Node3&#45;&gt;Node2</title>
<path fill="none" stroke="#63b8ff" d="M233.81,-1933.33C234.33,-1916.77 235.06,-1893.67 235.86,-1868.48"/>
<polygon fill="none" stroke="#63b8ff" points="230.32,-1933.03 233.5,-1943.13 237.31,-1933.25 230.32,-1933.03"/>
</g>
<!-- Node4 -->
<g id="node4" class="node">
<title>Node4</title>
<g id="a_node4"><a xlink:title=" ">
<polygon fill="white" stroke="#666666" points="399.5,-1975 292.5,-1975 292.5,-1945 399.5,-1945 399.5,-1975"/>
<text text-anchor="middle" x="346" y="-1963" font-family="Helvetica,sans-Serif" font-size="10.00">{sf::Transformable</text>
<text text-anchor="middle" x="346" y="-1952" font-family="Helvetica,sans-Serif" font-size="10.00">||}</text>
</a>
</g>
</g>
<!-- Node4&#45;&gt;Node2 -->
<g id="edge3" class="edge">
<title>Node4&#45;&gt;Node2</title>
<path fill="none" stroke="#63b8ff" d="M335.77,-1934.3C328.88,-1917.67 319.14,-1894.16 308.51,-1868.48"/>
<polygon fill="none" stroke="#63b8ff" points="332.41,-1935.35 339.47,-1943.25 338.88,-1932.67 332.41,-1935.35"/>
</g>
<!-- Node5 -->
<g id="node5" class="node">
<title>Node5</title>
<g id="a_node5"><a xlink:title=" ">
<polygon fill="white" stroke="#666666" points="520,-1975 418,-1975 418,-1945 520,-1945 520,-1975"/>
<text text-anchor="middle" x="469" y="-1963" font-family="Helvetica,sans-Serif" font-size="10.00">{sf::NonCopyable</text>
<text text-anchor="middle" x="469" y="-1952" font-family="Helvetica,sans-Serif" font-size="10.00">||}</text>
</a>
</g>
</g>
<!-- Node5&#45;&gt;Node2 -->
<g id="edge4" class="edge">
<title>Node5&#45;&gt;Node2</title>
<path fill="none" stroke="#8b1a1a" d="M448.48,-1936.18C433.45,-1919.48 411.57,-1895.15 387.59,-1868.48"/>
<polygon fill="none" stroke="#8b1a1a" points="445.79,-1938.42 455.08,-1943.52 450.99,-1933.74 445.79,-1938.42"/>
</g>
<!-- Node6 -->
<g id="node6" class="node">
<title>Node6</title>
<g id="a_node6"><a xlink:title=" ">
<polygon fill="white" stroke="#666666" points="173,-1975 63,-1975 63,-1945 173,-1945 173,-1975"/>
<text text-anchor="middle" x="118" y="-1963" font-family="Helvetica,sans-Serif" font-size="10.00">{std::vector&lt; Ptr &gt;</text>
<text text-anchor="middle" x="118" y="-1952" font-family="Helvetica,sans-Serif" font-size="10.00">||}</text>
</a>
</g>
</g>
<!-- Node6&#45;&gt;Node2 -->
<g id="edge5" class="edge">
<title>Node6&#45;&gt;Node2</title>
<path fill="none" stroke="#404040" d="M124.97,-1944.64C131.86,-1930.44 143.24,-1906.98 156.25,-1880.16"/>
<polygon fill="none" stroke="#404040" points="156.29,-1880.09 155.31,-1872.95 161.53,-1869.3 162.5,-1876.44 156.29,-1880.09"/>
<text text-anchor="middle" x="180" y="-1904" font-family="Helvetica,sans-Serif" font-size="10.00"> &#45;mChildren</text>
</g>
<!-- Node7 -->
<g id="node7" class="node">
<title>Node7</title>
<g id="a_node7"><a xlink:title=" ">
<polygon fill="white" stroke="#666666" points="512,-2082 388,-2082 388,-2041 512,-2041 512,-2082"/>
<text text-anchor="middle" x="450" y="-2070" font-family="Helvetica,sans-Serif" font-size="10.00">{std::unique_ptr&lt; T &gt;</text>
<text text-anchor="start" x="396" y="-2059" font-family="Helvetica,sans-Serif" font-size="10.00">||+ T * operator&#45;&gt;()</text>
<text text-anchor="middle" x="450" y="-2048" font-family="Helvetica,sans-Serif" font-size="10.00">}</text>
</a>
</g>
</g>
<!-- Node7&#45;&gt;Node6 -->
<g id="edge6" class="edge">
<title>Node7&#45;&gt;Node6</title>
<path fill="none" stroke="#404040" d="M387.55,-2041.78C327.58,-2023.81 237.58,-1996.84 178.33,-1979.08"/>
<polygon fill="none" stroke="#404040" points="178.53,-1979.14 171.63,-1981.25 167.03,-1975.7 173.93,-1973.59 178.53,-1979.14"/>
<text text-anchor="middle" x="353" y="-2005.5" font-family="Helvetica,sans-Serif" font-size="10.00"> +elements</text>
</g>
<!-- Node8 -->
<g id="node8" class="node">
<title>Node8</title>
<g id="a_node8"><a xlink:title=" ">
<polygon fill="white" stroke="#666666" points="562.5,-2159 533.5,-2159 533.5,-2129 562.5,-2129 562.5,-2159"/>
<text text-anchor="middle" x="548" y="-2147" font-family="Helvetica,sans-Serif" font-size="10.00">{T</text>
<text text-anchor="middle" x="548" y="-2136" font-family="Helvetica,sans-Serif" font-size="10.00">||}</text>
</a>
</g>
</g>
<!-- Node8&#45;&gt;Node7 -->
<g id="edge7" class="edge">
<title>Node8&#45;&gt;Node7</title>
<path fill="none" stroke="#404040" d="M533.16,-2133.78C523.69,-2127.69 511.29,-2119.31 501,-2111 493.42,-2104.88 485.61,-2097.87 478.45,-2091.11"/>
<polygon fill="none" stroke="#404040" points="478.46,-2091.12 471.37,-2089.83 469.83,-2082.79 476.92,-2084.08 478.46,-2091.12"/>
<text text-anchor="middle" x="513.5" y="-2103" font-family="Helvetica,sans-Serif" font-size="10.00"> +ptr</text>
</g>
<!-- Node9 -->
<g id="node9" class="node">
<title>Node9</title>
<g id="a_node9"><a xlink:title=" ">
<polygon fill="white" stroke="#666666" points="733.5,-2076.5 630.5,-2076.5 630.5,-2046.5 733.5,-2046.5 733.5,-2076.5"/>
<text text-anchor="middle" x="682" y="-2064.5" font-family="Helvetica,sans-Serif" font-size="10.00">{std::vector&lt; T &gt;</text>
<text text-anchor="middle" x="682" y="-2053.5" font-family="Helvetica,sans-Serif" font-size="10.00">||}</text>
</a>
</g>
</g>
<!-- Node8&#45;&gt;Node9 -->
<g id="edge9" class="edge">
<title>Node8&#45;&gt;Node9</title>
<path fill="none" stroke="#404040" d="M562.79,-2135.97C575.52,-2129.78 594.26,-2120.32 610,-2111 623.94,-2102.74 638.87,-2092.87 651.5,-2084.19"/>
<polygon fill="none" stroke="#404040" points="651.33,-2084.31 653.98,-2077.6 661.18,-2077.46 658.54,-2084.17 651.33,-2084.31"/>
<text text-anchor="middle" x="655" y="-2103" font-family="Helvetica,sans-Serif" font-size="10.00"> +elements</text>
</g>
<!-- Node18 -->
<g id="node18" class="node">
<title>Node18</title>
<g id="a_node18"><a xlink:title=" ">
<polygon fill="white" stroke="#666666" points="591.5,-2023 504.5,-2023 504.5,-1993 591.5,-1993 591.5,-2023"/>
<text text-anchor="middle" x="548" y="-2011" font-family="Helvetica,sans-Serif" font-size="10.00">{std::list&lt; T &gt;</text>
<text text-anchor="middle" x="548" y="-2000" font-family="Helvetica,sans-Serif" font-size="10.00">||}</text>
</a>
</g>
</g>
<!-- Node8&#45;&gt;Node18 -->
<g id="edge26" class="edge">
<title>Node8&#45;&gt;Node18</title>
<path fill="none" stroke="#404040" d="M548,-2128.66C548,-2106.6 548,-2063.95 548,-2035.98"/>
<polygon fill="none" stroke="#404040" points="548,-2036.14 544,-2030.14 548,-2024.14 552,-2030.14 548,-2036.14"/>
<text text-anchor="middle" x="577" y="-2103" font-family="Helvetica,sans-Serif" font-size="10.00"> +elements</text>
</g>
<!-- Node9&#45;&gt;Node6 -->
<g id="edge8" class="edge">
<title>Node9&#45;&gt;Node6</title>
<path fill="none" stroke="orange" d="M662.73,-2038.04C647.7,-2022.28 625.35,-2002.41 601,-1993 514.07,-1959.4 274.42,-1987 182,-1975 179.18,-1974.63 176.3,-1974.21 173.4,-1973.73"/>
<polygon fill="orange" stroke="orange" points="659.93,-2040.16 669.27,-2045.16 665.08,-2035.43 659.93,-2040.16"/>
<text text-anchor="middle" x="666" y="-2005.5" font-family="Helvetica,sans-Serif" font-size="10.00"> &lt; Ptr &gt;</text>
</g>
<!-- Node15 -->
<g id="node15" class="node">
<title>Node15</title>
<g id="a_node15"><a xlink:title=" ">
<polygon fill="white" stroke="#666666" points="1043.5,-1927 644.5,-1927 644.5,-1886 1043.5,-1886 1043.5,-1927"/>
<text text-anchor="middle" x="844" y="-1915" font-family="Helvetica,sans-Serif" font-size="10.00">{std::vector&lt; std::tuple&lt; std::unique_ptr&lt; Effect &gt;, sf::Time, unsigned int &gt; &gt;</text>
<text text-anchor="start" x="652.5" y="-1904" font-family="Helvetica,sans-Serif" font-size="10.00">|+ std::tuple&lt; std::unique_ptr&lt; Effect &gt;, sf::Time, unsigned int &gt; elements</text>
<text text-anchor="middle" x="844" y="-1893" font-family="Helvetica,sans-Serif" font-size="10.00">|}</text>
</a>
</g>
</g>
<!-- Node9&#45;&gt;Node15 -->
<g id="edge21" class="edge">
<title>Node9&#45;&gt;Node15</title>
<path fill="none" stroke="orange" d="M705.45,-2038.35C736.98,-2008.58 792.55,-1956.09 822.85,-1927.47"/>
<polygon fill="orange" stroke="orange" points="703.21,-2035.66 698.34,-2045.07 708.01,-2040.75 703.21,-2035.66"/>
<text text-anchor="middle" x="916" y="-2005.5" font-family="Helvetica,sans-Serif" font-size="10.00"> &lt; std::tuple&lt; std::unique_ptr&lt; Effect &gt;, sf::Time, unsigned int &gt; &gt;</text>
</g>
<!-- Node19 -->
<g id="node19" class="node">
<title>Node19</title>
<g id="a_node19"><a xlink:title=" ">
<polygon fill="white" stroke="#666666" points="754,-316 628,-316 628,-286 754,-286 754,-316"/>
<text text-anchor="middle" x="691" y="-304" font-family="Helvetica,sans-Serif" font-size="10.00">{std::vector&lt; Wall * &gt;</text>
<text text-anchor="middle" x="691" y="-293" font-family="Helvetica,sans-Serif" font-size="10.00">||}</text>
</a>
</g>
</g>
<!-- Node9&#45;&gt;Node19 -->
<g id="edge33" class="edge">
<title>Node9&#45;&gt;Node19</title>
<path fill="none" stroke="orange" d="M745.29,-2059.09C825.06,-2056.29 966.01,-2047.93 1084,-2023 1168.84,-2005.08 1269,-2047.72 1269,-1961 1269,-1961 1269,-1961 1269,-415.5 1269,-311.51 904.21,-301.11 754.23,-301.23"/>
<polygon fill="orange" stroke="orange" points="745.36,-2055.58 735.48,-2059.41 745.59,-2062.58 745.36,-2055.58"/>
<text text-anchor="middle" x="1296.5" y="-1201.5" font-family="Helvetica,sans-Serif" font-size="10.00"> &lt; Wall * &gt;</text>
</g>
<!-- Node10&#45;&gt;Node1 -->
<g id="edge11" class="edge">
<title>Node10&#45;&gt;Node1</title>
<path fill="none" stroke="#404040" d="M345,-506.78C345,-430.41 345,-331.09 345,-252.29"/>
<polygon fill="none" stroke="#404040" points="345,-252.22 341,-246.22 345,-240.22 349,-246.22 345,-252.22"/>
<text text-anchor="middle" x="362" y="-337" font-family="Helvetica,sans-Serif" font-size="10.00"> &#45;world</text>
</g>
<!-- Node11 -->
<g id="node11" class="node">
<title>Node11</title>
<g id="a_node11"><a xlink:href="classPlayer.html" target="_top" xlink:title=" ">
<polygon fill="white" stroke="#666666" points="1085.5,-1175 656.5,-1175 656.5,-793 1085.5,-793 1085.5,-1175"/>
<text text-anchor="middle" x="871" y="-1163" font-family="Helvetica,sans-Serif" font-size="10.00">{Player</text>
<text text-anchor="start" x="664.5" y="-1152" font-family="Helvetica,sans-Serif" font-size="10.00">|&#45; Direction direction</text>
<text text-anchor="start" x="664.5" y="-1141" font-family="Helvetica,sans-Serif" font-size="10.00">&#45; float jumpDurationScale</text>
<text text-anchor="start" x="664.5" y="-1130" font-family="Helvetica,sans-Serif" font-size="10.00">&#45; sf::Vector2i distanceScale</text>
<text text-anchor="start" x="664.5" y="-1119" font-family="Helvetica,sans-Serif" font-size="10.00">&#45; int invincibleBoostCount</text>
<text text-anchor="start" x="664.5" y="-1108" font-family="Helvetica,sans-Serif" font-size="10.00">&#45; sf::Vector2f platformVelocity</text>
<text text-anchor="start" x="664.5" y="-1097" font-family="Helvetica,sans-Serif" font-size="10.00">&#45; float health</text>
<text text-anchor="start" x="664.5" y="-1086" font-family="Helvetica,sans-Serif" font-size="10.00">&#45; bool deadFlag</text>
<text text-anchor="start" x="664.5" y="-1075" font-family="Helvetica,sans-Serif" font-size="10.00">&#45; sf::Vector2f woodVelocity</text>
<text text-anchor="start" x="664.5" y="-1064" font-family="Helvetica,sans-Serif" font-size="10.00">|+ &#160;Player()</text>
<text text-anchor="start" x="664.5" y="-1053" font-family="Helvetica,sans-Serif" font-size="10.00">+ &#160;Player(sf::Vector2f position, sf::Vector2f size)</text>
<text text-anchor="start" x="664.5" y="-1042" font-family="Helvetica,sans-Serif" font-size="10.00">+ void onKeyPressed(sf::Event::KeyEvent)</text>
<text text-anchor="start" x="664.5" y="-1031" font-family="Helvetica,sans-Serif" font-size="10.00">+ Category::Type getCategory() const override</text>
<text text-anchor="start" x="664.5" y="-1020" font-family="Helvetica,sans-Serif" font-size="10.00">+ void setState(PlayerState *newState)</text>
<text text-anchor="start" x="664.5" y="-1009" font-family="Helvetica,sans-Serif" font-size="10.00">+ void addHealth(float delta)</text>
<text text-anchor="start" x="664.5" y="-998" font-family="Helvetica,sans-Serif" font-size="10.00">+ bool isDead()</text>
<text text-anchor="start" x="664.5" y="-987" font-family="Helvetica,sans-Serif" font-size="10.00">+ void addEffect(std::unique_ptr&lt; Effect &gt; effect)</text>
<text text-anchor="start" x="664.5" y="-976" font-family="Helvetica,sans-Serif" font-size="10.00">+ bool isInvincible() const</text>
<text text-anchor="start" x="664.5" y="-965" font-family="Helvetica,sans-Serif" font-size="10.00">+ sf::Vector2f getDirectionVec() const</text>
<text text-anchor="start" x="664.5" y="-954" font-family="Helvetica,sans-Serif" font-size="10.00">+ void addPlatformVelocity(sf::Vector2f velocity)</text>
<text text-anchor="start" x="664.5" y="-943" font-family="Helvetica,sans-Serif" font-size="10.00">+ void loadCurrentNode(std::istream &amp;in=std::cin) override</text>
<text text-anchor="start" x="664.5" y="-932" font-family="Helvetica,sans-Serif" font-size="10.00">+ void saveCurrentNode(std::ostream &amp;out=std::cout) const override</text>
<text text-anchor="start" x="664.5" y="-921" font-family="Helvetica,sans-Serif" font-size="10.00">+ Texture::ID getJumpTexture() const</text>
<text text-anchor="start" x="664.5" y="-910" font-family="Helvetica,sans-Serif" font-size="10.00">+ Texture::ID getIdleTexture() const</text>
<text text-anchor="start" x="664.5" y="-899" font-family="Helvetica,sans-Serif" font-size="10.00">+ Texture::ID getStunnedTexture() const</text>
<text text-anchor="start" x="664.5" y="-888" font-family="Helvetica,sans-Serif" font-size="10.00">+ Texture::ID getRipTexture() const</text>
<text text-anchor="start" x="664.5" y="-877" font-family="Helvetica,sans-Serif" font-size="10.00"># void updateCurrent(sf::Time dt) override</text>
<text text-anchor="start" x="664.5" y="-866" font-family="Helvetica,sans-Serif" font-size="10.00"># void drawCurrent(sf::RenderTarget &amp;target, sf::RenderStates states) const override</text>
<text text-anchor="start" x="664.5" y="-855" font-family="Helvetica,sans-Serif" font-size="10.00">&#45; bool shouldSave() const override</text>
<text text-anchor="start" x="664.5" y="-844" font-family="Helvetica,sans-Serif" font-size="10.00">&#45; void drawHealthBar(sf::RenderTarget &amp;target, sf::RenderStates states) const</text>
<text text-anchor="start" x="664.5" y="-833" font-family="Helvetica,sans-Serif" font-size="10.00">&#45; sf::Vector2f getNearestGridPosition(sf::Vector2f pos) const</text>
<text text-anchor="start" x="664.5" y="-822" font-family="Helvetica,sans-Serif" font-size="10.00">&#45; void applyEffects(sf::Time dt)</text>
<text text-anchor="start" x="664.5" y="-811" font-family="Helvetica,sans-Serif" font-size="10.00">&#45; std::string getClassName() const override</text>
<text text-anchor="middle" x="871" y="-800" font-family="Helvetica,sans-Serif" font-size="10.00">}</text>
</a>
</g>
</g>
<!-- Node11&#45;&gt;Node10 -->
<g id="edge14" class="edge">
<title>Node11&#45;&gt;Node10</title>
<path fill="none" stroke="#404040" d="M656.3,-837.89C614.97,-809.96 571.99,-780.91 531.63,-753.64"/>
<polygon fill="none" stroke="#404040" points="531.57,-753.59 524.36,-753.55 521.63,-746.87 528.84,-746.92 531.57,-753.59"/>
<text text-anchor="middle" x="579" y="-767" font-family="Helvetica,sans-Serif" font-size="10.00"> &#45;player</text>
</g>
<!-- Node14 -->
<g id="node14" class="node">
<title>Node14</title>
<g id="a_node14"><a xlink:href="classPlayerState.html" target="_top" xlink:title=" ">
<polygon fill="white" stroke="#666666" points="1035.5,-663.5 828.5,-663.5 828.5,-589.5 1035.5,-589.5 1035.5,-663.5"/>
<text text-anchor="middle" x="932" y="-651.5" font-family="Helvetica,sans-Serif" font-size="10.00">{PlayerState</text>
<text text-anchor="start" x="836.5" y="-640.5" font-family="Helvetica,sans-Serif" font-size="10.00">||+ &#160;PlayerState(Player *)</text>
<text text-anchor="start" x="836.5" y="-629.5" font-family="Helvetica,sans-Serif" font-size="10.00">+ virtual ~PlayerState()</text>
<text text-anchor="start" x="836.5" y="-618.5" font-family="Helvetica,sans-Serif" font-size="10.00">+ virtual void update(sf::Time dt)=0</text>
<text text-anchor="start" x="836.5" y="-607.5" font-family="Helvetica,sans-Serif" font-size="10.00">+ virtual StateID getStateID() const =0</text>
<text text-anchor="middle" x="932" y="-596.5" font-family="Helvetica,sans-Serif" font-size="10.00">}</text>
</a>
</g>
</g>
<!-- Node11&#45;&gt;Node14 -->
<g id="edge19" class="edge">
<title>Node11&#45;&gt;Node14</title>
<path fill="none" stroke="#404040" d="M858.83,-792.76C860.1,-782.99 861.8,-773.35 864,-764 871.36,-732.71 887.03,-700.4 901.48,-675.07"/>
<polygon fill="none" stroke="#404040" points="901.47,-675.09 901.06,-667.89 907.54,-664.73 907.96,-671.93 901.47,-675.09"/>
<text text-anchor="middle" x="885.5" y="-767" font-family="Helvetica,sans-Serif" font-size="10.00"> +player</text>
</g>
<!-- Node11&#45;&gt;Node21 -->
<g id="edge32" class="edge">
<title>Node11&#45;&gt;Node21</title>
<path fill="none" stroke="#404040" d="M774.54,-792.5C756.13,-756.12 738.07,-720.46 723.48,-691.65"/>
<polygon fill="none" stroke="#404040" points="723.49,-691.66 717.21,-688.11 718.07,-680.95 724.34,-684.5 723.49,-691.66"/>
<text text-anchor="middle" x="785.5" y="-767" font-family="Helvetica,sans-Serif" font-size="10.00"> #player</text>
</g>
<!-- Node12&#45;&gt;Node11 -->
<g id="edge15" class="edge">
<title>Node12&#45;&gt;Node11</title>
<path fill="none" stroke="#63b8ff" d="M872.25,-1221.18C872.17,-1206.15 872.09,-1190.69 872.01,-1175.21"/>
<polygon fill="none" stroke="#63b8ff" points="868.75,-1221.09 872.3,-1231.07 875.75,-1221.05 868.75,-1221.09"/>
</g>
<!-- Node13 -->
<g id="node13" class="node">
<title>Node13</title>
<g id="a_node13"><a xlink:href="classAnimationMachine.html" target="_top" xlink:title="Component of Entity that holds the animation data, can be used to replace the sprite of the entity.">
<polygon fill="white" stroke="#666666" points="1058.5,-1791 687.5,-1791 687.5,-1618 1058.5,-1618 1058.5,-1791"/>
<text text-anchor="middle" x="873" y="-1779" font-family="Helvetica,sans-Serif" font-size="10.00">{AnimationMachine</text>
<text text-anchor="start" x="695.5" y="-1768" font-family="Helvetica,sans-Serif" font-size="10.00">|&#45; Texture::ID id</text>
<text text-anchor="start" x="695.5" y="-1757" font-family="Helvetica,sans-Serif" font-size="10.00">&#45; sf::Time elapsedTime</text>
<text text-anchor="start" x="695.5" y="-1746" font-family="Helvetica,sans-Serif" font-size="10.00">&#45; sf::Time duration</text>
<text text-anchor="start" x="695.5" y="-1735" font-family="Helvetica,sans-Serif" font-size="10.00">&#45; bool loop</text>
<text text-anchor="start" x="695.5" y="-1724" font-family="Helvetica,sans-Serif" font-size="10.00">|+ &#160;AnimationMachine()</text>
<text text-anchor="start" x="695.5" y="-1713" font-family="Helvetica,sans-Serif" font-size="10.00">+ &#160;AnimationMachine(Texture::ID textureID, sf::Time duration, bool loop)</text>
<text text-anchor="start" x="695.5" y="-1702" font-family="Helvetica,sans-Serif" font-size="10.00">+ void update(sf::Time dt)</text>
<text text-anchor="start" x="695.5" y="-1691" font-family="Helvetica,sans-Serif" font-size="10.00">+ sf::Sprite toSprite() const</text>
<text text-anchor="start" x="695.5" y="-1680" font-family="Helvetica,sans-Serif" font-size="10.00">+ bool isFinished() const</text>
<text text-anchor="start" x="695.5" y="-1669" font-family="Helvetica,sans-Serif" font-size="10.00">+ Texture::ID getID() const</text>
<text text-anchor="start" x="695.5" y="-1658" font-family="Helvetica,sans-Serif" font-size="10.00">+ void save(std::ostream &amp;out) const</text>
<text text-anchor="start" x="695.5" y="-1647" font-family="Helvetica,sans-Serif" font-size="10.00">+ void load(std::istream &amp;in)</text>
<text text-anchor="start" x="695.5" y="-1636" font-family="Helvetica,sans-Serif" font-size="10.00">&#45; Sheet const &amp; getSheet() const</text>
<text text-anchor="middle" x="873" y="-1625" font-family="Helvetica,sans-Serif" font-size="10.00">}</text>
</a>
</g>
</g>
<!-- Node13&#45;&gt;Node12 -->
<g id="edge17" class="edge">
<title>Node13&#45;&gt;Node12</title>
<path fill="none" stroke="#404040" d="M873,-1617.52C873,-1583.95 873,-1544.54 873,-1506.96"/>
<polygon fill="none" stroke="#404040" points="873,-1507.2 869,-1501.2 873,-1495.2 877,-1501.2 873,-1507.2"/>
<text text-anchor="middle" x="903.5" y="-1515" font-family="Helvetica,sans-Serif" font-size="10.00"> #animation</text>
</g>
<!-- Node14&#45;&gt;Node11 -->
<g id="edge18" class="edge">
<title>Node14&#45;&gt;Node11</title>
<path fill="none" stroke="#404040" d="M927.31,-663.95C923.35,-693.84 917.31,-737.24 911,-775 910.73,-776.63 910.45,-778.27 910.17,-779.92"/>
<polygon fill="none" stroke="#404040" points="910.17,-779.92 913.1,-786.51 908.14,-791.75 905.22,-785.16 910.17,-779.92"/>
<text text-anchor="middle" x="928" y="-767" font-family="Helvetica,sans-Serif" font-size="10.00"> &#45;state</text>
</g>
<!-- Node15&#45;&gt;Node11 -->
<g id="edge20" class="edge">
<title>Node15&#45;&gt;Node11</title>
<path fill="none" stroke="#404040" d="M1025.89,-1885.5C1044.55,-1880.81 1059.7,-1875.06 1068,-1868 1201.74,-1754.29 1166.4,-1667.2 1195,-1494 1213.9,-1379.55 1246.37,-1337.01 1195,-1233 1172.11,-1186.65 1135.93,-1146.57 1095.91,-1112.95"/>
<polygon fill="none" stroke="#404040" points="1095.91,-1112.95 1088.74,-1112.24 1086.64,-1105.34 1093.81,-1106.05 1095.91,-1112.95"/>
<text text-anchor="middle" x="1212" y="-1515" font-family="Helvetica,sans-Serif" font-size="10.00"> &#45;effects</text>
</g>
<!-- Node16 -->
<g id="node16" class="node">
<title>Node16</title>
<g id="a_node16"><a xlink:title=" ">
<polygon fill="white" stroke="#666666" points="489,-999 373,-999 373,-969 489,-969 489,-999"/>
<text text-anchor="middle" x="431" y="-987" font-family="Helvetica,sans-Serif" font-size="10.00">{std::list&lt; Level * &gt;</text>
<text text-anchor="middle" x="431" y="-976" font-family="Helvetica,sans-Serif" font-size="10.00">||}</text>
</a>
</g>
</g>
<!-- Node16&#45;&gt;Node10 -->
<g id="edge22" class="edge">
<title>Node16&#45;&gt;Node10</title>
<path fill="none" stroke="#404040" d="M427.52,-968.62C418.96,-933.22 396.13,-838.87 376.65,-758.35"/>
<polygon fill="none" stroke="#404040" points="376.72,-758.61 371.42,-753.72 373.89,-746.94 379.19,-751.83 376.72,-758.61"/>
<text text-anchor="middle" x="427" y="-767" font-family="Helvetica,sans-Serif" font-size="10.00"> &#45;maintainedLevels</text>
</g>
<!-- Node17&#45;&gt;Node10 -->
<g id="edge27" class="edge">
<title>Node17&#45;&gt;Node10</title>
<path fill="none" stroke="#404040" d="M239.43,-1320.57C230.31,-1225.13 214.63,-985.1 263,-793 265.91,-781.46 269.69,-769.79 274.04,-758.27"/>
<polygon fill="none" stroke="#404040" points="274.02,-758.32 272.51,-751.27 278.44,-747.16 279.95,-754.21 274.02,-758.32"/>
<text text-anchor="middle" x="297" y="-987" font-family="Helvetica,sans-Serif" font-size="10.00"> &#45;currentLevel</text>
<text text-anchor="middle" x="297" y="-976" font-family="Helvetica,sans-Serif" font-size="10.00">&#45;oldLevel</text>
</g>
<!-- Node17&#45;&gt;Node16 -->
<g id="edge23" class="edge">
<title>Node17&#45;&gt;Node16</title>
<path fill="none" stroke="#404040" d="M264.73,-1320.66C303.6,-1242.19 386.38,-1075.08 418.18,-1010.87"/>
<polygon fill="none" stroke="#404040" points="418.11,-1011.02 417.19,-1003.87 423.44,-1000.27 424.36,-1007.42 418.11,-1011.02"/>
<text text-anchor="middle" x="356" y="-1201.5" font-family="Helvetica,sans-Serif" font-size="10.00"> +elements</text>
</g>
<!-- Node18&#45;&gt;Node16 -->
<g id="edge25" class="edge">
<title>Node18&#45;&gt;Node16</title>
<path fill="none" stroke="orange" d="M547.45,-1981.68C545.71,-1911.49 539.37,-1708.57 521,-1541 497.19,-1323.75 446.35,-1062.05 433.83,-999.1"/>
<polygon fill="orange" stroke="orange" points="543.94,-1981.42 547.67,-1991.34 550.94,-1981.26 543.94,-1981.42"/>
<text text-anchor="middle" x="573.5" y="-1702" font-family="Helvetica,sans-Serif" font-size="10.00"> &lt; Level * &gt;</text>
</g>
<!-- Node19&#45;&gt;Node1 -->
<g id="edge28" class="edge">
<title>Node19&#45;&gt;Node1</title>
<path fill="none" stroke="#404040" d="M663.27,-285.61C638.17,-272.59 598.68,-252.1 555.93,-229.93"/>
<polygon fill="none" stroke="#404040" points="555.86,-229.89 548.69,-230.68 545.2,-224.36 552.37,-223.58 555.86,-229.89"/>
<text text-anchor="middle" x="640.5" y="-260" font-family="Helvetica,sans-Serif" font-size="10.00"> &#45;walls</text>
</g>
<!-- Node20 -->
<g id="node20" class="node">
<title>Node20</title>
<g id="a_node20"><a xlink:href="classWall.html" target="_top" xlink:title=" ">
<polygon fill="white" stroke="#666666" points="815.5,-470 566.5,-470 566.5,-363 815.5,-363 815.5,-470"/>
<text text-anchor="middle" x="691" y="-458" font-family="Helvetica,sans-Serif" font-size="10.00">{Wall</text>
<text text-anchor="start" x="574.5" y="-447" font-family="Helvetica,sans-Serif" font-size="10.00">|&#45; sf::Vector2f velocity</text>
<text text-anchor="start" x="574.5" y="-436" font-family="Helvetica,sans-Serif" font-size="10.00">&#45; sf::FloatRect bounds</text>
<text text-anchor="start" x="574.5" y="-425" font-family="Helvetica,sans-Serif" font-size="10.00">|+ &#160;Wall(sf::FloatRect bounds)</text>
<text text-anchor="start" x="574.5" y="-414" font-family="Helvetica,sans-Serif" font-size="10.00">+ sf::FloatRect getLocalBounds() const override</text>
<text text-anchor="start" x="574.5" y="-403" font-family="Helvetica,sans-Serif" font-size="10.00">+ void setVelocity(sf::Vector2f velocity)</text>
<text text-anchor="start" x="574.5" y="-392" font-family="Helvetica,sans-Serif" font-size="10.00">+ void updateCurrent(sf::Time dt) override</text>
<text text-anchor="start" x="574.5" y="-381" font-family="Helvetica,sans-Serif" font-size="10.00">&#45; void onStartPlayerCollision() override</text>
<text text-anchor="middle" x="691" y="-370" font-family="Helvetica,sans-Serif" font-size="10.00">}</text>
</a>
</g>
</g>
<!-- Node20&#45;&gt;Node19 -->
<g id="edge29" class="edge">
<title>Node20&#45;&gt;Node19</title>
<path fill="none" stroke="#404040" d="M691,-362.74C691,-351.09 691,-339.22 691,-329.1"/>
<polygon fill="none" stroke="#404040" points="691,-329.06 687,-323.06 691,-317.06 695,-323.06 691,-329.06"/>
<text text-anchor="middle" x="720" y="-337" font-family="Helvetica,sans-Serif" font-size="10.00"> +elements</text>
</g>
<!-- Node21&#45;&gt;Node20 -->
<g id="edge30" class="edge">
<title>Node21&#45;&gt;Node20</title>
<path fill="none" stroke="#63b8ff" d="M691,-561.38C691,-532.13 691,-497.92 691,-470.2"/>
<polygon fill="none" stroke="#63b8ff" points="687.5,-561.23 691,-571.23 694.5,-561.23 687.5,-561.23"/>
</g>
</g>
</svg>
