<?xml version="1.0" encoding="UTF-8" standalone="no"?>
<!DOCTYPE svg PUBLIC "-//W3C//DTD SVG 1.1//EN"
 "http://www.w3.org/Graphics/SVG/1.1/DTD/svg11.dtd">
<!-- Generated by graphviz version 7.0.5 (0)
 -->
<!-- Title: Effect Pages: 1 -->
<svg width="1103pt" height="457pt"
 viewBox="0.00 0.00 1103.00 457.00" xmlns="http://www.w3.org/2000/svg" xmlns:xlink="http://www.w3.org/1999/xlink">
<g id="graph0" class="graph" transform="scale(1 1) rotate(0) translate(4 453)">
<title>Effect</title>
<!-- Node1 -->
<g id="node1" class="node">
<title>Node1</title>
<g id="a_node1"><a xlink:title=" ">
<polygon fill="#999999" stroke="#666666" points="472,-127.5 472,-448.5 636,-448.5 636,-127.5 472,-127.5"/>
<text text-anchor="middle" x="554" y="-436.5" font-family="Helvetica,sans-Serif" font-size="10.00">Effect</text>
<polyline fill="none" stroke="#666666" points="472,-429.5 636,-429.5"/>
<text text-anchor="middle" x="554" y="-417.5" font-family="Helvetica,sans-Serif" font-size="10.00"> </text>
<polyline fill="none" stroke="#666666" points="472,-410.5 636,-410.5"/>
<text text-anchor="start" x="480" y="-398.5" font-family="Helvetica,sans-Serif" font-size="10.00">+ Effect()</text>
<text text-anchor="start" x="480" y="-387.5" font-family="Helvetica,sans-Serif" font-size="10.00">+ Effect()</text>
<text text-anchor="start" x="480" y="-376.5" font-family="Helvetica,sans-Serif" font-size="10.00">+ concat()</text>
<text text-anchor="start" x="480" y="-365.5" font-family="Helvetica,sans-Serif" font-size="10.00">+ healthDelta()</text>
<text text-anchor="start" x="480" y="-354.5" font-family="Helvetica,sans-Serif" font-size="10.00">+ sizeScale()</text>
<text text-anchor="start" x="480" y="-343.5" font-family="Helvetica,sans-Serif" font-size="10.00">+ distanceScale()</text>
<text text-anchor="start" x="480" y="-332.5" font-family="Helvetica,sans-Serif" font-size="10.00">+ jumpDurationScale()</text>
<text text-anchor="start" x="480" y="-321.5" font-family="Helvetica,sans-Serif" font-size="10.00">+ invincible()</text>
<text text-anchor="start" x="480" y="-310.5" font-family="Helvetica,sans-Serif" font-size="10.00">+ durationEach()</text>
<text text-anchor="start" x="480" y="-299.5" font-family="Helvetica,sans-Serif" font-size="10.00">+ times()</text>
<text text-anchor="start" x="480" y="-288.5" font-family="Helvetica,sans-Serif" font-size="10.00">+ runMisc()</text>
<text text-anchor="start" x="480" y="-277.5" font-family="Helvetica,sans-Serif" font-size="10.00">+ onEnd()</text>
<text text-anchor="start" x="480" y="-266.5" font-family="Helvetica,sans-Serif" font-size="10.00">+ nextEffect()</text>
<text text-anchor="start" x="480" y="-255.5" font-family="Helvetica,sans-Serif" font-size="10.00">+ ~Effect()</text>
<text text-anchor="start" x="480" y="-244.5" font-family="Helvetica,sans-Serif" font-size="10.00"># healthDeltaCurrent()</text>
<text text-anchor="start" x="480" y="-233.5" font-family="Helvetica,sans-Serif" font-size="10.00"># sizeScaleCurrent()</text>
<text text-anchor="start" x="480" y="-222.5" font-family="Helvetica,sans-Serif" font-size="10.00"># distanceScaleCurrent()</text>
<text text-anchor="start" x="480" y="-211.5" font-family="Helvetica,sans-Serif" font-size="10.00"># jumpDurationScaleCurrent()</text>
<text text-anchor="start" x="480" y="-200.5" font-family="Helvetica,sans-Serif" font-size="10.00"># invincibleCurrent()</text>
<text text-anchor="start" x="480" y="-189.5" font-family="Helvetica,sans-Serif" font-size="10.00"># durationEachCurrent()</text>
<text text-anchor="start" x="480" y="-178.5" font-family="Helvetica,sans-Serif" font-size="10.00"># timesCurrent()</text>
<text text-anchor="start" x="480" y="-167.5" font-family="Helvetica,sans-Serif" font-size="10.00"># runMiscCurrentBefore()</text>
<text text-anchor="start" x="480" y="-156.5" font-family="Helvetica,sans-Serif" font-size="10.00"># runMiscCurrentAfter()</text>
<text text-anchor="start" x="480" y="-145.5" font-family="Helvetica,sans-Serif" font-size="10.00"># onEndCurrent()</text>
<text text-anchor="start" x="480" y="-134.5" font-family="Helvetica,sans-Serif" font-size="10.00"># nextEffectCurrent()</text>
</a>
</g>
</g>
<!-- Node2 -->
<g id="node2" class="node">
<title>Node2</title>
<g id="a_node2"><a xlink:href="classDistanceEffect.html" target="_top" xlink:title=" ">
<polygon fill="white" stroke="#bfbfbf" points="0,-6 0,-85 106,-85 106,-6 0,-6"/>
<text text-anchor="middle" x="53" y="-73" font-family="Helvetica,sans-Serif" font-size="10.00">DistanceEffect</text>
<polyline fill="none" stroke="#bfbfbf" points="0,-66 106,-66"/>
<text text-anchor="middle" x="53" y="-54" font-family="Helvetica,sans-Serif" font-size="10.00"> </text>
<polyline fill="none" stroke="#bfbfbf" points="0,-47 106,-47"/>
<text text-anchor="start" x="8" y="-35" font-family="Helvetica,sans-Serif" font-size="10.00">+ DistanceEffect()</text>
<text text-anchor="start" x="8" y="-24" font-family="Helvetica,sans-Serif" font-size="10.00">+ Effect()</text>
<text text-anchor="start" x="8" y="-13" font-family="Helvetica,sans-Serif" font-size="10.00">+ Effect()</text>
</a>
</g>
</g>
<!-- Node1&#45;&gt;Node2 -->
<g id="edge1" class="edge">
<title>Node1&#45;&gt;Node2</title>
<path fill="none" stroke="#63b8ff" d="M461.76,-252.18C371.06,-216.47 229.88,-156.96 115,-91 111.67,-89.09 108.3,-87.04 104.93,-84.9"/>
<polygon fill="none" stroke="#63b8ff" points="460.3,-255.36 470.89,-255.75 462.85,-248.84 460.3,-255.36"/>
</g>
<!-- Node3 -->
<g id="node3" class="node">
<title>Node3</title>
<g id="a_node3"><a xlink:href="classDurationEffect.html" target="_top" xlink:title=" ">
<polygon fill="white" stroke="#bfbfbf" points="124.5,-6 124.5,-85 229.5,-85 229.5,-6 124.5,-6"/>
<text text-anchor="middle" x="177" y="-73" font-family="Helvetica,sans-Serif" font-size="10.00">DurationEffect</text>
<polyline fill="none" stroke="#bfbfbf" points="124.5,-66 229.5,-66"/>
<text text-anchor="middle" x="177" y="-54" font-family="Helvetica,sans-Serif" font-size="10.00"> </text>
<polyline fill="none" stroke="#bfbfbf" points="124.5,-47 229.5,-47"/>
<text text-anchor="start" x="132.5" y="-35" font-family="Helvetica,sans-Serif" font-size="10.00">+ DurationEffect()</text>
<text text-anchor="start" x="132.5" y="-24" font-family="Helvetica,sans-Serif" font-size="10.00">+ Effect()</text>
<text text-anchor="start" x="132.5" y="-13" font-family="Helvetica,sans-Serif" font-size="10.00">+ Effect()</text>
</a>
</g>
</g>
<!-- Node1&#45;&gt;Node3 -->
<g id="edge2" class="edge">
<title>Node1&#45;&gt;Node3</title>
<path fill="none" stroke="#63b8ff" d="M462.45,-232.71C398.74,-194.32 312.23,-140.99 238,-91 235.06,-89.02 232.07,-86.97 229.06,-84.87"/>
<polygon fill="none" stroke="#63b8ff" points="460.41,-235.56 470.78,-237.72 464.02,-229.57 460.41,-235.56"/>
</g>
<!-- Node4 -->
<g id="node4" class="node">
<title>Node4</title>
<g id="a_node4"><a xlink:href="classHealthEffect.html" target="_top" xlink:title=" ">
<polygon fill="white" stroke="#bfbfbf" points="247.5,-6 247.5,-85 342.5,-85 342.5,-6 247.5,-6"/>
<text text-anchor="middle" x="295" y="-73" font-family="Helvetica,sans-Serif" font-size="10.00">HealthEffect</text>
<polyline fill="none" stroke="#bfbfbf" points="247.5,-66 342.5,-66"/>
<text text-anchor="middle" x="295" y="-54" font-family="Helvetica,sans-Serif" font-size="10.00"> </text>
<polyline fill="none" stroke="#bfbfbf" points="247.5,-47 342.5,-47"/>
<text text-anchor="start" x="255.5" y="-35" font-family="Helvetica,sans-Serif" font-size="10.00">+ HealthEffect()</text>
<text text-anchor="start" x="255.5" y="-24" font-family="Helvetica,sans-Serif" font-size="10.00">+ Effect()</text>
<text text-anchor="start" x="255.5" y="-13" font-family="Helvetica,sans-Serif" font-size="10.00">+ Effect()</text>
</a>
</g>
</g>
<!-- Node1&#45;&gt;Node4 -->
<g id="edge3" class="edge">
<title>Node1&#45;&gt;Node4</title>
<path fill="none" stroke="#63b8ff" d="M463.75,-203.19C420.35,-162.9 370.47,-116.58 336.25,-84.81"/>
<polygon fill="none" stroke="#63b8ff" points="461.23,-205.63 470.94,-209.87 466,-200.51 461.23,-205.63"/>
</g>
<!-- Node5 -->
<g id="node5" class="node">
<title>Node5</title>
<g id="a_node5"><a xlink:href="classInvincibleEffect.html" target="_top" xlink:title=" ">
<polygon fill="white" stroke="#bfbfbf" points="361,-6 361,-85 471,-85 471,-6 361,-6"/>
<text text-anchor="middle" x="416" y="-73" font-family="Helvetica,sans-Serif" font-size="10.00">InvincibleEffect</text>
<polyline fill="none" stroke="#bfbfbf" points="361,-66 471,-66"/>
<text text-anchor="middle" x="416" y="-54" font-family="Helvetica,sans-Serif" font-size="10.00"> </text>
<polyline fill="none" stroke="#bfbfbf" points="361,-47 471,-47"/>
<text text-anchor="start" x="369" y="-35" font-family="Helvetica,sans-Serif" font-size="10.00">+ InvincibleEffect()</text>
<text text-anchor="start" x="369" y="-24" font-family="Helvetica,sans-Serif" font-size="10.00">+ Effect()</text>
<text text-anchor="start" x="369" y="-13" font-family="Helvetica,sans-Serif" font-size="10.00">+ Effect()</text>
</a>
</g>
</g>
<!-- Node1&#45;&gt;Node5 -->
<g id="edge4" class="edge">
<title>Node1&#45;&gt;Node5</title>
<path fill="none" stroke="#63b8ff" d="M466.45,-134.42C456.01,-116.22 446.18,-99.09 438.02,-84.87"/>
<polygon fill="none" stroke="#63b8ff" points="463.36,-136.08 471.38,-143.01 469.44,-132.59 463.36,-136.08"/>
</g>
<!-- Node6 -->
<g id="node6" class="node">
<title>Node6</title>
<g id="a_node6"><a xlink:href="classJumpDurationEffect.html" target="_top" xlink:title=" ">
<polygon fill="white" stroke="#bfbfbf" points="489,-6 489,-85 619,-85 619,-6 489,-6"/>
<text text-anchor="middle" x="554" y="-73" font-family="Helvetica,sans-Serif" font-size="10.00">JumpDurationEffect</text>
<polyline fill="none" stroke="#bfbfbf" points="489,-66 619,-66"/>
<text text-anchor="middle" x="554" y="-54" font-family="Helvetica,sans-Serif" font-size="10.00"> </text>
<polyline fill="none" stroke="#bfbfbf" points="489,-47 619,-47"/>
<text text-anchor="start" x="497" y="-35" font-family="Helvetica,sans-Serif" font-size="10.00">+ JumpDurationEffect()</text>
<text text-anchor="start" x="497" y="-24" font-family="Helvetica,sans-Serif" font-size="10.00">+ Effect()</text>
<text text-anchor="start" x="497" y="-13" font-family="Helvetica,sans-Serif" font-size="10.00">+ Effect()</text>
</a>
</g>
</g>
<!-- Node1&#45;&gt;Node6 -->
<g id="edge5" class="edge">
<title>Node1&#45;&gt;Node6</title>
<path fill="none" stroke="#63b8ff" d="M554,-116.39C554,-104.94 554,-94.23 554,-84.8"/>
<polygon fill="none" stroke="#63b8ff" points="550.5,-116.07 554,-126.07 557.5,-116.07 550.5,-116.07"/>
</g>
<!-- Node7 -->
<g id="node7" class="node">
<title>Node7</title>
<g id="a_node7"><a xlink:href="classNextEffect.html" target="_top" xlink:title=" ">
<polygon fill="white" stroke="#bfbfbf" points="637,-6 637,-85 723,-85 723,-6 637,-6"/>
<text text-anchor="middle" x="680" y="-73" font-family="Helvetica,sans-Serif" font-size="10.00">NextEffect</text>
<polyline fill="none" stroke="#bfbfbf" points="637,-66 723,-66"/>
<text text-anchor="middle" x="680" y="-54" font-family="Helvetica,sans-Serif" font-size="10.00"> </text>
<polyline fill="none" stroke="#bfbfbf" points="637,-47 723,-47"/>
<text text-anchor="start" x="645" y="-35" font-family="Helvetica,sans-Serif" font-size="10.00">+ NextEffect()</text>
<text text-anchor="start" x="645" y="-24" font-family="Helvetica,sans-Serif" font-size="10.00">+ Effect()</text>
<text text-anchor="start" x="645" y="-13" font-family="Helvetica,sans-Serif" font-size="10.00">+ Effect()</text>
</a>
</g>
</g>
<!-- Node1&#45;&gt;Node7 -->
<g id="edge6" class="edge">
<title>Node1&#45;&gt;Node7</title>
<path fill="none" stroke="#63b8ff" d="M641.24,-120.48C648.08,-107.43 654.47,-95.23 660.01,-84.66"/>
<polygon fill="none" stroke="#63b8ff" points="638.17,-118.79 636.63,-129.27 644.37,-122.04 638.17,-118.79"/>
</g>
<!-- Node8 -->
<g id="node8" class="node">
<title>Node8</title>
<g id="a_node8"><a xlink:href="classRunMiscEffect.html" target="_top" xlink:title=" ">
<polygon fill="white" stroke="#bfbfbf" points="741,-0.5 741,-90.5 845,-90.5 845,-0.5 741,-0.5"/>
<text text-anchor="middle" x="793" y="-78.5" font-family="Helvetica,sans-Serif" font-size="10.00">RunMiscEffect</text>
<polyline fill="none" stroke="#bfbfbf" points="741,-71.5 845,-71.5"/>
<text text-anchor="middle" x="793" y="-59.5" font-family="Helvetica,sans-Serif" font-size="10.00"> </text>
<polyline fill="none" stroke="#bfbfbf" points="741,-52.5 845,-52.5"/>
<text text-anchor="start" x="749" y="-40.5" font-family="Helvetica,sans-Serif" font-size="10.00">+ RunMiscEffect()</text>
<text text-anchor="start" x="749" y="-29.5" font-family="Helvetica,sans-Serif" font-size="10.00">+ RunMiscEffect()</text>
<text text-anchor="start" x="749" y="-18.5" font-family="Helvetica,sans-Serif" font-size="10.00">+ Effect()</text>
<text text-anchor="start" x="749" y="-7.5" font-family="Helvetica,sans-Serif" font-size="10.00">+ Effect()</text>
</a>
</g>
</g>
<!-- Node1&#45;&gt;Node8 -->
<g id="edge7" class="edge">
<title>Node1&#45;&gt;Node8</title>
<path fill="none" stroke="#63b8ff" d="M643.58,-196.86C679.78,-160.43 719.91,-120.05 749.45,-90.32"/>
<polygon fill="none" stroke="#63b8ff" points="641.55,-193.94 636.98,-203.5 646.51,-198.87 641.55,-193.94"/>
</g>
<!-- Node9 -->
<g id="node9" class="node">
<title>Node9</title>
<g id="a_node9"><a xlink:href="classSizeEffect.html" target="_top" xlink:title=" ">
<polygon fill="white" stroke="#bfbfbf" points="863.5,-17 863.5,-74 946.5,-74 946.5,-17 863.5,-17"/>
<text text-anchor="middle" x="905" y="-62" font-family="Helvetica,sans-Serif" font-size="10.00">SizeEffect</text>
<polyline fill="none" stroke="#bfbfbf" points="863.5,-55 946.5,-55"/>
<text text-anchor="middle" x="905" y="-43" font-family="Helvetica,sans-Serif" font-size="10.00"> </text>
<polyline fill="none" stroke="#bfbfbf" points="863.5,-36 946.5,-36"/>
<text text-anchor="start" x="871.5" y="-24" font-family="Helvetica,sans-Serif" font-size="10.00">+ SizeEffect()</text>
</a>
</g>
</g>
<!-- Node1&#45;&gt;Node9 -->
<g id="edge8" class="edge">
<title>Node1&#45;&gt;Node9</title>
<path fill="none" stroke="#63b8ff" d="M645.52,-231.82C706.12,-194.18 786.56,-142.07 854,-91 861.03,-85.68 868.31,-79.66 875.1,-73.8"/>
<polygon fill="none" stroke="#63b8ff" points="643.92,-228.7 637.26,-236.94 647.6,-234.65 643.92,-228.7"/>
</g>
<!-- Node10 -->
<g id="node10" class="node">
<title>Node10</title>
<g id="a_node10"><a xlink:href="classStopOnCommandEffect.html" target="_top" xlink:title=" ">
<polygon fill="white" stroke="#bfbfbf" points="965,-6 965,-85 1095,-85 1095,-6 965,-6"/>
<text text-anchor="middle" x="1030" y="-73" font-family="Helvetica,sans-Serif" font-size="10.00">StopOnCommandEffect</text>
<polyline fill="none" stroke="#bfbfbf" points="965,-66 1095,-66"/>
<text text-anchor="middle" x="1030" y="-54" font-family="Helvetica,sans-Serif" font-size="10.00"> </text>
<polyline fill="none" stroke="#bfbfbf" points="965,-47 1095,-47"/>
<text text-anchor="start" x="973" y="-35" font-family="Helvetica,sans-Serif" font-size="10.00">+ stop()</text>
<text text-anchor="start" x="973" y="-24" font-family="Helvetica,sans-Serif" font-size="10.00">+ Effect()</text>
<text text-anchor="start" x="973" y="-13" font-family="Helvetica,sans-Serif" font-size="10.00">+ Effect()</text>
</a>
</g>
</g>
<!-- Node1&#45;&gt;Node10 -->
<g id="edge9" class="edge">
<title>Node1&#45;&gt;Node10</title>
<path fill="none" stroke="#63b8ff" d="M646.23,-244.85C728.47,-206.6 851.63,-147.68 956,-91 959.56,-89.07 963.19,-87.05 966.83,-84.98"/>
<polygon fill="none" stroke="#63b8ff" points="644.88,-241.62 637.28,-249 647.83,-247.97 644.88,-241.62"/>
</g>
</g>
</svg>
