<?xml version="1.0" encoding="UTF-8" standalone="no"?>
<!DOCTYPE svg PUBLIC "-//W3C//DTD SVG 1.1//EN"
 "http://www.w3.org/Graphics/SVG/1.1/DTD/svg11.dtd">
<!-- Generated by graphviz version 7.0.5 (0)
 -->
<!-- Title: JumpDurationEffect Pages: 1 -->
<svg width="604pt" height="544pt"
 viewBox="0.00 0.00 604.00 544.00" xmlns="http://www.w3.org/2000/svg" xmlns:xlink="http://www.w3.org/1999/xlink">
<g id="graph0" class="graph" transform="scale(1 1) rotate(0) translate(4 540)">
<title>JumpDurationEffect</title>
<!-- Node1 -->
<g id="node1" class="node">
<title>Node1</title>
<g id="a_node1"><a xlink:title=" ">
<polygon fill="#999999" stroke="#666666" points="348,-107 0,-107 0,0 348,0 348,-107"/>
<text text-anchor="middle" x="174" y="-95" font-family="Helvetica,sans-Serif" font-size="10.00">{JumpDurationEffect</text>
<text text-anchor="start" x="8" y="-84" font-family="Helvetica,sans-Serif" font-size="10.00">|&#45; float jumpDurationScale_</text>
<text text-anchor="start" x="8" y="-73" font-family="Helvetica,sans-Serif" font-size="10.00">&#45; bool reverse_</text>
<text text-anchor="start" x="8" y="-62" font-family="Helvetica,sans-Serif" font-size="10.00">|+ &#160;JumpDurationEffect(float jumpDurationScale, bool reverse=true)</text>
<text text-anchor="start" x="8" y="-51" font-family="Helvetica,sans-Serif" font-size="10.00">+ &#160;Effect()=default</text>
<text text-anchor="start" x="8" y="-40" font-family="Helvetica,sans-Serif" font-size="10.00">+ &#160;Effect(std::unique_ptr&lt; Effect &gt; wrapper)</text>
<text text-anchor="start" x="8" y="-29" font-family="Helvetica,sans-Serif" font-size="10.00">&#45; float jumpDurationScaleCurrent() const override</text>
<text text-anchor="start" x="8" y="-18" font-family="Helvetica,sans-Serif" font-size="10.00">&#45; std::unique_ptr&lt; Effect &gt; onEndCurrent() const override</text>
<text text-anchor="middle" x="174" y="-7" font-family="Helvetica,sans-Serif" font-size="10.00">}</text>
</a>
</g>
</g>
<!-- Node2 -->
<g id="node2" class="node">
<title>Node2</title>
<g id="a_node2"><a xlink:href="classEffect.html" target="_top" xlink:title=" ">
<polygon fill="white" stroke="#666666" points="453.5,-459 162.5,-459 162.5,-154 453.5,-154 453.5,-459"/>
<text text-anchor="middle" x="308" y="-447" font-family="Helvetica,sans-Serif" font-size="10.00">{Effect</text>
<text text-anchor="start" x="170.5" y="-436" font-family="Helvetica,sans-Serif" font-size="10.00">||+ &#160;Effect()=default</text>
<text text-anchor="start" x="170.5" y="-425" font-family="Helvetica,sans-Serif" font-size="10.00">+ &#160;Effect(std::unique_ptr&lt; Effect &gt; wrapper)</text>
<text text-anchor="start" x="170.5" y="-414" font-family="Helvetica,sans-Serif" font-size="10.00">+ void concat(std::unique_ptr&lt; Effect &gt; boost)</text>
<text text-anchor="start" x="170.5" y="-403" font-family="Helvetica,sans-Serif" font-size="10.00">+ float healthDelta() const</text>
<text text-anchor="start" x="170.5" y="-392" font-family="Helvetica,sans-Serif" font-size="10.00">+ sf::Vector2f sizeScale() const</text>
<text text-anchor="start" x="170.5" y="-381" font-family="Helvetica,sans-Serif" font-size="10.00">+ sf::Vector2i distanceScale() const</text>
<text text-anchor="start" x="170.5" y="-370" font-family="Helvetica,sans-Serif" font-size="10.00">+ float jumpDurationScale() const</text>
<text text-anchor="start" x="170.5" y="-359" font-family="Helvetica,sans-Serif" font-size="10.00">+ int invincible() const</text>
<text text-anchor="start" x="170.5" y="-348" font-family="Helvetica,sans-Serif" font-size="10.00">+ sf::Time durationEach() const</text>
<text text-anchor="start" x="170.5" y="-337" font-family="Helvetica,sans-Serif" font-size="10.00">+ int times() const</text>
<text text-anchor="start" x="170.5" y="-326" font-family="Helvetica,sans-Serif" font-size="10.00">+ void runMisc() const</text>
<text text-anchor="start" x="170.5" y="-315" font-family="Helvetica,sans-Serif" font-size="10.00">+ std::unique_ptr&lt; Effect &gt; onEnd() const</text>
<text text-anchor="start" x="170.5" y="-304" font-family="Helvetica,sans-Serif" font-size="10.00">+ std::unique_ptr&lt; Effect &gt; nextEffect()</text>
<text text-anchor="start" x="170.5" y="-293" font-family="Helvetica,sans-Serif" font-size="10.00">+ virtual ~Effect()=default</text>
<text text-anchor="start" x="170.5" y="-282" font-family="Helvetica,sans-Serif" font-size="10.00"># virtual float healthDeltaCurrent() const</text>
<text text-anchor="start" x="170.5" y="-271" font-family="Helvetica,sans-Serif" font-size="10.00"># virtual sf::Vector2f sizeScaleCurrent() const</text>
<text text-anchor="start" x="170.5" y="-260" font-family="Helvetica,sans-Serif" font-size="10.00"># virtual sf::Vector2i distanceScaleCurrent() const</text>
<text text-anchor="start" x="170.5" y="-249" font-family="Helvetica,sans-Serif" font-size="10.00"># virtual float jumpDurationScaleCurrent() const</text>
<text text-anchor="start" x="170.5" y="-238" font-family="Helvetica,sans-Serif" font-size="10.00"># virtual int invincibleCurrent() const</text>
<text text-anchor="start" x="170.5" y="-227" font-family="Helvetica,sans-Serif" font-size="10.00"># virtual sf::Time durationEachCurrent() const</text>
<text text-anchor="start" x="170.5" y="-216" font-family="Helvetica,sans-Serif" font-size="10.00"># virtual int timesCurrent() const</text>
<text text-anchor="start" x="170.5" y="-205" font-family="Helvetica,sans-Serif" font-size="10.00"># virtual void runMiscCurrentBefore() const</text>
<text text-anchor="start" x="170.5" y="-194" font-family="Helvetica,sans-Serif" font-size="10.00"># virtual void runMiscCurrentAfter() const</text>
<text text-anchor="start" x="170.5" y="-183" font-family="Helvetica,sans-Serif" font-size="10.00"># virtual std::unique_ptr&lt; Effect &gt; onEndCurrent() const</text>
<text text-anchor="start" x="170.5" y="-172" font-family="Helvetica,sans-Serif" font-size="10.00"># virtual std::unique_ptr&lt; Effect &gt; nextEffectCurrent()</text>
<text text-anchor="middle" x="308" y="-161" font-family="Helvetica,sans-Serif" font-size="10.00">}</text>
</a>
</g>
</g>
<!-- Node2&#45;&gt;Node1 -->
<g id="edge1" class="edge">
<title>Node2&#45;&gt;Node1</title>
<path fill="none" stroke="#63b8ff" d="M221.63,-143.72C214.74,-130.81 208.14,-118.45 202.17,-107.27"/>
<polygon fill="none" stroke="#63b8ff" points="218.45,-145.19 226.25,-152.37 224.63,-141.9 218.45,-145.19"/>
</g>
<!-- Node3 -->
<g id="node3" class="node">
<title>Node3</title>
<g id="a_node3"><a xlink:title=" ">
<polygon fill="white" stroke="#666666" points="512,-74 366,-74 366,-33 512,-33 512,-74"/>
<text text-anchor="middle" x="439" y="-62" font-family="Helvetica,sans-Serif" font-size="10.00">{std::unique_ptr&lt; Effect &gt;</text>
<text text-anchor="start" x="374" y="-51" font-family="Helvetica,sans-Serif" font-size="10.00">||+ Effect * operator&#45;&gt;()</text>
<text text-anchor="middle" x="439" y="-40" font-family="Helvetica,sans-Serif" font-size="10.00">}</text>
</a>
</g>
</g>
<!-- Node2&#45;&gt;Node3 -->
<g id="edge3" class="edge">
<title>Node2&#45;&gt;Node3</title>
<path fill="none" stroke="#404040" d="M352.41,-153.85C357.16,-143.84 362.35,-134.12 368,-125 377.63,-109.47 391.33,-94.8 404.13,-82.9"/>
<polygon fill="none" stroke="#404040" points="404.05,-82.98 405.86,-76 412.99,-74.98 411.19,-81.96 404.05,-82.98"/>
<text text-anchor="middle" x="380.5" y="-128" font-family="Helvetica,sans-Serif" font-size="10.00"> +ptr</text>
</g>
<!-- Node3&#45;&gt;Node2 -->
<g id="edge2" class="edge">
<title>Node3&#45;&gt;Node2</title>
<path fill="none" stroke="#404040" d="M428.61,-74.41C420.15,-90.61 407.33,-115.18 393.15,-142.34"/>
<polygon fill="none" stroke="#404040" points="393.19,-142.26 393.96,-149.43 387.64,-152.9 386.87,-145.73 393.19,-142.26"/>
<text text-anchor="middle" x="424.5" y="-128" font-family="Helvetica,sans-Serif" font-size="10.00"> &#45;wrapper</text>
</g>
<!-- Node4 -->
<g id="node4" class="node">
<title>Node4</title>
<g id="a_node4"><a xlink:title=" ">
<polygon fill="white" stroke="#666666" points="596,-327 472,-327 472,-286 596,-286 596,-327"/>
<text text-anchor="middle" x="534" y="-315" font-family="Helvetica,sans-Serif" font-size="10.00">{std::unique_ptr&lt; T &gt;</text>
<text text-anchor="start" x="480" y="-304" font-family="Helvetica,sans-Serif" font-size="10.00">||+ T * operator&#45;&gt;()</text>
<text text-anchor="middle" x="534" y="-293" font-family="Helvetica,sans-Serif" font-size="10.00">}</text>
</a>
</g>
</g>
<!-- Node4&#45;&gt;Node3 -->
<g id="edge4" class="edge">
<title>Node4&#45;&gt;Node3</title>
<path fill="none" stroke="orange" d="M522.55,-275.26C502.88,-223.27 463.15,-118.3 446.55,-74.45"/>
<polygon fill="orange" stroke="orange" points="519.2,-276.28 526.01,-284.39 525.74,-273.8 519.2,-276.28"/>
<text text-anchor="middle" x="496" y="-128" font-family="Helvetica,sans-Serif" font-size="10.00"> &lt; Effect &gt;</text>
</g>
<!-- Node5 -->
<g id="node5" class="node">
<title>Node5</title>
<g id="a_node5"><a xlink:title=" ">
<polygon fill="white" stroke="#666666" points="548.5,-536 519.5,-536 519.5,-506 548.5,-506 548.5,-536"/>
<text text-anchor="middle" x="534" y="-524" font-family="Helvetica,sans-Serif" font-size="10.00">{T</text>
<text text-anchor="middle" x="534" y="-513" font-family="Helvetica,sans-Serif" font-size="10.00">||}</text>
</a>
</g>
</g>
<!-- Node5&#45;&gt;Node4 -->
<g id="edge5" class="edge">
<title>Node5&#45;&gt;Node4</title>
<path fill="none" stroke="#404040" d="M534,-505.73C534,-472.18 534,-387.57 534,-340.46"/>
<polygon fill="none" stroke="#404040" points="534,-340.32 530,-334.32 534,-328.32 538,-334.32 534,-340.32"/>
<text text-anchor="middle" x="546.5" y="-480" font-family="Helvetica,sans-Serif" font-size="10.00"> +ptr</text>
</g>
</g>
</svg>
