<?xml version="1.0" encoding="UTF-8" standalone="no"?>
<!DOCTYPE svg PUBLIC "-//W3C//DTD SVG 1.1//EN"
 "http://www.w3.org/Graphics/SVG/1.1/DTD/svg11.dtd">
<!-- Generated by graphviz version 7.0.5 (0)
 -->
<!-- Title: JumpingState Pages: 1 -->
<svg width="366pt" height="1155pt"
 viewBox="0.00 0.00 366.00 1155.00" xmlns="http://www.w3.org/2000/svg" xmlns:xlink="http://www.w3.org/1999/xlink">
<g id="graph0" class="graph" transform="scale(1 1) rotate(0) translate(4 1151)">
<title>JumpingState</title>
<!-- Node1 -->
<g id="node1" class="node">
<title>Node1</title>
<g id="a_node1"><a xlink:title=" ">
<polygon fill="#999999" stroke="#666666" points="169,-0.5 169,-90.5 270,-90.5 270,-0.5 169,-0.5"/>
<text text-anchor="middle" x="219.5" y="-78.5" font-family="Helvetica,sans-Serif" font-size="10.00">JumpingState</text>
<polyline fill="none" stroke="#666666" points="169,-71.5 270,-71.5"/>
<text text-anchor="middle" x="219.5" y="-59.5" font-family="Helvetica,sans-Serif" font-size="10.00"> </text>
<polyline fill="none" stroke="#666666" points="169,-52.5 270,-52.5"/>
<text text-anchor="start" x="177" y="-40.5" font-family="Helvetica,sans-Serif" font-size="10.00">+ JumpingState()</text>
<text text-anchor="start" x="177" y="-29.5" font-family="Helvetica,sans-Serif" font-size="10.00">+ isJumping()</text>
<text text-anchor="start" x="177" y="-18.5" font-family="Helvetica,sans-Serif" font-size="10.00">+ update()</text>
<text text-anchor="start" x="177" y="-7.5" font-family="Helvetica,sans-Serif" font-size="10.00">+ getStateID()</text>
</a>
</g>
</g>
<!-- Node2 -->
<g id="node2" class="node">
<title>Node2</title>
<g id="a_node2"><a xlink:href="classPlayerState.html" target="_top" xlink:title=" ">
<polygon fill="white" stroke="#bfbfbf" points="169.5,-128.5 169.5,-218.5 269.5,-218.5 269.5,-128.5 169.5,-128.5"/>
<text text-anchor="middle" x="219.5" y="-206.5" font-family="Helvetica,sans-Serif" font-size="10.00">PlayerState</text>
<polyline fill="none" stroke="#bfbfbf" points="169.5,-199.5 269.5,-199.5"/>
<text text-anchor="middle" x="219.5" y="-187.5" font-family="Helvetica,sans-Serif" font-size="10.00"> </text>
<polyline fill="none" stroke="#bfbfbf" points="169.5,-180.5 269.5,-180.5"/>
<text text-anchor="start" x="177.5" y="-168.5" font-family="Helvetica,sans-Serif" font-size="10.00">+ PlayerState()</text>
<text text-anchor="start" x="177.5" y="-157.5" font-family="Helvetica,sans-Serif" font-size="10.00">+ ~PlayerState()</text>
<text text-anchor="start" x="177.5" y="-146.5" font-family="Helvetica,sans-Serif" font-size="10.00">+ update()</text>
<text text-anchor="start" x="177.5" y="-135.5" font-family="Helvetica,sans-Serif" font-size="10.00">+ getStateID()</text>
</a>
</g>
</g>
<!-- Node2&#45;&gt;Node1 -->
<g id="edge1" class="edge">
<title>Node2&#45;&gt;Node1</title>
<path fill="none" stroke="#63b8ff" d="M219.5,-117.41C219.5,-108.28 219.5,-98.93 219.5,-90.14"/>
<polygon fill="none" stroke="#63b8ff" points="216,-117.27 219.5,-127.27 223,-117.27 216,-117.27"/>
</g>
<!-- Node3 -->
<g id="node3" class="node">
<title>Node3</title>
<g id="a_node3"><a xlink:href="classPlayer.html" target="_top" xlink:title=" ">
<polygon fill="white" stroke="#bfbfbf" points="163,-266.5 163,-455.5 276,-455.5 276,-266.5 163,-266.5"/>
<text text-anchor="middle" x="219.5" y="-443.5" font-family="Helvetica,sans-Serif" font-size="10.00">Player</text>
<polyline fill="none" stroke="#bfbfbf" points="163,-436.5 276,-436.5"/>
<text text-anchor="middle" x="219.5" y="-424.5" font-family="Helvetica,sans-Serif" font-size="10.00"> </text>
<polyline fill="none" stroke="#bfbfbf" points="163,-417.5 276,-417.5"/>
<text text-anchor="start" x="171" y="-405.5" font-family="Helvetica,sans-Serif" font-size="10.00">+ Player()</text>
<text text-anchor="start" x="171" y="-394.5" font-family="Helvetica,sans-Serif" font-size="10.00">+ Player()</text>
<text text-anchor="start" x="171" y="-383.5" font-family="Helvetica,sans-Serif" font-size="10.00">+ onKeyPressed()</text>
<text text-anchor="start" x="171" y="-372.5" font-family="Helvetica,sans-Serif" font-size="10.00">+ getCategory()</text>
<text text-anchor="start" x="171" y="-361.5" font-family="Helvetica,sans-Serif" font-size="10.00">+ setState()</text>
<text text-anchor="start" x="171" y="-350.5" font-family="Helvetica,sans-Serif" font-size="10.00">+ addHealth()</text>
<text text-anchor="start" x="171" y="-339.5" font-family="Helvetica,sans-Serif" font-size="10.00">+ isDead()</text>
<text text-anchor="start" x="171" y="-328.5" font-family="Helvetica,sans-Serif" font-size="10.00">+ addEffect()</text>
<text text-anchor="start" x="171" y="-317.5" font-family="Helvetica,sans-Serif" font-size="10.00">+ isInvincible()</text>
<text text-anchor="start" x="171" y="-306.5" font-family="Helvetica,sans-Serif" font-size="10.00">+ getDirectionVec()</text>
<text text-anchor="start" x="171" y="-295.5" font-family="Helvetica,sans-Serif" font-size="10.00">and 7 more...</text>
<text text-anchor="start" x="171" y="-284.5" font-family="Helvetica,sans-Serif" font-size="10.00"># updateCurrent()</text>
<text text-anchor="start" x="171" y="-273.5" font-family="Helvetica,sans-Serif" font-size="10.00"># drawCurrent()</text>
</a>
</g>
</g>
<!-- Node3&#45;&gt;Node2 -->
<g id="edge2" class="edge">
<title>Node3&#45;&gt;Node2</title>
<path fill="none" stroke="#404040" d="M219.5,-266.71C219.5,-254.52 219.5,-242.34 219.5,-231.01"/>
<polygon fill="none" stroke="#404040" points="219.5,-231.07 215.5,-225.07 219.5,-219.07 223.5,-225.07 219.5,-231.07"/>
<text text-anchor="middle" x="241" y="-240" font-family="Helvetica,sans-Serif" font-size="10.00"> +player</text>
</g>
<!-- Node4 -->
<g id="node4" class="node">
<title>Node4</title>
<g id="a_node4"><a xlink:href="classEntity.html" target="_top" xlink:title=" ">
<polygon fill="white" stroke="#666666" points="154.5,-493.5 154.5,-737.5 284.5,-737.5 284.5,-493.5 154.5,-493.5"/>
<text text-anchor="middle" x="219.5" y="-725.5" font-family="Helvetica,sans-Serif" font-size="10.00">Entity</text>
<polyline fill="none" stroke="#666666" points="154.5,-718.5 284.5,-718.5"/>
<text text-anchor="start" x="162.5" y="-706.5" font-family="Helvetica,sans-Serif" font-size="10.00"># velocity</text>
<text text-anchor="start" x="162.5" y="-695.5" font-family="Helvetica,sans-Serif" font-size="10.00"># localBounds</text>
<text text-anchor="start" x="162.5" y="-684.5" font-family="Helvetica,sans-Serif" font-size="10.00"># spriteBounds</text>
<polyline fill="none" stroke="#666666" points="154.5,-677.5 284.5,-677.5"/>
<text text-anchor="start" x="162.5" y="-665.5" font-family="Helvetica,sans-Serif" font-size="10.00">+ Entity()</text>
<text text-anchor="start" x="162.5" y="-654.5" font-family="Helvetica,sans-Serif" font-size="10.00">+ Entity()</text>
<text text-anchor="start" x="162.5" y="-643.5" font-family="Helvetica,sans-Serif" font-size="10.00">+ Entity()</text>
<text text-anchor="start" x="162.5" y="-632.5" font-family="Helvetica,sans-Serif" font-size="10.00">+ Entity()</text>
<text text-anchor="start" x="162.5" y="-621.5" font-family="Helvetica,sans-Serif" font-size="10.00">+ getVelocity()</text>
<text text-anchor="start" x="162.5" y="-610.5" font-family="Helvetica,sans-Serif" font-size="10.00">+ setVelocity()</text>
<text text-anchor="start" x="162.5" y="-599.5" font-family="Helvetica,sans-Serif" font-size="10.00">+ getLocalBounds()</text>
<text text-anchor="start" x="162.5" y="-588.5" font-family="Helvetica,sans-Serif" font-size="10.00">+ getSpriteBounds()</text>
<text text-anchor="start" x="162.5" y="-577.5" font-family="Helvetica,sans-Serif" font-size="10.00">+ adjustSpriteBounds()</text>
<text text-anchor="start" x="162.5" y="-566.5" font-family="Helvetica,sans-Serif" font-size="10.00">+ adjustBounds()</text>
<text text-anchor="start" x="162.5" y="-555.5" font-family="Helvetica,sans-Serif" font-size="10.00">+ getClassName()</text>
<text text-anchor="start" x="162.5" y="-544.5" font-family="Helvetica,sans-Serif" font-size="10.00">+ saveCurrentNode()</text>
<text text-anchor="start" x="162.5" y="-533.5" font-family="Helvetica,sans-Serif" font-size="10.00">+ loadCurrentNode()</text>
<text text-anchor="start" x="162.5" y="-522.5" font-family="Helvetica,sans-Serif" font-size="10.00"># drawCurrent()</text>
<text text-anchor="start" x="162.5" y="-511.5" font-family="Helvetica,sans-Serif" font-size="10.00"># updateCurrent()</text>
<text text-anchor="start" x="162.5" y="-500.5" font-family="Helvetica,sans-Serif" font-size="10.00"># shouldSave()</text>
</a>
</g>
</g>
<!-- Node4&#45;&gt;Node3 -->
<g id="edge3" class="edge">
<title>Node4&#45;&gt;Node3</title>
<path fill="none" stroke="#63b8ff" d="M219.5,-482.57C219.5,-473.38 219.5,-464.23 219.5,-455.31"/>
<polygon fill="none" stroke="#63b8ff" points="216,-482.28 219.5,-492.28 223,-482.28 216,-482.28"/>
</g>
<!-- Node5 -->
<g id="node5" class="node">
<title>Node5</title>
<g id="a_node5"><a xlink:href="classSceneNode.html" target="_top" xlink:title="A node in the scene graph.">
<polygon fill="white" stroke="#666666" points="78,-785.5 78,-1051.5 213,-1051.5 213,-785.5 78,-785.5"/>
<text text-anchor="middle" x="145.5" y="-1039.5" font-family="Helvetica,sans-Serif" font-size="10.00">SceneNode</text>
<polyline fill="none" stroke="#666666" points="78,-1032.5 213,-1032.5"/>
<text text-anchor="middle" x="145.5" y="-1020.5" font-family="Helvetica,sans-Serif" font-size="10.00"> </text>
<polyline fill="none" stroke="#666666" points="78,-1013.5 213,-1013.5"/>
<text text-anchor="start" x="86" y="-1001.5" font-family="Helvetica,sans-Serif" font-size="10.00">+ SceneNode()</text>
<text text-anchor="start" x="86" y="-990.5" font-family="Helvetica,sans-Serif" font-size="10.00">+ attachChild()</text>
<text text-anchor="start" x="86" y="-979.5" font-family="Helvetica,sans-Serif" font-size="10.00">+ detachChild()</text>
<text text-anchor="start" x="86" y="-968.5" font-family="Helvetica,sans-Serif" font-size="10.00">+ update()</text>
<text text-anchor="start" x="86" y="-957.5" font-family="Helvetica,sans-Serif" font-size="10.00">+ getAbsTransform()</text>
<text text-anchor="start" x="86" y="-946.5" font-family="Helvetica,sans-Serif" font-size="10.00">+ getAbsPosition()</text>
<text text-anchor="start" x="86" y="-935.5" font-family="Helvetica,sans-Serif" font-size="10.00">+ checkNodeCollision()</text>
<text text-anchor="start" x="86" y="-924.5" font-family="Helvetica,sans-Serif" font-size="10.00">+ checkSceneCollision()</text>
<text text-anchor="start" x="86" y="-913.5" font-family="Helvetica,sans-Serif" font-size="10.00">+ setDebug()</text>
<text text-anchor="start" x="86" y="-902.5" font-family="Helvetica,sans-Serif" font-size="10.00">+ getCategory()</text>
<text text-anchor="start" x="86" y="-891.5" font-family="Helvetica,sans-Serif" font-size="10.00">+ saveNode()</text>
<text text-anchor="start" x="86" y="-880.5" font-family="Helvetica,sans-Serif" font-size="10.00">+ operator&lt;()</text>
<text text-anchor="start" x="86" y="-869.5" font-family="Helvetica,sans-Serif" font-size="10.00">+ getBoundingRect()</text>
<text text-anchor="start" x="86" y="-858.5" font-family="Helvetica,sans-Serif" font-size="10.00">+ getLocalBounds()</text>
<text text-anchor="start" x="86" y="-847.5" font-family="Helvetica,sans-Serif" font-size="10.00">+ draw()</text>
<text text-anchor="start" x="86" y="-836.5" font-family="Helvetica,sans-Serif" font-size="10.00"># getClassName()</text>
<text text-anchor="start" x="86" y="-825.5" font-family="Helvetica,sans-Serif" font-size="10.00"># saveCurrentNode()</text>
<text text-anchor="start" x="86" y="-814.5" font-family="Helvetica,sans-Serif" font-size="10.00"># loadCurrentNode()</text>
<text text-anchor="start" x="86" y="-803.5" font-family="Helvetica,sans-Serif" font-size="10.00"># onLoadingFinished()</text>
<text text-anchor="start" x="86" y="-792.5" font-family="Helvetica,sans-Serif" font-size="10.00"># shouldSave()</text>
</a>
</g>
</g>
<!-- Node5&#45;&gt;Node4 -->
<g id="edge4" class="edge">
<title>Node5&#45;&gt;Node4</title>
<path fill="none" stroke="#63b8ff" d="M180.56,-774.91C183.64,-762.36 186.75,-749.73 189.78,-737.38"/>
<polygon fill="none" stroke="#63b8ff" points="177.2,-773.9 178.21,-784.45 184,-775.57 177.2,-773.9"/>
</g>
<!-- Node6 -->
<g id="node6" class="node">
<title>Node6</title>
<g id="a_node6"><a xlink:title=" ">
<polygon fill="white" stroke="#bfbfbf" points="0,-1089.5 0,-1146.5 77,-1146.5 77,-1089.5 0,-1089.5"/>
<text text-anchor="middle" x="38.5" y="-1134.5" font-family="Helvetica,sans-Serif" font-size="10.00">sf::Drawable</text>
<polyline fill="none" stroke="#bfbfbf" points="0,-1127.5 77,-1127.5"/>
<text text-anchor="middle" x="38.5" y="-1115.5" font-family="Helvetica,sans-Serif" font-size="10.00"> </text>
<polyline fill="none" stroke="#bfbfbf" points="0,-1108.5 77,-1108.5"/>
<text text-anchor="middle" x="38.5" y="-1096.5" font-family="Helvetica,sans-Serif" font-size="10.00"> </text>
</a>
</g>
</g>
<!-- Node6&#45;&gt;Node5 -->
<g id="edge5" class="edge">
<title>Node6&#45;&gt;Node5</title>
<path fill="none" stroke="#63b8ff" d="M58.82,-1079.49C64.57,-1068.89 71.15,-1056.73 78.07,-1043.96"/>
<polygon fill="none" stroke="#63b8ff" points="55.79,-1077.75 54.1,-1088.21 61.94,-1081.08 55.79,-1077.75"/>
</g>
<!-- Node7 -->
<g id="node7" class="node">
<title>Node7</title>
<g id="a_node7"><a xlink:title=" ">
<polygon fill="white" stroke="#bfbfbf" points="95,-1089.5 95,-1146.5 196,-1146.5 196,-1089.5 95,-1089.5"/>
<text text-anchor="middle" x="145.5" y="-1134.5" font-family="Helvetica,sans-Serif" font-size="10.00">sf::Transformable</text>
<polyline fill="none" stroke="#bfbfbf" points="95,-1127.5 196,-1127.5"/>
<text text-anchor="middle" x="145.5" y="-1115.5" font-family="Helvetica,sans-Serif" font-size="10.00"> </text>
<polyline fill="none" stroke="#bfbfbf" points="95,-1108.5 196,-1108.5"/>
<text text-anchor="middle" x="145.5" y="-1096.5" font-family="Helvetica,sans-Serif" font-size="10.00"> </text>
</a>
</g>
</g>
<!-- Node7&#45;&gt;Node5 -->
<g id="edge6" class="edge">
<title>Node7&#45;&gt;Node5</title>
<path fill="none" stroke="#63b8ff" d="M145.5,-1078.16C145.5,-1069.92 145.5,-1060.79 145.5,-1051.18"/>
<polygon fill="none" stroke="#63b8ff" points="142,-1078.02 145.5,-1088.02 149,-1078.02 142,-1078.02"/>
</g>
<!-- Node8 -->
<g id="node8" class="node">
<title>Node8</title>
<g id="a_node8"><a xlink:title=" ">
<polygon fill="white" stroke="#bfbfbf" points="214.5,-1089.5 214.5,-1146.5 310.5,-1146.5 310.5,-1089.5 214.5,-1089.5"/>
<text text-anchor="middle" x="262.5" y="-1134.5" font-family="Helvetica,sans-Serif" font-size="10.00">sf::NonCopyable</text>
<polyline fill="none" stroke="#bfbfbf" points="214.5,-1127.5 310.5,-1127.5"/>
<text text-anchor="middle" x="262.5" y="-1115.5" font-family="Helvetica,sans-Serif" font-size="10.00"> </text>
<polyline fill="none" stroke="#bfbfbf" points="214.5,-1108.5 310.5,-1108.5"/>
<text text-anchor="middle" x="262.5" y="-1096.5" font-family="Helvetica,sans-Serif" font-size="10.00"> </text>
</a>
</g>
</g>
<!-- Node8&#45;&gt;Node5 -->
<g id="edge7" class="edge">
<title>Node8&#45;&gt;Node5</title>
<path fill="none" stroke="#8b1a1a" d="M238.82,-1080.06C233.08,-1070.93 227.01,-1061.15 221.5,-1052 218.7,-1047.34 215.86,-1042.58 213,-1037.76"/>
<polygon fill="none" stroke="#8b1a1a" points="235.77,-1081.78 244.08,-1088.36 241.69,-1078.04 235.77,-1081.78"/>
</g>
<!-- Node9 -->
<g id="node9" class="node">
<title>Node9</title>
<g id="a_node9"><a xlink:href="classAnimationMachine.html" target="_top" xlink:title="Component of Entity that holds the animation data, can be used to replace the sprite of the entity.">
<polygon fill="white" stroke="#666666" points="231,-851.5 231,-985.5 358,-985.5 358,-851.5 231,-851.5"/>
<text text-anchor="middle" x="294.5" y="-973.5" font-family="Helvetica,sans-Serif" font-size="10.00">AnimationMachine</text>
<polyline fill="none" stroke="#666666" points="231,-966.5 358,-966.5"/>
<text text-anchor="middle" x="294.5" y="-954.5" font-family="Helvetica,sans-Serif" font-size="10.00"> </text>
<polyline fill="none" stroke="#666666" points="231,-947.5 358,-947.5"/>
<text text-anchor="start" x="239" y="-935.5" font-family="Helvetica,sans-Serif" font-size="10.00">+ AnimationMachine()</text>
<text text-anchor="start" x="239" y="-924.5" font-family="Helvetica,sans-Serif" font-size="10.00">+ AnimationMachine()</text>
<text text-anchor="start" x="239" y="-913.5" font-family="Helvetica,sans-Serif" font-size="10.00">+ update()</text>
<text text-anchor="start" x="239" y="-902.5" font-family="Helvetica,sans-Serif" font-size="10.00">+ toSprite()</text>
<text text-anchor="start" x="239" y="-891.5" font-family="Helvetica,sans-Serif" font-size="10.00">+ isFinished()</text>
<text text-anchor="start" x="239" y="-880.5" font-family="Helvetica,sans-Serif" font-size="10.00">+ getID()</text>
<text text-anchor="start" x="239" y="-869.5" font-family="Helvetica,sans-Serif" font-size="10.00">+ save()</text>
<text text-anchor="start" x="239" y="-858.5" font-family="Helvetica,sans-Serif" font-size="10.00">+ load()</text>
</a>
</g>
</g>
<!-- Node9&#45;&gt;Node4 -->
<g id="edge8" class="edge">
<title>Node9&#45;&gt;Node4</title>
<path fill="none" stroke="#404040" d="M278.13,-851.82C270.65,-821.8 261.51,-785.09 252.69,-749.69"/>
<polygon fill="none" stroke="#404040" points="252.7,-749.75 247.37,-744.89 249.8,-738.1 255.13,-742.96 252.7,-749.75"/>
<text text-anchor="middle" x="288" y="-759" font-family="Helvetica,sans-Serif" font-size="10.00"> #animation</text>
</g>
</g>
</svg>
