<?xml version="1.0" encoding="UTF-8" standalone="no"?>
<!DOCTYPE svg PUBLIC "-//W3C//DTD SVG 1.1//EN"
 "http://www.w3.org/Graphics/SVG/1.1/DTD/svg11.dtd">
<!-- Generated by graphviz version 7.0.5 (0)
 -->
<!-- Title: SceneNode Pages: 1 -->
<svg width="521pt" height="577pt"
 viewBox="0.00 0.00 521.00 577.00" xmlns="http://www.w3.org/2000/svg" xmlns:xlink="http://www.w3.org/1999/xlink">
<g id="graph0" class="graph" transform="scale(1 1) rotate(0) translate(4 573)">
<title>SceneNode</title>
<!-- Node1 -->
<g id="node1" class="node">
<title>Node1</title>
<g id="a_node1"><a xlink:title="A node in the scene graph.">
<polygon fill="#999999" stroke="#666666" points="420.5,-327 10.5,-327 10.5,0 420.5,0 420.5,-327"/>
<text text-anchor="middle" x="215.5" y="-315" font-family="Helvetica,sans-Serif" font-size="10.00">{SceneNode</text>
<text text-anchor="start" x="18.5" y="-304" font-family="Helvetica,sans-Serif" font-size="10.00">|&#45; int idx</text>
<text text-anchor="start" x="18.5" y="-293" font-family="Helvetica,sans-Serif" font-size="10.00">&#45; bool debug</text>
<text text-anchor="start" x="18.5" y="-282" font-family="Helvetica,sans-Serif" font-size="10.00">&#45; bool applyDebugToChildren</text>
<text text-anchor="start" x="18.5" y="-271" font-family="Helvetica,sans-Serif" font-size="10.00">|+ &#160;SceneNode()</text>
<text text-anchor="start" x="18.5" y="-260" font-family="Helvetica,sans-Serif" font-size="10.00">+ virtual void attachChild(Ptr child)</text>
<text text-anchor="start" x="18.5" y="-249" font-family="Helvetica,sans-Serif" font-size="10.00">+ virtual Ptr detachChild(const SceneNode &amp;child)</text>
<text text-anchor="start" x="18.5" y="-238" font-family="Helvetica,sans-Serif" font-size="10.00">+ virtual void update(sf::Time dt)</text>
<text text-anchor="start" x="18.5" y="-227" font-family="Helvetica,sans-Serif" font-size="10.00">+ sf::Transform getAbsTransform() const</text>
<text text-anchor="start" x="18.5" y="-216" font-family="Helvetica,sans-Serif" font-size="10.00">+ sf::Vector2f getAbsPosition() const</text>
<text text-anchor="start" x="18.5" y="-205" font-family="Helvetica,sans-Serif" font-size="10.00">+ void checkNodeCollision(SceneNode &amp;node, std::set&lt; Pair &gt; &amp;collisions)</text>
<text text-anchor="start" x="18.5" y="-194" font-family="Helvetica,sans-Serif" font-size="10.00">+ void checkSceneCollision(SceneNode &amp;node, std::set&lt; Pair &gt; &amp;collisions)</text>
<text text-anchor="start" x="18.5" y="-183" font-family="Helvetica,sans-Serif" font-size="10.00">+ void setDebug(bool on, bool recursive=false)</text>
<text text-anchor="start" x="18.5" y="-172" font-family="Helvetica,sans-Serif" font-size="10.00">+ virtual Category::Type getCategory() const</text>
<text text-anchor="start" x="18.5" y="-161" font-family="Helvetica,sans-Serif" font-size="10.00">+ virtual void saveNode(std::ostream &amp;out) const</text>
<text text-anchor="start" x="18.5" y="-150" font-family="Helvetica,sans-Serif" font-size="10.00">+ bool operator&lt;(SceneNode const &amp;other) const</text>
<text text-anchor="start" x="18.5" y="-139" font-family="Helvetica,sans-Serif" font-size="10.00">+ virtual sf::FloatRect getBoundingRect() const</text>
<text text-anchor="start" x="18.5" y="-128" font-family="Helvetica,sans-Serif" font-size="10.00">+ virtual sf::FloatRect getLocalBounds() const</text>
<text text-anchor="start" x="18.5" y="-117" font-family="Helvetica,sans-Serif" font-size="10.00">+ virtual void draw(sf::RenderTarget &amp;target, sf::RenderStates state) const</text>
<text text-anchor="start" x="18.5" y="-106" font-family="Helvetica,sans-Serif" font-size="10.00"># virtual std::string getClassName() const</text>
<text text-anchor="start" x="18.5" y="-95" font-family="Helvetica,sans-Serif" font-size="10.00"># virtual void saveCurrentNode(std::ostream &amp;out=std::cout) const</text>
<text text-anchor="start" x="18.5" y="-84" font-family="Helvetica,sans-Serif" font-size="10.00"># virtual void loadCurrentNode(std::istream &amp;in=std::cin)</text>
<text text-anchor="start" x="18.5" y="-73" font-family="Helvetica,sans-Serif" font-size="10.00"># virtual void onLoadingFinished()</text>
<text text-anchor="start" x="18.5" y="-62" font-family="Helvetica,sans-Serif" font-size="10.00"># virtual bool shouldSave() const</text>
<text text-anchor="start" x="18.5" y="-51" font-family="Helvetica,sans-Serif" font-size="10.00">&#45; void drawBoundingBox(sf::RenderTarget &amp;target, sf::RenderStates states) const</text>
<text text-anchor="start" x="18.5" y="-40" font-family="Helvetica,sans-Serif" font-size="10.00">&#45; virtual void drawCurrent(sf::RenderTarget &amp;target, sf::RenderStates state) const</text>
<text text-anchor="start" x="18.5" y="-29" font-family="Helvetica,sans-Serif" font-size="10.00">&#45; virtual void updateCurrent(sf::Time dt)</text>
<text text-anchor="start" x="18.5" y="-18" font-family="Helvetica,sans-Serif" font-size="10.00">&#45; void updateChildren(sf::Time dt)</text>
<text text-anchor="middle" x="215.5" y="-7" font-family="Helvetica,sans-Serif" font-size="10.00">}</text>
</a>
</g>
</g>
<!-- Node1&#45;&gt;Node1 -->
<g id="edge9" class="edge">
<title>Node1&#45;&gt;Node1</title>
<path fill="none" stroke="#404040" d="M420.75,-186.84C431.89,-181.14 438.5,-173.36 438.5,-163.5 438.5,-157.34 435.92,-151.99 431.26,-147.45"/>
<polygon fill="none" stroke="#404040" points="431.35,-147.51 424.14,-147.38 421.49,-140.67 428.7,-140.8 431.35,-147.51"/>
<text text-anchor="middle" x="462.5" y="-161" font-family="Helvetica,sans-Serif" font-size="10.00"> &#45;mParent</text>
</g>
<!-- Node2 -->
<g id="node2" class="node">
<title>Node2</title>
<g id="a_node2"><a xlink:title=" ">
<polygon fill="white" stroke="#666666" points="83,-404 0,-404 0,-374 83,-374 83,-404"/>
<text text-anchor="middle" x="41.5" y="-392" font-family="Helvetica,sans-Serif" font-size="10.00">{sf::Drawable</text>
<text text-anchor="middle" x="41.5" y="-381" font-family="Helvetica,sans-Serif" font-size="10.00">||}</text>
</a>
</g>
</g>
<!-- Node2&#45;&gt;Node1 -->
<g id="edge1" class="edge">
<title>Node2&#45;&gt;Node1</title>
<path fill="none" stroke="#63b8ff" d="M59.58,-364.78C67.52,-354.58 77.59,-341.64 88.78,-327.28"/>
<polygon fill="none" stroke="#63b8ff" points="56.96,-362.44 53.58,-372.48 62.48,-366.74 56.96,-362.44"/>
</g>
<!-- Node3 -->
<g id="node3" class="node">
<title>Node3</title>
<g id="a_node3"><a xlink:title=" ">
<polygon fill="white" stroke="#666666" points="208,-404 101,-404 101,-374 208,-374 208,-404"/>
<text text-anchor="middle" x="154.5" y="-392" font-family="Helvetica,sans-Serif" font-size="10.00">{sf::Transformable</text>
<text text-anchor="middle" x="154.5" y="-381" font-family="Helvetica,sans-Serif" font-size="10.00">||}</text>
</a>
</g>
</g>
<!-- Node3&#45;&gt;Node1 -->
<g id="edge2" class="edge">
<title>Node3&#45;&gt;Node1</title>
<path fill="none" stroke="#63b8ff" d="M161.36,-362.85C164.06,-352.97 167.4,-340.75 171.07,-327.28"/>
<polygon fill="none" stroke="#63b8ff" points="158.06,-361.65 158.81,-372.22 164.82,-363.49 158.06,-361.65"/>
</g>
<!-- Node4 -->
<g id="node4" class="node">
<title>Node4</title>
<g id="a_node4"><a xlink:title=" ">
<polygon fill="white" stroke="#666666" points="328.5,-404 226.5,-404 226.5,-374 328.5,-374 328.5,-404"/>
<text text-anchor="middle" x="277.5" y="-392" font-family="Helvetica,sans-Serif" font-size="10.00">{sf::NonCopyable</text>
<text text-anchor="middle" x="277.5" y="-381" font-family="Helvetica,sans-Serif" font-size="10.00">||}</text>
</a>
</g>
</g>
<!-- Node4&#45;&gt;Node1 -->
<g id="edge3" class="edge">
<title>Node4&#45;&gt;Node1</title>
<path fill="none" stroke="#8b1a1a" d="M270.52,-362.85C267.78,-352.97 264.39,-340.75 260.65,-327.28"/>
<polygon fill="none" stroke="#8b1a1a" points="267.08,-363.52 273.12,-372.22 273.82,-361.65 267.08,-363.52"/>
</g>
<!-- Node5 -->
<g id="node5" class="node">
<title>Node5</title>
<g id="a_node5"><a xlink:title=" ">
<polygon fill="white" stroke="#666666" points="456.5,-404 346.5,-404 346.5,-374 456.5,-374 456.5,-404"/>
<text text-anchor="middle" x="401.5" y="-392" font-family="Helvetica,sans-Serif" font-size="10.00">{std::vector&lt; Ptr &gt;</text>
<text text-anchor="middle" x="401.5" y="-381" font-family="Helvetica,sans-Serif" font-size="10.00">||}</text>
</a>
</g>
</g>
<!-- Node5&#45;&gt;Node1 -->
<g id="edge4" class="edge">
<title>Node5&#45;&gt;Node1</title>
<path fill="none" stroke="#404040" d="M389.58,-373.68C382.08,-364.67 371.52,-351.97 359.25,-337.24"/>
<polygon fill="none" stroke="#404040" points="359.22,-337.19 352.3,-335.14 351.54,-327.97 358.45,-330.02 359.22,-337.19"/>
<text text-anchor="middle" x="404.5" y="-348" font-family="Helvetica,sans-Serif" font-size="10.00"> &#45;mChildren</text>
</g>
<!-- Node6 -->
<g id="node6" class="node">
<title>Node6</title>
<g id="a_node6"><a xlink:title=" ">
<polygon fill="white" stroke="#666666" points="391.5,-492 267.5,-492 267.5,-451 391.5,-451 391.5,-492"/>
<text text-anchor="middle" x="329.5" y="-480" font-family="Helvetica,sans-Serif" font-size="10.00">{std::unique_ptr&lt; T &gt;</text>
<text text-anchor="start" x="275.5" y="-469" font-family="Helvetica,sans-Serif" font-size="10.00">||+ T * operator&#45;&gt;()</text>
<text text-anchor="middle" x="329.5" y="-458" font-family="Helvetica,sans-Serif" font-size="10.00">}</text>
</a>
</g>
</g>
<!-- Node6&#45;&gt;Node5 -->
<g id="edge5" class="edge">
<title>Node6&#45;&gt;Node5</title>
<path fill="none" stroke="#404040" d="M341.66,-450.74C347.71,-441.58 355.45,-430.8 363.5,-422 366.35,-418.88 369.51,-415.79 372.74,-412.82"/>
<polygon fill="none" stroke="#404040" points="372.71,-412.84 374.63,-405.89 381.78,-404.99 379.87,-411.94 372.71,-412.84"/>
<text text-anchor="middle" x="392.5" y="-425" font-family="Helvetica,sans-Serif" font-size="10.00"> +elements</text>
</g>
<!-- Node7 -->
<g id="node7" class="node">
<title>Node7</title>
<g id="a_node7"><a xlink:title=" ">
<polygon fill="white" stroke="#666666" points="410,-569 381,-569 381,-539 410,-539 410,-569"/>
<text text-anchor="middle" x="395.5" y="-557" font-family="Helvetica,sans-Serif" font-size="10.00">{T</text>
<text text-anchor="middle" x="395.5" y="-546" font-family="Helvetica,sans-Serif" font-size="10.00">||}</text>
</a>
</g>
</g>
<!-- Node7&#45;&gt;Node6 -->
<g id="edge6" class="edge">
<title>Node7&#45;&gt;Node6</title>
<path fill="none" stroke="#404040" d="M383.7,-538.61C375.42,-528.5 364.04,-514.63 353.85,-502.2"/>
<polygon fill="none" stroke="#404040" points="353.84,-502.19 346.94,-500.08 346.23,-492.91 353.13,-495.01 353.84,-502.19"/>
<text text-anchor="middle" x="381" y="-513" font-family="Helvetica,sans-Serif" font-size="10.00"> +ptr</text>
</g>
<!-- Node8 -->
<g id="node8" class="node">
<title>Node8</title>
<g id="a_node8"><a xlink:title=" ">
<polygon fill="white" stroke="#666666" points="513,-486.5 410,-486.5 410,-456.5 513,-456.5 513,-486.5"/>
<text text-anchor="middle" x="461.5" y="-474.5" font-family="Helvetica,sans-Serif" font-size="10.00">{std::vector&lt; T &gt;</text>
<text text-anchor="middle" x="461.5" y="-463.5" font-family="Helvetica,sans-Serif" font-size="10.00">||}</text>
</a>
</g>
</g>
<!-- Node7&#45;&gt;Node8 -->
<g id="edge8" class="edge">
<title>Node7&#45;&gt;Node8</title>
<path fill="none" stroke="#404040" d="M407.3,-538.61C416.87,-526.93 430.57,-510.22 441.8,-496.52"/>
<polygon fill="none" stroke="#404040" points="441.62,-496.74 442.33,-489.57 449.23,-487.46 448.52,-494.64 441.62,-496.74"/>
<text text-anchor="middle" x="458.5" y="-513" font-family="Helvetica,sans-Serif" font-size="10.00"> +elements</text>
</g>
<!-- Node8&#45;&gt;Node5 -->
<g id="edge7" class="edge">
<title>Node8&#45;&gt;Node5</title>
<path fill="none" stroke="orange" d="M444.08,-447.13C433.75,-433.27 420.98,-416.14 412.13,-404.27"/>
<polygon fill="orange" stroke="orange" points="441.09,-448.97 449.87,-454.89 446.7,-444.79 441.09,-448.97"/>
<text text-anchor="middle" x="452.5" y="-425" font-family="Helvetica,sans-Serif" font-size="10.00"> &lt; Ptr &gt;</text>
</g>
</g>
</svg>
