<?xml version="1.0" encoding="UTF-8" standalone="no"?>
<!DOCTYPE svg PUBLIC "-//W3C//DTD SVG 1.1//EN"
 "http://www.w3.org/Graphics/SVG/1.1/DTD/svg11.dtd">
<!-- Generated by graphviz version 7.0.5 (0)
 -->
<!-- Title: SmallSizePickup Pages: 1 -->
<!--zoomable 777 -->
<svg id="main" version="1.1" xmlns="http://www.w3.org/2000/svg" xmlns:xlink="http://www.w3.org/1999/xlink" xml:space="preserve" onload="init(evt)">
<style type="text/css"><![CDATA[
.edge:hover path { stroke: red; }
.edge:hover polygon { stroke: red; fill: red; }
]]></style>
<script type="text/javascript"><![CDATA[
var edges = document.getElementsByTagName('g');
if (edges && edges.length) {
  for (var i=0;i<edges.length;i++) {
    if (edges[i].id.substr(0,4)=='edge') {
      edges[i].setAttribute('class','edge');
    }
  }
}
]]></script>
        <defs>
                <circle id="rim" cx="0" cy="0" r="7"/>
                <circle id="rim2" cx="0" cy="0" r="3.5"/>
                <g id="zoomPlus">
                        <use xlink:href="#rim" fill="#404040">
                                <set attributeName="fill" to="#808080" begin="zoomplus.mouseover" end="zoomplus.mouseout"/>
                        </use>
                        <path d="M-4,0h8M0,-4v8" fill="none" stroke="white" stroke-width="1.5" pointer-events="none"/>
                </g>
                <g id="zoomMin">
                        <use xlink:href="#rim" fill="#404040">
                                <set attributeName="fill" to="#808080" begin="zoomminus.mouseover" end="zoomminus.mouseout"/>
                        </use>
                        <path d="M-4,0h8" fill="none" stroke="white" stroke-width="1.5" pointer-events="none"/>
                </g>
                <g id="dirArrow">
                        <path fill="none" stroke="white" stroke-width="1.5" d="M0,-3.0v7 M-2.5,-0.5L0,-3.0L2.5,-0.5"/>
                </g>
               <g id="resetDef">
                       <use xlink:href="#rim2" fill="#404040">
                               <set attributeName="fill" to="#808080" begin="reset.mouseover" end="reset.mouseout"/>
                       </use>
               </g>
        </defs>

<script type="text/javascript">
var viewWidth = 319;
var viewHeight = 777;
var sectionId = 'dynsection-0';
</script>
<script xlink:href="svgpan.js"/>
<svg id="graph" class="graph">
<g id="viewport">
<title>SmallSizePickup</title>
<!-- Node1 -->
<g id="node1" class="node">
<title>Node1</title>
<g id="a_node1"><a xlink:title=" ">
<polygon fill="#999999" stroke="#666666" points="88,-0.5 88,-79.5 203,-79.5 203,-0.5 88,-0.5"/>
<text text-anchor="middle" x="145.5" y="-67.5" font-family="Helvetica,sans-Serif" font-size="10.00">SmallSizePickup</text>
<polyline fill="none" stroke="#666666" points="88,-60.5 203,-60.5"/>
<text text-anchor="middle" x="145.5" y="-48.5" font-family="Helvetica,sans-Serif" font-size="10.00"> </text>
<polyline fill="none" stroke="#666666" points="88,-41.5 203,-41.5"/>
<text text-anchor="start" x="96" y="-29.5" font-family="Helvetica,sans-Serif" font-size="10.00">+ SmallSizePickup()</text>
<text text-anchor="start" x="96" y="-18.5" font-family="Helvetica,sans-Serif" font-size="10.00">+ getCategory()</text>
<text text-anchor="start" x="96" y="-7.5" font-family="Helvetica,sans-Serif" font-size="10.00">+ getClassName()</text>
</a>
</g>
</g>
<!-- Node2 -->
<g id="node2" class="node">
<title>Node2</title>
<g id="a_node2"><a xlink:href="classPlayerCollidable.html" target="_top" xlink:title=" ">
<polygon fill="white" stroke="#bfbfbf" points="5.5,-199 5.5,-289 137.5,-289 137.5,-199 5.5,-199"/>
<text text-anchor="middle" x="71.5" y="-277" font-family="Helvetica,sans-Serif" font-size="10.00">PlayerCollidable</text>
<polyline fill="none" stroke="#bfbfbf" points="5.5,-270 137.5,-270"/>
<text text-anchor="start" x="13.5" y="-258" font-family="Helvetica,sans-Serif" font-size="10.00"># isCollidingWithPlayer</text>
<text text-anchor="start" x="13.5" y="-247" font-family="Helvetica,sans-Serif" font-size="10.00"># player</text>
<polyline fill="none" stroke="#bfbfbf" points="5.5,-240 137.5,-240"/>
<text text-anchor="start" x="13.5" y="-228" font-family="Helvetica,sans-Serif" font-size="10.00">+ onPlayerCollision()</text>
<text text-anchor="start" x="13.5" y="-217" font-family="Helvetica,sans-Serif" font-size="10.00">+ updateCurrent()</text>
<text text-anchor="start" x="13.5" y="-206" font-family="Helvetica,sans-Serif" font-size="10.00">+ SceneNode()</text>
</a>
</g>
</g>
<!-- Node2&#45;&gt;Node1 -->
<g id="edge1" class="edge">
<title>Node2&#45;&gt;Node1</title>
<path fill="none" stroke="#63b8ff" d="M91.37,-188.77C104.03,-154.2 120.13,-110.25 131.47,-79.3"/>
<polygon fill="none" stroke="#63b8ff" points="88.23,-187.15 88.08,-197.75 94.8,-189.56 88.23,-187.15"/>
</g>
<!-- Node3 -->
<g id="node3" class="node">
<title>Node3</title>
<g id="a_node3"><a xlink:href="classSceneNode.html" target="_top" xlink:title="A node in the scene graph.">
<polygon fill="white" stroke="#666666" points="78,-408.5 78,-674.5 213,-674.5 213,-408.5 78,-408.5"/>
<text text-anchor="middle" x="145.5" y="-662.5" font-family="Helvetica,sans-Serif" font-size="10.00">SceneNode</text>
<polyline fill="none" stroke="#666666" points="78,-655.5 213,-655.5"/>
<text text-anchor="middle" x="145.5" y="-643.5" font-family="Helvetica,sans-Serif" font-size="10.00"> </text>
<polyline fill="none" stroke="#666666" points="78,-636.5 213,-636.5"/>
<text text-anchor="start" x="86" y="-624.5" font-family="Helvetica,sans-Serif" font-size="10.00">+ SceneNode()</text>
<text text-anchor="start" x="86" y="-613.5" font-family="Helvetica,sans-Serif" font-size="10.00">+ attachChild()</text>
<text text-anchor="start" x="86" y="-602.5" font-family="Helvetica,sans-Serif" font-size="10.00">+ detachChild()</text>
<text text-anchor="start" x="86" y="-591.5" font-family="Helvetica,sans-Serif" font-size="10.00">+ update()</text>
<text text-anchor="start" x="86" y="-580.5" font-family="Helvetica,sans-Serif" font-size="10.00">+ getAbsTransform()</text>
<text text-anchor="start" x="86" y="-569.5" font-family="Helvetica,sans-Serif" font-size="10.00">+ getAbsPosition()</text>
<text text-anchor="start" x="86" y="-558.5" font-family="Helvetica,sans-Serif" font-size="10.00">+ checkNodeCollision()</text>
<text text-anchor="start" x="86" y="-547.5" font-family="Helvetica,sans-Serif" font-size="10.00">+ checkSceneCollision()</text>
<text text-anchor="start" x="86" y="-536.5" font-family="Helvetica,sans-Serif" font-size="10.00">+ setDebug()</text>
<text text-anchor="start" x="86" y="-525.5" font-family="Helvetica,sans-Serif" font-size="10.00">+ getCategory()</text>
<text text-anchor="start" x="86" y="-514.5" font-family="Helvetica,sans-Serif" font-size="10.00">+ saveNode()</text>
<text text-anchor="start" x="86" y="-503.5" font-family="Helvetica,sans-Serif" font-size="10.00">+ operator&lt;()</text>
<text text-anchor="start" x="86" y="-492.5" font-family="Helvetica,sans-Serif" font-size="10.00">+ getBoundingRect()</text>
<text text-anchor="start" x="86" y="-481.5" font-family="Helvetica,sans-Serif" font-size="10.00">+ getLocalBounds()</text>
<text text-anchor="start" x="86" y="-470.5" font-family="Helvetica,sans-Serif" font-size="10.00">+ draw()</text>
<text text-anchor="start" x="86" y="-459.5" font-family="Helvetica,sans-Serif" font-size="10.00"># getClassName()</text>
<text text-anchor="start" x="86" y="-448.5" font-family="Helvetica,sans-Serif" font-size="10.00"># saveCurrentNode()</text>
<text text-anchor="start" x="86" y="-437.5" font-family="Helvetica,sans-Serif" font-size="10.00"># loadCurrentNode()</text>
<text text-anchor="start" x="86" y="-426.5" font-family="Helvetica,sans-Serif" font-size="10.00"># onLoadingFinished()</text>
<text text-anchor="start" x="86" y="-415.5" font-family="Helvetica,sans-Serif" font-size="10.00"># shouldSave()</text>
</a>
</g>
</g>
<!-- Node3&#45;&gt;Node2 -->
<g id="edge2" class="edge">
<title>Node3&#45;&gt;Node2</title>
<path fill="none" stroke="#63b8ff" d="M109.71,-397.6C99.8,-358.02 89.77,-317.98 82.48,-288.85"/>
<polygon fill="none" stroke="#63b8ff" points="106.31,-398.42 112.14,-407.27 113.1,-396.72 106.31,-398.42"/>
</g>
<!-- Node7 -->
<g id="node7" class="node">
<title>Node7</title>
<g id="a_node7"><a xlink:href="classEntity.html" target="_top" xlink:title=" ">
<polygon fill="white" stroke="#666666" points="155.5,-116.5 155.5,-371.5 285.5,-371.5 285.5,-116.5 155.5,-116.5"/>
<text text-anchor="middle" x="220.5" y="-359.5" font-family="Helvetica,sans-Serif" font-size="10.00">Entity</text>
<polyline fill="none" stroke="#666666" points="155.5,-352.5 285.5,-352.5"/>
<text text-anchor="start" x="163.5" y="-340.5" font-family="Helvetica,sans-Serif" font-size="10.00"># velocity</text>
<text text-anchor="start" x="163.5" y="-329.5" font-family="Helvetica,sans-Serif" font-size="10.00"># localBounds</text>
<text text-anchor="start" x="163.5" y="-318.5" font-family="Helvetica,sans-Serif" font-size="10.00"># spriteBounds</text>
<text text-anchor="start" x="163.5" y="-307.5" font-family="Helvetica,sans-Serif" font-size="10.00"># animation</text>
<polyline fill="none" stroke="#666666" points="155.5,-300.5 285.5,-300.5"/>
<text text-anchor="start" x="163.5" y="-288.5" font-family="Helvetica,sans-Serif" font-size="10.00">+ Entity()</text>
<text text-anchor="start" x="163.5" y="-277.5" font-family="Helvetica,sans-Serif" font-size="10.00">+ Entity()</text>
<text text-anchor="start" x="163.5" y="-266.5" font-family="Helvetica,sans-Serif" font-size="10.00">+ Entity()</text>
<text text-anchor="start" x="163.5" y="-255.5" font-family="Helvetica,sans-Serif" font-size="10.00">+ Entity()</text>
<text text-anchor="start" x="163.5" y="-244.5" font-family="Helvetica,sans-Serif" font-size="10.00">+ getVelocity()</text>
<text text-anchor="start" x="163.5" y="-233.5" font-family="Helvetica,sans-Serif" font-size="10.00">+ setVelocity()</text>
<text text-anchor="start" x="163.5" y="-222.5" font-family="Helvetica,sans-Serif" font-size="10.00">+ getLocalBounds()</text>
<text text-anchor="start" x="163.5" y="-211.5" font-family="Helvetica,sans-Serif" font-size="10.00">+ getSpriteBounds()</text>
<text text-anchor="start" x="163.5" y="-200.5" font-family="Helvetica,sans-Serif" font-size="10.00">+ adjustSpriteBounds()</text>
<text text-anchor="start" x="163.5" y="-189.5" font-family="Helvetica,sans-Serif" font-size="10.00">+ adjustBounds()</text>
<text text-anchor="start" x="163.5" y="-178.5" font-family="Helvetica,sans-Serif" font-size="10.00">+ getClassName()</text>
<text text-anchor="start" x="163.5" y="-167.5" font-family="Helvetica,sans-Serif" font-size="10.00">+ saveCurrentNode()</text>
<text text-anchor="start" x="163.5" y="-156.5" font-family="Helvetica,sans-Serif" font-size="10.00">+ loadCurrentNode()</text>
<text text-anchor="start" x="163.5" y="-145.5" font-family="Helvetica,sans-Serif" font-size="10.00"># drawCurrent()</text>
<text text-anchor="start" x="163.5" y="-134.5" font-family="Helvetica,sans-Serif" font-size="10.00"># updateCurrent()</text>
<text text-anchor="start" x="163.5" y="-123.5" font-family="Helvetica,sans-Serif" font-size="10.00"># shouldSave()</text>
</a>
</g>
</g>
<!-- Node3&#45;&gt;Node7 -->
<g id="edge7" class="edge">
<title>Node3&#45;&gt;Node7</title>
<path fill="none" stroke="#63b8ff" d="M181.77,-397.6C184,-388.8 186.24,-379.97 188.46,-371.24"/>
<polygon fill="none" stroke="#63b8ff" points="178.38,-396.72 179.31,-407.27 185.17,-398.44 178.38,-396.72"/>
</g>
<!-- Node4 -->
<g id="node4" class="node">
<title>Node4</title>
<g id="a_node4"><a xlink:title=" ">
<polygon fill="white" stroke="#bfbfbf" points="0,-711.5 0,-768.5 77,-768.5 77,-711.5 0,-711.5"/>
<text text-anchor="middle" x="38.5" y="-756.5" font-family="Helvetica,sans-Serif" font-size="10.00">sf::Drawable</text>
<polyline fill="none" stroke="#bfbfbf" points="0,-749.5 77,-749.5"/>
<text text-anchor="middle" x="38.5" y="-737.5" font-family="Helvetica,sans-Serif" font-size="10.00"> </text>
<polyline fill="none" stroke="#bfbfbf" points="0,-730.5 77,-730.5"/>
<text text-anchor="middle" x="38.5" y="-718.5" font-family="Helvetica,sans-Serif" font-size="10.00"> </text>
</a>
</g>
</g>
<!-- Node4&#45;&gt;Node3 -->
<g id="edge3" class="edge">
<title>Node4&#45;&gt;Node3</title>
<path fill="none" stroke="#63b8ff" d="M58.82,-701.68C64.57,-691.13 71.15,-679.04 78.07,-666.33"/>
<polygon fill="none" stroke="#63b8ff" points="55.81,-699.89 54.1,-710.35 61.96,-703.24 55.81,-699.89"/>
</g>
<!-- Node5 -->
<g id="node5" class="node">
<title>Node5</title>
<g id="a_node5"><a xlink:title=" ">
<polygon fill="white" stroke="#bfbfbf" points="95,-711.5 95,-768.5 196,-768.5 196,-711.5 95,-711.5"/>
<text text-anchor="middle" x="145.5" y="-756.5" font-family="Helvetica,sans-Serif" font-size="10.00">sf::Transformable</text>
<polyline fill="none" stroke="#bfbfbf" points="95,-749.5 196,-749.5"/>
<text text-anchor="middle" x="145.5" y="-737.5" font-family="Helvetica,sans-Serif" font-size="10.00"> </text>
<polyline fill="none" stroke="#bfbfbf" points="95,-730.5 196,-730.5"/>
<text text-anchor="middle" x="145.5" y="-718.5" font-family="Helvetica,sans-Serif" font-size="10.00"> </text>
</a>
</g>
</g>
<!-- Node5&#45;&gt;Node3 -->
<g id="edge4" class="edge">
<title>Node5&#45;&gt;Node3</title>
<path fill="none" stroke="#63b8ff" d="M145.5,-700.31C145.5,-692.36 145.5,-683.58 145.5,-674.35"/>
<polygon fill="none" stroke="#63b8ff" points="142,-700.16 145.5,-710.16 149,-700.16 142,-700.16"/>
</g>
<!-- Node6 -->
<g id="node6" class="node">
<title>Node6</title>
<g id="a_node6"><a xlink:title=" ">
<polygon fill="white" stroke="#bfbfbf" points="214.5,-711.5 214.5,-768.5 310.5,-768.5 310.5,-711.5 214.5,-711.5"/>
<text text-anchor="middle" x="262.5" y="-756.5" font-family="Helvetica,sans-Serif" font-size="10.00">sf::NonCopyable</text>
<polyline fill="none" stroke="#bfbfbf" points="214.5,-749.5 310.5,-749.5"/>
<text text-anchor="middle" x="262.5" y="-737.5" font-family="Helvetica,sans-Serif" font-size="10.00"> </text>
<polyline fill="none" stroke="#bfbfbf" points="214.5,-730.5 310.5,-730.5"/>
<text text-anchor="middle" x="262.5" y="-718.5" font-family="Helvetica,sans-Serif" font-size="10.00"> </text>
</a>
</g>
</g>
<!-- Node6&#45;&gt;Node3 -->
<g id="edge5" class="edge">
<title>Node6&#45;&gt;Node3</title>
<path fill="none" stroke="#8b1a1a" d="M240.38,-701.86C232.32,-688.32 222.73,-672.21 212.8,-655.52"/>
<polygon fill="none" stroke="#8b1a1a" points="237.33,-703.58 245.46,-710.38 243.35,-699.99 237.33,-703.58"/>
</g>
<!-- Node7&#45;&gt;Node1 -->
<g id="edge6" class="edge">
<title>Node7&#45;&gt;Node1</title>
<path fill="none" stroke="#63b8ff" d="M169.64,-106.01C166.11,-96.51 162.76,-87.49 159.74,-79.36"/>
<polygon fill="none" stroke="#63b8ff" points="166.25,-106.93 173.01,-115.09 172.81,-104.49 166.25,-106.93"/>
</g>
</g>
</svg>
        <g id="navigator" transform="translate(0 0)" fill="#404254">
                <rect fill="#f2f5e9" fill-opacity="0.5" stroke="#606060" stroke-width=".5" x="0" y="0" width="60" height="60"/>
                <use id="zoomplus" xlink:href="#zoomPlus" x="17" y="9" onmousedown="handleZoom(evt,'in')"/>
                <use id="zoomminus" xlink:href="#zoomMin" x="42" y="9" onmousedown="handleZoom(evt,'out')"/>
                <use id="reset" xlink:href="#resetDef" x="30" y="36" onmousedown="handleReset()"/>
                <g id="arrowUp" xlink:href="#dirArrow" transform="translate(30 24)" onmousedown="handlePan(0,-1)">
                  <use xlink:href="#rim" fill="#404040">
                        <set attributeName="fill" to="#808080" begin="arrowUp.mouseover" end="arrowUp.mouseout"/>
                  </use>
                  <path fill="none" stroke="white" stroke-width="1.5" d="M0,-3.0v7 M-2.5,-0.5L0,-3.0L2.5,-0.5"/>
                </g>
                <g id="arrowRight" xlink:href="#dirArrow" transform="rotate(90) translate(36 -43)" onmousedown="handlePan(1,0)">
                  <use xlink:href="#rim" fill="#404040">
                        <set attributeName="fill" to="#808080" begin="arrowRight.mouseover" end="arrowRight.mouseout"/>
                  </use>
                  <path fill="none" stroke="white" stroke-width="1.5" d="M0,-3.0v7 M-2.5,-0.5L0,-3.0L2.5,-0.5"/>
                </g>
                <g id="arrowDown" xlink:href="#dirArrow" transform="rotate(180) translate(-30 -48)" onmousedown="handlePan(0,1)">
                  <use xlink:href="#rim" fill="#404040">
                        <set attributeName="fill" to="#808080" begin="arrowDown.mouseover" end="arrowDown.mouseout"/>
                  </use>
                  <path fill="none" stroke="white" stroke-width="1.5" d="M0,-3.0v7 M-2.5,-0.5L0,-3.0L2.5,-0.5"/>
                </g>
                <g id="arrowLeft" xlink:href="#dirArrow" transform="rotate(270) translate(-36 17)" onmousedown="handlePan(-1,0)">
                  <use xlink:href="#rim" fill="#404040">
                        <set attributeName="fill" to="#808080" begin="arrowLeft.mouseover" end="arrowLeft.mouseout"/>
                  </use>
                  <path fill="none" stroke="white" stroke-width="1.5" d="M0,-3.0v7 M-2.5,-0.5L0,-3.0L2.5,-0.5"/>
                </g>
        </g>
        <svg viewBox="0 0 15 15" width="100%" height="30px" preserveAspectRatio="xMaxYMin meet">
         <g id="arrow_out" transform="scale(0.3 0.3)">
          <a xlink:href="classSmallSizePickup__inherit__graph_org.svg" target="_base">
           <rect id="button" ry="5" rx="5" y="6" x="6" height="38" width="38"
                fill="#f2f5e9" fill-opacity="0.5" stroke="#606060" stroke-width="1.0"/>
           <path id="arrow"
             d="M 11.500037,31.436501 C 11.940474,20.09759 22.043105,11.32322 32.158766,21.979434 L 37.068811,17.246167 C 37.068811,17.246167 37.088388,32 37.088388,32 L 22.160133,31.978069 C 22.160133,31.978069 26.997745,27.140456 26.997745,27.140456 C 18.528582,18.264221 13.291696,25.230495 11.500037,31.436501 z"
             style="fill:#404040;"/>
          </a>
         </g>
        </svg>
</svg>
