<?xml version="1.0" encoding="UTF-8" standalone="no"?>
<!DOCTYPE svg PUBLIC "-//W3C//DTD SVG 1.1//EN"
 "http://www.w3.org/Graphics/SVG/1.1/DTD/svg11.dtd">
<!-- Generated by graphviz version 7.0.5 (0)
 -->
<!-- Title: HealthPickup Pages: 1 -->
<svg width="386pt" height="1133pt"
 viewBox="0.00 0.00 385.50 1133.00" xmlns="http://www.w3.org/2000/svg" xmlns:xlink="http://www.w3.org/1999/xlink">
<g id="graph0" class="graph" transform="scale(1 1) rotate(0) translate(4 1129)">
<title>HealthPickup</title>
<!-- Node1 -->
<g id="node1" class="node">
<title>Node1</title>
<g id="a_node1"><a xlink:title=" ">
<polygon fill="#999999" stroke="#666666" points="1,-0.5 1,-79.5 108,-79.5 108,-0.5 1,-0.5"/>
<text text-anchor="middle" x="54.5" y="-67.5" font-family="Helvetica,sans-Serif" font-size="10.00">HealthPickup</text>
<polyline fill="none" stroke="#666666" points="1,-60.5 108,-60.5"/>
<text text-anchor="middle" x="54.5" y="-48.5" font-family="Helvetica,sans-Serif" font-size="10.00"> </text>
<polyline fill="none" stroke="#666666" points="1,-41.5 108,-41.5"/>
<text text-anchor="start" x="9" y="-29.5" font-family="Helvetica,sans-Serif" font-size="10.00">+ HealthPickup()</text>
<text text-anchor="start" x="9" y="-18.5" font-family="Helvetica,sans-Serif" font-size="10.00">+ getCategory()</text>
<text text-anchor="start" x="9" y="-7.5" font-family="Helvetica,sans-Serif" font-size="10.00">+ getClassName()</text>
</a>
</g>
</g>
<!-- Node2 -->
<g id="node2" class="node">
<title>Node2</title>
<g id="a_node2"><a xlink:href="classPlayerCollidable.html" target="_top" xlink:title=" ">
<polygon fill="white" stroke="#bfbfbf" points="70.5,-117.5 70.5,-196.5 202.5,-196.5 202.5,-117.5 70.5,-117.5"/>
<text text-anchor="middle" x="136.5" y="-184.5" font-family="Helvetica,sans-Serif" font-size="10.00">PlayerCollidable</text>
<polyline fill="none" stroke="#bfbfbf" points="70.5,-177.5 202.5,-177.5"/>
<text text-anchor="start" x="78.5" y="-165.5" font-family="Helvetica,sans-Serif" font-size="10.00"># isCollidingWithPlayer</text>
<polyline fill="none" stroke="#bfbfbf" points="70.5,-158.5 202.5,-158.5"/>
<text text-anchor="start" x="78.5" y="-146.5" font-family="Helvetica,sans-Serif" font-size="10.00">+ onPlayerCollision()</text>
<text text-anchor="start" x="78.5" y="-135.5" font-family="Helvetica,sans-Serif" font-size="10.00">+ updateCurrent()</text>
<text text-anchor="start" x="78.5" y="-124.5" font-family="Helvetica,sans-Serif" font-size="10.00">+ SceneNode()</text>
</a>
</g>
</g>
<!-- Node2&#45;&gt;Node1 -->
<g id="edge1" class="edge">
<title>Node2&#45;&gt;Node1</title>
<path fill="none" stroke="#63b8ff" d="M102.62,-108.49C95.65,-98.71 88.39,-88.52 81.69,-79.13"/>
<polygon fill="none" stroke="#63b8ff" points="99.66,-110.36 108.32,-116.47 105.36,-106.3 99.66,-110.36"/>
</g>
<!-- Node3 -->
<g id="node3" class="node">
<title>Node3</title>
<g id="a_node3"><a xlink:href="classSceneNode.html" target="_top" xlink:title="A node in the scene graph.">
<polygon fill="white" stroke="#666666" points="145,-763.5 145,-1029.5 280,-1029.5 280,-763.5 145,-763.5"/>
<text text-anchor="middle" x="212.5" y="-1017.5" font-family="Helvetica,sans-Serif" font-size="10.00">SceneNode</text>
<polyline fill="none" stroke="#666666" points="145,-1010.5 280,-1010.5"/>
<text text-anchor="middle" x="212.5" y="-998.5" font-family="Helvetica,sans-Serif" font-size="10.00"> </text>
<polyline fill="none" stroke="#666666" points="145,-991.5 280,-991.5"/>
<text text-anchor="start" x="153" y="-979.5" font-family="Helvetica,sans-Serif" font-size="10.00">+ SceneNode()</text>
<text text-anchor="start" x="153" y="-968.5" font-family="Helvetica,sans-Serif" font-size="10.00">+ attachChild()</text>
<text text-anchor="start" x="153" y="-957.5" font-family="Helvetica,sans-Serif" font-size="10.00">+ detachChild()</text>
<text text-anchor="start" x="153" y="-946.5" font-family="Helvetica,sans-Serif" font-size="10.00">+ update()</text>
<text text-anchor="start" x="153" y="-935.5" font-family="Helvetica,sans-Serif" font-size="10.00">+ getAbsTransform()</text>
<text text-anchor="start" x="153" y="-924.5" font-family="Helvetica,sans-Serif" font-size="10.00">+ getAbsPosition()</text>
<text text-anchor="start" x="153" y="-913.5" font-family="Helvetica,sans-Serif" font-size="10.00">+ checkNodeCollision()</text>
<text text-anchor="start" x="153" y="-902.5" font-family="Helvetica,sans-Serif" font-size="10.00">+ checkSceneCollision()</text>
<text text-anchor="start" x="153" y="-891.5" font-family="Helvetica,sans-Serif" font-size="10.00">+ setDebug()</text>
<text text-anchor="start" x="153" y="-880.5" font-family="Helvetica,sans-Serif" font-size="10.00">+ getCategory()</text>
<text text-anchor="start" x="153" y="-869.5" font-family="Helvetica,sans-Serif" font-size="10.00">+ saveNode()</text>
<text text-anchor="start" x="153" y="-858.5" font-family="Helvetica,sans-Serif" font-size="10.00">+ operator&lt;()</text>
<text text-anchor="start" x="153" y="-847.5" font-family="Helvetica,sans-Serif" font-size="10.00">+ getBoundingRect()</text>
<text text-anchor="start" x="153" y="-836.5" font-family="Helvetica,sans-Serif" font-size="10.00">+ getLocalBounds()</text>
<text text-anchor="start" x="153" y="-825.5" font-family="Helvetica,sans-Serif" font-size="10.00">+ draw()</text>
<text text-anchor="start" x="153" y="-814.5" font-family="Helvetica,sans-Serif" font-size="10.00"># getClassName()</text>
<text text-anchor="start" x="153" y="-803.5" font-family="Helvetica,sans-Serif" font-size="10.00"># saveCurrentNode()</text>
<text text-anchor="start" x="153" y="-792.5" font-family="Helvetica,sans-Serif" font-size="10.00"># loadCurrentNode()</text>
<text text-anchor="start" x="153" y="-781.5" font-family="Helvetica,sans-Serif" font-size="10.00"># onLoadingFinished()</text>
<text text-anchor="start" x="153" y="-770.5" font-family="Helvetica,sans-Serif" font-size="10.00"># shouldSave()</text>
</a>
</g>
</g>
<!-- Node3&#45;&gt;Node2 -->
<g id="edge2" class="edge">
<title>Node3&#45;&gt;Node2</title>
<path fill="none" stroke="#63b8ff" d="M221.59,-752.2C226.87,-619.16 226.81,-416.27 192.5,-244 189.09,-226.88 180.08,-210.26 170.27,-196.27"/>
<polygon fill="none" stroke="#63b8ff" points="218.1,-752 221.18,-762.14 225.09,-752.29 218.1,-752"/>
</g>
<!-- Node8 -->
<g id="node8" class="node">
<title>Node8</title>
<g id="a_node8"><a xlink:href="classEntity.html" target="_top" xlink:title=" ">
<polygon fill="white" stroke="#666666" points="26.5,-471.5 26.5,-715.5 156.5,-715.5 156.5,-471.5 26.5,-471.5"/>
<text text-anchor="middle" x="91.5" y="-703.5" font-family="Helvetica,sans-Serif" font-size="10.00">Entity</text>
<polyline fill="none" stroke="#666666" points="26.5,-696.5 156.5,-696.5"/>
<text text-anchor="start" x="34.5" y="-684.5" font-family="Helvetica,sans-Serif" font-size="10.00"># velocity</text>
<text text-anchor="start" x="34.5" y="-673.5" font-family="Helvetica,sans-Serif" font-size="10.00"># localBounds</text>
<text text-anchor="start" x="34.5" y="-662.5" font-family="Helvetica,sans-Serif" font-size="10.00"># spriteBounds</text>
<polyline fill="none" stroke="#666666" points="26.5,-655.5 156.5,-655.5"/>
<text text-anchor="start" x="34.5" y="-643.5" font-family="Helvetica,sans-Serif" font-size="10.00">+ Entity()</text>
<text text-anchor="start" x="34.5" y="-632.5" font-family="Helvetica,sans-Serif" font-size="10.00">+ Entity()</text>
<text text-anchor="start" x="34.5" y="-621.5" font-family="Helvetica,sans-Serif" font-size="10.00">+ Entity()</text>
<text text-anchor="start" x="34.5" y="-610.5" font-family="Helvetica,sans-Serif" font-size="10.00">+ Entity()</text>
<text text-anchor="start" x="34.5" y="-599.5" font-family="Helvetica,sans-Serif" font-size="10.00">+ getVelocity()</text>
<text text-anchor="start" x="34.5" y="-588.5" font-family="Helvetica,sans-Serif" font-size="10.00">+ setVelocity()</text>
<text text-anchor="start" x="34.5" y="-577.5" font-family="Helvetica,sans-Serif" font-size="10.00">+ getLocalBounds()</text>
<text text-anchor="start" x="34.5" y="-566.5" font-family="Helvetica,sans-Serif" font-size="10.00">+ getSpriteBounds()</text>
<text text-anchor="start" x="34.5" y="-555.5" font-family="Helvetica,sans-Serif" font-size="10.00">+ adjustSpriteBounds()</text>
<text text-anchor="start" x="34.5" y="-544.5" font-family="Helvetica,sans-Serif" font-size="10.00">+ adjustBounds()</text>
<text text-anchor="start" x="34.5" y="-533.5" font-family="Helvetica,sans-Serif" font-size="10.00">+ getClassName()</text>
<text text-anchor="start" x="34.5" y="-522.5" font-family="Helvetica,sans-Serif" font-size="10.00">+ saveCurrentNode()</text>
<text text-anchor="start" x="34.5" y="-511.5" font-family="Helvetica,sans-Serif" font-size="10.00">+ loadCurrentNode()</text>
<text text-anchor="start" x="34.5" y="-500.5" font-family="Helvetica,sans-Serif" font-size="10.00"># drawCurrent()</text>
<text text-anchor="start" x="34.5" y="-489.5" font-family="Helvetica,sans-Serif" font-size="10.00"># updateCurrent()</text>
<text text-anchor="start" x="34.5" y="-478.5" font-family="Helvetica,sans-Serif" font-size="10.00"># shouldSave()</text>
</a>
</g>
</g>
<!-- Node3&#45;&gt;Node8 -->
<g id="edge8" class="edge">
<title>Node3&#45;&gt;Node8</title>
<path fill="none" stroke="#63b8ff" d="M155.33,-753.29C150.24,-740.61 145.11,-727.86 140.09,-715.38"/>
<polygon fill="none" stroke="#63b8ff" points="152.06,-754.54 159.04,-762.51 158.56,-751.93 152.06,-754.54"/>
</g>
<!-- Node4 -->
<g id="node4" class="node">
<title>Node4</title>
<g id="a_node4"><a xlink:title=" ">
<polygon fill="white" stroke="#bfbfbf" points="67,-1067.5 67,-1124.5 144,-1124.5 144,-1067.5 67,-1067.5"/>
<text text-anchor="middle" x="105.5" y="-1112.5" font-family="Helvetica,sans-Serif" font-size="10.00">sf::Drawable</text>
<polyline fill="none" stroke="#bfbfbf" points="67,-1105.5 144,-1105.5"/>
<text text-anchor="middle" x="105.5" y="-1093.5" font-family="Helvetica,sans-Serif" font-size="10.00"> </text>
<polyline fill="none" stroke="#bfbfbf" points="67,-1086.5 144,-1086.5"/>
<text text-anchor="middle" x="105.5" y="-1074.5" font-family="Helvetica,sans-Serif" font-size="10.00"> </text>
</a>
</g>
</g>
<!-- Node4&#45;&gt;Node3 -->
<g id="edge3" class="edge">
<title>Node4&#45;&gt;Node3</title>
<path fill="none" stroke="#63b8ff" d="M125.82,-1057.49C131.57,-1046.89 138.15,-1034.73 145.07,-1021.96"/>
<polygon fill="none" stroke="#63b8ff" points="122.79,-1055.75 121.1,-1066.21 128.94,-1059.08 122.79,-1055.75"/>
</g>
<!-- Node5 -->
<g id="node5" class="node">
<title>Node5</title>
<g id="a_node5"><a xlink:title=" ">
<polygon fill="white" stroke="#bfbfbf" points="162,-1067.5 162,-1124.5 263,-1124.5 263,-1067.5 162,-1067.5"/>
<text text-anchor="middle" x="212.5" y="-1112.5" font-family="Helvetica,sans-Serif" font-size="10.00">sf::Transformable</text>
<polyline fill="none" stroke="#bfbfbf" points="162,-1105.5 263,-1105.5"/>
<text text-anchor="middle" x="212.5" y="-1093.5" font-family="Helvetica,sans-Serif" font-size="10.00"> </text>
<polyline fill="none" stroke="#bfbfbf" points="162,-1086.5 263,-1086.5"/>
<text text-anchor="middle" x="212.5" y="-1074.5" font-family="Helvetica,sans-Serif" font-size="10.00"> </text>
</a>
</g>
</g>
<!-- Node5&#45;&gt;Node3 -->
<g id="edge4" class="edge">
<title>Node5&#45;&gt;Node3</title>
<path fill="none" stroke="#63b8ff" d="M212.5,-1056.16C212.5,-1047.92 212.5,-1038.79 212.5,-1029.18"/>
<polygon fill="none" stroke="#63b8ff" points="209,-1056.02 212.5,-1066.02 216,-1056.02 209,-1056.02"/>
</g>
<!-- Node6 -->
<g id="node6" class="node">
<title>Node6</title>
<g id="a_node6"><a xlink:title=" ">
<polygon fill="white" stroke="#bfbfbf" points="281.5,-1067.5 281.5,-1124.5 377.5,-1124.5 377.5,-1067.5 281.5,-1067.5"/>
<text text-anchor="middle" x="329.5" y="-1112.5" font-family="Helvetica,sans-Serif" font-size="10.00">sf::NonCopyable</text>
<polyline fill="none" stroke="#bfbfbf" points="281.5,-1105.5 377.5,-1105.5"/>
<text text-anchor="middle" x="329.5" y="-1093.5" font-family="Helvetica,sans-Serif" font-size="10.00"> </text>
<polyline fill="none" stroke="#bfbfbf" points="281.5,-1086.5 377.5,-1086.5"/>
<text text-anchor="middle" x="329.5" y="-1074.5" font-family="Helvetica,sans-Serif" font-size="10.00"> </text>
</a>
</g>
</g>
<!-- Node6&#45;&gt;Node3 -->
<g id="edge5" class="edge">
<title>Node6&#45;&gt;Node3</title>
<path fill="none" stroke="#8b1a1a" d="M307.38,-1057.67C299.32,-1044.06 289.73,-1027.87 279.8,-1011.1"/>
<polygon fill="none" stroke="#8b1a1a" points="304.35,-1059.42 312.46,-1066.24 310.37,-1055.85 304.35,-1059.42"/>
</g>
<!-- Node7 -->
<g id="node7" class="node">
<title>Node7</title>
<g id="a_node7"><a xlink:href="classPlayer.html" target="_top" xlink:title=" ">
<polygon fill="white" stroke="#bfbfbf" points="71,-244.5 71,-433.5 184,-433.5 184,-244.5 71,-244.5"/>
<text text-anchor="middle" x="127.5" y="-421.5" font-family="Helvetica,sans-Serif" font-size="10.00">Player</text>
<polyline fill="none" stroke="#bfbfbf" points="71,-414.5 184,-414.5"/>
<text text-anchor="middle" x="127.5" y="-402.5" font-family="Helvetica,sans-Serif" font-size="10.00"> </text>
<polyline fill="none" stroke="#bfbfbf" points="71,-395.5 184,-395.5"/>
<text text-anchor="start" x="79" y="-383.5" font-family="Helvetica,sans-Serif" font-size="10.00">+ Player()</text>
<text text-anchor="start" x="79" y="-372.5" font-family="Helvetica,sans-Serif" font-size="10.00">+ Player()</text>
<text text-anchor="start" x="79" y="-361.5" font-family="Helvetica,sans-Serif" font-size="10.00">+ onKeyPressed()</text>
<text text-anchor="start" x="79" y="-350.5" font-family="Helvetica,sans-Serif" font-size="10.00">+ getCategory()</text>
<text text-anchor="start" x="79" y="-339.5" font-family="Helvetica,sans-Serif" font-size="10.00">+ setState()</text>
<text text-anchor="start" x="79" y="-328.5" font-family="Helvetica,sans-Serif" font-size="10.00">+ addHealth()</text>
<text text-anchor="start" x="79" y="-317.5" font-family="Helvetica,sans-Serif" font-size="10.00">+ isDead()</text>
<text text-anchor="start" x="79" y="-306.5" font-family="Helvetica,sans-Serif" font-size="10.00">+ addEffect()</text>
<text text-anchor="start" x="79" y="-295.5" font-family="Helvetica,sans-Serif" font-size="10.00">+ isInvincible()</text>
<text text-anchor="start" x="79" y="-284.5" font-family="Helvetica,sans-Serif" font-size="10.00">+ getDirectionVec()</text>
<text text-anchor="start" x="79" y="-273.5" font-family="Helvetica,sans-Serif" font-size="10.00">and 7 more...</text>
<text text-anchor="start" x="79" y="-262.5" font-family="Helvetica,sans-Serif" font-size="10.00"># updateCurrent()</text>
<text text-anchor="start" x="79" y="-251.5" font-family="Helvetica,sans-Serif" font-size="10.00"># drawCurrent()</text>
</a>
</g>
</g>
<!-- Node7&#45;&gt;Node2 -->
<g id="edge6" class="edge">
<title>Node7&#45;&gt;Node2</title>
<path fill="none" stroke="#404040" d="M132.17,-244.57C132.78,-232.4 133.38,-220.31 133.94,-209.2"/>
<polygon fill="none" stroke="#404040" points="133.95,-209.08 130.25,-202.88 134.55,-197.09 138.24,-203.28 133.95,-209.08"/>
<text text-anchor="middle" x="156" y="-218" font-family="Helvetica,sans-Serif" font-size="10.00"> #player</text>
</g>
<!-- Node8&#45;&gt;Node1 -->
<g id="edge10" class="edge">
<title>Node8&#45;&gt;Node1</title>
<path fill="none" stroke="#63b8ff" d="M64.76,-460.37C63.5,-451.47 62.39,-442.62 61.5,-434 48.19,-304.51 50.83,-149.8 53.04,-79.34"/>
<polygon fill="none" stroke="#63b8ff" points="61.29,-460.79 66.22,-470.16 68.21,-459.75 61.29,-460.79"/>
</g>
<!-- Node8&#45;&gt;Node7 -->
<g id="edge7" class="edge">
<title>Node8&#45;&gt;Node7</title>
<path fill="none" stroke="#63b8ff" d="M110.31,-460.57C111.62,-451.38 112.93,-442.23 114.2,-433.31"/>
<polygon fill="none" stroke="#63b8ff" points="106.87,-459.9 108.92,-470.3 113.8,-460.89 106.87,-459.9"/>
</g>
<!-- Node9 -->
<g id="node9" class="node">
<title>Node9</title>
<g id="a_node9"><a xlink:href="classAnimationMachine.html" target="_top" xlink:title="Component of Entity that holds the animation data, can be used to replace the sprite of the entity.">
<polygon fill="white" stroke="#666666" points="0,-829.5 0,-963.5 127,-963.5 127,-829.5 0,-829.5"/>
<text text-anchor="middle" x="63.5" y="-951.5" font-family="Helvetica,sans-Serif" font-size="10.00">AnimationMachine</text>
<polyline fill="none" stroke="#666666" points="0,-944.5 127,-944.5"/>
<text text-anchor="middle" x="63.5" y="-932.5" font-family="Helvetica,sans-Serif" font-size="10.00"> </text>
<polyline fill="none" stroke="#666666" points="0,-925.5 127,-925.5"/>
<text text-anchor="start" x="8" y="-913.5" font-family="Helvetica,sans-Serif" font-size="10.00">+ AnimationMachine()</text>
<text text-anchor="start" x="8" y="-902.5" font-family="Helvetica,sans-Serif" font-size="10.00">+ AnimationMachine()</text>
<text text-anchor="start" x="8" y="-891.5" font-family="Helvetica,sans-Serif" font-size="10.00">+ update()</text>
<text text-anchor="start" x="8" y="-880.5" font-family="Helvetica,sans-Serif" font-size="10.00">+ toSprite()</text>
<text text-anchor="start" x="8" y="-869.5" font-family="Helvetica,sans-Serif" font-size="10.00">+ isFinished()</text>
<text text-anchor="start" x="8" y="-858.5" font-family="Helvetica,sans-Serif" font-size="10.00">+ getID()</text>
<text text-anchor="start" x="8" y="-847.5" font-family="Helvetica,sans-Serif" font-size="10.00">+ save()</text>
<text text-anchor="start" x="8" y="-836.5" font-family="Helvetica,sans-Serif" font-size="10.00">+ load()</text>
</a>
</g>
</g>
<!-- Node9&#45;&gt;Node8 -->
<g id="edge9" class="edge">
<title>Node9&#45;&gt;Node8</title>
<path fill="none" stroke="#404040" d="M69.61,-829.82C72.39,-799.93 75.79,-763.41 79.07,-728.15"/>
<polygon fill="none" stroke="#404040" points="79.07,-728.08 75.65,-721.73 80.19,-716.13 83.61,-722.47 79.07,-728.08"/>
<text text-anchor="middle" x="109" y="-737" font-family="Helvetica,sans-Serif" font-size="10.00"> #animation</text>
</g>
</g>
</svg>
