<?xml version="1.0" encoding="UTF-8" standalone="no"?>
<!DOCTYPE svg PUBLIC "-//W3C//DTD SVG 1.1//EN"
 "http://www.w3.org/Graphics/SVG/1.1/DTD/svg11.dtd">
<!-- Generated by graphviz version 7.0.5 (0)
 -->
<!-- Title: State Pages: 1 -->
<!--zoomable 490 -->
<svg id="main" version="1.1" xmlns="http://www.w3.org/2000/svg" xmlns:xlink="http://www.w3.org/1999/xlink" xml:space="preserve" onload="init(evt)">
<style type="text/css"><![CDATA[
.edge:hover path { stroke: red; }
.edge:hover polygon { stroke: red; fill: red; }
]]></style>
<script type="text/javascript"><![CDATA[
var edges = document.getElementsByTagName('g');
if (edges && edges.length) {
  for (var i=0;i<edges.length;i++) {
    if (edges[i].id.substr(0,4)=='edge') {
      edges[i].setAttribute('class','edge');
    }
  }
}
]]></script>
        <defs>
                <circle id="rim" cx="0" cy="0" r="7"/>
                <circle id="rim2" cx="0" cy="0" r="3.5"/>
                <g id="zoomPlus">
                        <use xlink:href="#rim" fill="#404040">
                                <set attributeName="fill" to="#808080" begin="zoomplus.mouseover" end="zoomplus.mouseout"/>
                        </use>
                        <path d="M-4,0h8M0,-4v8" fill="none" stroke="white" stroke-width="1.5" pointer-events="none"/>
                </g>
                <g id="zoomMin">
                        <use xlink:href="#rim" fill="#404040">
                                <set attributeName="fill" to="#808080" begin="zoomminus.mouseover" end="zoomminus.mouseout"/>
                        </use>
                        <path d="M-4,0h8" fill="none" stroke="white" stroke-width="1.5" pointer-events="none"/>
                </g>
                <g id="dirArrow">
                        <path fill="none" stroke="white" stroke-width="1.5" d="M0,-3.0v7 M-2.5,-0.5L0,-3.0L2.5,-0.5"/>
                </g>
               <g id="resetDef">
                       <use xlink:href="#rim2" fill="#404040">
                               <set attributeName="fill" to="#808080" begin="reset.mouseover" end="reset.mouseout"/>
                       </use>
               </g>
        </defs>

<script type="text/javascript">
var viewWidth = 766;
var viewHeight = 490;
var sectionId = 'dynsection-0';
</script>
<script xlink:href="svgpan.js"/>
<svg id="graph" class="graph">
<g id="viewport">
<title>State</title>
<!-- Node1 -->
<g id="node1" class="node">
<title>Node1</title>
<g id="a_node1"><a xlink:title=" ">
<polygon fill="#999999" stroke="#666666" points="318.5,-204.5 318.5,-481.5 437.5,-481.5 437.5,-204.5 318.5,-204.5"/>
<text text-anchor="middle" x="378" y="-469.5" font-family="Helvetica,sans-Serif" font-size="10.00">State</text>
<polyline fill="none" stroke="#666666" points="318.5,-462.5 437.5,-462.5"/>
<text text-anchor="start" x="326.5" y="-450.5" font-family="Helvetica,sans-Serif" font-size="10.00">+ ev</text>
<text text-anchor="start" x="326.5" y="-439.5" font-family="Helvetica,sans-Serif" font-size="10.00"># states</text>
<text text-anchor="start" x="326.5" y="-428.5" font-family="Helvetica,sans-Serif" font-size="10.00"># window</text>
<text text-anchor="start" x="326.5" y="-417.5" font-family="Helvetica,sans-Serif" font-size="10.00"># quit</text>
<text text-anchor="start" x="326.5" y="-406.5" font-family="Helvetica,sans-Serif" font-size="10.00"># gui</text>
<text text-anchor="start" x="326.5" y="-395.5" font-family="Helvetica,sans-Serif" font-size="10.00"># mousePosScreen</text>
<text text-anchor="start" x="326.5" y="-384.5" font-family="Helvetica,sans-Serif" font-size="10.00"># mousePosWindow</text>
<text text-anchor="start" x="326.5" y="-373.5" font-family="Helvetica,sans-Serif" font-size="10.00"># mousePosView</text>
<text text-anchor="start" x="326.5" y="-362.5" font-family="Helvetica,sans-Serif" font-size="10.00"># supportedKeys</text>
<text text-anchor="start" x="326.5" y="-351.5" font-family="Helvetica,sans-Serif" font-size="10.00"># keybinds</text>
<text text-anchor="start" x="326.5" y="-340.5" font-family="Helvetica,sans-Serif" font-size="10.00"># textures</text>
<polyline fill="none" stroke="#666666" points="318.5,-333.5 437.5,-333.5"/>
<text text-anchor="start" x="326.5" y="-321.5" font-family="Helvetica,sans-Serif" font-size="10.00">+ State()</text>
<text text-anchor="start" x="326.5" y="-310.5" font-family="Helvetica,sans-Serif" font-size="10.00">+ State()</text>
<text text-anchor="start" x="326.5" y="-299.5" font-family="Helvetica,sans-Serif" font-size="10.00">+ ~State()</text>
<text text-anchor="start" x="326.5" y="-288.5" font-family="Helvetica,sans-Serif" font-size="10.00">+ getQuit()</text>
<text text-anchor="start" x="326.5" y="-277.5" font-family="Helvetica,sans-Serif" font-size="10.00">+ endState()</text>
<text text-anchor="start" x="326.5" y="-266.5" font-family="Helvetica,sans-Serif" font-size="10.00">+ updateMousePos()</text>
<text text-anchor="start" x="326.5" y="-255.5" font-family="Helvetica,sans-Serif" font-size="10.00">+ updateInput()</text>
<text text-anchor="start" x="326.5" y="-244.5" font-family="Helvetica,sans-Serif" font-size="10.00">+ updateEvents()</text>
<text text-anchor="start" x="326.5" y="-233.5" font-family="Helvetica,sans-Serif" font-size="10.00">+ update()</text>
<text text-anchor="start" x="326.5" y="-222.5" font-family="Helvetica,sans-Serif" font-size="10.00">+ render()</text>
<text text-anchor="start" x="326.5" y="-211.5" font-family="Helvetica,sans-Serif" font-size="10.00"># initKeyBinds()</text>
</a>
</g>
</g>
<!-- Node2 -->
<g id="node2" class="node">
<title>Node2</title>
<g id="a_node2"><a xlink:href="classGameState.html" target="_top" xlink:title=" ">
<polygon fill="white" stroke="#bfbfbf" points="0,-6 0,-162 102,-162 102,-6 0,-6"/>
<text text-anchor="middle" x="51" y="-150" font-family="Helvetica,sans-Serif" font-size="10.00">GameState</text>
<polyline fill="none" stroke="#bfbfbf" points="0,-143 102,-143"/>
<text text-anchor="middle" x="51" y="-131" font-family="Helvetica,sans-Serif" font-size="10.00"> </text>
<polyline fill="none" stroke="#bfbfbf" points="0,-124 102,-124"/>
<text text-anchor="start" x="8" y="-112" font-family="Helvetica,sans-Serif" font-size="10.00">+ GameState()</text>
<text text-anchor="start" x="8" y="-101" font-family="Helvetica,sans-Serif" font-size="10.00">+ GameState()</text>
<text text-anchor="start" x="8" y="-90" font-family="Helvetica,sans-Serif" font-size="10.00">+ ~GameState()</text>
<text text-anchor="start" x="8" y="-79" font-family="Helvetica,sans-Serif" font-size="10.00">+ initMusic()</text>
<text text-anchor="start" x="8" y="-68" font-family="Helvetica,sans-Serif" font-size="10.00">+ playAgain()</text>
<text text-anchor="start" x="8" y="-57" font-family="Helvetica,sans-Serif" font-size="10.00">+ updateEvents()</text>
<text text-anchor="start" x="8" y="-46" font-family="Helvetica,sans-Serif" font-size="10.00">+ updateInput()</text>
<text text-anchor="start" x="8" y="-35" font-family="Helvetica,sans-Serif" font-size="10.00">+ update()</text>
<text text-anchor="start" x="8" y="-24" font-family="Helvetica,sans-Serif" font-size="10.00">+ render()</text>
<text text-anchor="start" x="8" y="-13" font-family="Helvetica,sans-Serif" font-size="10.00">+ delVariables()</text>
</a>
</g>
</g>
<!-- Node1&#45;&gt;Node2 -->
<g id="edge1" class="edge">
<title>Node1&#45;&gt;Node2</title>
<path fill="none" stroke="#63b8ff" d="M308.67,-306.2C251.65,-274.67 170.8,-224.98 111,-168 107.91,-165.06 104.87,-161.94 101.9,-158.7"/>
<polygon fill="none" stroke="#63b8ff" points="306.89,-309.22 317.34,-310.96 310.26,-303.08 306.89,-309.22"/>
</g>
<!-- Node3 -->
<g id="node3" class="node">
<title>Node3</title>
<g id="a_node3"><a xlink:href="classMainMenuState.html" target="_top" xlink:title=" ">
<polygon fill="white" stroke="#bfbfbf" points="120,-11.5 120,-156.5 232,-156.5 232,-11.5 120,-11.5"/>
<text text-anchor="middle" x="176" y="-144.5" font-family="Helvetica,sans-Serif" font-size="10.00">MainMenuState</text>
<polyline fill="none" stroke="#bfbfbf" points="120,-137.5 232,-137.5"/>
<text text-anchor="start" x="128" y="-125.5" font-family="Helvetica,sans-Serif" font-size="10.00">+ isWordMode</text>
<polyline fill="none" stroke="#bfbfbf" points="120,-118.5 232,-118.5"/>
<text text-anchor="start" x="128" y="-106.5" font-family="Helvetica,sans-Serif" font-size="10.00">+ MainMenuState()</text>
<text text-anchor="start" x="128" y="-95.5" font-family="Helvetica,sans-Serif" font-size="10.00">+ MainMenuState()</text>
<text text-anchor="start" x="128" y="-84.5" font-family="Helvetica,sans-Serif" font-size="10.00">+ initBackground()</text>
<text text-anchor="start" x="128" y="-73.5" font-family="Helvetica,sans-Serif" font-size="10.00">+ initButtons()</text>
<text text-anchor="start" x="128" y="-62.5" font-family="Helvetica,sans-Serif" font-size="10.00">+ updateInput()</text>
<text text-anchor="start" x="128" y="-51.5" font-family="Helvetica,sans-Serif" font-size="10.00">+ updateEvents()</text>
<text text-anchor="start" x="128" y="-40.5" font-family="Helvetica,sans-Serif" font-size="10.00">+ min()</text>
<text text-anchor="start" x="128" y="-29.5" font-family="Helvetica,sans-Serif" font-size="10.00">+ update()</text>
<text text-anchor="start" x="128" y="-18.5" font-family="Helvetica,sans-Serif" font-size="10.00">+ render()</text>
</a>
</g>
</g>
<!-- Node1&#45;&gt;Node3 -->
<g id="edge2" class="edge">
<title>Node1&#45;&gt;Node3</title>
<path fill="none" stroke="#63b8ff" d="M311.74,-257.93C289.26,-229.4 264.03,-197.32 241,-168 237.95,-164.11 234.82,-160.12 231.66,-156.09"/>
<polygon fill="none" stroke="#63b8ff" points="308.74,-259.79 317.68,-265.48 314.24,-255.45 308.74,-259.79"/>
</g>
<!-- Node4 -->
<g id="node4" class="node">
<title>Node4</title>
<g id="a_node4"><a xlink:href="classPauseMenu.html" target="_top" xlink:title=" ">
<polygon fill="white" stroke="#bfbfbf" points="250,-6 250,-162 372,-162 372,-6 250,-6"/>
<text text-anchor="middle" x="311" y="-150" font-family="Helvetica,sans-Serif" font-size="10.00">PauseMenu</text>
<polyline fill="none" stroke="#bfbfbf" points="250,-143 372,-143"/>
<text text-anchor="middle" x="311" y="-131" font-family="Helvetica,sans-Serif" font-size="10.00"> </text>
<polyline fill="none" stroke="#bfbfbf" points="250,-124 372,-124"/>
<text text-anchor="start" x="258" y="-112" font-family="Helvetica,sans-Serif" font-size="10.00">+ PauseMenu()</text>
<text text-anchor="start" x="258" y="-101" font-family="Helvetica,sans-Serif" font-size="10.00">+ updateInput()</text>
<text text-anchor="start" x="258" y="-90" font-family="Helvetica,sans-Serif" font-size="10.00">+ isPausing()</text>
<text text-anchor="start" x="258" y="-79" font-family="Helvetica,sans-Serif" font-size="10.00">+ returnedSavePath()</text>
<text text-anchor="start" x="258" y="-68" font-family="Helvetica,sans-Serif" font-size="10.00">+ render()</text>
<text text-anchor="start" x="258" y="-57" font-family="Helvetica,sans-Serif" font-size="10.00">+ zoomBig()</text>
<text text-anchor="start" x="258" y="-46" font-family="Helvetica,sans-Serif" font-size="10.00">+ zoomSmall()</text>
<text text-anchor="start" x="258" y="-35" font-family="Helvetica,sans-Serif" font-size="10.00">+ update()</text>
<text text-anchor="start" x="258" y="-24" font-family="Helvetica,sans-Serif" font-size="10.00">+ updateInput()</text>
<text text-anchor="start" x="258" y="-13" font-family="Helvetica,sans-Serif" font-size="10.00">+ updateEvents()</text>
</a>
</g>
</g>
<!-- Node1&#45;&gt;Node4 -->
<g id="edge3" class="edge">
<title>Node1&#45;&gt;Node4</title>
<path fill="none" stroke="#63b8ff" d="M339.38,-193.85C336.53,-182.91 333.72,-172.17 331.06,-161.94"/>
<polygon fill="none" stroke="#63b8ff" points="335.95,-194.59 341.86,-203.38 342.73,-192.82 335.95,-194.59"/>
</g>
<!-- Node5 -->
<g id="node5" class="node">
<title>Node5</title>
<g id="a_node5"><a xlink:href="classScoreState.html" target="_top" xlink:title=" ">
<polygon fill="white" stroke="#bfbfbf" points="390.5,-0.5 390.5,-167.5 499.5,-167.5 499.5,-0.5 390.5,-0.5"/>
<text text-anchor="middle" x="445" y="-155.5" font-family="Helvetica,sans-Serif" font-size="10.00">ScoreState</text>
<polyline fill="none" stroke="#bfbfbf" points="390.5,-148.5 499.5,-148.5"/>
<text text-anchor="start" x="398.5" y="-136.5" font-family="Helvetica,sans-Serif" font-size="10.00">+ isWordMode</text>
<polyline fill="none" stroke="#bfbfbf" points="390.5,-129.5 499.5,-129.5"/>
<text text-anchor="start" x="398.5" y="-117.5" font-family="Helvetica,sans-Serif" font-size="10.00">+ ScoreState()</text>
<text text-anchor="start" x="398.5" y="-106.5" font-family="Helvetica,sans-Serif" font-size="10.00">+ initBackground()</text>
<text text-anchor="start" x="398.5" y="-95.5" font-family="Helvetica,sans-Serif" font-size="10.00">+ reset()</text>
<text text-anchor="start" x="398.5" y="-84.5" font-family="Helvetica,sans-Serif" font-size="10.00">+ initButtons()</text>
<text text-anchor="start" x="398.5" y="-73.5" font-family="Helvetica,sans-Serif" font-size="10.00">+ ~ScoreState()</text>
<text text-anchor="start" x="398.5" y="-62.5" font-family="Helvetica,sans-Serif" font-size="10.00">+ updateInput()</text>
<text text-anchor="start" x="398.5" y="-51.5" font-family="Helvetica,sans-Serif" font-size="10.00">+ updateEvents()</text>
<text text-anchor="start" x="398.5" y="-40.5" font-family="Helvetica,sans-Serif" font-size="10.00">+ min()</text>
<text text-anchor="start" x="398.5" y="-29.5" font-family="Helvetica,sans-Serif" font-size="10.00">+ update()</text>
<text text-anchor="start" x="398.5" y="-18.5" font-family="Helvetica,sans-Serif" font-size="10.00">+ updateBtns()</text>
<text text-anchor="start" x="398.5" y="-7.5" font-family="Helvetica,sans-Serif" font-size="10.00">+ render()</text>
</a>
</g>
</g>
<!-- Node1&#45;&gt;Node5 -->
<g id="edge4" class="edge">
<title>Node1&#45;&gt;Node5</title>
<path fill="none" stroke="#63b8ff" d="M416.64,-193.79C418.99,-184.77 421.31,-175.88 423.54,-167.31"/>
<polygon fill="none" stroke="#63b8ff" points="413.27,-192.82 414.14,-203.38 420.05,-194.59 413.27,-192.82"/>
</g>
<!-- Node6 -->
<g id="node6" class="node">
<title>Node6</title>
<g id="a_node6"><a xlink:href="classSettingState.html" target="_top" xlink:title=" ">
<polygon fill="white" stroke="#bfbfbf" points="517.5,-6 517.5,-162 626.5,-162 626.5,-6 517.5,-6"/>
<text text-anchor="middle" x="572" y="-150" font-family="Helvetica,sans-Serif" font-size="10.00">SettingState</text>
<polyline fill="none" stroke="#bfbfbf" points="517.5,-143 626.5,-143"/>
<text text-anchor="start" x="525.5" y="-131" font-family="Helvetica,sans-Serif" font-size="10.00">+ isWordMode</text>
<polyline fill="none" stroke="#bfbfbf" points="517.5,-124 626.5,-124"/>
<text text-anchor="start" x="525.5" y="-112" font-family="Helvetica,sans-Serif" font-size="10.00">+ SettingState()</text>
<text text-anchor="start" x="525.5" y="-101" font-family="Helvetica,sans-Serif" font-size="10.00">+ initBackground()</text>
<text text-anchor="start" x="525.5" y="-90" font-family="Helvetica,sans-Serif" font-size="10.00">+ setValue()</text>
<text text-anchor="start" x="525.5" y="-79" font-family="Helvetica,sans-Serif" font-size="10.00">+ initButtons()</text>
<text text-anchor="start" x="525.5" y="-68" font-family="Helvetica,sans-Serif" font-size="10.00">+ ~SettingState()</text>
<text text-anchor="start" x="525.5" y="-57" font-family="Helvetica,sans-Serif" font-size="10.00">+ updateInput()</text>
<text text-anchor="start" x="525.5" y="-46" font-family="Helvetica,sans-Serif" font-size="10.00">+ updateEvents()</text>
<text text-anchor="start" x="525.5" y="-35" font-family="Helvetica,sans-Serif" font-size="10.00">+ update()</text>
<text text-anchor="start" x="525.5" y="-24" font-family="Helvetica,sans-Serif" font-size="10.00">+ updateBtns()</text>
<text text-anchor="start" x="525.5" y="-13" font-family="Helvetica,sans-Serif" font-size="10.00">+ render()</text>
</a>
</g>
</g>
<!-- Node1&#45;&gt;Node6 -->
<g id="edge5" class="edge">
<title>Node1&#45;&gt;Node6</title>
<path fill="none" stroke="#63b8ff" d="M443.95,-254.63C467.97,-222.81 494.83,-187.22 517.73,-156.9"/>
<polygon fill="none" stroke="#63b8ff" points="441.4,-252.2 438.17,-262.29 446.99,-256.41 441.4,-252.2"/>
</g>
<!-- Node7 -->
<g id="node7" class="node">
<title>Node7</title>
<g id="a_node7"><a xlink:href="classSummaryMenu.html" target="_top" xlink:title=" ">
<polygon fill="white" stroke="#bfbfbf" points="644.5,-11.5 644.5,-156.5 757.5,-156.5 757.5,-11.5 644.5,-11.5"/>
<text text-anchor="middle" x="701" y="-144.5" font-family="Helvetica,sans-Serif" font-size="10.00">SummaryMenu</text>
<polyline fill="none" stroke="#bfbfbf" points="644.5,-137.5 757.5,-137.5"/>
<text text-anchor="middle" x="701" y="-125.5" font-family="Helvetica,sans-Serif" font-size="10.00"> </text>
<polyline fill="none" stroke="#bfbfbf" points="644.5,-118.5 757.5,-118.5"/>
<text text-anchor="start" x="652.5" y="-106.5" font-family="Helvetica,sans-Serif" font-size="10.00">+ SummaryMenu()</text>
<text text-anchor="start" x="652.5" y="-95.5" font-family="Helvetica,sans-Serif" font-size="10.00">+ updateInput()</text>
<text text-anchor="start" x="652.5" y="-84.5" font-family="Helvetica,sans-Serif" font-size="10.00">+ render()</text>
<text text-anchor="start" x="652.5" y="-73.5" font-family="Helvetica,sans-Serif" font-size="10.00">+ zoomBig()</text>
<text text-anchor="start" x="652.5" y="-62.5" font-family="Helvetica,sans-Serif" font-size="10.00">+ zoomSmall()</text>
<text text-anchor="start" x="652.5" y="-51.5" font-family="Helvetica,sans-Serif" font-size="10.00">+ update()</text>
<text text-anchor="start" x="652.5" y="-40.5" font-family="Helvetica,sans-Serif" font-size="10.00">+ updateInput()</text>
<text text-anchor="start" x="652.5" y="-29.5" font-family="Helvetica,sans-Serif" font-size="10.00">+ updateEvents()</text>
<text text-anchor="start" x="652.5" y="-18.5" font-family="Helvetica,sans-Serif" font-size="10.00">+ checkPlayAgain()</text>
</a>
</g>
</g>
<!-- Node1&#45;&gt;Node7 -->
<g id="edge6" class="edge">
<title>Node1&#45;&gt;Node7</title>
<path fill="none" stroke="#63b8ff" d="M447.3,-303.42C501.83,-271.21 578.03,-221.99 636,-168 640.02,-164.26 643.99,-160.25 647.86,-156.1"/>
<polygon fill="none" stroke="#63b8ff" points="445.54,-300.39 438.68,-308.47 449.08,-306.43 445.54,-300.39"/>
</g>
</g>
</svg>
        <g id="navigator" transform="translate(0 0)" fill="#404254">
                <rect fill="#f2f5e9" fill-opacity="0.5" stroke="#606060" stroke-width=".5" x="0" y="0" width="60" height="60"/>
                <use id="zoomplus" xlink:href="#zoomPlus" x="17" y="9" onmousedown="handleZoom(evt,'in')"/>
                <use id="zoomminus" xlink:href="#zoomMin" x="42" y="9" onmousedown="handleZoom(evt,'out')"/>
                <use id="reset" xlink:href="#resetDef" x="30" y="36" onmousedown="handleReset()"/>
                <g id="arrowUp" xlink:href="#dirArrow" transform="translate(30 24)" onmousedown="handlePan(0,-1)">
                  <use xlink:href="#rim" fill="#404040">
                        <set attributeName="fill" to="#808080" begin="arrowUp.mouseover" end="arrowUp.mouseout"/>
                  </use>
                  <path fill="none" stroke="white" stroke-width="1.5" d="M0,-3.0v7 M-2.5,-0.5L0,-3.0L2.5,-0.5"/>
                </g>
                <g id="arrowRight" xlink:href="#dirArrow" transform="rotate(90) translate(36 -43)" onmousedown="handlePan(1,0)">
                  <use xlink:href="#rim" fill="#404040">
                        <set attributeName="fill" to="#808080" begin="arrowRight.mouseover" end="arrowRight.mouseout"/>
                  </use>
                  <path fill="none" stroke="white" stroke-width="1.5" d="M0,-3.0v7 M-2.5,-0.5L0,-3.0L2.5,-0.5"/>
                </g>
                <g id="arrowDown" xlink:href="#dirArrow" transform="rotate(180) translate(-30 -48)" onmousedown="handlePan(0,1)">
                  <use xlink:href="#rim" fill="#404040">
                        <set attributeName="fill" to="#808080" begin="arrowDown.mouseover" end="arrowDown.mouseout"/>
                  </use>
                  <path fill="none" stroke="white" stroke-width="1.5" d="M0,-3.0v7 M-2.5,-0.5L0,-3.0L2.5,-0.5"/>
                </g>
                <g id="arrowLeft" xlink:href="#dirArrow" transform="rotate(270) translate(-36 17)" onmousedown="handlePan(-1,0)">
                  <use xlink:href="#rim" fill="#404040">
                        <set attributeName="fill" to="#808080" begin="arrowLeft.mouseover" end="arrowLeft.mouseout"/>
                  </use>
                  <path fill="none" stroke="white" stroke-width="1.5" d="M0,-3.0v7 M-2.5,-0.5L0,-3.0L2.5,-0.5"/>
                </g>
        </g>
        <svg viewBox="0 0 15 15" width="100%" height="30px" preserveAspectRatio="xMaxYMin meet">
         <g id="arrow_out" transform="scale(0.3 0.3)">
          <a xlink:href="classState__inherit__graph_org.svg" target="_base">
           <rect id="button" ry="5" rx="5" y="6" x="6" height="38" width="38"
                fill="#f2f5e9" fill-opacity="0.5" stroke="#606060" stroke-width="1.0"/>
           <path id="arrow"
             d="M 11.500037,31.436501 C 11.940474,20.09759 22.043105,11.32322 32.158766,21.979434 L 37.068811,17.246167 C 37.068811,17.246167 37.088388,32 37.088388,32 L 22.160133,31.978069 C 22.160133,31.978069 26.997745,27.140456 26.997745,27.140456 C 18.528582,18.264221 13.291696,25.230495 11.500037,31.436501 z"
             style="fill:#404040;"/>
          </a>
         </g>
        </svg>
</svg>
