<?xml version="1.0" encoding="UTF-8" standalone="no"?>
<!DOCTYPE svg PUBLIC "-//W3C//DTD SVG 1.1//EN"
 "http://www.w3.org/Graphics/SVG/1.1/DTD/svg11.dtd">
<!-- Generated by graphviz version 7.0.5 (0)
 -->
<!-- Title: Animal Pages: 1 -->
<svg width="322pt" height="937pt"
 viewBox="0.00 0.00 321.50 937.00" xmlns="http://www.w3.org/2000/svg" xmlns:xlink="http://www.w3.org/1999/xlink">
<g id="graph0" class="graph" transform="scale(1 1) rotate(0) translate(4 933)">
<title>Animal</title>
<!-- Node1 -->
<g id="node1" class="node">
<title>Node1</title>
<g id="a_node1"><a xlink:title=" ">
<polygon fill="#999999" stroke="#666666" points="95,-0.5 95,-112.5 202,-112.5 202,-0.5 95,-0.5"/>
<text text-anchor="middle" x="148.5" y="-100.5" font-family="Helvetica,sans-Serif" font-size="10.00">Animal</text>
<polyline fill="none" stroke="#666666" points="95,-93.5 202,-93.5"/>
<text text-anchor="middle" x="148.5" y="-81.5" font-family="Helvetica,sans-Serif" font-size="10.00"> </text>
<polyline fill="none" stroke="#666666" points="95,-74.5 202,-74.5"/>
<text text-anchor="start" x="103" y="-62.5" font-family="Helvetica,sans-Serif" font-size="10.00">+ getClassName()</text>
<text text-anchor="start" x="103" y="-51.5" font-family="Helvetica,sans-Serif" font-size="10.00">+ getCategory()</text>
<text text-anchor="start" x="103" y="-40.5" font-family="Helvetica,sans-Serif" font-size="10.00">+ Entity()</text>
<text text-anchor="start" x="103" y="-29.5" font-family="Helvetica,sans-Serif" font-size="10.00">+ Entity()</text>
<text text-anchor="start" x="103" y="-18.5" font-family="Helvetica,sans-Serif" font-size="10.00">+ Entity()</text>
<text text-anchor="start" x="103" y="-7.5" font-family="Helvetica,sans-Serif" font-size="10.00">+ Entity()</text>
</a>
</g>
</g>
<!-- Node2 -->
<g id="node2" class="node">
<title>Node2</title>
<g id="a_node2"><a xlink:href="classEnemy.html" target="_top" xlink:title=" ">
<polygon fill="white" stroke="#bfbfbf" points="0,-237.5 0,-316.5 143,-316.5 143,-237.5 0,-237.5"/>
<text text-anchor="middle" x="71.5" y="-304.5" font-family="Helvetica,sans-Serif" font-size="10.00">Enemy</text>
<polyline fill="none" stroke="#bfbfbf" points="0,-297.5 143,-297.5"/>
<text text-anchor="middle" x="71.5" y="-285.5" font-family="Helvetica,sans-Serif" font-size="10.00"> </text>
<polyline fill="none" stroke="#bfbfbf" points="0,-278.5 143,-278.5"/>
<text text-anchor="start" x="8" y="-266.5" font-family="Helvetica,sans-Serif" font-size="10.00">+ getCategory()</text>
<text text-anchor="start" x="8" y="-255.5" font-family="Helvetica,sans-Serif" font-size="10.00">+ getClassName()</text>
<text text-anchor="start" x="8" y="-244.5" font-family="Helvetica,sans-Serif" font-size="10.00"># onStartPlayerCollision()</text>
</a>
</g>
</g>
<!-- Node2&#45;&gt;Node1 -->
<g id="edge1" class="edge">
<title>Node2&#45;&gt;Node1</title>
<path fill="none" stroke="#63b8ff" d="M88.75,-227.05C100.76,-192.96 116.79,-147.47 129.23,-112.19"/>
<polygon fill="none" stroke="#63b8ff" points="85.53,-225.67 85.5,-236.26 92.13,-227.99 85.53,-225.67"/>
</g>
<!-- Node3 -->
<g id="node3" class="node">
<title>Node3</title>
<g id="a_node3"><a xlink:href="classPlayerCollidable.html" target="_top" xlink:title=" ">
<polygon fill="white" stroke="#bfbfbf" points="35.5,-441.5 35.5,-531.5 167.5,-531.5 167.5,-441.5 35.5,-441.5"/>
<text text-anchor="middle" x="101.5" y="-519.5" font-family="Helvetica,sans-Serif" font-size="10.00">PlayerCollidable</text>
<polyline fill="none" stroke="#bfbfbf" points="35.5,-512.5 167.5,-512.5"/>
<text text-anchor="start" x="43.5" y="-500.5" font-family="Helvetica,sans-Serif" font-size="10.00"># isCollidingWithPlayer</text>
<text text-anchor="start" x="43.5" y="-489.5" font-family="Helvetica,sans-Serif" font-size="10.00"># player</text>
<polyline fill="none" stroke="#bfbfbf" points="35.5,-482.5 167.5,-482.5"/>
<text text-anchor="start" x="43.5" y="-470.5" font-family="Helvetica,sans-Serif" font-size="10.00">+ onPlayerCollision()</text>
<text text-anchor="start" x="43.5" y="-459.5" font-family="Helvetica,sans-Serif" font-size="10.00">+ updateCurrent()</text>
<text text-anchor="start" x="43.5" y="-448.5" font-family="Helvetica,sans-Serif" font-size="10.00">+ SceneNode()</text>
</a>
</g>
</g>
<!-- Node3&#45;&gt;Node2 -->
<g id="edge2" class="edge">
<title>Node3&#45;&gt;Node2</title>
<path fill="none" stroke="#63b8ff" d="M93.54,-430.46C88.35,-394.52 81.69,-348.49 77.06,-316.46"/>
<polygon fill="none" stroke="#63b8ff" points="90.06,-430.85 94.96,-440.25 96.99,-429.85 90.06,-430.85"/>
</g>
<!-- Node4 -->
<g id="node4" class="node">
<title>Node4</title>
<g id="a_node4"><a xlink:href="classSceneNode.html" target="_top" xlink:title="A node in the scene graph.">
<polygon fill="white" stroke="#666666" points="81,-568.5 81,-834.5 216,-834.5 216,-568.5 81,-568.5"/>
<text text-anchor="middle" x="148.5" y="-822.5" font-family="Helvetica,sans-Serif" font-size="10.00">SceneNode</text>
<polyline fill="none" stroke="#666666" points="81,-815.5 216,-815.5"/>
<text text-anchor="middle" x="148.5" y="-803.5" font-family="Helvetica,sans-Serif" font-size="10.00"> </text>
<polyline fill="none" stroke="#666666" points="81,-796.5 216,-796.5"/>
<text text-anchor="start" x="89" y="-784.5" font-family="Helvetica,sans-Serif" font-size="10.00">+ SceneNode()</text>
<text text-anchor="start" x="89" y="-773.5" font-family="Helvetica,sans-Serif" font-size="10.00">+ attachChild()</text>
<text text-anchor="start" x="89" y="-762.5" font-family="Helvetica,sans-Serif" font-size="10.00">+ detachChild()</text>
<text text-anchor="start" x="89" y="-751.5" font-family="Helvetica,sans-Serif" font-size="10.00">+ update()</text>
<text text-anchor="start" x="89" y="-740.5" font-family="Helvetica,sans-Serif" font-size="10.00">+ getAbsTransform()</text>
<text text-anchor="start" x="89" y="-729.5" font-family="Helvetica,sans-Serif" font-size="10.00">+ getAbsPosition()</text>
<text text-anchor="start" x="89" y="-718.5" font-family="Helvetica,sans-Serif" font-size="10.00">+ checkNodeCollision()</text>
<text text-anchor="start" x="89" y="-707.5" font-family="Helvetica,sans-Serif" font-size="10.00">+ checkSceneCollision()</text>
<text text-anchor="start" x="89" y="-696.5" font-family="Helvetica,sans-Serif" font-size="10.00">+ setDebug()</text>
<text text-anchor="start" x="89" y="-685.5" font-family="Helvetica,sans-Serif" font-size="10.00">+ getCategory()</text>
<text text-anchor="start" x="89" y="-674.5" font-family="Helvetica,sans-Serif" font-size="10.00">+ saveNode()</text>
<text text-anchor="start" x="89" y="-663.5" font-family="Helvetica,sans-Serif" font-size="10.00">+ operator&lt;()</text>
<text text-anchor="start" x="89" y="-652.5" font-family="Helvetica,sans-Serif" font-size="10.00">+ getBoundingRect()</text>
<text text-anchor="start" x="89" y="-641.5" font-family="Helvetica,sans-Serif" font-size="10.00">+ getLocalBounds()</text>
<text text-anchor="start" x="89" y="-630.5" font-family="Helvetica,sans-Serif" font-size="10.00">+ draw()</text>
<text text-anchor="start" x="89" y="-619.5" font-family="Helvetica,sans-Serif" font-size="10.00"># getClassName()</text>
<text text-anchor="start" x="89" y="-608.5" font-family="Helvetica,sans-Serif" font-size="10.00"># saveCurrentNode()</text>
<text text-anchor="start" x="89" y="-597.5" font-family="Helvetica,sans-Serif" font-size="10.00"># loadCurrentNode()</text>
<text text-anchor="start" x="89" y="-586.5" font-family="Helvetica,sans-Serif" font-size="10.00"># onLoadingFinished()</text>
<text text-anchor="start" x="89" y="-575.5" font-family="Helvetica,sans-Serif" font-size="10.00"># shouldSave()</text>
</a>
</g>
</g>
<!-- Node4&#45;&gt;Node3 -->
<g id="edge3" class="edge">
<title>Node4&#45;&gt;Node3</title>
<path fill="none" stroke="#63b8ff" d="M116.96,-557.58C114.92,-548.32 112.97,-539.47 111.18,-531.37"/>
<polygon fill="none" stroke="#63b8ff" points="113.5,-558.14 119.08,-567.16 120.34,-556.64 113.5,-558.14"/>
</g>
<!-- Node8 -->
<g id="node8" class="node">
<title>Node8</title>
<g id="a_node8"><a xlink:href="classEntity.html" target="_top" xlink:title=" ">
<polygon fill="white" stroke="#666666" points="161.5,-149.5 161.5,-404.5 291.5,-404.5 291.5,-149.5 161.5,-149.5"/>
<text text-anchor="middle" x="226.5" y="-392.5" font-family="Helvetica,sans-Serif" font-size="10.00">Entity</text>
<polyline fill="none" stroke="#666666" points="161.5,-385.5 291.5,-385.5"/>
<text text-anchor="start" x="169.5" y="-373.5" font-family="Helvetica,sans-Serif" font-size="10.00"># velocity</text>
<text text-anchor="start" x="169.5" y="-362.5" font-family="Helvetica,sans-Serif" font-size="10.00"># localBounds</text>
<text text-anchor="start" x="169.5" y="-351.5" font-family="Helvetica,sans-Serif" font-size="10.00"># spriteBounds</text>
<text text-anchor="start" x="169.5" y="-340.5" font-family="Helvetica,sans-Serif" font-size="10.00"># animation</text>
<polyline fill="none" stroke="#666666" points="161.5,-333.5 291.5,-333.5"/>
<text text-anchor="start" x="169.5" y="-321.5" font-family="Helvetica,sans-Serif" font-size="10.00">+ Entity()</text>
<text text-anchor="start" x="169.5" y="-310.5" font-family="Helvetica,sans-Serif" font-size="10.00">+ Entity()</text>
<text text-anchor="start" x="169.5" y="-299.5" font-family="Helvetica,sans-Serif" font-size="10.00">+ Entity()</text>
<text text-anchor="start" x="169.5" y="-288.5" font-family="Helvetica,sans-Serif" font-size="10.00">+ Entity()</text>
<text text-anchor="start" x="169.5" y="-277.5" font-family="Helvetica,sans-Serif" font-size="10.00">+ getVelocity()</text>
<text text-anchor="start" x="169.5" y="-266.5" font-family="Helvetica,sans-Serif" font-size="10.00">+ setVelocity()</text>
<text text-anchor="start" x="169.5" y="-255.5" font-family="Helvetica,sans-Serif" font-size="10.00">+ getLocalBounds()</text>
<text text-anchor="start" x="169.5" y="-244.5" font-family="Helvetica,sans-Serif" font-size="10.00">+ getSpriteBounds()</text>
<text text-anchor="start" x="169.5" y="-233.5" font-family="Helvetica,sans-Serif" font-size="10.00">+ adjustSpriteBounds()</text>
<text text-anchor="start" x="169.5" y="-222.5" font-family="Helvetica,sans-Serif" font-size="10.00">+ adjustBounds()</text>
<text text-anchor="start" x="169.5" y="-211.5" font-family="Helvetica,sans-Serif" font-size="10.00">+ getClassName()</text>
<text text-anchor="start" x="169.5" y="-200.5" font-family="Helvetica,sans-Serif" font-size="10.00">+ saveCurrentNode()</text>
<text text-anchor="start" x="169.5" y="-189.5" font-family="Helvetica,sans-Serif" font-size="10.00">+ loadCurrentNode()</text>
<text text-anchor="start" x="169.5" y="-178.5" font-family="Helvetica,sans-Serif" font-size="10.00"># drawCurrent()</text>
<text text-anchor="start" x="169.5" y="-167.5" font-family="Helvetica,sans-Serif" font-size="10.00"># updateCurrent()</text>
<text text-anchor="start" x="169.5" y="-156.5" font-family="Helvetica,sans-Serif" font-size="10.00"># shouldSave()</text>
</a>
</g>
</g>
<!-- Node4&#45;&gt;Node8 -->
<g id="edge8" class="edge">
<title>Node4&#45;&gt;Node8</title>
<path fill="none" stroke="#63b8ff" d="M174.92,-557.39C184.09,-507.73 194.29,-452.45 203.19,-404.25"/>
<polygon fill="none" stroke="#63b8ff" points="171.51,-556.6 173.13,-567.07 178.39,-557.87 171.51,-556.6"/>
</g>
<!-- Node5 -->
<g id="node5" class="node">
<title>Node5</title>
<g id="a_node5"><a xlink:title=" ">
<polygon fill="white" stroke="#bfbfbf" points="3,-871.5 3,-928.5 80,-928.5 80,-871.5 3,-871.5"/>
<text text-anchor="middle" x="41.5" y="-916.5" font-family="Helvetica,sans-Serif" font-size="10.00">sf::Drawable</text>
<polyline fill="none" stroke="#bfbfbf" points="3,-909.5 80,-909.5"/>
<text text-anchor="middle" x="41.5" y="-897.5" font-family="Helvetica,sans-Serif" font-size="10.00"> </text>
<polyline fill="none" stroke="#bfbfbf" points="3,-890.5 80,-890.5"/>
<text text-anchor="middle" x="41.5" y="-878.5" font-family="Helvetica,sans-Serif" font-size="10.00"> </text>
</a>
</g>
</g>
<!-- Node5&#45;&gt;Node4 -->
<g id="edge4" class="edge">
<title>Node5&#45;&gt;Node4</title>
<path fill="none" stroke="#63b8ff" d="M61.82,-861.68C67.57,-851.13 74.15,-839.04 81.07,-826.33"/>
<polygon fill="none" stroke="#63b8ff" points="58.81,-859.89 57.1,-870.35 64.96,-863.24 58.81,-859.89"/>
</g>
<!-- Node6 -->
<g id="node6" class="node">
<title>Node6</title>
<g id="a_node6"><a xlink:title=" ">
<polygon fill="white" stroke="#bfbfbf" points="98,-871.5 98,-928.5 199,-928.5 199,-871.5 98,-871.5"/>
<text text-anchor="middle" x="148.5" y="-916.5" font-family="Helvetica,sans-Serif" font-size="10.00">sf::Transformable</text>
<polyline fill="none" stroke="#bfbfbf" points="98,-909.5 199,-909.5"/>
<text text-anchor="middle" x="148.5" y="-897.5" font-family="Helvetica,sans-Serif" font-size="10.00"> </text>
<polyline fill="none" stroke="#bfbfbf" points="98,-890.5 199,-890.5"/>
<text text-anchor="middle" x="148.5" y="-878.5" font-family="Helvetica,sans-Serif" font-size="10.00"> </text>
</a>
</g>
</g>
<!-- Node6&#45;&gt;Node4 -->
<g id="edge5" class="edge">
<title>Node6&#45;&gt;Node4</title>
<path fill="none" stroke="#63b8ff" d="M148.5,-860.31C148.5,-852.36 148.5,-843.58 148.5,-834.35"/>
<polygon fill="none" stroke="#63b8ff" points="145,-860.16 148.5,-870.16 152,-860.16 145,-860.16"/>
</g>
<!-- Node7 -->
<g id="node7" class="node">
<title>Node7</title>
<g id="a_node7"><a xlink:title=" ">
<polygon fill="white" stroke="#bfbfbf" points="217.5,-871.5 217.5,-928.5 313.5,-928.5 313.5,-871.5 217.5,-871.5"/>
<text text-anchor="middle" x="265.5" y="-916.5" font-family="Helvetica,sans-Serif" font-size="10.00">sf::NonCopyable</text>
<polyline fill="none" stroke="#bfbfbf" points="217.5,-909.5 313.5,-909.5"/>
<text text-anchor="middle" x="265.5" y="-897.5" font-family="Helvetica,sans-Serif" font-size="10.00"> </text>
<polyline fill="none" stroke="#bfbfbf" points="217.5,-890.5 313.5,-890.5"/>
<text text-anchor="middle" x="265.5" y="-878.5" font-family="Helvetica,sans-Serif" font-size="10.00"> </text>
</a>
</g>
</g>
<!-- Node7&#45;&gt;Node4 -->
<g id="edge6" class="edge">
<title>Node7&#45;&gt;Node4</title>
<path fill="none" stroke="#8b1a1a" d="M243.38,-861.86C235.32,-848.32 225.73,-832.21 215.8,-815.52"/>
<polygon fill="none" stroke="#8b1a1a" points="240.33,-863.58 248.46,-870.38 246.35,-859.99 240.33,-863.58"/>
</g>
<!-- Node8&#45;&gt;Node1 -->
<g id="edge7" class="edge">
<title>Node8&#45;&gt;Node1</title>
<path fill="none" stroke="#63b8ff" d="M177.49,-138.72C174.24,-129.6 171.08,-120.76 168.13,-112.48"/>
<polygon fill="none" stroke="#63b8ff" points="174.19,-139.86 180.84,-148.1 180.78,-137.51 174.19,-139.86"/>
</g>
</g>
</svg>
