<?xml version="1.0" encoding="UTF-8" standalone="no"?>
<!DOCTYPE svg PUBLIC "-//W3C//DTD SVG 1.1//EN"
 "http://www.w3.org/Graphics/SVG/1.1/DTD/svg11.dtd">
<!-- Generated by graphviz version 7.0.5 (0)
 -->
<!-- Title: SpriteNode Pages: 1 -->
<svg width="319pt" height="562pt"
 viewBox="0.00 0.00 318.50 562.00" xmlns="http://www.w3.org/2000/svg" xmlns:xlink="http://www.w3.org/1999/xlink">
<g id="graph0" class="graph" transform="scale(1 1) rotate(0) translate(4 558)">
<title>SpriteNode</title>
<!-- Node1 -->
<g id="node1" class="node">
<title>Node1</title>
<g id="a_node1"><a xlink:title=" ">
<polygon fill="#999999" stroke="#666666" points="85.5,-0.5 85.5,-156.5 205.5,-156.5 205.5,-0.5 85.5,-0.5"/>
<text text-anchor="middle" x="145.5" y="-144.5" font-family="Helvetica,sans-Serif" font-size="10.00">SpriteNode</text>
<polyline fill="none" stroke="#666666" points="85.5,-137.5 205.5,-137.5"/>
<text text-anchor="start" x="93.5" y="-125.5" font-family="Helvetica,sans-Serif" font-size="10.00"># id</text>
<text text-anchor="start" x="93.5" y="-114.5" font-family="Helvetica,sans-Serif" font-size="10.00"># size</text>
<text text-anchor="start" x="93.5" y="-103.5" font-family="Helvetica,sans-Serif" font-size="10.00"># sprite</text>
<polyline fill="none" stroke="#666666" points="85.5,-96.5 205.5,-96.5"/>
<text text-anchor="start" x="93.5" y="-84.5" font-family="Helvetica,sans-Serif" font-size="10.00">+ saveCurrentNode()</text>
<text text-anchor="start" x="93.5" y="-73.5" font-family="Helvetica,sans-Serif" font-size="10.00">+ loadCurrentNode()</text>
<text text-anchor="start" x="93.5" y="-62.5" font-family="Helvetica,sans-Serif" font-size="10.00">+ shouldSave()</text>
<text text-anchor="start" x="93.5" y="-51.5" font-family="Helvetica,sans-Serif" font-size="10.00">+ SpriteNode()</text>
<text text-anchor="start" x="93.5" y="-40.5" font-family="Helvetica,sans-Serif" font-size="10.00">+ SpriteNode()</text>
<text text-anchor="start" x="93.5" y="-29.5" font-family="Helvetica,sans-Serif" font-size="10.00">+ drawCurrent()</text>
<text text-anchor="start" x="93.5" y="-18.5" font-family="Helvetica,sans-Serif" font-size="10.00">+ updateCurrent()</text>
<text text-anchor="start" x="93.5" y="-7.5" font-family="Helvetica,sans-Serif" font-size="10.00">+ getClassName()</text>
</a>
</g>
</g>
<!-- Node2 -->
<g id="node2" class="node">
<title>Node2</title>
<g id="a_node2"><a xlink:href="classSceneNode.html" target="_top" xlink:title="A node in the scene graph.">
<polygon fill="white" stroke="#666666" points="78,-193.5 78,-459.5 213,-459.5 213,-193.5 78,-193.5"/>
<text text-anchor="middle" x="145.5" y="-447.5" font-family="Helvetica,sans-Serif" font-size="10.00">SceneNode</text>
<polyline fill="none" stroke="#666666" points="78,-440.5 213,-440.5"/>
<text text-anchor="middle" x="145.5" y="-428.5" font-family="Helvetica,sans-Serif" font-size="10.00"> </text>
<polyline fill="none" stroke="#666666" points="78,-421.5 213,-421.5"/>
<text text-anchor="start" x="86" y="-409.5" font-family="Helvetica,sans-Serif" font-size="10.00">+ SceneNode()</text>
<text text-anchor="start" x="86" y="-398.5" font-family="Helvetica,sans-Serif" font-size="10.00">+ attachChild()</text>
<text text-anchor="start" x="86" y="-387.5" font-family="Helvetica,sans-Serif" font-size="10.00">+ detachChild()</text>
<text text-anchor="start" x="86" y="-376.5" font-family="Helvetica,sans-Serif" font-size="10.00">+ update()</text>
<text text-anchor="start" x="86" y="-365.5" font-family="Helvetica,sans-Serif" font-size="10.00">+ getAbsTransform()</text>
<text text-anchor="start" x="86" y="-354.5" font-family="Helvetica,sans-Serif" font-size="10.00">+ getAbsPosition()</text>
<text text-anchor="start" x="86" y="-343.5" font-family="Helvetica,sans-Serif" font-size="10.00">+ checkNodeCollision()</text>
<text text-anchor="start" x="86" y="-332.5" font-family="Helvetica,sans-Serif" font-size="10.00">+ checkSceneCollision()</text>
<text text-anchor="start" x="86" y="-321.5" font-family="Helvetica,sans-Serif" font-size="10.00">+ setDebug()</text>
<text text-anchor="start" x="86" y="-310.5" font-family="Helvetica,sans-Serif" font-size="10.00">+ getCategory()</text>
<text text-anchor="start" x="86" y="-299.5" font-family="Helvetica,sans-Serif" font-size="10.00">+ saveNode()</text>
<text text-anchor="start" x="86" y="-288.5" font-family="Helvetica,sans-Serif" font-size="10.00">+ operator&lt;()</text>
<text text-anchor="start" x="86" y="-277.5" font-family="Helvetica,sans-Serif" font-size="10.00">+ getBoundingRect()</text>
<text text-anchor="start" x="86" y="-266.5" font-family="Helvetica,sans-Serif" font-size="10.00">+ getLocalBounds()</text>
<text text-anchor="start" x="86" y="-255.5" font-family="Helvetica,sans-Serif" font-size="10.00">+ draw()</text>
<text text-anchor="start" x="86" y="-244.5" font-family="Helvetica,sans-Serif" font-size="10.00"># getClassName()</text>
<text text-anchor="start" x="86" y="-233.5" font-family="Helvetica,sans-Serif" font-size="10.00"># saveCurrentNode()</text>
<text text-anchor="start" x="86" y="-222.5" font-family="Helvetica,sans-Serif" font-size="10.00"># loadCurrentNode()</text>
<text text-anchor="start" x="86" y="-211.5" font-family="Helvetica,sans-Serif" font-size="10.00"># onLoadingFinished()</text>
<text text-anchor="start" x="86" y="-200.5" font-family="Helvetica,sans-Serif" font-size="10.00"># shouldSave()</text>
</a>
</g>
</g>
<!-- Node2&#45;&gt;Node1 -->
<g id="edge1" class="edge">
<title>Node2&#45;&gt;Node1</title>
<path fill="none" stroke="#63b8ff" d="M145.5,-182.51C145.5,-173.6 145.5,-164.84 145.5,-156.41"/>
<polygon fill="none" stroke="#63b8ff" points="142,-182.34 145.5,-192.34 149,-182.34 142,-182.34"/>
</g>
<!-- Node3 -->
<g id="node3" class="node">
<title>Node3</title>
<g id="a_node3"><a xlink:title=" ">
<polygon fill="white" stroke="#bfbfbf" points="0,-496.5 0,-553.5 77,-553.5 77,-496.5 0,-496.5"/>
<text text-anchor="middle" x="38.5" y="-541.5" font-family="Helvetica,sans-Serif" font-size="10.00">sf::Drawable</text>
<polyline fill="none" stroke="#bfbfbf" points="0,-534.5 77,-534.5"/>
<text text-anchor="middle" x="38.5" y="-522.5" font-family="Helvetica,sans-Serif" font-size="10.00"> </text>
<polyline fill="none" stroke="#bfbfbf" points="0,-515.5 77,-515.5"/>
<text text-anchor="middle" x="38.5" y="-503.5" font-family="Helvetica,sans-Serif" font-size="10.00"> </text>
</a>
</g>
</g>
<!-- Node3&#45;&gt;Node2 -->
<g id="edge2" class="edge">
<title>Node3&#45;&gt;Node2</title>
<path fill="none" stroke="#63b8ff" d="M58.82,-486.68C64.57,-476.13 71.15,-464.04 78.07,-451.33"/>
<polygon fill="none" stroke="#63b8ff" points="55.81,-484.89 54.1,-495.35 61.96,-488.24 55.81,-484.89"/>
</g>
<!-- Node4 -->
<g id="node4" class="node">
<title>Node4</title>
<g id="a_node4"><a xlink:title=" ">
<polygon fill="white" stroke="#bfbfbf" points="95,-496.5 95,-553.5 196,-553.5 196,-496.5 95,-496.5"/>
<text text-anchor="middle" x="145.5" y="-541.5" font-family="Helvetica,sans-Serif" font-size="10.00">sf::Transformable</text>
<polyline fill="none" stroke="#bfbfbf" points="95,-534.5 196,-534.5"/>
<text text-anchor="middle" x="145.5" y="-522.5" font-family="Helvetica,sans-Serif" font-size="10.00"> </text>
<polyline fill="none" stroke="#bfbfbf" points="95,-515.5 196,-515.5"/>
<text text-anchor="middle" x="145.5" y="-503.5" font-family="Helvetica,sans-Serif" font-size="10.00"> </text>
</a>
</g>
</g>
<!-- Node4&#45;&gt;Node2 -->
<g id="edge3" class="edge">
<title>Node4&#45;&gt;Node2</title>
<path fill="none" stroke="#63b8ff" d="M145.5,-485.31C145.5,-477.36 145.5,-468.58 145.5,-459.35"/>
<polygon fill="none" stroke="#63b8ff" points="142,-485.16 145.5,-495.16 149,-485.16 142,-485.16"/>
</g>
<!-- Node5 -->
<g id="node5" class="node">
<title>Node5</title>
<g id="a_node5"><a xlink:title=" ">
<polygon fill="white" stroke="#bfbfbf" points="214.5,-496.5 214.5,-553.5 310.5,-553.5 310.5,-496.5 214.5,-496.5"/>
<text text-anchor="middle" x="262.5" y="-541.5" font-family="Helvetica,sans-Serif" font-size="10.00">sf::NonCopyable</text>
<polyline fill="none" stroke="#bfbfbf" points="214.5,-534.5 310.5,-534.5"/>
<text text-anchor="middle" x="262.5" y="-522.5" font-family="Helvetica,sans-Serif" font-size="10.00"> </text>
<polyline fill="none" stroke="#bfbfbf" points="214.5,-515.5 310.5,-515.5"/>
<text text-anchor="middle" x="262.5" y="-503.5" font-family="Helvetica,sans-Serif" font-size="10.00"> </text>
</a>
</g>
</g>
<!-- Node5&#45;&gt;Node2 -->
<g id="edge4" class="edge">
<title>Node5&#45;&gt;Node2</title>
<path fill="none" stroke="#8b1a1a" d="M240.38,-486.86C232.32,-473.32 222.73,-457.21 212.8,-440.52"/>
<polygon fill="none" stroke="#8b1a1a" points="237.33,-488.58 245.46,-495.38 243.35,-484.99 237.33,-488.58"/>
</g>
</g>
</svg>
