<?xml version="1.0" encoding="UTF-8" standalone="no"?>
<!DOCTYPE svg PUBLIC "-//W3C//DTD SVG 1.1//EN"
 "http://www.w3.org/Graphics/SVG/1.1/DTD/svg11.dtd">
<!-- Generated by graphviz version 7.0.5 (0)
 -->
<!-- Title: VehicleLane Pages: 1 -->
<!--zoomable 1036 -->
<svg id="main" version="1.1" xmlns="http://www.w3.org/2000/svg" xmlns:xlink="http://www.w3.org/1999/xlink" xml:space="preserve" onload="init(evt)">
<style type="text/css"><![CDATA[
.edge:hover path { stroke: red; }
.edge:hover polygon { stroke: red; fill: red; }
]]></style>
<script type="text/javascript"><![CDATA[
var edges = document.getElementsByTagName('g');
if (edges && edges.length) {
  for (var i=0;i<edges.length;i++) {
    if (edges[i].id.substr(0,4)=='edge') {
      edges[i].setAttribute('class','edge');
    }
  }
}
]]></script>
        <defs>
                <circle id="rim" cx="0" cy="0" r="7"/>
                <circle id="rim2" cx="0" cy="0" r="3.5"/>
                <g id="zoomPlus">
                        <use xlink:href="#rim" fill="#404040">
                                <set attributeName="fill" to="#808080" begin="zoomplus.mouseover" end="zoomplus.mouseout"/>
                        </use>
                        <path d="M-4,0h8M0,-4v8" fill="none" stroke="white" stroke-width="1.5" pointer-events="none"/>
                </g>
                <g id="zoomMin">
                        <use xlink:href="#rim" fill="#404040">
                                <set attributeName="fill" to="#808080" begin="zoomminus.mouseover" end="zoomminus.mouseout"/>
                        </use>
                        <path d="M-4,0h8" fill="none" stroke="white" stroke-width="1.5" pointer-events="none"/>
                </g>
                <g id="dirArrow">
                        <path fill="none" stroke="white" stroke-width="1.5" d="M0,-3.0v7 M-2.5,-0.5L0,-3.0L2.5,-0.5"/>
                </g>
               <g id="resetDef">
                       <use xlink:href="#rim2" fill="#404040">
                               <set attributeName="fill" to="#808080" begin="reset.mouseover" end="reset.mouseout"/>
                       </use>
               </g>
        </defs>

<script type="text/javascript">
var viewWidth = 355;
var viewHeight = 1036;
var sectionId = 'dynsection-0';
</script>
<script xlink:href="svgpan.js"/>
<svg id="graph" class="graph">
<g id="viewport">
<title>VehicleLane</title>
<!-- Node1 -->
<g id="node1" class="node">
<title>Node1</title>
<g id="a_node1"><a xlink:title=" ">
<polygon fill="#999999" stroke="#666666" points="154.5,-0.5 154.5,-123.5 280.5,-123.5 280.5,-0.5 154.5,-0.5"/>
<text text-anchor="middle" x="217.5" y="-111.5" font-family="Helvetica,sans-Serif" font-size="10.00">VehicleLane</text>
<polyline fill="none" stroke="#666666" points="154.5,-104.5 280.5,-104.5"/>
<text text-anchor="middle" x="217.5" y="-92.5" font-family="Helvetica,sans-Serif" font-size="10.00"> </text>
<polyline fill="none" stroke="#666666" points="154.5,-85.5 280.5,-85.5"/>
<text text-anchor="start" x="162.5" y="-73.5" font-family="Helvetica,sans-Serif" font-size="10.00">+ getType()</text>
<text text-anchor="start" x="162.5" y="-62.5" font-family="Helvetica,sans-Serif" font-size="10.00">+ onLightChanged()</text>
<text text-anchor="start" x="162.5" y="-51.5" font-family="Helvetica,sans-Serif" font-size="10.00">+ getClassName()</text>
<text text-anchor="start" x="162.5" y="-40.5" font-family="Helvetica,sans-Serif" font-size="10.00">+ RoadLane()</text>
<text text-anchor="start" x="162.5" y="-29.5" font-family="Helvetica,sans-Serif" font-size="10.00">+ RoadLane()</text>
<text text-anchor="start" x="162.5" y="-18.5" font-family="Helvetica,sans-Serif" font-size="10.00">+ RoadLane()</text>
<text text-anchor="start" x="162.5" y="-7.5" font-family="Helvetica,sans-Serif" font-size="10.00"># updateCommuters()</text>
</a>
</g>
</g>
<!-- Node2 -->
<g id="node2" class="node">
<title>Node2</title>
<g id="a_node2"><a xlink:href="classRoadLane.html" target="_top" xlink:title=" ">
<polygon fill="white" stroke="#bfbfbf" points="76.5,-160.5 76.5,-514.5 214.5,-514.5 214.5,-160.5 76.5,-160.5"/>
<text text-anchor="middle" x="145.5" y="-502.5" font-family="Helvetica,sans-Serif" font-size="10.00">RoadLane</text>
<polyline fill="none" stroke="#bfbfbf" points="76.5,-495.5 214.5,-495.5"/>
<text text-anchor="start" x="84.5" y="-483.5" font-family="Helvetica,sans-Serif" font-size="10.00"># speedX</text>
<text text-anchor="start" x="84.5" y="-472.5" font-family="Helvetica,sans-Serif" font-size="10.00"># direction</text>
<text text-anchor="start" x="84.5" y="-461.5" font-family="Helvetica,sans-Serif" font-size="10.00"># frequency</text>
<text text-anchor="start" x="84.5" y="-450.5" font-family="Helvetica,sans-Serif" font-size="10.00"># timer</text>
<text text-anchor="start" x="84.5" y="-439.5" font-family="Helvetica,sans-Serif" font-size="10.00"># laneTexture</text>
<text text-anchor="start" x="84.5" y="-428.5" font-family="Helvetica,sans-Serif" font-size="10.00"># height</text>
<text text-anchor="start" x="84.5" y="-417.5" font-family="Helvetica,sans-Serif" font-size="10.00"># commuterTexture</text>
<text text-anchor="start" x="84.5" y="-406.5" font-family="Helvetica,sans-Serif" font-size="10.00"># commuterSize</text>
<text text-anchor="start" x="84.5" y="-395.5" font-family="Helvetica,sans-Serif" font-size="10.00"># commuters</text>
<polyline fill="none" stroke="#bfbfbf" points="76.5,-388.5 214.5,-388.5"/>
<text text-anchor="start" x="84.5" y="-376.5" font-family="Helvetica,sans-Serif" font-size="10.00">+ RoadLane()</text>
<text text-anchor="start" x="84.5" y="-365.5" font-family="Helvetica,sans-Serif" font-size="10.00">+ RoadLane()</text>
<text text-anchor="start" x="84.5" y="-354.5" font-family="Helvetica,sans-Serif" font-size="10.00">+ RoadLane()</text>
<text text-anchor="start" x="84.5" y="-343.5" font-family="Helvetica,sans-Serif" font-size="10.00">+ getType()</text>
<text text-anchor="start" x="84.5" y="-332.5" font-family="Helvetica,sans-Serif" font-size="10.00">+ getDirection()</text>
<text text-anchor="start" x="84.5" y="-321.5" font-family="Helvetica,sans-Serif" font-size="10.00">+ getLocalBounds()</text>
<text text-anchor="start" x="84.5" y="-310.5" font-family="Helvetica,sans-Serif" font-size="10.00">+ setPosY()</text>
<text text-anchor="start" x="84.5" y="-299.5" font-family="Helvetica,sans-Serif" font-size="10.00">+ setLaneHeight()</text>
<text text-anchor="start" x="84.5" y="-288.5" font-family="Helvetica,sans-Serif" font-size="10.00">+ setCommuterTexture()</text>
<text text-anchor="start" x="84.5" y="-277.5" font-family="Helvetica,sans-Serif" font-size="10.00">+ setLaneTexture()</text>
<text text-anchor="start" x="84.5" y="-266.5" font-family="Helvetica,sans-Serif" font-size="10.00">+ setCommuterSize()</text>
<text text-anchor="start" x="84.5" y="-255.5" font-family="Helvetica,sans-Serif" font-size="10.00">+ setDirection()</text>
<text text-anchor="start" x="84.5" y="-244.5" font-family="Helvetica,sans-Serif" font-size="10.00">+ setSpeed()</text>
<text text-anchor="start" x="84.5" y="-233.5" font-family="Helvetica,sans-Serif" font-size="10.00">+ setFrequency()</text>
<text text-anchor="start" x="84.5" y="-222.5" font-family="Helvetica,sans-Serif" font-size="10.00">+ getClassName()</text>
<text text-anchor="start" x="84.5" y="-211.5" font-family="Helvetica,sans-Serif" font-size="10.00"># newCommuter()</text>
<text text-anchor="start" x="84.5" y="-200.5" font-family="Helvetica,sans-Serif" font-size="10.00"># updateCommuters()</text>
<text text-anchor="start" x="84.5" y="-189.5" font-family="Helvetica,sans-Serif" font-size="10.00"># getVelocity()</text>
<text text-anchor="start" x="84.5" y="-178.5" font-family="Helvetica,sans-Serif" font-size="10.00"># updateCurrent()</text>
<text text-anchor="start" x="84.5" y="-167.5" font-family="Helvetica,sans-Serif" font-size="10.00"># drawCurrent()</text>
</a>
</g>
</g>
<!-- Node2&#45;&gt;Node1 -->
<g id="edge1" class="edge">
<title>Node2&#45;&gt;Node1</title>
<path fill="none" stroke="#63b8ff" d="M194.68,-149.69C197.09,-140.54 199.4,-131.74 201.58,-123.48"/>
<polygon fill="none" stroke="#63b8ff" points="191.36,-148.56 192.2,-159.12 198.13,-150.34 191.36,-148.56"/>
</g>
<!-- Node3 -->
<g id="node3" class="node">
<title>Node3</title>
<g id="a_node3"><a xlink:href="classLane.html" target="_top" xlink:title=" ">
<polygon fill="white" stroke="#bfbfbf" points="92,-551.5 92,-630.5 199,-630.5 199,-551.5 92,-551.5"/>
<text text-anchor="middle" x="145.5" y="-618.5" font-family="Helvetica,sans-Serif" font-size="10.00">Lane</text>
<polyline fill="none" stroke="#bfbfbf" points="92,-611.5 199,-611.5"/>
<text text-anchor="middle" x="145.5" y="-599.5" font-family="Helvetica,sans-Serif" font-size="10.00"> </text>
<polyline fill="none" stroke="#bfbfbf" points="92,-592.5 199,-592.5"/>
<text text-anchor="start" x="100" y="-580.5" font-family="Helvetica,sans-Serif" font-size="10.00">+ setPosY()</text>
<text text-anchor="start" x="100" y="-569.5" font-family="Helvetica,sans-Serif" font-size="10.00">+ setLaneHeight()</text>
<text text-anchor="start" x="100" y="-558.5" font-family="Helvetica,sans-Serif" font-size="10.00">+ getClassName()</text>
</a>
</g>
</g>
<!-- Node3&#45;&gt;Node2 -->
<g id="edge2" class="edge">
<title>Node3&#45;&gt;Node2</title>
<path fill="none" stroke="#63b8ff" d="M145.5,-540.23C145.5,-532.17 145.5,-523.44 145.5,-514.3"/>
<polygon fill="none" stroke="#63b8ff" points="142,-540.02 145.5,-550.02 149,-540.02 142,-540.02"/>
</g>
<!-- Node4 -->
<g id="node4" class="node">
<title>Node4</title>
<g id="a_node4"><a xlink:href="classSceneNode.html" target="_top" xlink:title="A node in the scene graph.">
<polygon fill="white" stroke="#666666" points="78,-667.5 78,-933.5 213,-933.5 213,-667.5 78,-667.5"/>
<text text-anchor="middle" x="145.5" y="-921.5" font-family="Helvetica,sans-Serif" font-size="10.00">SceneNode</text>
<polyline fill="none" stroke="#666666" points="78,-914.5 213,-914.5"/>
<text text-anchor="middle" x="145.5" y="-902.5" font-family="Helvetica,sans-Serif" font-size="10.00"> </text>
<polyline fill="none" stroke="#666666" points="78,-895.5 213,-895.5"/>
<text text-anchor="start" x="86" y="-883.5" font-family="Helvetica,sans-Serif" font-size="10.00">+ SceneNode()</text>
<text text-anchor="start" x="86" y="-872.5" font-family="Helvetica,sans-Serif" font-size="10.00">+ attachChild()</text>
<text text-anchor="start" x="86" y="-861.5" font-family="Helvetica,sans-Serif" font-size="10.00">+ detachChild()</text>
<text text-anchor="start" x="86" y="-850.5" font-family="Helvetica,sans-Serif" font-size="10.00">+ update()</text>
<text text-anchor="start" x="86" y="-839.5" font-family="Helvetica,sans-Serif" font-size="10.00">+ getAbsTransform()</text>
<text text-anchor="start" x="86" y="-828.5" font-family="Helvetica,sans-Serif" font-size="10.00">+ getAbsPosition()</text>
<text text-anchor="start" x="86" y="-817.5" font-family="Helvetica,sans-Serif" font-size="10.00">+ checkNodeCollision()</text>
<text text-anchor="start" x="86" y="-806.5" font-family="Helvetica,sans-Serif" font-size="10.00">+ checkSceneCollision()</text>
<text text-anchor="start" x="86" y="-795.5" font-family="Helvetica,sans-Serif" font-size="10.00">+ setDebug()</text>
<text text-anchor="start" x="86" y="-784.5" font-family="Helvetica,sans-Serif" font-size="10.00">+ getCategory()</text>
<text text-anchor="start" x="86" y="-773.5" font-family="Helvetica,sans-Serif" font-size="10.00">+ saveNode()</text>
<text text-anchor="start" x="86" y="-762.5" font-family="Helvetica,sans-Serif" font-size="10.00">+ operator&lt;()</text>
<text text-anchor="start" x="86" y="-751.5" font-family="Helvetica,sans-Serif" font-size="10.00">+ getBoundingRect()</text>
<text text-anchor="start" x="86" y="-740.5" font-family="Helvetica,sans-Serif" font-size="10.00">+ getLocalBounds()</text>
<text text-anchor="start" x="86" y="-729.5" font-family="Helvetica,sans-Serif" font-size="10.00">+ draw()</text>
<text text-anchor="start" x="86" y="-718.5" font-family="Helvetica,sans-Serif" font-size="10.00"># getClassName()</text>
<text text-anchor="start" x="86" y="-707.5" font-family="Helvetica,sans-Serif" font-size="10.00"># saveCurrentNode()</text>
<text text-anchor="start" x="86" y="-696.5" font-family="Helvetica,sans-Serif" font-size="10.00"># loadCurrentNode()</text>
<text text-anchor="start" x="86" y="-685.5" font-family="Helvetica,sans-Serif" font-size="10.00"># onLoadingFinished()</text>
<text text-anchor="start" x="86" y="-674.5" font-family="Helvetica,sans-Serif" font-size="10.00"># shouldSave()</text>
</a>
</g>
</g>
<!-- Node4&#45;&gt;Node3 -->
<g id="edge3" class="edge">
<title>Node4&#45;&gt;Node3</title>
<path fill="none" stroke="#63b8ff" d="M145.5,-656.31C145.5,-647.07 145.5,-638.32 145.5,-630.43"/>
<polygon fill="none" stroke="#63b8ff" points="142,-656.28 145.5,-666.28 149,-656.28 142,-656.28"/>
</g>
<!-- Node5 -->
<g id="node5" class="node">
<title>Node5</title>
<g id="a_node5"><a xlink:title=" ">
<polygon fill="white" stroke="#bfbfbf" points="0,-970.5 0,-1027.5 77,-1027.5 77,-970.5 0,-970.5"/>
<text text-anchor="middle" x="38.5" y="-1015.5" font-family="Helvetica,sans-Serif" font-size="10.00">sf::Drawable</text>
<polyline fill="none" stroke="#bfbfbf" points="0,-1008.5 77,-1008.5"/>
<text text-anchor="middle" x="38.5" y="-996.5" font-family="Helvetica,sans-Serif" font-size="10.00"> </text>
<polyline fill="none" stroke="#bfbfbf" points="0,-989.5 77,-989.5"/>
<text text-anchor="middle" x="38.5" y="-977.5" font-family="Helvetica,sans-Serif" font-size="10.00"> </text>
</a>
</g>
</g>
<!-- Node5&#45;&gt;Node4 -->
<g id="edge4" class="edge">
<title>Node5&#45;&gt;Node4</title>
<path fill="none" stroke="#63b8ff" d="M58.82,-960.68C64.57,-950.13 71.15,-938.04 78.07,-925.33"/>
<polygon fill="none" stroke="#63b8ff" points="55.81,-958.89 54.1,-969.35 61.96,-962.24 55.81,-958.89"/>
</g>
<!-- Node6 -->
<g id="node6" class="node">
<title>Node6</title>
<g id="a_node6"><a xlink:title=" ">
<polygon fill="white" stroke="#bfbfbf" points="95,-970.5 95,-1027.5 196,-1027.5 196,-970.5 95,-970.5"/>
<text text-anchor="middle" x="145.5" y="-1015.5" font-family="Helvetica,sans-Serif" font-size="10.00">sf::Transformable</text>
<polyline fill="none" stroke="#bfbfbf" points="95,-1008.5 196,-1008.5"/>
<text text-anchor="middle" x="145.5" y="-996.5" font-family="Helvetica,sans-Serif" font-size="10.00"> </text>
<polyline fill="none" stroke="#bfbfbf" points="95,-989.5 196,-989.5"/>
<text text-anchor="middle" x="145.5" y="-977.5" font-family="Helvetica,sans-Serif" font-size="10.00"> </text>
</a>
</g>
</g>
<!-- Node6&#45;&gt;Node4 -->
<g id="edge5" class="edge">
<title>Node6&#45;&gt;Node4</title>
<path fill="none" stroke="#63b8ff" d="M145.5,-959.31C145.5,-951.36 145.5,-942.58 145.5,-933.35"/>
<polygon fill="none" stroke="#63b8ff" points="142,-959.16 145.5,-969.16 149,-959.16 142,-959.16"/>
</g>
<!-- Node7 -->
<g id="node7" class="node">
<title>Node7</title>
<g id="a_node7"><a xlink:title=" ">
<polygon fill="white" stroke="#bfbfbf" points="214.5,-970.5 214.5,-1027.5 310.5,-1027.5 310.5,-970.5 214.5,-970.5"/>
<text text-anchor="middle" x="262.5" y="-1015.5" font-family="Helvetica,sans-Serif" font-size="10.00">sf::NonCopyable</text>
<polyline fill="none" stroke="#bfbfbf" points="214.5,-1008.5 310.5,-1008.5"/>
<text text-anchor="middle" x="262.5" y="-996.5" font-family="Helvetica,sans-Serif" font-size="10.00"> </text>
<polyline fill="none" stroke="#bfbfbf" points="214.5,-989.5 310.5,-989.5"/>
<text text-anchor="middle" x="262.5" y="-977.5" font-family="Helvetica,sans-Serif" font-size="10.00"> </text>
</a>
</g>
</g>
<!-- Node7&#45;&gt;Node4 -->
<g id="edge6" class="edge">
<title>Node7&#45;&gt;Node4</title>
<path fill="none" stroke="#8b1a1a" d="M240.38,-960.86C232.32,-947.32 222.73,-931.21 212.8,-914.52"/>
<polygon fill="none" stroke="#8b1a1a" points="237.33,-962.58 245.46,-969.38 243.35,-958.99 237.33,-962.58"/>
</g>
<!-- Node8 -->
<g id="node8" class="node">
<title>Node8</title>
<g id="a_node8"><a xlink:href="classLightObserver.html" target="_top" xlink:title=" ">
<polygon fill="white" stroke="#bfbfbf" points="232.5,-309 232.5,-366 346.5,-366 346.5,-309 232.5,-309"/>
<text text-anchor="middle" x="289.5" y="-354" font-family="Helvetica,sans-Serif" font-size="10.00">LightObserver</text>
<polyline fill="none" stroke="#bfbfbf" points="232.5,-347 346.5,-347"/>
<text text-anchor="middle" x="289.5" y="-335" font-family="Helvetica,sans-Serif" font-size="10.00"> </text>
<polyline fill="none" stroke="#bfbfbf" points="232.5,-328 346.5,-328"/>
<text text-anchor="start" x="240.5" y="-316" font-family="Helvetica,sans-Serif" font-size="10.00">+ onLightChanged()</text>
</a>
</g>
</g>
<!-- Node8&#45;&gt;Node1 -->
<g id="edge7" class="edge">
<title>Node8&#45;&gt;Node1</title>
<path fill="none" stroke="#63b8ff" d="M279.34,-297.9C267.38,-252.49 247.4,-176.58 233.39,-123.37"/>
<polygon fill="none" stroke="#63b8ff" points="275.95,-298.78 281.88,-307.56 282.72,-297 275.95,-298.78"/>
</g>
</g>
</svg>
        <g id="navigator" transform="translate(0 0)" fill="#404254">
                <rect fill="#f2f5e9" fill-opacity="0.5" stroke="#606060" stroke-width=".5" x="0" y="0" width="60" height="60"/>
                <use id="zoomplus" xlink:href="#zoomPlus" x="17" y="9" onmousedown="handleZoom(evt,'in')"/>
                <use id="zoomminus" xlink:href="#zoomMin" x="42" y="9" onmousedown="handleZoom(evt,'out')"/>
                <use id="reset" xlink:href="#resetDef" x="30" y="36" onmousedown="handleReset()"/>
                <g id="arrowUp" xlink:href="#dirArrow" transform="translate(30 24)" onmousedown="handlePan(0,-1)">
                  <use xlink:href="#rim" fill="#404040">
                        <set attributeName="fill" to="#808080" begin="arrowUp.mouseover" end="arrowUp.mouseout"/>
                  </use>
                  <path fill="none" stroke="white" stroke-width="1.5" d="M0,-3.0v7 M-2.5,-0.5L0,-3.0L2.5,-0.5"/>
                </g>
                <g id="arrowRight" xlink:href="#dirArrow" transform="rotate(90) translate(36 -43)" onmousedown="handlePan(1,0)">
                  <use xlink:href="#rim" fill="#404040">
                        <set attributeName="fill" to="#808080" begin="arrowRight.mouseover" end="arrowRight.mouseout"/>
                  </use>
                  <path fill="none" stroke="white" stroke-width="1.5" d="M0,-3.0v7 M-2.5,-0.5L0,-3.0L2.5,-0.5"/>
                </g>
                <g id="arrowDown" xlink:href="#dirArrow" transform="rotate(180) translate(-30 -48)" onmousedown="handlePan(0,1)">
                  <use xlink:href="#rim" fill="#404040">
                        <set attributeName="fill" to="#808080" begin="arrowDown.mouseover" end="arrowDown.mouseout"/>
                  </use>
                  <path fill="none" stroke="white" stroke-width="1.5" d="M0,-3.0v7 M-2.5,-0.5L0,-3.0L2.5,-0.5"/>
                </g>
                <g id="arrowLeft" xlink:href="#dirArrow" transform="rotate(270) translate(-36 17)" onmousedown="handlePan(-1,0)">
                  <use xlink:href="#rim" fill="#404040">
                        <set attributeName="fill" to="#808080" begin="arrowLeft.mouseover" end="arrowLeft.mouseout"/>
                  </use>
                  <path fill="none" stroke="white" stroke-width="1.5" d="M0,-3.0v7 M-2.5,-0.5L0,-3.0L2.5,-0.5"/>
                </g>
        </g>
        <svg viewBox="0 0 15 15" width="100%" height="30px" preserveAspectRatio="xMaxYMin meet">
         <g id="arrow_out" transform="scale(0.3 0.3)">
          <a xlink:href="classVehicleLane__inherit__graph_org.svg" target="_base">
           <rect id="button" ry="5" rx="5" y="6" x="6" height="38" width="38"
                fill="#f2f5e9" fill-opacity="0.5" stroke="#606060" stroke-width="1.0"/>
           <path id="arrow"
             d="M 11.500037,31.436501 C 11.940474,20.09759 22.043105,11.32322 32.158766,21.979434 L 37.068811,17.246167 C 37.068811,17.246167 37.088388,32 37.088388,32 L 22.160133,31.978069 C 22.160133,31.978069 26.997745,27.140456 26.997745,27.140456 C 18.528582,18.264221 13.291696,25.230495 11.500037,31.436501 z"
             style="fill:#404040;"/>
          </a>
         </g>
        </svg>
</svg>
