<?xml version="1.0" encoding="UTF-8" standalone="no"?>
<!DOCTYPE svg PUBLIC "-//W3C//DTD SVG 1.1//EN"
 "http://www.w3.org/Graphics/SVG/1.1/DTD/svg11.dtd">
<!-- Generated by graphviz version 7.0.5 (0)
 -->
<!-- Title: AnimalLane Pages: 1 -->
<svg width="319pt" height="1014pt"
 viewBox="0.00 0.00 318.50 1014.00" xmlns="http://www.w3.org/2000/svg" xmlns:xlink="http://www.w3.org/1999/xlink">
<g id="graph0" class="graph" transform="scale(1 1) rotate(0) translate(4 1010)">
<title>AnimalLane</title>
<!-- Node1 -->
<g id="node1" class="node">
<title>Node1</title>
<g id="a_node1"><a xlink:title=" ">
<polygon fill="#999999" stroke="#666666" points="92,-0.5 92,-101.5 199,-101.5 199,-0.5 92,-0.5"/>
<text text-anchor="middle" x="145.5" y="-89.5" font-family="Helvetica,sans-Serif" font-size="10.00">AnimalLane</text>
<polyline fill="none" stroke="#666666" points="92,-82.5 199,-82.5"/>
<text text-anchor="middle" x="145.5" y="-70.5" font-family="Helvetica,sans-Serif" font-size="10.00"> </text>
<polyline fill="none" stroke="#666666" points="92,-63.5 199,-63.5"/>
<text text-anchor="start" x="100" y="-51.5" font-family="Helvetica,sans-Serif" font-size="10.00">+ getType()</text>
<text text-anchor="start" x="100" y="-40.5" font-family="Helvetica,sans-Serif" font-size="10.00">+ getClassName()</text>
<text text-anchor="start" x="100" y="-29.5" font-family="Helvetica,sans-Serif" font-size="10.00">+ RoadLane()</text>
<text text-anchor="start" x="100" y="-18.5" font-family="Helvetica,sans-Serif" font-size="10.00">+ RoadLane()</text>
<text text-anchor="start" x="100" y="-7.5" font-family="Helvetica,sans-Serif" font-size="10.00">+ RoadLane()</text>
</a>
</g>
</g>
<!-- Node2 -->
<g id="node2" class="node">
<title>Node2</title>
<g id="a_node2"><a xlink:href="classRoadLane.html" target="_top" xlink:title=" ">
<polygon fill="white" stroke="#bfbfbf" points="76.5,-138.5 76.5,-492.5 214.5,-492.5 214.5,-138.5 76.5,-138.5"/>
<text text-anchor="middle" x="145.5" y="-480.5" font-family="Helvetica,sans-Serif" font-size="10.00">RoadLane</text>
<polyline fill="none" stroke="#bfbfbf" points="76.5,-473.5 214.5,-473.5"/>
<text text-anchor="start" x="84.5" y="-461.5" font-family="Helvetica,sans-Serif" font-size="10.00"># speedX</text>
<text text-anchor="start" x="84.5" y="-450.5" font-family="Helvetica,sans-Serif" font-size="10.00"># direction</text>
<text text-anchor="start" x="84.5" y="-439.5" font-family="Helvetica,sans-Serif" font-size="10.00"># frequency</text>
<text text-anchor="start" x="84.5" y="-428.5" font-family="Helvetica,sans-Serif" font-size="10.00"># timer</text>
<text text-anchor="start" x="84.5" y="-417.5" font-family="Helvetica,sans-Serif" font-size="10.00"># laneTexture</text>
<text text-anchor="start" x="84.5" y="-406.5" font-family="Helvetica,sans-Serif" font-size="10.00"># height</text>
<text text-anchor="start" x="84.5" y="-395.5" font-family="Helvetica,sans-Serif" font-size="10.00"># commuterTexture</text>
<text text-anchor="start" x="84.5" y="-384.5" font-family="Helvetica,sans-Serif" font-size="10.00"># commuterSize</text>
<text text-anchor="start" x="84.5" y="-373.5" font-family="Helvetica,sans-Serif" font-size="10.00"># commuters</text>
<polyline fill="none" stroke="#bfbfbf" points="76.5,-366.5 214.5,-366.5"/>
<text text-anchor="start" x="84.5" y="-354.5" font-family="Helvetica,sans-Serif" font-size="10.00">+ RoadLane()</text>
<text text-anchor="start" x="84.5" y="-343.5" font-family="Helvetica,sans-Serif" font-size="10.00">+ RoadLane()</text>
<text text-anchor="start" x="84.5" y="-332.5" font-family="Helvetica,sans-Serif" font-size="10.00">+ RoadLane()</text>
<text text-anchor="start" x="84.5" y="-321.5" font-family="Helvetica,sans-Serif" font-size="10.00">+ getType()</text>
<text text-anchor="start" x="84.5" y="-310.5" font-family="Helvetica,sans-Serif" font-size="10.00">+ getDirection()</text>
<text text-anchor="start" x="84.5" y="-299.5" font-family="Helvetica,sans-Serif" font-size="10.00">+ getLocalBounds()</text>
<text text-anchor="start" x="84.5" y="-288.5" font-family="Helvetica,sans-Serif" font-size="10.00">+ setPosY()</text>
<text text-anchor="start" x="84.5" y="-277.5" font-family="Helvetica,sans-Serif" font-size="10.00">+ setLaneHeight()</text>
<text text-anchor="start" x="84.5" y="-266.5" font-family="Helvetica,sans-Serif" font-size="10.00">+ setCommuterTexture()</text>
<text text-anchor="start" x="84.5" y="-255.5" font-family="Helvetica,sans-Serif" font-size="10.00">+ setLaneTexture()</text>
<text text-anchor="start" x="84.5" y="-244.5" font-family="Helvetica,sans-Serif" font-size="10.00">+ setCommuterSize()</text>
<text text-anchor="start" x="84.5" y="-233.5" font-family="Helvetica,sans-Serif" font-size="10.00">+ setDirection()</text>
<text text-anchor="start" x="84.5" y="-222.5" font-family="Helvetica,sans-Serif" font-size="10.00">+ setSpeed()</text>
<text text-anchor="start" x="84.5" y="-211.5" font-family="Helvetica,sans-Serif" font-size="10.00">+ setFrequency()</text>
<text text-anchor="start" x="84.5" y="-200.5" font-family="Helvetica,sans-Serif" font-size="10.00">+ getClassName()</text>
<text text-anchor="start" x="84.5" y="-189.5" font-family="Helvetica,sans-Serif" font-size="10.00"># newCommuter()</text>
<text text-anchor="start" x="84.5" y="-178.5" font-family="Helvetica,sans-Serif" font-size="10.00"># updateCommuters()</text>
<text text-anchor="start" x="84.5" y="-167.5" font-family="Helvetica,sans-Serif" font-size="10.00"># getVelocity()</text>
<text text-anchor="start" x="84.5" y="-156.5" font-family="Helvetica,sans-Serif" font-size="10.00"># updateCurrent()</text>
<text text-anchor="start" x="84.5" y="-145.5" font-family="Helvetica,sans-Serif" font-size="10.00"># drawCurrent()</text>
</a>
</g>
</g>
<!-- Node2&#45;&gt;Node1 -->
<g id="edge1" class="edge">
<title>Node2&#45;&gt;Node1</title>
<path fill="none" stroke="#63b8ff" d="M145.5,-127.21C145.5,-117.98 145.5,-109.2 145.5,-101.12"/>
<polygon fill="none" stroke="#63b8ff" points="142,-127.17 145.5,-137.17 149,-127.17 142,-127.17"/>
</g>
<!-- Node3 -->
<g id="node3" class="node">
<title>Node3</title>
<g id="a_node3"><a xlink:href="classLane.html" target="_top" xlink:title=" ">
<polygon fill="white" stroke="#bfbfbf" points="92,-529.5 92,-608.5 199,-608.5 199,-529.5 92,-529.5"/>
<text text-anchor="middle" x="145.5" y="-596.5" font-family="Helvetica,sans-Serif" font-size="10.00">Lane</text>
<polyline fill="none" stroke="#bfbfbf" points="92,-589.5 199,-589.5"/>
<text text-anchor="middle" x="145.5" y="-577.5" font-family="Helvetica,sans-Serif" font-size="10.00"> </text>
<polyline fill="none" stroke="#bfbfbf" points="92,-570.5 199,-570.5"/>
<text text-anchor="start" x="100" y="-558.5" font-family="Helvetica,sans-Serif" font-size="10.00">+ setPosY()</text>
<text text-anchor="start" x="100" y="-547.5" font-family="Helvetica,sans-Serif" font-size="10.00">+ setLaneHeight()</text>
<text text-anchor="start" x="100" y="-536.5" font-family="Helvetica,sans-Serif" font-size="10.00">+ getClassName()</text>
</a>
</g>
</g>
<!-- Node3&#45;&gt;Node2 -->
<g id="edge2" class="edge">
<title>Node3&#45;&gt;Node2</title>
<path fill="none" stroke="#63b8ff" d="M145.5,-518.23C145.5,-510.17 145.5,-501.44 145.5,-492.3"/>
<polygon fill="none" stroke="#63b8ff" points="142,-518.02 145.5,-528.02 149,-518.02 142,-518.02"/>
</g>
<!-- Node4 -->
<g id="node4" class="node">
<title>Node4</title>
<g id="a_node4"><a xlink:href="classSceneNode.html" target="_top" xlink:title="A node in the scene graph.">
<polygon fill="white" stroke="#666666" points="78,-645.5 78,-911.5 213,-911.5 213,-645.5 78,-645.5"/>
<text text-anchor="middle" x="145.5" y="-899.5" font-family="Helvetica,sans-Serif" font-size="10.00">SceneNode</text>
<polyline fill="none" stroke="#666666" points="78,-892.5 213,-892.5"/>
<text text-anchor="middle" x="145.5" y="-880.5" font-family="Helvetica,sans-Serif" font-size="10.00"> </text>
<polyline fill="none" stroke="#666666" points="78,-873.5 213,-873.5"/>
<text text-anchor="start" x="86" y="-861.5" font-family="Helvetica,sans-Serif" font-size="10.00">+ SceneNode()</text>
<text text-anchor="start" x="86" y="-850.5" font-family="Helvetica,sans-Serif" font-size="10.00">+ attachChild()</text>
<text text-anchor="start" x="86" y="-839.5" font-family="Helvetica,sans-Serif" font-size="10.00">+ detachChild()</text>
<text text-anchor="start" x="86" y="-828.5" font-family="Helvetica,sans-Serif" font-size="10.00">+ update()</text>
<text text-anchor="start" x="86" y="-817.5" font-family="Helvetica,sans-Serif" font-size="10.00">+ getAbsTransform()</text>
<text text-anchor="start" x="86" y="-806.5" font-family="Helvetica,sans-Serif" font-size="10.00">+ getAbsPosition()</text>
<text text-anchor="start" x="86" y="-795.5" font-family="Helvetica,sans-Serif" font-size="10.00">+ checkNodeCollision()</text>
<text text-anchor="start" x="86" y="-784.5" font-family="Helvetica,sans-Serif" font-size="10.00">+ checkSceneCollision()</text>
<text text-anchor="start" x="86" y="-773.5" font-family="Helvetica,sans-Serif" font-size="10.00">+ setDebug()</text>
<text text-anchor="start" x="86" y="-762.5" font-family="Helvetica,sans-Serif" font-size="10.00">+ getCategory()</text>
<text text-anchor="start" x="86" y="-751.5" font-family="Helvetica,sans-Serif" font-size="10.00">+ saveNode()</text>
<text text-anchor="start" x="86" y="-740.5" font-family="Helvetica,sans-Serif" font-size="10.00">+ operator&lt;()</text>
<text text-anchor="start" x="86" y="-729.5" font-family="Helvetica,sans-Serif" font-size="10.00">+ getBoundingRect()</text>
<text text-anchor="start" x="86" y="-718.5" font-family="Helvetica,sans-Serif" font-size="10.00">+ getLocalBounds()</text>
<text text-anchor="start" x="86" y="-707.5" font-family="Helvetica,sans-Serif" font-size="10.00">+ draw()</text>
<text text-anchor="start" x="86" y="-696.5" font-family="Helvetica,sans-Serif" font-size="10.00"># getClassName()</text>
<text text-anchor="start" x="86" y="-685.5" font-family="Helvetica,sans-Serif" font-size="10.00"># saveCurrentNode()</text>
<text text-anchor="start" x="86" y="-674.5" font-family="Helvetica,sans-Serif" font-size="10.00"># loadCurrentNode()</text>
<text text-anchor="start" x="86" y="-663.5" font-family="Helvetica,sans-Serif" font-size="10.00"># onLoadingFinished()</text>
<text text-anchor="start" x="86" y="-652.5" font-family="Helvetica,sans-Serif" font-size="10.00"># shouldSave()</text>
</a>
</g>
</g>
<!-- Node4&#45;&gt;Node3 -->
<g id="edge3" class="edge">
<title>Node4&#45;&gt;Node3</title>
<path fill="none" stroke="#63b8ff" d="M145.5,-634.31C145.5,-625.07 145.5,-616.32 145.5,-608.43"/>
<polygon fill="none" stroke="#63b8ff" points="142,-634.28 145.5,-644.28 149,-634.28 142,-634.28"/>
</g>
<!-- Node5 -->
<g id="node5" class="node">
<title>Node5</title>
<g id="a_node5"><a xlink:title=" ">
<polygon fill="white" stroke="#bfbfbf" points="0,-948.5 0,-1005.5 77,-1005.5 77,-948.5 0,-948.5"/>
<text text-anchor="middle" x="38.5" y="-993.5" font-family="Helvetica,sans-Serif" font-size="10.00">sf::Drawable</text>
<polyline fill="none" stroke="#bfbfbf" points="0,-986.5 77,-986.5"/>
<text text-anchor="middle" x="38.5" y="-974.5" font-family="Helvetica,sans-Serif" font-size="10.00"> </text>
<polyline fill="none" stroke="#bfbfbf" points="0,-967.5 77,-967.5"/>
<text text-anchor="middle" x="38.5" y="-955.5" font-family="Helvetica,sans-Serif" font-size="10.00"> </text>
</a>
</g>
</g>
<!-- Node5&#45;&gt;Node4 -->
<g id="edge4" class="edge">
<title>Node5&#45;&gt;Node4</title>
<path fill="none" stroke="#63b8ff" d="M58.82,-938.68C64.57,-928.13 71.15,-916.04 78.07,-903.33"/>
<polygon fill="none" stroke="#63b8ff" points="55.81,-936.89 54.1,-947.35 61.96,-940.24 55.81,-936.89"/>
</g>
<!-- Node6 -->
<g id="node6" class="node">
<title>Node6</title>
<g id="a_node6"><a xlink:title=" ">
<polygon fill="white" stroke="#bfbfbf" points="95,-948.5 95,-1005.5 196,-1005.5 196,-948.5 95,-948.5"/>
<text text-anchor="middle" x="145.5" y="-993.5" font-family="Helvetica,sans-Serif" font-size="10.00">sf::Transformable</text>
<polyline fill="none" stroke="#bfbfbf" points="95,-986.5 196,-986.5"/>
<text text-anchor="middle" x="145.5" y="-974.5" font-family="Helvetica,sans-Serif" font-size="10.00"> </text>
<polyline fill="none" stroke="#bfbfbf" points="95,-967.5 196,-967.5"/>
<text text-anchor="middle" x="145.5" y="-955.5" font-family="Helvetica,sans-Serif" font-size="10.00"> </text>
</a>
</g>
</g>
<!-- Node6&#45;&gt;Node4 -->
<g id="edge5" class="edge">
<title>Node6&#45;&gt;Node4</title>
<path fill="none" stroke="#63b8ff" d="M145.5,-937.31C145.5,-929.36 145.5,-920.58 145.5,-911.35"/>
<polygon fill="none" stroke="#63b8ff" points="142,-937.16 145.5,-947.16 149,-937.16 142,-937.16"/>
</g>
<!-- Node7 -->
<g id="node7" class="node">
<title>Node7</title>
<g id="a_node7"><a xlink:title=" ">
<polygon fill="white" stroke="#bfbfbf" points="214.5,-948.5 214.5,-1005.5 310.5,-1005.5 310.5,-948.5 214.5,-948.5"/>
<text text-anchor="middle" x="262.5" y="-993.5" font-family="Helvetica,sans-Serif" font-size="10.00">sf::NonCopyable</text>
<polyline fill="none" stroke="#bfbfbf" points="214.5,-986.5 310.5,-986.5"/>
<text text-anchor="middle" x="262.5" y="-974.5" font-family="Helvetica,sans-Serif" font-size="10.00"> </text>
<polyline fill="none" stroke="#bfbfbf" points="214.5,-967.5 310.5,-967.5"/>
<text text-anchor="middle" x="262.5" y="-955.5" font-family="Helvetica,sans-Serif" font-size="10.00"> </text>
</a>
</g>
</g>
<!-- Node7&#45;&gt;Node4 -->
<g id="edge6" class="edge">
<title>Node7&#45;&gt;Node4</title>
<path fill="none" stroke="#8b1a1a" d="M240.38,-938.86C232.32,-925.32 222.73,-909.21 212.8,-892.52"/>
<polygon fill="none" stroke="#8b1a1a" points="237.33,-940.58 245.46,-947.38 243.35,-936.99 237.33,-940.58"/>
</g>
</g>
</svg>
