<?xml version="1.0" encoding="UTF-8" standalone="no"?>
<!DOCTYPE svg PUBLIC "-//W3C//DTD SVG 1.1//EN"
 "http://www.w3.org/Graphics/SVG/1.1/DTD/svg11.dtd">
<!-- Generated by graphviz version 7.0.5 (0)
 -->
<!-- Title: RiverController Pages: 1 -->
<svg width="319pt" height="959pt"
 viewBox="0.00 0.00 318.50 959.00" xmlns="http://www.w3.org/2000/svg" xmlns:xlink="http://www.w3.org/1999/xlink">
<g id="graph0" class="graph" transform="scale(1 1) rotate(0) translate(4 955)">
<title>RiverController</title>
<!-- Node1 -->
<g id="node1" class="node">
<title>Node1</title>
<g id="a_node1"><a xlink:title=" ">
<polygon fill="#999999" stroke="#666666" points="80,-0.5 80,-134.5 211,-134.5 211,-0.5 80,-0.5"/>
<text text-anchor="middle" x="145.5" y="-122.5" font-family="Helvetica,sans-Serif" font-size="10.00">RiverController</text>
<polyline fill="none" stroke="#666666" points="80,-115.5 211,-115.5"/>
<text text-anchor="middle" x="145.5" y="-103.5" font-family="Helvetica,sans-Serif" font-size="10.00"> </text>
<polyline fill="none" stroke="#666666" points="80,-96.5 211,-96.5"/>
<text text-anchor="start" x="88" y="-84.5" font-family="Helvetica,sans-Serif" font-size="10.00">+ getType()</text>
<text text-anchor="start" x="88" y="-73.5" font-family="Helvetica,sans-Serif" font-size="10.00">+ getClassName()</text>
<text text-anchor="start" x="88" y="-62.5" font-family="Helvetica,sans-Serif" font-size="10.00">+ saveCurrentNode()</text>
<text text-anchor="start" x="88" y="-51.5" font-family="Helvetica,sans-Serif" font-size="10.00">+ loadCurrentNode()</text>
<text text-anchor="start" x="88" y="-40.5" font-family="Helvetica,sans-Serif" font-size="10.00">+ RoadLaneController()</text>
<text text-anchor="start" x="88" y="-29.5" font-family="Helvetica,sans-Serif" font-size="10.00">+ RoadLaneController()</text>
<text text-anchor="start" x="88" y="-18.5" font-family="Helvetica,sans-Serif" font-size="10.00">+ RoadLaneController()</text>
<text text-anchor="start" x="88" y="-7.5" font-family="Helvetica,sans-Serif" font-size="10.00"># newLane()</text>
</a>
</g>
</g>
<!-- Node2 -->
<g id="node2" class="node">
<title>Node2</title>
<g id="a_node2"><a xlink:href="classRoadLaneController.html" target="_top" xlink:title=" ">
<polygon fill="white" stroke="#bfbfbf" points="77,-171.5 77,-437.5 214,-437.5 214,-171.5 77,-171.5"/>
<text text-anchor="middle" x="145.5" y="-425.5" font-family="Helvetica,sans-Serif" font-size="10.00">RoadLaneController</text>
<polyline fill="none" stroke="#bfbfbf" points="77,-418.5 214,-418.5"/>
<text text-anchor="start" x="85" y="-406.5" font-family="Helvetica,sans-Serif" font-size="10.00"># lanes</text>
<text text-anchor="start" x="85" y="-395.5" font-family="Helvetica,sans-Serif" font-size="10.00"># laneCount</text>
<text text-anchor="start" x="85" y="-384.5" font-family="Helvetica,sans-Serif" font-size="10.00"># laneHeight</text>
<text text-anchor="start" x="85" y="-373.5" font-family="Helvetica,sans-Serif" font-size="10.00"># commuterSize</text>
<text text-anchor="start" x="85" y="-362.5" font-family="Helvetica,sans-Serif" font-size="10.00"># speedDistribution</text>
<text text-anchor="start" x="85" y="-351.5" font-family="Helvetica,sans-Serif" font-size="10.00"># frequencyFunction</text>
<polyline fill="none" stroke="#bfbfbf" points="77,-344.5 214,-344.5"/>
<text text-anchor="start" x="85" y="-332.5" font-family="Helvetica,sans-Serif" font-size="10.00">+ RoadLaneController()</text>
<text text-anchor="start" x="85" y="-321.5" font-family="Helvetica,sans-Serif" font-size="10.00">+ RoadLaneController()</text>
<text text-anchor="start" x="85" y="-310.5" font-family="Helvetica,sans-Serif" font-size="10.00">+ RoadLaneController()</text>
<text text-anchor="start" x="85" y="-299.5" font-family="Helvetica,sans-Serif" font-size="10.00">+ getType()</text>
<text text-anchor="start" x="85" y="-288.5" font-family="Helvetica,sans-Serif" font-size="10.00">+ build()</text>
<text text-anchor="start" x="85" y="-277.5" font-family="Helvetica,sans-Serif" font-size="10.00">+ setLaneHeight()</text>
<text text-anchor="start" x="85" y="-266.5" font-family="Helvetica,sans-Serif" font-size="10.00">+ setPosY()</text>
<text text-anchor="start" x="85" y="-255.5" font-family="Helvetica,sans-Serif" font-size="10.00">+ setCommuterSize()</text>
<text text-anchor="start" x="85" y="-244.5" font-family="Helvetica,sans-Serif" font-size="10.00">+ getClassName()</text>
<text text-anchor="start" x="85" y="-233.5" font-family="Helvetica,sans-Serif" font-size="10.00">+ saveCurrentNode()</text>
<text text-anchor="start" x="85" y="-222.5" font-family="Helvetica,sans-Serif" font-size="10.00">+ loadCurrentNode()</text>
<text text-anchor="start" x="85" y="-211.5" font-family="Helvetica,sans-Serif" font-size="10.00">+ setLaneCount()</text>
<text text-anchor="start" x="85" y="-200.5" font-family="Helvetica,sans-Serif" font-size="10.00">+ setSpeedDistribution()</text>
<text text-anchor="start" x="85" y="-189.5" font-family="Helvetica,sans-Serif" font-size="10.00">+ onLoadingFinished()</text>
<text text-anchor="start" x="85" y="-178.5" font-family="Helvetica,sans-Serif" font-size="10.00"># newLane()</text>
</a>
</g>
</g>
<!-- Node2&#45;&gt;Node1 -->
<g id="edge1" class="edge">
<title>Node2&#45;&gt;Node1</title>
<path fill="none" stroke="#63b8ff" d="M145.5,-160.19C145.5,-151.28 145.5,-142.58 145.5,-134.3"/>
<polygon fill="none" stroke="#63b8ff" points="142,-160.06 145.5,-170.06 149,-160.06 142,-160.06"/>
</g>
<!-- Node3 -->
<g id="node3" class="node">
<title>Node3</title>
<g id="a_node3"><a xlink:href="classLane.html" target="_top" xlink:title=" ">
<polygon fill="white" stroke="#bfbfbf" points="92,-474.5 92,-553.5 199,-553.5 199,-474.5 92,-474.5"/>
<text text-anchor="middle" x="145.5" y="-541.5" font-family="Helvetica,sans-Serif" font-size="10.00">Lane</text>
<polyline fill="none" stroke="#bfbfbf" points="92,-534.5 199,-534.5"/>
<text text-anchor="middle" x="145.5" y="-522.5" font-family="Helvetica,sans-Serif" font-size="10.00"> </text>
<polyline fill="none" stroke="#bfbfbf" points="92,-515.5 199,-515.5"/>
<text text-anchor="start" x="100" y="-503.5" font-family="Helvetica,sans-Serif" font-size="10.00">+ setPosY()</text>
<text text-anchor="start" x="100" y="-492.5" font-family="Helvetica,sans-Serif" font-size="10.00">+ setLaneHeight()</text>
<text text-anchor="start" x="100" y="-481.5" font-family="Helvetica,sans-Serif" font-size="10.00">+ getClassName()</text>
</a>
</g>
</g>
<!-- Node3&#45;&gt;Node2 -->
<g id="edge2" class="edge">
<title>Node3&#45;&gt;Node2</title>
<path fill="none" stroke="#63b8ff" d="M145.5,-463.48C145.5,-455.34 145.5,-446.57 145.5,-437.49"/>
<polygon fill="none" stroke="#63b8ff" points="142,-463.43 145.5,-473.43 149,-463.43 142,-463.43"/>
</g>
<!-- Node4 -->
<g id="node4" class="node">
<title>Node4</title>
<g id="a_node4"><a xlink:href="classSceneNode.html" target="_top" xlink:title="A node in the scene graph.">
<polygon fill="white" stroke="#666666" points="78,-590.5 78,-856.5 213,-856.5 213,-590.5 78,-590.5"/>
<text text-anchor="middle" x="145.5" y="-844.5" font-family="Helvetica,sans-Serif" font-size="10.00">SceneNode</text>
<polyline fill="none" stroke="#666666" points="78,-837.5 213,-837.5"/>
<text text-anchor="middle" x="145.5" y="-825.5" font-family="Helvetica,sans-Serif" font-size="10.00"> </text>
<polyline fill="none" stroke="#666666" points="78,-818.5 213,-818.5"/>
<text text-anchor="start" x="86" y="-806.5" font-family="Helvetica,sans-Serif" font-size="10.00">+ SceneNode()</text>
<text text-anchor="start" x="86" y="-795.5" font-family="Helvetica,sans-Serif" font-size="10.00">+ attachChild()</text>
<text text-anchor="start" x="86" y="-784.5" font-family="Helvetica,sans-Serif" font-size="10.00">+ detachChild()</text>
<text text-anchor="start" x="86" y="-773.5" font-family="Helvetica,sans-Serif" font-size="10.00">+ update()</text>
<text text-anchor="start" x="86" y="-762.5" font-family="Helvetica,sans-Serif" font-size="10.00">+ getAbsTransform()</text>
<text text-anchor="start" x="86" y="-751.5" font-family="Helvetica,sans-Serif" font-size="10.00">+ getAbsPosition()</text>
<text text-anchor="start" x="86" y="-740.5" font-family="Helvetica,sans-Serif" font-size="10.00">+ checkNodeCollision()</text>
<text text-anchor="start" x="86" y="-729.5" font-family="Helvetica,sans-Serif" font-size="10.00">+ checkSceneCollision()</text>
<text text-anchor="start" x="86" y="-718.5" font-family="Helvetica,sans-Serif" font-size="10.00">+ setDebug()</text>
<text text-anchor="start" x="86" y="-707.5" font-family="Helvetica,sans-Serif" font-size="10.00">+ getCategory()</text>
<text text-anchor="start" x="86" y="-696.5" font-family="Helvetica,sans-Serif" font-size="10.00">+ saveNode()</text>
<text text-anchor="start" x="86" y="-685.5" font-family="Helvetica,sans-Serif" font-size="10.00">+ operator&lt;()</text>
<text text-anchor="start" x="86" y="-674.5" font-family="Helvetica,sans-Serif" font-size="10.00">+ getBoundingRect()</text>
<text text-anchor="start" x="86" y="-663.5" font-family="Helvetica,sans-Serif" font-size="10.00">+ getLocalBounds()</text>
<text text-anchor="start" x="86" y="-652.5" font-family="Helvetica,sans-Serif" font-size="10.00">+ draw()</text>
<text text-anchor="start" x="86" y="-641.5" font-family="Helvetica,sans-Serif" font-size="10.00"># getClassName()</text>
<text text-anchor="start" x="86" y="-630.5" font-family="Helvetica,sans-Serif" font-size="10.00"># saveCurrentNode()</text>
<text text-anchor="start" x="86" y="-619.5" font-family="Helvetica,sans-Serif" font-size="10.00"># loadCurrentNode()</text>
<text text-anchor="start" x="86" y="-608.5" font-family="Helvetica,sans-Serif" font-size="10.00"># onLoadingFinished()</text>
<text text-anchor="start" x="86" y="-597.5" font-family="Helvetica,sans-Serif" font-size="10.00"># shouldSave()</text>
</a>
</g>
</g>
<!-- Node4&#45;&gt;Node3 -->
<g id="edge3" class="edge">
<title>Node4&#45;&gt;Node3</title>
<path fill="none" stroke="#63b8ff" d="M145.5,-579.31C145.5,-570.07 145.5,-561.32 145.5,-553.43"/>
<polygon fill="none" stroke="#63b8ff" points="142,-579.28 145.5,-589.28 149,-579.28 142,-579.28"/>
</g>
<!-- Node5 -->
<g id="node5" class="node">
<title>Node5</title>
<g id="a_node5"><a xlink:title=" ">
<polygon fill="white" stroke="#bfbfbf" points="0,-893.5 0,-950.5 77,-950.5 77,-893.5 0,-893.5"/>
<text text-anchor="middle" x="38.5" y="-938.5" font-family="Helvetica,sans-Serif" font-size="10.00">sf::Drawable</text>
<polyline fill="none" stroke="#bfbfbf" points="0,-931.5 77,-931.5"/>
<text text-anchor="middle" x="38.5" y="-919.5" font-family="Helvetica,sans-Serif" font-size="10.00"> </text>
<polyline fill="none" stroke="#bfbfbf" points="0,-912.5 77,-912.5"/>
<text text-anchor="middle" x="38.5" y="-900.5" font-family="Helvetica,sans-Serif" font-size="10.00"> </text>
</a>
</g>
</g>
<!-- Node5&#45;&gt;Node4 -->
<g id="edge4" class="edge">
<title>Node5&#45;&gt;Node4</title>
<path fill="none" stroke="#63b8ff" d="M58.82,-883.68C64.57,-873.13 71.15,-861.04 78.07,-848.33"/>
<polygon fill="none" stroke="#63b8ff" points="55.81,-881.89 54.1,-892.35 61.96,-885.24 55.81,-881.89"/>
</g>
<!-- Node6 -->
<g id="node6" class="node">
<title>Node6</title>
<g id="a_node6"><a xlink:title=" ">
<polygon fill="white" stroke="#bfbfbf" points="95,-893.5 95,-950.5 196,-950.5 196,-893.5 95,-893.5"/>
<text text-anchor="middle" x="145.5" y="-938.5" font-family="Helvetica,sans-Serif" font-size="10.00">sf::Transformable</text>
<polyline fill="none" stroke="#bfbfbf" points="95,-931.5 196,-931.5"/>
<text text-anchor="middle" x="145.5" y="-919.5" font-family="Helvetica,sans-Serif" font-size="10.00"> </text>
<polyline fill="none" stroke="#bfbfbf" points="95,-912.5 196,-912.5"/>
<text text-anchor="middle" x="145.5" y="-900.5" font-family="Helvetica,sans-Serif" font-size="10.00"> </text>
</a>
</g>
</g>
<!-- Node6&#45;&gt;Node4 -->
<g id="edge5" class="edge">
<title>Node6&#45;&gt;Node4</title>
<path fill="none" stroke="#63b8ff" d="M145.5,-882.31C145.5,-874.36 145.5,-865.58 145.5,-856.35"/>
<polygon fill="none" stroke="#63b8ff" points="142,-882.16 145.5,-892.16 149,-882.16 142,-882.16"/>
</g>
<!-- Node7 -->
<g id="node7" class="node">
<title>Node7</title>
<g id="a_node7"><a xlink:title=" ">
<polygon fill="white" stroke="#bfbfbf" points="214.5,-893.5 214.5,-950.5 310.5,-950.5 310.5,-893.5 214.5,-893.5"/>
<text text-anchor="middle" x="262.5" y="-938.5" font-family="Helvetica,sans-Serif" font-size="10.00">sf::NonCopyable</text>
<polyline fill="none" stroke="#bfbfbf" points="214.5,-931.5 310.5,-931.5"/>
<text text-anchor="middle" x="262.5" y="-919.5" font-family="Helvetica,sans-Serif" font-size="10.00"> </text>
<polyline fill="none" stroke="#bfbfbf" points="214.5,-912.5 310.5,-912.5"/>
<text text-anchor="middle" x="262.5" y="-900.5" font-family="Helvetica,sans-Serif" font-size="10.00"> </text>
</a>
</g>
</g>
<!-- Node7&#45;&gt;Node4 -->
<g id="edge6" class="edge">
<title>Node7&#45;&gt;Node4</title>
<path fill="none" stroke="#8b1a1a" d="M240.38,-883.86C232.32,-870.32 222.73,-854.21 212.8,-837.52"/>
<polygon fill="none" stroke="#8b1a1a" points="237.33,-885.58 245.46,-892.38 243.35,-881.99 237.33,-885.58"/>
</g>
</g>
</svg>
