<?xml version="1.0" encoding="UTF-8" standalone="no"?>
<!DOCTYPE svg PUBLIC "-//W3C//DTD SVG 1.1//EN"
 "http://www.w3.org/Graphics/SVG/1.1/DTD/svg11.dtd">
<!-- Generated by graphviz version 7.0.5 (0)
 -->
<!-- Title: Entity Pages: 1 -->
<!--zoomable 887 -->
<svg id="main" version="1.1" xmlns="http://www.w3.org/2000/svg" xmlns:xlink="http://www.w3.org/1999/xlink" xml:space="preserve" onload="init(evt)">
<style type="text/css"><![CDATA[
.edge:hover path { stroke: red; }
.edge:hover polygon { stroke: red; fill: red; }
]]></style>
<script type="text/javascript"><![CDATA[
var edges = document.getElementsByTagName('g');
if (edges && edges.length) {
  for (var i=0;i<edges.length;i++) {
    if (edges[i].id.substr(0,4)=='edge') {
      edges[i].setAttribute('class','edge');
    }
  }
}
]]></script>
        <defs>
                <circle id="rim" cx="0" cy="0" r="7"/>
                <circle id="rim2" cx="0" cy="0" r="3.5"/>
                <g id="zoomPlus">
                        <use xlink:href="#rim" fill="#404040">
                                <set attributeName="fill" to="#808080" begin="zoomplus.mouseover" end="zoomplus.mouseout"/>
                        </use>
                        <path d="M-4,0h8M0,-4v8" fill="none" stroke="white" stroke-width="1.5" pointer-events="none"/>
                </g>
                <g id="zoomMin">
                        <use xlink:href="#rim" fill="#404040">
                                <set attributeName="fill" to="#808080" begin="zoomminus.mouseover" end="zoomminus.mouseout"/>
                        </use>
                        <path d="M-4,0h8" fill="none" stroke="white" stroke-width="1.5" pointer-events="none"/>
                </g>
                <g id="dirArrow">
                        <path fill="none" stroke="white" stroke-width="1.5" d="M0,-3.0v7 M-2.5,-0.5L0,-3.0L2.5,-0.5"/>
                </g>
               <g id="resetDef">
                       <use xlink:href="#rim2" fill="#404040">
                               <set attributeName="fill" to="#808080" begin="reset.mouseover" end="reset.mouseout"/>
                       </use>
               </g>
        </defs>

<script type="text/javascript">
var viewWidth = 1270;
var viewHeight = 887;
var sectionId = 'dynsection-0';
</script>
<script xlink:href="svgpan.js"/>
<svg id="graph" class="graph">
<g id="viewport">
<title>Entity</title>
<!-- Node1 -->
<g id="node1" class="node">
<title>Node1</title>
<g id="a_node1"><a xlink:title=" ">
<polygon fill="#999999" stroke="#666666" points="563.5,-226.5 563.5,-481.5 693.5,-481.5 693.5,-226.5 563.5,-226.5"/>
<text text-anchor="middle" x="628.5" y="-469.5" font-family="Helvetica,sans-Serif" font-size="10.00">Entity</text>
<polyline fill="none" stroke="#666666" points="563.5,-462.5 693.5,-462.5"/>
<text text-anchor="start" x="571.5" y="-450.5" font-family="Helvetica,sans-Serif" font-size="10.00"># velocity</text>
<text text-anchor="start" x="571.5" y="-439.5" font-family="Helvetica,sans-Serif" font-size="10.00"># localBounds</text>
<text text-anchor="start" x="571.5" y="-428.5" font-family="Helvetica,sans-Serif" font-size="10.00"># spriteBounds</text>
<text text-anchor="start" x="571.5" y="-417.5" font-family="Helvetica,sans-Serif" font-size="10.00"># animation</text>
<polyline fill="none" stroke="#666666" points="563.5,-410.5 693.5,-410.5"/>
<text text-anchor="start" x="571.5" y="-398.5" font-family="Helvetica,sans-Serif" font-size="10.00">+ Entity()</text>
<text text-anchor="start" x="571.5" y="-387.5" font-family="Helvetica,sans-Serif" font-size="10.00">+ Entity()</text>
<text text-anchor="start" x="571.5" y="-376.5" font-family="Helvetica,sans-Serif" font-size="10.00">+ Entity()</text>
<text text-anchor="start" x="571.5" y="-365.5" font-family="Helvetica,sans-Serif" font-size="10.00">+ Entity()</text>
<text text-anchor="start" x="571.5" y="-354.5" font-family="Helvetica,sans-Serif" font-size="10.00">+ getVelocity()</text>
<text text-anchor="start" x="571.5" y="-343.5" font-family="Helvetica,sans-Serif" font-size="10.00">+ setVelocity()</text>
<text text-anchor="start" x="571.5" y="-332.5" font-family="Helvetica,sans-Serif" font-size="10.00">+ getLocalBounds()</text>
<text text-anchor="start" x="571.5" y="-321.5" font-family="Helvetica,sans-Serif" font-size="10.00">+ getSpriteBounds()</text>
<text text-anchor="start" x="571.5" y="-310.5" font-family="Helvetica,sans-Serif" font-size="10.00">+ adjustSpriteBounds()</text>
<text text-anchor="start" x="571.5" y="-299.5" font-family="Helvetica,sans-Serif" font-size="10.00">+ adjustBounds()</text>
<text text-anchor="start" x="571.5" y="-288.5" font-family="Helvetica,sans-Serif" font-size="10.00">+ getClassName()</text>
<text text-anchor="start" x="571.5" y="-277.5" font-family="Helvetica,sans-Serif" font-size="10.00">+ saveCurrentNode()</text>
<text text-anchor="start" x="571.5" y="-266.5" font-family="Helvetica,sans-Serif" font-size="10.00">+ loadCurrentNode()</text>
<text text-anchor="start" x="571.5" y="-255.5" font-family="Helvetica,sans-Serif" font-size="10.00"># drawCurrent()</text>
<text text-anchor="start" x="571.5" y="-244.5" font-family="Helvetica,sans-Serif" font-size="10.00"># updateCurrent()</text>
<text text-anchor="start" x="571.5" y="-233.5" font-family="Helvetica,sans-Serif" font-size="10.00"># shouldSave()</text>
</a>
</g>
</g>
<!-- Node6 -->
<g id="node6" class="node">
<title>Node6</title>
<g id="a_node6"><a xlink:href="classAnimal.html" target="_top" xlink:title=" ">
<polygon fill="white" stroke="#bfbfbf" points="0,-39 0,-151 107,-151 107,-39 0,-39"/>
<text text-anchor="middle" x="53.5" y="-139" font-family="Helvetica,sans-Serif" font-size="10.00">Animal</text>
<polyline fill="none" stroke="#bfbfbf" points="0,-132 107,-132"/>
<text text-anchor="middle" x="53.5" y="-120" font-family="Helvetica,sans-Serif" font-size="10.00"> </text>
<polyline fill="none" stroke="#bfbfbf" points="0,-113 107,-113"/>
<text text-anchor="start" x="8" y="-101" font-family="Helvetica,sans-Serif" font-size="10.00">+ getClassName()</text>
<text text-anchor="start" x="8" y="-90" font-family="Helvetica,sans-Serif" font-size="10.00">+ getCategory()</text>
<text text-anchor="start" x="8" y="-79" font-family="Helvetica,sans-Serif" font-size="10.00">+ Entity()</text>
<text text-anchor="start" x="8" y="-68" font-family="Helvetica,sans-Serif" font-size="10.00">+ Entity()</text>
<text text-anchor="start" x="8" y="-57" font-family="Helvetica,sans-Serif" font-size="10.00">+ Entity()</text>
<text text-anchor="start" x="8" y="-46" font-family="Helvetica,sans-Serif" font-size="10.00">+ Entity()</text>
</a>
</g>
</g>
<!-- Node1&#45;&gt;Node6 -->
<g id="edge5" class="edge">
<title>Node1&#45;&gt;Node6</title>
<path fill="none" stroke="#63b8ff" d="M552.49,-344.9C445.45,-330.18 248.52,-290.64 115.5,-190 101.78,-179.62 90.17,-165.27 80.83,-150.9"/>
<polygon fill="none" stroke="#63b8ff" points="551.95,-348.36 562.32,-346.21 552.87,-341.42 551.95,-348.36"/>
</g>
<!-- Node7 -->
<g id="node7" class="node">
<title>Node7</title>
<g id="a_node7"><a xlink:href="classHealthPickup.html" target="_top" xlink:title=" ">
<polygon fill="white" stroke="#bfbfbf" points="125,-55.5 125,-134.5 232,-134.5 232,-55.5 125,-55.5"/>
<text text-anchor="middle" x="178.5" y="-122.5" font-family="Helvetica,sans-Serif" font-size="10.00">HealthPickup</text>
<polyline fill="none" stroke="#bfbfbf" points="125,-115.5 232,-115.5"/>
<text text-anchor="middle" x="178.5" y="-103.5" font-family="Helvetica,sans-Serif" font-size="10.00"> </text>
<polyline fill="none" stroke="#bfbfbf" points="125,-96.5 232,-96.5"/>
<text text-anchor="start" x="133" y="-84.5" font-family="Helvetica,sans-Serif" font-size="10.00">+ HealthPickup()</text>
<text text-anchor="start" x="133" y="-73.5" font-family="Helvetica,sans-Serif" font-size="10.00">+ getCategory()</text>
<text text-anchor="start" x="133" y="-62.5" font-family="Helvetica,sans-Serif" font-size="10.00">+ getClassName()</text>
</a>
</g>
</g>
<!-- Node1&#45;&gt;Node7 -->
<g id="edge6" class="edge">
<title>Node1&#45;&gt;Node7</title>
<path fill="none" stroke="#63b8ff" d="M552.6,-335.09C469.17,-312.43 334.63,-266.79 241.5,-190 223.16,-174.88 208.08,-153.05 197.28,-134.24"/>
<polygon fill="none" stroke="#63b8ff" points="551.5,-338.42 562.06,-337.62 553.3,-331.66 551.5,-338.42"/>
</g>
<!-- Node8 -->
<g id="node8" class="node">
<title>Node8</title>
<g id="a_node8"><a xlink:href="classInvinciblePickup.html" target="_top" xlink:title=" ">
<polygon fill="white" stroke="#bfbfbf" points="250.5,-55.5 250.5,-134.5 364.5,-134.5 364.5,-55.5 250.5,-55.5"/>
<text text-anchor="middle" x="307.5" y="-122.5" font-family="Helvetica,sans-Serif" font-size="10.00">InvinciblePickup</text>
<polyline fill="none" stroke="#bfbfbf" points="250.5,-115.5 364.5,-115.5"/>
<text text-anchor="middle" x="307.5" y="-103.5" font-family="Helvetica,sans-Serif" font-size="10.00"> </text>
<polyline fill="none" stroke="#bfbfbf" points="250.5,-96.5 364.5,-96.5"/>
<text text-anchor="start" x="258.5" y="-84.5" font-family="Helvetica,sans-Serif" font-size="10.00">+ InvinciblePickup()</text>
<text text-anchor="start" x="258.5" y="-73.5" font-family="Helvetica,sans-Serif" font-size="10.00">+ getCategory()</text>
<text text-anchor="start" x="258.5" y="-62.5" font-family="Helvetica,sans-Serif" font-size="10.00">+ getClassName()</text>
</a>
</g>
</g>
<!-- Node1&#45;&gt;Node8 -->
<g id="edge7" class="edge">
<title>Node1&#45;&gt;Node8</title>
<path fill="none" stroke="#63b8ff" d="M553.8,-315.46C499.87,-286.06 427.36,-241.57 373.5,-190 356.5,-173.73 341.15,-152.48 329.54,-134.31"/>
<polygon fill="none" stroke="#63b8ff" points="551.85,-318.39 562.31,-320.06 555.18,-312.23 551.85,-318.39"/>
</g>
<!-- Node9 -->
<g id="node9" class="node">
<title>Node9</title>
<g id="a_node9"><a xlink:href="classLight.html" target="_top" xlink:title=" ">
<polygon fill="white" stroke="#666666" points="383,-44.5 383,-145.5 490,-145.5 490,-44.5 383,-44.5"/>
<text text-anchor="middle" x="436.5" y="-133.5" font-family="Helvetica,sans-Serif" font-size="10.00">Light</text>
<polyline fill="none" stroke="#666666" points="383,-126.5 490,-126.5"/>
<text text-anchor="middle" x="436.5" y="-114.5" font-family="Helvetica,sans-Serif" font-size="10.00"> </text>
<polyline fill="none" stroke="#666666" points="383,-107.5 490,-107.5"/>
<text text-anchor="start" x="391" y="-95.5" font-family="Helvetica,sans-Serif" font-size="10.00">+ Light()</text>
<text text-anchor="start" x="391" y="-84.5" font-family="Helvetica,sans-Serif" font-size="10.00">+ Light()</text>
<text text-anchor="start" x="391" y="-73.5" font-family="Helvetica,sans-Serif" font-size="10.00">+ addObserver()</text>
<text text-anchor="start" x="391" y="-62.5" font-family="Helvetica,sans-Serif" font-size="10.00">+ getClassName()</text>
<text text-anchor="start" x="391" y="-51.5" font-family="Helvetica,sans-Serif" font-size="10.00"># updateCurrent()</text>
</a>
</g>
</g>
<!-- Node1&#45;&gt;Node9 -->
<g id="edge8" class="edge">
<title>Node1&#45;&gt;Node9</title>
<path fill="none" stroke="#63b8ff" d="M556.52,-265.72C537.23,-241.54 516.69,-215.04 498.5,-190 488.16,-175.76 477.43,-159.92 467.86,-145.36"/>
<polygon fill="none" stroke="#63b8ff" points="553.63,-267.72 562.62,-273.34 559.1,-263.35 553.63,-267.72"/>
</g>
<!-- Node10 -->
<g id="node10" class="node">
<title>Node10</title>
<g id="a_node10"><a xlink:href="classPlayer.html" target="_top" xlink:title=" ">
<polygon fill="white" stroke="#bfbfbf" points="508,-0.5 508,-189.5 621,-189.5 621,-0.5 508,-0.5"/>
<text text-anchor="middle" x="564.5" y="-177.5" font-family="Helvetica,sans-Serif" font-size="10.00">Player</text>
<polyline fill="none" stroke="#bfbfbf" points="508,-170.5 621,-170.5"/>
<text text-anchor="middle" x="564.5" y="-158.5" font-family="Helvetica,sans-Serif" font-size="10.00"> </text>
<polyline fill="none" stroke="#bfbfbf" points="508,-151.5 621,-151.5"/>
<text text-anchor="start" x="516" y="-139.5" font-family="Helvetica,sans-Serif" font-size="10.00">+ Player()</text>
<text text-anchor="start" x="516" y="-128.5" font-family="Helvetica,sans-Serif" font-size="10.00">+ Player()</text>
<text text-anchor="start" x="516" y="-117.5" font-family="Helvetica,sans-Serif" font-size="10.00">+ onKeyPressed()</text>
<text text-anchor="start" x="516" y="-106.5" font-family="Helvetica,sans-Serif" font-size="10.00">+ getCategory()</text>
<text text-anchor="start" x="516" y="-95.5" font-family="Helvetica,sans-Serif" font-size="10.00">+ setState()</text>
<text text-anchor="start" x="516" y="-84.5" font-family="Helvetica,sans-Serif" font-size="10.00">+ addHealth()</text>
<text text-anchor="start" x="516" y="-73.5" font-family="Helvetica,sans-Serif" font-size="10.00">+ isDead()</text>
<text text-anchor="start" x="516" y="-62.5" font-family="Helvetica,sans-Serif" font-size="10.00">+ addEffect()</text>
<text text-anchor="start" x="516" y="-51.5" font-family="Helvetica,sans-Serif" font-size="10.00">+ isInvincible()</text>
<text text-anchor="start" x="516" y="-40.5" font-family="Helvetica,sans-Serif" font-size="10.00">+ getDirectionVec()</text>
<text text-anchor="start" x="516" y="-29.5" font-family="Helvetica,sans-Serif" font-size="10.00">and 7 more...</text>
<text text-anchor="start" x="516" y="-18.5" font-family="Helvetica,sans-Serif" font-size="10.00"># updateCurrent()</text>
<text text-anchor="start" x="516" y="-7.5" font-family="Helvetica,sans-Serif" font-size="10.00"># drawCurrent()</text>
</a>
</g>
</g>
<!-- Node1&#45;&gt;Node10 -->
<g id="edge9" class="edge">
<title>Node1&#45;&gt;Node10</title>
<path fill="none" stroke="#63b8ff" d="M594.35,-215.86C592.13,-206.95 589.92,-198.09 587.77,-189.45"/>
<polygon fill="none" stroke="#63b8ff" points="590.88,-216.43 596.7,-225.29 597.68,-214.74 590.88,-216.43"/>
</g>
<!-- Node11 -->
<g id="node11" class="node">
<title>Node11</title>
<g id="a_node11"><a xlink:href="classRock.html" target="_top" xlink:title=" ">
<polygon fill="white" stroke="#bfbfbf" points="639,-50 639,-140 746,-140 746,-50 639,-50"/>
<text text-anchor="middle" x="692.5" y="-128" font-family="Helvetica,sans-Serif" font-size="10.00">Rock</text>
<polyline fill="none" stroke="#bfbfbf" points="639,-121 746,-121"/>
<text text-anchor="middle" x="692.5" y="-109" font-family="Helvetica,sans-Serif" font-size="10.00"> </text>
<polyline fill="none" stroke="#bfbfbf" points="639,-102 746,-102"/>
<text text-anchor="start" x="647" y="-90" font-family="Helvetica,sans-Serif" font-size="10.00">+ Rock()</text>
<text text-anchor="start" x="647" y="-79" font-family="Helvetica,sans-Serif" font-size="10.00">+ getCategory()</text>
<text text-anchor="start" x="647" y="-68" font-family="Helvetica,sans-Serif" font-size="10.00">+ getClassName()</text>
<text text-anchor="start" x="647" y="-57" font-family="Helvetica,sans-Serif" font-size="10.00">+ shouldSave()</text>
</a>
</g>
</g>
<!-- Node1&#45;&gt;Node11 -->
<g id="edge10" class="edge">
<title>Node1&#45;&gt;Node11</title>
<path fill="none" stroke="#63b8ff" d="M662.67,-215.78C669.52,-188.27 676.24,-161.29 681.56,-139.92"/>
<polygon fill="none" stroke="#63b8ff" points="659.32,-214.74 660.3,-225.29 666.12,-216.43 659.32,-214.74"/>
</g>
<!-- Node12 -->
<g id="node12" class="node">
<title>Node12</title>
<g id="a_node12"><a xlink:href="classSmallSizePickup.html" target="_top" xlink:title=" ">
<polygon fill="white" stroke="#bfbfbf" points="764,-55.5 764,-134.5 879,-134.5 879,-55.5 764,-55.5"/>
<text text-anchor="middle" x="821.5" y="-122.5" font-family="Helvetica,sans-Serif" font-size="10.00">SmallSizePickup</text>
<polyline fill="none" stroke="#bfbfbf" points="764,-115.5 879,-115.5"/>
<text text-anchor="middle" x="821.5" y="-103.5" font-family="Helvetica,sans-Serif" font-size="10.00"> </text>
<polyline fill="none" stroke="#bfbfbf" points="764,-96.5 879,-96.5"/>
<text text-anchor="start" x="772" y="-84.5" font-family="Helvetica,sans-Serif" font-size="10.00">+ SmallSizePickup()</text>
<text text-anchor="start" x="772" y="-73.5" font-family="Helvetica,sans-Serif" font-size="10.00">+ getCategory()</text>
<text text-anchor="start" x="772" y="-62.5" font-family="Helvetica,sans-Serif" font-size="10.00">+ getClassName()</text>
</a>
</g>
</g>
<!-- Node1&#45;&gt;Node12 -->
<g id="edge11" class="edge">
<title>Node1&#45;&gt;Node12</title>
<path fill="none" stroke="#63b8ff" d="M700.2,-262.63C718.47,-239.16 737.9,-213.78 755.5,-190 768.9,-171.89 783.33,-151.45 795.27,-134.27"/>
<polygon fill="none" stroke="#63b8ff" points="697.58,-260.29 694.19,-270.33 703.1,-264.6 697.58,-260.29"/>
</g>
<!-- Node13 -->
<g id="node13" class="node">
<title>Node13</title>
<g id="a_node13"><a xlink:href="classSpeedPickup.html" target="_top" xlink:title=" ">
<polygon fill="white" stroke="#bfbfbf" points="897,-55.5 897,-134.5 1004,-134.5 1004,-55.5 897,-55.5"/>
<text text-anchor="middle" x="950.5" y="-122.5" font-family="Helvetica,sans-Serif" font-size="10.00">SpeedPickup</text>
<polyline fill="none" stroke="#bfbfbf" points="897,-115.5 1004,-115.5"/>
<text text-anchor="middle" x="950.5" y="-103.5" font-family="Helvetica,sans-Serif" font-size="10.00"> </text>
<polyline fill="none" stroke="#bfbfbf" points="897,-96.5 1004,-96.5"/>
<text text-anchor="start" x="905" y="-84.5" font-family="Helvetica,sans-Serif" font-size="10.00">+ SpeedPickup()</text>
<text text-anchor="start" x="905" y="-73.5" font-family="Helvetica,sans-Serif" font-size="10.00">+ getCategory()</text>
<text text-anchor="start" x="905" y="-62.5" font-family="Helvetica,sans-Serif" font-size="10.00">+ getClassName()</text>
</a>
</g>
</g>
<!-- Node1&#45;&gt;Node13 -->
<g id="edge12" class="edge">
<title>Node1&#45;&gt;Node13</title>
<path fill="none" stroke="#63b8ff" d="M703.52,-317.08C758.93,-288.07 833.89,-243.37 888.5,-190 905,-173.88 919.46,-152.65 930.26,-134.44"/>
<polygon fill="none" stroke="#63b8ff" points="702.03,-313.91 694.76,-321.62 705.25,-320.13 702.03,-313.91"/>
</g>
<!-- Node14 -->
<g id="node14" class="node">
<title>Node14</title>
<g id="a_node14"><a xlink:href="classVehicle.html" target="_top" xlink:title=" ">
<polygon fill="white" stroke="#bfbfbf" points="1022.5,-33.5 1022.5,-156.5 1136.5,-156.5 1136.5,-33.5 1022.5,-33.5"/>
<text text-anchor="middle" x="1079.5" y="-144.5" font-family="Helvetica,sans-Serif" font-size="10.00">Vehicle</text>
<polyline fill="none" stroke="#bfbfbf" points="1022.5,-137.5 1136.5,-137.5"/>
<text text-anchor="middle" x="1079.5" y="-125.5" font-family="Helvetica,sans-Serif" font-size="10.00"> </text>
<polyline fill="none" stroke="#bfbfbf" points="1022.5,-118.5 1136.5,-118.5"/>
<text text-anchor="start" x="1030.5" y="-106.5" font-family="Helvetica,sans-Serif" font-size="10.00">+ onLightChanged()</text>
<text text-anchor="start" x="1030.5" y="-95.5" font-family="Helvetica,sans-Serif" font-size="10.00">+ getCategory()</text>
<text text-anchor="start" x="1030.5" y="-84.5" font-family="Helvetica,sans-Serif" font-size="10.00">+ getClassName()</text>
<text text-anchor="start" x="1030.5" y="-73.5" font-family="Helvetica,sans-Serif" font-size="10.00">+ Entity()</text>
<text text-anchor="start" x="1030.5" y="-62.5" font-family="Helvetica,sans-Serif" font-size="10.00">+ Entity()</text>
<text text-anchor="start" x="1030.5" y="-51.5" font-family="Helvetica,sans-Serif" font-size="10.00">+ Entity()</text>
<text text-anchor="start" x="1030.5" y="-40.5" font-family="Helvetica,sans-Serif" font-size="10.00">+ Entity()</text>
</a>
</g>
</g>
<!-- Node1&#45;&gt;Node14 -->
<g id="edge13" class="edge">
<title>Node1&#45;&gt;Node14</title>
<path fill="none" stroke="#63b8ff" d="M704.31,-334.45C787.08,-311.31 920.25,-265.34 1013.5,-190 1025.13,-180.6 1035.61,-168.64 1044.62,-156.43"/>
<polygon fill="none" stroke="#63b8ff" points="703.39,-331.07 694.68,-337.1 705.25,-337.82 703.39,-331.07"/>
</g>
<!-- Node15 -->
<g id="node15" class="node">
<title>Node15</title>
<g id="a_node15"><a xlink:href="classWater.html" target="_top" xlink:title=" ">
<polygon fill="white" stroke="#bfbfbf" points="1155,-50 1155,-140 1262,-140 1262,-50 1155,-50"/>
<text text-anchor="middle" x="1208.5" y="-128" font-family="Helvetica,sans-Serif" font-size="10.00">Water</text>
<polyline fill="none" stroke="#bfbfbf" points="1155,-121 1262,-121"/>
<text text-anchor="middle" x="1208.5" y="-109" font-family="Helvetica,sans-Serif" font-size="10.00"> </text>
<polyline fill="none" stroke="#bfbfbf" points="1155,-102 1262,-102"/>
<text text-anchor="start" x="1163" y="-90" font-family="Helvetica,sans-Serif" font-size="10.00">+ Water()</text>
<text text-anchor="start" x="1163" y="-79" font-family="Helvetica,sans-Serif" font-size="10.00">+ Water()</text>
<text text-anchor="start" x="1163" y="-68" font-family="Helvetica,sans-Serif" font-size="10.00">+ getCategory()</text>
<text text-anchor="start" x="1163" y="-57" font-family="Helvetica,sans-Serif" font-size="10.00">+ getClassName()</text>
</a>
</g>
</g>
<!-- Node1&#45;&gt;Node15 -->
<g id="edge14" class="edge">
<title>Node1&#45;&gt;Node15</title>
<path fill="none" stroke="#63b8ff" d="M704.56,-344.98C812.21,-330.33 1010.87,-290.84 1145.5,-190 1162.95,-176.93 1177.12,-157.52 1187.56,-139.73"/>
<polygon fill="none" stroke="#63b8ff" points="704.12,-341.5 694.66,-346.28 705.04,-348.44 704.12,-341.5"/>
</g>
<!-- Node2 -->
<g id="node2" class="node">
<title>Node2</title>
<g id="a_node2"><a xlink:href="classSceneNode.html" target="_top" xlink:title="A node in the scene graph.">
<polygon fill="white" stroke="#666666" points="561,-518.5 561,-784.5 696,-784.5 696,-518.5 561,-518.5"/>
<text text-anchor="middle" x="628.5" y="-772.5" font-family="Helvetica,sans-Serif" font-size="10.00">SceneNode</text>
<polyline fill="none" stroke="#666666" points="561,-765.5 696,-765.5"/>
<text text-anchor="middle" x="628.5" y="-753.5" font-family="Helvetica,sans-Serif" font-size="10.00"> </text>
<polyline fill="none" stroke="#666666" points="561,-746.5 696,-746.5"/>
<text text-anchor="start" x="569" y="-734.5" font-family="Helvetica,sans-Serif" font-size="10.00">+ SceneNode()</text>
<text text-anchor="start" x="569" y="-723.5" font-family="Helvetica,sans-Serif" font-size="10.00">+ attachChild()</text>
<text text-anchor="start" x="569" y="-712.5" font-family="Helvetica,sans-Serif" font-size="10.00">+ detachChild()</text>
<text text-anchor="start" x="569" y="-701.5" font-family="Helvetica,sans-Serif" font-size="10.00">+ update()</text>
<text text-anchor="start" x="569" y="-690.5" font-family="Helvetica,sans-Serif" font-size="10.00">+ getAbsTransform()</text>
<text text-anchor="start" x="569" y="-679.5" font-family="Helvetica,sans-Serif" font-size="10.00">+ getAbsPosition()</text>
<text text-anchor="start" x="569" y="-668.5" font-family="Helvetica,sans-Serif" font-size="10.00">+ checkNodeCollision()</text>
<text text-anchor="start" x="569" y="-657.5" font-family="Helvetica,sans-Serif" font-size="10.00">+ checkSceneCollision()</text>
<text text-anchor="start" x="569" y="-646.5" font-family="Helvetica,sans-Serif" font-size="10.00">+ setDebug()</text>
<text text-anchor="start" x="569" y="-635.5" font-family="Helvetica,sans-Serif" font-size="10.00">+ getCategory()</text>
<text text-anchor="start" x="569" y="-624.5" font-family="Helvetica,sans-Serif" font-size="10.00">+ saveNode()</text>
<text text-anchor="start" x="569" y="-613.5" font-family="Helvetica,sans-Serif" font-size="10.00">+ operator&lt;()</text>
<text text-anchor="start" x="569" y="-602.5" font-family="Helvetica,sans-Serif" font-size="10.00">+ getBoundingRect()</text>
<text text-anchor="start" x="569" y="-591.5" font-family="Helvetica,sans-Serif" font-size="10.00">+ getLocalBounds()</text>
<text text-anchor="start" x="569" y="-580.5" font-family="Helvetica,sans-Serif" font-size="10.00">+ draw()</text>
<text text-anchor="start" x="569" y="-569.5" font-family="Helvetica,sans-Serif" font-size="10.00"># getClassName()</text>
<text text-anchor="start" x="569" y="-558.5" font-family="Helvetica,sans-Serif" font-size="10.00"># saveCurrentNode()</text>
<text text-anchor="start" x="569" y="-547.5" font-family="Helvetica,sans-Serif" font-size="10.00"># loadCurrentNode()</text>
<text text-anchor="start" x="569" y="-536.5" font-family="Helvetica,sans-Serif" font-size="10.00"># onLoadingFinished()</text>
<text text-anchor="start" x="569" y="-525.5" font-family="Helvetica,sans-Serif" font-size="10.00"># shouldSave()</text>
</a>
</g>
</g>
<!-- Node2&#45;&gt;Node1 -->
<g id="edge1" class="edge">
<title>Node2&#45;&gt;Node1</title>
<path fill="none" stroke="#63b8ff" d="M628.5,-507.31C628.5,-498.6 628.5,-489.87 628.5,-481.24"/>
<polygon fill="none" stroke="#63b8ff" points="625,-507.22 628.5,-517.22 632,-507.22 625,-507.22"/>
</g>
<!-- Node3 -->
<g id="node3" class="node">
<title>Node3</title>
<g id="a_node3"><a xlink:title=" ">
<polygon fill="white" stroke="#bfbfbf" points="483,-821.5 483,-878.5 560,-878.5 560,-821.5 483,-821.5"/>
<text text-anchor="middle" x="521.5" y="-866.5" font-family="Helvetica,sans-Serif" font-size="10.00">sf::Drawable</text>
<polyline fill="none" stroke="#bfbfbf" points="483,-859.5 560,-859.5"/>
<text text-anchor="middle" x="521.5" y="-847.5" font-family="Helvetica,sans-Serif" font-size="10.00"> </text>
<polyline fill="none" stroke="#bfbfbf" points="483,-840.5 560,-840.5"/>
<text text-anchor="middle" x="521.5" y="-828.5" font-family="Helvetica,sans-Serif" font-size="10.00"> </text>
</a>
</g>
</g>
<!-- Node3&#45;&gt;Node2 -->
<g id="edge2" class="edge">
<title>Node3&#45;&gt;Node2</title>
<path fill="none" stroke="#63b8ff" d="M541.82,-811.68C547.57,-801.13 554.15,-789.04 561.07,-776.33"/>
<polygon fill="none" stroke="#63b8ff" points="538.81,-809.89 537.1,-820.35 544.96,-813.24 538.81,-809.89"/>
</g>
<!-- Node4 -->
<g id="node4" class="node">
<title>Node4</title>
<g id="a_node4"><a xlink:title=" ">
<polygon fill="white" stroke="#bfbfbf" points="578,-821.5 578,-878.5 679,-878.5 679,-821.5 578,-821.5"/>
<text text-anchor="middle" x="628.5" y="-866.5" font-family="Helvetica,sans-Serif" font-size="10.00">sf::Transformable</text>
<polyline fill="none" stroke="#bfbfbf" points="578,-859.5 679,-859.5"/>
<text text-anchor="middle" x="628.5" y="-847.5" font-family="Helvetica,sans-Serif" font-size="10.00"> </text>
<polyline fill="none" stroke="#bfbfbf" points="578,-840.5 679,-840.5"/>
<text text-anchor="middle" x="628.5" y="-828.5" font-family="Helvetica,sans-Serif" font-size="10.00"> </text>
</a>
</g>
</g>
<!-- Node4&#45;&gt;Node2 -->
<g id="edge3" class="edge">
<title>Node4&#45;&gt;Node2</title>
<path fill="none" stroke="#63b8ff" d="M628.5,-810.31C628.5,-802.36 628.5,-793.58 628.5,-784.35"/>
<polygon fill="none" stroke="#63b8ff" points="625,-810.16 628.5,-820.16 632,-810.16 625,-810.16"/>
</g>
<!-- Node5 -->
<g id="node5" class="node">
<title>Node5</title>
<g id="a_node5"><a xlink:title=" ">
<polygon fill="white" stroke="#bfbfbf" points="697.5,-821.5 697.5,-878.5 793.5,-878.5 793.5,-821.5 697.5,-821.5"/>
<text text-anchor="middle" x="745.5" y="-866.5" font-family="Helvetica,sans-Serif" font-size="10.00">sf::NonCopyable</text>
<polyline fill="none" stroke="#bfbfbf" points="697.5,-859.5 793.5,-859.5"/>
<text text-anchor="middle" x="745.5" y="-847.5" font-family="Helvetica,sans-Serif" font-size="10.00"> </text>
<polyline fill="none" stroke="#bfbfbf" points="697.5,-840.5 793.5,-840.5"/>
<text text-anchor="middle" x="745.5" y="-828.5" font-family="Helvetica,sans-Serif" font-size="10.00"> </text>
</a>
</g>
</g>
<!-- Node5&#45;&gt;Node2 -->
<g id="edge4" class="edge">
<title>Node5&#45;&gt;Node2</title>
<path fill="none" stroke="#8b1a1a" d="M723.38,-811.86C715.32,-798.32 705.73,-782.21 695.8,-765.52"/>
<polygon fill="none" stroke="#8b1a1a" points="720.33,-813.58 728.46,-820.38 726.35,-809.99 720.33,-813.58"/>
</g>
</g>
</svg>
        <g id="navigator" transform="translate(0 0)" fill="#404254">
                <rect fill="#f2f5e9" fill-opacity="0.5" stroke="#606060" stroke-width=".5" x="0" y="0" width="60" height="60"/>
                <use id="zoomplus" xlink:href="#zoomPlus" x="17" y="9" onmousedown="handleZoom(evt,'in')"/>
                <use id="zoomminus" xlink:href="#zoomMin" x="42" y="9" onmousedown="handleZoom(evt,'out')"/>
                <use id="reset" xlink:href="#resetDef" x="30" y="36" onmousedown="handleReset()"/>
                <g id="arrowUp" xlink:href="#dirArrow" transform="translate(30 24)" onmousedown="handlePan(0,-1)">
                  <use xlink:href="#rim" fill="#404040">
                        <set attributeName="fill" to="#808080" begin="arrowUp.mouseover" end="arrowUp.mouseout"/>
                  </use>
                  <path fill="none" stroke="white" stroke-width="1.5" d="M0,-3.0v7 M-2.5,-0.5L0,-3.0L2.5,-0.5"/>
                </g>
                <g id="arrowRight" xlink:href="#dirArrow" transform="rotate(90) translate(36 -43)" onmousedown="handlePan(1,0)">
                  <use xlink:href="#rim" fill="#404040">
                        <set attributeName="fill" to="#808080" begin="arrowRight.mouseover" end="arrowRight.mouseout"/>
                  </use>
                  <path fill="none" stroke="white" stroke-width="1.5" d="M0,-3.0v7 M-2.5,-0.5L0,-3.0L2.5,-0.5"/>
                </g>
                <g id="arrowDown" xlink:href="#dirArrow" transform="rotate(180) translate(-30 -48)" onmousedown="handlePan(0,1)">
                  <use xlink:href="#rim" fill="#404040">
                        <set attributeName="fill" to="#808080" begin="arrowDown.mouseover" end="arrowDown.mouseout"/>
                  </use>
                  <path fill="none" stroke="white" stroke-width="1.5" d="M0,-3.0v7 M-2.5,-0.5L0,-3.0L2.5,-0.5"/>
                </g>
                <g id="arrowLeft" xlink:href="#dirArrow" transform="rotate(270) translate(-36 17)" onmousedown="handlePan(-1,0)">
                  <use xlink:href="#rim" fill="#404040">
                        <set attributeName="fill" to="#808080" begin="arrowLeft.mouseover" end="arrowLeft.mouseout"/>
                  </use>
                  <path fill="none" stroke="white" stroke-width="1.5" d="M0,-3.0v7 M-2.5,-0.5L0,-3.0L2.5,-0.5"/>
                </g>
        </g>
        <svg viewBox="0 0 15 15" width="100%" height="30px" preserveAspectRatio="xMaxYMin meet">
         <g id="arrow_out" transform="scale(0.3 0.3)">
          <a xlink:href="classEntity__inherit__graph_org.svg" target="_base">
           <rect id="button" ry="5" rx="5" y="6" x="6" height="38" width="38"
                fill="#f2f5e9" fill-opacity="0.5" stroke="#606060" stroke-width="1.0"/>
           <path id="arrow"
             d="M 11.500037,31.436501 C 11.940474,20.09759 22.043105,11.32322 32.158766,21.979434 L 37.068811,17.246167 C 37.068811,17.246167 37.088388,32 37.088388,32 L 22.160133,31.978069 C 22.160133,31.978069 26.997745,27.140456 26.997745,27.140456 C 18.528582,18.264221 13.291696,25.230495 11.500037,31.436501 z"
             style="fill:#404040;"/>
          </a>
         </g>
        </svg>
</svg>
