<?xml version="1.0" encoding="UTF-8" standalone="no"?>
<!DOCTYPE svg PUBLIC "-//W3C//DTD SVG 1.1//EN"
 "http://www.w3.org/Graphics/SVG/1.1/DTD/svg11.dtd">
<!-- Generated by graphviz version 7.0.5 (0)
 -->
<!-- Title: VehicleLaneController Pages: 1 -->
<svg width="372pt" height="1050pt"
 viewBox="0.00 0.00 371.50 1050.00" xmlns="http://www.w3.org/2000/svg" xmlns:xlink="http://www.w3.org/1999/xlink">
<g id="graph0" class="graph" transform="scale(1 1) rotate(0) translate(4 1046)">
<title>VehicleLaneController</title>
<!-- Node1 -->
<g id="node1" class="node">
<title>Node1</title>
<g id="a_node1"><a xlink:title=" ">
<polygon fill="#999999" stroke="#666666" points="146.5,-0.5 146.5,-189.5 288.5,-189.5 288.5,-0.5 146.5,-0.5"/>
<text text-anchor="middle" x="217.5" y="-177.5" font-family="Helvetica,sans-Serif" font-size="10.00">VehicleLaneController</text>
<polyline fill="none" stroke="#666666" points="146.5,-170.5 288.5,-170.5"/>
<text text-anchor="middle" x="217.5" y="-158.5" font-family="Helvetica,sans-Serif" font-size="10.00"> </text>
<polyline fill="none" stroke="#666666" points="146.5,-151.5 288.5,-151.5"/>
<text text-anchor="start" x="154.5" y="-139.5" font-family="Helvetica,sans-Serif" font-size="10.00">+ VehicleLaneController()</text>
<text text-anchor="start" x="154.5" y="-128.5" font-family="Helvetica,sans-Serif" font-size="10.00">+ VehicleLaneController()</text>
<text text-anchor="start" x="154.5" y="-117.5" font-family="Helvetica,sans-Serif" font-size="10.00">+ getType()</text>
<text text-anchor="start" x="154.5" y="-106.5" font-family="Helvetica,sans-Serif" font-size="10.00">+ setRedDuration()</text>
<text text-anchor="start" x="154.5" y="-95.5" font-family="Helvetica,sans-Serif" font-size="10.00">+ setGreenDuration()</text>
<text text-anchor="start" x="154.5" y="-84.5" font-family="Helvetica,sans-Serif" font-size="10.00">+ build()</text>
<text text-anchor="start" x="154.5" y="-73.5" font-family="Helvetica,sans-Serif" font-size="10.00">+ getClassName()</text>
<text text-anchor="start" x="154.5" y="-62.5" font-family="Helvetica,sans-Serif" font-size="10.00">+ saveCurrentNode()</text>
<text text-anchor="start" x="154.5" y="-51.5" font-family="Helvetica,sans-Serif" font-size="10.00">+ loadCurrentNode()</text>
<text text-anchor="start" x="154.5" y="-40.5" font-family="Helvetica,sans-Serif" font-size="10.00">+ RoadLaneController()</text>
<text text-anchor="start" x="154.5" y="-29.5" font-family="Helvetica,sans-Serif" font-size="10.00">+ RoadLaneController()</text>
<text text-anchor="start" x="154.5" y="-18.5" font-family="Helvetica,sans-Serif" font-size="10.00">+ RoadLaneController()</text>
<text text-anchor="start" x="154.5" y="-7.5" font-family="Helvetica,sans-Serif" font-size="10.00"># newLane()</text>
</a>
</g>
</g>
<!-- Node2 -->
<g id="node2" class="node">
<title>Node2</title>
<g id="a_node2"><a xlink:href="classRoadLaneController.html" target="_top" xlink:title=" ">
<polygon fill="white" stroke="#bfbfbf" points="149,-227.5 149,-482.5 286,-482.5 286,-227.5 149,-227.5"/>
<text text-anchor="middle" x="217.5" y="-470.5" font-family="Helvetica,sans-Serif" font-size="10.00">RoadLaneController</text>
<polyline fill="none" stroke="#bfbfbf" points="149,-463.5 286,-463.5"/>
<text text-anchor="start" x="157" y="-451.5" font-family="Helvetica,sans-Serif" font-size="10.00"># lanes</text>
<text text-anchor="start" x="157" y="-440.5" font-family="Helvetica,sans-Serif" font-size="10.00"># laneCount</text>
<text text-anchor="start" x="157" y="-429.5" font-family="Helvetica,sans-Serif" font-size="10.00"># laneHeight</text>
<text text-anchor="start" x="157" y="-418.5" font-family="Helvetica,sans-Serif" font-size="10.00"># commuterSize</text>
<text text-anchor="start" x="157" y="-407.5" font-family="Helvetica,sans-Serif" font-size="10.00"># frequencyFunction</text>
<polyline fill="none" stroke="#bfbfbf" points="149,-400.5 286,-400.5"/>
<text text-anchor="start" x="157" y="-388.5" font-family="Helvetica,sans-Serif" font-size="10.00">+ RoadLaneController()</text>
<text text-anchor="start" x="157" y="-377.5" font-family="Helvetica,sans-Serif" font-size="10.00">+ RoadLaneController()</text>
<text text-anchor="start" x="157" y="-366.5" font-family="Helvetica,sans-Serif" font-size="10.00">+ RoadLaneController()</text>
<text text-anchor="start" x="157" y="-355.5" font-family="Helvetica,sans-Serif" font-size="10.00">+ getType()</text>
<text text-anchor="start" x="157" y="-344.5" font-family="Helvetica,sans-Serif" font-size="10.00">+ build()</text>
<text text-anchor="start" x="157" y="-333.5" font-family="Helvetica,sans-Serif" font-size="10.00">+ setLaneHeight()</text>
<text text-anchor="start" x="157" y="-322.5" font-family="Helvetica,sans-Serif" font-size="10.00">+ setPosY()</text>
<text text-anchor="start" x="157" y="-311.5" font-family="Helvetica,sans-Serif" font-size="10.00">+ setCommuterSize()</text>
<text text-anchor="start" x="157" y="-300.5" font-family="Helvetica,sans-Serif" font-size="10.00">+ getClassName()</text>
<text text-anchor="start" x="157" y="-289.5" font-family="Helvetica,sans-Serif" font-size="10.00">+ saveCurrentNode()</text>
<text text-anchor="start" x="157" y="-278.5" font-family="Helvetica,sans-Serif" font-size="10.00">+ loadCurrentNode()</text>
<text text-anchor="start" x="157" y="-267.5" font-family="Helvetica,sans-Serif" font-size="10.00">+ setLaneCount()</text>
<text text-anchor="start" x="157" y="-256.5" font-family="Helvetica,sans-Serif" font-size="10.00">+ setSpeedDistribution()</text>
<text text-anchor="start" x="157" y="-245.5" font-family="Helvetica,sans-Serif" font-size="10.00">+ onLoadingFinished()</text>
<text text-anchor="start" x="157" y="-234.5" font-family="Helvetica,sans-Serif" font-size="10.00"># newLane()</text>
</a>
</g>
</g>
<!-- Node2&#45;&gt;Node1 -->
<g id="edge1" class="edge">
<title>Node2&#45;&gt;Node1</title>
<path fill="none" stroke="#63b8ff" d="M217.5,-216.16C217.5,-207.12 217.5,-198.12 217.5,-189.37"/>
<polygon fill="none" stroke="#63b8ff" points="214,-216.13 217.5,-226.13 221,-216.13 214,-216.13"/>
</g>
<!-- Node3 -->
<g id="node3" class="node">
<title>Node3</title>
<g id="a_node3"><a xlink:href="classLane.html" target="_top" xlink:title=" ">
<polygon fill="white" stroke="#bfbfbf" points="92,-547 92,-626 199,-626 199,-547 92,-547"/>
<text text-anchor="middle" x="145.5" y="-614" font-family="Helvetica,sans-Serif" font-size="10.00">Lane</text>
<polyline fill="none" stroke="#bfbfbf" points="92,-607 199,-607"/>
<text text-anchor="middle" x="145.5" y="-595" font-family="Helvetica,sans-Serif" font-size="10.00"> </text>
<polyline fill="none" stroke="#bfbfbf" points="92,-588 199,-588"/>
<text text-anchor="start" x="100" y="-576" font-family="Helvetica,sans-Serif" font-size="10.00">+ setPosY()</text>
<text text-anchor="start" x="100" y="-565" font-family="Helvetica,sans-Serif" font-size="10.00">+ setLaneHeight()</text>
<text text-anchor="start" x="100" y="-554" font-family="Helvetica,sans-Serif" font-size="10.00">+ getClassName()</text>
</a>
</g>
</g>
<!-- Node3&#45;&gt;Node2 -->
<g id="edge2" class="edge">
<title>Node3&#45;&gt;Node2</title>
<path fill="none" stroke="#63b8ff" d="M160.92,-536.35C165.98,-520.21 171.87,-501.45 177.89,-482.26"/>
<polygon fill="none" stroke="#63b8ff" points="157.66,-535.05 158,-545.64 164.34,-537.15 157.66,-535.05"/>
</g>
<!-- Node4 -->
<g id="node4" class="node">
<title>Node4</title>
<g id="a_node4"><a xlink:href="classSceneNode.html" target="_top" xlink:title="A node in the scene graph.">
<polygon fill="white" stroke="#666666" points="78,-680.5 78,-946.5 213,-946.5 213,-680.5 78,-680.5"/>
<text text-anchor="middle" x="145.5" y="-934.5" font-family="Helvetica,sans-Serif" font-size="10.00">SceneNode</text>
<polyline fill="none" stroke="#666666" points="78,-927.5 213,-927.5"/>
<text text-anchor="middle" x="145.5" y="-915.5" font-family="Helvetica,sans-Serif" font-size="10.00"> </text>
<polyline fill="none" stroke="#666666" points="78,-908.5 213,-908.5"/>
<text text-anchor="start" x="86" y="-896.5" font-family="Helvetica,sans-Serif" font-size="10.00">+ SceneNode()</text>
<text text-anchor="start" x="86" y="-885.5" font-family="Helvetica,sans-Serif" font-size="10.00">+ attachChild()</text>
<text text-anchor="start" x="86" y="-874.5" font-family="Helvetica,sans-Serif" font-size="10.00">+ detachChild()</text>
<text text-anchor="start" x="86" y="-863.5" font-family="Helvetica,sans-Serif" font-size="10.00">+ update()</text>
<text text-anchor="start" x="86" y="-852.5" font-family="Helvetica,sans-Serif" font-size="10.00">+ getAbsTransform()</text>
<text text-anchor="start" x="86" y="-841.5" font-family="Helvetica,sans-Serif" font-size="10.00">+ getAbsPosition()</text>
<text text-anchor="start" x="86" y="-830.5" font-family="Helvetica,sans-Serif" font-size="10.00">+ checkNodeCollision()</text>
<text text-anchor="start" x="86" y="-819.5" font-family="Helvetica,sans-Serif" font-size="10.00">+ checkSceneCollision()</text>
<text text-anchor="start" x="86" y="-808.5" font-family="Helvetica,sans-Serif" font-size="10.00">+ setDebug()</text>
<text text-anchor="start" x="86" y="-797.5" font-family="Helvetica,sans-Serif" font-size="10.00">+ getCategory()</text>
<text text-anchor="start" x="86" y="-786.5" font-family="Helvetica,sans-Serif" font-size="10.00">+ saveNode()</text>
<text text-anchor="start" x="86" y="-775.5" font-family="Helvetica,sans-Serif" font-size="10.00">+ operator&lt;()</text>
<text text-anchor="start" x="86" y="-764.5" font-family="Helvetica,sans-Serif" font-size="10.00">+ getBoundingRect()</text>
<text text-anchor="start" x="86" y="-753.5" font-family="Helvetica,sans-Serif" font-size="10.00">+ getLocalBounds()</text>
<text text-anchor="start" x="86" y="-742.5" font-family="Helvetica,sans-Serif" font-size="10.00">+ draw()</text>
<text text-anchor="start" x="86" y="-731.5" font-family="Helvetica,sans-Serif" font-size="10.00"># getClassName()</text>
<text text-anchor="start" x="86" y="-720.5" font-family="Helvetica,sans-Serif" font-size="10.00"># saveCurrentNode()</text>
<text text-anchor="start" x="86" y="-709.5" font-family="Helvetica,sans-Serif" font-size="10.00"># loadCurrentNode()</text>
<text text-anchor="start" x="86" y="-698.5" font-family="Helvetica,sans-Serif" font-size="10.00"># onLoadingFinished()</text>
<text text-anchor="start" x="86" y="-687.5" font-family="Helvetica,sans-Serif" font-size="10.00"># shouldSave()</text>
</a>
</g>
</g>
<!-- Node4&#45;&gt;Node3 -->
<g id="edge3" class="edge">
<title>Node4&#45;&gt;Node3</title>
<path fill="none" stroke="#63b8ff" d="M145.5,-669.52C145.5,-653.64 145.5,-638.64 145.5,-625.92"/>
<polygon fill="none" stroke="#63b8ff" points="142,-669.13 145.5,-679.13 149,-669.13 142,-669.13"/>
</g>
<!-- Node5 -->
<g id="node5" class="node">
<title>Node5</title>
<g id="a_node5"><a xlink:title=" ">
<polygon fill="white" stroke="#bfbfbf" points="0,-984.5 0,-1041.5 77,-1041.5 77,-984.5 0,-984.5"/>
<text text-anchor="middle" x="38.5" y="-1029.5" font-family="Helvetica,sans-Serif" font-size="10.00">sf::Drawable</text>
<polyline fill="none" stroke="#bfbfbf" points="0,-1022.5 77,-1022.5"/>
<text text-anchor="middle" x="38.5" y="-1010.5" font-family="Helvetica,sans-Serif" font-size="10.00"> </text>
<polyline fill="none" stroke="#bfbfbf" points="0,-1003.5 77,-1003.5"/>
<text text-anchor="middle" x="38.5" y="-991.5" font-family="Helvetica,sans-Serif" font-size="10.00"> </text>
</a>
</g>
</g>
<!-- Node5&#45;&gt;Node4 -->
<g id="edge4" class="edge">
<title>Node5&#45;&gt;Node4</title>
<path fill="none" stroke="#63b8ff" d="M58.82,-974.49C64.57,-963.89 71.15,-951.73 78.07,-938.96"/>
<polygon fill="none" stroke="#63b8ff" points="55.79,-972.75 54.1,-983.21 61.94,-976.08 55.79,-972.75"/>
</g>
<!-- Node6 -->
<g id="node6" class="node">
<title>Node6</title>
<g id="a_node6"><a xlink:title=" ">
<polygon fill="white" stroke="#bfbfbf" points="95,-984.5 95,-1041.5 196,-1041.5 196,-984.5 95,-984.5"/>
<text text-anchor="middle" x="145.5" y="-1029.5" font-family="Helvetica,sans-Serif" font-size="10.00">sf::Transformable</text>
<polyline fill="none" stroke="#bfbfbf" points="95,-1022.5 196,-1022.5"/>
<text text-anchor="middle" x="145.5" y="-1010.5" font-family="Helvetica,sans-Serif" font-size="10.00"> </text>
<polyline fill="none" stroke="#bfbfbf" points="95,-1003.5 196,-1003.5"/>
<text text-anchor="middle" x="145.5" y="-991.5" font-family="Helvetica,sans-Serif" font-size="10.00"> </text>
</a>
</g>
</g>
<!-- Node6&#45;&gt;Node4 -->
<g id="edge5" class="edge">
<title>Node6&#45;&gt;Node4</title>
<path fill="none" stroke="#63b8ff" d="M145.5,-973.16C145.5,-964.92 145.5,-955.79 145.5,-946.18"/>
<polygon fill="none" stroke="#63b8ff" points="142,-973.02 145.5,-983.02 149,-973.02 142,-973.02"/>
</g>
<!-- Node7 -->
<g id="node7" class="node">
<title>Node7</title>
<g id="a_node7"><a xlink:title=" ">
<polygon fill="white" stroke="#bfbfbf" points="214.5,-984.5 214.5,-1041.5 310.5,-1041.5 310.5,-984.5 214.5,-984.5"/>
<text text-anchor="middle" x="262.5" y="-1029.5" font-family="Helvetica,sans-Serif" font-size="10.00">sf::NonCopyable</text>
<polyline fill="none" stroke="#bfbfbf" points="214.5,-1022.5 310.5,-1022.5"/>
<text text-anchor="middle" x="262.5" y="-1010.5" font-family="Helvetica,sans-Serif" font-size="10.00"> </text>
<polyline fill="none" stroke="#bfbfbf" points="214.5,-1003.5 310.5,-1003.5"/>
<text text-anchor="middle" x="262.5" y="-991.5" font-family="Helvetica,sans-Serif" font-size="10.00"> </text>
</a>
</g>
</g>
<!-- Node7&#45;&gt;Node4 -->
<g id="edge6" class="edge">
<title>Node7&#45;&gt;Node4</title>
<path fill="none" stroke="#8b1a1a" d="M240.38,-974.67C232.32,-961.06 222.73,-944.87 212.8,-928.1"/>
<polygon fill="none" stroke="#8b1a1a" points="237.35,-976.42 245.46,-983.24 243.37,-972.85 237.35,-976.42"/>
</g>
<!-- Node8 -->
<g id="node8" class="node">
<title>Node8</title>
<g id="a_node8"><a xlink:href="classRandom.html" target="_top" xlink:title=" ">
<polygon fill="white" stroke="#666666" points="217.5,-530.5 217.5,-642.5 361.5,-642.5 361.5,-530.5 217.5,-530.5"/>
<text text-anchor="start" x="225.5" y="-630.5" font-family="Helvetica,sans-Serif" font-size="10.00">Random&lt; std::normal</text>
<text text-anchor="middle" x="289.5" y="-619.5" font-family="Helvetica,sans-Serif" font-size="10.00">_distribution&lt; double &gt; &gt;</text>
<polyline fill="none" stroke="#666666" points="217.5,-612.5 361.5,-612.5"/>
<text text-anchor="middle" x="289.5" y="-600.5" font-family="Helvetica,sans-Serif" font-size="10.00"> </text>
<polyline fill="none" stroke="#666666" points="217.5,-593.5 361.5,-593.5"/>
<text text-anchor="start" x="225.5" y="-581.5" font-family="Helvetica,sans-Serif" font-size="10.00">+ Random()</text>
<text text-anchor="start" x="225.5" y="-570.5" font-family="Helvetica,sans-Serif" font-size="10.00">+ Random()</text>
<text text-anchor="start" x="225.5" y="-559.5" font-family="Helvetica,sans-Serif" font-size="10.00">+ get()</text>
<text text-anchor="start" x="225.5" y="-548.5" font-family="Helvetica,sans-Serif" font-size="10.00">+ get()</text>
<text text-anchor="start" x="225.5" y="-537.5" font-family="Helvetica,sans-Serif" font-size="10.00">+ dis()</text>
</a>
</g>
</g>
<!-- Node8&#45;&gt;Node2 -->
<g id="edge7" class="edge">
<title>Node8&#45;&gt;Node2</title>
<path fill="none" stroke="#404040" d="M272.25,-530.53C268.75,-519.37 264.93,-507.17 260.97,-494.57"/>
<polygon fill="none" stroke="#404040" points="261.01,-494.7 255.4,-490.17 257.42,-483.25 263.03,-487.78 261.01,-494.7"/>
<text text-anchor="middle" x="314.5" y="-504" font-family="Helvetica,sans-Serif" font-size="10.00"> #speedDistribution</text>
</g>
</g>
</svg>
