<?xml version="1.0" encoding="UTF-8" standalone="no"?>
<!DOCTYPE svg PUBLIC "-//W3C//DTD SVG 1.1//EN"
 "http://www.w3.org/Graphics/SVG/1.1/DTD/svg11.dtd">
<!-- Generated by graphviz version 7.0.5 (0)
 -->
<!-- Title: ObstacleCollidingState Pages: 1 -->
<svg width="154pt" height="342pt"
 viewBox="0.00 0.00 154.00 342.00" xmlns="http://www.w3.org/2000/svg" xmlns:xlink="http://www.w3.org/1999/xlink">
<g id="graph0" class="graph" transform="scale(1 1) rotate(0) translate(4 338)">
<title>ObstacleCollidingState</title>
<!-- Node1 -->
<g id="node1" class="node">
<title>Node1</title>
<g id="a_node1"><a xlink:title=" ">
<polygon fill="#999999" stroke="#666666" points="0,-0.5 0,-68.5 146,-68.5 146,-0.5 0,-0.5"/>
<text text-anchor="middle" x="73" y="-56.5" font-family="Helvetica,sans-Serif" font-size="10.00">ObstacleCollidingState</text>
<polyline fill="none" stroke="#666666" points="0,-49.5 146,-49.5"/>
<text text-anchor="middle" x="73" y="-37.5" font-family="Helvetica,sans-Serif" font-size="10.00"> </text>
<polyline fill="none" stroke="#666666" points="0,-30.5 146,-30.5"/>
<text text-anchor="start" x="8" y="-18.5" font-family="Helvetica,sans-Serif" font-size="10.00">+ ObstacleCollidingState()</text>
<text text-anchor="start" x="8" y="-7.5" font-family="Helvetica,sans-Serif" font-size="10.00">+ update()</text>
</a>
</g>
</g>
<!-- Node2 -->
<g id="node2" class="node">
<title>Node2</title>
<g id="a_node2"><a xlink:href="classCollidingState.html" target="_top" xlink:title=" ">
<polygon fill="white" stroke="#bfbfbf" points="18,-105.5 18,-206.5 128,-206.5 128,-105.5 18,-105.5"/>
<text text-anchor="middle" x="73" y="-194.5" font-family="Helvetica,sans-Serif" font-size="10.00">CollidingState</text>
<polyline fill="none" stroke="#bfbfbf" points="18,-187.5 128,-187.5"/>
<text text-anchor="start" x="26" y="-175.5" font-family="Helvetica,sans-Serif" font-size="10.00"># collisionTime</text>
<text text-anchor="start" x="26" y="-164.5" font-family="Helvetica,sans-Serif" font-size="10.00"># collisionPos</text>
<text text-anchor="start" x="26" y="-153.5" font-family="Helvetica,sans-Serif" font-size="10.00"># collisionDuration</text>
<polyline fill="none" stroke="#bfbfbf" points="18,-146.5 128,-146.5"/>
<text text-anchor="start" x="26" y="-134.5" font-family="Helvetica,sans-Serif" font-size="10.00">+ CollidingState()</text>
<text text-anchor="start" x="26" y="-123.5" font-family="Helvetica,sans-Serif" font-size="10.00">+ update()</text>
<text text-anchor="start" x="26" y="-112.5" font-family="Helvetica,sans-Serif" font-size="10.00">+ getStateID()</text>
</a>
</g>
</g>
<!-- Node2&#45;&gt;Node1 -->
<g id="edge1" class="edge">
<title>Node2&#45;&gt;Node1</title>
<path fill="none" stroke="#63b8ff" d="M73,-94.37C73,-85.39 73,-76.43 73,-68.32"/>
<polygon fill="none" stroke="#63b8ff" points="69.5,-94.19 73,-104.19 76.5,-94.19 69.5,-94.19"/>
</g>
<!-- Node3 -->
<g id="node3" class="node">
<title>Node3</title>
<g id="a_node3"><a xlink:href="classPlayerState.html" target="_top" xlink:title=" ">
<polygon fill="white" stroke="#bfbfbf" points="23,-243.5 23,-333.5 123,-333.5 123,-243.5 23,-243.5"/>
<text text-anchor="middle" x="73" y="-321.5" font-family="Helvetica,sans-Serif" font-size="10.00">PlayerState</text>
<polyline fill="none" stroke="#bfbfbf" points="23,-314.5 123,-314.5"/>
<text text-anchor="start" x="31" y="-302.5" font-family="Helvetica,sans-Serif" font-size="10.00">+ player</text>
<polyline fill="none" stroke="#bfbfbf" points="23,-295.5 123,-295.5"/>
<text text-anchor="start" x="31" y="-283.5" font-family="Helvetica,sans-Serif" font-size="10.00">+ PlayerState()</text>
<text text-anchor="start" x="31" y="-272.5" font-family="Helvetica,sans-Serif" font-size="10.00">+ ~PlayerState()</text>
<text text-anchor="start" x="31" y="-261.5" font-family="Helvetica,sans-Serif" font-size="10.00">+ update()</text>
<text text-anchor="start" x="31" y="-250.5" font-family="Helvetica,sans-Serif" font-size="10.00">+ getStateID()</text>
</a>
</g>
</g>
<!-- Node3&#45;&gt;Node2 -->
<g id="edge2" class="edge">
<title>Node3&#45;&gt;Node2</title>
<path fill="none" stroke="#63b8ff" d="M73,-232.18C73,-223.59 73,-214.77 73,-206.32"/>
<polygon fill="none" stroke="#63b8ff" points="69.5,-232.17 73,-242.17 76.5,-232.17 69.5,-232.17"/>
</g>
</g>
</svg>
