<?xml version="1.0" encoding="UTF-8" standalone="no"?>
<!DOCTYPE svg PUBLIC "-//W3C//DTD SVG 1.1//EN"
 "http://www.w3.org/Graphics/SVG/1.1/DTD/svg11.dtd">
<!-- Generated by graphviz version 7.0.5 (0)
 -->
<!-- Title: src/Commuters.h Pages: 1 -->
<svg width="2863pt" height="522pt"
 viewBox="0.00 0.00 2863.00 522.00" xmlns="http://www.w3.org/2000/svg" xmlns:xlink="http://www.w3.org/1999/xlink">
<g id="graph0" class="graph" transform="scale(1 1) rotate(0) translate(4 518)">
<title>src/Commuters.h</title>
<!-- Node1 -->
<g id="node1" class="node">
<title>Node1</title>
<g id="a_node1"><a xlink:title=" ">
<polygon fill="#999999" stroke="#666666" points="1555,-514 1455,-514 1455,-495 1555,-495 1555,-514"/>
<text text-anchor="middle" x="1505" y="-502" font-family="Helvetica,sans-Serif" font-size="10.00">src/Commuters.h</text>
</a>
</g>
</g>
<!-- Node2 -->
<g id="node2" class="node">
<title>Node2</title>
<g id="a_node2"><a xlink:href="Entity_8h.html" target="_top" xlink:title=" ">
<polygon fill="white" stroke="#666666" points="1614.5,-294 1561.5,-294 1561.5,-275 1614.5,-275 1614.5,-294"/>
<text text-anchor="middle" x="1588" y="-282" font-family="Helvetica,sans-Serif" font-size="10.00">Entity.h</text>
</a>
</g>
</g>
<!-- Node1&#45;&gt;Node2 -->
<g id="edge1" class="edge">
<title>Node1&#45;&gt;Node2</title>
<path fill="none" stroke="#63b8ff" d="M1500.82,-494.76C1495.49,-482.41 1487.56,-459.22 1493,-440 1508.57,-384.95 1549.89,-330.22 1572.57,-303.08"/>
<polygon fill="#63b8ff" stroke="#63b8ff" points="1575.18,-305.41 1579.01,-295.53 1569.86,-300.87 1575.18,-305.41"/>
</g>
<!-- Node28 -->
<g id="node28" class="node">
<title>Node28</title>
<g id="a_node28"><a xlink:href="Light_8h.html" target="_top" xlink:title=" ">
<polygon fill="white" stroke="#666666" points="1446,-349 1396,-349 1396,-330 1446,-330 1446,-349"/>
<text text-anchor="middle" x="1421" y="-337" font-family="Helvetica,sans-Serif" font-size="10.00">Light.h</text>
</a>
</g>
</g>
<!-- Node1&#45;&gt;Node28 -->
<g id="edge41" class="edge">
<title>Node1&#45;&gt;Node28</title>
<path fill="none" stroke="#63b8ff" d="M1493.5,-494.79C1483.38,-486.57 1468.91,-473.39 1460,-459 1440.48,-427.48 1429.63,-385.14 1424.58,-360.53"/>
<polygon fill="#63b8ff" stroke="#63b8ff" points="1428.06,-360.08 1422.74,-350.92 1421.18,-361.4 1428.06,-360.08"/>
</g>
<!-- Node29 -->
<g id="node29" class="node">
<title>Node29</title>
<g id="a_node29"><a xlink:href="Obstacle_8h.html" target="_top" xlink:title=" ">
<polygon fill="white" stroke="#666666" points="1570,-459 1502,-459 1502,-440 1570,-440 1570,-459"/>
<text text-anchor="middle" x="1536" y="-447" font-family="Helvetica,sans-Serif" font-size="10.00">Obstacle.h</text>
</a>
</g>
</g>
<!-- Node1&#45;&gt;Node29 -->
<g id="edge43" class="edge">
<title>Node1&#45;&gt;Node29</title>
<path fill="none" stroke="#63b8ff" d="M1510.12,-494.75C1514.18,-487.81 1519.99,-477.86 1525.09,-469.16"/>
<polygon fill="#63b8ff" stroke="#63b8ff" points="1527.98,-471.15 1530.01,-460.75 1521.94,-467.61 1527.98,-471.15"/>
</g>
<!-- Node30 -->
<g id="node30" class="node">
<title>Node30</title>
<g id="a_node30"><a xlink:href="PlayerState_8h.html" target="_top" xlink:title=" ">
<polygon fill="white" stroke="#666666" points="2435,-404 2353,-404 2353,-385 2435,-385 2435,-404"/>
<text text-anchor="middle" x="2394" y="-392" font-family="Helvetica,sans-Serif" font-size="10.00">PlayerState.h</text>
</a>
</g>
</g>
<!-- Node1&#45;&gt;Node30 -->
<g id="edge73" class="edge">
<title>Node1&#45;&gt;Node30</title>
<path fill="none" stroke="#63b8ff" d="M1555.24,-498.43C1684.07,-485.25 2036.9,-447.95 2341.29,-404.33"/>
<polygon fill="#63b8ff" stroke="#63b8ff" points="2341.66,-407.81 2351.06,-402.93 2340.66,-400.89 2341.66,-407.81"/>
</g>
<!-- Node3 -->
<g id="node3" class="node">
<title>Node3</title>
<g id="a_node3"><a xlink:href="AnimationMachine_8h.html" target="_top" xlink:title=" ">
<polygon fill="white" stroke="#666666" points="479.5,-239 362.5,-239 362.5,-220 479.5,-220 479.5,-239"/>
<text text-anchor="middle" x="421" y="-227" font-family="Helvetica,sans-Serif" font-size="10.00">AnimationMachine.h</text>
</a>
</g>
</g>
<!-- Node2&#45;&gt;Node3 -->
<g id="edge2" class="edge">
<title>Node2&#45;&gt;Node3</title>
<path fill="none" stroke="#63b8ff" d="M1561.15,-282.28C1415.29,-275.66 716.38,-243.91 491.13,-233.68"/>
<polygon fill="#63b8ff" stroke="#63b8ff" points="491.48,-230.2 481.33,-233.24 491.16,-237.19 491.48,-230.2"/>
</g>
<!-- Node7 -->
<g id="node7" class="node">
<title>Node7</title>
<g id="a_node7"><a xlink:title=" ">
<polygon fill="#e0e0e0" stroke="#999999" points="787.5,-184 656.5,-184 656.5,-165 787.5,-165 787.5,-184"/>
<text text-anchor="middle" x="722" y="-172" font-family="Helvetica,sans-Serif" font-size="10.00">SFML/System/Time.hpp</text>
</a>
</g>
</g>
<!-- Node2&#45;&gt;Node7 -->
<g id="edge39" class="edge">
<title>Node2&#45;&gt;Node7</title>
<path fill="none" stroke="#63b8ff" d="M1561.13,-280.15C1445.01,-265.67 983.83,-208.15 799.1,-185.12"/>
<polygon fill="#63b8ff" stroke="#63b8ff" points="799.73,-181.67 789.37,-183.9 798.86,-188.61 799.73,-181.67"/>
</g>
<!-- Node11 -->
<g id="node11" class="node">
<title>Node11</title>
<g id="a_node11"><a xlink:href="Enums_8h.html" target="_top" xlink:title=" ">
<polygon fill="white" stroke="#666666" points="2195.5,-74 2136.5,-74 2136.5,-55 2195.5,-55 2195.5,-74"/>
<text text-anchor="middle" x="2166" y="-62" font-family="Helvetica,sans-Serif" font-size="10.00">Enums.h</text>
</a>
</g>
</g>
<!-- Node2&#45;&gt;Node11 -->
<g id="edge22" class="edge">
<title>Node2&#45;&gt;Node11</title>
<path fill="none" stroke="#63b8ff" d="M1614.99,-284.02C1698.7,-284.58 1959.57,-278.15 2146,-184 2177.71,-167.99 2189.97,-161.64 2204,-129 2211.26,-112.12 2198.55,-94.29 2185.92,-81.83"/>
<polygon fill="#63b8ff" stroke="#63b8ff" points="2188.31,-79.28 2178.55,-75.16 2183.61,-84.47 2188.31,-79.28"/>
</g>
<!-- Node17 -->
<g id="node17" class="node">
<title>Node17</title>
<g id="a_node17"><a xlink:href="SceneNode_8h.html" target="_top" xlink:title=" ">
<polygon fill="white" stroke="#666666" points="1731,-239 1651,-239 1651,-220 1731,-220 1731,-239"/>
<text text-anchor="middle" x="1691" y="-227" font-family="Helvetica,sans-Serif" font-size="10.00">SceneNode.h</text>
</a>
</g>
</g>
<!-- Node2&#45;&gt;Node17 -->
<g id="edge23" class="edge">
<title>Node2&#45;&gt;Node17</title>
<path fill="none" stroke="#63b8ff" d="M1605.47,-274.51C1621.4,-266.31 1645.19,-254.07 1663.64,-244.58"/>
<polygon fill="#63b8ff" stroke="#63b8ff" points="1665.15,-247.74 1672.44,-240.05 1661.95,-241.51 1665.15,-247.74"/>
</g>
<!-- Node19 -->
<g id="node19" class="node">
<title>Node19</title>
<g id="a_node19"><a xlink:title=" ">
<polygon fill="#e0e0e0" stroke="#999999" points="2385,-184 2251,-184 2251,-165 2385,-165 2385,-184"/>
<text text-anchor="middle" x="2318" y="-172" font-family="Helvetica,sans-Serif" font-size="10.00">SFML/Graphics/Rect.hpp</text>
</a>
</g>
</g>
<!-- Node2&#45;&gt;Node19 -->
<g id="edge38" class="edge">
<title>Node2&#45;&gt;Node19</title>
<path fill="none" stroke="#63b8ff" d="M1614.72,-284.14C1695.54,-285.47 1944.1,-285.25 2143,-239 2165.35,-233.8 2169.5,-228.02 2191,-220 2221.13,-208.76 2255.57,-196.75 2280.98,-188.04"/>
<polygon fill="#63b8ff" stroke="#63b8ff" points="2281.86,-191.43 2290.19,-184.89 2279.59,-184.81 2281.86,-191.43"/>
</g>
<!-- Node25 -->
<g id="node25" class="node">
<title>Node25</title>
<g id="a_node25"><a xlink:title=" ">
<polygon fill="#e0e0e0" stroke="#999999" points="2546.5,-184 2403.5,-184 2403.5,-165 2546.5,-165 2546.5,-184"/>
<text text-anchor="middle" x="2475" y="-172" font-family="Helvetica,sans-Serif" font-size="10.00">SFML/System/Vector2.hpp</text>
</a>
</g>
</g>
<!-- Node2&#45;&gt;Node25 -->
<g id="edge40" class="edge">
<title>Node2&#45;&gt;Node25</title>
<path fill="none" stroke="#63b8ff" d="M1614.74,-282.81C1698.62,-280.35 1963.88,-270.44 2181,-239 2270.15,-226.09 2372.64,-201.75 2430.02,-187.24"/>
<polygon fill="#63b8ff" stroke="#63b8ff" points="2430.59,-190.71 2439.41,-184.85 2428.86,-183.92 2430.59,-190.71"/>
</g>
<!-- Node4 -->
<g id="node4" class="node">
<title>Node4</title>
<g id="a_node4"><a xlink:title=" ">
<polygon fill="#e0e0e0" stroke="#999999" points="349,-74 239,-74 239,-55 349,-55 349,-74"/>
<text text-anchor="middle" x="294" y="-62" font-family="Helvetica,sans-Serif" font-size="10.00">SFML/Graphics.hpp</text>
</a>
</g>
</g>
<!-- Node3&#45;&gt;Node4 -->
<g id="edge3" class="edge">
<title>Node3&#45;&gt;Node4</title>
<path fill="none" stroke="#63b8ff" d="M362.3,-220.41C320.03,-213.24 268.21,-201.22 255,-184 234.98,-157.91 243.42,-140.78 255,-110 259.04,-99.27 266.97,-89.43 274.63,-81.76"/>
<polygon fill="#63b8ff" stroke="#63b8ff" points="276.58,-84.72 281.53,-75.36 271.82,-79.59 276.58,-84.72"/>
</g>
<!-- Node5 -->
<g id="node5" class="node">
<title>Node5</title>
<g id="a_node5"><a xlink:title=" ">
<polygon fill="#e0e0e0" stroke="#999999" points="207.5,-184 66.5,-184 66.5,-165 207.5,-165 207.5,-184"/>
<text text-anchor="middle" x="137" y="-172" font-family="Helvetica,sans-Serif" font-size="10.00">SFML/Graphics/Sprite.hpp</text>
</a>
</g>
</g>
<!-- Node3&#45;&gt;Node5 -->
<g id="edge4" class="edge">
<title>Node3&#45;&gt;Node5</title>
<path fill="none" stroke="#63b8ff" d="M372.82,-219.51C324.02,-210.4 248.46,-196.3 196.08,-186.52"/>
<polygon fill="#63b8ff" stroke="#63b8ff" points="196.9,-183.12 186.43,-184.72 195.61,-190 196.9,-183.12"/>
</g>
<!-- Node6 -->
<g id="node6" class="node">
<title>Node6</title>
<g id="a_node6"><a xlink:title=" ">
<polygon fill="#e0e0e0" stroke="#999999" points="529.5,-129 380.5,-129 380.5,-110 529.5,-110 529.5,-129"/>
<text text-anchor="middle" x="455" y="-117" font-family="Helvetica,sans-Serif" font-size="10.00">SFML/Graphics/Texture.hpp</text>
</a>
</g>
</g>
<!-- Node3&#45;&gt;Node6 -->
<g id="edge5" class="edge">
<title>Node3&#45;&gt;Node6</title>
<path fill="none" stroke="#63b8ff" d="M423.78,-219.66C429.21,-202.42 441.34,-163.9 448.78,-140.27"/>
<polygon fill="#63b8ff" stroke="#63b8ff" points="452.06,-141.49 451.72,-130.9 445.38,-139.39 452.06,-141.49"/>
</g>
<!-- Node3&#45;&gt;Node7 -->
<g id="edge6" class="edge">
<title>Node3&#45;&gt;Node7</title>
<path fill="none" stroke="#63b8ff" d="M472.06,-219.51C523.92,-210.38 604.3,-196.23 659.83,-186.45"/>
<polygon fill="#63b8ff" stroke="#63b8ff" points="660.21,-189.93 669.45,-184.75 658.99,-183.04 660.21,-189.93"/>
</g>
<!-- Node8 -->
<g id="node8" class="node">
<title>Node8</title>
<g id="a_node8"><a xlink:title=" ">
<polygon fill="#e0e0e0" stroke="#999999" points="336,-184 264,-184 264,-165 336,-165 336,-184"/>
<text text-anchor="middle" x="300" y="-172" font-family="Helvetica,sans-Serif" font-size="10.00">sys/types.h</text>
</a>
</g>
</g>
<!-- Node3&#45;&gt;Node8 -->
<g id="edge7" class="edge">
<title>Node3&#45;&gt;Node8</title>
<path fill="none" stroke="#63b8ff" d="M400.47,-219.51C381.32,-211.12 352.5,-198.5 330.63,-188.92"/>
<polygon fill="#63b8ff" stroke="#63b8ff" points="332.17,-185.77 321.61,-184.97 329.36,-192.18 332.17,-185.77"/>
</g>
<!-- Node9 -->
<g id="node9" class="node">
<title>Node9</title>
<g id="a_node9"><a xlink:title=" ">
<polygon fill="#e0e0e0" stroke="#999999" points="1368,-19 1308,-19 1308,0 1368,0 1368,-19"/>
<text text-anchor="middle" x="1338" y="-7" font-family="Helvetica,sans-Serif" font-size="10.00">iostream</text>
</a>
</g>
</g>
<!-- Node3&#45;&gt;Node9 -->
<g id="edge8" class="edge">
<title>Node3&#45;&gt;Node9</title>
<path fill="none" stroke="#63b8ff" d="M414.98,-219.74C398.59,-195.34 355.37,-127.32 371,-110 433.93,-40.26 1118.76,-16.57 1296.21,-11.58"/>
<polygon fill="#63b8ff" stroke="#63b8ff" points="1296.21,-15.08 1306.11,-11.3 1296.02,-8.08 1296.21,-15.08"/>
</g>
<!-- Node10 -->
<g id="node10" class="node">
<title>Node10</title>
<g id="a_node10"><a xlink:href="Consts_8h.html" target="_top" xlink:title=" ">
<polygon fill="white" stroke="#666666" points="323.5,-129 264.5,-129 264.5,-110 323.5,-110 323.5,-129"/>
<text text-anchor="middle" x="294" y="-117" font-family="Helvetica,sans-Serif" font-size="10.00">Consts.h</text>
</a>
</g>
</g>
<!-- Node3&#45;&gt;Node10 -->
<g id="edge9" class="edge">
<title>Node3&#45;&gt;Node10</title>
<path fill="none" stroke="#63b8ff" d="M410.61,-219.66C389.3,-201.55 340.4,-159.96 313.18,-136.81"/>
<polygon fill="#63b8ff" stroke="#63b8ff" points="315.57,-134.25 305.69,-130.44 311.04,-139.59 315.57,-134.25"/>
</g>
<!-- Node3&#45;&gt;Node11 -->
<g id="edge15" class="edge">
<title>Node3&#45;&gt;Node11</title>
<path fill="none" stroke="#63b8ff" d="M449.89,-219.57C501.71,-203.68 608.64,-171.57 647,-165 1226.61,-65.71 1946.23,-63.85 2124.58,-65.07"/>
<polygon fill="#63b8ff" stroke="#63b8ff" points="2124.47,-68.56 2134.49,-65.14 2124.52,-61.56 2124.47,-68.56"/>
</g>
<!-- Node14 -->
<g id="node14" class="node">
<title>Node14</title>
<g id="a_node14"><a xlink:href="TextureHolder_8h.html" target="_top" xlink:title=" ">
<polygon fill="white" stroke="#666666" points="561.5,-184 468.5,-184 468.5,-165 561.5,-165 561.5,-184"/>
<text text-anchor="middle" x="515" y="-172" font-family="Helvetica,sans-Serif" font-size="10.00">TextureHolder.h</text>
</a>
</g>
</g>
<!-- Node3&#45;&gt;Node14 -->
<g id="edge16" class="edge">
<title>Node3&#45;&gt;Node14</title>
<path fill="none" stroke="#63b8ff" d="M436.95,-219.51C451.35,-211.39 472.79,-199.3 489.56,-189.85"/>
<polygon fill="#63b8ff" stroke="#63b8ff" points="490.98,-193.06 497.97,-185.1 487.54,-186.96 490.98,-193.06"/>
</g>
<!-- Node10&#45;&gt;Node4 -->
<g id="edge10" class="edge">
<title>Node10&#45;&gt;Node4</title>
<path fill="none" stroke="#63b8ff" d="M294,-109.75C294,-103.27 294,-94.16 294,-85.9"/>
<polygon fill="#63b8ff" stroke="#63b8ff" points="297.5,-85.96 294,-75.96 290.5,-85.96 297.5,-85.96"/>
</g>
<!-- Node10&#45;&gt;Node11 -->
<g id="edge11" class="edge">
<title>Node10&#45;&gt;Node11</title>
<path fill="none" stroke="#63b8ff" d="M323.93,-114.6C338.17,-112.89 355.43,-111.05 371,-110 1071.3,-62.75 1928.3,-64.19 2124.62,-65.22"/>
<polygon fill="#63b8ff" stroke="#63b8ff" points="2124.54,-68.72 2134.56,-65.28 2124.58,-61.72 2124.54,-68.72"/>
</g>
<!-- Node12 -->
<g id="node12" class="node">
<title>Node12</title>
<g id="a_node12"><a xlink:href="Random_8h.html" target="_top" xlink:title=" ">
<polygon fill="white" stroke="#666666" points="221,-74 155,-74 155,-55 221,-55 221,-74"/>
<text text-anchor="middle" x="188" y="-62" font-family="Helvetica,sans-Serif" font-size="10.00">Random.h</text>
</a>
</g>
</g>
<!-- Node10&#45;&gt;Node12 -->
<g id="edge12" class="edge">
<title>Node10&#45;&gt;Node12</title>
<path fill="none" stroke="#63b8ff" d="M276.02,-109.51C259.55,-101.27 234.91,-88.96 215.89,-79.45"/>
<polygon fill="#63b8ff" stroke="#63b8ff" points="217.58,-76.38 207.07,-75.03 214.45,-82.64 217.58,-76.38"/>
</g>
<!-- Node12&#45;&gt;Node9 -->
<g id="edge14" class="edge">
<title>Node12&#45;&gt;Node9</title>
<path fill="none" stroke="#63b8ff" d="M221.39,-56.24C224.29,-55.76 227.19,-55.34 230,-55 442.41,-29.41 1121.22,-14.71 1296.42,-11.28"/>
<polygon fill="#63b8ff" stroke="#63b8ff" points="1296.25,-14.79 1306.18,-11.09 1296.11,-7.79 1296.25,-14.79"/>
</g>
<!-- Node13 -->
<g id="node13" class="node">
<title>Node13</title>
<g id="a_node13"><a xlink:title=" ">
<polygon fill="#e0e0e0" stroke="#999999" points="215,-19 161,-19 161,0 215,0 215,-19"/>
<text text-anchor="middle" x="188" y="-7" font-family="Helvetica,sans-Serif" font-size="10.00">random</text>
</a>
</g>
</g>
<!-- Node12&#45;&gt;Node13 -->
<g id="edge13" class="edge">
<title>Node12&#45;&gt;Node13</title>
<path fill="none" stroke="#63b8ff" d="M188,-54.75C188,-48.27 188,-39.16 188,-30.9"/>
<polygon fill="#63b8ff" stroke="#63b8ff" points="191.5,-30.96 188,-20.96 184.5,-30.96 191.5,-30.96"/>
</g>
<!-- Node14&#45;&gt;Node6 -->
<g id="edge19" class="edge">
<title>Node14&#45;&gt;Node6</title>
<path fill="none" stroke="#63b8ff" d="M504.82,-164.51C496.24,-156.93 483.73,-145.88 473.4,-136.75"/>
<polygon fill="#63b8ff" stroke="#63b8ff" points="475.97,-134.36 466.16,-130.36 471.34,-139.6 475.97,-134.36"/>
</g>
<!-- Node14&#45;&gt;Node10 -->
<g id="edge21" class="edge">
<title>Node14&#45;&gt;Node10</title>
<path fill="none" stroke="#63b8ff" d="M477.51,-164.51C437.97,-155.03 375.86,-140.13 335.03,-130.34"/>
<polygon fill="#63b8ff" stroke="#63b8ff" points="335.87,-126.94 325.33,-128.01 334.24,-133.75 335.87,-126.94"/>
</g>
<!-- Node14&#45;&gt;Node11 -->
<g id="edge20" class="edge">
<title>Node14&#45;&gt;Node11</title>
<path fill="none" stroke="#63b8ff" d="M531.16,-164.64C561.9,-147.88 626.72,-112.92 638,-110 785.36,-71.93 1895.54,-66.36 2124.7,-65.61"/>
<polygon fill="#63b8ff" stroke="#63b8ff" points="2124.64,-69.11 2134.63,-65.58 2124.62,-62.11 2124.64,-69.11"/>
</g>
<!-- Node15 -->
<g id="node15" class="node">
<title>Node15</title>
<g id="a_node15"><a xlink:title=" ">
<polygon fill="#e0e0e0" stroke="#999999" points="2195,-129 2137,-129 2137,-110 2195,-110 2195,-129"/>
<text text-anchor="middle" x="2166" y="-117" font-family="Helvetica,sans-Serif" font-size="10.00">memory</text>
</a>
</g>
</g>
<!-- Node14&#45;&gt;Node15 -->
<g id="edge17" class="edge">
<title>Node14&#45;&gt;Node15</title>
<path fill="none" stroke="#63b8ff" d="M561.71,-170.09C586.95,-168.35 618.67,-166.33 647,-165 1233.73,-137.52 1948.79,-124.18 2125.22,-121.17"/>
<polygon fill="#63b8ff" stroke="#63b8ff" points="2125.06,-124.67 2135,-121 2124.95,-117.67 2125.06,-124.67"/>
</g>
<!-- Node16 -->
<g id="node16" class="node">
<title>Node16</title>
<g id="a_node16"><a xlink:title=" ">
<polygon fill="#e0e0e0" stroke="#999999" points="586,-129 548,-129 548,-110 586,-110 586,-129"/>
<text text-anchor="middle" x="567" y="-117" font-family="Helvetica,sans-Serif" font-size="10.00">map</text>
</a>
</g>
</g>
<!-- Node14&#45;&gt;Node16 -->
<g id="edge18" class="edge">
<title>Node14&#45;&gt;Node16</title>
<path fill="none" stroke="#63b8ff" d="M523.59,-164.75C530.84,-157.35 541.45,-146.54 550.37,-137.45"/>
<polygon fill="#63b8ff" stroke="#63b8ff" points="552.66,-140.11 557.17,-130.52 547.66,-135.21 552.66,-140.11"/>
</g>
<!-- Node17&#45;&gt;Node4 -->
<g id="edge25" class="edge">
<title>Node17&#45;&gt;Node4</title>
<path fill="none" stroke="#63b8ff" d="M1650.73,-227.49C1491.9,-223.37 913.77,-206.91 835,-184 802.9,-174.66 735.83,-120.24 704,-110 587.27,-72.46 443.23,-65.23 360.66,-64.56"/>
<polygon fill="#63b8ff" stroke="#63b8ff" points="360.71,-61.06 350.69,-64.51 360.68,-68.06 360.71,-61.06"/>
</g>
<!-- Node17&#45;&gt;Node9 -->
<g id="edge37" class="edge">
<title>Node17&#45;&gt;Node9</title>
<path fill="none" stroke="#63b8ff" d="M1731.29,-227.88C1828.35,-225.87 2072.53,-217.53 2146,-184 2203.35,-157.82 2248.42,-100.71 2205,-55 2176.27,-24.75 1548.56,-13.54 1379.58,-11.06"/>
<polygon fill="#63b8ff" stroke="#63b8ff" points="1379.78,-7.56 1369.73,-10.92 1379.68,-14.56 1379.78,-7.56"/>
</g>
<!-- Node17&#45;&gt;Node11 -->
<g id="edge24" class="edge">
<title>Node17&#45;&gt;Node11</title>
<path fill="none" stroke="#63b8ff" d="M1731.35,-228.72C1820.84,-228.48 2032.55,-223.62 2090,-184 2120.44,-163.01 2107.41,-140.71 2128,-110 2134.42,-100.42 2142.63,-90.58 2149.77,-82.6"/>
<polygon fill="#63b8ff" stroke="#63b8ff" points="2152.27,-85.05 2156.46,-75.32 2147.11,-80.31 2152.27,-85.05"/>
</g>
<!-- Node17&#45;&gt;Node15 -->
<g id="edge34" class="edge">
<title>Node17&#45;&gt;Node15</title>
<path fill="none" stroke="#63b8ff" d="M1731.48,-228.62C1825.89,-228.21 2057.57,-223.14 2123,-184 2139.77,-173.97 2151.44,-154.57 2158.35,-139.84"/>
<polygon fill="#63b8ff" stroke="#63b8ff" points="2161.55,-141.26 2162.28,-130.69 2155.12,-138.49 2161.55,-141.26"/>
</g>
<!-- Node18 -->
<g id="node18" class="node">
<title>Node18</title>
<g id="a_node18"><a xlink:title=" ">
<polygon fill="#e0e0e0" stroke="#999999" points="1884.5,-184 1725.5,-184 1725.5,-165 1884.5,-165 1884.5,-184"/>
<text text-anchor="middle" x="1805" y="-172" font-family="Helvetica,sans-Serif" font-size="10.00">SFML/Graphics/Drawable.hpp</text>
</a>
</g>
</g>
<!-- Node17&#45;&gt;Node18 -->
<g id="edge26" class="edge">
<title>Node17&#45;&gt;Node18</title>
<path fill="none" stroke="#63b8ff" d="M1710.34,-219.51C1728.22,-211.2 1755.04,-198.73 1775.57,-189.18"/>
<polygon fill="#63b8ff" stroke="#63b8ff" points="1776.98,-192.39 1784.57,-185 1774.03,-186.04 1776.98,-192.39"/>
</g>
<!-- Node17&#45;&gt;Node19 -->
<g id="edge27" class="edge">
<title>Node17&#45;&gt;Node19</title>
<path fill="none" stroke="#63b8ff" d="M1731.18,-225.1C1833.27,-216.47 2104.14,-193.58 2239.17,-182.16"/>
<polygon fill="#63b8ff" stroke="#63b8ff" points="2239.44,-185.65 2249.11,-181.32 2238.86,-178.68 2239.44,-185.65"/>
</g>
<!-- Node20 -->
<g id="node20" class="node">
<title>Node20</title>
<g id="a_node20"><a xlink:title=" ">
<polygon fill="#e0e0e0" stroke="#999999" points="2081,-184 1903,-184 1903,-165 2081,-165 2081,-184"/>
<text text-anchor="middle" x="1992" y="-172" font-family="Helvetica,sans-Serif" font-size="10.00">SFML/Graphics/RenderStates.hpp</text>
</a>
</g>
</g>
<!-- Node17&#45;&gt;Node20 -->
<g id="edge28" class="edge">
<title>Node17&#45;&gt;Node20</title>
<path fill="none" stroke="#63b8ff" d="M1731.28,-221.41C1782.15,-212.45 1870.2,-196.95 1929.75,-186.46"/>
<polygon fill="#63b8ff" stroke="#63b8ff" points="1930.16,-189.94 1939.4,-184.76 1928.95,-183.05 1930.16,-189.94"/>
</g>
<!-- Node21 -->
<g id="node21" class="node">
<title>Node21</title>
<g id="a_node21"><a xlink:title=" ">
<polygon fill="#e0e0e0" stroke="#999999" points="1021.5,-184 844.5,-184 844.5,-165 1021.5,-165 1021.5,-184"/>
<text text-anchor="middle" x="933" y="-172" font-family="Helvetica,sans-Serif" font-size="10.00">SFML/Graphics/RenderTarget.hpp</text>
</a>
</g>
</g>
<!-- Node17&#45;&gt;Node21 -->
<g id="edge29" class="edge">
<title>Node17&#45;&gt;Node21</title>
<path fill="none" stroke="#63b8ff" d="M1650.74,-226.07C1549.14,-219.89 1273.86,-202.76 1033.23,-184.24"/>
<polygon fill="#63b8ff" stroke="#63b8ff" points="1033.55,-180.75 1023.31,-183.47 1033.01,-187.73 1033.55,-180.75"/>
</g>
<!-- Node22 -->
<g id="node22" class="node">
<title>Node22</title>
<g id="a_node22"><a xlink:title=" ">
<polygon fill="#e0e0e0" stroke="#999999" points="1200.5,-184 1039.5,-184 1039.5,-165 1200.5,-165 1200.5,-184"/>
<text text-anchor="middle" x="1120" y="-172" font-family="Helvetica,sans-Serif" font-size="10.00">SFML/Graphics/Transform.hpp</text>
</a>
</g>
</g>
<!-- Node17&#45;&gt;Node22 -->
<g id="edge30" class="edge">
<title>Node17&#45;&gt;Node22</title>
<path fill="none" stroke="#63b8ff" d="M1650.77,-224.8C1569.99,-217.38 1381.95,-200.06 1212.35,-184.22"/>
<polygon fill="#63b8ff" stroke="#63b8ff" points="1212.74,-180.74 1202.46,-183.29 1212.09,-187.71 1212.74,-180.74"/>
</g>
<!-- Node23 -->
<g id="node23" class="node">
<title>Node23</title>
<g id="a_node23"><a xlink:title=" ">
<polygon fill="#e0e0e0" stroke="#999999" points="1401,-184 1219,-184 1219,-165 1401,-165 1401,-184"/>
<text text-anchor="middle" x="1310" y="-172" font-family="Helvetica,sans-Serif" font-size="10.00">SFML/Graphics/Transformable.hpp</text>
</a>
</g>
</g>
<!-- Node17&#45;&gt;Node23 -->
<g id="edge31" class="edge">
<title>Node17&#45;&gt;Node23</title>
<path fill="none" stroke="#63b8ff" d="M1650.59,-222.88C1587.67,-214.13 1465.25,-197.1 1385.61,-186.02"/>
<polygon fill="#63b8ff" stroke="#63b8ff" points="1386.55,-182.62 1376.16,-184.7 1385.59,-189.55 1386.55,-182.62"/>
</g>
<!-- Node24 -->
<g id="node24" class="node">
<title>Node24</title>
<g id="a_node24"><a xlink:title=" ">
<polygon fill="#e0e0e0" stroke="#999999" points="1591,-184 1419,-184 1419,-165 1591,-165 1591,-184"/>
<text text-anchor="middle" x="1505" y="-172" font-family="Helvetica,sans-Serif" font-size="10.00">SFML/System/NonCopyable.hpp</text>
</a>
</g>
</g>
<!-- Node17&#45;&gt;Node24 -->
<g id="edge32" class="edge">
<title>Node17&#45;&gt;Node24</title>
<path fill="none" stroke="#63b8ff" d="M1659.45,-219.51C1628.63,-210.73 1581.5,-197.3 1547.41,-187.59"/>
<polygon fill="#63b8ff" stroke="#63b8ff" points="1548.43,-184.24 1537.85,-184.86 1546.51,-190.97 1548.43,-184.24"/>
</g>
<!-- Node17&#45;&gt;Node25 -->
<g id="edge33" class="edge">
<title>Node17&#45;&gt;Node25</title>
<path fill="none" stroke="#63b8ff" d="M1731.46,-226.53C1837.74,-221.21 2133.81,-205.61 2391.93,-184.14"/>
<polygon fill="#63b8ff" stroke="#63b8ff" points="2391.84,-187.66 2401.52,-183.34 2391.26,-180.68 2391.84,-187.66"/>
</g>
<!-- Node26 -->
<g id="node26" class="node">
<title>Node26</title>
<g id="a_node26"><a xlink:title=" ">
<polygon fill="#e0e0e0" stroke="#999999" points="1656.5,-184 1609.5,-184 1609.5,-165 1656.5,-165 1656.5,-184"/>
<text text-anchor="middle" x="1633" y="-172" font-family="Helvetica,sans-Serif" font-size="10.00">vector</text>
</a>
</g>
</g>
<!-- Node17&#45;&gt;Node26 -->
<g id="edge35" class="edge">
<title>Node17&#45;&gt;Node26</title>
<path fill="none" stroke="#63b8ff" d="M1681.16,-219.51C1672.95,-212 1661.02,-201.1 1651.09,-192.03"/>
<polygon fill="#63b8ff" stroke="#63b8ff" points="1653.55,-189.54 1643.81,-185.38 1648.83,-194.71 1653.55,-189.54"/>
</g>
<!-- Node27 -->
<g id="node27" class="node">
<title>Node27</title>
<g id="a_node27"><a xlink:title=" ">
<polygon fill="#e0e0e0" stroke="#999999" points="1707,-184 1675,-184 1675,-165 1707,-165 1707,-184"/>
<text text-anchor="middle" x="1691" y="-172" font-family="Helvetica,sans-Serif" font-size="10.00">set</text>
</a>
</g>
</g>
<!-- Node17&#45;&gt;Node27 -->
<g id="edge36" class="edge">
<title>Node17&#45;&gt;Node27</title>
<path fill="none" stroke="#63b8ff" d="M1691,-219.75C1691,-213.27 1691,-204.16 1691,-195.9"/>
<polygon fill="#63b8ff" stroke="#63b8ff" points="1694.5,-195.96 1691,-185.96 1687.5,-195.96 1694.5,-195.96"/>
</g>
<!-- Node28&#45;&gt;Node2 -->
<g id="edge42" class="edge">
<title>Node28&#45;&gt;Node2</title>
<path fill="none" stroke="#63b8ff" d="M1446.36,-330.45C1474.03,-321.67 1518.61,-307.52 1550.36,-297.44"/>
<polygon fill="#63b8ff" stroke="#63b8ff" points="1551.1,-300.88 1559.57,-294.52 1548.98,-294.21 1551.1,-300.88"/>
</g>
<!-- Node29&#45;&gt;Node2 -->
<g id="edge47" class="edge">
<title>Node29&#45;&gt;Node2</title>
<path fill="none" stroke="#63b8ff" d="M1538.8,-439.74C1546.87,-414.42 1570.38,-340.72 1581.73,-305.16"/>
<polygon fill="#63b8ff" stroke="#63b8ff" points="1585.03,-306.34 1584.73,-295.75 1578.36,-304.21 1585.03,-306.34"/>
</g>
<!-- Node29&#45;&gt;Node5 -->
<g id="edge72" class="edge">
<title>Node29&#45;&gt;Node5</title>
<path fill="none" stroke="#63b8ff" d="M1501.67,-447.43C1298.76,-440.89 265,-404.41 265,-340.5 265,-340.5 265,-340.5 265,-283.5 265,-235.53 211.83,-204.53 174.03,-188.56"/>
<polygon fill="#63b8ff" stroke="#63b8ff" points="175.82,-185.5 165.24,-185.01 173.2,-192 175.82,-185.5"/>
</g>
<!-- Node29&#45;&gt;Node10 -->
<g id="edge44" class="edge">
<title>Node29&#45;&gt;Node10</title>
<path fill="none" stroke="#63b8ff" d="M1501.76,-447.94C1275.13,-444.01 0,-418.44 0,-340.5 0,-340.5 0,-340.5 0,-228.5 0,-192.85 18.55,-183.53 49,-165 82.58,-144.56 192.11,-130.71 252.72,-124.39"/>
<polygon fill="#63b8ff" stroke="#63b8ff" points="253.05,-127.88 262.65,-123.38 252.34,-120.91 253.05,-127.88"/>
</g>
<!-- Node29&#45;&gt;Node11 -->
<g id="edge45" class="edge">
<title>Node29&#45;&gt;Node11</title>
<path fill="none" stroke="#63b8ff" d="M1570.27,-447.54C1777.55,-441.51 2855,-406.95 2855,-340.5 2855,-340.5 2855,-340.5 2855,-173.5 2855,-99.88 2773.55,-127.37 2702,-110 2608.09,-87.21 2315.62,-72.18 2207.09,-67.26"/>
<polygon fill="#63b8ff" stroke="#63b8ff" points="2207.33,-63.77 2197.19,-66.82 2207.02,-70.76 2207.33,-63.77"/>
</g>
<!-- Node29&#45;&gt;Node14 -->
<g id="edge48" class="edge">
<title>Node29&#45;&gt;Node14</title>
<path fill="none" stroke="#63b8ff" d="M1501.75,-447.9C1340.97,-444.65 669,-425.96 669,-340.5 669,-340.5 669,-340.5 669,-283.5 669,-231.46 609.32,-202.36 564.27,-187.8"/>
<polygon fill="#63b8ff" stroke="#63b8ff" points="565.5,-184.52 554.91,-184.94 563.45,-191.21 565.5,-184.52"/>
</g>
<!-- Node29&#45;&gt;Node17 -->
<g id="edge46" class="edge">
<title>Node29&#45;&gt;Node17</title>
<path fill="none" stroke="#63b8ff" d="M1505.34,-439.5C1451.73,-422.18 1349.99,-381.35 1387,-330 1444.75,-249.88 1568.98,-233.06 1639.45,-230.26"/>
<polygon fill="#63b8ff" stroke="#63b8ff" points="1639.3,-233.76 1649.19,-229.96 1639.08,-226.77 1639.3,-233.76"/>
</g>
<!-- Node29&#45;&gt;Node19 -->
<g id="edge71" class="edge">
<title>Node29&#45;&gt;Node19</title>
<path fill="none" stroke="#63b8ff" d="M1568.02,-439.58C1662.89,-412.84 1950.3,-329.56 2181,-239 2219.78,-223.78 2263.2,-202.99 2290.56,-189.41"/>
<polygon fill="#63b8ff" stroke="#63b8ff" points="2291.83,-192.69 2299.21,-185.08 2288.7,-186.43 2291.83,-192.69"/>
</g>
<!-- Node29&#45;&gt;Node30 -->
<g id="edge49" class="edge">
<title>Node29&#45;&gt;Node30</title>
<path fill="none" stroke="#63b8ff" d="M1570.37,-448C1680.83,-446.1 2036.74,-437.68 2341.31,-404.17"/>
<polygon fill="#63b8ff" stroke="#63b8ff" points="2341.52,-407.67 2351.08,-403.08 2340.75,-400.71 2341.52,-407.67"/>
</g>
<!-- Node36 -->
<g id="node36" class="node">
<title>Node36</title>
<g id="a_node36"><a xlink:href="PlayerCollidable_8h.html" target="_top" xlink:title=" ">
<polygon fill="white" stroke="#666666" points="2334.5,-404 2229.5,-404 2229.5,-385 2334.5,-385 2334.5,-404"/>
<text text-anchor="middle" x="2282" y="-392" font-family="Helvetica,sans-Serif" font-size="10.00">PlayerCollidable.h</text>
</a>
</g>
</g>
<!-- Node29&#45;&gt;Node36 -->
<g id="edge69" class="edge">
<title>Node29&#45;&gt;Node36</title>
<path fill="none" stroke="#63b8ff" d="M1570.33,-446.99C1670.06,-442.44 1968.35,-427.71 2215,-404 2215.85,-403.92 2216.71,-403.83 2217.58,-403.75"/>
<polygon fill="#63b8ff" stroke="#63b8ff" points="2217.93,-407.23 2227.5,-402.69 2217.18,-400.27 2217.93,-407.23"/>
</g>
<!-- Node30&#45;&gt;Node4 -->
<g id="edge65" class="edge">
<title>Node30&#45;&gt;Node4</title>
<path fill="none" stroke="#63b8ff" d="M2352.56,-386.28C2349.66,-385.83 2346.79,-385.4 2344,-385 1993.22,-335.07 1903.87,-335.6 1552,-294 1149.62,-246.43 994.61,-392.18 647,-184 612.51,-163.35 629.22,-131.1 595,-110 556.88,-86.5 437.23,-74.61 360.76,-69.26"/>
<polygon fill="#63b8ff" stroke="#63b8ff" points="361.06,-65.77 350.85,-68.59 360.59,-72.75 361.06,-65.77"/>
</g>
<!-- Node30&#45;&gt;Node9 -->
<g id="edge68" class="edge">
<title>Node30&#45;&gt;Node9</title>
<path fill="none" stroke="#63b8ff" d="M2435.4,-387.46C2547.83,-369.1 2845.51,-306.33 2771,-165 2752.71,-130.31 2738.21,-125.05 2702,-110 2454.25,-7.03 1580.9,-8.32 1379.6,-10.04"/>
<polygon fill="#63b8ff" stroke="#63b8ff" points="1379.86,-6.53 1369.9,-10.13 1379.93,-13.53 1379.86,-6.53"/>
</g>
<!-- Node30&#45;&gt;Node10 -->
<g id="edge50" class="edge">
<title>Node30&#45;&gt;Node10</title>
<path fill="none" stroke="#63b8ff" d="M2352.58,-386.06C2349.68,-385.66 2346.8,-385.3 2344,-385 2003.38,-348.22 1914.8,-384.06 1574,-349 1520.72,-343.52 1508.17,-336.41 1455,-330 1259.76,-306.48 1209.99,-310.15 1014,-294 720.2,-269.79 645.18,-278.2 353,-239 220.38,-221.21 142.54,-286.9 57,-184 51.6,-177.51 51.61,-171.5 57,-165 81.42,-135.56 191.72,-125.48 252.87,-122.12"/>
<polygon fill="#63b8ff" stroke="#63b8ff" points="252.72,-125.63 262.53,-121.62 252.36,-118.64 252.72,-125.63"/>
</g>
<!-- Node30&#45;&gt;Node19 -->
<g id="edge66" class="edge">
<title>Node30&#45;&gt;Node19</title>
<path fill="none" stroke="#63b8ff" d="M2390.93,-384.68C2379.68,-352.43 2340.62,-240.38 2324.76,-194.9"/>
<polygon fill="#63b8ff" stroke="#63b8ff" points="2328.12,-193.91 2321.53,-185.62 2321.51,-196.21 2328.12,-193.91"/>
</g>
<!-- Node30&#45;&gt;Node25 -->
<g id="edge67" class="edge">
<title>Node30&#45;&gt;Node25</title>
<path fill="none" stroke="#63b8ff" d="M2397.28,-384.68C2409.26,-352.43 2450.89,-240.38 2467.79,-194.9"/>
<polygon fill="#63b8ff" stroke="#63b8ff" points="2471.04,-196.2 2471.25,-185.61 2464.48,-193.76 2471.04,-196.2"/>
</g>
<!-- Node31 -->
<g id="node31" class="node">
<title>Node31</title>
<g id="a_node31"><a xlink:href="Player_8h.html" target="_top" xlink:title=" ">
<polygon fill="white" stroke="#666666" points="2346,-349 2290,-349 2290,-330 2346,-330 2346,-349"/>
<text text-anchor="middle" x="2318" y="-337" font-family="Helvetica,sans-Serif" font-size="10.00">Player.h</text>
</a>
</g>
</g>
<!-- Node30&#45;&gt;Node31 -->
<g id="edge51" class="edge">
<title>Node30&#45;&gt;Node31</title>
<path fill="none" stroke="#63b8ff" d="M2381.11,-384.51C2369.9,-376.7 2353.43,-365.21 2340.12,-355.93"/>
<polygon fill="#63b8ff" stroke="#63b8ff" points="2342.15,-353.07 2331.94,-350.22 2338.14,-358.81 2342.15,-353.07"/>
</g>
<!-- Node31&#45;&gt;Node2 -->
<g id="edge53" class="edge">
<title>Node31&#45;&gt;Node2</title>
<path fill="none" stroke="#63b8ff" d="M2289.83,-336.45C2176.76,-328.25 1755.73,-297.68 1626.18,-288.27"/>
<polygon fill="#63b8ff" stroke="#63b8ff" points="1626.66,-284.8 1616.43,-287.56 1626.15,-291.78 1626.66,-284.8"/>
</g>
<!-- Node31&#45;&gt;Node11 -->
<g id="edge54" class="edge">
<title>Node31&#45;&gt;Node11</title>
<path fill="none" stroke="#63b8ff" d="M2346.17,-338.5C2455.34,-337.38 2840.17,-322.39 2754,-165 2701.26,-68.67 2332.09,-63.67 2207.19,-64.78"/>
<polygon fill="#63b8ff" stroke="#63b8ff" points="2207.36,-61.28 2197.4,-64.89 2207.44,-68.28 2207.36,-61.28"/>
</g>
<!-- Node31&#45;&gt;Node17 -->
<g id="edge55" class="edge">
<title>Node31&#45;&gt;Node17</title>
<path fill="none" stroke="#63b8ff" d="M2289.84,-333.65C2192.44,-316.87 1868.9,-261.14 1742.36,-239.35"/>
<polygon fill="#63b8ff" stroke="#63b8ff" points="1743.04,-235.91 1732.59,-237.66 1741.85,-242.81 1743.04,-235.91"/>
</g>
<!-- Node31&#45;&gt;Node19 -->
<g id="edge63" class="edge">
<title>Node31&#45;&gt;Node19</title>
<path fill="none" stroke="#63b8ff" d="M2318,-329.74C2318,-304.53 2318,-231.36 2318,-195.62"/>
<polygon fill="#63b8ff" stroke="#63b8ff" points="2321.5,-195.82 2318,-185.82 2314.5,-195.82 2321.5,-195.82"/>
</g>
<!-- Node31&#45;&gt;Node25 -->
<g id="edge64" class="edge">
<title>Node31&#45;&gt;Node25</title>
<path fill="none" stroke="#63b8ff" d="M2326.44,-329.74C2351.47,-303.76 2425.56,-226.83 2458.68,-192.44"/>
<polygon fill="#63b8ff" stroke="#63b8ff" points="2461.05,-195.03 2465.47,-185.4 2456.01,-190.17 2461.05,-195.03"/>
</g>
<!-- Node32 -->
<g id="node32" class="node">
<title>Node32</title>
<g id="a_node32"><a xlink:href="Effect_8h.html" target="_top" xlink:title=" ">
<polygon fill="white" stroke="#666666" points="2289.5,-294 2236.5,-294 2236.5,-275 2289.5,-275 2289.5,-294"/>
<text text-anchor="middle" x="2263" y="-282" font-family="Helvetica,sans-Serif" font-size="10.00">Effect.h</text>
</a>
</g>
</g>
<!-- Node31&#45;&gt;Node32 -->
<g id="edge52" class="edge">
<title>Node31&#45;&gt;Node32</title>
<path fill="none" stroke="#63b8ff" d="M2308.92,-329.75C2301.16,-322.27 2289.79,-311.32 2280.3,-302.17"/>
<polygon fill="#63b8ff" stroke="#63b8ff" points="2283,-299.91 2273.37,-295.49 2278.14,-304.95 2283,-299.91"/>
</g>
<!-- Node33 -->
<g id="node33" class="node">
<title>Node33</title>
<g id="a_node33"><a xlink:href="Effects_8h.html" target="_top" xlink:title=" ">
<polygon fill="white" stroke="#666666" points="2668.5,-239 2609.5,-239 2609.5,-220 2668.5,-220 2668.5,-239"/>
<text text-anchor="middle" x="2639" y="-227" font-family="Helvetica,sans-Serif" font-size="10.00">Effects.h</text>
</a>
</g>
</g>
<!-- Node31&#45;&gt;Node33 -->
<g id="edge56" class="edge">
<title>Node31&#45;&gt;Node33</title>
<path fill="none" stroke="#63b8ff" d="M2344.54,-329.57C2401.62,-310.36 2536.18,-265.09 2601.77,-243.03"/>
<polygon fill="#63b8ff" stroke="#63b8ff" points="2602.63,-246.43 2610.99,-239.92 2600.4,-239.79 2602.63,-246.43"/>
</g>
<!-- Node33&#45;&gt;Node7 -->
<g id="edge62" class="edge">
<title>Node33&#45;&gt;Node7</title>
<path fill="none" stroke="#63b8ff" d="M2609.23,-228.33C2437.35,-227.22 1554.67,-219.92 835,-184 823.46,-183.42 811.27,-182.66 799.33,-181.84"/>
<polygon fill="#63b8ff" stroke="#63b8ff" points="799.73,-178.36 789.5,-181.13 799.23,-185.34 799.73,-178.36"/>
</g>
<!-- Node33&#45;&gt;Node11 -->
<g id="edge58" class="edge">
<title>Node33&#45;&gt;Node11</title>
<path fill="none" stroke="#63b8ff" d="M2668.74,-221.83C2705.66,-212.2 2761.13,-192.5 2738,-165 2669.64,-83.72 2326.23,-68.83 2206.92,-66.11"/>
<polygon fill="#63b8ff" stroke="#63b8ff" points="2207.35,-62.62 2197.28,-65.91 2207.2,-69.62 2207.35,-62.62"/>
</g>
<!-- Node33&#45;&gt;Node15 -->
<g id="edge60" class="edge">
<title>Node33&#45;&gt;Node15</title>
<path fill="none" stroke="#63b8ff" d="M2667.63,-219.57C2699.23,-208.32 2743.03,-187.69 2722,-165 2686.02,-126.18 2299.71,-133.76 2247,-129 2233.85,-127.81 2219.51,-126.36 2206.6,-124.99"/>
<polygon fill="#63b8ff" stroke="#63b8ff" points="2207.05,-121.52 2196.73,-123.93 2206.3,-128.48 2207.05,-121.52"/>
</g>
<!-- Node33&#45;&gt;Node25 -->
<g id="edge61" class="edge">
<title>Node33&#45;&gt;Node25</title>
<path fill="none" stroke="#63b8ff" d="M2611.18,-219.51C2584.36,-210.84 2543.54,-197.65 2513.58,-187.97"/>
<polygon fill="#63b8ff" stroke="#63b8ff" points="2514.71,-184.66 2504.12,-184.91 2512.56,-191.32 2514.71,-184.66"/>
</g>
<!-- Node34 -->
<g id="node34" class="node">
<title>Node34</title>
<g id="a_node34"><a xlink:title=" ">
<polygon fill="#e0e0e0" stroke="#999999" points="2629,-184 2565,-184 2565,-165 2629,-165 2629,-184"/>
<text text-anchor="middle" x="2597" y="-172" font-family="Helvetica,sans-Serif" font-size="10.00">algorithm</text>
</a>
</g>
</g>
<!-- Node33&#45;&gt;Node34 -->
<g id="edge57" class="edge">
<title>Node33&#45;&gt;Node34</title>
<path fill="none" stroke="#63b8ff" d="M2632.06,-219.75C2626.38,-212.58 2618.16,-202.2 2611.11,-193.3"/>
<polygon fill="#63b8ff" stroke="#63b8ff" points="2613.98,-191.29 2605.03,-185.63 2608.49,-195.64 2613.98,-191.29"/>
</g>
<!-- Node35 -->
<g id="node35" class="node">
<title>Node35</title>
<g id="a_node35"><a xlink:title=" ">
<polygon fill="#e0e0e0" stroke="#999999" points="2712.5,-184 2647.5,-184 2647.5,-165 2712.5,-165 2712.5,-184"/>
<text text-anchor="middle" x="2680" y="-172" font-family="Helvetica,sans-Serif" font-size="10.00">functional</text>
</a>
</g>
</g>
<!-- Node33&#45;&gt;Node35 -->
<g id="edge59" class="edge">
<title>Node33&#45;&gt;Node35</title>
<path fill="none" stroke="#63b8ff" d="M2645.77,-219.75C2651.32,-212.58 2659.34,-202.2 2666.23,-193.3"/>
<polygon fill="#63b8ff" stroke="#63b8ff" points="2668.81,-195.69 2672.16,-185.64 2663.27,-191.41 2668.81,-195.69"/>
</g>
<!-- Node36&#45;&gt;Node31 -->
<g id="edge70" class="edge">
<title>Node36&#45;&gt;Node31</title>
<path fill="none" stroke="#63b8ff" d="M2287.94,-384.75C2292.71,-377.73 2299.56,-367.64 2305.52,-358.87"/>
<polygon fill="#63b8ff" stroke="#63b8ff" points="2308.35,-360.93 2311.08,-350.69 2302.56,-357 2308.35,-360.93"/>
</g>
</g>
</svg>
