<?xml version="1.0" encoding="UTF-8" standalone="no"?>
<!DOCTYPE svg PUBLIC "-//W3C//DTD SVG 1.1//EN"
 "http://www.w3.org/Graphics/SVG/1.1/DTD/svg11.dtd">
<!-- Generated by graphviz version 7.0.5 (0)
 -->
<!-- Title: src/Commuters.cpp Pages: 1 -->
<!--zoomable 577 -->
<svg id="main" version="1.1" xmlns="http://www.w3.org/2000/svg" xmlns:xlink="http://www.w3.org/1999/xlink" xml:space="preserve" onload="init(evt)">
<style type="text/css"><![CDATA[
.edge:hover path { stroke: red; }
.edge:hover polygon { stroke: red; fill: red; }
]]></style>
<script type="text/javascript"><![CDATA[
var edges = document.getElementsByTagName('g');
if (edges && edges.length) {
  for (var i=0;i<edges.length;i++) {
    if (edges[i].id.substr(0,4)=='edge') {
      edges[i].setAttribute('class','edge');
    }
  }
}
]]></script>
        <defs>
                <circle id="rim" cx="0" cy="0" r="7"/>
                <circle id="rim2" cx="0" cy="0" r="3.5"/>
                <g id="zoomPlus">
                        <use xlink:href="#rim" fill="#404040">
                                <set attributeName="fill" to="#808080" begin="zoomplus.mouseover" end="zoomplus.mouseout"/>
                        </use>
                        <path d="M-4,0h8M0,-4v8" fill="none" stroke="white" stroke-width="1.5" pointer-events="none"/>
                </g>
                <g id="zoomMin">
                        <use xlink:href="#rim" fill="#404040">
                                <set attributeName="fill" to="#808080" begin="zoomminus.mouseover" end="zoomminus.mouseout"/>
                        </use>
                        <path d="M-4,0h8" fill="none" stroke="white" stroke-width="1.5" pointer-events="none"/>
                </g>
                <g id="dirArrow">
                        <path fill="none" stroke="white" stroke-width="1.5" d="M0,-3.0v7 M-2.5,-0.5L0,-3.0L2.5,-0.5"/>
                </g>
               <g id="resetDef">
                       <use xlink:href="#rim2" fill="#404040">
                               <set attributeName="fill" to="#808080" begin="reset.mouseover" end="reset.mouseout"/>
                       </use>
               </g>
        </defs>

<script type="text/javascript">
var viewWidth = 2976;
var viewHeight = 577;
var sectionId = 'dynsection-0';
</script>
<script xlink:href="svgpan.js"/>
<svg id="graph" class="graph">
<g id="viewport">
<title>src/Commuters.cpp</title>
<!-- Node1 -->
<g id="node1" class="node">
<title>Node1</title>
<g id="a_node1"><a xlink:title=" ">
<polygon fill="#999999" stroke="#666666" points="643.5,-569 532.5,-569 532.5,-550 643.5,-550 643.5,-569"/>
<text text-anchor="middle" x="588" y="-557" font-family="Helvetica,sans-Serif" font-size="10.00">src/Commuters.cpp</text>
</a>
</g>
</g>
<!-- Node2 -->
<g id="node2" class="node">
<title>Node2</title>
<g id="a_node2"><a xlink:href="Commuters_8h.html" target="_top" xlink:title=" ">
<polygon fill="white" stroke="#666666" points="629.5,-514 546.5,-514 546.5,-495 629.5,-495 629.5,-514"/>
<text text-anchor="middle" x="588" y="-502" font-family="Helvetica,sans-Serif" font-size="10.00">Commuters.h</text>
</a>
</g>
</g>
<!-- Node1&#45;&gt;Node2 -->
<g id="edge1" class="edge">
<title>Node1&#45;&gt;Node2</title>
<path fill="none" stroke="#63b8ff" d="M588,-549.75C588,-543.27 588,-534.16 588,-525.9"/>
<polygon fill="#63b8ff" stroke="#63b8ff" points="591.5,-525.96 588,-515.96 584.5,-525.96 591.5,-525.96"/>
</g>
<!-- Node11 -->
<g id="node11" class="node">
<title>Node11</title>
<g id="a_node11"><a xlink:href="Consts_8h.html" target="_top" xlink:title=" ">
<polygon fill="white" stroke="#666666" points="385.5,-129 326.5,-129 326.5,-110 385.5,-110 385.5,-129"/>
<text text-anchor="middle" x="356" y="-117" font-family="Helvetica,sans-Serif" font-size="10.00">Consts.h</text>
</a>
</g>
</g>
<!-- Node1&#45;&gt;Node11 -->
<g id="edge75" class="edge">
<title>Node1&#45;&gt;Node11</title>
<path fill="none" stroke="#63b8ff" d="M532.15,-554.09C385.38,-541.77 0,-504.28 0,-450.5 0,-450.5 0,-450.5 0,-393.5 0,-268.24 60.71,-234.4 165,-165 210.41,-134.79 273.77,-124.96 314.84,-121.84"/>
<polygon fill="#63b8ff" stroke="#63b8ff" points="315.05,-125.33 324.81,-121.19 314.6,-118.35 315.05,-125.33"/>
</g>
<!-- Node15 -->
<g id="node15" class="node">
<title>Node15</title>
<g id="a_node15"><a xlink:href="TextureHolder_8h.html" target="_top" xlink:title=" ">
<polygon fill="white" stroke="#666666" points="1304.5,-184 1211.5,-184 1211.5,-165 1304.5,-165 1304.5,-184"/>
<text text-anchor="middle" x="1258" y="-172" font-family="Helvetica,sans-Serif" font-size="10.00">TextureHolder.h</text>
</a>
</g>
</g>
<!-- Node1&#45;&gt;Node15 -->
<g id="edge76" class="edge">
<title>Node1&#45;&gt;Node15</title>
<path fill="none" stroke="#63b8ff" d="M643.87,-553.63C787.44,-539.88 1163.45,-495.67 1241,-404 1292.21,-343.46 1273.98,-238.67 1263.4,-195.24"/>
<polygon fill="#63b8ff" stroke="#63b8ff" points="1266.83,-194.54 1260.94,-185.74 1260.06,-196.29 1266.83,-194.54"/>
</g>
<!-- Node3 -->
<g id="node3" class="node">
<title>Node3</title>
<g id="a_node3"><a xlink:href="Entity_8h.html" target="_top" xlink:title=" ">
<polygon fill="white" stroke="#666666" points="854.5,-294 801.5,-294 801.5,-275 854.5,-275 854.5,-294"/>
<text text-anchor="middle" x="828" y="-282" font-family="Helvetica,sans-Serif" font-size="10.00">Entity.h</text>
</a>
</g>
</g>
<!-- Node2&#45;&gt;Node3 -->
<g id="edge2" class="edge">
<title>Node2&#45;&gt;Node3</title>
<path fill="none" stroke="#63b8ff" d="M584.09,-494.51C575.53,-473.34 557.7,-419.5 581,-385 628.1,-315.25 733.12,-294.38 789.87,-288.15"/>
<polygon fill="#63b8ff" stroke="#63b8ff" points="790.09,-291.65 799.7,-287.18 789.4,-284.68 790.09,-291.65"/>
</g>
<!-- Node29 -->
<g id="node29" class="node">
<title>Node29</title>
<g id="a_node29"><a xlink:href="Light_8h.html" target="_top" xlink:title=" ">
<polygon fill="white" stroke="#666666" points="392,-349 342,-349 342,-330 392,-330 392,-349"/>
<text text-anchor="middle" x="367" y="-337" font-family="Helvetica,sans-Serif" font-size="10.00">Light.h</text>
</a>
</g>
</g>
<!-- Node2&#45;&gt;Node29 -->
<g id="edge42" class="edge">
<title>Node2&#45;&gt;Node29</title>
<path fill="none" stroke="#63b8ff" d="M575.8,-494.5C539.81,-467.95 433.69,-389.69 388.15,-356.1"/>
<polygon fill="#63b8ff" stroke="#63b8ff" points="390.5,-353.49 380.38,-350.37 386.35,-359.12 390.5,-353.49"/>
</g>
<!-- Node30 -->
<g id="node30" class="node">
<title>Node30</title>
<g id="a_node30"><a xlink:href="Obstacle_8h.html" target="_top" xlink:title=" ">
<polygon fill="white" stroke="#666666" points="1008,-459 940,-459 940,-440 1008,-440 1008,-459"/>
<text text-anchor="middle" x="974" y="-447" font-family="Helvetica,sans-Serif" font-size="10.00">Obstacle.h</text>
</a>
</g>
</g>
<!-- Node2&#45;&gt;Node30 -->
<g id="edge44" class="edge">
<title>Node2&#45;&gt;Node30</title>
<path fill="none" stroke="#63b8ff" d="M629.68,-497.78C702.64,-487.76 852.93,-467.12 928.5,-456.75"/>
<polygon fill="#63b8ff" stroke="#63b8ff" points="928.6,-460.27 938.03,-455.44 927.65,-453.33 928.6,-460.27"/>
</g>
<!-- Node31 -->
<g id="node31" class="node">
<title>Node31</title>
<g id="a_node31"><a xlink:href="PlayerState_8h.html" target="_top" xlink:title=" ">
<polygon fill="white" stroke="#666666" points="672,-404 590,-404 590,-385 672,-385 672,-404"/>
<text text-anchor="middle" x="631" y="-392" font-family="Helvetica,sans-Serif" font-size="10.00">PlayerState.h</text>
</a>
</g>
</g>
<!-- Node2&#45;&gt;Node31 -->
<g id="edge74" class="edge">
<title>Node2&#45;&gt;Node31</title>
<path fill="none" stroke="#63b8ff" d="M591.52,-494.66C598.42,-477.34 613.86,-438.55 623.26,-414.95"/>
<polygon fill="#63b8ff" stroke="#63b8ff" points="626.43,-416.45 626.87,-405.87 619.92,-413.86 626.43,-416.45"/>
</g>
<!-- Node4 -->
<g id="node4" class="node">
<title>Node4</title>
<g id="a_node4"><a xlink:href="AnimationMachine_8h.html" target="_top" xlink:title=" ">
<polygon fill="white" stroke="#666666" points="669.5,-239 552.5,-239 552.5,-220 669.5,-220 669.5,-239"/>
<text text-anchor="middle" x="611" y="-227" font-family="Helvetica,sans-Serif" font-size="10.00">AnimationMachine.h</text>
</a>
</g>
</g>
<!-- Node3&#45;&gt;Node4 -->
<g id="edge3" class="edge">
<title>Node3&#45;&gt;Node4</title>
<path fill="none" stroke="#63b8ff" d="M801.39,-277C765.89,-268.33 702.42,-252.83 658.58,-242.12"/>
<polygon fill="#63b8ff" stroke="#63b8ff" points="659.63,-238.77 649.08,-239.8 657.97,-245.57 659.63,-238.77"/>
</g>
<!-- Node8 -->
<g id="node8" class="node">
<title>Node8</title>
<g id="a_node8"><a xlink:title=" ">
<polygon fill="#e0e0e0" stroke="#999999" points="789.5,-184 658.5,-184 658.5,-165 789.5,-165 789.5,-184"/>
<text text-anchor="middle" x="724" y="-172" font-family="Helvetica,sans-Serif" font-size="10.00">SFML/System/Time.hpp</text>
</a>
</g>
</g>
<!-- Node3&#45;&gt;Node8 -->
<g id="edge40" class="edge">
<title>Node3&#45;&gt;Node8</title>
<path fill="none" stroke="#63b8ff" d="M819.49,-274.66C802.27,-256.78 763.05,-216.05 740.59,-192.73"/>
<polygon fill="#63b8ff" stroke="#63b8ff" points="743.14,-190.33 733.68,-185.55 738.09,-195.18 743.14,-190.33"/>
</g>
<!-- Node12 -->
<g id="node12" class="node">
<title>Node12</title>
<g id="a_node12"><a xlink:href="Enums_8h.html" target="_top" xlink:title=" ">
<polygon fill="white" stroke="#666666" points="1127.5,-74 1068.5,-74 1068.5,-55 1127.5,-55 1127.5,-74"/>
<text text-anchor="middle" x="1098" y="-62" font-family="Helvetica,sans-Serif" font-size="10.00">Enums.h</text>
</a>
</g>
</g>
<!-- Node3&#45;&gt;Node12 -->
<g id="edge23" class="edge">
<title>Node3&#45;&gt;Node12</title>
<path fill="none" stroke="#63b8ff" d="M825.87,-274.67C821.28,-253.38 812.81,-198.5 838,-165 890.42,-95.29 998.14,-74.42 1057.15,-68.17"/>
<polygon fill="#63b8ff" stroke="#63b8ff" points="1057.14,-71.68 1066.76,-67.25 1056.47,-64.72 1057.14,-71.68"/>
</g>
<!-- Node18 -->
<g id="node18" class="node">
<title>Node18</title>
<g id="a_node18"><a xlink:href="SceneNode_8h.html" target="_top" xlink:title=" ">
<polygon fill="white" stroke="#666666" points="2044,-239 1964,-239 1964,-220 2044,-220 2044,-239"/>
<text text-anchor="middle" x="2004" y="-227" font-family="Helvetica,sans-Serif" font-size="10.00">SceneNode.h</text>
</a>
</g>
</g>
<!-- Node3&#45;&gt;Node18 -->
<g id="edge24" class="edge">
<title>Node3&#45;&gt;Node18</title>
<path fill="none" stroke="#63b8ff" d="M854.77,-282.29C1005.53,-275.5 1748.98,-241.99 1952.45,-232.82"/>
<polygon fill="#63b8ff" stroke="#63b8ff" points="1952.33,-236.33 1962.16,-232.39 1952.02,-229.34 1952.33,-236.33"/>
</g>
<!-- Node20 -->
<g id="node20" class="node">
<title>Node20</title>
<g id="a_node20"><a xlink:title=" ">
<polygon fill="#e0e0e0" stroke="#999999" points="2902,-184 2768,-184 2768,-165 2902,-165 2902,-184"/>
<text text-anchor="middle" x="2835" y="-172" font-family="Helvetica,sans-Serif" font-size="10.00">SFML/Graphics/Rect.hpp</text>
</a>
</g>
</g>
<!-- Node3&#45;&gt;Node20 -->
<g id="edge39" class="edge">
<title>Node3&#45;&gt;Node20</title>
<path fill="none" stroke="#63b8ff" d="M854.98,-282.81C1029.45,-278.31 1992.66,-252.89 2053,-239 2073.36,-234.31 2075.68,-224.87 2096,-220 2380.81,-151.7 2462.05,-207.29 2754,-184 2754.85,-183.93 2755.7,-183.86 2756.55,-183.79"/>
<polygon fill="#63b8ff" stroke="#63b8ff" points="2756.67,-187.3 2766.33,-182.94 2756.07,-180.32 2756.67,-187.3"/>
</g>
<!-- Node26 -->
<g id="node26" class="node">
<title>Node26</title>
<g id="a_node26"><a xlink:title=" ">
<polygon fill="#e0e0e0" stroke="#999999" points="989.5,-184 846.5,-184 846.5,-165 989.5,-165 989.5,-184"/>
<text text-anchor="middle" x="918" y="-172" font-family="Helvetica,sans-Serif" font-size="10.00">SFML/System/Vector2.hpp</text>
</a>
</g>
</g>
<!-- Node3&#45;&gt;Node26 -->
<g id="edge41" class="edge">
<title>Node3&#45;&gt;Node26</title>
<path fill="none" stroke="#63b8ff" d="M835.37,-274.66C850.2,-256.86 883.91,-216.41 903.38,-193.04"/>
<polygon fill="#63b8ff" stroke="#63b8ff" points="905.85,-195.55 909.56,-185.62 900.47,-191.06 905.85,-195.55"/>
</g>
<!-- Node5 -->
<g id="node5" class="node">
<title>Node5</title>
<g id="a_node5"><a xlink:title=" ">
<polygon fill="#e0e0e0" stroke="#999999" points="493,-74 383,-74 383,-55 493,-55 493,-74"/>
<text text-anchor="middle" x="438" y="-62" font-family="Helvetica,sans-Serif" font-size="10.00">SFML/Graphics.hpp</text>
</a>
</g>
</g>
<!-- Node4&#45;&gt;Node5 -->
<g id="edge4" class="edge">
<title>Node4&#45;&gt;Node5</title>
<path fill="none" stroke="#63b8ff" d="M552.15,-220.11C510.11,-212.82 458.67,-200.77 445,-184 422.28,-156.13 427.28,-111.22 432.76,-85.43"/>
<polygon fill="#63b8ff" stroke="#63b8ff" points="436.11,-86.48 435.03,-75.94 429.3,-84.85 436.11,-86.48"/>
</g>
<!-- Node6 -->
<g id="node6" class="node">
<title>Node6</title>
<g id="a_node6"><a xlink:title=" ">
<polygon fill="#e0e0e0" stroke="#999999" points="359.5,-184 218.5,-184 218.5,-165 359.5,-165 359.5,-184"/>
<text text-anchor="middle" x="289" y="-172" font-family="Helvetica,sans-Serif" font-size="10.00">SFML/Graphics/Sprite.hpp</text>
</a>
</g>
</g>
<!-- Node4&#45;&gt;Node6 -->
<g id="edge5" class="edge">
<title>Node4&#45;&gt;Node6</title>
<path fill="none" stroke="#63b8ff" d="M556.38,-219.51C500.67,-210.34 414.2,-196.11 354.76,-186.32"/>
<polygon fill="#63b8ff" stroke="#63b8ff" points="355.55,-182.91 345.11,-184.74 354.41,-189.81 355.55,-182.91"/>
</g>
<!-- Node7 -->
<g id="node7" class="node">
<title>Node7</title>
<g id="a_node7"><a xlink:title=" ">
<polygon fill="#e0e0e0" stroke="#999999" points="1172.5,-129 1023.5,-129 1023.5,-110 1172.5,-110 1172.5,-129"/>
<text text-anchor="middle" x="1098" y="-117" font-family="Helvetica,sans-Serif" font-size="10.00">SFML/Graphics/Texture.hpp</text>
</a>
</g>
</g>
<!-- Node4&#45;&gt;Node7 -->
<g id="edge6" class="edge">
<title>Node4&#45;&gt;Node7</title>
<path fill="none" stroke="#63b8ff" d="M613.58,-219.72C618.26,-205.51 629.61,-177.77 650,-165 708.44,-128.4 899.13,-121.11 1012.02,-120.12"/>
<polygon fill="#63b8ff" stroke="#63b8ff" points="1011.88,-123.62 1021.85,-120.05 1011.83,-116.62 1011.88,-123.62"/>
</g>
<!-- Node4&#45;&gt;Node8 -->
<g id="edge7" class="edge">
<title>Node4&#45;&gt;Node8</title>
<path fill="none" stroke="#63b8ff" d="M630.17,-219.51C647.89,-211.2 674.48,-198.73 694.83,-189.18"/>
<polygon fill="#63b8ff" stroke="#63b8ff" points="696.18,-192.42 703.74,-185 693.2,-186.08 696.18,-192.42"/>
</g>
<!-- Node9 -->
<g id="node9" class="node">
<title>Node9</title>
<g id="a_node9"><a xlink:title=" ">
<polygon fill="#e0e0e0" stroke="#999999" points="526,-184 454,-184 454,-165 526,-165 526,-184"/>
<text text-anchor="middle" x="490" y="-172" font-family="Helvetica,sans-Serif" font-size="10.00">sys/types.h</text>
</a>
</g>
</g>
<!-- Node4&#45;&gt;Node9 -->
<g id="edge8" class="edge">
<title>Node4&#45;&gt;Node9</title>
<path fill="none" stroke="#63b8ff" d="M590.47,-219.51C571.32,-211.12 542.5,-198.5 520.63,-188.92"/>
<polygon fill="#63b8ff" stroke="#63b8ff" points="522.17,-185.77 511.61,-184.97 519.36,-192.18 522.17,-185.77"/>
</g>
<!-- Node10 -->
<g id="node10" class="node">
<title>Node10</title>
<g id="a_node10"><a xlink:title=" ">
<polygon fill="#e0e0e0" stroke="#999999" points="510,-19 450,-19 450,0 510,0 510,-19"/>
<text text-anchor="middle" x="480" y="-7" font-family="Helvetica,sans-Serif" font-size="10.00">iostream</text>
</a>
</g>
</g>
<!-- Node4&#45;&gt;Node10 -->
<g id="edge9" class="edge">
<title>Node4&#45;&gt;Node10</title>
<path fill="none" stroke="#63b8ff" d="M605.7,-219.68C586.2,-187.23 518.12,-73.94 491.14,-29.04"/>
<polygon fill="#63b8ff" stroke="#63b8ff" points="494.15,-27.25 486,-20.48 488.15,-30.86 494.15,-27.25"/>
</g>
<!-- Node4&#45;&gt;Node11 -->
<g id="edge10" class="edge">
<title>Node4&#45;&gt;Node11</title>
<path fill="none" stroke="#63b8ff" d="M552.57,-219.54C502.71,-211.16 435.46,-197.88 412,-184 393.27,-172.92 377.47,-153.42 367.48,-138.94"/>
<polygon fill="#63b8ff" stroke="#63b8ff" points="370.51,-137.18 362.1,-130.74 364.66,-141.02 370.51,-137.18"/>
</g>
<!-- Node4&#45;&gt;Node12 -->
<g id="edge16" class="edge">
<title>Node4&#45;&gt;Node12</title>
<path fill="none" stroke="#63b8ff" d="M610.67,-219.86C610.64,-206.35 612.62,-180.19 627,-165 686,-102.7 953.37,-76.33 1056.89,-68.33"/>
<polygon fill="#63b8ff" stroke="#63b8ff" points="1056.89,-71.84 1066.6,-67.6 1056.37,-64.86 1056.89,-71.84"/>
</g>
<!-- Node4&#45;&gt;Node15 -->
<g id="edge17" class="edge">
<title>Node4&#45;&gt;Node15</title>
<path fill="none" stroke="#63b8ff" d="M669.94,-223.95C771.05,-216.1 984.06,-199.38 1164,-184 1175.63,-183.01 1188.07,-181.91 1199.96,-180.84"/>
<polygon fill="#63b8ff" stroke="#63b8ff" points="1200,-184.35 1209.64,-179.96 1199.37,-177.38 1200,-184.35"/>
</g>
<!-- Node11&#45;&gt;Node5 -->
<g id="edge11" class="edge">
<title>Node11&#45;&gt;Node5</title>
<path fill="none" stroke="#63b8ff" d="M369.91,-109.51C382.24,-101.54 400.47,-89.75 414.97,-80.38"/>
<polygon fill="#63b8ff" stroke="#63b8ff" points="416.53,-83.55 423.02,-75.18 412.73,-77.67 416.53,-83.55"/>
</g>
<!-- Node11&#45;&gt;Node12 -->
<g id="edge12" class="edge">
<title>Node11&#45;&gt;Node12</title>
<path fill="none" stroke="#63b8ff" d="M385.55,-116.39C501.19,-108.13 923.32,-77.98 1057.07,-68.42"/>
<polygon fill="#63b8ff" stroke="#63b8ff" points="1057.14,-71.93 1066.86,-67.72 1056.64,-64.95 1057.14,-71.93"/>
</g>
<!-- Node13 -->
<g id="node13" class="node">
<title>Node13</title>
<g id="a_node13"><a xlink:href="Random_8h.html" target="_top" xlink:title=" ">
<polygon fill="white" stroke="#666666" points="365,-74 299,-74 299,-55 365,-55 365,-74"/>
<text text-anchor="middle" x="332" y="-62" font-family="Helvetica,sans-Serif" font-size="10.00">Random.h</text>
</a>
</g>
</g>
<!-- Node11&#45;&gt;Node13 -->
<g id="edge13" class="edge">
<title>Node11&#45;&gt;Node13</title>
<path fill="none" stroke="#63b8ff" d="M352.04,-109.75C348.96,-102.96 344.59,-93.3 340.71,-84.73"/>
<polygon fill="#63b8ff" stroke="#63b8ff" points="343.99,-83.49 336.67,-75.82 337.61,-86.37 343.99,-83.49"/>
</g>
<!-- Node13&#45;&gt;Node10 -->
<g id="edge15" class="edge">
<title>Node13&#45;&gt;Node10</title>
<path fill="none" stroke="#63b8ff" d="M357.11,-54.51C381.17,-45.89 417.72,-32.8 444.71,-23.14"/>
<polygon fill="#63b8ff" stroke="#63b8ff" points="445.61,-26.53 453.84,-19.87 443.25,-19.94 445.61,-26.53"/>
</g>
<!-- Node14 -->
<g id="node14" class="node">
<title>Node14</title>
<g id="a_node14"><a xlink:title=" ">
<polygon fill="#e0e0e0" stroke="#999999" points="359,-19 305,-19 305,0 359,0 359,-19"/>
<text text-anchor="middle" x="332" y="-7" font-family="Helvetica,sans-Serif" font-size="10.00">random</text>
</a>
</g>
</g>
<!-- Node13&#45;&gt;Node14 -->
<g id="edge14" class="edge">
<title>Node13&#45;&gt;Node14</title>
<path fill="none" stroke="#63b8ff" d="M332,-54.75C332,-48.27 332,-39.16 332,-30.9"/>
<polygon fill="#63b8ff" stroke="#63b8ff" points="335.5,-30.96 332,-20.96 328.5,-30.96 335.5,-30.96"/>
</g>
<!-- Node15&#45;&gt;Node7 -->
<g id="edge20" class="edge">
<title>Node15&#45;&gt;Node7</title>
<path fill="none" stroke="#63b8ff" d="M1230.86,-164.51C1204.69,-155.84 1164.86,-142.65 1135.64,-132.97"/>
<polygon fill="#63b8ff" stroke="#63b8ff" points="1137.04,-129.74 1126.44,-129.92 1134.84,-136.39 1137.04,-129.74"/>
</g>
<!-- Node15&#45;&gt;Node11 -->
<g id="edge22" class="edge">
<title>Node15&#45;&gt;Node11</title>
<path fill="none" stroke="#63b8ff" d="M1211.17,-168.94C1196.12,-167.56 1179.36,-166.12 1164,-165 870.37,-143.65 516.05,-127.43 397.14,-122.25"/>
<polygon fill="#63b8ff" stroke="#63b8ff" points="397.39,-118.76 387.25,-121.83 397.09,-125.76 397.39,-118.76"/>
</g>
<!-- Node15&#45;&gt;Node12 -->
<g id="edge21" class="edge">
<title>Node15&#45;&gt;Node12</title>
<path fill="none" stroke="#63b8ff" d="M1248.67,-164.6C1234.83,-151.64 1207.69,-127.26 1182,-110 1164.81,-98.45 1144.28,-87.53 1127.82,-79.4"/>
<polygon fill="#63b8ff" stroke="#63b8ff" points="1129.56,-76.35 1119.04,-75.14 1126.51,-82.65 1129.56,-76.35"/>
</g>
<!-- Node16 -->
<g id="node16" class="node">
<title>Node16</title>
<g id="a_node16"><a xlink:title=" ">
<polygon fill="#e0e0e0" stroke="#999999" points="1343,-129 1285,-129 1285,-110 1343,-110 1343,-129"/>
<text text-anchor="middle" x="1314" y="-117" font-family="Helvetica,sans-Serif" font-size="10.00">memory</text>
</a>
</g>
</g>
<!-- Node15&#45;&gt;Node16 -->
<g id="edge18" class="edge">
<title>Node15&#45;&gt;Node16</title>
<path fill="none" stroke="#63b8ff" d="M1267.5,-164.51C1275.43,-157 1286.95,-146.1 1296.54,-137.03"/>
<polygon fill="#63b8ff" stroke="#63b8ff" points="1298.68,-139.81 1303.54,-130.4 1293.87,-134.73 1298.68,-139.81"/>
</g>
<!-- Node17 -->
<g id="node17" class="node">
<title>Node17</title>
<g id="a_node17"><a xlink:title=" ">
<polygon fill="#e0e0e0" stroke="#999999" points="1267,-129 1229,-129 1229,-110 1267,-110 1267,-129"/>
<text text-anchor="middle" x="1248" y="-117" font-family="Helvetica,sans-Serif" font-size="10.00">map</text>
</a>
</g>
</g>
<!-- Node15&#45;&gt;Node17 -->
<g id="edge19" class="edge">
<title>Node15&#45;&gt;Node17</title>
<path fill="none" stroke="#63b8ff" d="M1256.35,-164.75C1255.11,-158.19 1253.37,-148.95 1251.79,-140.6"/>
<polygon fill="#63b8ff" stroke="#63b8ff" points="1255.26,-140.11 1249.97,-130.93 1248.38,-141.4 1255.26,-140.11"/>
</g>
<!-- Node18&#45;&gt;Node5 -->
<g id="edge26" class="edge">
<title>Node18&#45;&gt;Node5</title>
<path fill="none" stroke="#63b8ff" d="M1963.66,-221.74C1959.06,-221.09 1954.43,-220.49 1950,-220 1829.81,-206.58 1513.19,-241.86 1407,-184 1371.02,-164.39 1388.15,-129.29 1352,-110 1277.92,-70.47 702.84,-65.88 504.78,-65.48"/>
<polygon fill="#63b8ff" stroke="#63b8ff" points="504.91,-61.98 494.91,-65.47 504.9,-68.98 504.91,-61.98"/>
</g>
<!-- Node18&#45;&gt;Node10 -->
<g id="edge38" class="edge">
<title>Node18&#45;&gt;Node10</title>
<path fill="none" stroke="#63b8ff" d="M2044.19,-220.63C2045.81,-220.4 2047.42,-220.19 2049,-220 2123.24,-211.04 2669.56,-238.27 2721,-184 2726.81,-177.87 2726.76,-171.17 2721,-165 2642.86,-81.24 819.99,-21.07 521.24,-11.76"/>
<polygon fill="#63b8ff" stroke="#63b8ff" points="521.71,-8.27 511.61,-11.46 521.49,-15.27 521.71,-8.27"/>
</g>
<!-- Node18&#45;&gt;Node12 -->
<g id="edge25" class="edge">
<title>Node18&#45;&gt;Node12</title>
<path fill="none" stroke="#63b8ff" d="M1963.65,-221.76C1959.06,-221.1 1954.43,-220.5 1950,-220 1892.23,-213.47 1477.36,-214.72 1428,-184 1395.7,-163.9 1416.41,-131.45 1385,-110 1345.74,-83.19 1208.57,-71.73 1139.05,-67.55"/>
<polygon fill="#63b8ff" stroke="#63b8ff" points="1139.39,-64.07 1129.21,-66.99 1138.99,-71.06 1139.39,-64.07"/>
</g>
<!-- Node18&#45;&gt;Node16 -->
<g id="edge35" class="edge">
<title>Node18&#45;&gt;Node16</title>
<path fill="none" stroke="#63b8ff" d="M2044.14,-222.07C2098.35,-212.97 2189.34,-196.11 2199,-184 2204.27,-177.4 2204.82,-171.12 2199,-165 2169.56,-134.04 1524.68,-123.3 1354.74,-121"/>
<polygon fill="#63b8ff" stroke="#63b8ff" points="1354.9,-117.51 1344.86,-120.87 1354.81,-124.51 1354.9,-117.51"/>
</g>
<!-- Node19 -->
<g id="node19" class="node">
<title>Node19</title>
<g id="a_node19"><a xlink:title=" ">
<polygon fill="#e0e0e0" stroke="#999999" points="2711.5,-184 2552.5,-184 2552.5,-165 2711.5,-165 2711.5,-184"/>
<text text-anchor="middle" x="2632" y="-172" font-family="Helvetica,sans-Serif" font-size="10.00">SFML/Graphics/Drawable.hpp</text>
</a>
</g>
</g>
<!-- Node18&#45;&gt;Node19 -->
<g id="edge27" class="edge">
<title>Node18&#45;&gt;Node19</title>
<path fill="none" stroke="#63b8ff" d="M2044.35,-221.78C2048.94,-221.12 2053.57,-220.51 2058,-220 2269.05,-195.6 2325.7,-202.04 2541.05,-184.14"/>
<polygon fill="#63b8ff" stroke="#63b8ff" points="2541.25,-187.64 2550.92,-183.31 2540.66,-180.66 2541.25,-187.64"/>
</g>
<!-- Node18&#45;&gt;Node20 -->
<g id="edge28" class="edge">
<title>Node18&#45;&gt;Node20</title>
<path fill="none" stroke="#63b8ff" d="M2044.34,-221.68C2048.94,-221.04 2053.56,-220.46 2058,-220 2366.08,-187.87 2445.2,-208.17 2754,-184 2754.85,-183.93 2755.7,-183.87 2756.55,-183.8"/>
<polygon fill="#63b8ff" stroke="#63b8ff" points="2756.67,-187.3 2766.33,-182.95 2756.07,-180.33 2756.67,-187.3"/>
</g>
<!-- Node21 -->
<g id="node21" class="node">
<title>Node21</title>
<g id="a_node21"><a xlink:title=" ">
<polygon fill="#e0e0e0" stroke="#999999" points="1615,-184 1437,-184 1437,-165 1615,-165 1615,-184"/>
<text text-anchor="middle" x="1526" y="-172" font-family="Helvetica,sans-Serif" font-size="10.00">SFML/Graphics/RenderStates.hpp</text>
</a>
</g>
</g>
<!-- Node18&#45;&gt;Node21 -->
<g id="edge29" class="edge">
<title>Node18&#45;&gt;Node21</title>
<path fill="none" stroke="#63b8ff" d="M1963.64,-221.91C1959.04,-221.23 1954.42,-220.58 1950,-220 1839.73,-205.54 1712.84,-192.73 1626.83,-184.61"/>
<polygon fill="#63b8ff" stroke="#63b8ff" points="1627.28,-181.13 1617,-183.68 1626.63,-188.1 1627.28,-181.13"/>
</g>
<!-- Node22 -->
<g id="node22" class="node">
<title>Node22</title>
<g id="a_node22"><a xlink:title=" ">
<polygon fill="#e0e0e0" stroke="#999999" points="1810.5,-184 1633.5,-184 1633.5,-165 1810.5,-165 1810.5,-184"/>
<text text-anchor="middle" x="1722" y="-172" font-family="Helvetica,sans-Serif" font-size="10.00">SFML/Graphics/RenderTarget.hpp</text>
</a>
</g>
</g>
<!-- Node18&#45;&gt;Node22 -->
<g id="edge30" class="edge">
<title>Node18&#45;&gt;Node22</title>
<path fill="none" stroke="#63b8ff" d="M1963.6,-220.91C1915.82,-211.93 1835.9,-196.91 1781.16,-186.62"/>
<polygon fill="#63b8ff" stroke="#63b8ff" points="1781.84,-183.19 1771.36,-184.78 1780.55,-190.06 1781.84,-183.19"/>
</g>
<!-- Node23 -->
<g id="node23" class="node">
<title>Node23</title>
<g id="a_node23"><a xlink:title=" ">
<polygon fill="#e0e0e0" stroke="#999999" points="1989.5,-184 1828.5,-184 1828.5,-165 1989.5,-165 1989.5,-184"/>
<text text-anchor="middle" x="1909" y="-172" font-family="Helvetica,sans-Serif" font-size="10.00">SFML/Graphics/Transform.hpp</text>
</a>
</g>
</g>
<!-- Node18&#45;&gt;Node23 -->
<g id="edge31" class="edge">
<title>Node18&#45;&gt;Node23</title>
<path fill="none" stroke="#63b8ff" d="M1987.88,-219.51C1973.33,-211.39 1951.66,-199.3 1934.71,-189.85"/>
<polygon fill="#63b8ff" stroke="#63b8ff" points="1936.64,-186.91 1926.2,-185.1 1933.23,-193.02 1936.64,-186.91"/>
</g>
<!-- Node24 -->
<g id="node24" class="node">
<title>Node24</title>
<g id="a_node24"><a xlink:title=" ">
<polygon fill="#e0e0e0" stroke="#999999" points="2190,-184 2008,-184 2008,-165 2190,-165 2190,-184"/>
<text text-anchor="middle" x="2099" y="-172" font-family="Helvetica,sans-Serif" font-size="10.00">SFML/Graphics/Transformable.hpp</text>
</a>
</g>
</g>
<!-- Node18&#45;&gt;Node24 -->
<g id="edge32" class="edge">
<title>Node18&#45;&gt;Node24</title>
<path fill="none" stroke="#63b8ff" d="M2020.12,-219.51C2034.67,-211.39 2056.34,-199.3 2073.29,-189.85"/>
<polygon fill="#63b8ff" stroke="#63b8ff" points="2074.77,-193.02 2081.8,-185.1 2071.36,-186.91 2074.77,-193.02"/>
</g>
<!-- Node25 -->
<g id="node25" class="node">
<title>Node25</title>
<g id="a_node25"><a xlink:title=" ">
<polygon fill="#e0e0e0" stroke="#999999" points="2418,-184 2246,-184 2246,-165 2418,-165 2418,-184"/>
<text text-anchor="middle" x="2332" y="-172" font-family="Helvetica,sans-Serif" font-size="10.00">SFML/System/NonCopyable.hpp</text>
</a>
</g>
</g>
<!-- Node18&#45;&gt;Node25 -->
<g id="edge33" class="edge">
<title>Node18&#45;&gt;Node25</title>
<path fill="none" stroke="#63b8ff" d="M2044.22,-222C2099.28,-213.1 2198.85,-197.02 2265.2,-186.29"/>
<polygon fill="#63b8ff" stroke="#63b8ff" points="2265.56,-189.78 2274.88,-184.73 2264.45,-182.87 2265.56,-189.78"/>
</g>
<!-- Node18&#45;&gt;Node26 -->
<g id="edge34" class="edge">
<title>Node18&#45;&gt;Node26</title>
<path fill="none" stroke="#63b8ff" d="M1963.74,-227.59C1829.14,-224.36 1382.3,-212.15 1001.22,-184.11"/>
<polygon fill="#63b8ff" stroke="#63b8ff" points="1001.71,-180.64 991.48,-183.39 1001.19,-187.62 1001.71,-180.64"/>
</g>
<!-- Node27 -->
<g id="node27" class="node">
<title>Node27</title>
<g id="a_node27"><a xlink:title=" ">
<polygon fill="#e0e0e0" stroke="#999999" points="2483.5,-184 2436.5,-184 2436.5,-165 2483.5,-165 2483.5,-184"/>
<text text-anchor="middle" x="2460" y="-172" font-family="Helvetica,sans-Serif" font-size="10.00">vector</text>
</a>
</g>
</g>
<!-- Node18&#45;&gt;Node27 -->
<g id="edge36" class="edge">
<title>Node18&#45;&gt;Node27</title>
<path fill="none" stroke="#63b8ff" d="M2044.36,-221.88C2048.96,-221.21 2053.58,-220.56 2058,-220 2217.95,-199.63 2262.81,-212.07 2425.42,-183.98"/>
<polygon fill="#63b8ff" stroke="#63b8ff" points="2425.57,-187.51 2434.81,-182.33 2424.36,-180.61 2425.57,-187.51"/>
</g>
<!-- Node28 -->
<g id="node28" class="node">
<title>Node28</title>
<g id="a_node28"><a xlink:title=" ">
<polygon fill="#e0e0e0" stroke="#999999" points="2534,-184 2502,-184 2502,-165 2534,-165 2534,-184"/>
<text text-anchor="middle" x="2518" y="-172" font-family="Helvetica,sans-Serif" font-size="10.00">set</text>
</a>
</g>
</g>
<!-- Node18&#45;&gt;Node28 -->
<g id="edge37" class="edge">
<title>Node18&#45;&gt;Node28</title>
<path fill="none" stroke="#63b8ff" d="M2044.35,-221.82C2048.95,-221.15 2053.57,-220.53 2058,-220 2246.95,-197.34 2301.03,-222.52 2490.56,-183.98"/>
<polygon fill="#63b8ff" stroke="#63b8ff" points="2491.19,-187.43 2500.27,-181.97 2489.77,-180.57 2491.19,-187.43"/>
</g>
<!-- Node29&#45;&gt;Node3 -->
<g id="edge43" class="edge">
<title>Node29&#45;&gt;Node3</title>
<path fill="none" stroke="#63b8ff" d="M392.44,-335.57C469.2,-326.75 698.81,-300.35 790.03,-289.87"/>
<polygon fill="#63b8ff" stroke="#63b8ff" points="790.17,-293.37 799.7,-288.75 789.37,-286.42 790.17,-293.37"/>
</g>
<!-- Node30&#45;&gt;Node3 -->
<g id="edge48" class="edge">
<title>Node30&#45;&gt;Node3</title>
<path fill="none" stroke="#63b8ff" d="M966.15,-439.74C942.98,-413.87 874.56,-337.48 843.57,-302.88"/>
<polygon fill="#63b8ff" stroke="#63b8ff" points="846.18,-300.55 836.9,-295.43 840.96,-305.22 846.18,-300.55"/>
</g>
<!-- Node30&#45;&gt;Node6 -->
<g id="edge73" class="edge">
<title>Node30&#45;&gt;Node6</title>
<path fill="none" stroke="#63b8ff" d="M951.6,-439.57C851.19,-399.56 442.29,-236.59 322.27,-188.76"/>
<polygon fill="#63b8ff" stroke="#63b8ff" points="323.57,-185.51 312.98,-185.06 320.98,-192.01 323.57,-185.51"/>
</g>
<!-- Node30&#45;&gt;Node11 -->
<g id="edge45" class="edge">
<title>Node30&#45;&gt;Node11</title>
<path fill="none" stroke="#63b8ff" d="M939.73,-447.67C784.16,-443.44 152,-421.28 152,-340.5 152,-340.5 152,-340.5 152,-228.5 152,-155.43 255.5,-131.66 315.05,-124.03"/>
<polygon fill="#63b8ff" stroke="#63b8ff" points="315.31,-127.52 324.83,-122.89 314.49,-120.57 315.31,-127.52"/>
</g>
<!-- Node30&#45;&gt;Node12 -->
<g id="edge46" class="edge">
<title>Node30&#45;&gt;Node12</title>
<path fill="none" stroke="#63b8ff" d="M1008.19,-448.5C1271.6,-448.27 2968,-442.83 2968,-340.5 2968,-340.5 2968,-340.5 2968,-173.5 2968,-78.62 1413.53,-66.98 1139.13,-65.66"/>
<polygon fill="#63b8ff" stroke="#63b8ff" points="1139.28,-62.16 1129.26,-65.61 1139.25,-69.16 1139.28,-62.16"/>
</g>
<!-- Node30&#45;&gt;Node15 -->
<g id="edge49" class="edge">
<title>Node30&#45;&gt;Node15</title>
<path fill="none" stroke="#63b8ff" d="M999.39,-439.55C1035.67,-424.95 1098,-392.32 1098,-340.5 1098,-340.5 1098,-340.5 1098,-283.5 1098,-230.6 1158.83,-201.88 1205.47,-187.63"/>
<polygon fill="#63b8ff" stroke="#63b8ff" points="1206.29,-191.03 1214.93,-184.89 1204.35,-184.31 1206.29,-191.03"/>
</g>
<!-- Node30&#45;&gt;Node18 -->
<g id="edge47" class="edge">
<title>Node30&#45;&gt;Node18</title>
<path fill="none" stroke="#63b8ff" d="M1008.26,-443.45C1059.17,-435.79 1157.77,-420.38 1241,-404 1513.77,-350.3 1838.03,-271.58 1957.14,-242.16"/>
<polygon fill="#63b8ff" stroke="#63b8ff" points="1957.68,-245.63 1966.55,-239.83 1956,-238.84 1957.68,-245.63"/>
</g>
<!-- Node30&#45;&gt;Node20 -->
<g id="edge72" class="edge">
<title>Node30&#45;&gt;Node20</title>
<path fill="none" stroke="#63b8ff" d="M1008.39,-443.97C1068,-436.07 1194.36,-419.2 1301,-404 1866.66,-323.38 2548.57,-219.41 2765.34,-186.2"/>
<polygon fill="#63b8ff" stroke="#63b8ff" points="2765.67,-189.69 2775.03,-184.71 2764.61,-182.77 2765.67,-189.69"/>
</g>
<!-- Node30&#45;&gt;Node31 -->
<g id="edge50" class="edge">
<title>Node30&#45;&gt;Node31</title>
<path fill="none" stroke="#63b8ff" d="M939.54,-443.18C879.36,-433.88 754.73,-414.62 683.66,-403.64"/>
<polygon fill="#63b8ff" stroke="#63b8ff" points="684.23,-400.18 673.81,-402.11 683.16,-407.1 684.23,-400.18"/>
</g>
<!-- Node37 -->
<g id="node37" class="node">
<title>Node37</title>
<g id="a_node37"><a xlink:href="PlayerCollidable_8h.html" target="_top" xlink:title=" ">
<polygon fill="white" stroke="#666666" points="1231.5,-404 1126.5,-404 1126.5,-385 1231.5,-385 1231.5,-404"/>
<text text-anchor="middle" x="1179" y="-392" font-family="Helvetica,sans-Serif" font-size="10.00">PlayerCollidable.h</text>
</a>
</g>
</g>
<!-- Node30&#45;&gt;Node37 -->
<g id="edge70" class="edge">
<title>Node30&#45;&gt;Node37</title>
<path fill="none" stroke="#63b8ff" d="M1008.31,-439.63C1042.65,-430.75 1095.67,-417.04 1133.51,-407.26"/>
<polygon fill="#63b8ff" stroke="#63b8ff" points="1133.96,-410.76 1142.77,-404.87 1132.21,-403.98 1133.96,-410.76"/>
</g>
<!-- Node31&#45;&gt;Node5 -->
<g id="edge66" class="edge">
<title>Node31&#45;&gt;Node5</title>
<path fill="none" stroke="#63b8ff" d="M589.74,-394.23C461.12,-395.4 76,-390.16 76,-285.5 76,-285.5 76,-285.5 76,-173.5 76,-142.13 278.2,-97.32 380.36,-76.69"/>
<polygon fill="#63b8ff" stroke="#63b8ff" points="380.82,-80.17 389.93,-74.77 379.44,-73.31 380.82,-80.17"/>
</g>
<!-- Node31&#45;&gt;Node10 -->
<g id="edge69" class="edge">
<title>Node31&#45;&gt;Node10</title>
<path fill="none" stroke="#63b8ff" d="M589.8,-393.63C481.02,-393.41 188.6,-389 102,-349 65.62,-332.2 38,-325.57 38,-285.5 38,-285.5 38,-285.5 38,-118.5 38,-77.53 328.22,-32.04 438.32,-16.26"/>
<polygon fill="#63b8ff" stroke="#63b8ff" points="438.71,-19.74 448.12,-14.87 437.73,-12.81 438.71,-19.74"/>
</g>
<!-- Node31&#45;&gt;Node11 -->
<g id="edge51" class="edge">
<title>Node31&#45;&gt;Node11</title>
<path fill="none" stroke="#63b8ff" d="M589.51,-392.15C479.73,-387.44 190,-367.28 190,-285.5 190,-285.5 190,-285.5 190,-228.5 190,-198.91 188.98,-185.83 210,-165 237.83,-137.43 282.21,-126.86 314.74,-122.85"/>
<polygon fill="#63b8ff" stroke="#63b8ff" points="315.05,-126.34 324.63,-121.81 314.32,-119.38 315.05,-126.34"/>
</g>
<!-- Node31&#45;&gt;Node20 -->
<g id="edge67" class="edge">
<title>Node31&#45;&gt;Node20</title>
<path fill="none" stroke="#63b8ff" d="M672.17,-390.73C767.74,-384.21 1012.07,-367.1 1216,-349 1621.35,-313.02 1724.95,-313.59 2125,-239 2163.05,-231.9 2171.69,-225.56 2210,-220 2442.34,-186.3 2502.93,-202.14 2737,-184 2743.33,-183.51 2749.88,-182.98 2756.46,-182.44"/>
<polygon fill="#63b8ff" stroke="#63b8ff" points="2756.35,-185.96 2766.03,-181.64 2755.77,-178.99 2756.35,-185.96"/>
</g>
<!-- Node31&#45;&gt;Node26 -->
<g id="edge68" class="edge">
<title>Node31&#45;&gt;Node26</title>
<path fill="none" stroke="#63b8ff" d="M672.31,-385.46C723.29,-373.6 809.87,-346.85 864,-294 892.36,-266.31 907.2,-220.97 913.74,-195.14"/>
<polygon fill="#63b8ff" stroke="#63b8ff" points="917.09,-196.2 915.96,-185.67 910.27,-194.61 917.09,-196.2"/>
</g>
<!-- Node32 -->
<g id="node32" class="node">
<title>Node32</title>
<g id="a_node32"><a xlink:href="Player_8h.html" target="_top" xlink:title=" ">
<polygon fill="white" stroke="#666666" points="1207,-349 1151,-349 1151,-330 1207,-330 1207,-349"/>
<text text-anchor="middle" x="1179" y="-337" font-family="Helvetica,sans-Serif" font-size="10.00">Player.h</text>
</a>
</g>
</g>
<!-- Node31&#45;&gt;Node32 -->
<g id="edge52" class="edge">
<title>Node31&#45;&gt;Node32</title>
<path fill="none" stroke="#63b8ff" d="M672.19,-389.52C774.43,-379.63 1038.79,-354.06 1139.37,-344.33"/>
<polygon fill="#63b8ff" stroke="#63b8ff" points="1139.4,-347.85 1149.01,-343.4 1138.72,-340.88 1139.4,-347.85"/>
</g>
<!-- Node32&#45;&gt;Node3 -->
<g id="edge54" class="edge">
<title>Node32&#45;&gt;Node3</title>
<path fill="none" stroke="#63b8ff" d="M1150.57,-334.21C1087.65,-324.71 936.59,-301.9 865.8,-291.21"/>
<polygon fill="#63b8ff" stroke="#63b8ff" points="866.66,-287.8 856.25,-289.77 865.62,-294.72 866.66,-287.8"/>
</g>
<!-- Node32&#45;&gt;Node12 -->
<g id="edge55" class="edge">
<title>Node32&#45;&gt;Node12</title>
<path fill="none" stroke="#63b8ff" d="M1207.5,-337.94C1441.47,-333.08 3034.22,-295.17 2911,-165 2848.01,-98.45 1403.38,-70.7 1139.26,-66.18"/>
<polygon fill="#63b8ff" stroke="#63b8ff" points="1139.5,-62.68 1129.44,-66.01 1139.38,-69.68 1139.5,-62.68"/>
</g>
<!-- Node32&#45;&gt;Node18 -->
<g id="edge56" class="edge">
<title>Node32&#45;&gt;Node18</title>
<path fill="none" stroke="#63b8ff" d="M1207.4,-334.78C1327.64,-319.04 1795.83,-257.75 1952.56,-237.23"/>
<polygon fill="#63b8ff" stroke="#63b8ff" points="1952.77,-240.74 1962.23,-235.97 1951.86,-233.8 1952.77,-240.74"/>
</g>
<!-- Node32&#45;&gt;Node20 -->
<g id="edge64" class="edge">
<title>Node32&#45;&gt;Node20</title>
<path fill="none" stroke="#63b8ff" d="M1207.43,-335.62C1275.88,-328.67 1455.31,-310.34 1605,-294 1819.78,-270.55 1878.8,-292.98 2088,-239 2109.42,-233.47 2112.44,-224.93 2134,-220 2403.07,-158.46 2478.89,-206.41 2754,-184 2754.85,-183.93 2755.7,-183.86 2756.55,-183.79"/>
<polygon fill="#63b8ff" stroke="#63b8ff" points="2756.68,-187.29 2766.33,-182.92 2756.06,-180.32 2756.68,-187.29"/>
</g>
<!-- Node32&#45;&gt;Node26 -->
<g id="edge65" class="edge">
<title>Node32&#45;&gt;Node26</title>
<path fill="none" stroke="#63b8ff" d="M1162.28,-329.6C1145.66,-320.71 1119.46,-306.59 1097,-294 1054.44,-270.14 1042.65,-265.98 1002,-239 979.21,-223.87 954.36,-204.73 937.65,-191.44"/>
<polygon fill="#63b8ff" stroke="#63b8ff" points="940,-188.84 930.01,-185.31 935.62,-194.3 940,-188.84"/>
</g>
<!-- Node33 -->
<g id="node33" class="node">
<title>Node33</title>
<g id="a_node33"><a xlink:href="Effect_8h.html" target="_top" xlink:title=" ">
<polygon fill="white" stroke="#666666" points="1217.5,-294 1164.5,-294 1164.5,-275 1217.5,-275 1217.5,-294"/>
<text text-anchor="middle" x="1191" y="-282" font-family="Helvetica,sans-Serif" font-size="10.00">Effect.h</text>
</a>
</g>
</g>
<!-- Node32&#45;&gt;Node33 -->
<g id="edge53" class="edge">
<title>Node32&#45;&gt;Node33</title>
<path fill="none" stroke="#63b8ff" d="M1180.98,-329.75C1182.47,-323.19 1184.56,-313.95 1186.45,-305.6"/>
<polygon fill="#63b8ff" stroke="#63b8ff" points="1189.85,-306.44 1188.64,-295.92 1183.02,-304.9 1189.85,-306.44"/>
</g>
<!-- Node34 -->
<g id="node34" class="node">
<title>Node34</title>
<g id="a_node34"><a xlink:href="Effects_8h.html" target="_top" xlink:title=" ">
<polygon fill="white" stroke="#666666" points="1069.5,-239 1010.5,-239 1010.5,-220 1069.5,-220 1069.5,-239"/>
<text text-anchor="middle" x="1040" y="-227" font-family="Helvetica,sans-Serif" font-size="10.00">Effects.h</text>
</a>
</g>
</g>
<!-- Node32&#45;&gt;Node34 -->
<g id="edge57" class="edge">
<title>Node32&#45;&gt;Node34</title>
<path fill="none" stroke="#63b8ff" d="M1167.63,-329.66C1144.21,-311.47 1090.32,-269.6 1060.6,-246.51"/>
<polygon fill="#63b8ff" stroke="#63b8ff" points="1062.77,-243.76 1052.73,-240.39 1058.48,-249.29 1062.77,-243.76"/>
</g>
<!-- Node34&#45;&gt;Node8 -->
<g id="edge63" class="edge">
<title>Node34&#45;&gt;Node8</title>
<path fill="none" stroke="#63b8ff" d="M1010.27,-223.51C959.77,-215.04 856.12,-197.66 788.38,-186.3"/>
<polygon fill="#63b8ff" stroke="#63b8ff" points="789.35,-182.91 778.91,-184.71 788.2,-189.82 789.35,-182.91"/>
</g>
<!-- Node34&#45;&gt;Node12 -->
<g id="edge59" class="edge">
<title>Node34&#45;&gt;Node12</title>
<path fill="none" stroke="#63b8ff" d="M1069.96,-221.91C1103,-213.97 1152.94,-199.71 1164,-184 1168.86,-177.09 1169.22,-171.64 1164,-165 1121.86,-111.47 1057.14,-182.53 1015,-129 998.33,-107.83 1028.94,-89.85 1057.58,-78.48"/>
<polygon fill="#63b8ff" stroke="#63b8ff" points="1058.8,-81.76 1066.94,-74.99 1056.35,-75.21 1058.8,-81.76"/>
</g>
<!-- Node34&#45;&gt;Node16 -->
<g id="edge61" class="edge">
<title>Node34&#45;&gt;Node16</title>
<path fill="none" stroke="#63b8ff" d="M1069.6,-228.3C1133.85,-227.19 1282.85,-220.62 1314,-184 1324.17,-172.05 1323.03,-153.76 1320.01,-139.88"/>
<polygon fill="#63b8ff" stroke="#63b8ff" points="1323.48,-139.29 1317.51,-130.54 1316.72,-141.1 1323.48,-139.29"/>
</g>
<!-- Node34&#45;&gt;Node26 -->
<g id="edge62" class="edge">
<title>Node34&#45;&gt;Node26</title>
<path fill="none" stroke="#63b8ff" d="M1019.3,-219.51C1000,-211.12 970.94,-198.5 948.89,-188.92"/>
<polygon fill="#63b8ff" stroke="#63b8ff" points="950.34,-185.74 939.78,-184.96 947.56,-192.16 950.34,-185.74"/>
</g>
<!-- Node35 -->
<g id="node35" class="node">
<title>Node35</title>
<g id="a_node35"><a xlink:title=" ">
<polygon fill="#e0e0e0" stroke="#999999" points="1155,-184 1091,-184 1091,-165 1155,-165 1155,-184"/>
<text text-anchor="middle" x="1123" y="-172" font-family="Helvetica,sans-Serif" font-size="10.00">algorithm</text>
</a>
</g>
</g>
<!-- Node34&#45;&gt;Node35 -->
<g id="edge58" class="edge">
<title>Node34&#45;&gt;Node35</title>
<path fill="none" stroke="#63b8ff" d="M1054.08,-219.51C1066.56,-211.54 1085.02,-199.75 1099.69,-190.38"/>
<polygon fill="#63b8ff" stroke="#63b8ff" points="1101.31,-193.5 1107.85,-185.17 1097.54,-187.6 1101.31,-193.5"/>
</g>
<!-- Node36 -->
<g id="node36" class="node">
<title>Node36</title>
<g id="a_node36"><a xlink:title=" ">
<polygon fill="#e0e0e0" stroke="#999999" points="1072.5,-184 1007.5,-184 1007.5,-165 1072.5,-165 1072.5,-184"/>
<text text-anchor="middle" x="1040" y="-172" font-family="Helvetica,sans-Serif" font-size="10.00">functional</text>
</a>
</g>
</g>
<!-- Node34&#45;&gt;Node36 -->
<g id="edge60" class="edge">
<title>Node34&#45;&gt;Node36</title>
<path fill="none" stroke="#63b8ff" d="M1040,-219.75C1040,-213.27 1040,-204.16 1040,-195.9"/>
<polygon fill="#63b8ff" stroke="#63b8ff" points="1043.5,-195.96 1040,-185.96 1036.5,-195.96 1043.5,-195.96"/>
</g>
<!-- Node37&#45;&gt;Node32 -->
<g id="edge71" class="edge">
<title>Node37&#45;&gt;Node32</title>
<path fill="none" stroke="#63b8ff" d="M1179,-384.75C1179,-378.27 1179,-369.16 1179,-360.9"/>
<polygon fill="#63b8ff" stroke="#63b8ff" points="1182.5,-360.96 1179,-350.96 1175.5,-360.96 1182.5,-360.96"/>
</g>
</g>
</svg>
        <g id="navigator" transform="translate(0 0)" fill="#404254">
                <rect fill="#f2f5e9" fill-opacity="0.5" stroke="#606060" stroke-width=".5" x="0" y="0" width="60" height="60"/>
                <use id="zoomplus" xlink:href="#zoomPlus" x="17" y="9" onmousedown="handleZoom(evt,'in')"/>
                <use id="zoomminus" xlink:href="#zoomMin" x="42" y="9" onmousedown="handleZoom(evt,'out')"/>
                <use id="reset" xlink:href="#resetDef" x="30" y="36" onmousedown="handleReset()"/>
                <g id="arrowUp" xlink:href="#dirArrow" transform="translate(30 24)" onmousedown="handlePan(0,-1)">
                  <use xlink:href="#rim" fill="#404040">
                        <set attributeName="fill" to="#808080" begin="arrowUp.mouseover" end="arrowUp.mouseout"/>
                  </use>
                  <path fill="none" stroke="white" stroke-width="1.5" d="M0,-3.0v7 M-2.5,-0.5L0,-3.0L2.5,-0.5"/>
                </g>
                <g id="arrowRight" xlink:href="#dirArrow" transform="rotate(90) translate(36 -43)" onmousedown="handlePan(1,0)">
                  <use xlink:href="#rim" fill="#404040">
                        <set attributeName="fill" to="#808080" begin="arrowRight.mouseover" end="arrowRight.mouseout"/>
                  </use>
                  <path fill="none" stroke="white" stroke-width="1.5" d="M0,-3.0v7 M-2.5,-0.5L0,-3.0L2.5,-0.5"/>
                </g>
                <g id="arrowDown" xlink:href="#dirArrow" transform="rotate(180) translate(-30 -48)" onmousedown="handlePan(0,1)">
                  <use xlink:href="#rim" fill="#404040">
                        <set attributeName="fill" to="#808080" begin="arrowDown.mouseover" end="arrowDown.mouseout"/>
                  </use>
                  <path fill="none" stroke="white" stroke-width="1.5" d="M0,-3.0v7 M-2.5,-0.5L0,-3.0L2.5,-0.5"/>
                </g>
                <g id="arrowLeft" xlink:href="#dirArrow" transform="rotate(270) translate(-36 17)" onmousedown="handlePan(-1,0)">
                  <use xlink:href="#rim" fill="#404040">
                        <set attributeName="fill" to="#808080" begin="arrowLeft.mouseover" end="arrowLeft.mouseout"/>
                  </use>
                  <path fill="none" stroke="white" stroke-width="1.5" d="M0,-3.0v7 M-2.5,-0.5L0,-3.0L2.5,-0.5"/>
                </g>
        </g>
        <svg viewBox="0 0 15 15" width="100%" height="30px" preserveAspectRatio="xMaxYMin meet">
         <g id="arrow_out" transform="scale(0.3 0.3)">
          <a xlink:href="Commuters_8cpp__incl_org.svg" target="_base">
           <rect id="button" ry="5" rx="5" y="6" x="6" height="38" width="38"
                fill="#f2f5e9" fill-opacity="0.5" stroke="#606060" stroke-width="1.0"/>
           <path id="arrow"
             d="M 11.500037,31.436501 C 11.940474,20.09759 22.043105,11.32322 32.158766,21.979434 L 37.068811,17.246167 C 37.068811,17.246167 37.088388,32 37.088388,32 L 22.160133,31.978069 C 22.160133,31.978069 26.997745,27.140456 26.997745,27.140456 C 18.528582,18.264221 13.291696,25.230495 11.500037,31.436501 z"
             style="fill:#404040;"/>
          </a>
         </g>
        </svg>
</svg>
