<?xml version="1.0" encoding="UTF-8" standalone="no"?>
<!DOCTYPE svg PUBLIC "-//W3C//DTD SVG 1.1//EN"
 "http://www.w3.org/Graphics/SVG/1.1/DTD/svg11.dtd">
<!-- Generated by graphviz version 7.0.5 (0)
 -->
<!-- Title: src/Commuters.h Pages: 1 -->
<svg width="1016pt" height="247pt"
 viewBox="0.00 0.00 1015.50 247.00" xmlns="http://www.w3.org/2000/svg" xmlns:xlink="http://www.w3.org/1999/xlink">
<g id="graph0" class="graph" transform="scale(1 1) rotate(0) translate(4 243)">
<title>src/Commuters.h</title>
<!-- Node1 -->
<g id="node1" class="node">
<title>Node1</title>
<g id="a_node1"><a xlink:title=" ">
<polygon fill="#999999" stroke="#666666" points="479.5,-239 379.5,-239 379.5,-220 479.5,-220 479.5,-239"/>
<text text-anchor="middle" x="429.5" y="-227" font-family="Helvetica,sans-Serif" font-size="10.00">src/Commuters.h</text>
</a>
</g>
</g>
<!-- Node2 -->
<g id="node2" class="node">
<title>Node2</title>
<g id="a_node2"><a xlink:href="Commuters_8cpp.html" target="_top" xlink:title=" ">
<polygon fill="white" stroke="#666666" points="111,-184 0,-184 0,-165 111,-165 111,-184"/>
<text text-anchor="middle" x="55.5" y="-172" font-family="Helvetica,sans-Serif" font-size="10.00">src/Commuters.cpp</text>
</a>
</g>
</g>
<!-- Node1&#45;&gt;Node2 -->
<g id="edge1" class="edge">
<title>Node1&#45;&gt;Node2</title>
<path fill="none" stroke="#63b8ff" d="M368.01,-219.79C296.66,-209.67 180.02,-193.15 111.22,-183.4"/>
<polygon fill="#63b8ff" stroke="#63b8ff" points="367.17,-223.2 377.56,-221.14 368.15,-216.27 367.17,-223.2"/>
</g>
<!-- Node3 -->
<g id="node3" class="node">
<title>Node3</title>
<g id="a_node3"><a xlink:href="GameLoader_8cpp.html" target="_top" xlink:title=" ">
<polygon fill="white" stroke="#666666" points="507.5,-19 391.5,-19 391.5,0 507.5,0 507.5,-19"/>
<text text-anchor="middle" x="449.5" y="-7" font-family="Helvetica,sans-Serif" font-size="10.00">src/GameLoader.cpp</text>
</a>
</g>
</g>
<!-- Node1&#45;&gt;Node3 -->
<g id="edge2" class="edge">
<title>Node1&#45;&gt;Node3</title>
<path fill="none" stroke="#63b8ff" d="M375.37,-216.96C277.69,-193.79 88.31,-136.74 158.5,-55 162.28,-50.6 307.37,-30.02 391.22,-18.45"/>
<polygon fill="#63b8ff" stroke="#63b8ff" points="374.51,-220.36 385.05,-219.21 376.1,-213.54 374.51,-220.36"/>
</g>
<!-- Node4 -->
<g id="node4" class="node">
<title>Node4</title>
<g id="a_node4"><a xlink:href="RoadLane_8cpp.html" target="_top" xlink:title=" ">
<polygon fill="white" stroke="#666666" points="996.5,-129 894.5,-129 894.5,-110 996.5,-110 996.5,-129"/>
<text text-anchor="middle" x="945.5" y="-117" font-family="Helvetica,sans-Serif" font-size="10.00">src/RoadLane.cpp</text>
</a>
</g>
</g>
<!-- Node1&#45;&gt;Node4 -->
<g id="edge3" class="edge">
<title>Node1&#45;&gt;Node4</title>
<path fill="none" stroke="#63b8ff" d="M490.87,-225.12C589.18,-219.16 777.3,-205.36 840.5,-184 878.04,-171.31 916.46,-143.54 934.66,-129.3"/>
<polygon fill="#63b8ff" stroke="#63b8ff" points="490.92,-221.61 481.14,-225.7 491.34,-228.6 490.92,-221.61"/>
</g>
<!-- Node5 -->
<g id="node5" class="node">
<title>Node5</title>
<g id="a_node5"><a xlink:href="RoadLane_8h.html" target="_top" xlink:title=" ">
<polygon fill="white" stroke="#666666" points="831,-184 740,-184 740,-165 831,-165 831,-184"/>
<text text-anchor="middle" x="785.5" y="-172" font-family="Helvetica,sans-Serif" font-size="10.00">src/RoadLane.h</text>
</a>
</g>
</g>
<!-- Node1&#45;&gt;Node5 -->
<g id="edge4" class="edge">
<title>Node1&#45;&gt;Node5</title>
<path fill="none" stroke="#63b8ff" d="M490.71,-219.39C561.47,-208.85 676.3,-191.76 739.74,-182.31"/>
<polygon fill="#63b8ff" stroke="#63b8ff" points="490.62,-215.86 481.25,-220.8 491.65,-222.79 490.62,-215.86"/>
</g>
<!-- Node5&#45;&gt;Node4 -->
<g id="edge6" class="edge">
<title>Node5&#45;&gt;Node4</title>
<path fill="none" stroke="#63b8ff" d="M823.29,-160.98C852.55,-151.29 892.37,-138.1 918.49,-129.45"/>
<polygon fill="#63b8ff" stroke="#63b8ff" points="822.47,-157.57 814.08,-164.03 824.67,-164.21 822.47,-157.57"/>
</g>
<!-- Node6 -->
<g id="node6" class="node">
<title>Node6</title>
<g id="a_node6"><a xlink:href="LevelGenerator_8cpp.html" target="_top" xlink:title=" ">
<polygon fill="white" stroke="#666666" points="1007.5,-74 879.5,-74 879.5,-55 1007.5,-55 1007.5,-74"/>
<text text-anchor="middle" x="943.5" y="-62" font-family="Helvetica,sans-Serif" font-size="10.00">src/LevelGenerator.cpp</text>
</a>
</g>
</g>
<!-- Node5&#45;&gt;Node6 -->
<g id="edge5" class="edge">
<title>Node5&#45;&gt;Node6</title>
<path fill="none" stroke="#63b8ff" d="M807.82,-158.24C841.28,-135.37 903.39,-92.92 930.39,-74.46"/>
<polygon fill="#63b8ff" stroke="#63b8ff" points="805.96,-155.28 799.68,-163.81 809.91,-161.05 805.96,-155.28"/>
</g>
<!-- Node7 -->
<g id="node7" class="node">
<title>Node7</title>
<g id="a_node7"><a xlink:href="RoadLaneController_8h.html" target="_top" xlink:title=" ">
<polygon fill="white" stroke="#666666" points="582.5,-129 444.5,-129 444.5,-110 582.5,-110 582.5,-129"/>
<text text-anchor="middle" x="513.5" y="-117" font-family="Helvetica,sans-Serif" font-size="10.00">src/RoadLaneController.h</text>
</a>
</g>
</g>
<!-- Node5&#45;&gt;Node7 -->
<g id="edge7" class="edge">
<title>Node5&#45;&gt;Node7</title>
<path fill="none" stroke="#63b8ff" d="M728.68,-162.43C678.47,-152.65 606.18,-138.56 559.52,-129.47"/>
<polygon fill="#63b8ff" stroke="#63b8ff" points="727.7,-165.8 738.18,-164.28 729.03,-158.93 727.7,-165.8"/>
</g>
<!-- Node16 -->
<g id="node16" class="node">
<title>Node16</title>
<g id="a_node16"><a xlink:href="SceneBuilder_8h.html" target="_top" xlink:title=" ">
<polygon fill="white" stroke="#666666" points="838.5,-129 732.5,-129 732.5,-110 838.5,-110 838.5,-129"/>
<text text-anchor="middle" x="785.5" y="-117" font-family="Helvetica,sans-Serif" font-size="10.00">src/SceneBuilder.h</text>
</a>
</g>
</g>
<!-- Node5&#45;&gt;Node16 -->
<g id="edge22" class="edge">
<title>Node5&#45;&gt;Node16</title>
<path fill="none" stroke="#63b8ff" d="M785.5,-153.35C785.5,-145.1 785.5,-135.97 785.5,-129.44"/>
<polygon fill="#63b8ff" stroke="#63b8ff" points="782,-153.23 785.5,-163.23 789,-153.23 782,-153.23"/>
</g>
<!-- Node7&#45;&gt;Node3 -->
<g id="edge12" class="edge">
<title>Node7&#45;&gt;Node3</title>
<path fill="none" stroke="#63b8ff" d="M433.06,-113.22C406.99,-107.22 380.66,-95.69 364.5,-74 346.23,-49.48 387.4,-30.06 418.6,-19.43"/>
<polygon fill="#63b8ff" stroke="#63b8ff" points="432.21,-116.62 442.7,-115.16 433.59,-109.75 432.21,-116.62"/>
</g>
<!-- Node8 -->
<g id="node8" class="node">
<title>Node8</title>
<g id="a_node8"><a xlink:href="AnimalLaneController_8h.html" target="_top" xlink:title=" ">
<polygon fill="white" stroke="#666666" points="521.5,-74 373.5,-74 373.5,-55 521.5,-55 521.5,-74"/>
<text text-anchor="middle" x="447.5" y="-62" font-family="Helvetica,sans-Serif" font-size="10.00">src/AnimalLaneController.h</text>
</a>
</g>
</g>
<!-- Node7&#45;&gt;Node8 -->
<g id="edge8" class="edge">
<title>Node7&#45;&gt;Node8</title>
<path fill="none" stroke="#63b8ff" d="M493.41,-102.37C481.95,-93.16 468.02,-81.98 458.53,-74.36"/>
<polygon fill="#63b8ff" stroke="#63b8ff" points="491.14,-105.03 501.12,-108.56 495.52,-99.57 491.14,-105.03"/>
</g>
<!-- Node11 -->
<g id="node11" class="node">
<title>Node11</title>
<g id="a_node11"><a xlink:href="RiverController_8h.html" target="_top" xlink:title=" ">
<polygon fill="white" stroke="#666666" points="655.5,-74 539.5,-74 539.5,-55 655.5,-55 655.5,-74"/>
<text text-anchor="middle" x="597.5" y="-62" font-family="Helvetica,sans-Serif" font-size="10.00">src/RiverController.h</text>
</a>
</g>
</g>
<!-- Node7&#45;&gt;Node11 -->
<g id="edge13" class="edge">
<title>Node7&#45;&gt;Node11</title>
<path fill="none" stroke="#63b8ff" d="M537.34,-103.46C552.23,-94.06 570.9,-82.28 583.46,-74.36"/>
<polygon fill="#63b8ff" stroke="#63b8ff" points="535.62,-100.41 529.03,-108.7 539.35,-106.33 535.62,-100.41"/>
</g>
<!-- Node13 -->
<g id="node13" class="node">
<title>Node13</title>
<g id="a_node13"><a xlink:href="RoadLaneController_8cpp.html" target="_top" xlink:title=" ">
<polygon fill="white" stroke="#666666" points="317,-74 168,-74 168,-55 317,-55 317,-74"/>
<text text-anchor="middle" x="242.5" y="-62" font-family="Helvetica,sans-Serif" font-size="10.00">src/RoadLaneController.cpp</text>
</a>
</g>
</g>
<!-- Node7&#45;&gt;Node13 -->
<g id="edge17" class="edge">
<title>Node7&#45;&gt;Node13</title>
<path fill="none" stroke="#63b8ff" d="M456.25,-107.3C406.22,-97.52 334.53,-83.5 288.24,-74.45"/>
<polygon fill="#63b8ff" stroke="#63b8ff" points="455.56,-110.73 466.04,-109.22 456.9,-103.86 455.56,-110.73"/>
</g>
<!-- Node14 -->
<g id="node14" class="node">
<title>Node14</title>
<g id="a_node14"><a xlink:href="VehicleLaneController_8h.html" target="_top" xlink:title=" ">
<polygon fill="white" stroke="#666666" points="823,-74 674,-74 674,-55 823,-55 823,-74"/>
<text text-anchor="middle" x="748.5" y="-62" font-family="Helvetica,sans-Serif" font-size="10.00">src/VehicleLaneController.h</text>
</a>
</g>
</g>
<!-- Node7&#45;&gt;Node14 -->
<g id="edge18" class="edge">
<title>Node7&#45;&gt;Node14</title>
<path fill="none" stroke="#63b8ff" d="M564.52,-106.99C607.83,-97.22 669.12,-83.4 708.83,-74.45"/>
<polygon fill="#63b8ff" stroke="#63b8ff" points="563.83,-103.56 554.84,-109.18 565.37,-110.39 563.83,-103.56"/>
</g>
<!-- Node8&#45;&gt;Node3 -->
<g id="edge10" class="edge">
<title>Node8&#45;&gt;Node3</title>
<path fill="none" stroke="#63b8ff" d="M448.26,-43.35C448.57,-35.1 448.92,-25.97 449.16,-19.44"/>
<polygon fill="#63b8ff" stroke="#63b8ff" points="444.77,-43.11 447.89,-53.24 451.76,-43.37 444.77,-43.11"/>
</g>
<!-- Node9 -->
<g id="node9" class="node">
<title>Node9</title>
<g id="a_node9"><a xlink:href="AnimalLaneController_8cpp.html" target="_top" xlink:title=" ">
<polygon fill="white" stroke="#666666" points="373,-19 214,-19 214,0 373,0 373,-19"/>
<text text-anchor="middle" x="293.5" y="-7" font-family="Helvetica,sans-Serif" font-size="10.00">src/AnimalLaneController.cpp</text>
</a>
</g>
</g>
<!-- Node8&#45;&gt;Node9 -->
<g id="edge9" class="edge">
<title>Node8&#45;&gt;Node9</title>
<path fill="none" stroke="#63b8ff" d="M410.76,-50.85C382.63,-41.17 344.53,-28.06 319.49,-19.45"/>
<polygon fill="#63b8ff" stroke="#63b8ff" points="409.35,-54.07 419.94,-54.02 411.63,-47.45 409.35,-54.07"/>
</g>
<!-- Node10 -->
<g id="node10" class="node">
<title>Node10</title>
<g id="a_node10"><a xlink:href="SceneBuilder_8cpp.html" target="_top" xlink:title=" ">
<polygon fill="white" stroke="#666666" points="793,-19 676,-19 676,0 793,0 793,-19"/>
<text text-anchor="middle" x="734.5" y="-7" font-family="Helvetica,sans-Serif" font-size="10.00">src/SceneBuilder.cpp</text>
</a>
</g>
</g>
<!-- Node8&#45;&gt;Node10 -->
<g id="edge11" class="edge">
<title>Node8&#45;&gt;Node10</title>
<path fill="none" stroke="#63b8ff" d="M507.46,-52.43C560.47,-42.64 636.83,-28.54 686.06,-19.45"/>
<polygon fill="#63b8ff" stroke="#63b8ff" points="506.87,-48.98 497.67,-54.23 508.14,-55.86 506.87,-48.98"/>
</g>
<!-- Node11&#45;&gt;Node3 -->
<g id="edge14" class="edge">
<title>Node11&#45;&gt;Node3</title>
<path fill="none" stroke="#63b8ff" d="M561.79,-50.71C534.71,-41.01 498.17,-27.93 474.24,-19.36"/>
<polygon fill="#63b8ff" stroke="#63b8ff" points="560.37,-53.92 570.97,-54 562.73,-47.33 560.37,-53.92"/>
</g>
<!-- Node11&#45;&gt;Node10 -->
<g id="edge16" class="edge">
<title>Node11&#45;&gt;Node10</title>
<path fill="none" stroke="#63b8ff" d="M631.22,-50.45C656.23,-40.78 689.64,-27.85 711.6,-19.36"/>
<polygon fill="#63b8ff" stroke="#63b8ff" points="630.22,-47.09 622.15,-53.96 632.74,-53.62 630.22,-47.09"/>
</g>
<!-- Node12 -->
<g id="node12" class="node">
<title>Node12</title>
<g id="a_node12"><a xlink:href="RiverController_8cpp.html" target="_top" xlink:title=" ">
<polygon fill="white" stroke="#666666" points="658,-19 531,-19 531,0 658,0 658,-19"/>
<text text-anchor="middle" x="594.5" y="-7" font-family="Helvetica,sans-Serif" font-size="10.00">src/RiverController.cpp</text>
</a>
</g>
</g>
<!-- Node11&#45;&gt;Node12 -->
<g id="edge15" class="edge">
<title>Node11&#45;&gt;Node12</title>
<path fill="none" stroke="#63b8ff" d="M596.36,-43.35C595.89,-35.1 595.38,-25.97 595.01,-19.44"/>
<polygon fill="#63b8ff" stroke="#63b8ff" points="592.86,-43.45 596.92,-53.24 599.85,-43.06 592.86,-43.45"/>
</g>
<!-- Node14&#45;&gt;Node3 -->
<g id="edge19" class="edge">
<title>Node14&#45;&gt;Node3</title>
<path fill="none" stroke="#63b8ff" d="M686.73,-52.55C631.47,-42.76 551.47,-28.58 499.97,-19.45"/>
<polygon fill="#63b8ff" stroke="#63b8ff" points="685.83,-55.95 696.29,-54.25 687.05,-49.05 685.83,-55.95"/>
</g>
<!-- Node14&#45;&gt;Node10 -->
<g id="edge20" class="edge">
<title>Node14&#45;&gt;Node10</title>
<path fill="none" stroke="#63b8ff" d="M743.25,-43.64C741.05,-35.31 738.61,-26.05 736.86,-19.44"/>
<polygon fill="#63b8ff" stroke="#63b8ff" points="739.86,-44.51 745.8,-53.28 746.63,-42.72 739.86,-44.51"/>
</g>
<!-- Node15 -->
<g id="node15" class="node">
<title>Node15</title>
<g id="a_node15"><a xlink:href="VehicleLaneController_8cpp.html" target="_top" xlink:title=" ">
<polygon fill="white" stroke="#666666" points="971.5,-19 811.5,-19 811.5,0 971.5,0 971.5,-19"/>
<text text-anchor="middle" x="891.5" y="-7" font-family="Helvetica,sans-Serif" font-size="10.00">src/VehicleLaneController.cpp</text>
</a>
</g>
</g>
<!-- Node14&#45;&gt;Node15 -->
<g id="edge21" class="edge">
<title>Node14&#45;&gt;Node15</title>
<path fill="none" stroke="#63b8ff" d="M783.35,-50.58C809.49,-40.9 844.58,-27.89 867.6,-19.36"/>
<polygon fill="#63b8ff" stroke="#63b8ff" points="782.34,-47.23 774.18,-53.98 784.77,-53.79 782.34,-47.23"/>
</g>
<!-- Node16&#45;&gt;Node6 -->
<g id="edge23" class="edge">
<title>Node16&#45;&gt;Node6</title>
<path fill="none" stroke="#63b8ff" d="M823.2,-105.85C852.06,-96.17 891.15,-83.06 916.83,-74.45"/>
<polygon fill="#63b8ff" stroke="#63b8ff" points="822.11,-102.53 813.74,-109.03 824.33,-109.17 822.11,-102.53"/>
</g>
<!-- Node16&#45;&gt;Node10 -->
<g id="edge24" class="edge">
<title>Node16&#45;&gt;Node10</title>
<path fill="none" stroke="#63b8ff" d="M809.52,-103.15C826.15,-90.54 843.47,-72.03 832.5,-55 820.71,-36.7 799.36,-25.84 779.58,-19.44"/>
<polygon fill="#63b8ff" stroke="#63b8ff" points="807.92,-100 801.78,-108.64 811.96,-105.72 807.92,-100"/>
</g>
</g>
</svg>
