<?xml version="1.0" encoding="UTF-8" standalone="no"?>
<!DOCTYPE svg PUBLIC "-//W3C//DTD SVG 1.1//EN"
 "http://www.w3.org/Graphics/SVG/1.1/DTD/svg11.dtd">
<!-- Generated by graphviz version 7.0.5 (0)
 -->
<!-- Title: src/Consts.h Pages: 1 -->
<svg width="314pt" height="137pt"
 viewBox="0.00 0.00 314.00 137.00" xmlns="http://www.w3.org/2000/svg" xmlns:xlink="http://www.w3.org/1999/xlink">
<g id="graph0" class="graph" transform="scale(1 1) rotate(0) translate(4 133)">
<title>src/Consts.h</title>
<!-- Node1 -->
<g id="node1" class="node">
<title>Node1</title>
<g id="a_node1"><a xlink:title=" ">
<polygon fill="#999999" stroke="#666666" points="196,-129 120,-129 120,-110 196,-110 196,-129"/>
<text text-anchor="middle" x="158" y="-117" font-family="Helvetica,sans-Serif" font-size="10.00">src/Consts.h</text>
</a>
</g>
</g>
<!-- Node2 -->
<g id="node2" class="node">
<title>Node2</title>
<g id="a_node2"><a xlink:title=" ">
<polygon fill="#e0e0e0" stroke="#999999" points="110,-74 0,-74 0,-55 110,-55 110,-74"/>
<text text-anchor="middle" x="55" y="-62" font-family="Helvetica,sans-Serif" font-size="10.00">SFML/Graphics.hpp</text>
</a>
</g>
</g>
<!-- Node1&#45;&gt;Node2 -->
<g id="edge1" class="edge">
<title>Node1&#45;&gt;Node2</title>
<path fill="none" stroke="#63b8ff" d="M140.53,-109.51C124.6,-101.31 100.81,-89.07 82.36,-79.58"/>
<polygon fill="#63b8ff" stroke="#63b8ff" points="84.05,-76.51 73.56,-75.05 80.85,-82.74 84.05,-76.51"/>
</g>
<!-- Node3 -->
<g id="node3" class="node">
<title>Node3</title>
<g id="a_node3"><a xlink:href="Enums_8h.html" target="_top" xlink:title=" ">
<polygon fill="white" stroke="#666666" points="187.5,-74 128.5,-74 128.5,-55 187.5,-55 187.5,-74"/>
<text text-anchor="middle" x="158" y="-62" font-family="Helvetica,sans-Serif" font-size="10.00">Enums.h</text>
</a>
</g>
</g>
<!-- Node1&#45;&gt;Node3 -->
<g id="edge2" class="edge">
<title>Node1&#45;&gt;Node3</title>
<path fill="none" stroke="#63b8ff" d="M158,-109.75C158,-103.27 158,-94.16 158,-85.9"/>
<polygon fill="#63b8ff" stroke="#63b8ff" points="161.5,-85.96 158,-75.96 154.5,-85.96 161.5,-85.96"/>
</g>
<!-- Node4 -->
<g id="node4" class="node">
<title>Node4</title>
<g id="a_node4"><a xlink:href="Random_8h.html" target="_top" xlink:title=" ">
<polygon fill="white" stroke="#666666" points="272,-74 206,-74 206,-55 272,-55 272,-74"/>
<text text-anchor="middle" x="239" y="-62" font-family="Helvetica,sans-Serif" font-size="10.00">Random.h</text>
</a>
</g>
</g>
<!-- Node1&#45;&gt;Node4 -->
<g id="edge3" class="edge">
<title>Node1&#45;&gt;Node4</title>
<path fill="none" stroke="#63b8ff" d="M171.74,-109.51C183.8,-101.62 201.59,-89.98 215.84,-80.65"/>
<polygon fill="#63b8ff" stroke="#63b8ff" points="217.74,-83.59 224.2,-75.19 213.91,-77.73 217.74,-83.59"/>
</g>
<!-- Node5 -->
<g id="node5" class="node">
<title>Node5</title>
<g id="a_node5"><a xlink:title=" ">
<polygon fill="#e0e0e0" stroke="#999999" points="228,-19 174,-19 174,0 228,0 228,-19"/>
<text text-anchor="middle" x="201" y="-7" font-family="Helvetica,sans-Serif" font-size="10.00">random</text>
</a>
</g>
</g>
<!-- Node4&#45;&gt;Node5 -->
<g id="edge4" class="edge">
<title>Node4&#45;&gt;Node5</title>
<path fill="none" stroke="#63b8ff" d="M232.73,-54.75C227.64,-47.66 220.3,-37.42 213.97,-28.59"/>
<polygon fill="#63b8ff" stroke="#63b8ff" points="216.96,-26.76 208.29,-20.67 211.28,-30.84 216.96,-26.76"/>
</g>
<!-- Node6 -->
<g id="node6" class="node">
<title>Node6</title>
<g id="a_node6"><a xlink:title=" ">
<polygon fill="#e0e0e0" stroke="#999999" points="306,-19 246,-19 246,0 306,0 306,-19"/>
<text text-anchor="middle" x="276" y="-7" font-family="Helvetica,sans-Serif" font-size="10.00">iostream</text>
</a>
</g>
</g>
<!-- Node4&#45;&gt;Node6 -->
<g id="edge5" class="edge">
<title>Node4&#45;&gt;Node6</title>
<path fill="none" stroke="#63b8ff" d="M245.11,-54.75C250.01,-47.73 257.05,-37.64 263.17,-28.87"/>
<polygon fill="#63b8ff" stroke="#63b8ff" points="266.04,-30.89 268.89,-20.68 260.3,-26.88 266.04,-30.89"/>
</g>
</g>
</svg>
