<?xml version="1.0" encoding="UTF-8" standalone="no"?>
<!DOCTYPE svg PUBLIC "-//W3C//DTD SVG 1.1//EN"
 "http://www.w3.org/Graphics/SVG/1.1/DTD/svg11.dtd">
<!-- Generated by graphviz version 7.0.5 (0)
 -->
<!-- Title: src/Entity.cpp Pages: 1 -->
<!--zoomable 357 -->
<svg id="main" version="1.1" xmlns="http://www.w3.org/2000/svg" xmlns:xlink="http://www.w3.org/1999/xlink" xml:space="preserve" onload="init(evt)">
<style type="text/css"><![CDATA[
.edge:hover path { stroke: red; }
.edge:hover polygon { stroke: red; fill: red; }
]]></style>
<script type="text/javascript"><![CDATA[
var edges = document.getElementsByTagName('g');
if (edges && edges.length) {
  for (var i=0;i<edges.length;i++) {
    if (edges[i].id.substr(0,4)=='edge') {
      edges[i].setAttribute('class','edge');
    }
  }
}
]]></script>
        <defs>
                <circle id="rim" cx="0" cy="0" r="7"/>
                <circle id="rim2" cx="0" cy="0" r="3.5"/>
                <g id="zoomPlus">
                        <use xlink:href="#rim" fill="#404040">
                                <set attributeName="fill" to="#808080" begin="zoomplus.mouseover" end="zoomplus.mouseout"/>
                        </use>
                        <path d="M-4,0h8M0,-4v8" fill="none" stroke="white" stroke-width="1.5" pointer-events="none"/>
                </g>
                <g id="zoomMin">
                        <use xlink:href="#rim" fill="#404040">
                                <set attributeName="fill" to="#808080" begin="zoomminus.mouseover" end="zoomminus.mouseout"/>
                        </use>
                        <path d="M-4,0h8" fill="none" stroke="white" stroke-width="1.5" pointer-events="none"/>
                </g>
                <g id="dirArrow">
                        <path fill="none" stroke="white" stroke-width="1.5" d="M0,-3.0v7 M-2.5,-0.5L0,-3.0L2.5,-0.5"/>
                </g>
               <g id="resetDef">
                       <use xlink:href="#rim2" fill="#404040">
                               <set attributeName="fill" to="#808080" begin="reset.mouseover" end="reset.mouseout"/>
                       </use>
               </g>
        </defs>

<script type="text/javascript">
var viewWidth = 2462;
var viewHeight = 357;
var sectionId = 'dynsection-0';
</script>
<script xlink:href="svgpan.js"/>
<svg id="graph" class="graph">
<g id="viewport">
<title>src/Entity.cpp</title>
<!-- Node1 -->
<g id="node1" class="node">
<title>Node1</title>
<g id="a_node1"><a xlink:title=" ">
<polygon fill="#999999" stroke="#666666" points="1640.73,-349 1559.73,-349 1559.73,-330 1640.73,-330 1640.73,-349"/>
<text text-anchor="middle" x="1600.23" y="-337" font-family="Helvetica,sans-Serif" font-size="10.00">src/Entity.cpp</text>
</a>
</g>
</g>
<!-- Node2 -->
<g id="node2" class="node">
<title>Node2</title>
<g id="a_node2"><a xlink:href="Entity_8h.html" target="_top" xlink:title=" ">
<polygon fill="white" stroke="#666666" points="1588.73,-294 1535.73,-294 1535.73,-275 1588.73,-275 1588.73,-294"/>
<text text-anchor="middle" x="1562.23" y="-282" font-family="Helvetica,sans-Serif" font-size="10.00">Entity.h</text>
</a>
</g>
</g>
<!-- Node1&#45;&gt;Node2 -->
<g id="edge1" class="edge">
<title>Node1&#45;&gt;Node2</title>
<path fill="none" stroke="#63b8ff" d="M1593.95,-329.75C1588.87,-322.66 1581.53,-312.42 1575.2,-303.59"/>
<polygon fill="#63b8ff" stroke="#63b8ff" points="1578.19,-301.76 1569.52,-295.67 1572.5,-305.84 1578.19,-301.76"/>
</g>
<!-- Node9 -->
<g id="node9" class="node">
<title>Node9</title>
<g id="a_node9"><a xlink:title=" ">
<polygon fill="#e0e0e0" stroke="#999999" points="2271.23,-19 2211.23,-19 2211.23,0 2271.23,0 2271.23,-19"/>
<text text-anchor="middle" x="2241.23" y="-7" font-family="Helvetica,sans-Serif" font-size="10.00">iostream</text>
</a>
</g>
</g>
<!-- Node1&#45;&gt;Node9 -->
<g id="edge45" class="edge">
<title>Node1&#45;&gt;Node9</title>
<path fill="none" stroke="#63b8ff" d="M1640.86,-337.81C1771.7,-335.29 2180.97,-325.08 2309.23,-294 2377.6,-277.43 2454.23,-300.85 2454.23,-230.5 2454.23,-230.5 2454.23,-230.5 2454.23,-118.5 2454.23,-42.35 2344.59,-19.88 2282.64,-13.26"/>
<polygon fill="#63b8ff" stroke="#63b8ff" points="2283.09,-9.78 2272.8,-12.31 2282.42,-16.75 2283.09,-9.78"/>
</g>
<!-- Node10 -->
<g id="node10" class="node">
<title>Node10</title>
<g id="a_node10"><a xlink:href="Consts_8h.html" target="_top" xlink:title=" ">
<polygon fill="white" stroke="#666666" points="1597.73,-129 1538.73,-129 1538.73,-110 1597.73,-110 1597.73,-129"/>
<text text-anchor="middle" x="1568.23" y="-117" font-family="Helvetica,sans-Serif" font-size="10.00">Consts.h</text>
</a>
</g>
</g>
<!-- Node1&#45;&gt;Node10 -->
<g id="edge41" class="edge">
<title>Node1&#45;&gt;Node10</title>
<path fill="none" stroke="#63b8ff" d="M1559.28,-337.29C1299.93,-329.28 -100.06,-280.54 12.23,-165 39.4,-137.04 1282.88,-123.32 1526.92,-120.89"/>
<polygon fill="#63b8ff" stroke="#63b8ff" points="1526.94,-124.39 1536.9,-120.8 1526.87,-117.39 1526.94,-124.39"/>
</g>
<!-- Node11 -->
<g id="node11" class="node">
<title>Node11</title>
<g id="a_node11"><a xlink:href="Enums_8h.html" target="_top" xlink:title=" ">
<polygon fill="white" stroke="#666666" points="1933.73,-74 1874.73,-74 1874.73,-55 1933.73,-55 1933.73,-74"/>
<text text-anchor="middle" x="1904.23" y="-62" font-family="Helvetica,sans-Serif" font-size="10.00">Enums.h</text>
</a>
</g>
</g>
<!-- Node1&#45;&gt;Node11 -->
<g id="edge42" class="edge">
<title>Node1&#45;&gt;Node11</title>
<path fill="none" stroke="#63b8ff" d="M1640.97,-337.45C1806.03,-332.65 2416.23,-309.59 2416.23,-230.5 2416.23,-230.5 2416.23,-230.5 2416.23,-173.5 2416.23,-77.45 2066.89,-66.39 1945.33,-65.45"/>
<polygon fill="#63b8ff" stroke="#63b8ff" points="1945.5,-61.95 1935.48,-65.39 1945.46,-68.95 1945.5,-61.95"/>
</g>
<!-- Node19 -->
<g id="node19" class="node">
<title>Node19</title>
<g id="a_node19"><a xlink:title=" ">
<polygon fill="#e0e0e0" stroke="#999999" points="1686.23,-184 1552.23,-184 1552.23,-165 1686.23,-165 1686.23,-184"/>
<text text-anchor="middle" x="1619.23" y="-172" font-family="Helvetica,sans-Serif" font-size="10.00">SFML/Graphics/Rect.hpp</text>
</a>
</g>
</g>
<!-- Node1&#45;&gt;Node19 -->
<g id="edge43" class="edge">
<title>Node1&#45;&gt;Node19</title>
<path fill="none" stroke="#63b8ff" d="M1601.25,-329.74C1604.19,-304.53 1612.72,-231.36 1616.88,-195.62"/>
<polygon fill="#63b8ff" stroke="#63b8ff" points="1620.34,-196.15 1618.03,-185.81 1613.39,-195.34 1620.34,-196.15"/>
</g>
<!-- Node25 -->
<g id="node25" class="node">
<title>Node25</title>
<g id="a_node25"><a xlink:title=" ">
<polygon fill="#e0e0e0" stroke="#999999" points="1495.73,-184 1352.73,-184 1352.73,-165 1495.73,-165 1495.73,-184"/>
<text text-anchor="middle" x="1424.23" y="-172" font-family="Helvetica,sans-Serif" font-size="10.00">SFML/System/Vector2.hpp</text>
</a>
</g>
</g>
<!-- Node1&#45;&gt;Node25 -->
<g id="edge44" class="edge">
<title>Node1&#45;&gt;Node25</title>
<path fill="none" stroke="#63b8ff" d="M1582.41,-329.64C1566.97,-321.52 1544.46,-308.56 1527.23,-294 1490.42,-262.91 1455.34,-218.26 1437.15,-193.6"/>
<polygon fill="#63b8ff" stroke="#63b8ff" points="1440.03,-191.61 1431.32,-185.58 1434.36,-195.72 1440.03,-191.61"/>
</g>
<!-- Node3 -->
<g id="node3" class="node">
<title>Node3</title>
<g id="a_node3"><a xlink:href="AnimationMachine_8h.html" target="_top" xlink:title=" ">
<polygon fill="white" stroke="#666666" points="2085.73,-239 1968.73,-239 1968.73,-220 2085.73,-220 2085.73,-239"/>
<text text-anchor="middle" x="2027.23" y="-227" font-family="Helvetica,sans-Serif" font-size="10.00">AnimationMachine.h</text>
</a>
</g>
</g>
<!-- Node2&#45;&gt;Node3 -->
<g id="edge2" class="edge">
<title>Node2&#45;&gt;Node3</title>
<path fill="none" stroke="#63b8ff" d="M1588.9,-280.46C1659.3,-272.44 1851.92,-250.48 1956.85,-238.52"/>
<polygon fill="#63b8ff" stroke="#63b8ff" points="1957.22,-242 1966.76,-237.39 1956.43,-235.05 1957.22,-242"/>
</g>
<!-- Node7 -->
<g id="node7" class="node">
<title>Node7</title>
<g id="a_node7"><a xlink:title=" ">
<polygon fill="#e0e0e0" stroke="#999999" points="1835.73,-184 1704.73,-184 1704.73,-165 1835.73,-165 1835.73,-184"/>
<text text-anchor="middle" x="1770.23" y="-172" font-family="Helvetica,sans-Serif" font-size="10.00">SFML/System/Time.hpp</text>
</a>
</g>
</g>
<!-- Node2&#45;&gt;Node7 -->
<g id="edge39" class="edge">
<title>Node2&#45;&gt;Node7</title>
<path fill="none" stroke="#63b8ff" d="M1579.25,-274.66C1615.21,-255.99 1699.17,-212.4 1742.8,-189.74"/>
<polygon fill="#63b8ff" stroke="#63b8ff" points="1744.36,-192.87 1751.63,-185.16 1741.14,-186.66 1744.36,-192.87"/>
</g>
<!-- Node2&#45;&gt;Node11 -->
<g id="edge22" class="edge">
<title>Node2&#45;&gt;Node11</title>
<path fill="none" stroke="#63b8ff" d="M1556.83,-274.69C1544.56,-253.45 1517.6,-198.65 1543.23,-165 1553.14,-151.98 1770.86,-97.87 1863.3,-75.38"/>
<polygon fill="#63b8ff" stroke="#63b8ff" points="1864.09,-78.79 1872.98,-73.03 1862.44,-71.98 1864.09,-78.79"/>
</g>
<!-- Node17 -->
<g id="node17" class="node">
<title>Node17</title>
<g id="a_node17"><a xlink:href="SceneNode_8h.html" target="_top" xlink:title=" ">
<polygon fill="white" stroke="#666666" points="1096.23,-239 1016.23,-239 1016.23,-220 1096.23,-220 1096.23,-239"/>
<text text-anchor="middle" x="1056.23" y="-227" font-family="Helvetica,sans-Serif" font-size="10.00">SceneNode.h</text>
</a>
</g>
</g>
<!-- Node2&#45;&gt;Node17 -->
<g id="edge23" class="edge">
<title>Node2&#45;&gt;Node17</title>
<path fill="none" stroke="#63b8ff" d="M1535.38,-280.69C1454.83,-272.25 1214.26,-247.05 1107.84,-235.91"/>
<polygon fill="#63b8ff" stroke="#63b8ff" points="1108.27,-232.43 1097.96,-234.87 1107.54,-239.39 1108.27,-232.43"/>
</g>
<!-- Node2&#45;&gt;Node19 -->
<g id="edge38" class="edge">
<title>Node2&#45;&gt;Node19</title>
<path fill="none" stroke="#63b8ff" d="M1564.75,-274.54C1568.5,-261.92 1576.17,-238.41 1586.23,-220 1591.35,-210.62 1598.24,-201 1604.4,-193.12"/>
<polygon fill="#63b8ff" stroke="#63b8ff" points="1607.09,-195.35 1610.67,-185.38 1601.65,-190.95 1607.09,-195.35"/>
</g>
<!-- Node2&#45;&gt;Node25 -->
<g id="edge40" class="edge">
<title>Node2&#45;&gt;Node25</title>
<path fill="none" stroke="#63b8ff" d="M1550.93,-274.66C1527.68,-256.47 1474.19,-214.6 1444.68,-191.51"/>
<polygon fill="#63b8ff" stroke="#63b8ff" points="1446.9,-188.8 1436.87,-185.39 1442.59,-194.31 1446.9,-188.8"/>
</g>
<!-- Node4 -->
<g id="node4" class="node">
<title>Node4</title>
<g id="a_node4"><a xlink:title=" ">
<polygon fill="#e0e0e0" stroke="#999999" points="1565.23,-74 1455.23,-74 1455.23,-55 1565.23,-55 1565.23,-74"/>
<text text-anchor="middle" x="1510.23" y="-62" font-family="Helvetica,sans-Serif" font-size="10.00">SFML/Graphics.hpp</text>
</a>
</g>
</g>
<!-- Node3&#45;&gt;Node4 -->
<g id="edge3" class="edge">
<title>Node3&#45;&gt;Node4</title>
<path fill="none" stroke="#63b8ff" d="M1988.39,-219.54C1957.81,-211.86 1914.43,-199.58 1878.23,-184 1862.68,-177.31 1861.3,-170.29 1845.23,-165 1778.31,-142.96 1584.58,-173.83 1530.23,-129 1517.4,-118.42 1512.67,-99.68 1510.99,-85.29"/>
<polygon fill="#63b8ff" stroke="#63b8ff" points="1514.5,-85.31 1510.29,-75.59 1507.52,-85.82 1514.5,-85.31"/>
</g>
<!-- Node5 -->
<g id="node5" class="node">
<title>Node5</title>
<g id="a_node5"><a xlink:title=" ">
<polygon fill="#e0e0e0" stroke="#999999" points="2349.73,-184 2208.73,-184 2208.73,-165 2349.73,-165 2349.73,-184"/>
<text text-anchor="middle" x="2279.23" y="-172" font-family="Helvetica,sans-Serif" font-size="10.00">SFML/Graphics/Sprite.hpp</text>
</a>
</g>
</g>
<!-- Node3&#45;&gt;Node5 -->
<g id="edge4" class="edge">
<title>Node3&#45;&gt;Node5</title>
<path fill="none" stroke="#63b8ff" d="M2069.98,-219.51C2112.92,-210.48 2179.2,-196.54 2225.63,-186.77"/>
<polygon fill="#63b8ff" stroke="#63b8ff" points="2226.14,-190.24 2235.21,-184.76 2224.7,-183.39 2226.14,-190.24"/>
</g>
<!-- Node6 -->
<g id="node6" class="node">
<title>Node6</title>
<g id="a_node6"><a xlink:title=" ">
<polygon fill="#e0e0e0" stroke="#999999" points="2151.73,-129 2002.73,-129 2002.73,-110 2151.73,-110 2151.73,-129"/>
<text text-anchor="middle" x="2077.23" y="-117" font-family="Helvetica,sans-Serif" font-size="10.00">SFML/Graphics/Texture.hpp</text>
</a>
</g>
</g>
<!-- Node3&#45;&gt;Node6 -->
<g id="edge5" class="edge">
<title>Node3&#45;&gt;Node6</title>
<path fill="none" stroke="#63b8ff" d="M2070.67,-219.57C2090.25,-213.15 2111.56,-202.27 2123.23,-184 2134.01,-167.12 2117.2,-148.67 2100.96,-136.03"/>
<polygon fill="#63b8ff" stroke="#63b8ff" points="2103.05,-133.22 2092.9,-130.2 2098.95,-138.9 2103.05,-133.22"/>
</g>
<!-- Node3&#45;&gt;Node7 -->
<g id="edge6" class="edge">
<title>Node3&#45;&gt;Node7</title>
<path fill="none" stroke="#63b8ff" d="M1983.63,-219.51C1939.84,-210.48 1872.24,-196.54 1824.88,-186.77"/>
<polygon fill="#63b8ff" stroke="#63b8ff" points="1825.59,-183.34 1815.09,-184.75 1824.18,-190.2 1825.59,-183.34"/>
</g>
<!-- Node8 -->
<g id="node8" class="node">
<title>Node8</title>
<g id="a_node8"><a xlink:title=" ">
<polygon fill="#e0e0e0" stroke="#999999" points="2114.23,-184 2042.23,-184 2042.23,-165 2114.23,-165 2114.23,-184"/>
<text text-anchor="middle" x="2078.23" y="-172" font-family="Helvetica,sans-Serif" font-size="10.00">sys/types.h</text>
</a>
</g>
</g>
<!-- Node3&#45;&gt;Node8 -->
<g id="edge7" class="edge">
<title>Node3&#45;&gt;Node8</title>
<path fill="none" stroke="#63b8ff" d="M2035.65,-219.75C2042.69,-212.43 2052.96,-201.76 2061.64,-192.74"/>
<polygon fill="#63b8ff" stroke="#63b8ff" points="2064.16,-195.17 2068.57,-185.53 2059.12,-190.31 2064.16,-195.17"/>
</g>
<!-- Node3&#45;&gt;Node9 -->
<g id="edge8" class="edge">
<title>Node3&#45;&gt;Node9</title>
<path fill="none" stroke="#63b8ff" d="M2086.03,-229.48C2171.7,-229.5 2324.43,-223.77 2359.23,-184 2406.38,-130.11 2311.54,-56.68 2264.97,-25.49"/>
<polygon fill="#63b8ff" stroke="#63b8ff" points="2267.12,-22.72 2256.84,-20.17 2263.29,-28.57 2267.12,-22.72"/>
</g>
<!-- Node3&#45;&gt;Node10 -->
<g id="edge9" class="edge">
<title>Node3&#45;&gt;Node10</title>
<path fill="none" stroke="#63b8ff" d="M2005.89,-219.51C1984.66,-210.55 1951.17,-196.38 1922.23,-184 1902.64,-175.62 1898.73,-170.79 1878.23,-165 1784.04,-138.41 1669.04,-127.21 1609.07,-122.91"/>
<polygon fill="#63b8ff" stroke="#63b8ff" points="1609.55,-119.43 1599.34,-122.24 1609.07,-126.42 1609.55,-119.43"/>
</g>
<!-- Node3&#45;&gt;Node11 -->
<g id="edge15" class="edge">
<title>Node3&#45;&gt;Node11</title>
<path fill="none" stroke="#63b8ff" d="M2070.97,-219.54C2093.49,-212.99 2119.96,-202 2138.23,-184 2162.76,-159.83 2183.41,-136.35 2161.23,-110 2134.06,-77.73 2010.31,-68.86 1944.95,-66.42"/>
<polygon fill="#63b8ff" stroke="#63b8ff" points="1945.47,-62.94 1935.36,-66.1 1945.23,-69.93 1945.47,-62.94"/>
</g>
<!-- Node14 -->
<g id="node14" class="node">
<title>Node14</title>
<g id="a_node14"><a xlink:href="TextureHolder_8h.html" target="_top" xlink:title=" ">
<polygon fill="white" stroke="#666666" points="2023.73,-184 1930.73,-184 1930.73,-165 2023.73,-165 2023.73,-184"/>
<text text-anchor="middle" x="1977.23" y="-172" font-family="Helvetica,sans-Serif" font-size="10.00">TextureHolder.h</text>
</a>
</g>
</g>
<!-- Node3&#45;&gt;Node14 -->
<g id="edge16" class="edge">
<title>Node3&#45;&gt;Node14</title>
<path fill="none" stroke="#63b8ff" d="M2018.97,-219.75C2012.06,-212.43 2002,-201.76 1993.49,-192.74"/>
<polygon fill="#63b8ff" stroke="#63b8ff" points="1996.11,-190.42 1986.7,-185.54 1991.02,-195.22 1996.11,-190.42"/>
</g>
<!-- Node10&#45;&gt;Node4 -->
<g id="edge10" class="edge">
<title>Node10&#45;&gt;Node4</title>
<path fill="none" stroke="#63b8ff" d="M1558.39,-109.51C1550.17,-102 1538.24,-91.1 1528.31,-82.03"/>
<polygon fill="#63b8ff" stroke="#63b8ff" points="1530.78,-79.54 1521.04,-75.38 1526.06,-84.71 1530.78,-79.54"/>
</g>
<!-- Node10&#45;&gt;Node11 -->
<g id="edge11" class="edge">
<title>Node10&#45;&gt;Node11</title>
<path fill="none" stroke="#63b8ff" d="M1598.02,-112.58C1602.77,-111.68 1607.63,-110.79 1612.23,-110 1701.39,-94.6 1806.36,-79.29 1862.99,-71.26"/>
<polygon fill="#63b8ff" stroke="#63b8ff" points="1863.41,-74.74 1872.82,-69.87 1862.43,-67.8 1863.41,-74.74"/>
</g>
<!-- Node12 -->
<g id="node12" class="node">
<title>Node12</title>
<g id="a_node12"><a xlink:href="Random_8h.html" target="_top" xlink:title=" ">
<polygon fill="white" stroke="#666666" points="1786.23,-74 1720.23,-74 1720.23,-55 1786.23,-55 1786.23,-74"/>
<text text-anchor="middle" x="1753.23" y="-62" font-family="Helvetica,sans-Serif" font-size="10.00">Random.h</text>
</a>
</g>
</g>
<!-- Node10&#45;&gt;Node12 -->
<g id="edge12" class="edge">
<title>Node10&#45;&gt;Node12</title>
<path fill="none" stroke="#63b8ff" d="M1597.95,-109.98C1628.64,-101.19 1676.79,-87.4 1711.33,-77.5"/>
<polygon fill="#63b8ff" stroke="#63b8ff" points="1711.93,-80.97 1720.58,-74.85 1710,-74.24 1711.93,-80.97"/>
</g>
<!-- Node12&#45;&gt;Node9 -->
<g id="edge14" class="edge">
<title>Node12&#45;&gt;Node9</title>
<path fill="none" stroke="#63b8ff" d="M1786.39,-59.9C1872.77,-50.52 2104.65,-25.33 2199.71,-15.01"/>
<polygon fill="#63b8ff" stroke="#63b8ff" points="2199.8,-18.52 2209.36,-13.96 2199.04,-11.56 2199.8,-18.52"/>
</g>
<!-- Node13 -->
<g id="node13" class="node">
<title>Node13</title>
<g id="a_node13"><a xlink:title=" ">
<polygon fill="#e0e0e0" stroke="#999999" points="1780.23,-19 1726.23,-19 1726.23,0 1780.23,0 1780.23,-19"/>
<text text-anchor="middle" x="1753.23" y="-7" font-family="Helvetica,sans-Serif" font-size="10.00">random</text>
</a>
</g>
</g>
<!-- Node12&#45;&gt;Node13 -->
<g id="edge13" class="edge">
<title>Node12&#45;&gt;Node13</title>
<path fill="none" stroke="#63b8ff" d="M1753.23,-54.75C1753.23,-48.27 1753.23,-39.16 1753.23,-30.9"/>
<polygon fill="#63b8ff" stroke="#63b8ff" points="1756.73,-30.96 1753.23,-20.96 1749.73,-30.96 1756.73,-30.96"/>
</g>
<!-- Node14&#45;&gt;Node6 -->
<g id="edge19" class="edge">
<title>Node14&#45;&gt;Node6</title>
<path fill="none" stroke="#63b8ff" d="M1994.19,-164.51C2009.58,-156.35 2032.54,-144.19 2050.41,-134.71"/>
<polygon fill="#63b8ff" stroke="#63b8ff" points="2051.98,-137.84 2059.18,-130.07 2048.7,-131.66 2051.98,-137.84"/>
</g>
<!-- Node14&#45;&gt;Node10 -->
<g id="edge21" class="edge">
<title>Node14&#45;&gt;Node10</title>
<path fill="none" stroke="#63b8ff" d="M1930.28,-166.9C1925.53,-166.25 1920.78,-165.61 1916.23,-165 1805.4,-150.19 1674.57,-133.74 1609.42,-125.61"/>
<polygon fill="#63b8ff" stroke="#63b8ff" points="1609.89,-122.15 1599.54,-124.38 1609.03,-129.09 1609.89,-122.15"/>
</g>
<!-- Node14&#45;&gt;Node11 -->
<g id="edge20" class="edge">
<title>Node14&#45;&gt;Node11</title>
<path fill="none" stroke="#63b8ff" d="M1975.67,-164.64C1973.08,-151.73 1966.97,-127.41 1955.23,-110 1947.66,-98.78 1936.57,-88.65 1926.67,-80.89"/>
<polygon fill="#63b8ff" stroke="#63b8ff" points="1929.03,-78.28 1918.91,-75.14 1924.86,-83.9 1929.03,-78.28"/>
</g>
<!-- Node15 -->
<g id="node15" class="node">
<title>Node15</title>
<g id="a_node15"><a xlink:title=" ">
<polygon fill="#e0e0e0" stroke="#999999" points="1820.23,-129 1762.23,-129 1762.23,-110 1820.23,-110 1820.23,-129"/>
<text text-anchor="middle" x="1791.23" y="-117" font-family="Helvetica,sans-Serif" font-size="10.00">memory</text>
</a>
</g>
</g>
<!-- Node14&#45;&gt;Node15 -->
<g id="edge17" class="edge">
<title>Node14&#45;&gt;Node15</title>
<path fill="none" stroke="#63b8ff" d="M1945.67,-164.51C1914.2,-155.54 1865.73,-141.73 1831.5,-131.97"/>
<polygon fill="#63b8ff" stroke="#63b8ff" points="1832.51,-128.62 1821.93,-129.25 1830.59,-135.36 1832.51,-128.62"/>
</g>
<!-- Node16 -->
<g id="node16" class="node">
<title>Node16</title>
<g id="a_node16"><a xlink:title=" ">
<polygon fill="#e0e0e0" stroke="#999999" points="1946.23,-129 1908.23,-129 1908.23,-110 1946.23,-110 1946.23,-129"/>
<text text-anchor="middle" x="1927.23" y="-117" font-family="Helvetica,sans-Serif" font-size="10.00">map</text>
</a>
</g>
</g>
<!-- Node14&#45;&gt;Node16 -->
<g id="edge18" class="edge">
<title>Node14&#45;&gt;Node16</title>
<path fill="none" stroke="#63b8ff" d="M1968.97,-164.75C1962.06,-157.43 1952,-146.76 1943.49,-137.74"/>
<polygon fill="#63b8ff" stroke="#63b8ff" points="1946.11,-135.42 1936.7,-130.54 1941.02,-140.22 1946.11,-135.42"/>
</g>
<!-- Node17&#45;&gt;Node4 -->
<g id="edge25" class="edge">
<title>Node17&#45;&gt;Node4</title>
<path fill="none" stroke="#63b8ff" d="M1015.87,-228.32C828.11,-227.3 47.55,-220.86 12.23,-184 6.38,-177.9 6.46,-171.17 12.23,-165 61.82,-112 1159.61,-75.89 1443.63,-67.41"/>
<polygon fill="#63b8ff" stroke="#63b8ff" points="1443.56,-70.92 1453.45,-67.12 1443.35,-63.92 1443.56,-70.92"/>
</g>
<!-- Node17&#45;&gt;Node9 -->
<g id="edge37" class="edge">
<title>Node17&#45;&gt;Node9</title>
<path fill="none" stroke="#63b8ff" d="M1015.88,-228.34C827.24,-227.38 39.84,-221.16 4.23,-184 -1.62,-177.9 -0.99,-171.64 4.23,-165 68.41,-83.41 128.49,-124.85 231.23,-110 630.98,-52.2 1948.25,-17.64 2199.59,-11.49"/>
<polygon fill="#63b8ff" stroke="#63b8ff" points="2199.65,-14.99 2209.56,-11.25 2199.48,-7.99 2199.65,-14.99"/>
</g>
<!-- Node17&#45;&gt;Node11 -->
<g id="edge24" class="edge">
<title>Node17&#45;&gt;Node11</title>
<path fill="none" stroke="#63b8ff" d="M1096.57,-223.83C1139.84,-217.95 1210.05,-205.86 1267.23,-184 1283.04,-177.96 1284.16,-170.32 1300.23,-165 1430.65,-121.84 1474.69,-165.17 1607.23,-129 1627.38,-123.5 1630.23,-116.07 1650.23,-110 1723.55,-87.74 1812.38,-75.35 1863.19,-69.59"/>
<polygon fill="#63b8ff" stroke="#63b8ff" points="1863.29,-73.1 1872.85,-68.53 1862.52,-66.14 1863.29,-73.1"/>
</g>
<!-- Node17&#45;&gt;Node15 -->
<g id="edge34" class="edge">
<title>Node17&#45;&gt;Node15</title>
<path fill="none" stroke="#63b8ff" d="M1096.65,-224.09C1145.62,-218.07 1230.26,-205.51 1300.23,-184 1320.2,-177.86 1323.02,-170.32 1343.23,-165 1419.7,-144.86 1655.17,-128.76 1750.52,-122.89"/>
<polygon fill="#63b8ff" stroke="#63b8ff" points="1750.68,-126.39 1760.45,-122.29 1750.25,-119.4 1750.68,-126.39"/>
</g>
<!-- Node18 -->
<g id="node18" class="node">
<title>Node18</title>
<g id="a_node18"><a xlink:title=" ">
<polygon fill="#e0e0e0" stroke="#999999" points="180.73,-184 21.73,-184 21.73,-165 180.73,-165 180.73,-184"/>
<text text-anchor="middle" x="101.23" y="-172" font-family="Helvetica,sans-Serif" font-size="10.00">SFML/Graphics/Drawable.hpp</text>
</a>
</g>
</g>
<!-- Node17&#45;&gt;Node18 -->
<g id="edge26" class="edge">
<title>Node17&#45;&gt;Node18</title>
<path fill="none" stroke="#63b8ff" d="M1016.05,-227.06C894.02,-222.57 516.75,-207.68 191.84,-184.08"/>
<polygon fill="#63b8ff" stroke="#63b8ff" points="192.53,-180.62 182.3,-183.38 192.02,-187.6 192.53,-180.62"/>
</g>
<!-- Node17&#45;&gt;Node19 -->
<g id="edge27" class="edge">
<title>Node17&#45;&gt;Node19</title>
<path fill="none" stroke="#63b8ff" d="M1096.72,-224.69C1189.53,-215.95 1418.99,-194.35 1540.62,-182.9"/>
<polygon fill="#63b8ff" stroke="#63b8ff" points="1540.91,-186.39 1550.54,-181.97 1540.26,-179.42 1540.91,-186.39"/>
</g>
<!-- Node20 -->
<g id="node20" class="node">
<title>Node20</title>
<g id="a_node20"><a xlink:title=" ">
<polygon fill="#e0e0e0" stroke="#999999" points="377.23,-184 199.23,-184 199.23,-165 377.23,-165 377.23,-184"/>
<text text-anchor="middle" x="288.23" y="-172" font-family="Helvetica,sans-Serif" font-size="10.00">SFML/Graphics/RenderStates.hpp</text>
</a>
</g>
</g>
<!-- Node17&#45;&gt;Node20 -->
<g id="edge28" class="edge">
<title>Node17&#45;&gt;Node20</title>
<path fill="none" stroke="#63b8ff" d="M1015.8,-226.1C913.08,-219.94 633.44,-202.8 388.93,-184.19"/>
<polygon fill="#63b8ff" stroke="#63b8ff" points="389.43,-180.72 379.19,-183.45 388.89,-187.7 389.43,-180.72"/>
</g>
<!-- Node21 -->
<g id="node21" class="node">
<title>Node21</title>
<g id="a_node21"><a xlink:title=" ">
<polygon fill="#e0e0e0" stroke="#999999" points="572.73,-184 395.73,-184 395.73,-165 572.73,-165 572.73,-184"/>
<text text-anchor="middle" x="484.23" y="-172" font-family="Helvetica,sans-Serif" font-size="10.00">SFML/Graphics/RenderTarget.hpp</text>
</a>
</g>
</g>
<!-- Node17&#45;&gt;Node21 -->
<g id="edge29" class="edge">
<title>Node17&#45;&gt;Node21</title>
<path fill="none" stroke="#63b8ff" d="M1016.01,-224.77C927.2,-216.54 712.16,-196.62 584.39,-184.78"/>
<polygon fill="#63b8ff" stroke="#63b8ff" points="584.85,-181.31 574.57,-183.87 584.2,-188.28 584.85,-181.31"/>
</g>
<!-- Node22 -->
<g id="node22" class="node">
<title>Node22</title>
<g id="a_node22"><a xlink:title=" ">
<polygon fill="#e0e0e0" stroke="#999999" points="751.73,-184 590.73,-184 590.73,-165 751.73,-165 751.73,-184"/>
<text text-anchor="middle" x="671.23" y="-172" font-family="Helvetica,sans-Serif" font-size="10.00">SFML/Graphics/Transform.hpp</text>
</a>
</g>
</g>
<!-- Node17&#45;&gt;Node22 -->
<g id="edge30" class="edge">
<title>Node17&#45;&gt;Node22</title>
<path fill="none" stroke="#63b8ff" d="M1015.75,-222.93C952.23,-214.18 828.07,-197.09 747.44,-185.99"/>
<polygon fill="#63b8ff" stroke="#63b8ff" points="748.25,-182.57 737.87,-184.67 747.29,-189.5 748.25,-182.57"/>
</g>
<!-- Node23 -->
<g id="node23" class="node">
<title>Node23</title>
<g id="a_node23"><a xlink:title=" ">
<polygon fill="#e0e0e0" stroke="#999999" points="952.23,-184 770.23,-184 770.23,-165 952.23,-165 952.23,-184"/>
<text text-anchor="middle" x="861.23" y="-172" font-family="Helvetica,sans-Serif" font-size="10.00">SFML/Graphics/Transformable.hpp</text>
</a>
</g>
</g>
<!-- Node17&#45;&gt;Node23 -->
<g id="edge31" class="edge">
<title>Node17&#45;&gt;Node23</title>
<path fill="none" stroke="#63b8ff" d="M1023.15,-219.51C990.69,-210.69 941,-197.18 905.23,-187.46"/>
<polygon fill="#63b8ff" stroke="#63b8ff" points="906.17,-184.09 895.6,-184.84 904.33,-190.84 906.17,-184.09"/>
</g>
<!-- Node24 -->
<g id="node24" class="node">
<title>Node24</title>
<g id="a_node24"><a xlink:title=" ">
<polygon fill="#e0e0e0" stroke="#999999" points="1142.23,-184 970.23,-184 970.23,-165 1142.23,-165 1142.23,-184"/>
<text text-anchor="middle" x="1056.23" y="-172" font-family="Helvetica,sans-Serif" font-size="10.00">SFML/System/NonCopyable.hpp</text>
</a>
</g>
</g>
<!-- Node17&#45;&gt;Node24 -->
<g id="edge32" class="edge">
<title>Node17&#45;&gt;Node24</title>
<path fill="none" stroke="#63b8ff" d="M1056.23,-219.75C1056.23,-213.27 1056.23,-204.16 1056.23,-195.9"/>
<polygon fill="#63b8ff" stroke="#63b8ff" points="1059.73,-195.96 1056.23,-185.96 1052.73,-195.96 1059.73,-195.96"/>
</g>
<!-- Node17&#45;&gt;Node25 -->
<g id="edge33" class="edge">
<title>Node17&#45;&gt;Node25</title>
<path fill="none" stroke="#63b8ff" d="M1096.66,-222.68C1157.79,-213.87 1274.68,-197.04 1351.03,-186.04"/>
<polygon fill="#63b8ff" stroke="#63b8ff" points="1351.09,-189.57 1360.49,-184.68 1350.09,-182.64 1351.09,-189.57"/>
</g>
<!-- Node26 -->
<g id="node26" class="node">
<title>Node26</title>
<g id="a_node26"><a xlink:title=" ">
<polygon fill="#e0e0e0" stroke="#999999" points="1207.73,-184 1160.73,-184 1160.73,-165 1207.73,-165 1207.73,-184"/>
<text text-anchor="middle" x="1184.23" y="-172" font-family="Helvetica,sans-Serif" font-size="10.00">vector</text>
</a>
</g>
</g>
<!-- Node17&#45;&gt;Node26 -->
<g id="edge35" class="edge">
<title>Node17&#45;&gt;Node26</title>
<path fill="none" stroke="#63b8ff" d="M1077.94,-219.51C1098.38,-211.04 1129.24,-198.27 1152.45,-188.66"/>
<polygon fill="#63b8ff" stroke="#63b8ff" points="1153.54,-192 1161.44,-184.94 1150.86,-185.53 1153.54,-192"/>
</g>
<!-- Node27 -->
<g id="node27" class="node">
<title>Node27</title>
<g id="a_node27"><a xlink:title=" ">
<polygon fill="#e0e0e0" stroke="#999999" points="1258.23,-184 1226.23,-184 1226.23,-165 1258.23,-165 1258.23,-184"/>
<text text-anchor="middle" x="1242.23" y="-172" font-family="Helvetica,sans-Serif" font-size="10.00">set</text>
</a>
</g>
</g>
<!-- Node17&#45;&gt;Node27 -->
<g id="edge36" class="edge">
<title>Node17&#45;&gt;Node27</title>
<path fill="none" stroke="#63b8ff" d="M1090.06,-219.56C1120.32,-211.46 1166.1,-198.96 1214.96,-184.27"/>
<polygon fill="#63b8ff" stroke="#63b8ff" points="1215.75,-187.69 1224.31,-181.45 1213.72,-180.99 1215.75,-187.69"/>
</g>
</g>
</svg>
        <g id="navigator" transform="translate(0 0)" fill="#404254">
                <rect fill="#f2f5e9" fill-opacity="0.5" stroke="#606060" stroke-width=".5" x="0" y="0" width="60" height="60"/>
                <use id="zoomplus" xlink:href="#zoomPlus" x="17" y="9" onmousedown="handleZoom(evt,'in')"/>
                <use id="zoomminus" xlink:href="#zoomMin" x="42" y="9" onmousedown="handleZoom(evt,'out')"/>
                <use id="reset" xlink:href="#resetDef" x="30" y="36" onmousedown="handleReset()"/>
                <g id="arrowUp" xlink:href="#dirArrow" transform="translate(30 24)" onmousedown="handlePan(0,-1)">
                  <use xlink:href="#rim" fill="#404040">
                        <set attributeName="fill" to="#808080" begin="arrowUp.mouseover" end="arrowUp.mouseout"/>
                  </use>
                  <path fill="none" stroke="white" stroke-width="1.5" d="M0,-3.0v7 M-2.5,-0.5L0,-3.0L2.5,-0.5"/>
                </g>
                <g id="arrowRight" xlink:href="#dirArrow" transform="rotate(90) translate(36 -43)" onmousedown="handlePan(1,0)">
                  <use xlink:href="#rim" fill="#404040">
                        <set attributeName="fill" to="#808080" begin="arrowRight.mouseover" end="arrowRight.mouseout"/>
                  </use>
                  <path fill="none" stroke="white" stroke-width="1.5" d="M0,-3.0v7 M-2.5,-0.5L0,-3.0L2.5,-0.5"/>
                </g>
                <g id="arrowDown" xlink:href="#dirArrow" transform="rotate(180) translate(-30 -48)" onmousedown="handlePan(0,1)">
                  <use xlink:href="#rim" fill="#404040">
                        <set attributeName="fill" to="#808080" begin="arrowDown.mouseover" end="arrowDown.mouseout"/>
                  </use>
                  <path fill="none" stroke="white" stroke-width="1.5" d="M0,-3.0v7 M-2.5,-0.5L0,-3.0L2.5,-0.5"/>
                </g>
                <g id="arrowLeft" xlink:href="#dirArrow" transform="rotate(270) translate(-36 17)" onmousedown="handlePan(-1,0)">
                  <use xlink:href="#rim" fill="#404040">
                        <set attributeName="fill" to="#808080" begin="arrowLeft.mouseover" end="arrowLeft.mouseout"/>
                  </use>
                  <path fill="none" stroke="white" stroke-width="1.5" d="M0,-3.0v7 M-2.5,-0.5L0,-3.0L2.5,-0.5"/>
                </g>
        </g>
        <svg viewBox="0 0 15 15" width="100%" height="30px" preserveAspectRatio="xMaxYMin meet">
         <g id="arrow_out" transform="scale(0.3 0.3)">
          <a xlink:href="Entity_8cpp__incl_org.svg" target="_base">
           <rect id="button" ry="5" rx="5" y="6" x="6" height="38" width="38"
                fill="#f2f5e9" fill-opacity="0.5" stroke="#606060" stroke-width="1.0"/>
           <path id="arrow"
             d="M 11.500037,31.436501 C 11.940474,20.09759 22.043105,11.32322 32.158766,21.979434 L 37.068811,17.246167 C 37.068811,17.246167 37.088388,32 37.088388,32 L 22.160133,31.978069 C 22.160133,31.978069 26.997745,27.140456 26.997745,27.140456 C 18.528582,18.264221 13.291696,25.230495 11.500037,31.436501 z"
             style="fill:#404040;"/>
          </a>
         </g>
        </svg>
</svg>
