<?xml version="1.0" encoding="UTF-8" standalone="no"?>
<!DOCTYPE svg PUBLIC "-//W3C//DTD SVG 1.1//EN"
 "http://www.w3.org/Graphics/SVG/1.1/DTD/svg11.dtd">
<!-- Generated by graphviz version 7.0.5 (0)
 -->
<!-- Title: src/Entity.h Pages: 1 -->
<!--zoomable 467 -->
<svg id="main" version="1.1" xmlns="http://www.w3.org/2000/svg" xmlns:xlink="http://www.w3.org/1999/xlink" xml:space="preserve" onload="init(evt)">
<style type="text/css"><![CDATA[
.edge:hover path { stroke: red; }
.edge:hover polygon { stroke: red; fill: red; }
]]></style>
<script type="text/javascript"><![CDATA[
var edges = document.getElementsByTagName('g');
if (edges && edges.length) {
  for (var i=0;i<edges.length;i++) {
    if (edges[i].id.substr(0,4)=='edge') {
      edges[i].setAttribute('class','edge');
    }
  }
}
]]></script>
        <defs>
                <circle id="rim" cx="0" cy="0" r="7"/>
                <circle id="rim2" cx="0" cy="0" r="3.5"/>
                <g id="zoomPlus">
                        <use xlink:href="#rim" fill="#404040">
                                <set attributeName="fill" to="#808080" begin="zoomplus.mouseover" end="zoomplus.mouseout"/>
                        </use>
                        <path d="M-4,0h8M0,-4v8" fill="none" stroke="white" stroke-width="1.5" pointer-events="none"/>
                </g>
                <g id="zoomMin">
                        <use xlink:href="#rim" fill="#404040">
                                <set attributeName="fill" to="#808080" begin="zoomminus.mouseover" end="zoomminus.mouseout"/>
                        </use>
                        <path d="M-4,0h8" fill="none" stroke="white" stroke-width="1.5" pointer-events="none"/>
                </g>
                <g id="dirArrow">
                        <path fill="none" stroke="white" stroke-width="1.5" d="M0,-3.0v7 M-2.5,-0.5L0,-3.0L2.5,-0.5"/>
                </g>
               <g id="resetDef">
                       <use xlink:href="#rim2" fill="#404040">
                               <set attributeName="fill" to="#808080" begin="reset.mouseover" end="reset.mouseout"/>
                       </use>
               </g>
        </defs>

<script type="text/javascript">
var viewWidth = 1739;
var viewHeight = 467;
var sectionId = 'dynsection-1';
</script>
<script xlink:href="svgpan.js"/>
<svg id="graph" class="graph">
<g id="viewport">
<title>src/Entity.h</title>
<!-- Node1 -->
<g id="node1" class="node">
<title>Node1</title>
<g id="a_node1"><a xlink:title=" ">
<polygon fill="#999999" stroke="#666666" points="844,-459 774,-459 774,-440 844,-440 844,-459"/>
<text text-anchor="middle" x="809" y="-447" font-family="Helvetica,sans-Serif" font-size="10.00">src/Entity.h</text>
</a>
</g>
</g>
<!-- Node2 -->
<g id="node2" class="node">
<title>Node2</title>
<g id="a_node2"><a xlink:href="Commuters_8h.html" target="_top" xlink:title=" ">
<polygon fill="white" stroke="#666666" points="766,-239 666,-239 666,-220 766,-220 766,-239"/>
<text text-anchor="middle" x="716" y="-227" font-family="Helvetica,sans-Serif" font-size="10.00">src/Commuters.h</text>
</a>
</g>
</g>
<!-- Node1&#45;&gt;Node2 -->
<g id="edge1" class="edge">
<title>Node1&#45;&gt;Node2</title>
<path fill="none" stroke="#63b8ff" d="M762.36,-445.69C731.82,-441.28 693.52,-430.41 671,-404 633.48,-360 627.6,-326.45 654,-275 662.47,-258.5 680.22,-246.74 694.56,-239.46"/>
<polygon fill="#63b8ff" stroke="#63b8ff" points="761.78,-449.14 772.14,-446.9 762.64,-442.2 761.78,-449.14"/>
</g>
<!-- Node4 -->
<g id="node4" class="node">
<title>Node4</title>
<g id="a_node4"><a xlink:href="GameLoader_8cpp.html" target="_top" xlink:title=" ">
<polygon fill="white" stroke="#666666" points="1031,-19 915,-19 915,0 1031,0 1031,-19"/>
<text text-anchor="middle" x="973" y="-7" font-family="Helvetica,sans-Serif" font-size="10.00">src/GameLoader.cpp</text>
</a>
</g>
</g>
<!-- Node1&#45;&gt;Node4 -->
<g id="edge27" class="edge">
<title>Node1&#45;&gt;Node4</title>
<path fill="none" stroke="#63b8ff" d="M855.65,-447.99C1043.05,-445.35 1731,-429.6 1731,-340.5 1731,-340.5 1731,-340.5 1731,-118.5 1731,-84.42 1717.6,-71.9 1688,-55 1631.64,-22.81 1191.77,-13.53 1031.32,-11.2"/>
<polygon fill="#63b8ff" stroke="#63b8ff" points="855.76,-444.49 845.81,-448.13 855.86,-451.49 855.76,-444.49"/>
</g>
<!-- Node6 -->
<g id="node6" class="node">
<title>Node6</title>
<g id="a_node6"><a xlink:href="RoadLane_8h.html" target="_top" xlink:title=" ">
<polygon fill="white" stroke="#666666" points="642.5,-184 551.5,-184 551.5,-165 642.5,-165 642.5,-184"/>
<text text-anchor="middle" x="597" y="-172" font-family="Helvetica,sans-Serif" font-size="10.00">src/RoadLane.h</text>
</a>
</g>
</g>
<!-- Node1&#45;&gt;Node6 -->
<g id="edge74" class="edge">
<title>Node1&#45;&gt;Node6</title>
<path fill="none" stroke="#63b8ff" d="M762.37,-445.06C699.95,-437.62 597,-414.19 597,-340.5 597,-340.5 597,-340.5 597,-283.5 597,-246.75 597,-202.97 597,-184.46"/>
<polygon fill="#63b8ff" stroke="#63b8ff" points="761.69,-448.51 772.01,-446.11 762.45,-441.55 761.69,-448.51"/>
</g>
<!-- Node18 -->
<g id="node18" class="node">
<title>Node18</title>
<g id="a_node18"><a xlink:href="Entity_8cpp.html" target="_top" xlink:title=" ">
<polygon fill="white" stroke="#666666" points="761.5,-404 680.5,-404 680.5,-385 761.5,-385 761.5,-404"/>
<text text-anchor="middle" x="721" y="-392" font-family="Helvetica,sans-Serif" font-size="10.00">src/Entity.cpp</text>
</a>
</g>
</g>
<!-- Node1&#45;&gt;Node18 -->
<g id="edge26" class="edge">
<title>Node1&#45;&gt;Node18</title>
<path fill="none" stroke="#63b8ff" d="M784.48,-433.73C768.8,-424.29 748.99,-412.36 735.71,-404.36"/>
<polygon fill="#63b8ff" stroke="#63b8ff" points="782.4,-436.57 792.78,-438.73 786.01,-430.57 782.4,-436.57"/>
</g>
<!-- Node19 -->
<g id="node19" class="node">
<title>Node19</title>
<g id="a_node19"><a xlink:href="GameLoader_8h.html" target="_top" xlink:title=" ">
<polygon fill="white" stroke="#666666" points="1703,-294 1599,-294 1599,-275 1703,-275 1703,-294"/>
<text text-anchor="middle" x="1651" y="-282" font-family="Helvetica,sans-Serif" font-size="10.00">src/GameLoader.h</text>
</a>
</g>
</g>
<!-- Node1&#45;&gt;Node19 -->
<g id="edge28" class="edge">
<title>Node1&#45;&gt;Node19</title>
<path fill="none" stroke="#63b8ff" d="M855.86,-444.98C966.26,-435.94 1250.7,-408.35 1481,-349 1536.98,-334.57 1600.05,-308.2 1631.29,-294.42"/>
<polygon fill="#63b8ff" stroke="#63b8ff" points="855.69,-441.48 846.01,-445.77 856.26,-448.46 855.69,-441.48"/>
</g>
<!-- Node27 -->
<g id="node27" class="node">
<title>Node27</title>
<g id="a_node27"><a xlink:href="Light_8h.html" target="_top" xlink:title=" ">
<polygon fill="white" stroke="#666666" points="568.5,-294 501.5,-294 501.5,-275 568.5,-275 568.5,-294"/>
<text text-anchor="middle" x="535" y="-282" font-family="Helvetica,sans-Serif" font-size="10.00">src/Light.h</text>
</a>
</g>
</g>
<!-- Node1&#45;&gt;Node27 -->
<g id="edge37" class="edge">
<title>Node1&#45;&gt;Node27</title>
<path fill="none" stroke="#63b8ff" d="M762.09,-444.5C704.1,-438.68 609.76,-426.09 583,-404 547.91,-375.03 538.24,-316.47 535.78,-294.29"/>
<polygon fill="#63b8ff" stroke="#63b8ff" points="761.73,-447.98 772.02,-445.46 762.41,-441.01 761.73,-447.98"/>
</g>
<!-- Node29 -->
<g id="node29" class="node">
<title>Node29</title>
<g id="a_node29"><a xlink:href="Obstacle_8h.html" target="_top" xlink:title=" ">
<polygon fill="white" stroke="#666666" points="987,-294 901,-294 901,-275 987,-275 987,-294"/>
<text text-anchor="middle" x="944" y="-282" font-family="Helvetica,sans-Serif" font-size="10.00">src/Obstacle.h</text>
</a>
</g>
</g>
<!-- Node1&#45;&gt;Node29 -->
<g id="edge42" class="edge">
<title>Node1&#45;&gt;Node29</title>
<path fill="none" stroke="#63b8ff" d="M823.35,-431.18C851.96,-396.62 915.23,-320.23 936.71,-294.31"/>
<polygon fill="#63b8ff" stroke="#63b8ff" points="820.91,-428.64 817.22,-438.57 826.3,-433.1 820.91,-428.64"/>
</g>
<!-- Node31 -->
<g id="node31" class="node">
<title>Node31</title>
<g id="a_node31"><a xlink:href="Pickups_8h.html" target="_top" xlink:title=" ">
<polygon fill="white" stroke="#666666" points="883,-294 803,-294 803,-275 883,-275 883,-294"/>
<text text-anchor="middle" x="843" y="-282" font-family="Helvetica,sans-Serif" font-size="10.00">src/Pickups.h</text>
</a>
</g>
</g>
<!-- Node1&#45;&gt;Node31 -->
<g id="edge47" class="edge">
<title>Node1&#45;&gt;Node31</title>
<path fill="none" stroke="#63b8ff" d="M813.09,-428.91C820.5,-393.38 835.87,-319.68 841.16,-294.31"/>
<polygon fill="#63b8ff" stroke="#63b8ff" points="809.75,-427.75 811.14,-438.25 816.61,-429.18 809.75,-427.75"/>
</g>
<!-- Node33 -->
<g id="node33" class="node">
<title>Node33</title>
<g id="a_node33"><a xlink:href="Player_8cpp.html" target="_top" xlink:title=" ">
<polygon fill="white" stroke="#666666" points="747,-294 663,-294 663,-275 747,-275 747,-294"/>
<text text-anchor="middle" x="705" y="-282" font-family="Helvetica,sans-Serif" font-size="10.00">src/Player.cpp</text>
</a>
</g>
</g>
<!-- Node1&#45;&gt;Node33 -->
<g id="edge51" class="edge">
<title>Node1&#45;&gt;Node33</title>
<path fill="none" stroke="#63b8ff" d="M797.82,-429.99C790.09,-417.27 779.53,-400.05 770,-385 748.69,-351.36 722.57,-311.89 711,-294.5"/>
<polygon fill="#63b8ff" stroke="#63b8ff" points="794.82,-431.79 802.99,-438.53 800.8,-428.16 794.82,-431.79"/>
</g>
<!-- Node34 -->
<g id="node34" class="node">
<title>Node34</title>
<g id="a_node34"><a xlink:href="Player_8h.html" target="_top" xlink:title=" ">
<polygon fill="white" stroke="#666666" points="1096.5,-404 1023.5,-404 1023.5,-385 1096.5,-385 1096.5,-404"/>
<text text-anchor="middle" x="1060" y="-392" font-family="Helvetica,sans-Serif" font-size="10.00">src/Player.h</text>
</a>
</g>
</g>
<!-- Node1&#45;&gt;Node34 -->
<g id="edge52" class="edge">
<title>Node1&#45;&gt;Node34</title>
<path fill="none" stroke="#63b8ff" d="M855.53,-438.68C903.91,-428.46 978.66,-412.68 1023.12,-403.29"/>
<polygon fill="#63b8ff" stroke="#63b8ff" points="854.97,-435.22 845.91,-440.71 856.42,-442.06 854.97,-435.22"/>
</g>
<!-- Node3 -->
<g id="node3" class="node">
<title>Node3</title>
<g id="a_node3"><a xlink:href="Commuters_8cpp.html" target="_top" xlink:title=" ">
<polygon fill="white" stroke="#666666" points="771.5,-184 660.5,-184 660.5,-165 771.5,-165 771.5,-184"/>
<text text-anchor="middle" x="716" y="-172" font-family="Helvetica,sans-Serif" font-size="10.00">src/Commuters.cpp</text>
</a>
</g>
</g>
<!-- Node2&#45;&gt;Node3 -->
<g id="edge2" class="edge">
<title>Node2&#45;&gt;Node3</title>
<path fill="none" stroke="#63b8ff" d="M716,-208.35C716,-200.1 716,-190.97 716,-184.44"/>
<polygon fill="#63b8ff" stroke="#63b8ff" points="712.5,-208.23 716,-218.23 719.5,-208.23 712.5,-208.23"/>
</g>
<!-- Node2&#45;&gt;Node4 -->
<g id="edge3" class="edge">
<title>Node2&#45;&gt;Node4</title>
<path fill="none" stroke="#63b8ff" d="M745.99,-214.7C762.25,-206.66 782.37,-195.8 799,-184 872.76,-131.67 943.68,-47.03 965.88,-19.48"/>
<polygon fill="#63b8ff" stroke="#63b8ff" points="744.78,-211.4 737.29,-218.9 747.82,-217.7 744.78,-211.4"/>
</g>
<!-- Node5 -->
<g id="node5" class="node">
<title>Node5</title>
<g id="a_node5"><a xlink:href="RoadLane_8cpp.html" target="_top" xlink:title=" ">
<polygon fill="white" stroke="#666666" points="850,-129 748,-129 748,-110 850,-110 850,-129"/>
<text text-anchor="middle" x="799" y="-117" font-family="Helvetica,sans-Serif" font-size="10.00">src/RoadLane.cpp</text>
</a>
</g>
</g>
<!-- Node2&#45;&gt;Node5 -->
<g id="edge4" class="edge">
<title>Node2&#45;&gt;Node5</title>
<path fill="none" stroke="#63b8ff" d="M745.11,-214C757.44,-206.56 771.01,-196.41 780,-184 792.29,-167.04 796.71,-142.1 798.24,-129.1"/>
<polygon fill="#63b8ff" stroke="#63b8ff" points="743.47,-210.91 736.49,-218.87 746.92,-217 743.47,-210.91"/>
</g>
<!-- Node2&#45;&gt;Node6 -->
<g id="edge5" class="edge">
<title>Node2&#45;&gt;Node6</title>
<path fill="none" stroke="#63b8ff" d="M685.53,-214.93C663.95,-205.32 635.62,-192.7 616.89,-184.36"/>
<polygon fill="#63b8ff" stroke="#63b8ff" points="683.87,-218.02 694.43,-218.89 686.72,-211.63 683.87,-218.02"/>
</g>
<!-- Node6&#45;&gt;Node5 -->
<g id="edge7" class="edge">
<title>Node6&#45;&gt;Node5</title>
<path fill="none" stroke="#63b8ff" d="M642.29,-161.62C679.43,-151.87 731.2,-138.29 764.9,-129.45"/>
<polygon fill="#63b8ff" stroke="#63b8ff" points="641.51,-158.2 632.73,-164.13 643.29,-164.97 641.51,-158.2"/>
</g>
<!-- Node7 -->
<g id="node7" class="node">
<title>Node7</title>
<g id="a_node7"><a xlink:href="LevelGenerator_8cpp.html" target="_top" xlink:title=" ">
<polygon fill="white" stroke="#666666" points="850,-74 722,-74 722,-55 850,-55 850,-74"/>
<text text-anchor="middle" x="786" y="-62" font-family="Helvetica,sans-Serif" font-size="10.00">src/LevelGenerator.cpp</text>
</a>
</g>
</g>
<!-- Node6&#45;&gt;Node7 -->
<g id="edge6" class="edge">
<title>Node6&#45;&gt;Node7</title>
<path fill="none" stroke="#63b8ff" d="M632.67,-160.67C653.22,-152.68 679.22,-141.55 701,-129 729.88,-112.35 760.42,-87.5 775.83,-74.37"/>
<polygon fill="#63b8ff" stroke="#63b8ff" points="631.69,-157.29 623.58,-164.12 634.18,-163.84 631.69,-157.29"/>
</g>
<!-- Node8 -->
<g id="node8" class="node">
<title>Node8</title>
<g id="a_node8"><a xlink:href="RoadLaneController_8h.html" target="_top" xlink:title=" ">
<polygon fill="white" stroke="#666666" points="568,-129 430,-129 430,-110 568,-110 568,-129"/>
<text text-anchor="middle" x="499" y="-117" font-family="Helvetica,sans-Serif" font-size="10.00">src/RoadLaneController.h</text>
</a>
</g>
</g>
<!-- Node6&#45;&gt;Node8 -->
<g id="edge8" class="edge">
<title>Node6&#45;&gt;Node8</title>
<path fill="none" stroke="#63b8ff" d="M570.68,-159.27C553.08,-149.74 530.45,-137.51 515.38,-129.36"/>
<polygon fill="#63b8ff" stroke="#63b8ff" points="568.58,-162.11 579.04,-163.79 571.91,-155.95 568.58,-162.11"/>
</g>
<!-- Node17 -->
<g id="node17" class="node">
<title>Node17</title>
<g id="a_node17"><a xlink:href="SceneBuilder_8h.html" target="_top" xlink:title=" ">
<polygon fill="white" stroke="#666666" points="692,-129 586,-129 586,-110 692,-110 692,-129"/>
<text text-anchor="middle" x="639" y="-117" font-family="Helvetica,sans-Serif" font-size="10.00">src/SceneBuilder.h</text>
</a>
</g>
</g>
<!-- Node6&#45;&gt;Node17 -->
<g id="edge23" class="edge">
<title>Node6&#45;&gt;Node17</title>
<path fill="none" stroke="#63b8ff" d="M610.92,-155.93C617.96,-147.06 626.19,-136.67 631.91,-129.44"/>
<polygon fill="#63b8ff" stroke="#63b8ff" points="608.34,-153.55 604.88,-163.56 613.83,-157.9 608.34,-153.55"/>
</g>
<!-- Node8&#45;&gt;Node4 -->
<g id="edge13" class="edge">
<title>Node8&#45;&gt;Node4</title>
<path fill="none" stroke="#63b8ff" d="M536.32,-105.95C578.75,-92.04 650.25,-69.62 713,-55 781.57,-39.02 861.56,-26.18 914.52,-18.48"/>
<polygon fill="#63b8ff" stroke="#63b8ff" points="535.25,-102.62 526.86,-109.08 537.45,-109.27 535.25,-102.62"/>
</g>
<!-- Node9 -->
<g id="node9" class="node">
<title>Node9</title>
<g id="a_node9"><a xlink:href="AnimalLaneController_8h.html" target="_top" xlink:title=" ">
<polygon fill="white" stroke="#666666" points="628,-74 480,-74 480,-55 628,-55 628,-74"/>
<text text-anchor="middle" x="554" y="-62" font-family="Helvetica,sans-Serif" font-size="10.00">src/AnimalLaneController.h</text>
</a>
</g>
</g>
<!-- Node8&#45;&gt;Node9 -->
<g id="edge9" class="edge">
<title>Node8&#45;&gt;Node9</title>
<path fill="none" stroke="#63b8ff" d="M516.35,-101.78C525.75,-92.72 536.98,-81.9 544.72,-74.44"/>
<polygon fill="#63b8ff" stroke="#63b8ff" points="513.94,-99.24 509.17,-108.7 518.8,-104.28 513.94,-99.24"/>
</g>
<!-- Node12 -->
<g id="node12" class="node">
<title>Node12</title>
<g id="a_node12"><a xlink:href="RiverController_8h.html" target="_top" xlink:title=" ">
<polygon fill="white" stroke="#666666" points="294,-74 178,-74 178,-55 294,-55 294,-74"/>
<text text-anchor="middle" x="236" y="-62" font-family="Helvetica,sans-Serif" font-size="10.00">src/RiverController.h</text>
</a>
</g>
</g>
<!-- Node8&#45;&gt;Node12 -->
<g id="edge14" class="edge">
<title>Node8&#45;&gt;Node12</title>
<path fill="none" stroke="#63b8ff" d="M443.14,-107.24C394.6,-97.46 325.22,-83.48 280.39,-74.45"/>
<polygon fill="#63b8ff" stroke="#63b8ff" points="442.41,-110.67 452.9,-109.21 443.79,-103.8 442.41,-110.67"/>
</g>
<!-- Node14 -->
<g id="node14" class="node">
<title>Node14</title>
<g id="a_node14"><a xlink:href="RoadLaneController_8cpp.html" target="_top" xlink:title=" ">
<polygon fill="white" stroke="#666666" points="461.5,-74 312.5,-74 312.5,-55 461.5,-55 461.5,-74"/>
<text text-anchor="middle" x="387" y="-62" font-family="Helvetica,sans-Serif" font-size="10.00">src/RoadLaneController.cpp</text>
</a>
</g>
</g>
<!-- Node8&#45;&gt;Node14 -->
<g id="edge18" class="edge">
<title>Node8&#45;&gt;Node14</title>
<path fill="none" stroke="#63b8ff" d="M469.77,-104.67C449.53,-95.09 423.19,-82.62 405.72,-74.36"/>
<polygon fill="#63b8ff" stroke="#63b8ff" points="468.1,-107.75 478.63,-108.86 471.09,-101.42 468.1,-107.75"/>
</g>
<!-- Node15 -->
<g id="node15" class="node">
<title>Node15</title>
<g id="a_node15"><a xlink:href="VehicleLaneController_8h.html" target="_top" xlink:title=" ">
<polygon fill="white" stroke="#666666" points="159.5,-74 10.5,-74 10.5,-55 159.5,-55 159.5,-74"/>
<text text-anchor="middle" x="85" y="-62" font-family="Helvetica,sans-Serif" font-size="10.00">src/VehicleLaneController.h</text>
</a>
</g>
</g>
<!-- Node8&#45;&gt;Node15 -->
<g id="edge19" class="edge">
<title>Node8&#45;&gt;Node15</title>
<path fill="none" stroke="#63b8ff" d="M418.7,-108.22C342.2,-98.43 228.18,-83.83 155.21,-74.49"/>
<polygon fill="#63b8ff" stroke="#63b8ff" points="417.84,-111.64 428.2,-109.44 418.73,-104.7 417.84,-111.64"/>
</g>
<!-- Node9&#45;&gt;Node4 -->
<g id="edge11" class="edge">
<title>Node9&#45;&gt;Node4</title>
<path fill="none" stroke="#63b8ff" d="M636.37,-53.08C718.45,-42.7 842.4,-27.02 914.77,-17.87"/>
<polygon fill="#63b8ff" stroke="#63b8ff" points="636.06,-49.59 626.58,-54.32 636.94,-56.54 636.06,-49.59"/>
</g>
<!-- Node10 -->
<g id="node10" class="node">
<title>Node10</title>
<g id="a_node10"><a xlink:href="AnimalLaneController_8cpp.html" target="_top" xlink:title=" ">
<polygon fill="white" stroke="#666666" points="617.5,-19 458.5,-19 458.5,0 617.5,0 617.5,-19"/>
<text text-anchor="middle" x="538" y="-7" font-family="Helvetica,sans-Serif" font-size="10.00">src/AnimalLaneController.cpp</text>
</a>
</g>
</g>
<!-- Node9&#45;&gt;Node10 -->
<g id="edge10" class="edge">
<title>Node9&#45;&gt;Node10</title>
<path fill="none" stroke="#63b8ff" d="M548.09,-43.93C545.56,-35.53 542.72,-26.13 540.7,-19.44"/>
<polygon fill="#63b8ff" stroke="#63b8ff" points="544.68,-44.74 550.92,-53.3 551.38,-42.71 544.68,-44.74"/>
</g>
<!-- Node11 -->
<g id="node11" class="node">
<title>Node11</title>
<g id="a_node11"><a xlink:href="SceneBuilder_8cpp.html" target="_top" xlink:title=" ">
<polygon fill="white" stroke="#666666" points="752.5,-19 635.5,-19 635.5,0 752.5,0 752.5,-19"/>
<text text-anchor="middle" x="694" y="-7" font-family="Helvetica,sans-Serif" font-size="10.00">src/SceneBuilder.cpp</text>
</a>
</g>
</g>
<!-- Node9&#45;&gt;Node11 -->
<g id="edge12" class="edge">
<title>Node9&#45;&gt;Node11</title>
<path fill="none" stroke="#63b8ff" d="M588.46,-50.45C614.01,-40.78 648.16,-27.85 670.6,-19.36"/>
<polygon fill="#63b8ff" stroke="#63b8ff" points="587.28,-47.16 579.16,-53.97 589.76,-53.71 587.28,-47.16"/>
</g>
<!-- Node12&#45;&gt;Node4 -->
<g id="edge15" class="edge">
<title>Node12&#45;&gt;Node4</title>
<path fill="none" stroke="#63b8ff" d="M305.79,-54.79C537.34,-32.75 800.07,-18.75 914.65,-13.2"/>
<polygon fill="#63b8ff" stroke="#63b8ff" points="305.57,-51.29 295.95,-55.73 306.24,-58.26 305.57,-51.29"/>
</g>
<!-- Node12&#45;&gt;Node11 -->
<g id="edge17" class="edge">
<title>Node12&#45;&gt;Node11</title>
<path fill="none" stroke="#63b8ff" d="M305.81,-54.68C448.33,-37.8 486.2,-35.53 626,-19 628.95,-18.65 631.98,-18.29 635.03,-17.92"/>
<polygon fill="#63b8ff" stroke="#63b8ff" points="305.48,-51.2 295.96,-55.85 306.31,-58.15 305.48,-51.2"/>
</g>
<!-- Node13 -->
<g id="node13" class="node">
<title>Node13</title>
<g id="a_node13"><a xlink:href="RiverController_8cpp.html" target="_top" xlink:title=" ">
<polygon fill="white" stroke="#666666" points="305.5,-19 178.5,-19 178.5,0 305.5,0 305.5,-19"/>
<text text-anchor="middle" x="242" y="-7" font-family="Helvetica,sans-Serif" font-size="10.00">src/RiverController.cpp</text>
</a>
</g>
</g>
<!-- Node12&#45;&gt;Node13 -->
<g id="edge16" class="edge">
<title>Node12&#45;&gt;Node13</title>
<path fill="none" stroke="#63b8ff" d="M238.28,-43.35C239.22,-35.1 240.25,-25.97 240.99,-19.44"/>
<polygon fill="#63b8ff" stroke="#63b8ff" points="234.81,-42.91 237.16,-53.24 241.76,-43.7 234.81,-42.91"/>
</g>
<!-- Node15&#45;&gt;Node4 -->
<g id="edge20" class="edge">
<title>Node15&#45;&gt;Node4</title>
<path fill="none" stroke="#63b8ff" d="M171.07,-54.88C456.87,-32.78 784.25,-18.19 914.93,-12.81"/>
<polygon fill="#63b8ff" stroke="#63b8ff" points="170.85,-51.39 161.15,-55.65 171.39,-58.36 170.85,-51.39"/>
</g>
<!-- Node15&#45;&gt;Node11 -->
<g id="edge21" class="edge">
<title>Node15&#45;&gt;Node11</title>
<path fill="none" stroke="#63b8ff" d="M171,-54.84C373.83,-36.84 426.97,-39.27 626,-19 628.96,-18.7 631.99,-18.38 635.05,-18.04"/>
<polygon fill="#63b8ff" stroke="#63b8ff" points="170.8,-51.35 161.15,-55.72 171.43,-58.32 170.8,-51.35"/>
</g>
<!-- Node16 -->
<g id="node16" class="node">
<title>Node16</title>
<g id="a_node16"><a xlink:href="VehicleLaneController_8cpp.html" target="_top" xlink:title=" ">
<polygon fill="white" stroke="#666666" points="160,-19 0,-19 0,0 160,0 160,-19"/>
<text text-anchor="middle" x="80" y="-7" font-family="Helvetica,sans-Serif" font-size="10.00">src/VehicleLaneController.cpp</text>
</a>
</g>
</g>
<!-- Node15&#45;&gt;Node16 -->
<g id="edge22" class="edge">
<title>Node15&#45;&gt;Node16</title>
<path fill="none" stroke="#63b8ff" d="M83.1,-43.35C82.32,-35.1 81.46,-25.97 80.84,-19.44"/>
<polygon fill="#63b8ff" stroke="#63b8ff" points="79.61,-43.61 84.03,-53.24 86.58,-42.96 79.61,-43.61"/>
</g>
<!-- Node17&#45;&gt;Node7 -->
<g id="edge24" class="edge">
<title>Node17&#45;&gt;Node7</title>
<path fill="none" stroke="#63b8ff" d="M674.47,-105.71C701.37,-96.01 737.66,-82.93 761.43,-74.36"/>
<polygon fill="#63b8ff" stroke="#63b8ff" points="673.58,-102.31 665.36,-109 675.95,-108.9 673.58,-102.31"/>
</g>
<!-- Node17&#45;&gt;Node11 -->
<g id="edge25" class="edge">
<title>Node17&#45;&gt;Node11</title>
<path fill="none" stroke="#63b8ff" d="M648.66,-99.54C660.62,-76.04 680.52,-36.97 689.44,-19.46"/>
<polygon fill="#63b8ff" stroke="#63b8ff" points="645.61,-97.81 644.19,-108.31 651.84,-100.99 645.61,-97.81"/>
</g>
<!-- Node19&#45;&gt;Node4 -->
<g id="edge29" class="edge">
<title>Node19&#45;&gt;Node4</title>
<path fill="none" stroke="#63b8ff" d="M1663.08,-264.96C1675.49,-244.09 1693,-208.75 1693,-175.5 1693,-175.5 1693,-175.5 1693,-118.5 1693,-87.66 1690.28,-72.67 1665,-55 1613.68,-19.15 1188.93,-12.18 1031.45,-10.83"/>
<polygon fill="#63b8ff" stroke="#63b8ff" points="1660.13,-263.08 1657.82,-273.42 1666.07,-266.78 1660.13,-263.08"/>
</g>
<!-- Node20 -->
<g id="node20" class="node">
<title>Node20</title>
<g id="a_node20"><a xlink:href="GameState_8h.html" target="_top" xlink:title=" ">
<polygon fill="white" stroke="#666666" points="1601,-239 1503,-239 1503,-220 1601,-220 1601,-239"/>
<text text-anchor="middle" x="1552" y="-227" font-family="Helvetica,sans-Serif" font-size="10.00">src/GameState.h</text>
</a>
</g>
</g>
<!-- Node19&#45;&gt;Node20 -->
<g id="edge30" class="edge">
<title>Node19&#45;&gt;Node20</title>
<path fill="none" stroke="#63b8ff" d="M1624.16,-269.13C1606.41,-259.63 1583.7,-247.47 1568.55,-239.36"/>
<polygon fill="#63b8ff" stroke="#63b8ff" points="1622.4,-272.16 1632.87,-273.79 1625.71,-265.99 1622.4,-272.16"/>
</g>
<!-- Node21 -->
<g id="node21" class="node">
<title>Node21</title>
<g id="a_node21"><a xlink:href="GameState_8cpp.html" target="_top" xlink:title=" ">
<polygon fill="white" stroke="#666666" points="1521.5,-184 1412.5,-184 1412.5,-165 1521.5,-165 1521.5,-184"/>
<text text-anchor="middle" x="1467" y="-172" font-family="Helvetica,sans-Serif" font-size="10.00">src/GameState.cpp</text>
</a>
</g>
</g>
<!-- Node20&#45;&gt;Node21 -->
<g id="edge31" class="edge">
<title>Node20&#45;&gt;Node21</title>
<path fill="none" stroke="#63b8ff" d="M1527.88,-213.46C1512.81,-204.06 1493.91,-192.28 1481.21,-184.36"/>
<polygon fill="#63b8ff" stroke="#63b8ff" points="1525.96,-216.39 1536.3,-218.71 1529.66,-210.45 1525.96,-216.39"/>
</g>
<!-- Node22 -->
<g id="node22" class="node">
<title>Node22</title>
<g id="a_node22"><a xlink:href="MainMenuState_8h.html" target="_top" xlink:title=" ">
<polygon fill="white" stroke="#666666" points="1658.5,-184 1539.5,-184 1539.5,-165 1658.5,-165 1658.5,-184"/>
<text text-anchor="middle" x="1599" y="-172" font-family="Helvetica,sans-Serif" font-size="10.00">src/MainMenuState.h</text>
</a>
</g>
</g>
<!-- Node20&#45;&gt;Node22 -->
<g id="edge32" class="edge">
<title>Node20&#45;&gt;Node22</title>
<path fill="none" stroke="#63b8ff" d="M1567.33,-211.22C1575.25,-202.28 1584.6,-191.74 1591.07,-184.44"/>
<polygon fill="#63b8ff" stroke="#63b8ff" points="1564.78,-208.81 1560.77,-218.62 1570.02,-213.46 1564.78,-208.81"/>
</g>
<!-- Node23 -->
<g id="node23" class="node">
<title>Node23</title>
<g id="a_node23"><a xlink:href="Game_8h.html" target="_top" xlink:title=" ">
<polygon fill="white" stroke="#666666" points="1515,-129 1443,-129 1443,-110 1515,-110 1515,-129"/>
<text text-anchor="middle" x="1479" y="-117" font-family="Helvetica,sans-Serif" font-size="10.00">src/Game.h</text>
</a>
</g>
</g>
<!-- Node22&#45;&gt;Node23 -->
<g id="edge33" class="edge">
<title>Node22&#45;&gt;Node23</title>
<path fill="none" stroke="#63b8ff" d="M1568.28,-159.93C1546.51,-150.32 1517.95,-137.7 1499.06,-129.36"/>
<polygon fill="#63b8ff" stroke="#63b8ff" points="1566.7,-163.06 1577.26,-163.9 1569.53,-156.66 1566.7,-163.06"/>
</g>
<!-- Node26 -->
<g id="node26" class="node">
<title>Node26</title>
<g id="a_node26"><a xlink:href="MainMenuState_8cpp.html" target="_top" xlink:title=" ">
<polygon fill="white" stroke="#666666" points="1664.5,-129 1533.5,-129 1533.5,-110 1664.5,-110 1664.5,-129"/>
<text text-anchor="middle" x="1599" y="-117" font-family="Helvetica,sans-Serif" font-size="10.00">src/MainMenuState.cpp</text>
</a>
</g>
</g>
<!-- Node22&#45;&gt;Node26 -->
<g id="edge36" class="edge">
<title>Node22&#45;&gt;Node26</title>
<path fill="none" stroke="#63b8ff" d="M1599,-153.35C1599,-145.1 1599,-135.97 1599,-129.44"/>
<polygon fill="#63b8ff" stroke="#63b8ff" points="1595.5,-153.23 1599,-163.23 1602.5,-153.23 1595.5,-153.23"/>
</g>
<!-- Node24 -->
<g id="node24" class="node">
<title>Node24</title>
<g id="a_node24"><a xlink:href="FinalProjectCS202_8cpp.html" target="_top" xlink:title=" ">
<polygon fill="white" stroke="#666666" points="1554,-74 1412,-74 1412,-55 1554,-55 1554,-74"/>
<text text-anchor="middle" x="1483" y="-62" font-family="Helvetica,sans-Serif" font-size="10.00">src/FinalProjectCS202.cpp</text>
</a>
</g>
</g>
<!-- Node23&#45;&gt;Node24 -->
<g id="edge34" class="edge">
<title>Node23&#45;&gt;Node24</title>
<path fill="none" stroke="#63b8ff" d="M1480.52,-98.35C1481.14,-90.1 1481.83,-80.97 1482.33,-74.44"/>
<polygon fill="#63b8ff" stroke="#63b8ff" points="1477.04,-98 1479.77,-108.24 1484.02,-98.53 1477.04,-98"/>
</g>
<!-- Node25 -->
<g id="node25" class="node">
<title>Node25</title>
<g id="a_node25"><a xlink:href="Game_8cpp.html" target="_top" xlink:title=" ">
<polygon fill="white" stroke="#666666" points="1655.5,-74 1572.5,-74 1572.5,-55 1655.5,-55 1655.5,-74"/>
<text text-anchor="middle" x="1614" y="-62" font-family="Helvetica,sans-Serif" font-size="10.00">src/Game.cpp</text>
</a>
</g>
</g>
<!-- Node23&#45;&gt;Node25 -->
<g id="edge35" class="edge">
<title>Node23&#45;&gt;Node25</title>
<path fill="none" stroke="#63b8ff" d="M1512.56,-105.32C1537.16,-95.67 1569.9,-82.82 1591.44,-74.36"/>
<polygon fill="#63b8ff" stroke="#63b8ff" points="1511.34,-102.04 1503.31,-108.96 1513.9,-108.56 1511.34,-102.04"/>
</g>
<!-- Node27&#45;&gt;Node2 -->
<g id="edge38" class="edge">
<title>Node27&#45;&gt;Node2</title>
<path fill="none" stroke="#63b8ff" d="M576.44,-271.36C609.66,-261.64 655.51,-248.21 685.45,-239.45"/>
<polygon fill="#63b8ff" stroke="#63b8ff" points="575.77,-267.91 567.16,-274.08 577.74,-274.63 575.77,-267.91"/>
</g>
<!-- Node27&#45;&gt;Node6 -->
<g id="edge40" class="edge">
<title>Node27&#45;&gt;Node6</title>
<path fill="none" stroke="#63b8ff" d="M545.7,-264.86C559.17,-241.4 581.76,-202.04 591.86,-184.46"/>
<polygon fill="#63b8ff" stroke="#63b8ff" points="542.77,-262.93 540.83,-273.35 548.84,-266.42 542.77,-262.93"/>
</g>
<!-- Node27&#45;&gt;Node15 -->
<g id="edge41" class="edge">
<title>Node27&#45;&gt;Node15</title>
<path fill="none" stroke="#63b8ff" d="M506.33,-269.61C421.47,-228.5 173.1,-108.18 103.39,-74.41"/>
<polygon fill="#63b8ff" stroke="#63b8ff" points="504.63,-272.68 515.16,-273.89 507.68,-266.38 504.63,-272.68"/>
</g>
<!-- Node28 -->
<g id="node28" class="node">
<title>Node28</title>
<g id="a_node28"><a xlink:href="Light_8cpp.html" target="_top" xlink:title=" ">
<polygon fill="white" stroke="#666666" points="374,-239 296,-239 296,-220 374,-220 374,-239"/>
<text text-anchor="middle" x="335" y="-227" font-family="Helvetica,sans-Serif" font-size="10.00">src/Light.cpp</text>
</a>
</g>
</g>
<!-- Node27&#45;&gt;Node28 -->
<g id="edge39" class="edge">
<title>Node27&#45;&gt;Node28</title>
<path fill="none" stroke="#63b8ff" d="M490.16,-271.62C453.39,-261.87 402.13,-248.29 368.76,-239.45"/>
<polygon fill="#63b8ff" stroke="#63b8ff" points="489.05,-274.94 499.61,-274.12 490.84,-268.18 489.05,-274.94"/>
</g>
<!-- Node29&#45;&gt;Node2 -->
<g id="edge43" class="edge">
<title>Node29&#45;&gt;Node2</title>
<path fill="none" stroke="#63b8ff" d="M894.23,-271.93C852.22,-262.17 792.94,-248.38 754.49,-239.45"/>
<polygon fill="#63b8ff" stroke="#63b8ff" points="893.32,-275.31 903.85,-274.17 894.9,-268.49 893.32,-275.31"/>
</g>
<!-- Node29&#45;&gt;Node4 -->
<g id="edge44" class="edge">
<title>Node29&#45;&gt;Node4</title>
<path fill="none" stroke="#63b8ff" d="M997.91,-272.12C1044.4,-261.87 1105.4,-247.19 1114,-239 1135.43,-218.6 1134,-205.09 1134,-175.5 1134,-175.5 1134,-175.5 1134,-118.5 1134,-61.11 1062.58,-32.26 1014.88,-19.39"/>
<polygon fill="#63b8ff" stroke="#63b8ff" points="997.24,-268.69 988.22,-274.24 998.74,-275.53 997.24,-268.69"/>
</g>
<!-- Node29&#45;&gt;Node11 -->
<g id="edge46" class="edge">
<title>Node29&#45;&gt;Node11</title>
<path fill="none" stroke="#63b8ff" d="M944.57,-263.55C944.7,-219.24 938.46,-112.06 879,-55 861.01,-37.73 799.87,-25.35 752.76,-18.1"/>
<polygon fill="#63b8ff" stroke="#63b8ff" points="941.08,-263.37 944.41,-273.43 948.08,-263.49 941.08,-263.37"/>
</g>
<!-- Node30 -->
<g id="node30" class="node">
<title>Node30</title>
<g id="a_node30"><a xlink:href="Obstacle_8cpp.html" target="_top" xlink:title=" ">
<polygon fill="white" stroke="#666666" points="1105.5,-239 1008.5,-239 1008.5,-220 1105.5,-220 1105.5,-239"/>
<text text-anchor="middle" x="1057" y="-227" font-family="Helvetica,sans-Serif" font-size="10.00">src/Obstacle.cpp</text>
</a>
</g>
</g>
<!-- Node29&#45;&gt;Node30 -->
<g id="edge45" class="edge">
<title>Node29&#45;&gt;Node30</title>
<path fill="none" stroke="#63b8ff" d="M973.49,-269.67C993.92,-260.09 1020.49,-247.62 1038.11,-239.36"/>
<polygon fill="#63b8ff" stroke="#63b8ff" points="972.11,-266.45 964.54,-273.87 975.08,-272.79 972.11,-266.45"/>
</g>
<!-- Node31&#45;&gt;Node4 -->
<g id="edge48" class="edge">
<title>Node31&#45;&gt;Node4</title>
<path fill="none" stroke="#63b8ff" d="M881.26,-269.89C896.04,-262.82 911.81,-252.73 922,-239 974.82,-167.86 974.67,-52.18 973.45,-19.41"/>
<polygon fill="#63b8ff" stroke="#63b8ff" points="879.9,-266.66 872.16,-273.9 882.72,-273.07 879.9,-266.66"/>
</g>
<!-- Node31&#45;&gt;Node11 -->
<g id="edge50" class="edge">
<title>Node31&#45;&gt;Node11</title>
<path fill="none" stroke="#63b8ff" d="M827.73,-266.09C821.92,-258.34 815.99,-248.77 813,-239 810.53,-230.92 811.04,-228.21 813,-220 830.65,-145.95 905.3,-115.44 859,-55 845.92,-37.92 794.72,-25.92 752.78,-18.71"/>
<polygon fill="#63b8ff" stroke="#63b8ff" points="824.82,-268.05 833.84,-273.62 830.26,-263.65 824.82,-268.05"/>
</g>
<!-- Node32 -->
<g id="node32" class="node">
<title>Node32</title>
<g id="a_node32"><a xlink:href="Pickups_8cpp.html" target="_top" xlink:title=" ">
<polygon fill="white" stroke="#666666" points="913.5,-239 822.5,-239 822.5,-220 913.5,-220 913.5,-239"/>
<text text-anchor="middle" x="868" y="-227" font-family="Helvetica,sans-Serif" font-size="10.00">src/Pickups.cpp</text>
</a>
</g>
</g>
<!-- Node31&#45;&gt;Node32 -->
<g id="edge49" class="edge">
<title>Node31&#45;&gt;Node32</title>
<path fill="none" stroke="#63b8ff" d="M851.96,-264.5C855.99,-255.96 860.56,-246.28 863.78,-239.44"/>
<polygon fill="#63b8ff" stroke="#63b8ff" points="848.87,-262.84 847.77,-273.38 855.21,-265.83 848.87,-262.84"/>
</g>
<!-- Node34&#45;&gt;Node20 -->
<g id="edge53" class="edge">
<title>Node34&#45;&gt;Node20</title>
<path fill="none" stroke="#63b8ff" d="M1108.1,-393.98C1181.54,-393.37 1325.18,-386.85 1440,-349 1486.7,-333.61 1506.29,-333.19 1536,-294 1548.5,-277.51 1551.31,-252.37 1551.9,-239.22"/>
<polygon fill="#63b8ff" stroke="#63b8ff" points="1108.43,-390.48 1098.45,-394.03 1108.46,-397.48 1108.43,-390.48"/>
</g>
<!-- Node34&#45;&gt;Node33 -->
<g id="edge54" class="edge">
<title>Node34&#45;&gt;Node33</title>
<path fill="none" stroke="#63b8ff" d="M1019.76,-381.26C947.59,-359.3 797.81,-313.73 734.39,-294.44"/>
<polygon fill="#63b8ff" stroke="#63b8ff" points="1018.61,-384.57 1029.2,-384.13 1020.65,-377.87 1018.61,-384.57"/>
</g>
<!-- Node35 -->
<g id="node35" class="node">
<title>Node35</title>
<g id="a_node35"><a xlink:href="PlayerCollidable_8h.html" target="_top" xlink:title=" ">
<polygon fill="white" stroke="#666666" points="1210,-349 1088,-349 1088,-330 1210,-330 1210,-349"/>
<text text-anchor="middle" x="1149" y="-337" font-family="Helvetica,sans-Serif" font-size="10.00">src/PlayerCollidable.h</text>
</a>
</g>
</g>
<!-- Node34&#45;&gt;Node35 -->
<g id="edge55" class="edge">
<title>Node34&#45;&gt;Node35</title>
<path fill="none" stroke="#63b8ff" d="M1084.8,-378.73C1100.66,-369.29 1120.69,-357.36 1134.13,-349.36"/>
<polygon fill="#63b8ff" stroke="#63b8ff" points="1083.2,-375.61 1076.4,-383.73 1086.78,-381.63 1083.2,-375.61"/>
</g>
<!-- Node39 -->
<g id="node39" class="node">
<title>Node39</title>
<g id="a_node39"><a xlink:href="PlayerState_8cpp.html" target="_top" xlink:title=" ">
<polygon fill="white" stroke="#666666" points="1115,-294 1005,-294 1005,-275 1115,-275 1115,-294"/>
<text text-anchor="middle" x="1060" y="-282" font-family="Helvetica,sans-Serif" font-size="10.00">src/PlayerState.cpp</text>
</a>
</g>
</g>
<!-- Node34&#45;&gt;Node39 -->
<g id="edge62" class="edge">
<title>Node34&#45;&gt;Node39</title>
<path fill="none" stroke="#63b8ff" d="M1060,-373.24C1060,-349.63 1060,-311.65 1060,-294.46"/>
<polygon fill="#63b8ff" stroke="#63b8ff" points="1056.5,-373.15 1060,-383.15 1063.5,-373.15 1056.5,-373.15"/>
</g>
<!-- Node40 -->
<g id="node40" class="node">
<title>Node40</title>
<g id="a_node40"><a xlink:href="PlayerState_8h.html" target="_top" xlink:title=" ">
<polygon fill="white" stroke="#666666" points="1031.5,-349 932.5,-349 932.5,-330 1031.5,-330 1031.5,-349"/>
<text text-anchor="middle" x="982" y="-337" font-family="Helvetica,sans-Serif" font-size="10.00">src/PlayerState.h</text>
</a>
</g>
</g>
<!-- Node34&#45;&gt;Node40 -->
<g id="edge63" class="edge">
<title>Node34&#45;&gt;Node40</title>
<path fill="none" stroke="#63b8ff" d="M1037.47,-378.19C1023.7,-368.84 1006.59,-357.21 995.04,-349.36"/>
<polygon fill="#63b8ff" stroke="#63b8ff" points="1035.28,-380.93 1045.52,-383.66 1039.21,-375.14 1035.28,-380.93"/>
</g>
<!-- Node41 -->
<g id="node41" class="node">
<title>Node41</title>
<g id="a_node41"><a xlink:href="World_8h.html" target="_top" xlink:title=" ">
<polygon fill="white" stroke="#666666" points="1430.5,-349 1359.5,-349 1359.5,-330 1430.5,-330 1430.5,-349"/>
<text text-anchor="middle" x="1395" y="-337" font-family="Helvetica,sans-Serif" font-size="10.00">src/World.h</text>
</a>
</g>
</g>
<!-- Node34&#45;&gt;Node41 -->
<g id="edge69" class="edge">
<title>Node34&#45;&gt;Node41</title>
<path fill="none" stroke="#63b8ff" d="M1108.03,-385.9C1175.96,-375.15 1298.57,-355.76 1359.14,-346.17"/>
<polygon fill="#63b8ff" stroke="#63b8ff" points="1107.63,-382.42 1098.3,-387.44 1108.73,-389.33 1107.63,-382.42"/>
</g>
<!-- Node35&#45;&gt;Node29 -->
<g id="edge59" class="edge">
<title>Node35&#45;&gt;Node29</title>
<path fill="none" stroke="#63b8ff" d="M1103.53,-326.74C1065.8,-316.99 1012.96,-303.33 978.6,-294.45"/>
<polygon fill="#63b8ff" stroke="#63b8ff" points="1102.2,-330.02 1112.76,-329.13 1103.95,-323.24 1102.2,-330.02"/>
</g>
<!-- Node35&#45;&gt;Node31 -->
<g id="edge60" class="edge">
<title>Node35&#45;&gt;Node31</title>
<path fill="none" stroke="#63b8ff" d="M1086.26,-327.64C1034.22,-318.63 958.3,-305.49 892,-294 889.19,-293.51 886.29,-293.01 883.38,-292.51"/>
<polygon fill="#63b8ff" stroke="#63b8ff" points="1085.37,-331.04 1095.82,-329.3 1086.56,-324.14 1085.37,-331.04"/>
</g>
<!-- Node36 -->
<g id="node36" class="node">
<title>Node36</title>
<g id="a_node36"><a xlink:href="Camera_8h.html" target="_top" xlink:title=" ">
<polygon fill="white" stroke="#666666" points="1366.5,-294 1285.5,-294 1285.5,-275 1366.5,-275 1366.5,-294"/>
<text text-anchor="middle" x="1326" y="-282" font-family="Helvetica,sans-Serif" font-size="10.00">src/Camera.h</text>
</a>
</g>
</g>
<!-- Node35&#45;&gt;Node36 -->
<g id="edge56" class="edge">
<title>Node35&#45;&gt;Node36</title>
<path fill="none" stroke="#63b8ff" d="M1189.95,-326.24C1222.4,-316.52 1266.97,-303.18 1296.12,-294.45"/>
<polygon fill="#63b8ff" stroke="#63b8ff" points="1189.05,-322.85 1180.48,-329.08 1191.06,-329.56 1189.05,-322.85"/>
</g>
<!-- Node38 -->
<g id="node38" class="node">
<title>Node38</title>
<g id="a_node38"><a xlink:href="PlayerCollidable_8cpp.html" target="_top" xlink:title=" ">
<polygon fill="white" stroke="#666666" points="1267,-294 1133,-294 1133,-275 1267,-275 1267,-294"/>
<text text-anchor="middle" x="1200" y="-282" font-family="Helvetica,sans-Serif" font-size="10.00">src/PlayerCollidable.cpp</text>
</a>
</g>
</g>
<!-- Node35&#45;&gt;Node38 -->
<g id="edge61" class="edge">
<title>Node35&#45;&gt;Node38</title>
<path fill="none" stroke="#63b8ff" d="M1165.36,-321.5C1174.02,-312.5 1184.3,-301.82 1191.4,-294.44"/>
<polygon fill="#63b8ff" stroke="#63b8ff" points="1162.88,-319.02 1158.47,-328.66 1167.93,-323.88 1162.88,-319.02"/>
</g>
<!-- Node36&#45;&gt;Node20 -->
<g id="edge58" class="edge">
<title>Node36&#45;&gt;Node20</title>
<path fill="none" stroke="#63b8ff" d="M1375.33,-271.93C1416.97,-262.17 1475.74,-248.38 1513.85,-239.45"/>
<polygon fill="#63b8ff" stroke="#63b8ff" points="1374.75,-268.47 1365.81,-274.16 1376.35,-275.29 1374.75,-268.47"/>
</g>
<!-- Node37 -->
<g id="node37" class="node">
<title>Node37</title>
<g id="a_node37"><a xlink:href="Camera_8cpp.html" target="_top" xlink:title=" ">
<polygon fill="white" stroke="#666666" points="1367,-239 1275,-239 1275,-220 1367,-220 1367,-239"/>
<text text-anchor="middle" x="1321" y="-227" font-family="Helvetica,sans-Serif" font-size="10.00">src/Camera.cpp</text>
</a>
</g>
</g>
<!-- Node36&#45;&gt;Node37 -->
<g id="edge57" class="edge">
<title>Node36&#45;&gt;Node37</title>
<path fill="none" stroke="#63b8ff" d="M1324.1,-263.35C1323.32,-255.1 1322.46,-245.97 1321.84,-239.44"/>
<polygon fill="#63b8ff" stroke="#63b8ff" points="1320.61,-263.61 1325.03,-273.24 1327.58,-262.96 1320.61,-263.61"/>
</g>
<!-- Node40&#45;&gt;Node2 -->
<g id="edge65" class="edge">
<title>Node40&#45;&gt;Node2</title>
<path fill="none" stroke="#63b8ff" d="M922,-327.33C875.84,-318.18 816.31,-304.99 794,-294 765.18,-279.8 737.49,-253.21 724.2,-239.37"/>
<polygon fill="#63b8ff" stroke="#63b8ff" points="921.14,-330.73 931.63,-329.22 922.49,-323.86 921.14,-330.73"/>
</g>
<!-- Node40&#45;&gt;Node29 -->
<g id="edge66" class="edge">
<title>Node40&#45;&gt;Node29</title>
<path fill="none" stroke="#63b8ff" d="M969.2,-320.65C962.88,-311.84 955.54,-301.59 950.41,-294.44"/>
<polygon fill="#63b8ff" stroke="#63b8ff" points="966.17,-322.43 974.84,-328.52 971.86,-318.35 966.17,-322.43"/>
</g>
<!-- Node40&#45;&gt;Node33 -->
<g id="edge67" class="edge">
<title>Node40&#45;&gt;Node33</title>
<path fill="none" stroke="#63b8ff" d="M923.79,-327.36C870.97,-317.26 794.37,-302.6 747.22,-293.58"/>
<polygon fill="#63b8ff" stroke="#63b8ff" points="923.04,-330.78 933.52,-329.22 924.36,-323.91 923.04,-330.78"/>
</g>
<!-- Node40&#45;&gt;Node36 -->
<g id="edge64" class="edge">
<title>Node40&#45;&gt;Node36</title>
<path fill="none" stroke="#63b8ff" d="M1043.06,-329.59C1102.55,-320.83 1195.56,-306.92 1276,-294 1278.96,-293.53 1282.01,-293.03 1285.08,-292.52"/>
<polygon fill="#63b8ff" stroke="#63b8ff" points="1042.86,-326.08 1033.48,-331 1043.88,-333 1042.86,-326.08"/>
</g>
<!-- Node40&#45;&gt;Node39 -->
<g id="edge68" class="edge">
<title>Node40&#45;&gt;Node39</title>
<path fill="none" stroke="#63b8ff" d="M1004.53,-323.19C1018.3,-313.84 1035.41,-302.21 1046.96,-294.36"/>
<polygon fill="#63b8ff" stroke="#63b8ff" points="1002.79,-320.14 996.48,-328.66 1006.72,-325.93 1002.79,-320.14"/>
</g>
<!-- Node41&#45;&gt;Node4 -->
<g id="edge71" class="edge">
<title>Node41&#45;&gt;Node4</title>
<path fill="none" stroke="#63b8ff" d="M1396.53,-318.3C1397.42,-293.2 1395.57,-250.02 1376,-220 1293.32,-93.17 1107.97,-38.74 1020.47,-19.45"/>
<polygon fill="#63b8ff" stroke="#63b8ff" points="1393.04,-317.92 1395.97,-328.1 1400.03,-318.31 1393.04,-317.92"/>
</g>
<!-- Node41&#45;&gt;Node20 -->
<g id="edge72" class="edge">
<title>Node41&#45;&gt;Node20</title>
<path fill="none" stroke="#63b8ff" d="M1441.6,-328.87C1465.26,-322.17 1493.3,-311.25 1514,-294 1532.16,-278.87 1543.85,-252.68 1548.98,-239.15"/>
<polygon fill="#63b8ff" stroke="#63b8ff" points="1440.97,-325.42 1432.2,-331.36 1442.76,-332.18 1440.97,-325.42"/>
</g>
<!-- Node41&#45;&gt;Node36 -->
<g id="edge70" class="edge">
<title>Node41&#45;&gt;Node36</title>
<path fill="none" stroke="#63b8ff" d="M1374.35,-322.64C1362.3,-313.39 1347.55,-302.05 1337.53,-294.36"/>
<polygon fill="#63b8ff" stroke="#63b8ff" points="1372.03,-325.27 1382.09,-328.59 1376.3,-319.72 1372.03,-325.27"/>
</g>
<!-- Node42 -->
<g id="node42" class="node">
<title>Node42</title>
<g id="a_node42"><a xlink:href="World_8cpp.html" target="_top" xlink:title=" ">
<polygon fill="white" stroke="#666666" points="1505,-294 1423,-294 1423,-275 1505,-275 1505,-294"/>
<text text-anchor="middle" x="1464" y="-282" font-family="Helvetica,sans-Serif" font-size="10.00">src/World.cpp</text>
</a>
</g>
</g>
<!-- Node41&#45;&gt;Node42 -->
<g id="edge73" class="edge">
<title>Node41&#45;&gt;Node42</title>
<path fill="none" stroke="#63b8ff" d="M1415.65,-322.64C1427.7,-313.39 1442.45,-302.05 1452.47,-294.36"/>
<polygon fill="#63b8ff" stroke="#63b8ff" points="1413.7,-319.72 1407.91,-328.59 1417.97,-325.27 1413.7,-319.72"/>
</g>
</g>
</svg>
        <g id="navigator" transform="translate(0 0)" fill="#404254">
                <rect fill="#f2f5e9" fill-opacity="0.5" stroke="#606060" stroke-width=".5" x="0" y="0" width="60" height="60"/>
                <use id="zoomplus" xlink:href="#zoomPlus" x="17" y="9" onmousedown="handleZoom(evt,'in')"/>
                <use id="zoomminus" xlink:href="#zoomMin" x="42" y="9" onmousedown="handleZoom(evt,'out')"/>
                <use id="reset" xlink:href="#resetDef" x="30" y="36" onmousedown="handleReset()"/>
                <g id="arrowUp" xlink:href="#dirArrow" transform="translate(30 24)" onmousedown="handlePan(0,-1)">
                  <use xlink:href="#rim" fill="#404040">
                        <set attributeName="fill" to="#808080" begin="arrowUp.mouseover" end="arrowUp.mouseout"/>
                  </use>
                  <path fill="none" stroke="white" stroke-width="1.5" d="M0,-3.0v7 M-2.5,-0.5L0,-3.0L2.5,-0.5"/>
                </g>
                <g id="arrowRight" xlink:href="#dirArrow" transform="rotate(90) translate(36 -43)" onmousedown="handlePan(1,0)">
                  <use xlink:href="#rim" fill="#404040">
                        <set attributeName="fill" to="#808080" begin="arrowRight.mouseover" end="arrowRight.mouseout"/>
                  </use>
                  <path fill="none" stroke="white" stroke-width="1.5" d="M0,-3.0v7 M-2.5,-0.5L0,-3.0L2.5,-0.5"/>
                </g>
                <g id="arrowDown" xlink:href="#dirArrow" transform="rotate(180) translate(-30 -48)" onmousedown="handlePan(0,1)">
                  <use xlink:href="#rim" fill="#404040">
                        <set attributeName="fill" to="#808080" begin="arrowDown.mouseover" end="arrowDown.mouseout"/>
                  </use>
                  <path fill="none" stroke="white" stroke-width="1.5" d="M0,-3.0v7 M-2.5,-0.5L0,-3.0L2.5,-0.5"/>
                </g>
                <g id="arrowLeft" xlink:href="#dirArrow" transform="rotate(270) translate(-36 17)" onmousedown="handlePan(-1,0)">
                  <use xlink:href="#rim" fill="#404040">
                        <set attributeName="fill" to="#808080" begin="arrowLeft.mouseover" end="arrowLeft.mouseout"/>
                  </use>
                  <path fill="none" stroke="white" stroke-width="1.5" d="M0,-3.0v7 M-2.5,-0.5L0,-3.0L2.5,-0.5"/>
                </g>
        </g>
        <svg viewBox="0 0 15 15" width="100%" height="30px" preserveAspectRatio="xMaxYMin meet">
         <g id="arrow_out" transform="scale(0.3 0.3)">
          <a xlink:href="Entity_8h__dep__incl_org.svg" target="_base">
           <rect id="button" ry="5" rx="5" y="6" x="6" height="38" width="38"
                fill="#f2f5e9" fill-opacity="0.5" stroke="#606060" stroke-width="1.0"/>
           <path id="arrow"
             d="M 11.500037,31.436501 C 11.940474,20.09759 22.043105,11.32322 32.158766,21.979434 L 37.068811,17.246167 C 37.068811,17.246167 37.088388,32 37.088388,32 L 22.160133,31.978069 C 22.160133,31.978069 26.997745,27.140456 26.997745,27.140456 C 18.528582,18.264221 13.291696,25.230495 11.500037,31.436501 z"
             style="fill:#404040;"/>
          </a>
         </g>
        </svg>
</svg>
