<?xml version="1.0" encoding="UTF-8" standalone="no"?>
<!DOCTYPE svg PUBLIC "-//W3C//DTD SVG 1.1//EN"
 "http://www.w3.org/Graphics/SVG/1.1/DTD/svg11.dtd">
<!-- Generated by graphviz version 7.0.5 (0)
 -->
<!-- Title: src/GameLoader.h Pages: 1 -->
<svg width="2560pt" height="357pt"
 viewBox="0.00 0.00 2559.75 357.00" xmlns="http://www.w3.org/2000/svg" xmlns:xlink="http://www.w3.org/1999/xlink">
<g id="graph0" class="graph" transform="scale(1 1) rotate(0) translate(4 353)">
<title>src/GameLoader.h</title>
<!-- Node1 -->
<g id="node1" class="node">
<title>Node1</title>
<g id="a_node1"><a xlink:title=" ">
<polygon fill="#999999" stroke="#666666" points="2480.25,-349 2376.25,-349 2376.25,-330 2480.25,-330 2480.25,-349"/>
<text text-anchor="middle" x="2428.25" y="-337" font-family="Helvetica,sans-Serif" font-size="10.00">src/GameLoader.h</text>
</a>
</g>
</g>
<!-- Node2 -->
<g id="node2" class="node">
<title>Node2</title>
<g id="a_node2"><a xlink:href="SceneNode_8h.html" target="_top" xlink:title=" ">
<polygon fill="white" stroke="#666666" points="1814.25,-239 1734.25,-239 1734.25,-220 1814.25,-220 1814.25,-239"/>
<text text-anchor="middle" x="1774.25" y="-227" font-family="Helvetica,sans-Serif" font-size="10.00">SceneNode.h</text>
</a>
</g>
</g>
<!-- Node1&#45;&gt;Node2 -->
<g id="edge1" class="edge">
<title>Node1&#45;&gt;Node2</title>
<path fill="none" stroke="#63b8ff" d="M2375.84,-329.84C2252.95,-309.55 1947.47,-259.11 1825.62,-238.98"/>
<polygon fill="#63b8ff" stroke="#63b8ff" points="1826.35,-235.56 1815.91,-237.38 1825.21,-242.46 1826.35,-235.56"/>
</g>
<!-- Node13 -->
<g id="node13" class="node">
<title>Node13</title>
<g id="a_node13"><a xlink:title=" ">
<polygon fill="#e0e0e0" stroke="#999999" points="2128.25,-129 2070.25,-129 2070.25,-110 2128.25,-110 2128.25,-129"/>
<text text-anchor="middle" x="2099.25" y="-117" font-family="Helvetica,sans-Serif" font-size="10.00">memory</text>
</a>
</g>
</g>
<!-- Node1&#45;&gt;Node13 -->
<g id="edge43" class="edge">
<title>Node1&#45;&gt;Node13</title>
<path fill="none" stroke="#63b8ff" d="M2428.31,-329.58C2428,-300.71 2422.8,-209.11 2371.25,-165 2337.12,-135.8 2206.78,-125.5 2139.68,-122.08"/>
<polygon fill="#63b8ff" stroke="#63b8ff" points="2139.99,-118.59 2129.83,-121.6 2139.65,-125.58 2139.99,-118.59"/>
</g>
<!-- Node16 -->
<g id="node16" class="node">
<title>Node16</title>
<g id="a_node16"><a xlink:title=" ">
<polygon fill="#e0e0e0" stroke="#999999" points="1474.25,-19 1414.25,-19 1414.25,0 1474.25,0 1474.25,-19"/>
<text text-anchor="middle" x="1444.25" y="-7" font-family="Helvetica,sans-Serif" font-size="10.00">iostream</text>
</a>
</g>
</g>
<!-- Node1&#45;&gt;Node16 -->
<g id="edge42" class="edge">
<title>Node1&#45;&gt;Node16</title>
<path fill="none" stroke="#63b8ff" d="M2433.69,-329.63C2444.2,-311.63 2466.25,-269.26 2466.25,-230.5 2466.25,-230.5 2466.25,-230.5 2466.25,-118.5 2466.25,-18.18 1677.37,-10.77 1485.79,-10.45"/>
<polygon fill="#63b8ff" stroke="#63b8ff" points="1486.08,-6.95 1476.07,-10.44 1486.07,-13.95 1486.08,-6.95"/>
</g>
<!-- Node17 -->
<g id="node17" class="node">
<title>Node17</title>
<g id="a_node17"><a xlink:href="Entity_8h.html" target="_top" xlink:title=" ">
<polygon fill="white" stroke="#666666" points="790.75,-294 737.75,-294 737.75,-275 790.75,-275 790.75,-294"/>
<text text-anchor="middle" x="764.25" y="-282" font-family="Helvetica,sans-Serif" font-size="10.00">Entity.h</text>
</a>
</g>
</g>
<!-- Node1&#45;&gt;Node17 -->
<g id="edge16" class="edge">
<title>Node1&#45;&gt;Node17</title>
<path fill="none" stroke="#63b8ff" d="M2376.16,-336.84C2122.77,-328.77 1022.18,-293.72 802.49,-286.72"/>
<polygon fill="#63b8ff" stroke="#63b8ff" points="802.6,-283.22 792.5,-286.4 802.38,-290.22 802.6,-283.22"/>
</g>
<!-- Node28 -->
<g id="node28" class="node">
<title>Node28</title>
<g id="a_node28"><a xlink:title=" ">
<polygon fill="#e0e0e0" stroke="#999999" points="2551.75,-294 2494.75,-294 2494.75,-275 2551.75,-275 2551.75,-294"/>
<text text-anchor="middle" x="2523.25" y="-282" font-family="Helvetica,sans-Serif" font-size="10.00">ostream</text>
</a>
</g>
</g>
<!-- Node1&#45;&gt;Node28 -->
<g id="edge44" class="edge">
<title>Node1&#45;&gt;Node28</title>
<path fill="none" stroke="#63b8ff" d="M2444.36,-329.51C2458.92,-321.39 2480.59,-309.3 2497.54,-299.85"/>
<polygon fill="#63b8ff" stroke="#63b8ff" points="2499.02,-303.02 2506.05,-295.1 2495.61,-296.91 2499.02,-303.02"/>
</g>
<!-- Node3 -->
<g id="node3" class="node">
<title>Node3</title>
<g id="a_node3"><a xlink:href="Enums_8h.html" target="_top" xlink:title=" ">
<polygon fill="white" stroke="#666666" points="371.75,-74 312.75,-74 312.75,-55 371.75,-55 371.75,-74"/>
<text text-anchor="middle" x="342.25" y="-62" font-family="Helvetica,sans-Serif" font-size="10.00">Enums.h</text>
</a>
</g>
</g>
<!-- Node2&#45;&gt;Node3 -->
<g id="edge2" class="edge">
<title>Node2&#45;&gt;Node3</title>
<path fill="none" stroke="#63b8ff" d="M1734.07,-228.12C1600.72,-226.55 1173.8,-218.83 1041.25,-184 1022.6,-179.1 1020.67,-170.69 1002.25,-165 739.23,-83.8 657.83,-122.89 383.13,-74.21"/>
<polygon fill="#63b8ff" stroke="#63b8ff" points="383.97,-70.8 373.51,-72.48 382.73,-77.69 383.97,-70.8"/>
</g>
<!-- Node4 -->
<g id="node4" class="node">
<title>Node4</title>
<g id="a_node4"><a xlink:title=" ">
<polygon fill="#e0e0e0" stroke="#999999" points="622.25,-74 512.25,-74 512.25,-55 622.25,-55 622.25,-74"/>
<text text-anchor="middle" x="567.25" y="-62" font-family="Helvetica,sans-Serif" font-size="10.00">SFML/Graphics.hpp</text>
</a>
</g>
</g>
<!-- Node2&#45;&gt;Node4 -->
<g id="edge3" class="edge">
<title>Node2&#45;&gt;Node4</title>
<path fill="none" stroke="#63b8ff" d="M1814.6,-228.07C1927.85,-225.62 2234.29,-209.83 2137.25,-110 2110.65,-82.64 929.79,-69.1 633.92,-66.13"/>
<polygon fill="#63b8ff" stroke="#63b8ff" points="634.09,-62.64 624.06,-66.04 634.02,-69.63 634.09,-62.64"/>
</g>
<!-- Node5 -->
<g id="node5" class="node">
<title>Node5</title>
<g id="a_node5"><a xlink:title=" ">
<polygon fill="#e0e0e0" stroke="#999999" points="2089.75,-184 1930.75,-184 1930.75,-165 2089.75,-165 2089.75,-184"/>
<text text-anchor="middle" x="2010.25" y="-172" font-family="Helvetica,sans-Serif" font-size="10.00">SFML/Graphics/Drawable.hpp</text>
</a>
</g>
</g>
<!-- Node2&#45;&gt;Node5 -->
<g id="edge4" class="edge">
<title>Node2&#45;&gt;Node5</title>
<path fill="none" stroke="#63b8ff" d="M1814.28,-219.51C1854.24,-210.54 1915.79,-196.71 1959.23,-186.96"/>
<polygon fill="#63b8ff" stroke="#63b8ff" points="1959.95,-190.38 1968.94,-184.78 1958.41,-183.55 1959.95,-190.38"/>
</g>
<!-- Node6 -->
<g id="node6" class="node">
<title>Node6</title>
<g id="a_node6"><a xlink:title=" ">
<polygon fill="#e0e0e0" stroke="#999999" points="831.25,-184 697.25,-184 697.25,-165 831.25,-165 831.25,-184"/>
<text text-anchor="middle" x="764.25" y="-172" font-family="Helvetica,sans-Serif" font-size="10.00">SFML/Graphics/Rect.hpp</text>
</a>
</g>
</g>
<!-- Node2&#45;&gt;Node6 -->
<g id="edge5" class="edge">
<title>Node2&#45;&gt;Node6</title>
<path fill="none" stroke="#63b8ff" d="M1734.18,-227.48C1606.17,-224.04 1195.35,-211.53 842.88,-184.06"/>
<polygon fill="#63b8ff" stroke="#63b8ff" points="843.17,-180.58 832.93,-183.28 842.62,-187.55 843.17,-180.58"/>
</g>
<!-- Node7 -->
<g id="node7" class="node">
<title>Node7</title>
<g id="a_node7"><a xlink:title=" ">
<polygon fill="#e0e0e0" stroke="#999999" points="2362.25,-184 2184.25,-184 2184.25,-165 2362.25,-165 2362.25,-184"/>
<text text-anchor="middle" x="2273.25" y="-172" font-family="Helvetica,sans-Serif" font-size="10.00">SFML/Graphics/RenderStates.hpp</text>
</a>
</g>
</g>
<!-- Node2&#45;&gt;Node7 -->
<g id="edge6" class="edge">
<title>Node2&#45;&gt;Node7</title>
<path fill="none" stroke="#63b8ff" d="M1814.66,-224.21C1893.09,-215.88 2067.86,-197.32 2177.56,-185.66"/>
<polygon fill="#63b8ff" stroke="#63b8ff" points="2177.88,-189.15 2187.46,-184.61 2177.14,-182.19 2177.88,-189.15"/>
</g>
<!-- Node8 -->
<g id="node8" class="node">
<title>Node8</title>
<g id="a_node8"><a xlink:title=" ">
<polygon fill="#e0e0e0" stroke="#999999" points="1226.75,-184 1049.75,-184 1049.75,-165 1226.75,-165 1226.75,-184"/>
<text text-anchor="middle" x="1138.25" y="-172" font-family="Helvetica,sans-Serif" font-size="10.00">SFML/Graphics/RenderTarget.hpp</text>
</a>
</g>
</g>
<!-- Node2&#45;&gt;Node8 -->
<g id="edge7" class="edge">
<title>Node2&#45;&gt;Node8</title>
<path fill="none" stroke="#63b8ff" d="M1733.75,-225.21C1645.85,-218.04 1430.71,-200.45 1238.63,-184.2"/>
<polygon fill="#63b8ff" stroke="#63b8ff" points="1238.95,-180.71 1228.69,-183.36 1238.36,-187.69 1238.95,-180.71"/>
</g>
<!-- Node9 -->
<g id="node9" class="node">
<title>Node9</title>
<g id="a_node9"><a xlink:title=" ">
<polygon fill="#e0e0e0" stroke="#999999" points="1405.75,-184 1244.75,-184 1244.75,-165 1405.75,-165 1405.75,-184"/>
<text text-anchor="middle" x="1325.25" y="-172" font-family="Helvetica,sans-Serif" font-size="10.00">SFML/Graphics/Transform.hpp</text>
</a>
</g>
</g>
<!-- Node2&#45;&gt;Node9 -->
<g id="edge8" class="edge">
<title>Node2&#45;&gt;Node9</title>
<path fill="none" stroke="#63b8ff" d="M1734.01,-223.75C1661.95,-215.24 1509.39,-197.24 1412.39,-185.79"/>
<polygon fill="#63b8ff" stroke="#63b8ff" points="1412.99,-182.33 1402.65,-184.64 1412.17,-189.28 1412.99,-182.33"/>
</g>
<!-- Node10 -->
<g id="node10" class="node">
<title>Node10</title>
<g id="a_node10"><a xlink:title=" ">
<polygon fill="#e0e0e0" stroke="#999999" points="1606.25,-184 1424.25,-184 1424.25,-165 1606.25,-165 1606.25,-184"/>
<text text-anchor="middle" x="1515.25" y="-172" font-family="Helvetica,sans-Serif" font-size="10.00">SFML/Graphics/Transformable.hpp</text>
</a>
</g>
</g>
<!-- Node2&#45;&gt;Node10 -->
<g id="edge9" class="edge">
<title>Node2&#45;&gt;Node10</title>
<path fill="none" stroke="#63b8ff" d="M1733.78,-220.22C1689.7,-211.2 1618.93,-196.72 1569.92,-186.69"/>
<polygon fill="#63b8ff" stroke="#63b8ff" points="1570.87,-183.31 1560.37,-184.73 1569.47,-190.17 1570.87,-183.31"/>
</g>
<!-- Node11 -->
<g id="node11" class="node">
<title>Node11</title>
<g id="a_node11"><a xlink:title=" ">
<polygon fill="#e0e0e0" stroke="#999999" points="1796.25,-184 1624.25,-184 1624.25,-165 1796.25,-165 1796.25,-184"/>
<text text-anchor="middle" x="1710.25" y="-172" font-family="Helvetica,sans-Serif" font-size="10.00">SFML/System/NonCopyable.hpp</text>
</a>
</g>
</g>
<!-- Node2&#45;&gt;Node11 -->
<g id="edge10" class="edge">
<title>Node2&#45;&gt;Node11</title>
<path fill="none" stroke="#63b8ff" d="M1763.39,-219.51C1754.14,-211.85 1740.63,-200.66 1729.54,-191.47"/>
<polygon fill="#63b8ff" stroke="#63b8ff" points="1732.05,-189.01 1722.11,-185.32 1727.58,-194.4 1732.05,-189.01"/>
</g>
<!-- Node12 -->
<g id="node12" class="node">
<title>Node12</title>
<g id="a_node12"><a xlink:title=" ">
<polygon fill="#e0e0e0" stroke="#999999" points="992.75,-184 849.75,-184 849.75,-165 992.75,-165 992.75,-184"/>
<text text-anchor="middle" x="921.25" y="-172" font-family="Helvetica,sans-Serif" font-size="10.00">SFML/System/Vector2.hpp</text>
</a>
</g>
</g>
<!-- Node2&#45;&gt;Node12 -->
<g id="edge11" class="edge">
<title>Node2&#45;&gt;Node12</title>
<path fill="none" stroke="#63b8ff" d="M1733.88,-226.74C1619.72,-221.62 1284.84,-205.76 1007.25,-184 1006.23,-183.92 1005.21,-183.84 1004.19,-183.76"/>
<polygon fill="#63b8ff" stroke="#63b8ff" points="1004.79,-180.3 994.53,-182.94 1004.2,-187.27 1004.79,-180.3"/>
</g>
<!-- Node2&#45;&gt;Node13 -->
<g id="edge12" class="edge">
<title>Node2&#45;&gt;Node13</title>
<path fill="none" stroke="#63b8ff" d="M1814.6,-229.25C1893.28,-229.76 2062.75,-225.84 2099.25,-184 2109.56,-172.18 2108.41,-153.88 2105.35,-139.95"/>
<polygon fill="#63b8ff" stroke="#63b8ff" points="2108.8,-139.31 2102.81,-130.58 2102.05,-141.14 2108.8,-139.31"/>
</g>
<!-- Node14 -->
<g id="node14" class="node">
<title>Node14</title>
<g id="a_node14"><a xlink:title=" ">
<polygon fill="#e0e0e0" stroke="#999999" points="1861.75,-184 1814.75,-184 1814.75,-165 1861.75,-165 1861.75,-184"/>
<text text-anchor="middle" x="1838.25" y="-172" font-family="Helvetica,sans-Serif" font-size="10.00">vector</text>
</a>
</g>
</g>
<!-- Node2&#45;&gt;Node14 -->
<g id="edge13" class="edge">
<title>Node2&#45;&gt;Node14</title>
<path fill="none" stroke="#63b8ff" d="M1785.11,-219.51C1794.36,-211.85 1807.87,-200.66 1818.96,-191.47"/>
<polygon fill="#63b8ff" stroke="#63b8ff" points="1820.92,-194.4 1826.39,-185.32 1816.45,-189.01 1820.92,-194.4"/>
</g>
<!-- Node15 -->
<g id="node15" class="node">
<title>Node15</title>
<g id="a_node15"><a xlink:title=" ">
<polygon fill="#e0e0e0" stroke="#999999" points="1912.25,-184 1880.25,-184 1880.25,-165 1912.25,-165 1912.25,-184"/>
<text text-anchor="middle" x="1896.25" y="-172" font-family="Helvetica,sans-Serif" font-size="10.00">set</text>
</a>
</g>
</g>
<!-- Node2&#45;&gt;Node15 -->
<g id="edge14" class="edge">
<title>Node2&#45;&gt;Node15</title>
<path fill="none" stroke="#63b8ff" d="M1794.94,-219.51C1815.42,-210.62 1846.85,-196.96 1869.27,-187.22"/>
<polygon fill="#63b8ff" stroke="#63b8ff" points="1870.6,-190.46 1878.38,-183.26 1867.81,-184.04 1870.6,-190.46"/>
</g>
<!-- Node2&#45;&gt;Node16 -->
<g id="edge15" class="edge">
<title>Node2&#45;&gt;Node16</title>
<path fill="none" stroke="#63b8ff" d="M1814.58,-228.59C1942.57,-228.46 2333.46,-224.71 2371.25,-184 2376.99,-177.81 2376.43,-171.67 2371.25,-165 2260.71,-22.63 1650.46,-10.92 1485.41,-10.39"/>
<polygon fill="#63b8ff" stroke="#63b8ff" points="1485.83,-6.89 1475.82,-10.37 1485.82,-13.89 1485.83,-6.89"/>
</g>
<!-- Node17&#45;&gt;Node2 -->
<g id="edge38" class="edge">
<title>Node17&#45;&gt;Node2</title>
<path fill="none" stroke="#63b8ff" d="M791,-282.1C926.69,-274.98 1539.42,-242.82 1722.46,-233.22"/>
<polygon fill="#63b8ff" stroke="#63b8ff" points="1722.57,-236.72 1732.37,-232.7 1722.2,-229.73 1722.57,-236.72"/>
</g>
<!-- Node17&#45;&gt;Node3 -->
<g id="edge37" class="edge">
<title>Node17&#45;&gt;Node3</title>
<path fill="none" stroke="#63b8ff" d="M737.35,-282.03C608.98,-274.74 63,-240.57 15.25,-184 -65.1,-88.81 196.4,-70.08 300.97,-66.4"/>
<polygon fill="#63b8ff" stroke="#63b8ff" points="300.94,-69.9 310.82,-66.09 300.72,-62.91 300.94,-69.9"/>
</g>
<!-- Node17&#45;&gt;Node6 -->
<g id="edge39" class="edge">
<title>Node17&#45;&gt;Node6</title>
<path fill="none" stroke="#63b8ff" d="M764.25,-274.66C764.25,-257.57 764.25,-219.61 764.25,-195.92"/>
<polygon fill="#63b8ff" stroke="#63b8ff" points="767.75,-195.97 764.25,-185.97 760.75,-195.97 767.75,-195.97"/>
</g>
<!-- Node17&#45;&gt;Node12 -->
<g id="edge41" class="edge">
<title>Node17&#45;&gt;Node12</title>
<path fill="none" stroke="#63b8ff" d="M777.1,-274.66C803.78,-256.31 865.47,-213.87 898.85,-190.91"/>
<polygon fill="#63b8ff" stroke="#63b8ff" points="900.72,-193.87 906.98,-185.32 896.75,-188.1 900.72,-193.87"/>
</g>
<!-- Node18 -->
<g id="node18" class="node">
<title>Node18</title>
<g id="a_node18"><a xlink:href="AnimationMachine_8h.html" target="_top" xlink:title=" ">
<polygon fill="white" stroke="#666666" points="464.75,-239 347.75,-239 347.75,-220 464.75,-220 464.75,-239"/>
<text text-anchor="middle" x="406.25" y="-227" font-family="Helvetica,sans-Serif" font-size="10.00">AnimationMachine.h</text>
</a>
</g>
</g>
<!-- Node17&#45;&gt;Node18 -->
<g id="edge17" class="edge">
<title>Node17&#45;&gt;Node18</title>
<path fill="none" stroke="#63b8ff" d="M737.34,-279.52C682.36,-271.38 555.62,-252.61 475.86,-240.81"/>
<polygon fill="#63b8ff" stroke="#63b8ff" points="476.84,-237.41 466.43,-239.41 475.81,-244.34 476.84,-237.41"/>
</g>
<!-- Node21 -->
<g id="node21" class="node">
<title>Node21</title>
<g id="a_node21"><a xlink:title=" ">
<polygon fill="#e0e0e0" stroke="#999999" points="678.75,-184 547.75,-184 547.75,-165 678.75,-165 678.75,-184"/>
<text text-anchor="middle" x="613.25" y="-172" font-family="Helvetica,sans-Serif" font-size="10.00">SFML/System/Time.hpp</text>
</a>
</g>
</g>
<!-- Node17&#45;&gt;Node21 -->
<g id="edge40" class="edge">
<title>Node17&#45;&gt;Node21</title>
<path fill="none" stroke="#63b8ff" d="M751.89,-274.66C726.23,-256.31 666.89,-213.87 634.8,-190.91"/>
<polygon fill="#63b8ff" stroke="#63b8ff" points="637.18,-188.31 627.01,-185.34 633.11,-194.01 637.18,-188.31"/>
</g>
<!-- Node18&#45;&gt;Node3 -->
<g id="edge30" class="edge">
<title>Node18&#45;&gt;Node3</title>
<path fill="none" stroke="#63b8ff" d="M372.19,-219.63C352.28,-212.86 328.03,-201.62 312.25,-184 289.59,-158.71 279.5,-141.05 293.25,-110 298.41,-98.34 308.31,-88.42 317.87,-80.93"/>
<polygon fill="#63b8ff" stroke="#63b8ff" points="319.82,-83.84 325.89,-75.16 315.73,-78.16 319.82,-83.84"/>
</g>
<!-- Node18&#45;&gt;Node4 -->
<g id="edge18" class="edge">
<title>Node18&#45;&gt;Node4</title>
<path fill="none" stroke="#63b8ff" d="M433.15,-219.62C452.15,-212.32 477.33,-200.5 495.25,-184 526.28,-155.42 548.57,-110.44 559.54,-84.9"/>
<polygon fill="#63b8ff" stroke="#63b8ff" points="562.73,-86.36 563.31,-75.78 556.26,-83.68 562.73,-86.36"/>
</g>
<!-- Node18&#45;&gt;Node16 -->
<g id="edge23" class="edge">
<title>Node18&#45;&gt;Node16</title>
<path fill="none" stroke="#63b8ff" d="M413.57,-219.63C420.6,-210.87 431.31,-196.96 439.25,-184 447.6,-170.35 489.85,-63.75 503.25,-55 541.35,-30.1 1224.88,-14.85 1402.4,-11.3"/>
<polygon fill="#63b8ff" stroke="#63b8ff" points="1402.38,-14.8 1412.31,-11.11 1402.24,-7.8 1402.38,-14.8"/>
</g>
<!-- Node19 -->
<g id="node19" class="node">
<title>Node19</title>
<g id="a_node19"><a xlink:title=" ">
<polygon fill="#e0e0e0" stroke="#999999" points="174.75,-184 33.75,-184 33.75,-165 174.75,-165 174.75,-184"/>
<text text-anchor="middle" x="104.25" y="-172" font-family="Helvetica,sans-Serif" font-size="10.00">SFML/Graphics/Sprite.hpp</text>
</a>
</g>
</g>
<!-- Node18&#45;&gt;Node19 -->
<g id="edge19" class="edge">
<title>Node18&#45;&gt;Node19</title>
<path fill="none" stroke="#63b8ff" d="M355.02,-219.51C302.99,-210.38 222.34,-196.23 166.62,-186.45"/>
<polygon fill="#63b8ff" stroke="#63b8ff" points="167.42,-183.03 156.97,-184.75 166.21,-189.93 167.42,-183.03"/>
</g>
<!-- Node20 -->
<g id="node20" class="node">
<title>Node20</title>
<g id="a_node20"><a xlink:title=" ">
<polygon fill="#e0e0e0" stroke="#999999" points="195.75,-129 46.75,-129 46.75,-110 195.75,-110 195.75,-129"/>
<text text-anchor="middle" x="121.25" y="-117" font-family="Helvetica,sans-Serif" font-size="10.00">SFML/Graphics/Texture.hpp</text>
</a>
</g>
</g>
<!-- Node18&#45;&gt;Node20 -->
<g id="edge20" class="edge">
<title>Node18&#45;&gt;Node20</title>
<path fill="none" stroke="#63b8ff" d="M347.37,-225.88C245.54,-220.73 45.34,-207.69 24.25,-184 4.32,-161.62 40.38,-143.79 74.05,-132.79"/>
<polygon fill="#63b8ff" stroke="#63b8ff" points="74.85,-136.21 83.38,-129.91 72.79,-129.52 74.85,-136.21"/>
</g>
<!-- Node18&#45;&gt;Node21 -->
<g id="edge21" class="edge">
<title>Node18&#45;&gt;Node21</title>
<path fill="none" stroke="#63b8ff" d="M441.36,-219.51C476.11,-210.61 529.48,-196.95 567.52,-187.21"/>
<polygon fill="#63b8ff" stroke="#63b8ff" points="568.02,-190.69 576.84,-184.82 566.29,-183.91 568.02,-190.69"/>
</g>
<!-- Node22 -->
<g id="node22" class="node">
<title>Node22</title>
<g id="a_node22"><a xlink:title=" ">
<polygon fill="#e0e0e0" stroke="#999999" points="265.25,-184 193.25,-184 193.25,-165 265.25,-165 265.25,-184"/>
<text text-anchor="middle" x="229.25" y="-172" font-family="Helvetica,sans-Serif" font-size="10.00">sys/types.h</text>
</a>
</g>
</g>
<!-- Node18&#45;&gt;Node22 -->
<g id="edge22" class="edge">
<title>Node18&#45;&gt;Node22</title>
<path fill="none" stroke="#63b8ff" d="M376.22,-219.51C347.02,-210.76 302.44,-197.42 270.04,-187.71"/>
<polygon fill="#63b8ff" stroke="#63b8ff" points="271.16,-184.4 260.58,-184.88 269.15,-191.1 271.16,-184.4"/>
</g>
<!-- Node23 -->
<g id="node23" class="node">
<title>Node23</title>
<g id="a_node23"><a xlink:href="Consts_8h.html" target="_top" xlink:title=" ">
<polygon fill="white" stroke="#666666" points="455.75,-129 396.75,-129 396.75,-110 455.75,-110 455.75,-129"/>
<text text-anchor="middle" x="426.25" y="-117" font-family="Helvetica,sans-Serif" font-size="10.00">Consts.h</text>
</a>
</g>
</g>
<!-- Node18&#45;&gt;Node23 -->
<g id="edge24" class="edge">
<title>Node18&#45;&gt;Node23</title>
<path fill="none" stroke="#63b8ff" d="M410.64,-219.55C414.73,-210.74 420.58,-196.79 423.25,-184 426.23,-169.73 426.94,-153.28 426.92,-140.69"/>
<polygon fill="#63b8ff" stroke="#63b8ff" points="430.42,-140.68 426.73,-130.75 423.42,-140.81 430.42,-140.68"/>
</g>
<!-- Node26 -->
<g id="node26" class="node">
<title>Node26</title>
<g id="a_node26"><a xlink:href="TextureHolder_8h.html" target="_top" xlink:title=" ">
<polygon fill="white" stroke="#666666" points="414.75,-184 321.75,-184 321.75,-165 414.75,-165 414.75,-184"/>
<text text-anchor="middle" x="368.25" y="-172" font-family="Helvetica,sans-Serif" font-size="10.00">TextureHolder.h</text>
</a>
</g>
</g>
<!-- Node18&#45;&gt;Node26 -->
<g id="edge31" class="edge">
<title>Node18&#45;&gt;Node26</title>
<path fill="none" stroke="#63b8ff" d="M399.97,-219.75C394.89,-212.66 387.55,-202.42 381.22,-193.59"/>
<polygon fill="#63b8ff" stroke="#63b8ff" points="384.21,-191.76 375.54,-185.67 378.52,-195.84 384.21,-191.76"/>
</g>
<!-- Node23&#45;&gt;Node3 -->
<g id="edge26" class="edge">
<title>Node23&#45;&gt;Node3</title>
<path fill="none" stroke="#63b8ff" d="M412,-109.51C399.37,-101.54 380.69,-89.75 365.84,-80.38"/>
<polygon fill="#63b8ff" stroke="#63b8ff" points="367.89,-77.54 357.57,-75.17 364.16,-83.46 367.89,-77.54"/>
</g>
<!-- Node23&#45;&gt;Node4 -->
<g id="edge25" class="edge">
<title>Node23&#45;&gt;Node4</title>
<path fill="none" stroke="#63b8ff" d="M450.17,-109.51C472.89,-100.97 507.3,-88.03 532.94,-78.4"/>
<polygon fill="#63b8ff" stroke="#63b8ff" points="534.14,-81.69 542.27,-74.89 531.67,-75.13 534.14,-81.69"/>
</g>
<!-- Node24 -->
<g id="node24" class="node">
<title>Node24</title>
<g id="a_node24"><a xlink:href="Random_8h.html" target="_top" xlink:title=" ">
<polygon fill="white" stroke="#666666" points="456.25,-74 390.25,-74 390.25,-55 456.25,-55 456.25,-74"/>
<text text-anchor="middle" x="423.25" y="-62" font-family="Helvetica,sans-Serif" font-size="10.00">Random.h</text>
</a>
</g>
</g>
<!-- Node23&#45;&gt;Node24 -->
<g id="edge27" class="edge">
<title>Node23&#45;&gt;Node24</title>
<path fill="none" stroke="#63b8ff" d="M425.75,-109.75C425.39,-103.27 424.87,-94.16 424.4,-85.9"/>
<polygon fill="#63b8ff" stroke="#63b8ff" points="427.9,-85.74 423.84,-75.95 420.91,-86.13 427.9,-85.74"/>
</g>
<!-- Node24&#45;&gt;Node16 -->
<g id="edge29" class="edge">
<title>Node24&#45;&gt;Node16</title>
<path fill="none" stroke="#63b8ff" d="M456.55,-56.91C461.14,-56.17 465.8,-55.5 470.25,-55 829.46,-14.49 1267.16,-10.6 1402.43,-10.42"/>
<polygon fill="#63b8ff" stroke="#63b8ff" points="1402.33,-13.92 1412.32,-10.42 1402.32,-6.92 1402.33,-13.92"/>
</g>
<!-- Node25 -->
<g id="node25" class="node">
<title>Node25</title>
<g id="a_node25"><a xlink:title=" ">
<polygon fill="#e0e0e0" stroke="#999999" points="450.25,-19 396.25,-19 396.25,0 450.25,0 450.25,-19"/>
<text text-anchor="middle" x="423.25" y="-7" font-family="Helvetica,sans-Serif" font-size="10.00">random</text>
</a>
</g>
</g>
<!-- Node24&#45;&gt;Node25 -->
<g id="edge28" class="edge">
<title>Node24&#45;&gt;Node25</title>
<path fill="none" stroke="#63b8ff" d="M423.25,-54.75C423.25,-48.27 423.25,-39.16 423.25,-30.9"/>
<polygon fill="#63b8ff" stroke="#63b8ff" points="426.75,-30.96 423.25,-20.96 419.75,-30.96 426.75,-30.96"/>
</g>
<!-- Node26&#45;&gt;Node3 -->
<g id="edge35" class="edge">
<title>Node26&#45;&gt;Node3</title>
<path fill="none" stroke="#63b8ff" d="M366.12,-164.66C361.99,-147.5 352.78,-109.26 347.09,-85.6"/>
<polygon fill="#63b8ff" stroke="#63b8ff" points="350.5,-84.83 344.76,-75.93 343.7,-86.47 350.5,-84.83"/>
</g>
<!-- Node26&#45;&gt;Node13 -->
<g id="edge32" class="edge">
<title>Node26&#45;&gt;Node13</title>
<path fill="none" stroke="#63b8ff" d="M415.05,-170.91C449.41,-169.07 497.22,-166.64 539.25,-165 1142.99,-141.39 1878.64,-125.15 2058.27,-121.35"/>
<polygon fill="#63b8ff" stroke="#63b8ff" points="2058.32,-124.85 2068.24,-121.14 2058.17,-117.85 2058.32,-124.85"/>
</g>
<!-- Node26&#45;&gt;Node20 -->
<g id="edge34" class="edge">
<title>Node26&#45;&gt;Node20</title>
<path fill="none" stroke="#63b8ff" d="M326.35,-164.51C284.35,-155.5 219.56,-141.6 174.07,-131.83"/>
<polygon fill="#63b8ff" stroke="#63b8ff" points="174.93,-128.44 164.42,-129.76 173.47,-135.28 174.93,-128.44"/>
</g>
<!-- Node26&#45;&gt;Node23 -->
<g id="edge36" class="edge">
<title>Node26&#45;&gt;Node23</title>
<path fill="none" stroke="#63b8ff" d="M378.09,-164.51C386.3,-157 398.23,-146.1 408.16,-137.03"/>
<polygon fill="#63b8ff" stroke="#63b8ff" points="410.42,-139.71 415.44,-130.38 405.7,-134.54 410.42,-139.71"/>
</g>
<!-- Node27 -->
<g id="node27" class="node">
<title>Node27</title>
<g id="a_node27"><a xlink:title=" ">
<polygon fill="#e0e0e0" stroke="#999999" points="340.25,-129 302.25,-129 302.25,-110 340.25,-110 340.25,-129"/>
<text text-anchor="middle" x="321.25" y="-117" font-family="Helvetica,sans-Serif" font-size="10.00">map</text>
</a>
</g>
</g>
<!-- Node26&#45;&gt;Node27 -->
<g id="edge33" class="edge">
<title>Node26&#45;&gt;Node27</title>
<path fill="none" stroke="#63b8ff" d="M360.49,-164.75C354.06,-157.5 344.73,-146.98 336.78,-138.02"/>
<polygon fill="#63b8ff" stroke="#63b8ff" points="339.44,-135.73 330.18,-130.57 334.2,-140.38 339.44,-135.73"/>
</g>
</g>
</svg>
