<?xml version="1.0" encoding="UTF-8" standalone="no"?>
<!DOCTYPE svg PUBLIC "-//W3C//DTD SVG 1.1//EN"
 "http://www.w3.org/Graphics/SVG/1.1/DTD/svg11.dtd">
<!-- Generated by graphviz version 7.0.5 (0)
 -->
<!-- Title: src/GameLoader.h Pages: 1 -->
<svg width="383pt" height="247pt"
 viewBox="0.00 0.00 382.50 247.00" xmlns="http://www.w3.org/2000/svg" xmlns:xlink="http://www.w3.org/1999/xlink">
<g id="graph0" class="graph" transform="scale(1 1) rotate(0) translate(4 243)">
<title>src/GameLoader.h</title>
<!-- Node1 -->
<g id="node1" class="node">
<title>Node1</title>
<g id="a_node1"><a xlink:title=" ">
<polygon fill="#999999" stroke="#666666" points="172,-239 68,-239 68,-220 172,-220 172,-239"/>
<text text-anchor="middle" x="120" y="-227" font-family="Helvetica,sans-Serif" font-size="10.00">src/GameLoader.h</text>
</a>
</g>
</g>
<!-- Node2 -->
<g id="node2" class="node">
<title>Node2</title>
<g id="a_node2"><a xlink:href="GameLoader_8cpp.html" target="_top" xlink:title=" ">
<polygon fill="white" stroke="#666666" points="116,-184 0,-184 0,-165 116,-165 116,-184"/>
<text text-anchor="middle" x="58" y="-172" font-family="Helvetica,sans-Serif" font-size="10.00">src/GameLoader.cpp</text>
</a>
</g>
</g>
<!-- Node1&#45;&gt;Node2 -->
<g id="edge1" class="edge">
<title>Node1&#45;&gt;Node2</title>
<path fill="none" stroke="#63b8ff" d="M100.8,-212.09C90.1,-202.94 77.19,-191.9 68.36,-184.36"/>
<polygon fill="#63b8ff" stroke="#63b8ff" points="98.46,-214.69 108.33,-218.53 103.01,-209.37 98.46,-214.69"/>
</g>
<!-- Node3 -->
<g id="node3" class="node">
<title>Node3</title>
<g id="a_node3"><a xlink:href="GameState_8h.html" target="_top" xlink:title=" ">
<polygon fill="white" stroke="#666666" points="232,-184 134,-184 134,-165 232,-165 232,-184"/>
<text text-anchor="middle" x="183" y="-172" font-family="Helvetica,sans-Serif" font-size="10.00">src/GameState.h</text>
</a>
</g>
</g>
<!-- Node1&#45;&gt;Node3 -->
<g id="edge2" class="edge">
<title>Node1&#45;&gt;Node3</title>
<path fill="none" stroke="#63b8ff" d="M139.18,-212.37C150.12,-203.16 163.41,-191.98 172.47,-184.36"/>
<polygon fill="#63b8ff" stroke="#63b8ff" points="137.24,-209.42 131.85,-218.53 141.75,-214.78 137.24,-209.42"/>
</g>
<!-- Node4 -->
<g id="node4" class="node">
<title>Node4</title>
<g id="a_node4"><a xlink:href="GameState_8cpp.html" target="_top" xlink:title=" ">
<polygon fill="white" stroke="#666666" points="171.5,-129 62.5,-129 62.5,-110 171.5,-110 171.5,-129"/>
<text text-anchor="middle" x="117" y="-117" font-family="Helvetica,sans-Serif" font-size="10.00">src/GameState.cpp</text>
</a>
</g>
</g>
<!-- Node3&#45;&gt;Node4 -->
<g id="edge3" class="edge">
<title>Node3&#45;&gt;Node4</title>
<path fill="none" stroke="#63b8ff" d="M162.91,-157.37C151.45,-148.16 137.52,-136.98 128.03,-129.36"/>
<polygon fill="#63b8ff" stroke="#63b8ff" points="160.64,-160.03 170.62,-163.56 165.02,-154.57 160.64,-160.03"/>
</g>
<!-- Node5 -->
<g id="node5" class="node">
<title>Node5</title>
<g id="a_node5"><a xlink:href="MainMenuState_8h.html" target="_top" xlink:title=" ">
<polygon fill="white" stroke="#666666" points="308.5,-129 189.5,-129 189.5,-110 308.5,-110 308.5,-129"/>
<text text-anchor="middle" x="249" y="-117" font-family="Helvetica,sans-Serif" font-size="10.00">src/MainMenuState.h</text>
</a>
</g>
</g>
<!-- Node3&#45;&gt;Node5 -->
<g id="edge4" class="edge">
<title>Node3&#45;&gt;Node5</title>
<path fill="none" stroke="#63b8ff" d="M203.09,-157.37C214.55,-148.16 228.48,-136.98 237.97,-129.36"/>
<polygon fill="#63b8ff" stroke="#63b8ff" points="200.98,-154.57 195.38,-163.56 205.36,-160.03 200.98,-154.57"/>
</g>
<!-- Node6 -->
<g id="node6" class="node">
<title>Node6</title>
<g id="a_node6"><a xlink:href="Game_8h.html" target="_top" xlink:title=" ">
<polygon fill="white" stroke="#666666" points="225,-74 153,-74 153,-55 225,-55 225,-74"/>
<text text-anchor="middle" x="189" y="-62" font-family="Helvetica,sans-Serif" font-size="10.00">src/Game.h</text>
</a>
</g>
</g>
<!-- Node5&#45;&gt;Node6 -->
<g id="edge5" class="edge">
<title>Node5&#45;&gt;Node6</title>
<path fill="none" stroke="#63b8ff" d="M230.42,-102.09C220.06,-92.94 207.57,-81.9 199.03,-74.36"/>
<polygon fill="#63b8ff" stroke="#63b8ff" points="227.88,-104.51 237.69,-108.51 232.51,-99.26 227.88,-104.51"/>
</g>
<!-- Node9 -->
<g id="node9" class="node">
<title>Node9</title>
<g id="a_node9"><a xlink:href="MainMenuState_8cpp.html" target="_top" xlink:title=" ">
<polygon fill="white" stroke="#666666" points="374.5,-74 243.5,-74 243.5,-55 374.5,-55 374.5,-74"/>
<text text-anchor="middle" x="309" y="-62" font-family="Helvetica,sans-Serif" font-size="10.00">src/MainMenuState.cpp</text>
</a>
</g>
</g>
<!-- Node5&#45;&gt;Node9 -->
<g id="edge8" class="edge">
<title>Node5&#45;&gt;Node9</title>
<path fill="none" stroke="#63b8ff" d="M267.58,-102.09C277.94,-92.94 290.43,-81.9 298.97,-74.36"/>
<polygon fill="#63b8ff" stroke="#63b8ff" points="265.49,-99.26 260.31,-108.51 270.12,-104.51 265.49,-99.26"/>
</g>
<!-- Node7 -->
<g id="node7" class="node">
<title>Node7</title>
<g id="a_node7"><a xlink:href="FinalProjectCS202_8cpp.html" target="_top" xlink:title=" ">
<polygon fill="white" stroke="#666666" points="195,-19 53,-19 53,0 195,0 195,-19"/>
<text text-anchor="middle" x="124" y="-7" font-family="Helvetica,sans-Serif" font-size="10.00">src/FinalProjectCS202.cpp</text>
</a>
</g>
</g>
<!-- Node6&#45;&gt;Node7 -->
<g id="edge6" class="edge">
<title>Node6&#45;&gt;Node7</title>
<path fill="none" stroke="#63b8ff" d="M169.21,-47.37C157.92,-38.16 144.21,-26.98 134.86,-19.36"/>
<polygon fill="#63b8ff" stroke="#63b8ff" points="166.84,-49.95 176.8,-53.55 171.26,-44.52 166.84,-49.95"/>
</g>
<!-- Node8 -->
<g id="node8" class="node">
<title>Node8</title>
<g id="a_node8"><a xlink:href="Game_8cpp.html" target="_top" xlink:title=" ">
<polygon fill="white" stroke="#666666" points="296.5,-19 213.5,-19 213.5,0 296.5,0 296.5,-19"/>
<text text-anchor="middle" x="255" y="-7" font-family="Helvetica,sans-Serif" font-size="10.00">src/Game.cpp</text>
</a>
</g>
</g>
<!-- Node6&#45;&gt;Node8 -->
<g id="edge7" class="edge">
<title>Node6&#45;&gt;Node8</title>
<path fill="none" stroke="#63b8ff" d="M209.09,-47.37C220.55,-38.16 234.48,-26.98 243.97,-19.36"/>
<polygon fill="#63b8ff" stroke="#63b8ff" points="206.98,-44.57 201.38,-53.56 211.36,-50.03 206.98,-44.57"/>
</g>
</g>
</svg>
