<?xml version="1.0" encoding="UTF-8" standalone="no"?>
<!DOCTYPE svg PUBLIC "-//W3C//DTD SVG 1.1//EN"
 "http://www.w3.org/Graphics/SVG/1.1/DTD/svg11.dtd">
<!-- Generated by graphviz version 7.0.5 (0)
 -->
<!-- Title: Graph Legend Pages: 1 -->
<svg width="544pt" height="162pt"
 viewBox="0.00 0.00 543.50 162.00" xmlns="http://www.w3.org/2000/svg" xmlns:xlink="http://www.w3.org/1999/xlink">
<g id="graph0" class="graph" transform="scale(1 1) rotate(0) translate(4 158)">
<title>Graph Legend</title>
<!-- Node9 -->
<g id="node1" class="node">
<title>Node9</title>
<g id="a_node1"><a xlink:title=" ">
<polygon fill="#999999" stroke="#666666" points="251,-0.5 251,-19.5 311,-19.5 311,-0.5 251,-0.5"/>
<text text-anchor="middle" x="281" y="-7.5" font-family="Helvetica,sans-Serif" font-size="10.00">Inherited</text>
</a>
</g>
</g>
<!-- Node10 -->
<g id="node2" class="node">
<title>Node10</title>
<g id="a_node2"><a xlink:href="url.html" xlink:title=" ">
<polygon fill="white" stroke="#666666" points="0,-67.5 0,-86.5 70,-86.5 70,-67.5 0,-67.5"/>
<text text-anchor="middle" x="35" y="-74.5" font-family="Helvetica,sans-Serif" font-size="10.00">PublicBase</text>
</a>
</g>
</g>
<!-- Node10&#45;&gt;Node9 -->
<g id="edge1" class="edge">
<title>Node10&#45;&gt;Node9</title>
<path fill="none" stroke="#63b8ff" d="M78.17,-64.59C127.8,-51.48 207.95,-30.3 251.14,-18.89"/>
<polygon fill="#63b8ff" stroke="#63b8ff" points="77.4,-61.18 68.62,-67.12 79.19,-67.94 77.4,-61.18"/>
</g>
<!-- Node11 -->
<g id="node3" class="node">
<title>Node11</title>
<g id="a_node3"><a xlink:href="url.html" xlink:title=" ">
<polygon fill="#fff0f0" stroke="red" points="3,-134.5 3,-153.5 67,-153.5 67,-134.5 3,-134.5"/>
<text text-anchor="middle" x="35" y="-141.5" font-family="Helvetica,sans-Serif" font-size="10.00">Truncated</text>
</a>
</g>
</g>
<!-- Node11&#45;&gt;Node10 -->
<g id="edge2" class="edge">
<title>Node11&#45;&gt;Node10</title>
<path fill="none" stroke="#63b8ff" d="M35,-123.04C35,-110.7 35,-95.5 35,-86.29"/>
<polygon fill="#63b8ff" stroke="#63b8ff" points="31.5,-122.99 35,-132.99 38.5,-122.99 31.5,-122.99"/>
</g>
<!-- Node13 -->
<g id="node4" class="node">
<title>Node13</title>
<polygon fill="white" stroke="#666666" points="88.5,-67.5 88.5,-86.5 175.5,-86.5 175.5,-67.5 88.5,-67.5"/>
<text text-anchor="middle" x="132" y="-74.5" font-family="Helvetica,sans-Serif" font-size="10.00">ProtectedBase</text>
</g>
<!-- Node13&#45;&gt;Node9 -->
<g id="edge3" class="edge">
<title>Node13&#45;&gt;Node9</title>
<path fill="none" stroke="darkgreen" d="M161.66,-63.06C191.32,-50.12 236.08,-30.6 261.52,-19.5"/>
<polygon fill="darkgreen" stroke="darkgreen" points="160.63,-59.69 152.87,-66.9 163.43,-66.11 160.63,-59.69"/>
</g>
<!-- Node14 -->
<g id="node5" class="node">
<title>Node14</title>
<polygon fill="white" stroke="#666666" points="193.5,-67.5 193.5,-86.5 268.5,-86.5 268.5,-67.5 193.5,-67.5"/>
<text text-anchor="middle" x="231" y="-74.5" font-family="Helvetica,sans-Serif" font-size="10.00">PrivateBase</text>
</g>
<!-- Node14&#45;&gt;Node9 -->
<g id="edge4" class="edge">
<title>Node14&#45;&gt;Node9</title>
<path fill="none" stroke="#8b1a1a" d="M244.29,-58.72C254.1,-45.97 267.01,-29.18 274.62,-19.29"/>
<polygon fill="#8b1a1a" stroke="#8b1a1a" points="241.78,-56.24 238.46,-66.3 247.33,-60.51 241.78,-56.24"/>
</g>
<!-- Node15 -->
<g id="node6" class="node">
<title>Node15</title>
<g id="a_node6"><a xlink:title=" ">
<polygon fill="#e0e0e0" stroke="#999999" points="286.5,-67.5 286.5,-86.5 377.5,-86.5 377.5,-67.5 286.5,-67.5"/>
<text text-anchor="middle" x="332" y="-74.5" font-family="Helvetica,sans-Serif" font-size="10.00">Undocumented</text>
</a>
</g>
</g>
<!-- Node15&#45;&gt;Node9 -->
<g id="edge5" class="edge">
<title>Node15&#45;&gt;Node9</title>
<path fill="none" stroke="#63b8ff" d="M318.44,-58.72C308.44,-45.97 295.27,-29.18 287.51,-19.29"/>
<polygon fill="#63b8ff" stroke="#63b8ff" points="315.47,-60.6 324.4,-66.31 320.98,-56.28 315.47,-60.6"/>
</g>
<!-- Node16 -->
<g id="node7" class="node">
<title>Node16</title>
<polygon fill="white" stroke="#666666" points="395.5,-67.5 395.5,-86.5 476.5,-86.5 476.5,-67.5 395.5,-67.5"/>
<text text-anchor="middle" x="436" y="-74.5" font-family="Helvetica,sans-Serif" font-size="10.00">Templ&lt; int &gt;</text>
</g>
<!-- Node16&#45;&gt;Node9 -->
<g id="edge6" class="edge">
<title>Node16&#45;&gt;Node9</title>
<path fill="none" stroke="#63b8ff" d="M405.15,-63.06C374.29,-50.12 327.73,-30.6 301.27,-19.5"/>
<polygon fill="#63b8ff" stroke="#63b8ff" points="403.77,-66.28 414.34,-66.92 406.47,-59.82 403.77,-66.28"/>
</g>
<!-- Node17 -->
<g id="node8" class="node">
<title>Node17</title>
<polygon fill="white" stroke="#666666" points="399,-134.5 399,-153.5 473,-153.5 473,-134.5 399,-134.5"/>
<text text-anchor="middle" x="436" y="-141.5" font-family="Helvetica,sans-Serif" font-size="10.00">Templ&lt; T &gt;</text>
</g>
<!-- Node17&#45;&gt;Node16 -->
<g id="edge7" class="edge">
<title>Node17&#45;&gt;Node16</title>
<path fill="none" stroke="orange" stroke-dasharray="5,2" d="M436,-123.04C436,-110.7 436,-95.5 436,-86.29"/>
<polygon fill="orange" stroke="orange" points="432.5,-122.99 436,-132.99 439.5,-122.99 432.5,-122.99"/>
<text text-anchor="middle" x="454" y="-108" font-family="Helvetica,sans-Serif" font-size="10.00">&lt; int &gt;</text>
</g>
<!-- Node18 -->
<g id="node9" class="node">
<title>Node18</title>
<polygon fill="white" stroke="#666666" points="494.5,-67.5 494.5,-86.5 535.5,-86.5 535.5,-67.5 494.5,-67.5"/>
<text text-anchor="middle" x="515" y="-74.5" font-family="Helvetica,sans-Serif" font-size="10.00">Used</text>
</g>
<!-- Node18&#45;&gt;Node9 -->
<g id="edge8" class="edge">
<title>Node18&#45;&gt;Node9</title>
<path fill="none" stroke="#9a32cd" stroke-dasharray="5,2" d="M483.96,-66.47C416.68,-46.96 348.95,-28.86 310.97,-18.84"/>
<polygon fill="#9a32cd" stroke="#9a32cd" points="482.71,-69.76 493.29,-69.19 484.67,-63.04 482.71,-69.76"/>
<text text-anchor="middle" x="450.5" y="-41" font-family="Helvetica,sans-Serif" font-size="10.00">m_usedClass</text>
</g>
</g>
</svg>
