<?xml version="1.0" encoding="UTF-8" standalone="no"?>
<!DOCTYPE svg PUBLIC "-//W3C//DTD SVG 1.1//EN"
 "http://www.w3.org/Graphics/SVG/1.1/DTD/svg11.dtd">
<!-- Generated by graphviz version 7.0.5 (0)
 -->
<!-- Title: Graphical Class Hierarchy Pages: 1 -->
<svg width="168pt" height="66pt"
 viewBox="0.00 0.00 168.00 66.00" xmlns="http://www.w3.org/2000/svg" xmlns:xlink="http://www.w3.org/1999/xlink">
<g id="graph0" class="graph" transform="scale(1 1) rotate(0) translate(4 62)">
<title>Graphical Class Hierarchy</title>
<!-- Node0 -->
<g id="node1" class="node">
<title>Node0</title>
<g id="a_node1"><a xlink:href="classSheet.html" target="_top" xlink:title=" ">
<polygon fill="white" stroke="#666666" points="0,-19.5 0,-38.5 44,-38.5 44,-19.5 0,-19.5"/>
<text text-anchor="middle" x="22" y="-26.5" font-family="Helvetica,sans-Serif" font-size="10.00">Sheet</text>
</a>
</g>
</g>
<!-- Node1 -->
<g id="node2" class="node">
<title>Node1</title>
<g id="a_node2"><a xlink:href="structSpriteSheet.html" target="_top" xlink:title="A class that stores information of a part of a texture, with effects on it.">
<polygon fill="white" stroke="#666666" points="83.5,-38.5 83.5,-57.5 156.5,-57.5 156.5,-38.5 83.5,-38.5"/>
<text text-anchor="middle" x="120" y="-45.5" font-family="Helvetica,sans-Serif" font-size="10.00">SpriteSheet</text>
</a>
</g>
</g>
<!-- Node0&#45;&gt;Node1 -->
<g id="edge1" class="edge">
<title>Node0&#45;&gt;Node1</title>
<path fill="none" stroke="#63b8ff" d="M54.97,-35.33C64.24,-37.16 74.41,-39.17 83.86,-41.05"/>
<polygon fill="#63b8ff" stroke="#63b8ff" points="55.8,-31.92 45.32,-33.42 54.45,-38.79 55.8,-31.92"/>
</g>
<!-- Node2 -->
<g id="node3" class="node">
<title>Node2</title>
<g id="a_node3"><a xlink:href="classTextureSheet.html" target="_top" xlink:title="A class that stores texture&#39;s related information.">
<polygon fill="white" stroke="#666666" points="80,-0.5 80,-19.5 160,-19.5 160,-0.5 80,-0.5"/>
<text text-anchor="middle" x="120" y="-7.5" font-family="Helvetica,sans-Serif" font-size="10.00">TextureSheet</text>
</a>
</g>
</g>
<!-- Node0&#45;&gt;Node2 -->
<g id="edge2" class="edge">
<title>Node0&#45;&gt;Node2</title>
<path fill="none" stroke="#63b8ff" d="M54.98,-22.67C63,-21.08 71.7,-19.36 80.02,-17.71"/>
<polygon fill="#63b8ff" stroke="#63b8ff" points="54.45,-19.21 45.32,-24.58 55.8,-26.08 54.45,-19.21"/>
</g>
</g>
</svg>
