<?xml version="1.0" encoding="UTF-8" standalone="no"?>
<!DOCTYPE svg PUBLIC "-//W3C//DTD SVG 1.1//EN"
 "http://www.w3.org/Graphics/SVG/1.1/DTD/svg11.dtd">
<!-- Generated by graphviz version 7.0.5 (0)
 -->
<!-- Title: Graphical Class Hierarchy Pages: 1 -->
<svg width="370pt" height="256pt"
 viewBox="0.00 0.00 370.00 256.00" xmlns="http://www.w3.org/2000/svg" xmlns:xlink="http://www.w3.org/1999/xlink">
<g id="graph0" class="graph" transform="scale(1 1) rotate(0) translate(4 252)">
<title>Graphical Class Hierarchy</title>
<!-- Node0 -->
<g id="node1" class="node">
<title>Node0</title>
<g id="a_node1"><a xlink:href="classPlayerState.html" target="_top" xlink:title=" ">
<polygon fill="white" stroke="#666666" points="0,-114.5 0,-133.5 73,-133.5 73,-114.5 0,-114.5"/>
<text text-anchor="middle" x="36.5" y="-121.5" font-family="Helvetica,sans-Serif" font-size="10.00">PlayerState</text>
</a>
</g>
</g>
<!-- Node1 -->
<g id="node2" class="node">
<title>Node1</title>
<g id="a_node2"><a xlink:href="classCollidingState.html" target="_top" xlink:title=" ">
<polygon fill="white" stroke="#666666" points="111,-228.5 111,-247.5 196,-247.5 196,-228.5 111,-228.5"/>
<text text-anchor="middle" x="153.5" y="-235.5" font-family="Helvetica,sans-Serif" font-size="10.00">CollidingState</text>
</a>
</g>
</g>
<!-- Node0&#45;&gt;Node1 -->
<g id="edge1" class="edge">
<title>Node0&#45;&gt;Node1</title>
<path fill="none" stroke="#63b8ff" d="M47.99,-143.36C60.22,-164.4 82.23,-197.85 109,-219 113.78,-222.78 119.44,-225.96 125.06,-228.58"/>
<polygon fill="#63b8ff" stroke="#63b8ff" points="51.06,-141.68 43.11,-134.68 44.95,-145.11 51.06,-141.68"/>
</g>
<!-- Node3 -->
<g id="node4" class="node">
<title>Node3</title>
<g id="a_node4"><a xlink:href="classDeadState.html" target="_top" xlink:title=" ">
<polygon fill="white" stroke="#666666" points="119.5,-190.5 119.5,-209.5 187.5,-209.5 187.5,-190.5 119.5,-190.5"/>
<text text-anchor="middle" x="153.5" y="-197.5" font-family="Helvetica,sans-Serif" font-size="10.00">DeadState</text>
</a>
</g>
</g>
<!-- Node0&#45;&gt;Node3 -->
<g id="edge3" class="edge">
<title>Node0&#45;&gt;Node3</title>
<path fill="none" stroke="#63b8ff" d="M56.11,-141.08C69.98,-153.24 89.78,-169.41 109,-181 114.93,-184.57 121.65,-187.85 128.01,-190.63"/>
<polygon fill="#63b8ff" stroke="#63b8ff" points="58.44,-138.47 48.65,-134.42 53.78,-143.69 58.44,-138.47"/>
</g>
<!-- Node4 -->
<g id="node5" class="node">
<title>Node4</title>
<g id="a_node5"><a xlink:href="classDyingState.html" target="_top" xlink:title=" ">
<polygon fill="white" stroke="#666666" points="118,-152.5 118,-171.5 189,-171.5 189,-152.5 118,-152.5"/>
<text text-anchor="middle" x="153.5" y="-159.5" font-family="Helvetica,sans-Serif" font-size="10.00">DyingState</text>
</a>
</g>
</g>
<!-- Node0&#45;&gt;Node4 -->
<g id="edge4" class="edge">
<title>Node0&#45;&gt;Node4</title>
<path fill="none" stroke="#63b8ff" d="M77.08,-137.08C92.56,-142.19 109.96,-147.94 124.14,-152.63"/>
<polygon fill="#63b8ff" stroke="#63b8ff" points="78.25,-133.78 67.66,-133.97 76.06,-140.43 78.25,-133.78"/>
</g>
<!-- Node5 -->
<g id="node6" class="node">
<title>Node5</title>
<g id="a_node6"><a xlink:href="classIdleState.html" target="_top" xlink:title=" ">
<polygon fill="white" stroke="#666666" points="123.5,-114.5 123.5,-133.5 183.5,-133.5 183.5,-114.5 123.5,-114.5"/>
<text text-anchor="middle" x="153.5" y="-121.5" font-family="Helvetica,sans-Serif" font-size="10.00">IdleState</text>
</a>
</g>
</g>
<!-- Node0&#45;&gt;Node5 -->
<g id="edge5" class="edge">
<title>Node0&#45;&gt;Node5</title>
<path fill="none" stroke="#63b8ff" d="M84.33,-124C97.6,-124 111.66,-124 123.54,-124"/>
<polygon fill="#63b8ff" stroke="#63b8ff" points="84.46,-120.5 74.46,-124 84.46,-127.5 84.46,-120.5"/>
</g>
<!-- Node6 -->
<g id="node7" class="node">
<title>Node6</title>
<g id="a_node7"><a xlink:href="classInvincibleState.html" target="_top" xlink:title=" ">
<polygon fill="white" stroke="#666666" points="109,-76.5 109,-95.5 198,-95.5 198,-76.5 109,-76.5"/>
<text text-anchor="middle" x="153.5" y="-83.5" font-family="Helvetica,sans-Serif" font-size="10.00">InvincibleState</text>
</a>
</g>
</g>
<!-- Node0&#45;&gt;Node6 -->
<g id="edge6" class="edge">
<title>Node0&#45;&gt;Node6</title>
<path fill="none" stroke="#63b8ff" d="M77.08,-110.92C92.56,-105.81 109.96,-100.06 124.14,-95.37"/>
<polygon fill="#63b8ff" stroke="#63b8ff" points="76.06,-107.57 67.66,-114.03 78.25,-114.22 76.06,-107.57"/>
</g>
<!-- Node7 -->
<g id="node8" class="node">
<title>Node7</title>
<g id="a_node8"><a xlink:href="classJumpingState.html" target="_top" xlink:title=" ">
<polygon fill="white" stroke="#666666" points="112.5,-38.5 112.5,-57.5 194.5,-57.5 194.5,-38.5 112.5,-38.5"/>
<text text-anchor="middle" x="153.5" y="-45.5" font-family="Helvetica,sans-Serif" font-size="10.00">JumpingState</text>
</a>
</g>
</g>
<!-- Node0&#45;&gt;Node7 -->
<g id="edge7" class="edge">
<title>Node0&#45;&gt;Node7</title>
<path fill="none" stroke="#63b8ff" d="M56.11,-106.92C69.98,-94.76 89.78,-78.59 109,-67 114.93,-63.43 121.65,-60.15 128.01,-57.37"/>
<polygon fill="#63b8ff" stroke="#63b8ff" points="53.78,-104.31 48.65,-113.58 58.44,-109.53 53.78,-104.31"/>
</g>
<!-- Node8 -->
<g id="node9" class="node">
<title>Node8</title>
<g id="a_node9"><a xlink:href="classStunnedState.html" target="_top" xlink:title=" ">
<polygon fill="white" stroke="#666666" points="112.5,-0.5 112.5,-19.5 194.5,-19.5 194.5,-0.5 112.5,-0.5"/>
<text text-anchor="middle" x="153.5" y="-7.5" font-family="Helvetica,sans-Serif" font-size="10.00">StunnedState</text>
</a>
</g>
</g>
<!-- Node0&#45;&gt;Node8 -->
<g id="edge8" class="edge">
<title>Node0&#45;&gt;Node8</title>
<path fill="none" stroke="#63b8ff" d="M47.99,-104.64C60.22,-83.6 82.23,-50.15 109,-29 113.78,-25.22 119.44,-22.04 125.06,-19.42"/>
<polygon fill="#63b8ff" stroke="#63b8ff" points="44.95,-102.89 43.11,-113.32 51.06,-106.32 44.95,-102.89"/>
</g>
<!-- Node2 -->
<g id="node3" class="node">
<title>Node2</title>
<g id="a_node3"><a xlink:href="classObstacleCollidingState.html" target="_top" xlink:title=" ">
<polygon fill="white" stroke="#666666" points="234,-228.5 234,-247.5 362,-247.5 362,-228.5 234,-228.5"/>
<text text-anchor="middle" x="298" y="-235.5" font-family="Helvetica,sans-Serif" font-size="10.00">ObstacleCollidingState</text>
</a>
</g>
</g>
<!-- Node1&#45;&gt;Node2 -->
<g id="edge2" class="edge">
<title>Node1&#45;&gt;Node2</title>
<path fill="none" stroke="#63b8ff" d="M207.02,-238C215.84,-238 225.08,-238 234.12,-238"/>
<polygon fill="#63b8ff" stroke="#63b8ff" points="207.23,-234.5 197.23,-238 207.23,-241.5 207.23,-234.5"/>
</g>
</g>
</svg>
