<?xml version="1.0" encoding="UTF-8" standalone="no"?>
<!DOCTYPE svg PUBLIC "-//W3C//DTD SVG 1.1//EN"
 "http://www.w3.org/Graphics/SVG/1.1/DTD/svg11.dtd">
<!-- Generated by graphviz version 7.0.5 (0)
 -->
<!-- Title: Graphical Class Hierarchy Pages: 1 -->
<svg width="656pt" height="757pt"
 viewBox="0.00 0.00 656.00 757.12" xmlns="http://www.w3.org/2000/svg" xmlns:xlink="http://www.w3.org/1999/xlink">
<g id="graph0" class="graph" transform="scale(1 1) rotate(0) translate(4 753.12)">
<title>Graphical Class Hierarchy</title>
<!-- Node0 -->
<g id="node1" class="node">
<title>Node0</title>
<g id="a_node1"><a xlink:title=" ">
<polygon fill="#e0e0e0" stroke="#999999" points="12,-209.5 12,-228.5 89,-228.5 89,-209.5 12,-209.5"/>
<text text-anchor="middle" x="50.5" y="-216.5" font-family="Helvetica,sans-Serif" font-size="10.00">sf::Drawable</text>
</a>
</g>
</g>
<!-- Node1 -->
<g id="node2" class="node">
<title>Node1</title>
<g id="a_node2"><a xlink:href="classSceneNode.html" target="_top" xlink:title="A node in the scene graph.">
<polygon fill="white" stroke="#666666" points="137,-171.5 137,-190.5 208,-190.5 208,-171.5 137,-171.5"/>
<text text-anchor="middle" x="172.5" y="-178.5" font-family="Helvetica,sans-Serif" font-size="10.00">SceneNode</text>
</a>
</g>
</g>
<!-- Node0&#45;&gt;Node1 -->
<g id="edge1" class="edge">
<title>Node0&#45;&gt;Node1</title>
<path fill="none" stroke="#63b8ff" d="M92.33,-206.07C108.6,-200.92 126.96,-195.1 141.91,-190.37"/>
<polygon fill="#63b8ff" stroke="#63b8ff" points="91.39,-202.7 82.91,-209.05 93.5,-209.37 91.39,-202.7"/>
</g>
<!-- Node2 -->
<g id="node3" class="node">
<title>Node2</title>
<g id="a_node3"><a xlink:href="classEntity.html" target="_top" xlink:title=" ">
<polygon fill="white" stroke="#666666" points="269.5,-570.5 269.5,-589.5 314.5,-589.5 314.5,-570.5 269.5,-570.5"/>
<text text-anchor="middle" x="292" y="-577.5" font-family="Helvetica,sans-Serif" font-size="10.00">Entity</text>
</a>
</g>
</g>
<!-- Node1&#45;&gt;Node2 -->
<g id="edge2" class="edge">
<title>Node1&#45;&gt;Node2</title>
<path fill="none" stroke="#63b8ff" d="M179.17,-201.43C190.95,-243.76 219.07,-344.15 244,-428 260.14,-482.28 280.57,-547.1 288.07,-570.77"/>
<polygon fill="#63b8ff" stroke="#63b8ff" points="182.57,-200.6 176.52,-191.9 175.83,-202.47 182.57,-200.6"/>
</g>
<!-- Node27 -->
<g id="node14" class="node">
<title>Node27</title>
<g id="a_node14"><a xlink:href="classGrid.html" target="_top" xlink:title=" ">
<polygon fill="white" stroke="#666666" points="273.5,-228.5 273.5,-247.5 310.5,-247.5 310.5,-228.5 273.5,-228.5"/>
<text text-anchor="middle" x="292" y="-235.5" font-family="Helvetica,sans-Serif" font-size="10.00">Grid</text>
</a>
</g>
</g>
<!-- Node1&#45;&gt;Node27 -->
<g id="edge13" class="edge">
<title>Node1&#45;&gt;Node27</title>
<path fill="none" stroke="#63b8ff" d="M199.55,-195.93C212.7,-203.24 229.01,-211.95 244,-219 253.72,-223.57 264.85,-228.1 273.84,-231.59"/>
<polygon fill="#63b8ff" stroke="#63b8ff" points="201.51,-193.02 191.08,-191.17 198.08,-199.12 201.51,-193.02"/>
</g>
<!-- Node20 -->
<g id="node15" class="node">
<title>Node20</title>
<g id="a_node15"><a xlink:href="classLane.html" target="_top" xlink:title=" ">
<polygon fill="white" stroke="#666666" points="272,-266.5 272,-285.5 312,-285.5 312,-266.5 272,-266.5"/>
<text text-anchor="middle" x="292" y="-273.5" font-family="Helvetica,sans-Serif" font-size="10.00">Lane</text>
</a>
</g>
</g>
<!-- Node1&#45;&gt;Node20 -->
<g id="edge14" class="edge">
<title>Node1&#45;&gt;Node20</title>
<path fill="none" stroke="#63b8ff" d="M186.71,-199.33C199.67,-216.23 220.84,-241.03 244,-257 252.55,-262.89 263.2,-267.39 272.21,-270.53"/>
<polygon fill="#63b8ff" stroke="#63b8ff" points="189.75,-197.56 180.97,-191.64 184.14,-201.75 189.75,-197.56"/>
</g>
<!-- Node28 -->
<g id="node24" class="node">
<title>Node28</title>
<g id="a_node24"><a xlink:href="classLayer.html" target="_top" xlink:title=" ">
<polygon fill="white" stroke="#666666" points="270,-190.5 270,-209.5 314,-209.5 314,-190.5 270,-190.5"/>
<text text-anchor="middle" x="292" y="-197.5" font-family="Helvetica,sans-Serif" font-size="10.00">Layer</text>
</a>
</g>
</g>
<!-- Node1&#45;&gt;Node28 -->
<g id="edge23" class="edge">
<title>Node1&#45;&gt;Node28</title>
<path fill="none" stroke="#63b8ff" d="M219.07,-188.37C236.68,-191.22 255.96,-194.33 270.13,-196.62"/>
<polygon fill="#63b8ff" stroke="#63b8ff" points="219.73,-184.93 209.3,-186.79 218.61,-191.84 219.73,-184.93"/>
</g>
<!-- Node29 -->
<g id="node25" class="node">
<title>Node29</title>
<g id="a_node25"><a xlink:href="classLevel.html" target="_top" xlink:title=" ">
<polygon fill="white" stroke="#666666" points="270.5,-152.5 270.5,-171.5 313.5,-171.5 313.5,-152.5 270.5,-152.5"/>
<text text-anchor="middle" x="292" y="-159.5" font-family="Helvetica,sans-Serif" font-size="10.00">Level</text>
</a>
</g>
</g>
<!-- Node1&#45;&gt;Node29 -->
<g id="edge24" class="edge">
<title>Node1&#45;&gt;Node29</title>
<path fill="none" stroke="#63b8ff" d="M218.97,-173.65C236.9,-170.75 256.57,-167.57 270.82,-165.26"/>
<polygon fill="#63b8ff" stroke="#63b8ff" points="218.61,-170.16 209.3,-175.21 219.73,-177.07 218.61,-170.16"/>
</g>
<!-- Node30 -->
<g id="node26" class="node">
<title>Node30</title>
<g id="a_node26"><a xlink:href="classLevelLayer.html" target="_top" xlink:title=" ">
<polygon fill="white" stroke="#666666" points="257,-114.5 257,-133.5 327,-133.5 327,-114.5 257,-114.5"/>
<text text-anchor="middle" x="292" y="-121.5" font-family="Helvetica,sans-Serif" font-size="10.00">LevelLayer</text>
</a>
</g>
</g>
<!-- Node1&#45;&gt;Node30 -->
<g id="edge25" class="edge">
<title>Node1&#45;&gt;Node30</title>
<path fill="none" stroke="#63b8ff" d="M199.55,-166.07C212.7,-158.76 229.01,-150.05 244,-143 251.17,-139.63 259.11,-136.28 266.39,-133.36"/>
<polygon fill="#63b8ff" stroke="#63b8ff" points="198.08,-162.88 191.08,-170.83 201.51,-168.98 198.08,-162.88"/>
</g>
<!-- Node8 -->
<g id="node27" class="node">
<title>Node8</title>
<g id="a_node27"><a xlink:href="classPlayerCollidable.html" target="_top" xlink:title=" ">
<polygon fill="white" stroke="#666666" points="244,-399.5 244,-418.5 340,-418.5 340,-399.5 244,-399.5"/>
<text text-anchor="middle" x="292" y="-406.5" font-family="Helvetica,sans-Serif" font-size="10.00">PlayerCollidable</text>
</a>
</g>
</g>
<!-- Node1&#45;&gt;Node8 -->
<g id="edge26" class="edge">
<title>Node1&#45;&gt;Node8</title>
<path fill="none" stroke="#63b8ff" d="M183.44,-200.28C207.63,-247.23 268.9,-366.12 286.32,-399.91"/>
<polygon fill="#63b8ff" stroke="#63b8ff" points="186.64,-198.85 178.95,-191.57 180.41,-202.06 186.64,-198.85"/>
</g>
<!-- Node31 -->
<g id="node31" class="node">
<title>Node31</title>
<g id="a_node31"><a xlink:href="classSortedLayer.html" target="_top" xlink:title=" ">
<polygon fill="white" stroke="#666666" points="254.5,-76.5 254.5,-95.5 329.5,-95.5 329.5,-76.5 254.5,-76.5"/>
<text text-anchor="middle" x="292" y="-83.5" font-family="Helvetica,sans-Serif" font-size="10.00">SortedLayer</text>
</a>
</g>
</g>
<!-- Node1&#45;&gt;Node31 -->
<g id="edge40" class="edge">
<title>Node1&#45;&gt;Node31</title>
<path fill="none" stroke="#63b8ff" d="M186.71,-162.67C199.67,-145.77 220.84,-120.97 244,-105 249.51,-101.2 255.89,-97.99 262.14,-95.34"/>
<polygon fill="#63b8ff" stroke="#63b8ff" points="184.14,-160.25 180.97,-170.36 189.75,-164.44 184.14,-160.25"/>
</g>
<!-- Node32 -->
<g id="node32" class="node">
<title>Node32</title>
<g id="a_node32"><a xlink:href="classSpriteNode.html" target="_top" xlink:title=" ">
<polygon fill="white" stroke="#666666" points="256.5,-38.5 256.5,-57.5 327.5,-57.5 327.5,-38.5 256.5,-38.5"/>
<text text-anchor="middle" x="292" y="-45.5" font-family="Helvetica,sans-Serif" font-size="10.00">SpriteNode</text>
</a>
</g>
</g>
<!-- Node1&#45;&gt;Node32 -->
<g id="edge41" class="edge">
<title>Node1&#45;&gt;Node32</title>
<path fill="none" stroke="#63b8ff" d="M181.13,-161.23C191.72,-136.15 213.13,-93.03 244,-67 248.58,-63.14 254.04,-59.99 259.59,-57.45"/>
<polygon fill="#63b8ff" stroke="#63b8ff" points="177.98,-159.66 177.48,-170.25 184.47,-162.29 177.98,-159.66"/>
</g>
<!-- Node33 -->
<g id="node33" class="node">
<title>Node33</title>
<g id="a_node33"><a xlink:href="classWorld.html" target="_top" xlink:title=" ">
<polygon fill="white" stroke="#666666" points="270,-0.5 270,-19.5 314,-19.5 314,-0.5 270,-0.5"/>
<text text-anchor="middle" x="292" y="-7.5" font-family="Helvetica,sans-Serif" font-size="10.00">World</text>
</a>
</g>
</g>
<!-- Node1&#45;&gt;Node33 -->
<g id="edge42" class="edge">
<title>Node1&#45;&gt;Node33</title>
<path fill="none" stroke="#63b8ff" d="M177.82,-160.71C185.66,-128.62 205.11,-65.99 244,-29 251.27,-22.09 261.39,-17.56 270.37,-14.67"/>
<polygon fill="#63b8ff" stroke="#63b8ff" points="174.46,-159.74 175.64,-170.27 181.28,-161.3 174.46,-159.74"/>
</g>
<!-- Node3 -->
<g id="node4" class="node">
<title>Node3</title>
<g id="a_node4"><a xlink:href="classAnimal.html" target="_top" xlink:title=" ">
<polygon fill="white" stroke="#666666" points="561,-679.5 561,-698.5 612,-698.5 612,-679.5 561,-679.5"/>
<text text-anchor="middle" x="586.5" y="-686.5" font-family="Helvetica,sans-Serif" font-size="10.00">Animal</text>
</a>
</g>
</g>
<!-- Node2&#45;&gt;Node3 -->
<g id="edge3" class="edge">
<title>Node2&#45;&gt;Node3</title>
<path fill="none" stroke="#63b8ff" d="M296.93,-600.31C304.9,-635.14 326.55,-705.39 376,-735 441.49,-774.22 536.44,-721.13 571.67,-698.42"/>
<polygon fill="#63b8ff" stroke="#63b8ff" points="300.39,-599.76 294.91,-590.7 293.55,-601.2 300.39,-599.76"/>
</g>
<!-- Node9 -->
<g id="node5" class="node">
<title>Node9</title>
<g id="a_node5"><a xlink:href="classHealthPickup.html" target="_top" xlink:title=" ">
<polygon fill="white" stroke="#666666" points="392.5,-456.5 392.5,-475.5 472.5,-475.5 472.5,-456.5 392.5,-456.5"/>
<text text-anchor="middle" x="432.5" y="-463.5" font-family="Helvetica,sans-Serif" font-size="10.00">HealthPickup</text>
</a>
</g>
</g>
<!-- Node2&#45;&gt;Node9 -->
<g id="edge4" class="edge">
<title>Node2&#45;&gt;Node9</title>
<path fill="none" stroke="#63b8ff" d="M304.94,-561.19C319.36,-539.88 345.51,-505.47 376,-485 381.75,-481.14 388.36,-477.99 394.97,-475.44"/>
<polygon fill="#63b8ff" stroke="#63b8ff" points="302.06,-559.19 299.5,-569.47 307.91,-563.03 302.06,-559.19"/>
</g>
<!-- Node10 -->
<g id="node6" class="node">
<title>Node10</title>
<g id="a_node6"><a xlink:href="classInvinciblePickup.html" target="_top" xlink:title=" ">
<polygon fill="white" stroke="#666666" points="385,-418.5 385,-437.5 480,-437.5 480,-418.5 385,-418.5"/>
<text text-anchor="middle" x="432.5" y="-425.5" font-family="Helvetica,sans-Serif" font-size="10.00">InvinciblePickup</text>
</a>
</g>
</g>
<!-- Node2&#45;&gt;Node10 -->
<g id="edge5" class="edge">
<title>Node2&#45;&gt;Node10</title>
<path fill="none" stroke="#63b8ff" d="M300.25,-560.36C311.89,-531.47 337.42,-477.65 376,-447 380.94,-443.07 386.75,-439.93 392.71,-437.43"/>
<polygon fill="#63b8ff" stroke="#63b8ff" points="297.12,-558.75 296.78,-569.34 303.65,-561.28 297.12,-558.75"/>
</g>
<!-- Node25 -->
<g id="node7" class="node">
<title>Node25</title>
<g id="a_node7"><a xlink:href="classLight.html" target="_top" xlink:title=" ">
<polygon fill="white" stroke="#666666" points="412,-684.5 412,-703.5 453,-703.5 453,-684.5 412,-684.5"/>
<text text-anchor="middle" x="432.5" y="-691.5" font-family="Helvetica,sans-Serif" font-size="10.00">Light</text>
</a>
</g>
</g>
<!-- Node2&#45;&gt;Node25 -->
<g id="edge6" class="edge">
<title>Node2&#45;&gt;Node25</title>
<path fill="none" stroke="#63b8ff" d="M304.94,-598.81C319.36,-620.12 345.51,-654.53 376,-675 386.91,-682.32 400.91,-687.09 412.13,-690.02"/>
<polygon fill="#63b8ff" stroke="#63b8ff" points="307.91,-596.97 299.5,-590.53 302.06,-600.81 307.91,-596.97"/>
</g>
<!-- Node26 -->
<g id="node8" class="node">
<title>Node26</title>
<g id="a_node8"><a xlink:href="classPlayer.html" target="_top" xlink:title=" ">
<polygon fill="white" stroke="#666666" points="409,-646.5 409,-665.5 456,-665.5 456,-646.5 409,-646.5"/>
<text text-anchor="middle" x="432.5" y="-653.5" font-family="Helvetica,sans-Serif" font-size="10.00">Player</text>
</a>
</g>
</g>
<!-- Node2&#45;&gt;Node26 -->
<g id="edge7" class="edge">
<title>Node2&#45;&gt;Node26</title>
<path fill="none" stroke="#63b8ff" d="M316.01,-595.74C332.37,-606.59 355.06,-620.99 376,-632 386.69,-637.62 398.97,-643.03 409.26,-647.29"/>
<polygon fill="#63b8ff" stroke="#63b8ff" points="318.23,-593.01 307.97,-590.34 314.32,-598.82 318.23,-593.01"/>
</g>
<!-- Node7 -->
<g id="node9" class="node">
<title>Node7</title>
<g id="a_node9"><a xlink:href="classRock.html" target="_top" xlink:title=" ">
<polygon fill="white" stroke="#666666" points="566,-560.5 566,-579.5 607,-579.5 607,-560.5 566,-560.5"/>
<text text-anchor="middle" x="586.5" y="-567.5" font-family="Helvetica,sans-Serif" font-size="10.00">Rock</text>
</a>
</g>
</g>
<!-- Node2&#45;&gt;Node7 -->
<g id="edge8" class="edge">
<title>Node2&#45;&gt;Node7</title>
<path fill="none" stroke="#63b8ff" d="M298.67,-600.07C308.58,-630.86 332.29,-688.76 376,-713 419.92,-737.36 444.65,-736.57 489,-713 503.21,-705.44 561.62,-609.72 579.96,-579.25"/>
<polygon fill="#63b8ff" stroke="#63b8ff" points="302.12,-599.39 295.88,-590.83 295.42,-601.41 302.12,-599.39"/>
</g>
<!-- Node11 -->
<g id="node10" class="node">
<title>Node11</title>
<g id="a_node10"><a xlink:href="classSmallSizePickup.html" target="_top" xlink:title=" ">
<polygon fill="white" stroke="#666666" points="384.5,-570.5 384.5,-589.5 480.5,-589.5 480.5,-570.5 384.5,-570.5"/>
<text text-anchor="middle" x="432.5" y="-577.5" font-family="Helvetica,sans-Serif" font-size="10.00">SmallSizePickup</text>
</a>
</g>
</g>
<!-- Node2&#45;&gt;Node11 -->
<g id="edge9" class="edge">
<title>Node2&#45;&gt;Node11</title>
<path fill="none" stroke="#63b8ff" d="M325.71,-580C343.28,-580 365.25,-580 384.6,-580"/>
<polygon fill="#63b8ff" stroke="#63b8ff" points="325.85,-576.5 315.85,-580 325.85,-583.5 325.85,-576.5"/>
</g>
<!-- Node12 -->
<g id="node11" class="node">
<title>Node12</title>
<g id="a_node11"><a xlink:href="classSpeedPickup.html" target="_top" xlink:title=" ">
<polygon fill="white" stroke="#666666" points="393.5,-532.5 393.5,-551.5 471.5,-551.5 471.5,-532.5 393.5,-532.5"/>
<text text-anchor="middle" x="432.5" y="-539.5" font-family="Helvetica,sans-Serif" font-size="10.00">SpeedPickup</text>
</a>
</g>
</g>
<!-- Node2&#45;&gt;Node12 -->
<g id="edge10" class="edge">
<title>Node2&#45;&gt;Node12</title>
<path fill="none" stroke="#63b8ff" d="M325.2,-571.17C346.7,-565.27 374.96,-557.51 396.93,-551.48"/>
<polygon fill="#63b8ff" stroke="#63b8ff" points="324.51,-567.72 315.8,-573.75 326.37,-574.47 324.51,-567.72"/>
</g>
<!-- Node5 -->
<g id="node12" class="node">
<title>Node5</title>
<g id="a_node12"><a xlink:href="classVehicle.html" target="_top" xlink:title=" ">
<polygon fill="white" stroke="#666666" points="560.5,-361.5 560.5,-380.5 612.5,-380.5 612.5,-361.5 560.5,-361.5"/>
<text text-anchor="middle" x="586.5" y="-368.5" font-family="Helvetica,sans-Serif" font-size="10.00">Vehicle</text>
</a>
</g>
</g>
<!-- Node2&#45;&gt;Node5 -->
<g id="edge11" class="edge">
<title>Node2&#45;&gt;Node5</title>
<path fill="none" stroke="#63b8ff" d="M322.89,-593.79C363.96,-610.48 438.49,-632.47 489,-599 528.86,-572.59 572.33,-419.85 583.02,-380.33"/>
<polygon fill="#63b8ff" stroke="#63b8ff" points="324.45,-590.65 313.88,-589.97 321.72,-597.09 324.45,-590.65"/>
</g>
<!-- Node14 -->
<g id="node13" class="node">
<title>Node14</title>
<g id="a_node13"><a xlink:href="classWater.html" target="_top" xlink:title=" ">
<polygon fill="white" stroke="#666666" points="410,-494.5 410,-513.5 455,-513.5 455,-494.5 410,-494.5"/>
<text text-anchor="middle" x="432.5" y="-501.5" font-family="Helvetica,sans-Serif" font-size="10.00">Water</text>
</a>
</g>
</g>
<!-- Node2&#45;&gt;Node14 -->
<g id="edge12" class="edge">
<title>Node2&#45;&gt;Node14</title>
<path fill="none" stroke="#63b8ff" d="M313.53,-563.55C329.76,-551.14 353.37,-534.38 376,-523 386.83,-517.56 399.58,-513.07 410.13,-509.82"/>
<polygon fill="#63b8ff" stroke="#63b8ff" points="311.39,-560.78 305.65,-569.69 315.69,-566.3 311.39,-560.78"/>
</g>
<!-- Node16 -->
<g id="node16" class="node">
<title>Node16</title>
<g id="a_node16"><a xlink:href="classRoadLane.html" target="_top" xlink:title=" ">
<polygon fill="white" stroke="#666666" points="400,-190.5 400,-209.5 465,-209.5 465,-190.5 400,-190.5"/>
<text text-anchor="middle" x="432.5" y="-197.5" font-family="Helvetica,sans-Serif" font-size="10.00">RoadLane</text>
</a>
</g>
</g>
<!-- Node20&#45;&gt;Node16 -->
<g id="edge15" class="edge">
<title>Node20&#45;&gt;Node16</title>
<path fill="none" stroke="#63b8ff" d="M322.2,-266.09C328.28,-263.51 334.51,-260.46 340,-257 358.35,-245.41 357.79,-235.8 376,-224 384.9,-218.23 395.41,-213.28 404.89,-209.4"/>
<polygon fill="#63b8ff" stroke="#63b8ff" points="321.05,-262.78 313,-269.67 323.59,-269.3 321.05,-262.78"/>
</g>
<!-- Node21 -->
<g id="node20" class="node">
<title>Node21</title>
<g id="a_node20"><a xlink:href="classRoadLaneController.html" target="_top" xlink:title=" ">
<polygon fill="white" stroke="#666666" points="376,-133.5 376,-152.5 489,-152.5 489,-133.5 376,-133.5"/>
<text text-anchor="middle" x="432.5" y="-140.5" font-family="Helvetica,sans-Serif" font-size="10.00">RoadLaneController</text>
</a>
</g>
</g>
<!-- Node20&#45;&gt;Node21 -->
<g id="edge19" class="edge">
<title>Node20&#45;&gt;Node21</title>
<path fill="none" stroke="#63b8ff" d="M322.29,-268.07C328.67,-265.33 335,-261.72 340,-257 367.19,-231.35 351.74,-209.43 376,-181 386.23,-169.01 401.11,-159.1 412.88,-152.41"/>
<polygon fill="#63b8ff" stroke="#63b8ff" points="321.37,-264.68 313.15,-271.37 323.75,-271.26 321.37,-264.68"/>
</g>
<!-- Node17 -->
<g id="node17" class="node">
<title>Node17</title>
<g id="a_node17"><a xlink:href="classAnimalLane.html" target="_top" xlink:title=" ">
<polygon fill="white" stroke="#666666" points="549.5,-190.5 549.5,-209.5 623.5,-209.5 623.5,-190.5 549.5,-190.5"/>
<text text-anchor="middle" x="586.5" y="-197.5" font-family="Helvetica,sans-Serif" font-size="10.00">AnimalLane</text>
</a>
</g>
</g>
<!-- Node16&#45;&gt;Node17 -->
<g id="edge16" class="edge">
<title>Node16&#45;&gt;Node17</title>
<path fill="none" stroke="#63b8ff" d="M476.21,-200C499.32,-200 527.54,-200 549.51,-200"/>
<polygon fill="#63b8ff" stroke="#63b8ff" points="476.51,-196.5 466.51,-200 476.51,-203.5 476.51,-196.5"/>
</g>
<!-- Node18 -->
<g id="node18" class="node">
<title>Node18</title>
<g id="a_node18"><a xlink:href="classVehicleLane.html" target="_top" xlink:title=" ">
<polygon fill="white" stroke="#666666" points="549,-266.5 549,-285.5 624,-285.5 624,-266.5 549,-266.5"/>
<text text-anchor="middle" x="586.5" y="-273.5" font-family="Helvetica,sans-Serif" font-size="10.00">VehicleLane</text>
</a>
</g>
</g>
<!-- Node16&#45;&gt;Node18 -->
<g id="edge17" class="edge">
<title>Node16&#45;&gt;Node18</title>
<path fill="none" stroke="#63b8ff" d="M455.55,-215.96C473.55,-228.43 500.01,-245.52 525,-257 532.9,-260.63 541.69,-263.83 550.06,-266.52"/>
<polygon fill="#63b8ff" stroke="#63b8ff" points="457.67,-213.17 447.48,-210.27 453.64,-218.9 457.67,-213.17"/>
</g>
<!-- Node15 -->
<g id="node19" class="node">
<title>Node15</title>
<g id="a_node19"><a xlink:href="classWoodLane.html" target="_top" xlink:title=" ">
<polygon fill="white" stroke="#666666" points="553,-228.5 553,-247.5 620,-247.5 620,-228.5 553,-228.5"/>
<text text-anchor="middle" x="586.5" y="-235.5" font-family="Helvetica,sans-Serif" font-size="10.00">WoodLane</text>
</a>
</g>
</g>
<!-- Node16&#45;&gt;Node15 -->
<g id="edge18" class="edge">
<title>Node16&#45;&gt;Node15</title>
<path fill="none" stroke="#63b8ff" d="M476.13,-210.66C500.58,-216.77 530.79,-224.32 553.26,-229.94"/>
<polygon fill="#63b8ff" stroke="#63b8ff" points="477.01,-207.27 466.46,-208.24 475.32,-214.06 477.01,-207.27"/>
</g>
<!-- Node22 -->
<g id="node21" class="node">
<title>Node22</title>
<g id="a_node21"><a xlink:href="classAnimalLaneController.html" target="_top" xlink:title=" ">
<polygon fill="white" stroke="#666666" points="525.5,-76.5 525.5,-95.5 647.5,-95.5 647.5,-76.5 525.5,-76.5"/>
<text text-anchor="middle" x="586.5" y="-83.5" font-family="Helvetica,sans-Serif" font-size="10.00">AnimalLaneController</text>
</a>
</g>
</g>
<!-- Node21&#45;&gt;Node22 -->
<g id="edge20" class="edge">
<title>Node21&#45;&gt;Node22</title>
<path fill="none" stroke="#63b8ff" d="M464.97,-129.12C482.49,-121.59 504.79,-112.35 525,-105 534.21,-101.65 544.33,-98.33 553.61,-95.43"/>
<polygon fill="#63b8ff" stroke="#63b8ff" points="463.91,-125.76 456.12,-132.95 466.69,-132.18 463.91,-125.76"/>
</g>
<!-- Node23 -->
<g id="node22" class="node">
<title>Node23</title>
<g id="a_node22"><a xlink:href="classRiverController.html" target="_top" xlink:title=" ">
<polygon fill="white" stroke="#666666" points="541.5,-152.5 541.5,-171.5 631.5,-171.5 631.5,-152.5 541.5,-152.5"/>
<text text-anchor="middle" x="586.5" y="-159.5" font-family="Helvetica,sans-Serif" font-size="10.00">RiverController</text>
</a>
</g>
</g>
<!-- Node21&#45;&gt;Node23 -->
<g id="edge21" class="edge">
<title>Node21&#45;&gt;Node23</title>
<path fill="none" stroke="#63b8ff" d="M500.04,-151.32C514.22,-153.09 528.85,-154.92 541.91,-156.55"/>
<polygon fill="#63b8ff" stroke="#63b8ff" points="500.66,-147.87 490.31,-150.1 499.8,-154.81 500.66,-147.87"/>
</g>
<!-- Node24 -->
<g id="node23" class="node">
<title>Node24</title>
<g id="a_node23"><a xlink:href="classVehicleLaneController.html" target="_top" xlink:title=" ">
<polygon fill="white" stroke="#666666" points="525,-114.5 525,-133.5 648,-133.5 648,-114.5 525,-114.5"/>
<text text-anchor="middle" x="586.5" y="-121.5" font-family="Helvetica,sans-Serif" font-size="10.00">VehicleLaneController</text>
</a>
</g>
</g>
<!-- Node21&#45;&gt;Node24 -->
<g id="edge22" class="edge">
<title>Node21&#45;&gt;Node24</title>
<path fill="none" stroke="#63b8ff" d="M500.04,-134.68C508.38,-133.64 516.87,-132.58 525.1,-131.55"/>
<polygon fill="#63b8ff" stroke="#63b8ff" points="499.8,-131.19 490.31,-135.9 500.66,-138.13 499.8,-131.19"/>
</g>
<!-- Node8&#45;&gt;Node9 -->
<g id="edge30" class="edge">
<title>Node8&#45;&gt;Node9</title>
<path fill="none" stroke="#63b8ff" d="M322.39,-423.32C338.13,-430.77 357.94,-439.8 376,-447 384.42,-450.36 393.69,-453.68 402.21,-456.58"/>
<polygon fill="#63b8ff" stroke="#63b8ff" points="324.11,-420.27 313.58,-419.11 321.1,-426.58 324.11,-420.27"/>
</g>
<!-- Node8&#45;&gt;Node10 -->
<g id="edge31" class="edge">
<title>Node8&#45;&gt;Node10</title>
<path fill="none" stroke="#63b8ff" d="M351.07,-416.97C362.43,-418.52 374.21,-420.14 385.13,-421.64"/>
<polygon fill="#63b8ff" stroke="#63b8ff" points="351.77,-413.53 341.39,-415.64 350.82,-420.46 351.77,-413.53"/>
</g>
<!-- Node8&#45;&gt;Node11 -->
<g id="edge35" class="edge">
<title>Node8&#45;&gt;Node11</title>
<path fill="none" stroke="#63b8ff" d="M298.74,-429.15C308.98,-461.51 333.4,-525.09 376,-561 380.67,-564.94 386.2,-568.07 391.93,-570.57"/>
<polygon fill="#63b8ff" stroke="#63b8ff" points="302.18,-428.41 295.94,-419.84 295.47,-430.43 302.18,-428.41"/>
</g>
<!-- Node8&#45;&gt;Node12 -->
<g id="edge36" class="edge">
<title>Node8&#45;&gt;Node12</title>
<path fill="none" stroke="#63b8ff" d="M302.47,-428.68C315.61,-453.98 341.66,-497.66 376,-523 381.33,-526.93 387.53,-530.09 393.81,-532.62"/>
<polygon fill="#63b8ff" stroke="#63b8ff" points="305.65,-427.21 298.04,-419.83 299.39,-430.34 305.65,-427.21"/>
</g>
<!-- Node8&#45;&gt;Node14 -->
<g id="edge38" class="edge">
<title>Node8&#45;&gt;Node14</title>
<path fill="none" stroke="#63b8ff" d="M308.32,-426.76C323.86,-443.79 349.35,-469.18 376,-485 386.51,-491.24 399.36,-495.8 410.05,-498.89"/>
<polygon fill="#63b8ff" stroke="#63b8ff" points="311.04,-424.55 301.78,-419.4 305.81,-429.2 311.04,-424.55"/>
</g>
<!-- Node8&#45;&gt;Node15 -->
<g id="edge39" class="edge">
<title>Node8&#45;&gt;Node15</title>
<path fill="none" stroke="#63b8ff" d="M300.96,-389.39C316.52,-352.04 351.62,-273 376,-257 429.89,-221.64 509.06,-226 553.03,-232.13"/>
<polygon fill="#63b8ff" stroke="#63b8ff" points="297.77,-387.94 297.2,-398.52 304.24,-390.6 297.77,-387.94"/>
</g>
<!-- Node4 -->
<g id="node28" class="node">
<title>Node4</title>
<g id="a_node28"><a xlink:href="classEnemy.html" target="_top" xlink:title=" ">
<polygon fill="white" stroke="#666666" points="407.5,-380.5 407.5,-399.5 457.5,-399.5 457.5,-380.5 407.5,-380.5"/>
<text text-anchor="middle" x="432.5" y="-387.5" font-family="Helvetica,sans-Serif" font-size="10.00">Enemy</text>
</a>
</g>
</g>
<!-- Node8&#45;&gt;Node4 -->
<g id="edge27" class="edge">
<title>Node8&#45;&gt;Node4</title>
<path fill="none" stroke="#63b8ff" d="M351.06,-401.04C370.89,-398.31 391.99,-395.42 407.6,-393.28"/>
<polygon fill="#63b8ff" stroke="#63b8ff" points="350.82,-397.54 341.39,-402.36 351.77,-404.47 350.82,-397.54"/>
</g>
<!-- Node6 -->
<g id="node29" class="node">
<title>Node6</title>
<g id="a_node29"><a xlink:href="classObstacle.html" target="_top" xlink:title=" ">
<polygon fill="white" stroke="#666666" points="403,-342.5 403,-361.5 462,-361.5 462,-342.5 403,-342.5"/>
<text text-anchor="middle" x="432.5" y="-349.5" font-family="Helvetica,sans-Serif" font-size="10.00">Obstacle</text>
</a>
</g>
</g>
<!-- Node8&#45;&gt;Node6 -->
<g id="edge32" class="edge">
<title>Node8&#45;&gt;Node6</title>
<path fill="none" stroke="#63b8ff" d="M322.39,-394.68C338.13,-387.23 357.94,-378.2 376,-371 384.7,-367.53 394.32,-364.1 403.07,-361.13"/>
<polygon fill="#63b8ff" stroke="#63b8ff" points="321.1,-391.42 313.58,-398.89 324.11,-397.73 321.1,-391.42"/>
</g>
<!-- Node13 -->
<g id="node30" class="node">
<title>Node13</title>
<g id="a_node30"><a xlink:href="classWall.html" target="_top" xlink:title=" ">
<polygon fill="white" stroke="#666666" points="413.5,-304.5 413.5,-323.5 451.5,-323.5 451.5,-304.5 413.5,-304.5"/>
<text text-anchor="middle" x="432.5" y="-311.5" font-family="Helvetica,sans-Serif" font-size="10.00">Wall</text>
</a>
</g>
</g>
<!-- Node8&#45;&gt;Node13 -->
<g id="edge37" class="edge">
<title>Node8&#45;&gt;Node13</title>
<path fill="none" stroke="#63b8ff" d="M308.32,-391.24C323.86,-374.21 349.35,-348.82 376,-333 387.74,-326.03 402.39,-321.16 413.7,-318.09"/>
<polygon fill="#63b8ff" stroke="#63b8ff" points="305.81,-388.8 301.78,-398.6 311.04,-393.45 305.81,-388.8"/>
</g>
<!-- Node4&#45;&gt;Node3 -->
<g id="edge28" class="edge">
<title>Node4&#45;&gt;Node3</title>
<path fill="none" stroke="#63b8ff" d="M468.26,-395.81C476.04,-398.62 483.57,-402.8 489,-409 542.74,-470.38 495.44,-512.96 525,-589 538.97,-624.93 565.53,-662.61 578.29,-679.65"/>
<polygon fill="#63b8ff" stroke="#63b8ff" points="469.34,-392.48 458.77,-393.08 467.41,-399.21 469.34,-392.48"/>
</g>
<!-- Node4&#45;&gt;Node5 -->
<g id="edge29" class="edge">
<title>Node4&#45;&gt;Node5</title>
<path fill="none" stroke="#63b8ff" d="M468.6,-385.61C496.77,-382.09 535.62,-377.23 560.66,-374.11"/>
<polygon fill="#63b8ff" stroke="#63b8ff" points="468.24,-382.13 458.75,-386.84 469.11,-389.08 468.24,-382.13"/>
</g>
<!-- Node6&#45;&gt;Node7 -->
<g id="edge33" class="edge">
<title>Node6&#45;&gt;Node7</title>
<path fill="none" stroke="#63b8ff" d="M472.52,-360.92C478.49,-363.49 484.23,-366.78 489,-371 550.81,-425.72 576.87,-528.89 583.62,-560.53"/>
<polygon fill="#63b8ff" stroke="#63b8ff" points="473.73,-357.64 463.14,-357.56 471.37,-364.23 473.73,-357.64"/>
</g>
<!-- Node6&#45;&gt;Node5 -->
<g id="edge34" class="edge">
<title>Node6&#45;&gt;Node5</title>
<path fill="none" stroke="#63b8ff" d="M473.07,-356.95C500.87,-360.42 537.21,-364.96 560.93,-367.93"/>
<polygon fill="#63b8ff" stroke="#63b8ff" points="473.59,-353.48 463.24,-355.72 472.72,-360.43 473.59,-353.48"/>
</g>
<!-- Node19 -->
<g id="node34" class="node">
<title>Node19</title>
<g id="a_node34"><a xlink:href="classLightObserver.html" target="_top" xlink:title=" ">
<polygon fill="white" stroke="#666666" points="390,-266.5 390,-285.5 475,-285.5 475,-266.5 390,-266.5"/>
<text text-anchor="middle" x="432.5" y="-273.5" font-family="Helvetica,sans-Serif" font-size="10.00">LightObserver</text>
</a>
</g>
</g>
<!-- Node19&#45;&gt;Node5 -->
<g id="edge43" class="edge">
<title>Node19&#45;&gt;Node5</title>
<path fill="none" stroke="#63b8ff" d="M477.61,-289.55C481.54,-291.22 485.39,-293.03 489,-295 524.03,-314.07 559.37,-345.83 575.88,-361.57"/>
<polygon fill="#63b8ff" stroke="#63b8ff" points="479.15,-286.39 468.56,-286.03 476.61,-292.92 479.15,-286.39"/>
</g>
<!-- Node19&#45;&gt;Node18 -->
<g id="edge44" class="edge">
<title>Node19&#45;&gt;Node18</title>
<path fill="none" stroke="#63b8ff" d="M485.87,-276C506.67,-276 530.1,-276 549,-276"/>
<polygon fill="#63b8ff" stroke="#63b8ff" points="486.15,-272.5 476.15,-276 486.15,-279.5 486.15,-272.5"/>
</g>
<!-- Node34 -->
<g id="node35" class="node">
<title>Node34</title>
<g id="a_node35"><a xlink:title=" ">
<polygon fill="#e0e0e0" stroke="#999999" points="2.5,-171.5 2.5,-190.5 98.5,-190.5 98.5,-171.5 2.5,-171.5"/>
<text text-anchor="middle" x="50.5" y="-178.5" font-family="Helvetica,sans-Serif" font-size="10.00">sf::NonCopyable</text>
</a>
</g>
</g>
<!-- Node34&#45;&gt;Node1 -->
<g id="edge45" class="edge">
<title>Node34&#45;&gt;Node1</title>
<path fill="none" stroke="#8b1a1a" d="M109.69,-181C119.16,-181 128.69,-181 137.34,-181"/>
<polygon fill="#8b1a1a" stroke="#8b1a1a" points="109.75,-177.5 99.75,-181 109.75,-184.5 109.75,-177.5"/>
</g>
<!-- Node35 -->
<g id="node36" class="node">
<title>Node35</title>
<g id="a_node36"><a xlink:title=" ">
<polygon fill="#e0e0e0" stroke="#999999" points="0,-133.5 0,-152.5 101,-152.5 101,-133.5 0,-133.5"/>
<text text-anchor="middle" x="50.5" y="-140.5" font-family="Helvetica,sans-Serif" font-size="10.00">sf::Transformable</text>
</a>
</g>
</g>
<!-- Node35&#45;&gt;Node1 -->
<g id="edge46" class="edge">
<title>Node35&#45;&gt;Node1</title>
<path fill="none" stroke="#63b8ff" d="M92.33,-155.93C108.6,-161.08 126.96,-166.9 141.91,-171.63"/>
<polygon fill="#63b8ff" stroke="#63b8ff" points="93.5,-152.63 82.91,-152.95 91.39,-159.3 93.5,-152.63"/>
</g>
</g>
</svg>
