<?xml version="1.0" encoding="UTF-8" standalone="no"?>
<!DOCTYPE svg PUBLIC "-//W3C//DTD SVG 1.1//EN"
 "http://www.w3.org/Graphics/SVG/1.1/DTD/svg11.dtd">
<!-- Generated by graphviz version 7.0.5 (0)
 -->
<!-- Title: Graphical Class Hierarchy Pages: 1 -->
<svg width="218pt" height="332pt"
 viewBox="0.00 0.00 218.00 332.00" xmlns="http://www.w3.org/2000/svg" xmlns:xlink="http://www.w3.org/1999/xlink">
<g id="graph0" class="graph" transform="scale(1 1) rotate(0) translate(4 328)">
<title>Graphical Class Hierarchy</title>
<!-- Node0 -->
<g id="node1" class="node">
<title>Node0</title>
<g id="a_node1"><a xlink:href="classEffect.html" target="_top" xlink:title=" ">
<polygon fill="white" stroke="#666666" points="0,-152.5 0,-171.5 44,-171.5 44,-152.5 0,-152.5"/>
<text text-anchor="middle" x="22" y="-159.5" font-family="Helvetica,sans-Serif" font-size="10.00">Effect</text>
</a>
</g>
</g>
<!-- Node1 -->
<g id="node2" class="node">
<title>Node1</title>
<g id="a_node2"><a xlink:href="classDistanceEffect.html" target="_top" xlink:title=" ">
<polygon fill="white" stroke="#666666" points="101.5,-304.5 101.5,-323.5 188.5,-323.5 188.5,-304.5 101.5,-304.5"/>
<text text-anchor="middle" x="145" y="-311.5" font-family="Helvetica,sans-Serif" font-size="10.00">DistanceEffect</text>
</a>
</g>
</g>
<!-- Node0&#45;&gt;Node1 -->
<g id="edge1" class="edge">
<title>Node0&#45;&gt;Node1</title>
<path fill="none" stroke="#63b8ff" d="M26.21,-182.53C31.85,-211.73 46.33,-265.03 80,-295 86.15,-300.47 93.81,-304.37 101.67,-307.14"/>
<polygon fill="#63b8ff" stroke="#63b8ff" points="29.68,-182.04 24.51,-172.79 22.78,-183.25 29.68,-182.04"/>
</g>
<!-- Node2 -->
<g id="node3" class="node">
<title>Node2</title>
<g id="a_node3"><a xlink:href="classDurationEffect.html" target="_top" xlink:title=" ">
<polygon fill="white" stroke="#666666" points="102,-266.5 102,-285.5 188,-285.5 188,-266.5 102,-266.5"/>
<text text-anchor="middle" x="145" y="-273.5" font-family="Helvetica,sans-Serif" font-size="10.00">DurationEffect</text>
</a>
</g>
</g>
<!-- Node0&#45;&gt;Node2 -->
<g id="edge2" class="edge">
<title>Node0&#45;&gt;Node2</title>
<path fill="none" stroke="#63b8ff" d="M29.92,-181.96C38.42,-203.56 54.86,-237.51 80,-257 86.5,-262.04 94.32,-265.75 102.23,-268.47"/>
<polygon fill="#63b8ff" stroke="#63b8ff" points="33.29,-180.99 26.54,-172.82 26.73,-183.42 33.29,-180.99"/>
</g>
<!-- Node3 -->
<g id="node4" class="node">
<title>Node3</title>
<g id="a_node4"><a xlink:href="classHealthEffect.html" target="_top" xlink:title=" ">
<polygon fill="white" stroke="#666666" points="106.5,-228.5 106.5,-247.5 183.5,-247.5 183.5,-228.5 106.5,-228.5"/>
<text text-anchor="middle" x="145" y="-235.5" font-family="Helvetica,sans-Serif" font-size="10.00">HealthEffect</text>
</a>
</g>
</g>
<!-- Node0&#45;&gt;Node3 -->
<g id="edge3" class="edge">
<title>Node0&#45;&gt;Node3</title>
<path fill="none" stroke="#63b8ff" d="M36.72,-179.84C47.29,-192.44 62.94,-208.85 80,-219 88.17,-223.86 97.67,-227.56 106.81,-230.34"/>
<polygon fill="#63b8ff" stroke="#63b8ff" points="39.63,-177.88 30.64,-172.28 34.18,-182.27 39.63,-177.88"/>
</g>
<!-- Node4 -->
<g id="node5" class="node">
<title>Node4</title>
<g id="a_node5"><a xlink:href="classInvincibleEffect.html" target="_top" xlink:title=" ">
<polygon fill="white" stroke="#666666" points="99,-190.5 99,-209.5 191,-209.5 191,-190.5 99,-190.5"/>
<text text-anchor="middle" x="145" y="-197.5" font-family="Helvetica,sans-Serif" font-size="10.00">InvincibleEffect</text>
</a>
</g>
</g>
<!-- Node0&#45;&gt;Node4 -->
<g id="edge4" class="edge">
<title>Node0&#45;&gt;Node4</title>
<path fill="none" stroke="#63b8ff" d="M54.54,-172.72C62.81,-175.47 71.72,-178.39 80,-181 90.17,-184.2 101.3,-187.56 111.38,-190.54"/>
<polygon fill="#63b8ff" stroke="#63b8ff" points="55.82,-169.46 45.23,-169.6 53.59,-176.1 55.82,-169.46"/>
</g>
<!-- Node5 -->
<g id="node6" class="node">
<title>Node5</title>
<g id="a_node6"><a xlink:href="classJumpDurationEffect.html" target="_top" xlink:title=" ">
<polygon fill="white" stroke="#666666" points="89.5,-152.5 89.5,-171.5 200.5,-171.5 200.5,-152.5 89.5,-152.5"/>
<text text-anchor="middle" x="145" y="-159.5" font-family="Helvetica,sans-Serif" font-size="10.00">JumpDurationEffect</text>
</a>
</g>
</g>
<!-- Node0&#45;&gt;Node5 -->
<g id="edge5" class="edge">
<title>Node0&#45;&gt;Node5</title>
<path fill="none" stroke="#63b8ff" d="M55.06,-162C65.69,-162 77.84,-162 89.67,-162"/>
<polygon fill="#63b8ff" stroke="#63b8ff" points="55.31,-158.5 45.31,-162 55.31,-165.5 55.31,-158.5"/>
</g>
<!-- Node6 -->
<g id="node7" class="node">
<title>Node6</title>
<g id="a_node7"><a xlink:href="classNextEffect.html" target="_top" xlink:title=" ">
<polygon fill="white" stroke="#666666" points="111,-114.5 111,-133.5 179,-133.5 179,-114.5 111,-114.5"/>
<text text-anchor="middle" x="145" y="-121.5" font-family="Helvetica,sans-Serif" font-size="10.00">NextEffect</text>
</a>
</g>
</g>
<!-- Node0&#45;&gt;Node6 -->
<g id="edge6" class="edge">
<title>Node0&#45;&gt;Node6</title>
<path fill="none" stroke="#63b8ff" d="M54.54,-151.28C62.81,-148.53 71.72,-145.61 80,-143 90.17,-139.8 101.3,-136.44 111.38,-133.46"/>
<polygon fill="#63b8ff" stroke="#63b8ff" points="53.59,-147.9 45.23,-154.4 55.82,-154.54 53.59,-147.9"/>
</g>
<!-- Node7 -->
<g id="node8" class="node">
<title>Node7</title>
<g id="a_node8"><a xlink:href="classRunMiscEffect.html" target="_top" xlink:title=" ">
<polygon fill="white" stroke="#666666" points="102,-76.5 102,-95.5 188,-95.5 188,-76.5 102,-76.5"/>
<text text-anchor="middle" x="145" y="-83.5" font-family="Helvetica,sans-Serif" font-size="10.00">RunMiscEffect</text>
</a>
</g>
</g>
<!-- Node0&#45;&gt;Node7 -->
<g id="edge7" class="edge">
<title>Node0&#45;&gt;Node7</title>
<path fill="none" stroke="#63b8ff" d="M36.72,-144.16C47.29,-131.56 62.94,-115.15 80,-105 86.77,-100.97 94.46,-97.74 102.1,-95.17"/>
<polygon fill="#63b8ff" stroke="#63b8ff" points="34.18,-141.73 30.64,-151.72 39.63,-146.12 34.18,-141.73"/>
</g>
<!-- Node8 -->
<g id="node9" class="node">
<title>Node8</title>
<g id="a_node9"><a xlink:href="classSizeEffect.html" target="_top" xlink:title=" ">
<polygon fill="white" stroke="#666666" points="112.5,-38.5 112.5,-57.5 177.5,-57.5 177.5,-38.5 112.5,-38.5"/>
<text text-anchor="middle" x="145" y="-45.5" font-family="Helvetica,sans-Serif" font-size="10.00">SizeEffect</text>
</a>
</g>
</g>
<!-- Node0&#45;&gt;Node8 -->
<g id="edge8" class="edge">
<title>Node0&#45;&gt;Node8</title>
<path fill="none" stroke="#63b8ff" d="M29.92,-142.04C38.42,-120.44 54.86,-86.49 80,-67 89.34,-59.76 101.4,-55.27 112.53,-52.49"/>
<polygon fill="#63b8ff" stroke="#63b8ff" points="26.73,-140.58 26.54,-151.18 33.29,-143.01 26.73,-140.58"/>
</g>
<!-- Node9 -->
<g id="node10" class="node">
<title>Node9</title>
<g id="a_node10"><a xlink:href="classStopOnCommandEffect.html" target="_top" xlink:title=" ">
<polygon fill="white" stroke="#666666" points="80,-0.5 80,-19.5 210,-19.5 210,-0.5 80,-0.5"/>
<text text-anchor="middle" x="145" y="-7.5" font-family="Helvetica,sans-Serif" font-size="10.00">StopOnCommandEffect</text>
</a>
</g>
</g>
<!-- Node0&#45;&gt;Node9 -->
<g id="edge9" class="edge">
<title>Node0&#45;&gt;Node9</title>
<path fill="none" stroke="#63b8ff" d="M26.21,-141.47C31.85,-112.27 46.33,-58.97 80,-29 84.42,-25.07 89.61,-21.95 95.1,-19.48"/>
<polygon fill="#63b8ff" stroke="#63b8ff" points="22.78,-140.75 24.51,-151.21 29.68,-141.96 22.78,-140.75"/>
</g>
</g>
</svg>
