<?xml version="1.0" encoding="UTF-8" standalone="no"?>
<!DOCTYPE svg PUBLIC "-//W3C//DTD SVG 1.1//EN"
 "http://www.w3.org/Graphics/SVG/1.1/DTD/svg11.dtd">
<!-- Generated by graphviz version 7.0.5 (0)
 -->
<!-- Title: Graphical Class Hierarchy Pages: 1 -->
<svg width="179pt" height="218pt"
 viewBox="0.00 0.00 179.00 218.00" xmlns="http://www.w3.org/2000/svg" xmlns:xlink="http://www.w3.org/1999/xlink">
<g id="graph0" class="graph" transform="scale(1 1) rotate(0) translate(4 214)">
<title>Graphical Class Hierarchy</title>
<!-- Node0 -->
<g id="node1" class="node">
<title>Node0</title>
<g id="a_node1"><a xlink:href="classState.html" target="_top" xlink:title=" ">
<polygon fill="white" stroke="#666666" points="0,-95.5 0,-114.5 42,-114.5 42,-95.5 0,-95.5"/>
<text text-anchor="middle" x="21" y="-102.5" font-family="Helvetica,sans-Serif" font-size="10.00">State</text>
</a>
</g>
</g>
<!-- Node1 -->
<g id="node2" class="node">
<title>Node1</title>
<g id="a_node2"><a xlink:href="classGameState.html" target="_top" xlink:title=" ">
<polygon fill="white" stroke="#666666" points="89,-190.5 89,-209.5 160,-209.5 160,-190.5 89,-190.5"/>
<text text-anchor="middle" x="124.5" y="-197.5" font-family="Helvetica,sans-Serif" font-size="10.00">GameState</text>
</a>
</g>
</g>
<!-- Node0&#45;&gt;Node1 -->
<g id="edge1" class="edge">
<title>Node0&#45;&gt;Node1</title>
<path fill="none" stroke="#63b8ff" d="M32.25,-124.36C42.04,-141.27 58.23,-165.47 78,-181 82.85,-184.81 88.57,-187.97 94.29,-190.56"/>
<polygon fill="#63b8ff" stroke="#63b8ff" points="35.4,-122.83 27.49,-115.79 29.28,-126.23 35.4,-122.83"/>
</g>
<!-- Node2 -->
<g id="node3" class="node">
<title>Node2</title>
<g id="a_node3"><a xlink:href="classMainMenuState.html" target="_top" xlink:title=" ">
<polygon fill="white" stroke="#666666" points="78,-152.5 78,-171.5 171,-171.5 171,-152.5 78,-152.5"/>
<text text-anchor="middle" x="124.5" y="-159.5" font-family="Helvetica,sans-Serif" font-size="10.00">MainMenuState</text>
</a>
</g>
</g>
<!-- Node0&#45;&gt;Node2 -->
<g id="edge2" class="edge">
<title>Node0&#45;&gt;Node2</title>
<path fill="none" stroke="#63b8ff" d="M43.3,-120.94C53.5,-128.18 66.06,-136.54 78,-143 84.48,-146.5 91.73,-149.8 98.52,-152.63"/>
<polygon fill="#63b8ff" stroke="#63b8ff" points="45.38,-118.12 35.23,-115.08 41.27,-123.79 45.38,-118.12"/>
</g>
<!-- Node3 -->
<g id="node4" class="node">
<title>Node3</title>
<g id="a_node4"><a xlink:href="classPauseMenu.html" target="_top" xlink:title=" ">
<polygon fill="white" stroke="#666666" points="88.5,-114.5 88.5,-133.5 160.5,-133.5 160.5,-114.5 88.5,-114.5"/>
<text text-anchor="middle" x="124.5" y="-121.5" font-family="Helvetica,sans-Serif" font-size="10.00">PauseMenu</text>
</a>
</g>
</g>
<!-- Node0&#45;&gt;Node3 -->
<g id="edge3" class="edge">
<title>Node0&#45;&gt;Node3</title>
<path fill="none" stroke="#63b8ff" d="M52.73,-110.75C64.1,-112.88 77.08,-115.31 88.78,-117.5"/>
<polygon fill="#63b8ff" stroke="#63b8ff" points="53.53,-107.34 43.06,-108.94 52.24,-114.22 53.53,-107.34"/>
</g>
<!-- Node4 -->
<g id="node5" class="node">
<title>Node4</title>
<g id="a_node5"><a xlink:href="classScoreState.html" target="_top" xlink:title=" ">
<polygon fill="white" stroke="#666666" points="90,-76.5 90,-95.5 159,-95.5 159,-76.5 90,-76.5"/>
<text text-anchor="middle" x="124.5" y="-83.5" font-family="Helvetica,sans-Serif" font-size="10.00">ScoreState</text>
</a>
</g>
</g>
<!-- Node0&#45;&gt;Node4 -->
<g id="edge4" class="edge">
<title>Node0&#45;&gt;Node4</title>
<path fill="none" stroke="#63b8ff" d="M52.66,-99.26C64.45,-97.05 77.96,-94.52 90,-92.27"/>
<polygon fill="#63b8ff" stroke="#63b8ff" points="52.24,-95.78 43.06,-101.06 53.53,-102.66 52.24,-95.78"/>
</g>
<!-- Node5 -->
<g id="node6" class="node">
<title>Node5</title>
<g id="a_node6"><a xlink:href="classSettingState.html" target="_top" xlink:title=" ">
<polygon fill="white" stroke="#666666" points="86,-38.5 86,-57.5 163,-57.5 163,-38.5 86,-38.5"/>
<text text-anchor="middle" x="124.5" y="-45.5" font-family="Helvetica,sans-Serif" font-size="10.00">SettingState</text>
</a>
</g>
</g>
<!-- Node0&#45;&gt;Node5 -->
<g id="edge5" class="edge">
<title>Node0&#45;&gt;Node5</title>
<path fill="none" stroke="#63b8ff" d="M43.3,-89.06C53.5,-81.82 66.06,-73.46 78,-67 84.48,-63.5 91.73,-60.2 98.52,-57.37"/>
<polygon fill="#63b8ff" stroke="#63b8ff" points="41.27,-86.21 35.23,-94.92 45.38,-91.88 41.27,-86.21"/>
</g>
<!-- Node6 -->
<g id="node7" class="node">
<title>Node6</title>
<g id="a_node7"><a xlink:href="classSummaryMenu.html" target="_top" xlink:title=" ">
<polygon fill="white" stroke="#666666" points="79,-0.5 79,-19.5 170,-19.5 170,-0.5 79,-0.5"/>
<text text-anchor="middle" x="124.5" y="-7.5" font-family="Helvetica,sans-Serif" font-size="10.00">SummaryMenu</text>
</a>
</g>
</g>
<!-- Node0&#45;&gt;Node6 -->
<g id="edge6" class="edge">
<title>Node0&#45;&gt;Node6</title>
<path fill="none" stroke="#63b8ff" d="M32.25,-85.64C42.04,-68.73 58.23,-44.53 78,-29 82.85,-25.19 88.57,-22.03 94.29,-19.44"/>
<polygon fill="#63b8ff" stroke="#63b8ff" points="29.28,-83.77 27.49,-94.21 35.4,-87.17 29.28,-83.77"/>
</g>
</g>
</svg>
