<?xml version="1.0" encoding="UTF-8" standalone="no"?>
<!DOCTYPE svg PUBLIC "-//W3C//DTD SVG 1.1//EN"
 "http://www.w3.org/Graphics/SVG/1.1/DTD/svg11.dtd">
<!-- Generated by graphviz version 7.0.5 (0)
 -->
<!-- Title: src/Lane.h Pages: 1 -->
<svg width="945pt" height="247pt"
 viewBox="0.00 0.00 945.00 247.00" xmlns="http://www.w3.org/2000/svg" xmlns:xlink="http://www.w3.org/1999/xlink">
<g id="graph0" class="graph" transform="scale(1 1) rotate(0) translate(4 243)">
<title>src/Lane.h</title>
<!-- Node1 -->
<g id="node1" class="node">
<title>Node1</title>
<g id="a_node1"><a xlink:title=" ">
<polygon fill="#999999" stroke="#666666" points="873,-239 807,-239 807,-220 873,-220 873,-239"/>
<text text-anchor="middle" x="840" y="-227" font-family="Helvetica,sans-Serif" font-size="10.00">src/Lane.h</text>
</a>
</g>
</g>
<!-- Node2 -->
<g id="node2" class="node">
<title>Node2</title>
<g id="a_node2"><a xlink:href="RoadLane_8h.html" target="_top" xlink:title=" ">
<polygon fill="white" stroke="#666666" points="848.5,-184 757.5,-184 757.5,-165 848.5,-165 848.5,-184"/>
<text text-anchor="middle" x="803" y="-172" font-family="Helvetica,sans-Serif" font-size="10.00">src/RoadLane.h</text>
</a>
</g>
</g>
<!-- Node1&#45;&gt;Node2 -->
<g id="edge1" class="edge">
<title>Node1&#45;&gt;Node2</title>
<path fill="none" stroke="#63b8ff" d="M827.34,-210.36C821.23,-201.62 814.18,-191.51 809.24,-184.44"/>
<polygon fill="#63b8ff" stroke="#63b8ff" points="824.43,-212.31 833.02,-218.51 830.17,-208.3 824.43,-212.31"/>
</g>
<!-- Node15 -->
<g id="node15" class="node">
<title>Node15</title>
<g id="a_node15"><a xlink:href="SceneBuilder_8h.html" target="_top" xlink:title=" ">
<polygon fill="white" stroke="#666666" points="937,-129 831,-129 831,-110 937,-110 937,-129"/>
<text text-anchor="middle" x="884" y="-117" font-family="Helvetica,sans-Serif" font-size="10.00">src/SceneBuilder.h</text>
</a>
</g>
</g>
<!-- Node1&#45;&gt;Node15 -->
<g id="edge22" class="edge">
<title>Node1&#45;&gt;Node15</title>
<path fill="none" stroke="#63b8ff" d="M847.85,-209.22C857.44,-185.69 873.25,-146.89 880.35,-129.46"/>
<polygon fill="#63b8ff" stroke="#63b8ff" points="844.7,-207.68 844.17,-218.26 851.19,-210.32 844.7,-207.68"/>
</g>
<!-- Node3 -->
<g id="node3" class="node">
<title>Node3</title>
<g id="a_node3"><a xlink:href="LevelGenerator_8cpp.html" target="_top" xlink:title=" ">
<polygon fill="white" stroke="#666666" points="908,-74 780,-74 780,-55 908,-55 908,-74"/>
<text text-anchor="middle" x="844" y="-62" font-family="Helvetica,sans-Serif" font-size="10.00">src/LevelGenerator.cpp</text>
</a>
</g>
</g>
<!-- Node2&#45;&gt;Node3 -->
<g id="edge2" class="edge">
<title>Node2&#45;&gt;Node3</title>
<path fill="none" stroke="#63b8ff" d="M808.02,-153.61C811.45,-140.95 816.37,-124.29 822,-110 827.05,-97.17 834.38,-82.99 839.17,-74.17"/>
<polygon fill="#63b8ff" stroke="#63b8ff" points="804.65,-152.69 805.51,-163.25 811.42,-154.46 804.65,-152.69"/>
</g>
<!-- Node4 -->
<g id="node4" class="node">
<title>Node4</title>
<g id="a_node4"><a xlink:href="RoadLane_8cpp.html" target="_top" xlink:title=" ">
<polygon fill="white" stroke="#666666" points="775,-129 673,-129 673,-110 775,-110 775,-129"/>
<text text-anchor="middle" x="724" y="-117" font-family="Helvetica,sans-Serif" font-size="10.00">src/RoadLane.cpp</text>
</a>
</g>
</g>
<!-- Node2&#45;&gt;Node4 -->
<g id="edge3" class="edge">
<title>Node2&#45;&gt;Node4</title>
<path fill="none" stroke="#63b8ff" d="M780.18,-158.19C766.24,-148.84 748.9,-137.21 737.2,-129.36"/>
<polygon fill="#63b8ff" stroke="#63b8ff" points="778.09,-161 788.34,-163.67 781.99,-155.19 778.09,-161"/>
</g>
<!-- Node5 -->
<g id="node5" class="node">
<title>Node5</title>
<g id="a_node5"><a xlink:href="RoadLaneController_8h.html" target="_top" xlink:title=" ">
<polygon fill="white" stroke="#666666" points="515,-129 377,-129 377,-110 515,-110 515,-129"/>
<text text-anchor="middle" x="446" y="-117" font-family="Helvetica,sans-Serif" font-size="10.00">src/RoadLaneController.h</text>
</a>
</g>
</g>
<!-- Node2&#45;&gt;Node5 -->
<g id="edge4" class="edge">
<title>Node2&#45;&gt;Node5</title>
<path fill="none" stroke="#63b8ff" d="M745.71,-165C680.14,-155.26 573.2,-139.38 506.36,-129.46"/>
<polygon fill="#63b8ff" stroke="#63b8ff" points="745.16,-168.45 755.56,-166.46 746.18,-161.53 745.16,-168.45"/>
</g>
<!-- Node2&#45;&gt;Node15 -->
<g id="edge19" class="edge">
<title>Node2&#45;&gt;Node15</title>
<path fill="none" stroke="#63b8ff" d="M825.99,-158.46C840.35,-149.06 858.35,-137.28 870.46,-129.36"/>
<polygon fill="#63b8ff" stroke="#63b8ff" points="824.46,-155.28 818.01,-163.68 828.29,-161.13 824.46,-155.28"/>
</g>
<!-- Node6 -->
<g id="node6" class="node">
<title>Node6</title>
<g id="a_node6"><a xlink:href="AnimalLaneController_8h.html" target="_top" xlink:title=" ">
<polygon fill="white" stroke="#666666" points="762,-74 614,-74 614,-55 762,-55 762,-74"/>
<text text-anchor="middle" x="688" y="-62" font-family="Helvetica,sans-Serif" font-size="10.00">src/AnimalLaneController.h</text>
</a>
</g>
</g>
<!-- Node5&#45;&gt;Node6 -->
<g id="edge5" class="edge">
<title>Node5&#45;&gt;Node6</title>
<path fill="none" stroke="#63b8ff" d="M498.25,-107.06C542.87,-97.28 606.16,-83.42 647.15,-74.45"/>
<polygon fill="#63b8ff" stroke="#63b8ff" points="497.55,-103.63 488.53,-109.19 499.05,-110.46 497.55,-103.63"/>
</g>
<!-- Node8 -->
<g id="node8" class="node">
<title>Node8</title>
<g id="a_node8"><a xlink:href="GameLoader_8cpp.html" target="_top" xlink:title=" ">
<polygon fill="white" stroke="#666666" points="294,-19 178,-19 178,0 294,0 294,-19"/>
<text text-anchor="middle" x="236" y="-7" font-family="Helvetica,sans-Serif" font-size="10.00">src/GameLoader.cpp</text>
</a>
</g>
</g>
<!-- Node5&#45;&gt;Node8 -->
<g id="edge9" class="edge">
<title>Node5&#45;&gt;Node8</title>
<path fill="none" stroke="#63b8ff" d="M365.42,-118.47C283.4,-116.53 164.26,-107.75 135,-74 112.88,-48.49 159.88,-29.72 196.94,-19.45"/>
<polygon fill="#63b8ff" stroke="#63b8ff" points="365.15,-121.97 375.22,-118.67 365.29,-114.97 365.15,-121.97"/>
</g>
<!-- Node10 -->
<g id="node10" class="node">
<title>Node10</title>
<g id="a_node10"><a xlink:href="RiverController_8h.html" target="_top" xlink:title=" ">
<polygon fill="white" stroke="#666666" points="428,-74 312,-74 312,-55 428,-55 428,-74"/>
<text text-anchor="middle" x="370" y="-62" font-family="Helvetica,sans-Serif" font-size="10.00">src/RiverController.h</text>
</a>
</g>
</g>
<!-- Node5&#45;&gt;Node10 -->
<g id="edge10" class="edge">
<title>Node5&#45;&gt;Node10</title>
<path fill="none" stroke="#63b8ff" d="M424.04,-103.19C410.63,-93.84 393.96,-82.21 382.7,-74.36"/>
<polygon fill="#63b8ff" stroke="#63b8ff" points="421.66,-105.79 431.87,-108.64 425.67,-100.05 421.66,-105.79"/>
</g>
<!-- Node12 -->
<g id="node12" class="node">
<title>Node12</title>
<g id="a_node12"><a xlink:href="RoadLaneController_8cpp.html" target="_top" xlink:title=" ">
<polygon fill="white" stroke="#666666" points="595.5,-74 446.5,-74 446.5,-55 595.5,-55 595.5,-74"/>
<text text-anchor="middle" x="521" y="-62" font-family="Helvetica,sans-Serif" font-size="10.00">src/RoadLaneController.cpp</text>
</a>
</g>
</g>
<!-- Node5&#45;&gt;Node12 -->
<g id="edge14" class="edge">
<title>Node5&#45;&gt;Node12</title>
<path fill="none" stroke="#63b8ff" d="M468.05,-102.92C481.22,-93.61 497.47,-82.13 508.47,-74.36"/>
<polygon fill="#63b8ff" stroke="#63b8ff" points="466.11,-100.01 459.96,-108.64 470.15,-105.72 466.11,-100.01"/>
</g>
<!-- Node13 -->
<g id="node13" class="node">
<title>Node13</title>
<g id="a_node13"><a xlink:href="VehicleLaneController_8h.html" target="_top" xlink:title=" ">
<polygon fill="white" stroke="#666666" points="293.5,-74 144.5,-74 144.5,-55 293.5,-55 293.5,-74"/>
<text text-anchor="middle" x="219" y="-62" font-family="Helvetica,sans-Serif" font-size="10.00">src/VehicleLaneController.h</text>
</a>
</g>
</g>
<!-- Node5&#45;&gt;Node13 -->
<g id="edge15" class="edge">
<title>Node5&#45;&gt;Node13</title>
<path fill="none" stroke="#63b8ff" d="M396.45,-106.93C354.63,-97.17 295.6,-83.38 257.32,-74.45"/>
<polygon fill="#63b8ff" stroke="#63b8ff" points="395.48,-110.3 406.02,-109.17 397.08,-103.48 395.48,-110.3"/>
</g>
<!-- Node7 -->
<g id="node7" class="node">
<title>Node7</title>
<g id="a_node7"><a xlink:href="AnimalLaneController_8cpp.html" target="_top" xlink:title=" ">
<polygon fill="white" stroke="#666666" points="767.5,-19 608.5,-19 608.5,0 767.5,0 767.5,-19"/>
<text text-anchor="middle" x="688" y="-7" font-family="Helvetica,sans-Serif" font-size="10.00">src/AnimalLaneController.cpp</text>
</a>
</g>
</g>
<!-- Node6&#45;&gt;Node7 -->
<g id="edge6" class="edge">
<title>Node6&#45;&gt;Node7</title>
<path fill="none" stroke="#63b8ff" d="M688,-43.35C688,-35.1 688,-25.97 688,-19.44"/>
<polygon fill="#63b8ff" stroke="#63b8ff" points="684.5,-43.23 688,-53.23 691.5,-43.23 684.5,-43.23"/>
</g>
<!-- Node6&#45;&gt;Node8 -->
<g id="edge7" class="edge">
<title>Node6&#45;&gt;Node8</title>
<path fill="none" stroke="#63b8ff" d="M602.59,-53.9C524.55,-45.07 405.98,-31.48 303,-19 300.21,-18.66 297.35,-18.31 294.46,-17.96"/>
<polygon fill="#63b8ff" stroke="#63b8ff" points="601.97,-57.36 612.3,-55 602.76,-50.4 601.97,-57.36"/>
</g>
<!-- Node9 -->
<g id="node9" class="node">
<title>Node9</title>
<g id="a_node9"><a xlink:href="SceneBuilder_8cpp.html" target="_top" xlink:title=" ">
<polygon fill="white" stroke="#666666" points="585.5,-19 468.5,-19 468.5,0 585.5,0 585.5,-19"/>
<text text-anchor="middle" x="527" y="-7" font-family="Helvetica,sans-Serif" font-size="10.00">src/SceneBuilder.cpp</text>
</a>
</g>
</g>
<!-- Node6&#45;&gt;Node9 -->
<g id="edge8" class="edge">
<title>Node6&#45;&gt;Node9</title>
<path fill="none" stroke="#63b8ff" d="M649.97,-50.98C620.53,-41.29 580.46,-28.1 554.18,-19.45"/>
<polygon fill="#63b8ff" stroke="#63b8ff" points="648.66,-54.23 659.25,-54.04 650.85,-47.58 648.66,-54.23"/>
</g>
<!-- Node10&#45;&gt;Node8 -->
<g id="edge11" class="edge">
<title>Node10&#45;&gt;Node8</title>
<path fill="none" stroke="#63b8ff" d="M336.69,-50.32C312.27,-40.67 279.78,-27.82 258.4,-19.36"/>
<polygon fill="#63b8ff" stroke="#63b8ff" points="335.27,-53.53 345.86,-53.95 337.85,-47.02 335.27,-53.53"/>
</g>
<!-- Node10&#45;&gt;Node9 -->
<g id="edge13" class="edge">
<title>Node10&#45;&gt;Node9</title>
<path fill="none" stroke="#63b8ff" d="M407.46,-50.85C436.14,-41.17 474.98,-28.06 500.5,-19.45"/>
<polygon fill="#63b8ff" stroke="#63b8ff" points="406.42,-47.51 398.07,-54.03 408.66,-54.14 406.42,-47.51"/>
</g>
<!-- Node11 -->
<g id="node11" class="node">
<title>Node11</title>
<g id="a_node11"><a xlink:href="RiverController_8cpp.html" target="_top" xlink:title=" ">
<polygon fill="white" stroke="#666666" points="439.5,-19 312.5,-19 312.5,0 439.5,0 439.5,-19"/>
<text text-anchor="middle" x="376" y="-7" font-family="Helvetica,sans-Serif" font-size="10.00">src/RiverController.cpp</text>
</a>
</g>
</g>
<!-- Node10&#45;&gt;Node11 -->
<g id="edge12" class="edge">
<title>Node10&#45;&gt;Node11</title>
<path fill="none" stroke="#63b8ff" d="M372.28,-43.35C373.22,-35.1 374.25,-25.97 374.99,-19.44"/>
<polygon fill="#63b8ff" stroke="#63b8ff" points="368.81,-42.91 371.16,-53.24 375.76,-43.7 368.81,-42.91"/>
</g>
<!-- Node13&#45;&gt;Node8 -->
<g id="edge16" class="edge">
<title>Node13&#45;&gt;Node8</title>
<path fill="none" stroke="#63b8ff" d="M225.28,-43.93C227.97,-35.53 230.99,-26.13 233.13,-19.44"/>
<polygon fill="#63b8ff" stroke="#63b8ff" points="221.99,-42.72 222.27,-53.31 228.66,-44.85 221.99,-42.72"/>
</g>
<!-- Node13&#45;&gt;Node9 -->
<g id="edge17" class="edge">
<title>Node13&#45;&gt;Node9</title>
<path fill="none" stroke="#63b8ff" d="M282.26,-52.61C339.1,-42.83 421.58,-28.64 474.75,-19.49"/>
<polygon fill="#63b8ff" stroke="#63b8ff" points="282,-49.11 272.74,-54.25 283.19,-56.01 282,-49.11"/>
</g>
<!-- Node14 -->
<g id="node14" class="node">
<title>Node14</title>
<g id="a_node14"><a xlink:href="VehicleLaneController_8cpp.html" target="_top" xlink:title=" ">
<polygon fill="white" stroke="#666666" points="160,-19 0,-19 0,0 160,0 160,-19"/>
<text text-anchor="middle" x="80" y="-7" font-family="Helvetica,sans-Serif" font-size="10.00">src/VehicleLaneController.cpp</text>
</a>
</g>
</g>
<!-- Node13&#45;&gt;Node14 -->
<g id="edge18" class="edge">
<title>Node13&#45;&gt;Node14</title>
<path fill="none" stroke="#63b8ff" d="M184.78,-50.45C159.42,-40.78 125.51,-27.85 103.23,-19.36"/>
<polygon fill="#63b8ff" stroke="#63b8ff" points="183.42,-53.68 194.01,-53.97 185.91,-47.14 183.42,-53.68"/>
</g>
<!-- Node15&#45;&gt;Node3 -->
<g id="edge20" class="edge">
<title>Node15&#45;&gt;Node3</title>
<path fill="none" stroke="#63b8ff" d="M870.53,-100.65C863.88,-91.84 856.14,-81.59 850.75,-74.44"/>
<polygon fill="#63b8ff" stroke="#63b8ff" points="867.67,-102.67 876.48,-108.54 873.25,-98.45 867.67,-102.67"/>
</g>
<!-- Node15&#45;&gt;Node9 -->
<g id="edge21" class="edge">
<title>Node15&#45;&gt;Node9</title>
<path fill="none" stroke="#63b8ff" d="M902.48,-102.2C915.82,-88.5 929.47,-68.97 917,-55 869.62,-1.96 669.65,-27.17 599,-19 594.75,-18.51 590.36,-18 585.94,-17.48"/>
<polygon fill="#63b8ff" stroke="#63b8ff" points="900.36,-99.39 895.55,-108.83 905.19,-104.45 900.36,-99.39"/>
</g>
</g>
</svg>
