<?xml version="1.0" encoding="UTF-8" standalone="no"?>
<!DOCTYPE svg PUBLIC "-//W3C//DTD SVG 1.1//EN"
 "http://www.w3.org/Graphics/SVG/1.1/DTD/svg11.dtd">
<!-- Generated by graphviz version 7.0.5 (0)
 -->
<!-- Title: src/Lane.h Pages: 1 -->
<svg width="1919pt" height="137pt"
 viewBox="0.00 0.00 1918.50 137.00" xmlns="http://www.w3.org/2000/svg" xmlns:xlink="http://www.w3.org/1999/xlink">
<g id="graph0" class="graph" transform="scale(1 1) rotate(0) translate(4 133)">
<title>src/Lane.h</title>
<!-- Node1 -->
<g id="node1" class="node">
<title>Node1</title>
<g id="a_node1"><a xlink:title=" ">
<polygon fill="#999999" stroke="#666666" points="551.5,-129 485.5,-129 485.5,-110 551.5,-110 551.5,-129"/>
<text text-anchor="middle" x="518.5" y="-117" font-family="Helvetica,sans-Serif" font-size="10.00">src/Lane.h</text>
</a>
</g>
</g>
<!-- Node2 -->
<g id="node2" class="node">
<title>Node2</title>
<g id="a_node2"><a xlink:href="SceneNode_8h.html" target="_top" xlink:title=" ">
<polygon fill="white" stroke="#666666" points="1047.5,-74 967.5,-74 967.5,-55 1047.5,-55 1047.5,-74"/>
<text text-anchor="middle" x="1007.5" y="-62" font-family="Helvetica,sans-Serif" font-size="10.00">SceneNode.h</text>
</a>
</g>
</g>
<!-- Node1&#45;&gt;Node2 -->
<g id="edge1" class="edge">
<title>Node1&#45;&gt;Node2</title>
<path fill="none" stroke="#63b8ff" d="M551.73,-114.9C635.37,-105.83 855.1,-82.02 955.78,-71.11"/>
<polygon fill="#63b8ff" stroke="#63b8ff" points="956.09,-74.59 965.66,-70.04 955.34,-67.63 956.09,-74.59"/>
</g>
<!-- Node3 -->
<g id="node3" class="node">
<title>Node3</title>
<g id="a_node3"><a xlink:href="Enums_8h.html" target="_top" xlink:title=" ">
<polygon fill="white" stroke="#666666" points="59,-19 0,-19 0,0 59,0 59,-19"/>
<text text-anchor="middle" x="29.5" y="-7" font-family="Helvetica,sans-Serif" font-size="10.00">Enums.h</text>
</a>
</g>
</g>
<!-- Node1&#45;&gt;Node3 -->
<g id="edge16" class="edge">
<title>Node1&#45;&gt;Node3</title>
<path fill="none" stroke="#63b8ff" d="M485.27,-111.16C398.5,-92 165.25,-40.48 70.43,-19.54"/>
<polygon fill="#63b8ff" stroke="#63b8ff" points="71.3,-16.15 60.78,-17.41 69.79,-22.98 71.3,-16.15"/>
</g>
<!-- Node2&#45;&gt;Node3 -->
<g id="edge2" class="edge">
<title>Node2&#45;&gt;Node3</title>
<path fill="none" stroke="#63b8ff" d="M967.02,-63.99C837.68,-65.05 422.79,-64.52 70.41,-18.98"/>
<polygon fill="#63b8ff" stroke="#63b8ff" points="71.09,-15.54 60.72,-17.71 70.18,-22.48 71.09,-15.54"/>
</g>
<!-- Node4 -->
<g id="node4" class="node">
<title>Node4</title>
<g id="a_node4"><a xlink:title=" ">
<polygon fill="#e0e0e0" stroke="#999999" points="187.5,-19 77.5,-19 77.5,0 187.5,0 187.5,-19"/>
<text text-anchor="middle" x="132.5" y="-7" font-family="Helvetica,sans-Serif" font-size="10.00">SFML/Graphics.hpp</text>
</a>
</g>
</g>
<!-- Node2&#45;&gt;Node4 -->
<g id="edge3" class="edge">
<title>Node2&#45;&gt;Node4</title>
<path fill="none" stroke="#63b8ff" d="M967.39,-62.36C850.68,-58.83 501.02,-46.64 198.96,-19.05"/>
<polygon fill="#63b8ff" stroke="#63b8ff" points="199.57,-15.59 189.29,-18.16 198.93,-22.56 199.57,-15.59"/>
</g>
<!-- Node5 -->
<g id="node5" class="node">
<title>Node5</title>
<g id="a_node5"><a xlink:title=" ">
<polygon fill="#e0e0e0" stroke="#999999" points="365,-19 206,-19 206,0 365,0 365,-19"/>
<text text-anchor="middle" x="285.5" y="-7" font-family="Helvetica,sans-Serif" font-size="10.00">SFML/Graphics/Drawable.hpp</text>
</a>
</g>
</g>
<!-- Node2&#45;&gt;Node5 -->
<g id="edge4" class="edge">
<title>Node2&#45;&gt;Node5</title>
<path fill="none" stroke="#63b8ff" d="M967.11,-61.01C868.41,-54.86 606.81,-38.09 376.36,-19.13"/>
<polygon fill="#63b8ff" stroke="#63b8ff" points="376.83,-15.66 366.58,-18.32 376.25,-22.63 376.83,-15.66"/>
</g>
<!-- Node6 -->
<g id="node6" class="node">
<title>Node6</title>
<g id="a_node6"><a xlink:title=" ">
<polygon fill="#e0e0e0" stroke="#999999" points="517.5,-19 383.5,-19 383.5,0 517.5,0 517.5,-19"/>
<text text-anchor="middle" x="450.5" y="-7" font-family="Helvetica,sans-Serif" font-size="10.00">SFML/Graphics/Rect.hpp</text>
</a>
</g>
</g>
<!-- Node2&#45;&gt;Node6 -->
<g id="edge5" class="edge">
<title>Node2&#45;&gt;Node6</title>
<path fill="none" stroke="#63b8ff" d="M967.25,-60.04C886.42,-53.03 698.32,-36.44 529.01,-19.24"/>
<polygon fill="#63b8ff" stroke="#63b8ff" points="529.44,-15.76 519.14,-18.23 528.73,-22.73 529.44,-15.76"/>
</g>
<!-- Node7 -->
<g id="node7" class="node">
<title>Node7</title>
<g id="a_node7"><a xlink:title=" ">
<polygon fill="#e0e0e0" stroke="#999999" points="713.5,-19 535.5,-19 535.5,0 713.5,0 713.5,-19"/>
<text text-anchor="middle" x="624.5" y="-7" font-family="Helvetica,sans-Serif" font-size="10.00">SFML/Graphics/RenderStates.hpp</text>
</a>
</g>
</g>
<!-- Node2&#45;&gt;Node7 -->
<g id="edge6" class="edge">
<title>Node2&#45;&gt;Node7</title>
<path fill="none" stroke="#63b8ff" d="M967.24,-57.93C904.04,-49.18 780.53,-32.09 700.32,-20.99"/>
<polygon fill="#63b8ff" stroke="#63b8ff" points="701.19,-17.58 690.8,-19.67 700.23,-24.51 701.19,-17.58"/>
</g>
<!-- Node8 -->
<g id="node8" class="node">
<title>Node8</title>
<g id="a_node8"><a xlink:title=" ">
<polygon fill="#e0e0e0" stroke="#999999" points="909,-19 732,-19 732,0 909,0 909,-19"/>
<text text-anchor="middle" x="820.5" y="-7" font-family="Helvetica,sans-Serif" font-size="10.00">SFML/Graphics/RenderTarget.hpp</text>
</a>
</g>
</g>
<!-- Node2&#45;&gt;Node8 -->
<g id="edge7" class="edge">
<title>Node2&#45;&gt;Node8</title>
<path fill="none" stroke="#63b8ff" d="M975.78,-54.51C944.66,-45.69 897,-32.18 862.7,-22.46"/>
<polygon fill="#63b8ff" stroke="#63b8ff" points="864.1,-19.22 853.52,-19.86 862.19,-25.95 864.1,-19.22"/>
</g>
<!-- Node9 -->
<g id="node9" class="node">
<title>Node9</title>
<g id="a_node9"><a xlink:title=" ">
<polygon fill="#e0e0e0" stroke="#999999" points="1088,-19 927,-19 927,0 1088,0 1088,-19"/>
<text text-anchor="middle" x="1007.5" y="-7" font-family="Helvetica,sans-Serif" font-size="10.00">SFML/Graphics/Transform.hpp</text>
</a>
</g>
</g>
<!-- Node2&#45;&gt;Node9 -->
<g id="edge8" class="edge">
<title>Node2&#45;&gt;Node9</title>
<path fill="none" stroke="#63b8ff" d="M1007.5,-54.75C1007.5,-48.27 1007.5,-39.16 1007.5,-30.9"/>
<polygon fill="#63b8ff" stroke="#63b8ff" points="1011,-30.96 1007.5,-20.96 1004,-30.96 1011,-30.96"/>
</g>
<!-- Node10 -->
<g id="node10" class="node">
<title>Node10</title>
<g id="a_node10"><a xlink:title=" ">
<polygon fill="#e0e0e0" stroke="#999999" points="1288.5,-19 1106.5,-19 1106.5,0 1288.5,0 1288.5,-19"/>
<text text-anchor="middle" x="1197.5" y="-7" font-family="Helvetica,sans-Serif" font-size="10.00">SFML/Graphics/Transformable.hpp</text>
</a>
</g>
</g>
<!-- Node2&#45;&gt;Node10 -->
<g id="edge9" class="edge">
<title>Node2&#45;&gt;Node10</title>
<path fill="none" stroke="#63b8ff" d="M1039.73,-54.51C1071.35,-45.69 1119.77,-32.18 1154.63,-22.46"/>
<polygon fill="#63b8ff" stroke="#63b8ff" points="1155.28,-25.91 1163.97,-19.85 1153.4,-19.17 1155.28,-25.91"/>
</g>
<!-- Node11 -->
<g id="node11" class="node">
<title>Node11</title>
<g id="a_node11"><a xlink:title=" ">
<polygon fill="#e0e0e0" stroke="#999999" points="1478.5,-19 1306.5,-19 1306.5,0 1478.5,0 1478.5,-19"/>
<text text-anchor="middle" x="1392.5" y="-7" font-family="Helvetica,sans-Serif" font-size="10.00">SFML/System/NonCopyable.hpp</text>
</a>
</g>
</g>
<!-- Node2&#45;&gt;Node11 -->
<g id="edge10" class="edge">
<title>Node2&#45;&gt;Node11</title>
<path fill="none" stroke="#63b8ff" d="M1047.97,-57.93C1111.5,-49.18 1235.65,-32.09 1316.28,-20.99"/>
<polygon fill="#63b8ff" stroke="#63b8ff" points="1316.43,-24.5 1325.86,-19.67 1315.48,-17.57 1316.43,-24.5"/>
</g>
<!-- Node12 -->
<g id="node12" class="node">
<title>Node12</title>
<g id="a_node12"><a xlink:title=" ">
<polygon fill="#e0e0e0" stroke="#999999" points="1640,-19 1497,-19 1497,0 1640,0 1640,-19"/>
<text text-anchor="middle" x="1568.5" y="-7" font-family="Helvetica,sans-Serif" font-size="10.00">SFML/System/Vector2.hpp</text>
</a>
</g>
</g>
<!-- Node2&#45;&gt;Node12 -->
<g id="edge11" class="edge">
<title>Node2&#45;&gt;Node12</title>
<path fill="none" stroke="#63b8ff" d="M1047.97,-59.91C1128.79,-52.72 1316.2,-35.85 1485.16,-19.22"/>
<polygon fill="#63b8ff" stroke="#63b8ff" points="1485.4,-22.71 1495.01,-18.25 1484.71,-15.75 1485.4,-22.71"/>
</g>
<!-- Node13 -->
<g id="node13" class="node">
<title>Node13</title>
<g id="a_node13"><a xlink:title=" ">
<polygon fill="#e0e0e0" stroke="#999999" points="1716.5,-19 1658.5,-19 1658.5,0 1716.5,0 1716.5,-19"/>
<text text-anchor="middle" x="1687.5" y="-7" font-family="Helvetica,sans-Serif" font-size="10.00">memory</text>
</a>
</g>
</g>
<!-- Node2&#45;&gt;Node13 -->
<g id="edge12" class="edge">
<title>Node2&#45;&gt;Node13</title>
<path fill="none" stroke="#63b8ff" d="M1047.91,-62.81C1147.89,-60.66 1414.89,-52.17 1646.76,-19.17"/>
<polygon fill="#63b8ff" stroke="#63b8ff" points="1647.23,-22.64 1656.62,-17.75 1646.23,-15.71 1647.23,-22.64"/>
</g>
<!-- Node14 -->
<g id="node14" class="node">
<title>Node14</title>
<g id="a_node14"><a xlink:title=" ">
<polygon fill="#e0e0e0" stroke="#999999" points="1782,-19 1735,-19 1735,0 1782,0 1782,-19"/>
<text text-anchor="middle" x="1758.5" y="-7" font-family="Helvetica,sans-Serif" font-size="10.00">vector</text>
</a>
</g>
</g>
<!-- Node2&#45;&gt;Node14 -->
<g id="edge13" class="edge">
<title>Node2&#45;&gt;Node14</title>
<path fill="none" stroke="#63b8ff" d="M1047.88,-63.68C1156,-63.58 1461.04,-59.59 1723.54,-18.95"/>
<polygon fill="#63b8ff" stroke="#63b8ff" points="1723.99,-22.42 1733.32,-17.41 1722.9,-15.5 1723.99,-22.42"/>
</g>
<!-- Node15 -->
<g id="node15" class="node">
<title>Node15</title>
<g id="a_node15"><a xlink:title=" ">
<polygon fill="#e0e0e0" stroke="#999999" points="1832.5,-19 1800.5,-19 1800.5,0 1832.5,0 1832.5,-19"/>
<text text-anchor="middle" x="1816.5" y="-7" font-family="Helvetica,sans-Serif" font-size="10.00">set</text>
</a>
</g>
</g>
<!-- Node2&#45;&gt;Node15 -->
<g id="edge14" class="edge">
<title>Node2&#45;&gt;Node15</title>
<path fill="none" stroke="#63b8ff" d="M1047.87,-62.65C1183.87,-59.57 1625.44,-47.73 1788.98,-18.84"/>
<polygon fill="#63b8ff" stroke="#63b8ff" points="1789.59,-22.28 1798.78,-17 1788.31,-15.4 1789.59,-22.28"/>
</g>
<!-- Node16 -->
<g id="node16" class="node">
<title>Node16</title>
<g id="a_node16"><a xlink:title=" ">
<polygon fill="#e0e0e0" stroke="#999999" points="1910.5,-19 1850.5,-19 1850.5,0 1910.5,0 1910.5,-19"/>
<text text-anchor="middle" x="1880.5" y="-7" font-family="Helvetica,sans-Serif" font-size="10.00">iostream</text>
</a>
</g>
</g>
<!-- Node2&#45;&gt;Node16 -->
<g id="edge15" class="edge">
<title>Node2&#45;&gt;Node16</title>
<path fill="none" stroke="#63b8ff" d="M1047.64,-63.65C1166.92,-63.6 1529.66,-59.95 1839.36,-19.04"/>
<polygon fill="#63b8ff" stroke="#63b8ff" points="1839.4,-22.57 1848.85,-17.77 1838.48,-15.63 1839.4,-22.57"/>
</g>
</g>
</svg>
