<?xml version="1.0" encoding="UTF-8" standalone="no"?>
<!DOCTYPE svg PUBLIC "-//W3C//DTD SVG 1.1//EN"
 "http://www.w3.org/Graphics/SVG/1.1/DTD/svg11.dtd">
<!-- Generated by graphviz version 7.0.5 (0)
 -->
<!-- Title: src/Layer.cpp Pages: 1 -->
<svg width="1918pt" height="192pt"
 viewBox="0.00 0.00 1918.00 192.00" xmlns="http://www.w3.org/2000/svg" xmlns:xlink="http://www.w3.org/1999/xlink">
<g id="graph0" class="graph" transform="scale(1 1) rotate(0) translate(4 188)">
<title>src/Layer.cpp</title>
<!-- Node1 -->
<g id="node1" class="node">
<title>Node1</title>
<g id="a_node1"><a xlink:title=" ">
<polygon fill="#999999" stroke="#666666" points="993,-184 913,-184 913,-165 993,-165 993,-184"/>
<text text-anchor="middle" x="953" y="-172" font-family="Helvetica,sans-Serif" font-size="10.00">src/Layer.cpp</text>
</a>
</g>
</g>
<!-- Node2 -->
<g id="node2" class="node">
<title>Node2</title>
<g id="a_node2"><a xlink:href="Layer_8h.html" target="_top" xlink:title=" ">
<polygon fill="white" stroke="#666666" points="979,-129 927,-129 927,-110 979,-110 979,-129"/>
<text text-anchor="middle" x="953" y="-117" font-family="Helvetica,sans-Serif" font-size="10.00">Layer.h</text>
</a>
</g>
</g>
<!-- Node1&#45;&gt;Node2 -->
<g id="edge1" class="edge">
<title>Node1&#45;&gt;Node2</title>
<path fill="none" stroke="#63b8ff" d="M953,-164.75C953,-158.27 953,-149.16 953,-140.9"/>
<polygon fill="#63b8ff" stroke="#63b8ff" points="956.5,-140.96 953,-130.96 949.5,-140.96 956.5,-140.96"/>
</g>
<!-- Node3 -->
<g id="node3" class="node">
<title>Node3</title>
<g id="a_node3"><a xlink:href="SceneNode_8h.html" target="_top" xlink:title=" ">
<polygon fill="white" stroke="#666666" points="1047,-74 967,-74 967,-55 1047,-55 1047,-74"/>
<text text-anchor="middle" x="1007" y="-62" font-family="Helvetica,sans-Serif" font-size="10.00">SceneNode.h</text>
</a>
</g>
</g>
<!-- Node1&#45;&gt;Node3 -->
<g id="edge19" class="edge">
<title>Node1&#45;&gt;Node3</title>
<path fill="none" stroke="#63b8ff" d="M961.62,-164.66C969.49,-156.16 980.94,-142.61 988,-129 995.23,-115.07 1000.15,-97.95 1003.17,-85"/>
<polygon fill="#63b8ff" stroke="#63b8ff" points="1006.51,-86.1 1005.18,-75.59 999.67,-84.64 1006.51,-86.1"/>
</g>
<!-- Node18 -->
<g id="node18" class="node">
<title>Node18</title>
<g id="a_node18"><a xlink:href="Sortable_8h.html" target="_top" xlink:title=" ">
<polygon fill="white" stroke="#666666" points="932,-74 866,-74 866,-55 932,-55 932,-74"/>
<text text-anchor="middle" x="899" y="-62" font-family="Helvetica,sans-Serif" font-size="10.00">Sortable.h</text>
</a>
</g>
</g>
<!-- Node1&#45;&gt;Node18 -->
<g id="edge20" class="edge">
<title>Node1&#45;&gt;Node18</title>
<path fill="none" stroke="#63b8ff" d="M944.38,-164.66C936.51,-156.16 925.06,-142.61 918,-129 910.77,-115.07 905.85,-97.95 902.83,-85"/>
<polygon fill="#63b8ff" stroke="#63b8ff" points="906.33,-84.64 900.82,-75.59 899.49,-86.1 906.33,-84.64"/>
</g>
<!-- Node2&#45;&gt;Node3 -->
<g id="edge2" class="edge">
<title>Node2&#45;&gt;Node3</title>
<path fill="none" stroke="#63b8ff" d="M961.92,-109.75C969.45,-102.35 980.47,-91.54 989.73,-82.45"/>
<polygon fill="#63b8ff" stroke="#63b8ff" points="992.12,-85 996.81,-75.5 987.22,-80.01 992.12,-85"/>
</g>
<!-- Node2&#45;&gt;Node18 -->
<g id="edge17" class="edge">
<title>Node2&#45;&gt;Node18</title>
<path fill="none" stroke="#63b8ff" d="M944.08,-109.75C936.55,-102.35 925.53,-91.54 916.27,-82.45"/>
<polygon fill="#63b8ff" stroke="#63b8ff" points="918.78,-80.01 909.19,-75.5 913.88,-85 918.78,-80.01"/>
</g>
<!-- Node4 -->
<g id="node4" class="node">
<title>Node4</title>
<g id="a_node4"><a xlink:href="Enums_8h.html" target="_top" xlink:title=" ">
<polygon fill="white" stroke="#666666" points="187.5,-19 128.5,-19 128.5,0 187.5,0 187.5,-19"/>
<text text-anchor="middle" x="158" y="-7" font-family="Helvetica,sans-Serif" font-size="10.00">Enums.h</text>
</a>
</g>
</g>
<!-- Node3&#45;&gt;Node4 -->
<g id="edge3" class="edge">
<title>Node3&#45;&gt;Node4</title>
<path fill="none" stroke="#63b8ff" d="M966.57,-57.77C958.13,-56.73 949.29,-55.73 941,-55 614.5,-26.13 526.49,-62.51 199.03,-19.18"/>
<polygon fill="#63b8ff" stroke="#63b8ff" points="199.66,-15.73 189.28,-17.87 198.73,-22.67 199.66,-15.73"/>
</g>
<!-- Node5 -->
<g id="node5" class="node">
<title>Node5</title>
<g id="a_node5"><a xlink:title=" ">
<polygon fill="#e0e0e0" stroke="#999999" points="110,-19 0,-19 0,0 110,0 110,-19"/>
<text text-anchor="middle" x="55" y="-7" font-family="Helvetica,sans-Serif" font-size="10.00">SFML/Graphics.hpp</text>
</a>
</g>
</g>
<!-- Node3&#45;&gt;Node5 -->
<g id="edge4" class="edge">
<title>Node3&#45;&gt;Node5</title>
<path fill="none" stroke="#63b8ff" d="M966.57,-57.75C958.13,-56.7 949.29,-55.71 941,-55 580.4,-23.94 485.22,-50.55 121.85,-19.17"/>
<polygon fill="#63b8ff" stroke="#63b8ff" points="122.24,-15.69 111.98,-18.3 121.64,-22.66 122.24,-15.69"/>
</g>
<!-- Node6 -->
<g id="node6" class="node">
<title>Node6</title>
<g id="a_node6"><a xlink:title=" ">
<polygon fill="#e0e0e0" stroke="#999999" points="364.5,-19 205.5,-19 205.5,0 364.5,0 364.5,-19"/>
<text text-anchor="middle" x="285" y="-7" font-family="Helvetica,sans-Serif" font-size="10.00">SFML/Graphics/Drawable.hpp</text>
</a>
</g>
</g>
<!-- Node3&#45;&gt;Node6 -->
<g id="edge5" class="edge">
<title>Node3&#45;&gt;Node6</title>
<path fill="none" stroke="#63b8ff" d="M966.56,-57.87C958.12,-56.82 949.28,-55.8 941,-55 693.33,-31.21 627.63,-38.77 375.92,-19.12"/>
<polygon fill="#63b8ff" stroke="#63b8ff" points="376.32,-15.64 366.07,-18.34 375.77,-22.62 376.32,-15.64"/>
</g>
<!-- Node7 -->
<g id="node7" class="node">
<title>Node7</title>
<g id="a_node7"><a xlink:title=" ">
<polygon fill="#e0e0e0" stroke="#999999" points="517,-19 383,-19 383,0 517,0 517,-19"/>
<text text-anchor="middle" x="450" y="-7" font-family="Helvetica,sans-Serif" font-size="10.00">SFML/Graphics/Rect.hpp</text>
</a>
</g>
</g>
<!-- Node3&#45;&gt;Node7 -->
<g id="edge6" class="edge">
<title>Node3&#45;&gt;Node7</title>
<path fill="none" stroke="#63b8ff" d="M966.54,-58.02C958.11,-56.95 949.27,-55.89 941,-55 760.61,-35.57 712.16,-37.21 528.55,-19.23"/>
<polygon fill="#63b8ff" stroke="#63b8ff" points="528.93,-15.75 518.63,-18.25 528.24,-22.71 528.93,-15.75"/>
</g>
<!-- Node8 -->
<g id="node8" class="node">
<title>Node8</title>
<g id="a_node8"><a xlink:title=" ">
<polygon fill="#e0e0e0" stroke="#999999" points="713,-19 535,-19 535,0 713,0 713,-19"/>
<text text-anchor="middle" x="624" y="-7" font-family="Helvetica,sans-Serif" font-size="10.00">SFML/Graphics/RenderStates.hpp</text>
</a>
</g>
</g>
<!-- Node3&#45;&gt;Node8 -->
<g id="edge7" class="edge">
<title>Node3&#45;&gt;Node8</title>
<path fill="none" stroke="#63b8ff" d="M966.74,-57.93C903.54,-49.18 780.03,-32.09 699.82,-20.99"/>
<polygon fill="#63b8ff" stroke="#63b8ff" points="700.69,-17.58 690.3,-19.67 699.73,-24.51 700.69,-17.58"/>
</g>
<!-- Node9 -->
<g id="node9" class="node">
<title>Node9</title>
<g id="a_node9"><a xlink:title=" ">
<polygon fill="#e0e0e0" stroke="#999999" points="908.5,-19 731.5,-19 731.5,0 908.5,0 908.5,-19"/>
<text text-anchor="middle" x="820" y="-7" font-family="Helvetica,sans-Serif" font-size="10.00">SFML/Graphics/RenderTarget.hpp</text>
</a>
</g>
</g>
<!-- Node3&#45;&gt;Node9 -->
<g id="edge8" class="edge">
<title>Node3&#45;&gt;Node9</title>
<path fill="none" stroke="#63b8ff" d="M975.28,-54.51C944.16,-45.69 896.5,-32.18 862.2,-22.46"/>
<polygon fill="#63b8ff" stroke="#63b8ff" points="863.6,-19.22 853.02,-19.86 861.69,-25.95 863.6,-19.22"/>
</g>
<!-- Node10 -->
<g id="node10" class="node">
<title>Node10</title>
<g id="a_node10"><a xlink:title=" ">
<polygon fill="#e0e0e0" stroke="#999999" points="1087.5,-19 926.5,-19 926.5,0 1087.5,0 1087.5,-19"/>
<text text-anchor="middle" x="1007" y="-7" font-family="Helvetica,sans-Serif" font-size="10.00">SFML/Graphics/Transform.hpp</text>
</a>
</g>
</g>
<!-- Node3&#45;&gt;Node10 -->
<g id="edge9" class="edge">
<title>Node3&#45;&gt;Node10</title>
<path fill="none" stroke="#63b8ff" d="M1007,-54.75C1007,-48.27 1007,-39.16 1007,-30.9"/>
<polygon fill="#63b8ff" stroke="#63b8ff" points="1010.5,-30.96 1007,-20.96 1003.5,-30.96 1010.5,-30.96"/>
</g>
<!-- Node11 -->
<g id="node11" class="node">
<title>Node11</title>
<g id="a_node11"><a xlink:title=" ">
<polygon fill="#e0e0e0" stroke="#999999" points="1288,-19 1106,-19 1106,0 1288,0 1288,-19"/>
<text text-anchor="middle" x="1197" y="-7" font-family="Helvetica,sans-Serif" font-size="10.00">SFML/Graphics/Transformable.hpp</text>
</a>
</g>
</g>
<!-- Node3&#45;&gt;Node11 -->
<g id="edge10" class="edge">
<title>Node3&#45;&gt;Node11</title>
<path fill="none" stroke="#63b8ff" d="M1039.23,-54.51C1070.85,-45.69 1119.27,-32.18 1154.13,-22.46"/>
<polygon fill="#63b8ff" stroke="#63b8ff" points="1154.78,-25.91 1163.47,-19.85 1152.9,-19.17 1154.78,-25.91"/>
</g>
<!-- Node12 -->
<g id="node12" class="node">
<title>Node12</title>
<g id="a_node12"><a xlink:title=" ">
<polygon fill="#e0e0e0" stroke="#999999" points="1478,-19 1306,-19 1306,0 1478,0 1478,-19"/>
<text text-anchor="middle" x="1392" y="-7" font-family="Helvetica,sans-Serif" font-size="10.00">SFML/System/NonCopyable.hpp</text>
</a>
</g>
</g>
<!-- Node3&#45;&gt;Node12 -->
<g id="edge11" class="edge">
<title>Node3&#45;&gt;Node12</title>
<path fill="none" stroke="#63b8ff" d="M1047.47,-57.93C1111,-49.18 1235.15,-32.09 1315.78,-20.99"/>
<polygon fill="#63b8ff" stroke="#63b8ff" points="1315.93,-24.5 1325.36,-19.67 1314.98,-17.57 1315.93,-24.5"/>
</g>
<!-- Node13 -->
<g id="node13" class="node">
<title>Node13</title>
<g id="a_node13"><a xlink:title=" ">
<polygon fill="#e0e0e0" stroke="#999999" points="1639.5,-19 1496.5,-19 1496.5,0 1639.5,0 1639.5,-19"/>
<text text-anchor="middle" x="1568" y="-7" font-family="Helvetica,sans-Serif" font-size="10.00">SFML/System/Vector2.hpp</text>
</a>
</g>
</g>
<!-- Node3&#45;&gt;Node13 -->
<g id="edge12" class="edge">
<title>Node3&#45;&gt;Node13</title>
<path fill="none" stroke="#63b8ff" d="M1047.47,-59.91C1128.29,-52.72 1315.7,-35.85 1484.66,-19.22"/>
<polygon fill="#63b8ff" stroke="#63b8ff" points="1484.9,-22.71 1494.51,-18.25 1484.21,-15.75 1484.9,-22.71"/>
</g>
<!-- Node14 -->
<g id="node14" class="node">
<title>Node14</title>
<g id="a_node14"><a xlink:title=" ">
<polygon fill="#e0e0e0" stroke="#999999" points="1716,-19 1658,-19 1658,0 1716,0 1716,-19"/>
<text text-anchor="middle" x="1687" y="-7" font-family="Helvetica,sans-Serif" font-size="10.00">memory</text>
</a>
</g>
</g>
<!-- Node3&#45;&gt;Node14 -->
<g id="edge13" class="edge">
<title>Node3&#45;&gt;Node14</title>
<path fill="none" stroke="#63b8ff" d="M1047.41,-62.81C1147.39,-60.66 1414.39,-52.17 1646.26,-19.17"/>
<polygon fill="#63b8ff" stroke="#63b8ff" points="1646.73,-22.64 1656.12,-17.75 1645.73,-15.71 1646.73,-22.64"/>
</g>
<!-- Node15 -->
<g id="node15" class="node">
<title>Node15</title>
<g id="a_node15"><a xlink:title=" ">
<polygon fill="#e0e0e0" stroke="#999999" points="1781.5,-19 1734.5,-19 1734.5,0 1781.5,0 1781.5,-19"/>
<text text-anchor="middle" x="1758" y="-7" font-family="Helvetica,sans-Serif" font-size="10.00">vector</text>
</a>
</g>
</g>
<!-- Node3&#45;&gt;Node15 -->
<g id="edge14" class="edge">
<title>Node3&#45;&gt;Node15</title>
<path fill="none" stroke="#63b8ff" d="M1047.38,-63.68C1155.5,-63.58 1460.54,-59.59 1723.04,-18.95"/>
<polygon fill="#63b8ff" stroke="#63b8ff" points="1723.49,-22.42 1732.82,-17.41 1722.4,-15.5 1723.49,-22.42"/>
</g>
<!-- Node16 -->
<g id="node16" class="node">
<title>Node16</title>
<g id="a_node16"><a xlink:title=" ">
<polygon fill="#e0e0e0" stroke="#999999" points="1832,-19 1800,-19 1800,0 1832,0 1832,-19"/>
<text text-anchor="middle" x="1816" y="-7" font-family="Helvetica,sans-Serif" font-size="10.00">set</text>
</a>
</g>
</g>
<!-- Node3&#45;&gt;Node16 -->
<g id="edge15" class="edge">
<title>Node3&#45;&gt;Node16</title>
<path fill="none" stroke="#63b8ff" d="M1047.37,-62.65C1183.37,-59.57 1624.94,-47.73 1788.48,-18.84"/>
<polygon fill="#63b8ff" stroke="#63b8ff" points="1789.09,-22.28 1798.28,-17 1787.81,-15.4 1789.09,-22.28"/>
</g>
<!-- Node17 -->
<g id="node17" class="node">
<title>Node17</title>
<g id="a_node17"><a xlink:title=" ">
<polygon fill="#e0e0e0" stroke="#999999" points="1910,-19 1850,-19 1850,0 1910,0 1910,-19"/>
<text text-anchor="middle" x="1880" y="-7" font-family="Helvetica,sans-Serif" font-size="10.00">iostream</text>
</a>
</g>
</g>
<!-- Node3&#45;&gt;Node17 -->
<g id="edge16" class="edge">
<title>Node3&#45;&gt;Node17</title>
<path fill="none" stroke="#63b8ff" d="M1047.14,-63.65C1166.42,-63.6 1529.16,-59.95 1838.86,-19.04"/>
<polygon fill="#63b8ff" stroke="#63b8ff" points="1838.9,-22.57 1848.35,-17.77 1837.98,-15.63 1838.9,-22.57"/>
</g>
<!-- Node18&#45;&gt;Node5 -->
<g id="edge18" class="edge">
<title>Node18&#45;&gt;Node5</title>
<path fill="none" stroke="#63b8ff" d="M865.86,-62.5C759.42,-59.1 416.49,-46.68 121.82,-19.19"/>
<polygon fill="#63b8ff" stroke="#63b8ff" points="122.26,-15.72 111.98,-18.27 121.61,-22.69 122.26,-15.72"/>
</g>
</g>
</svg>
