<?xml version="1.0" encoding="UTF-8" standalone="no"?>
<!DOCTYPE svg PUBLIC "-//W3C//DTD SVG 1.1//EN"
 "http://www.w3.org/Graphics/SVG/1.1/DTD/svg11.dtd">
<!-- Generated by graphviz version 7.0.5 (0)
 -->
<!-- Title: src/Layer.h Pages: 1 -->
<svg width="1918pt" height="137pt"
 viewBox="0.00 0.00 1918.00 137.00" xmlns="http://www.w3.org/2000/svg" xmlns:xlink="http://www.w3.org/1999/xlink">
<g id="graph0" class="graph" transform="scale(1 1) rotate(0) translate(4 133)">
<title>src/Layer.h</title>
<!-- Node1 -->
<g id="node1" class="node">
<title>Node1</title>
<g id="a_node1"><a xlink:title=" ">
<polygon fill="#999999" stroke="#666666" points="565.5,-129 496.5,-129 496.5,-110 565.5,-110 565.5,-129"/>
<text text-anchor="middle" x="531" y="-117" font-family="Helvetica,sans-Serif" font-size="10.00">src/Layer.h</text>
</a>
</g>
</g>
<!-- Node2 -->
<g id="node2" class="node">
<title>Node2</title>
<g id="a_node2"><a xlink:href="SceneNode_8h.html" target="_top" xlink:title=" ">
<polygon fill="white" stroke="#666666" points="1047,-74 967,-74 967,-55 1047,-55 1047,-74"/>
<text text-anchor="middle" x="1007" y="-62" font-family="Helvetica,sans-Serif" font-size="10.00">SceneNode.h</text>
</a>
</g>
</g>
<!-- Node1&#45;&gt;Node2 -->
<g id="edge1" class="edge">
<title>Node1&#45;&gt;Node2</title>
<path fill="none" stroke="#63b8ff" d="M565.62,-114.65C648.26,-105.44 857.45,-82.15 955.19,-71.27"/>
<polygon fill="#63b8ff" stroke="#63b8ff" points="955.49,-74.76 965.04,-70.17 954.71,-67.8 955.49,-74.76"/>
</g>
<!-- Node17 -->
<g id="node17" class="node">
<title>Node17</title>
<g id="a_node17"><a xlink:href="Sortable_8h.html" target="_top" xlink:title=" ">
<polygon fill="white" stroke="#666666" points="519,-74 453,-74 453,-55 519,-55 519,-74"/>
<text text-anchor="middle" x="486" y="-62" font-family="Helvetica,sans-Serif" font-size="10.00">Sortable.h</text>
</a>
</g>
</g>
<!-- Node1&#45;&gt;Node17 -->
<g id="edge16" class="edge">
<title>Node1&#45;&gt;Node17</title>
<path fill="none" stroke="#63b8ff" d="M523.57,-109.75C517.42,-102.5 508.49,-91.98 500.87,-83.02"/>
<polygon fill="#63b8ff" stroke="#63b8ff" points="503.71,-80.95 494.57,-75.6 498.38,-85.48 503.71,-80.95"/>
</g>
<!-- Node3 -->
<g id="node3" class="node">
<title>Node3</title>
<g id="a_node3"><a xlink:href="Enums_8h.html" target="_top" xlink:title=" ">
<polygon fill="white" stroke="#666666" points="187.5,-19 128.5,-19 128.5,0 187.5,0 187.5,-19"/>
<text text-anchor="middle" x="158" y="-7" font-family="Helvetica,sans-Serif" font-size="10.00">Enums.h</text>
</a>
</g>
</g>
<!-- Node2&#45;&gt;Node3 -->
<g id="edge2" class="edge">
<title>Node2&#45;&gt;Node3</title>
<path fill="none" stroke="#63b8ff" d="M966.75,-63.56C849.68,-63.24 499.13,-58.88 198.83,-18.99"/>
<polygon fill="#63b8ff" stroke="#63b8ff" points="199.6,-15.56 189.22,-17.69 198.67,-22.5 199.6,-15.56"/>
</g>
<!-- Node4 -->
<g id="node4" class="node">
<title>Node4</title>
<g id="a_node4"><a xlink:title=" ">
<polygon fill="#e0e0e0" stroke="#999999" points="110,-19 0,-19 0,0 110,0 110,-19"/>
<text text-anchor="middle" x="55" y="-7" font-family="Helvetica,sans-Serif" font-size="10.00">SFML/Graphics.hpp</text>
</a>
</g>
</g>
<!-- Node2&#45;&gt;Node4 -->
<g id="edge3" class="edge">
<title>Node2&#45;&gt;Node4</title>
<path fill="none" stroke="#63b8ff" d="M966.65,-62.66C842.35,-59.8 454.13,-49.04 121.77,-19.18"/>
<polygon fill="#63b8ff" stroke="#63b8ff" points="122.25,-15.7 111.98,-18.29 121.62,-22.68 122.25,-15.7"/>
</g>
<!-- Node5 -->
<g id="node5" class="node">
<title>Node5</title>
<g id="a_node5"><a xlink:title=" ">
<polygon fill="#e0e0e0" stroke="#999999" points="364.5,-19 205.5,-19 205.5,0 364.5,0 364.5,-19"/>
<text text-anchor="middle" x="285" y="-7" font-family="Helvetica,sans-Serif" font-size="10.00">SFML/Graphics/Drawable.hpp</text>
</a>
</g>
</g>
<!-- Node2&#45;&gt;Node5 -->
<g id="edge4" class="edge">
<title>Node2&#45;&gt;Node5</title>
<path fill="none" stroke="#63b8ff" d="M966.61,-61.01C867.91,-54.86 606.31,-38.09 375.86,-19.13"/>
<polygon fill="#63b8ff" stroke="#63b8ff" points="376.33,-15.66 366.08,-18.32 375.75,-22.63 376.33,-15.66"/>
</g>
<!-- Node6 -->
<g id="node6" class="node">
<title>Node6</title>
<g id="a_node6"><a xlink:title=" ">
<polygon fill="#e0e0e0" stroke="#999999" points="517,-19 383,-19 383,0 517,0 517,-19"/>
<text text-anchor="middle" x="450" y="-7" font-family="Helvetica,sans-Serif" font-size="10.00">SFML/Graphics/Rect.hpp</text>
</a>
</g>
</g>
<!-- Node2&#45;&gt;Node6 -->
<g id="edge5" class="edge">
<title>Node2&#45;&gt;Node6</title>
<path fill="none" stroke="#63b8ff" d="M966.75,-60.04C885.92,-53.03 697.82,-36.44 528.51,-19.24"/>
<polygon fill="#63b8ff" stroke="#63b8ff" points="528.94,-15.76 518.64,-18.23 528.23,-22.73 528.94,-15.76"/>
</g>
<!-- Node7 -->
<g id="node7" class="node">
<title>Node7</title>
<g id="a_node7"><a xlink:title=" ">
<polygon fill="#e0e0e0" stroke="#999999" points="713,-19 535,-19 535,0 713,0 713,-19"/>
<text text-anchor="middle" x="624" y="-7" font-family="Helvetica,sans-Serif" font-size="10.00">SFML/Graphics/RenderStates.hpp</text>
</a>
</g>
</g>
<!-- Node2&#45;&gt;Node7 -->
<g id="edge6" class="edge">
<title>Node2&#45;&gt;Node7</title>
<path fill="none" stroke="#63b8ff" d="M966.74,-57.93C903.54,-49.18 780.03,-32.09 699.82,-20.99"/>
<polygon fill="#63b8ff" stroke="#63b8ff" points="700.69,-17.58 690.3,-19.67 699.73,-24.51 700.69,-17.58"/>
</g>
<!-- Node8 -->
<g id="node8" class="node">
<title>Node8</title>
<g id="a_node8"><a xlink:title=" ">
<polygon fill="#e0e0e0" stroke="#999999" points="908.5,-19 731.5,-19 731.5,0 908.5,0 908.5,-19"/>
<text text-anchor="middle" x="820" y="-7" font-family="Helvetica,sans-Serif" font-size="10.00">SFML/Graphics/RenderTarget.hpp</text>
</a>
</g>
</g>
<!-- Node2&#45;&gt;Node8 -->
<g id="edge7" class="edge">
<title>Node2&#45;&gt;Node8</title>
<path fill="none" stroke="#63b8ff" d="M975.28,-54.51C944.16,-45.69 896.5,-32.18 862.2,-22.46"/>
<polygon fill="#63b8ff" stroke="#63b8ff" points="863.6,-19.22 853.02,-19.86 861.69,-25.95 863.6,-19.22"/>
</g>
<!-- Node9 -->
<g id="node9" class="node">
<title>Node9</title>
<g id="a_node9"><a xlink:title=" ">
<polygon fill="#e0e0e0" stroke="#999999" points="1087.5,-19 926.5,-19 926.5,0 1087.5,0 1087.5,-19"/>
<text text-anchor="middle" x="1007" y="-7" font-family="Helvetica,sans-Serif" font-size="10.00">SFML/Graphics/Transform.hpp</text>
</a>
</g>
</g>
<!-- Node2&#45;&gt;Node9 -->
<g id="edge8" class="edge">
<title>Node2&#45;&gt;Node9</title>
<path fill="none" stroke="#63b8ff" d="M1007,-54.75C1007,-48.27 1007,-39.16 1007,-30.9"/>
<polygon fill="#63b8ff" stroke="#63b8ff" points="1010.5,-30.96 1007,-20.96 1003.5,-30.96 1010.5,-30.96"/>
</g>
<!-- Node10 -->
<g id="node10" class="node">
<title>Node10</title>
<g id="a_node10"><a xlink:title=" ">
<polygon fill="#e0e0e0" stroke="#999999" points="1288,-19 1106,-19 1106,0 1288,0 1288,-19"/>
<text text-anchor="middle" x="1197" y="-7" font-family="Helvetica,sans-Serif" font-size="10.00">SFML/Graphics/Transformable.hpp</text>
</a>
</g>
</g>
<!-- Node2&#45;&gt;Node10 -->
<g id="edge9" class="edge">
<title>Node2&#45;&gt;Node10</title>
<path fill="none" stroke="#63b8ff" d="M1039.23,-54.51C1070.85,-45.69 1119.27,-32.18 1154.13,-22.46"/>
<polygon fill="#63b8ff" stroke="#63b8ff" points="1154.78,-25.91 1163.47,-19.85 1152.9,-19.17 1154.78,-25.91"/>
</g>
<!-- Node11 -->
<g id="node11" class="node">
<title>Node11</title>
<g id="a_node11"><a xlink:title=" ">
<polygon fill="#e0e0e0" stroke="#999999" points="1478,-19 1306,-19 1306,0 1478,0 1478,-19"/>
<text text-anchor="middle" x="1392" y="-7" font-family="Helvetica,sans-Serif" font-size="10.00">SFML/System/NonCopyable.hpp</text>
</a>
</g>
</g>
<!-- Node2&#45;&gt;Node11 -->
<g id="edge10" class="edge">
<title>Node2&#45;&gt;Node11</title>
<path fill="none" stroke="#63b8ff" d="M1047.47,-57.93C1111,-49.18 1235.15,-32.09 1315.78,-20.99"/>
<polygon fill="#63b8ff" stroke="#63b8ff" points="1315.93,-24.5 1325.36,-19.67 1314.98,-17.57 1315.93,-24.5"/>
</g>
<!-- Node12 -->
<g id="node12" class="node">
<title>Node12</title>
<g id="a_node12"><a xlink:title=" ">
<polygon fill="#e0e0e0" stroke="#999999" points="1639.5,-19 1496.5,-19 1496.5,0 1639.5,0 1639.5,-19"/>
<text text-anchor="middle" x="1568" y="-7" font-family="Helvetica,sans-Serif" font-size="10.00">SFML/System/Vector2.hpp</text>
</a>
</g>
</g>
<!-- Node2&#45;&gt;Node12 -->
<g id="edge11" class="edge">
<title>Node2&#45;&gt;Node12</title>
<path fill="none" stroke="#63b8ff" d="M1047.47,-59.91C1128.29,-52.72 1315.7,-35.85 1484.66,-19.22"/>
<polygon fill="#63b8ff" stroke="#63b8ff" points="1484.9,-22.71 1494.51,-18.25 1484.21,-15.75 1484.9,-22.71"/>
</g>
<!-- Node13 -->
<g id="node13" class="node">
<title>Node13</title>
<g id="a_node13"><a xlink:title=" ">
<polygon fill="#e0e0e0" stroke="#999999" points="1716,-19 1658,-19 1658,0 1716,0 1716,-19"/>
<text text-anchor="middle" x="1687" y="-7" font-family="Helvetica,sans-Serif" font-size="10.00">memory</text>
</a>
</g>
</g>
<!-- Node2&#45;&gt;Node13 -->
<g id="edge12" class="edge">
<title>Node2&#45;&gt;Node13</title>
<path fill="none" stroke="#63b8ff" d="M1047.41,-62.81C1147.39,-60.66 1414.39,-52.17 1646.26,-19.17"/>
<polygon fill="#63b8ff" stroke="#63b8ff" points="1646.73,-22.64 1656.12,-17.75 1645.73,-15.71 1646.73,-22.64"/>
</g>
<!-- Node14 -->
<g id="node14" class="node">
<title>Node14</title>
<g id="a_node14"><a xlink:title=" ">
<polygon fill="#e0e0e0" stroke="#999999" points="1781.5,-19 1734.5,-19 1734.5,0 1781.5,0 1781.5,-19"/>
<text text-anchor="middle" x="1758" y="-7" font-family="Helvetica,sans-Serif" font-size="10.00">vector</text>
</a>
</g>
</g>
<!-- Node2&#45;&gt;Node14 -->
<g id="edge13" class="edge">
<title>Node2&#45;&gt;Node14</title>
<path fill="none" stroke="#63b8ff" d="M1047.38,-63.68C1155.5,-63.58 1460.54,-59.59 1723.04,-18.95"/>
<polygon fill="#63b8ff" stroke="#63b8ff" points="1723.49,-22.42 1732.82,-17.41 1722.4,-15.5 1723.49,-22.42"/>
</g>
<!-- Node15 -->
<g id="node15" class="node">
<title>Node15</title>
<g id="a_node15"><a xlink:title=" ">
<polygon fill="#e0e0e0" stroke="#999999" points="1832,-19 1800,-19 1800,0 1832,0 1832,-19"/>
<text text-anchor="middle" x="1816" y="-7" font-family="Helvetica,sans-Serif" font-size="10.00">set</text>
</a>
</g>
</g>
<!-- Node2&#45;&gt;Node15 -->
<g id="edge14" class="edge">
<title>Node2&#45;&gt;Node15</title>
<path fill="none" stroke="#63b8ff" d="M1047.37,-62.65C1183.37,-59.57 1624.94,-47.73 1788.48,-18.84"/>
<polygon fill="#63b8ff" stroke="#63b8ff" points="1789.09,-22.28 1798.28,-17 1787.81,-15.4 1789.09,-22.28"/>
</g>
<!-- Node16 -->
<g id="node16" class="node">
<title>Node16</title>
<g id="a_node16"><a xlink:title=" ">
<polygon fill="#e0e0e0" stroke="#999999" points="1910,-19 1850,-19 1850,0 1910,0 1910,-19"/>
<text text-anchor="middle" x="1880" y="-7" font-family="Helvetica,sans-Serif" font-size="10.00">iostream</text>
</a>
</g>
</g>
<!-- Node2&#45;&gt;Node16 -->
<g id="edge15" class="edge">
<title>Node2&#45;&gt;Node16</title>
<path fill="none" stroke="#63b8ff" d="M1047.14,-63.65C1166.42,-63.6 1529.16,-59.95 1838.86,-19.04"/>
<polygon fill="#63b8ff" stroke="#63b8ff" points="1838.9,-22.57 1848.35,-17.77 1837.98,-15.63 1838.9,-22.57"/>
</g>
<!-- Node17&#45;&gt;Node4 -->
<g id="edge17" class="edge">
<title>Node17&#45;&gt;Node4</title>
<path fill="none" stroke="#63b8ff" d="M452.59,-59.58C389.9,-52.19 250.1,-35.59 121.69,-19.33"/>
<polygon fill="#63b8ff" stroke="#63b8ff" points="122.36,-15.89 112,-18.1 121.48,-22.83 122.36,-15.89"/>
</g>
</g>
</svg>
