<?xml version="1.0" encoding="UTF-8" standalone="no"?>
<!DOCTYPE svg PUBLIC "-//W3C//DTD SVG 1.1//EN"
 "http://www.w3.org/Graphics/SVG/1.1/DTD/svg11.dtd">
<!-- Generated by graphviz version 7.0.5 (0)
 -->
<!-- Title: src/LevelGenerator.h Pages: 1 -->
<!--zoomable 192 -->
<svg id="main" version="1.1" xmlns="http://www.w3.org/2000/svg" xmlns:xlink="http://www.w3.org/1999/xlink" xml:space="preserve" onload="init(evt)">
<style type="text/css"><![CDATA[
.edge:hover path { stroke: red; }
.edge:hover polygon { stroke: red; fill: red; }
]]></style>
<script type="text/javascript"><![CDATA[
var edges = document.getElementsByTagName('g');
if (edges && edges.length) {
  for (var i=0;i<edges.length;i++) {
    if (edges[i].id.substr(0,4)=='edge') {
      edges[i].setAttribute('class','edge');
    }
  }
}
]]></script>
        <defs>
                <circle id="rim" cx="0" cy="0" r="7"/>
                <circle id="rim2" cx="0" cy="0" r="3.5"/>
                <g id="zoomPlus">
                        <use xlink:href="#rim" fill="#404040">
                                <set attributeName="fill" to="#808080" begin="zoomplus.mouseover" end="zoomplus.mouseout"/>
                        </use>
                        <path d="M-4,0h8M0,-4v8" fill="none" stroke="white" stroke-width="1.5" pointer-events="none"/>
                </g>
                <g id="zoomMin">
                        <use xlink:href="#rim" fill="#404040">
                                <set attributeName="fill" to="#808080" begin="zoomminus.mouseover" end="zoomminus.mouseout"/>
                        </use>
                        <path d="M-4,0h8" fill="none" stroke="white" stroke-width="1.5" pointer-events="none"/>
                </g>
                <g id="dirArrow">
                        <path fill="none" stroke="white" stroke-width="1.5" d="M0,-3.0v7 M-2.5,-0.5L0,-3.0L2.5,-0.5"/>
                </g>
               <g id="resetDef">
                       <use xlink:href="#rim2" fill="#404040">
                               <set attributeName="fill" to="#808080" begin="reset.mouseover" end="reset.mouseout"/>
                       </use>
               </g>
        </defs>

<script type="text/javascript">
var viewWidth = 1990;
var viewHeight = 192;
var sectionId = 'dynsection-0';
</script>
<script xlink:href="svgpan.js"/>
<svg id="graph" class="graph">
<g id="viewport">
<title>src/LevelGenerator.h</title>
<!-- Node1 -->
<g id="node1" class="node">
<title>Node1</title>
<g id="a_node1"><a xlink:title=" ">
<polygon fill="#999999" stroke="#666666" points="1945.5,-184 1828.5,-184 1828.5,-165 1945.5,-165 1945.5,-184"/>
<text text-anchor="middle" x="1887" y="-172" font-family="Helvetica,sans-Serif" font-size="10.00">src/LevelGenerator.h</text>
</a>
</g>
</g>
<!-- Node2 -->
<g id="node2" class="node">
<title>Node2</title>
<g id="a_node2"><a xlink:href="Level_8h.html" target="_top" xlink:title=" ">
<polygon fill="white" stroke="#666666" points="249,-129 197,-129 197,-110 249,-110 249,-129"/>
<text text-anchor="middle" x="223" y="-117" font-family="Helvetica,sans-Serif" font-size="10.00">Level.h</text>
</a>
</g>
</g>
<!-- Node1&#45;&gt;Node2 -->
<g id="edge1" class="edge">
<title>Node1&#45;&gt;Node2</title>
<path fill="none" stroke="#63b8ff" d="M1828.27,-171.63C1562.63,-163.17 477.18,-128.6 260.68,-121.7"/>
<polygon fill="#63b8ff" stroke="#63b8ff" points="260.96,-118.21 250.85,-121.39 260.73,-125.2 260.96,-118.21"/>
</g>
<!-- Node16 -->
<g id="node16" class="node">
<title>Node16</title>
<g id="a_node16"><a xlink:title=" ">
<polygon fill="#e0e0e0" stroke="#999999" points="1916,-19 1858,-19 1858,0 1916,0 1916,-19"/>
<text text-anchor="middle" x="1887" y="-7" font-family="Helvetica,sans-Serif" font-size="10.00">memory</text>
</a>
</g>
</g>
<!-- Node1&#45;&gt;Node16 -->
<g id="edge25" class="edge">
<title>Node1&#45;&gt;Node16</title>
<path fill="none" stroke="#63b8ff" d="M1887,-164.74C1887,-139.53 1887,-66.36 1887,-30.62"/>
<polygon fill="#63b8ff" stroke="#63b8ff" points="1890.5,-30.82 1887,-20.82 1883.5,-30.82 1890.5,-30.82"/>
</g>
<!-- Node17 -->
<g id="node17" class="node">
<title>Node17</title>
<g id="a_node17"><a xlink:title=" ">
<polygon fill="#e0e0e0" stroke="#999999" points="1981.5,-19 1934.5,-19 1934.5,0 1981.5,0 1981.5,-19"/>
<text text-anchor="middle" x="1958" y="-7" font-family="Helvetica,sans-Serif" font-size="10.00">vector</text>
</a>
</g>
</g>
<!-- Node1&#45;&gt;Node17 -->
<g id="edge24" class="edge">
<title>Node1&#45;&gt;Node17</title>
<path fill="none" stroke="#63b8ff" d="M1890.82,-164.74C1901.89,-139.31 1934.23,-65.08 1949.64,-29.69"/>
<polygon fill="#63b8ff" stroke="#63b8ff" points="1952.77,-31.26 1953.56,-20.69 1946.36,-28.46 1952.77,-31.26"/>
</g>
<!-- Node3 -->
<g id="node3" class="node">
<title>Node3</title>
<g id="a_node3"><a xlink:title=" ">
<polygon fill="#e0e0e0" stroke="#999999" points="293.5,-19 150.5,-19 150.5,0 293.5,0 293.5,-19"/>
<text text-anchor="middle" x="222" y="-7" font-family="Helvetica,sans-Serif" font-size="10.00">SFML/System/Vector2.hpp</text>
</a>
</g>
</g>
<!-- Node2&#45;&gt;Node3 -->
<g id="edge2" class="edge">
<title>Node2&#45;&gt;Node3</title>
<path fill="none" stroke="#63b8ff" d="M222.92,-109.66C222.76,-92.57 222.41,-54.61 222.19,-30.92"/>
<polygon fill="#63b8ff" stroke="#63b8ff" points="225.69,-30.94 222.1,-20.97 218.69,-31.01 225.69,-30.94"/>
</g>
<!-- Node4 -->
<g id="node4" class="node">
<title>Node4</title>
<g id="a_node4"><a xlink:title=" ">
<polygon fill="#e0e0e0" stroke="#999999" points="111,-74 55,-74 55,-55 111,-55 111,-74"/>
<text text-anchor="middle" x="83" y="-62" font-family="Helvetica,sans-Serif" font-size="10.00">assert.h</text>
</a>
</g>
</g>
<!-- Node2&#45;&gt;Node4 -->
<g id="edge3" class="edge">
<title>Node2&#45;&gt;Node4</title>
<path fill="none" stroke="#63b8ff" d="M199.25,-109.51C176.69,-100.97 142.53,-88.03 117.06,-78.4"/>
<polygon fill="#63b8ff" stroke="#63b8ff" points="118.41,-75.16 107.81,-74.89 115.93,-81.71 118.41,-75.16"/>
</g>
<!-- Node5 -->
<g id="node5" class="node">
<title>Node5</title>
<g id="a_node5"><a xlink:title=" ">
<polygon fill="#e0e0e0" stroke="#999999" points="54,-19 0,-19 0,0 54,0 54,-19"/>
<text text-anchor="middle" x="27" y="-7" font-family="Helvetica,sans-Serif" font-size="10.00">random</text>
</a>
</g>
</g>
<!-- Node2&#45;&gt;Node5 -->
<g id="edge4" class="edge">
<title>Node2&#45;&gt;Node5</title>
<path fill="none" stroke="#63b8ff" d="M196.68,-119.49C158.37,-119.44 87.33,-113.53 46,-74 34.29,-62.79 29.71,-44.69 27.96,-30.68"/>
<polygon fill="#63b8ff" stroke="#63b8ff" points="31.46,-30.46 27.16,-20.78 24.48,-31.03 31.46,-30.46"/>
</g>
<!-- Node6 -->
<g id="node6" class="node">
<title>Node6</title>
<g id="a_node6"><a xlink:href="Enums_8h.html" target="_top" xlink:title=" ">
<polygon fill="white" stroke="#666666" points="370.5,-19 311.5,-19 311.5,0 370.5,0 370.5,-19"/>
<text text-anchor="middle" x="341" y="-7" font-family="Helvetica,sans-Serif" font-size="10.00">Enums.h</text>
</a>
</g>
</g>
<!-- Node2&#45;&gt;Node6 -->
<g id="edge5" class="edge">
<title>Node2&#45;&gt;Node6</title>
<path fill="none" stroke="#63b8ff" d="M232.66,-109.66C252.36,-91.62 297.49,-50.32 322.85,-27.12"/>
<polygon fill="#63b8ff" stroke="#63b8ff" points="325.08,-29.82 330.09,-20.48 320.35,-24.65 325.08,-29.82"/>
</g>
<!-- Node7 -->
<g id="node7" class="node">
<title>Node7</title>
<g id="a_node7"><a xlink:href="SceneNode_8h.html" target="_top" xlink:title=" ">
<polygon fill="white" stroke="#666666" points="924,-74 844,-74 844,-55 924,-55 924,-74"/>
<text text-anchor="middle" x="884" y="-62" font-family="Helvetica,sans-Serif" font-size="10.00">SceneNode.h</text>
</a>
</g>
</g>
<!-- Node2&#45;&gt;Node7 -->
<g id="edge6" class="edge">
<title>Node2&#45;&gt;Node7</title>
<path fill="none" stroke="#63b8ff" d="M249.32,-116.39C348.26,-108.46 699.04,-80.33 832.21,-69.65"/>
<polygon fill="#63b8ff" stroke="#63b8ff" points="832.46,-73.14 842.15,-68.86 831.9,-66.17 832.46,-73.14"/>
</g>
<!-- Node20 -->
<g id="node20" class="node">
<title>Node20</title>
<g id="a_node20"><a xlink:href="Random_8h.html" target="_top" xlink:title=" ">
<polygon fill="white" stroke="#666666" points="195,-74 129,-74 129,-55 195,-55 195,-74"/>
<text text-anchor="middle" x="162" y="-62" font-family="Helvetica,sans-Serif" font-size="10.00">Random.h</text>
</a>
</g>
</g>
<!-- Node2&#45;&gt;Node20 -->
<g id="edge21" class="edge">
<title>Node2&#45;&gt;Node20</title>
<path fill="none" stroke="#63b8ff" d="M212.65,-109.51C203.92,-101.93 191.21,-90.88 180.7,-81.75"/>
<polygon fill="#63b8ff" stroke="#63b8ff" points="183.18,-79.27 173.34,-75.35 178.59,-84.55 183.18,-79.27"/>
</g>
<!-- Node7&#45;&gt;Node3 -->
<g id="edge16" class="edge">
<title>Node7&#45;&gt;Node3</title>
<path fill="none" stroke="#63b8ff" d="M843.82,-60.81C751.05,-54.53 514.52,-38.02 305.19,-19.17"/>
<polygon fill="#63b8ff" stroke="#63b8ff" points="305.76,-15.71 295.49,-18.3 305.13,-22.68 305.76,-15.71"/>
</g>
<!-- Node7&#45;&gt;Node6 -->
<g id="edge7" class="edge">
<title>Node7&#45;&gt;Node6</title>
<path fill="none" stroke="#63b8ff" d="M843.61,-61.67C759.59,-57.5 559.71,-45.62 381.88,-19.07"/>
<polygon fill="#63b8ff" stroke="#63b8ff" points="382.65,-15.65 372.23,-17.61 381.6,-22.57 382.65,-15.65"/>
</g>
<!-- Node8 -->
<g id="node8" class="node">
<title>Node8</title>
<g id="a_node8"><a xlink:title=" ">
<polygon fill="#e0e0e0" stroke="#999999" points="939,-19 829,-19 829,0 939,0 939,-19"/>
<text text-anchor="middle" x="884" y="-7" font-family="Helvetica,sans-Serif" font-size="10.00">SFML/Graphics.hpp</text>
</a>
</g>
</g>
<!-- Node7&#45;&gt;Node8 -->
<g id="edge8" class="edge">
<title>Node7&#45;&gt;Node8</title>
<path fill="none" stroke="#63b8ff" d="M884,-54.75C884,-48.27 884,-39.16 884,-30.9"/>
<polygon fill="#63b8ff" stroke="#63b8ff" points="887.5,-30.96 884,-20.96 880.5,-30.96 887.5,-30.96"/>
</g>
<!-- Node9 -->
<g id="node9" class="node">
<title>Node9</title>
<g id="a_node9"><a xlink:title=" ">
<polygon fill="#e0e0e0" stroke="#999999" points="1116.5,-19 957.5,-19 957.5,0 1116.5,0 1116.5,-19"/>
<text text-anchor="middle" x="1037" y="-7" font-family="Helvetica,sans-Serif" font-size="10.00">SFML/Graphics/Drawable.hpp</text>
</a>
</g>
</g>
<!-- Node7&#45;&gt;Node9 -->
<g id="edge9" class="edge">
<title>Node7&#45;&gt;Node9</title>
<path fill="none" stroke="#63b8ff" d="M909.95,-54.51C934.87,-45.88 972.73,-32.76 1000.64,-23.1"/>
<polygon fill="#63b8ff" stroke="#63b8ff" points="1001.44,-26.52 1009.74,-19.94 999.15,-19.91 1001.44,-26.52"/>
</g>
<!-- Node10 -->
<g id="node10" class="node">
<title>Node10</title>
<g id="a_node10"><a xlink:title=" ">
<polygon fill="#e0e0e0" stroke="#999999" points="1269,-19 1135,-19 1135,0 1269,0 1269,-19"/>
<text text-anchor="middle" x="1202" y="-7" font-family="Helvetica,sans-Serif" font-size="10.00">SFML/Graphics/Rect.hpp</text>
</a>
</g>
</g>
<!-- Node7&#45;&gt;Node10 -->
<g id="edge10" class="edge">
<title>Node7&#45;&gt;Node10</title>
<path fill="none" stroke="#63b8ff" d="M924.27,-56.79C977.88,-47.85 1073.31,-31.95 1137.13,-21.31"/>
<polygon fill="#63b8ff" stroke="#63b8ff" points="1137.49,-24.8 1146.78,-19.7 1136.34,-17.9 1137.49,-24.8"/>
</g>
<!-- Node11 -->
<g id="node11" class="node">
<title>Node11</title>
<g id="a_node11"><a xlink:title=" ">
<polygon fill="#e0e0e0" stroke="#999999" points="1465,-19 1287,-19 1287,0 1465,0 1465,-19"/>
<text text-anchor="middle" x="1376" y="-7" font-family="Helvetica,sans-Serif" font-size="10.00">SFML/Graphics/RenderStates.hpp</text>
</a>
</g>
</g>
<!-- Node7&#45;&gt;Node11 -->
<g id="edge11" class="edge">
<title>Node7&#45;&gt;Node11</title>
<path fill="none" stroke="#63b8ff" d="M924.26,-59.16C1001.73,-50.82 1173.4,-32.32 1281.39,-20.69"/>
<polygon fill="#63b8ff" stroke="#63b8ff" points="1281.54,-24.2 1291.11,-19.65 1280.79,-17.24 1281.54,-24.2"/>
</g>
<!-- Node12 -->
<g id="node12" class="node">
<title>Node12</title>
<g id="a_node12"><a xlink:title=" ">
<polygon fill="#e0e0e0" stroke="#999999" points="1660.5,-19 1483.5,-19 1483.5,0 1660.5,0 1660.5,-19"/>
<text text-anchor="middle" x="1572" y="-7" font-family="Helvetica,sans-Serif" font-size="10.00">SFML/Graphics/RenderTarget.hpp</text>
</a>
</g>
</g>
<!-- Node7&#45;&gt;Node12 -->
<g id="edge12" class="edge">
<title>Node7&#45;&gt;Node12</title>
<path fill="none" stroke="#63b8ff" d="M924.43,-60.61C1018.34,-53.86 1258.79,-36.38 1471.67,-19.18"/>
<polygon fill="#63b8ff" stroke="#63b8ff" points="1471.87,-22.67 1481.56,-18.38 1471.31,-15.7 1471.87,-22.67"/>
</g>
<!-- Node13 -->
<g id="node13" class="node">
<title>Node13</title>
<g id="a_node13"><a xlink:title=" ">
<polygon fill="#e0e0e0" stroke="#999999" points="1839.5,-19 1678.5,-19 1678.5,0 1839.5,0 1839.5,-19"/>
<text text-anchor="middle" x="1759" y="-7" font-family="Helvetica,sans-Serif" font-size="10.00">SFML/Graphics/Transform.hpp</text>
</a>
</g>
</g>
<!-- Node7&#45;&gt;Node13 -->
<g id="edge13" class="edge">
<title>Node7&#45;&gt;Node13</title>
<path fill="none" stroke="#63b8ff" d="M924.12,-61.78C1038.41,-56.75 1375.77,-41.11 1666.8,-19.22"/>
<polygon fill="#63b8ff" stroke="#63b8ff" points="1666.79,-22.73 1676.5,-18.48 1666.26,-15.75 1666.79,-22.73"/>
</g>
<!-- Node14 -->
<g id="node14" class="node">
<title>Node14</title>
<g id="a_node14"><a xlink:title=" ">
<polygon fill="#e0e0e0" stroke="#999999" points="571,-19 389,-19 389,0 571,0 571,-19"/>
<text text-anchor="middle" x="480" y="-7" font-family="Helvetica,sans-Serif" font-size="10.00">SFML/Graphics/Transformable.hpp</text>
</a>
</g>
</g>
<!-- Node7&#45;&gt;Node14 -->
<g id="edge14" class="edge">
<title>Node7&#45;&gt;Node14</title>
<path fill="none" stroke="#63b8ff" d="M843.79,-58.22C777.79,-49.57 645.31,-32.19 559.75,-20.96"/>
<polygon fill="#63b8ff" stroke="#63b8ff" points="560.39,-17.52 550.02,-19.69 559.48,-24.46 560.39,-17.52"/>
</g>
<!-- Node15 -->
<g id="node15" class="node">
<title>Node15</title>
<g id="a_node15"><a xlink:title=" ">
<polygon fill="#e0e0e0" stroke="#999999" points="761,-19 589,-19 589,0 761,0 761,-19"/>
<text text-anchor="middle" x="675" y="-7" font-family="Helvetica,sans-Serif" font-size="10.00">SFML/System/NonCopyable.hpp</text>
</a>
</g>
</g>
<!-- Node7&#45;&gt;Node15 -->
<g id="edge15" class="edge">
<title>Node7&#45;&gt;Node15</title>
<path fill="none" stroke="#63b8ff" d="M848.55,-54.51C813.46,-45.61 759.58,-31.95 721.17,-22.21"/>
<polygon fill="#63b8ff" stroke="#63b8ff" points="722.3,-18.88 711.75,-19.82 720.58,-25.67 722.3,-18.88"/>
</g>
<!-- Node7&#45;&gt;Node16 -->
<g id="edge17" class="edge">
<title>Node7&#45;&gt;Node16</title>
<path fill="none" stroke="#63b8ff" d="M924.49,-62.57C1080.54,-58.86 1643.91,-44.08 1846.26,-19.07"/>
<polygon fill="#63b8ff" stroke="#63b8ff" points="1846.66,-22.54 1856.13,-17.79 1845.77,-15.6 1846.66,-22.54"/>
</g>
<!-- Node7&#45;&gt;Node17 -->
<g id="edge18" class="edge">
<title>Node7&#45;&gt;Node17</title>
<path fill="none" stroke="#63b8ff" d="M924.26,-62.91C1087.9,-60.32 1704.4,-48.87 1922.98,-18.86"/>
<polygon fill="#63b8ff" stroke="#63b8ff" points="1923.43,-22.33 1932.83,-17.44 1922.43,-15.4 1923.43,-22.33"/>
</g>
<!-- Node18 -->
<g id="node18" class="node">
<title>Node18</title>
<g id="a_node18"><a xlink:title=" ">
<polygon fill="#e0e0e0" stroke="#999999" points="811,-19 779,-19 779,0 811,0 811,-19"/>
<text text-anchor="middle" x="795" y="-7" font-family="Helvetica,sans-Serif" font-size="10.00">set</text>
</a>
</g>
</g>
<!-- Node7&#45;&gt;Node18 -->
<g id="edge19" class="edge">
<title>Node7&#45;&gt;Node18</title>
<path fill="none" stroke="#63b8ff" d="M868.9,-54.51C855.4,-46.47 835.35,-34.53 819.54,-25.11"/>
<polygon fill="#63b8ff" stroke="#63b8ff" points="821.56,-22.24 811.18,-20.13 817.98,-28.26 821.56,-22.24"/>
</g>
<!-- Node19 -->
<g id="node19" class="node">
<title>Node19</title>
<g id="a_node19"><a xlink:title=" ">
<polygon fill="#e0e0e0" stroke="#999999" points="132,-19 72,-19 72,0 132,0 132,-19"/>
<text text-anchor="middle" x="102" y="-7" font-family="Helvetica,sans-Serif" font-size="10.00">iostream</text>
</a>
</g>
</g>
<!-- Node7&#45;&gt;Node19 -->
<g id="edge20" class="edge">
<title>Node7&#45;&gt;Node19</title>
<path fill="none" stroke="#63b8ff" d="M843.58,-63.19C733.12,-61.91 416.8,-55.22 143.82,-18.99"/>
<polygon fill="#63b8ff" stroke="#63b8ff" points="144.37,-15.54 133.99,-17.67 143.44,-22.47 144.37,-15.54"/>
</g>
<!-- Node20&#45;&gt;Node5 -->
<g id="edge22" class="edge">
<title>Node20&#45;&gt;Node5</title>
<path fill="none" stroke="#63b8ff" d="M139.1,-54.51C117.44,-46.01 84.69,-33.15 60.18,-23.53"/>
<polygon fill="#63b8ff" stroke="#63b8ff" points="61.56,-20.31 50.97,-19.91 59,-26.82 61.56,-20.31"/>
</g>
<!-- Node20&#45;&gt;Node19 -->
<g id="edge23" class="edge">
<title>Node20&#45;&gt;Node19</title>
<path fill="none" stroke="#63b8ff" d="M151.82,-54.51C143.24,-46.93 130.73,-35.88 120.4,-26.75"/>
<polygon fill="#63b8ff" stroke="#63b8ff" points="122.97,-24.36 113.16,-20.36 118.34,-29.6 122.97,-24.36"/>
</g>
</g>
</svg>
        <g id="navigator" transform="translate(0 0)" fill="#404254">
                <rect fill="#f2f5e9" fill-opacity="0.5" stroke="#606060" stroke-width=".5" x="0" y="0" width="60" height="60"/>
                <use id="zoomplus" xlink:href="#zoomPlus" x="17" y="9" onmousedown="handleZoom(evt,'in')"/>
                <use id="zoomminus" xlink:href="#zoomMin" x="42" y="9" onmousedown="handleZoom(evt,'out')"/>
                <use id="reset" xlink:href="#resetDef" x="30" y="36" onmousedown="handleReset()"/>
                <g id="arrowUp" xlink:href="#dirArrow" transform="translate(30 24)" onmousedown="handlePan(0,-1)">
                  <use xlink:href="#rim" fill="#404040">
                        <set attributeName="fill" to="#808080" begin="arrowUp.mouseover" end="arrowUp.mouseout"/>
                  </use>
                  <path fill="none" stroke="white" stroke-width="1.5" d="M0,-3.0v7 M-2.5,-0.5L0,-3.0L2.5,-0.5"/>
                </g>
                <g id="arrowRight" xlink:href="#dirArrow" transform="rotate(90) translate(36 -43)" onmousedown="handlePan(1,0)">
                  <use xlink:href="#rim" fill="#404040">
                        <set attributeName="fill" to="#808080" begin="arrowRight.mouseover" end="arrowRight.mouseout"/>
                  </use>
                  <path fill="none" stroke="white" stroke-width="1.5" d="M0,-3.0v7 M-2.5,-0.5L0,-3.0L2.5,-0.5"/>
                </g>
                <g id="arrowDown" xlink:href="#dirArrow" transform="rotate(180) translate(-30 -48)" onmousedown="handlePan(0,1)">
                  <use xlink:href="#rim" fill="#404040">
                        <set attributeName="fill" to="#808080" begin="arrowDown.mouseover" end="arrowDown.mouseout"/>
                  </use>
                  <path fill="none" stroke="white" stroke-width="1.5" d="M0,-3.0v7 M-2.5,-0.5L0,-3.0L2.5,-0.5"/>
                </g>
                <g id="arrowLeft" xlink:href="#dirArrow" transform="rotate(270) translate(-36 17)" onmousedown="handlePan(-1,0)">
                  <use xlink:href="#rim" fill="#404040">
                        <set attributeName="fill" to="#808080" begin="arrowLeft.mouseover" end="arrowLeft.mouseout"/>
                  </use>
                  <path fill="none" stroke="white" stroke-width="1.5" d="M0,-3.0v7 M-2.5,-0.5L0,-3.0L2.5,-0.5"/>
                </g>
        </g>
        <svg viewBox="0 0 15 15" width="100%" height="30px" preserveAspectRatio="xMaxYMin meet">
         <g id="arrow_out" transform="scale(0.3 0.3)">
          <a xlink:href="LevelGenerator_8h__incl_org.svg" target="_base">
           <rect id="button" ry="5" rx="5" y="6" x="6" height="38" width="38"
                fill="#f2f5e9" fill-opacity="0.5" stroke="#606060" stroke-width="1.0"/>
           <path id="arrow"
             d="M 11.500037,31.436501 C 11.940474,20.09759 22.043105,11.32322 32.158766,21.979434 L 37.068811,17.246167 C 37.068811,17.246167 37.088388,32 37.088388,32 L 22.160133,31.978069 C 22.160133,31.978069 26.997745,27.140456 26.997745,27.140456 C 18.528582,18.264221 13.291696,25.230495 11.500037,31.436501 z"
             style="fill:#404040;"/>
          </a>
         </g>
        </svg>
</svg>
