<?xml version="1.0" encoding="UTF-8" standalone="no"?>
<!DOCTYPE svg PUBLIC "-//W3C//DTD SVG 1.1//EN"
 "http://www.w3.org/Graphics/SVG/1.1/DTD/svg11.dtd">
<!-- Generated by graphviz version 7.0.5 (0)
 -->
<!-- Title: src/Level.cpp Pages: 1 -->
<!--zoomable 192 -->
<svg id="main" version="1.1" xmlns="http://www.w3.org/2000/svg" xmlns:xlink="http://www.w3.org/1999/xlink" xml:space="preserve" onload="init(evt)">
<style type="text/css"><![CDATA[
.edge:hover path { stroke: red; }
.edge:hover polygon { stroke: red; fill: red; }
]]></style>
<script type="text/javascript"><![CDATA[
var edges = document.getElementsByTagName('g');
if (edges && edges.length) {
  for (var i=0;i<edges.length;i++) {
    if (edges[i].id.substr(0,4)=='edge') {
      edges[i].setAttribute('class','edge');
    }
  }
}
]]></script>
        <defs>
                <circle id="rim" cx="0" cy="0" r="7"/>
                <circle id="rim2" cx="0" cy="0" r="3.5"/>
                <g id="zoomPlus">
                        <use xlink:href="#rim" fill="#404040">
                                <set attributeName="fill" to="#808080" begin="zoomplus.mouseover" end="zoomplus.mouseout"/>
                        </use>
                        <path d="M-4,0h8M0,-4v8" fill="none" stroke="white" stroke-width="1.5" pointer-events="none"/>
                </g>
                <g id="zoomMin">
                        <use xlink:href="#rim" fill="#404040">
                                <set attributeName="fill" to="#808080" begin="zoomminus.mouseover" end="zoomminus.mouseout"/>
                        </use>
                        <path d="M-4,0h8" fill="none" stroke="white" stroke-width="1.5" pointer-events="none"/>
                </g>
                <g id="dirArrow">
                        <path fill="none" stroke="white" stroke-width="1.5" d="M0,-3.0v7 M-2.5,-0.5L0,-3.0L2.5,-0.5"/>
                </g>
               <g id="resetDef">
                       <use xlink:href="#rim2" fill="#404040">
                               <set attributeName="fill" to="#808080" begin="reset.mouseover" end="reset.mouseout"/>
                       </use>
               </g>
        </defs>

<script type="text/javascript">
var viewWidth = 1990;
var viewHeight = 192;
var sectionId = 'dynsection-0';
</script>
<script xlink:href="svgpan.js"/>
<svg id="graph" class="graph">
<g id="viewport">
<title>src/Level.cpp</title>
<!-- Node1 -->
<g id="node1" class="node">
<title>Node1</title>
<g id="a_node1"><a xlink:title=" ">
<polygon fill="#999999" stroke="#666666" points="1903.5,-184 1823.5,-184 1823.5,-165 1903.5,-165 1903.5,-184"/>
<text text-anchor="middle" x="1863.5" y="-172" font-family="Helvetica,sans-Serif" font-size="10.00">src/Level.cpp</text>
</a>
</g>
</g>
<!-- Node2 -->
<g id="node2" class="node">
<title>Node2</title>
<g id="a_node2"><a xlink:href="Level_8h.html" target="_top" xlink:title=" ">
<polygon fill="white" stroke="#666666" points="1682.5,-129 1630.5,-129 1630.5,-110 1682.5,-110 1682.5,-129"/>
<text text-anchor="middle" x="1656.5" y="-117" font-family="Helvetica,sans-Serif" font-size="10.00">Level.h</text>
</a>
</g>
</g>
<!-- Node1&#45;&gt;Node2 -->
<g id="edge1" class="edge">
<title>Node1&#45;&gt;Node2</title>
<path fill="none" stroke="#63b8ff" d="M1828.39,-164.51C1790.91,-154.91 1731.77,-139.77 1693.56,-129.99"/>
<polygon fill="#63b8ff" stroke="#63b8ff" points="1694.92,-126.72 1684.37,-127.63 1693.18,-133.51 1694.92,-126.72"/>
</g>
<!-- Node5 -->
<g id="node5" class="node">
<title>Node5</title>
<g id="a_node5"><a xlink:title=" ">
<polygon fill="#e0e0e0" stroke="#999999" points="1981.5,-19 1927.5,-19 1927.5,0 1981.5,0 1981.5,-19"/>
<text text-anchor="middle" x="1954.5" y="-7" font-family="Helvetica,sans-Serif" font-size="10.00">random</text>
</a>
</g>
</g>
<!-- Node1&#45;&gt;Node5 -->
<g id="edge29" class="edge">
<title>Node1&#45;&gt;Node5</title>
<path fill="none" stroke="#63b8ff" d="M1868.39,-164.74C1882.65,-139.2 1924.39,-64.43 1944.04,-29.23"/>
<polygon fill="#63b8ff" stroke="#63b8ff" points="1947.03,-31.07 1948.85,-20.63 1940.91,-27.65 1947.03,-31.07"/>
</g>
<!-- Node21 -->
<g id="node21" class="node">
<title>Node21</title>
<g id="a_node21"><a xlink:href="Consts_8h.html" target="_top" xlink:title=" ">
<polygon fill="white" stroke="#666666" points="1855,-129 1796,-129 1796,-110 1855,-110 1855,-129"/>
<text text-anchor="middle" x="1825.5" y="-117" font-family="Helvetica,sans-Serif" font-size="10.00">Consts.h</text>
</a>
</g>
</g>
<!-- Node1&#45;&gt;Node21 -->
<g id="edge24" class="edge">
<title>Node1&#45;&gt;Node21</title>
<path fill="none" stroke="#63b8ff" d="M1857.23,-164.75C1852.14,-157.66 1844.8,-147.42 1838.47,-138.59"/>
<polygon fill="#63b8ff" stroke="#63b8ff" points="1841.46,-136.76 1832.79,-130.67 1835.78,-140.84 1841.46,-136.76"/>
</g>
<!-- Node22 -->
<g id="node22" class="node">
<title>Node22</title>
<g id="a_node22"><a xlink:title=" ">
<polygon fill="#e0e0e0" stroke="#999999" points="1976.5,-129 1920.5,-129 1920.5,-110 1976.5,-110 1976.5,-129"/>
<text text-anchor="middle" x="1948.5" y="-117" font-family="Helvetica,sans-Serif" font-size="10.00">numeric</text>
</a>
</g>
</g>
<!-- Node1&#45;&gt;Node22 -->
<g id="edge28" class="edge">
<title>Node1&#45;&gt;Node22</title>
<path fill="none" stroke="#63b8ff" d="M1877.92,-164.51C1890.7,-156.54 1909.6,-144.75 1924.63,-135.38"/>
<polygon fill="#63b8ff" stroke="#63b8ff" points="1926.38,-138.42 1933.01,-130.16 1922.67,-132.48 1926.38,-138.42"/>
</g>
<!-- Node3 -->
<g id="node3" class="node">
<title>Node3</title>
<g id="a_node3"><a xlink:title=" ">
<polygon fill="#e0e0e0" stroke="#999999" points="143,-19 0,-19 0,0 143,0 143,-19"/>
<text text-anchor="middle" x="71.5" y="-7" font-family="Helvetica,sans-Serif" font-size="10.00">SFML/System/Vector2.hpp</text>
</a>
</g>
</g>
<!-- Node2&#45;&gt;Node3 -->
<g id="edge2" class="edge">
<title>Node2&#45;&gt;Node3</title>
<path fill="none" stroke="#63b8ff" d="M1630.23,-117.16C1484.3,-109.61 758.52,-71 154.56,-19.24"/>
<polygon fill="#63b8ff" stroke="#63b8ff" points="155.22,-15.78 144.95,-18.41 154.62,-22.75 155.22,-15.78"/>
</g>
<!-- Node4 -->
<g id="node4" class="node">
<title>Node4</title>
<g id="a_node4"><a xlink:title=" ">
<polygon fill="#e0e0e0" stroke="#999999" points="1628.5,-74 1572.5,-74 1572.5,-55 1628.5,-55 1628.5,-74"/>
<text text-anchor="middle" x="1600.5" y="-62" font-family="Helvetica,sans-Serif" font-size="10.00">assert.h</text>
</a>
</g>
</g>
<!-- Node2&#45;&gt;Node4 -->
<g id="edge3" class="edge">
<title>Node2&#45;&gt;Node4</title>
<path fill="none" stroke="#63b8ff" d="M1647,-109.51C1639.07,-102 1627.55,-91.1 1617.96,-82.03"/>
<polygon fill="#63b8ff" stroke="#63b8ff" points="1620.63,-79.73 1610.96,-75.4 1615.82,-84.81 1620.63,-79.73"/>
</g>
<!-- Node2&#45;&gt;Node5 -->
<g id="edge4" class="edge">
<title>Node2&#45;&gt;Node5</title>
<path fill="none" stroke="#63b8ff" d="M1681.14,-109.57C1733.91,-90.44 1858.02,-45.47 1919.18,-23.3"/>
<polygon fill="#63b8ff" stroke="#63b8ff" points="1920.2,-26.65 1928.41,-19.96 1917.81,-20.07 1920.2,-26.65"/>
</g>
<!-- Node6 -->
<g id="node6" class="node">
<title>Node6</title>
<g id="a_node6"><a xlink:href="Enums_8h.html" target="_top" xlink:title=" ">
<polygon fill="white" stroke="#666666" points="1781,-19 1722,-19 1722,0 1781,0 1781,-19"/>
<text text-anchor="middle" x="1751.5" y="-7" font-family="Helvetica,sans-Serif" font-size="10.00">Enums.h</text>
</a>
</g>
</g>
<!-- Node2&#45;&gt;Node6 -->
<g id="edge5" class="edge">
<title>Node2&#45;&gt;Node6</title>
<path fill="none" stroke="#63b8ff" d="M1657.1,-109.78C1658.42,-96.62 1662.56,-71.47 1675.5,-55 1686.07,-41.55 1701.91,-31.36 1716.4,-24.15"/>
<polygon fill="#63b8ff" stroke="#63b8ff" points="1717.64,-27.43 1725.24,-20.05 1714.7,-21.08 1717.64,-27.43"/>
</g>
<!-- Node7 -->
<g id="node7" class="node">
<title>Node7</title>
<g id="a_node7"><a xlink:href="SceneNode_8h.html" target="_top" xlink:title=" ">
<polygon fill="white" stroke="#666666" points="1123.5,-74 1043.5,-74 1043.5,-55 1123.5,-55 1123.5,-74"/>
<text text-anchor="middle" x="1083.5" y="-62" font-family="Helvetica,sans-Serif" font-size="10.00">SceneNode.h</text>
</a>
</g>
</g>
<!-- Node2&#45;&gt;Node7 -->
<g id="edge6" class="edge">
<title>Node2&#45;&gt;Node7</title>
<path fill="none" stroke="#63b8ff" d="M1630.01,-116.05C1541.29,-107.84 1253.55,-81.23 1135.13,-70.28"/>
<polygon fill="#63b8ff" stroke="#63b8ff" points="1135.67,-66.81 1125.39,-69.37 1135.02,-73.78 1135.67,-66.81"/>
</g>
<!-- Node20 -->
<g id="node20" class="node">
<title>Node20</title>
<g id="a_node20"><a xlink:href="Random_8h.html" target="_top" xlink:title=" ">
<polygon fill="white" stroke="#666666" points="1750.5,-74 1684.5,-74 1684.5,-55 1750.5,-55 1750.5,-74"/>
<text text-anchor="middle" x="1717.5" y="-62" font-family="Helvetica,sans-Serif" font-size="10.00">Random.h</text>
</a>
</g>
</g>
<!-- Node2&#45;&gt;Node20 -->
<g id="edge21" class="edge">
<title>Node2&#45;&gt;Node20</title>
<path fill="none" stroke="#63b8ff" d="M1666.85,-109.51C1675.58,-101.93 1688.29,-90.88 1698.8,-81.75"/>
<polygon fill="#63b8ff" stroke="#63b8ff" points="1700.91,-84.55 1706.16,-75.35 1696.32,-79.27 1700.91,-84.55"/>
</g>
<!-- Node7&#45;&gt;Node3 -->
<g id="edge16" class="edge">
<title>Node7&#45;&gt;Node3</title>
<path fill="none" stroke="#63b8ff" d="M1043.02,-62.41C914.64,-58.77 504.86,-45.78 154.82,-19.21"/>
<polygon fill="#63b8ff" stroke="#63b8ff" points="155.19,-15.73 144.95,-18.46 154.65,-22.71 155.19,-15.73"/>
</g>
<!-- Node7&#45;&gt;Node6 -->
<g id="edge7" class="edge">
<title>Node7&#45;&gt;Node6</title>
<path fill="none" stroke="#63b8ff" d="M1123.82,-62.66C1222.32,-60.17 1483.12,-51 1710.62,-19.03"/>
<polygon fill="#63b8ff" stroke="#63b8ff" points="1710.87,-22.53 1720.27,-17.66 1709.88,-15.6 1710.87,-22.53"/>
</g>
<!-- Node8 -->
<g id="node8" class="node">
<title>Node8</title>
<g id="a_node8"><a xlink:title=" ">
<polygon fill="#e0e0e0" stroke="#999999" points="1909.5,-19 1799.5,-19 1799.5,0 1909.5,0 1909.5,-19"/>
<text text-anchor="middle" x="1854.5" y="-7" font-family="Helvetica,sans-Serif" font-size="10.00">SFML/Graphics.hpp</text>
</a>
</g>
</g>
<!-- Node7&#45;&gt;Node8 -->
<g id="edge8" class="edge">
<title>Node7&#45;&gt;Node8</title>
<path fill="none" stroke="#63b8ff" d="M1123.83,-61.94C1230.46,-57.61 1528.82,-44.13 1787.89,-19.19"/>
<polygon fill="#63b8ff" stroke="#63b8ff" points="1787.9,-22.7 1797.52,-18.25 1787.23,-15.74 1787.9,-22.7"/>
</g>
<!-- Node9 -->
<g id="node9" class="node">
<title>Node9</title>
<g id="a_node9"><a xlink:title=" ">
<polygon fill="#e0e0e0" stroke="#999999" points="1277,-19 1118,-19 1118,0 1277,0 1277,-19"/>
<text text-anchor="middle" x="1197.5" y="-7" font-family="Helvetica,sans-Serif" font-size="10.00">SFML/Graphics/Drawable.hpp</text>
</a>
</g>
</g>
<!-- Node7&#45;&gt;Node9 -->
<g id="edge9" class="edge">
<title>Node7&#45;&gt;Node9</title>
<path fill="none" stroke="#63b8ff" d="M1102.84,-54.51C1120.72,-46.2 1147.54,-33.73 1168.07,-24.18"/>
<polygon fill="#63b8ff" stroke="#63b8ff" points="1169.48,-27.39 1177.07,-20 1166.53,-21.04 1169.48,-27.39"/>
</g>
<!-- Node10 -->
<g id="node10" class="node">
<title>Node10</title>
<g id="a_node10"><a xlink:title=" ">
<polygon fill="#e0e0e0" stroke="#999999" points="1429.5,-19 1295.5,-19 1295.5,0 1429.5,0 1429.5,-19"/>
<text text-anchor="middle" x="1362.5" y="-7" font-family="Helvetica,sans-Serif" font-size="10.00">SFML/Graphics/Rect.hpp</text>
</a>
</g>
</g>
<!-- Node7&#45;&gt;Node10 -->
<g id="edge10" class="edge">
<title>Node7&#45;&gt;Node10</title>
<path fill="none" stroke="#63b8ff" d="M1123.77,-55.85C1171.11,-46.86 1250.05,-31.86 1304.1,-21.59"/>
<polygon fill="#63b8ff" stroke="#63b8ff" points="1304.58,-25.06 1313.75,-19.76 1303.28,-18.19 1304.58,-25.06"/>
</g>
<!-- Node11 -->
<g id="node11" class="node">
<title>Node11</title>
<g id="a_node11"><a xlink:title=" ">
<polygon fill="#e0e0e0" stroke="#999999" points="1625.5,-19 1447.5,-19 1447.5,0 1625.5,0 1625.5,-19"/>
<text text-anchor="middle" x="1536.5" y="-7" font-family="Helvetica,sans-Serif" font-size="10.00">SFML/Graphics/RenderStates.hpp</text>
</a>
</g>
</g>
<!-- Node7&#45;&gt;Node11 -->
<g id="edge11" class="edge">
<title>Node7&#45;&gt;Node11</title>
<path fill="none" stroke="#63b8ff" d="M1123.7,-58.8C1196.19,-50.32 1350.34,-32.28 1448.39,-20.81"/>
<polygon fill="#63b8ff" stroke="#63b8ff" points="1448.74,-24.29 1458.26,-19.65 1447.92,-17.34 1448.74,-24.29"/>
</g>
<!-- Node12 -->
<g id="node12" class="node">
<title>Node12</title>
<g id="a_node12"><a xlink:title=" ">
<polygon fill="#e0e0e0" stroke="#999999" points="338,-19 161,-19 161,0 338,0 338,-19"/>
<text text-anchor="middle" x="249.5" y="-7" font-family="Helvetica,sans-Serif" font-size="10.00">SFML/Graphics/RenderTarget.hpp</text>
</a>
</g>
</g>
<!-- Node7&#45;&gt;Node12 -->
<g id="edge12" class="edge">
<title>Node7&#45;&gt;Node12</title>
<path fill="none" stroke="#63b8ff" d="M1043.13,-61.45C933.5,-55.79 620.79,-39.11 349.55,-19.21"/>
<polygon fill="#63b8ff" stroke="#63b8ff" points="350.04,-15.73 339.81,-18.49 349.52,-22.72 350.04,-15.73"/>
</g>
<!-- Node13 -->
<g id="node13" class="node">
<title>Node13</title>
<g id="a_node13"><a xlink:title=" ">
<polygon fill="#e0e0e0" stroke="#999999" points="517,-19 356,-19 356,0 517,0 517,-19"/>
<text text-anchor="middle" x="436.5" y="-7" font-family="Helvetica,sans-Serif" font-size="10.00">SFML/Graphics/Transform.hpp</text>
</a>
</g>
</g>
<!-- Node7&#45;&gt;Node13 -->
<g id="edge13" class="edge">
<title>Node7&#45;&gt;Node13</title>
<path fill="none" stroke="#63b8ff" d="M1043.29,-60.49C953.31,-53.7 728.57,-36.52 528.75,-19.18"/>
<polygon fill="#63b8ff" stroke="#63b8ff" points="529.22,-15.71 518.96,-18.33 528.61,-22.69 529.22,-15.71"/>
</g>
<!-- Node14 -->
<g id="node14" class="node">
<title>Node14</title>
<g id="a_node14"><a xlink:title=" ">
<polygon fill="#e0e0e0" stroke="#999999" points="717.5,-19 535.5,-19 535.5,0 717.5,0 717.5,-19"/>
<text text-anchor="middle" x="626.5" y="-7" font-family="Helvetica,sans-Serif" font-size="10.00">SFML/Graphics/Transformable.hpp</text>
</a>
</g>
</g>
<!-- Node7&#45;&gt;Node14 -->
<g id="edge14" class="edge">
<title>Node7&#45;&gt;Node14</title>
<path fill="none" stroke="#63b8ff" d="M1043.34,-58.84C970.36,-50.38 814.36,-32.29 715.27,-20.8"/>
<polygon fill="#63b8ff" stroke="#63b8ff" points="715.92,-17.35 705.58,-19.67 715.11,-24.3 715.92,-17.35"/>
</g>
<!-- Node15 -->
<g id="node15" class="node">
<title>Node15</title>
<g id="a_node15"><a xlink:title=" ">
<polygon fill="#e0e0e0" stroke="#999999" points="907.5,-19 735.5,-19 735.5,0 907.5,0 907.5,-19"/>
<text text-anchor="middle" x="821.5" y="-7" font-family="Helvetica,sans-Serif" font-size="10.00">SFML/System/NonCopyable.hpp</text>
</a>
</g>
</g>
<!-- Node7&#45;&gt;Node15 -->
<g id="edge15" class="edge">
<title>Node7&#45;&gt;Node15</title>
<path fill="none" stroke="#63b8ff" d="M1043.14,-55.33C998.66,-46.34 926.84,-31.81 877.06,-21.74"/>
<polygon fill="#63b8ff" stroke="#63b8ff" points="877.83,-18.32 867.34,-19.77 876.45,-25.19 877.83,-18.32"/>
</g>
<!-- Node16 -->
<g id="node16" class="node">
<title>Node16</title>
<g id="a_node16"><a xlink:title=" ">
<polygon fill="#e0e0e0" stroke="#999999" points="983.5,-19 925.5,-19 925.5,0 983.5,0 983.5,-19"/>
<text text-anchor="middle" x="954.5" y="-7" font-family="Helvetica,sans-Serif" font-size="10.00">memory</text>
</a>
</g>
</g>
<!-- Node7&#45;&gt;Node16 -->
<g id="edge17" class="edge">
<title>Node7&#45;&gt;Node16</title>
<path fill="none" stroke="#63b8ff" d="M1061.62,-54.51C1041.01,-46.04 1009.91,-33.27 986.52,-23.66"/>
<polygon fill="#63b8ff" stroke="#63b8ff" points="988.04,-20.5 977.46,-19.93 985.38,-26.97 988.04,-20.5"/>
</g>
<!-- Node17 -->
<g id="node17" class="node">
<title>Node17</title>
<g id="a_node17"><a xlink:title=" ">
<polygon fill="#e0e0e0" stroke="#999999" points="1049,-19 1002,-19 1002,0 1049,0 1049,-19"/>
<text text-anchor="middle" x="1025.5" y="-7" font-family="Helvetica,sans-Serif" font-size="10.00">vector</text>
</a>
</g>
</g>
<!-- Node7&#45;&gt;Node17 -->
<g id="edge18" class="edge">
<title>Node7&#45;&gt;Node17</title>
<path fill="none" stroke="#63b8ff" d="M1073.66,-54.51C1065.45,-47 1053.52,-36.1 1043.59,-27.03"/>
<polygon fill="#63b8ff" stroke="#63b8ff" points="1046.05,-24.54 1036.31,-20.38 1041.33,-29.71 1046.05,-24.54"/>
</g>
<!-- Node18 -->
<g id="node18" class="node">
<title>Node18</title>
<g id="a_node18"><a xlink:title=" ">
<polygon fill="#e0e0e0" stroke="#999999" points="1099.5,-19 1067.5,-19 1067.5,0 1099.5,0 1099.5,-19"/>
<text text-anchor="middle" x="1083.5" y="-7" font-family="Helvetica,sans-Serif" font-size="10.00">set</text>
</a>
</g>
</g>
<!-- Node7&#45;&gt;Node18 -->
<g id="edge19" class="edge">
<title>Node7&#45;&gt;Node18</title>
<path fill="none" stroke="#63b8ff" d="M1083.5,-54.75C1083.5,-48.27 1083.5,-39.16 1083.5,-30.9"/>
<polygon fill="#63b8ff" stroke="#63b8ff" points="1087,-30.96 1083.5,-20.96 1080,-30.96 1087,-30.96"/>
</g>
<!-- Node19 -->
<g id="node19" class="node">
<title>Node19</title>
<g id="a_node19"><a xlink:title=" ">
<polygon fill="#e0e0e0" stroke="#999999" points="1703.5,-19 1643.5,-19 1643.5,0 1703.5,0 1703.5,-19"/>
<text text-anchor="middle" x="1673.5" y="-7" font-family="Helvetica,sans-Serif" font-size="10.00">iostream</text>
</a>
</g>
</g>
<!-- Node7&#45;&gt;Node19 -->
<g id="edge20" class="edge">
<title>Node7&#45;&gt;Node19</title>
<path fill="none" stroke="#63b8ff" d="M1123.81,-62.1C1213.4,-58.58 1435.95,-47.65 1631.96,-19.17"/>
<polygon fill="#63b8ff" stroke="#63b8ff" points="1632.46,-22.63 1641.84,-17.71 1631.44,-15.71 1632.46,-22.63"/>
</g>
<!-- Node20&#45;&gt;Node5 -->
<g id="edge22" class="edge">
<title>Node20&#45;&gt;Node5</title>
<path fill="none" stroke="#63b8ff" d="M1750.96,-56.24C1788.7,-48.02 1852.19,-34.1 1916.26,-19.49"/>
<polygon fill="#63b8ff" stroke="#63b8ff" points="1916.94,-22.92 1925.91,-17.28 1915.38,-16.1 1916.94,-22.92"/>
</g>
<!-- Node20&#45;&gt;Node19 -->
<g id="edge23" class="edge">
<title>Node20&#45;&gt;Node19</title>
<path fill="none" stroke="#63b8ff" d="M1710.23,-54.75C1704.22,-47.5 1695.49,-36.98 1688.04,-28.02"/>
<polygon fill="#63b8ff" stroke="#63b8ff" points="1690.97,-26.07 1681.89,-20.61 1685.58,-30.54 1690.97,-26.07"/>
</g>
<!-- Node21&#45;&gt;Node6 -->
<g id="edge26" class="edge">
<title>Node21&#45;&gt;Node6</title>
<path fill="none" stroke="#63b8ff" d="M1819.44,-109.66C1807.36,-92.02 1780.02,-52.12 1763.95,-28.67"/>
<polygon fill="#63b8ff" stroke="#63b8ff" points="1767.03,-26.98 1758.49,-20.71 1761.26,-30.94 1767.03,-26.98"/>
</g>
<!-- Node21&#45;&gt;Node8 -->
<g id="edge25" class="edge">
<title>Node21&#45;&gt;Node8</title>
<path fill="none" stroke="#63b8ff" d="M1827.87,-109.66C1832.5,-92.42 1842.85,-53.9 1849.19,-30.27"/>
<polygon fill="#63b8ff" stroke="#63b8ff" points="1852.49,-31.49 1851.7,-20.92 1845.73,-29.67 1852.49,-31.49"/>
</g>
<!-- Node21&#45;&gt;Node20 -->
<g id="edge27" class="edge">
<title>Node21&#45;&gt;Node20</title>
<path fill="none" stroke="#63b8ff" d="M1807.18,-109.51C1790.32,-101.24 1765.07,-88.84 1745.65,-79.31"/>
<polygon fill="#63b8ff" stroke="#63b8ff" points="1747.43,-76.29 1736.91,-75.02 1744.34,-82.57 1747.43,-76.29"/>
</g>
</g>
</svg>
        <g id="navigator" transform="translate(0 0)" fill="#404254">
                <rect fill="#f2f5e9" fill-opacity="0.5" stroke="#606060" stroke-width=".5" x="0" y="0" width="60" height="60"/>
                <use id="zoomplus" xlink:href="#zoomPlus" x="17" y="9" onmousedown="handleZoom(evt,'in')"/>
                <use id="zoomminus" xlink:href="#zoomMin" x="42" y="9" onmousedown="handleZoom(evt,'out')"/>
                <use id="reset" xlink:href="#resetDef" x="30" y="36" onmousedown="handleReset()"/>
                <g id="arrowUp" xlink:href="#dirArrow" transform="translate(30 24)" onmousedown="handlePan(0,-1)">
                  <use xlink:href="#rim" fill="#404040">
                        <set attributeName="fill" to="#808080" begin="arrowUp.mouseover" end="arrowUp.mouseout"/>
                  </use>
                  <path fill="none" stroke="white" stroke-width="1.5" d="M0,-3.0v7 M-2.5,-0.5L0,-3.0L2.5,-0.5"/>
                </g>
                <g id="arrowRight" xlink:href="#dirArrow" transform="rotate(90) translate(36 -43)" onmousedown="handlePan(1,0)">
                  <use xlink:href="#rim" fill="#404040">
                        <set attributeName="fill" to="#808080" begin="arrowRight.mouseover" end="arrowRight.mouseout"/>
                  </use>
                  <path fill="none" stroke="white" stroke-width="1.5" d="M0,-3.0v7 M-2.5,-0.5L0,-3.0L2.5,-0.5"/>
                </g>
                <g id="arrowDown" xlink:href="#dirArrow" transform="rotate(180) translate(-30 -48)" onmousedown="handlePan(0,1)">
                  <use xlink:href="#rim" fill="#404040">
                        <set attributeName="fill" to="#808080" begin="arrowDown.mouseover" end="arrowDown.mouseout"/>
                  </use>
                  <path fill="none" stroke="white" stroke-width="1.5" d="M0,-3.0v7 M-2.5,-0.5L0,-3.0L2.5,-0.5"/>
                </g>
                <g id="arrowLeft" xlink:href="#dirArrow" transform="rotate(270) translate(-36 17)" onmousedown="handlePan(-1,0)">
                  <use xlink:href="#rim" fill="#404040">
                        <set attributeName="fill" to="#808080" begin="arrowLeft.mouseover" end="arrowLeft.mouseout"/>
                  </use>
                  <path fill="none" stroke="white" stroke-width="1.5" d="M0,-3.0v7 M-2.5,-0.5L0,-3.0L2.5,-0.5"/>
                </g>
        </g>
        <svg viewBox="0 0 15 15" width="100%" height="30px" preserveAspectRatio="xMaxYMin meet">
         <g id="arrow_out" transform="scale(0.3 0.3)">
          <a xlink:href="Level_8cpp__incl_org.svg" target="_base">
           <rect id="button" ry="5" rx="5" y="6" x="6" height="38" width="38"
                fill="#f2f5e9" fill-opacity="0.5" stroke="#606060" stroke-width="1.0"/>
           <path id="arrow"
             d="M 11.500037,31.436501 C 11.940474,20.09759 22.043105,11.32322 32.158766,21.979434 L 37.068811,17.246167 C 37.068811,17.246167 37.088388,32 37.088388,32 L 22.160133,31.978069 C 22.160133,31.978069 26.997745,27.140456 26.997745,27.140456 C 18.528582,18.264221 13.291696,25.230495 11.500037,31.436501 z"
             style="fill:#404040;"/>
          </a>
         </g>
        </svg>
</svg>
