<?xml version="1.0" encoding="UTF-8" standalone="no"?>
<!DOCTYPE svg PUBLIC "-//W3C//DTD SVG 1.1//EN"
 "http://www.w3.org/Graphics/SVG/1.1/DTD/svg11.dtd">
<!-- Generated by graphviz version 7.0.5 (0)
 -->
<!-- Title: src/Level.h Pages: 1 -->
<!--zoomable 357 -->
<svg id="main" version="1.1" xmlns="http://www.w3.org/2000/svg" xmlns:xlink="http://www.w3.org/1999/xlink" xml:space="preserve" onload="init(evt)">
<style type="text/css"><![CDATA[
.edge:hover path { stroke: red; }
.edge:hover polygon { stroke: red; fill: red; }
]]></style>
<script type="text/javascript"><![CDATA[
var edges = document.getElementsByTagName('g');
if (edges && edges.length) {
  for (var i=0;i<edges.length;i++) {
    if (edges[i].id.substr(0,4)=='edge') {
      edges[i].setAttribute('class','edge');
    }
  }
}
]]></script>
        <defs>
                <circle id="rim" cx="0" cy="0" r="7"/>
                <circle id="rim2" cx="0" cy="0" r="3.5"/>
                <g id="zoomPlus">
                        <use xlink:href="#rim" fill="#404040">
                                <set attributeName="fill" to="#808080" begin="zoomplus.mouseover" end="zoomplus.mouseout"/>
                        </use>
                        <path d="M-4,0h8M0,-4v8" fill="none" stroke="white" stroke-width="1.5" pointer-events="none"/>
                </g>
                <g id="zoomMin">
                        <use xlink:href="#rim" fill="#404040">
                                <set attributeName="fill" to="#808080" begin="zoomminus.mouseover" end="zoomminus.mouseout"/>
                        </use>
                        <path d="M-4,0h8" fill="none" stroke="white" stroke-width="1.5" pointer-events="none"/>
                </g>
                <g id="dirArrow">
                        <path fill="none" stroke="white" stroke-width="1.5" d="M0,-3.0v7 M-2.5,-0.5L0,-3.0L2.5,-0.5"/>
                </g>
               <g id="resetDef">
                       <use xlink:href="#rim2" fill="#404040">
                               <set attributeName="fill" to="#808080" begin="reset.mouseover" end="reset.mouseout"/>
                       </use>
               </g>
        </defs>

<script type="text/javascript">
var viewWidth = 797;
var viewHeight = 357;
var sectionId = 'dynsection-1';
</script>
<script xlink:href="svgpan.js"/>
<svg id="graph" class="graph">
<g id="viewport">
<title>src/Level.h</title>
<!-- Node1 -->
<g id="node1" class="node">
<title>Node1</title>
<g id="a_node1"><a xlink:title=" ">
<polygon fill="#999999" stroke="#666666" points="497.5,-349 428.5,-349 428.5,-330 497.5,-330 497.5,-349"/>
<text text-anchor="middle" x="463" y="-337" font-family="Helvetica,sans-Serif" font-size="10.00">src/Level.h</text>
</a>
</g>
</g>
<!-- Node2 -->
<g id="node2" class="node">
<title>Node2</title>
<g id="a_node2"><a xlink:href="GameLoader_8cpp.html" target="_top" xlink:title=" ">
<polygon fill="white" stroke="#666666" points="133,-239 17,-239 17,-220 133,-220 133,-239"/>
<text text-anchor="middle" x="75" y="-227" font-family="Helvetica,sans-Serif" font-size="10.00">src/GameLoader.cpp</text>
</a>
</g>
</g>
<!-- Node1&#45;&gt;Node2 -->
<g id="edge1" class="edge">
<title>Node1&#45;&gt;Node2</title>
<path fill="none" stroke="#63b8ff" d="M416.85,-336.25C360.64,-332.35 263.48,-321.86 185,-294 146.56,-280.35 106.23,-253.27 86.82,-239.29"/>
<polygon fill="#63b8ff" stroke="#63b8ff" points="416.48,-339.73 426.69,-336.88 416.94,-332.74 416.48,-339.73"/>
</g>
<!-- Node3 -->
<g id="node3" class="node">
<title>Node3</title>
<g id="a_node3"><a xlink:href="GameState_8cpp.html" target="_top" xlink:title=" ">
<polygon fill="white" stroke="#666666" points="558.5,-129 449.5,-129 449.5,-110 558.5,-110 558.5,-129"/>
<text text-anchor="middle" x="504" y="-117" font-family="Helvetica,sans-Serif" font-size="10.00">src/GameState.cpp</text>
</a>
</g>
</g>
<!-- Node1&#45;&gt;Node3 -->
<g id="edge2" class="edge">
<title>Node1&#45;&gt;Node3</title>
<path fill="none" stroke="#63b8ff" d="M508.9,-331.58C558.28,-321.27 633.57,-296.5 662,-239 690.27,-181.83 594.05,-145.18 539.32,-129.41"/>
<polygon fill="#63b8ff" stroke="#63b8ff" points="508.49,-328.09 499.35,-333.44 509.83,-334.96 508.49,-328.09"/>
</g>
<!-- Node4 -->
<g id="node4" class="node">
<title>Node4</title>
<g id="a_node4"><a xlink:href="Level_8cpp.html" target="_top" xlink:title=" ">
<polygon fill="white" stroke="#666666" points="789,-294 709,-294 709,-275 789,-275 789,-294"/>
<text text-anchor="middle" x="749" y="-282" font-family="Helvetica,sans-Serif" font-size="10.00">src/Level.cpp</text>
</a>
</g>
</g>
<!-- Node1&#45;&gt;Node4 -->
<g id="edge3" class="edge">
<title>Node1&#45;&gt;Node4</title>
<path fill="none" stroke="#63b8ff" d="M509.01,-329.97C564.37,-319.71 656.4,-302.66 708.95,-292.92"/>
<polygon fill="#63b8ff" stroke="#63b8ff" points="508.47,-326.51 499.27,-331.78 509.74,-333.4 508.47,-326.51"/>
</g>
<!-- Node5 -->
<g id="node5" class="node">
<title>Node5</title>
<g id="a_node5"><a xlink:href="LevelGenerator_8h.html" target="_top" xlink:title=" ">
<polygon fill="white" stroke="#666666" points="456.5,-294 339.5,-294 339.5,-275 456.5,-275 456.5,-294"/>
<text text-anchor="middle" x="398" y="-282" font-family="Helvetica,sans-Serif" font-size="10.00">src/LevelGenerator.h</text>
</a>
</g>
</g>
<!-- Node1&#45;&gt;Node5 -->
<g id="edge4" class="edge">
<title>Node1&#45;&gt;Node5</title>
<path fill="none" stroke="#63b8ff" d="M443.21,-322.37C431.92,-313.16 418.21,-301.98 408.86,-294.36"/>
<polygon fill="#63b8ff" stroke="#63b8ff" points="440.84,-324.95 450.8,-328.55 445.26,-319.52 440.84,-324.95"/>
</g>
<!-- Node8 -->
<g id="node8" class="node">
<title>Node8</title>
<g id="a_node8"><a xlink:href="SceneBuilder_8h.html" target="_top" xlink:title=" ">
<polygon fill="white" stroke="#666666" points="581,-294 475,-294 475,-275 581,-275 581,-294"/>
<text text-anchor="middle" x="528" y="-282" font-family="Helvetica,sans-Serif" font-size="10.00">src/SceneBuilder.h</text>
</a>
</g>
</g>
<!-- Node1&#45;&gt;Node8 -->
<g id="edge7" class="edge">
<title>Node1&#45;&gt;Node8</title>
<path fill="none" stroke="#63b8ff" d="M482.79,-322.37C494.08,-313.16 507.79,-301.98 517.14,-294.36"/>
<polygon fill="#63b8ff" stroke="#63b8ff" points="480.74,-319.52 475.2,-328.55 485.16,-324.95 480.74,-319.52"/>
</g>
<!-- Node10 -->
<g id="node10" class="node">
<title>Node10</title>
<g id="a_node10"><a xlink:href="World_8h.html" target="_top" xlink:title=" ">
<polygon fill="white" stroke="#666666" points="265.5,-294 194.5,-294 194.5,-275 265.5,-275 265.5,-294"/>
<text text-anchor="middle" x="230" y="-282" font-family="Helvetica,sans-Serif" font-size="10.00">src/World.h</text>
</a>
</g>
</g>
<!-- Node1&#45;&gt;Node10 -->
<g id="edge10" class="edge">
<title>Node1&#45;&gt;Node10</title>
<path fill="none" stroke="#63b8ff" d="M417.07,-328.05C372.72,-317.96 306.49,-302.9 265.89,-293.66"/>
<polygon fill="#63b8ff" stroke="#63b8ff" points="416.11,-331.42 426.64,-330.23 417.67,-324.6 416.11,-331.42"/>
</g>
<!-- Node6 -->
<g id="node6" class="node">
<title>Node6</title>
<g id="a_node6"><a xlink:href="LevelGenerator_8cpp.html" target="_top" xlink:title=" ">
<polygon fill="white" stroke="#666666" points="517,-239 389,-239 389,-220 517,-220 517,-239"/>
<text text-anchor="middle" x="453" y="-227" font-family="Helvetica,sans-Serif" font-size="10.00">src/LevelGenerator.cpp</text>
</a>
</g>
</g>
<!-- Node5&#45;&gt;Node6 -->
<g id="edge5" class="edge">
<title>Node5&#45;&gt;Node6</title>
<path fill="none" stroke="#63b8ff" d="M415.35,-266.78C424.75,-257.72 435.98,-246.9 443.72,-239.44"/>
<polygon fill="#63b8ff" stroke="#63b8ff" points="412.94,-264.24 408.17,-273.7 417.8,-269.28 412.94,-264.24"/>
</g>
<!-- Node7 -->
<g id="node7" class="node">
<title>Node7</title>
<g id="a_node7"><a xlink:href="World_8cpp.html" target="_top" xlink:title=" ">
<polygon fill="white" stroke="#666666" points="371,-239 289,-239 289,-220 371,-220 371,-239"/>
<text text-anchor="middle" x="330" y="-227" font-family="Helvetica,sans-Serif" font-size="10.00">src/World.cpp</text>
</a>
</g>
</g>
<!-- Node5&#45;&gt;Node7 -->
<g id="edge6" class="edge">
<title>Node5&#45;&gt;Node7</title>
<path fill="none" stroke="#63b8ff" d="M377.65,-267.64C365.78,-258.39 351.24,-247.05 341.36,-239.36"/>
<polygon fill="#63b8ff" stroke="#63b8ff" points="375.23,-270.19 385.27,-273.58 379.54,-264.67 375.23,-270.19"/>
</g>
<!-- Node8&#45;&gt;Node6 -->
<g id="edge8" class="edge">
<title>Node8&#45;&gt;Node6</title>
<path fill="none" stroke="#63b8ff" d="M505.95,-267.92C492.78,-258.61 476.53,-247.13 465.53,-239.36"/>
<polygon fill="#63b8ff" stroke="#63b8ff" points="503.85,-270.72 514.04,-273.64 507.89,-265.01 503.85,-270.72"/>
</g>
<!-- Node9 -->
<g id="node9" class="node">
<title>Node9</title>
<g id="a_node9"><a xlink:href="SceneBuilder_8cpp.html" target="_top" xlink:title=" ">
<polygon fill="white" stroke="#666666" points="652.5,-239 535.5,-239 535.5,-220 652.5,-220 652.5,-239"/>
<text text-anchor="middle" x="594" y="-227" font-family="Helvetica,sans-Serif" font-size="10.00">src/SceneBuilder.cpp</text>
</a>
</g>
</g>
<!-- Node8&#45;&gt;Node9 -->
<g id="edge9" class="edge">
<title>Node8&#45;&gt;Node9</title>
<path fill="none" stroke="#63b8ff" d="M548.09,-267.37C559.55,-258.16 573.48,-246.98 582.97,-239.36"/>
<polygon fill="#63b8ff" stroke="#63b8ff" points="545.98,-264.57 540.38,-273.56 550.36,-270.03 545.98,-264.57"/>
</g>
<!-- Node10&#45;&gt;Node2 -->
<g id="edge20" class="edge">
<title>Node10&#45;&gt;Node2</title>
<path fill="none" stroke="#63b8ff" d="M193.02,-270.85C164.7,-261.17 126.36,-248.06 101.16,-239.45"/>
<polygon fill="#63b8ff" stroke="#63b8ff" points="191.68,-274.1 202.27,-274.02 193.94,-267.47 191.68,-274.1"/>
</g>
<!-- Node10&#45;&gt;Node7 -->
<g id="edge22" class="edge">
<title>Node10&#45;&gt;Node7</title>
<path fill="none" stroke="#63b8ff" d="M257.11,-269.13C275.04,-259.63 297.98,-247.47 313.29,-239.36"/>
<polygon fill="#63b8ff" stroke="#63b8ff" points="255.5,-266.02 248.3,-273.8 258.78,-272.21 255.5,-266.02"/>
</g>
<!-- Node11 -->
<g id="node11" class="node">
<title>Node11</title>
<g id="a_node11"><a xlink:href="Camera_8h.html" target="_top" xlink:title=" ">
<polygon fill="white" stroke="#666666" points="270.5,-239 189.5,-239 189.5,-220 270.5,-220 270.5,-239"/>
<text text-anchor="middle" x="230" y="-227" font-family="Helvetica,sans-Serif" font-size="10.00">src/Camera.h</text>
</a>
</g>
</g>
<!-- Node10&#45;&gt;Node11 -->
<g id="edge11" class="edge">
<title>Node10&#45;&gt;Node11</title>
<path fill="none" stroke="#63b8ff" d="M230,-263.35C230,-255.1 230,-245.97 230,-239.44"/>
<polygon fill="#63b8ff" stroke="#63b8ff" points="226.5,-263.23 230,-273.23 233.5,-263.23 226.5,-263.23"/>
</g>
<!-- Node13 -->
<g id="node13" class="node">
<title>Node13</title>
<g id="a_node13"><a xlink:href="GameState_8h.html" target="_top" xlink:title=" ">
<polygon fill="white" stroke="#666666" points="245,-184 147,-184 147,-165 245,-165 245,-184"/>
<text text-anchor="middle" x="196" y="-172" font-family="Helvetica,sans-Serif" font-size="10.00">src/GameState.h</text>
</a>
</g>
</g>
<!-- Node10&#45;&gt;Node13 -->
<g id="edge21" class="edge">
<title>Node10&#45;&gt;Node13</title>
<path fill="none" stroke="#63b8ff" d="M205.44,-268.4C195.59,-260.9 185.34,-250.89 180,-239 171.72,-220.54 182.69,-197.05 190.14,-184.45"/>
<polygon fill="#63b8ff" stroke="#63b8ff" points="203.13,-271.06 213.33,-273.93 207.15,-265.33 203.13,-271.06"/>
</g>
<!-- Node12 -->
<g id="node12" class="node">
<title>Node12</title>
<g id="a_node12"><a xlink:href="Camera_8cpp.html" target="_top" xlink:title=" ">
<polygon fill="white" stroke="#666666" points="355,-184 263,-184 263,-165 355,-165 355,-184"/>
<text text-anchor="middle" x="309" y="-172" font-family="Helvetica,sans-Serif" font-size="10.00">src/Camera.cpp</text>
</a>
</g>
</g>
<!-- Node11&#45;&gt;Node12 -->
<g id="edge12" class="edge">
<title>Node11&#45;&gt;Node12</title>
<path fill="none" stroke="#63b8ff" d="M252.82,-213.19C266.76,-203.84 284.1,-192.21 295.8,-184.36"/>
<polygon fill="#63b8ff" stroke="#63b8ff" points="251.01,-210.19 244.66,-218.67 254.91,-216 251.01,-210.19"/>
</g>
<!-- Node11&#45;&gt;Node13 -->
<g id="edge13" class="edge">
<title>Node11&#45;&gt;Node13</title>
<path fill="none" stroke="#63b8ff" d="M218.18,-210.08C212.61,-201.4 206.22,-191.44 201.74,-184.44"/>
<polygon fill="#63b8ff" stroke="#63b8ff" points="215.22,-211.95 223.57,-218.47 221.11,-208.17 215.22,-211.95"/>
</g>
<!-- Node13&#45;&gt;Node3 -->
<g id="edge14" class="edge">
<title>Node13&#45;&gt;Node3</title>
<path fill="none" stroke="#63b8ff" d="M256.49,-163.09C313.41,-153.3 397.76,-138.78 451.81,-129.48"/>
<polygon fill="#63b8ff" stroke="#63b8ff" points="256.24,-159.58 246.98,-164.73 257.43,-166.48 256.24,-159.58"/>
</g>
<!-- Node14 -->
<g id="node14" class="node">
<title>Node14</title>
<g id="a_node14"><a xlink:href="MainMenuState_8h.html" target="_top" xlink:title=" ">
<polygon fill="white" stroke="#666666" points="255.5,-129 136.5,-129 136.5,-110 255.5,-110 255.5,-129"/>
<text text-anchor="middle" x="196" y="-117" font-family="Helvetica,sans-Serif" font-size="10.00">src/MainMenuState.h</text>
</a>
</g>
</g>
<!-- Node13&#45;&gt;Node14 -->
<g id="edge15" class="edge">
<title>Node13&#45;&gt;Node14</title>
<path fill="none" stroke="#63b8ff" d="M196,-153.35C196,-145.1 196,-135.97 196,-129.44"/>
<polygon fill="#63b8ff" stroke="#63b8ff" points="192.5,-153.23 196,-163.23 199.5,-153.23 192.5,-153.23"/>
</g>
<!-- Node15 -->
<g id="node15" class="node">
<title>Node15</title>
<g id="a_node15"><a xlink:href="Game_8h.html" target="_top" xlink:title=" ">
<polygon fill="white" stroke="#666666" points="172,-74 100,-74 100,-55 172,-55 172,-74"/>
<text text-anchor="middle" x="136" y="-62" font-family="Helvetica,sans-Serif" font-size="10.00">src/Game.h</text>
</a>
</g>
</g>
<!-- Node14&#45;&gt;Node15 -->
<g id="edge16" class="edge">
<title>Node14&#45;&gt;Node15</title>
<path fill="none" stroke="#63b8ff" d="M177.42,-102.09C167.06,-92.94 154.57,-81.9 146.03,-74.36"/>
<polygon fill="#63b8ff" stroke="#63b8ff" points="174.88,-104.51 184.69,-108.51 179.51,-99.26 174.88,-104.51"/>
</g>
<!-- Node18 -->
<g id="node18" class="node">
<title>Node18</title>
<g id="a_node18"><a xlink:href="MainMenuState_8cpp.html" target="_top" xlink:title=" ">
<polygon fill="white" stroke="#666666" points="321.5,-74 190.5,-74 190.5,-55 321.5,-55 321.5,-74"/>
<text text-anchor="middle" x="256" y="-62" font-family="Helvetica,sans-Serif" font-size="10.00">src/MainMenuState.cpp</text>
</a>
</g>
</g>
<!-- Node14&#45;&gt;Node18 -->
<g id="edge19" class="edge">
<title>Node14&#45;&gt;Node18</title>
<path fill="none" stroke="#63b8ff" d="M214.58,-102.09C224.94,-92.94 237.43,-81.9 245.97,-74.36"/>
<polygon fill="#63b8ff" stroke="#63b8ff" points="212.49,-99.26 207.31,-108.51 217.12,-104.51 212.49,-99.26"/>
</g>
<!-- Node16 -->
<g id="node16" class="node">
<title>Node16</title>
<g id="a_node16"><a xlink:href="FinalProjectCS202_8cpp.html" target="_top" xlink:title=" ">
<polygon fill="white" stroke="#666666" points="142,-19 0,-19 0,0 142,0 142,-19"/>
<text text-anchor="middle" x="71" y="-7" font-family="Helvetica,sans-Serif" font-size="10.00">src/FinalProjectCS202.cpp</text>
</a>
</g>
</g>
<!-- Node15&#45;&gt;Node16 -->
<g id="edge17" class="edge">
<title>Node15&#45;&gt;Node16</title>
<path fill="none" stroke="#63b8ff" d="M116.21,-47.37C104.92,-38.16 91.21,-26.98 81.86,-19.36"/>
<polygon fill="#63b8ff" stroke="#63b8ff" points="113.84,-49.95 123.8,-53.55 118.26,-44.52 113.84,-49.95"/>
</g>
<!-- Node17 -->
<g id="node17" class="node">
<title>Node17</title>
<g id="a_node17"><a xlink:href="Game_8cpp.html" target="_top" xlink:title=" ">
<polygon fill="white" stroke="#666666" points="243.5,-19 160.5,-19 160.5,0 243.5,0 243.5,-19"/>
<text text-anchor="middle" x="202" y="-7" font-family="Helvetica,sans-Serif" font-size="10.00">src/Game.cpp</text>
</a>
</g>
</g>
<!-- Node15&#45;&gt;Node17 -->
<g id="edge18" class="edge">
<title>Node15&#45;&gt;Node17</title>
<path fill="none" stroke="#63b8ff" d="M156.09,-47.37C167.55,-38.16 181.48,-26.98 190.97,-19.36"/>
<polygon fill="#63b8ff" stroke="#63b8ff" points="153.98,-44.57 148.38,-53.56 158.36,-50.03 153.98,-44.57"/>
</g>
</g>
</svg>
        <g id="navigator" transform="translate(0 0)" fill="#404254">
                <rect fill="#f2f5e9" fill-opacity="0.5" stroke="#606060" stroke-width=".5" x="0" y="0" width="60" height="60"/>
                <use id="zoomplus" xlink:href="#zoomPlus" x="17" y="9" onmousedown="handleZoom(evt,'in')"/>
                <use id="zoomminus" xlink:href="#zoomMin" x="42" y="9" onmousedown="handleZoom(evt,'out')"/>
                <use id="reset" xlink:href="#resetDef" x="30" y="36" onmousedown="handleReset()"/>
                <g id="arrowUp" xlink:href="#dirArrow" transform="translate(30 24)" onmousedown="handlePan(0,-1)">
                  <use xlink:href="#rim" fill="#404040">
                        <set attributeName="fill" to="#808080" begin="arrowUp.mouseover" end="arrowUp.mouseout"/>
                  </use>
                  <path fill="none" stroke="white" stroke-width="1.5" d="M0,-3.0v7 M-2.5,-0.5L0,-3.0L2.5,-0.5"/>
                </g>
                <g id="arrowRight" xlink:href="#dirArrow" transform="rotate(90) translate(36 -43)" onmousedown="handlePan(1,0)">
                  <use xlink:href="#rim" fill="#404040">
                        <set attributeName="fill" to="#808080" begin="arrowRight.mouseover" end="arrowRight.mouseout"/>
                  </use>
                  <path fill="none" stroke="white" stroke-width="1.5" d="M0,-3.0v7 M-2.5,-0.5L0,-3.0L2.5,-0.5"/>
                </g>
                <g id="arrowDown" xlink:href="#dirArrow" transform="rotate(180) translate(-30 -48)" onmousedown="handlePan(0,1)">
                  <use xlink:href="#rim" fill="#404040">
                        <set attributeName="fill" to="#808080" begin="arrowDown.mouseover" end="arrowDown.mouseout"/>
                  </use>
                  <path fill="none" stroke="white" stroke-width="1.5" d="M0,-3.0v7 M-2.5,-0.5L0,-3.0L2.5,-0.5"/>
                </g>
                <g id="arrowLeft" xlink:href="#dirArrow" transform="rotate(270) translate(-36 17)" onmousedown="handlePan(-1,0)">
                  <use xlink:href="#rim" fill="#404040">
                        <set attributeName="fill" to="#808080" begin="arrowLeft.mouseover" end="arrowLeft.mouseout"/>
                  </use>
                  <path fill="none" stroke="white" stroke-width="1.5" d="M0,-3.0v7 M-2.5,-0.5L0,-3.0L2.5,-0.5"/>
                </g>
        </g>
        <svg viewBox="0 0 15 15" width="100%" height="30px" preserveAspectRatio="xMaxYMin meet">
         <g id="arrow_out" transform="scale(0.3 0.3)">
          <a xlink:href="Level_8h__dep__incl_org.svg" target="_base">
           <rect id="button" ry="5" rx="5" y="6" x="6" height="38" width="38"
                fill="#f2f5e9" fill-opacity="0.5" stroke="#606060" stroke-width="1.0"/>
           <path id="arrow"
             d="M 11.500037,31.436501 C 11.940474,20.09759 22.043105,11.32322 32.158766,21.979434 L 37.068811,17.246167 C 37.068811,17.246167 37.088388,32 37.088388,32 L 22.160133,31.978069 C 22.160133,31.978069 26.997745,27.140456 26.997745,27.140456 C 18.528582,18.264221 13.291696,25.230495 11.500037,31.436501 z"
             style="fill:#404040;"/>
          </a>
         </g>
        </svg>
</svg>
