<?xml version="1.0" encoding="UTF-8" standalone="no"?>
<!DOCTYPE svg PUBLIC "-//W3C//DTD SVG 1.1//EN"
 "http://www.w3.org/Graphics/SVG/1.1/DTD/svg11.dtd">
<!-- Generated by graphviz version 7.0.5 (0)
 -->
<!-- Title: src/Level.h Pages: 1 -->
<!--zoomable 137 -->
<svg id="main" version="1.1" xmlns="http://www.w3.org/2000/svg" xmlns:xlink="http://www.w3.org/1999/xlink" xml:space="preserve" onload="init(evt)">
<style type="text/css"><![CDATA[
.edge:hover path { stroke: red; }
.edge:hover polygon { stroke: red; fill: red; }
]]></style>
<script type="text/javascript"><![CDATA[
var edges = document.getElementsByTagName('g');
if (edges && edges.length) {
  for (var i=0;i<edges.length;i++) {
    if (edges[i].id.substr(0,4)=='edge') {
      edges[i].setAttribute('class','edge');
    }
  }
}
]]></script>
        <defs>
                <circle id="rim" cx="0" cy="0" r="7"/>
                <circle id="rim2" cx="0" cy="0" r="3.5"/>
                <g id="zoomPlus">
                        <use xlink:href="#rim" fill="#404040">
                                <set attributeName="fill" to="#808080" begin="zoomplus.mouseover" end="zoomplus.mouseout"/>
                        </use>
                        <path d="M-4,0h8M0,-4v8" fill="none" stroke="white" stroke-width="1.5" pointer-events="none"/>
                </g>
                <g id="zoomMin">
                        <use xlink:href="#rim" fill="#404040">
                                <set attributeName="fill" to="#808080" begin="zoomminus.mouseover" end="zoomminus.mouseout"/>
                        </use>
                        <path d="M-4,0h8" fill="none" stroke="white" stroke-width="1.5" pointer-events="none"/>
                </g>
                <g id="dirArrow">
                        <path fill="none" stroke="white" stroke-width="1.5" d="M0,-3.0v7 M-2.5,-0.5L0,-3.0L2.5,-0.5"/>
                </g>
               <g id="resetDef">
                       <use xlink:href="#rim2" fill="#404040">
                               <set attributeName="fill" to="#808080" begin="reset.mouseover" end="reset.mouseout"/>
                       </use>
               </g>
        </defs>

<script type="text/javascript">
var viewWidth = 1989;
var viewHeight = 137;
var sectionId = 'dynsection-0';
</script>
<script xlink:href="svgpan.js"/>
<svg id="graph" class="graph">
<g id="viewport">
<title>src/Level.h</title>
<!-- Node1 -->
<g id="node1" class="node">
<title>Node1</title>
<g id="a_node1"><a xlink:title=" ">
<polygon fill="#999999" stroke="#666666" points="1309,-129 1240,-129 1240,-110 1309,-110 1309,-129"/>
<text text-anchor="middle" x="1274.5" y="-117" font-family="Helvetica,sans-Serif" font-size="10.00">src/Level.h</text>
</a>
</g>
</g>
<!-- Node2 -->
<g id="node2" class="node">
<title>Node2</title>
<g id="a_node2"><a xlink:title=" ">
<polygon fill="#e0e0e0" stroke="#999999" points="143,-19 0,-19 0,0 143,0 143,-19"/>
<text text-anchor="middle" x="71.5" y="-7" font-family="Helvetica,sans-Serif" font-size="10.00">SFML/System/Vector2.hpp</text>
</a>
</g>
</g>
<!-- Node1&#45;&gt;Node2 -->
<g id="edge1" class="edge">
<title>Node1&#45;&gt;Node2</title>
<path fill="none" stroke="#63b8ff" d="M1239.77,-117.53C1131.58,-114.3 791.07,-102.41 510.5,-74 376.09,-60.39 219.73,-35.61 134.63,-21.36"/>
<polygon fill="#63b8ff" stroke="#63b8ff" points="135.29,-17.93 124.85,-19.72 134.13,-24.83 135.29,-17.93"/>
</g>
<!-- Node3 -->
<g id="node3" class="node">
<title>Node3</title>
<g id="a_node3"><a xlink:title=" ">
<polygon fill="#e0e0e0" stroke="#999999" points="1744.5,-74 1688.5,-74 1688.5,-55 1744.5,-55 1744.5,-74"/>
<text text-anchor="middle" x="1716.5" y="-62" font-family="Helvetica,sans-Serif" font-size="10.00">assert.h</text>
</a>
</g>
</g>
<!-- Node1&#45;&gt;Node3 -->
<g id="edge2" class="edge">
<title>Node1&#45;&gt;Node3</title>
<path fill="none" stroke="#63b8ff" d="M1309.42,-115.67C1379.09,-109.78 1540.23,-95.01 1674.5,-74 1675.33,-73.87 1676.16,-73.74 1677,-73.6"/>
<polygon fill="#63b8ff" stroke="#63b8ff" points="1677.38,-77.09 1686.61,-71.87 1676.14,-70.2 1677.38,-77.09"/>
</g>
<!-- Node4 -->
<g id="node4" class="node">
<title>Node4</title>
<g id="a_node4"><a xlink:title=" ">
<polygon fill="#e0e0e0" stroke="#999999" points="1980.5,-19 1926.5,-19 1926.5,0 1980.5,0 1980.5,-19"/>
<text text-anchor="middle" x="1953.5" y="-7" font-family="Helvetica,sans-Serif" font-size="10.00">random</text>
</a>
</g>
</g>
<!-- Node1&#45;&gt;Node4 -->
<g id="edge3" class="edge">
<title>Node1&#45;&gt;Node4</title>
<path fill="none" stroke="#63b8ff" d="M1309.46,-118.21C1375.67,-116.8 1523.34,-109.54 1641.5,-74 1659.58,-68.56 1661.5,-60.7 1679.5,-55 1778.1,-23.76 1810.33,-38.26 1914.99,-19.3"/>
<polygon fill="#63b8ff" stroke="#63b8ff" points="1915.36,-22.79 1924.54,-17.51 1914.07,-15.92 1915.36,-22.79"/>
</g>
<!-- Node5 -->
<g id="node5" class="node">
<title>Node5</title>
<g id="a_node5"><a xlink:href="Enums_8h.html" target="_top" xlink:title=" ">
<polygon fill="white" stroke="#666666" points="220,-19 161,-19 161,0 220,0 220,-19"/>
<text text-anchor="middle" x="190.5" y="-7" font-family="Helvetica,sans-Serif" font-size="10.00">Enums.h</text>
</a>
</g>
</g>
<!-- Node1&#45;&gt;Node5 -->
<g id="edge4" class="edge">
<title>Node1&#45;&gt;Node5</title>
<path fill="none" stroke="#63b8ff" d="M1239.54,-116.77C1108.16,-109.92 631.56,-82.09 231.52,-19.31"/>
<polygon fill="#63b8ff" stroke="#63b8ff" points="232.22,-15.88 221.8,-17.77 231.13,-22.79 232.22,-15.88"/>
</g>
<!-- Node6 -->
<g id="node6" class="node">
<title>Node6</title>
<g id="a_node6"><a xlink:href="SceneNode_8h.html" target="_top" xlink:title=" ">
<polygon fill="white" stroke="#666666" points="1269.5,-74 1189.5,-74 1189.5,-55 1269.5,-55 1269.5,-74"/>
<text text-anchor="middle" x="1229.5" y="-62" font-family="Helvetica,sans-Serif" font-size="10.00">SceneNode.h</text>
</a>
</g>
</g>
<!-- Node1&#45;&gt;Node6 -->
<g id="edge5" class="edge">
<title>Node1&#45;&gt;Node6</title>
<path fill="none" stroke="#63b8ff" d="M1267.07,-109.75C1260.92,-102.5 1251.99,-91.98 1244.37,-83.02"/>
<polygon fill="#63b8ff" stroke="#63b8ff" points="1247.21,-80.95 1238.07,-75.6 1241.88,-85.48 1247.21,-80.95"/>
</g>
<!-- Node19 -->
<g id="node19" class="node">
<title>Node19</title>
<g id="a_node19"><a xlink:href="Random_8h.html" target="_top" xlink:title=" ">
<polygon fill="white" stroke="#666666" points="1632.5,-74 1566.5,-74 1566.5,-55 1632.5,-55 1632.5,-74"/>
<text text-anchor="middle" x="1599.5" y="-62" font-family="Helvetica,sans-Serif" font-size="10.00">Random.h</text>
</a>
</g>
</g>
<!-- Node1&#45;&gt;Node19 -->
<g id="edge20" class="edge">
<title>Node1&#45;&gt;Node19</title>
<path fill="none" stroke="#63b8ff" d="M1309.28,-112.83C1368.75,-103.13 1489.89,-83.38 1555.28,-72.71"/>
<polygon fill="#63b8ff" stroke="#63b8ff" points="1555.63,-76.2 1564.93,-71.14 1554.5,-69.29 1555.63,-76.2"/>
</g>
<!-- Node6&#45;&gt;Node2 -->
<g id="edge15" class="edge">
<title>Node6&#45;&gt;Node2</title>
<path fill="none" stroke="#63b8ff" d="M1189.31,-62.78C1048.59,-60.05 564.78,-49 154.64,-19.19"/>
<polygon fill="#63b8ff" stroke="#63b8ff" points="155.18,-15.72 144.95,-18.48 154.67,-22.7 155.18,-15.72"/>
</g>
<!-- Node6&#45;&gt;Node5 -->
<g id="edge6" class="edge">
<title>Node6&#45;&gt;Node5</title>
<path fill="none" stroke="#63b8ff" d="M1189.27,-62.13C1019.69,-56.3 366.03,-33.26 231.35,-18.99"/>
<polygon fill="#63b8ff" stroke="#63b8ff" points="232.13,-15.56 221.78,-17.86 231.3,-22.51 232.13,-15.56"/>
</g>
<!-- Node7 -->
<g id="node7" class="node">
<title>Node7</title>
<g id="a_node7"><a xlink:title=" ">
<polygon fill="#e0e0e0" stroke="#999999" points="1830.5,-19 1720.5,-19 1720.5,0 1830.5,0 1830.5,-19"/>
<text text-anchor="middle" x="1775.5" y="-7" font-family="Helvetica,sans-Serif" font-size="10.00">SFML/Graphics.hpp</text>
</a>
</g>
</g>
<!-- Node6&#45;&gt;Node7 -->
<g id="edge7" class="edge">
<title>Node6&#45;&gt;Node7</title>
<path fill="none" stroke="#63b8ff" d="M1269.86,-60.32C1350.91,-53.82 1539.5,-38.1 1708.64,-19.28"/>
<polygon fill="#63b8ff" stroke="#63b8ff" points="1708.96,-22.77 1718.51,-18.18 1708.18,-15.81 1708.96,-22.77"/>
</g>
<!-- Node8 -->
<g id="node8" class="node">
<title>Node8</title>
<g id="a_node8"><a xlink:title=" ">
<polygon fill="#e0e0e0" stroke="#999999" points="397,-19 238,-19 238,0 397,0 397,-19"/>
<text text-anchor="middle" x="317.5" y="-7" font-family="Helvetica,sans-Serif" font-size="10.00">SFML/Graphics/Drawable.hpp</text>
</a>
</g>
</g>
<!-- Node6&#45;&gt;Node8 -->
<g id="edge8" class="edge">
<title>Node6&#45;&gt;Node8</title>
<path fill="none" stroke="#63b8ff" d="M1189.21,-61.91C1071.18,-57.13 715.69,-41.83 408.43,-19.11"/>
<polygon fill="#63b8ff" stroke="#63b8ff" points="408.8,-15.63 398.57,-18.37 408.28,-22.61 408.8,-15.63"/>
</g>
<!-- Node9 -->
<g id="node9" class="node">
<title>Node9</title>
<g id="a_node9"><a xlink:title=" ">
<polygon fill="#e0e0e0" stroke="#999999" points="549.5,-19 415.5,-19 415.5,0 549.5,0 549.5,-19"/>
<text text-anchor="middle" x="482.5" y="-7" font-family="Helvetica,sans-Serif" font-size="10.00">SFML/Graphics/Rect.hpp</text>
</a>
</g>
</g>
<!-- Node6&#45;&gt;Node9 -->
<g id="edge9" class="edge">
<title>Node6&#45;&gt;Node9</title>
<path fill="none" stroke="#63b8ff" d="M1189.37,-61.47C1086.74,-56.15 806.14,-40.75 560.9,-19.17"/>
<polygon fill="#63b8ff" stroke="#63b8ff" points="561.4,-15.7 551.13,-18.31 560.78,-22.68 561.4,-15.7"/>
</g>
<!-- Node10 -->
<g id="node10" class="node">
<title>Node10</title>
<g id="a_node10"><a xlink:title=" ">
<polygon fill="#e0e0e0" stroke="#999999" points="745.5,-19 567.5,-19 567.5,0 745.5,0 745.5,-19"/>
<text text-anchor="middle" x="656.5" y="-7" font-family="Helvetica,sans-Serif" font-size="10.00">SFML/Graphics/RenderStates.hpp</text>
</a>
</g>
</g>
<!-- Node6&#45;&gt;Node10 -->
<g id="edge10" class="edge">
<title>Node6&#45;&gt;Node10</title>
<path fill="none" stroke="#63b8ff" d="M1189.21,-59.77C1100.31,-51.55 885.13,-31.65 757.1,-19.81"/>
<polygon fill="#63b8ff" stroke="#63b8ff" points="757.54,-16.33 747.26,-18.89 756.89,-23.3 757.54,-16.33"/>
</g>
<!-- Node11 -->
<g id="node11" class="node">
<title>Node11</title>
<g id="a_node11"><a xlink:title=" ">
<polygon fill="#e0e0e0" stroke="#999999" points="941,-19 764,-19 764,0 941,0 941,-19"/>
<text text-anchor="middle" x="852.5" y="-7" font-family="Helvetica,sans-Serif" font-size="10.00">SFML/Graphics/RenderTarget.hpp</text>
</a>
</g>
</g>
<!-- Node6&#45;&gt;Node11 -->
<g id="edge11" class="edge">
<title>Node6&#45;&gt;Node11</title>
<path fill="none" stroke="#63b8ff" d="M1189.15,-57.83C1126.87,-49.07 1006.3,-32.12 927.64,-21.06"/>
<polygon fill="#63b8ff" stroke="#63b8ff" points="928.23,-17.61 917.85,-19.69 927.26,-24.54 928.23,-17.61"/>
</g>
<!-- Node12 -->
<g id="node12" class="node">
<title>Node12</title>
<g id="a_node12"><a xlink:title=" ">
<polygon fill="#e0e0e0" stroke="#999999" points="1120,-19 959,-19 959,0 1120,0 1120,-19"/>
<text text-anchor="middle" x="1039.5" y="-7" font-family="Helvetica,sans-Serif" font-size="10.00">SFML/Graphics/Transform.hpp</text>
</a>
</g>
</g>
<!-- Node6&#45;&gt;Node12 -->
<g id="edge12" class="edge">
<title>Node6&#45;&gt;Node12</title>
<path fill="none" stroke="#63b8ff" d="M1197.27,-54.51C1165.65,-45.69 1117.23,-32.18 1082.37,-22.46"/>
<polygon fill="#63b8ff" stroke="#63b8ff" points="1083.6,-19.17 1073.03,-19.85 1081.72,-25.91 1083.6,-19.17"/>
</g>
<!-- Node13 -->
<g id="node13" class="node">
<title>Node13</title>
<g id="a_node13"><a xlink:title=" ">
<polygon fill="#e0e0e0" stroke="#999999" points="1320.5,-19 1138.5,-19 1138.5,0 1320.5,0 1320.5,-19"/>
<text text-anchor="middle" x="1229.5" y="-7" font-family="Helvetica,sans-Serif" font-size="10.00">SFML/Graphics/Transformable.hpp</text>
</a>
</g>
</g>
<!-- Node6&#45;&gt;Node13 -->
<g id="edge13" class="edge">
<title>Node6&#45;&gt;Node13</title>
<path fill="none" stroke="#63b8ff" d="M1229.5,-54.75C1229.5,-48.27 1229.5,-39.16 1229.5,-30.9"/>
<polygon fill="#63b8ff" stroke="#63b8ff" points="1233,-30.96 1229.5,-20.96 1226,-30.96 1233,-30.96"/>
</g>
<!-- Node14 -->
<g id="node14" class="node">
<title>Node14</title>
<g id="a_node14"><a xlink:title=" ">
<polygon fill="#e0e0e0" stroke="#999999" points="1510.5,-19 1338.5,-19 1338.5,0 1510.5,0 1510.5,-19"/>
<text text-anchor="middle" x="1424.5" y="-7" font-family="Helvetica,sans-Serif" font-size="10.00">SFML/System/NonCopyable.hpp</text>
</a>
</g>
</g>
<!-- Node6&#45;&gt;Node14 -->
<g id="edge14" class="edge">
<title>Node6&#45;&gt;Node14</title>
<path fill="none" stroke="#63b8ff" d="M1262.58,-54.51C1295.03,-45.69 1344.72,-32.18 1380.5,-22.46"/>
<polygon fill="#63b8ff" stroke="#63b8ff" points="1381.39,-25.84 1390.12,-19.84 1379.56,-19.09 1381.39,-25.84"/>
</g>
<!-- Node15 -->
<g id="node15" class="node">
<title>Node15</title>
<g id="a_node15"><a xlink:title=" ">
<polygon fill="#e0e0e0" stroke="#999999" points="1586.5,-19 1528.5,-19 1528.5,0 1586.5,0 1586.5,-19"/>
<text text-anchor="middle" x="1557.5" y="-7" font-family="Helvetica,sans-Serif" font-size="10.00">memory</text>
</a>
</g>
</g>
<!-- Node6&#45;&gt;Node15 -->
<g id="edge16" class="edge">
<title>Node6&#45;&gt;Node15</title>
<path fill="none" stroke="#63b8ff" d="M1269.99,-58.17C1324.04,-50.86 1422.99,-36.81 1516.95,-19.37"/>
<polygon fill="#63b8ff" stroke="#63b8ff" points="1517.41,-22.85 1526.59,-17.57 1516.12,-15.97 1517.41,-22.85"/>
</g>
<!-- Node16 -->
<g id="node16" class="node">
<title>Node16</title>
<g id="a_node16"><a xlink:title=" ">
<polygon fill="#e0e0e0" stroke="#999999" points="1652,-19 1605,-19 1605,0 1652,0 1652,-19"/>
<text text-anchor="middle" x="1628.5" y="-7" font-family="Helvetica,sans-Serif" font-size="10.00">vector</text>
</a>
</g>
</g>
<!-- Node6&#45;&gt;Node16 -->
<g id="edge17" class="edge">
<title>Node6&#45;&gt;Node16</title>
<path fill="none" stroke="#63b8ff" d="M1269.84,-60.34C1335.57,-54.81 1470.02,-41.92 1593.63,-19.1"/>
<polygon fill="#63b8ff" stroke="#63b8ff" points="1594.12,-22.57 1603.3,-17.28 1592.83,-15.69 1594.12,-22.57"/>
</g>
<!-- Node17 -->
<g id="node17" class="node">
<title>Node17</title>
<g id="a_node17"><a xlink:title=" ">
<polygon fill="#e0e0e0" stroke="#999999" points="1702.5,-19 1670.5,-19 1670.5,0 1702.5,0 1702.5,-19"/>
<text text-anchor="middle" x="1686.5" y="-7" font-family="Helvetica,sans-Serif" font-size="10.00">set</text>
</a>
</g>
</g>
<!-- Node6&#45;&gt;Node17 -->
<g id="edge18" class="edge">
<title>Node6&#45;&gt;Node17</title>
<path fill="none" stroke="#63b8ff" d="M1269.88,-62.37C1345.01,-59.61 1511.33,-50.45 1659.18,-19.02"/>
<polygon fill="#63b8ff" stroke="#63b8ff" points="1659.73,-22.48 1668.76,-16.94 1658.25,-15.64 1659.73,-22.48"/>
</g>
<!-- Node18 -->
<g id="node18" class="node">
<title>Node18</title>
<g id="a_node18"><a xlink:title=" ">
<polygon fill="#e0e0e0" stroke="#999999" points="1908.5,-19 1848.5,-19 1848.5,0 1908.5,0 1908.5,-19"/>
<text text-anchor="middle" x="1878.5" y="-7" font-family="Helvetica,sans-Serif" font-size="10.00">iostream</text>
</a>
</g>
</g>
<!-- Node6&#45;&gt;Node18 -->
<g id="edge19" class="edge">
<title>Node6&#45;&gt;Node18</title>
<path fill="none" stroke="#63b8ff" d="M1269.68,-62.54C1365.97,-59.81 1617.63,-50.2 1837.25,-19.11"/>
<polygon fill="#63b8ff" stroke="#63b8ff" points="1837.44,-22.62 1846.85,-17.73 1836.45,-15.69 1837.44,-22.62"/>
</g>
<!-- Node19&#45;&gt;Node4 -->
<g id="edge21" class="edge">
<title>Node19&#45;&gt;Node4</title>
<path fill="none" stroke="#63b8ff" d="M1632.85,-57.27C1637.43,-56.47 1642.08,-55.69 1646.5,-55 1763.02,-36.73 1796.08,-40.73 1915.03,-19.29"/>
<polygon fill="#63b8ff" stroke="#63b8ff" points="1915.35,-22.79 1924.55,-17.55 1914.09,-15.91 1915.35,-22.79"/>
</g>
<!-- Node19&#45;&gt;Node18 -->
<g id="edge22" class="edge">
<title>Node19&#45;&gt;Node18</title>
<path fill="none" stroke="#63b8ff" d="M1632.59,-57.5C1684.78,-48.01 1784.93,-29.71 1837.27,-19.38"/>
<polygon fill="#63b8ff" stroke="#63b8ff" points="1837.68,-22.87 1846.8,-17.48 1836.31,-16.01 1837.68,-22.87"/>
</g>
</g>
</svg>
        <g id="navigator" transform="translate(0 0)" fill="#404254">
                <rect fill="#f2f5e9" fill-opacity="0.5" stroke="#606060" stroke-width=".5" x="0" y="0" width="60" height="60"/>
                <use id="zoomplus" xlink:href="#zoomPlus" x="17" y="9" onmousedown="handleZoom(evt,'in')"/>
                <use id="zoomminus" xlink:href="#zoomMin" x="42" y="9" onmousedown="handleZoom(evt,'out')"/>
                <use id="reset" xlink:href="#resetDef" x="30" y="36" onmousedown="handleReset()"/>
                <g id="arrowUp" xlink:href="#dirArrow" transform="translate(30 24)" onmousedown="handlePan(0,-1)">
                  <use xlink:href="#rim" fill="#404040">
                        <set attributeName="fill" to="#808080" begin="arrowUp.mouseover" end="arrowUp.mouseout"/>
                  </use>
                  <path fill="none" stroke="white" stroke-width="1.5" d="M0,-3.0v7 M-2.5,-0.5L0,-3.0L2.5,-0.5"/>
                </g>
                <g id="arrowRight" xlink:href="#dirArrow" transform="rotate(90) translate(36 -43)" onmousedown="handlePan(1,0)">
                  <use xlink:href="#rim" fill="#404040">
                        <set attributeName="fill" to="#808080" begin="arrowRight.mouseover" end="arrowRight.mouseout"/>
                  </use>
                  <path fill="none" stroke="white" stroke-width="1.5" d="M0,-3.0v7 M-2.5,-0.5L0,-3.0L2.5,-0.5"/>
                </g>
                <g id="arrowDown" xlink:href="#dirArrow" transform="rotate(180) translate(-30 -48)" onmousedown="handlePan(0,1)">
                  <use xlink:href="#rim" fill="#404040">
                        <set attributeName="fill" to="#808080" begin="arrowDown.mouseover" end="arrowDown.mouseout"/>
                  </use>
                  <path fill="none" stroke="white" stroke-width="1.5" d="M0,-3.0v7 M-2.5,-0.5L0,-3.0L2.5,-0.5"/>
                </g>
                <g id="arrowLeft" xlink:href="#dirArrow" transform="rotate(270) translate(-36 17)" onmousedown="handlePan(-1,0)">
                  <use xlink:href="#rim" fill="#404040">
                        <set attributeName="fill" to="#808080" begin="arrowLeft.mouseover" end="arrowLeft.mouseout"/>
                  </use>
                  <path fill="none" stroke="white" stroke-width="1.5" d="M0,-3.0v7 M-2.5,-0.5L0,-3.0L2.5,-0.5"/>
                </g>
        </g>
        <svg viewBox="0 0 15 15" width="100%" height="30px" preserveAspectRatio="xMaxYMin meet">
         <g id="arrow_out" transform="scale(0.3 0.3)">
          <a xlink:href="Level_8h__incl_org.svg" target="_base">
           <rect id="button" ry="5" rx="5" y="6" x="6" height="38" width="38"
                fill="#f2f5e9" fill-opacity="0.5" stroke="#606060" stroke-width="1.0"/>
           <path id="arrow"
             d="M 11.500037,31.436501 C 11.940474,20.09759 22.043105,11.32322 32.158766,21.979434 L 37.068811,17.246167 C 37.068811,17.246167 37.088388,32 37.088388,32 L 22.160133,31.978069 C 22.160133,31.978069 26.997745,27.140456 26.997745,27.140456 C 18.528582,18.264221 13.291696,25.230495 11.500037,31.436501 z"
             style="fill:#404040;"/>
          </a>
         </g>
        </svg>
</svg>
