<?xml version="1.0" encoding="UTF-8" standalone="no"?>
<!DOCTYPE svg PUBLIC "-//W3C//DTD SVG 1.1//EN"
 "http://www.w3.org/Graphics/SVG/1.1/DTD/svg11.dtd">
<!-- Generated by graphviz version 7.0.5 (0)
 -->
<!-- Title: src/Light.h Pages: 1 -->
<!--zoomable 357 -->
<svg id="main" version="1.1" xmlns="http://www.w3.org/2000/svg" xmlns:xlink="http://www.w3.org/1999/xlink" xml:space="preserve" onload="init(evt)">
<style type="text/css"><![CDATA[
.edge:hover path { stroke: red; }
.edge:hover polygon { stroke: red; fill: red; }
]]></style>
<script type="text/javascript"><![CDATA[
var edges = document.getElementsByTagName('g');
if (edges && edges.length) {
  for (var i=0;i<edges.length;i++) {
    if (edges[i].id.substr(0,4)=='edge') {
      edges[i].setAttribute('class','edge');
    }
  }
}
]]></script>
        <defs>
                <circle id="rim" cx="0" cy="0" r="7"/>
                <circle id="rim2" cx="0" cy="0" r="3.5"/>
                <g id="zoomPlus">
                        <use xlink:href="#rim" fill="#404040">
                                <set attributeName="fill" to="#808080" begin="zoomplus.mouseover" end="zoomplus.mouseout"/>
                        </use>
                        <path d="M-4,0h8M0,-4v8" fill="none" stroke="white" stroke-width="1.5" pointer-events="none"/>
                </g>
                <g id="zoomMin">
                        <use xlink:href="#rim" fill="#404040">
                                <set attributeName="fill" to="#808080" begin="zoomminus.mouseover" end="zoomminus.mouseout"/>
                        </use>
                        <path d="M-4,0h8" fill="none" stroke="white" stroke-width="1.5" pointer-events="none"/>
                </g>
                <g id="dirArrow">
                        <path fill="none" stroke="white" stroke-width="1.5" d="M0,-3.0v7 M-2.5,-0.5L0,-3.0L2.5,-0.5"/>
                </g>
               <g id="resetDef">
                       <use xlink:href="#rim2" fill="#404040">
                               <set attributeName="fill" to="#808080" begin="reset.mouseover" end="reset.mouseout"/>
                       </use>
               </g>
        </defs>

<script type="text/javascript">
var viewWidth = 2477;
var viewHeight = 357;
var sectionId = 'dynsection-0';
</script>
<script xlink:href="svgpan.js"/>
<svg id="graph" class="graph">
<g id="viewport">
<title>src/Light.h</title>
<!-- Node1 -->
<g id="node1" class="node">
<title>Node1</title>
<g id="a_node1"><a xlink:title=" ">
<polygon fill="#999999" stroke="#666666" points="709.25,-349 642.25,-349 642.25,-330 709.25,-330 709.25,-349"/>
<text text-anchor="middle" x="675.75" y="-337" font-family="Helvetica,sans-Serif" font-size="10.00">src/Light.h</text>
</a>
</g>
</g>
<!-- Node2 -->
<g id="node2" class="node">
<title>Node2</title>
<g id="a_node2"><a xlink:href="Entity_8h.html" target="_top" xlink:title=" ">
<polygon fill="white" stroke="#666666" points="702.25,-294 649.25,-294 649.25,-275 702.25,-275 702.25,-294"/>
<text text-anchor="middle" x="675.75" y="-282" font-family="Helvetica,sans-Serif" font-size="10.00">Entity.h</text>
</a>
</g>
</g>
<!-- Node1&#45;&gt;Node2 -->
<g id="edge1" class="edge">
<title>Node1&#45;&gt;Node2</title>
<path fill="none" stroke="#63b8ff" d="M675.75,-329.75C675.75,-323.27 675.75,-314.16 675.75,-305.9"/>
<polygon fill="#63b8ff" stroke="#63b8ff" points="679.25,-305.96 675.75,-295.96 672.25,-305.96 679.25,-305.96"/>
</g>
<!-- Node3 -->
<g id="node3" class="node">
<title>Node3</title>
<g id="a_node3"><a xlink:href="AnimationMachine_8h.html" target="_top" xlink:title=" ">
<polygon fill="white" stroke="#666666" points="558.25,-239 441.25,-239 441.25,-220 558.25,-220 558.25,-239"/>
<text text-anchor="middle" x="499.75" y="-227" font-family="Helvetica,sans-Serif" font-size="10.00">AnimationMachine.h</text>
</a>
</g>
</g>
<!-- Node2&#45;&gt;Node3 -->
<g id="edge2" class="edge">
<title>Node2&#45;&gt;Node3</title>
<path fill="none" stroke="#63b8ff" d="M649.02,-275.45C620.08,-266.73 573.58,-252.73 540.17,-242.67"/>
<polygon fill="#63b8ff" stroke="#63b8ff" points="541.42,-239.39 530.83,-239.86 539.4,-246.1 541.42,-239.39"/>
</g>
<!-- Node7 -->
<g id="node7" class="node">
<title>Node7</title>
<g id="a_node7"><a xlink:title=" ">
<polygon fill="#e0e0e0" stroke="#999999" points="147.25,-184 16.25,-184 16.25,-165 147.25,-165 147.25,-184"/>
<text text-anchor="middle" x="81.75" y="-172" font-family="Helvetica,sans-Serif" font-size="10.00">SFML/System/Time.hpp</text>
</a>
</g>
</g>
<!-- Node2&#45;&gt;Node7 -->
<g id="edge39" class="edge">
<title>Node2&#45;&gt;Node7</title>
<path fill="none" stroke="#63b8ff" d="M649.07,-278.65C559.67,-262.39 269.12,-209.57 142.11,-186.47"/>
<polygon fill="#63b8ff" stroke="#63b8ff" points="143.02,-183.08 132.55,-184.74 141.77,-189.97 143.02,-183.08"/>
</g>
<!-- Node11 -->
<g id="node11" class="node">
<title>Node11</title>
<g id="a_node11"><a xlink:href="Enums_8h.html" target="_top" xlink:title=" ">
<polygon fill="white" stroke="#666666" points="520.25,-74 461.25,-74 461.25,-55 520.25,-55 520.25,-74"/>
<text text-anchor="middle" x="490.75" y="-62" font-family="Helvetica,sans-Serif" font-size="10.00">Enums.h</text>
</a>
</g>
</g>
<!-- Node2&#45;&gt;Node11 -->
<g id="edge22" class="edge">
<title>Node2&#45;&gt;Node11</title>
<path fill="none" stroke="#63b8ff" d="M649.11,-283.95C535.23,-285.24 91.36,-283.73 6.75,-184 -52.95,-113.63 322.99,-78.25 449.94,-68.41"/>
<polygon fill="#63b8ff" stroke="#63b8ff" points="449.86,-71.93 459.57,-67.68 449.33,-64.95 449.86,-71.93"/>
</g>
<!-- Node17 -->
<g id="node17" class="node">
<title>Node17</title>
<g id="a_node17"><a xlink:href="SceneNode_8h.html" target="_top" xlink:title=" ">
<polygon fill="white" stroke="#666666" points="1377.75,-184 1297.75,-184 1297.75,-165 1377.75,-165 1377.75,-184"/>
<text text-anchor="middle" x="1337.75" y="-172" font-family="Helvetica,sans-Serif" font-size="10.00">SceneNode.h</text>
</a>
</g>
</g>
<!-- Node2&#45;&gt;Node17 -->
<g id="edge23" class="edge">
<title>Node2&#45;&gt;Node17</title>
<path fill="none" stroke="#63b8ff" d="M702.52,-279.13C802.3,-262.85 1153.59,-205.54 1286.39,-183.88"/>
<polygon fill="#63b8ff" stroke="#63b8ff" points="1286.63,-187.39 1295.94,-182.32 1285.5,-180.48 1286.63,-187.39"/>
</g>
<!-- Node19 -->
<g id="node19" class="node">
<title>Node19</title>
<g id="a_node19"><a xlink:title=" ">
<polygon fill="#e0e0e0" stroke="#999999" points="938.75,-129 804.75,-129 804.75,-110 938.75,-110 938.75,-129"/>
<text text-anchor="middle" x="871.75" y="-117" font-family="Helvetica,sans-Serif" font-size="10.00">SFML/Graphics/Rect.hpp</text>
</a>
</g>
</g>
<!-- Node2&#45;&gt;Node19 -->
<g id="edge38" class="edge">
<title>Node2&#45;&gt;Node19</title>
<path fill="none" stroke="#63b8ff" d="M686.57,-274.5C718.37,-248.06 811.86,-170.31 852.51,-136.5"/>
<polygon fill="#63b8ff" stroke="#63b8ff" points="854.59,-139.32 860.04,-130.24 850.12,-133.94 854.59,-139.32"/>
</g>
<!-- Node25 -->
<g id="node25" class="node">
<title>Node25</title>
<g id="a_node25"><a xlink:title=" ">
<polygon fill="#e0e0e0" stroke="#999999" points="2469.25,-129 2326.25,-129 2326.25,-110 2469.25,-110 2469.25,-129"/>
<text text-anchor="middle" x="2397.75" y="-117" font-family="Helvetica,sans-Serif" font-size="10.00">SFML/System/Vector2.hpp</text>
</a>
</g>
</g>
<!-- Node2&#45;&gt;Node25 -->
<g id="edge40" class="edge">
<title>Node2&#45;&gt;Node25</title>
<path fill="none" stroke="#63b8ff" d="M702.57,-281.08C857.37,-267.11 1652.47,-195.04 2314.56,-129.21"/>
<polygon fill="#63b8ff" stroke="#63b8ff" points="2314.66,-132.72 2324.26,-128.24 2313.96,-125.75 2314.66,-132.72"/>
</g>
<!-- Node4 -->
<g id="node4" class="node">
<title>Node4</title>
<g id="a_node4"><a xlink:title=" ">
<polygon fill="#e0e0e0" stroke="#999999" points="748.75,-74 638.75,-74 638.75,-55 748.75,-55 748.75,-74"/>
<text text-anchor="middle" x="693.75" y="-62" font-family="Helvetica,sans-Serif" font-size="10.00">SFML/Graphics.hpp</text>
</a>
</g>
</g>
<!-- Node3&#45;&gt;Node4 -->
<g id="edge3" class="edge">
<title>Node3&#45;&gt;Node4</title>
<path fill="none" stroke="#63b8ff" d="M537.39,-219.55C560.59,-212.66 589.97,-201.32 611.75,-184 646.39,-156.45 672.31,-110.39 685.02,-84.56"/>
<polygon fill="#63b8ff" stroke="#63b8ff" points="688.14,-86.15 689.27,-75.62 681.82,-83.15 688.14,-86.15"/>
</g>
<!-- Node5 -->
<g id="node5" class="node">
<title>Node5</title>
<g id="a_node5"><a xlink:title=" ">
<polygon fill="#e0e0e0" stroke="#999999" points="306.25,-184 165.25,-184 165.25,-165 306.25,-165 306.25,-184"/>
<text text-anchor="middle" x="235.75" y="-172" font-family="Helvetica,sans-Serif" font-size="10.00">SFML/Graphics/Sprite.hpp</text>
</a>
</g>
</g>
<!-- Node3&#45;&gt;Node5 -->
<g id="edge4" class="edge">
<title>Node3&#45;&gt;Node5</title>
<path fill="none" stroke="#63b8ff" d="M454.97,-219.51C409.89,-210.46 340.24,-196.48 291.59,-186.71"/>
<polygon fill="#63b8ff" stroke="#63b8ff" points="292.29,-183.28 281.8,-184.74 290.91,-190.14 292.29,-183.28"/>
</g>
<!-- Node6 -->
<g id="node6" class="node">
<title>Node6</title>
<g id="a_node6"><a xlink:title=" ">
<polygon fill="#e0e0e0" stroke="#999999" points="462.25,-129 313.25,-129 313.25,-110 462.25,-110 462.25,-129"/>
<text text-anchor="middle" x="387.75" y="-117" font-family="Helvetica,sans-Serif" font-size="10.00">SFML/Graphics/Texture.hpp</text>
</a>
</g>
</g>
<!-- Node3&#45;&gt;Node6 -->
<g id="edge5" class="edge">
<title>Node3&#45;&gt;Node6</title>
<path fill="none" stroke="#63b8ff" d="M492.95,-219.85C482.83,-207.21 462.93,-183.22 443.75,-165 433,-154.78 420.09,-144.41 409.38,-136.26"/>
<polygon fill="#63b8ff" stroke="#63b8ff" points="411.6,-133.55 401.49,-130.36 407.41,-139.16 411.6,-133.55"/>
</g>
<!-- Node3&#45;&gt;Node7 -->
<g id="edge6" class="edge">
<title>Node3&#45;&gt;Node7</title>
<path fill="none" stroke="#63b8ff" d="M441.19,-221.07C367.37,-211.71 240.28,-195.6 158.69,-185.26"/>
<polygon fill="#63b8ff" stroke="#63b8ff" points="159.35,-181.81 148.99,-184.03 158.47,-188.76 159.35,-181.81"/>
</g>
<!-- Node8 -->
<g id="node8" class="node">
<title>Node8</title>
<g id="a_node8"><a xlink:title=" ">
<polygon fill="#e0e0e0" stroke="#999999" points="434.75,-184 362.75,-184 362.75,-165 434.75,-165 434.75,-184"/>
<text text-anchor="middle" x="398.75" y="-172" font-family="Helvetica,sans-Serif" font-size="10.00">sys/types.h</text>
</a>
</g>
</g>
<!-- Node3&#45;&gt;Node8 -->
<g id="edge7" class="edge">
<title>Node3&#45;&gt;Node8</title>
<path fill="none" stroke="#63b8ff" d="M482.62,-219.51C467,-211.31 443.67,-199.07 425.58,-189.58"/>
<polygon fill="#63b8ff" stroke="#63b8ff" points="427.45,-186.61 416.97,-185.06 424.2,-192.81 427.45,-186.61"/>
</g>
<!-- Node9 -->
<g id="node9" class="node">
<title>Node9</title>
<g id="a_node9"><a xlink:title=" ">
<polygon fill="#e0e0e0" stroke="#999999" points="806.75,-19 746.75,-19 746.75,0 806.75,0 806.75,-19"/>
<text text-anchor="middle" x="776.75" y="-7" font-family="Helvetica,sans-Serif" font-size="10.00">iostream</text>
</a>
</g>
</g>
<!-- Node3&#45;&gt;Node9 -->
<g id="edge8" class="edge">
<title>Node3&#45;&gt;Node9</title>
<path fill="none" stroke="#63b8ff" d="M558.57,-223.18C618.82,-214.37 710.18,-190.98 757.75,-129 779.78,-100.3 780.67,-56.01 778.96,-30.48"/>
<polygon fill="#63b8ff" stroke="#63b8ff" points="782.47,-30.48 778.09,-20.83 775.5,-31.1 782.47,-30.48"/>
</g>
<!-- Node10 -->
<g id="node10" class="node">
<title>Node10</title>
<g id="a_node10"><a xlink:href="Consts_8h.html" target="_top" xlink:title=" ">
<polygon fill="white" stroke="#666666" points="634.25,-129 575.25,-129 575.25,-110 634.25,-110 634.25,-129"/>
<text text-anchor="middle" x="604.75" y="-117" font-family="Helvetica,sans-Serif" font-size="10.00">Consts.h</text>
</a>
</g>
</g>
<!-- Node3&#45;&gt;Node10 -->
<g id="edge9" class="edge">
<title>Node3&#45;&gt;Node10</title>
<path fill="none" stroke="#63b8ff" d="M537.67,-219.58C557.36,-213 580.09,-201.97 593.75,-184 603.09,-171.72 605.56,-154.24 605.85,-140.73"/>
<polygon fill="#63b8ff" stroke="#63b8ff" points="609.35,-140.73 605.65,-130.8 602.35,-140.87 609.35,-140.73"/>
</g>
<!-- Node3&#45;&gt;Node11 -->
<g id="edge15" class="edge">
<title>Node3&#45;&gt;Node11</title>
<path fill="none" stroke="#63b8ff" d="M446.86,-219.55C417.77,-212.92 381.96,-201.86 353.75,-184 320.21,-162.77 279.15,-141.15 303.75,-110 321.56,-87.45 400.02,-75.1 449.48,-69.44"/>
<polygon fill="#63b8ff" stroke="#63b8ff" points="449.7,-72.93 459.26,-68.36 448.94,-65.97 449.7,-72.93"/>
</g>
<!-- Node14 -->
<g id="node14" class="node">
<title>Node14</title>
<g id="a_node14"><a xlink:href="TextureHolder_8h.html" target="_top" xlink:title=" ">
<polygon fill="white" stroke="#666666" points="584.25,-184 491.25,-184 491.25,-165 584.25,-165 584.25,-184"/>
<text text-anchor="middle" x="537.75" y="-172" font-family="Helvetica,sans-Serif" font-size="10.00">TextureHolder.h</text>
</a>
</g>
</g>
<!-- Node3&#45;&gt;Node14 -->
<g id="edge16" class="edge">
<title>Node3&#45;&gt;Node14</title>
<path fill="none" stroke="#63b8ff" d="M506.03,-219.75C511.11,-212.66 518.45,-202.42 524.78,-193.59"/>
<polygon fill="#63b8ff" stroke="#63b8ff" points="527.47,-195.84 530.46,-185.67 521.79,-191.76 527.47,-195.84"/>
</g>
<!-- Node10&#45;&gt;Node4 -->
<g id="edge10" class="edge">
<title>Node10&#45;&gt;Node4</title>
<path fill="none" stroke="#63b8ff" d="M619.85,-109.51C633.35,-101.47 653.4,-89.53 669.21,-80.11"/>
<polygon fill="#63b8ff" stroke="#63b8ff" points="670.77,-83.26 677.58,-75.13 667.19,-77.24 670.77,-83.26"/>
</g>
<!-- Node10&#45;&gt;Node11 -->
<g id="edge11" class="edge">
<title>Node10&#45;&gt;Node11</title>
<path fill="none" stroke="#63b8ff" d="M585.41,-109.51C567.53,-101.2 540.71,-88.73 520.18,-79.18"/>
<polygon fill="#63b8ff" stroke="#63b8ff" points="521.72,-76.04 511.18,-75 518.77,-82.39 521.72,-76.04"/>
</g>
<!-- Node12 -->
<g id="node12" class="node">
<title>Node12</title>
<g id="a_node12"><a xlink:href="Random_8h.html" target="_top" xlink:title=" ">
<polygon fill="white" stroke="#666666" points="620.75,-74 554.75,-74 554.75,-55 620.75,-55 620.75,-74"/>
<text text-anchor="middle" x="587.75" y="-62" font-family="Helvetica,sans-Serif" font-size="10.00">Random.h</text>
</a>
</g>
</g>
<!-- Node10&#45;&gt;Node12 -->
<g id="edge12" class="edge">
<title>Node10&#45;&gt;Node12</title>
<path fill="none" stroke="#63b8ff" d="M601.94,-109.75C599.82,-103.11 596.81,-93.73 594.11,-85.31"/>
<polygon fill="#63b8ff" stroke="#63b8ff" points="597.47,-84.34 591.08,-75.88 590.8,-86.47 597.47,-84.34"/>
</g>
<!-- Node12&#45;&gt;Node9 -->
<g id="edge14" class="edge">
<title>Node12&#45;&gt;Node9</title>
<path fill="none" stroke="#63b8ff" d="M619.81,-54.51C651.74,-45.56 700.89,-31.77 735.66,-22.02"/>
<polygon fill="#63b8ff" stroke="#63b8ff" points="736.27,-25.49 744.95,-19.42 734.38,-18.75 736.27,-25.49"/>
</g>
<!-- Node13 -->
<g id="node13" class="node">
<title>Node13</title>
<g id="a_node13"><a xlink:title=" ">
<polygon fill="#e0e0e0" stroke="#999999" points="614.75,-19 560.75,-19 560.75,0 614.75,0 614.75,-19"/>
<text text-anchor="middle" x="587.75" y="-7" font-family="Helvetica,sans-Serif" font-size="10.00">random</text>
</a>
</g>
</g>
<!-- Node12&#45;&gt;Node13 -->
<g id="edge13" class="edge">
<title>Node12&#45;&gt;Node13</title>
<path fill="none" stroke="#63b8ff" d="M587.75,-54.75C587.75,-48.27 587.75,-39.16 587.75,-30.9"/>
<polygon fill="#63b8ff" stroke="#63b8ff" points="591.25,-30.96 587.75,-20.96 584.25,-30.96 591.25,-30.96"/>
</g>
<!-- Node14&#45;&gt;Node6 -->
<g id="edge19" class="edge">
<title>Node14&#45;&gt;Node6</title>
<path fill="none" stroke="#63b8ff" d="M512.31,-164.51C487.99,-155.92 451.09,-142.88 423.76,-133.22"/>
<polygon fill="#63b8ff" stroke="#63b8ff" points="425.09,-129.98 414.5,-129.95 422.76,-136.58 425.09,-129.98"/>
</g>
<!-- Node14&#45;&gt;Node10 -->
<g id="edge21" class="edge">
<title>Node14&#45;&gt;Node10</title>
<path fill="none" stroke="#63b8ff" d="M549.12,-164.51C558.8,-156.85 572.95,-145.66 584.56,-136.47"/>
<polygon fill="#63b8ff" stroke="#63b8ff" points="586.69,-139.25 592.37,-130.3 582.35,-133.76 586.69,-139.25"/>
</g>
<!-- Node14&#45;&gt;Node11 -->
<g id="edge20" class="edge">
<title>Node14&#45;&gt;Node11</title>
<path fill="none" stroke="#63b8ff" d="M531.2,-164.7C524.98,-156.01 515.71,-142.13 509.75,-129 503.4,-115.01 498.51,-98.34 495.28,-85.6"/>
<polygon fill="#63b8ff" stroke="#63b8ff" points="498.68,-84.79 492.96,-75.87 491.87,-86.41 498.68,-84.79"/>
</g>
<!-- Node15 -->
<g id="node15" class="node">
<title>Node15</title>
<g id="a_node15"><a xlink:title=" ">
<polygon fill="#e0e0e0" stroke="#999999" points="748.75,-129 690.75,-129 690.75,-110 748.75,-110 748.75,-129"/>
<text text-anchor="middle" x="719.75" y="-117" font-family="Helvetica,sans-Serif" font-size="10.00">memory</text>
</a>
</g>
</g>
<!-- Node14&#45;&gt;Node15 -->
<g id="edge17" class="edge">
<title>Node14&#45;&gt;Node15</title>
<path fill="none" stroke="#63b8ff" d="M568.62,-164.51C599.24,-155.59 646.29,-141.89 679.75,-132.15"/>
<polygon fill="#63b8ff" stroke="#63b8ff" points="680.46,-135.59 689.08,-129.43 678.5,-128.87 680.46,-135.59"/>
</g>
<!-- Node16 -->
<g id="node16" class="node">
<title>Node16</title>
<g id="a_node16"><a xlink:title=" ">
<polygon fill="#e0e0e0" stroke="#999999" points="556.75,-129 518.75,-129 518.75,-110 556.75,-110 556.75,-129"/>
<text text-anchor="middle" x="537.75" y="-117" font-family="Helvetica,sans-Serif" font-size="10.00">map</text>
</a>
</g>
</g>
<!-- Node14&#45;&gt;Node16 -->
<g id="edge18" class="edge">
<title>Node14&#45;&gt;Node16</title>
<path fill="none" stroke="#63b8ff" d="M537.75,-164.75C537.75,-158.27 537.75,-149.16 537.75,-140.9"/>
<polygon fill="#63b8ff" stroke="#63b8ff" points="541.25,-140.96 537.75,-130.96 534.25,-140.96 541.25,-140.96"/>
</g>
<!-- Node17&#45;&gt;Node4 -->
<g id="edge25" class="edge">
<title>Node17&#45;&gt;Node4</title>
<path fill="none" stroke="#63b8ff" d="M1297.64,-170.73C1238.13,-165.96 1123.29,-154.15 1028.75,-129 1006.58,-123.1 1002.89,-116.02 980.75,-110 906.62,-89.85 819.09,-77.93 760.35,-71.57"/>
<polygon fill="#63b8ff" stroke="#63b8ff" points="760.81,-68.1 750.5,-70.53 760.08,-75.06 760.81,-68.1"/>
</g>
<!-- Node17&#45;&gt;Node9 -->
<g id="edge37" class="edge">
<title>Node17&#45;&gt;Node9</title>
<path fill="none" stroke="#63b8ff" d="M1297.45,-170.12C1243.24,-164.87 1144.23,-152.79 1062.75,-129 1042.3,-123.03 1038.38,-118.27 1018.75,-110 944.11,-78.54 856.05,-42.64 809.47,-23.74"/>
<polygon fill="#63b8ff" stroke="#63b8ff" points="810.81,-20.51 800.23,-19.99 808.18,-26.99 810.81,-20.51"/>
</g>
<!-- Node17&#45;&gt;Node11 -->
<g id="edge24" class="edge">
<title>Node17&#45;&gt;Node11</title>
<path fill="none" stroke="#63b8ff" d="M1297.25,-173.62C1229.82,-172.69 1091.06,-165.95 980.75,-129 964.7,-123.62 963.89,-115.1 947.75,-110 776.69,-55.99 723.81,-95.71 545.75,-74 541.29,-73.46 536.64,-72.83 532.01,-72.17"/>
<polygon fill="#63b8ff" stroke="#63b8ff" points="532.58,-68.71 522.17,-70.7 531.55,-75.64 532.58,-68.71"/>
</g>
<!-- Node17&#45;&gt;Node15 -->
<g id="edge34" class="edge">
<title>Node17&#45;&gt;Node15</title>
<path fill="none" stroke="#63b8ff" d="M1297.26,-170.59C1207.1,-164.01 982.99,-147.15 795.75,-129 784.15,-127.88 771.58,-126.52 760.06,-125.23"/>
<polygon fill="#63b8ff" stroke="#63b8ff" points="760.8,-121.79 750.47,-124.14 760.01,-128.75 760.8,-121.79"/>
</g>
<!-- Node18 -->
<g id="node18" class="node">
<title>Node18</title>
<g id="a_node18"><a xlink:title=" ">
<polygon fill="#e0e0e0" stroke="#999999" points="1230.25,-129 1071.25,-129 1071.25,-110 1230.25,-110 1230.25,-129"/>
<text text-anchor="middle" x="1150.75" y="-117" font-family="Helvetica,sans-Serif" font-size="10.00">SFML/Graphics/Drawable.hpp</text>
</a>
</g>
</g>
<!-- Node17&#45;&gt;Node18 -->
<g id="edge26" class="edge">
<title>Node17&#45;&gt;Node18</title>
<path fill="none" stroke="#63b8ff" d="M1306.03,-164.51C1274.91,-155.69 1227.25,-142.18 1192.95,-132.46"/>
<polygon fill="#63b8ff" stroke="#63b8ff" points="1194.35,-129.22 1183.77,-129.86 1192.44,-135.95 1194.35,-129.22"/>
</g>
<!-- Node17&#45;&gt;Node19 -->
<g id="edge27" class="edge">
<title>Node17&#45;&gt;Node19</title>
<path fill="none" stroke="#63b8ff" d="M1297.62,-168.94C1220.56,-160.17 1050.64,-140.85 950.29,-129.43"/>
<polygon fill="#63b8ff" stroke="#63b8ff" points="950.84,-125.97 940.51,-128.32 950.05,-132.93 950.84,-125.97"/>
</g>
<!-- Node20 -->
<g id="node20" class="node">
<title>Node20</title>
<g id="a_node20"><a xlink:title=" ">
<polygon fill="#e0e0e0" stroke="#999999" points="1426.75,-129 1248.75,-129 1248.75,-110 1426.75,-110 1426.75,-129"/>
<text text-anchor="middle" x="1337.75" y="-117" font-family="Helvetica,sans-Serif" font-size="10.00">SFML/Graphics/RenderStates.hpp</text>
</a>
</g>
</g>
<!-- Node17&#45;&gt;Node20 -->
<g id="edge28" class="edge">
<title>Node17&#45;&gt;Node20</title>
<path fill="none" stroke="#63b8ff" d="M1337.75,-164.75C1337.75,-158.27 1337.75,-149.16 1337.75,-140.9"/>
<polygon fill="#63b8ff" stroke="#63b8ff" points="1341.25,-140.96 1337.75,-130.96 1334.25,-140.96 1341.25,-140.96"/>
</g>
<!-- Node21 -->
<g id="node21" class="node">
<title>Node21</title>
<g id="a_node21"><a xlink:title=" ">
<polygon fill="#e0e0e0" stroke="#999999" points="1622.25,-129 1445.25,-129 1445.25,-110 1622.25,-110 1622.25,-129"/>
<text text-anchor="middle" x="1533.75" y="-117" font-family="Helvetica,sans-Serif" font-size="10.00">SFML/Graphics/RenderTarget.hpp</text>
</a>
</g>
</g>
<!-- Node17&#45;&gt;Node21 -->
<g id="edge29" class="edge">
<title>Node17&#45;&gt;Node21</title>
<path fill="none" stroke="#63b8ff" d="M1371,-164.51C1403.76,-155.65 1454,-142.07 1489.99,-132.33"/>
<polygon fill="#63b8ff" stroke="#63b8ff" points="1490.47,-135.83 1499.21,-129.84 1488.64,-129.07 1490.47,-135.83"/>
</g>
<!-- Node22 -->
<g id="node22" class="node">
<title>Node22</title>
<g id="a_node22"><a xlink:title=" ">
<polygon fill="#e0e0e0" stroke="#999999" points="1801.25,-129 1640.25,-129 1640.25,-110 1801.25,-110 1801.25,-129"/>
<text text-anchor="middle" x="1720.75" y="-117" font-family="Helvetica,sans-Serif" font-size="10.00">SFML/Graphics/Transform.hpp</text>
</a>
</g>
</g>
<!-- Node17&#45;&gt;Node22 -->
<g id="edge30" class="edge">
<title>Node17&#45;&gt;Node22</title>
<path fill="none" stroke="#63b8ff" d="M1378.01,-167.93C1441.21,-159.18 1564.72,-142.09 1644.93,-130.99"/>
<polygon fill="#63b8ff" stroke="#63b8ff" points="1645.02,-134.51 1654.45,-129.67 1644.07,-127.58 1645.02,-134.51"/>
</g>
<!-- Node23 -->
<g id="node23" class="node">
<title>Node23</title>
<g id="a_node23"><a xlink:title=" ">
<polygon fill="#e0e0e0" stroke="#999999" points="2001.75,-129 1819.75,-129 1819.75,-110 2001.75,-110 2001.75,-129"/>
<text text-anchor="middle" x="1910.75" y="-117" font-family="Helvetica,sans-Serif" font-size="10.00">SFML/Graphics/Transformable.hpp</text>
</a>
</g>
</g>
<!-- Node17&#45;&gt;Node23 -->
<g id="edge31" class="edge">
<title>Node17&#45;&gt;Node23</title>
<path fill="none" stroke="#63b8ff" d="M1378.04,-169.77C1466.44,-161.6 1679.73,-141.87 1808.01,-130"/>
<polygon fill="#63b8ff" stroke="#63b8ff" points="1808.24,-133.5 1817.87,-129.09 1807.59,-126.53 1808.24,-133.5"/>
</g>
<!-- Node24 -->
<g id="node24" class="node">
<title>Node24</title>
<g id="a_node24"><a xlink:title=" ">
<polygon fill="#e0e0e0" stroke="#999999" points="2191.75,-129 2019.75,-129 2019.75,-110 2191.75,-110 2191.75,-129"/>
<text text-anchor="middle" x="2105.75" y="-117" font-family="Helvetica,sans-Serif" font-size="10.00">SFML/System/NonCopyable.hpp</text>
</a>
</g>
</g>
<!-- Node17&#45;&gt;Node24 -->
<g id="edge32" class="edge">
<title>Node17&#45;&gt;Node24</title>
<path fill="none" stroke="#63b8ff" d="M1377.98,-171.17C1480.85,-165.13 1762.16,-148.19 2007.98,-129.2"/>
<polygon fill="#63b8ff" stroke="#63b8ff" points="2008.08,-132.7 2017.78,-128.44 2007.54,-125.72 2008.08,-132.7"/>
</g>
<!-- Node17&#45;&gt;Node25 -->
<g id="edge33" class="edge">
<title>Node17&#45;&gt;Node25</title>
<path fill="none" stroke="#63b8ff" d="M1377.9,-172.53C1510.1,-169.14 1944.02,-156.6 2314.56,-129.11"/>
<polygon fill="#63b8ff" stroke="#63b8ff" points="2314.56,-132.62 2324.27,-128.39 2314.04,-125.64 2314.56,-132.62"/>
</g>
<!-- Node26 -->
<g id="node26" class="node">
<title>Node26</title>
<g id="a_node26"><a xlink:title=" ">
<polygon fill="#e0e0e0" stroke="#999999" points="2257.25,-129 2210.25,-129 2210.25,-110 2257.25,-110 2257.25,-129"/>
<text text-anchor="middle" x="2233.75" y="-117" font-family="Helvetica,sans-Serif" font-size="10.00">vector</text>
</a>
</g>
</g>
<!-- Node17&#45;&gt;Node26 -->
<g id="edge35" class="edge">
<title>Node17&#45;&gt;Node26</title>
<path fill="none" stroke="#63b8ff" d="M1378.21,-172.49C1523.25,-168.71 2017.64,-154.36 2198.86,-128.86"/>
<polygon fill="#63b8ff" stroke="#63b8ff" points="2199.2,-132.35 2208.58,-127.43 2198.17,-125.42 2199.2,-132.35"/>
</g>
<!-- Node27 -->
<g id="node27" class="node">
<title>Node27</title>
<g id="a_node27"><a xlink:title=" ">
<polygon fill="#e0e0e0" stroke="#999999" points="2307.75,-129 2275.75,-129 2275.75,-110 2307.75,-110 2307.75,-129"/>
<text text-anchor="middle" x="2291.75" y="-117" font-family="Helvetica,sans-Serif" font-size="10.00">set</text>
</a>
</g>
</g>
<!-- Node17&#45;&gt;Node27 -->
<g id="edge36" class="edge">
<title>Node17&#45;&gt;Node27</title>
<path fill="none" stroke="#63b8ff" d="M1378.14,-173.07C1530.46,-171.2 2070.87,-162.46 2264.38,-128.79"/>
<polygon fill="#63b8ff" stroke="#63b8ff" points="2264.83,-132.26 2274.03,-127.02 2263.56,-125.38 2264.83,-132.26"/>
</g>
</g>
</svg>
        <g id="navigator" transform="translate(0 0)" fill="#404254">
                <rect fill="#f2f5e9" fill-opacity="0.5" stroke="#606060" stroke-width=".5" x="0" y="0" width="60" height="60"/>
                <use id="zoomplus" xlink:href="#zoomPlus" x="17" y="9" onmousedown="handleZoom(evt,'in')"/>
                <use id="zoomminus" xlink:href="#zoomMin" x="42" y="9" onmousedown="handleZoom(evt,'out')"/>
                <use id="reset" xlink:href="#resetDef" x="30" y="36" onmousedown="handleReset()"/>
                <g id="arrowUp" xlink:href="#dirArrow" transform="translate(30 24)" onmousedown="handlePan(0,-1)">
                  <use xlink:href="#rim" fill="#404040">
                        <set attributeName="fill" to="#808080" begin="arrowUp.mouseover" end="arrowUp.mouseout"/>
                  </use>
                  <path fill="none" stroke="white" stroke-width="1.5" d="M0,-3.0v7 M-2.5,-0.5L0,-3.0L2.5,-0.5"/>
                </g>
                <g id="arrowRight" xlink:href="#dirArrow" transform="rotate(90) translate(36 -43)" onmousedown="handlePan(1,0)">
                  <use xlink:href="#rim" fill="#404040">
                        <set attributeName="fill" to="#808080" begin="arrowRight.mouseover" end="arrowRight.mouseout"/>
                  </use>
                  <path fill="none" stroke="white" stroke-width="1.5" d="M0,-3.0v7 M-2.5,-0.5L0,-3.0L2.5,-0.5"/>
                </g>
                <g id="arrowDown" xlink:href="#dirArrow" transform="rotate(180) translate(-30 -48)" onmousedown="handlePan(0,1)">
                  <use xlink:href="#rim" fill="#404040">
                        <set attributeName="fill" to="#808080" begin="arrowDown.mouseover" end="arrowDown.mouseout"/>
                  </use>
                  <path fill="none" stroke="white" stroke-width="1.5" d="M0,-3.0v7 M-2.5,-0.5L0,-3.0L2.5,-0.5"/>
                </g>
                <g id="arrowLeft" xlink:href="#dirArrow" transform="rotate(270) translate(-36 17)" onmousedown="handlePan(-1,0)">
                  <use xlink:href="#rim" fill="#404040">
                        <set attributeName="fill" to="#808080" begin="arrowLeft.mouseover" end="arrowLeft.mouseout"/>
                  </use>
                  <path fill="none" stroke="white" stroke-width="1.5" d="M0,-3.0v7 M-2.5,-0.5L0,-3.0L2.5,-0.5"/>
                </g>
        </g>
        <svg viewBox="0 0 15 15" width="100%" height="30px" preserveAspectRatio="xMaxYMin meet">
         <g id="arrow_out" transform="scale(0.3 0.3)">
          <a xlink:href="Light_8h__incl_org.svg" target="_base">
           <rect id="button" ry="5" rx="5" y="6" x="6" height="38" width="38"
                fill="#f2f5e9" fill-opacity="0.5" stroke="#606060" stroke-width="1.0"/>
           <path id="arrow"
             d="M 11.500037,31.436501 C 11.940474,20.09759 22.043105,11.32322 32.158766,21.979434 L 37.068811,17.246167 C 37.068811,17.246167 37.088388,32 37.088388,32 L 22.160133,31.978069 C 22.160133,31.978069 26.997745,27.140456 26.997745,27.140456 C 18.528582,18.264221 13.291696,25.230495 11.500037,31.436501 z"
             style="fill:#404040;"/>
          </a>
         </g>
        </svg>
</svg>
