<?xml version="1.0" encoding="UTF-8" standalone="no"?>
<!DOCTYPE svg PUBLIC "-//W3C//DTD SVG 1.1//EN"
 "http://www.w3.org/Graphics/SVG/1.1/DTD/svg11.dtd">
<!-- Generated by graphviz version 7.0.5 (0)
 -->
<!-- Title: src/Light.h Pages: 1 -->
<!--zoomable 302 -->
<svg id="main" version="1.1" xmlns="http://www.w3.org/2000/svg" xmlns:xlink="http://www.w3.org/1999/xlink" xml:space="preserve" onload="init(evt)">
<style type="text/css"><![CDATA[
.edge:hover path { stroke: red; }
.edge:hover polygon { stroke: red; fill: red; }
]]></style>
<script type="text/javascript"><![CDATA[
var edges = document.getElementsByTagName('g');
if (edges && edges.length) {
  for (var i=0;i<edges.length;i++) {
    if (edges[i].id.substr(0,4)=='edge') {
      edges[i].setAttribute('class','edge');
    }
  }
}
]]></script>
        <defs>
                <circle id="rim" cx="0" cy="0" r="7"/>
                <circle id="rim2" cx="0" cy="0" r="3.5"/>
                <g id="zoomPlus">
                        <use xlink:href="#rim" fill="#404040">
                                <set attributeName="fill" to="#808080" begin="zoomplus.mouseover" end="zoomplus.mouseout"/>
                        </use>
                        <path d="M-4,0h8M0,-4v8" fill="none" stroke="white" stroke-width="1.5" pointer-events="none"/>
                </g>
                <g id="zoomMin">
                        <use xlink:href="#rim" fill="#404040">
                                <set attributeName="fill" to="#808080" begin="zoomminus.mouseover" end="zoomminus.mouseout"/>
                        </use>
                        <path d="M-4,0h8" fill="none" stroke="white" stroke-width="1.5" pointer-events="none"/>
                </g>
                <g id="dirArrow">
                        <path fill="none" stroke="white" stroke-width="1.5" d="M0,-3.0v7 M-2.5,-0.5L0,-3.0L2.5,-0.5"/>
                </g>
               <g id="resetDef">
                       <use xlink:href="#rim2" fill="#404040">
                               <set attributeName="fill" to="#808080" begin="reset.mouseover" end="reset.mouseout"/>
                       </use>
               </g>
        </defs>

<script type="text/javascript">
var viewWidth = 991;
var viewHeight = 302;
var sectionId = 'dynsection-1';
</script>
<script xlink:href="svgpan.js"/>
<svg id="graph" class="graph">
<g id="viewport">
<title>src/Light.h</title>
<!-- Node1 -->
<g id="node1" class="node">
<title>Node1</title>
<g id="a_node1"><a xlink:title=" ">
<polygon fill="#999999" stroke="#666666" points="706,-294 639,-294 639,-275 706,-275 706,-294"/>
<text text-anchor="middle" x="672.5" y="-282" font-family="Helvetica,sans-Serif" font-size="10.00">src/Light.h</text>
</a>
</g>
</g>
<!-- Node2 -->
<g id="node2" class="node">
<title>Node2</title>
<g id="a_node2"><a xlink:href="Commuters_8h.html" target="_top" xlink:title=" ">
<polygon fill="white" stroke="#666666" points="466.5,-239 366.5,-239 366.5,-220 466.5,-220 466.5,-239"/>
<text text-anchor="middle" x="416.5" y="-227" font-family="Helvetica,sans-Serif" font-size="10.00">src/Commuters.h</text>
</a>
</g>
</g>
<!-- Node1&#45;&gt;Node2 -->
<g id="edge1" class="edge">
<title>Node1&#45;&gt;Node2</title>
<path fill="none" stroke="#63b8ff" d="M627.37,-274.16C580.03,-264.36 506.18,-249.07 459.62,-239.43"/>
<polygon fill="#63b8ff" stroke="#63b8ff" points="626.52,-277.56 637.02,-276.16 627.94,-270.7 626.52,-277.56"/>
</g>
<!-- Node6 -->
<g id="node6" class="node">
<title>Node6</title>
<g id="a_node6"><a xlink:href="RoadLane_8h.html" target="_top" xlink:title=" ">
<polygon fill="white" stroke="#666666" points="617,-184 526,-184 526,-165 617,-165 617,-184"/>
<text text-anchor="middle" x="571.5" y="-172" font-family="Helvetica,sans-Serif" font-size="10.00">src/RoadLane.h</text>
</a>
</g>
</g>
<!-- Node1&#45;&gt;Node6 -->
<g id="edge27" class="edge">
<title>Node1&#45;&gt;Node6</title>
<path fill="none" stroke="#63b8ff" d="M656.53,-266.43C634.8,-243.19 596.7,-202.44 579.88,-184.46"/>
<polygon fill="#63b8ff" stroke="#63b8ff" points="653.81,-268.64 663.2,-273.56 658.93,-263.86 653.81,-268.64"/>
</g>
<!-- Node15 -->
<g id="node15" class="node">
<title>Node15</title>
<g id="a_node15"><a xlink:href="VehicleLaneController_8h.html" target="_top" xlink:title=" ">
<polygon fill="white" stroke="#666666" points="823,-74 674,-74 674,-55 823,-55 823,-74"/>
<text text-anchor="middle" x="748.5" y="-62" font-family="Helvetica,sans-Serif" font-size="10.00">src/VehicleLaneController.h</text>
</a>
</g>
</g>
<!-- Node1&#45;&gt;Node15 -->
<g id="edge28" class="edge">
<title>Node1&#45;&gt;Node15</title>
<path fill="none" stroke="#63b8ff" d="M679.33,-263.91C695.24,-218.26 734.3,-106.22 745.47,-74.19"/>
<polygon fill="#63b8ff" stroke="#63b8ff" points="676.06,-262.66 676.07,-273.25 682.67,-264.96 676.06,-262.66"/>
</g>
<!-- Node18 -->
<g id="node18" class="node">
<title>Node18</title>
<g id="a_node18"><a xlink:href="Light_8cpp.html" target="_top" xlink:title=" ">
<polygon fill="white" stroke="#666666" points="795.5,-239 717.5,-239 717.5,-220 795.5,-220 795.5,-239"/>
<text text-anchor="middle" x="756.5" y="-227" font-family="Helvetica,sans-Serif" font-size="10.00">src/Light.cpp</text>
</a>
</g>
</g>
<!-- Node1&#45;&gt;Node18 -->
<g id="edge26" class="edge">
<title>Node1&#45;&gt;Node18</title>
<path fill="none" stroke="#63b8ff" d="M696.34,-268.46C711.23,-259.06 729.9,-247.28 742.46,-239.36"/>
<polygon fill="#63b8ff" stroke="#63b8ff" points="694.62,-265.41 688.03,-273.7 698.35,-271.33 694.62,-265.41"/>
</g>
<!-- Node3 -->
<g id="node3" class="node">
<title>Node3</title>
<g id="a_node3"><a xlink:href="Commuters_8cpp.html" target="_top" xlink:title=" ">
<polygon fill="white" stroke="#666666" points="111,-184 0,-184 0,-165 111,-165 111,-184"/>
<text text-anchor="middle" x="55.5" y="-172" font-family="Helvetica,sans-Serif" font-size="10.00">src/Commuters.cpp</text>
</a>
</g>
</g>
<!-- Node2&#45;&gt;Node3 -->
<g id="edge2" class="edge">
<title>Node2&#45;&gt;Node3</title>
<path fill="none" stroke="#63b8ff" d="M355.3,-219.52C287.04,-209.49 177.56,-193.42 111.49,-183.72"/>
<polygon fill="#63b8ff" stroke="#63b8ff" points="354.4,-222.92 364.81,-220.91 355.42,-216 354.4,-222.92"/>
</g>
<!-- Node4 -->
<g id="node4" class="node">
<title>Node4</title>
<g id="a_node4"><a xlink:href="GameLoader_8cpp.html" target="_top" xlink:title=" ">
<polygon fill="white" stroke="#666666" points="515.5,-19 399.5,-19 399.5,0 515.5,0 515.5,-19"/>
<text text-anchor="middle" x="457.5" y="-7" font-family="Helvetica,sans-Serif" font-size="10.00">src/GameLoader.cpp</text>
</a>
</g>
</g>
<!-- Node2&#45;&gt;Node4 -->
<g id="edge3" class="edge">
<title>Node2&#45;&gt;Node4</title>
<path fill="none" stroke="#63b8ff" d="M365.93,-216.73C272.92,-192.85 90.24,-134.18 158.5,-55 173.99,-37.04 316.66,-22.26 399.2,-15.12"/>
<polygon fill="#63b8ff" stroke="#63b8ff" points="365.05,-220.12 375.6,-219.17 366.76,-213.33 365.05,-220.12"/>
</g>
<!-- Node5 -->
<g id="node5" class="node">
<title>Node5</title>
<g id="a_node5"><a xlink:href="RoadLane_8cpp.html" target="_top" xlink:title=" ">
<polygon fill="white" stroke="#666666" points="467.5,-129 365.5,-129 365.5,-110 467.5,-110 467.5,-129"/>
<text text-anchor="middle" x="416.5" y="-117" font-family="Helvetica,sans-Serif" font-size="10.00">src/RoadLane.cpp</text>
</a>
</g>
</g>
<!-- Node2&#45;&gt;Node5 -->
<g id="edge4" class="edge">
<title>Node2&#45;&gt;Node5</title>
<path fill="none" stroke="#63b8ff" d="M416.5,-208.24C416.5,-184.63 416.5,-146.65 416.5,-129.46"/>
<polygon fill="#63b8ff" stroke="#63b8ff" points="413,-208.15 416.5,-218.15 420,-208.15 413,-208.15"/>
</g>
<!-- Node2&#45;&gt;Node6 -->
<g id="edge5" class="edge">
<title>Node2&#45;&gt;Node6</title>
<path fill="none" stroke="#63b8ff" d="M453.48,-215.85C481.8,-206.17 520.14,-193.06 545.34,-184.45"/>
<polygon fill="#63b8ff" stroke="#63b8ff" points="452.56,-212.47 444.23,-219.02 454.82,-219.1 452.56,-212.47"/>
</g>
<!-- Node6&#45;&gt;Node5 -->
<g id="edge7" class="edge">
<title>Node6&#45;&gt;Node5</title>
<path fill="none" stroke="#63b8ff" d="M534.52,-160.85C506.2,-151.17 467.86,-138.06 442.66,-129.45"/>
<polygon fill="#63b8ff" stroke="#63b8ff" points="533.18,-164.1 543.77,-164.02 535.44,-157.47 533.18,-164.1"/>
</g>
<!-- Node7 -->
<g id="node7" class="node">
<title>Node7</title>
<g id="a_node7"><a xlink:href="LevelGenerator_8cpp.html" target="_top" xlink:title=" ">
<polygon fill="white" stroke="#666666" points="969.5,-74 841.5,-74 841.5,-55 969.5,-55 969.5,-74"/>
<text text-anchor="middle" x="905.5" y="-62" font-family="Helvetica,sans-Serif" font-size="10.00">src/LevelGenerator.cpp</text>
</a>
</g>
</g>
<!-- Node6&#45;&gt;Node7 -->
<g id="edge6" class="edge">
<title>Node6&#45;&gt;Node7</title>
<path fill="none" stroke="#63b8ff" d="M609.78,-161.12C677.84,-139.12 818.31,-93.69 877.85,-74.44"/>
<polygon fill="#63b8ff" stroke="#63b8ff" points="608.99,-157.7 600.56,-164.1 611.15,-164.36 608.99,-157.7"/>
</g>
<!-- Node8 -->
<g id="node8" class="node">
<title>Node8</title>
<g id="a_node8"><a xlink:href="RoadLaneController_8h.html" target="_top" xlink:title=" ">
<polygon fill="white" stroke="#666666" points="623.5,-129 485.5,-129 485.5,-110 623.5,-110 623.5,-129"/>
<text text-anchor="middle" x="554.5" y="-117" font-family="Helvetica,sans-Serif" font-size="10.00">src/RoadLaneController.h</text>
</a>
</g>
</g>
<!-- Node6&#45;&gt;Node8 -->
<g id="edge8" class="edge">
<title>Node6&#45;&gt;Node8</title>
<path fill="none" stroke="#63b8ff" d="M565.22,-153.93C562.53,-145.53 559.51,-136.13 557.37,-129.44"/>
<polygon fill="#63b8ff" stroke="#63b8ff" points="561.84,-154.85 568.23,-163.31 568.51,-152.72 561.84,-154.85"/>
</g>
<!-- Node17 -->
<g id="node17" class="node">
<title>Node17</title>
<g id="a_node17"><a xlink:href="SceneBuilder_8h.html" target="_top" xlink:title=" ">
<polygon fill="white" stroke="#666666" points="958.5,-129 852.5,-129 852.5,-110 958.5,-110 958.5,-129"/>
<text text-anchor="middle" x="905.5" y="-117" font-family="Helvetica,sans-Serif" font-size="10.00">src/SceneBuilder.h</text>
</a>
</g>
</g>
<!-- Node6&#45;&gt;Node17 -->
<g id="edge23" class="edge">
<title>Node6&#45;&gt;Node17</title>
<path fill="none" stroke="#63b8ff" d="M628.48,-164.46C691.09,-154.52 790.87,-138.69 852.04,-128.98"/>
<polygon fill="#63b8ff" stroke="#63b8ff" points="628.06,-160.98 618.74,-166 629.16,-167.89 628.06,-160.98"/>
</g>
<!-- Node8&#45;&gt;Node4 -->
<g id="edge13" class="edge">
<title>Node8&#45;&gt;Node4</title>
<path fill="none" stroke="#63b8ff" d="M538.89,-101.12C517.97,-77.83 481.63,-37.36 465.55,-19.46"/>
<polygon fill="#63b8ff" stroke="#63b8ff" points="536.26,-103.43 545.55,-108.54 541.47,-98.76 536.26,-103.43"/>
</g>
<!-- Node9 -->
<g id="node9" class="node">
<title>Node9</title>
<g id="a_node9"><a xlink:href="AnimalLaneController_8h.html" target="_top" xlink:title=" ">
<polygon fill="white" stroke="#666666" points="315.5,-74 167.5,-74 167.5,-55 315.5,-55 315.5,-74"/>
<text text-anchor="middle" x="241.5" y="-62" font-family="Helvetica,sans-Serif" font-size="10.00">src/AnimalLaneController.h</text>
</a>
</g>
</g>
<!-- Node8&#45;&gt;Node9 -->
<g id="edge9" class="edge">
<title>Node8&#45;&gt;Node9</title>
<path fill="none" stroke="#63b8ff" d="M490.22,-107.61C432.45,-97.83 348.64,-83.64 294.59,-74.49"/>
<polygon fill="#63b8ff" stroke="#63b8ff" points="489.47,-111.04 499.91,-109.26 490.64,-104.14 489.47,-111.04"/>
</g>
<!-- Node12 -->
<g id="node12" class="node">
<title>Node12</title>
<g id="a_node12"><a xlink:href="RiverController_8h.html" target="_top" xlink:title=" ">
<polygon fill="white" stroke="#666666" points="655.5,-74 539.5,-74 539.5,-55 655.5,-55 655.5,-74"/>
<text text-anchor="middle" x="597.5" y="-62" font-family="Helvetica,sans-Serif" font-size="10.00">src/RiverController.h</text>
</a>
</g>
</g>
<!-- Node8&#45;&gt;Node12 -->
<g id="edge14" class="edge">
<title>Node8&#45;&gt;Node12</title>
<path fill="none" stroke="#63b8ff" d="M568.75,-100.93C575.95,-92.06 584.38,-81.67 590.25,-74.44"/>
<polygon fill="#63b8ff" stroke="#63b8ff" points="566.14,-98.6 562.55,-108.57 571.57,-103.01 566.14,-98.6"/>
</g>
<!-- Node14 -->
<g id="node14" class="node">
<title>Node14</title>
<g id="a_node14"><a xlink:href="RoadLaneController_8cpp.html" target="_top" xlink:title=" ">
<polygon fill="white" stroke="#666666" points="483,-74 334,-74 334,-55 483,-55 483,-74"/>
<text text-anchor="middle" x="408.5" y="-62" font-family="Helvetica,sans-Serif" font-size="10.00">src/RoadLaneController.cpp</text>
</a>
</g>
</g>
<!-- Node8&#45;&gt;Node14 -->
<g id="edge18" class="edge">
<title>Node8&#45;&gt;Node14</title>
<path fill="none" stroke="#63b8ff" d="M518.92,-105.58C492.24,-95.9 456.41,-82.89 432.9,-74.36"/>
<polygon fill="#63b8ff" stroke="#63b8ff" points="517.72,-108.87 528.31,-108.99 520.1,-102.29 517.72,-108.87"/>
</g>
<!-- Node8&#45;&gt;Node15 -->
<g id="edge19" class="edge">
<title>Node8&#45;&gt;Node15</title>
<path fill="none" stroke="#63b8ff" d="M598.46,-106.49C634.09,-96.76 683.52,-83.25 715.75,-74.45"/>
<polygon fill="#63b8ff" stroke="#63b8ff" points="597.59,-103.1 588.87,-109.11 599.44,-109.85 597.59,-103.1"/>
</g>
<!-- Node9&#45;&gt;Node4 -->
<g id="edge11" class="edge">
<title>Node9&#45;&gt;Node4</title>
<path fill="none" stroke="#63b8ff" d="M289.16,-51.81C328.92,-42.05 384.77,-28.35 421.04,-19.45"/>
<polygon fill="#63b8ff" stroke="#63b8ff" points="288.49,-48.37 279.61,-54.15 290.16,-55.16 288.49,-48.37"/>
</g>
<!-- Node10 -->
<g id="node10" class="node">
<title>Node10</title>
<g id="a_node10"><a xlink:href="AnimalLaneController_8cpp.html" target="_top" xlink:title=" ">
<polygon fill="white" stroke="#666666" points="321,-19 162,-19 162,0 321,0 321,-19"/>
<text text-anchor="middle" x="241.5" y="-7" font-family="Helvetica,sans-Serif" font-size="10.00">src/AnimalLaneController.cpp</text>
</a>
</g>
</g>
<!-- Node9&#45;&gt;Node10 -->
<g id="edge10" class="edge">
<title>Node9&#45;&gt;Node10</title>
<path fill="none" stroke="#63b8ff" d="M241.5,-43.35C241.5,-35.1 241.5,-25.97 241.5,-19.44"/>
<polygon fill="#63b8ff" stroke="#63b8ff" points="238,-43.23 241.5,-53.23 245,-43.23 238,-43.23"/>
</g>
<!-- Node11 -->
<g id="node11" class="node">
<title>Node11</title>
<g id="a_node11"><a xlink:href="SceneBuilder_8cpp.html" target="_top" xlink:title=" ">
<polygon fill="white" stroke="#666666" points="796,-19 679,-19 679,0 796,0 796,-19"/>
<text text-anchor="middle" x="737.5" y="-7" font-family="Helvetica,sans-Serif" font-size="10.00">src/SceneBuilder.cpp</text>
</a>
</g>
</g>
<!-- Node9&#45;&gt;Node11 -->
<g id="edge12" class="edge">
<title>Node9&#45;&gt;Node11</title>
<path fill="none" stroke="#63b8ff" d="M326.88,-54.75C442.24,-42.91 637.34,-22.82 670.5,-19 673.18,-18.69 675.92,-18.37 678.68,-18.04"/>
<polygon fill="#63b8ff" stroke="#63b8ff" points="326.73,-51.25 317.14,-55.75 327.44,-58.21 326.73,-51.25"/>
</g>
<!-- Node12&#45;&gt;Node4 -->
<g id="edge15" class="edge">
<title>Node12&#45;&gt;Node4</title>
<path fill="none" stroke="#63b8ff" d="M563.04,-50.45C537.49,-40.78 503.34,-27.85 480.9,-19.36"/>
<polygon fill="#63b8ff" stroke="#63b8ff" points="561.74,-53.71 572.34,-53.97 564.22,-47.16 561.74,-53.71"/>
</g>
<!-- Node12&#45;&gt;Node11 -->
<g id="edge17" class="edge">
<title>Node12&#45;&gt;Node11</title>
<path fill="none" stroke="#63b8ff" d="M631.96,-50.45C657.51,-40.78 691.66,-27.85 714.1,-19.36"/>
<polygon fill="#63b8ff" stroke="#63b8ff" points="630.78,-47.16 622.66,-53.97 633.26,-53.71 630.78,-47.16"/>
</g>
<!-- Node13 -->
<g id="node13" class="node">
<title>Node13</title>
<g id="a_node13"><a xlink:href="RiverController_8cpp.html" target="_top" xlink:title=" ">
<polygon fill="white" stroke="#666666" points="661,-19 534,-19 534,0 661,0 661,-19"/>
<text text-anchor="middle" x="597.5" y="-7" font-family="Helvetica,sans-Serif" font-size="10.00">src/RiverController.cpp</text>
</a>
</g>
</g>
<!-- Node12&#45;&gt;Node13 -->
<g id="edge16" class="edge">
<title>Node12&#45;&gt;Node13</title>
<path fill="none" stroke="#63b8ff" d="M597.5,-43.35C597.5,-35.1 597.5,-25.97 597.5,-19.44"/>
<polygon fill="#63b8ff" stroke="#63b8ff" points="594,-43.23 597.5,-53.23 601,-43.23 594,-43.23"/>
</g>
<!-- Node15&#45;&gt;Node4 -->
<g id="edge20" class="edge">
<title>Node15&#45;&gt;Node4</title>
<path fill="none" stroke="#63b8ff" d="M688.04,-52.49C634.28,-42.7 556.64,-28.56 506.62,-19.45"/>
<polygon fill="#63b8ff" stroke="#63b8ff" points="687.18,-55.89 697.65,-54.24 688.44,-49 687.18,-55.89"/>
</g>
<!-- Node15&#45;&gt;Node11 -->
<g id="edge21" class="edge">
<title>Node15&#45;&gt;Node11</title>
<path fill="none" stroke="#63b8ff" d="M744.38,-43.64C742.65,-35.31 740.73,-26.05 739.36,-19.44"/>
<polygon fill="#63b8ff" stroke="#63b8ff" points="740.92,-44.19 746.38,-53.27 747.77,-42.76 740.92,-44.19"/>
</g>
<!-- Node16 -->
<g id="node16" class="node">
<title>Node16</title>
<g id="a_node16"><a xlink:href="VehicleLaneController_8cpp.html" target="_top" xlink:title=" ">
<polygon fill="white" stroke="#666666" points="974.5,-19 814.5,-19 814.5,0 974.5,0 974.5,-19"/>
<text text-anchor="middle" x="894.5" y="-7" font-family="Helvetica,sans-Serif" font-size="10.00">src/VehicleLaneController.cpp</text>
</a>
</g>
</g>
<!-- Node15&#45;&gt;Node16 -->
<g id="edge22" class="edge">
<title>Node15&#45;&gt;Node16</title>
<path fill="none" stroke="#63b8ff" d="M784.08,-50.58C810.76,-40.9 846.59,-27.89 870.1,-19.36"/>
<polygon fill="#63b8ff" stroke="#63b8ff" points="782.9,-47.29 774.69,-53.99 785.28,-53.87 782.9,-47.29"/>
</g>
<!-- Node17&#45;&gt;Node7 -->
<g id="edge24" class="edge">
<title>Node17&#45;&gt;Node7</title>
<path fill="none" stroke="#63b8ff" d="M905.5,-98.35C905.5,-90.1 905.5,-80.97 905.5,-74.44"/>
<polygon fill="#63b8ff" stroke="#63b8ff" points="902,-98.23 905.5,-108.23 909,-98.23 902,-98.23"/>
</g>
<!-- Node17&#45;&gt;Node11 -->
<g id="edge25" class="edge">
<title>Node17&#45;&gt;Node11</title>
<path fill="none" stroke="#63b8ff" d="M940.37,-105.1C966.35,-93.13 994.74,-74.52 978.5,-55 972.65,-47.97 865.87,-30.3 796.42,-19.46"/>
<polygon fill="#63b8ff" stroke="#63b8ff" points="939.05,-101.85 931.28,-109.05 941.85,-108.27 939.05,-101.85"/>
</g>
</g>
</svg>
        <g id="navigator" transform="translate(0 0)" fill="#404254">
                <rect fill="#f2f5e9" fill-opacity="0.5" stroke="#606060" stroke-width=".5" x="0" y="0" width="60" height="60"/>
                <use id="zoomplus" xlink:href="#zoomPlus" x="17" y="9" onmousedown="handleZoom(evt,'in')"/>
                <use id="zoomminus" xlink:href="#zoomMin" x="42" y="9" onmousedown="handleZoom(evt,'out')"/>
                <use id="reset" xlink:href="#resetDef" x="30" y="36" onmousedown="handleReset()"/>
                <g id="arrowUp" xlink:href="#dirArrow" transform="translate(30 24)" onmousedown="handlePan(0,-1)">
                  <use xlink:href="#rim" fill="#404040">
                        <set attributeName="fill" to="#808080" begin="arrowUp.mouseover" end="arrowUp.mouseout"/>
                  </use>
                  <path fill="none" stroke="white" stroke-width="1.5" d="M0,-3.0v7 M-2.5,-0.5L0,-3.0L2.5,-0.5"/>
                </g>
                <g id="arrowRight" xlink:href="#dirArrow" transform="rotate(90) translate(36 -43)" onmousedown="handlePan(1,0)">
                  <use xlink:href="#rim" fill="#404040">
                        <set attributeName="fill" to="#808080" begin="arrowRight.mouseover" end="arrowRight.mouseout"/>
                  </use>
                  <path fill="none" stroke="white" stroke-width="1.5" d="M0,-3.0v7 M-2.5,-0.5L0,-3.0L2.5,-0.5"/>
                </g>
                <g id="arrowDown" xlink:href="#dirArrow" transform="rotate(180) translate(-30 -48)" onmousedown="handlePan(0,1)">
                  <use xlink:href="#rim" fill="#404040">
                        <set attributeName="fill" to="#808080" begin="arrowDown.mouseover" end="arrowDown.mouseout"/>
                  </use>
                  <path fill="none" stroke="white" stroke-width="1.5" d="M0,-3.0v7 M-2.5,-0.5L0,-3.0L2.5,-0.5"/>
                </g>
                <g id="arrowLeft" xlink:href="#dirArrow" transform="rotate(270) translate(-36 17)" onmousedown="handlePan(-1,0)">
                  <use xlink:href="#rim" fill="#404040">
                        <set attributeName="fill" to="#808080" begin="arrowLeft.mouseover" end="arrowLeft.mouseout"/>
                  </use>
                  <path fill="none" stroke="white" stroke-width="1.5" d="M0,-3.0v7 M-2.5,-0.5L0,-3.0L2.5,-0.5"/>
                </g>
        </g>
        <svg viewBox="0 0 15 15" width="100%" height="30px" preserveAspectRatio="xMaxYMin meet">
         <g id="arrow_out" transform="scale(0.3 0.3)">
          <a xlink:href="Light_8h__dep__incl_org.svg" target="_base">
           <rect id="button" ry="5" rx="5" y="6" x="6" height="38" width="38"
                fill="#f2f5e9" fill-opacity="0.5" stroke="#606060" stroke-width="1.0"/>
           <path id="arrow"
             d="M 11.500037,31.436501 C 11.940474,20.09759 22.043105,11.32322 32.158766,21.979434 L 37.068811,17.246167 C 37.068811,17.246167 37.088388,32 37.088388,32 L 22.160133,31.978069 C 22.160133,31.978069 26.997745,27.140456 26.997745,27.140456 C 18.528582,18.264221 13.291696,25.230495 11.500037,31.436501 z"
             style="fill:#404040;"/>
          </a>
         </g>
        </svg>
</svg>
