<?xml version="1.0" encoding="UTF-8" standalone="no"?>
<!DOCTYPE svg PUBLIC "-//W3C//DTD SVG 1.1//EN"
 "http://www.w3.org/Graphics/SVG/1.1/DTD/svg11.dtd">
<!-- Generated by graphviz version 7.0.5 (0)
 -->
<!-- Title: src/Light.cpp Pages: 1 -->
<!--zoomable 412 -->
<svg id="main" version="1.1" xmlns="http://www.w3.org/2000/svg" xmlns:xlink="http://www.w3.org/1999/xlink" xml:space="preserve" onload="init(evt)">
<style type="text/css"><![CDATA[
.edge:hover path { stroke: red; }
.edge:hover polygon { stroke: red; fill: red; }
]]></style>
<script type="text/javascript"><![CDATA[
var edges = document.getElementsByTagName('g');
if (edges && edges.length) {
  for (var i=0;i<edges.length;i++) {
    if (edges[i].id.substr(0,4)=='edge') {
      edges[i].setAttribute('class','edge');
    }
  }
}
]]></script>
        <defs>
                <circle id="rim" cx="0" cy="0" r="7"/>
                <circle id="rim2" cx="0" cy="0" r="3.5"/>
                <g id="zoomPlus">
                        <use xlink:href="#rim" fill="#404040">
                                <set attributeName="fill" to="#808080" begin="zoomplus.mouseover" end="zoomplus.mouseout"/>
                        </use>
                        <path d="M-4,0h8M0,-4v8" fill="none" stroke="white" stroke-width="1.5" pointer-events="none"/>
                </g>
                <g id="zoomMin">
                        <use xlink:href="#rim" fill="#404040">
                                <set attributeName="fill" to="#808080" begin="zoomminus.mouseover" end="zoomminus.mouseout"/>
                        </use>
                        <path d="M-4,0h8" fill="none" stroke="white" stroke-width="1.5" pointer-events="none"/>
                </g>
                <g id="dirArrow">
                        <path fill="none" stroke="white" stroke-width="1.5" d="M0,-3.0v7 M-2.5,-0.5L0,-3.0L2.5,-0.5"/>
                </g>
               <g id="resetDef">
                       <use xlink:href="#rim2" fill="#404040">
                               <set attributeName="fill" to="#808080" begin="reset.mouseover" end="reset.mouseout"/>
                       </use>
               </g>
        </defs>

<script type="text/javascript">
var viewWidth = 2278;
var viewHeight = 412;
var sectionId = 'dynsection-0';
</script>
<script xlink:href="svgpan.js"/>
<svg id="graph" class="graph">
<g id="viewport">
<title>src/Light.cpp</title>
<!-- Node1 -->
<g id="node1" class="node">
<title>Node1</title>
<g id="a_node1"><a xlink:title=" ">
<polygon fill="#999999" stroke="#666666" points="2171,-404 2093,-404 2093,-385 2171,-385 2171,-404"/>
<text text-anchor="middle" x="2132" y="-392" font-family="Helvetica,sans-Serif" font-size="10.00">src/Light.cpp</text>
</a>
</g>
</g>
<!-- Node2 -->
<g id="node2" class="node">
<title>Node2</title>
<g id="a_node2"><a xlink:href="Light_8h.html" target="_top" xlink:title=" ">
<polygon fill="white" stroke="#666666" points="1864,-349 1814,-349 1814,-330 1864,-330 1864,-349"/>
<text text-anchor="middle" x="1839" y="-337" font-family="Helvetica,sans-Serif" font-size="10.00">Light.h</text>
</a>
</g>
</g>
<!-- Node1&#45;&gt;Node2 -->
<g id="edge1" class="edge">
<title>Node1&#45;&gt;Node2</title>
<path fill="none" stroke="#63b8ff" d="M2092.79,-386.41C2035.72,-376.08 1930.57,-357.06 1875.23,-347.05"/>
<polygon fill="#63b8ff" stroke="#63b8ff" points="1876.17,-343.67 1865.7,-345.33 1874.92,-350.55 1876.17,-343.67"/>
</g>
<!-- Node11 -->
<g id="node11" class="node">
<title>Node11</title>
<g id="a_node11"><a xlink:href="Consts_8h.html" target="_top" xlink:title=" ">
<polygon fill="white" stroke="#666666" points="2254.5,-129 2195.5,-129 2195.5,-110 2254.5,-110 2254.5,-129"/>
<text text-anchor="middle" x="2225" y="-117" font-family="Helvetica,sans-Serif" font-size="10.00">Consts.h</text>
</a>
</g>
</g>
<!-- Node1&#45;&gt;Node11 -->
<g id="edge43" class="edge">
<title>Node1&#45;&gt;Node11</title>
<path fill="none" stroke="#63b8ff" d="M2153.79,-384.53C2186.62,-369.38 2245,-335.43 2245,-285.5 2245,-285.5 2245,-285.5 2245,-228.5 2245,-197.26 2236.81,-161.77 2230.91,-140.26"/>
<polygon fill="#63b8ff" stroke="#63b8ff" points="2234.32,-139.46 2228.2,-130.81 2227.59,-141.39 2234.32,-139.46"/>
</g>
<!-- Node15 -->
<g id="node15" class="node">
<title>Node15</title>
<g id="a_node15"><a xlink:href="TextureHolder_8h.html" target="_top" xlink:title=" ">
<polygon fill="white" stroke="#666666" points="2178.5,-184 2085.5,-184 2085.5,-165 2178.5,-165 2178.5,-184"/>
<text text-anchor="middle" x="2132" y="-172" font-family="Helvetica,sans-Serif" font-size="10.00">TextureHolder.h</text>
</a>
</g>
</g>
<!-- Node1&#45;&gt;Node15 -->
<g id="edge42" class="edge">
<title>Node1&#45;&gt;Node15</title>
<path fill="none" stroke="#63b8ff" d="M2132,-384.68C2132,-352.57 2132,-241.33 2132,-195.49"/>
<polygon fill="#63b8ff" stroke="#63b8ff" points="2135.5,-195.7 2132,-185.7 2128.5,-195.7 2135.5,-195.7"/>
</g>
<!-- Node3 -->
<g id="node3" class="node">
<title>Node3</title>
<g id="a_node3"><a xlink:href="Entity_8h.html" target="_top" xlink:title=" ">
<polygon fill="white" stroke="#666666" points="1625.5,-294 1572.5,-294 1572.5,-275 1625.5,-275 1625.5,-294"/>
<text text-anchor="middle" x="1599" y="-282" font-family="Helvetica,sans-Serif" font-size="10.00">Entity.h</text>
</a>
</g>
</g>
<!-- Node2&#45;&gt;Node3 -->
<g id="edge2" class="edge">
<title>Node2&#45;&gt;Node3</title>
<path fill="none" stroke="#63b8ff" d="M1813.77,-332.93C1771.54,-323.6 1686.33,-304.79 1636.88,-293.86"/>
<polygon fill="#63b8ff" stroke="#63b8ff" points="1637.71,-290.46 1627.19,-291.73 1636.2,-297.3 1637.71,-290.46"/>
</g>
<!-- Node4 -->
<g id="node4" class="node">
<title>Node4</title>
<g id="a_node4"><a xlink:href="AnimationMachine_8h.html" target="_top" xlink:title=" ">
<polygon fill="white" stroke="#666666" points="1937.5,-239 1820.5,-239 1820.5,-220 1937.5,-220 1937.5,-239"/>
<text text-anchor="middle" x="1879" y="-227" font-family="Helvetica,sans-Serif" font-size="10.00">AnimationMachine.h</text>
</a>
</g>
</g>
<!-- Node3&#45;&gt;Node4 -->
<g id="edge3" class="edge">
<title>Node3&#45;&gt;Node4</title>
<path fill="none" stroke="#63b8ff" d="M1625.85,-278.42C1670.4,-269.98 1760.63,-252.91 1820.45,-241.58"/>
<polygon fill="#63b8ff" stroke="#63b8ff" points="1820.95,-245.05 1830.13,-239.75 1819.65,-238.17 1820.95,-245.05"/>
</g>
<!-- Node8 -->
<g id="node8" class="node">
<title>Node8</title>
<g id="a_node8"><a xlink:title=" ">
<polygon fill="#e0e0e0" stroke="#999999" points="1664.5,-184 1533.5,-184 1533.5,-165 1664.5,-165 1664.5,-184"/>
<text text-anchor="middle" x="1599" y="-172" font-family="Helvetica,sans-Serif" font-size="10.00">SFML/System/Time.hpp</text>
</a>
</g>
</g>
<!-- Node3&#45;&gt;Node8 -->
<g id="edge40" class="edge">
<title>Node3&#45;&gt;Node8</title>
<path fill="none" stroke="#63b8ff" d="M1599,-274.66C1599,-257.57 1599,-219.61 1599,-195.92"/>
<polygon fill="#63b8ff" stroke="#63b8ff" points="1602.5,-195.97 1599,-185.97 1595.5,-195.97 1602.5,-195.97"/>
</g>
<!-- Node12 -->
<g id="node12" class="node">
<title>Node12</title>
<g id="a_node12"><a xlink:href="Enums_8h.html" target="_top" xlink:title=" ">
<polygon fill="white" stroke="#666666" points="2140.5,-74 2081.5,-74 2081.5,-55 2140.5,-55 2140.5,-74"/>
<text text-anchor="middle" x="2111" y="-62" font-family="Helvetica,sans-Serif" font-size="10.00">Enums.h</text>
</a>
</g>
</g>
<!-- Node3&#45;&gt;Node12 -->
<g id="edge23" class="edge">
<title>Node3&#45;&gt;Node12</title>
<path fill="none" stroke="#63b8ff" d="M1625.77,-281.57C1729.94,-273.71 2107.6,-241.71 2211,-184 2246.1,-164.41 2287.1,-142.17 2263,-110 2249.65,-92.19 2192.4,-79.11 2152.1,-71.9"/>
<polygon fill="#63b8ff" stroke="#63b8ff" points="2152.93,-68.49 2142.48,-70.24 2151.73,-75.39 2152.93,-68.49"/>
</g>
<!-- Node18 -->
<g id="node18" class="node">
<title>Node18</title>
<g id="a_node18"><a xlink:href="SceneNode_8h.html" target="_top" xlink:title=" ">
<polygon fill="white" stroke="#666666" points="1355,-184 1275,-184 1275,-165 1355,-165 1355,-184"/>
<text text-anchor="middle" x="1315" y="-172" font-family="Helvetica,sans-Serif" font-size="10.00">SceneNode.h</text>
</a>
</g>
</g>
<!-- Node3&#45;&gt;Node18 -->
<g id="edge24" class="edge">
<title>Node3&#45;&gt;Node18</title>
<path fill="none" stroke="#63b8ff" d="M1575.76,-274.66C1525.73,-255.64 1407.63,-210.73 1349.1,-188.47"/>
<polygon fill="#63b8ff" stroke="#63b8ff" points="1350.57,-185.28 1339.98,-185 1348.08,-191.82 1350.57,-185.28"/>
</g>
<!-- Node20 -->
<g id="node20" class="node">
<title>Node20</title>
<g id="a_node20"><a xlink:title=" ">
<polygon fill="#e0e0e0" stroke="#999999" points="134,-129 0,-129 0,-110 134,-110 134,-129"/>
<text text-anchor="middle" x="67" y="-117" font-family="Helvetica,sans-Serif" font-size="10.00">SFML/Graphics/Rect.hpp</text>
</a>
</g>
</g>
<!-- Node3&#45;&gt;Node20 -->
<g id="edge39" class="edge">
<title>Node3&#45;&gt;Node20</title>
<path fill="none" stroke="#63b8ff" d="M1572.19,-280.71C1427.97,-265.7 729.37,-192.86 145.31,-129.25"/>
<polygon fill="#63b8ff" stroke="#63b8ff" points="145.96,-125.8 135.64,-128.19 145.2,-132.76 145.96,-125.8"/>
</g>
<!-- Node26 -->
<g id="node26" class="node">
<title>Node26</title>
<g id="a_node26"><a xlink:title=" ">
<polygon fill="#e0e0e0" stroke="#999999" points="1664.5,-129 1521.5,-129 1521.5,-110 1664.5,-110 1664.5,-129"/>
<text text-anchor="middle" x="1593" y="-117" font-family="Helvetica,sans-Serif" font-size="10.00">SFML/System/Vector2.hpp</text>
</a>
</g>
</g>
<!-- Node3&#45;&gt;Node26 -->
<g id="edge41" class="edge">
<title>Node3&#45;&gt;Node26</title>
<path fill="none" stroke="#63b8ff" d="M1588.94,-274.59C1571.67,-258.53 1536.98,-222.77 1524,-184 1521.32,-175.99 1519.96,-172.41 1524,-165 1531.32,-151.57 1544.63,-141.58 1557.62,-134.5"/>
<polygon fill="#63b8ff" stroke="#63b8ff" points="1559.08,-137.69 1566.49,-130.12 1555.97,-131.41 1559.08,-137.69"/>
</g>
<!-- Node5 -->
<g id="node5" class="node">
<title>Node5</title>
<g id="a_node5"><a xlink:title=" ">
<polygon fill="#e0e0e0" stroke="#999999" points="1831,-74 1721,-74 1721,-55 1831,-55 1831,-74"/>
<text text-anchor="middle" x="1776" y="-62" font-family="Helvetica,sans-Serif" font-size="10.00">SFML/Graphics.hpp</text>
</a>
</g>
</g>
<!-- Node4&#45;&gt;Node5 -->
<g id="edge4" class="edge">
<title>Node4&#45;&gt;Node5</title>
<path fill="none" stroke="#63b8ff" d="M1820.1,-223.28C1794.18,-217.71 1766.02,-206.47 1750,-184 1728.49,-153.82 1748.83,-109.14 1763.66,-84.16"/>
<polygon fill="#63b8ff" stroke="#63b8ff" points="1766.58,-86.09 1768.92,-75.75 1760.64,-82.37 1766.58,-86.09"/>
</g>
<!-- Node6 -->
<g id="node6" class="node">
<title>Node6</title>
<g id="a_node6"><a xlink:title=" ">
<polygon fill="#e0e0e0" stroke="#999999" points="1900.5,-184 1759.5,-184 1759.5,-165 1900.5,-165 1900.5,-184"/>
<text text-anchor="middle" x="1830" y="-172" font-family="Helvetica,sans-Serif" font-size="10.00">SFML/Graphics/Sprite.hpp</text>
</a>
</g>
</g>
<!-- Node4&#45;&gt;Node6 -->
<g id="edge5" class="edge">
<title>Node4&#45;&gt;Node6</title>
<path fill="none" stroke="#63b8ff" d="M1870.91,-219.75C1864.14,-212.43 1854.28,-201.76 1845.94,-192.74"/>
<polygon fill="#63b8ff" stroke="#63b8ff" points="1848.65,-190.52 1839.29,-185.55 1843.51,-195.27 1848.65,-190.52"/>
</g>
<!-- Node7 -->
<g id="node7" class="node">
<title>Node7</title>
<g id="a_node7"><a xlink:title=" ">
<polygon fill="#e0e0e0" stroke="#999999" points="2082.5,-129 1933.5,-129 1933.5,-110 2082.5,-110 2082.5,-129"/>
<text text-anchor="middle" x="2008" y="-117" font-family="Helvetica,sans-Serif" font-size="10.00">SFML/Graphics/Texture.hpp</text>
</a>
</g>
</g>
<!-- Node4&#45;&gt;Node7 -->
<g id="edge6" class="edge">
<title>Node4&#45;&gt;Node7</title>
<path fill="none" stroke="#63b8ff" d="M1937.77,-219.61C1977.79,-212.22 2025.66,-200.27 2038,-184 2048.78,-169.79 2037.45,-151.09 2025.76,-137.67"/>
<polygon fill="#63b8ff" stroke="#63b8ff" points="2028.33,-135.3 2018.91,-130.44 2023.24,-140.11 2028.33,-135.3"/>
</g>
<!-- Node4&#45;&gt;Node8 -->
<g id="edge7" class="edge">
<title>Node4&#45;&gt;Node8</title>
<path fill="none" stroke="#63b8ff" d="M1831.5,-219.51C1783.49,-210.42 1709.2,-196.36 1657.57,-186.59"/>
<polygon fill="#63b8ff" stroke="#63b8ff" points="1658.23,-183.15 1647.75,-184.73 1656.92,-190.03 1658.23,-183.15"/>
</g>
<!-- Node9 -->
<g id="node9" class="node">
<title>Node9</title>
<g id="a_node9"><a xlink:title=" ">
<polygon fill="#e0e0e0" stroke="#999999" points="2029,-184 1957,-184 1957,-165 2029,-165 2029,-184"/>
<text text-anchor="middle" x="1993" y="-172" font-family="Helvetica,sans-Serif" font-size="10.00">sys/types.h</text>
</a>
</g>
</g>
<!-- Node4&#45;&gt;Node9 -->
<g id="edge8" class="edge">
<title>Node4&#45;&gt;Node9</title>
<path fill="none" stroke="#63b8ff" d="M1898.34,-219.51C1916.22,-211.2 1943.04,-198.73 1963.57,-189.18"/>
<polygon fill="#63b8ff" stroke="#63b8ff" points="1964.98,-192.39 1972.57,-185 1962.03,-186.04 1964.98,-192.39"/>
</g>
<!-- Node10 -->
<g id="node10" class="node">
<title>Node10</title>
<g id="a_node10"><a xlink:title=" ">
<polygon fill="#e0e0e0" stroke="#999999" points="1723,-19 1663,-19 1663,0 1723,0 1723,-19"/>
<text text-anchor="middle" x="1693" y="-7" font-family="Helvetica,sans-Serif" font-size="10.00">iostream</text>
</a>
</g>
</g>
<!-- Node4&#45;&gt;Node10 -->
<g id="edge9" class="edge">
<title>Node4&#45;&gt;Node10</title>
<path fill="none" stroke="#63b8ff" d="M1820.32,-222.93C1792.19,-217.32 1760.11,-206.16 1739,-184 1698.23,-141.2 1692.62,-66.56 1692.45,-30.77"/>
<polygon fill="#63b8ff" stroke="#63b8ff" points="1695.95,-31.03 1692.57,-20.99 1688.95,-30.95 1695.95,-31.03"/>
</g>
<!-- Node4&#45;&gt;Node11 -->
<g id="edge10" class="edge">
<title>Node4&#45;&gt;Node11</title>
<path fill="none" stroke="#63b8ff" d="M1937.85,-225.96C2015.57,-221.6 2147.26,-210.47 2187,-184 2202.69,-173.55 2212.88,-154.21 2218.72,-139.61"/>
<polygon fill="#63b8ff" stroke="#63b8ff" points="2221.87,-141.19 2221.98,-130.6 2215.29,-138.81 2221.87,-141.19"/>
</g>
<!-- Node4&#45;&gt;Node12 -->
<g id="edge16" class="edge">
<title>Node4&#45;&gt;Node12</title>
<path fill="none" stroke="#63b8ff" d="M1888.66,-219.66C1901.05,-207.18 1919.76,-183.85 1909,-165 1893.39,-137.66 1863.61,-156.34 1848,-129 1843.81,-121.67 1842.55,-116.45 1848,-110 1875.91,-76.97 2003.1,-68.45 2069.84,-66.26"/>
<polygon fill="#63b8ff" stroke="#63b8ff" points="2069.77,-69.76 2079.66,-65.97 2069.56,-62.76 2069.77,-69.76"/>
</g>
<!-- Node4&#45;&gt;Node15 -->
<g id="edge17" class="edge">
<title>Node4&#45;&gt;Node15</title>
<path fill="none" stroke="#63b8ff" d="M1921.92,-219.51C1965.03,-210.48 2031.58,-196.54 2078.19,-186.77"/>
<polygon fill="#63b8ff" stroke="#63b8ff" points="2078.74,-190.23 2087.81,-184.76 2077.31,-183.38 2078.74,-190.23"/>
</g>
<!-- Node11&#45;&gt;Node5 -->
<g id="edge11" class="edge">
<title>Node11&#45;&gt;Node5</title>
<path fill="none" stroke="#63b8ff" d="M2195.25,-111.67C2192.14,-111.06 2189.01,-110.49 2186,-110 2065.52,-90.39 1923.68,-77.16 1842.36,-70.51"/>
<polygon fill="#63b8ff" stroke="#63b8ff" points="1843.05,-67.06 1832.8,-69.74 1842.49,-74.04 1843.05,-67.06"/>
</g>
<!-- Node11&#45;&gt;Node12 -->
<g id="edge12" class="edge">
<title>Node11&#45;&gt;Node12</title>
<path fill="none" stroke="#63b8ff" d="M2205.66,-109.51C2187.78,-101.2 2160.96,-88.73 2140.43,-79.18"/>
<polygon fill="#63b8ff" stroke="#63b8ff" points="2141.97,-76.04 2131.43,-75 2139.02,-82.39 2141.97,-76.04"/>
</g>
<!-- Node13 -->
<g id="node13" class="node">
<title>Node13</title>
<g id="a_node13"><a xlink:href="Random_8h.html" target="_top" xlink:title=" ">
<polygon fill="white" stroke="#666666" points="2241,-74 2175,-74 2175,-55 2241,-55 2241,-74"/>
<text text-anchor="middle" x="2208" y="-62" font-family="Helvetica,sans-Serif" font-size="10.00">Random.h</text>
</a>
</g>
</g>
<!-- Node11&#45;&gt;Node13 -->
<g id="edge13" class="edge">
<title>Node11&#45;&gt;Node13</title>
<path fill="none" stroke="#63b8ff" d="M2222.19,-109.75C2220.06,-103.11 2217.06,-93.73 2214.36,-85.31"/>
<polygon fill="#63b8ff" stroke="#63b8ff" points="2217.72,-84.34 2211.33,-75.88 2211.05,-86.47 2217.72,-84.34"/>
</g>
<!-- Node13&#45;&gt;Node10 -->
<g id="edge15" class="edge">
<title>Node13&#45;&gt;Node10</title>
<path fill="none" stroke="#63b8ff" d="M2174.65,-58.42C2166.28,-57.22 2157.32,-56.01 2149,-55 1996.58,-36.59 1814.79,-20.65 1734.56,-13.91"/>
<polygon fill="#63b8ff" stroke="#63b8ff" points="1735.24,-10.46 1724.98,-13.11 1734.65,-17.43 1735.24,-10.46"/>
</g>
<!-- Node14 -->
<g id="node14" class="node">
<title>Node14</title>
<g id="a_node14"><a xlink:title=" ">
<polygon fill="#e0e0e0" stroke="#999999" points="2235,-19 2181,-19 2181,0 2235,0 2235,-19"/>
<text text-anchor="middle" x="2208" y="-7" font-family="Helvetica,sans-Serif" font-size="10.00">random</text>
</a>
</g>
</g>
<!-- Node13&#45;&gt;Node14 -->
<g id="edge14" class="edge">
<title>Node13&#45;&gt;Node14</title>
<path fill="none" stroke="#63b8ff" d="M2208,-54.75C2208,-48.27 2208,-39.16 2208,-30.9"/>
<polygon fill="#63b8ff" stroke="#63b8ff" points="2211.5,-30.96 2208,-20.96 2204.5,-30.96 2211.5,-30.96"/>
</g>
<!-- Node15&#45;&gt;Node7 -->
<g id="edge20" class="edge">
<title>Node15&#45;&gt;Node7</title>
<path fill="none" stroke="#63b8ff" d="M2110.97,-164.51C2091.25,-156.08 2061.53,-143.38 2039.09,-133.79"/>
<polygon fill="#63b8ff" stroke="#63b8ff" points="2040.69,-130.66 2030.12,-129.95 2037.94,-137.1 2040.69,-130.66"/>
</g>
<!-- Node15&#45;&gt;Node11 -->
<g id="edge22" class="edge">
<title>Node15&#45;&gt;Node11</title>
<path fill="none" stroke="#63b8ff" d="M2147.78,-164.51C2162.02,-156.39 2183.24,-144.3 2199.83,-134.85"/>
<polygon fill="#63b8ff" stroke="#63b8ff" points="2201.19,-138.1 2208.14,-130.11 2197.72,-132.02 2201.19,-138.1"/>
</g>
<!-- Node15&#45;&gt;Node12 -->
<g id="edge21" class="edge">
<title>Node15&#45;&gt;Node12</title>
<path fill="none" stroke="#63b8ff" d="M2130.28,-164.66C2126.94,-147.5 2119.51,-109.26 2114.91,-85.6"/>
<polygon fill="#63b8ff" stroke="#63b8ff" points="2118.38,-85.09 2113.03,-75.95 2111.5,-86.43 2118.38,-85.09"/>
</g>
<!-- Node16 -->
<g id="node16" class="node">
<title>Node16</title>
<g id="a_node16"><a xlink:title=" ">
<polygon fill="#e0e0e0" stroke="#999999" points="1915,-129 1857,-129 1857,-110 1915,-110 1915,-129"/>
<text text-anchor="middle" x="1886" y="-117" font-family="Helvetica,sans-Serif" font-size="10.00">memory</text>
</a>
</g>
</g>
<!-- Node15&#45;&gt;Node16 -->
<g id="edge18" class="edge">
<title>Node15&#45;&gt;Node16</title>
<path fill="none" stroke="#63b8ff" d="M2089.75,-164.58C2050.09,-156.18 1988.8,-143.13 1926.65,-129.57"/>
<polygon fill="#63b8ff" stroke="#63b8ff" points="1927.45,-126.16 1916.93,-127.44 1925.95,-133 1927.45,-126.16"/>
</g>
<!-- Node17 -->
<g id="node17" class="node">
<title>Node17</title>
<g id="a_node17"><a xlink:title=" ">
<polygon fill="#e0e0e0" stroke="#999999" points="2177,-129 2139,-129 2139,-110 2177,-110 2177,-129"/>
<text text-anchor="middle" x="2158" y="-117" font-family="Helvetica,sans-Serif" font-size="10.00">map</text>
</a>
</g>
</g>
<!-- Node15&#45;&gt;Node17 -->
<g id="edge19" class="edge">
<title>Node15&#45;&gt;Node17</title>
<path fill="none" stroke="#63b8ff" d="M2136.29,-164.75C2139.62,-157.96 2144.36,-148.3 2148.56,-139.73"/>
<polygon fill="#63b8ff" stroke="#63b8ff" points="2151.68,-141.32 2152.95,-130.8 2145.4,-138.24 2151.68,-141.32"/>
</g>
<!-- Node18&#45;&gt;Node5 -->
<g id="edge26" class="edge">
<title>Node18&#45;&gt;Node5</title>
<path fill="none" stroke="#63b8ff" d="M1338.58,-164.54C1362.04,-155.6 1399.04,-141.45 1431,-129 1452.38,-120.67 1456.84,-115.96 1479,-110 1556.69,-89.1 1648.63,-77.23 1709.41,-71.09"/>
<polygon fill="#63b8ff" stroke="#63b8ff" points="1709.65,-74.59 1719.26,-70.13 1708.96,-67.62 1709.65,-74.59"/>
</g>
<!-- Node18&#45;&gt;Node10 -->
<g id="edge38" class="edge">
<title>Node18&#45;&gt;Node10</title>
<path fill="none" stroke="#63b8ff" d="M1331.93,-164.61C1348.76,-155.74 1375.28,-141.63 1398,-129 1412.79,-120.78 1415.71,-117.25 1431,-110 1508.21,-73.4 1602.78,-40.19 1654.56,-22.94"/>
<polygon fill="#63b8ff" stroke="#63b8ff" points="1655.41,-26.35 1663.81,-19.89 1653.22,-19.7 1655.41,-26.35"/>
</g>
<!-- Node18&#45;&gt;Node12 -->
<g id="edge25" class="edge">
<title>Node18&#45;&gt;Node12</title>
<path fill="none" stroke="#63b8ff" d="M1351.22,-164.51C1382.72,-156.35 1429.37,-143.41 1469,-129 1488.64,-121.86 1491.73,-115.07 1512,-110 1618.12,-83.46 1952.59,-70.53 2069.88,-66.73"/>
<polygon fill="#63b8ff" stroke="#63b8ff" points="2069.78,-70.24 2079.66,-66.42 2069.55,-63.24 2069.78,-70.24"/>
</g>
<!-- Node18&#45;&gt;Node16 -->
<g id="edge35" class="edge">
<title>Node18&#45;&gt;Node16</title>
<path fill="none" stroke="#63b8ff" d="M1355.15,-169.77C1459.77,-160.06 1739.9,-134.06 1845.22,-124.29"/>
<polygon fill="#63b8ff" stroke="#63b8ff" points="1845.46,-127.78 1855.09,-123.37 1844.81,-120.81 1845.46,-127.78"/>
</g>
<!-- Node19 -->
<g id="node19" class="node">
<title>Node19</title>
<g id="a_node19"><a xlink:title=" ">
<polygon fill="#e0e0e0" stroke="#999999" points="311.5,-129 152.5,-129 152.5,-110 311.5,-110 311.5,-129"/>
<text text-anchor="middle" x="232" y="-117" font-family="Helvetica,sans-Serif" font-size="10.00">SFML/Graphics/Drawable.hpp</text>
</a>
</g>
</g>
<!-- Node18&#45;&gt;Node19 -->
<g id="edge27" class="edge">
<title>Node18&#45;&gt;Node19</title>
<path fill="none" stroke="#63b8ff" d="M1274.72,-172.43C1141.08,-168.71 700.01,-155.21 322.98,-129.1"/>
<polygon fill="#63b8ff" stroke="#63b8ff" points="323.29,-125.61 313.07,-128.4 322.8,-132.59 323.29,-125.61"/>
</g>
<!-- Node18&#45;&gt;Node20 -->
<g id="edge28" class="edge">
<title>Node18&#45;&gt;Node20</title>
<path fill="none" stroke="#63b8ff" d="M1274.71,-173.04C1126.16,-171.13 594.83,-162.28 145.38,-129.11"/>
<polygon fill="#63b8ff" stroke="#63b8ff" points="145.85,-125.64 135.62,-128.39 145.33,-132.62 145.85,-125.64"/>
</g>
<!-- Node21 -->
<g id="node21" class="node">
<title>Node21</title>
<g id="a_node21"><a xlink:title=" ">
<polygon fill="#e0e0e0" stroke="#999999" points="508,-129 330,-129 330,-110 508,-110 508,-129"/>
<text text-anchor="middle" x="419" y="-117" font-family="Helvetica,sans-Serif" font-size="10.00">SFML/Graphics/RenderStates.hpp</text>
</a>
</g>
</g>
<!-- Node18&#45;&gt;Node21 -->
<g id="edge29" class="edge">
<title>Node18&#45;&gt;Node21</title>
<path fill="none" stroke="#63b8ff" d="M1274.7,-171.69C1159.09,-166.41 816.16,-150.1 519.86,-129.18"/>
<polygon fill="#63b8ff" stroke="#63b8ff" points="520.18,-125.7 509.96,-128.48 519.69,-132.68 520.18,-125.7"/>
</g>
<!-- Node22 -->
<g id="node22" class="node">
<title>Node22</title>
<g id="a_node22"><a xlink:title=" ">
<polygon fill="#e0e0e0" stroke="#999999" points="703.5,-129 526.5,-129 526.5,-110 703.5,-110 703.5,-129"/>
<text text-anchor="middle" x="615" y="-117" font-family="Helvetica,sans-Serif" font-size="10.00">SFML/Graphics/RenderTarget.hpp</text>
</a>
</g>
</g>
<!-- Node18&#45;&gt;Node22 -->
<g id="edge30" class="edge">
<title>Node18&#45;&gt;Node22</title>
<path fill="none" stroke="#63b8ff" d="M1274.76,-170.72C1179.52,-164.11 932.51,-146.71 715.11,-129.24"/>
<polygon fill="#63b8ff" stroke="#63b8ff" points="715.56,-125.77 705.31,-128.45 715,-132.74 715.56,-125.77"/>
</g>
<!-- Node23 -->
<g id="node23" class="node">
<title>Node23</title>
<g id="a_node23"><a xlink:title=" ">
<polygon fill="#e0e0e0" stroke="#999999" points="882.5,-129 721.5,-129 721.5,-110 882.5,-110 882.5,-129"/>
<text text-anchor="middle" x="802" y="-117" font-family="Helvetica,sans-Serif" font-size="10.00">SFML/Graphics/Transform.hpp</text>
</a>
</g>
</g>
<!-- Node18&#45;&gt;Node23 -->
<g id="edge31" class="edge">
<title>Node18&#45;&gt;Node23</title>
<path fill="none" stroke="#63b8ff" d="M1274.75,-169.34C1193.22,-160.92 1006.78,-141.66 893.92,-130"/>
<polygon fill="#63b8ff" stroke="#63b8ff" points="894.37,-126.52 884.07,-128.98 893.65,-133.49 894.37,-126.52"/>
</g>
<!-- Node24 -->
<g id="node24" class="node">
<title>Node24</title>
<g id="a_node24"><a xlink:title=" ">
<polygon fill="#e0e0e0" stroke="#999999" points="1083,-129 901,-129 901,-110 1083,-110 1083,-129"/>
<text text-anchor="middle" x="992" y="-117" font-family="Helvetica,sans-Serif" font-size="10.00">SFML/Graphics/Transformable.hpp</text>
</a>
</g>
</g>
<!-- Node18&#45;&gt;Node24 -->
<g id="edge32" class="edge">
<title>Node18&#45;&gt;Node24</title>
<path fill="none" stroke="#63b8ff" d="M1274.74,-166.89C1220.5,-157.99 1123.26,-142.04 1058.18,-131.36"/>
<polygon fill="#63b8ff" stroke="#63b8ff" points="1058.75,-127.91 1048.31,-129.74 1057.62,-134.81 1058.75,-127.91"/>
</g>
<!-- Node25 -->
<g id="node25" class="node">
<title>Node25</title>
<g id="a_node25"><a xlink:title=" ">
<polygon fill="#e0e0e0" stroke="#999999" points="1273,-129 1101,-129 1101,-110 1273,-110 1273,-129"/>
<text text-anchor="middle" x="1187" y="-117" font-family="Helvetica,sans-Serif" font-size="10.00">SFML/System/NonCopyable.hpp</text>
</a>
</g>
</g>
<!-- Node18&#45;&gt;Node25 -->
<g id="edge33" class="edge">
<title>Node18&#45;&gt;Node25</title>
<path fill="none" stroke="#63b8ff" d="M1293.29,-164.51C1272.84,-156.04 1241.98,-143.27 1218.77,-133.66"/>
<polygon fill="#63b8ff" stroke="#63b8ff" points="1220.37,-130.53 1209.79,-129.94 1217.69,-137 1220.37,-130.53"/>
</g>
<!-- Node18&#45;&gt;Node26 -->
<g id="edge34" class="edge">
<title>Node18&#45;&gt;Node26</title>
<path fill="none" stroke="#63b8ff" d="M1355.42,-165.79C1402.66,-156.79 1481.2,-141.82 1534.94,-131.57"/>
<polygon fill="#63b8ff" stroke="#63b8ff" points="1535.36,-135.05 1544.53,-129.74 1534.05,-128.18 1535.36,-135.05"/>
</g>
<!-- Node27 -->
<g id="node27" class="node">
<title>Node27</title>
<g id="a_node27"><a xlink:title=" ">
<polygon fill="#e0e0e0" stroke="#999999" points="1338.5,-129 1291.5,-129 1291.5,-110 1338.5,-110 1338.5,-129"/>
<text text-anchor="middle" x="1315" y="-117" font-family="Helvetica,sans-Serif" font-size="10.00">vector</text>
</a>
</g>
</g>
<!-- Node18&#45;&gt;Node27 -->
<g id="edge36" class="edge">
<title>Node18&#45;&gt;Node27</title>
<path fill="none" stroke="#63b8ff" d="M1315,-164.75C1315,-158.27 1315,-149.16 1315,-140.9"/>
<polygon fill="#63b8ff" stroke="#63b8ff" points="1318.5,-140.96 1315,-130.96 1311.5,-140.96 1318.5,-140.96"/>
</g>
<!-- Node28 -->
<g id="node28" class="node">
<title>Node28</title>
<g id="a_node28"><a xlink:title=" ">
<polygon fill="#e0e0e0" stroke="#999999" points="1389,-129 1357,-129 1357,-110 1389,-110 1389,-129"/>
<text text-anchor="middle" x="1373" y="-117" font-family="Helvetica,sans-Serif" font-size="10.00">set</text>
</a>
</g>
</g>
<!-- Node18&#45;&gt;Node28 -->
<g id="edge37" class="edge">
<title>Node18&#45;&gt;Node28</title>
<path fill="none" stroke="#63b8ff" d="M1324.84,-164.51C1333.05,-157 1344.98,-146.1 1354.91,-137.03"/>
<polygon fill="#63b8ff" stroke="#63b8ff" points="1357.17,-139.71 1362.19,-130.38 1352.45,-134.54 1357.17,-139.71"/>
</g>
</g>
</svg>
        <g id="navigator" transform="translate(0 0)" fill="#404254">
                <rect fill="#f2f5e9" fill-opacity="0.5" stroke="#606060" stroke-width=".5" x="0" y="0" width="60" height="60"/>
                <use id="zoomplus" xlink:href="#zoomPlus" x="17" y="9" onmousedown="handleZoom(evt,'in')"/>
                <use id="zoomminus" xlink:href="#zoomMin" x="42" y="9" onmousedown="handleZoom(evt,'out')"/>
                <use id="reset" xlink:href="#resetDef" x="30" y="36" onmousedown="handleReset()"/>
                <g id="arrowUp" xlink:href="#dirArrow" transform="translate(30 24)" onmousedown="handlePan(0,-1)">
                  <use xlink:href="#rim" fill="#404040">
                        <set attributeName="fill" to="#808080" begin="arrowUp.mouseover" end="arrowUp.mouseout"/>
                  </use>
                  <path fill="none" stroke="white" stroke-width="1.5" d="M0,-3.0v7 M-2.5,-0.5L0,-3.0L2.5,-0.5"/>
                </g>
                <g id="arrowRight" xlink:href="#dirArrow" transform="rotate(90) translate(36 -43)" onmousedown="handlePan(1,0)">
                  <use xlink:href="#rim" fill="#404040">
                        <set attributeName="fill" to="#808080" begin="arrowRight.mouseover" end="arrowRight.mouseout"/>
                  </use>
                  <path fill="none" stroke="white" stroke-width="1.5" d="M0,-3.0v7 M-2.5,-0.5L0,-3.0L2.5,-0.5"/>
                </g>
                <g id="arrowDown" xlink:href="#dirArrow" transform="rotate(180) translate(-30 -48)" onmousedown="handlePan(0,1)">
                  <use xlink:href="#rim" fill="#404040">
                        <set attributeName="fill" to="#808080" begin="arrowDown.mouseover" end="arrowDown.mouseout"/>
                  </use>
                  <path fill="none" stroke="white" stroke-width="1.5" d="M0,-3.0v7 M-2.5,-0.5L0,-3.0L2.5,-0.5"/>
                </g>
                <g id="arrowLeft" xlink:href="#dirArrow" transform="rotate(270) translate(-36 17)" onmousedown="handlePan(-1,0)">
                  <use xlink:href="#rim" fill="#404040">
                        <set attributeName="fill" to="#808080" begin="arrowLeft.mouseover" end="arrowLeft.mouseout"/>
                  </use>
                  <path fill="none" stroke="white" stroke-width="1.5" d="M0,-3.0v7 M-2.5,-0.5L0,-3.0L2.5,-0.5"/>
                </g>
        </g>
        <svg viewBox="0 0 15 15" width="100%" height="30px" preserveAspectRatio="xMaxYMin meet">
         <g id="arrow_out" transform="scale(0.3 0.3)">
          <a xlink:href="Light_8cpp__incl_org.svg" target="_base">
           <rect id="button" ry="5" rx="5" y="6" x="6" height="38" width="38"
                fill="#f2f5e9" fill-opacity="0.5" stroke="#606060" stroke-width="1.0"/>
           <path id="arrow"
             d="M 11.500037,31.436501 C 11.940474,20.09759 22.043105,11.32322 32.158766,21.979434 L 37.068811,17.246167 C 37.068811,17.246167 37.088388,32 37.088388,32 L 22.160133,31.978069 C 22.160133,31.978069 26.997745,27.140456 26.997745,27.140456 C 18.528582,18.264221 13.291696,25.230495 11.500037,31.436501 z"
             style="fill:#404040;"/>
          </a>
         </g>
        </svg>
</svg>
