<?xml version="1.0" encoding="UTF-8" standalone="no"?>
<!DOCTYPE svg PUBLIC "-//W3C//DTD SVG 1.1//EN"
 "http://www.w3.org/Graphics/SVG/1.1/DTD/svg11.dtd">
<!-- Generated by graphviz version 7.0.5 (0)
 -->
<!-- Title: src/Obstacle.h Pages: 1 -->
<svg width="1068pt" height="302pt"
 viewBox="0.00 0.00 1067.50 302.00" xmlns="http://www.w3.org/2000/svg" xmlns:xlink="http://www.w3.org/1999/xlink">
<g id="graph0" class="graph" transform="scale(1 1) rotate(0) translate(4 298)">
<title>src/Obstacle.h</title>
<!-- Node1 -->
<g id="node1" class="node">
<title>Node1</title>
<g id="a_node1"><a xlink:title=" ">
<polygon fill="#999999" stroke="#666666" points="893,-294 807,-294 807,-275 893,-275 893,-294"/>
<text text-anchor="middle" x="850" y="-282" font-family="Helvetica,sans-Serif" font-size="10.00">src/Obstacle.h</text>
</a>
</g>
</g>
<!-- Node2 -->
<g id="node2" class="node">
<title>Node2</title>
<g id="a_node2"><a xlink:href="Commuters_8h.html" target="_top" xlink:title=" ">
<polygon fill="white" stroke="#666666" points="816,-239 716,-239 716,-220 816,-220 816,-239"/>
<text text-anchor="middle" x="766" y="-227" font-family="Helvetica,sans-Serif" font-size="10.00">src/Commuters.h</text>
</a>
</g>
</g>
<!-- Node1&#45;&gt;Node2 -->
<g id="edge1" class="edge">
<title>Node1&#45;&gt;Node2</title>
<path fill="none" stroke="#63b8ff" d="M826.16,-268.46C811.27,-259.06 792.6,-247.28 780.04,-239.36"/>
<polygon fill="#63b8ff" stroke="#63b8ff" points="824.15,-271.33 834.47,-273.7 827.88,-265.41 824.15,-271.33"/>
</g>
<!-- Node4 -->
<g id="node4" class="node">
<title>Node4</title>
<g id="a_node4"><a xlink:href="GameLoader_8cpp.html" target="_top" xlink:title=" ">
<polygon fill="white" stroke="#666666" points="242,-19 126,-19 126,0 242,0 242,-19"/>
<text text-anchor="middle" x="184" y="-7" font-family="Helvetica,sans-Serif" font-size="10.00">src/GameLoader.cpp</text>
</a>
</g>
</g>
<!-- Node1&#45;&gt;Node4 -->
<g id="edge26" class="edge">
<title>Node1&#45;&gt;Node4</title>
<path fill="none" stroke="#63b8ff" d="M795.17,-282.32C607.14,-277.56 0,-255.96 0,-175.5 0,-175.5 0,-175.5 0,-118.5 0,-58.96 72.55,-31.61 126.54,-19.5"/>
<polygon fill="#63b8ff" stroke="#63b8ff" points="795.08,-285.82 805.17,-282.57 795.26,-278.82 795.08,-285.82"/>
</g>
<!-- Node11 -->
<g id="node11" class="node">
<title>Node11</title>
<g id="a_node11"><a xlink:href="SceneBuilder_8cpp.html" target="_top" xlink:title=" ">
<polygon fill="white" stroke="#666666" points="878.5,-19 761.5,-19 761.5,0 878.5,0 878.5,-19"/>
<text text-anchor="middle" x="820" y="-7" font-family="Helvetica,sans-Serif" font-size="10.00">src/SceneBuilder.cpp</text>
</a>
</g>
</g>
<!-- Node1&#45;&gt;Node11 -->
<g id="edge28" class="edge">
<title>Node1&#45;&gt;Node11</title>
<path fill="none" stroke="#63b8ff" d="M873.07,-268.05C897.94,-249.34 934,-215.34 934,-175.5 934,-175.5 934,-175.5 934,-118.5 934,-68.34 875.11,-34.49 841.98,-19.42"/>
<polygon fill="#63b8ff" stroke="#63b8ff" points="871.17,-265.1 865.1,-273.78 875.26,-270.78 871.17,-265.1"/>
</g>
<!-- Node18 -->
<g id="node18" class="node">
<title>Node18</title>
<g id="a_node18"><a xlink:href="Obstacle_8cpp.html" target="_top" xlink:title=" ">
<polygon fill="white" stroke="#666666" points="1059.5,-239 962.5,-239 962.5,-220 1059.5,-220 1059.5,-239"/>
<text text-anchor="middle" x="1011" y="-227" font-family="Helvetica,sans-Serif" font-size="10.00">src/Obstacle.cpp</text>
</a>
</g>
</g>
<!-- Node1&#45;&gt;Node18 -->
<g id="edge27" class="edge">
<title>Node1&#45;&gt;Node18</title>
<path fill="none" stroke="#63b8ff" d="M888.03,-270.98C917.47,-261.29 957.54,-248.1 983.82,-239.45"/>
<polygon fill="#63b8ff" stroke="#63b8ff" points="887.15,-267.58 878.75,-274.04 889.34,-274.23 887.15,-267.58"/>
</g>
<!-- Node3 -->
<g id="node3" class="node">
<title>Node3</title>
<g id="a_node3"><a xlink:href="Commuters_8cpp.html" target="_top" xlink:title=" ">
<polygon fill="white" stroke="#666666" points="905.5,-184 794.5,-184 794.5,-165 905.5,-165 905.5,-184"/>
<text text-anchor="middle" x="850" y="-172" font-family="Helvetica,sans-Serif" font-size="10.00">src/Commuters.cpp</text>
</a>
</g>
</g>
<!-- Node2&#45;&gt;Node3 -->
<g id="edge2" class="edge">
<title>Node2&#45;&gt;Node3</title>
<path fill="none" stroke="#63b8ff" d="M789.84,-213.46C804.73,-204.06 823.4,-192.28 835.96,-184.36"/>
<polygon fill="#63b8ff" stroke="#63b8ff" points="788.12,-210.41 781.53,-218.7 791.85,-216.33 788.12,-210.41"/>
</g>
<!-- Node2&#45;&gt;Node4 -->
<g id="edge3" class="edge">
<title>Node2&#45;&gt;Node4</title>
<path fill="none" stroke="#63b8ff" d="M704.4,-224.66C547.29,-213.46 138.34,-174.98 57,-74 33.65,-45.01 82.03,-28.13 125.65,-19.15"/>
<polygon fill="#63b8ff" stroke="#63b8ff" points="703.98,-228.14 714.2,-225.35 704.47,-221.16 703.98,-228.14"/>
</g>
<!-- Node5 -->
<g id="node5" class="node">
<title>Node5</title>
<g id="a_node5"><a xlink:href="RoadLane_8cpp.html" target="_top" xlink:title=" ">
<polygon fill="white" stroke="#666666" points="906,-129 804,-129 804,-110 906,-110 906,-129"/>
<text text-anchor="middle" x="855" y="-117" font-family="Helvetica,sans-Serif" font-size="10.00">src/RoadLane.cpp</text>
</a>
</g>
</g>
<!-- Node2&#45;&gt;Node5 -->
<g id="edge4" class="edge">
<title>Node2&#45;&gt;Node5</title>
<path fill="none" stroke="#63b8ff" d="M768.67,-208.52C771.28,-195.12 776.33,-177.68 786,-165 798.36,-148.79 818.44,-136.81 833.76,-129.38"/>
<polygon fill="#63b8ff" stroke="#63b8ff" points="765.22,-207.92 767.09,-218.35 772.13,-209.03 765.22,-207.92"/>
</g>
<!-- Node6 -->
<g id="node6" class="node">
<title>Node6</title>
<g id="a_node6"><a xlink:href="RoadLane_8h.html" target="_top" xlink:title=" ">
<polygon fill="white" stroke="#666666" points="737.5,-184 646.5,-184 646.5,-165 737.5,-165 737.5,-184"/>
<text text-anchor="middle" x="692" y="-172" font-family="Helvetica,sans-Serif" font-size="10.00">src/RoadLane.h</text>
</a>
</g>
</g>
<!-- Node2&#45;&gt;Node6 -->
<g id="edge5" class="edge">
<title>Node2&#45;&gt;Node6</title>
<path fill="none" stroke="#63b8ff" d="M744.24,-212.92C731.25,-203.61 715.22,-192.13 704.37,-184.36"/>
<polygon fill="#63b8ff" stroke="#63b8ff" points="742.05,-215.65 752.22,-218.63 746.12,-209.96 742.05,-215.65"/>
</g>
<!-- Node6&#45;&gt;Node5 -->
<g id="edge7" class="edge">
<title>Node6&#45;&gt;Node5</title>
<path fill="none" stroke="#63b8ff" d="M730.5,-160.98C760.31,-151.29 800.88,-138.1 827.49,-129.45"/>
<polygon fill="#63b8ff" stroke="#63b8ff" points="729.52,-157.62 721.09,-164.04 731.68,-164.28 729.52,-157.62"/>
</g>
<!-- Node7 -->
<g id="node7" class="node">
<title>Node7</title>
<g id="a_node7"><a xlink:href="LevelGenerator_8cpp.html" target="_top" xlink:title=" ">
<polygon fill="white" stroke="#666666" points="868,-74 740,-74 740,-55 868,-55 868,-74"/>
<text text-anchor="middle" x="804" y="-62" font-family="Helvetica,sans-Serif" font-size="10.00">src/LevelGenerator.cpp</text>
</a>
</g>
</g>
<!-- Node6&#45;&gt;Node7 -->
<g id="edge6" class="edge">
<title>Node6&#45;&gt;Node7</title>
<path fill="none" stroke="#63b8ff" d="M677.75,-155.31C669.04,-141.82 661.27,-123.52 671,-110 681.67,-95.18 725.5,-82.45 759.96,-74.45"/>
<polygon fill="#63b8ff" stroke="#63b8ff" points="674.78,-157.18 683.44,-163.29 680.48,-153.11 674.78,-157.18"/>
</g>
<!-- Node8 -->
<g id="node8" class="node">
<title>Node8</title>
<g id="a_node8"><a xlink:href="RoadLaneController_8h.html" target="_top" xlink:title=" ">
<polygon fill="white" stroke="#666666" points="474,-129 336,-129 336,-110 474,-110 474,-129"/>
<text text-anchor="middle" x="405" y="-117" font-family="Helvetica,sans-Serif" font-size="10.00">src/RoadLaneController.h</text>
</a>
</g>
</g>
<!-- Node6&#45;&gt;Node8 -->
<g id="edge8" class="edge">
<title>Node6&#45;&gt;Node8</title>
<path fill="none" stroke="#63b8ff" d="M634.95,-162.96C581.88,-153.16 503.65,-138.72 453.51,-129.46"/>
<polygon fill="#63b8ff" stroke="#63b8ff" points="634.25,-166.39 644.72,-164.77 635.52,-159.51 634.25,-166.39"/>
</g>
<!-- Node17 -->
<g id="node17" class="node">
<title>Node17</title>
<g id="a_node17"><a xlink:href="SceneBuilder_8h.html" target="_top" xlink:title=" ">
<polygon fill="white" stroke="#666666" points="786,-129 680,-129 680,-110 786,-110 786,-129"/>
<text text-anchor="middle" x="733" y="-117" font-family="Helvetica,sans-Serif" font-size="10.00">src/SceneBuilder.h</text>
</a>
</g>
</g>
<!-- Node6&#45;&gt;Node17 -->
<g id="edge23" class="edge">
<title>Node6&#45;&gt;Node17</title>
<path fill="none" stroke="#63b8ff" d="M705.81,-155.65C712.63,-146.84 720.55,-136.59 726.08,-129.44"/>
<polygon fill="#63b8ff" stroke="#63b8ff" points="703.05,-153.5 699.7,-163.55 708.58,-157.78 703.05,-153.5"/>
</g>
<!-- Node8&#45;&gt;Node4 -->
<g id="edge13" class="edge">
<title>Node8&#45;&gt;Node4</title>
<path fill="none" stroke="#63b8ff" d="M351.38,-106.76C323.97,-99.52 290.64,-88.76 263,-74 234.44,-58.75 206.12,-32.62 192.45,-19.12"/>
<polygon fill="#63b8ff" stroke="#63b8ff" points="350.33,-110.1 360.88,-109.18 352.06,-103.32 350.33,-110.1"/>
</g>
<!-- Node9 -->
<g id="node9" class="node">
<title>Node9</title>
<g id="a_node9"><a xlink:href="AnimalLaneController_8h.html" target="_top" xlink:title=" ">
<polygon fill="white" stroke="#666666" points="722,-74 574,-74 574,-55 722,-55 722,-74"/>
<text text-anchor="middle" x="648" y="-62" font-family="Helvetica,sans-Serif" font-size="10.00">src/AnimalLaneController.h</text>
</a>
</g>
</g>
<!-- Node8&#45;&gt;Node9 -->
<g id="edge9" class="edge">
<title>Node8&#45;&gt;Node9</title>
<path fill="none" stroke="#63b8ff" d="M457.47,-107.06C502.28,-97.28 565.83,-83.42 606.98,-74.45"/>
<polygon fill="#63b8ff" stroke="#63b8ff" points="456.72,-103.64 447.7,-109.19 458.22,-110.48 456.72,-103.64"/>
</g>
<!-- Node12 -->
<g id="node12" class="node">
<title>Node12</title>
<g id="a_node12"><a xlink:href="RiverController_8h.html" target="_top" xlink:title=" ">
<polygon fill="white" stroke="#666666" points="388,-74 272,-74 272,-55 388,-55 388,-74"/>
<text text-anchor="middle" x="330" y="-62" font-family="Helvetica,sans-Serif" font-size="10.00">src/RiverController.h</text>
</a>
</g>
</g>
<!-- Node8&#45;&gt;Node12 -->
<g id="edge14" class="edge">
<title>Node8&#45;&gt;Node12</title>
<path fill="none" stroke="#63b8ff" d="M382.95,-102.92C369.78,-93.61 353.53,-82.13 342.53,-74.36"/>
<polygon fill="#63b8ff" stroke="#63b8ff" points="380.85,-105.72 391.04,-108.64 384.89,-100.01 380.85,-105.72"/>
</g>
<!-- Node14 -->
<g id="node14" class="node">
<title>Node14</title>
<g id="a_node14"><a xlink:href="RoadLaneController_8cpp.html" target="_top" xlink:title=" ">
<polygon fill="white" stroke="#666666" points="215.5,-74 66.5,-74 66.5,-55 215.5,-55 215.5,-74"/>
<text text-anchor="middle" x="141" y="-62" font-family="Helvetica,sans-Serif" font-size="10.00">src/RoadLaneController.cpp</text>
</a>
</g>
</g>
<!-- Node8&#45;&gt;Node14 -->
<g id="edge18" class="edge">
<title>Node8&#45;&gt;Node14</title>
<path fill="none" stroke="#63b8ff" d="M349.23,-107.3C300.49,-97.52 230.66,-83.5 185.56,-74.45"/>
<polygon fill="#63b8ff" stroke="#63b8ff" points="348.24,-110.67 358.73,-109.21 349.62,-103.81 348.24,-110.67"/>
</g>
<!-- Node15 -->
<g id="node15" class="node">
<title>Node15</title>
<g id="a_node15"><a xlink:href="VehicleLaneController_8h.html" target="_top" xlink:title=" ">
<polygon fill="white" stroke="#666666" points="555.5,-74 406.5,-74 406.5,-55 555.5,-55 555.5,-74"/>
<text text-anchor="middle" x="481" y="-62" font-family="Helvetica,sans-Serif" font-size="10.00">src/VehicleLaneController.h</text>
</a>
</g>
</g>
<!-- Node8&#45;&gt;Node15 -->
<g id="edge19" class="edge">
<title>Node8&#45;&gt;Node15</title>
<path fill="none" stroke="#63b8ff" d="M426.96,-103.19C440.37,-93.84 457.04,-82.21 468.3,-74.36"/>
<polygon fill="#63b8ff" stroke="#63b8ff" points="425.33,-100.05 419.13,-108.64 429.34,-105.79 425.33,-100.05"/>
</g>
<!-- Node9&#45;&gt;Node4 -->
<g id="edge11" class="edge">
<title>Node9&#45;&gt;Node4</title>
<path fill="none" stroke="#63b8ff" d="M562.64,-54.3C482.22,-45.54 358.37,-31.83 251,-19 248.21,-18.67 245.35,-18.32 242.46,-17.97"/>
<polygon fill="#63b8ff" stroke="#63b8ff" points="561.87,-57.73 572.19,-55.33 562.63,-50.77 561.87,-57.73"/>
</g>
<!-- Node10 -->
<g id="node10" class="node">
<title>Node10</title>
<g id="a_node10"><a xlink:href="AnimalLaneController_8cpp.html" target="_top" xlink:title=" ">
<polygon fill="white" stroke="#666666" points="743.5,-19 584.5,-19 584.5,0 743.5,0 743.5,-19"/>
<text text-anchor="middle" x="664" y="-7" font-family="Helvetica,sans-Serif" font-size="10.00">src/AnimalLaneController.cpp</text>
</a>
</g>
</g>
<!-- Node9&#45;&gt;Node10 -->
<g id="edge10" class="edge">
<title>Node9&#45;&gt;Node10</title>
<path fill="none" stroke="#63b8ff" d="M653.91,-43.93C656.44,-35.53 659.28,-26.13 661.3,-19.44"/>
<polygon fill="#63b8ff" stroke="#63b8ff" points="650.62,-42.71 651.08,-53.3 657.32,-44.74 650.62,-42.71"/>
</g>
<!-- Node9&#45;&gt;Node11 -->
<g id="edge12" class="edge">
<title>Node9&#45;&gt;Node11</title>
<path fill="none" stroke="#63b8ff" d="M687.79,-51.24C719.32,-41.52 762.64,-28.18 790.97,-19.45"/>
<polygon fill="#63b8ff" stroke="#63b8ff" points="687.15,-47.77 678.62,-54.06 689.21,-54.46 687.15,-47.77"/>
</g>
<!-- Node12&#45;&gt;Node4 -->
<g id="edge15" class="edge">
<title>Node12&#45;&gt;Node4</title>
<path fill="none" stroke="#63b8ff" d="M294.42,-50.58C267.74,-40.9 231.91,-27.89 208.4,-19.36"/>
<polygon fill="#63b8ff" stroke="#63b8ff" points="293.22,-53.87 303.81,-53.99 295.6,-47.29 293.22,-53.87"/>
</g>
<!-- Node12&#45;&gt;Node11 -->
<g id="edge17" class="edge">
<title>Node12&#45;&gt;Node11</title>
<path fill="none" stroke="#63b8ff" d="M399.49,-54.74C556.86,-36.98 598.54,-36.6 753,-19 755.68,-18.69 758.42,-18.38 761.18,-18.05"/>
<polygon fill="#63b8ff" stroke="#63b8ff" points="399.5,-51.22 389.96,-55.82 400.29,-58.17 399.5,-51.22"/>
</g>
<!-- Node13 -->
<g id="node13" class="node">
<title>Node13</title>
<g id="a_node13"><a xlink:href="RiverController_8cpp.html" target="_top" xlink:title=" ">
<polygon fill="white" stroke="#666666" points="387.5,-19 260.5,-19 260.5,0 387.5,0 387.5,-19"/>
<text text-anchor="middle" x="324" y="-7" font-family="Helvetica,sans-Serif" font-size="10.00">src/RiverController.cpp</text>
</a>
</g>
</g>
<!-- Node12&#45;&gt;Node13 -->
<g id="edge16" class="edge">
<title>Node12&#45;&gt;Node13</title>
<path fill="none" stroke="#63b8ff" d="M327.72,-43.35C326.78,-35.1 325.75,-25.97 325.01,-19.44"/>
<polygon fill="#63b8ff" stroke="#63b8ff" points="324.24,-43.7 328.84,-53.24 331.19,-42.91 324.24,-43.7"/>
</g>
<!-- Node15&#45;&gt;Node4 -->
<g id="edge20" class="edge">
<title>Node15&#45;&gt;Node4</title>
<path fill="none" stroke="#63b8ff" d="M419.3,-52.49C364.42,-42.7 285.18,-28.56 234.13,-19.45"/>
<polygon fill="#63b8ff" stroke="#63b8ff" points="418.67,-55.93 429.13,-54.24 419.9,-49.04 418.67,-55.93"/>
</g>
<!-- Node15&#45;&gt;Node11 -->
<g id="edge21" class="edge">
<title>Node15&#45;&gt;Node11</title>
<path fill="none" stroke="#63b8ff" d="M549.84,-52.74C612.43,-42.95 703.72,-28.68 762.49,-19.49"/>
<polygon fill="#63b8ff" stroke="#63b8ff" points="549.34,-49.27 540,-54.28 550.42,-56.19 549.34,-49.27"/>
</g>
<!-- Node16 -->
<g id="node16" class="node">
<title>Node16</title>
<g id="a_node16"><a xlink:href="VehicleLaneController_8cpp.html" target="_top" xlink:title=" ">
<polygon fill="white" stroke="#666666" points="566,-19 406,-19 406,0 566,0 566,-19"/>
<text text-anchor="middle" x="486" y="-7" font-family="Helvetica,sans-Serif" font-size="10.00">src/VehicleLaneController.cpp</text>
</a>
</g>
</g>
<!-- Node15&#45;&gt;Node16 -->
<g id="edge22" class="edge">
<title>Node15&#45;&gt;Node16</title>
<path fill="none" stroke="#63b8ff" d="M482.9,-43.35C483.68,-35.1 484.54,-25.97 485.16,-19.44"/>
<polygon fill="#63b8ff" stroke="#63b8ff" points="479.42,-42.96 481.97,-53.24 486.39,-43.61 479.42,-42.96"/>
</g>
<!-- Node17&#45;&gt;Node7 -->
<g id="edge24" class="edge">
<title>Node17&#45;&gt;Node7</title>
<path fill="none" stroke="#63b8ff" d="M754.25,-102.64C766.64,-93.39 781.82,-82.05 792.13,-74.36"/>
<polygon fill="#63b8ff" stroke="#63b8ff" points="752.18,-99.82 746.26,-108.6 756.36,-105.43 752.18,-99.82"/>
</g>
<!-- Node17&#45;&gt;Node11 -->
<g id="edge25" class="edge">
<title>Node17&#45;&gt;Node11</title>
<path fill="none" stroke="#63b8ff" d="M794.26,-107.11C828.67,-99.33 866.73,-87.92 877,-74 892.3,-53.26 860.47,-31.38 838.51,-19.49"/>
<polygon fill="#63b8ff" stroke="#63b8ff" points="793.76,-103.64 784.73,-109.18 795.25,-110.48 793.76,-103.64"/>
</g>
</g>
</svg>
