<?xml version="1.0" encoding="UTF-8" standalone="no"?>
<!DOCTYPE svg PUBLIC "-//W3C//DTD SVG 1.1//EN"
 "http://www.w3.org/Graphics/SVG/1.1/DTD/svg11.dtd">
<!-- Generated by graphviz version 7.0.5 (0)
 -->
<!-- Title: src/Obstacle.h Pages: 1 -->
<!--zoomable 467 -->
<svg id="main" version="1.1" xmlns="http://www.w3.org/2000/svg" xmlns:xlink="http://www.w3.org/1999/xlink" xml:space="preserve" onload="init(evt)">
<style type="text/css"><![CDATA[
.edge:hover path { stroke: red; }
.edge:hover polygon { stroke: red; fill: red; }
]]></style>
<script type="text/javascript"><![CDATA[
var edges = document.getElementsByTagName('g');
if (edges && edges.length) {
  for (var i=0;i<edges.length;i++) {
    if (edges[i].id.substr(0,4)=='edge') {
      edges[i].setAttribute('class','edge');
    }
  }
}
]]></script>
        <defs>
                <circle id="rim" cx="0" cy="0" r="7"/>
                <circle id="rim2" cx="0" cy="0" r="3.5"/>
                <g id="zoomPlus">
                        <use xlink:href="#rim" fill="#404040">
                                <set attributeName="fill" to="#808080" begin="zoomplus.mouseover" end="zoomplus.mouseout"/>
                        </use>
                        <path d="M-4,0h8M0,-4v8" fill="none" stroke="white" stroke-width="1.5" pointer-events="none"/>
                </g>
                <g id="zoomMin">
                        <use xlink:href="#rim" fill="#404040">
                                <set attributeName="fill" to="#808080" begin="zoomminus.mouseover" end="zoomminus.mouseout"/>
                        </use>
                        <path d="M-4,0h8" fill="none" stroke="white" stroke-width="1.5" pointer-events="none"/>
                </g>
                <g id="dirArrow">
                        <path fill="none" stroke="white" stroke-width="1.5" d="M0,-3.0v7 M-2.5,-0.5L0,-3.0L2.5,-0.5"/>
                </g>
               <g id="resetDef">
                       <use xlink:href="#rim2" fill="#404040">
                               <set attributeName="fill" to="#808080" begin="reset.mouseover" end="reset.mouseout"/>
                       </use>
               </g>
        </defs>

<script type="text/javascript">
var viewWidth = 2901;
var viewHeight = 467;
var sectionId = 'dynsection-0';
</script>
<script xlink:href="svgpan.js"/>
<svg id="graph" class="graph">
<g id="viewport">
<title>src/Obstacle.h</title>
<!-- Node1 -->
<g id="node1" class="node">
<title>Node1</title>
<g id="a_node1"><a xlink:title=" ">
<polygon fill="#999999" stroke="#666666" points="804,-459 718,-459 718,-440 804,-440 804,-459"/>
<text text-anchor="middle" x="761" y="-447" font-family="Helvetica,sans-Serif" font-size="10.00">src/Obstacle.h</text>
</a>
</g>
</g>
<!-- Node2 -->
<g id="node2" class="node">
<title>Node2</title>
<g id="a_node2"><a xlink:href="Consts_8h.html" target="_top" xlink:title=" ">
<polygon fill="white" stroke="#666666" points="657.5,-129 598.5,-129 598.5,-110 657.5,-110 657.5,-129"/>
<text text-anchor="middle" x="628" y="-117" font-family="Helvetica,sans-Serif" font-size="10.00">Consts.h</text>
</a>
</g>
</g>
<!-- Node1&#45;&gt;Node2 -->
<g id="edge1" class="edge">
<title>Node1&#45;&gt;Node2</title>
<path fill="none" stroke="#63b8ff" d="M732.14,-439.52C693.02,-425.33 628,-393.74 628,-340.5 628,-340.5 628,-340.5 628,-228.5 628,-197.92 628,-162.48 628,-140.77"/>
<polygon fill="#63b8ff" stroke="#63b8ff" points="631.5,-140.97 628,-130.97 624.5,-140.97 631.5,-140.97"/>
</g>
<!-- Node4 -->
<g id="node4" class="node">
<title>Node4</title>
<g id="a_node4"><a xlink:href="Enums_8h.html" target="_top" xlink:title=" ">
<polygon fill="white" stroke="#666666" points="573.5,-74 514.5,-74 514.5,-55 573.5,-55 573.5,-74"/>
<text text-anchor="middle" x="544" y="-62" font-family="Helvetica,sans-Serif" font-size="10.00">Enums.h</text>
</a>
</g>
</g>
<!-- Node1&#45;&gt;Node4 -->
<g id="edge7" class="edge">
<title>Node1&#45;&gt;Node4</title>
<path fill="none" stroke="#63b8ff" d="M717.55,-447.73C592.95,-445.16 236.14,-435.22 124,-404 64.35,-387.39 0,-402.42 0,-340.5 0,-340.5 0,-340.5 0,-173.5 0,-71.01 376.18,-64.29 502.9,-64.94"/>
<polygon fill="#63b8ff" stroke="#63b8ff" points="502.83,-68.44 512.85,-65.01 502.88,-61.44 502.83,-68.44"/>
</g>
<!-- Node8 -->
<g id="node8" class="node">
<title>Node8</title>
<g id="a_node8"><a xlink:href="SceneNode_8h.html" target="_top" xlink:title=" ">
<polygon fill="white" stroke="#666666" points="1836,-239 1756,-239 1756,-220 1836,-220 1836,-239"/>
<text text-anchor="middle" x="1796" y="-227" font-family="Helvetica,sans-Serif" font-size="10.00">SceneNode.h</text>
</a>
</g>
</g>
<!-- Node1&#45;&gt;Node8 -->
<g id="edge8" class="edge">
<title>Node1&#45;&gt;Node8</title>
<path fill="none" stroke="#63b8ff" d="M804.17,-440.17C849.5,-431.38 922.82,-417.01 986,-404 1273.14,-344.86 1616.58,-269.89 1744.6,-241.8"/>
<polygon fill="#63b8ff" stroke="#63b8ff" points="1745.1,-245.28 1754.11,-239.72 1743.6,-238.44 1745.1,-245.28"/>
</g>
<!-- Node10 -->
<g id="node10" class="node">
<title>Node10</title>
<g id="a_node10"><a xlink:title=" ">
<polygon fill="#e0e0e0" stroke="#999999" points="2789,-184 2655,-184 2655,-165 2789,-165 2789,-184"/>
<text text-anchor="middle" x="2722" y="-172" font-family="Helvetica,sans-Serif" font-size="10.00">SFML/Graphics/Rect.hpp</text>
</a>
</g>
</g>
<!-- Node1&#45;&gt;Node10 -->
<g id="edge67" class="edge">
<title>Node1&#45;&gt;Node10</title>
<path fill="none" stroke="#63b8ff" d="M804.36,-446.85C1017.07,-438.46 1940,-398.69 1940,-340.5 1940,-340.5 1940,-340.5 1940,-283.5 1940,-248.25 2445.16,-199.9 2643.45,-182.27"/>
<polygon fill="#63b8ff" stroke="#63b8ff" points="2643.49,-185.78 2653.14,-181.42 2642.87,-178.81 2643.49,-185.78"/>
</g>
<!-- Node20 -->
<g id="node20" class="node">
<title>Node20</title>
<g id="a_node20"><a xlink:href="Entity_8h.html" target="_top" xlink:title=" ">
<polygon fill="white" stroke="#666666" points="787.5,-294 734.5,-294 734.5,-275 787.5,-275 787.5,-294"/>
<text text-anchor="middle" x="761" y="-282" font-family="Helvetica,sans-Serif" font-size="10.00">Entity.h</text>
</a>
</g>
</g>
<!-- Node1&#45;&gt;Node20 -->
<g id="edge23" class="edge">
<title>Node1&#45;&gt;Node20</title>
<path fill="none" stroke="#63b8ff" d="M761,-439.74C761,-414.53 761,-341.36 761,-305.62"/>
<polygon fill="#63b8ff" stroke="#63b8ff" points="764.5,-305.82 761,-295.82 757.5,-305.82 764.5,-305.82"/>
</g>
<!-- Node22 -->
<g id="node22" class="node">
<title>Node22</title>
<g id="a_node22"><a xlink:title=" ">
<polygon fill="#e0e0e0" stroke="#999999" points="207.5,-184 66.5,-184 66.5,-165 207.5,-165 207.5,-184"/>
<text text-anchor="middle" x="137" y="-172" font-family="Helvetica,sans-Serif" font-size="10.00">SFML/Graphics/Sprite.hpp</text>
</a>
</g>
</g>
<!-- Node1&#45;&gt;Node22 -->
<g id="edge68" class="edge">
<title>Node1&#45;&gt;Node22</title>
<path fill="none" stroke="#63b8ff" d="M717.67,-446.63C561.69,-439.32 38,-409.63 38,-340.5 38,-340.5 38,-340.5 38,-283.5 38,-240.95 80.27,-207.9 109.57,-190.09"/>
<polygon fill="#63b8ff" stroke="#63b8ff" points="111.1,-193.25 117.99,-185.2 107.59,-187.2 111.1,-193.25"/>
</g>
<!-- Node26 -->
<g id="node26" class="node">
<title>Node26</title>
<g id="a_node26"><a xlink:href="TextureHolder_8h.html" target="_top" xlink:title=" ">
<polygon fill="white" stroke="#666666" points="357.5,-184 264.5,-184 264.5,-165 357.5,-165 357.5,-184"/>
<text text-anchor="middle" x="311" y="-172" font-family="Helvetica,sans-Serif" font-size="10.00">TextureHolder.h</text>
</a>
</g>
</g>
<!-- Node1&#45;&gt;Node26 -->
<g id="edge44" class="edge">
<title>Node1&#45;&gt;Node26</title>
<path fill="none" stroke="#63b8ff" d="M717.71,-446.72C609.15,-441.09 334,-419.07 334,-340.5 334,-340.5 334,-340.5 334,-283.5 334,-252.09 324.58,-216.65 317.8,-195.2"/>
<polygon fill="#63b8ff" stroke="#63b8ff" points="321.14,-194.16 314.67,-185.76 314.49,-196.36 321.14,-194.16"/>
</g>
<!-- Node28 -->
<g id="node28" class="node">
<title>Node28</title>
<g id="a_node28"><a xlink:href="PlayerState_8h.html" target="_top" xlink:title=" ">
<polygon fill="white" stroke="#666666" points="2763,-404 2681,-404 2681,-385 2763,-385 2763,-404"/>
<text text-anchor="middle" x="2722" y="-392" font-family="Helvetica,sans-Serif" font-size="10.00">PlayerState.h</text>
</a>
</g>
</g>
<!-- Node1&#45;&gt;Node28 -->
<g id="edge45" class="edge">
<title>Node1&#45;&gt;Node28</title>
<path fill="none" stroke="#63b8ff" d="M804.24,-447.33C1061.33,-440.38 2386.99,-404.55 2669.15,-396.93"/>
<polygon fill="#63b8ff" stroke="#63b8ff" points="2669.24,-400.43 2679.14,-396.66 2669.05,-393.43 2669.24,-400.43"/>
</g>
<!-- Node34 -->
<g id="node34" class="node">
<title>Node34</title>
<g id="a_node34"><a xlink:href="PlayerCollidable_8h.html" target="_top" xlink:title=" ">
<polygon fill="white" stroke="#666666" points="977.5,-404 872.5,-404 872.5,-385 977.5,-385 977.5,-404"/>
<text text-anchor="middle" x="925" y="-392" font-family="Helvetica,sans-Serif" font-size="10.00">PlayerCollidable.h</text>
</a>
</g>
</g>
<!-- Node1&#45;&gt;Node34 -->
<g id="edge65" class="edge">
<title>Node1&#45;&gt;Node34</title>
<path fill="none" stroke="#63b8ff" d="M788.82,-439.51C815.64,-430.84 856.46,-417.65 886.42,-407.97"/>
<polygon fill="#63b8ff" stroke="#63b8ff" points="887.44,-411.32 895.88,-404.91 885.29,-404.66 887.44,-411.32"/>
</g>
<!-- Node3 -->
<g id="node3" class="node">
<title>Node3</title>
<g id="a_node3"><a xlink:title=" ">
<polygon fill="#e0e0e0" stroke="#999999" points="1713,-74 1603,-74 1603,-55 1713,-55 1713,-74"/>
<text text-anchor="middle" x="1658" y="-62" font-family="Helvetica,sans-Serif" font-size="10.00">SFML/Graphics.hpp</text>
</a>
</g>
</g>
<!-- Node2&#45;&gt;Node3 -->
<g id="edge2" class="edge">
<title>Node2&#45;&gt;Node3</title>
<path fill="none" stroke="#63b8ff" d="M657.73,-112.15C662.48,-111.31 667.36,-110.55 672,-110 1016.05,-69.22 1431.7,-65.1 1591.23,-65.17"/>
<polygon fill="#63b8ff" stroke="#63b8ff" points="1591.2,-68.67 1601.2,-65.18 1591.21,-61.67 1591.2,-68.67"/>
</g>
<!-- Node2&#45;&gt;Node4 -->
<g id="edge3" class="edge">
<title>Node2&#45;&gt;Node4</title>
<path fill="none" stroke="#63b8ff" d="M613.75,-109.51C601.12,-101.54 582.44,-89.75 567.59,-80.38"/>
<polygon fill="#63b8ff" stroke="#63b8ff" points="569.64,-77.54 559.32,-75.17 565.91,-83.46 569.64,-77.54"/>
</g>
<!-- Node5 -->
<g id="node5" class="node">
<title>Node5</title>
<g id="a_node5"><a xlink:href="Random_8h.html" target="_top" xlink:title=" ">
<polygon fill="white" stroke="#666666" points="687,-74 621,-74 621,-55 687,-55 687,-74"/>
<text text-anchor="middle" x="654" y="-62" font-family="Helvetica,sans-Serif" font-size="10.00">Random.h</text>
</a>
</g>
</g>
<!-- Node2&#45;&gt;Node5 -->
<g id="edge4" class="edge">
<title>Node2&#45;&gt;Node5</title>
<path fill="none" stroke="#63b8ff" d="M632.29,-109.75C635.62,-102.96 640.36,-93.3 644.56,-84.73"/>
<polygon fill="#63b8ff" stroke="#63b8ff" points="647.68,-86.32 648.95,-75.8 641.4,-83.24 647.68,-86.32"/>
</g>
<!-- Node6 -->
<g id="node6" class="node">
<title>Node6</title>
<g id="a_node6"><a xlink:title=" ">
<polygon fill="#e0e0e0" stroke="#999999" points="681,-19 627,-19 627,0 681,0 681,-19"/>
<text text-anchor="middle" x="654" y="-7" font-family="Helvetica,sans-Serif" font-size="10.00">random</text>
</a>
</g>
</g>
<!-- Node5&#45;&gt;Node6 -->
<g id="edge5" class="edge">
<title>Node5&#45;&gt;Node6</title>
<path fill="none" stroke="#63b8ff" d="M654,-54.75C654,-48.27 654,-39.16 654,-30.9"/>
<polygon fill="#63b8ff" stroke="#63b8ff" points="657.5,-30.96 654,-20.96 650.5,-30.96 657.5,-30.96"/>
</g>
<!-- Node7 -->
<g id="node7" class="node">
<title>Node7</title>
<g id="a_node7"><a xlink:title=" ">
<polygon fill="#e0e0e0" stroke="#999999" points="1740,-19 1680,-19 1680,0 1740,0 1740,-19"/>
<text text-anchor="middle" x="1710" y="-7" font-family="Helvetica,sans-Serif" font-size="10.00">iostream</text>
</a>
</g>
</g>
<!-- Node5&#45;&gt;Node7 -->
<g id="edge6" class="edge">
<title>Node5&#45;&gt;Node7</title>
<path fill="none" stroke="#63b8ff" d="M687.35,-61.83C842.86,-54.02 1496.51,-21.21 1668.43,-12.59"/>
<polygon fill="#63b8ff" stroke="#63b8ff" points="1668.41,-16.09 1678.22,-12.1 1668.06,-9.1 1668.41,-16.09"/>
</g>
<!-- Node8&#45;&gt;Node3 -->
<g id="edge10" class="edge">
<title>Node8&#45;&gt;Node3</title>
<path fill="none" stroke="#63b8ff" d="M1836.19,-220.62C1837.81,-220.4 1839.42,-220.19 1841,-220 1881.27,-215.23 2542.04,-213.37 2570,-184 2575.82,-177.88 2575.64,-171.29 2570,-165 2513.64,-102.15 1925.13,-75.16 1724.54,-67.74"/>
<polygon fill="#63b8ff" stroke="#63b8ff" points="1724.94,-64.25 1714.82,-67.38 1724.68,-71.24 1724.94,-64.25"/>
</g>
<!-- Node8&#45;&gt;Node4 -->
<g id="edge9" class="edge">
<title>Node8&#45;&gt;Node4</title>
<path fill="none" stroke="#63b8ff" d="M1755.65,-221.82C1751.05,-221.16 1746.43,-220.53 1742,-220 1552.92,-197.18 1499.1,-232.78 1315,-184 1295.59,-178.86 1293.18,-170.95 1274,-165 1134.08,-121.6 1094.12,-130.01 949,-110 799.78,-89.42 761.63,-91.34 612,-74 603.29,-72.99 593.96,-71.86 585.09,-70.76"/>
<polygon fill="#63b8ff" stroke="#63b8ff" points="585.64,-67.3 575.28,-69.53 584.77,-74.24 585.64,-67.3"/>
</g>
<!-- Node8&#45;&gt;Node7 -->
<g id="edge22" class="edge">
<title>Node8&#45;&gt;Node7</title>
<path fill="none" stroke="#63b8ff" d="M1836.19,-220.62C1837.81,-220.4 1839.42,-220.19 1841,-220 1882.15,-215.14 2557.42,-214 2586,-184 2591.83,-177.89 2590.97,-171.83 2586,-165 2486.18,-27.79 1912.25,-12.3 1751.71,-10.66"/>
<polygon fill="#63b8ff" stroke="#63b8ff" points="1752,-7.17 1741.97,-10.58 1751.93,-14.16 1752,-7.17"/>
</g>
<!-- Node9 -->
<g id="node9" class="node">
<title>Node9</title>
<g id="a_node9"><a xlink:title=" ">
<polygon fill="#e0e0e0" stroke="#999999" points="2560.5,-184 2401.5,-184 2401.5,-165 2560.5,-165 2560.5,-184"/>
<text text-anchor="middle" x="2481" y="-172" font-family="Helvetica,sans-Serif" font-size="10.00">SFML/Graphics/Drawable.hpp</text>
</a>
</g>
</g>
<!-- Node8&#45;&gt;Node9 -->
<g id="edge11" class="edge">
<title>Node8&#45;&gt;Node9</title>
<path fill="none" stroke="#63b8ff" d="M1836.34,-221.74C1840.94,-221.09 1845.57,-220.5 1850,-220 2086.3,-193.61 2149.47,-203.18 2390.21,-184.11"/>
<polygon fill="#63b8ff" stroke="#63b8ff" points="2390.24,-187.62 2399.92,-183.33 2389.68,-180.64 2390.24,-187.62"/>
</g>
<!-- Node8&#45;&gt;Node10 -->
<g id="edge12" class="edge">
<title>Node8&#45;&gt;Node10</title>
<path fill="none" stroke="#63b8ff" d="M1836.33,-221.65C1840.93,-221.02 1845.56,-220.45 1850,-220 2200.13,-184.59 2290.07,-210.38 2641,-184 2641.85,-183.94 2642.7,-183.87 2643.55,-183.8"/>
<polygon fill="#63b8ff" stroke="#63b8ff" points="2643.66,-187.31 2653.34,-182.98 2643.08,-180.33 2643.66,-187.31"/>
</g>
<!-- Node11 -->
<g id="node11" class="node">
<title>Node11</title>
<g id="a_node11"><a xlink:title=" ">
<polygon fill="#e0e0e0" stroke="#999999" points="1502,-184 1324,-184 1324,-165 1502,-165 1502,-184"/>
<text text-anchor="middle" x="1413" y="-172" font-family="Helvetica,sans-Serif" font-size="10.00">SFML/Graphics/RenderStates.hpp</text>
</a>
</g>
</g>
<!-- Node8&#45;&gt;Node11 -->
<g id="edge13" class="edge">
<title>Node8&#45;&gt;Node11</title>
<path fill="none" stroke="#63b8ff" d="M1755.62,-222.05C1751.03,-221.34 1746.41,-220.65 1742,-220 1657.49,-207.64 1560.59,-194.68 1493.95,-185.95"/>
<polygon fill="#63b8ff" stroke="#63b8ff" points="1494.57,-182.5 1484.2,-184.68 1493.66,-189.44 1494.57,-182.5"/>
</g>
<!-- Node12 -->
<g id="node12" class="node">
<title>Node12</title>
<g id="a_node12"><a xlink:title=" ">
<polygon fill="#e0e0e0" stroke="#999999" points="1697.5,-184 1520.5,-184 1520.5,-165 1697.5,-165 1697.5,-184"/>
<text text-anchor="middle" x="1609" y="-172" font-family="Helvetica,sans-Serif" font-size="10.00">SFML/Graphics/RenderTarget.hpp</text>
</a>
</g>
</g>
<!-- Node8&#45;&gt;Node12 -->
<g id="edge14" class="edge">
<title>Node8&#45;&gt;Node12</title>
<path fill="none" stroke="#63b8ff" d="M1764.28,-219.51C1733.16,-210.69 1685.5,-197.18 1651.2,-187.46"/>
<polygon fill="#63b8ff" stroke="#63b8ff" points="1652.6,-184.22 1642.02,-184.86 1650.69,-190.95 1652.6,-184.22"/>
</g>
<!-- Node13 -->
<g id="node13" class="node">
<title>Node13</title>
<g id="a_node13"><a xlink:title=" ">
<polygon fill="#e0e0e0" stroke="#999999" points="1876.5,-184 1715.5,-184 1715.5,-165 1876.5,-165 1876.5,-184"/>
<text text-anchor="middle" x="1796" y="-172" font-family="Helvetica,sans-Serif" font-size="10.00">SFML/Graphics/Transform.hpp</text>
</a>
</g>
</g>
<!-- Node8&#45;&gt;Node13 -->
<g id="edge15" class="edge">
<title>Node8&#45;&gt;Node13</title>
<path fill="none" stroke="#63b8ff" d="M1796,-219.75C1796,-213.27 1796,-204.16 1796,-195.9"/>
<polygon fill="#63b8ff" stroke="#63b8ff" points="1799.5,-195.96 1796,-185.96 1792.5,-195.96 1799.5,-195.96"/>
</g>
<!-- Node14 -->
<g id="node14" class="node">
<title>Node14</title>
<g id="a_node14"><a xlink:title=" ">
<polygon fill="#e0e0e0" stroke="#999999" points="2077,-184 1895,-184 1895,-165 2077,-165 2077,-184"/>
<text text-anchor="middle" x="1986" y="-172" font-family="Helvetica,sans-Serif" font-size="10.00">SFML/Graphics/Transformable.hpp</text>
</a>
</g>
</g>
<!-- Node8&#45;&gt;Node14 -->
<g id="edge16" class="edge">
<title>Node8&#45;&gt;Node14</title>
<path fill="none" stroke="#63b8ff" d="M1828.23,-219.51C1859.85,-210.69 1908.27,-197.18 1943.13,-187.46"/>
<polygon fill="#63b8ff" stroke="#63b8ff" points="1943.78,-190.91 1952.47,-184.85 1941.9,-184.17 1943.78,-190.91"/>
</g>
<!-- Node15 -->
<g id="node15" class="node">
<title>Node15</title>
<g id="a_node15"><a xlink:title=" ">
<polygon fill="#e0e0e0" stroke="#999999" points="2267,-184 2095,-184 2095,-165 2267,-165 2267,-184"/>
<text text-anchor="middle" x="2181" y="-172" font-family="Helvetica,sans-Serif" font-size="10.00">SFML/System/NonCopyable.hpp</text>
</a>
</g>
</g>
<!-- Node8&#45;&gt;Node15 -->
<g id="edge17" class="edge">
<title>Node8&#45;&gt;Node15</title>
<path fill="none" stroke="#63b8ff" d="M1836.38,-222.04C1840.97,-221.34 1845.59,-220.64 1850,-220 1935.02,-207.6 2032.51,-194.64 2099.55,-185.93"/>
<polygon fill="#63b8ff" stroke="#63b8ff" points="2099.91,-189.41 2109.37,-184.66 2099.01,-182.47 2099.91,-189.41"/>
</g>
<!-- Node16 -->
<g id="node16" class="node">
<title>Node16</title>
<g id="a_node16"><a xlink:title=" ">
<polygon fill="#e0e0e0" stroke="#999999" points="1229.5,-184 1086.5,-184 1086.5,-165 1229.5,-165 1229.5,-184"/>
<text text-anchor="middle" x="1158" y="-172" font-family="Helvetica,sans-Serif" font-size="10.00">SFML/System/Vector2.hpp</text>
</a>
</g>
</g>
<!-- Node8&#45;&gt;Node16 -->
<g id="edge18" class="edge">
<title>Node8&#45;&gt;Node16</title>
<path fill="none" stroke="#63b8ff" d="M1755.65,-221.77C1751.06,-221.12 1746.43,-220.51 1742,-220 1521.53,-194.72 1465.1,-202.91 1244,-184 1242.99,-183.91 1241.97,-183.83 1240.94,-183.74"/>
<polygon fill="#63b8ff" stroke="#63b8ff" points="1241.56,-180.28 1231.29,-182.87 1240.94,-187.25 1241.56,-180.28"/>
</g>
<!-- Node17 -->
<g id="node17" class="node">
<title>Node17</title>
<g id="a_node17"><a xlink:title=" ">
<polygon fill="#e0e0e0" stroke="#999999" points="940,-129 882,-129 882,-110 940,-110 940,-129"/>
<text text-anchor="middle" x="911" y="-117" font-family="Helvetica,sans-Serif" font-size="10.00">memory</text>
</a>
</g>
</g>
<!-- Node8&#45;&gt;Node17 -->
<g id="edge19" class="edge">
<title>Node8&#45;&gt;Node17</title>
<path fill="none" stroke="#63b8ff" d="M1755.65,-221.8C1751.05,-221.14 1746.43,-220.52 1742,-220 1538.34,-196.04 1481.05,-233.32 1282,-184 1261.32,-178.88 1258.52,-170.71 1238,-165 1137.4,-137 1014.3,-126.31 951.73,-122.48"/>
<polygon fill="#63b8ff" stroke="#63b8ff" points="952.11,-119 941.92,-121.91 951.7,-125.98 952.11,-119"/>
</g>
<!-- Node18 -->
<g id="node18" class="node">
<title>Node18</title>
<g id="a_node18"><a xlink:title=" ">
<polygon fill="#e0e0e0" stroke="#999999" points="2332.5,-184 2285.5,-184 2285.5,-165 2332.5,-165 2332.5,-184"/>
<text text-anchor="middle" x="2309" y="-172" font-family="Helvetica,sans-Serif" font-size="10.00">vector</text>
</a>
</g>
</g>
<!-- Node8&#45;&gt;Node18 -->
<g id="edge20" class="edge">
<title>Node8&#45;&gt;Node18</title>
<path fill="none" stroke="#63b8ff" d="M1836.35,-221.82C1840.95,-221.16 1845.57,-220.53 1850,-220 2035.04,-197.65 2086.72,-215.12 2274.23,-183.98"/>
<polygon fill="#63b8ff" stroke="#63b8ff" points="2274.54,-187.48 2283.82,-182.36 2273.37,-180.57 2274.54,-187.48"/>
</g>
<!-- Node19 -->
<g id="node19" class="node">
<title>Node19</title>
<g id="a_node19"><a xlink:title=" ">
<polygon fill="#e0e0e0" stroke="#999999" points="2383,-184 2351,-184 2351,-165 2383,-165 2383,-184"/>
<text text-anchor="middle" x="2367" y="-172" font-family="Helvetica,sans-Serif" font-size="10.00">set</text>
</a>
</g>
</g>
<!-- Node8&#45;&gt;Node19 -->
<g id="edge21" class="edge">
<title>Node8&#45;&gt;Node19</title>
<path fill="none" stroke="#63b8ff" d="M1836.35,-221.77C1840.94,-221.12 1845.57,-220.51 1850,-220 2064.2,-195.35 2125.12,-226.57 2339.76,-183.91"/>
<polygon fill="#63b8ff" stroke="#63b8ff" points="2340.17,-187.4 2349.27,-181.99 2338.78,-180.54 2340.17,-187.4"/>
</g>
<!-- Node20&#45;&gt;Node4 -->
<g id="edge39" class="edge">
<title>Node20&#45;&gt;Node4</title>
<path fill="none" stroke="#63b8ff" d="M734.1,-281.77C610.59,-273.58 101.97,-236.8 57,-184 -3.18,-113.33 375.16,-78.15 502.92,-68.39"/>
<polygon fill="#63b8ff" stroke="#63b8ff" points="502.92,-71.9 512.63,-67.66 502.39,-64.92 502.92,-71.9"/>
</g>
<!-- Node20&#45;&gt;Node8 -->
<g id="edge40" class="edge">
<title>Node20&#45;&gt;Node8</title>
<path fill="none" stroke="#63b8ff" d="M787.89,-282.12C926.21,-275.04 1558.34,-242.67 1744.36,-233.14"/>
<polygon fill="#63b8ff" stroke="#63b8ff" points="1744.39,-236.65 1754.19,-232.64 1744.03,-229.66 1744.39,-236.65"/>
</g>
<!-- Node20&#45;&gt;Node10 -->
<g id="edge41" class="edge">
<title>Node20&#45;&gt;Node10</title>
<path fill="none" stroke="#63b8ff" d="M787.89,-282.53C952.54,-276.61 1818.44,-245.18 1845,-239 1865.35,-234.27 1867.67,-224.8 1888,-220 2051.04,-181.5 2473.96,-196.75 2641,-184 2641.85,-183.94 2642.7,-183.87 2643.55,-183.8"/>
<polygon fill="#63b8ff" stroke="#63b8ff" points="2643.67,-187.3 2653.33,-182.97 2643.07,-180.33 2643.67,-187.3"/>
</g>
<!-- Node20&#45;&gt;Node16 -->
<g id="edge43" class="edge">
<title>Node20&#45;&gt;Node16</title>
<path fill="none" stroke="#63b8ff" d="M787.91,-279.83C831.22,-273.59 918.83,-259.54 991,-239 1039.78,-225.12 1094.38,-203.06 1127.46,-188.94"/>
<polygon fill="#63b8ff" stroke="#63b8ff" points="1128.63,-192.25 1136.43,-185.08 1125.86,-185.82 1128.63,-192.25"/>
</g>
<!-- Node21 -->
<g id="node21" class="node">
<title>Node21</title>
<g id="a_node21"><a xlink:href="AnimationMachine_8h.html" target="_top" xlink:title=" ">
<polygon fill="white" stroke="#666666" points="524.5,-239 407.5,-239 407.5,-220 524.5,-220 524.5,-239"/>
<text text-anchor="middle" x="466" y="-227" font-family="Helvetica,sans-Serif" font-size="10.00">AnimationMachine.h</text>
</a>
</g>
</g>
<!-- Node20&#45;&gt;Node21 -->
<g id="edge24" class="edge">
<title>Node20&#45;&gt;Node21</title>
<path fill="none" stroke="#63b8ff" d="M734.04,-278.66C687.41,-270.28 590.61,-252.89 527,-241.46"/>
<polygon fill="#63b8ff" stroke="#63b8ff" points="527.87,-238.06 517.41,-239.74 526.63,-244.95 527.87,-238.06"/>
</g>
<!-- Node24 -->
<g id="node24" class="node">
<title>Node24</title>
<g id="a_node24"><a xlink:title=" ">
<polygon fill="#e0e0e0" stroke="#999999" points="787.5,-184 656.5,-184 656.5,-165 787.5,-165 787.5,-184"/>
<text text-anchor="middle" x="722" y="-172" font-family="Helvetica,sans-Serif" font-size="10.00">SFML/System/Time.hpp</text>
</a>
</g>
</g>
<!-- Node20&#45;&gt;Node24 -->
<g id="edge42" class="edge">
<title>Node20&#45;&gt;Node24</title>
<path fill="none" stroke="#63b8ff" d="M757.81,-274.66C751.58,-257.42 737.67,-218.9 729.14,-195.27"/>
<polygon fill="#63b8ff" stroke="#63b8ff" points="732.44,-194.1 725.75,-185.88 725.85,-196.48 732.44,-194.1"/>
</g>
<!-- Node21&#45;&gt;Node2 -->
<g id="edge31" class="edge">
<title>Node21&#45;&gt;Node2</title>
<path fill="none" stroke="#63b8ff" d="M479.36,-219.65C492.88,-210.67 514.41,-196.39 533,-184 557.77,-167.5 586.14,-148.53 605.38,-135.65"/>
<polygon fill="#63b8ff" stroke="#63b8ff" points="607.17,-138.66 613.53,-130.19 603.28,-132.84 607.17,-138.66"/>
</g>
<!-- Node21&#45;&gt;Node3 -->
<g id="edge25" class="edge">
<title>Node21&#45;&gt;Node3</title>
<path fill="none" stroke="#63b8ff" d="M489.19,-219.54C523.39,-206.5 589.53,-182.03 647,-165 746.12,-135.63 770.75,-125.21 873,-110 1137.03,-70.72 1455.73,-65.49 1591.53,-65.2"/>
<polygon fill="#63b8ff" stroke="#63b8ff" points="1591.42,-68.7 1601.41,-65.19 1591.41,-61.7 1591.42,-68.7"/>
</g>
<!-- Node21&#45;&gt;Node4 -->
<g id="edge32" class="edge">
<title>Node21&#45;&gt;Node4</title>
<path fill="none" stroke="#63b8ff" d="M458.65,-219.77C449.21,-207.43 434.94,-184.25 443,-165 458.54,-127.88 495.42,-97.6 520.05,-80.55"/>
<polygon fill="#63b8ff" stroke="#63b8ff" points="521.81,-83.58 528.18,-75.12 517.92,-77.76 521.81,-83.58"/>
</g>
<!-- Node21&#45;&gt;Node7 -->
<g id="edge30" class="edge">
<title>Node21&#45;&gt;Node7</title>
<path fill="none" stroke="#63b8ff" d="M407.23,-222.5C363.8,-216.56 303.97,-205.17 255,-184 235.36,-175.51 185.9,-147.96 176,-129 172.09,-121.51 170.54,-116.44 176,-110 271.8,3.14 357.51,-69.99 505,-55 959.17,-8.84 1513.96,-9.03 1668.39,-10.1"/>
<polygon fill="#63b8ff" stroke="#63b8ff" points="1668.09,-13.6 1678.12,-10.17 1668.15,-6.6 1668.09,-13.6"/>
</g>
<!-- Node21&#45;&gt;Node22 -->
<g id="edge26" class="edge">
<title>Node21&#45;&gt;Node22</title>
<path fill="none" stroke="#63b8ff" d="M410.19,-219.51C353.15,-210.32 264.55,-196.05 203.81,-186.26"/>
<polygon fill="#63b8ff" stroke="#63b8ff" points="204.73,-182.87 194.3,-184.73 203.62,-189.78 204.73,-182.87"/>
</g>
<!-- Node23 -->
<g id="node23" class="node">
<title>Node23</title>
<g id="a_node23"><a xlink:title=" ">
<polygon fill="#e0e0e0" stroke="#999999" points="428.5,-129 279.5,-129 279.5,-110 428.5,-110 428.5,-129"/>
<text text-anchor="middle" x="354" y="-117" font-family="Helvetica,sans-Serif" font-size="10.00">SFML/Graphics/Texture.hpp</text>
</a>
</g>
</g>
<!-- Node21&#45;&gt;Node23 -->
<g id="edge27" class="edge">
<title>Node21&#45;&gt;Node23</title>
<path fill="none" stroke="#63b8ff" d="M453.47,-219.54C441.77,-210.95 424.04,-197.34 410,-184 394.56,-169.34 378.67,-150.94 367.77,-137.73"/>
<polygon fill="#63b8ff" stroke="#63b8ff" points="370.78,-135.88 361.76,-130.32 365.35,-140.29 370.78,-135.88"/>
</g>
<!-- Node21&#45;&gt;Node24 -->
<g id="edge28" class="edge">
<title>Node21&#45;&gt;Node24</title>
<path fill="none" stroke="#63b8ff" d="M509.43,-219.51C553.05,-210.48 620.39,-196.54 667.56,-186.77"/>
<polygon fill="#63b8ff" stroke="#63b8ff" points="668.22,-190.21 677.31,-184.75 666.8,-183.35 668.22,-190.21"/>
</g>
<!-- Node25 -->
<g id="node25" class="node">
<title>Node25</title>
<g id="a_node25"><a xlink:title=" ">
<polygon fill="#e0e0e0" stroke="#999999" points="524,-184 452,-184 452,-165 524,-165 524,-184"/>
<text text-anchor="middle" x="488" y="-172" font-family="Helvetica,sans-Serif" font-size="10.00">sys/types.h</text>
</a>
</g>
</g>
<!-- Node21&#45;&gt;Node25 -->
<g id="edge29" class="edge">
<title>Node21&#45;&gt;Node25</title>
<path fill="none" stroke="#63b8ff" d="M469.63,-219.75C472.42,-213.04 476.37,-203.52 479.9,-195.02"/>
<polygon fill="#63b8ff" stroke="#63b8ff" points="483.11,-196.42 483.71,-185.84 476.64,-193.73 483.11,-196.42"/>
</g>
<!-- Node21&#45;&gt;Node26 -->
<g id="edge33" class="edge">
<title>Node21&#45;&gt;Node26</title>
<path fill="none" stroke="#63b8ff" d="M439.71,-219.51C414.47,-210.88 376.11,-197.76 347.84,-188.1"/>
<polygon fill="#63b8ff" stroke="#63b8ff" points="349.19,-184.86 338.6,-184.94 346.93,-191.48 349.19,-184.86"/>
</g>
<!-- Node26&#45;&gt;Node2 -->
<g id="edge38" class="edge">
<title>Node26&#45;&gt;Node2</title>
<path fill="none" stroke="#63b8ff" d="M357.77,-165.68C419.78,-155.31 528.18,-137.19 587.09,-127.34"/>
<polygon fill="#63b8ff" stroke="#63b8ff" points="587.4,-130.84 596.68,-125.74 586.24,-123.93 587.4,-130.84"/>
</g>
<!-- Node26&#45;&gt;Node4 -->
<g id="edge37" class="edge">
<title>Node26&#45;&gt;Node4</title>
<path fill="none" stroke="#63b8ff" d="M297.97,-164.58C280.89,-151.81 254.78,-127.89 270,-110 299.45,-75.39 434.21,-67.62 503.13,-65.93"/>
<polygon fill="#63b8ff" stroke="#63b8ff" points="502.97,-69.44 512.89,-65.73 502.82,-62.44 502.97,-69.44"/>
</g>
<!-- Node26&#45;&gt;Node17 -->
<g id="edge34" class="edge">
<title>Node26&#45;&gt;Node17</title>
<path fill="none" stroke="#63b8ff" d="M357.58,-169.39C471.57,-159.32 763.03,-133.57 870.45,-124.08"/>
<polygon fill="#63b8ff" stroke="#63b8ff" points="870.57,-127.58 880.23,-123.22 869.96,-120.61 870.57,-127.58"/>
</g>
<!-- Node26&#45;&gt;Node23 -->
<g id="edge36" class="edge">
<title>Node26&#45;&gt;Node23</title>
<path fill="none" stroke="#63b8ff" d="M318.1,-164.75C323.92,-157.58 332.33,-147.2 339.56,-138.3"/>
<polygon fill="#63b8ff" stroke="#63b8ff" points="342.21,-140.59 345.79,-130.62 336.77,-136.18 342.21,-140.59"/>
</g>
<!-- Node27 -->
<g id="node27" class="node">
<title>Node27</title>
<g id="a_node27"><a xlink:title=" ">
<polygon fill="#e0e0e0" stroke="#999999" points="223,-129 185,-129 185,-110 223,-110 223,-129"/>
<text text-anchor="middle" x="204" y="-117" font-family="Helvetica,sans-Serif" font-size="10.00">map</text>
</a>
</g>
</g>
<!-- Node26&#45;&gt;Node27 -->
<g id="edge35" class="edge">
<title>Node26&#45;&gt;Node27</title>
<path fill="none" stroke="#63b8ff" d="M292.85,-164.51C276.22,-156.27 251.36,-143.96 232.15,-134.45"/>
<polygon fill="#63b8ff" stroke="#63b8ff" points="233.75,-131.33 223.24,-130.03 230.65,-137.6 233.75,-131.33"/>
</g>
<!-- Node28&#45;&gt;Node2 -->
<g id="edge46" class="edge">
<title>Node28&#45;&gt;Node2</title>
<path fill="none" stroke="#63b8ff" d="M2738.55,-384.63C2765.77,-368.69 2817,-332.45 2817,-285.5 2817,-285.5 2817,-285.5 2817,-228.5 2817,-199.04 2821.46,-182.81 2798,-165 2755.4,-132.66 926.46,-130.43 873,-129 801.27,-127.09 717.75,-124.01 669.09,-122.13"/>
<polygon fill="#63b8ff" stroke="#63b8ff" points="669.43,-118.64 659.3,-121.75 669.16,-125.63 669.43,-118.64"/>
</g>
<!-- Node28&#45;&gt;Node3 -->
<g id="edge61" class="edge">
<title>Node28&#45;&gt;Node3</title>
<path fill="none" stroke="#63b8ff" d="M2750.86,-384.52C2789.98,-370.33 2855,-338.74 2855,-285.5 2855,-285.5 2855,-285.5 2855,-228.5 2855,-196.06 2845.86,-183.19 2819,-165 2728.2,-103.5 1958.25,-74.8 1724.82,-67.46"/>
<polygon fill="#63b8ff" stroke="#63b8ff" points="1725.08,-63.96 1714.97,-67.15 1724.86,-70.96 1725.08,-63.96"/>
</g>
<!-- Node28&#45;&gt;Node7 -->
<g id="edge64" class="edge">
<title>Node28&#45;&gt;Node7</title>
<path fill="none" stroke="#63b8ff" d="M2763.39,-386.16C2814,-374.53 2893,-346.6 2893,-285.5 2893,-285.5 2893,-285.5 2893,-118.5 2893,-59.96 1962.09,-20.29 1751.85,-12.08"/>
<polygon fill="#63b8ff" stroke="#63b8ff" points="1752.07,-8.59 1741.94,-11.7 1751.8,-15.58 1752.07,-8.59"/>
</g>
<!-- Node28&#45;&gt;Node10 -->
<g id="edge62" class="edge">
<title>Node28&#45;&gt;Node10</title>
<path fill="none" stroke="#63b8ff" d="M2722,-384.68C2722,-352.57 2722,-241.33 2722,-195.49"/>
<polygon fill="#63b8ff" stroke="#63b8ff" points="2725.5,-195.7 2722,-185.7 2718.5,-195.7 2725.5,-195.7"/>
</g>
<!-- Node28&#45;&gt;Node16 -->
<g id="edge63" class="edge">
<title>Node28&#45;&gt;Node16</title>
<path fill="none" stroke="#63b8ff" d="M2680.57,-387.73C2469.26,-358.27 1510.78,-224.67 1233.41,-186.01"/>
<polygon fill="#63b8ff" stroke="#63b8ff" points="1234.15,-182.58 1223.77,-184.67 1233.19,-189.51 1234.15,-182.58"/>
</g>
<!-- Node29 -->
<g id="node29" class="node">
<title>Node29</title>
<g id="a_node29"><a xlink:href="Player_8h.html" target="_top" xlink:title=" ">
<polygon fill="white" stroke="#666666" points="1060,-349 1004,-349 1004,-330 1060,-330 1060,-349"/>
<text text-anchor="middle" x="1032" y="-337" font-family="Helvetica,sans-Serif" font-size="10.00">Player.h</text>
</a>
</g>
</g>
<!-- Node28&#45;&gt;Node29 -->
<g id="edge47" class="edge">
<title>Node28&#45;&gt;Node29</title>
<path fill="none" stroke="#63b8ff" d="M2680.64,-392.2C2447.54,-384.89 1300.04,-348.91 1071.59,-341.74"/>
<polygon fill="#63b8ff" stroke="#63b8ff" points="1071.84,-338.25 1061.74,-341.43 1071.62,-345.24 1071.84,-338.25"/>
</g>
<!-- Node29&#45;&gt;Node4 -->
<g id="edge50" class="edge">
<title>Node29&#45;&gt;Node4</title>
<path fill="none" stroke="#63b8ff" d="M1020.54,-329.59C976.82,-295.67 821.67,-175.95 796,-165 710.1,-128.37 667.96,-178.86 589,-129 572.23,-118.41 559.9,-99.09 552.43,-84.53"/>
<polygon fill="#63b8ff" stroke="#63b8ff" points="555.59,-83.03 548.14,-75.5 549.27,-86.04 555.59,-83.03"/>
</g>
<!-- Node29&#45;&gt;Node8 -->
<g id="edge51" class="edge">
<title>Node29&#45;&gt;Node8</title>
<path fill="none" stroke="#63b8ff" d="M1060.1,-334.53C1173.31,-318.52 1597.03,-258.63 1744.78,-237.74"/>
<polygon fill="#63b8ff" stroke="#63b8ff" points="1744.85,-241.27 1754.26,-236.4 1743.87,-234.33 1744.85,-241.27"/>
</g>
<!-- Node29&#45;&gt;Node10 -->
<g id="edge59" class="edge">
<title>Node29&#45;&gt;Node10</title>
<path fill="none" stroke="#63b8ff" d="M1060.41,-335.41C1125.59,-328.3 1290.88,-310.14 1429,-294 1630,-270.51 1685.45,-291.08 1881,-239 1901.98,-233.41 1904.84,-224.84 1926,-220 2081.08,-184.52 2482.39,-196.31 2641,-184 2641.85,-183.93 2642.7,-183.87 2643.55,-183.8"/>
<polygon fill="#63b8ff" stroke="#63b8ff" points="2643.67,-187.3 2653.33,-182.96 2643.07,-180.33 2643.67,-187.3"/>
</g>
<!-- Node29&#45;&gt;Node16 -->
<g id="edge60" class="edge">
<title>Node29&#45;&gt;Node16</title>
<path fill="none" stroke="#63b8ff" d="M1039,-329.66C1046.09,-320.7 1057.35,-306.42 1067,-294 1094.59,-258.5 1126.54,-216.74 1144.3,-193.48"/>
<polygon fill="#63b8ff" stroke="#63b8ff" points="1146.99,-195.72 1150.27,-185.65 1141.42,-191.48 1146.99,-195.72"/>
</g>
<!-- Node29&#45;&gt;Node20 -->
<g id="edge49" class="edge">
<title>Node29&#45;&gt;Node20</title>
<path fill="none" stroke="#63b8ff" d="M1003.65,-333.14C960.21,-324.9 874.58,-308.54 802,-294 801,-293.8 799.99,-293.6 798.97,-293.39"/>
<polygon fill="#63b8ff" stroke="#63b8ff" points="799.88,-290 789.38,-291.43 798.48,-296.86 799.88,-290"/>
</g>
<!-- Node30 -->
<g id="node30" class="node">
<title>Node30</title>
<g id="a_node30"><a xlink:href="Effect_8h.html" target="_top" xlink:title=" ">
<polygon fill="white" stroke="#666666" points="1058.5,-294 1005.5,-294 1005.5,-275 1058.5,-275 1058.5,-294"/>
<text text-anchor="middle" x="1032" y="-282" font-family="Helvetica,sans-Serif" font-size="10.00">Effect.h</text>
</a>
</g>
</g>
<!-- Node29&#45;&gt;Node30 -->
<g id="edge48" class="edge">
<title>Node29&#45;&gt;Node30</title>
<path fill="none" stroke="#63b8ff" d="M1032,-329.75C1032,-323.27 1032,-314.16 1032,-305.9"/>
<polygon fill="#63b8ff" stroke="#63b8ff" points="1035.5,-305.96 1032,-295.96 1028.5,-305.96 1035.5,-305.96"/>
</g>
<!-- Node31 -->
<g id="node31" class="node">
<title>Node31</title>
<g id="a_node31"><a xlink:href="Effects_8h.html" target="_top" xlink:title=" ">
<polygon fill="white" stroke="#666666" points="982.5,-239 923.5,-239 923.5,-220 982.5,-220 982.5,-239"/>
<text text-anchor="middle" x="953" y="-227" font-family="Helvetica,sans-Serif" font-size="10.00">Effects.h</text>
</a>
</g>
</g>
<!-- Node29&#45;&gt;Node31 -->
<g id="edge52" class="edge">
<title>Node29&#45;&gt;Node31</title>
<path fill="none" stroke="#63b8ff" d="M1024.6,-329.81C1017.16,-320.96 1005.47,-306.77 996,-294 984.98,-279.12 973.24,-261.67 964.82,-248.83"/>
<polygon fill="#63b8ff" stroke="#63b8ff" points="967.82,-247.03 959.44,-240.56 961.96,-250.85 967.82,-247.03"/>
</g>
<!-- Node31&#45;&gt;Node4 -->
<g id="edge54" class="edge">
<title>Node31&#45;&gt;Node4</title>
<path fill="none" stroke="#63b8ff" d="M937.42,-219.55C914.41,-206.53 869.75,-182.07 830,-165 744.59,-128.31 640.72,-94.84 584.64,-77.64"/>
<polygon fill="#63b8ff" stroke="#63b8ff" points="585.79,-74.33 575.2,-74.76 583.75,-81.03 585.79,-74.33"/>
</g>
<!-- Node31&#45;&gt;Node16 -->
<g id="edge57" class="edge">
<title>Node31&#45;&gt;Node16</title>
<path fill="none" stroke="#63b8ff" d="M982.81,-220.79C1016.84,-211.99 1072.9,-197.5 1112.42,-187.28"/>
<polygon fill="#63b8ff" stroke="#63b8ff" points="1113.08,-190.73 1121.89,-184.84 1111.33,-183.95 1113.08,-190.73"/>
</g>
<!-- Node31&#45;&gt;Node17 -->
<g id="edge56" class="edge">
<title>Node31&#45;&gt;Node17</title>
<path fill="none" stroke="#63b8ff" d="M940.39,-219.55C930.29,-211.54 916.88,-198.81 911,-184 905.5,-170.17 905.8,-153.27 907.32,-140.38"/>
<polygon fill="#63b8ff" stroke="#63b8ff" points="910.76,-141 908.83,-130.59 903.84,-139.93 910.76,-141"/>
</g>
<!-- Node31&#45;&gt;Node24 -->
<g id="edge58" class="edge">
<title>Node31&#45;&gt;Node24</title>
<path fill="none" stroke="#63b8ff" d="M923.27,-221.68C885,-212.9 817.94,-197.51 771.81,-186.93"/>
<polygon fill="#63b8ff" stroke="#63b8ff" points="772.86,-183.58 762.33,-184.75 771.29,-190.4 772.86,-183.58"/>
</g>
<!-- Node32 -->
<g id="node32" class="node">
<title>Node32</title>
<g id="a_node32"><a xlink:title=" ">
<polygon fill="#e0e0e0" stroke="#999999" points="1068,-184 1004,-184 1004,-165 1068,-165 1068,-184"/>
<text text-anchor="middle" x="1036" y="-172" font-family="Helvetica,sans-Serif" font-size="10.00">algorithm</text>
</a>
</g>
</g>
<!-- Node31&#45;&gt;Node32 -->
<g id="edge53" class="edge">
<title>Node31&#45;&gt;Node32</title>
<path fill="none" stroke="#63b8ff" d="M967.08,-219.51C979.56,-211.54 998.02,-199.75 1012.69,-190.38"/>
<polygon fill="#63b8ff" stroke="#63b8ff" points="1014.31,-193.5 1020.85,-185.17 1010.54,-187.6 1014.31,-193.5"/>
</g>
<!-- Node33 -->
<g id="node33" class="node">
<title>Node33</title>
<g id="a_node33"><a xlink:title=" ">
<polygon fill="#e0e0e0" stroke="#999999" points="985.5,-184 920.5,-184 920.5,-165 985.5,-165 985.5,-184"/>
<text text-anchor="middle" x="953" y="-172" font-family="Helvetica,sans-Serif" font-size="10.00">functional</text>
</a>
</g>
</g>
<!-- Node31&#45;&gt;Node33 -->
<g id="edge55" class="edge">
<title>Node31&#45;&gt;Node33</title>
<path fill="none" stroke="#63b8ff" d="M953,-219.75C953,-213.27 953,-204.16 953,-195.9"/>
<polygon fill="#63b8ff" stroke="#63b8ff" points="956.5,-195.96 953,-185.96 949.5,-195.96 956.5,-195.96"/>
</g>
<!-- Node34&#45;&gt;Node29 -->
<g id="edge66" class="edge">
<title>Node34&#45;&gt;Node29</title>
<path fill="none" stroke="#63b8ff" d="M943.15,-384.51C959.78,-376.27 984.64,-363.96 1003.85,-354.45"/>
<polygon fill="#63b8ff" stroke="#63b8ff" points="1005.35,-357.6 1012.76,-350.03 1002.25,-351.33 1005.35,-357.6"/>
</g>
</g>
</svg>
        <g id="navigator" transform="translate(0 0)" fill="#404254">
                <rect fill="#f2f5e9" fill-opacity="0.5" stroke="#606060" stroke-width=".5" x="0" y="0" width="60" height="60"/>
                <use id="zoomplus" xlink:href="#zoomPlus" x="17" y="9" onmousedown="handleZoom(evt,'in')"/>
                <use id="zoomminus" xlink:href="#zoomMin" x="42" y="9" onmousedown="handleZoom(evt,'out')"/>
                <use id="reset" xlink:href="#resetDef" x="30" y="36" onmousedown="handleReset()"/>
                <g id="arrowUp" xlink:href="#dirArrow" transform="translate(30 24)" onmousedown="handlePan(0,-1)">
                  <use xlink:href="#rim" fill="#404040">
                        <set attributeName="fill" to="#808080" begin="arrowUp.mouseover" end="arrowUp.mouseout"/>
                  </use>
                  <path fill="none" stroke="white" stroke-width="1.5" d="M0,-3.0v7 M-2.5,-0.5L0,-3.0L2.5,-0.5"/>
                </g>
                <g id="arrowRight" xlink:href="#dirArrow" transform="rotate(90) translate(36 -43)" onmousedown="handlePan(1,0)">
                  <use xlink:href="#rim" fill="#404040">
                        <set attributeName="fill" to="#808080" begin="arrowRight.mouseover" end="arrowRight.mouseout"/>
                  </use>
                  <path fill="none" stroke="white" stroke-width="1.5" d="M0,-3.0v7 M-2.5,-0.5L0,-3.0L2.5,-0.5"/>
                </g>
                <g id="arrowDown" xlink:href="#dirArrow" transform="rotate(180) translate(-30 -48)" onmousedown="handlePan(0,1)">
                  <use xlink:href="#rim" fill="#404040">
                        <set attributeName="fill" to="#808080" begin="arrowDown.mouseover" end="arrowDown.mouseout"/>
                  </use>
                  <path fill="none" stroke="white" stroke-width="1.5" d="M0,-3.0v7 M-2.5,-0.5L0,-3.0L2.5,-0.5"/>
                </g>
                <g id="arrowLeft" xlink:href="#dirArrow" transform="rotate(270) translate(-36 17)" onmousedown="handlePan(-1,0)">
                  <use xlink:href="#rim" fill="#404040">
                        <set attributeName="fill" to="#808080" begin="arrowLeft.mouseover" end="arrowLeft.mouseout"/>
                  </use>
                  <path fill="none" stroke="white" stroke-width="1.5" d="M0,-3.0v7 M-2.5,-0.5L0,-3.0L2.5,-0.5"/>
                </g>
        </g>
        <svg viewBox="0 0 15 15" width="100%" height="30px" preserveAspectRatio="xMaxYMin meet">
         <g id="arrow_out" transform="scale(0.3 0.3)">
          <a xlink:href="Obstacle_8h__incl_org.svg" target="_base">
           <rect id="button" ry="5" rx="5" y="6" x="6" height="38" width="38"
                fill="#f2f5e9" fill-opacity="0.5" stroke="#606060" stroke-width="1.0"/>
           <path id="arrow"
             d="M 11.500037,31.436501 C 11.940474,20.09759 22.043105,11.32322 32.158766,21.979434 L 37.068811,17.246167 C 37.068811,17.246167 37.088388,32 37.088388,32 L 22.160133,31.978069 C 22.160133,31.978069 26.997745,27.140456 26.997745,27.140456 C 18.528582,18.264221 13.291696,25.230495 11.500037,31.436501 z"
             style="fill:#404040;"/>
          </a>
         </g>
        </svg>
</svg>
