<?xml version="1.0" encoding="UTF-8" standalone="no"?>
<!DOCTYPE svg PUBLIC "-//W3C//DTD SVG 1.1//EN"
 "http://www.w3.org/Graphics/SVG/1.1/DTD/svg11.dtd">
<!-- Generated by graphviz version 7.0.5 (0)
 -->
<!-- Title: src/Pickups.cpp Pages: 1 -->
<!--zoomable 522 -->
<svg id="main" version="1.1" xmlns="http://www.w3.org/2000/svg" xmlns:xlink="http://www.w3.org/1999/xlink" xml:space="preserve" onload="init(evt)">
<style type="text/css"><![CDATA[
.edge:hover path { stroke: red; }
.edge:hover polygon { stroke: red; fill: red; }
]]></style>
<script type="text/javascript"><![CDATA[
var edges = document.getElementsByTagName('g');
if (edges && edges.length) {
  for (var i=0;i<edges.length;i++) {
    if (edges[i].id.substr(0,4)=='edge') {
      edges[i].setAttribute('class','edge');
    }
  }
}
]]></script>
        <defs>
                <circle id="rim" cx="0" cy="0" r="7"/>
                <circle id="rim2" cx="0" cy="0" r="3.5"/>
                <g id="zoomPlus">
                        <use xlink:href="#rim" fill="#404040">
                                <set attributeName="fill" to="#808080" begin="zoomplus.mouseover" end="zoomplus.mouseout"/>
                        </use>
                        <path d="M-4,0h8M0,-4v8" fill="none" stroke="white" stroke-width="1.5" pointer-events="none"/>
                </g>
                <g id="zoomMin">
                        <use xlink:href="#rim" fill="#404040">
                                <set attributeName="fill" to="#808080" begin="zoomminus.mouseover" end="zoomminus.mouseout"/>
                        </use>
                        <path d="M-4,0h8" fill="none" stroke="white" stroke-width="1.5" pointer-events="none"/>
                </g>
                <g id="dirArrow">
                        <path fill="none" stroke="white" stroke-width="1.5" d="M0,-3.0v7 M-2.5,-0.5L0,-3.0L2.5,-0.5"/>
                </g>
               <g id="resetDef">
                       <use xlink:href="#rim2" fill="#404040">
                               <set attributeName="fill" to="#808080" begin="reset.mouseover" end="reset.mouseout"/>
                       </use>
               </g>
        </defs>

<script type="text/javascript">
var viewWidth = 2651;
var viewHeight = 522;
var sectionId = 'dynsection-0';
</script>
<script xlink:href="svgpan.js"/>
<svg id="graph" class="graph">
<g id="viewport">
<title>src/Pickups.cpp</title>
<!-- Node1 -->
<g id="node1" class="node">
<title>Node1</title>
<g id="a_node1"><a xlink:title=" ">
<polygon fill="#999999" stroke="#666666" points="1112.82,-514 1021.82,-514 1021.82,-495 1112.82,-495 1112.82,-514"/>
<text text-anchor="middle" x="1067.32" y="-502" font-family="Helvetica,sans-Serif" font-size="10.00">src/Pickups.cpp</text>
</a>
</g>
</g>
<!-- Node2 -->
<g id="node2" class="node">
<title>Node2</title>
<g id="a_node2"><a xlink:href="Pickups_8h.html" target="_top" xlink:title=" ">
<polygon fill="white" stroke="#666666" points="1098.32,-459 1036.32,-459 1036.32,-440 1098.32,-440 1098.32,-459"/>
<text text-anchor="middle" x="1067.32" y="-447" font-family="Helvetica,sans-Serif" font-size="10.00">Pickups.h</text>
</a>
</g>
</g>
<!-- Node1&#45;&gt;Node2 -->
<g id="edge1" class="edge">
<title>Node1&#45;&gt;Node2</title>
<path fill="none" stroke="#63b8ff" d="M1067.32,-494.75C1067.32,-488.27 1067.32,-479.16 1067.32,-470.9"/>
<polygon fill="#63b8ff" stroke="#63b8ff" points="1070.82,-470.96 1067.32,-460.96 1063.82,-470.96 1070.82,-470.96"/>
</g>
<!-- Node3 -->
<g id="node3" class="node">
<title>Node3</title>
<g id="a_node3"><a xlink:href="PlayerCollidable_8h.html" target="_top" xlink:title=" ">
<polygon fill="white" stroke="#666666" points="1181.82,-404 1076.82,-404 1076.82,-385 1181.82,-385 1181.82,-404"/>
<text text-anchor="middle" x="1129.32" y="-392" font-family="Helvetica,sans-Serif" font-size="10.00">PlayerCollidable.h</text>
</a>
</g>
</g>
<!-- Node2&#45;&gt;Node3 -->
<g id="edge2" class="edge">
<title>Node2&#45;&gt;Node3</title>
<path fill="none" stroke="#63b8ff" d="M1077.84,-439.51C1086.71,-431.93 1099.63,-420.88 1110.31,-411.75"/>
<polygon fill="#63b8ff" stroke="#63b8ff" points="1112.48,-414.5 1117.81,-405.34 1107.93,-409.18 1112.48,-414.5"/>
</g>
<!-- Node6 -->
<g id="node6" class="node">
<title>Node6</title>
<g id="a_node6"><a xlink:href="Entity_8h.html" target="_top" xlink:title=" ">
<polygon fill="white" stroke="#666666" points="1043.82,-294 990.82,-294 990.82,-275 1043.82,-275 1043.82,-294"/>
<text text-anchor="middle" x="1017.32" y="-282" font-family="Helvetica,sans-Serif" font-size="10.00">Entity.h</text>
</a>
</g>
</g>
<!-- Node2&#45;&gt;Node6 -->
<g id="edge56" class="edge">
<title>Node2&#45;&gt;Node6</title>
<path fill="none" stroke="#63b8ff" d="M1064.63,-439.74C1056.87,-414.42 1034.26,-340.72 1023.35,-305.16"/>
<polygon fill="#63b8ff" stroke="#63b8ff" points="1026.75,-304.29 1020.47,-295.75 1020.05,-306.34 1026.75,-304.29"/>
</g>
<!-- Node4 -->
<g id="node4" class="node">
<title>Node4</title>
<g id="a_node4"><a xlink:href="Player_8h.html" target="_top" xlink:title=" ">
<polygon fill="white" stroke="#666666" points="2144.32,-349 2088.32,-349 2088.32,-330 2144.32,-330 2144.32,-349"/>
<text text-anchor="middle" x="2116.32" y="-337" font-family="Helvetica,sans-Serif" font-size="10.00">Player.h</text>
</a>
</g>
</g>
<!-- Node3&#45;&gt;Node4 -->
<g id="edge3" class="edge">
<title>Node3&#45;&gt;Node4</title>
<path fill="none" stroke="#63b8ff" d="M1182.04,-390.67C1357.82,-381.23 1921.56,-350.96 2076.56,-342.64"/>
<polygon fill="#63b8ff" stroke="#63b8ff" points="2076.51,-346.14 2086.31,-342.11 2076.14,-339.15 2076.51,-346.14"/>
</g>
<!-- Node5 -->
<g id="node5" class="node">
<title>Node5</title>
<g id="a_node5"><a xlink:href="Effect_8h.html" target="_top" xlink:title=" ">
<polygon fill="white" stroke="#666666" points="2571.82,-294 2518.82,-294 2518.82,-275 2571.82,-275 2571.82,-294"/>
<text text-anchor="middle" x="2545.32" y="-282" font-family="Helvetica,sans-Serif" font-size="10.00">Effect.h</text>
</a>
</g>
</g>
<!-- Node4&#45;&gt;Node5 -->
<g id="edge4" class="edge">
<title>Node4&#45;&gt;Node5</title>
<path fill="none" stroke="#63b8ff" d="M2144.68,-336.13C2208.93,-330.57 2370.43,-315.51 2504.32,-294 2505.33,-293.84 2506.34,-293.67 2507.37,-293.49"/>
<polygon fill="#63b8ff" stroke="#63b8ff" points="2507.8,-296.97 2516.99,-291.7 2506.52,-290.09 2507.8,-296.97"/>
</g>
<!-- Node4&#45;&gt;Node6 -->
<g id="edge5" class="edge">
<title>Node4&#45;&gt;Node6</title>
<path fill="none" stroke="#63b8ff" d="M2088.05,-337.14C1937.21,-329.86 1227.63,-295.64 1055.17,-287.33"/>
<polygon fill="#63b8ff" stroke="#63b8ff" points="1055.59,-283.84 1045.43,-286.86 1055.25,-290.83 1055.59,-283.84"/>
</g>
<!-- Node15 -->
<g id="node15" class="node">
<title>Node15</title>
<g id="a_node15"><a xlink:href="Enums_8h.html" target="_top" xlink:title=" ">
<polygon fill="white" stroke="#666666" points="684.82,-74 625.82,-74 625.82,-55 684.82,-55 684.82,-74"/>
<text text-anchor="middle" x="655.32" y="-62" font-family="Helvetica,sans-Serif" font-size="10.00">Enums.h</text>
</a>
</g>
</g>
<!-- Node4&#45;&gt;Node15 -->
<g id="edge45" class="edge">
<title>Node4&#45;&gt;Node15</title>
<path fill="none" stroke="#63b8ff" d="M2144.68,-335.56C2225.68,-326.37 2452.32,-294.91 2452.32,-230.5 2452.32,-230.5 2452.32,-230.5 2452.32,-173.5 2452.32,-80.24 2344.28,-125.56 2252.32,-110 2095.07,-83.39 931.29,-68.67 696.52,-65.96"/>
<polygon fill="#63b8ff" stroke="#63b8ff" points="696.69,-62.46 686.65,-65.85 696.6,-69.46 696.69,-62.46"/>
</g>
<!-- Node21 -->
<g id="node21" class="node">
<title>Node21</title>
<g id="a_node21"><a xlink:href="SceneNode_8h.html" target="_top" xlink:title=" ">
<polygon fill="white" stroke="#666666" points="1696.32,-239 1616.32,-239 1616.32,-220 1696.32,-220 1696.32,-239"/>
<text text-anchor="middle" x="1656.32" y="-227" font-family="Helvetica,sans-Serif" font-size="10.00">SceneNode.h</text>
</a>
</g>
</g>
<!-- Node4&#45;&gt;Node21 -->
<g id="edge46" class="edge">
<title>Node4&#45;&gt;Node21</title>
<path fill="none" stroke="#63b8ff" d="M2087.89,-331.83C2011.66,-313.93 1801.97,-264.7 1705.75,-242.1"/>
<polygon fill="#63b8ff" stroke="#63b8ff" points="1706.6,-238.71 1696.07,-239.83 1705,-245.53 1706.6,-238.71"/>
</g>
<!-- Node23 -->
<g id="node23" class="node">
<title>Node23</title>
<g id="a_node23"><a xlink:title=" ">
<polygon fill="#e0e0e0" stroke="#999999" points="817.32,-184 683.32,-184 683.32,-165 817.32,-165 817.32,-184"/>
<text text-anchor="middle" x="750.32" y="-172" font-family="Helvetica,sans-Serif" font-size="10.00">SFML/Graphics/Rect.hpp</text>
</a>
</g>
</g>
<!-- Node4&#45;&gt;Node23 -->
<g id="edge54" class="edge">
<title>Node4&#45;&gt;Node23</title>
<path fill="none" stroke="#63b8ff" d="M2088.1,-335.13C1923.98,-315.55 1090.63,-216.11 829.01,-184.89"/>
<polygon fill="#63b8ff" stroke="#63b8ff" points="829.57,-181.43 819.23,-183.72 828.74,-188.38 829.57,-181.43"/>
</g>
<!-- Node29 -->
<g id="node29" class="node">
<title>Node29</title>
<g id="a_node29"><a xlink:title=" ">
<polygon fill="#e0e0e0" stroke="#999999" points="2385.82,-184 2242.82,-184 2242.82,-165 2385.82,-165 2385.82,-184"/>
<text text-anchor="middle" x="2314.32" y="-172" font-family="Helvetica,sans-Serif" font-size="10.00">SFML/System/Vector2.hpp</text>
</a>
</g>
</g>
<!-- Node4&#45;&gt;Node29 -->
<g id="edge55" class="edge">
<title>Node4&#45;&gt;Node29</title>
<path fill="none" stroke="#63b8ff" d="M2127.25,-329.5C2159.37,-303.06 2253.82,-225.31 2294.88,-191.5"/>
<polygon fill="#63b8ff" stroke="#63b8ff" points="2297,-194.29 2302.5,-185.23 2292.56,-188.88 2297,-194.29"/>
</g>
<!-- Node32 -->
<g id="node32" class="node">
<title>Node32</title>
<g id="a_node32"><a xlink:href="Effects_8h.html" target="_top" xlink:title=" ">
<polygon fill="white" stroke="#666666" points="2539.82,-239 2480.82,-239 2480.82,-220 2539.82,-220 2539.82,-239"/>
<text text-anchor="middle" x="2510.32" y="-227" font-family="Helvetica,sans-Serif" font-size="10.00">Effects.h</text>
</a>
</g>
</g>
<!-- Node4&#45;&gt;Node32 -->
<g id="edge47" class="edge">
<title>Node4&#45;&gt;Node32</title>
<path fill="none" stroke="#63b8ff" d="M2144.72,-337.83C2218.15,-335.63 2412.33,-326.78 2466.32,-294 2483.15,-283.78 2495.14,-264.41 2502.32,-249.74"/>
<polygon fill="#63b8ff" stroke="#63b8ff" points="2505.5,-251.18 2506.41,-240.62 2499.12,-248.31 2505.5,-251.18"/>
</g>
<!-- Node7 -->
<g id="node7" class="node">
<title>Node7</title>
<g id="a_node7"><a xlink:href="AnimationMachine_8h.html" target="_top" xlink:title=" ">
<polygon fill="white" stroke="#666666" points="317.82,-239 200.82,-239 200.82,-220 317.82,-220 317.82,-239"/>
<text text-anchor="middle" x="259.32" y="-227" font-family="Helvetica,sans-Serif" font-size="10.00">AnimationMachine.h</text>
</a>
</g>
</g>
<!-- Node6&#45;&gt;Node7 -->
<g id="edge6" class="edge">
<title>Node6&#45;&gt;Node7</title>
<path fill="none" stroke="#63b8ff" d="M990.34,-281.61C883.91,-274.17 491.09,-246.71 329.48,-235.41"/>
<polygon fill="#63b8ff" stroke="#63b8ff" points="329.98,-231.93 319.76,-234.73 329.49,-238.91 329.98,-231.93"/>
</g>
<!-- Node11 -->
<g id="node11" class="node">
<title>Node11</title>
<g id="a_node11"><a xlink:title=" ">
<polygon fill="#e0e0e0" stroke="#999999" points="626.82,-184 495.82,-184 495.82,-165 626.82,-165 626.82,-184"/>
<text text-anchor="middle" x="561.32" y="-172" font-family="Helvetica,sans-Serif" font-size="10.00">SFML/System/Time.hpp</text>
</a>
</g>
</g>
<!-- Node6&#45;&gt;Node11 -->
<g id="edge43" class="edge">
<title>Node6&#45;&gt;Node11</title>
<path fill="none" stroke="#63b8ff" d="M990.37,-282.22C915.22,-278.35 704.74,-265.39 641.32,-239 615.87,-228.41 591.82,-207.26 576.86,-192.28"/>
<polygon fill="#63b8ff" stroke="#63b8ff" points="579.68,-190.16 570.22,-185.39 574.64,-195.02 579.68,-190.16"/>
</g>
<!-- Node6&#45;&gt;Node15 -->
<g id="edge26" class="edge">
<title>Node6&#45;&gt;Node15</title>
<path fill="none" stroke="#63b8ff" d="M990.43,-279.46C917.25,-267.89 717.07,-232.38 674.32,-184 650.24,-156.75 650.16,-111.59 652.55,-85.59"/>
<polygon fill="#63b8ff" stroke="#63b8ff" points="656.02,-86.08 653.7,-75.74 649.07,-85.27 656.02,-86.08"/>
</g>
<!-- Node6&#45;&gt;Node21 -->
<g id="edge27" class="edge">
<title>Node6&#45;&gt;Node21</title>
<path fill="none" stroke="#63b8ff" d="M1043.96,-281.29C1140.84,-273.26 1475.42,-245.5 1604.74,-234.78"/>
<polygon fill="#63b8ff" stroke="#63b8ff" points="1604.69,-238.29 1614.37,-233.98 1604.11,-231.32 1604.69,-238.29"/>
</g>
<!-- Node6&#45;&gt;Node23 -->
<g id="edge42" class="edge">
<title>Node6&#45;&gt;Node23</title>
<path fill="none" stroke="#63b8ff" d="M995.47,-274.66C948.63,-255.72 838.33,-211.1 783.07,-188.75"/>
<polygon fill="#63b8ff" stroke="#63b8ff" points="784.46,-185.53 773.88,-185.03 781.83,-192.02 784.46,-185.53"/>
</g>
<!-- Node6&#45;&gt;Node29 -->
<g id="edge44" class="edge">
<title>Node6&#45;&gt;Node29</title>
<path fill="none" stroke="#63b8ff" d="M1044.23,-282.14C1136.46,-277.4 1448.3,-260.7 1705.32,-239 1893.69,-223.09 2114.22,-198.65 2231.34,-185.2"/>
<polygon fill="#63b8ff" stroke="#63b8ff" points="2231.65,-188.68 2241.18,-184.06 2230.85,-181.73 2231.65,-188.68"/>
</g>
<!-- Node8 -->
<g id="node8" class="node">
<title>Node8</title>
<g id="a_node8"><a xlink:title=" ">
<polygon fill="#e0e0e0" stroke="#999999" points="340.32,-74 230.32,-74 230.32,-55 340.32,-55 340.32,-74"/>
<text text-anchor="middle" x="285.32" y="-62" font-family="Helvetica,sans-Serif" font-size="10.00">SFML/Graphics.hpp</text>
</a>
</g>
</g>
<!-- Node7&#45;&gt;Node8 -->
<g id="edge7" class="edge">
<title>Node7&#45;&gt;Node8</title>
<path fill="none" stroke="#63b8ff" d="M200.55,-226.42C134.73,-222.7 34.11,-212.41 10.32,-184 4.9,-177.52 5.91,-172.2 10.32,-165 53.34,-94.82 152.16,-73.62 218.85,-67.52"/>
<polygon fill="#63b8ff" stroke="#63b8ff" points="218.9,-71.02 228.58,-66.72 218.33,-64.05 218.9,-71.02"/>
</g>
<!-- Node9 -->
<g id="node9" class="node">
<title>Node9</title>
<g id="a_node9"><a xlink:title=" ">
<polygon fill="#e0e0e0" stroke="#999999" points="160.82,-184 19.82,-184 19.82,-165 160.82,-165 160.82,-184"/>
<text text-anchor="middle" x="90.32" y="-172" font-family="Helvetica,sans-Serif" font-size="10.00">SFML/Graphics/Sprite.hpp</text>
</a>
</g>
</g>
<!-- Node7&#45;&gt;Node9 -->
<g id="edge8" class="edge">
<title>Node7&#45;&gt;Node9</title>
<path fill="none" stroke="#63b8ff" d="M230.65,-219.51C202.89,-210.8 160.58,-197.53 129.67,-187.84"/>
<polygon fill="#63b8ff" stroke="#63b8ff" points="130.88,-184.55 120.29,-184.9 128.79,-191.23 130.88,-184.55"/>
</g>
<!-- Node10 -->
<g id="node10" class="node">
<title>Node10</title>
<g id="a_node10"><a xlink:title=" ">
<polygon fill="#e0e0e0" stroke="#999999" points="276.82,-129 127.82,-129 127.82,-110 276.82,-110 276.82,-129"/>
<text text-anchor="middle" x="202.32" y="-117" font-family="Helvetica,sans-Serif" font-size="10.00">SFML/Graphics/Texture.hpp</text>
</a>
</g>
</g>
<!-- Node7&#45;&gt;Node10 -->
<g id="edge9" class="edge">
<title>Node7&#45;&gt;Node10</title>
<path fill="none" stroke="#63b8ff" d="M246.2,-219.51C235.57,-211.48 221.12,-198.73 213.32,-184 206.26,-170.65 203.58,-153.72 202.64,-140.7"/>
<polygon fill="#63b8ff" stroke="#63b8ff" points="206.13,-140.62 202.23,-130.77 199.14,-140.91 206.13,-140.62"/>
</g>
<!-- Node7&#45;&gt;Node11 -->
<g id="edge10" class="edge">
<title>Node7&#45;&gt;Node11</title>
<path fill="none" stroke="#63b8ff" d="M310.55,-219.51C362.58,-210.38 443.23,-196.23 498.95,-186.45"/>
<polygon fill="#63b8ff" stroke="#63b8ff" points="499.36,-189.93 508.6,-184.75 498.15,-183.03 499.36,-189.93"/>
</g>
<!-- Node12 -->
<g id="node12" class="node">
<title>Node12</title>
<g id="a_node12"><a xlink:title=" ">
<polygon fill="#e0e0e0" stroke="#999999" points="327.32,-184 255.32,-184 255.32,-165 327.32,-165 327.32,-184"/>
<text text-anchor="middle" x="291.32" y="-172" font-family="Helvetica,sans-Serif" font-size="10.00">sys/types.h</text>
</a>
</g>
</g>
<!-- Node7&#45;&gt;Node12 -->
<g id="edge11" class="edge">
<title>Node7&#45;&gt;Node12</title>
<path fill="none" stroke="#63b8ff" d="M264.61,-219.75C268.8,-212.81 274.8,-202.86 280.06,-194.16"/>
<polygon fill="#63b8ff" stroke="#63b8ff" points="282.97,-196.11 285.14,-185.74 276.97,-192.49 282.97,-196.11"/>
</g>
<!-- Node13 -->
<g id="node13" class="node">
<title>Node13</title>
<g id="a_node13"><a xlink:title=" ">
<polygon fill="#e0e0e0" stroke="#999999" points="383.32,-19 323.32,-19 323.32,0 383.32,0 383.32,-19"/>
<text text-anchor="middle" x="353.32" y="-7" font-family="Helvetica,sans-Serif" font-size="10.00">iostream</text>
</a>
</g>
</g>
<!-- Node7&#45;&gt;Node13 -->
<g id="edge12" class="edge">
<title>Node7&#45;&gt;Node13</title>
<path fill="none" stroke="#63b8ff" d="M200.42,-226.74C132.8,-223.34 28,-213.34 3.32,-184 -2.11,-177.54 0.91,-173.09 3.32,-165 40.62,-39.9 226.95,-15.82 311.49,-11.39"/>
<polygon fill="#63b8ff" stroke="#63b8ff" points="311.61,-14.88 321.44,-10.94 311.3,-7.89 311.61,-14.88"/>
</g>
<!-- Node14 -->
<g id="node14" class="node">
<title>Node14</title>
<g id="a_node14"><a xlink:href="Consts_8h.html" target="_top" xlink:title=" ">
<polygon fill="white" stroke="#666666" points="367.82,-129 308.82,-129 308.82,-110 367.82,-110 367.82,-129"/>
<text text-anchor="middle" x="338.32" y="-117" font-family="Helvetica,sans-Serif" font-size="10.00">Consts.h</text>
</a>
</g>
</g>
<!-- Node7&#45;&gt;Node14 -->
<g id="edge13" class="edge">
<title>Node7&#45;&gt;Node14</title>
<path fill="none" stroke="#63b8ff" d="M253.72,-219.57C246.36,-206.58 235.56,-182.16 246.32,-165 257.67,-146.91 278.69,-135.99 297.77,-129.5"/>
<polygon fill="#63b8ff" stroke="#63b8ff" points="298.7,-132.88 307.25,-126.61 296.66,-126.18 298.7,-132.88"/>
</g>
<!-- Node7&#45;&gt;Node15 -->
<g id="edge19" class="edge">
<title>Node7&#45;&gt;Node15</title>
<path fill="none" stroke="#63b8ff" d="M315.71,-219.51C353.73,-212.4 404.57,-200.84 447.32,-184 466.37,-176.5 579.26,-110.38 630.3,-80.29"/>
<polygon fill="#63b8ff" stroke="#63b8ff" points="632.05,-83.32 638.89,-75.22 628.5,-77.29 632.05,-83.32"/>
</g>
<!-- Node18 -->
<g id="node18" class="node">
<title>Node18</title>
<g id="a_node18"><a xlink:href="TextureHolder_8h.html" target="_top" xlink:title=" ">
<polygon fill="white" stroke="#666666" points="438.82,-184 345.82,-184 345.82,-165 438.82,-165 438.82,-184"/>
<text text-anchor="middle" x="392.32" y="-172" font-family="Helvetica,sans-Serif" font-size="10.00">TextureHolder.h</text>
</a>
</g>
</g>
<!-- Node7&#45;&gt;Node18 -->
<g id="edge20" class="edge">
<title>Node7&#45;&gt;Node18</title>
<path fill="none" stroke="#63b8ff" d="M281.88,-219.51C303.22,-211.01 335.48,-198.15 359.63,-188.53"/>
<polygon fill="#63b8ff" stroke="#63b8ff" points="360.69,-191.87 368.69,-184.92 358.1,-185.37 360.69,-191.87"/>
</g>
<!-- Node14&#45;&gt;Node8 -->
<g id="edge14" class="edge">
<title>Node14&#45;&gt;Node8</title>
<path fill="none" stroke="#63b8ff" d="M329.57,-109.75C322.17,-102.35 311.36,-91.54 302.28,-82.45"/>
<polygon fill="#63b8ff" stroke="#63b8ff" points="304.88,-80.11 295.33,-75.51 299.93,-85.06 304.88,-80.11"/>
</g>
<!-- Node14&#45;&gt;Node15 -->
<g id="edge15" class="edge">
<title>Node14&#45;&gt;Node15</title>
<path fill="none" stroke="#63b8ff" d="M368.1,-111.83C371.21,-111.19 374.33,-110.57 377.32,-110 461.22,-94.16 560.06,-79.21 614.39,-71.32"/>
<polygon fill="#63b8ff" stroke="#63b8ff" points="614.71,-74.81 624.11,-69.92 613.71,-67.88 614.71,-74.81"/>
</g>
<!-- Node16 -->
<g id="node16" class="node">
<title>Node16</title>
<g id="a_node16"><a xlink:href="Random_8h.html" target="_top" xlink:title=" ">
<polygon fill="white" stroke="#666666" points="424.32,-74 358.32,-74 358.32,-55 424.32,-55 424.32,-74"/>
<text text-anchor="middle" x="391.32" y="-62" font-family="Helvetica,sans-Serif" font-size="10.00">Random.h</text>
</a>
</g>
</g>
<!-- Node14&#45;&gt;Node16 -->
<g id="edge16" class="edge">
<title>Node14&#45;&gt;Node16</title>
<path fill="none" stroke="#63b8ff" d="M347.07,-109.75C354.47,-102.35 365.28,-91.54 374.37,-82.45"/>
<polygon fill="#63b8ff" stroke="#63b8ff" points="376.71,-85.06 381.31,-75.51 371.76,-80.11 376.71,-85.06"/>
</g>
<!-- Node16&#45;&gt;Node13 -->
<g id="edge18" class="edge">
<title>Node16&#45;&gt;Node13</title>
<path fill="none" stroke="#63b8ff" d="M385.05,-54.75C379.96,-47.66 372.63,-37.42 366.29,-28.59"/>
<polygon fill="#63b8ff" stroke="#63b8ff" points="369.29,-26.76 360.61,-20.67 363.6,-30.84 369.29,-26.76"/>
</g>
<!-- Node17 -->
<g id="node17" class="node">
<title>Node17</title>
<g id="a_node17"><a xlink:title=" ">
<polygon fill="#e0e0e0" stroke="#999999" points="455.32,-19 401.32,-19 401.32,0 455.32,0 455.32,-19"/>
<text text-anchor="middle" x="428.32" y="-7" font-family="Helvetica,sans-Serif" font-size="10.00">random</text>
</a>
</g>
</g>
<!-- Node16&#45;&gt;Node17 -->
<g id="edge17" class="edge">
<title>Node16&#45;&gt;Node17</title>
<path fill="none" stroke="#63b8ff" d="M397.43,-54.75C402.33,-47.73 409.37,-37.64 415.5,-28.87"/>
<polygon fill="#63b8ff" stroke="#63b8ff" points="418.36,-30.89 421.21,-20.68 412.62,-26.88 418.36,-30.89"/>
</g>
<!-- Node18&#45;&gt;Node10 -->
<g id="edge23" class="edge">
<title>Node18&#45;&gt;Node10</title>
<path fill="none" stroke="#63b8ff" d="M360.09,-164.51C328.47,-155.69 280.05,-142.18 245.19,-132.46"/>
<polygon fill="#63b8ff" stroke="#63b8ff" points="246.42,-129.17 235.85,-129.85 244.54,-135.91 246.42,-129.17"/>
</g>
<!-- Node18&#45;&gt;Node14 -->
<g id="edge25" class="edge">
<title>Node18&#45;&gt;Node14</title>
<path fill="none" stroke="#63b8ff" d="M383.4,-164.75C375.87,-157.35 364.85,-146.54 355.6,-137.45"/>
<polygon fill="#63b8ff" stroke="#63b8ff" points="358.1,-135.01 348.51,-130.5 353.2,-140 358.1,-135.01"/>
</g>
<!-- Node18&#45;&gt;Node15 -->
<g id="edge24" class="edge">
<title>Node18&#45;&gt;Node15</title>
<path fill="none" stroke="#63b8ff" d="M413.84,-164.66C459.98,-145.72 568.63,-101.1 623.06,-78.75"/>
<polygon fill="#63b8ff" stroke="#63b8ff" points="624.18,-82.07 632.1,-75.04 621.52,-75.6 624.18,-82.07"/>
</g>
<!-- Node19 -->
<g id="node19" class="node">
<title>Node19</title>
<g id="a_node19"><a xlink:title=" ">
<polygon fill="#e0e0e0" stroke="#999999" points="2243.32,-129 2185.32,-129 2185.32,-110 2243.32,-110 2243.32,-129"/>
<text text-anchor="middle" x="2214.32" y="-117" font-family="Helvetica,sans-Serif" font-size="10.00">memory</text>
</a>
</g>
</g>
<!-- Node18&#45;&gt;Node19 -->
<g id="edge21" class="edge">
<title>Node18&#45;&gt;Node19</title>
<path fill="none" stroke="#63b8ff" d="M439.13,-168.67C454.19,-167.28 470.94,-165.89 486.32,-165 1159.82,-125.92 1982.98,-121.16 2173.6,-120.58"/>
<polygon fill="#63b8ff" stroke="#63b8ff" points="2173.48,-124.08 2183.47,-120.55 2173.46,-117.08 2173.48,-124.08"/>
</g>
<!-- Node20 -->
<g id="node20" class="node">
<title>Node20</title>
<g id="a_node20"><a xlink:title=" ">
<polygon fill="#e0e0e0" stroke="#999999" points="424.32,-129 386.32,-129 386.32,-110 424.32,-110 424.32,-129"/>
<text text-anchor="middle" x="405.32" y="-117" font-family="Helvetica,sans-Serif" font-size="10.00">map</text>
</a>
</g>
</g>
<!-- Node18&#45;&gt;Node20 -->
<g id="edge22" class="edge">
<title>Node18&#45;&gt;Node20</title>
<path fill="none" stroke="#63b8ff" d="M394.47,-164.75C396.08,-158.19 398.34,-148.95 400.39,-140.6"/>
<polygon fill="#63b8ff" stroke="#63b8ff" points="403.78,-141.46 402.77,-130.91 396.99,-139.79 403.78,-141.46"/>
</g>
<!-- Node21&#45;&gt;Node8 -->
<g id="edge29" class="edge">
<title>Node21&#45;&gt;Node8</title>
<path fill="none" stroke="#63b8ff" d="M1616.18,-228.13C1476.64,-226.53 1013.35,-218.68 869.32,-184 849.01,-179.11 846.29,-171.15 826.32,-165 738.37,-137.89 476.21,-95.21 352,-75.76"/>
<polygon fill="#63b8ff" stroke="#63b8ff" points="352.7,-72.33 342.28,-74.24 351.62,-79.24 352.7,-72.33"/>
</g>
<!-- Node21&#45;&gt;Node13 -->
<g id="edge41" class="edge">
<title>Node21&#45;&gt;Node13</title>
<path fill="none" stroke="#63b8ff" d="M1615.92,-227.27C1469.32,-222.66 970.47,-205.53 902.32,-184 850.28,-167.56 744.85,-73 693.32,-55 569.48,-11.75 527.4,-39.8 394.5,-19.16"/>
<polygon fill="#63b8ff" stroke="#63b8ff" points="395.43,-15.77 384.99,-17.62 394.3,-22.68 395.43,-15.77"/>
</g>
<!-- Node21&#45;&gt;Node15 -->
<g id="edge28" class="edge">
<title>Node21&#45;&gt;Node15</title>
<path fill="none" stroke="#63b8ff" d="M1696.52,-220.68C1698.14,-220.44 1699.75,-220.21 1701.32,-220 1802.49,-206.49 2227.07,-239.52 2157.32,-165 2105.95,-110.11 933.23,-73.5 696.68,-66.66"/>
<polygon fill="#63b8ff" stroke="#63b8ff" points="696.81,-63.16 686.72,-66.38 696.61,-70.16 696.81,-63.16"/>
</g>
<!-- Node21&#45;&gt;Node19 -->
<g id="edge38" class="edge">
<title>Node21&#45;&gt;Node19</title>
<path fill="none" stroke="#63b8ff" d="M1696.48,-226.32C1817.34,-219.62 2170.64,-198.85 2190.32,-184 2203.86,-173.79 2209.76,-155 2212.33,-140.5"/>
<polygon fill="#63b8ff" stroke="#63b8ff" points="2215.79,-141.06 2213.64,-130.69 2208.85,-140.13 2215.79,-141.06"/>
</g>
<!-- Node22 -->
<g id="node22" class="node">
<title>Node22</title>
<g id="a_node22"><a xlink:title=" ">
<polygon fill="#e0e0e0" stroke="#999999" points="1070.82,-184 911.82,-184 911.82,-165 1070.82,-165 1070.82,-184"/>
<text text-anchor="middle" x="991.32" y="-172" font-family="Helvetica,sans-Serif" font-size="10.00">SFML/Graphics/Drawable.hpp</text>
</a>
</g>
</g>
<!-- Node21&#45;&gt;Node22 -->
<g id="edge30" class="edge">
<title>Node21&#45;&gt;Node22</title>
<path fill="none" stroke="#63b8ff" d="M1616.15,-225.65C1524.01,-219.05 1290.08,-202 1082.33,-184.16"/>
<polygon fill="#63b8ff" stroke="#63b8ff" points="1082.66,-180.67 1072.4,-183.3 1082.06,-187.65 1082.66,-180.67"/>
</g>
<!-- Node21&#45;&gt;Node23 -->
<g id="edge31" class="edge">
<title>Node21&#45;&gt;Node23</title>
<path fill="none" stroke="#63b8ff" d="M1615.93,-227.05C1496.11,-222.58 1132.31,-207.89 831.32,-184 830.48,-183.93 829.62,-183.86 828.77,-183.79"/>
<polygon fill="#63b8ff" stroke="#63b8ff" points="829.25,-180.32 818.99,-182.94 828.65,-187.3 829.25,-180.32"/>
</g>
<!-- Node24 -->
<g id="node24" class="node">
<title>Node24</title>
<g id="a_node24"><a xlink:title=" ">
<polygon fill="#e0e0e0" stroke="#999999" points="1267.32,-184 1089.32,-184 1089.32,-165 1267.32,-165 1267.32,-184"/>
<text text-anchor="middle" x="1178.32" y="-172" font-family="Helvetica,sans-Serif" font-size="10.00">SFML/Graphics/RenderStates.hpp</text>
</a>
</g>
</g>
<!-- Node21&#45;&gt;Node24 -->
<g id="edge32" class="edge">
<title>Node21&#45;&gt;Node24</title>
<path fill="none" stroke="#63b8ff" d="M1615.98,-224.03C1540.19,-215.62 1374.79,-197.28 1270.42,-185.71"/>
<polygon fill="#63b8ff" stroke="#63b8ff" points="1271.1,-182.27 1260.77,-184.64 1270.32,-189.22 1271.1,-182.27"/>
</g>
<!-- Node25 -->
<g id="node25" class="node">
<title>Node25</title>
<g id="a_node25"><a xlink:title=" ">
<polygon fill="#e0e0e0" stroke="#999999" points="1462.82,-184 1285.82,-184 1285.82,-165 1462.82,-165 1462.82,-184"/>
<text text-anchor="middle" x="1374.32" y="-172" font-family="Helvetica,sans-Serif" font-size="10.00">SFML/Graphics/RenderTarget.hpp</text>
</a>
</g>
</g>
<!-- Node21&#45;&gt;Node25 -->
<g id="edge33" class="edge">
<title>Node21&#45;&gt;Node25</title>
<path fill="none" stroke="#63b8ff" d="M1615.92,-220.91C1568.14,-211.93 1488.22,-196.91 1433.48,-186.62"/>
<polygon fill="#63b8ff" stroke="#63b8ff" points="1434.16,-183.19 1423.69,-184.78 1432.87,-190.06 1434.16,-183.19"/>
</g>
<!-- Node26 -->
<g id="node26" class="node">
<title>Node26</title>
<g id="a_node26"><a xlink:title=" ">
<polygon fill="#e0e0e0" stroke="#999999" points="1641.82,-184 1480.82,-184 1480.82,-165 1641.82,-165 1641.82,-184"/>
<text text-anchor="middle" x="1561.32" y="-172" font-family="Helvetica,sans-Serif" font-size="10.00">SFML/Graphics/Transform.hpp</text>
</a>
</g>
</g>
<!-- Node21&#45;&gt;Node26 -->
<g id="edge34" class="edge">
<title>Node21&#45;&gt;Node26</title>
<path fill="none" stroke="#63b8ff" d="M1640.21,-219.51C1625.65,-211.39 1603.98,-199.3 1587.03,-189.85"/>
<polygon fill="#63b8ff" stroke="#63b8ff" points="1588.96,-186.91 1578.52,-185.1 1585.55,-193.02 1588.96,-186.91"/>
</g>
<!-- Node27 -->
<g id="node27" class="node">
<title>Node27</title>
<g id="a_node27"><a xlink:title=" ">
<polygon fill="#e0e0e0" stroke="#999999" points="1842.32,-184 1660.32,-184 1660.32,-165 1842.32,-165 1842.32,-184"/>
<text text-anchor="middle" x="1751.32" y="-172" font-family="Helvetica,sans-Serif" font-size="10.00">SFML/Graphics/Transformable.hpp</text>
</a>
</g>
</g>
<!-- Node21&#45;&gt;Node27 -->
<g id="edge35" class="edge">
<title>Node21&#45;&gt;Node27</title>
<path fill="none" stroke="#63b8ff" d="M1672.44,-219.51C1686.99,-211.39 1708.66,-199.3 1725.61,-189.85"/>
<polygon fill="#63b8ff" stroke="#63b8ff" points="1727.09,-193.02 1734.12,-185.1 1723.68,-186.91 1727.09,-193.02"/>
</g>
<!-- Node28 -->
<g id="node28" class="node">
<title>Node28</title>
<g id="a_node28"><a xlink:title=" ">
<polygon fill="#e0e0e0" stroke="#999999" points="2032.32,-184 1860.32,-184 1860.32,-165 2032.32,-165 2032.32,-184"/>
<text text-anchor="middle" x="1946.32" y="-172" font-family="Helvetica,sans-Serif" font-size="10.00">SFML/System/NonCopyable.hpp</text>
</a>
</g>
</g>
<!-- Node21&#45;&gt;Node28 -->
<g id="edge36" class="edge">
<title>Node21&#45;&gt;Node28</title>
<path fill="none" stroke="#63b8ff" d="M1696.64,-221.13C1745.81,-212.14 1829.37,-196.87 1886.16,-186.5"/>
<polygon fill="#63b8ff" stroke="#63b8ff" points="1886.44,-190 1895.65,-184.76 1885.18,-183.12 1886.44,-190"/>
</g>
<!-- Node21&#45;&gt;Node29 -->
<g id="edge37" class="edge">
<title>Node21&#45;&gt;Node29</title>
<path fill="none" stroke="#63b8ff" d="M1696.57,-225.66C1790.01,-219 2028.89,-201.61 2228.32,-184 2229.33,-183.91 2230.35,-183.82 2231.38,-183.73"/>
<polygon fill="#63b8ff" stroke="#63b8ff" points="2231.39,-187.24 2241.03,-182.85 2230.75,-180.27 2231.39,-187.24"/>
</g>
<!-- Node30 -->
<g id="node30" class="node">
<title>Node30</title>
<g id="a_node30"><a xlink:title=" ">
<polygon fill="#e0e0e0" stroke="#999999" points="2097.82,-184 2050.82,-184 2050.82,-165 2097.82,-165 2097.82,-184"/>
<text text-anchor="middle" x="2074.32" y="-172" font-family="Helvetica,sans-Serif" font-size="10.00">vector</text>
</a>
</g>
</g>
<!-- Node21&#45;&gt;Node30 -->
<g id="edge39" class="edge">
<title>Node21&#45;&gt;Node30</title>
<path fill="none" stroke="#63b8ff" d="M1696.78,-225.66C1765.29,-220.45 1908.66,-207.84 2039.6,-184.05"/>
<polygon fill="#63b8ff" stroke="#63b8ff" points="2039.93,-187.55 2049.13,-182.3 2038.66,-180.67 2039.93,-187.55"/>
</g>
<!-- Node31 -->
<g id="node31" class="node">
<title>Node31</title>
<g id="a_node31"><a xlink:title=" ">
<polygon fill="#e0e0e0" stroke="#999999" points="2148.32,-184 2116.32,-184 2116.32,-165 2148.32,-165 2148.32,-184"/>
<text text-anchor="middle" x="2132.32" y="-172" font-family="Helvetica,sans-Serif" font-size="10.00">set</text>
</a>
</g>
</g>
<!-- Node21&#45;&gt;Node31 -->
<g id="edge40" class="edge">
<title>Node21&#45;&gt;Node31</title>
<path fill="none" stroke="#63b8ff" d="M1696.62,-225.71C1788.18,-219.2 2010.58,-202.29 2104.95,-183.93"/>
<polygon fill="#63b8ff" stroke="#63b8ff" points="2105.5,-187.39 2114.58,-181.93 2104.08,-180.53 2105.5,-187.39"/>
</g>
<!-- Node32&#45;&gt;Node11 -->
<g id="edge53" class="edge">
<title>Node32&#45;&gt;Node11</title>
<path fill="none" stroke="#63b8ff" d="M2480.59,-228.35C2307.05,-227.33 1407.55,-220.44 674.32,-184 662.78,-183.43 650.59,-182.67 638.65,-181.84"/>
<polygon fill="#63b8ff" stroke="#63b8ff" points="639.05,-178.36 628.82,-181.14 638.55,-185.34 639.05,-178.36"/>
</g>
<!-- Node32&#45;&gt;Node15 -->
<g id="edge49" class="edge">
<title>Node32&#45;&gt;Node15</title>
<path fill="none" stroke="#63b8ff" d="M2540.04,-225.11C2585.47,-218.7 2664.25,-201.95 2637.32,-165 2590.3,-100.48 2545.03,-123.34 2466.32,-110 2286.71,-79.56 948.74,-67.77 696.33,-65.8"/>
<polygon fill="#63b8ff" stroke="#63b8ff" points="696.68,-62.31 686.65,-65.73 696.63,-69.31 696.68,-62.31"/>
</g>
<!-- Node32&#45;&gt;Node19 -->
<g id="edge51" class="edge">
<title>Node32&#45;&gt;Node19</title>
<path fill="none" stroke="#63b8ff" d="M2497.08,-219.66C2476.25,-206.12 2434.19,-180.2 2395.32,-165 2348.48,-146.68 2291.8,-134.2 2254.49,-127.23"/>
<polygon fill="#63b8ff" stroke="#63b8ff" points="2255.52,-123.86 2245.06,-125.51 2254.27,-130.74 2255.52,-123.86"/>
</g>
<!-- Node32&#45;&gt;Node29 -->
<g id="edge52" class="edge">
<title>Node32&#45;&gt;Node29</title>
<path fill="none" stroke="#63b8ff" d="M2480.55,-220.45C2448.04,-211.66 2395.64,-197.49 2358.37,-187.41"/>
<polygon fill="#63b8ff" stroke="#63b8ff" points="2359.35,-184.05 2348.78,-184.82 2357.52,-190.81 2359.35,-184.05"/>
</g>
<!-- Node33 -->
<g id="node33" class="node">
<title>Node33</title>
<g id="a_node33"><a xlink:title=" ">
<polygon fill="#e0e0e0" stroke="#999999" points="2544.32,-184 2480.32,-184 2480.32,-165 2544.32,-165 2544.32,-184"/>
<text text-anchor="middle" x="2512.32" y="-172" font-family="Helvetica,sans-Serif" font-size="10.00">algorithm</text>
</a>
</g>
</g>
<!-- Node32&#45;&gt;Node33 -->
<g id="edge48" class="edge">
<title>Node32&#45;&gt;Node33</title>
<path fill="none" stroke="#63b8ff" d="M2510.65,-219.75C2510.9,-213.27 2511.24,-204.16 2511.55,-195.9"/>
<polygon fill="#63b8ff" stroke="#63b8ff" points="2515.05,-196.08 2511.93,-185.95 2508.05,-195.82 2515.05,-196.08"/>
</g>
<!-- Node34 -->
<g id="node34" class="node">
<title>Node34</title>
<g id="a_node34"><a xlink:title=" ">
<polygon fill="#e0e0e0" stroke="#999999" points="2627.82,-184 2562.82,-184 2562.82,-165 2627.82,-165 2627.82,-184"/>
<text text-anchor="middle" x="2595.32" y="-172" font-family="Helvetica,sans-Serif" font-size="10.00">functional</text>
</a>
</g>
</g>
<!-- Node32&#45;&gt;Node34 -->
<g id="edge50" class="edge">
<title>Node32&#45;&gt;Node34</title>
<path fill="none" stroke="#63b8ff" d="M2524.74,-219.51C2537.52,-211.54 2556.42,-199.75 2571.45,-190.38"/>
<polygon fill="#63b8ff" stroke="#63b8ff" points="2573.2,-193.42 2579.83,-185.16 2569.49,-187.48 2573.2,-193.42"/>
</g>
</g>
</svg>
        <g id="navigator" transform="translate(0 0)" fill="#404254">
                <rect fill="#f2f5e9" fill-opacity="0.5" stroke="#606060" stroke-width=".5" x="0" y="0" width="60" height="60"/>
                <use id="zoomplus" xlink:href="#zoomPlus" x="17" y="9" onmousedown="handleZoom(evt,'in')"/>
                <use id="zoomminus" xlink:href="#zoomMin" x="42" y="9" onmousedown="handleZoom(evt,'out')"/>
                <use id="reset" xlink:href="#resetDef" x="30" y="36" onmousedown="handleReset()"/>
                <g id="arrowUp" xlink:href="#dirArrow" transform="translate(30 24)" onmousedown="handlePan(0,-1)">
                  <use xlink:href="#rim" fill="#404040">
                        <set attributeName="fill" to="#808080" begin="arrowUp.mouseover" end="arrowUp.mouseout"/>
                  </use>
                  <path fill="none" stroke="white" stroke-width="1.5" d="M0,-3.0v7 M-2.5,-0.5L0,-3.0L2.5,-0.5"/>
                </g>
                <g id="arrowRight" xlink:href="#dirArrow" transform="rotate(90) translate(36 -43)" onmousedown="handlePan(1,0)">
                  <use xlink:href="#rim" fill="#404040">
                        <set attributeName="fill" to="#808080" begin="arrowRight.mouseover" end="arrowRight.mouseout"/>
                  </use>
                  <path fill="none" stroke="white" stroke-width="1.5" d="M0,-3.0v7 M-2.5,-0.5L0,-3.0L2.5,-0.5"/>
                </g>
                <g id="arrowDown" xlink:href="#dirArrow" transform="rotate(180) translate(-30 -48)" onmousedown="handlePan(0,1)">
                  <use xlink:href="#rim" fill="#404040">
                        <set attributeName="fill" to="#808080" begin="arrowDown.mouseover" end="arrowDown.mouseout"/>
                  </use>
                  <path fill="none" stroke="white" stroke-width="1.5" d="M0,-3.0v7 M-2.5,-0.5L0,-3.0L2.5,-0.5"/>
                </g>
                <g id="arrowLeft" xlink:href="#dirArrow" transform="rotate(270) translate(-36 17)" onmousedown="handlePan(-1,0)">
                  <use xlink:href="#rim" fill="#404040">
                        <set attributeName="fill" to="#808080" begin="arrowLeft.mouseover" end="arrowLeft.mouseout"/>
                  </use>
                  <path fill="none" stroke="white" stroke-width="1.5" d="M0,-3.0v7 M-2.5,-0.5L0,-3.0L2.5,-0.5"/>
                </g>
        </g>
        <svg viewBox="0 0 15 15" width="100%" height="30px" preserveAspectRatio="xMaxYMin meet">
         <g id="arrow_out" transform="scale(0.3 0.3)">
          <a xlink:href="Pickups_8cpp__incl_org.svg" target="_base">
           <rect id="button" ry="5" rx="5" y="6" x="6" height="38" width="38"
                fill="#f2f5e9" fill-opacity="0.5" stroke="#606060" stroke-width="1.0"/>
           <path id="arrow"
             d="M 11.500037,31.436501 C 11.940474,20.09759 22.043105,11.32322 32.158766,21.979434 L 37.068811,17.246167 C 37.068811,17.246167 37.088388,32 37.088388,32 L 22.160133,31.978069 C 22.160133,31.978069 26.997745,27.140456 26.997745,27.140456 C 18.528582,18.264221 13.291696,25.230495 11.500037,31.436501 z"
             style="fill:#404040;"/>
          </a>
         </g>
        </svg>
</svg>
