<?xml version="1.0" encoding="UTF-8" standalone="no"?>
<!DOCTYPE svg PUBLIC "-//W3C//DTD SVG 1.1//EN"
 "http://www.w3.org/Graphics/SVG/1.1/DTD/svg11.dtd">
<!-- Generated by graphviz version 7.0.5 (0)
 -->
<!-- Title: src/Player.cpp Pages: 1 -->
<!--zoomable 467 -->
<svg id="main" version="1.1" xmlns="http://www.w3.org/2000/svg" xmlns:xlink="http://www.w3.org/1999/xlink" xml:space="preserve" onload="init(evt)">
<style type="text/css"><![CDATA[
.edge:hover path { stroke: red; }
.edge:hover polygon { stroke: red; fill: red; }
]]></style>
<script type="text/javascript"><![CDATA[
var edges = document.getElementsByTagName('g');
if (edges && edges.length) {
  for (var i=0;i<edges.length;i++) {
    if (edges[i].id.substr(0,4)=='edge') {
      edges[i].setAttribute('class','edge');
    }
  }
}
]]></script>
        <defs>
                <circle id="rim" cx="0" cy="0" r="7"/>
                <circle id="rim2" cx="0" cy="0" r="3.5"/>
                <g id="zoomPlus">
                        <use xlink:href="#rim" fill="#404040">
                                <set attributeName="fill" to="#808080" begin="zoomplus.mouseover" end="zoomplus.mouseout"/>
                        </use>
                        <path d="M-4,0h8M0,-4v8" fill="none" stroke="white" stroke-width="1.5" pointer-events="none"/>
                </g>
                <g id="zoomMin">
                        <use xlink:href="#rim" fill="#404040">
                                <set attributeName="fill" to="#808080" begin="zoomminus.mouseover" end="zoomminus.mouseout"/>
                        </use>
                        <path d="M-4,0h8" fill="none" stroke="white" stroke-width="1.5" pointer-events="none"/>
                </g>
                <g id="dirArrow">
                        <path fill="none" stroke="white" stroke-width="1.5" d="M0,-3.0v7 M-2.5,-0.5L0,-3.0L2.5,-0.5"/>
                </g>
               <g id="resetDef">
                       <use xlink:href="#rim2" fill="#404040">
                               <set attributeName="fill" to="#808080" begin="reset.mouseover" end="reset.mouseout"/>
                       </use>
               </g>
        </defs>

<script type="text/javascript">
var viewWidth = 3208;
var viewHeight = 467;
var sectionId = 'dynsection-0';
</script>
<script xlink:href="svgpan.js"/>
<svg id="graph" class="graph">
<g id="viewport">
<title>src/Player.cpp</title>
<!-- Node1 -->
<g id="node1" class="node">
<title>Node1</title>
<g id="a_node1"><a xlink:title=" ">
<polygon fill="#999999" stroke="#666666" points="1280,-459 1196,-459 1196,-440 1280,-440 1280,-459"/>
<text text-anchor="middle" x="1238" y="-447" font-family="Helvetica,sans-Serif" font-size="10.00">src/Player.cpp</text>
</a>
</g>
</g>
<!-- Node2 -->
<g id="node2" class="node">
<title>Node2</title>
<g id="a_node2"><a xlink:href="Player_8h.html" target="_top" xlink:title=" ">
<polygon fill="white" stroke="#666666" points="1322,-349 1266,-349 1266,-330 1322,-330 1322,-349"/>
<text text-anchor="middle" x="1294" y="-337" font-family="Helvetica,sans-Serif" font-size="10.00">Player.h</text>
</a>
</g>
</g>
<!-- Node1&#45;&gt;Node2 -->
<g id="edge1" class="edge">
<title>Node1&#45;&gt;Node2</title>
<path fill="none" stroke="#63b8ff" d="M1242.58,-439.66C1251.61,-422.26 1271.86,-383.19 1284.08,-359.62"/>
<polygon fill="#63b8ff" stroke="#63b8ff" points="1287.16,-361.29 1288.66,-350.8 1280.95,-358.07 1287.16,-361.29"/>
</g>
<!-- Node4 -->
<g id="node4" class="node">
<title>Node4</title>
<g id="a_node4"><a xlink:href="Entity_8h.html" target="_top" xlink:title=" ">
<polygon fill="white" stroke="#666666" points="1205.5,-294 1152.5,-294 1152.5,-275 1205.5,-275 1205.5,-294"/>
<text text-anchor="middle" x="1179" y="-282" font-family="Helvetica,sans-Serif" font-size="10.00">Entity.h</text>
</a>
</g>
</g>
<!-- Node1&#45;&gt;Node4 -->
<g id="edge55" class="edge">
<title>Node1&#45;&gt;Node4</title>
<path fill="none" stroke="#63b8ff" d="M1237.6,-439.74C1236.4,-419.51 1231.71,-368.29 1214,-330 1209.42,-320.11 1202.24,-310.43 1195.58,-302.65"/>
<polygon fill="#63b8ff" stroke="#63b8ff" points="1198.23,-300.37 1188.92,-295.32 1193.05,-305.07 1198.23,-300.37"/>
</g>
<!-- Node7 -->
<g id="node7" class="node">
<title>Node7</title>
<g id="a_node7"><a xlink:title=" ">
<polygon fill="#e0e0e0" stroke="#999999" points="283.5,-184 142.5,-184 142.5,-165 283.5,-165 283.5,-184"/>
<text text-anchor="middle" x="213" y="-172" font-family="Helvetica,sans-Serif" font-size="10.00">SFML/Graphics/Sprite.hpp</text>
</a>
</g>
</g>
<!-- Node1&#45;&gt;Node7 -->
<g id="edge65" class="edge">
<title>Node1&#45;&gt;Node7</title>
<path fill="none" stroke="#63b8ff" d="M1195.51,-448.18C1011.44,-446.24 292,-432.76 292,-340.5 292,-340.5 292,-340.5 292,-283.5 292,-244.5 258.03,-210.21 234.64,-191.22"/>
<polygon fill="#63b8ff" stroke="#63b8ff" points="236.93,-188.57 226.89,-185.2 232.64,-194.1 236.93,-188.57"/>
</g>
<!-- Node9 -->
<g id="node9" class="node">
<title>Node9</title>
<g id="a_node9"><a xlink:title=" ">
<polygon fill="#e0e0e0" stroke="#999999" points="901.5,-184 770.5,-184 770.5,-165 901.5,-165 901.5,-184"/>
<text text-anchor="middle" x="836" y="-172" font-family="Helvetica,sans-Serif" font-size="10.00">SFML/System/Time.hpp</text>
</a>
</g>
</g>
<!-- Node1&#45;&gt;Node9 -->
<g id="edge66" class="edge">
<title>Node1&#45;&gt;Node9</title>
<path fill="none" stroke="#63b8ff" d="M1225.08,-439.73C1167.32,-400.5 932.37,-240.95 858.41,-190.72"/>
<polygon fill="#63b8ff" stroke="#63b8ff" points="860.57,-187.95 850.33,-185.23 856.63,-193.74 860.57,-187.95"/>
</g>
<!-- Node11 -->
<g id="node11" class="node">
<title>Node11</title>
<g id="a_node11"><a xlink:title=" ">
<polygon fill="#e0e0e0" stroke="#999999" points="297,-19 237,-19 237,0 297,0 297,-19"/>
<text text-anchor="middle" x="267" y="-7" font-family="Helvetica,sans-Serif" font-size="10.00">iostream</text>
</a>
</g>
</g>
<!-- Node1&#45;&gt;Node11 -->
<g id="edge70" class="edge">
<title>Node1&#45;&gt;Node11</title>
<path fill="none" stroke="#63b8ff" d="M1195.72,-448.51C1023.1,-448.29 371.33,-444.72 170,-404 90.95,-388.01 0,-421.15 0,-340.5 0,-340.5 0,-340.5 0,-118.5 0,-82.58 19.43,-73.87 50,-55 104.19,-21.55 179.06,-12.76 225.19,-10.71"/>
<polygon fill="#63b8ff" stroke="#63b8ff" points="225.17,-14.22 235.04,-10.38 224.93,-7.22 225.17,-14.22"/>
</g>
<!-- Node12 -->
<g id="node12" class="node">
<title>Node12</title>
<g id="a_node12"><a xlink:href="Consts_8h.html" target="_top" xlink:title=" ">
<polygon fill="white" stroke="#666666" points="437.5,-129 378.5,-129 378.5,-110 437.5,-110 437.5,-129"/>
<text text-anchor="middle" x="408" y="-117" font-family="Helvetica,sans-Serif" font-size="10.00">Consts.h</text>
</a>
</g>
</g>
<!-- Node1&#45;&gt;Node12 -->
<g id="edge54" class="edge">
<title>Node1&#45;&gt;Node12</title>
<path fill="none" stroke="#63b8ff" d="M1195.65,-448.96C990.97,-450.63 114,-451.32 114,-340.5 114,-340.5 114,-340.5 114,-228.5 114,-199.04 110.86,-184.43 133,-165 167.11,-135.07 298.96,-125.11 366.95,-121.92"/>
<polygon fill="#63b8ff" stroke="#63b8ff" points="366.72,-125.44 376.56,-121.5 366.42,-118.44 366.72,-125.44"/>
</g>
<!-- Node13 -->
<g id="node13" class="node">
<title>Node13</title>
<g id="a_node13"><a xlink:href="Enums_8h.html" target="_top" xlink:title=" ">
<polygon fill="white" stroke="#666666" points="1182.5,-74 1123.5,-74 1123.5,-55 1182.5,-55 1182.5,-74"/>
<text text-anchor="middle" x="1153" y="-62" font-family="Helvetica,sans-Serif" font-size="10.00">Enums.h</text>
</a>
</g>
</g>
<!-- Node1&#45;&gt;Node13 -->
<g id="edge56" class="edge">
<title>Node1&#45;&gt;Node13</title>
<path fill="none" stroke="#63b8ff" d="M1280.36,-448.14C1545.82,-445.59 2969,-427.87 2969,-340.5 2969,-340.5 2969,-340.5 2969,-173.5 2969,-81.45 1462.6,-67.49 1193.79,-65.73"/>
<polygon fill="#63b8ff" stroke="#63b8ff" points="1194.17,-62.23 1184.15,-65.67 1194.12,-69.23 1194.17,-62.23"/>
</g>
<!-- Node17 -->
<g id="node17" class="node">
<title>Node17</title>
<g id="a_node17"><a xlink:title=" ">
<polygon fill="#e0e0e0" stroke="#999999" points="886,-129 828,-129 828,-110 886,-110 886,-129"/>
<text text-anchor="middle" x="857" y="-117" font-family="Helvetica,sans-Serif" font-size="10.00">memory</text>
</a>
</g>
</g>
<!-- Node1&#45;&gt;Node17 -->
<g id="edge71" class="edge">
<title>Node1&#45;&gt;Node17</title>
<path fill="none" stroke="#63b8ff" d="M1195.71,-448.26C1075.76,-446.43 742,-433.04 742,-340.5 742,-340.5 742,-340.5 742,-228.5 742,-199.04 741.71,-187.27 761,-165 775.54,-148.21 797.77,-137.35 817.18,-130.57"/>
<polygon fill="#63b8ff" stroke="#63b8ff" points="818.01,-133.97 826.46,-127.58 815.87,-127.31 818.01,-133.97"/>
</g>
<!-- Node19 -->
<g id="node19" class="node">
<title>Node19</title>
<g id="a_node19"><a xlink:href="SceneNode_8h.html" target="_top" xlink:title=" ">
<polygon fill="white" stroke="#666666" points="1786,-239 1706,-239 1706,-220 1786,-220 1786,-239"/>
<text text-anchor="middle" x="1746" y="-227" font-family="Helvetica,sans-Serif" font-size="10.00">SceneNode.h</text>
</a>
</g>
</g>
<!-- Node1&#45;&gt;Node19 -->
<g id="edge64" class="edge">
<title>Node1&#45;&gt;Node19</title>
<path fill="none" stroke="#63b8ff" d="M1280.11,-444.6C1326.08,-439.33 1401.24,-427.72 1462,-404 1569.08,-362.19 1681.25,-280.58 1725.93,-246.28"/>
<polygon fill="#63b8ff" stroke="#63b8ff" points="1727.92,-249.16 1733.68,-240.27 1723.63,-243.63 1727.92,-249.16"/>
</g>
<!-- Node27 -->
<g id="node27" class="node">
<title>Node27</title>
<g id="a_node27"><a xlink:title=" ">
<polygon fill="#e0e0e0" stroke="#999999" points="1495.5,-184 1352.5,-184 1352.5,-165 1495.5,-165 1495.5,-184"/>
<text text-anchor="middle" x="1424" y="-172" font-family="Helvetica,sans-Serif" font-size="10.00">SFML/System/Vector2.hpp</text>
</a>
</g>
</g>
<!-- Node1&#45;&gt;Node27 -->
<g id="edge67" class="edge">
<title>Node1&#45;&gt;Node27</title>
<path fill="none" stroke="#63b8ff" d="M1280.5,-445.35C1341.86,-438.22 1448,-415.11 1448,-340.5 1448,-340.5 1448,-340.5 1448,-283.5 1448,-252.03 1438.17,-216.6 1431.09,-195.18"/>
<polygon fill="#63b8ff" stroke="#63b8ff" points="1434.41,-194.05 1427.83,-185.74 1427.79,-196.34 1434.41,-194.05"/>
</g>
<!-- Node33 -->
<g id="node33" class="node">
<title>Node33</title>
<g id="a_node33"><a xlink:href="PlayerState_8h.html" target="_top" xlink:title=" ">
<polygon fill="white" stroke="#666666" points="714,-404 632,-404 632,-385 714,-385 714,-404"/>
<text text-anchor="middle" x="673" y="-392" font-family="Helvetica,sans-Serif" font-size="10.00">PlayerState.h</text>
</a>
</g>
</g>
<!-- Node1&#45;&gt;Node33 -->
<g id="edge57" class="edge">
<title>Node1&#45;&gt;Node33</title>
<path fill="none" stroke="#63b8ff" d="M1195.59,-445.75C1108.02,-439.88 900.94,-424.89 728,-404 727.17,-403.9 726.34,-403.8 725.5,-403.69"/>
<polygon fill="#63b8ff" stroke="#63b8ff" points="726.28,-400.27 715.9,-402.4 725.35,-407.2 726.28,-400.27"/>
</g>
<!-- Node34 -->
<g id="node34" class="node">
<title>Node34</title>
<g id="a_node34"><a xlink:title=" ">
<polygon fill="#e0e0e0" stroke="#999999" points="3134.5,-404 2997.5,-404 2997.5,-385 3134.5,-385 3134.5,-404"/>
<text text-anchor="middle" x="3066" y="-392" font-family="Helvetica,sans-Serif" font-size="10.00">SFML/Window/Event.hpp</text>
</a>
</g>
</g>
<!-- Node1&#45;&gt;Node34 -->
<g id="edge68" class="edge">
<title>Node1&#45;&gt;Node34</title>
<path fill="none" stroke="#63b8ff" d="M1280.24,-448.61C1474.85,-448.89 2304.41,-447.34 2983,-404 2984.01,-403.94 2985.03,-403.87 2986.05,-403.8"/>
<polygon fill="#63b8ff" stroke="#63b8ff" points="2985.97,-407.31 2995.68,-403.07 2985.45,-400.33 2985.97,-407.31"/>
</g>
<!-- Node35 -->
<g id="node35" class="node">
<title>Node35</title>
<g id="a_node35"><a xlink:title=" ">
<polygon fill="#e0e0e0" stroke="#999999" points="3199.5,-404 3152.5,-404 3152.5,-385 3199.5,-385 3199.5,-404"/>
<text text-anchor="middle" x="3176" y="-392" font-family="Helvetica,sans-Serif" font-size="10.00">cmath</text>
</a>
</g>
</g>
<!-- Node1&#45;&gt;Node35 -->
<g id="edge69" class="edge">
<title>Node1&#45;&gt;Node35</title>
<path fill="none" stroke="#63b8ff" d="M1280.1,-448.11C1538.49,-445.67 2906.05,-431.57 3140.81,-403.97"/>
<polygon fill="#63b8ff" stroke="#63b8ff" points="3141.04,-407.47 3150.51,-402.72 3140.15,-400.53 3141.04,-407.47"/>
</g>
<!-- Node3 -->
<g id="node3" class="node">
<title>Node3</title>
<g id="a_node3"><a xlink:href="Effect_8h.html" target="_top" xlink:title=" ">
<polygon fill="white" stroke="#666666" points="1419.5,-294 1366.5,-294 1366.5,-275 1419.5,-275 1419.5,-294"/>
<text text-anchor="middle" x="1393" y="-282" font-family="Helvetica,sans-Serif" font-size="10.00">Effect.h</text>
</a>
</g>
</g>
<!-- Node2&#45;&gt;Node3 -->
<g id="edge2" class="edge">
<title>Node2&#45;&gt;Node3</title>
<path fill="none" stroke="#63b8ff" d="M1310.79,-329.51C1326.1,-321.31 1348.97,-309.07 1366.7,-299.58"/>
<polygon fill="#63b8ff" stroke="#63b8ff" points="1367.96,-302.88 1375.12,-295.07 1364.65,-296.71 1367.96,-302.88"/>
</g>
<!-- Node2&#45;&gt;Node4 -->
<g id="edge3" class="edge">
<title>Node2&#45;&gt;Node4</title>
<path fill="none" stroke="#63b8ff" d="M1274.49,-329.51C1256.37,-321.16 1229.15,-308.61 1208.4,-299.05"/>
<polygon fill="#63b8ff" stroke="#63b8ff" points="1210.14,-296 1199.59,-294.99 1207.21,-302.36 1210.14,-296"/>
</g>
<!-- Node2&#45;&gt;Node13 -->
<g id="edge43" class="edge">
<title>Node2&#45;&gt;Node13</title>
<path fill="none" stroke="#63b8ff" d="M1322.43,-333.32C1391.4,-319.96 1562,-281.73 1562,-230.5 1562,-230.5 1562,-230.5 1562,-173.5 1562,-97.92 1297.63,-74.06 1193.99,-67.61"/>
<polygon fill="#63b8ff" stroke="#63b8ff" points="1194.45,-64.13 1184.25,-67.03 1194.03,-71.12 1194.45,-64.13"/>
</g>
<!-- Node2&#45;&gt;Node19 -->
<g id="edge44" class="edge">
<title>Node2&#45;&gt;Node19</title>
<path fill="none" stroke="#63b8ff" d="M1322.41,-335.92C1373.7,-330.85 1484.92,-317.94 1576,-294 1626.1,-280.83 1681.97,-258.39 1715.53,-244.01"/>
<polygon fill="#63b8ff" stroke="#63b8ff" points="1716.84,-247.26 1724.63,-240.07 1714.06,-240.83 1716.84,-247.26"/>
</g>
<!-- Node21 -->
<g id="node21" class="node">
<title>Node21</title>
<g id="a_node21"><a xlink:title=" ">
<polygon fill="#e0e0e0" stroke="#999999" points="1334,-184 1200,-184 1200,-165 1334,-165 1334,-184"/>
<text text-anchor="middle" x="1267" y="-172" font-family="Helvetica,sans-Serif" font-size="10.00">SFML/Graphics/Rect.hpp</text>
</a>
</g>
</g>
<!-- Node2&#45;&gt;Node21 -->
<g id="edge52" class="edge">
<title>Node2&#45;&gt;Node21</title>
<path fill="none" stroke="#63b8ff" d="M1292.55,-329.74C1288.37,-304.53 1276.25,-231.36 1270.33,-195.62"/>
<polygon fill="#63b8ff" stroke="#63b8ff" points="1273.79,-195.09 1268.71,-185.8 1266.89,-196.24 1273.79,-195.09"/>
</g>
<!-- Node2&#45;&gt;Node27 -->
<g id="edge53" class="edge">
<title>Node2&#45;&gt;Node27</title>
<path fill="none" stroke="#63b8ff" d="M1300.99,-329.74C1321.62,-303.87 1382.54,-227.48 1410.14,-192.88"/>
<polygon fill="#63b8ff" stroke="#63b8ff" points="1412.53,-195.49 1416.03,-185.49 1407.06,-191.13 1412.53,-195.49"/>
</g>
<!-- Node30 -->
<g id="node30" class="node">
<title>Node30</title>
<g id="a_node30"><a xlink:href="Effects_8h.html" target="_top" xlink:title=" ">
<polygon fill="white" stroke="#666666" points="1103.5,-239 1044.5,-239 1044.5,-220 1103.5,-220 1103.5,-239"/>
<text text-anchor="middle" x="1074" y="-227" font-family="Helvetica,sans-Serif" font-size="10.00">Effects.h</text>
</a>
</g>
</g>
<!-- Node2&#45;&gt;Node30 -->
<g id="edge45" class="edge">
<title>Node2&#45;&gt;Node30</title>
<path fill="none" stroke="#63b8ff" d="M1265.77,-334.16C1234.25,-328.43 1182.48,-316.36 1143,-294 1121.62,-281.89 1101.46,-261.99 1088.52,-247.69"/>
<polygon fill="#63b8ff" stroke="#63b8ff" points="1091.34,-245.59 1082.12,-240.38 1086.07,-250.21 1091.34,-245.59"/>
</g>
<!-- Node5 -->
<g id="node5" class="node">
<title>Node5</title>
<g id="a_node5"><a xlink:href="AnimationMachine_8h.html" target="_top" xlink:title=" ">
<polygon fill="white" stroke="#666666" points="517.5,-239 400.5,-239 400.5,-220 517.5,-220 517.5,-239"/>
<text text-anchor="middle" x="459" y="-227" font-family="Helvetica,sans-Serif" font-size="10.00">AnimationMachine.h</text>
</a>
</g>
</g>
<!-- Node4&#45;&gt;Node5 -->
<g id="edge4" class="edge">
<title>Node4&#45;&gt;Node5</title>
<path fill="none" stroke="#63b8ff" d="M1152.09,-281.52C1049.91,-274 683.96,-247.06 529.05,-235.66"/>
<polygon fill="#63b8ff" stroke="#63b8ff" points="529.57,-232.19 519.34,-234.94 529.06,-239.17 529.57,-232.19"/>
</g>
<!-- Node4&#45;&gt;Node9 -->
<g id="edge41" class="edge">
<title>Node4&#45;&gt;Node9</title>
<path fill="none" stroke="#63b8ff" d="M1152.15,-276.21C1122.99,-268.07 1075.19,-254.03 1035,-239 1015.43,-231.68 1011.65,-227.1 992,-220 956.26,-207.08 914.86,-195.42 883.69,-187.27"/>
<polygon fill="#63b8ff" stroke="#63b8ff" points="884.73,-183.93 874.17,-184.82 882.98,-190.7 884.73,-183.93"/>
</g>
<!-- Node4&#45;&gt;Node13 -->
<g id="edge24" class="edge">
<title>Node4&#45;&gt;Node13</title>
<path fill="none" stroke="#63b8ff" d="M1177.95,-274.68C1174.12,-242.57 1160.85,-131.33 1155.38,-85.49"/>
<polygon fill="#63b8ff" stroke="#63b8ff" points="1158.88,-85.2 1154.22,-75.69 1151.92,-86.03 1158.88,-85.2"/>
</g>
<!-- Node4&#45;&gt;Node19 -->
<g id="edge25" class="edge">
<title>Node4&#45;&gt;Node19</title>
<path fill="none" stroke="#63b8ff" d="M1205.97,-280.98C1294.57,-272.7 1577.73,-246.23 1694.7,-235.3"/>
<polygon fill="#63b8ff" stroke="#63b8ff" points="1694.68,-238.81 1704.31,-234.4 1694.03,-231.84 1694.68,-238.81"/>
</g>
<!-- Node4&#45;&gt;Node21 -->
<g id="edge40" class="edge">
<title>Node4&#45;&gt;Node21</title>
<path fill="none" stroke="#63b8ff" d="M1186.2,-274.66C1200.64,-256.94 1233.38,-216.77 1252.45,-193.35"/>
<polygon fill="#63b8ff" stroke="#63b8ff" points="1255.14,-195.6 1258.74,-185.63 1249.71,-191.18 1255.14,-195.6"/>
</g>
<!-- Node4&#45;&gt;Node27 -->
<g id="edge42" class="edge">
<title>Node4&#45;&gt;Node27</title>
<path fill="none" stroke="#63b8ff" d="M1196.17,-274.64C1221.01,-261.94 1268.54,-238.11 1310,-220 1336.1,-208.6 1366.13,-196.94 1388.81,-188.41"/>
<polygon fill="#63b8ff" stroke="#63b8ff" points="1389.75,-191.8 1397.89,-185.02 1387.3,-185.24 1389.75,-191.8"/>
</g>
<!-- Node6 -->
<g id="node6" class="node">
<title>Node6</title>
<g id="a_node6"><a xlink:title=" ">
<polygon fill="#e0e0e0" stroke="#999999" points="405,-74 295,-74 295,-55 405,-55 405,-74"/>
<text text-anchor="middle" x="350" y="-62" font-family="Helvetica,sans-Serif" font-size="10.00">SFML/Graphics.hpp</text>
</a>
</g>
</g>
<!-- Node5&#45;&gt;Node6 -->
<g id="edge5" class="edge">
<title>Node5&#45;&gt;Node6</title>
<path fill="none" stroke="#63b8ff" d="M443.8,-219.54C430.99,-211.44 412.76,-198.58 400,-184 374.46,-154.82 360.56,-110.7 354.26,-85.33"/>
<polygon fill="#63b8ff" stroke="#63b8ff" points="357.71,-84.68 352.04,-75.72 350.88,-86.25 357.71,-84.68"/>
</g>
<!-- Node5&#45;&gt;Node7 -->
<g id="edge6" class="edge">
<title>Node5&#45;&gt;Node7</title>
<path fill="none" stroke="#63b8ff" d="M417.27,-219.51C375.44,-210.5 310.92,-196.6 265.6,-186.83"/>
<polygon fill="#63b8ff" stroke="#63b8ff" points="266.52,-183.45 256,-184.77 265.04,-190.29 266.52,-183.45"/>
</g>
<!-- Node8 -->
<g id="node8" class="node">
<title>Node8</title>
<g id="a_node8"><a xlink:title=" ">
<polygon fill="#e0e0e0" stroke="#999999" points="604.5,-129 455.5,-129 455.5,-110 604.5,-110 604.5,-129"/>
<text text-anchor="middle" x="530" y="-117" font-family="Helvetica,sans-Serif" font-size="10.00">SFML/Graphics/Texture.hpp</text>
</a>
</g>
</g>
<!-- Node5&#45;&gt;Node8 -->
<g id="edge7" class="edge">
<title>Node5&#45;&gt;Node8</title>
<path fill="none" stroke="#63b8ff" d="M442.38,-219.58C422.24,-207.59 392.68,-185.41 407,-165 417.79,-149.62 434.46,-139.53 452.08,-132.92"/>
<polygon fill="#63b8ff" stroke="#63b8ff" points="452.72,-136.4 461.09,-129.9 450.5,-129.76 452.72,-136.4"/>
</g>
<!-- Node5&#45;&gt;Node9 -->
<g id="edge8" class="edge">
<title>Node5&#45;&gt;Node9</title>
<path fill="none" stroke="#63b8ff" d="M517.91,-220.22C583.46,-211 689.56,-196.09 761,-186.04"/>
<polygon fill="#63b8ff" stroke="#63b8ff" points="761.24,-189.54 770.65,-184.69 760.27,-182.61 761.24,-189.54"/>
</g>
<!-- Node10 -->
<g id="node10" class="node">
<title>Node10</title>
<g id="a_node10"><a xlink:title=" ">
<polygon fill="#e0e0e0" stroke="#999999" points="488,-184 416,-184 416,-165 488,-165 488,-184"/>
<text text-anchor="middle" x="452" y="-172" font-family="Helvetica,sans-Serif" font-size="10.00">sys/types.h</text>
</a>
</g>
</g>
<!-- Node5&#45;&gt;Node10 -->
<g id="edge9" class="edge">
<title>Node5&#45;&gt;Node10</title>
<path fill="none" stroke="#63b8ff" d="M457.84,-219.75C456.98,-213.19 455.76,-203.95 454.66,-195.6"/>
<polygon fill="#63b8ff" stroke="#63b8ff" points="458.16,-195.4 453.38,-185.94 451.22,-196.31 458.16,-195.4"/>
</g>
<!-- Node5&#45;&gt;Node11 -->
<g id="edge10" class="edge">
<title>Node5&#45;&gt;Node11</title>
<path fill="none" stroke="#63b8ff" d="M440.13,-219.59C424.06,-211.52 400.82,-198.68 383,-184 332.68,-142.56 317.63,-130.99 286,-74 278.38,-60.28 273.49,-43.15 270.58,-30.14"/>
<polygon fill="#63b8ff" stroke="#63b8ff" points="274.07,-29.77 268.67,-20.66 267.21,-31.16 274.07,-29.77"/>
</g>
<!-- Node5&#45;&gt;Node12 -->
<g id="edge11" class="edge">
<title>Node5&#45;&gt;Node12</title>
<path fill="none" stroke="#63b8ff" d="M471.04,-219.62C486.21,-207.29 508.96,-184.34 497,-165 486.35,-147.76 466.77,-136.98 448.68,-130.35"/>
<polygon fill="#63b8ff" stroke="#63b8ff" points="450.02,-127.11 439.43,-127.3 447.83,-133.76 450.02,-127.11"/>
</g>
<!-- Node5&#45;&gt;Node13 -->
<g id="edge17" class="edge">
<title>Node5&#45;&gt;Node13</title>
<path fill="none" stroke="#63b8ff" d="M517.66,-221.9C563.86,-215.53 629.36,-203.84 684,-184 748.31,-160.64 753.99,-131.32 819,-110 920.78,-76.62 1047.83,-68.22 1111.94,-66.15"/>
<polygon fill="#63b8ff" stroke="#63b8ff" points="1111.74,-69.66 1121.64,-65.87 1111.54,-62.66 1111.74,-69.66"/>
</g>
<!-- Node16 -->
<g id="node16" class="node">
<title>Node16</title>
<g id="a_node16"><a xlink:href="TextureHolder_8h.html" target="_top" xlink:title=" ">
<polygon fill="white" stroke="#666666" points="675.5,-184 582.5,-184 582.5,-165 675.5,-165 675.5,-184"/>
<text text-anchor="middle" x="629" y="-172" font-family="Helvetica,sans-Serif" font-size="10.00">TextureHolder.h</text>
</a>
</g>
</g>
<!-- Node5&#45;&gt;Node16 -->
<g id="edge18" class="edge">
<title>Node5&#45;&gt;Node16</title>
<path fill="none" stroke="#63b8ff" d="M487.84,-219.51C515.76,-210.8 558.33,-197.53 589.42,-187.84"/>
<polygon fill="#63b8ff" stroke="#63b8ff" points="590.35,-191.21 598.86,-184.9 588.27,-184.53 590.35,-191.21"/>
</g>
<!-- Node12&#45;&gt;Node6 -->
<g id="edge12" class="edge">
<title>Node12&#45;&gt;Node6</title>
<path fill="none" stroke="#63b8ff" d="M398.16,-109.51C389.95,-102 378.02,-91.1 368.09,-82.03"/>
<polygon fill="#63b8ff" stroke="#63b8ff" points="370.55,-79.54 360.81,-75.38 365.83,-84.71 370.55,-79.54"/>
</g>
<!-- Node12&#45;&gt;Node13 -->
<g id="edge13" class="edge">
<title>Node12&#45;&gt;Node13</title>
<path fill="none" stroke="#63b8ff" d="M437.79,-111.37C440.55,-110.85 443.32,-110.38 446,-110 697.15,-74.23 1002.57,-67.21 1111.76,-65.84"/>
<polygon fill="#63b8ff" stroke="#63b8ff" points="1111.72,-69.34 1121.68,-65.72 1111.64,-62.34 1111.72,-69.34"/>
</g>
<!-- Node14 -->
<g id="node14" class="node">
<title>Node14</title>
<g id="a_node14"><a xlink:href="Random_8h.html" target="_top" xlink:title=" ">
<polygon fill="white" stroke="#666666" points="489,-74 423,-74 423,-55 489,-55 489,-74"/>
<text text-anchor="middle" x="456" y="-62" font-family="Helvetica,sans-Serif" font-size="10.00">Random.h</text>
</a>
</g>
</g>
<!-- Node12&#45;&gt;Node14 -->
<g id="edge14" class="edge">
<title>Node12&#45;&gt;Node14</title>
<path fill="none" stroke="#63b8ff" d="M415.93,-109.75C422.56,-102.43 432.22,-91.76 440.39,-82.74"/>
<polygon fill="#63b8ff" stroke="#63b8ff" points="442.77,-85.33 446.89,-75.56 437.58,-80.63 442.77,-85.33"/>
</g>
<!-- Node14&#45;&gt;Node11 -->
<g id="edge16" class="edge">
<title>Node14&#45;&gt;Node11</title>
<path fill="none" stroke="#63b8ff" d="M423.94,-54.51C392.01,-45.56 342.86,-31.77 308.09,-22.02"/>
<polygon fill="#63b8ff" stroke="#63b8ff" points="309.37,-18.75 298.8,-19.42 307.48,-25.49 309.37,-18.75"/>
</g>
<!-- Node15 -->
<g id="node15" class="node">
<title>Node15</title>
<g id="a_node15"><a xlink:title=" ">
<polygon fill="#e0e0e0" stroke="#999999" points="483,-19 429,-19 429,0 483,0 483,-19"/>
<text text-anchor="middle" x="456" y="-7" font-family="Helvetica,sans-Serif" font-size="10.00">random</text>
</a>
</g>
</g>
<!-- Node14&#45;&gt;Node15 -->
<g id="edge15" class="edge">
<title>Node14&#45;&gt;Node15</title>
<path fill="none" stroke="#63b8ff" d="M456,-54.75C456,-48.27 456,-39.16 456,-30.9"/>
<polygon fill="#63b8ff" stroke="#63b8ff" points="459.5,-30.96 456,-20.96 452.5,-30.96 459.5,-30.96"/>
</g>
<!-- Node16&#45;&gt;Node8 -->
<g id="edge21" class="edge">
<title>Node16&#45;&gt;Node8</title>
<path fill="none" stroke="#63b8ff" d="M612.21,-164.51C596.9,-156.31 574.03,-144.07 556.3,-134.58"/>
<polygon fill="#63b8ff" stroke="#63b8ff" points="558.35,-131.71 547.88,-130.07 555.04,-137.88 558.35,-131.71"/>
</g>
<!-- Node16&#45;&gt;Node12 -->
<g id="edge23" class="edge">
<title>Node16&#45;&gt;Node12</title>
<path fill="none" stroke="#63b8ff" d="M591.51,-164.51C551.97,-155.03 489.86,-140.13 449.03,-130.34"/>
<polygon fill="#63b8ff" stroke="#63b8ff" points="449.87,-126.94 439.33,-128.01 448.24,-133.75 449.87,-126.94"/>
</g>
<!-- Node16&#45;&gt;Node13 -->
<g id="edge22" class="edge">
<title>Node16&#45;&gt;Node13</title>
<path fill="none" stroke="#63b8ff" d="M637.31,-164.64C651.35,-150.32 681.35,-122.42 713,-110 785.05,-81.72 1016.55,-70.38 1111.63,-66.84"/>
<polygon fill="#63b8ff" stroke="#63b8ff" points="1111.68,-70.34 1121.55,-66.48 1111.43,-63.35 1111.68,-70.34"/>
</g>
<!-- Node16&#45;&gt;Node17 -->
<g id="edge19" class="edge">
<title>Node16&#45;&gt;Node17</title>
<path fill="none" stroke="#63b8ff" d="M667.68,-164.51C709.11,-154.88 774.56,-139.66 816.63,-129.88"/>
<polygon fill="#63b8ff" stroke="#63b8ff" points="817.16,-133.35 826.11,-127.68 815.57,-126.54 817.16,-133.35"/>
</g>
<!-- Node18 -->
<g id="node18" class="node">
<title>Node18</title>
<g id="a_node18"><a xlink:title=" ">
<polygon fill="#e0e0e0" stroke="#999999" points="661,-129 623,-129 623,-110 661,-110 661,-129"/>
<text text-anchor="middle" x="642" y="-117" font-family="Helvetica,sans-Serif" font-size="10.00">map</text>
</a>
</g>
</g>
<!-- Node16&#45;&gt;Node18 -->
<g id="edge20" class="edge">
<title>Node16&#45;&gt;Node18</title>
<path fill="none" stroke="#63b8ff" d="M631.15,-164.75C632.76,-158.19 635.02,-148.95 637.07,-140.6"/>
<polygon fill="#63b8ff" stroke="#63b8ff" points="640.46,-141.46 639.45,-130.91 633.66,-139.79 640.46,-141.46"/>
</g>
<!-- Node19&#45;&gt;Node6 -->
<g id="edge27" class="edge">
<title>Node19&#45;&gt;Node6</title>
<path fill="none" stroke="#63b8ff" d="M1721.51,-219.59C1677.56,-203.75 1586.85,-171.71 1554,-165 1266.03,-106.22 1187.99,-133.19 895,-110 684.94,-93.37 629.13,-96.02 416.7,-74.23"/>
<polygon fill="#63b8ff" stroke="#63b8ff" points="417.29,-70.77 406.99,-73.22 416.57,-77.73 417.29,-70.77"/>
</g>
<!-- Node19&#45;&gt;Node11 -->
<g id="edge39" class="edge">
<title>Node19&#45;&gt;Node11</title>
<path fill="none" stroke="#63b8ff" d="M1724.49,-219.56C1706.1,-211.48 1679.32,-198.62 1658,-184 1617.52,-156.23 1620.46,-130.82 1576,-110 1382.06,-19.16 527.18,-24.48 420,-19 382.31,-17.07 339.4,-14.67 308.64,-12.91"/>
<polygon fill="#63b8ff" stroke="#63b8ff" points="309.17,-9.44 298.99,-12.36 308.77,-16.43 309.17,-9.44"/>
</g>
<!-- Node19&#45;&gt;Node13 -->
<g id="edge26" class="edge">
<title>Node19&#45;&gt;Node13</title>
<path fill="none" stroke="#63b8ff" d="M1786.3,-228.51C1987.15,-228.37 2872.16,-225.39 2912,-184 2917.86,-177.92 2917.8,-171.14 2912,-165 2851.03,-100.48 1453.65,-71.15 1194.24,-66.25"/>
<polygon fill="#63b8ff" stroke="#63b8ff" points="1194.33,-62.75 1184.27,-66.06 1194.2,-69.75 1194.33,-62.75"/>
</g>
<!-- Node19&#45;&gt;Node17 -->
<g id="edge36" class="edge">
<title>Node19&#45;&gt;Node17</title>
<path fill="none" stroke="#63b8ff" d="M1713.61,-219.6C1652.77,-202.94 1525.65,-168.4 1505,-165 1387.22,-145.62 1021.1,-127.86 897.92,-122.3"/>
<polygon fill="#63b8ff" stroke="#63b8ff" points="898.1,-118.8 887.95,-121.85 897.78,-125.79 898.1,-118.8"/>
</g>
<!-- Node20 -->
<g id="node20" class="node">
<title>Node20</title>
<g id="a_node20"><a xlink:title=" ">
<polygon fill="#e0e0e0" stroke="#999999" points="1825.5,-184 1666.5,-184 1666.5,-165 1825.5,-165 1825.5,-184"/>
<text text-anchor="middle" x="1746" y="-172" font-family="Helvetica,sans-Serif" font-size="10.00">SFML/Graphics/Drawable.hpp</text>
</a>
</g>
</g>
<!-- Node19&#45;&gt;Node20 -->
<g id="edge28" class="edge">
<title>Node19&#45;&gt;Node20</title>
<path fill="none" stroke="#63b8ff" d="M1746,-219.75C1746,-213.27 1746,-204.16 1746,-195.9"/>
<polygon fill="#63b8ff" stroke="#63b8ff" points="1749.5,-195.96 1746,-185.96 1742.5,-195.96 1749.5,-195.96"/>
</g>
<!-- Node19&#45;&gt;Node21 -->
<g id="edge29" class="edge">
<title>Node19&#45;&gt;Node21</title>
<path fill="none" stroke="#63b8ff" d="M1705.57,-224.03C1626.22,-215.25 1448.85,-195.62 1345.63,-184.2"/>
<polygon fill="#63b8ff" stroke="#63b8ff" points="1346.17,-180.74 1335.84,-183.12 1345.4,-187.7 1346.17,-180.74"/>
</g>
<!-- Node22 -->
<g id="node22" class="node">
<title>Node22</title>
<g id="a_node22"><a xlink:title=" ">
<polygon fill="#e0e0e0" stroke="#999999" points="2022,-184 1844,-184 1844,-165 2022,-165 2022,-184"/>
<text text-anchor="middle" x="1933" y="-172" font-family="Helvetica,sans-Serif" font-size="10.00">SFML/Graphics/RenderStates.hpp</text>
</a>
</g>
</g>
<!-- Node19&#45;&gt;Node22 -->
<g id="edge30" class="edge">
<title>Node19&#45;&gt;Node22</title>
<path fill="none" stroke="#63b8ff" d="M1777.72,-219.51C1808.84,-210.69 1856.5,-197.18 1890.8,-187.46"/>
<polygon fill="#63b8ff" stroke="#63b8ff" points="1891.31,-190.95 1899.98,-184.86 1889.4,-184.22 1891.31,-190.95"/>
</g>
<!-- Node23 -->
<g id="node23" class="node">
<title>Node23</title>
<g id="a_node23"><a xlink:title=" ">
<polygon fill="#e0e0e0" stroke="#999999" points="2217.5,-184 2040.5,-184 2040.5,-165 2217.5,-165 2217.5,-184"/>
<text text-anchor="middle" x="2129" y="-172" font-family="Helvetica,sans-Serif" font-size="10.00">SFML/Graphics/RenderTarget.hpp</text>
</a>
</g>
</g>
<!-- Node19&#45;&gt;Node23 -->
<g id="edge31" class="edge">
<title>Node19&#45;&gt;Node23</title>
<path fill="none" stroke="#63b8ff" d="M1786.26,-222.93C1849.46,-214.18 1972.97,-197.09 2053.18,-185.99"/>
<polygon fill="#63b8ff" stroke="#63b8ff" points="2053.27,-189.51 2062.7,-184.67 2052.31,-182.58 2053.27,-189.51"/>
</g>
<!-- Node24 -->
<g id="node24" class="node">
<title>Node24</title>
<g id="a_node24"><a xlink:title=" ">
<polygon fill="#e0e0e0" stroke="#999999" points="2396.5,-184 2235.5,-184 2235.5,-165 2396.5,-165 2396.5,-184"/>
<text text-anchor="middle" x="2316" y="-172" font-family="Helvetica,sans-Serif" font-size="10.00">SFML/Graphics/Transform.hpp</text>
</a>
</g>
</g>
<!-- Node19&#45;&gt;Node24 -->
<g id="edge32" class="edge">
<title>Node19&#45;&gt;Node24</title>
<path fill="none" stroke="#63b8ff" d="M1786.23,-224.82C1867.02,-217.42 2055.05,-200.15 2224.11,-184.27"/>
<polygon fill="#63b8ff" stroke="#63b8ff" points="2224.34,-187.76 2233.96,-183.34 2223.68,-180.79 2224.34,-187.76"/>
</g>
<!-- Node25 -->
<g id="node25" class="node">
<title>Node25</title>
<g id="a_node25"><a xlink:title=" ">
<polygon fill="#e0e0e0" stroke="#999999" points="2597,-184 2415,-184 2415,-165 2597,-165 2597,-184"/>
<text text-anchor="middle" x="2506" y="-172" font-family="Helvetica,sans-Serif" font-size="10.00">SFML/Graphics/Transformable.hpp</text>
</a>
</g>
</g>
<!-- Node19&#45;&gt;Node25 -->
<g id="edge33" class="edge">
<title>Node19&#45;&gt;Node25</title>
<path fill="none" stroke="#63b8ff" d="M1786.2,-226.04C1887.63,-219.76 2162.48,-202.44 2403.28,-184.19"/>
<polygon fill="#63b8ff" stroke="#63b8ff" points="2403.5,-187.69 2413.21,-183.44 2402.97,-180.71 2403.5,-187.69"/>
</g>
<!-- Node26 -->
<g id="node26" class="node">
<title>Node26</title>
<g id="a_node26"><a xlink:title=" ">
<polygon fill="#e0e0e0" stroke="#999999" points="2787,-184 2615,-184 2615,-165 2787,-165 2787,-184"/>
<text text-anchor="middle" x="2701" y="-172" font-family="Helvetica,sans-Serif" font-size="10.00">SFML/System/NonCopyable.hpp</text>
</a>
</g>
</g>
<!-- Node19&#45;&gt;Node26 -->
<g id="edge34" class="edge">
<title>Node19&#45;&gt;Node26</title>
<path fill="none" stroke="#63b8ff" d="M1786.33,-226.95C1907.9,-222.17 2281.68,-206.63 2603.13,-184.18"/>
<polygon fill="#63b8ff" stroke="#63b8ff" points="2603.3,-187.67 2613.03,-183.48 2602.81,-180.69 2603.3,-187.67"/>
</g>
<!-- Node19&#45;&gt;Node27 -->
<g id="edge35" class="edge">
<title>Node19&#45;&gt;Node27</title>
<path fill="none" stroke="#63b8ff" d="M1705.54,-221.84C1651.37,-212.92 1554.58,-196.99 1489.83,-186.34"/>
<polygon fill="#63b8ff" stroke="#63b8ff" points="1490.46,-182.89 1480.02,-184.72 1489.32,-189.8 1490.46,-182.89"/>
</g>
<!-- Node28 -->
<g id="node28" class="node">
<title>Node28</title>
<g id="a_node28"><a xlink:title=" ">
<polygon fill="#e0e0e0" stroke="#999999" points="2852.5,-184 2805.5,-184 2805.5,-165 2852.5,-165 2852.5,-184"/>
<text text-anchor="middle" x="2829" y="-172" font-family="Helvetica,sans-Serif" font-size="10.00">vector</text>
</a>
</g>
</g>
<!-- Node19&#45;&gt;Node28 -->
<g id="edge37" class="edge">
<title>Node19&#45;&gt;Node28</title>
<path fill="none" stroke="#63b8ff" d="M1786.33,-227.92C1951.03,-225.39 2573.98,-214.09 2794.21,-183.83"/>
<polygon fill="#63b8ff" stroke="#63b8ff" points="2794.43,-187.33 2803.83,-182.45 2793.43,-180.4 2794.43,-187.33"/>
</g>
<!-- Node29 -->
<g id="node29" class="node">
<title>Node29</title>
<g id="a_node29"><a xlink:title=" ">
<polygon fill="#e0e0e0" stroke="#999999" points="2903,-184 2871,-184 2871,-165 2903,-165 2903,-184"/>
<text text-anchor="middle" x="2887" y="-172" font-family="Helvetica,sans-Serif" font-size="10.00">set</text>
</a>
</g>
</g>
<!-- Node19&#45;&gt;Node29 -->
<g id="edge38" class="edge">
<title>Node19&#45;&gt;Node29</title>
<path fill="none" stroke="#63b8ff" d="M1786.26,-228.44C1957.57,-227.96 2627.37,-223.66 2859.46,-183.84"/>
<polygon fill="#63b8ff" stroke="#63b8ff" points="2859.79,-187.33 2869.01,-182.12 2858.55,-180.44 2859.79,-187.33"/>
</g>
<!-- Node30&#45;&gt;Node9 -->
<g id="edge51" class="edge">
<title>Node30&#45;&gt;Node9</title>
<path fill="none" stroke="#63b8ff" d="M1044.34,-221.89C1005.12,-213.16 935.38,-197.63 887.47,-186.96"/>
<polygon fill="#63b8ff" stroke="#63b8ff" points="888.39,-183.58 877.87,-184.82 886.87,-190.41 888.39,-183.58"/>
</g>
<!-- Node30&#45;&gt;Node13 -->
<g id="edge47" class="edge">
<title>Node30&#45;&gt;Node13</title>
<path fill="none" stroke="#63b8ff" d="M1084.46,-219.59C1093.67,-211.24 1106.86,-197.98 1115,-184 1133.61,-152.05 1144.32,-109.85 1149.38,-85.39"/>
<polygon fill="#63b8ff" stroke="#63b8ff" points="1152.76,-86.33 1151.23,-75.85 1145.89,-85 1152.76,-86.33"/>
</g>
<!-- Node30&#45;&gt;Node17 -->
<g id="edge49" class="edge">
<title>Node30&#45;&gt;Node17</title>
<path fill="none" stroke="#63b8ff" d="M1044.05,-220.26C1018.14,-212.57 980.07,-199.9 949,-184 922.47,-170.42 894.66,-150.28 876.66,-136.34"/>
<polygon fill="#63b8ff" stroke="#63b8ff" points="878.95,-133.69 868.93,-130.25 874.62,-139.19 878.95,-133.69"/>
</g>
<!-- Node30&#45;&gt;Node27 -->
<g id="edge50" class="edge">
<title>Node30&#45;&gt;Node27</title>
<path fill="none" stroke="#63b8ff" d="M1103.84,-223.98C1158.83,-215.65 1277.51,-197.68 1353.9,-186.11"/>
<polygon fill="#63b8ff" stroke="#63b8ff" points="1354,-189.64 1363.36,-184.68 1352.95,-182.72 1354,-189.64"/>
</g>
<!-- Node31 -->
<g id="node31" class="node">
<title>Node31</title>
<g id="a_node31"><a xlink:title=" ">
<polygon fill="#e0e0e0" stroke="#999999" points="1106,-184 1042,-184 1042,-165 1106,-165 1106,-184"/>
<text text-anchor="middle" x="1074" y="-172" font-family="Helvetica,sans-Serif" font-size="10.00">algorithm</text>
</a>
</g>
</g>
<!-- Node30&#45;&gt;Node31 -->
<g id="edge46" class="edge">
<title>Node30&#45;&gt;Node31</title>
<path fill="none" stroke="#63b8ff" d="M1074,-219.75C1074,-213.27 1074,-204.16 1074,-195.9"/>
<polygon fill="#63b8ff" stroke="#63b8ff" points="1077.5,-195.96 1074,-185.96 1070.5,-195.96 1077.5,-195.96"/>
</g>
<!-- Node32 -->
<g id="node32" class="node">
<title>Node32</title>
<g id="a_node32"><a xlink:title=" ">
<polygon fill="#e0e0e0" stroke="#999999" points="1023.5,-184 958.5,-184 958.5,-165 1023.5,-165 1023.5,-184"/>
<text text-anchor="middle" x="991" y="-172" font-family="Helvetica,sans-Serif" font-size="10.00">functional</text>
</a>
</g>
</g>
<!-- Node30&#45;&gt;Node32 -->
<g id="edge48" class="edge">
<title>Node30&#45;&gt;Node32</title>
<path fill="none" stroke="#63b8ff" d="M1059.92,-219.51C1047.44,-211.54 1028.98,-199.75 1014.31,-190.38"/>
<polygon fill="#63b8ff" stroke="#63b8ff" points="1016.46,-187.6 1006.15,-185.17 1012.69,-193.5 1016.46,-187.6"/>
</g>
<!-- Node33&#45;&gt;Node2 -->
<g id="edge59" class="edge">
<title>Node33&#45;&gt;Node2</title>
<path fill="none" stroke="#63b8ff" d="M714.23,-389.98C827.53,-380.31 1142.63,-353.42 1254.21,-343.9"/>
<polygon fill="#63b8ff" stroke="#63b8ff" points="1254.4,-347.39 1264.07,-343.05 1253.8,-340.42 1254.4,-347.39"/>
</g>
<!-- Node33&#45;&gt;Node6 -->
<g id="edge60" class="edge">
<title>Node33&#45;&gt;Node6</title>
<path fill="none" stroke="#63b8ff" d="M631.58,-392.37C526.01,-386.96 247.16,-356.25 133,-184 91.98,-122.1 205.49,-89.75 283.41,-75.27"/>
<polygon fill="#63b8ff" stroke="#63b8ff" points="283.91,-78.74 293.14,-73.53 282.68,-71.85 283.91,-78.74"/>
</g>
<!-- Node33&#45;&gt;Node11 -->
<g id="edge63" class="edge">
<title>Node33&#45;&gt;Node11</title>
<path fill="none" stroke="#63b8ff" d="M631.83,-390.87C491.11,-381.34 38,-345.96 38,-285.5 38,-285.5 38,-285.5 38,-118.5 38,-36.6 159.3,-16.71 225.33,-11.95"/>
<polygon fill="#63b8ff" stroke="#63b8ff" points="225.32,-15.45 235.08,-11.34 224.88,-8.47 225.32,-15.45"/>
</g>
<!-- Node33&#45;&gt;Node12 -->
<g id="edge58" class="edge">
<title>Node33&#45;&gt;Node12</title>
<path fill="none" stroke="#63b8ff" d="M649.49,-384.62C614.81,-369.81 554,-336.56 554,-285.5 554,-285.5 554,-285.5 554,-228.5 554,-175.86 491.89,-145.94 448.7,-131.5"/>
<polygon fill="#63b8ff" stroke="#63b8ff" points="449.93,-128.22 439.34,-128.53 447.81,-134.89 449.93,-128.22"/>
</g>
<!-- Node33&#45;&gt;Node21 -->
<g id="edge61" class="edge">
<title>Node33&#45;&gt;Node21</title>
<path fill="none" stroke="#63b8ff" d="M699.9,-384.56C768.81,-361.54 957.19,-297.91 1112,-239 1155.28,-222.53 1204.68,-201.98 1235.85,-188.8"/>
<polygon fill="#63b8ff" stroke="#63b8ff" points="1236.84,-192.18 1244.68,-185.06 1234.11,-185.74 1236.84,-192.18"/>
</g>
<!-- Node33&#45;&gt;Node27 -->
<g id="edge62" class="edge">
<title>Node33&#45;&gt;Node27</title>
<path fill="none" stroke="#63b8ff" d="M714.25,-390.59C806.39,-383.09 1034.89,-358.94 1214,-294 1287.75,-267.26 1366.04,-216.18 1402.72,-190.71"/>
<polygon fill="#63b8ff" stroke="#63b8ff" points="1404.51,-193.73 1410.68,-185.12 1400.49,-188 1404.51,-193.73"/>
</g>
</g>
</svg>
        <g id="navigator" transform="translate(0 0)" fill="#404254">
                <rect fill="#f2f5e9" fill-opacity="0.5" stroke="#606060" stroke-width=".5" x="0" y="0" width="60" height="60"/>
                <use id="zoomplus" xlink:href="#zoomPlus" x="17" y="9" onmousedown="handleZoom(evt,'in')"/>
                <use id="zoomminus" xlink:href="#zoomMin" x="42" y="9" onmousedown="handleZoom(evt,'out')"/>
                <use id="reset" xlink:href="#resetDef" x="30" y="36" onmousedown="handleReset()"/>
                <g id="arrowUp" xlink:href="#dirArrow" transform="translate(30 24)" onmousedown="handlePan(0,-1)">
                  <use xlink:href="#rim" fill="#404040">
                        <set attributeName="fill" to="#808080" begin="arrowUp.mouseover" end="arrowUp.mouseout"/>
                  </use>
                  <path fill="none" stroke="white" stroke-width="1.5" d="M0,-3.0v7 M-2.5,-0.5L0,-3.0L2.5,-0.5"/>
                </g>
                <g id="arrowRight" xlink:href="#dirArrow" transform="rotate(90) translate(36 -43)" onmousedown="handlePan(1,0)">
                  <use xlink:href="#rim" fill="#404040">
                        <set attributeName="fill" to="#808080" begin="arrowRight.mouseover" end="arrowRight.mouseout"/>
                  </use>
                  <path fill="none" stroke="white" stroke-width="1.5" d="M0,-3.0v7 M-2.5,-0.5L0,-3.0L2.5,-0.5"/>
                </g>
                <g id="arrowDown" xlink:href="#dirArrow" transform="rotate(180) translate(-30 -48)" onmousedown="handlePan(0,1)">
                  <use xlink:href="#rim" fill="#404040">
                        <set attributeName="fill" to="#808080" begin="arrowDown.mouseover" end="arrowDown.mouseout"/>
                  </use>
                  <path fill="none" stroke="white" stroke-width="1.5" d="M0,-3.0v7 M-2.5,-0.5L0,-3.0L2.5,-0.5"/>
                </g>
                <g id="arrowLeft" xlink:href="#dirArrow" transform="rotate(270) translate(-36 17)" onmousedown="handlePan(-1,0)">
                  <use xlink:href="#rim" fill="#404040">
                        <set attributeName="fill" to="#808080" begin="arrowLeft.mouseover" end="arrowLeft.mouseout"/>
                  </use>
                  <path fill="none" stroke="white" stroke-width="1.5" d="M0,-3.0v7 M-2.5,-0.5L0,-3.0L2.5,-0.5"/>
                </g>
        </g>
        <svg viewBox="0 0 15 15" width="100%" height="30px" preserveAspectRatio="xMaxYMin meet">
         <g id="arrow_out" transform="scale(0.3 0.3)">
          <a xlink:href="Player_8cpp__incl_org.svg" target="_base">
           <rect id="button" ry="5" rx="5" y="6" x="6" height="38" width="38"
                fill="#f2f5e9" fill-opacity="0.5" stroke="#606060" stroke-width="1.0"/>
           <path id="arrow"
             d="M 11.500037,31.436501 C 11.940474,20.09759 22.043105,11.32322 32.158766,21.979434 L 37.068811,17.246167 C 37.068811,17.246167 37.088388,32 37.088388,32 L 22.160133,31.978069 C 22.160133,31.978069 26.997745,27.140456 26.997745,27.140456 C 18.528582,18.264221 13.291696,25.230495 11.500037,31.436501 z"
             style="fill:#404040;"/>
          </a>
         </g>
        </svg>
</svg>
