<?xml version="1.0" encoding="UTF-8" standalone="no"?>
<!DOCTYPE svg PUBLIC "-//W3C//DTD SVG 1.1//EN"
 "http://www.w3.org/Graphics/SVG/1.1/DTD/svg11.dtd">
<!-- Generated by graphviz version 7.0.5 (0)
 -->
<!-- Title: src/Player.h Pages: 1 -->
<svg width="1630pt" height="412pt"
 viewBox="0.00 0.00 1630.00 412.00" xmlns="http://www.w3.org/2000/svg" xmlns:xlink="http://www.w3.org/1999/xlink">
<g id="graph0" class="graph" transform="scale(1 1) rotate(0) translate(4 408)">
<title>src/Player.h</title>
<!-- Node1 -->
<g id="node1" class="node">
<title>Node1</title>
<g id="a_node1"><a xlink:title=" ">
<polygon fill="#999999" stroke="#666666" points="762.5,-404 689.5,-404 689.5,-385 762.5,-385 762.5,-404"/>
<text text-anchor="middle" x="726" y="-392" font-family="Helvetica,sans-Serif" font-size="10.00">src/Player.h</text>
</a>
</g>
</g>
<!-- Node2 -->
<g id="node2" class="node">
<title>Node2</title>
<g id="a_node2"><a xlink:href="GameState_8h.html" target="_top" xlink:title=" ">
<polygon fill="white" stroke="#666666" points="283,-239 185,-239 185,-220 283,-220 283,-239"/>
<text text-anchor="middle" x="234" y="-227" font-family="Helvetica,sans-Serif" font-size="10.00">src/GameState.h</text>
</a>
</g>
</g>
<!-- Node1&#45;&gt;Node2 -->
<g id="edge1" class="edge">
<title>Node1&#45;&gt;Node2</title>
<path fill="none" stroke="#63b8ff" d="M677.69,-390.77C586.12,-385.17 390.75,-371 327,-349 283.04,-333.83 261.91,-333.88 238,-294 227.78,-276.95 229.95,-252.48 232.15,-239.46"/>
<polygon fill="#63b8ff" stroke="#63b8ff" points="677.41,-394.26 687.6,-391.37 677.83,-387.28 677.41,-394.26"/>
</g>
<!-- Node9 -->
<g id="node9" class="node">
<title>Node9</title>
<g id="a_node9"><a xlink:href="Player_8cpp.html" target="_top" xlink:title=" ">
<polygon fill="white" stroke="#666666" points="916,-294 832,-294 832,-275 916,-275 916,-294"/>
<text text-anchor="middle" x="874" y="-282" font-family="Helvetica,sans-Serif" font-size="10.00">src/Player.cpp</text>
</a>
</g>
</g>
<!-- Node1&#45;&gt;Node9 -->
<g id="edge8" class="edge">
<title>Node1&#45;&gt;Node9</title>
<path fill="none" stroke="#63b8ff" d="M773.85,-386.61C799.67,-380.62 830.37,-369.52 851,-349 866.3,-333.79 871.49,-307.64 873.2,-294.13"/>
<polygon fill="#63b8ff" stroke="#63b8ff" points="773.31,-383.14 764.25,-388.63 774.75,-389.99 773.31,-383.14"/>
</g>
<!-- Node10 -->
<g id="node10" class="node">
<title>Node10</title>
<g id="a_node10"><a xlink:href="PlayerCollidable_8h.html" target="_top" xlink:title=" ">
<polygon fill="white" stroke="#666666" points="723,-349 601,-349 601,-330 723,-330 723,-349"/>
<text text-anchor="middle" x="662" y="-337" font-family="Helvetica,sans-Serif" font-size="10.00">src/PlayerCollidable.h</text>
</a>
</g>
</g>
<!-- Node1&#45;&gt;Node10 -->
<g id="edge9" class="edge">
<title>Node1&#45;&gt;Node10</title>
<path fill="none" stroke="#63b8ff" d="M706.52,-377.37C695.4,-368.16 681.9,-356.98 672.7,-349.36"/>
<polygon fill="#63b8ff" stroke="#63b8ff" points="704.04,-379.86 713.98,-383.54 708.51,-374.47 704.04,-379.86"/>
</g>
<!-- Node34 -->
<g id="node34" class="node">
<title>Node34</title>
<g id="a_node34"><a xlink:href="PlayerState_8cpp.html" target="_top" xlink:title=" ">
<polygon fill="white" stroke="#666666" points="1044,-294 934,-294 934,-275 1044,-275 1044,-294"/>
<text text-anchor="middle" x="989" y="-282" font-family="Helvetica,sans-Serif" font-size="10.00">src/PlayerState.cpp</text>
</a>
</g>
</g>
<!-- Node1&#45;&gt;Node34 -->
<g id="edge47" class="edge">
<title>Node1&#45;&gt;Node34</title>
<path fill="none" stroke="#63b8ff" d="M773.76,-381.56C802.7,-373.69 840.06,-362.37 872,-349 910.59,-332.84 953.1,-307.79 974.69,-294.5"/>
<polygon fill="#63b8ff" stroke="#63b8ff" points="772.94,-378.16 764.18,-384.12 774.74,-384.92 772.94,-378.16"/>
</g>
<!-- Node35 -->
<g id="node35" class="node">
<title>Node35</title>
<g id="a_node35"><a xlink:href="PlayerState_8h.html" target="_top" xlink:title=" ">
<polygon fill="white" stroke="#666666" points="842.5,-349 743.5,-349 743.5,-330 842.5,-330 842.5,-349"/>
<text text-anchor="middle" x="793" y="-337" font-family="Helvetica,sans-Serif" font-size="10.00">src/PlayerState.h</text>
</a>
</g>
</g>
<!-- Node1&#45;&gt;Node35 -->
<g id="edge48" class="edge">
<title>Node1&#45;&gt;Node35</title>
<path fill="none" stroke="#63b8ff" d="M746.05,-377.64C757.75,-368.39 772.07,-357.05 781.8,-349.36"/>
<polygon fill="#63b8ff" stroke="#63b8ff" points="744.22,-374.62 738.55,-383.57 748.57,-380.11 744.22,-374.62"/>
</g>
<!-- Node36 -->
<g id="node36" class="node">
<title>Node36</title>
<g id="a_node36"><a xlink:href="World_8h.html" target="_top" xlink:title=" ">
<polygon fill="white" stroke="#666666" points="407.5,-349 336.5,-349 336.5,-330 407.5,-330 407.5,-349"/>
<text text-anchor="middle" x="372" y="-337" font-family="Helvetica,sans-Serif" font-size="10.00">src/World.h</text>
</a>
</g>
</g>
<!-- Node1&#45;&gt;Node36 -->
<g id="edge54" class="edge">
<title>Node1&#45;&gt;Node36</title>
<path fill="none" stroke="#63b8ff" d="M678.13,-386.33C606.18,-375.56 471.81,-355.44 407.74,-345.85"/>
<polygon fill="#63b8ff" stroke="#63b8ff" points="677.21,-389.73 687.62,-387.75 678.25,-382.81 677.21,-389.73"/>
</g>
<!-- Node3 -->
<g id="node3" class="node">
<title>Node3</title>
<g id="a_node3"><a xlink:href="GameState_8cpp.html" target="_top" xlink:title=" ">
<polygon fill="white" stroke="#666666" points="167.5,-184 58.5,-184 58.5,-165 167.5,-165 167.5,-184"/>
<text text-anchor="middle" x="113" y="-172" font-family="Helvetica,sans-Serif" font-size="10.00">src/GameState.cpp</text>
</a>
</g>
</g>
<!-- Node2&#45;&gt;Node3 -->
<g id="edge2" class="edge">
<title>Node2&#45;&gt;Node3</title>
<path fill="none" stroke="#63b8ff" d="M203.02,-214.93C181.08,-205.32 152.27,-192.7 133.22,-184.36"/>
<polygon fill="#63b8ff" stroke="#63b8ff" points="201.52,-218.1 212.09,-218.9 204.33,-211.68 201.52,-218.1"/>
</g>
<!-- Node4 -->
<g id="node4" class="node">
<title>Node4</title>
<g id="a_node4"><a xlink:href="MainMenuState_8h.html" target="_top" xlink:title=" ">
<polygon fill="white" stroke="#666666" points="304.5,-184 185.5,-184 185.5,-165 304.5,-165 304.5,-184"/>
<text text-anchor="middle" x="245" y="-172" font-family="Helvetica,sans-Serif" font-size="10.00">src/MainMenuState.h</text>
</a>
</g>
</g>
<!-- Node2&#45;&gt;Node4 -->
<g id="edge3" class="edge">
<title>Node2&#45;&gt;Node4</title>
<path fill="none" stroke="#63b8ff" d="M238.12,-208.64C239.85,-200.31 241.77,-191.05 243.14,-184.44"/>
<polygon fill="#63b8ff" stroke="#63b8ff" points="234.73,-207.76 236.12,-218.27 241.58,-209.19 234.73,-207.76"/>
</g>
<!-- Node5 -->
<g id="node5" class="node">
<title>Node5</title>
<g id="a_node5"><a xlink:href="Game_8h.html" target="_top" xlink:title=" ">
<polygon fill="white" stroke="#666666" points="172,-129 100,-129 100,-110 172,-110 172,-129"/>
<text text-anchor="middle" x="136" y="-117" font-family="Helvetica,sans-Serif" font-size="10.00">src/Game.h</text>
</a>
</g>
</g>
<!-- Node4&#45;&gt;Node5 -->
<g id="edge4" class="edge">
<title>Node4&#45;&gt;Node5</title>
<path fill="none" stroke="#63b8ff" d="M216.28,-159.53C196.62,-149.97 171.14,-137.59 154.22,-129.36"/>
<polygon fill="#63b8ff" stroke="#63b8ff" points="214.62,-162.62 225.15,-163.85 217.69,-156.33 214.62,-162.62"/>
</g>
<!-- Node8 -->
<g id="node8" class="node">
<title>Node8</title>
<g id="a_node8"><a xlink:href="MainMenuState_8cpp.html" target="_top" xlink:title=" ">
<polygon fill="white" stroke="#666666" points="321.5,-129 190.5,-129 190.5,-110 321.5,-110 321.5,-129"/>
<text text-anchor="middle" x="256" y="-117" font-family="Helvetica,sans-Serif" font-size="10.00">src/MainMenuState.cpp</text>
</a>
</g>
</g>
<!-- Node4&#45;&gt;Node8 -->
<g id="edge7" class="edge">
<title>Node4&#45;&gt;Node8</title>
<path fill="none" stroke="#63b8ff" d="M249.12,-153.64C250.85,-145.31 252.77,-136.05 254.14,-129.44"/>
<polygon fill="#63b8ff" stroke="#63b8ff" points="245.73,-152.76 247.12,-163.27 252.58,-154.19 245.73,-152.76"/>
</g>
<!-- Node6 -->
<g id="node6" class="node">
<title>Node6</title>
<g id="a_node6"><a xlink:href="FinalProjectCS202_8cpp.html" target="_top" xlink:title=" ">
<polygon fill="white" stroke="#666666" points="142,-74 0,-74 0,-55 142,-55 142,-74"/>
<text text-anchor="middle" x="71" y="-62" font-family="Helvetica,sans-Serif" font-size="10.00">src/FinalProjectCS202.cpp</text>
</a>
</g>
</g>
<!-- Node5&#45;&gt;Node6 -->
<g id="edge5" class="edge">
<title>Node5&#45;&gt;Node6</title>
<path fill="none" stroke="#63b8ff" d="M116.21,-102.37C104.92,-93.16 91.21,-81.98 81.86,-74.36"/>
<polygon fill="#63b8ff" stroke="#63b8ff" points="113.84,-104.95 123.8,-108.55 118.26,-99.52 113.84,-104.95"/>
</g>
<!-- Node7 -->
<g id="node7" class="node">
<title>Node7</title>
<g id="a_node7"><a xlink:href="Game_8cpp.html" target="_top" xlink:title=" ">
<polygon fill="white" stroke="#666666" points="243.5,-74 160.5,-74 160.5,-55 243.5,-55 243.5,-74"/>
<text text-anchor="middle" x="202" y="-62" font-family="Helvetica,sans-Serif" font-size="10.00">src/Game.cpp</text>
</a>
</g>
</g>
<!-- Node5&#45;&gt;Node7 -->
<g id="edge6" class="edge">
<title>Node5&#45;&gt;Node7</title>
<path fill="none" stroke="#63b8ff" d="M156.09,-102.37C167.55,-93.16 181.48,-81.98 190.97,-74.36"/>
<polygon fill="#63b8ff" stroke="#63b8ff" points="153.98,-99.57 148.38,-108.56 158.36,-105.03 153.98,-99.57"/>
</g>
<!-- Node11 -->
<g id="node11" class="node">
<title>Node11</title>
<g id="a_node11"><a xlink:href="Camera_8h.html" target="_top" xlink:title=" ">
<polygon fill="white" stroke="#666666" points="481.5,-294 400.5,-294 400.5,-275 481.5,-275 481.5,-294"/>
<text text-anchor="middle" x="441" y="-282" font-family="Helvetica,sans-Serif" font-size="10.00">src/Camera.h</text>
</a>
</g>
</g>
<!-- Node10&#45;&gt;Node11 -->
<g id="edge10" class="edge">
<title>Node10&#45;&gt;Node11</title>
<path fill="none" stroke="#63b8ff" d="M613.5,-326.87C572.8,-317.11 515.5,-303.37 478.3,-294.45"/>
<polygon fill="#63b8ff" stroke="#63b8ff" points="612.5,-330.23 623.04,-329.16 614.13,-323.42 612.5,-330.23"/>
</g>
<!-- Node13 -->
<g id="node13" class="node">
<title>Node13</title>
<g id="a_node13"><a xlink:href="Obstacle_8h.html" target="_top" xlink:title=" ">
<polygon fill="white" stroke="#666666" points="776,-294 690,-294 690,-275 776,-275 776,-294"/>
<text text-anchor="middle" x="733" y="-282" font-family="Helvetica,sans-Serif" font-size="10.00">src/Obstacle.h</text>
</a>
</g>
</g>
<!-- Node10&#45;&gt;Node13 -->
<g id="edge13" class="edge">
<title>Node10&#45;&gt;Node13</title>
<path fill="none" stroke="#63b8ff" d="M683.25,-322.64C695.64,-313.39 710.82,-302.05 721.13,-294.36"/>
<polygon fill="#63b8ff" stroke="#63b8ff" points="681.18,-319.82 675.26,-328.6 685.36,-325.43 681.18,-319.82"/>
</g>
<!-- Node31 -->
<g id="node31" class="node">
<title>Node31</title>
<g id="a_node31"><a xlink:href="Pickups_8h.html" target="_top" xlink:title=" ">
<polygon fill="white" stroke="#666666" points="650,-74 570,-74 570,-55 650,-55 650,-74"/>
<text text-anchor="middle" x="610" y="-62" font-family="Helvetica,sans-Serif" font-size="10.00">src/Pickups.h</text>
</a>
</g>
</g>
<!-- Node10&#45;&gt;Node31 -->
<g id="edge42" class="edge">
<title>Node10&#45;&gt;Node31</title>
<path fill="none" stroke="#63b8ff" d="M658.19,-318.51C647.75,-263.7 618.97,-112.61 611.69,-74.38"/>
<polygon fill="#63b8ff" stroke="#63b8ff" points="654.74,-319.07 660.05,-328.24 661.61,-317.76 654.74,-319.07"/>
</g>
<!-- Node33 -->
<g id="node33" class="node">
<title>Node33</title>
<g id="a_node33"><a xlink:href="PlayerCollidable_8cpp.html" target="_top" xlink:title=" ">
<polygon fill="white" stroke="#666666" points="634,-294 500,-294 500,-275 634,-275 634,-294"/>
<text text-anchor="middle" x="567" y="-282" font-family="Helvetica,sans-Serif" font-size="10.00">src/PlayerCollidable.cpp</text>
</a>
</g>
</g>
<!-- Node10&#45;&gt;Node33 -->
<g id="edge46" class="edge">
<title>Node10&#45;&gt;Node33</title>
<path fill="none" stroke="#63b8ff" d="M636.01,-324C619.01,-314.52 597.35,-302.43 582.88,-294.36"/>
<polygon fill="#63b8ff" stroke="#63b8ff" points="634.12,-326.96 644.56,-328.77 637.54,-320.84 634.12,-326.96"/>
</g>
<!-- Node11&#45;&gt;Node2 -->
<g id="edge12" class="edge">
<title>Node11&#45;&gt;Node2</title>
<path fill="none" stroke="#63b8ff" d="M395.08,-271.74C356.99,-261.99 303.63,-248.33 268.94,-239.45"/>
<polygon fill="#63b8ff" stroke="#63b8ff" points="393.86,-275.04 404.42,-274.13 395.6,-268.26 393.86,-275.04"/>
</g>
<!-- Node12 -->
<g id="node12" class="node">
<title>Node12</title>
<g id="a_node12"><a xlink:href="Camera_8cpp.html" target="_top" xlink:title=" ">
<polygon fill="white" stroke="#666666" points="492,-239 400,-239 400,-220 492,-220 492,-239"/>
<text text-anchor="middle" x="446" y="-227" font-family="Helvetica,sans-Serif" font-size="10.00">src/Camera.cpp</text>
</a>
</g>
</g>
<!-- Node11&#45;&gt;Node12 -->
<g id="edge11" class="edge">
<title>Node11&#45;&gt;Node12</title>
<path fill="none" stroke="#63b8ff" d="M442.9,-263.35C443.68,-255.1 444.54,-245.97 445.16,-239.44"/>
<polygon fill="#63b8ff" stroke="#63b8ff" points="439.42,-262.96 441.97,-273.24 446.39,-263.61 439.42,-262.96"/>
</g>
<!-- Node14 -->
<g id="node14" class="node">
<title>Node14</title>
<g id="a_node14"><a xlink:href="Commuters_8h.html" target="_top" xlink:title=" ">
<polygon fill="white" stroke="#666666" points="1089,-239 989,-239 989,-220 1089,-220 1089,-239"/>
<text text-anchor="middle" x="1039" y="-227" font-family="Helvetica,sans-Serif" font-size="10.00">src/Commuters.h</text>
</a>
</g>
</g>
<!-- Node13&#45;&gt;Node14 -->
<g id="edge14" class="edge">
<title>Node13&#45;&gt;Node14</title>
<path fill="none" stroke="#63b8ff" d="M787.5,-274.06C844.51,-264.19 933.25,-248.82 988.65,-239.22"/>
<polygon fill="#63b8ff" stroke="#63b8ff" points="786.94,-270.61 777.68,-275.76 788.14,-277.5 786.94,-270.61"/>
</g>
<!-- Node16 -->
<g id="node16" class="node">
<title>Node16</title>
<g id="a_node16"><a xlink:href="GameLoader_8cpp.html" target="_top" xlink:title=" ">
<polygon fill="white" stroke="#666666" points="782,-19 666,-19 666,0 782,0 782,-19"/>
<text text-anchor="middle" x="724" y="-7" font-family="Helvetica,sans-Serif" font-size="10.00">src/GameLoader.cpp</text>
</a>
</g>
</g>
<!-- Node13&#45;&gt;Node16 -->
<g id="edge39" class="edge">
<title>Node13&#45;&gt;Node16</title>
<path fill="none" stroke="#63b8ff" d="M716.37,-266.21C709.59,-258.4 702.14,-248.75 697,-239 683.25,-212.95 678,-204.96 678,-175.5 678,-175.5 678,-175.5 678,-118.5 678,-78.96 704.42,-37.33 717.21,-19.48"/>
<polygon fill="#63b8ff" stroke="#63b8ff" points="713.78,-268.56 723.1,-273.59 718.95,-263.85 713.78,-268.56"/>
</g>
<!-- Node23 -->
<g id="node23" class="node">
<title>Node23</title>
<g id="a_node23"><a xlink:href="SceneBuilder_8cpp.html" target="_top" xlink:title=" ">
<polygon fill="white" stroke="#666666" points="1108.5,-19 991.5,-19 991.5,0 1108.5,0 1108.5,-19"/>
<text text-anchor="middle" x="1050" y="-7" font-family="Helvetica,sans-Serif" font-size="10.00">src/SceneBuilder.cpp</text>
</a>
</g>
</g>
<!-- Node13&#45;&gt;Node23 -->
<g id="edge41" class="edge">
<title>Node13&#45;&gt;Node23</title>
<path fill="none" stroke="#63b8ff" d="M778.56,-271.52C844.31,-252.87 958,-214.92 958,-175.5 958,-175.5 958,-175.5 958,-118.5 958,-88.91 959.83,-78.35 978,-55 990.72,-38.65 1011.27,-26.81 1027.17,-19.47"/>
<polygon fill="#63b8ff" stroke="#63b8ff" points="777.81,-268.1 769.12,-274.15 779.69,-274.84 777.81,-268.1"/>
</g>
<!-- Node30 -->
<g id="node30" class="node">
<title>Node30</title>
<g id="a_node30"><a xlink:href="Obstacle_8cpp.html" target="_top" xlink:title=" ">
<polygon fill="white" stroke="#666666" points="803.5,-239 706.5,-239 706.5,-220 803.5,-220 803.5,-239"/>
<text text-anchor="middle" x="755" y="-227" font-family="Helvetica,sans-Serif" font-size="10.00">src/Obstacle.cpp</text>
</a>
</g>
</g>
<!-- Node13&#45;&gt;Node30 -->
<g id="edge40" class="edge">
<title>Node13&#45;&gt;Node30</title>
<path fill="none" stroke="#63b8ff" d="M741,-264.22C744.52,-255.74 748.48,-246.21 751.29,-239.44"/>
<polygon fill="#63b8ff" stroke="#63b8ff" points="737.81,-262.77 737.21,-273.35 744.28,-265.46 737.81,-262.77"/>
</g>
<!-- Node15 -->
<g id="node15" class="node">
<title>Node15</title>
<g id="a_node15"><a xlink:href="Commuters_8cpp.html" target="_top" xlink:title=" ">
<polygon fill="white" stroke="#666666" points="1097.5,-184 986.5,-184 986.5,-165 1097.5,-165 1097.5,-184"/>
<text text-anchor="middle" x="1042" y="-172" font-family="Helvetica,sans-Serif" font-size="10.00">src/Commuters.cpp</text>
</a>
</g>
</g>
<!-- Node14&#45;&gt;Node15 -->
<g id="edge15" class="edge">
<title>Node14&#45;&gt;Node15</title>
<path fill="none" stroke="#63b8ff" d="M1040.14,-208.35C1040.61,-200.1 1041.12,-190.97 1041.49,-184.44"/>
<polygon fill="#63b8ff" stroke="#63b8ff" points="1036.65,-208.06 1039.58,-218.24 1043.64,-208.45 1036.65,-208.06"/>
</g>
<!-- Node14&#45;&gt;Node16 -->
<g id="edge16" class="edge">
<title>Node14&#45;&gt;Node16</title>
<path fill="none" stroke="#63b8ff" d="M995.47,-216.22C932.5,-196.35 816.12,-151.35 748,-74 733.82,-57.9 727.67,-32.6 725.3,-19.32"/>
<polygon fill="#63b8ff" stroke="#63b8ff" points="994.18,-219.49 1004.76,-219.09 996.24,-212.8 994.18,-219.49"/>
</g>
<!-- Node17 -->
<g id="node17" class="node">
<title>Node17</title>
<g id="a_node17"><a xlink:href="RoadLane_8cpp.html" target="_top" xlink:title=" ">
<polygon fill="white" stroke="#666666" points="1610,-129 1508,-129 1508,-110 1610,-110 1610,-129"/>
<text text-anchor="middle" x="1559" y="-117" font-family="Helvetica,sans-Serif" font-size="10.00">src/RoadLane.cpp</text>
</a>
</g>
</g>
<!-- Node14&#45;&gt;Node17 -->
<g id="edge17" class="edge">
<title>Node14&#45;&gt;Node17</title>
<path fill="none" stroke="#63b8ff" d="M1100.59,-225.18C1199.74,-219.29 1390.1,-205.56 1454,-184 1491.55,-171.33 1529.96,-143.55 1548.16,-129.31"/>
<polygon fill="#63b8ff" stroke="#63b8ff" points="1100.54,-221.68 1090.76,-225.76 1100.95,-228.67 1100.54,-221.68"/>
</g>
<!-- Node18 -->
<g id="node18" class="node">
<title>Node18</title>
<g id="a_node18"><a xlink:href="RoadLane_8h.html" target="_top" xlink:title=" ">
<polygon fill="white" stroke="#666666" points="1444.5,-184 1353.5,-184 1353.5,-165 1444.5,-165 1444.5,-184"/>
<text text-anchor="middle" x="1399" y="-172" font-family="Helvetica,sans-Serif" font-size="10.00">src/RoadLane.h</text>
</a>
</g>
</g>
<!-- Node14&#45;&gt;Node18 -->
<g id="edge18" class="edge">
<title>Node14&#45;&gt;Node18</title>
<path fill="none" stroke="#63b8ff" d="M1100.54,-219.44C1172.23,-208.89 1289.01,-191.69 1353.18,-182.25"/>
<polygon fill="#63b8ff" stroke="#63b8ff" points="1100.32,-215.94 1090.93,-220.85 1101.34,-222.86 1100.32,-215.94"/>
</g>
<!-- Node18&#45;&gt;Node17 -->
<g id="edge20" class="edge">
<title>Node18&#45;&gt;Node17</title>
<path fill="none" stroke="#63b8ff" d="M1436.79,-160.98C1466.05,-151.29 1505.87,-138.1 1531.99,-129.45"/>
<polygon fill="#63b8ff" stroke="#63b8ff" points="1435.97,-157.57 1427.58,-164.03 1438.17,-164.21 1435.97,-157.57"/>
</g>
<!-- Node19 -->
<g id="node19" class="node">
<title>Node19</title>
<g id="a_node19"><a xlink:href="LevelGenerator_8cpp.html" target="_top" xlink:title=" ">
<polygon fill="white" stroke="#666666" points="1622,-74 1494,-74 1494,-55 1622,-55 1622,-74"/>
<text text-anchor="middle" x="1558" y="-62" font-family="Helvetica,sans-Serif" font-size="10.00">src/LevelGenerator.cpp</text>
</a>
</g>
</g>
<!-- Node18&#45;&gt;Node19 -->
<g id="edge19" class="edge">
<title>Node18&#45;&gt;Node19</title>
<path fill="none" stroke="#63b8ff" d="M1421.46,-158.24C1455.14,-135.37 1517.63,-92.92 1544.81,-74.46"/>
<polygon fill="#63b8ff" stroke="#63b8ff" points="1419.57,-155.3 1413.26,-163.81 1423.5,-161.09 1419.57,-155.3"/>
</g>
<!-- Node20 -->
<g id="node20" class="node">
<title>Node20</title>
<g id="a_node20"><a xlink:href="RoadLaneController_8h.html" target="_top" xlink:title=" ">
<polygon fill="white" stroke="#666666" points="1196,-129 1058,-129 1058,-110 1196,-110 1196,-129"/>
<text text-anchor="middle" x="1127" y="-117" font-family="Helvetica,sans-Serif" font-size="10.00">src/RoadLaneController.h</text>
</a>
</g>
</g>
<!-- Node18&#45;&gt;Node20 -->
<g id="edge21" class="edge">
<title>Node18&#45;&gt;Node20</title>
<path fill="none" stroke="#63b8ff" d="M1342.18,-162.43C1291.97,-152.65 1219.68,-138.56 1173.02,-129.47"/>
<polygon fill="#63b8ff" stroke="#63b8ff" points="1341.2,-165.8 1351.68,-164.28 1342.53,-158.93 1341.2,-165.8"/>
</g>
<!-- Node29 -->
<g id="node29" class="node">
<title>Node29</title>
<g id="a_node29"><a xlink:href="SceneBuilder_8h.html" target="_top" xlink:title=" ">
<polygon fill="white" stroke="#666666" points="1452,-129 1346,-129 1346,-110 1452,-110 1452,-129"/>
<text text-anchor="middle" x="1399" y="-117" font-family="Helvetica,sans-Serif" font-size="10.00">src/SceneBuilder.h</text>
</a>
</g>
</g>
<!-- Node18&#45;&gt;Node29 -->
<g id="edge36" class="edge">
<title>Node18&#45;&gt;Node29</title>
<path fill="none" stroke="#63b8ff" d="M1399,-153.35C1399,-145.1 1399,-135.97 1399,-129.44"/>
<polygon fill="#63b8ff" stroke="#63b8ff" points="1395.5,-153.23 1399,-163.23 1402.5,-153.23 1395.5,-153.23"/>
</g>
<!-- Node20&#45;&gt;Node16 -->
<g id="edge26" class="edge">
<title>Node20&#45;&gt;Node16</title>
<path fill="none" stroke="#63b8ff" d="M1046.38,-115.5C956.61,-110.93 818.19,-99.83 773,-74 750.51,-61.15 734.84,-33.45 727.94,-19.26"/>
<polygon fill="#63b8ff" stroke="#63b8ff" points="1045.95,-118.98 1056.11,-115.98 1046.29,-111.99 1045.95,-118.98"/>
</g>
<!-- Node21 -->
<g id="node21" class="node">
<title>Node21</title>
<g id="a_node21"><a xlink:href="AnimalLaneController_8h.html" target="_top" xlink:title=" ">
<polygon fill="white" stroke="#666666" points="930,-74 782,-74 782,-55 930,-55 930,-74"/>
<text text-anchor="middle" x="856" y="-62" font-family="Helvetica,sans-Serif" font-size="10.00">src/AnimalLaneController.h</text>
</a>
</g>
</g>
<!-- Node20&#45;&gt;Node21 -->
<g id="edge22" class="edge">
<title>Node20&#45;&gt;Node21</title>
<path fill="none" stroke="#63b8ff" d="M1069.75,-107.3C1019.72,-97.52 948.03,-83.5 901.74,-74.45"/>
<polygon fill="#63b8ff" stroke="#63b8ff" points="1069.06,-110.73 1079.54,-109.22 1070.4,-103.86 1069.06,-110.73"/>
</g>
<!-- Node24 -->
<g id="node24" class="node">
<title>Node24</title>
<g id="a_node24"><a xlink:href="RiverController_8h.html" target="_top" xlink:title=" ">
<polygon fill="white" stroke="#666666" points="1270,-74 1154,-74 1154,-55 1270,-55 1270,-74"/>
<text text-anchor="middle" x="1212" y="-62" font-family="Helvetica,sans-Serif" font-size="10.00">src/RiverController.h</text>
</a>
</g>
</g>
<!-- Node20&#45;&gt;Node24 -->
<g id="edge27" class="edge">
<title>Node20&#45;&gt;Node24</title>
<path fill="none" stroke="#63b8ff" d="M1151.12,-103.46C1166.19,-94.06 1185.09,-82.28 1197.79,-74.36"/>
<polygon fill="#63b8ff" stroke="#63b8ff" points="1149.34,-100.45 1142.7,-108.71 1153.04,-106.39 1149.34,-100.45"/>
</g>
<!-- Node26 -->
<g id="node26" class="node">
<title>Node26</title>
<g id="a_node26"><a xlink:href="RoadLaneController_8cpp.html" target="_top" xlink:title=" ">
<polygon fill="white" stroke="#666666" points="1135.5,-74 986.5,-74 986.5,-55 1135.5,-55 1135.5,-74"/>
<text text-anchor="middle" x="1061" y="-62" font-family="Helvetica,sans-Serif" font-size="10.00">src/RoadLaneController.cpp</text>
</a>
</g>
</g>
<!-- Node20&#45;&gt;Node26 -->
<g id="edge31" class="edge">
<title>Node20&#45;&gt;Node26</title>
<path fill="none" stroke="#63b8ff" d="M1106.91,-102.37C1095.45,-93.16 1081.52,-81.98 1072.03,-74.36"/>
<polygon fill="#63b8ff" stroke="#63b8ff" points="1104.64,-105.03 1114.62,-108.56 1109.02,-99.57 1104.64,-105.03"/>
</g>
<!-- Node27 -->
<g id="node27" class="node">
<title>Node27</title>
<g id="a_node27"><a xlink:href="VehicleLaneController_8h.html" target="_top" xlink:title=" ">
<polygon fill="white" stroke="#666666" points="1437.5,-74 1288.5,-74 1288.5,-55 1437.5,-55 1437.5,-74"/>
<text text-anchor="middle" x="1363" y="-62" font-family="Helvetica,sans-Serif" font-size="10.00">src/VehicleLaneController.h</text>
</a>
</g>
</g>
<!-- Node20&#45;&gt;Node27 -->
<g id="edge32" class="edge">
<title>Node20&#45;&gt;Node27</title>
<path fill="none" stroke="#63b8ff" d="M1178.24,-106.99C1221.74,-97.22 1283.28,-83.4 1323.16,-74.45"/>
<polygon fill="#63b8ff" stroke="#63b8ff" points="1177.5,-103.57 1168.51,-109.18 1179.03,-110.4 1177.5,-103.57"/>
</g>
<!-- Node21&#45;&gt;Node16 -->
<g id="edge24" class="edge">
<title>Node21&#45;&gt;Node16</title>
<path fill="none" stroke="#63b8ff" d="M823.18,-50.32C799.13,-40.67 767.12,-27.82 746.06,-19.36"/>
<polygon fill="#63b8ff" stroke="#63b8ff" points="821.62,-53.47 832.2,-53.95 824.23,-46.97 821.62,-53.47"/>
</g>
<!-- Node22 -->
<g id="node22" class="node">
<title>Node22</title>
<g id="a_node22"><a xlink:href="AnimalLaneController_8cpp.html" target="_top" xlink:title=" ">
<polygon fill="white" stroke="#666666" points="959.5,-19 800.5,-19 800.5,0 959.5,0 959.5,-19"/>
<text text-anchor="middle" x="880" y="-7" font-family="Helvetica,sans-Serif" font-size="10.00">src/AnimalLaneController.cpp</text>
</a>
</g>
</g>
<!-- Node21&#45;&gt;Node22 -->
<g id="edge23" class="edge">
<title>Node21&#45;&gt;Node22</title>
<path fill="none" stroke="#63b8ff" d="M864.6,-44.5C868.47,-35.96 872.85,-26.28 875.95,-19.44"/>
<polygon fill="#63b8ff" stroke="#63b8ff" points="861.52,-42.82 860.59,-53.37 867.9,-45.7 861.52,-42.82"/>
</g>
<!-- Node21&#45;&gt;Node23 -->
<g id="edge25" class="edge">
<title>Node21&#45;&gt;Node23</title>
<path fill="none" stroke="#63b8ff" d="M899.96,-51.49C935.59,-41.76 985.02,-28.25 1017.25,-19.45"/>
<polygon fill="#63b8ff" stroke="#63b8ff" points="899.09,-48.1 890.37,-54.11 900.94,-54.85 899.09,-48.1"/>
</g>
<!-- Node24&#45;&gt;Node16 -->
<g id="edge28" class="edge">
<title>Node24&#45;&gt;Node16</title>
<path fill="none" stroke="#63b8ff" d="M1142.57,-54.75C986.03,-37.03 944.59,-36.55 791,-19 788.2,-18.68 785.34,-18.35 782.46,-18"/>
<polygon fill="#63b8ff" stroke="#63b8ff" points="1141.71,-58.17 1152.04,-55.83 1142.5,-51.22 1141.71,-58.17"/>
</g>
<!-- Node24&#45;&gt;Node23 -->
<g id="edge30" class="edge">
<title>Node24&#45;&gt;Node23</title>
<path fill="none" stroke="#63b8ff" d="M1173.74,-50.98C1144.11,-41.29 1103.79,-28.1 1077.35,-19.45"/>
<polygon fill="#63b8ff" stroke="#63b8ff" points="1172.49,-54.26 1183.08,-54.04 1174.66,-47.6 1172.49,-54.26"/>
</g>
<!-- Node25 -->
<g id="node25" class="node">
<title>Node25</title>
<g id="a_node25"><a xlink:href="RiverController_8cpp.html" target="_top" xlink:title=" ">
<polygon fill="white" stroke="#666666" points="1269.5,-19 1142.5,-19 1142.5,0 1269.5,0 1269.5,-19"/>
<text text-anchor="middle" x="1206" y="-7" font-family="Helvetica,sans-Serif" font-size="10.00">src/RiverController.cpp</text>
</a>
</g>
</g>
<!-- Node24&#45;&gt;Node25 -->
<g id="edge29" class="edge">
<title>Node24&#45;&gt;Node25</title>
<path fill="none" stroke="#63b8ff" d="M1209.72,-43.35C1208.78,-35.1 1207.75,-25.97 1207.01,-19.44"/>
<polygon fill="#63b8ff" stroke="#63b8ff" points="1206.24,-43.7 1210.84,-53.24 1213.19,-42.91 1206.24,-43.7"/>
</g>
<!-- Node27&#45;&gt;Node16 -->
<g id="edge33" class="edge">
<title>Node27&#45;&gt;Node16</title>
<path fill="none" stroke="#63b8ff" d="M1276.92,-54.85C1060.42,-36.2 1003.7,-40.32 791,-19 788.2,-18.72 785.34,-18.42 782.44,-18.1"/>
<polygon fill="#63b8ff" stroke="#63b8ff" points="1276.58,-58.33 1286.85,-55.71 1277.19,-51.36 1276.58,-58.33"/>
</g>
<!-- Node27&#45;&gt;Node23 -->
<g id="edge34" class="edge">
<title>Node27&#45;&gt;Node23</title>
<path fill="none" stroke="#63b8ff" d="M1298.72,-52.61C1240.95,-42.83 1157.14,-28.64 1103.09,-19.49"/>
<polygon fill="#63b8ff" stroke="#63b8ff" points="1297.97,-56.04 1308.41,-54.26 1299.14,-49.14 1297.97,-56.04"/>
</g>
<!-- Node28 -->
<g id="node28" class="node">
<title>Node28</title>
<g id="a_node28"><a xlink:href="VehicleLaneController_8cpp.html" target="_top" xlink:title=" ">
<polygon fill="white" stroke="#666666" points="1448,-19 1288,-19 1288,0 1448,0 1448,-19"/>
<text text-anchor="middle" x="1368" y="-7" font-family="Helvetica,sans-Serif" font-size="10.00">src/VehicleLaneController.cpp</text>
</a>
</g>
</g>
<!-- Node27&#45;&gt;Node28 -->
<g id="edge35" class="edge">
<title>Node27&#45;&gt;Node28</title>
<path fill="none" stroke="#63b8ff" d="M1364.9,-43.35C1365.68,-35.1 1366.54,-25.97 1367.16,-19.44"/>
<polygon fill="#63b8ff" stroke="#63b8ff" points="1361.42,-42.96 1363.97,-53.24 1368.39,-43.61 1361.42,-42.96"/>
</g>
<!-- Node29&#45;&gt;Node19 -->
<g id="edge37" class="edge">
<title>Node29&#45;&gt;Node19</title>
<path fill="none" stroke="#63b8ff" d="M1436.55,-105.98C1465.63,-96.29 1505.2,-83.1 1531.16,-74.45"/>
<polygon fill="#63b8ff" stroke="#63b8ff" points="1435.79,-102.55 1427.41,-109.03 1438,-109.19 1435.79,-102.55"/>
</g>
<!-- Node29&#45;&gt;Node23 -->
<g id="edge38" class="edge">
<title>Node29&#45;&gt;Node23</title>
<path fill="none" stroke="#63b8ff" d="M1423.41,-103.22C1441.56,-90 1460.96,-70.62 1447,-55 1444.2,-51.87 1218.82,-28.05 1108.94,-16.6"/>
<polygon fill="#63b8ff" stroke="#63b8ff" points="1421.74,-100.12 1415.47,-108.66 1425.7,-105.9 1421.74,-100.12"/>
</g>
<!-- Node31&#45;&gt;Node16 -->
<g id="edge43" class="edge">
<title>Node31&#45;&gt;Node16</title>
<path fill="none" stroke="#63b8ff" d="M639.76,-49.67C660.36,-40.09 687.17,-27.62 704.95,-19.36"/>
<polygon fill="#63b8ff" stroke="#63b8ff" points="638.3,-46.48 630.71,-53.87 641.25,-52.83 638.3,-46.48"/>
</g>
<!-- Node31&#45;&gt;Node23 -->
<g id="edge45" class="edge">
<title>Node31&#45;&gt;Node23</title>
<path fill="none" stroke="#63b8ff" d="M661.53,-57.29C743.8,-47.38 904.36,-28.04 991.07,-17.6"/>
<polygon fill="#63b8ff" stroke="#63b8ff" points="661.23,-53.8 651.72,-58.48 662.06,-60.75 661.23,-53.8"/>
</g>
<!-- Node32 -->
<g id="node32" class="node">
<title>Node32</title>
<g id="a_node32"><a xlink:href="Pickups_8cpp.html" target="_top" xlink:title=" ">
<polygon fill="white" stroke="#666666" points="647.5,-19 556.5,-19 556.5,0 647.5,0 647.5,-19"/>
<text text-anchor="middle" x="602" y="-7" font-family="Helvetica,sans-Serif" font-size="10.00">src/Pickups.cpp</text>
</a>
</g>
</g>
<!-- Node31&#45;&gt;Node32 -->
<g id="edge44" class="edge">
<title>Node31&#45;&gt;Node32</title>
<path fill="none" stroke="#63b8ff" d="M607,-43.64C605.75,-35.31 604.35,-26.05 603.35,-19.44"/>
<polygon fill="#63b8ff" stroke="#63b8ff" points="603.5,-43.89 608.45,-53.25 610.42,-42.84 603.5,-43.89"/>
</g>
<!-- Node35&#45;&gt;Node9 -->
<g id="edge52" class="edge">
<title>Node35&#45;&gt;Node9</title>
<path fill="none" stroke="#63b8ff" d="M815.99,-323.46C830.35,-314.06 848.35,-302.28 860.46,-294.36"/>
<polygon fill="#63b8ff" stroke="#63b8ff" points="814.46,-320.28 808.01,-328.68 818.29,-326.13 814.46,-320.28"/>
</g>
<!-- Node35&#45;&gt;Node11 -->
<g id="edge49" class="edge">
<title>Node35&#45;&gt;Node11</title>
<path fill="none" stroke="#63b8ff" d="M731.9,-329.9C670.85,-321.21 574.35,-307.22 491,-294 488.04,-293.53 484.99,-293.04 481.92,-292.53"/>
<polygon fill="#63b8ff" stroke="#63b8ff" points="731.36,-333.36 741.75,-331.3 732.34,-326.43 731.36,-333.36"/>
</g>
<!-- Node35&#45;&gt;Node13 -->
<g id="edge51" class="edge">
<title>Node35&#45;&gt;Node13</title>
<path fill="none" stroke="#63b8ff" d="M774.42,-322.09C764.06,-312.94 751.57,-301.9 743.03,-294.36"/>
<polygon fill="#63b8ff" stroke="#63b8ff" points="771.88,-324.51 781.69,-328.51 776.51,-319.26 771.88,-324.51"/>
</g>
<!-- Node35&#45;&gt;Node14 -->
<g id="edge50" class="edge">
<title>Node35&#45;&gt;Node14</title>
<path fill="none" stroke="#63b8ff" d="M797.42,-318.4C801.61,-304.15 809.36,-285.72 823,-275 835.94,-264.82 929,-248.23 988.67,-238.44"/>
<polygon fill="#63b8ff" stroke="#63b8ff" points="794.03,-317.53 794.97,-328.08 800.82,-319.25 794.03,-317.53"/>
</g>
<!-- Node35&#45;&gt;Node34 -->
<g id="edge53" class="edge">
<title>Node35&#45;&gt;Node34</title>
<path fill="none" stroke="#63b8ff" d="M836.94,-326.62C872.98,-316.87 923.21,-303.29 955.92,-294.45"/>
<polygon fill="#63b8ff" stroke="#63b8ff" points="836.45,-323.13 827.71,-329.11 838.28,-329.88 836.45,-323.13"/>
</g>
<!-- Node36&#45;&gt;Node2 -->
<g id="edge57" class="edge">
<title>Node36&#45;&gt;Node2</title>
<path fill="none" stroke="#63b8ff" d="M325.13,-331.27C300.59,-325.2 271.81,-314.12 253,-294 238.54,-278.53 235.05,-252.5 234.23,-239.07"/>
<polygon fill="#63b8ff" stroke="#63b8ff" points="324.05,-334.62 334.58,-333.39 325.59,-327.79 324.05,-334.62"/>
</g>
<!-- Node36&#45;&gt;Node11 -->
<g id="edge55" class="edge">
<title>Node36&#45;&gt;Node11</title>
<path fill="none" stroke="#63b8ff" d="M392.65,-322.64C404.7,-313.39 419.45,-302.05 429.47,-294.36"/>
<polygon fill="#63b8ff" stroke="#63b8ff" points="390.7,-319.72 384.91,-328.59 394.97,-325.27 390.7,-319.72"/>
</g>
<!-- Node36&#45;&gt;Node16 -->
<g id="edge56" class="edge">
<title>Node36&#45;&gt;Node16</title>
<path fill="none" stroke="#63b8ff" d="M372,-318.23C372,-296.52 372,-261.08 372,-230.5 372,-230.5 372,-230.5 372,-118.5 372,-86.7 584.7,-39.08 679.42,-19.45"/>
<polygon fill="#63b8ff" stroke="#63b8ff" points="368.5,-318.03 372,-328.03 375.5,-318.03 368.5,-318.03"/>
</g>
<!-- Node37 -->
<g id="node37" class="node">
<title>Node37</title>
<g id="a_node37"><a xlink:href="World_8cpp.html" target="_top" xlink:title=" ">
<polygon fill="white" stroke="#666666" points="344,-294 262,-294 262,-275 344,-275 344,-294"/>
<text text-anchor="middle" x="303" y="-282" font-family="Helvetica,sans-Serif" font-size="10.00">src/World.cpp</text>
</a>
</g>
</g>
<!-- Node36&#45;&gt;Node37 -->
<g id="edge58" class="edge">
<title>Node36&#45;&gt;Node37</title>
<path fill="none" stroke="#63b8ff" d="M351.35,-322.64C339.3,-313.39 324.55,-302.05 314.53,-294.36"/>
<polygon fill="#63b8ff" stroke="#63b8ff" points="349.03,-325.27 359.09,-328.59 353.3,-319.72 349.03,-325.27"/>
</g>
</g>
</svg>
