<?xml version="1.0" encoding="UTF-8" standalone="no"?>
<!DOCTYPE svg PUBLIC "-//W3C//DTD SVG 1.1//EN"
 "http://www.w3.org/Graphics/SVG/1.1/DTD/svg11.dtd">
<!-- Generated by graphviz version 7.0.5 (0)
 -->
<!-- Title: src/PlayerState.h Pages: 1 -->
<!--zoomable 357 -->
<svg id="main" version="1.1" xmlns="http://www.w3.org/2000/svg" xmlns:xlink="http://www.w3.org/1999/xlink" xml:space="preserve" onload="init(evt)">
<style type="text/css"><![CDATA[
.edge:hover path { stroke: red; }
.edge:hover polygon { stroke: red; fill: red; }
]]></style>
<script type="text/javascript"><![CDATA[
var edges = document.getElementsByTagName('g');
if (edges && edges.length) {
  for (var i=0;i<edges.length;i++) {
    if (edges[i].id.substr(0,4)=='edge') {
      edges[i].setAttribute('class','edge');
    }
  }
}
]]></script>
        <defs>
                <circle id="rim" cx="0" cy="0" r="7"/>
                <circle id="rim2" cx="0" cy="0" r="3.5"/>
                <g id="zoomPlus">
                        <use xlink:href="#rim" fill="#404040">
                                <set attributeName="fill" to="#808080" begin="zoomplus.mouseover" end="zoomplus.mouseout"/>
                        </use>
                        <path d="M-4,0h8M0,-4v8" fill="none" stroke="white" stroke-width="1.5" pointer-events="none"/>
                </g>
                <g id="zoomMin">
                        <use xlink:href="#rim" fill="#404040">
                                <set attributeName="fill" to="#808080" begin="zoomminus.mouseover" end="zoomminus.mouseout"/>
                        </use>
                        <path d="M-4,0h8" fill="none" stroke="white" stroke-width="1.5" pointer-events="none"/>
                </g>
                <g id="dirArrow">
                        <path fill="none" stroke="white" stroke-width="1.5" d="M0,-3.0v7 M-2.5,-0.5L0,-3.0L2.5,-0.5"/>
                </g>
               <g id="resetDef">
                       <use xlink:href="#rim2" fill="#404040">
                               <set attributeName="fill" to="#808080" begin="reset.mouseover" end="reset.mouseout"/>
                       </use>
               </g>
        </defs>

<script type="text/javascript">
var viewWidth = 1418;
var viewHeight = 357;
var sectionId = 'dynsection-1';
</script>
<script xlink:href="svgpan.js"/>
<svg id="graph" class="graph">
<g id="viewport">
<title>src/PlayerState.h</title>
<!-- Node1 -->
<g id="node1" class="node">
<title>Node1</title>
<g id="a_node1"><a xlink:title=" ">
<polygon fill="#999999" stroke="#666666" points="1066.5,-349 967.5,-349 967.5,-330 1066.5,-330 1066.5,-349"/>
<text text-anchor="middle" x="1017" y="-337" font-family="Helvetica,sans-Serif" font-size="10.00">src/PlayerState.h</text>
</a>
</g>
</g>
<!-- Node2 -->
<g id="node2" class="node">
<title>Node2</title>
<g id="a_node2"><a xlink:href="Camera_8h.html" target="_top" xlink:title=" ">
<polygon fill="white" stroke="#666666" points="296.5,-294 215.5,-294 215.5,-275 296.5,-275 296.5,-294"/>
<text text-anchor="middle" x="256" y="-282" font-family="Helvetica,sans-Serif" font-size="10.00">src/Camera.h</text>
</a>
</g>
</g>
<!-- Node1&#45;&gt;Node2 -->
<g id="edge1" class="edge">
<title>Node1&#45;&gt;Node2</title>
<path fill="none" stroke="#63b8ff" d="M955.82,-334.24C805.72,-323.79 422.34,-297.08 296.61,-288.33"/>
<polygon fill="#63b8ff" stroke="#63b8ff" points="955.34,-337.71 965.56,-334.92 955.83,-330.73 955.34,-337.71"/>
</g>
<!-- Node11 -->
<g id="node11" class="node">
<title>Node11</title>
<g id="a_node11"><a xlink:href="Commuters_8h.html" target="_top" xlink:title=" ">
<polygon fill="white" stroke="#666666" points="1032,-239 932,-239 932,-220 1032,-220 1032,-239"/>
<text text-anchor="middle" x="982" y="-227" font-family="Helvetica,sans-Serif" font-size="10.00">src/Commuters.h</text>
</a>
</g>
</g>
<!-- Node1&#45;&gt;Node11 -->
<g id="edge10" class="edge">
<title>Node1&#45;&gt;Node11</title>
<path fill="none" stroke="#63b8ff" d="M991.06,-323.3C980.96,-315.87 970.5,-305.94 965,-294 956.5,-275.55 968.04,-252.06 975.86,-239.45"/>
<polygon fill="#63b8ff" stroke="#63b8ff" points="988.96,-326.11 999.21,-328.79 992.88,-320.3 988.96,-326.11"/>
</g>
<!-- Node27 -->
<g id="node27" class="node">
<title>Node27</title>
<g id="a_node27"><a xlink:href="Obstacle_8h.html" target="_top" xlink:title=" ">
<polygon fill="white" stroke="#666666" points="1060,-294 974,-294 974,-275 1060,-275 1060,-294"/>
<text text-anchor="middle" x="1017" y="-282" font-family="Helvetica,sans-Serif" font-size="10.00">src/Obstacle.h</text>
</a>
</g>
</g>
<!-- Node1&#45;&gt;Node27 -->
<g id="edge35" class="edge">
<title>Node1&#45;&gt;Node27</title>
<path fill="none" stroke="#63b8ff" d="M1017,-318.35C1017,-310.1 1017,-300.97 1017,-294.44"/>
<polygon fill="#63b8ff" stroke="#63b8ff" points="1013.5,-318.23 1017,-328.23 1020.5,-318.23 1013.5,-318.23"/>
</g>
<!-- Node29 -->
<g id="node29" class="node">
<title>Node29</title>
<g id="a_node29"><a xlink:href="Player_8cpp.html" target="_top" xlink:title=" ">
<polygon fill="white" stroke="#666666" points="1162,-294 1078,-294 1078,-275 1162,-275 1162,-294"/>
<text text-anchor="middle" x="1120" y="-282" font-family="Helvetica,sans-Serif" font-size="10.00">src/Player.cpp</text>
</a>
</g>
</g>
<!-- Node1&#45;&gt;Node29 -->
<g id="edge40" class="edge">
<title>Node1&#45;&gt;Node29</title>
<path fill="none" stroke="#63b8ff" d="M1044.66,-324.27C1063.17,-314.74 1086.94,-302.51 1102.79,-294.36"/>
<polygon fill="#63b8ff" stroke="#63b8ff" points="1043.11,-321.13 1035.82,-328.82 1046.31,-327.35 1043.11,-321.13"/>
</g>
<!-- Node30 -->
<g id="node30" class="node">
<title>Node30</title>
<g id="a_node30"><a xlink:href="PlayerState_8cpp.html" target="_top" xlink:title=" ">
<polygon fill="white" stroke="#666666" points="1290,-294 1180,-294 1180,-275 1290,-275 1290,-294"/>
<text text-anchor="middle" x="1235" y="-282" font-family="Helvetica,sans-Serif" font-size="10.00">src/PlayerState.cpp</text>
</a>
</g>
</g>
<!-- Node1&#45;&gt;Node30 -->
<g id="edge41" class="edge">
<title>Node1&#45;&gt;Node30</title>
<path fill="none" stroke="#63b8ff" d="M1065.1,-326.81C1105.23,-317.05 1161.59,-303.35 1198.2,-294.45"/>
<polygon fill="#63b8ff" stroke="#63b8ff" points="1064.34,-323.39 1055.45,-329.15 1066,-330.19 1064.34,-323.39"/>
</g>
<!-- Node3 -->
<g id="node3" class="node">
<title>Node3</title>
<g id="a_node3"><a xlink:href="Camera_8cpp.html" target="_top" xlink:title=" ">
<polygon fill="white" stroke="#666666" points="189,-239 97,-239 97,-220 189,-220 189,-239"/>
<text text-anchor="middle" x="143" y="-227" font-family="Helvetica,sans-Serif" font-size="10.00">src/Camera.cpp</text>
</a>
</g>
</g>
<!-- Node2&#45;&gt;Node3 -->
<g id="edge2" class="edge">
<title>Node2&#45;&gt;Node3</title>
<path fill="none" stroke="#63b8ff" d="M226.51,-269.67C206.08,-260.09 179.51,-247.62 161.89,-239.36"/>
<polygon fill="#63b8ff" stroke="#63b8ff" points="224.92,-272.79 235.46,-273.87 227.89,-266.45 224.92,-272.79"/>
</g>
<!-- Node4 -->
<g id="node4" class="node">
<title>Node4</title>
<g id="a_node4"><a xlink:href="GameState_8h.html" target="_top" xlink:title=" ">
<polygon fill="white" stroke="#666666" points="305,-239 207,-239 207,-220 305,-220 305,-239"/>
<text text-anchor="middle" x="256" y="-227" font-family="Helvetica,sans-Serif" font-size="10.00">src/GameState.h</text>
</a>
</g>
</g>
<!-- Node2&#45;&gt;Node4 -->
<g id="edge3" class="edge">
<title>Node2&#45;&gt;Node4</title>
<path fill="none" stroke="#63b8ff" d="M256,-263.35C256,-255.1 256,-245.97 256,-239.44"/>
<polygon fill="#63b8ff" stroke="#63b8ff" points="252.5,-263.23 256,-273.23 259.5,-263.23 252.5,-263.23"/>
</g>
<!-- Node5 -->
<g id="node5" class="node">
<title>Node5</title>
<g id="a_node5"><a xlink:href="GameState_8cpp.html" target="_top" xlink:title=" ">
<polygon fill="white" stroke="#666666" points="178.5,-184 69.5,-184 69.5,-165 178.5,-165 178.5,-184"/>
<text text-anchor="middle" x="124" y="-172" font-family="Helvetica,sans-Serif" font-size="10.00">src/GameState.cpp</text>
</a>
</g>
</g>
<!-- Node4&#45;&gt;Node5 -->
<g id="edge4" class="edge">
<title>Node4&#45;&gt;Node5</title>
<path fill="none" stroke="#63b8ff" d="M223.18,-215.32C199.13,-205.67 167.12,-192.82 146.06,-184.36"/>
<polygon fill="#63b8ff" stroke="#63b8ff" points="221.62,-218.47 232.2,-218.95 224.23,-211.97 221.62,-218.47"/>
</g>
<!-- Node6 -->
<g id="node6" class="node">
<title>Node6</title>
<g id="a_node6"><a xlink:href="MainMenuState_8h.html" target="_top" xlink:title=" ">
<polygon fill="white" stroke="#666666" points="315.5,-184 196.5,-184 196.5,-165 315.5,-165 315.5,-184"/>
<text text-anchor="middle" x="256" y="-172" font-family="Helvetica,sans-Serif" font-size="10.00">src/MainMenuState.h</text>
</a>
</g>
</g>
<!-- Node4&#45;&gt;Node6 -->
<g id="edge5" class="edge">
<title>Node4&#45;&gt;Node6</title>
<path fill="none" stroke="#63b8ff" d="M256,-208.35C256,-200.1 256,-190.97 256,-184.44"/>
<polygon fill="#63b8ff" stroke="#63b8ff" points="252.5,-208.23 256,-218.23 259.5,-208.23 252.5,-208.23"/>
</g>
<!-- Node7 -->
<g id="node7" class="node">
<title>Node7</title>
<g id="a_node7"><a xlink:href="Game_8h.html" target="_top" xlink:title=" ">
<polygon fill="white" stroke="#666666" points="172,-129 100,-129 100,-110 172,-110 172,-129"/>
<text text-anchor="middle" x="136" y="-117" font-family="Helvetica,sans-Serif" font-size="10.00">src/Game.h</text>
</a>
</g>
</g>
<!-- Node6&#45;&gt;Node7 -->
<g id="edge6" class="edge">
<title>Node6&#45;&gt;Node7</title>
<path fill="none" stroke="#63b8ff" d="M225.28,-159.93C203.51,-150.32 174.95,-137.7 156.06,-129.36"/>
<polygon fill="#63b8ff" stroke="#63b8ff" points="223.7,-163.06 234.26,-163.9 226.53,-156.66 223.7,-163.06"/>
</g>
<!-- Node10 -->
<g id="node10" class="node">
<title>Node10</title>
<g id="a_node10"><a xlink:href="MainMenuState_8cpp.html" target="_top" xlink:title=" ">
<polygon fill="white" stroke="#666666" points="321.5,-129 190.5,-129 190.5,-110 321.5,-110 321.5,-129"/>
<text text-anchor="middle" x="256" y="-117" font-family="Helvetica,sans-Serif" font-size="10.00">src/MainMenuState.cpp</text>
</a>
</g>
</g>
<!-- Node6&#45;&gt;Node10 -->
<g id="edge9" class="edge">
<title>Node6&#45;&gt;Node10</title>
<path fill="none" stroke="#63b8ff" d="M256,-153.35C256,-145.1 256,-135.97 256,-129.44"/>
<polygon fill="#63b8ff" stroke="#63b8ff" points="252.5,-153.23 256,-163.23 259.5,-153.23 252.5,-153.23"/>
</g>
<!-- Node8 -->
<g id="node8" class="node">
<title>Node8</title>
<g id="a_node8"><a xlink:href="FinalProjectCS202_8cpp.html" target="_top" xlink:title=" ">
<polygon fill="white" stroke="#666666" points="142,-74 0,-74 0,-55 142,-55 142,-74"/>
<text text-anchor="middle" x="71" y="-62" font-family="Helvetica,sans-Serif" font-size="10.00">src/FinalProjectCS202.cpp</text>
</a>
</g>
</g>
<!-- Node7&#45;&gt;Node8 -->
<g id="edge7" class="edge">
<title>Node7&#45;&gt;Node8</title>
<path fill="none" stroke="#63b8ff" d="M116.21,-102.37C104.92,-93.16 91.21,-81.98 81.86,-74.36"/>
<polygon fill="#63b8ff" stroke="#63b8ff" points="113.84,-104.95 123.8,-108.55 118.26,-99.52 113.84,-104.95"/>
</g>
<!-- Node9 -->
<g id="node9" class="node">
<title>Node9</title>
<g id="a_node9"><a xlink:href="Game_8cpp.html" target="_top" xlink:title=" ">
<polygon fill="white" stroke="#666666" points="243.5,-74 160.5,-74 160.5,-55 243.5,-55 243.5,-74"/>
<text text-anchor="middle" x="202" y="-62" font-family="Helvetica,sans-Serif" font-size="10.00">src/Game.cpp</text>
</a>
</g>
</g>
<!-- Node7&#45;&gt;Node9 -->
<g id="edge8" class="edge">
<title>Node7&#45;&gt;Node9</title>
<path fill="none" stroke="#63b8ff" d="M156.09,-102.37C167.55,-93.16 181.48,-81.98 190.97,-74.36"/>
<polygon fill="#63b8ff" stroke="#63b8ff" points="153.98,-99.57 148.38,-108.56 158.36,-105.03 153.98,-99.57"/>
</g>
<!-- Node12 -->
<g id="node12" class="node">
<title>Node12</title>
<g id="a_node12"><a xlink:href="Commuters_8cpp.html" target="_top" xlink:title=" ">
<polygon fill="white" stroke="#666666" points="978.5,-184 867.5,-184 867.5,-165 978.5,-165 978.5,-184"/>
<text text-anchor="middle" x="923" y="-172" font-family="Helvetica,sans-Serif" font-size="10.00">src/Commuters.cpp</text>
</a>
</g>
</g>
<!-- Node11&#45;&gt;Node12 -->
<g id="edge11" class="edge">
<title>Node11&#45;&gt;Node12</title>
<path fill="none" stroke="#63b8ff" d="M963.73,-212.09C953.54,-202.94 941.26,-191.9 932.86,-184.36"/>
<polygon fill="#63b8ff" stroke="#63b8ff" points="961.09,-214.42 970.87,-218.5 965.77,-209.21 961.09,-214.42"/>
</g>
<!-- Node13 -->
<g id="node13" class="node">
<title>Node13</title>
<g id="a_node13"><a xlink:href="GameLoader_8cpp.html" target="_top" xlink:title=" ">
<polygon fill="white" stroke="#666666" points="484,-19 368,-19 368,0 484,0 484,-19"/>
<text text-anchor="middle" x="426" y="-7" font-family="Helvetica,sans-Serif" font-size="10.00">src/GameLoader.cpp</text>
</a>
</g>
</g>
<!-- Node11&#45;&gt;Node13 -->
<g id="edge12" class="edge">
<title>Node11&#45;&gt;Node13</title>
<path fill="none" stroke="#63b8ff" d="M920.19,-220.33C789.2,-201.65 490.66,-151.38 429,-74 416.48,-58.29 420.25,-32.82 423.47,-19.41"/>
<polygon fill="#63b8ff" stroke="#63b8ff" points="919.69,-223.8 930.08,-221.72 920.66,-216.86 919.69,-223.8"/>
</g>
<!-- Node14 -->
<g id="node14" class="node">
<title>Node14</title>
<g id="a_node14"><a xlink:href="RoadLane_8cpp.html" target="_top" xlink:title=" ">
<polygon fill="white" stroke="#666666" points="1256,-129 1154,-129 1154,-110 1256,-110 1256,-129"/>
<text text-anchor="middle" x="1205" y="-117" font-family="Helvetica,sans-Serif" font-size="10.00">src/RoadLane.cpp</text>
</a>
</g>
</g>
<!-- Node11&#45;&gt;Node14 -->
<g id="edge13" class="edge">
<title>Node11&#45;&gt;Node14</title>
<path fill="none" stroke="#63b8ff" d="M1019.17,-215.85C1042.01,-207.66 1071.66,-196.25 1097,-184 1132.25,-166.96 1171.32,-142.49 1191.42,-129.46"/>
<polygon fill="#63b8ff" stroke="#63b8ff" points="1018.24,-212.47 1009.97,-219.11 1020.57,-219.07 1018.24,-212.47"/>
</g>
<!-- Node15 -->
<g id="node15" class="node">
<title>Node15</title>
<g id="a_node15"><a xlink:href="RoadLane_8h.html" target="_top" xlink:title=" ">
<polygon fill="white" stroke="#666666" points="1087.5,-184 996.5,-184 996.5,-165 1087.5,-165 1087.5,-184"/>
<text text-anchor="middle" x="1042" y="-172" font-family="Helvetica,sans-Serif" font-size="10.00">src/RoadLane.h</text>
</a>
</g>
</g>
<!-- Node11&#45;&gt;Node15 -->
<g id="edge14" class="edge">
<title>Node11&#45;&gt;Node15</title>
<path fill="none" stroke="#63b8ff" d="M1000.58,-212.09C1010.94,-202.94 1023.43,-191.9 1031.97,-184.36"/>
<polygon fill="#63b8ff" stroke="#63b8ff" points="998.49,-209.26 993.31,-218.51 1003.12,-214.51 998.49,-209.26"/>
</g>
<!-- Node15&#45;&gt;Node14 -->
<g id="edge16" class="edge">
<title>Node15&#45;&gt;Node14</title>
<path fill="none" stroke="#63b8ff" d="M1080.5,-160.98C1110.31,-151.29 1150.88,-138.1 1177.49,-129.45"/>
<polygon fill="#63b8ff" stroke="#63b8ff" points="1079.52,-157.62 1071.09,-164.04 1081.68,-164.28 1079.52,-157.62"/>
</g>
<!-- Node16 -->
<g id="node16" class="node">
<title>Node16</title>
<g id="a_node16"><a xlink:href="LevelGenerator_8cpp.html" target="_top" xlink:title=" ">
<polygon fill="white" stroke="#666666" points="1218,-74 1090,-74 1090,-55 1218,-55 1218,-74"/>
<text text-anchor="middle" x="1154" y="-62" font-family="Helvetica,sans-Serif" font-size="10.00">src/LevelGenerator.cpp</text>
</a>
</g>
</g>
<!-- Node15&#45;&gt;Node16 -->
<g id="edge15" class="edge">
<title>Node15&#45;&gt;Node16</title>
<path fill="none" stroke="#63b8ff" d="M1027.75,-155.31C1019.04,-141.82 1011.27,-123.52 1021,-110 1031.67,-95.18 1075.5,-82.45 1109.96,-74.45"/>
<polygon fill="#63b8ff" stroke="#63b8ff" points="1024.78,-157.18 1033.44,-163.29 1030.48,-153.11 1024.78,-157.18"/>
</g>
<!-- Node17 -->
<g id="node17" class="node">
<title>Node17</title>
<g id="a_node17"><a xlink:href="RoadLaneController_8h.html" target="_top" xlink:title=" ">
<polygon fill="white" stroke="#666666" points="839,-129 701,-129 701,-110 839,-110 839,-129"/>
<text text-anchor="middle" x="770" y="-117" font-family="Helvetica,sans-Serif" font-size="10.00">src/RoadLaneController.h</text>
</a>
</g>
</g>
<!-- Node15&#45;&gt;Node17 -->
<g id="edge17" class="edge">
<title>Node15&#45;&gt;Node17</title>
<path fill="none" stroke="#63b8ff" d="M985.18,-162.43C934.97,-152.65 862.68,-138.56 816.02,-129.47"/>
<polygon fill="#63b8ff" stroke="#63b8ff" points="984.2,-165.8 994.68,-164.28 985.53,-158.93 984.2,-165.8"/>
</g>
<!-- Node26 -->
<g id="node26" class="node">
<title>Node26</title>
<g id="a_node26"><a xlink:href="SceneBuilder_8h.html" target="_top" xlink:title=" ">
<polygon fill="white" stroke="#666666" points="1136,-129 1030,-129 1030,-110 1136,-110 1136,-129"/>
<text text-anchor="middle" x="1083" y="-117" font-family="Helvetica,sans-Serif" font-size="10.00">src/SceneBuilder.h</text>
</a>
</g>
</g>
<!-- Node15&#45;&gt;Node26 -->
<g id="edge32" class="edge">
<title>Node15&#45;&gt;Node26</title>
<path fill="none" stroke="#63b8ff" d="M1055.81,-155.65C1062.63,-146.84 1070.55,-136.59 1076.08,-129.44"/>
<polygon fill="#63b8ff" stroke="#63b8ff" points="1053.05,-153.5 1049.7,-163.55 1058.58,-157.78 1053.05,-153.5"/>
</g>
<!-- Node17&#45;&gt;Node13 -->
<g id="edge22" class="edge">
<title>Node17&#45;&gt;Node13</title>
<path fill="none" stroke="#63b8ff" d="M689.4,-117.21C605.26,-114.2 480.67,-104.54 445,-74 428.92,-60.23 426.14,-33.45 425.85,-19.48"/>
<polygon fill="#63b8ff" stroke="#63b8ff" points="689.11,-120.7 699.22,-117.53 689.34,-113.7 689.11,-120.7"/>
</g>
<!-- Node18 -->
<g id="node18" class="node">
<title>Node18</title>
<g id="a_node18"><a xlink:href="AnimalLaneController_8h.html" target="_top" xlink:title=" ">
<polygon fill="white" stroke="#666666" points="602,-74 454,-74 454,-55 602,-55 602,-74"/>
<text text-anchor="middle" x="528" y="-62" font-family="Helvetica,sans-Serif" font-size="10.00">src/AnimalLaneController.h</text>
</a>
</g>
</g>
<!-- Node17&#45;&gt;Node18 -->
<g id="edge18" class="edge">
<title>Node17&#45;&gt;Node18</title>
<path fill="none" stroke="#63b8ff" d="M717.75,-107.06C673.13,-97.28 609.84,-83.42 568.85,-74.45"/>
<polygon fill="#63b8ff" stroke="#63b8ff" points="716.95,-110.46 727.47,-109.19 718.45,-103.63 716.95,-110.46"/>
</g>
<!-- Node21 -->
<g id="node21" class="node">
<title>Node21</title>
<g id="a_node21"><a xlink:href="RiverController_8h.html" target="_top" xlink:title=" ">
<polygon fill="white" stroke="#666666" points="904,-74 788,-74 788,-55 904,-55 904,-74"/>
<text text-anchor="middle" x="846" y="-62" font-family="Helvetica,sans-Serif" font-size="10.00">src/RiverController.h</text>
</a>
</g>
</g>
<!-- Node17&#45;&gt;Node21 -->
<g id="edge23" class="edge">
<title>Node17&#45;&gt;Node21</title>
<path fill="none" stroke="#63b8ff" d="M791.96,-103.19C805.37,-93.84 822.04,-82.21 833.3,-74.36"/>
<polygon fill="#63b8ff" stroke="#63b8ff" points="790.33,-100.05 784.13,-108.64 794.34,-105.79 790.33,-100.05"/>
</g>
<!-- Node23 -->
<g id="node23" class="node">
<title>Node23</title>
<g id="a_node23"><a xlink:href="RoadLaneController_8cpp.html" target="_top" xlink:title=" ">
<polygon fill="white" stroke="#666666" points="769.5,-74 620.5,-74 620.5,-55 769.5,-55 769.5,-74"/>
<text text-anchor="middle" x="695" y="-62" font-family="Helvetica,sans-Serif" font-size="10.00">src/RoadLaneController.cpp</text>
</a>
</g>
</g>
<!-- Node17&#45;&gt;Node23 -->
<g id="edge27" class="edge">
<title>Node17&#45;&gt;Node23</title>
<path fill="none" stroke="#63b8ff" d="M747.95,-102.92C734.78,-93.61 718.53,-82.13 707.53,-74.36"/>
<polygon fill="#63b8ff" stroke="#63b8ff" points="745.85,-105.72 756.04,-108.64 749.89,-100.01 745.85,-105.72"/>
</g>
<!-- Node24 -->
<g id="node24" class="node">
<title>Node24</title>
<g id="a_node24"><a xlink:href="VehicleLaneController_8h.html" target="_top" xlink:title=" ">
<polygon fill="white" stroke="#666666" points="1071.5,-74 922.5,-74 922.5,-55 1071.5,-55 1071.5,-74"/>
<text text-anchor="middle" x="997" y="-62" font-family="Helvetica,sans-Serif" font-size="10.00">src/VehicleLaneController.h</text>
</a>
</g>
</g>
<!-- Node17&#45;&gt;Node24 -->
<g id="edge28" class="edge">
<title>Node17&#45;&gt;Node24</title>
<path fill="none" stroke="#63b8ff" d="M819.55,-106.93C861.37,-97.17 920.4,-83.38 958.68,-74.45"/>
<polygon fill="#63b8ff" stroke="#63b8ff" points="818.92,-103.48 809.98,-109.17 820.52,-110.3 818.92,-103.48"/>
</g>
<!-- Node18&#45;&gt;Node13 -->
<g id="edge20" class="edge">
<title>Node18&#45;&gt;Node13</title>
<path fill="none" stroke="#63b8ff" d="M500.61,-49.27C482.28,-39.74 458.74,-27.51 443.05,-19.36"/>
<polygon fill="#63b8ff" stroke="#63b8ff" points="498.87,-52.31 509.35,-53.81 502.09,-46.09 498.87,-52.31"/>
</g>
<!-- Node19 -->
<g id="node19" class="node">
<title>Node19</title>
<g id="a_node19"><a xlink:href="AnimalLaneController_8cpp.html" target="_top" xlink:title=" ">
<polygon fill="white" stroke="#666666" points="661.5,-19 502.5,-19 502.5,0 661.5,0 661.5,-19"/>
<text text-anchor="middle" x="582" y="-7" font-family="Helvetica,sans-Serif" font-size="10.00">src/AnimalLaneController.cpp</text>
</a>
</g>
</g>
<!-- Node18&#45;&gt;Node19 -->
<g id="edge19" class="edge">
<title>Node18&#45;&gt;Node19</title>
<path fill="none" stroke="#63b8ff" d="M545.04,-46.78C554.26,-37.72 565.29,-26.9 572.89,-19.44"/>
<polygon fill="#63b8ff" stroke="#63b8ff" points="542.68,-44.19 538,-53.69 547.59,-49.18 542.68,-44.19"/>
</g>
<!-- Node20 -->
<g id="node20" class="node">
<title>Node20</title>
<g id="a_node20"><a xlink:href="SceneBuilder_8cpp.html" target="_top" xlink:title=" ">
<polygon fill="white" stroke="#666666" points="1212.5,-19 1095.5,-19 1095.5,0 1212.5,0 1212.5,-19"/>
<text text-anchor="middle" x="1154" y="-7" font-family="Helvetica,sans-Serif" font-size="10.00">src/SceneBuilder.cpp</text>
</a>
</g>
</g>
<!-- Node18&#45;&gt;Node20 -->
<g id="edge21" class="edge">
<title>Node18&#45;&gt;Node20</title>
<path fill="none" stroke="#63b8ff" d="M613.63,-54.79C823.81,-36.34 879.04,-39.76 1086,-19 1088.96,-18.7 1091.99,-18.38 1095.05,-18.05"/>
<polygon fill="#63b8ff" stroke="#63b8ff" points="613.36,-51.3 603.71,-55.67 613.98,-58.27 613.36,-51.3"/>
</g>
<!-- Node21&#45;&gt;Node13 -->
<g id="edge24" class="edge">
<title>Node21&#45;&gt;Node13</title>
<path fill="none" stroke="#63b8ff" d="M776.55,-54.76C705.36,-45.8 591.45,-31.45 493,-19 490.21,-18.65 487.35,-18.29 484.47,-17.92"/>
<polygon fill="#63b8ff" stroke="#63b8ff" points="775.74,-58.19 786.1,-55.96 776.61,-51.24 775.74,-58.19"/>
</g>
<!-- Node21&#45;&gt;Node20 -->
<g id="edge26" class="edge">
<title>Node21&#45;&gt;Node20</title>
<path fill="none" stroke="#63b8ff" d="M909.26,-52.61C966.1,-42.83 1048.58,-28.64 1101.75,-19.49"/>
<polygon fill="#63b8ff" stroke="#63b8ff" points="909,-49.11 899.74,-54.25 910.19,-56.01 909,-49.11"/>
</g>
<!-- Node22 -->
<g id="node22" class="node">
<title>Node22</title>
<g id="a_node22"><a xlink:href="RiverController_8cpp.html" target="_top" xlink:title=" ">
<polygon fill="white" stroke="#666666" points="898.5,-19 771.5,-19 771.5,0 898.5,0 898.5,-19"/>
<text text-anchor="middle" x="835" y="-7" font-family="Helvetica,sans-Serif" font-size="10.00">src/RiverController.cpp</text>
</a>
</g>
</g>
<!-- Node21&#45;&gt;Node22 -->
<g id="edge25" class="edge">
<title>Node21&#45;&gt;Node22</title>
<path fill="none" stroke="#63b8ff" d="M841.88,-43.64C840.15,-35.31 838.23,-26.05 836.86,-19.44"/>
<polygon fill="#63b8ff" stroke="#63b8ff" points="838.42,-44.19 843.88,-53.27 845.27,-42.76 838.42,-44.19"/>
</g>
<!-- Node24&#45;&gt;Node13 -->
<g id="edge29" class="edge">
<title>Node24&#45;&gt;Node13</title>
<path fill="none" stroke="#63b8ff" d="M911.04,-54.83C724.57,-37.61 675.66,-38.41 493,-19 490.2,-18.7 487.34,-18.39 484.45,-18.06"/>
<polygon fill="#63b8ff" stroke="#63b8ff" points="910.56,-58.31 920.84,-55.75 911.21,-51.34 910.56,-58.31"/>
</g>
<!-- Node24&#45;&gt;Node20 -->
<g id="edge30" class="edge">
<title>Node24&#45;&gt;Node20</title>
<path fill="none" stroke="#63b8ff" d="M1034.46,-50.85C1063.14,-41.17 1101.98,-28.06 1127.5,-19.45"/>
<polygon fill="#63b8ff" stroke="#63b8ff" points="1033.42,-47.51 1025.07,-54.03 1035.66,-54.14 1033.42,-47.51"/>
</g>
<!-- Node25 -->
<g id="node25" class="node">
<title>Node25</title>
<g id="a_node25"><a xlink:href="VehicleLaneController_8cpp.html" target="_top" xlink:title=" ">
<polygon fill="white" stroke="#666666" points="1077,-19 917,-19 917,0 1077,0 1077,-19"/>
<text text-anchor="middle" x="997" y="-7" font-family="Helvetica,sans-Serif" font-size="10.00">src/VehicleLaneController.cpp</text>
</a>
</g>
</g>
<!-- Node24&#45;&gt;Node25 -->
<g id="edge31" class="edge">
<title>Node24&#45;&gt;Node25</title>
<path fill="none" stroke="#63b8ff" d="M997,-43.35C997,-35.1 997,-25.97 997,-19.44"/>
<polygon fill="#63b8ff" stroke="#63b8ff" points="993.5,-43.23 997,-53.23 1000.5,-43.23 993.5,-43.23"/>
</g>
<!-- Node26&#45;&gt;Node16 -->
<g id="edge33" class="edge">
<title>Node26&#45;&gt;Node16</title>
<path fill="none" stroke="#63b8ff" d="M1104.25,-102.64C1116.64,-93.39 1131.82,-82.05 1142.13,-74.36"/>
<polygon fill="#63b8ff" stroke="#63b8ff" points="1102.18,-99.82 1096.26,-108.6 1106.36,-105.43 1102.18,-99.82"/>
</g>
<!-- Node26&#45;&gt;Node20 -->
<g id="edge34" class="edge">
<title>Node26&#45;&gt;Node20</title>
<path fill="none" stroke="#63b8ff" d="M1144.26,-107.11C1178.67,-99.33 1216.73,-87.92 1227,-74 1243.95,-51.02 1206.2,-30.56 1178.92,-19.4"/>
<polygon fill="#63b8ff" stroke="#63b8ff" points="1143.76,-103.64 1134.73,-109.18 1145.25,-110.48 1143.76,-103.64"/>
</g>
<!-- Node27&#45;&gt;Node11 -->
<g id="edge36" class="edge">
<title>Node27&#45;&gt;Node11</title>
<path fill="none" stroke="#63b8ff" d="M1005.02,-265.36C999.25,-256.62 992.57,-246.51 987.91,-239.44"/>
<polygon fill="#63b8ff" stroke="#63b8ff" points="1001.96,-267.07 1010.39,-273.49 1007.8,-263.21 1001.96,-267.07"/>
</g>
<!-- Node27&#45;&gt;Node13 -->
<g id="edge37" class="edge">
<title>Node27&#45;&gt;Node13</title>
<path fill="none" stroke="#63b8ff" d="M962.37,-279.85C809.41,-268.92 388,-233.54 388,-175.5 388,-175.5 388,-175.5 388,-118.5 388,-79.74 410.05,-37.37 420.56,-19.37"/>
<polygon fill="#63b8ff" stroke="#63b8ff" points="962.03,-283.34 972.26,-280.55 962.53,-276.36 962.03,-283.34"/>
</g>
<!-- Node27&#45;&gt;Node20 -->
<g id="edge39" class="edge">
<title>Node27&#45;&gt;Node20</title>
<path fill="none" stroke="#63b8ff" d="M1071.58,-272.93C1149.69,-256.23 1284,-220.9 1284,-175.5 1284,-175.5 1284,-175.5 1284,-118.5 1284,-65.68 1219.73,-33.75 1181.57,-19.44"/>
<polygon fill="#63b8ff" stroke="#63b8ff" points="1071.04,-269.47 1061.97,-274.95 1072.48,-276.32 1071.04,-269.47"/>
</g>
<!-- Node28 -->
<g id="node28" class="node">
<title>Node28</title>
<g id="a_node28"><a xlink:href="Obstacle_8cpp.html" target="_top" xlink:title=" ">
<polygon fill="white" stroke="#666666" points="1409.5,-239 1312.5,-239 1312.5,-220 1409.5,-220 1409.5,-239"/>
<text text-anchor="middle" x="1361" y="-227" font-family="Helvetica,sans-Serif" font-size="10.00">src/Obstacle.cpp</text>
</a>
</g>
</g>
<!-- Node27&#45;&gt;Node28 -->
<g id="edge38" class="edge">
<title>Node27&#45;&gt;Node28</title>
<path fill="none" stroke="#63b8ff" d="M1071.73,-274.58C1162.39,-260.31 1256.47,-246.12 1312.15,-237.78"/>
<polygon fill="#63b8ff" stroke="#63b8ff" points="1071.23,-271.12 1061.9,-276.13 1072.32,-278.03 1071.23,-271.12"/>
</g>
</g>
</svg>
        <g id="navigator" transform="translate(0 0)" fill="#404254">
                <rect fill="#f2f5e9" fill-opacity="0.5" stroke="#606060" stroke-width=".5" x="0" y="0" width="60" height="60"/>
                <use id="zoomplus" xlink:href="#zoomPlus" x="17" y="9" onmousedown="handleZoom(evt,'in')"/>
                <use id="zoomminus" xlink:href="#zoomMin" x="42" y="9" onmousedown="handleZoom(evt,'out')"/>
                <use id="reset" xlink:href="#resetDef" x="30" y="36" onmousedown="handleReset()"/>
                <g id="arrowUp" xlink:href="#dirArrow" transform="translate(30 24)" onmousedown="handlePan(0,-1)">
                  <use xlink:href="#rim" fill="#404040">
                        <set attributeName="fill" to="#808080" begin="arrowUp.mouseover" end="arrowUp.mouseout"/>
                  </use>
                  <path fill="none" stroke="white" stroke-width="1.5" d="M0,-3.0v7 M-2.5,-0.5L0,-3.0L2.5,-0.5"/>
                </g>
                <g id="arrowRight" xlink:href="#dirArrow" transform="rotate(90) translate(36 -43)" onmousedown="handlePan(1,0)">
                  <use xlink:href="#rim" fill="#404040">
                        <set attributeName="fill" to="#808080" begin="arrowRight.mouseover" end="arrowRight.mouseout"/>
                  </use>
                  <path fill="none" stroke="white" stroke-width="1.5" d="M0,-3.0v7 M-2.5,-0.5L0,-3.0L2.5,-0.5"/>
                </g>
                <g id="arrowDown" xlink:href="#dirArrow" transform="rotate(180) translate(-30 -48)" onmousedown="handlePan(0,1)">
                  <use xlink:href="#rim" fill="#404040">
                        <set attributeName="fill" to="#808080" begin="arrowDown.mouseover" end="arrowDown.mouseout"/>
                  </use>
                  <path fill="none" stroke="white" stroke-width="1.5" d="M0,-3.0v7 M-2.5,-0.5L0,-3.0L2.5,-0.5"/>
                </g>
                <g id="arrowLeft" xlink:href="#dirArrow" transform="rotate(270) translate(-36 17)" onmousedown="handlePan(-1,0)">
                  <use xlink:href="#rim" fill="#404040">
                        <set attributeName="fill" to="#808080" begin="arrowLeft.mouseover" end="arrowLeft.mouseout"/>
                  </use>
                  <path fill="none" stroke="white" stroke-width="1.5" d="M0,-3.0v7 M-2.5,-0.5L0,-3.0L2.5,-0.5"/>
                </g>
        </g>
        <svg viewBox="0 0 15 15" width="100%" height="30px" preserveAspectRatio="xMaxYMin meet">
         <g id="arrow_out" transform="scale(0.3 0.3)">
          <a xlink:href="PlayerState_8h__dep__incl_org.svg" target="_base">
           <rect id="button" ry="5" rx="5" y="6" x="6" height="38" width="38"
                fill="#f2f5e9" fill-opacity="0.5" stroke="#606060" stroke-width="1.0"/>
           <path id="arrow"
             d="M 11.500037,31.436501 C 11.940474,20.09759 22.043105,11.32322 32.158766,21.979434 L 37.068811,17.246167 C 37.068811,17.246167 37.088388,32 37.088388,32 L 22.160133,31.978069 C 22.160133,31.978069 26.997745,27.140456 26.997745,27.140456 C 18.528582,18.264221 13.291696,25.230495 11.500037,31.436501 z"
             style="fill:#404040;"/>
          </a>
         </g>
        </svg>
</svg>
