<?xml version="1.0" encoding="UTF-8" standalone="no"?>
<!DOCTYPE svg PUBLIC "-//W3C//DTD SVG 1.1//EN"
 "http://www.w3.org/Graphics/SVG/1.1/DTD/svg11.dtd">
<!-- Generated by graphviz version 7.0.5 (0)
 -->
<!-- Title: src/PlayerCollidable.h Pages: 1 -->
<!--zoomable 357 -->
<svg id="main" version="1.1" xmlns="http://www.w3.org/2000/svg" xmlns:xlink="http://www.w3.org/1999/xlink" xml:space="preserve" onload="init(evt)">
<style type="text/css"><![CDATA[
.edge:hover path { stroke: red; }
.edge:hover polygon { stroke: red; fill: red; }
]]></style>
<script type="text/javascript"><![CDATA[
var edges = document.getElementsByTagName('g');
if (edges && edges.length) {
  for (var i=0;i<edges.length;i++) {
    if (edges[i].id.substr(0,4)=='edge') {
      edges[i].setAttribute('class','edge');
    }
  }
}
]]></script>
        <defs>
                <circle id="rim" cx="0" cy="0" r="7"/>
                <circle id="rim2" cx="0" cy="0" r="3.5"/>
                <g id="zoomPlus">
                        <use xlink:href="#rim" fill="#404040">
                                <set attributeName="fill" to="#808080" begin="zoomplus.mouseover" end="zoomplus.mouseout"/>
                        </use>
                        <path d="M-4,0h8M0,-4v8" fill="none" stroke="white" stroke-width="1.5" pointer-events="none"/>
                </g>
                <g id="zoomMin">
                        <use xlink:href="#rim" fill="#404040">
                                <set attributeName="fill" to="#808080" begin="zoomminus.mouseover" end="zoomminus.mouseout"/>
                        </use>
                        <path d="M-4,0h8" fill="none" stroke="white" stroke-width="1.5" pointer-events="none"/>
                </g>
                <g id="dirArrow">
                        <path fill="none" stroke="white" stroke-width="1.5" d="M0,-3.0v7 M-2.5,-0.5L0,-3.0L2.5,-0.5"/>
                </g>
               <g id="resetDef">
                       <use xlink:href="#rim2" fill="#404040">
                               <set attributeName="fill" to="#808080" begin="reset.mouseover" end="reset.mouseout"/>
                       </use>
               </g>
        </defs>

<script type="text/javascript">
var viewWidth = 1576;
var viewHeight = 357;
var sectionId = 'dynsection-1';
</script>
<script xlink:href="svgpan.js"/>
<svg id="graph" class="graph">
<g id="viewport">
<title>src/PlayerCollidable.h</title>
<!-- Node1 -->
<g id="node1" class="node">
<title>Node1</title>
<g id="a_node1"><a xlink:title=" ">
<polygon fill="#999999" stroke="#666666" points="1408.5,-349 1286.5,-349 1286.5,-330 1408.5,-330 1408.5,-349"/>
<text text-anchor="middle" x="1347.5" y="-337" font-family="Helvetica,sans-Serif" font-size="10.00">src/PlayerCollidable.h</text>
</a>
</g>
</g>
<!-- Node2 -->
<g id="node2" class="node">
<title>Node2</title>
<g id="a_node2"><a xlink:href="Camera_8h.html" target="_top" xlink:title=" ">
<polygon fill="white" stroke="#666666" points="400,-294 319,-294 319,-275 400,-275 400,-294"/>
<text text-anchor="middle" x="359.5" y="-282" font-family="Helvetica,sans-Serif" font-size="10.00">src/Camera.h</text>
</a>
</g>
</g>
<!-- Node1&#45;&gt;Node2 -->
<g id="edge1" class="edge">
<title>Node1&#45;&gt;Node2</title>
<path fill="none" stroke="#63b8ff" d="M1274.84,-334.6C1080.2,-324.16 551.59,-295.8 400.4,-287.69"/>
<polygon fill="#63b8ff" stroke="#63b8ff" points="1274.38,-338.08 1284.56,-335.12 1274.76,-331.09 1274.38,-338.08"/>
</g>
<!-- Node11 -->
<g id="node11" class="node">
<title>Node11</title>
<g id="a_node11"><a xlink:href="Obstacle_8h.html" target="_top" xlink:title=" ">
<polygon fill="white" stroke="#666666" points="1333.5,-294 1247.5,-294 1247.5,-275 1333.5,-275 1333.5,-294"/>
<text text-anchor="middle" x="1290.5" y="-282" font-family="Helvetica,sans-Serif" font-size="10.00">src/Obstacle.h</text>
</a>
</g>
</g>
<!-- Node1&#45;&gt;Node11 -->
<g id="edge10" class="edge">
<title>Node1&#45;&gt;Node11</title>
<path fill="none" stroke="#63b8ff" d="M1329.55,-321.81C1319.77,-312.72 1308.06,-301.82 1300.03,-294.36"/>
<polygon fill="#63b8ff" stroke="#63b8ff" points="1327.02,-324.23 1336.72,-328.48 1331.78,-319.11 1327.02,-324.23"/>
</g>
<!-- Node29 -->
<g id="node29" class="node">
<title>Node29</title>
<g id="a_node29"><a xlink:href="Pickups_8h.html" target="_top" xlink:title=" ">
<polygon fill="white" stroke="#666666" points="1475.5,-74 1395.5,-74 1395.5,-55 1475.5,-55 1475.5,-74"/>
<text text-anchor="middle" x="1435.5" y="-62" font-family="Helvetica,sans-Serif" font-size="10.00">src/Pickups.h</text>
</a>
</g>
</g>
<!-- Node1&#45;&gt;Node29 -->
<g id="edge39" class="edge">
<title>Node1&#45;&gt;Node29</title>
<path fill="none" stroke="#63b8ff" d="M1363.78,-321.16C1380.93,-301.01 1405.5,-265.96 1405.5,-230.5 1405.5,-230.5 1405.5,-230.5 1405.5,-173.5 1405.5,-135.36 1423.09,-92.31 1431.33,-74.23"/>
<polygon fill="#63b8ff" stroke="#63b8ff" points="1361.34,-318.63 1357.31,-328.43 1366.58,-323.28 1361.34,-318.63"/>
</g>
<!-- Node31 -->
<g id="node31" class="node">
<title>Node31</title>
<g id="a_node31"><a xlink:href="PlayerCollidable_8cpp.html" target="_top" xlink:title=" ">
<polygon fill="white" stroke="#666666" points="1567.5,-294 1433.5,-294 1433.5,-275 1567.5,-275 1567.5,-294"/>
<text text-anchor="middle" x="1500.5" y="-282" font-family="Helvetica,sans-Serif" font-size="10.00">src/PlayerCollidable.cpp</text>
</a>
</g>
</g>
<!-- Node1&#45;&gt;Node31 -->
<g id="edge43" class="edge">
<title>Node1&#45;&gt;Node31</title>
<path fill="none" stroke="#63b8ff" d="M1384.01,-325.85C1411.95,-316.17 1449.81,-303.06 1474.67,-294.45"/>
<polygon fill="#63b8ff" stroke="#63b8ff" points="1383.19,-322.43 1374.88,-329.01 1385.48,-329.05 1383.19,-322.43"/>
</g>
<!-- Node3 -->
<g id="node3" class="node">
<title>Node3</title>
<g id="a_node3"><a xlink:href="Camera_8cpp.html" target="_top" xlink:title=" ">
<polygon fill="white" stroke="#666666" points="405.5,-239 313.5,-239 313.5,-220 405.5,-220 405.5,-239"/>
<text text-anchor="middle" x="359.5" y="-227" font-family="Helvetica,sans-Serif" font-size="10.00">src/Camera.cpp</text>
</a>
</g>
</g>
<!-- Node2&#45;&gt;Node3 -->
<g id="edge2" class="edge">
<title>Node2&#45;&gt;Node3</title>
<path fill="none" stroke="#63b8ff" d="M359.5,-263.35C359.5,-255.1 359.5,-245.97 359.5,-239.44"/>
<polygon fill="#63b8ff" stroke="#63b8ff" points="356,-263.23 359.5,-273.23 363,-263.23 356,-263.23"/>
</g>
<!-- Node4 -->
<g id="node4" class="node">
<title>Node4</title>
<g id="a_node4"><a xlink:href="GameState_8h.html" target="_top" xlink:title=" ">
<polygon fill="white" stroke="#666666" points="295.5,-239 197.5,-239 197.5,-220 295.5,-220 295.5,-239"/>
<text text-anchor="middle" x="246.5" y="-227" font-family="Helvetica,sans-Serif" font-size="10.00">src/GameState.h</text>
</a>
</g>
</g>
<!-- Node2&#45;&gt;Node4 -->
<g id="edge3" class="edge">
<title>Node2&#45;&gt;Node4</title>
<path fill="none" stroke="#63b8ff" d="M330.01,-269.67C309.58,-260.09 283.01,-247.62 265.39,-239.36"/>
<polygon fill="#63b8ff" stroke="#63b8ff" points="328.42,-272.79 338.96,-273.87 331.39,-266.45 328.42,-272.79"/>
</g>
<!-- Node5 -->
<g id="node5" class="node">
<title>Node5</title>
<g id="a_node5"><a xlink:href="GameState_8cpp.html" target="_top" xlink:title=" ">
<polygon fill="white" stroke="#666666" points="353,-184 244,-184 244,-165 353,-165 353,-184"/>
<text text-anchor="middle" x="298.5" y="-172" font-family="Helvetica,sans-Serif" font-size="10.00">src/GameState.cpp</text>
</a>
</g>
</g>
<!-- Node4&#45;&gt;Node5 -->
<g id="edge4" class="edge">
<title>Node4&#45;&gt;Node5</title>
<path fill="none" stroke="#63b8ff" d="M262.91,-211.78C271.79,-202.72 282.41,-191.9 289.73,-184.44"/>
<polygon fill="#63b8ff" stroke="#63b8ff" points="260.65,-209.08 256.15,-218.67 265.65,-213.98 260.65,-209.08"/>
</g>
<!-- Node6 -->
<g id="node6" class="node">
<title>Node6</title>
<g id="a_node6"><a xlink:href="MainMenuState_8h.html" target="_top" xlink:title=" ">
<polygon fill="white" stroke="#666666" points="226,-184 107,-184 107,-165 226,-165 226,-184"/>
<text text-anchor="middle" x="166.5" y="-172" font-family="Helvetica,sans-Serif" font-size="10.00">src/MainMenuState.h</text>
</a>
</g>
</g>
<!-- Node4&#45;&gt;Node6 -->
<g id="edge5" class="edge">
<title>Node4&#45;&gt;Node6</title>
<path fill="none" stroke="#63b8ff" d="M223.39,-213.19C209.27,-203.84 191.72,-192.21 179.87,-184.36"/>
<polygon fill="#63b8ff" stroke="#63b8ff" points="221.4,-216.07 231.67,-218.67 225.26,-210.23 221.4,-216.07"/>
</g>
<!-- Node7 -->
<g id="node7" class="node">
<title>Node7</title>
<g id="a_node7"><a xlink:href="Game_8h.html" target="_top" xlink:title=" ">
<polygon fill="white" stroke="#666666" points="142.5,-129 70.5,-129 70.5,-110 142.5,-110 142.5,-129"/>
<text text-anchor="middle" x="106.5" y="-117" font-family="Helvetica,sans-Serif" font-size="10.00">src/Game.h</text>
</a>
</g>
</g>
<!-- Node6&#45;&gt;Node7 -->
<g id="edge6" class="edge">
<title>Node6&#45;&gt;Node7</title>
<path fill="none" stroke="#63b8ff" d="M147.92,-157.09C137.56,-147.94 125.07,-136.9 116.53,-129.36"/>
<polygon fill="#63b8ff" stroke="#63b8ff" points="145.38,-159.51 155.19,-163.51 150.01,-154.26 145.38,-159.51"/>
</g>
<!-- Node10 -->
<g id="node10" class="node">
<title>Node10</title>
<g id="a_node10"><a xlink:href="MainMenuState_8cpp.html" target="_top" xlink:title=" ">
<polygon fill="white" stroke="#666666" points="292,-129 161,-129 161,-110 292,-110 292,-129"/>
<text text-anchor="middle" x="226.5" y="-117" font-family="Helvetica,sans-Serif" font-size="10.00">src/MainMenuState.cpp</text>
</a>
</g>
</g>
<!-- Node6&#45;&gt;Node10 -->
<g id="edge9" class="edge">
<title>Node6&#45;&gt;Node10</title>
<path fill="none" stroke="#63b8ff" d="M185.08,-157.09C195.44,-147.94 207.93,-136.9 216.47,-129.36"/>
<polygon fill="#63b8ff" stroke="#63b8ff" points="182.99,-154.26 177.81,-163.51 187.62,-159.51 182.99,-154.26"/>
</g>
<!-- Node8 -->
<g id="node8" class="node">
<title>Node8</title>
<g id="a_node8"><a xlink:href="FinalProjectCS202_8cpp.html" target="_top" xlink:title=" ">
<polygon fill="white" stroke="#666666" points="243.5,-74 101.5,-74 101.5,-55 243.5,-55 243.5,-74"/>
<text text-anchor="middle" x="172.5" y="-62" font-family="Helvetica,sans-Serif" font-size="10.00">src/FinalProjectCS202.cpp</text>
</a>
</g>
</g>
<!-- Node7&#45;&gt;Node8 -->
<g id="edge7" class="edge">
<title>Node7&#45;&gt;Node8</title>
<path fill="none" stroke="#63b8ff" d="M126.59,-102.37C138.05,-93.16 151.98,-81.98 161.47,-74.36"/>
<polygon fill="#63b8ff" stroke="#63b8ff" points="124.48,-99.57 118.88,-108.56 128.86,-105.03 124.48,-99.57"/>
</g>
<!-- Node9 -->
<g id="node9" class="node">
<title>Node9</title>
<g id="a_node9"><a xlink:href="Game_8cpp.html" target="_top" xlink:title=" ">
<polygon fill="white" stroke="#666666" points="83,-74 0,-74 0,-55 83,-55 83,-74"/>
<text text-anchor="middle" x="41.5" y="-62" font-family="Helvetica,sans-Serif" font-size="10.00">src/Game.cpp</text>
</a>
</g>
</g>
<!-- Node7&#45;&gt;Node9 -->
<g id="edge8" class="edge">
<title>Node7&#45;&gt;Node9</title>
<path fill="none" stroke="#63b8ff" d="M86.71,-102.37C75.42,-93.16 61.71,-81.98 52.36,-74.36"/>
<polygon fill="#63b8ff" stroke="#63b8ff" points="84.34,-104.95 94.3,-108.55 88.76,-99.52 84.34,-104.95"/>
</g>
<!-- Node12 -->
<g id="node12" class="node">
<title>Node12</title>
<g id="a_node12"><a xlink:href="Commuters_8h.html" target="_top" xlink:title=" ">
<polygon fill="white" stroke="#666666" points="1223.5,-239 1123.5,-239 1123.5,-220 1223.5,-220 1223.5,-239"/>
<text text-anchor="middle" x="1173.5" y="-227" font-family="Helvetica,sans-Serif" font-size="10.00">src/Commuters.h</text>
</a>
</g>
</g>
<!-- Node11&#45;&gt;Node12 -->
<g id="edge11" class="edge">
<title>Node11&#45;&gt;Node12</title>
<path fill="none" stroke="#63b8ff" d="M1260.25,-269.8C1239.07,-260.2 1211.39,-247.66 1193.05,-239.36"/>
<polygon fill="#63b8ff" stroke="#63b8ff" points="1258.72,-272.95 1269.27,-273.88 1261.61,-266.57 1258.72,-272.95"/>
</g>
<!-- Node14 -->
<g id="node14" class="node">
<title>Node14</title>
<g id="a_node14"><a xlink:href="GameLoader_8cpp.html" target="_top" xlink:title=" ">
<polygon fill="white" stroke="#666666" points="735.5,-19 619.5,-19 619.5,0 735.5,0 735.5,-19"/>
<text text-anchor="middle" x="677.5" y="-7" font-family="Helvetica,sans-Serif" font-size="10.00">src/GameLoader.cpp</text>
</a>
</g>
</g>
<!-- Node11&#45;&gt;Node14 -->
<g id="edge36" class="edge">
<title>Node11&#45;&gt;Node14</title>
<path fill="none" stroke="#63b8ff" d="M1235.82,-282.38C1046.95,-277.81 433.5,-256.7 433.5,-175.5 433.5,-175.5 433.5,-175.5 433.5,-118.5 433.5,-82.58 453.15,-74.22 483.5,-55 505.83,-40.85 570.77,-27.72 619.4,-19.44"/>
<polygon fill="#63b8ff" stroke="#63b8ff" points="1235.53,-285.88 1245.61,-282.61 1235.69,-278.88 1235.53,-285.88"/>
</g>
<!-- Node21 -->
<g id="node21" class="node">
<title>Node21</title>
<g id="a_node21"><a xlink:href="SceneBuilder_8cpp.html" target="_top" xlink:title=" ">
<polygon fill="white" stroke="#666666" points="1334,-19 1217,-19 1217,0 1334,0 1334,-19"/>
<text text-anchor="middle" x="1275.5" y="-7" font-family="Helvetica,sans-Serif" font-size="10.00">src/SceneBuilder.cpp</text>
</a>
</g>
</g>
<!-- Node11&#45;&gt;Node21 -->
<g id="edge38" class="edge">
<title>Node11&#45;&gt;Node21</title>
<path fill="none" stroke="#63b8ff" d="M1316.33,-268.33C1327.29,-260.75 1339.39,-250.69 1347.5,-239 1364.37,-214.69 1367.5,-205.09 1367.5,-175.5 1367.5,-175.5 1367.5,-175.5 1367.5,-118.5 1367.5,-71.95 1317.35,-35.27 1291.11,-19.25"/>
<polygon fill="#63b8ff" stroke="#63b8ff" points="1314.47,-265.37 1307.99,-273.75 1318.28,-271.23 1314.47,-265.37"/>
</g>
<!-- Node28 -->
<g id="node28" class="node">
<title>Node28</title>
<g id="a_node28"><a xlink:href="Obstacle_8cpp.html" target="_top" xlink:title=" ">
<polygon fill="white" stroke="#666666" points="1339,-239 1242,-239 1242,-220 1339,-220 1339,-239"/>
<text text-anchor="middle" x="1290.5" y="-227" font-family="Helvetica,sans-Serif" font-size="10.00">src/Obstacle.cpp</text>
</a>
</g>
</g>
<!-- Node11&#45;&gt;Node28 -->
<g id="edge37" class="edge">
<title>Node11&#45;&gt;Node28</title>
<path fill="none" stroke="#63b8ff" d="M1290.5,-263.35C1290.5,-255.1 1290.5,-245.97 1290.5,-239.44"/>
<polygon fill="#63b8ff" stroke="#63b8ff" points="1287,-263.23 1290.5,-273.23 1294,-263.23 1287,-263.23"/>
</g>
<!-- Node13 -->
<g id="node13" class="node">
<title>Node13</title>
<g id="a_node13"><a xlink:href="Commuters_8cpp.html" target="_top" xlink:title=" ">
<polygon fill="white" stroke="#666666" points="1260,-184 1149,-184 1149,-165 1260,-165 1260,-184"/>
<text text-anchor="middle" x="1204.5" y="-172" font-family="Helvetica,sans-Serif" font-size="10.00">src/Commuters.cpp</text>
</a>
</g>
</g>
<!-- Node12&#45;&gt;Node13 -->
<g id="edge12" class="edge">
<title>Node12&#45;&gt;Node13</title>
<path fill="none" stroke="#63b8ff" d="M1184.28,-210.08C1189.35,-201.4 1195.18,-191.44 1199.27,-184.44"/>
<polygon fill="#63b8ff" stroke="#63b8ff" points="1181.41,-208.04 1179.38,-218.44 1187.45,-211.58 1181.41,-208.04"/>
</g>
<!-- Node12&#45;&gt;Node14 -->
<g id="edge13" class="edge">
<title>Node12&#45;&gt;Node14</title>
<path fill="none" stroke="#63b8ff" d="M1111.77,-224.1C958.67,-211.78 568.21,-171.25 490.5,-74 485.23,-67.4 485.27,-61.63 490.5,-55 498.98,-44.26 573.34,-29.02 625.69,-19.45"/>
<polygon fill="#63b8ff" stroke="#63b8ff" points="1111.49,-227.59 1121.73,-224.89 1112.04,-220.61 1111.49,-227.59"/>
</g>
<!-- Node15 -->
<g id="node15" class="node">
<title>Node15</title>
<g id="a_node15"><a xlink:href="RoadLane_8cpp.html" target="_top" xlink:title=" ">
<polygon fill="white" stroke="#666666" points="1339.5,-129 1237.5,-129 1237.5,-110 1339.5,-110 1339.5,-129"/>
<text text-anchor="middle" x="1288.5" y="-117" font-family="Helvetica,sans-Serif" font-size="10.00">src/RoadLane.cpp</text>
</a>
</g>
</g>
<!-- Node12&#45;&gt;Node15 -->
<g id="edge14" class="edge">
<title>Node12&#45;&gt;Node15</title>
<path fill="none" stroke="#63b8ff" d="M1219.63,-215.69C1237.02,-208.81 1255.69,-198.64 1268.5,-184 1282.35,-168.17 1286.62,-142.75 1287.93,-129.38"/>
<polygon fill="#63b8ff" stroke="#63b8ff" points="1218.64,-212.33 1210.44,-219.05 1221.03,-218.91 1218.64,-212.33"/>
</g>
<!-- Node16 -->
<g id="node16" class="node">
<title>Node16</title>
<g id="a_node16"><a xlink:href="RoadLane_8h.html" target="_top" xlink:title=" ">
<polygon fill="white" stroke="#666666" points="1131,-184 1040,-184 1040,-165 1131,-165 1131,-184"/>
<text text-anchor="middle" x="1085.5" y="-172" font-family="Helvetica,sans-Serif" font-size="10.00">src/RoadLane.h</text>
</a>
</g>
</g>
<!-- Node12&#45;&gt;Node16 -->
<g id="edge15" class="edge">
<title>Node12&#45;&gt;Node16</title>
<path fill="none" stroke="#63b8ff" d="M1148.98,-213.73C1133.3,-204.29 1113.49,-192.36 1100.21,-184.36"/>
<polygon fill="#63b8ff" stroke="#63b8ff" points="1146.9,-216.57 1157.28,-218.73 1150.51,-210.57 1146.9,-216.57"/>
</g>
<!-- Node16&#45;&gt;Node15 -->
<g id="edge17" class="edge">
<title>Node16&#45;&gt;Node15</title>
<path fill="none" stroke="#63b8ff" d="M1131.01,-161.62C1168.34,-151.87 1220.36,-138.29 1254.23,-129.45"/>
<polygon fill="#63b8ff" stroke="#63b8ff" points="1130.19,-158.21 1121.4,-164.13 1131.96,-164.99 1130.19,-158.21"/>
</g>
<!-- Node17 -->
<g id="node17" class="node">
<title>Node17</title>
<g id="a_node17"><a xlink:href="LevelGenerator_8cpp.html" target="_top" xlink:title=" ">
<polygon fill="white" stroke="#666666" points="1301.5,-74 1173.5,-74 1173.5,-55 1301.5,-55 1301.5,-74"/>
<text text-anchor="middle" x="1237.5" y="-62" font-family="Helvetica,sans-Serif" font-size="10.00">src/LevelGenerator.cpp</text>
</a>
</g>
</g>
<!-- Node16&#45;&gt;Node17 -->
<g id="edge16" class="edge">
<title>Node16&#45;&gt;Node17</title>
<path fill="none" stroke="#63b8ff" d="M1086.73,-153.59C1088.6,-139.7 1093.22,-121.65 1104.5,-110 1122.62,-91.28 1148.83,-80.44 1173.2,-74.16"/>
<polygon fill="#63b8ff" stroke="#63b8ff" points="1083.26,-153.08 1085.81,-163.36 1090.23,-153.73 1083.26,-153.08"/>
</g>
<!-- Node18 -->
<g id="node18" class="node">
<title>Node18</title>
<g id="a_node18"><a xlink:href="RoadLaneController_8h.html" target="_top" xlink:title=" ">
<polygon fill="white" stroke="#666666" points="931.5,-129 793.5,-129 793.5,-110 931.5,-110 931.5,-129"/>
<text text-anchor="middle" x="862.5" y="-117" font-family="Helvetica,sans-Serif" font-size="10.00">src/RoadLaneController.h</text>
</a>
</g>
</g>
<!-- Node16&#45;&gt;Node18 -->
<g id="edge18" class="edge">
<title>Node16&#45;&gt;Node18</title>
<path fill="none" stroke="#63b8ff" d="M1036.56,-161.87C995.49,-152.11 937.67,-138.37 900.14,-129.45"/>
<polygon fill="#63b8ff" stroke="#63b8ff" points="1035.66,-165.25 1046.2,-164.16 1037.28,-158.44 1035.66,-165.25"/>
</g>
<!-- Node27 -->
<g id="node27" class="node">
<title>Node27</title>
<g id="a_node27"><a xlink:href="SceneBuilder_8h.html" target="_top" xlink:title=" ">
<polygon fill="white" stroke="#666666" points="1219.5,-129 1113.5,-129 1113.5,-110 1219.5,-110 1219.5,-129"/>
<text text-anchor="middle" x="1166.5" y="-117" font-family="Helvetica,sans-Serif" font-size="10.00">src/SceneBuilder.h</text>
</a>
</g>
</g>
<!-- Node16&#45;&gt;Node27 -->
<g id="edge33" class="edge">
<title>Node16&#45;&gt;Node27</title>
<path fill="none" stroke="#63b8ff" d="M1108.49,-158.46C1122.85,-149.06 1140.85,-137.28 1152.96,-129.36"/>
<polygon fill="#63b8ff" stroke="#63b8ff" points="1106.96,-155.28 1100.51,-163.68 1110.79,-161.13 1106.96,-155.28"/>
</g>
<!-- Node18&#45;&gt;Node14 -->
<g id="edge23" class="edge">
<title>Node18&#45;&gt;Node14</title>
<path fill="none" stroke="#63b8ff" d="M782.04,-113.34C751.81,-107.55 719.28,-96.13 696.5,-74 681.31,-59.25 678.14,-32.9 677.56,-19.24"/>
<polygon fill="#63b8ff" stroke="#63b8ff" points="781.12,-116.73 791.56,-114.97 782.3,-109.83 781.12,-116.73"/>
</g>
<!-- Node19 -->
<g id="node19" class="node">
<title>Node19</title>
<g id="a_node19"><a xlink:href="AnimalLaneController_8h.html" target="_top" xlink:title=" ">
<polygon fill="white" stroke="#666666" points="853.5,-74 705.5,-74 705.5,-55 853.5,-55 853.5,-74"/>
<text text-anchor="middle" x="779.5" y="-62" font-family="Helvetica,sans-Serif" font-size="10.00">src/AnimalLaneController.h</text>
</a>
</g>
</g>
<!-- Node18&#45;&gt;Node19 -->
<g id="edge19" class="edge">
<title>Node18&#45;&gt;Node19</title>
<path fill="none" stroke="#63b8ff" d="M838.95,-103.46C824.23,-94.06 805.78,-82.28 793.37,-74.36"/>
<polygon fill="#63b8ff" stroke="#63b8ff" points="836.83,-106.26 847.14,-108.69 840.6,-100.36 836.83,-106.26"/>
</g>
<!-- Node22 -->
<g id="node22" class="node">
<title>Node22</title>
<g id="a_node22"><a xlink:href="RiverController_8h.html" target="_top" xlink:title=" ">
<polygon fill="white" stroke="#666666" points="1155.5,-74 1039.5,-74 1039.5,-55 1155.5,-55 1155.5,-74"/>
<text text-anchor="middle" x="1097.5" y="-62" font-family="Helvetica,sans-Serif" font-size="10.00">src/RiverController.h</text>
</a>
</g>
</g>
<!-- Node18&#45;&gt;Node22 -->
<g id="edge24" class="edge">
<title>Node18&#45;&gt;Node22</title>
<path fill="none" stroke="#63b8ff" d="M913.52,-106.99C956.83,-97.22 1018.12,-83.4 1057.83,-74.45"/>
<polygon fill="#63b8ff" stroke="#63b8ff" points="912.83,-103.56 903.84,-109.18 914.37,-110.39 912.83,-103.56"/>
</g>
<!-- Node24 -->
<g id="node24" class="node">
<title>Node24</title>
<g id="a_node24"><a xlink:href="RoadLaneController_8cpp.html" target="_top" xlink:title=" ">
<polygon fill="white" stroke="#666666" points="1021,-74 872,-74 872,-55 1021,-55 1021,-74"/>
<text text-anchor="middle" x="946.5" y="-62" font-family="Helvetica,sans-Serif" font-size="10.00">src/RoadLaneController.cpp</text>
</a>
</g>
</g>
<!-- Node18&#45;&gt;Node24 -->
<g id="edge28" class="edge">
<title>Node18&#45;&gt;Node24</title>
<path fill="none" stroke="#63b8ff" d="M886.34,-103.46C901.23,-94.06 919.9,-82.28 932.46,-74.36"/>
<polygon fill="#63b8ff" stroke="#63b8ff" points="884.62,-100.41 878.03,-108.7 888.35,-106.33 884.62,-100.41"/>
</g>
<!-- Node25 -->
<g id="node25" class="node">
<title>Node25</title>
<g id="a_node25"><a xlink:href="VehicleLaneController_8h.html" target="_top" xlink:title=" ">
<polygon fill="white" stroke="#666666" points="649,-74 500,-74 500,-55 649,-55 649,-74"/>
<text text-anchor="middle" x="574.5" y="-62" font-family="Helvetica,sans-Serif" font-size="10.00">src/VehicleLaneController.h</text>
</a>
</g>
</g>
<!-- Node18&#45;&gt;Node25 -->
<g id="edge29" class="edge">
<title>Node18&#45;&gt;Node25</title>
<path fill="none" stroke="#63b8ff" d="M802.33,-107.43C749.13,-97.64 672.51,-83.54 623.11,-74.45"/>
<polygon fill="#63b8ff" stroke="#63b8ff" points="801.69,-110.87 812.16,-109.24 802.95,-103.98 801.69,-110.87"/>
</g>
<!-- Node19&#45;&gt;Node14 -->
<g id="edge21" class="edge">
<title>Node19&#45;&gt;Node14</title>
<path fill="none" stroke="#63b8ff" d="M752.11,-49.27C733.78,-39.74 710.24,-27.51 694.55,-19.36"/>
<polygon fill="#63b8ff" stroke="#63b8ff" points="750.37,-52.31 760.85,-53.81 753.59,-46.09 750.37,-52.31"/>
</g>
<!-- Node20 -->
<g id="node20" class="node">
<title>Node20</title>
<g id="a_node20"><a xlink:href="AnimalLaneController_8cpp.html" target="_top" xlink:title=" ">
<polygon fill="white" stroke="#666666" points="913,-19 754,-19 754,0 913,0 913,-19"/>
<text text-anchor="middle" x="833.5" y="-7" font-family="Helvetica,sans-Serif" font-size="10.00">src/AnimalLaneController.cpp</text>
</a>
</g>
</g>
<!-- Node19&#45;&gt;Node20 -->
<g id="edge20" class="edge">
<title>Node19&#45;&gt;Node20</title>
<path fill="none" stroke="#63b8ff" d="M796.54,-46.78C805.76,-37.72 816.79,-26.9 824.39,-19.44"/>
<polygon fill="#63b8ff" stroke="#63b8ff" points="794.18,-44.19 789.5,-53.69 799.09,-49.18 794.18,-44.19"/>
</g>
<!-- Node19&#45;&gt;Node21 -->
<g id="edge22" class="edge">
<title>Node19&#45;&gt;Node21</title>
<path fill="none" stroke="#63b8ff" d="M865.08,-54.36C965.55,-43.62 1129.51,-26.1 1216.68,-16.79"/>
<polygon fill="#63b8ff" stroke="#63b8ff" points="864.83,-50.86 855.26,-55.4 865.58,-57.82 864.83,-50.86"/>
</g>
<!-- Node22&#45;&gt;Node14 -->
<g id="edge25" class="edge">
<title>Node22&#45;&gt;Node14</title>
<path fill="none" stroke="#63b8ff" d="M1028.05,-54.76C956.86,-45.8 842.95,-31.45 744.5,-19 741.71,-18.65 738.85,-18.29 735.97,-17.92"/>
<polygon fill="#63b8ff" stroke="#63b8ff" points="1027.24,-58.19 1037.6,-55.96 1028.11,-51.24 1027.24,-58.19"/>
</g>
<!-- Node22&#45;&gt;Node21 -->
<g id="edge27" class="edge">
<title>Node22&#45;&gt;Node21</title>
<path fill="none" stroke="#63b8ff" d="M1138.68,-51.24C1171.31,-41.52 1216.14,-28.18 1245.45,-19.45"/>
<polygon fill="#63b8ff" stroke="#63b8ff" points="1137.73,-47.87 1129.15,-54.08 1139.73,-54.58 1137.73,-47.87"/>
</g>
<!-- Node23 -->
<g id="node23" class="node">
<title>Node23</title>
<g id="a_node23"><a xlink:href="RiverController_8cpp.html" target="_top" xlink:title=" ">
<polygon fill="white" stroke="#666666" points="1161,-19 1034,-19 1034,0 1161,0 1161,-19"/>
<text text-anchor="middle" x="1097.5" y="-7" font-family="Helvetica,sans-Serif" font-size="10.00">src/RiverController.cpp</text>
</a>
</g>
</g>
<!-- Node22&#45;&gt;Node23 -->
<g id="edge26" class="edge">
<title>Node22&#45;&gt;Node23</title>
<path fill="none" stroke="#63b8ff" d="M1097.5,-43.35C1097.5,-35.1 1097.5,-25.97 1097.5,-19.44"/>
<polygon fill="#63b8ff" stroke="#63b8ff" points="1094,-43.23 1097.5,-53.23 1101,-43.23 1094,-43.23"/>
</g>
<!-- Node25&#45;&gt;Node14 -->
<g id="edge30" class="edge">
<title>Node25&#45;&gt;Node14</title>
<path fill="none" stroke="#63b8ff" d="M602.16,-49.27C620.67,-39.74 644.44,-27.51 660.29,-19.36"/>
<polygon fill="#63b8ff" stroke="#63b8ff" points="600.61,-46.13 593.32,-53.82 603.81,-52.35 600.61,-46.13"/>
</g>
<!-- Node25&#45;&gt;Node21 -->
<g id="edge31" class="edge">
<title>Node25&#45;&gt;Node21</title>
<path fill="none" stroke="#63b8ff" d="M660.41,-57.22C776.1,-48.73 988.34,-33.04 1169.5,-19 1184.78,-17.82 1201.29,-16.51 1216.63,-15.28"/>
<polygon fill="#63b8ff" stroke="#63b8ff" points="660.41,-53.71 650.69,-57.93 660.92,-60.69 660.41,-53.71"/>
</g>
<!-- Node26 -->
<g id="node26" class="node">
<title>Node26</title>
<g id="a_node26"><a xlink:href="VehicleLaneController_8cpp.html" target="_top" xlink:title=" ">
<polygon fill="white" stroke="#666666" points="601.5,-19 441.5,-19 441.5,0 601.5,0 601.5,-19"/>
<text text-anchor="middle" x="521.5" y="-7" font-family="Helvetica,sans-Serif" font-size="10.00">src/VehicleLaneController.cpp</text>
</a>
</g>
</g>
<!-- Node25&#45;&gt;Node26 -->
<g id="edge32" class="edge">
<title>Node25&#45;&gt;Node26</title>
<path fill="none" stroke="#63b8ff" d="M557.78,-46.78C548.72,-37.72 537.9,-26.9 530.44,-19.44"/>
<polygon fill="#63b8ff" stroke="#63b8ff" points="555.13,-49.08 564.68,-53.68 560.08,-44.13 555.13,-49.08"/>
</g>
<!-- Node27&#45;&gt;Node17 -->
<g id="edge34" class="edge">
<title>Node27&#45;&gt;Node17</title>
<path fill="none" stroke="#63b8ff" d="M1187.75,-102.64C1200.14,-93.39 1215.32,-82.05 1225.63,-74.36"/>
<polygon fill="#63b8ff" stroke="#63b8ff" points="1185.68,-99.82 1179.76,-108.6 1189.86,-105.43 1185.68,-99.82"/>
</g>
<!-- Node27&#45;&gt;Node21 -->
<g id="edge35" class="edge">
<title>Node27&#45;&gt;Node21</title>
<path fill="none" stroke="#63b8ff" d="M1227.76,-107.11C1262.17,-99.33 1300.23,-87.92 1310.5,-74 1323.95,-55.77 1301.18,-31.78 1286.48,-19.15"/>
<polygon fill="#63b8ff" stroke="#63b8ff" points="1227.26,-103.64 1218.23,-109.18 1228.75,-110.48 1227.26,-103.64"/>
</g>
<!-- Node29&#45;&gt;Node14 -->
<g id="edge40" class="edge">
<title>Node29&#45;&gt;Node14</title>
<path fill="none" stroke="#63b8ff" d="M1383.89,-59.94C1361.35,-58.4 1334.62,-56.59 1310.5,-55 1058.98,-38.45 995.43,-42.87 744.5,-19 741.7,-18.73 738.83,-18.44 735.94,-18.13"/>
<polygon fill="#63b8ff" stroke="#63b8ff" points="1383.53,-63.42 1393.74,-60.61 1384.01,-56.44 1383.53,-63.42"/>
</g>
<!-- Node29&#45;&gt;Node21 -->
<g id="edge42" class="edge">
<title>Node29&#45;&gt;Node21</title>
<path fill="none" stroke="#63b8ff" d="M1397.71,-50.98C1368.45,-41.29 1328.63,-28.1 1302.51,-19.45"/>
<polygon fill="#63b8ff" stroke="#63b8ff" points="1396.33,-54.21 1406.92,-54.03 1398.53,-47.57 1396.33,-54.21"/>
</g>
<!-- Node30 -->
<g id="node30" class="node">
<title>Node30</title>
<g id="a_node30"><a xlink:href="Pickups_8cpp.html" target="_top" xlink:title=" ">
<polygon fill="white" stroke="#666666" points="1481,-19 1390,-19 1390,0 1481,0 1481,-19"/>
<text text-anchor="middle" x="1435.5" y="-7" font-family="Helvetica,sans-Serif" font-size="10.00">src/Pickups.cpp</text>
</a>
</g>
</g>
<!-- Node29&#45;&gt;Node30 -->
<g id="edge41" class="edge">
<title>Node29&#45;&gt;Node30</title>
<path fill="none" stroke="#63b8ff" d="M1435.5,-43.35C1435.5,-35.1 1435.5,-25.97 1435.5,-19.44"/>
<polygon fill="#63b8ff" stroke="#63b8ff" points="1432,-43.23 1435.5,-53.23 1439,-43.23 1432,-43.23"/>
</g>
</g>
</svg>
        <g id="navigator" transform="translate(0 0)" fill="#404254">
                <rect fill="#f2f5e9" fill-opacity="0.5" stroke="#606060" stroke-width=".5" x="0" y="0" width="60" height="60"/>
                <use id="zoomplus" xlink:href="#zoomPlus" x="17" y="9" onmousedown="handleZoom(evt,'in')"/>
                <use id="zoomminus" xlink:href="#zoomMin" x="42" y="9" onmousedown="handleZoom(evt,'out')"/>
                <use id="reset" xlink:href="#resetDef" x="30" y="36" onmousedown="handleReset()"/>
                <g id="arrowUp" xlink:href="#dirArrow" transform="translate(30 24)" onmousedown="handlePan(0,-1)">
                  <use xlink:href="#rim" fill="#404040">
                        <set attributeName="fill" to="#808080" begin="arrowUp.mouseover" end="arrowUp.mouseout"/>
                  </use>
                  <path fill="none" stroke="white" stroke-width="1.5" d="M0,-3.0v7 M-2.5,-0.5L0,-3.0L2.5,-0.5"/>
                </g>
                <g id="arrowRight" xlink:href="#dirArrow" transform="rotate(90) translate(36 -43)" onmousedown="handlePan(1,0)">
                  <use xlink:href="#rim" fill="#404040">
                        <set attributeName="fill" to="#808080" begin="arrowRight.mouseover" end="arrowRight.mouseout"/>
                  </use>
                  <path fill="none" stroke="white" stroke-width="1.5" d="M0,-3.0v7 M-2.5,-0.5L0,-3.0L2.5,-0.5"/>
                </g>
                <g id="arrowDown" xlink:href="#dirArrow" transform="rotate(180) translate(-30 -48)" onmousedown="handlePan(0,1)">
                  <use xlink:href="#rim" fill="#404040">
                        <set attributeName="fill" to="#808080" begin="arrowDown.mouseover" end="arrowDown.mouseout"/>
                  </use>
                  <path fill="none" stroke="white" stroke-width="1.5" d="M0,-3.0v7 M-2.5,-0.5L0,-3.0L2.5,-0.5"/>
                </g>
                <g id="arrowLeft" xlink:href="#dirArrow" transform="rotate(270) translate(-36 17)" onmousedown="handlePan(-1,0)">
                  <use xlink:href="#rim" fill="#404040">
                        <set attributeName="fill" to="#808080" begin="arrowLeft.mouseover" end="arrowLeft.mouseout"/>
                  </use>
                  <path fill="none" stroke="white" stroke-width="1.5" d="M0,-3.0v7 M-2.5,-0.5L0,-3.0L2.5,-0.5"/>
                </g>
        </g>
        <svg viewBox="0 0 15 15" width="100%" height="30px" preserveAspectRatio="xMaxYMin meet">
         <g id="arrow_out" transform="scale(0.3 0.3)">
          <a xlink:href="PlayerCollidable_8h__dep__incl_org.svg" target="_base">
           <rect id="button" ry="5" rx="5" y="6" x="6" height="38" width="38"
                fill="#f2f5e9" fill-opacity="0.5" stroke="#606060" stroke-width="1.0"/>
           <path id="arrow"
             d="M 11.500037,31.436501 C 11.940474,20.09759 22.043105,11.32322 32.158766,21.979434 L 37.068811,17.246167 C 37.068811,17.246167 37.088388,32 37.088388,32 L 22.160133,31.978069 C 22.160133,31.978069 26.997745,27.140456 26.997745,27.140456 C 18.528582,18.264221 13.291696,25.230495 11.500037,31.436501 z"
             style="fill:#404040;"/>
          </a>
         </g>
        </svg>
</svg>
