<?xml version="1.0" encoding="UTF-8" standalone="no"?>
<!DOCTYPE svg PUBLIC "-//W3C//DTD SVG 1.1//EN"
 "http://www.w3.org/Graphics/SVG/1.1/DTD/svg11.dtd">
<!-- Generated by graphviz version 7.0.5 (0)
 -->
<!-- Title: src/PlayerState.h Pages: 1 -->
<svg width="2825pt" height="412pt"
 viewBox="0.00 0.00 2825.00 412.00" xmlns="http://www.w3.org/2000/svg" xmlns:xlink="http://www.w3.org/1999/xlink">
<g id="graph0" class="graph" transform="scale(1 1) rotate(0) translate(4 408)">
<title>src/PlayerState.h</title>
<!-- Node1 -->
<g id="node1" class="node">
<title>Node1</title>
<g id="a_node1"><a xlink:title=" ">
<polygon fill="#999999" stroke="#666666" points="2766.5,-404 2667.5,-404 2667.5,-385 2766.5,-385 2766.5,-404"/>
<text text-anchor="middle" x="2717" y="-392" font-family="Helvetica,sans-Serif" font-size="10.00">src/PlayerState.h</text>
</a>
</g>
</g>
<!-- Node2 -->
<g id="node2" class="node">
<title>Node2</title>
<g id="a_node2"><a xlink:href="Consts_8h.html" target="_top" xlink:title=" ">
<polygon fill="white" stroke="#666666" points="2245.5,-129 2186.5,-129 2186.5,-110 2245.5,-110 2245.5,-129"/>
<text text-anchor="middle" x="2216" y="-117" font-family="Helvetica,sans-Serif" font-size="10.00">Consts.h</text>
</a>
</g>
</g>
<!-- Node1&#45;&gt;Node2 -->
<g id="edge1" class="edge">
<title>Node1&#45;&gt;Node2</title>
<path fill="none" stroke="#63b8ff" d="M2720.34,-384.69C2726.93,-366.45 2741,-323.15 2741,-285.5 2741,-285.5 2741,-285.5 2741,-228.5 2741,-199.04 2744.83,-183.61 2722,-165 2686.27,-135.87 2371.33,-124.64 2257.13,-121.5"/>
<polygon fill="#63b8ff" stroke="#63b8ff" points="2257.38,-118.01 2247.29,-121.24 2257.2,-125 2257.38,-118.01"/>
</g>
<!-- Node3 -->
<g id="node3" class="node">
<title>Node3</title>
<g id="a_node3"><a xlink:title=" ">
<polygon fill="#e0e0e0" stroke="#999999" points="2353,-74 2243,-74 2243,-55 2353,-55 2353,-74"/>
<text text-anchor="middle" x="2298" y="-62" font-family="Helvetica,sans-Serif" font-size="10.00">SFML/Graphics.hpp</text>
</a>
</g>
</g>
<!-- Node1&#45;&gt;Node3 -->
<g id="edge55" class="edge">
<title>Node1&#45;&gt;Node3</title>
<path fill="none" stroke="#63b8ff" d="M2726.42,-384.68C2743.76,-367.42 2779,-327.23 2779,-285.5 2779,-285.5 2779,-285.5 2779,-228.5 2779,-196.06 2769.07,-184.31 2743,-165 2683.48,-120.91 2473.2,-88.11 2364.37,-73.66"/>
<polygon fill="#63b8ff" stroke="#63b8ff" points="2365.08,-70.22 2354.71,-72.39 2364.17,-77.16 2365.08,-70.22"/>
</g>
<!-- Node7 -->
<g id="node7" class="node">
<title>Node7</title>
<g id="a_node7"><a xlink:title=" ">
<polygon fill="#e0e0e0" stroke="#999999" points="2446,-19 2386,-19 2386,0 2446,0 2446,-19"/>
<text text-anchor="middle" x="2416" y="-7" font-family="Helvetica,sans-Serif" font-size="10.00">iostream</text>
</a>
</g>
</g>
<!-- Node1&#45;&gt;Node7 -->
<g id="edge58" class="edge">
<title>Node1&#45;&gt;Node7</title>
<path fill="none" stroke="#63b8ff" d="M2734.88,-384.61C2763.64,-368.89 2817,-333.28 2817,-285.5 2817,-285.5 2817,-285.5 2817,-118.5 2817,-44.73 2560.74,-19.89 2457.93,-12.89"/>
<polygon fill="#63b8ff" stroke="#63b8ff" points="2458.19,-9.4 2447.98,-12.24 2457.73,-16.38 2458.19,-9.4"/>
</g>
<!-- Node8 -->
<g id="node8" class="node">
<title>Node8</title>
<g id="a_node8"><a xlink:href="Player_8h.html" target="_top" xlink:title=" ">
<polygon fill="white" stroke="#666666" points="1052,-349 996,-349 996,-330 1052,-330 1052,-349"/>
<text text-anchor="middle" x="1024" y="-337" font-family="Helvetica,sans-Serif" font-size="10.00">Player.h</text>
</a>
</g>
</g>
<!-- Node1&#45;&gt;Node8 -->
<g id="edge7" class="edge">
<title>Node1&#45;&gt;Node8</title>
<path fill="none" stroke="#63b8ff" d="M2667.25,-391.94C2415.99,-384.08 1289.71,-348.82 1063.6,-341.74"/>
<polygon fill="#63b8ff" stroke="#63b8ff" points="1063.96,-338.25 1053.86,-341.43 1063.74,-345.25 1063.96,-338.25"/>
</g>
<!-- Node21 -->
<g id="node21" class="node">
<title>Node21</title>
<g id="a_node21"><a xlink:title=" ">
<polygon fill="#e0e0e0" stroke="#999999" points="2713,-184 2579,-184 2579,-165 2713,-165 2713,-184"/>
<text text-anchor="middle" x="2646" y="-172" font-family="Helvetica,sans-Serif" font-size="10.00">SFML/Graphics/Rect.hpp</text>
</a>
</g>
</g>
<!-- Node1&#45;&gt;Node21 -->
<g id="edge56" class="edge">
<title>Node1&#45;&gt;Node21</title>
<path fill="none" stroke="#63b8ff" d="M2714.13,-384.68C2703.62,-352.43 2667.13,-240.38 2652.32,-194.9"/>
<polygon fill="#63b8ff" stroke="#63b8ff" points="2655.72,-194.05 2649.3,-185.63 2649.07,-196.22 2655.72,-194.05"/>
</g>
<!-- Node27 -->
<g id="node27" class="node">
<title>Node27</title>
<g id="a_node27"><a xlink:title=" ">
<polygon fill="#e0e0e0" stroke="#999999" points="413.5,-184 270.5,-184 270.5,-165 413.5,-165 413.5,-184"/>
<text text-anchor="middle" x="342" y="-172" font-family="Helvetica,sans-Serif" font-size="10.00">SFML/System/Vector2.hpp</text>
</a>
</g>
</g>
<!-- Node1&#45;&gt;Node27 -->
<g id="edge57" class="edge">
<title>Node1&#45;&gt;Node27</title>
<path fill="none" stroke="#63b8ff" d="M2667.2,-393.81C2420.07,-395.1 1323.91,-397.94 987,-349 749.12,-314.45 473.57,-222.09 377.33,-188.2"/>
<polygon fill="#63b8ff" stroke="#63b8ff" points="378.78,-185 368.18,-184.96 376.44,-191.6 378.78,-185"/>
</g>
<!-- Node2&#45;&gt;Node3 -->
<g id="edge2" class="edge">
<title>Node2&#45;&gt;Node3</title>
<path fill="none" stroke="#63b8ff" d="M2229.91,-109.51C2242.24,-101.54 2260.47,-89.75 2274.97,-80.38"/>
<polygon fill="#63b8ff" stroke="#63b8ff" points="2276.53,-83.55 2283.02,-75.18 2272.73,-77.67 2276.53,-83.55"/>
</g>
<!-- Node4 -->
<g id="node4" class="node">
<title>Node4</title>
<g id="a_node4"><a xlink:href="Enums_8h.html" target="_top" xlink:title=" ">
<polygon fill="white" stroke="#666666" points="1860.5,-74 1801.5,-74 1801.5,-55 1860.5,-55 1860.5,-74"/>
<text text-anchor="middle" x="1831" y="-62" font-family="Helvetica,sans-Serif" font-size="10.00">Enums.h</text>
</a>
</g>
</g>
<!-- Node2&#45;&gt;Node4 -->
<g id="edge3" class="edge">
<title>Node2&#45;&gt;Node4</title>
<path fill="none" stroke="#63b8ff" d="M2186.18,-111.56C2183.42,-111 2180.66,-110.47 2178,-110 2068.18,-90.72 1937.43,-76.21 1872.24,-69.54"/>
<polygon fill="#63b8ff" stroke="#63b8ff" points="1872.65,-66.06 1862.35,-68.54 1871.95,-73.03 1872.65,-66.06"/>
</g>
<!-- Node5 -->
<g id="node5" class="node">
<title>Node5</title>
<g id="a_node5"><a xlink:href="Random_8h.html" target="_top" xlink:title=" ">
<polygon fill="white" stroke="#666666" points="2225,-74 2159,-74 2159,-55 2225,-55 2225,-74"/>
<text text-anchor="middle" x="2192" y="-62" font-family="Helvetica,sans-Serif" font-size="10.00">Random.h</text>
</a>
</g>
</g>
<!-- Node2&#45;&gt;Node5 -->
<g id="edge4" class="edge">
<title>Node2&#45;&gt;Node5</title>
<path fill="none" stroke="#63b8ff" d="M2212.04,-109.75C2208.96,-102.96 2204.59,-93.3 2200.71,-84.73"/>
<polygon fill="#63b8ff" stroke="#63b8ff" points="2203.99,-83.49 2196.67,-75.82 2197.61,-86.37 2203.99,-83.49"/>
</g>
<!-- Node6 -->
<g id="node6" class="node">
<title>Node6</title>
<g id="a_node6"><a xlink:title=" ">
<polygon fill="#e0e0e0" stroke="#999999" points="2219,-19 2165,-19 2165,0 2219,0 2219,-19"/>
<text text-anchor="middle" x="2192" y="-7" font-family="Helvetica,sans-Serif" font-size="10.00">random</text>
</a>
</g>
</g>
<!-- Node5&#45;&gt;Node6 -->
<g id="edge5" class="edge">
<title>Node5&#45;&gt;Node6</title>
<path fill="none" stroke="#63b8ff" d="M2192,-54.75C2192,-48.27 2192,-39.16 2192,-30.9"/>
<polygon fill="#63b8ff" stroke="#63b8ff" points="2195.5,-30.96 2192,-20.96 2188.5,-30.96 2195.5,-30.96"/>
</g>
<!-- Node5&#45;&gt;Node7 -->
<g id="edge6" class="edge">
<title>Node5&#45;&gt;Node7</title>
<path fill="none" stroke="#63b8ff" d="M2225.05,-55.68C2264.82,-46.27 2331.62,-30.47 2374.73,-20.26"/>
<polygon fill="#63b8ff" stroke="#63b8ff" points="2375.29,-23.73 2384.22,-18.02 2373.68,-16.92 2375.29,-23.73"/>
</g>
<!-- Node8&#45;&gt;Node4 -->
<g id="edge44" class="edge">
<title>Node8&#45;&gt;Node4</title>
<path fill="none" stroke="#63b8ff" d="M995.54,-338.57C830.16,-338.58 0,-333.51 0,-230.5 0,-230.5 0,-230.5 0,-173.5 0,-63.59 130.23,-125.75 239,-110 551.21,-64.79 1571.7,-64.82 1789.76,-65.36"/>
<polygon fill="#63b8ff" stroke="#63b8ff" points="1789.74,-68.86 1799.75,-65.39 1789.75,-61.86 1789.74,-68.86"/>
</g>
<!-- Node9 -->
<g id="node9" class="node">
<title>Node9</title>
<g id="a_node9"><a xlink:href="Effect_8h.html" target="_top" xlink:title=" ">
<polygon fill="white" stroke="#666666" points="959.5,-294 906.5,-294 906.5,-275 959.5,-275 959.5,-294"/>
<text text-anchor="middle" x="933" y="-282" font-family="Helvetica,sans-Serif" font-size="10.00">Effect.h</text>
</a>
</g>
</g>
<!-- Node8&#45;&gt;Node9 -->
<g id="edge8" class="edge">
<title>Node8&#45;&gt;Node9</title>
<path fill="none" stroke="#63b8ff" d="M1008.56,-329.51C994.75,-321.47 974.25,-309.53 958.09,-300.11"/>
<polygon fill="#63b8ff" stroke="#63b8ff" points="959.92,-297.13 949.52,-295.12 956.4,-303.18 959.92,-297.13"/>
</g>
<!-- Node10 -->
<g id="node10" class="node">
<title>Node10</title>
<g id="a_node10"><a xlink:href="Entity_8h.html" target="_top" xlink:title=" ">
<polygon fill="white" stroke="#666666" points="1837.5,-294 1784.5,-294 1784.5,-275 1837.5,-275 1837.5,-294"/>
<text text-anchor="middle" x="1811" y="-282" font-family="Helvetica,sans-Serif" font-size="10.00">Entity.h</text>
</a>
</g>
</g>
<!-- Node8&#45;&gt;Node10 -->
<g id="edge9" class="edge">
<title>Node8&#45;&gt;Node10</title>
<path fill="none" stroke="#63b8ff" d="M1052.47,-336.58C1172.31,-328.51 1635.79,-297.3 1772.71,-288.08"/>
<polygon fill="#63b8ff" stroke="#63b8ff" points="1772.94,-291.57 1782.68,-287.41 1772.47,-284.59 1772.94,-291.57"/>
</g>
<!-- Node19 -->
<g id="node19" class="node">
<title>Node19</title>
<g id="a_node19"><a xlink:href="SceneNode_8h.html" target="_top" xlink:title=" ">
<polygon fill="white" stroke="#666666" points="1134,-239 1054,-239 1054,-220 1134,-220 1134,-239"/>
<text text-anchor="middle" x="1094" y="-227" font-family="Helvetica,sans-Serif" font-size="10.00">SceneNode.h</text>
</a>
</g>
</g>
<!-- Node8&#45;&gt;Node19 -->
<g id="edge45" class="edge">
<title>Node8&#45;&gt;Node19</title>
<path fill="none" stroke="#63b8ff" d="M1029.73,-329.66C1041.11,-312.1 1066.79,-272.48 1082.02,-248.98"/>
<polygon fill="#63b8ff" stroke="#63b8ff" points="1084.87,-251.03 1087.37,-240.73 1078.99,-247.22 1084.87,-251.03"/>
</g>
<!-- Node8&#45;&gt;Node21 -->
<g id="edge53" class="edge">
<title>Node8&#45;&gt;Node21</title>
<path fill="none" stroke="#63b8ff" d="M1052.18,-338.15C1192.89,-336.06 1833.17,-322.18 2349,-239 2438.06,-224.64 2540.74,-201.11 2599.05,-187.08"/>
<polygon fill="#63b8ff" stroke="#63b8ff" points="2599.74,-190.52 2608.63,-184.76 2598.09,-183.71 2599.74,-190.52"/>
</g>
<!-- Node8&#45;&gt;Node27 -->
<g id="edge54" class="edge">
<title>Node8&#45;&gt;Node27</title>
<path fill="none" stroke="#63b8ff" d="M1019.23,-329.81C1011,-315.73 992.71,-288.18 969,-275 922.17,-248.96 584.71,-205.07 425.17,-185.47"/>
<polygon fill="#63b8ff" stroke="#63b8ff" points="425.85,-182.03 415.49,-184.29 424.99,-188.98 425.85,-182.03"/>
</g>
<!-- Node30 -->
<g id="node30" class="node">
<title>Node30</title>
<g id="a_node30"><a xlink:href="Effects_8h.html" target="_top" xlink:title=" ">
<polygon fill="white" stroke="#666666" points="271.5,-239 212.5,-239 212.5,-220 271.5,-220 271.5,-239"/>
<text text-anchor="middle" x="242" y="-227" font-family="Helvetica,sans-Serif" font-size="10.00">Effects.h</text>
</a>
</g>
</g>
<!-- Node8&#45;&gt;Node30 -->
<g id="edge46" class="edge">
<title>Node8&#45;&gt;Node30</title>
<path fill="none" stroke="#63b8ff" d="M995.71,-334.59C877.45,-318.26 422.46,-255.42 282.93,-236.15"/>
<polygon fill="#63b8ff" stroke="#63b8ff" points="283.8,-232.74 273.42,-234.84 282.85,-239.67 283.8,-232.74"/>
</g>
<!-- Node10&#45;&gt;Node4 -->
<g id="edge25" class="edge">
<title>Node10&#45;&gt;Node4</title>
<path fill="none" stroke="#63b8ff" d="M1811.81,-274.68C1814.76,-242.57 1824.96,-131.33 1829.17,-85.49"/>
<polygon fill="#63b8ff" stroke="#63b8ff" points="1832.64,-85.97 1830.06,-75.69 1825.67,-85.33 1832.64,-85.97"/>
</g>
<!-- Node11 -->
<g id="node11" class="node">
<title>Node11</title>
<g id="a_node11"><a xlink:href="AnimationMachine_8h.html" target="_top" xlink:title=" ">
<polygon fill="white" stroke="#666666" points="2264.5,-239 2147.5,-239 2147.5,-220 2264.5,-220 2264.5,-239"/>
<text text-anchor="middle" x="2206" y="-227" font-family="Helvetica,sans-Serif" font-size="10.00">AnimationMachine.h</text>
</a>
</g>
</g>
<!-- Node10&#45;&gt;Node11 -->
<g id="edge10" class="edge">
<title>Node10&#45;&gt;Node11</title>
<path fill="none" stroke="#63b8ff" d="M1837.84,-279.9C1898.39,-271.77 2047.24,-251.8 2136.02,-239.89"/>
<polygon fill="#63b8ff" stroke="#63b8ff" points="2136.4,-243.37 2145.84,-238.57 2135.46,-236.43 2136.4,-243.37"/>
</g>
<!-- Node14 -->
<g id="node14" class="node">
<title>Node14</title>
<g id="a_node14"><a xlink:title=" ">
<polygon fill="#e0e0e0" stroke="#999999" points="2008.5,-184 1877.5,-184 1877.5,-165 2008.5,-165 2008.5,-184"/>
<text text-anchor="middle" x="1943" y="-172" font-family="Helvetica,sans-Serif" font-size="10.00">SFML/System/Time.hpp</text>
</a>
</g>
</g>
<!-- Node10&#45;&gt;Node14 -->
<g id="edge42" class="edge">
<title>Node10&#45;&gt;Node14</title>
<path fill="none" stroke="#63b8ff" d="M1821.8,-274.66C1844.04,-256.47 1895.21,-214.6 1923.43,-191.51"/>
<polygon fill="#63b8ff" stroke="#63b8ff" points="1925.35,-194.46 1930.88,-185.42 1920.92,-189.04 1925.35,-194.46"/>
</g>
<!-- Node10&#45;&gt;Node19 -->
<g id="edge26" class="edge">
<title>Node10&#45;&gt;Node19</title>
<path fill="none" stroke="#63b8ff" d="M1784.2,-281.52C1678.24,-273.69 1287.43,-244.8 1145.74,-234.32"/>
<polygon fill="#63b8ff" stroke="#63b8ff" points="1146.13,-230.84 1135.9,-233.6 1145.62,-237.83 1146.13,-230.84"/>
</g>
<!-- Node10&#45;&gt;Node21 -->
<g id="edge41" class="edge">
<title>Node10&#45;&gt;Node21</title>
<path fill="none" stroke="#63b8ff" d="M1837.96,-281.6C1909.3,-276.43 2108.91,-260.99 2274,-239 2386.04,-224.07 2516.02,-200.43 2588.87,-186.59"/>
<polygon fill="#63b8ff" stroke="#63b8ff" points="2589.41,-190.05 2598.57,-184.74 2588.09,-183.18 2589.41,-190.05"/>
</g>
<!-- Node10&#45;&gt;Node27 -->
<g id="edge43" class="edge">
<title>Node10&#45;&gt;Node27</title>
<path fill="none" stroke="#63b8ff" d="M1784.09,-283.22C1665.59,-281.79 1189.7,-273.96 1045,-239 1024.69,-234.09 1022.3,-224.95 1002,-220 753.67,-159.4 682.78,-204.57 428,-184 426.99,-183.92 425.97,-183.83 424.94,-183.75"/>
<polygon fill="#63b8ff" stroke="#63b8ff" points="425.55,-180.29 415.29,-182.92 424.95,-187.26 425.55,-180.29"/>
</g>
<!-- Node11&#45;&gt;Node2 -->
<g id="edge17" class="edge">
<title>Node11&#45;&gt;Node2</title>
<path fill="none" stroke="#63b8ff" d="M2206.82,-219.66C2208.4,-202.57 2211.92,-164.61 2214.11,-140.92"/>
<polygon fill="#63b8ff" stroke="#63b8ff" points="2217.59,-141.25 2215.03,-130.97 2210.62,-140.6 2217.59,-141.25"/>
</g>
<!-- Node11&#45;&gt;Node3 -->
<g id="edge11" class="edge">
<title>Node11&#45;&gt;Node3</title>
<path fill="none" stroke="#63b8ff" d="M2210.95,-219.74C2225.36,-194.2 2267.56,-119.43 2287.43,-84.23"/>
<polygon fill="#63b8ff" stroke="#63b8ff" points="2290.42,-86.05 2292.29,-75.63 2284.32,-82.61 2290.42,-86.05"/>
</g>
<!-- Node11&#45;&gt;Node4 -->
<g id="edge18" class="edge">
<title>Node11&#45;&gt;Node4</title>
<path fill="none" stroke="#63b8ff" d="M2170.23,-219.58C2139.7,-211.55 2094.85,-198.76 2057,-184 2039.04,-177 2035.87,-172.24 2018,-165 1970.32,-145.69 1953.07,-153.79 1908,-129 1884.87,-116.27 1861.99,-96.2 1847.26,-82.03"/>
<polygon fill="#63b8ff" stroke="#63b8ff" points="1849.87,-79.69 1840.29,-75.16 1844.96,-84.67 1849.87,-79.69"/>
</g>
<!-- Node11&#45;&gt;Node7 -->
<g id="edge16" class="edge">
<title>Node11&#45;&gt;Node7</title>
<path fill="none" stroke="#63b8ff" d="M2264.92,-220.58C2358.68,-207.96 2531.45,-184.63 2532,-184 2578.74,-130.45 2485.74,-57.09 2439.71,-25.73"/>
<polygon fill="#63b8ff" stroke="#63b8ff" points="2441.67,-22.83 2431.41,-20.2 2437.79,-28.66 2441.67,-22.83"/>
</g>
<!-- Node12 -->
<g id="node12" class="node">
<title>Node12</title>
<g id="a_node12"><a xlink:title=" ">
<polygon fill="#e0e0e0" stroke="#999999" points="2432.5,-184 2291.5,-184 2291.5,-165 2432.5,-165 2432.5,-184"/>
<text text-anchor="middle" x="2362" y="-172" font-family="Helvetica,sans-Serif" font-size="10.00">SFML/Graphics/Sprite.hpp</text>
</a>
</g>
</g>
<!-- Node11&#45;&gt;Node12 -->
<g id="edge12" class="edge">
<title>Node11&#45;&gt;Node12</title>
<path fill="none" stroke="#63b8ff" d="M2232.46,-219.51C2257.86,-210.88 2296.47,-197.76 2324.92,-188.1"/>
<polygon fill="#63b8ff" stroke="#63b8ff" points="2325.89,-191.46 2334.23,-184.93 2323.64,-184.84 2325.89,-191.46"/>
</g>
<!-- Node13 -->
<g id="node13" class="node">
<title>Node13</title>
<g id="a_node13"><a xlink:title=" ">
<polygon fill="#e0e0e0" stroke="#999999" points="2168.5,-129 2019.5,-129 2019.5,-110 2168.5,-110 2168.5,-129"/>
<text text-anchor="middle" x="2094" y="-117" font-family="Helvetica,sans-Serif" font-size="10.00">SFML/Graphics/Texture.hpp</text>
</a>
</g>
</g>
<!-- Node11&#45;&gt;Node13 -->
<g id="edge13" class="edge">
<title>Node11&#45;&gt;Node13</title>
<path fill="none" stroke="#63b8ff" d="M2202.45,-219.8C2196.75,-206.66 2184.52,-181.55 2168,-165 2155.47,-152.45 2138.72,-141.99 2124.33,-134.38"/>
<polygon fill="#63b8ff" stroke="#63b8ff" points="2126.21,-131.41 2115.71,-130.03 2123.06,-137.66 2126.21,-131.41"/>
</g>
<!-- Node11&#45;&gt;Node14 -->
<g id="edge14" class="edge">
<title>Node11&#45;&gt;Node14</title>
<path fill="none" stroke="#63b8ff" d="M2161.39,-219.51C2116.48,-210.46 2047.1,-196.48 1998.62,-186.71"/>
<polygon fill="#63b8ff" stroke="#63b8ff" points="1999.37,-183.29 1988.88,-184.75 1997.99,-190.15 1999.37,-183.29"/>
</g>
<!-- Node15 -->
<g id="node15" class="node">
<title>Node15</title>
<g id="a_node15"><a xlink:title=" ">
<polygon fill="#e0e0e0" stroke="#999999" points="2523,-184 2451,-184 2451,-165 2523,-165 2523,-184"/>
<text text-anchor="middle" x="2487" y="-172" font-family="Helvetica,sans-Serif" font-size="10.00">sys/types.h</text>
</a>
</g>
</g>
<!-- Node11&#45;&gt;Node15 -->
<g id="edge15" class="edge">
<title>Node11&#45;&gt;Node15</title>
<path fill="none" stroke="#63b8ff" d="M2253.46,-219.55C2298.7,-211.03 2369.05,-197.77 2439.37,-184.5"/>
<polygon fill="#63b8ff" stroke="#63b8ff" points="2439.99,-187.94 2449.16,-182.65 2438.69,-181.06 2439.99,-187.94"/>
</g>
<!-- Node16 -->
<g id="node16" class="node">
<title>Node16</title>
<g id="a_node16"><a xlink:href="TextureHolder_8h.html" target="_top" xlink:title=" ">
<polygon fill="white" stroke="#666666" points="2158.5,-184 2065.5,-184 2065.5,-165 2158.5,-165 2158.5,-184"/>
<text text-anchor="middle" x="2112" y="-172" font-family="Helvetica,sans-Serif" font-size="10.00">TextureHolder.h</text>
</a>
</g>
</g>
<!-- Node11&#45;&gt;Node16 -->
<g id="edge19" class="edge">
<title>Node11&#45;&gt;Node16</title>
<path fill="none" stroke="#63b8ff" d="M2190.05,-219.51C2175.65,-211.39 2154.21,-199.3 2137.44,-189.85"/>
<polygon fill="#63b8ff" stroke="#63b8ff" points="2139.46,-186.96 2129.03,-185.1 2136.02,-193.06 2139.46,-186.96"/>
</g>
<!-- Node16&#45;&gt;Node2 -->
<g id="edge24" class="edge">
<title>Node16&#45;&gt;Node2</title>
<path fill="none" stroke="#63b8ff" d="M2129.64,-164.51C2145.73,-156.31 2169.75,-144.07 2188.37,-134.58"/>
<polygon fill="#63b8ff" stroke="#63b8ff" points="2189.95,-137.7 2197.27,-130.05 2186.77,-131.47 2189.95,-137.7"/>
</g>
<!-- Node16&#45;&gt;Node4 -->
<g id="edge23" class="edge">
<title>Node16&#45;&gt;Node4</title>
<path fill="none" stroke="#63b8ff" d="M2071.66,-164.52C2039.28,-156.76 1992.97,-144.37 1954,-129 1918.56,-115.03 1879.84,-94.01 1855.5,-80.03"/>
<polygon fill="#63b8ff" stroke="#63b8ff" points="1857.4,-77.09 1847,-75.09 1853.89,-83.14 1857.4,-77.09"/>
</g>
<!-- Node16&#45;&gt;Node13 -->
<g id="edge22" class="edge">
<title>Node16&#45;&gt;Node13</title>
<path fill="none" stroke="#63b8ff" d="M2109.03,-164.75C2106.77,-158.11 2103.59,-148.73 2100.73,-140.31"/>
<polygon fill="#63b8ff" stroke="#63b8ff" points="2104.05,-139.22 2097.52,-130.88 2097.43,-141.47 2104.05,-139.22"/>
</g>
<!-- Node17 -->
<g id="node17" class="node">
<title>Node17</title>
<g id="a_node17"><a xlink:title=" ">
<polygon fill="#e0e0e0" stroke="#999999" points="899,-129 841,-129 841,-110 899,-110 899,-129"/>
<text text-anchor="middle" x="870" y="-117" font-family="Helvetica,sans-Serif" font-size="10.00">memory</text>
</a>
</g>
</g>
<!-- Node16&#45;&gt;Node17 -->
<g id="edge20" class="edge">
<title>Node16&#45;&gt;Node17</title>
<path fill="none" stroke="#63b8ff" d="M2065.18,-168.79C2050.13,-167.4 2033.37,-165.99 2018,-165 1584.87,-137.04 1058.6,-124.46 910.49,-121.32"/>
<polygon fill="#63b8ff" stroke="#63b8ff" points="910.88,-117.82 900.81,-121.11 910.74,-124.82 910.88,-117.82"/>
</g>
<!-- Node18 -->
<g id="node18" class="node">
<title>Node18</title>
<g id="a_node18"><a xlink:title=" ">
<polygon fill="#e0e0e0" stroke="#999999" points="2001,-129 1963,-129 1963,-110 2001,-110 2001,-129"/>
<text text-anchor="middle" x="1982" y="-117" font-family="Helvetica,sans-Serif" font-size="10.00">map</text>
</a>
</g>
</g>
<!-- Node16&#45;&gt;Node18 -->
<g id="edge21" class="edge">
<title>Node16&#45;&gt;Node18</title>
<path fill="none" stroke="#63b8ff" d="M2089.95,-164.51C2068.43,-155.74 2035.56,-142.34 2011.74,-132.63"/>
<polygon fill="#63b8ff" stroke="#63b8ff" points="2013.17,-129.43 2002.59,-128.9 2010.53,-135.91 2013.17,-129.43"/>
</g>
<!-- Node19&#45;&gt;Node3 -->
<g id="edge28" class="edge">
<title>Node19&#45;&gt;Node3</title>
<path fill="none" stroke="#63b8ff" d="M1134.17,-227.77C1262.56,-225.16 1661.86,-214.71 1787,-184 1865.84,-164.65 1875.81,-131.85 1954,-110 2071.42,-77.19 2107.55,-89.5 2231.76,-74.25"/>
<polygon fill="#63b8ff" stroke="#63b8ff" points="2231.86,-77.76 2241.34,-73.03 2230.98,-70.82 2231.86,-77.76"/>
</g>
<!-- Node19&#45;&gt;Node4 -->
<g id="edge27" class="edge">
<title>Node19&#45;&gt;Node4</title>
<path fill="none" stroke="#63b8ff" d="M1053.57,-222.04C1048.02,-221.27 1042.37,-220.57 1037,-220 973.23,-213.26 504.91,-230.74 461,-184 455.22,-177.85 455.48,-171.39 461,-165 549.95,-61.89 1570.9,-63.57 1789.83,-65.13"/>
<polygon fill="#63b8ff" stroke="#63b8ff" points="1789.55,-68.62 1799.57,-65.2 1789.6,-61.62 1789.55,-68.62"/>
</g>
<!-- Node19&#45;&gt;Node7 -->
<g id="edge40" class="edge">
<title>Node19&#45;&gt;Node7</title>
<path fill="none" stroke="#63b8ff" d="M1134.22,-228.41C1269.98,-227.74 1705.53,-222.58 1754,-184 1800.86,-146.7 1746.21,-92.39 1793,-55 1804.39,-45.89 2236.98,-20.65 2374.49,-12.83"/>
<polygon fill="#63b8ff" stroke="#63b8ff" points="2374.45,-16.34 2384.23,-12.28 2374.05,-9.35 2374.45,-16.34"/>
</g>
<!-- Node19&#45;&gt;Node17 -->
<g id="edge37" class="edge">
<title>Node19&#45;&gt;Node17</title>
<path fill="none" stroke="#63b8ff" d="M1053.92,-221.97C998.01,-212.53 902.04,-195 890,-184 877.86,-172.91 873.03,-154.52 871.14,-140.38"/>
<polygon fill="#63b8ff" stroke="#63b8ff" points="874.67,-140.48 870.27,-130.85 867.7,-141.13 874.67,-140.48"/>
</g>
<!-- Node20 -->
<g id="node20" class="node">
<title>Node20</title>
<g id="a_node20"><a xlink:title=" ">
<polygon fill="#e0e0e0" stroke="#999999" points="1173.5,-184 1014.5,-184 1014.5,-165 1173.5,-165 1173.5,-184"/>
<text text-anchor="middle" x="1094" y="-172" font-family="Helvetica,sans-Serif" font-size="10.00">SFML/Graphics/Drawable.hpp</text>
</a>
</g>
</g>
<!-- Node19&#45;&gt;Node20 -->
<g id="edge29" class="edge">
<title>Node19&#45;&gt;Node20</title>
<path fill="none" stroke="#63b8ff" d="M1094,-219.75C1094,-213.27 1094,-204.16 1094,-195.9"/>
<polygon fill="#63b8ff" stroke="#63b8ff" points="1097.5,-195.96 1094,-185.96 1090.5,-195.96 1097.5,-195.96"/>
</g>
<!-- Node19&#45;&gt;Node21 -->
<g id="edge30" class="edge">
<title>Node19&#45;&gt;Node21</title>
<path fill="none" stroke="#63b8ff" d="M1134.34,-227.89C1304.28,-225.21 1978.59,-213.18 2532,-184 2543.41,-183.4 2555.46,-182.64 2567.28,-181.82"/>
<polygon fill="#63b8ff" stroke="#63b8ff" points="2567.28,-185.33 2577.01,-181.13 2566.78,-178.35 2567.28,-185.33"/>
</g>
<!-- Node22 -->
<g id="node22" class="node">
<title>Node22</title>
<g id="a_node22"><a xlink:title=" ">
<polygon fill="#e0e0e0" stroke="#999999" points="1370,-184 1192,-184 1192,-165 1370,-165 1370,-184"/>
<text text-anchor="middle" x="1281" y="-172" font-family="Helvetica,sans-Serif" font-size="10.00">SFML/Graphics/RenderStates.hpp</text>
</a>
</g>
</g>
<!-- Node19&#45;&gt;Node22 -->
<g id="edge31" class="edge">
<title>Node19&#45;&gt;Node22</title>
<path fill="none" stroke="#63b8ff" d="M1125.72,-219.51C1156.84,-210.69 1204.5,-197.18 1238.8,-187.46"/>
<polygon fill="#63b8ff" stroke="#63b8ff" points="1239.31,-190.95 1247.98,-184.86 1237.4,-184.22 1239.31,-190.95"/>
</g>
<!-- Node23 -->
<g id="node23" class="node">
<title>Node23</title>
<g id="a_node23"><a xlink:title=" ">
<polygon fill="#e0e0e0" stroke="#999999" points="1565.5,-184 1388.5,-184 1388.5,-165 1565.5,-165 1565.5,-184"/>
<text text-anchor="middle" x="1477" y="-172" font-family="Helvetica,sans-Serif" font-size="10.00">SFML/Graphics/RenderTarget.hpp</text>
</a>
</g>
</g>
<!-- Node19&#45;&gt;Node23 -->
<g id="edge32" class="edge">
<title>Node19&#45;&gt;Node23</title>
<path fill="none" stroke="#63b8ff" d="M1134.26,-222.93C1197.46,-214.18 1320.97,-197.09 1401.18,-185.99"/>
<polygon fill="#63b8ff" stroke="#63b8ff" points="1401.27,-189.51 1410.7,-184.67 1400.31,-182.58 1401.27,-189.51"/>
</g>
<!-- Node24 -->
<g id="node24" class="node">
<title>Node24</title>
<g id="a_node24"><a xlink:title=" ">
<polygon fill="#e0e0e0" stroke="#999999" points="1744.5,-184 1583.5,-184 1583.5,-165 1744.5,-165 1744.5,-184"/>
<text text-anchor="middle" x="1664" y="-172" font-family="Helvetica,sans-Serif" font-size="10.00">SFML/Graphics/Transform.hpp</text>
</a>
</g>
</g>
<!-- Node19&#45;&gt;Node24 -->
<g id="edge33" class="edge">
<title>Node19&#45;&gt;Node24</title>
<path fill="none" stroke="#63b8ff" d="M1134.23,-224.82C1215.02,-217.42 1403.05,-200.15 1572.11,-184.27"/>
<polygon fill="#63b8ff" stroke="#63b8ff" points="1572.34,-187.76 1581.96,-183.34 1571.68,-180.79 1572.34,-187.76"/>
</g>
<!-- Node25 -->
<g id="node25" class="node">
<title>Node25</title>
<g id="a_node25"><a xlink:title=" ">
<polygon fill="#e0e0e0" stroke="#999999" points="652,-184 470,-184 470,-165 652,-165 652,-184"/>
<text text-anchor="middle" x="561" y="-172" font-family="Helvetica,sans-Serif" font-size="10.00">SFML/Graphics/Transformable.hpp</text>
</a>
</g>
</g>
<!-- Node19&#45;&gt;Node25 -->
<g id="edge34" class="edge">
<title>Node19&#45;&gt;Node25</title>
<path fill="none" stroke="#63b8ff" d="M1053.64,-221.86C1049.05,-221.19 1044.43,-220.55 1040,-220 969.7,-211.21 782.21,-194.53 663.73,-184.27"/>
<polygon fill="#63b8ff" stroke="#63b8ff" points="664.26,-180.81 653.99,-183.43 663.66,-187.78 664.26,-180.81"/>
</g>
<!-- Node26 -->
<g id="node26" class="node">
<title>Node26</title>
<g id="a_node26"><a xlink:title=" ">
<polygon fill="#e0e0e0" stroke="#999999" points="842,-184 670,-184 670,-165 842,-165 842,-184"/>
<text text-anchor="middle" x="756" y="-172" font-family="Helvetica,sans-Serif" font-size="10.00">SFML/System/NonCopyable.hpp</text>
</a>
</g>
</g>
<!-- Node19&#45;&gt;Node26 -->
<g id="edge35" class="edge">
<title>Node19&#45;&gt;Node26</title>
<path fill="none" stroke="#63b8ff" d="M1053.6,-222.14C1049.02,-221.42 1044.41,-220.69 1040,-220 966.39,-208.44 882.05,-195.23 824.52,-186.22"/>
<polygon fill="#63b8ff" stroke="#63b8ff" points="825.3,-182.8 814.88,-184.71 824.22,-189.72 825.3,-182.8"/>
</g>
<!-- Node19&#45;&gt;Node27 -->
<g id="edge36" class="edge">
<title>Node19&#45;&gt;Node27</title>
<path fill="none" stroke="#63b8ff" d="M1053.66,-221.71C1049.06,-221.07 1044.43,-220.48 1040,-220 769.1,-190.78 699.63,-205.4 428,-184 426.99,-183.92 425.96,-183.84 424.94,-183.76"/>
<polygon fill="#63b8ff" stroke="#63b8ff" points="425.55,-180.29 415.29,-182.94 424.95,-187.27 425.55,-180.29"/>
</g>
<!-- Node28 -->
<g id="node28" class="node">
<title>Node28</title>
<g id="a_node28"><a xlink:title=" ">
<polygon fill="#e0e0e0" stroke="#999999" points="945.5,-184 898.5,-184 898.5,-165 945.5,-165 945.5,-184"/>
<text text-anchor="middle" x="922" y="-172" font-family="Helvetica,sans-Serif" font-size="10.00">vector</text>
</a>
</g>
</g>
<!-- Node19&#45;&gt;Node28 -->
<g id="edge38" class="edge">
<title>Node19&#45;&gt;Node28</title>
<path fill="none" stroke="#63b8ff" d="M1064.82,-219.51C1034.95,-210.3 988.51,-195.99 956.75,-186.21"/>
<polygon fill="#63b8ff" stroke="#63b8ff" points="957.81,-182.87 947.22,-183.27 955.74,-189.56 957.81,-182.87"/>
</g>
<!-- Node29 -->
<g id="node29" class="node">
<title>Node29</title>
<g id="a_node29"><a xlink:title=" ">
<polygon fill="#e0e0e0" stroke="#999999" points="996,-184 964,-184 964,-165 996,-165 996,-184"/>
<text text-anchor="middle" x="980" y="-172" font-family="Helvetica,sans-Serif" font-size="10.00">set</text>
</a>
</g>
</g>
<!-- Node19&#45;&gt;Node29 -->
<g id="edge39" class="edge">
<title>Node19&#45;&gt;Node29</title>
<path fill="none" stroke="#63b8ff" d="M1074.66,-219.51C1056.03,-210.85 1027.68,-197.67 1006.86,-187.99"/>
<polygon fill="#63b8ff" stroke="#63b8ff" points="1008.38,-184.84 997.84,-183.79 1005.43,-191.18 1008.38,-184.84"/>
</g>
<!-- Node30&#45;&gt;Node4 -->
<g id="edge48" class="edge">
<title>Node30&#45;&gt;Node4</title>
<path fill="none" stroke="#63b8ff" d="M212.34,-227.97C149.42,-225.85 11.84,-215.5 57,-165 116.74,-98.19 1530.35,-70.68 1790.17,-66.18"/>
<polygon fill="#63b8ff" stroke="#63b8ff" points="1789.87,-69.68 1799.81,-66.01 1789.75,-62.68 1789.87,-69.68"/>
</g>
<!-- Node30&#45;&gt;Node14 -->
<g id="edge52" class="edge">
<title>Node30&#45;&gt;Node14</title>
<path fill="none" stroke="#63b8ff" d="M271.85,-227.79C426.98,-224.09 1156.97,-206.21 1754,-184 1790.86,-182.63 1831.75,-180.82 1866.05,-179.23"/>
<polygon fill="#63b8ff" stroke="#63b8ff" points="1866.07,-182.73 1875.9,-178.77 1865.74,-175.74 1866.07,-182.73"/>
</g>
<!-- Node30&#45;&gt;Node17 -->
<g id="edge50" class="edge">
<title>Node30&#45;&gt;Node17</title>
<path fill="none" stroke="#63b8ff" d="M241.74,-219.86C241.84,-205.85 244.31,-178.4 261,-165 305.19,-129.52 700.43,-122.26 829.46,-120.84"/>
<polygon fill="#63b8ff" stroke="#63b8ff" points="829.27,-124.34 839.23,-120.73 829.19,-117.34 829.27,-124.34"/>
</g>
<!-- Node30&#45;&gt;Node27 -->
<g id="edge51" class="edge">
<title>Node30&#45;&gt;Node27</title>
<path fill="none" stroke="#63b8ff" d="M258.96,-219.51C274.36,-211.35 297.31,-199.19 315.19,-189.71"/>
<polygon fill="#63b8ff" stroke="#63b8ff" points="316.75,-192.84 323.95,-185.07 313.47,-186.66 316.75,-192.84"/>
</g>
<!-- Node31 -->
<g id="node31" class="node">
<title>Node31</title>
<g id="a_node31"><a xlink:title=" ">
<polygon fill="#e0e0e0" stroke="#999999" points="214,-184 150,-184 150,-165 214,-165 214,-184"/>
<text text-anchor="middle" x="182" y="-172" font-family="Helvetica,sans-Serif" font-size="10.00">algorithm</text>
</a>
</g>
</g>
<!-- Node30&#45;&gt;Node31 -->
<g id="edge47" class="edge">
<title>Node30&#45;&gt;Node31</title>
<path fill="none" stroke="#63b8ff" d="M231.82,-219.51C223.24,-211.93 210.73,-200.88 200.4,-191.75"/>
<polygon fill="#63b8ff" stroke="#63b8ff" points="202.97,-189.36 193.16,-185.36 198.34,-194.6 202.97,-189.36"/>
</g>
<!-- Node32 -->
<g id="node32" class="node">
<title>Node32</title>
<g id="a_node32"><a xlink:title=" ">
<polygon fill="#e0e0e0" stroke="#999999" points="131.5,-184 66.5,-184 66.5,-165 131.5,-165 131.5,-184"/>
<text text-anchor="middle" x="99" y="-172" font-family="Helvetica,sans-Serif" font-size="10.00">functional</text>
</a>
</g>
</g>
<!-- Node30&#45;&gt;Node32 -->
<g id="edge49" class="edge">
<title>Node30&#45;&gt;Node32</title>
<path fill="none" stroke="#63b8ff" d="M217.74,-219.51C194.59,-210.93 159.49,-197.92 133.44,-188.27"/>
<polygon fill="#63b8ff" stroke="#63b8ff" points="134.91,-185.08 124.32,-184.88 132.48,-191.64 134.91,-185.08"/>
</g>
</g>
</svg>
