<?xml version="1.0" encoding="UTF-8" standalone="no"?>
<!DOCTYPE svg PUBLIC "-//W3C//DTD SVG 1.1//EN"
 "http://www.w3.org/Graphics/SVG/1.1/DTD/svg11.dtd">
<!-- Generated by graphviz version 7.0.5 (0)
 -->
<!-- Title: src/PlayerState.cpp Pages: 1 -->
<svg width="3388pt" height="467pt"
 viewBox="0.00 0.00 3388.00 467.00" xmlns="http://www.w3.org/2000/svg" xmlns:xlink="http://www.w3.org/1999/xlink">
<g id="graph0" class="graph" transform="scale(1 1) rotate(0) translate(4 463)">
<title>src/PlayerState.cpp</title>
<!-- Node1 -->
<g id="node1" class="node">
<title>Node1</title>
<g id="a_node1"><a xlink:title=" ">
<polygon fill="#999999" stroke="#666666" points="2667,-459 2557,-459 2557,-440 2667,-440 2667,-459"/>
<text text-anchor="middle" x="2612" y="-447" font-family="Helvetica,sans-Serif" font-size="10.00">src/PlayerState.cpp</text>
</a>
</g>
</g>
<!-- Node2 -->
<g id="node2" class="node">
<title>Node2</title>
<g id="a_node2"><a xlink:href="PlayerState_8h.html" target="_top" xlink:title=" ">
<polygon fill="white" stroke="#666666" points="212,-404 130,-404 130,-385 212,-385 212,-404"/>
<text text-anchor="middle" x="171" y="-392" font-family="Helvetica,sans-Serif" font-size="10.00">PlayerState.h</text>
</a>
</g>
</g>
<!-- Node1&#45;&gt;Node2 -->
<g id="edge1" class="edge">
<title>Node1&#45;&gt;Node2</title>
<path fill="none" stroke="#63b8ff" d="M2556.72,-447.3C2228.85,-440.18 542.83,-403.57 223.3,-396.64"/>
<polygon fill="#63b8ff" stroke="#63b8ff" points="223.68,-393.14 213.6,-396.43 223.52,-400.14 223.68,-393.14"/>
</g>
<!-- Node3 -->
<g id="node3" class="node">
<title>Node3</title>
<g id="a_node3"><a xlink:href="Consts_8h.html" target="_top" xlink:title=" ">
<polygon fill="white" stroke="#666666" points="1965.5,-129 1906.5,-129 1906.5,-110 1965.5,-110 1965.5,-129"/>
<text text-anchor="middle" x="1936" y="-117" font-family="Helvetica,sans-Serif" font-size="10.00">Consts.h</text>
</a>
</g>
</g>
<!-- Node1&#45;&gt;Node3 -->
<g id="edge60" class="edge">
<title>Node1&#45;&gt;Node3</title>
<path fill="none" stroke="#63b8ff" d="M2667.47,-442.9C2727.88,-433.37 2816,-407.92 2816,-340.5 2816,-340.5 2816,-340.5 2816,-228.5 2816,-198.91 2819.4,-183.11 2796,-165 2779.62,-152.32 2146.74,-128.23 1977.34,-122"/>
<polygon fill="#63b8ff" stroke="#63b8ff" points="1977.6,-118.51 1967.47,-121.64 1977.34,-125.5 1977.6,-118.51"/>
</g>
<!-- Node9 -->
<g id="node9" class="node">
<title>Node9</title>
<g id="a_node9"><a xlink:href="Player_8h.html" target="_top" xlink:title=" ">
<polygon fill="white" stroke="#666666" points="2259,-349 2203,-349 2203,-330 2259,-330 2259,-349"/>
<text text-anchor="middle" x="2231" y="-337" font-family="Helvetica,sans-Serif" font-size="10.00">Player.h</text>
</a>
</g>
</g>
<!-- Node1&#45;&gt;Node9 -->
<g id="edge61" class="edge">
<title>Node1&#45;&gt;Node9</title>
<path fill="none" stroke="#63b8ff" d="M2580.5,-439.57C2511.31,-419.96 2346.21,-373.16 2270.35,-351.65"/>
<polygon fill="#63b8ff" stroke="#63b8ff" points="2271.43,-348.32 2260.85,-348.96 2269.52,-355.06 2271.43,-348.32"/>
</g>
<!-- Node15 -->
<g id="node15" class="node">
<title>Node15</title>
<g id="a_node15"><a xlink:title=" ">
<polygon fill="#e0e0e0" stroke="#999999" points="2545.5,-184 2414.5,-184 2414.5,-165 2545.5,-165 2545.5,-184"/>
<text text-anchor="middle" x="2480" y="-172" font-family="Helvetica,sans-Serif" font-size="10.00">SFML/System/Time.hpp</text>
</a>
</g>
</g>
<!-- Node1&#45;&gt;Node15 -->
<g id="edge62" class="edge">
<title>Node1&#45;&gt;Node15</title>
<path fill="none" stroke="#63b8ff" d="M2612,-439.54C2612,-421.03 2612,-377.25 2612,-340.5 2612,-340.5 2612,-340.5 2612,-283.5 2612,-234.92 2557.78,-204.25 2518.84,-188.48"/>
<polygon fill="#63b8ff" stroke="#63b8ff" points="2520.32,-185.3 2509.73,-184.97 2517.8,-191.84 2520.32,-185.3"/>
</g>
<!-- Node34 -->
<g id="node34" class="node">
<title>Node34</title>
<g id="a_node34"><a xlink:href="AudioController_8h.html" target="_top" xlink:title=" ">
<polygon fill="white" stroke="#666666" points="2983.5,-184 2882.5,-184 2882.5,-165 2983.5,-165 2983.5,-184"/>
<text text-anchor="middle" x="2933" y="-172" font-family="Helvetica,sans-Serif" font-size="10.00">AudioController.h</text>
</a>
</g>
</g>
<!-- Node1&#45;&gt;Node34 -->
<g id="edge63" class="edge">
<title>Node1&#45;&gt;Node34</title>
<path fill="none" stroke="#63b8ff" d="M2667.42,-446.06C2713.38,-442.02 2779.19,-431.45 2830,-404 2864.98,-385.1 2893,-380.26 2893,-340.5 2893,-340.5 2893,-340.5 2893,-283.5 2893,-250.45 2909.68,-215.05 2921.49,-194.12"/>
<polygon fill="#63b8ff" stroke="#63b8ff" points="2924.43,-196.03 2926.5,-185.64 2918.4,-192.47 2924.43,-196.03"/>
</g>
<!-- Node2&#45;&gt;Node3 -->
<g id="edge2" class="edge">
<title>Node2&#45;&gt;Node3</title>
<path fill="none" stroke="#63b8ff" d="M154.45,-384.63C127.23,-368.69 76,-332.45 76,-285.5 76,-285.5 76,-285.5 76,-228.5 76,-199.04 71.55,-182.83 95,-165 133.53,-135.71 1735.41,-134.88 1895.07,-128.3"/>
<polygon fill="#63b8ff" stroke="#63b8ff" points="1895.02,-131.81 1904.78,-127.69 1894.58,-124.82 1895.02,-131.81"/>
</g>
<!-- Node4 -->
<g id="node4" class="node">
<title>Node4</title>
<g id="a_node4"><a xlink:title=" ">
<polygon fill="#e0e0e0" stroke="#999999" points="1043,-74 933,-74 933,-55 1043,-55 1043,-74"/>
<text text-anchor="middle" x="988" y="-62" font-family="Helvetica,sans-Serif" font-size="10.00">SFML/Graphics.hpp</text>
</a>
</g>
</g>
<!-- Node2&#45;&gt;Node4 -->
<g id="edge56" class="edge">
<title>Node2&#45;&gt;Node4</title>
<path fill="none" stroke="#63b8ff" d="M142.14,-384.52C103.02,-370.33 38,-338.74 38,-285.5 38,-285.5 38,-285.5 38,-173.5 38,-84.46 705.28,-68.81 921.36,-66.07"/>
<polygon fill="#63b8ff" stroke="#63b8ff" points="921.35,-69.58 931.3,-65.95 921.26,-62.58 921.35,-69.58"/>
</g>
<!-- Node8 -->
<g id="node8" class="node">
<title>Node8</title>
<g id="a_node8"><a xlink:title=" ">
<polygon fill="#e0e0e0" stroke="#999999" points="1011,-19 951,-19 951,0 1011,0 1011,-19"/>
<text text-anchor="middle" x="981" y="-7" font-family="Helvetica,sans-Serif" font-size="10.00">iostream</text>
</a>
</g>
</g>
<!-- Node2&#45;&gt;Node8 -->
<g id="edge59" class="edge">
<title>Node2&#45;&gt;Node8</title>
<path fill="none" stroke="#63b8ff" d="M129.61,-386.16C79,-374.53 0,-346.6 0,-285.5 0,-285.5 0,-285.5 0,-118.5 0,-22.47 752.37,-11.81 939.33,-10.64"/>
<polygon fill="#63b8ff" stroke="#63b8ff" points="939.07,-14.14 949.05,-10.59 939.03,-7.14 939.07,-14.14"/>
</g>
<!-- Node2&#45;&gt;Node9 -->
<g id="edge8" class="edge">
<title>Node2&#45;&gt;Node9</title>
<path fill="none" stroke="#63b8ff" d="M212.15,-392.44C476.32,-385.64 1931.11,-348.22 2191.2,-341.52"/>
<polygon fill="#63b8ff" stroke="#63b8ff" points="2191.25,-345.02 2201.16,-341.27 2191.07,-338.03 2191.25,-345.02"/>
</g>
<!-- Node22 -->
<g id="node22" class="node">
<title>Node22</title>
<g id="a_node22"><a xlink:title=" ">
<polygon fill="#e0e0e0" stroke="#999999" points="238,-184 104,-184 104,-165 238,-165 238,-184"/>
<text text-anchor="middle" x="171" y="-172" font-family="Helvetica,sans-Serif" font-size="10.00">SFML/Graphics/Rect.hpp</text>
</a>
</g>
</g>
<!-- Node2&#45;&gt;Node22 -->
<g id="edge57" class="edge">
<title>Node2&#45;&gt;Node22</title>
<path fill="none" stroke="#63b8ff" d="M171,-384.68C171,-352.57 171,-241.33 171,-195.49"/>
<polygon fill="#63b8ff" stroke="#63b8ff" points="174.5,-195.7 171,-185.7 167.5,-195.7 174.5,-195.7"/>
</g>
<!-- Node28 -->
<g id="node28" class="node">
<title>Node28</title>
<g id="a_node28"><a xlink:title=" ">
<polygon fill="#e0e0e0" stroke="#999999" points="2357.5,-184 2214.5,-184 2214.5,-165 2357.5,-165 2357.5,-184"/>
<text text-anchor="middle" x="2286" y="-172" font-family="Helvetica,sans-Serif" font-size="10.00">SFML/System/Vector2.hpp</text>
</a>
</g>
</g>
<!-- Node2&#45;&gt;Node28 -->
<g id="edge58" class="edge">
<title>Node2&#45;&gt;Node28</title>
<path fill="none" stroke="#63b8ff" d="M212.33,-391.08C405.39,-379.53 1237.51,-326.84 1915,-239 2027.11,-224.46 2157.12,-200.58 2229.64,-186.61"/>
<polygon fill="#63b8ff" stroke="#63b8ff" points="2230.14,-190.08 2239.29,-184.75 2228.81,-183.21 2230.14,-190.08"/>
</g>
<!-- Node3&#45;&gt;Node4 -->
<g id="edge3" class="edge">
<title>Node3&#45;&gt;Node4</title>
<path fill="none" stroke="#63b8ff" d="M1906.28,-111.49C1903.16,-110.91 1900.02,-110.4 1897,-110 1583.87,-68.5 1205.45,-64.68 1054.68,-65"/>
<polygon fill="#63b8ff" stroke="#63b8ff" points="1054.87,-61.5 1044.88,-65.02 1054.89,-68.5 1054.87,-61.5"/>
</g>
<!-- Node5 -->
<g id="node5" class="node">
<title>Node5</title>
<g id="a_node5"><a xlink:href="Enums_8h.html" target="_top" xlink:title=" ">
<polygon fill="white" stroke="#666666" points="2179.5,-74 2120.5,-74 2120.5,-55 2179.5,-55 2179.5,-74"/>
<text text-anchor="middle" x="2150" y="-62" font-family="Helvetica,sans-Serif" font-size="10.00">Enums.h</text>
</a>
</g>
</g>
<!-- Node3&#45;&gt;Node5 -->
<g id="edge4" class="edge">
<title>Node3&#45;&gt;Node5</title>
<path fill="none" stroke="#63b8ff" d="M1965.76,-111.13C2003.1,-101.88 2067.33,-85.97 2109.23,-75.6"/>
<polygon fill="#63b8ff" stroke="#63b8ff" points="2109.82,-79.06 2118.68,-73.26 2108.14,-72.26 2109.82,-79.06"/>
</g>
<!-- Node6 -->
<g id="node6" class="node">
<title>Node6</title>
<g id="a_node6"><a xlink:href="Random_8h.html" target="_top" xlink:title=" ">
<polygon fill="white" stroke="#666666" points="1887,-74 1821,-74 1821,-55 1887,-55 1887,-74"/>
<text text-anchor="middle" x="1854" y="-62" font-family="Helvetica,sans-Serif" font-size="10.00">Random.h</text>
</a>
</g>
</g>
<!-- Node3&#45;&gt;Node6 -->
<g id="edge5" class="edge">
<title>Node3&#45;&gt;Node6</title>
<path fill="none" stroke="#63b8ff" d="M1922.09,-109.51C1909.76,-101.54 1891.53,-89.75 1877.03,-80.38"/>
<polygon fill="#63b8ff" stroke="#63b8ff" points="1879.27,-77.67 1868.98,-75.18 1875.47,-83.55 1879.27,-77.67"/>
</g>
<!-- Node7 -->
<g id="node7" class="node">
<title>Node7</title>
<g id="a_node7"><a xlink:title=" ">
<polygon fill="#e0e0e0" stroke="#999999" points="1881,-19 1827,-19 1827,0 1881,0 1881,-19"/>
<text text-anchor="middle" x="1854" y="-7" font-family="Helvetica,sans-Serif" font-size="10.00">random</text>
</a>
</g>
</g>
<!-- Node6&#45;&gt;Node7 -->
<g id="edge6" class="edge">
<title>Node6&#45;&gt;Node7</title>
<path fill="none" stroke="#63b8ff" d="M1854,-54.75C1854,-48.27 1854,-39.16 1854,-30.9"/>
<polygon fill="#63b8ff" stroke="#63b8ff" points="1857.5,-30.96 1854,-20.96 1850.5,-30.96 1857.5,-30.96"/>
</g>
<!-- Node6&#45;&gt;Node8 -->
<g id="edge7" class="edge">
<title>Node6&#45;&gt;Node8</title>
<path fill="none" stroke="#63b8ff" d="M1820.59,-61.24C1794.55,-59.5 1757.48,-57.04 1725,-55 1457.46,-38.18 1135.7,-19.44 1022.68,-12.9"/>
<polygon fill="#63b8ff" stroke="#63b8ff" points="1023.17,-9.43 1012.99,-12.34 1022.77,-16.42 1023.17,-9.43"/>
</g>
<!-- Node9&#45;&gt;Node5 -->
<g id="edge45" class="edge">
<title>Node9&#45;&gt;Node5</title>
<path fill="none" stroke="#63b8ff" d="M2259.36,-335.74C2341.54,-326.95 2574,-296.29 2574,-230.5 2574,-230.5 2574,-230.5 2574,-173.5 2574,-132.79 2544.74,-127.52 2508,-110 2452.7,-83.64 2272.86,-71.58 2191.11,-67.36"/>
<polygon fill="#63b8ff" stroke="#63b8ff" points="2191.46,-63.87 2181.3,-66.87 2191.11,-70.86 2191.46,-63.87"/>
</g>
<!-- Node10 -->
<g id="node10" class="node">
<title>Node10</title>
<g id="a_node10"><a xlink:href="Effect_8h.html" target="_top" xlink:title=" ">
<polygon fill="white" stroke="#666666" points="2147.5,-294 2094.5,-294 2094.5,-275 2147.5,-275 2147.5,-294"/>
<text text-anchor="middle" x="2121" y="-282" font-family="Helvetica,sans-Serif" font-size="10.00">Effect.h</text>
</a>
</g>
</g>
<!-- Node9&#45;&gt;Node10 -->
<g id="edge9" class="edge">
<title>Node9&#45;&gt;Node10</title>
<path fill="none" stroke="#63b8ff" d="M2212.34,-329.51C2195.17,-321.24 2169.45,-308.84 2149.67,-299.31"/>
<polygon fill="#63b8ff" stroke="#63b8ff" points="2151.28,-296.2 2140.75,-295.01 2148.24,-302.51 2151.28,-296.2"/>
</g>
<!-- Node11 -->
<g id="node11" class="node">
<title>Node11</title>
<g id="a_node11"><a xlink:href="Entity_8h.html" target="_top" xlink:title=" ">
<polygon fill="white" stroke="#666666" points="2257.5,-294 2204.5,-294 2204.5,-275 2257.5,-275 2257.5,-294"/>
<text text-anchor="middle" x="2231" y="-282" font-family="Helvetica,sans-Serif" font-size="10.00">Entity.h</text>
</a>
</g>
</g>
<!-- Node9&#45;&gt;Node11 -->
<g id="edge10" class="edge">
<title>Node9&#45;&gt;Node11</title>
<path fill="none" stroke="#63b8ff" d="M2231,-329.75C2231,-323.27 2231,-314.16 2231,-305.9"/>
<polygon fill="#63b8ff" stroke="#63b8ff" points="2234.5,-305.96 2231,-295.96 2227.5,-305.96 2234.5,-305.96"/>
</g>
<!-- Node20 -->
<g id="node20" class="node">
<title>Node20</title>
<g id="a_node20"><a xlink:href="SceneNode_8h.html" target="_top" xlink:title=" ">
<polygon fill="white" stroke="#666666" points="1263,-239 1183,-239 1183,-220 1263,-220 1263,-239"/>
<text text-anchor="middle" x="1223" y="-227" font-family="Helvetica,sans-Serif" font-size="10.00">SceneNode.h</text>
</a>
</g>
</g>
<!-- Node9&#45;&gt;Node20 -->
<g id="edge46" class="edge">
<title>Node9&#45;&gt;Node20</title>
<path fill="none" stroke="#63b8ff" d="M2224.25,-329.93C2212.3,-315.49 2185.84,-286.75 2156,-275 2074.01,-242.72 1458.68,-233.17 1274.77,-231.03"/>
<polygon fill="#63b8ff" stroke="#63b8ff" points="1274.84,-227.53 1264.8,-230.92 1274.76,-234.53 1274.84,-227.53"/>
</g>
<!-- Node9&#45;&gt;Node22 -->
<g id="edge54" class="edge">
<title>Node9&#45;&gt;Node22</title>
<path fill="none" stroke="#63b8ff" d="M2202.5,-336.56C2024.51,-324.4 1047.34,-256.76 252,-184 251.16,-183.92 250.31,-183.84 249.45,-183.77"/>
<polygon fill="#63b8ff" stroke="#63b8ff" points="249.96,-180.3 239.68,-182.83 249.3,-187.27 249.96,-180.3"/>
</g>
<!-- Node9&#45;&gt;Node28 -->
<g id="edge55" class="edge">
<title>Node9&#45;&gt;Node28</title>
<path fill="none" stroke="#63b8ff" d="M2240.32,-329.53C2248.45,-321.13 2259.87,-307.84 2266,-294 2280.39,-261.5 2284.49,-219.77 2285.61,-195.49"/>
<polygon fill="#63b8ff" stroke="#63b8ff" points="2289.1,-195.87 2285.93,-185.76 2282.11,-195.64 2289.1,-195.87"/>
</g>
<!-- Node31 -->
<g id="node31" class="node">
<title>Node31</title>
<g id="a_node31"><a xlink:href="Effects_8h.html" target="_top" xlink:title=" ">
<polygon fill="white" stroke="#666666" points="2699.5,-239 2640.5,-239 2640.5,-220 2699.5,-220 2699.5,-239"/>
<text text-anchor="middle" x="2670" y="-227" font-family="Helvetica,sans-Serif" font-size="10.00">Effects.h</text>
</a>
</g>
</g>
<!-- Node9&#45;&gt;Node31 -->
<g id="edge47" class="edge">
<title>Node9&#45;&gt;Node31</title>
<path fill="none" stroke="#63b8ff" d="M2259.46,-336.9C2333.13,-332.44 2528.46,-318.58 2588,-294 2613.88,-283.32 2638.57,-262.19 2653.97,-247.24"/>
<polygon fill="#63b8ff" stroke="#63b8ff" points="2656.26,-249.91 2660.84,-240.35 2651.3,-244.97 2656.26,-249.91"/>
</g>
<!-- Node11&#45;&gt;Node5 -->
<g id="edge26" class="edge">
<title>Node11&#45;&gt;Node5</title>
<path fill="none" stroke="#63b8ff" d="M2257.69,-274.88C2303.49,-258.45 2389.92,-219.38 2366,-165 2336.65,-98.28 2245.05,-76.26 2191.02,-69.02"/>
<polygon fill="#63b8ff" stroke="#63b8ff" points="2191.63,-65.57 2181.28,-67.84 2190.78,-72.52 2191.63,-65.57"/>
</g>
<!-- Node12 -->
<g id="node12" class="node">
<title>Node12</title>
<g id="a_node12"><a xlink:href="AnimationMachine_8h.html" target="_top" xlink:title=" ">
<polygon fill="white" stroke="#666666" points="1906.5,-239 1789.5,-239 1789.5,-220 1906.5,-220 1906.5,-239"/>
<text text-anchor="middle" x="1848" y="-227" font-family="Helvetica,sans-Serif" font-size="10.00">AnimationMachine.h</text>
</a>
</g>
</g>
<!-- Node11&#45;&gt;Node12 -->
<g id="edge11" class="edge">
<title>Node11&#45;&gt;Node12</title>
<path fill="none" stroke="#63b8ff" d="M2204.15,-277.63C2199.44,-276.69 2194.59,-275.77 2190,-275 2096.32,-259.22 1987.39,-245.9 1918.09,-238.06"/>
<polygon fill="#63b8ff" stroke="#63b8ff" points="1918.73,-234.61 1908.4,-236.97 1917.95,-241.57 1918.73,-234.61"/>
</g>
<!-- Node11&#45;&gt;Node15 -->
<g id="edge43" class="edge">
<title>Node11&#45;&gt;Node15</title>
<path fill="none" stroke="#63b8ff" d="M2257.97,-279.91C2292.39,-274.56 2353.07,-262.5 2400,-239 2424.39,-226.79 2448.35,-206.33 2463.59,-191.94"/>
<polygon fill="#63b8ff" stroke="#63b8ff" points="2465.67,-194.8 2470.41,-185.33 2460.8,-189.78 2465.67,-194.8"/>
</g>
<!-- Node11&#45;&gt;Node20 -->
<g id="edge27" class="edge">
<title>Node11&#45;&gt;Node20</title>
<path fill="none" stroke="#63b8ff" d="M2204.2,-277.31C2199.49,-276.4 2194.62,-275.58 2190,-275 1842.17,-231.22 1419.13,-229.24 1274.4,-230.01"/>
<polygon fill="#63b8ff" stroke="#63b8ff" points="1274.76,-226.51 1264.78,-230.07 1274.8,-233.51 1274.76,-226.51"/>
</g>
<!-- Node11&#45;&gt;Node22 -->
<g id="edge42" class="edge">
<title>Node11&#45;&gt;Node22</title>
<path fill="none" stroke="#63b8ff" d="M2204.32,-279.98C2190.01,-278.21 2172.07,-276.2 2156,-275 1938.24,-258.69 1386.8,-288.01 1174,-239 1153.64,-234.31 1151.35,-224.73 1131,-220 940.58,-175.72 446.98,-198.21 252,-184 251.15,-183.94 250.3,-183.87 249.45,-183.81"/>
<polygon fill="#63b8ff" stroke="#63b8ff" points="249.92,-180.34 239.66,-183 249.34,-187.31 249.92,-180.34"/>
</g>
<!-- Node11&#45;&gt;Node28 -->
<g id="edge44" class="edge">
<title>Node11&#45;&gt;Node28</title>
<path fill="none" stroke="#63b8ff" d="M2235.5,-274.66C2244.36,-257.26 2264.26,-218.19 2276.26,-194.62"/>
<polygon fill="#63b8ff" stroke="#63b8ff" points="2279.33,-196.31 2280.75,-185.81 2273.09,-193.13 2279.33,-196.31"/>
</g>
<!-- Node12&#45;&gt;Node3 -->
<g id="edge18" class="edge">
<title>Node12&#45;&gt;Node3</title>
<path fill="none" stroke="#63b8ff" d="M1906.93,-219.74C1965.05,-210.5 2046.55,-195.68 2056,-184 2080.97,-153.13 2021.12,-135.39 1977.27,-126.87"/>
<polygon fill="#63b8ff" stroke="#63b8ff" points="1977.92,-123.43 1967.45,-125.07 1976.66,-130.32 1977.92,-123.43"/>
</g>
<!-- Node12&#45;&gt;Node4 -->
<g id="edge12" class="edge">
<title>Node12&#45;&gt;Node4</title>
<path fill="none" stroke="#63b8ff" d="M1819.32,-219.55C1775.74,-206.21 1690.09,-180.96 1616,-165 1413.34,-121.35 1170.05,-88.2 1054.81,-73.63"/>
<polygon fill="#63b8ff" stroke="#63b8ff" points="1055.26,-70.16 1044.9,-72.38 1054.39,-77.1 1055.26,-70.16"/>
</g>
<!-- Node12&#45;&gt;Node5 -->
<g id="edge19" class="edge">
<title>Node12&#45;&gt;Node5</title>
<path fill="none" stroke="#63b8ff" d="M1864.67,-219.5C1914.48,-192.62 2062.52,-112.71 2123.4,-79.86"/>
<polygon fill="#63b8ff" stroke="#63b8ff" points="2124.91,-83.02 2132.05,-75.19 2121.59,-76.86 2124.91,-83.02"/>
</g>
<!-- Node12&#45;&gt;Node8 -->
<g id="edge17" class="edge">
<title>Node12&#45;&gt;Node8</title>
<path fill="none" stroke="#63b8ff" d="M1825.81,-219.59C1792.41,-206.41 1727.05,-181.5 1670,-165 1427.95,-94.97 1130.42,-37.8 1022.54,-17.98"/>
<polygon fill="#63b8ff" stroke="#63b8ff" points="1023.17,-14.54 1012.7,-16.18 1021.91,-21.42 1023.17,-14.54"/>
</g>
<!-- Node13 -->
<g id="node13" class="node">
<title>Node13</title>
<g id="a_node13"><a xlink:title=" ">
<polygon fill="#e0e0e0" stroke="#999999" points="1918.5,-184 1777.5,-184 1777.5,-165 1918.5,-165 1918.5,-184"/>
<text text-anchor="middle" x="1848" y="-172" font-family="Helvetica,sans-Serif" font-size="10.00">SFML/Graphics/Sprite.hpp</text>
</a>
</g>
</g>
<!-- Node12&#45;&gt;Node13 -->
<g id="edge13" class="edge">
<title>Node12&#45;&gt;Node13</title>
<path fill="none" stroke="#63b8ff" d="M1848,-219.75C1848,-213.27 1848,-204.16 1848,-195.9"/>
<polygon fill="#63b8ff" stroke="#63b8ff" points="1851.5,-195.96 1848,-185.96 1844.5,-195.96 1851.5,-195.96"/>
</g>
<!-- Node14 -->
<g id="node14" class="node">
<title>Node14</title>
<g id="a_node14"><a xlink:title=" ">
<polygon fill="#e0e0e0" stroke="#999999" points="1888.5,-129 1739.5,-129 1739.5,-110 1888.5,-110 1888.5,-129"/>
<text text-anchor="middle" x="1814" y="-117" font-family="Helvetica,sans-Serif" font-size="10.00">SFML/Graphics/Texture.hpp</text>
</a>
</g>
</g>
<!-- Node12&#45;&gt;Node14 -->
<g id="edge14" class="edge">
<title>Node12&#45;&gt;Node14</title>
<path fill="none" stroke="#63b8ff" d="M1816.14,-219.56C1798.62,-212.83 1778.39,-201.67 1768,-184 1757.91,-166.83 1774.37,-148.55 1790.33,-136.03"/>
<polygon fill="#63b8ff" stroke="#63b8ff" points="1792.22,-138.99 1798.25,-130.27 1788.1,-133.33 1792.22,-138.99"/>
</g>
<!-- Node12&#45;&gt;Node15 -->
<g id="edge15" class="edge">
<title>Node12&#45;&gt;Node15</title>
<path fill="none" stroke="#63b8ff" d="M1906.89,-223.56C2021.71,-213.93 2275.41,-192.66 2403.23,-181.94"/>
<polygon fill="#63b8ff" stroke="#63b8ff" points="2403.27,-185.45 2412.94,-181.12 2402.68,-178.47 2403.27,-185.45"/>
</g>
<!-- Node16 -->
<g id="node16" class="node">
<title>Node16</title>
<g id="a_node16"><a xlink:title=" ">
<polygon fill="#e0e0e0" stroke="#999999" points="2047,-184 1975,-184 1975,-165 2047,-165 2047,-184"/>
<text text-anchor="middle" x="2011" y="-172" font-family="Helvetica,sans-Serif" font-size="10.00">sys/types.h</text>
</a>
</g>
</g>
<!-- Node12&#45;&gt;Node16 -->
<g id="edge16" class="edge">
<title>Node12&#45;&gt;Node16</title>
<path fill="none" stroke="#63b8ff" d="M1875.65,-219.51C1902.31,-210.84 1942.88,-197.65 1972.66,-187.97"/>
<polygon fill="#63b8ff" stroke="#63b8ff" points="1973.62,-191.33 1982.05,-184.91 1971.45,-184.68 1973.62,-191.33"/>
</g>
<!-- Node17 -->
<g id="node17" class="node">
<title>Node17</title>
<g id="a_node17"><a xlink:href="TextureHolder_8h.html" target="_top" xlink:title=" ">
<polygon fill="white" stroke="#666666" points="2196.5,-184 2103.5,-184 2103.5,-165 2196.5,-165 2196.5,-184"/>
<text text-anchor="middle" x="2150" y="-172" font-family="Helvetica,sans-Serif" font-size="10.00">TextureHolder.h</text>
</a>
</g>
</g>
<!-- Node12&#45;&gt;Node17 -->
<g id="edge20" class="edge">
<title>Node12&#45;&gt;Node17</title>
<path fill="none" stroke="#63b8ff" d="M1899.23,-219.51C1952.76,-210.12 2036.57,-195.41 2092.37,-185.61"/>
<polygon fill="#63b8ff" stroke="#63b8ff" points="2092.75,-189.1 2101.99,-183.92 2091.54,-182.21 2092.75,-189.1"/>
</g>
<!-- Node17&#45;&gt;Node3 -->
<g id="edge25" class="edge">
<title>Node17&#45;&gt;Node3</title>
<path fill="none" stroke="#63b8ff" d="M2113.7,-164.51C2075.82,-155.13 2016.55,-140.45 1977,-130.65"/>
<polygon fill="#63b8ff" stroke="#63b8ff" points="1977.93,-127.28 1967.38,-128.27 1976.24,-134.07 1977.93,-127.28"/>
</g>
<!-- Node17&#45;&gt;Node5 -->
<g id="edge24" class="edge">
<title>Node17&#45;&gt;Node5</title>
<path fill="none" stroke="#63b8ff" d="M2150,-164.66C2150,-147.57 2150,-109.61 2150,-85.92"/>
<polygon fill="#63b8ff" stroke="#63b8ff" points="2153.5,-85.97 2150,-75.97 2146.5,-85.97 2153.5,-85.97"/>
</g>
<!-- Node17&#45;&gt;Node14 -->
<g id="edge23" class="edge">
<title>Node17&#45;&gt;Node14</title>
<path fill="none" stroke="#63b8ff" d="M2103.28,-166.13C2045.84,-157.07 1947.88,-141.62 1882.07,-131.24"/>
<polygon fill="#63b8ff" stroke="#63b8ff" points="1882.9,-127.83 1872.48,-129.72 1881.81,-134.74 1882.9,-127.83"/>
</g>
<!-- Node18 -->
<g id="node18" class="node">
<title>Node18</title>
<g id="a_node18"><a xlink:title=" ">
<polygon fill="#e0e0e0" stroke="#999999" points="2297,-129 2239,-129 2239,-110 2297,-110 2297,-129"/>
<text text-anchor="middle" x="2268" y="-117" font-family="Helvetica,sans-Serif" font-size="10.00">memory</text>
</a>
</g>
</g>
<!-- Node17&#45;&gt;Node18 -->
<g id="edge21" class="edge">
<title>Node17&#45;&gt;Node18</title>
<path fill="none" stroke="#63b8ff" d="M2170.02,-164.51C2188.61,-156.16 2216.54,-143.61 2237.83,-134.05"/>
<polygon fill="#63b8ff" stroke="#63b8ff" points="2239.21,-137.27 2246.9,-129.98 2236.34,-130.88 2239.21,-137.27"/>
</g>
<!-- Node19 -->
<g id="node19" class="node">
<title>Node19</title>
<g id="a_node19"><a xlink:title=" ">
<polygon fill="#e0e0e0" stroke="#999999" points="2499,-129 2461,-129 2461,-110 2499,-110 2499,-129"/>
<text text-anchor="middle" x="2480" y="-117" font-family="Helvetica,sans-Serif" font-size="10.00">map</text>
</a>
</g>
</g>
<!-- Node17&#45;&gt;Node19 -->
<g id="edge22" class="edge">
<title>Node17&#45;&gt;Node19</title>
<path fill="none" stroke="#63b8ff" d="M2196.93,-165.96C2265.54,-154.94 2391.35,-134.74 2449.3,-125.43"/>
<polygon fill="#63b8ff" stroke="#63b8ff" points="2449.77,-128.9 2459.09,-123.86 2448.66,-121.99 2449.77,-128.9"/>
</g>
<!-- Node20&#45;&gt;Node4 -->
<g id="edge29" class="edge">
<title>Node20&#45;&gt;Node4</title>
<path fill="none" stroke="#63b8ff" d="M1182.69,-221.85C1177.42,-221.14 1172.09,-220.49 1167,-220 1120.29,-215.47 355.47,-217.89 323,-184 238.11,-95.41 736.35,-72.47 921.11,-67.05"/>
<polygon fill="#63b8ff" stroke="#63b8ff" points="921.14,-70.55 931.04,-66.77 920.95,-63.55 921.14,-70.55"/>
</g>
<!-- Node20&#45;&gt;Node5 -->
<g id="edge28" class="edge">
<title>Node20&#45;&gt;Node5</title>
<path fill="none" stroke="#63b8ff" d="M1222.8,-219.93C1222.99,-206.03 1225.58,-178.73 1242,-165 1309.44,-108.64 1940.94,-75.28 2109.05,-67.35"/>
<polygon fill="#63b8ff" stroke="#63b8ff" points="2109,-70.85 2118.83,-66.89 2108.68,-63.86 2109,-70.85"/>
</g>
<!-- Node20&#45;&gt;Node8 -->
<g id="edge41" class="edge">
<title>Node20&#45;&gt;Node8</title>
<path fill="none" stroke="#63b8ff" d="M1182.69,-221.85C1177.42,-221.13 1172.09,-220.49 1167,-220 1119.57,-215.42 342.98,-218.4 310,-184 280.95,-153.71 314.55,-133.79 357,-110 457.94,-53.42 816.31,-22.52 939.25,-13.4"/>
<polygon fill="#63b8ff" stroke="#63b8ff" points="939.5,-16.89 949.22,-12.67 938.99,-9.91 939.5,-16.89"/>
</g>
<!-- Node20&#45;&gt;Node18 -->
<g id="edge38" class="edge">
<title>Node20&#45;&gt;Node18</title>
<path fill="none" stroke="#63b8ff" d="M1263.47,-224.07C1334.74,-216.24 1487.3,-199.33 1616,-184 1683.6,-175.95 1700.3,-172.24 1768,-165 1938.49,-146.76 2142.25,-130.27 2227.44,-123.62"/>
<polygon fill="#63b8ff" stroke="#63b8ff" points="2227.45,-127.13 2237.15,-122.86 2226.91,-120.15 2227.45,-127.13"/>
</g>
<!-- Node21 -->
<g id="node21" class="node">
<title>Node21</title>
<g id="a_node21"><a xlink:title=" ">
<polygon fill="#e0e0e0" stroke="#999999" points="1410.5,-184 1251.5,-184 1251.5,-165 1410.5,-165 1410.5,-184"/>
<text text-anchor="middle" x="1331" y="-172" font-family="Helvetica,sans-Serif" font-size="10.00">SFML/Graphics/Drawable.hpp</text>
</a>
</g>
</g>
<!-- Node20&#45;&gt;Node21 -->
<g id="edge30" class="edge">
<title>Node20&#45;&gt;Node21</title>
<path fill="none" stroke="#63b8ff" d="M1241.32,-219.51C1258.18,-211.24 1283.43,-198.84 1302.85,-189.31"/>
<polygon fill="#63b8ff" stroke="#63b8ff" points="1304.16,-192.57 1311.59,-185.02 1301.07,-186.29 1304.16,-192.57"/>
</g>
<!-- Node20&#45;&gt;Node22 -->
<g id="edge31" class="edge">
<title>Node20&#45;&gt;Node22</title>
<path fill="none" stroke="#63b8ff" d="M1182.67,-221.62C1178.07,-221 1173.44,-220.44 1169,-220 763.07,-180.22 658.82,-213.3 252,-184 251.15,-183.94 250.3,-183.88 249.45,-183.81"/>
<polygon fill="#63b8ff" stroke="#63b8ff" points="249.91,-180.34 239.66,-183.01 249.34,-187.32 249.91,-180.34"/>
</g>
<!-- Node23 -->
<g id="node23" class="node">
<title>Node23</title>
<g id="a_node23"><a xlink:title=" ">
<polygon fill="#e0e0e0" stroke="#999999" points="1607,-184 1429,-184 1429,-165 1607,-165 1607,-184"/>
<text text-anchor="middle" x="1518" y="-172" font-family="Helvetica,sans-Serif" font-size="10.00">SFML/Graphics/RenderStates.hpp</text>
</a>
</g>
</g>
<!-- Node20&#45;&gt;Node23 -->
<g id="edge32" class="edge">
<title>Node20&#45;&gt;Node23</title>
<path fill="none" stroke="#63b8ff" d="M1263.4,-221.24C1313.33,-212.27 1398.78,-196.92 1456.78,-186.5"/>
<polygon fill="#63b8ff" stroke="#63b8ff" points="1457.28,-189.96 1466.51,-184.75 1456.04,-183.07 1457.28,-189.96"/>
</g>
<!-- Node24 -->
<g id="node24" class="node">
<title>Node24</title>
<g id="a_node24"><a xlink:title=" ">
<polygon fill="#e0e0e0" stroke="#999999" points="509.5,-184 332.5,-184 332.5,-165 509.5,-165 509.5,-184"/>
<text text-anchor="middle" x="421" y="-172" font-family="Helvetica,sans-Serif" font-size="10.00">SFML/Graphics/RenderTarget.hpp</text>
</a>
</g>
</g>
<!-- Node20&#45;&gt;Node24 -->
<g id="edge33" class="edge">
<title>Node20&#45;&gt;Node24</title>
<path fill="none" stroke="#63b8ff" d="M1182.66,-221.7C1178.06,-221.05 1173.44,-220.47 1169,-220 884.5,-189.82 808.95,-204.27 521.01,-184.19"/>
<polygon fill="#63b8ff" stroke="#63b8ff" points="521.53,-180.72 511.31,-183.5 521.04,-187.7 521.53,-180.72"/>
</g>
<!-- Node25 -->
<g id="node25" class="node">
<title>Node25</title>
<g id="a_node25"><a xlink:title=" ">
<polygon fill="#e0e0e0" stroke="#999999" points="688.5,-184 527.5,-184 527.5,-165 688.5,-165 688.5,-184"/>
<text text-anchor="middle" x="608" y="-172" font-family="Helvetica,sans-Serif" font-size="10.00">SFML/Graphics/Transform.hpp</text>
</a>
</g>
</g>
<!-- Node20&#45;&gt;Node25 -->
<g id="edge34" class="edge">
<title>Node20&#45;&gt;Node25</title>
<path fill="none" stroke="#63b8ff" d="M1182.65,-221.79C1178.05,-221.13 1173.43,-220.52 1169,-220 964.14,-196.09 909.1,-201.66 700.3,-184.17"/>
<polygon fill="#63b8ff" stroke="#63b8ff" points="700.71,-180.7 690.46,-183.34 700.12,-187.67 700.71,-180.7"/>
</g>
<!-- Node26 -->
<g id="node26" class="node">
<title>Node26</title>
<g id="a_node26"><a xlink:title=" ">
<polygon fill="#e0e0e0" stroke="#999999" points="889,-184 707,-184 707,-165 889,-165 889,-184"/>
<text text-anchor="middle" x="798" y="-172" font-family="Helvetica,sans-Serif" font-size="10.00">SFML/Graphics/Transformable.hpp</text>
</a>
</g>
</g>
<!-- Node20&#45;&gt;Node26 -->
<g id="edge35" class="edge">
<title>Node20&#45;&gt;Node26</title>
<path fill="none" stroke="#63b8ff" d="M1182.63,-221.98C1178.03,-221.29 1173.42,-220.61 1169,-220 1074.72,-206.93 966.65,-194.23 891.56,-185.76"/>
<polygon fill="#63b8ff" stroke="#63b8ff" points="892.1,-182.3 881.77,-184.66 891.31,-189.25 892.1,-182.3"/>
</g>
<!-- Node27 -->
<g id="node27" class="node">
<title>Node27</title>
<g id="a_node27"><a xlink:title=" ">
<polygon fill="#e0e0e0" stroke="#999999" points="1079,-184 907,-184 907,-165 1079,-165 1079,-184"/>
<text text-anchor="middle" x="993" y="-172" font-family="Helvetica,sans-Serif" font-size="10.00">SFML/System/NonCopyable.hpp</text>
</a>
</g>
</g>
<!-- Node20&#45;&gt;Node27 -->
<g id="edge36" class="edge">
<title>Node20&#45;&gt;Node27</title>
<path fill="none" stroke="#63b8ff" d="M1183.98,-219.51C1145.12,-210.55 1085.31,-196.77 1042.99,-187.02"/>
<polygon fill="#63b8ff" stroke="#63b8ff" points="1043.83,-183.62 1033.3,-184.79 1042.26,-190.44 1043.83,-183.62"/>
</g>
<!-- Node20&#45;&gt;Node28 -->
<g id="edge37" class="edge">
<title>Node20&#45;&gt;Node28</title>
<path fill="none" stroke="#63b8ff" d="M1263.27,-227.53C1395.88,-224.16 1831.13,-211.65 2202.78,-184.12"/>
<polygon fill="#63b8ff" stroke="#63b8ff" points="2202.81,-187.62 2212.52,-183.39 2202.29,-180.64 2202.81,-187.62"/>
</g>
<!-- Node29 -->
<g id="node29" class="node">
<title>Node29</title>
<g id="a_node29"><a xlink:title=" ">
<polygon fill="#e0e0e0" stroke="#999999" points="1144.5,-184 1097.5,-184 1097.5,-165 1144.5,-165 1144.5,-184"/>
<text text-anchor="middle" x="1121" y="-172" font-family="Helvetica,sans-Serif" font-size="10.00">vector</text>
</a>
</g>
</g>
<!-- Node20&#45;&gt;Node29 -->
<g id="edge39" class="edge">
<title>Node20&#45;&gt;Node29</title>
<path fill="none" stroke="#63b8ff" d="M1205.7,-219.51C1189.92,-211.31 1166.36,-199.07 1148.09,-189.58"/>
<polygon fill="#63b8ff" stroke="#63b8ff" points="1149.88,-186.56 1139.39,-185.06 1146.65,-192.77 1149.88,-186.56"/>
</g>
<!-- Node30 -->
<g id="node30" class="node">
<title>Node30</title>
<g id="a_node30"><a xlink:title=" ">
<polygon fill="#e0e0e0" stroke="#999999" points="1195,-184 1163,-184 1163,-165 1195,-165 1195,-184"/>
<text text-anchor="middle" x="1179" y="-172" font-family="Helvetica,sans-Serif" font-size="10.00">set</text>
</a>
</g>
</g>
<!-- Node20&#45;&gt;Node30 -->
<g id="edge40" class="edge">
<title>Node20&#45;&gt;Node30</title>
<path fill="none" stroke="#63b8ff" d="M1215.73,-219.75C1209.72,-212.5 1200.99,-201.98 1193.54,-193.02"/>
<polygon fill="#63b8ff" stroke="#63b8ff" points="1196.47,-191.07 1187.39,-185.61 1191.08,-195.54 1196.47,-191.07"/>
</g>
<!-- Node31&#45;&gt;Node5 -->
<g id="edge49" class="edge">
<title>Node31&#45;&gt;Node5</title>
<path fill="none" stroke="#63b8ff" d="M2661.39,-219.72C2653.11,-211.04 2640.47,-197.18 2631,-184 2608.81,-153.11 2619.97,-130.62 2588,-110 2523.03,-68.09 2287.2,-64.63 2191.14,-65.02"/>
<polygon fill="#63b8ff" stroke="#63b8ff" points="2191.36,-61.52 2181.39,-65.08 2191.41,-68.52 2191.36,-61.52"/>
</g>
<!-- Node31&#45;&gt;Node15 -->
<g id="edge53" class="edge">
<title>Node31&#45;&gt;Node15</title>
<path fill="none" stroke="#63b8ff" d="M2640.31,-220.22C2608.86,-211.44 2558.89,-197.51 2523.1,-187.52"/>
<polygon fill="#63b8ff" stroke="#63b8ff" points="2524.05,-184.15 2513.47,-184.84 2522.17,-190.9 2524.05,-184.15"/>
</g>
<!-- Node31&#45;&gt;Node18 -->
<g id="edge51" class="edge">
<title>Node31&#45;&gt;Node18</title>
<path fill="none" stroke="#63b8ff" d="M2699.65,-224.44C2745.91,-216.96 2826.92,-198.63 2796,-165 2779.53,-147.08 2429.22,-128.37 2308.48,-122.43"/>
<polygon fill="#63b8ff" stroke="#63b8ff" points="2308.87,-118.94 2298.71,-121.95 2308.53,-125.93 2308.87,-118.94"/>
</g>
<!-- Node31&#45;&gt;Node28 -->
<g id="edge52" class="edge">
<title>Node31&#45;&gt;Node28</title>
<path fill="none" stroke="#63b8ff" d="M2640.19,-224.39C2581.08,-216.23 2447.39,-197.78 2362.22,-186.02"/>
<polygon fill="#63b8ff" stroke="#63b8ff" points="2362.94,-182.59 2352.55,-184.69 2361.98,-189.52 2362.94,-182.59"/>
</g>
<!-- Node32 -->
<g id="node32" class="node">
<title>Node32</title>
<g id="a_node32"><a xlink:title=" ">
<polygon fill="#e0e0e0" stroke="#999999" points="2704,-184 2640,-184 2640,-165 2704,-165 2704,-184"/>
<text text-anchor="middle" x="2672" y="-172" font-family="Helvetica,sans-Serif" font-size="10.00">algorithm</text>
</a>
</g>
</g>
<!-- Node31&#45;&gt;Node32 -->
<g id="edge48" class="edge">
<title>Node31&#45;&gt;Node32</title>
<path fill="none" stroke="#63b8ff" d="M2670.33,-219.75C2670.57,-213.27 2670.92,-204.16 2671.23,-195.9"/>
<polygon fill="#63b8ff" stroke="#63b8ff" points="2674.73,-196.08 2671.61,-185.95 2667.73,-195.82 2674.73,-196.08"/>
</g>
<!-- Node33 -->
<g id="node33" class="node">
<title>Node33</title>
<g id="a_node33"><a xlink:title=" ">
<polygon fill="#e0e0e0" stroke="#999999" points="2787.5,-184 2722.5,-184 2722.5,-165 2787.5,-165 2787.5,-184"/>
<text text-anchor="middle" x="2755" y="-172" font-family="Helvetica,sans-Serif" font-size="10.00">functional</text>
</a>
</g>
</g>
<!-- Node31&#45;&gt;Node33 -->
<g id="edge50" class="edge">
<title>Node31&#45;&gt;Node33</title>
<path fill="none" stroke="#63b8ff" d="M2684.42,-219.51C2697.2,-211.54 2716.1,-199.75 2731.13,-190.38"/>
<polygon fill="#63b8ff" stroke="#63b8ff" points="2732.88,-193.42 2739.51,-185.16 2729.17,-187.48 2732.88,-193.42"/>
</g>
<!-- Node34&#45;&gt;Node18 -->
<g id="edge70" class="edge">
<title>Node34&#45;&gt;Node18</title>
<path fill="none" stroke="#63b8ff" d="M2882.29,-166.59C2877.46,-166.02 2872.64,-165.48 2868,-165 2658.03,-143.5 2405.7,-128.22 2308.71,-122.73"/>
<polygon fill="#63b8ff" stroke="#63b8ff" points="2309.09,-119.25 2298.91,-122.18 2308.69,-126.24 2309.09,-119.25"/>
</g>
<!-- Node34&#45;&gt;Node19 -->
<g id="edge68" class="edge">
<title>Node34&#45;&gt;Node19</title>
<path fill="none" stroke="#63b8ff" d="M2882.27,-166.79C2877.45,-166.17 2872.63,-165.57 2868,-165 2734.96,-148.67 2576.01,-131.02 2510.51,-123.83"/>
<polygon fill="#63b8ff" stroke="#63b8ff" points="2511.22,-120.39 2500.9,-122.78 2510.46,-127.35 2511.22,-120.39"/>
</g>
<!-- Node35 -->
<g id="node35" class="node">
<title>Node35</title>
<g id="a_node35"><a xlink:title=" ">
<polygon fill="#e0e0e0" stroke="#999999" points="2915.5,-129 2820.5,-129 2820.5,-110 2915.5,-110 2915.5,-129"/>
<text text-anchor="middle" x="2868" y="-117" font-family="Helvetica,sans-Serif" font-size="10.00">SFML/Audio.hpp</text>
</a>
</g>
</g>
<!-- Node34&#45;&gt;Node35 -->
<g id="edge64" class="edge">
<title>Node34&#45;&gt;Node35</title>
<path fill="none" stroke="#63b8ff" d="M2921.97,-164.51C2912.58,-156.85 2898.85,-145.66 2887.59,-136.47"/>
<polygon fill="#63b8ff" stroke="#63b8ff" points="2890,-133.92 2880.04,-130.31 2885.57,-139.35 2890,-133.92"/>
</g>
<!-- Node36 -->
<g id="node36" class="node">
<title>Node36</title>
<g id="a_node36"><a xlink:title=" ">
<polygon fill="#e0e0e0" stroke="#999999" points="3060,-129 2934,-129 2934,-110 3060,-110 3060,-129"/>
<text text-anchor="middle" x="2997" y="-117" font-family="Helvetica,sans-Serif" font-size="10.00">SFML/Audio/Music.hpp</text>
</a>
</g>
</g>
<!-- Node34&#45;&gt;Node36 -->
<g id="edge65" class="edge">
<title>Node34&#45;&gt;Node36</title>
<path fill="none" stroke="#63b8ff" d="M2943.86,-164.51C2953.11,-156.85 2966.62,-145.66 2977.71,-136.47"/>
<polygon fill="#63b8ff" stroke="#63b8ff" points="2979.67,-139.4 2985.14,-130.32 2975.2,-134.01 2979.67,-139.4"/>
</g>
<!-- Node37 -->
<g id="node37" class="node">
<title>Node37</title>
<g id="a_node37"><a xlink:title=" ">
<polygon fill="#e0e0e0" stroke="#999999" points="3206,-129 3078,-129 3078,-110 3206,-110 3206,-129"/>
<text text-anchor="middle" x="3142" y="-117" font-family="Helvetica,sans-Serif" font-size="10.00">SFML/Audio/Sound.hpp</text>
</a>
</g>
</g>
<!-- Node34&#45;&gt;Node37 -->
<g id="edge66" class="edge">
<title>Node34&#45;&gt;Node37</title>
<path fill="none" stroke="#63b8ff" d="M2968.45,-164.51C3003.54,-155.61 3057.42,-141.95 3095.83,-132.21"/>
<polygon fill="#63b8ff" stroke="#63b8ff" points="3096.42,-135.67 3105.25,-129.82 3094.7,-128.88 3096.42,-135.67"/>
</g>
<!-- Node38 -->
<g id="node38" class="node">
<title>Node38</title>
<g id="a_node38"><a xlink:title=" ">
<polygon fill="#e0e0e0" stroke="#999999" points="3380,-129 3224,-129 3224,-110 3380,-110 3380,-129"/>
<text text-anchor="middle" x="3302" y="-117" font-family="Helvetica,sans-Serif" font-size="10.00">SFML/Audio/SoundBuffer.hpp</text>
</a>
</g>
</g>
<!-- Node34&#45;&gt;Node38 -->
<g id="edge67" class="edge">
<title>Node34&#45;&gt;Node38</title>
<path fill="none" stroke="#63b8ff" d="M2983.92,-166.19C3047.26,-157.09 3155.87,-141.49 3228.29,-131.09"/>
<polygon fill="#63b8ff" stroke="#63b8ff" points="3228.7,-134.56 3238.1,-129.68 3227.7,-127.64 3228.7,-134.56"/>
</g>
<!-- Node39 -->
<g id="node39" class="node">
<title>Node39</title>
<g id="a_node39"><a xlink:title=" ">
<polygon fill="#e0e0e0" stroke="#999999" points="2752,-129 2708,-129 2708,-110 2752,-110 2752,-129"/>
<text text-anchor="middle" x="2730" y="-117" font-family="Helvetica,sans-Serif" font-size="10.00">string</text>
</a>
</g>
</g>
<!-- Node34&#45;&gt;Node39 -->
<g id="edge69" class="edge">
<title>Node34&#45;&gt;Node39</title>
<path fill="none" stroke="#63b8ff" d="M2897.71,-164.53C2865.23,-156.24 2815.41,-143.43 2763.46,-129.63"/>
<polygon fill="#63b8ff" stroke="#63b8ff" points="2764.37,-126.25 2753.8,-127.06 2762.57,-133.01 2764.37,-126.25"/>
</g>
<!-- Node40 -->
<g id="node40" class="node">
<title>Node40</title>
<g id="a_node40"><a xlink:title=" ">
<polygon fill="#e0e0e0" stroke="#999999" points="2802,-129 2770,-129 2770,-110 2802,-110 2802,-129"/>
<text text-anchor="middle" x="2786" y="-117" font-family="Helvetica,sans-Serif" font-size="10.00">list</text>
</a>
</g>
</g>
<!-- Node34&#45;&gt;Node40 -->
<g id="edge71" class="edge">
<title>Node34&#45;&gt;Node40</title>
<path fill="none" stroke="#63b8ff" d="M2908.06,-164.51C2881.69,-155 2840.21,-140.04 2813.06,-130.25"/>
<polygon fill="#63b8ff" stroke="#63b8ff" points="2814.4,-127.02 2803.81,-126.92 2812.03,-133.6 2814.4,-127.02"/>
</g>
</g>
</svg>
