<?xml version="1.0" encoding="UTF-8" standalone="no"?>
<!DOCTYPE svg PUBLIC "-//W3C//DTD SVG 1.1//EN"
 "http://www.w3.org/Graphics/SVG/1.1/DTD/svg11.dtd">
<!-- Generated by graphviz version 7.0.5 (0)
 -->
<!-- Title: src/PlayerCollidable.cpp Pages: 1 -->
<!--zoomable 467 -->
<svg id="main" version="1.1" xmlns="http://www.w3.org/2000/svg" xmlns:xlink="http://www.w3.org/1999/xlink" xml:space="preserve" onload="init(evt)">
<style type="text/css"><![CDATA[
.edge:hover path { stroke: red; }
.edge:hover polygon { stroke: red; fill: red; }
]]></style>
<script type="text/javascript"><![CDATA[
var edges = document.getElementsByTagName('g');
if (edges && edges.length) {
  for (var i=0;i<edges.length;i++) {
    if (edges[i].id.substr(0,4)=='edge') {
      edges[i].setAttribute('class','edge');
    }
  }
}
]]></script>
        <defs>
                <circle id="rim" cx="0" cy="0" r="7"/>
                <circle id="rim2" cx="0" cy="0" r="3.5"/>
                <g id="zoomPlus">
                        <use xlink:href="#rim" fill="#404040">
                                <set attributeName="fill" to="#808080" begin="zoomplus.mouseover" end="zoomplus.mouseout"/>
                        </use>
                        <path d="M-4,0h8M0,-4v8" fill="none" stroke="white" stroke-width="1.5" pointer-events="none"/>
                </g>
                <g id="zoomMin">
                        <use xlink:href="#rim" fill="#404040">
                                <set attributeName="fill" to="#808080" begin="zoomminus.mouseover" end="zoomminus.mouseout"/>
                        </use>
                        <path d="M-4,0h8" fill="none" stroke="white" stroke-width="1.5" pointer-events="none"/>
                </g>
                <g id="dirArrow">
                        <path fill="none" stroke="white" stroke-width="1.5" d="M0,-3.0v7 M-2.5,-0.5L0,-3.0L2.5,-0.5"/>
                </g>
               <g id="resetDef">
                       <use xlink:href="#rim2" fill="#404040">
                               <set attributeName="fill" to="#808080" begin="reset.mouseover" end="reset.mouseout"/>
                       </use>
               </g>
        </defs>

<script type="text/javascript">
var viewWidth = 2651;
var viewHeight = 467;
var sectionId = 'dynsection-0';
</script>
<script xlink:href="svgpan.js"/>
<svg id="graph" class="graph">
<g id="viewport">
<title>src/PlayerCollidable.cpp</title>
<!-- Node1 -->
<g id="node1" class="node">
<title>Node1</title>
<g id="a_node1"><a xlink:title=" ">
<polygon fill="#999999" stroke="#666666" points="1628.32,-459 1494.32,-459 1494.32,-440 1628.32,-440 1628.32,-459"/>
<text text-anchor="middle" x="1561.32" y="-447" font-family="Helvetica,sans-Serif" font-size="10.00">src/PlayerCollidable.cpp</text>
</a>
</g>
</g>
<!-- Node2 -->
<g id="node2" class="node">
<title>Node2</title>
<g id="a_node2"><a xlink:href="PlayerCollidable_8h.html" target="_top" xlink:title=" ">
<polygon fill="white" stroke="#666666" points="1613.82,-404 1508.82,-404 1508.82,-385 1613.82,-385 1613.82,-404"/>
<text text-anchor="middle" x="1561.32" y="-392" font-family="Helvetica,sans-Serif" font-size="10.00">PlayerCollidable.h</text>
</a>
</g>
</g>
<!-- Node1&#45;&gt;Node2 -->
<g id="edge1" class="edge">
<title>Node1&#45;&gt;Node2</title>
<path fill="none" stroke="#63b8ff" d="M1561.32,-439.75C1561.32,-433.27 1561.32,-424.16 1561.32,-415.9"/>
<polygon fill="#63b8ff" stroke="#63b8ff" points="1564.82,-415.96 1561.32,-405.96 1557.82,-415.96 1564.82,-415.96"/>
</g>
<!-- Node3 -->
<g id="node3" class="node">
<title>Node3</title>
<g id="a_node3"><a xlink:href="Player_8h.html" target="_top" xlink:title=" ">
<polygon fill="white" stroke="#666666" points="1589.32,-349 1533.32,-349 1533.32,-330 1589.32,-330 1589.32,-349"/>
<text text-anchor="middle" x="1561.32" y="-337" font-family="Helvetica,sans-Serif" font-size="10.00">Player.h</text>
</a>
</g>
</g>
<!-- Node2&#45;&gt;Node3 -->
<g id="edge2" class="edge">
<title>Node2&#45;&gt;Node3</title>
<path fill="none" stroke="#63b8ff" d="M1561.32,-384.75C1561.32,-378.27 1561.32,-369.16 1561.32,-360.9"/>
<polygon fill="#63b8ff" stroke="#63b8ff" points="1564.82,-360.96 1561.32,-350.96 1557.82,-360.96 1564.82,-360.96"/>
</g>
<!-- Node4 -->
<g id="node4" class="node">
<title>Node4</title>
<g id="a_node4"><a xlink:href="Effect_8h.html" target="_top" xlink:title=" ">
<polygon fill="white" stroke="#666666" points="877.82,-294 824.82,-294 824.82,-275 877.82,-275 877.82,-294"/>
<text text-anchor="middle" x="851.32" y="-282" font-family="Helvetica,sans-Serif" font-size="10.00">Effect.h</text>
</a>
</g>
</g>
<!-- Node3&#45;&gt;Node4 -->
<g id="edge3" class="edge">
<title>Node3&#45;&gt;Node4</title>
<path fill="none" stroke="#63b8ff" d="M1532.89,-338.31C1441.1,-337.33 1144.37,-331.41 889.31,-294"/>
<polygon fill="#63b8ff" stroke="#63b8ff" points="889.87,-290.54 879.46,-292.53 888.83,-297.47 889.87,-290.54"/>
</g>
<!-- Node5 -->
<g id="node5" class="node">
<title>Node5</title>
<g id="a_node5"><a xlink:href="Entity_8h.html" target="_top" xlink:title=" ">
<polygon fill="white" stroke="#666666" points="948.82,-294 895.82,-294 895.82,-275 948.82,-275 948.82,-294"/>
<text text-anchor="middle" x="922.32" y="-282" font-family="Helvetica,sans-Serif" font-size="10.00">Entity.h</text>
</a>
</g>
</g>
<!-- Node3&#45;&gt;Node5 -->
<g id="edge4" class="edge">
<title>Node3&#45;&gt;Node5</title>
<path fill="none" stroke="#63b8ff" d="M1533.04,-336.15C1430.41,-327.64 1077.5,-298.37 960.41,-288.66"/>
<polygon fill="#63b8ff" stroke="#63b8ff" points="960.97,-285.19 950.71,-287.85 960.39,-292.17 960.97,-285.19"/>
</g>
<!-- Node14 -->
<g id="node14" class="node">
<title>Node14</title>
<g id="a_node14"><a xlink:href="Enums_8h.html" target="_top" xlink:title=" ">
<polygon fill="white" stroke="#666666" points="684.82,-74 625.82,-74 625.82,-55 684.82,-55 684.82,-74"/>
<text text-anchor="middle" x="655.32" y="-62" font-family="Helvetica,sans-Serif" font-size="10.00">Enums.h</text>
</a>
</g>
</g>
<!-- Node3&#45;&gt;Node14 -->
<g id="edge44" class="edge">
<title>Node3&#45;&gt;Node14</title>
<path fill="none" stroke="#63b8ff" d="M1589.46,-338.12C1740.91,-335.7 2452.32,-319.61 2452.32,-230.5 2452.32,-230.5 2452.32,-230.5 2452.32,-173.5 2452.32,-80.24 2344.28,-125.56 2252.32,-110 2095.07,-83.39 931.29,-68.67 696.52,-65.96"/>
<polygon fill="#63b8ff" stroke="#63b8ff" points="696.69,-62.46 686.65,-65.85 696.6,-69.46 696.69,-62.46"/>
</g>
<!-- Node20 -->
<g id="node20" class="node">
<title>Node20</title>
<g id="a_node20"><a xlink:href="SceneNode_8h.html" target="_top" xlink:title=" ">
<polygon fill="white" stroke="#666666" points="1601.32,-239 1521.32,-239 1521.32,-220 1601.32,-220 1601.32,-239"/>
<text text-anchor="middle" x="1561.32" y="-227" font-family="Helvetica,sans-Serif" font-size="10.00">SceneNode.h</text>
</a>
</g>
</g>
<!-- Node3&#45;&gt;Node20 -->
<g id="edge45" class="edge">
<title>Node3&#45;&gt;Node20</title>
<path fill="none" stroke="#63b8ff" d="M1561.32,-329.66C1561.32,-312.57 1561.32,-274.61 1561.32,-250.92"/>
<polygon fill="#63b8ff" stroke="#63b8ff" points="1564.82,-250.97 1561.32,-240.97 1557.82,-250.97 1564.82,-250.97"/>
</g>
<!-- Node22 -->
<g id="node22" class="node">
<title>Node22</title>
<g id="a_node22"><a xlink:title=" ">
<polygon fill="#e0e0e0" stroke="#999999" points="817.32,-184 683.32,-184 683.32,-165 817.32,-165 817.32,-184"/>
<text text-anchor="middle" x="750.32" y="-172" font-family="Helvetica,sans-Serif" font-size="10.00">SFML/Graphics/Rect.hpp</text>
</a>
</g>
</g>
<!-- Node3&#45;&gt;Node22 -->
<g id="edge53" class="edge">
<title>Node3&#45;&gt;Node22</title>
<path fill="none" stroke="#63b8ff" d="M1532.93,-332.79C1415.27,-309.15 964.68,-218.58 806.01,-186.69"/>
<polygon fill="#63b8ff" stroke="#63b8ff" points="807.07,-183.34 796.58,-184.8 805.69,-190.2 807.07,-183.34"/>
</g>
<!-- Node28 -->
<g id="node28" class="node">
<title>Node28</title>
<g id="a_node28"><a xlink:title=" ">
<polygon fill="#e0e0e0" stroke="#999999" points="2385.82,-184 2242.82,-184 2242.82,-165 2385.82,-165 2385.82,-184"/>
<text text-anchor="middle" x="2314.32" y="-172" font-family="Helvetica,sans-Serif" font-size="10.00">SFML/System/Vector2.hpp</text>
</a>
</g>
</g>
<!-- Node3&#45;&gt;Node28 -->
<g id="edge54" class="edge">
<title>Node3&#45;&gt;Node28</title>
<path fill="none" stroke="#63b8ff" d="M1589.47,-332.41C1701.23,-308.21 2114.75,-218.7 2261.91,-186.85"/>
<polygon fill="#63b8ff" stroke="#63b8ff" points="2262.35,-190.33 2271.38,-184.8 2260.86,-183.49 2262.35,-190.33"/>
</g>
<!-- Node31 -->
<g id="node31" class="node">
<title>Node31</title>
<g id="a_node31"><a xlink:href="Effects_8h.html" target="_top" xlink:title=" ">
<polygon fill="white" stroke="#666666" points="2539.82,-239 2480.82,-239 2480.82,-220 2539.82,-220 2539.82,-239"/>
<text text-anchor="middle" x="2510.32" y="-227" font-family="Helvetica,sans-Serif" font-size="10.00">Effects.h</text>
</a>
</g>
</g>
<!-- Node3&#45;&gt;Node31 -->
<g id="edge46" class="edge">
<title>Node3&#45;&gt;Node31</title>
<path fill="none" stroke="#63b8ff" d="M1589.57,-338.58C1734.19,-338.82 2388.11,-337.44 2466.32,-294 2483.7,-284.35 2495.7,-264.59 2502.73,-249.66"/>
<polygon fill="#63b8ff" stroke="#63b8ff" points="2505.8,-251.39 2506.54,-240.82 2499.37,-248.62 2505.8,-251.39"/>
</g>
<!-- Node6 -->
<g id="node6" class="node">
<title>Node6</title>
<g id="a_node6"><a xlink:href="AnimationMachine_8h.html" target="_top" xlink:title=" ">
<polygon fill="white" stroke="#666666" points="317.82,-239 200.82,-239 200.82,-220 317.82,-220 317.82,-239"/>
<text text-anchor="middle" x="259.32" y="-227" font-family="Helvetica,sans-Serif" font-size="10.00">AnimationMachine.h</text>
</a>
</g>
</g>
<!-- Node5&#45;&gt;Node6 -->
<g id="edge5" class="edge">
<title>Node5&#45;&gt;Node6</title>
<path fill="none" stroke="#63b8ff" d="M895.66,-276.54C892.86,-275.95 890.04,-275.42 887.32,-275 686.38,-243.71 445.81,-234.4 329.35,-231.64"/>
<polygon fill="#63b8ff" stroke="#63b8ff" points="329.72,-228.15 319.64,-231.42 329.56,-235.15 329.72,-228.15"/>
</g>
<!-- Node10 -->
<g id="node10" class="node">
<title>Node10</title>
<g id="a_node10"><a xlink:title=" ">
<polygon fill="#e0e0e0" stroke="#999999" points="626.82,-184 495.82,-184 495.82,-165 626.82,-165 626.82,-184"/>
<text text-anchor="middle" x="561.32" y="-172" font-family="Helvetica,sans-Serif" font-size="10.00">SFML/System/Time.hpp</text>
</a>
</g>
</g>
<!-- Node5&#45;&gt;Node10 -->
<g id="edge42" class="edge">
<title>Node5&#45;&gt;Node10</title>
<path fill="none" stroke="#63b8ff" d="M895.62,-276.75C892.83,-276.12 890.02,-275.52 887.32,-275 778.85,-253.94 742.74,-282.85 641.32,-239 616.01,-228.06 591.94,-206.98 576.93,-192.12"/>
<polygon fill="#63b8ff" stroke="#63b8ff" points="579.75,-190 570.26,-185.29 574.75,-194.89 579.75,-190"/>
</g>
<!-- Node5&#45;&gt;Node14 -->
<g id="edge25" class="edge">
<title>Node5&#45;&gt;Node14</title>
<path fill="none" stroke="#63b8ff" d="M895.63,-276.38C837.68,-260.38 703.21,-220.15 674.32,-184 651.74,-155.73 651.05,-111.29 652.94,-85.62"/>
<polygon fill="#63b8ff" stroke="#63b8ff" points="656.41,-86.18 653.89,-75.89 649.44,-85.51 656.41,-86.18"/>
</g>
<!-- Node5&#45;&gt;Node20 -->
<g id="edge26" class="edge">
<title>Node5&#45;&gt;Node20</title>
<path fill="none" stroke="#63b8ff" d="M948.96,-281.29C1045.84,-273.26 1380.42,-245.5 1509.74,-234.78"/>
<polygon fill="#63b8ff" stroke="#63b8ff" points="1509.69,-238.29 1519.37,-233.98 1509.11,-231.32 1509.69,-238.29"/>
</g>
<!-- Node5&#45;&gt;Node22 -->
<g id="edge41" class="edge">
<title>Node5&#45;&gt;Node22</title>
<path fill="none" stroke="#63b8ff" d="M908.25,-274.66C878.76,-256.15 810.26,-213.13 773.93,-190.32"/>
<polygon fill="#63b8ff" stroke="#63b8ff" points="776.2,-187.62 765.87,-185.27 772.48,-193.55 776.2,-187.62"/>
</g>
<!-- Node5&#45;&gt;Node28 -->
<g id="edge43" class="edge">
<title>Node5&#45;&gt;Node28</title>
<path fill="none" stroke="#63b8ff" d="M949.22,-282.01C1041.42,-276.83 1353.15,-258.91 1610.32,-239 1835.02,-221.6 2099.63,-196.49 2231.25,-183.68"/>
<polygon fill="#63b8ff" stroke="#63b8ff" points="2231.3,-187.19 2240.91,-182.74 2230.62,-180.23 2231.3,-187.19"/>
</g>
<!-- Node7 -->
<g id="node7" class="node">
<title>Node7</title>
<g id="a_node7"><a xlink:title=" ">
<polygon fill="#e0e0e0" stroke="#999999" points="340.32,-74 230.32,-74 230.32,-55 340.32,-55 340.32,-74"/>
<text text-anchor="middle" x="285.32" y="-62" font-family="Helvetica,sans-Serif" font-size="10.00">SFML/Graphics.hpp</text>
</a>
</g>
</g>
<!-- Node6&#45;&gt;Node7 -->
<g id="edge6" class="edge">
<title>Node6&#45;&gt;Node7</title>
<path fill="none" stroke="#63b8ff" d="M200.55,-226.42C134.73,-222.7 34.11,-212.41 10.32,-184 4.9,-177.52 5.81,-172.14 10.32,-165 54.2,-95.64 152.31,-74.2 218.67,-67.82"/>
<polygon fill="#63b8ff" stroke="#63b8ff" points="218.68,-71.33 228.34,-66.99 218.08,-64.36 218.68,-71.33"/>
</g>
<!-- Node8 -->
<g id="node8" class="node">
<title>Node8</title>
<g id="a_node8"><a xlink:title=" ">
<polygon fill="#e0e0e0" stroke="#999999" points="160.82,-184 19.82,-184 19.82,-165 160.82,-165 160.82,-184"/>
<text text-anchor="middle" x="90.32" y="-172" font-family="Helvetica,sans-Serif" font-size="10.00">SFML/Graphics/Sprite.hpp</text>
</a>
</g>
</g>
<!-- Node6&#45;&gt;Node8 -->
<g id="edge7" class="edge">
<title>Node6&#45;&gt;Node8</title>
<path fill="none" stroke="#63b8ff" d="M230.65,-219.51C202.89,-210.8 160.58,-197.53 129.67,-187.84"/>
<polygon fill="#63b8ff" stroke="#63b8ff" points="130.88,-184.55 120.29,-184.9 128.79,-191.23 130.88,-184.55"/>
</g>
<!-- Node9 -->
<g id="node9" class="node">
<title>Node9</title>
<g id="a_node9"><a xlink:title=" ">
<polygon fill="#e0e0e0" stroke="#999999" points="283.82,-129 134.82,-129 134.82,-110 283.82,-110 283.82,-129"/>
<text text-anchor="middle" x="209.32" y="-117" font-family="Helvetica,sans-Serif" font-size="10.00">SFML/Graphics/Texture.hpp</text>
</a>
</g>
</g>
<!-- Node6&#45;&gt;Node9 -->
<g id="edge8" class="edge">
<title>Node6&#45;&gt;Node9</title>
<path fill="none" stroke="#63b8ff" d="M245.79,-219.71C234.9,-211.81 220.31,-199.13 213.32,-184 207.07,-170.46 206.3,-153.54 206.97,-140.57"/>
<polygon fill="#63b8ff" stroke="#63b8ff" points="210.45,-140.97 207.83,-130.7 203.47,-140.36 210.45,-140.97"/>
</g>
<!-- Node6&#45;&gt;Node10 -->
<g id="edge9" class="edge">
<title>Node6&#45;&gt;Node10</title>
<path fill="none" stroke="#63b8ff" d="M310.55,-219.51C362.58,-210.38 443.23,-196.23 498.95,-186.45"/>
<polygon fill="#63b8ff" stroke="#63b8ff" points="499.36,-189.93 508.6,-184.75 498.15,-183.03 499.36,-189.93"/>
</g>
<!-- Node11 -->
<g id="node11" class="node">
<title>Node11</title>
<g id="a_node11"><a xlink:title=" ">
<polygon fill="#e0e0e0" stroke="#999999" points="327.32,-184 255.32,-184 255.32,-165 327.32,-165 327.32,-184"/>
<text text-anchor="middle" x="291.32" y="-172" font-family="Helvetica,sans-Serif" font-size="10.00">sys/types.h</text>
</a>
</g>
</g>
<!-- Node6&#45;&gt;Node11 -->
<g id="edge10" class="edge">
<title>Node6&#45;&gt;Node11</title>
<path fill="none" stroke="#63b8ff" d="M264.61,-219.75C268.8,-212.81 274.8,-202.86 280.06,-194.16"/>
<polygon fill="#63b8ff" stroke="#63b8ff" points="282.97,-196.11 285.14,-185.74 276.97,-192.49 282.97,-196.11"/>
</g>
<!-- Node12 -->
<g id="node12" class="node">
<title>Node12</title>
<g id="a_node12"><a xlink:title=" ">
<polygon fill="#e0e0e0" stroke="#999999" points="383.32,-19 323.32,-19 323.32,0 383.32,0 383.32,-19"/>
<text text-anchor="middle" x="353.32" y="-7" font-family="Helvetica,sans-Serif" font-size="10.00">iostream</text>
</a>
</g>
</g>
<!-- Node6&#45;&gt;Node12 -->
<g id="edge11" class="edge">
<title>Node6&#45;&gt;Node12</title>
<path fill="none" stroke="#63b8ff" d="M200.42,-226.74C132.8,-223.34 28,-213.34 3.32,-184 -2.11,-177.54 0.91,-173.09 3.32,-165 40.62,-39.9 226.95,-15.82 311.49,-11.39"/>
<polygon fill="#63b8ff" stroke="#63b8ff" points="311.61,-14.88 321.44,-10.94 311.3,-7.89 311.61,-14.88"/>
</g>
<!-- Node13 -->
<g id="node13" class="node">
<title>Node13</title>
<g id="a_node13"><a xlink:href="Consts_8h.html" target="_top" xlink:title=" ">
<polygon fill="white" stroke="#666666" points="367.82,-129 308.82,-129 308.82,-110 367.82,-110 367.82,-129"/>
<text text-anchor="middle" x="338.32" y="-117" font-family="Helvetica,sans-Serif" font-size="10.00">Consts.h</text>
</a>
</g>
</g>
<!-- Node6&#45;&gt;Node13 -->
<g id="edge12" class="edge">
<title>Node6&#45;&gt;Node13</title>
<path fill="none" stroke="#63b8ff" d="M253.72,-219.57C246.36,-206.58 235.56,-182.16 246.32,-165 257.67,-146.91 278.69,-135.99 297.77,-129.5"/>
<polygon fill="#63b8ff" stroke="#63b8ff" points="298.7,-132.88 307.25,-126.61 296.66,-126.18 298.7,-132.88"/>
</g>
<!-- Node6&#45;&gt;Node14 -->
<g id="edge18" class="edge">
<title>Node6&#45;&gt;Node14</title>
<path fill="none" stroke="#63b8ff" d="M316.02,-219.57C354.25,-212.49 405.36,-200.94 448.32,-184 485.67,-169.27 585.19,-108.88 631.28,-80.44"/>
<polygon fill="#63b8ff" stroke="#63b8ff" points="633.07,-83.44 639.73,-75.21 629.39,-77.49 633.07,-83.44"/>
</g>
<!-- Node17 -->
<g id="node17" class="node">
<title>Node17</title>
<g id="a_node17"><a xlink:href="TextureHolder_8h.html" target="_top" xlink:title=" ">
<polygon fill="white" stroke="#666666" points="438.82,-184 345.82,-184 345.82,-165 438.82,-165 438.82,-184"/>
<text text-anchor="middle" x="392.32" y="-172" font-family="Helvetica,sans-Serif" font-size="10.00">TextureHolder.h</text>
</a>
</g>
</g>
<!-- Node6&#45;&gt;Node17 -->
<g id="edge19" class="edge">
<title>Node6&#45;&gt;Node17</title>
<path fill="none" stroke="#63b8ff" d="M281.88,-219.51C303.22,-211.01 335.48,-198.15 359.63,-188.53"/>
<polygon fill="#63b8ff" stroke="#63b8ff" points="360.69,-191.87 368.69,-184.92 358.1,-185.37 360.69,-191.87"/>
</g>
<!-- Node13&#45;&gt;Node7 -->
<g id="edge13" class="edge">
<title>Node13&#45;&gt;Node7</title>
<path fill="none" stroke="#63b8ff" d="M329.57,-109.75C322.17,-102.35 311.36,-91.54 302.28,-82.45"/>
<polygon fill="#63b8ff" stroke="#63b8ff" points="304.88,-80.11 295.33,-75.51 299.93,-85.06 304.88,-80.11"/>
</g>
<!-- Node13&#45;&gt;Node14 -->
<g id="edge14" class="edge">
<title>Node13&#45;&gt;Node14</title>
<path fill="none" stroke="#63b8ff" d="M368.1,-111.83C371.21,-111.19 374.33,-110.57 377.32,-110 461.22,-94.16 560.06,-79.21 614.39,-71.32"/>
<polygon fill="#63b8ff" stroke="#63b8ff" points="614.71,-74.81 624.11,-69.92 613.71,-67.88 614.71,-74.81"/>
</g>
<!-- Node15 -->
<g id="node15" class="node">
<title>Node15</title>
<g id="a_node15"><a xlink:href="Random_8h.html" target="_top" xlink:title=" ">
<polygon fill="white" stroke="#666666" points="424.32,-74 358.32,-74 358.32,-55 424.32,-55 424.32,-74"/>
<text text-anchor="middle" x="391.32" y="-62" font-family="Helvetica,sans-Serif" font-size="10.00">Random.h</text>
</a>
</g>
</g>
<!-- Node13&#45;&gt;Node15 -->
<g id="edge15" class="edge">
<title>Node13&#45;&gt;Node15</title>
<path fill="none" stroke="#63b8ff" d="M347.07,-109.75C354.47,-102.35 365.28,-91.54 374.37,-82.45"/>
<polygon fill="#63b8ff" stroke="#63b8ff" points="376.71,-85.06 381.31,-75.51 371.76,-80.11 376.71,-85.06"/>
</g>
<!-- Node15&#45;&gt;Node12 -->
<g id="edge17" class="edge">
<title>Node15&#45;&gt;Node12</title>
<path fill="none" stroke="#63b8ff" d="M385.05,-54.75C379.96,-47.66 372.63,-37.42 366.29,-28.59"/>
<polygon fill="#63b8ff" stroke="#63b8ff" points="369.29,-26.76 360.61,-20.67 363.6,-30.84 369.29,-26.76"/>
</g>
<!-- Node16 -->
<g id="node16" class="node">
<title>Node16</title>
<g id="a_node16"><a xlink:title=" ">
<polygon fill="#e0e0e0" stroke="#999999" points="455.32,-19 401.32,-19 401.32,0 455.32,0 455.32,-19"/>
<text text-anchor="middle" x="428.32" y="-7" font-family="Helvetica,sans-Serif" font-size="10.00">random</text>
</a>
</g>
</g>
<!-- Node15&#45;&gt;Node16 -->
<g id="edge16" class="edge">
<title>Node15&#45;&gt;Node16</title>
<path fill="none" stroke="#63b8ff" d="M397.43,-54.75C402.33,-47.73 409.37,-37.64 415.5,-28.87"/>
<polygon fill="#63b8ff" stroke="#63b8ff" points="418.36,-30.89 421.21,-20.68 412.62,-26.88 418.36,-30.89"/>
</g>
<!-- Node17&#45;&gt;Node9 -->
<g id="edge22" class="edge">
<title>Node17&#45;&gt;Node9</title>
<path fill="none" stroke="#63b8ff" d="M361.28,-164.51C330.95,-155.73 284.59,-142.3 251.05,-132.59"/>
<polygon fill="#63b8ff" stroke="#63b8ff" points="252.24,-129.29 241.66,-129.87 250.3,-136.01 252.24,-129.29"/>
</g>
<!-- Node17&#45;&gt;Node13 -->
<g id="edge24" class="edge">
<title>Node17&#45;&gt;Node13</title>
<path fill="none" stroke="#63b8ff" d="M383.4,-164.75C375.87,-157.35 364.85,-146.54 355.6,-137.45"/>
<polygon fill="#63b8ff" stroke="#63b8ff" points="358.1,-135.01 348.51,-130.5 353.2,-140 358.1,-135.01"/>
</g>
<!-- Node17&#45;&gt;Node14 -->
<g id="edge23" class="edge">
<title>Node17&#45;&gt;Node14</title>
<path fill="none" stroke="#63b8ff" d="M413.84,-164.66C459.98,-145.72 568.63,-101.1 623.06,-78.75"/>
<polygon fill="#63b8ff" stroke="#63b8ff" points="624.18,-82.07 632.1,-75.04 621.52,-75.6 624.18,-82.07"/>
</g>
<!-- Node18 -->
<g id="node18" class="node">
<title>Node18</title>
<g id="a_node18"><a xlink:title=" ">
<polygon fill="#e0e0e0" stroke="#999999" points="2243.32,-129 2185.32,-129 2185.32,-110 2243.32,-110 2243.32,-129"/>
<text text-anchor="middle" x="2214.32" y="-117" font-family="Helvetica,sans-Serif" font-size="10.00">memory</text>
</a>
</g>
</g>
<!-- Node17&#45;&gt;Node18 -->
<g id="edge20" class="edge">
<title>Node17&#45;&gt;Node18</title>
<path fill="none" stroke="#63b8ff" d="M439.15,-168.72C454.48,-167.31 471.62,-165.9 487.32,-165 1160.45,-126.25 1983.12,-121.24 2173.62,-120.6"/>
<polygon fill="#63b8ff" stroke="#63b8ff" points="2173.5,-124.1 2183.49,-120.56 2173.47,-117.1 2173.5,-124.1"/>
</g>
<!-- Node19 -->
<g id="node19" class="node">
<title>Node19</title>
<g id="a_node19"><a xlink:title=" ">
<polygon fill="#e0e0e0" stroke="#999999" points="424.32,-129 386.32,-129 386.32,-110 424.32,-110 424.32,-129"/>
<text text-anchor="middle" x="405.32" y="-117" font-family="Helvetica,sans-Serif" font-size="10.00">map</text>
</a>
</g>
</g>
<!-- Node17&#45;&gt;Node19 -->
<g id="edge21" class="edge">
<title>Node17&#45;&gt;Node19</title>
<path fill="none" stroke="#63b8ff" d="M394.47,-164.75C396.08,-158.19 398.34,-148.95 400.39,-140.6"/>
<polygon fill="#63b8ff" stroke="#63b8ff" points="403.78,-141.46 402.77,-130.91 396.99,-139.79 403.78,-141.46"/>
</g>
<!-- Node20&#45;&gt;Node7 -->
<g id="edge28" class="edge">
<title>Node20&#45;&gt;Node7</title>
<path fill="none" stroke="#63b8ff" d="M1521.21,-227.76C1393.01,-225.12 994.29,-214.6 869.32,-184 849.03,-179.03 846.29,-171.15 826.32,-165 738.37,-137.89 476.21,-95.21 352,-75.76"/>
<polygon fill="#63b8ff" stroke="#63b8ff" points="352.7,-72.33 342.28,-74.24 351.62,-79.24 352.7,-72.33"/>
</g>
<!-- Node20&#45;&gt;Node12 -->
<g id="edge40" class="edge">
<title>Node20&#45;&gt;Node12</title>
<path fill="none" stroke="#63b8ff" d="M1521.26,-228.3C1396.96,-227.3 1019.3,-221.18 903.32,-184 851.35,-167.34 745.85,-72.99 694.32,-55 570.06,-11.63 527.85,-39.84 394.53,-19.17"/>
<polygon fill="#63b8ff" stroke="#63b8ff" points="395.42,-15.76 384.99,-17.62 394.3,-22.67 395.42,-15.76"/>
</g>
<!-- Node20&#45;&gt;Node14 -->
<g id="edge27" class="edge">
<title>Node20&#45;&gt;Node14</title>
<path fill="none" stroke="#63b8ff" d="M1601.52,-220.66C1603.14,-220.42 1604.74,-220.2 1606.32,-220 1667.19,-212.29 2115.38,-228.77 2157.32,-184 2163.09,-177.84 2163.09,-171.17 2157.32,-165 2105.95,-110.11 933.23,-73.5 696.68,-66.66"/>
<polygon fill="#63b8ff" stroke="#63b8ff" points="696.81,-63.16 686.72,-66.38 696.61,-70.16 696.81,-63.16"/>
</g>
<!-- Node20&#45;&gt;Node18 -->
<g id="edge37" class="edge">
<title>Node20&#45;&gt;Node18</title>
<path fill="none" stroke="#63b8ff" d="M1601.38,-228.14C1732.5,-226.63 2143.18,-219.1 2190.32,-184 2203.92,-173.87 2209.81,-155.08 2212.37,-140.55"/>
<polygon fill="#63b8ff" stroke="#63b8ff" points="2215.83,-141.08 2213.67,-130.71 2208.89,-140.17 2215.83,-141.08"/>
</g>
<!-- Node21 -->
<g id="node21" class="node">
<title>Node21</title>
<g id="a_node21"><a xlink:title=" ">
<polygon fill="#e0e0e0" stroke="#999999" points="1070.82,-184 911.82,-184 911.82,-165 1070.82,-165 1070.82,-184"/>
<text text-anchor="middle" x="991.32" y="-172" font-family="Helvetica,sans-Serif" font-size="10.00">SFML/Graphics/Drawable.hpp</text>
</a>
</g>
</g>
<!-- Node20&#45;&gt;Node21 -->
<g id="edge29" class="edge">
<title>Node20&#45;&gt;Node21</title>
<path fill="none" stroke="#63b8ff" d="M1521.09,-224.82C1440.3,-217.42 1252.27,-200.15 1082.32,-184.19"/>
<polygon fill="#63b8ff" stroke="#63b8ff" points="1082.69,-180.7 1072.4,-183.25 1082.03,-187.67 1082.69,-180.7"/>
</g>
<!-- Node20&#45;&gt;Node22 -->
<g id="edge30" class="edge">
<title>Node20&#45;&gt;Node22</title>
<path fill="none" stroke="#63b8ff" d="M1520.92,-226.66C1410.41,-221.48 1093.89,-205.77 831.32,-184 830.48,-183.93 829.63,-183.86 828.77,-183.79"/>
<polygon fill="#63b8ff" stroke="#63b8ff" points="829.26,-180.32 818.99,-182.91 828.64,-187.29 829.26,-180.32"/>
</g>
<!-- Node23 -->
<g id="node23" class="node">
<title>Node23</title>
<g id="a_node23"><a xlink:title=" ">
<polygon fill="#e0e0e0" stroke="#999999" points="1267.32,-184 1089.32,-184 1089.32,-165 1267.32,-165 1267.32,-184"/>
<text text-anchor="middle" x="1178.32" y="-172" font-family="Helvetica,sans-Serif" font-size="10.00">SFML/Graphics/RenderStates.hpp</text>
</a>
</g>
</g>
<!-- Node20&#45;&gt;Node23 -->
<g id="edge31" class="edge">
<title>Node20&#45;&gt;Node23</title>
<path fill="none" stroke="#63b8ff" d="M1521.06,-222.93C1457.87,-214.18 1334.35,-197.09 1254.14,-185.99"/>
<polygon fill="#63b8ff" stroke="#63b8ff" points="1255.01,-182.58 1244.62,-184.67 1254.05,-189.51 1255.01,-182.58"/>
</g>
<!-- Node24 -->
<g id="node24" class="node">
<title>Node24</title>
<g id="a_node24"><a xlink:title=" ">
<polygon fill="#e0e0e0" stroke="#999999" points="1462.82,-184 1285.82,-184 1285.82,-165 1462.82,-165 1462.82,-184"/>
<text text-anchor="middle" x="1374.32" y="-172" font-family="Helvetica,sans-Serif" font-size="10.00">SFML/Graphics/RenderTarget.hpp</text>
</a>
</g>
</g>
<!-- Node20&#45;&gt;Node24 -->
<g id="edge32" class="edge">
<title>Node20&#45;&gt;Node24</title>
<path fill="none" stroke="#63b8ff" d="M1529.6,-219.51C1498.48,-210.69 1450.82,-197.18 1416.52,-187.46"/>
<polygon fill="#63b8ff" stroke="#63b8ff" points="1417.92,-184.22 1407.34,-184.86 1416.01,-190.95 1417.92,-184.22"/>
</g>
<!-- Node25 -->
<g id="node25" class="node">
<title>Node25</title>
<g id="a_node25"><a xlink:title=" ">
<polygon fill="#e0e0e0" stroke="#999999" points="1641.82,-184 1480.82,-184 1480.82,-165 1641.82,-165 1641.82,-184"/>
<text text-anchor="middle" x="1561.32" y="-172" font-family="Helvetica,sans-Serif" font-size="10.00">SFML/Graphics/Transform.hpp</text>
</a>
</g>
</g>
<!-- Node20&#45;&gt;Node25 -->
<g id="edge33" class="edge">
<title>Node20&#45;&gt;Node25</title>
<path fill="none" stroke="#63b8ff" d="M1561.32,-219.75C1561.32,-213.27 1561.32,-204.16 1561.32,-195.9"/>
<polygon fill="#63b8ff" stroke="#63b8ff" points="1564.82,-195.96 1561.32,-185.96 1557.82,-195.96 1564.82,-195.96"/>
</g>
<!-- Node26 -->
<g id="node26" class="node">
<title>Node26</title>
<g id="a_node26"><a xlink:title=" ">
<polygon fill="#e0e0e0" stroke="#999999" points="1842.32,-184 1660.32,-184 1660.32,-165 1842.32,-165 1842.32,-184"/>
<text text-anchor="middle" x="1751.32" y="-172" font-family="Helvetica,sans-Serif" font-size="10.00">SFML/Graphics/Transformable.hpp</text>
</a>
</g>
</g>
<!-- Node20&#45;&gt;Node26 -->
<g id="edge34" class="edge">
<title>Node20&#45;&gt;Node26</title>
<path fill="none" stroke="#63b8ff" d="M1593.55,-219.51C1625.17,-210.69 1673.59,-197.18 1708.45,-187.46"/>
<polygon fill="#63b8ff" stroke="#63b8ff" points="1709.1,-190.91 1717.79,-184.85 1707.22,-184.17 1709.1,-190.91"/>
</g>
<!-- Node27 -->
<g id="node27" class="node">
<title>Node27</title>
<g id="a_node27"><a xlink:title=" ">
<polygon fill="#e0e0e0" stroke="#999999" points="2032.32,-184 1860.32,-184 1860.32,-165 2032.32,-165 2032.32,-184"/>
<text text-anchor="middle" x="1946.32" y="-172" font-family="Helvetica,sans-Serif" font-size="10.00">SFML/System/NonCopyable.hpp</text>
</a>
</g>
</g>
<!-- Node20&#45;&gt;Node27 -->
<g id="edge35" class="edge">
<title>Node20&#45;&gt;Node27</title>
<path fill="none" stroke="#63b8ff" d="M1601.8,-222.93C1665.32,-214.18 1789.48,-197.09 1870.1,-185.99"/>
<polygon fill="#63b8ff" stroke="#63b8ff" points="1870.25,-189.5 1879.68,-184.67 1869.3,-182.57 1870.25,-189.5"/>
</g>
<!-- Node20&#45;&gt;Node28 -->
<g id="edge36" class="edge">
<title>Node20&#45;&gt;Node28</title>
<path fill="none" stroke="#63b8ff" d="M1601.58,-226.26C1705.44,-220.39 1990.93,-203.65 2228.32,-184 2229.34,-183.92 2230.36,-183.83 2231.38,-183.74"/>
<polygon fill="#63b8ff" stroke="#63b8ff" points="2231.38,-187.26 2241.03,-182.9 2230.77,-180.28 2231.38,-187.26"/>
</g>
<!-- Node29 -->
<g id="node29" class="node">
<title>Node29</title>
<g id="a_node29"><a xlink:title=" ">
<polygon fill="#e0e0e0" stroke="#999999" points="2097.82,-184 2050.82,-184 2050.82,-165 2097.82,-165 2097.82,-184"/>
<text text-anchor="middle" x="2074.32" y="-172" font-family="Helvetica,sans-Serif" font-size="10.00">vector</text>
</a>
</g>
</g>
<!-- Node20&#45;&gt;Node29 -->
<g id="edge38" class="edge">
<title>Node20&#45;&gt;Node29</title>
<path fill="none" stroke="#63b8ff" d="M1601.75,-226.93C1682.88,-223.32 1871.4,-212.57 2039.34,-184.04"/>
<polygon fill="#63b8ff" stroke="#63b8ff" points="2039.88,-187.5 2049.14,-182.34 2038.69,-180.6 2039.88,-187.5"/>
</g>
<!-- Node30 -->
<g id="node30" class="node">
<title>Node30</title>
<g id="a_node30"><a xlink:title=" ">
<polygon fill="#e0e0e0" stroke="#999999" points="2148.32,-184 2116.32,-184 2116.32,-165 2148.32,-165 2148.32,-184"/>
<text text-anchor="middle" x="2132.32" y="-172" font-family="Helvetica,sans-Serif" font-size="10.00">set</text>
</a>
</g>
</g>
<!-- Node20&#45;&gt;Node30 -->
<g id="edge39" class="edge">
<title>Node20&#45;&gt;Node30</title>
<path fill="none" stroke="#63b8ff" d="M1601.53,-228.59C1690.85,-228.07 1912.42,-222.84 2104.9,-183.97"/>
<polygon fill="#63b8ff" stroke="#63b8ff" points="2105.5,-187.42 2114.59,-181.97 2104.09,-180.56 2105.5,-187.42"/>
</g>
<!-- Node31&#45;&gt;Node10 -->
<g id="edge52" class="edge">
<title>Node31&#45;&gt;Node10</title>
<path fill="none" stroke="#63b8ff" d="M2480.59,-228.35C2307.05,-227.33 1407.55,-220.44 674.32,-184 662.78,-183.43 650.59,-182.67 638.65,-181.84"/>
<polygon fill="#63b8ff" stroke="#63b8ff" points="639.05,-178.36 628.82,-181.14 638.55,-185.34 639.05,-178.36"/>
</g>
<!-- Node31&#45;&gt;Node14 -->
<g id="edge48" class="edge">
<title>Node31&#45;&gt;Node14</title>
<path fill="none" stroke="#63b8ff" d="M2540.04,-225.11C2585.47,-218.7 2664.25,-201.95 2637.32,-165 2590.3,-100.48 2545.03,-123.34 2466.32,-110 2286.71,-79.56 948.74,-67.77 696.33,-65.8"/>
<polygon fill="#63b8ff" stroke="#63b8ff" points="696.68,-62.31 686.65,-65.73 696.63,-69.31 696.68,-62.31"/>
</g>
<!-- Node31&#45;&gt;Node18 -->
<g id="edge50" class="edge">
<title>Node31&#45;&gt;Node18</title>
<path fill="none" stroke="#63b8ff" d="M2497.08,-219.66C2476.25,-206.12 2434.19,-180.2 2395.32,-165 2348.48,-146.68 2291.8,-134.2 2254.49,-127.23"/>
<polygon fill="#63b8ff" stroke="#63b8ff" points="2255.52,-123.86 2245.06,-125.51 2254.27,-130.74 2255.52,-123.86"/>
</g>
<!-- Node31&#45;&gt;Node28 -->
<g id="edge51" class="edge">
<title>Node31&#45;&gt;Node28</title>
<path fill="none" stroke="#63b8ff" d="M2480.55,-220.45C2448.04,-211.66 2395.64,-197.49 2358.37,-187.41"/>
<polygon fill="#63b8ff" stroke="#63b8ff" points="2359.35,-184.05 2348.78,-184.82 2357.52,-190.81 2359.35,-184.05"/>
</g>
<!-- Node32 -->
<g id="node32" class="node">
<title>Node32</title>
<g id="a_node32"><a xlink:title=" ">
<polygon fill="#e0e0e0" stroke="#999999" points="2544.32,-184 2480.32,-184 2480.32,-165 2544.32,-165 2544.32,-184"/>
<text text-anchor="middle" x="2512.32" y="-172" font-family="Helvetica,sans-Serif" font-size="10.00">algorithm</text>
</a>
</g>
</g>
<!-- Node31&#45;&gt;Node32 -->
<g id="edge47" class="edge">
<title>Node31&#45;&gt;Node32</title>
<path fill="none" stroke="#63b8ff" d="M2510.65,-219.75C2510.9,-213.27 2511.24,-204.16 2511.55,-195.9"/>
<polygon fill="#63b8ff" stroke="#63b8ff" points="2515.05,-196.08 2511.93,-185.95 2508.05,-195.82 2515.05,-196.08"/>
</g>
<!-- Node33 -->
<g id="node33" class="node">
<title>Node33</title>
<g id="a_node33"><a xlink:title=" ">
<polygon fill="#e0e0e0" stroke="#999999" points="2627.82,-184 2562.82,-184 2562.82,-165 2627.82,-165 2627.82,-184"/>
<text text-anchor="middle" x="2595.32" y="-172" font-family="Helvetica,sans-Serif" font-size="10.00">functional</text>
</a>
</g>
</g>
<!-- Node31&#45;&gt;Node33 -->
<g id="edge49" class="edge">
<title>Node31&#45;&gt;Node33</title>
<path fill="none" stroke="#63b8ff" d="M2524.74,-219.51C2537.52,-211.54 2556.42,-199.75 2571.45,-190.38"/>
<polygon fill="#63b8ff" stroke="#63b8ff" points="2573.2,-193.42 2579.83,-185.16 2569.49,-187.48 2573.2,-193.42"/>
</g>
</g>
</svg>
        <g id="navigator" transform="translate(0 0)" fill="#404254">
                <rect fill="#f2f5e9" fill-opacity="0.5" stroke="#606060" stroke-width=".5" x="0" y="0" width="60" height="60"/>
                <use id="zoomplus" xlink:href="#zoomPlus" x="17" y="9" onmousedown="handleZoom(evt,'in')"/>
                <use id="zoomminus" xlink:href="#zoomMin" x="42" y="9" onmousedown="handleZoom(evt,'out')"/>
                <use id="reset" xlink:href="#resetDef" x="30" y="36" onmousedown="handleReset()"/>
                <g id="arrowUp" xlink:href="#dirArrow" transform="translate(30 24)" onmousedown="handlePan(0,-1)">
                  <use xlink:href="#rim" fill="#404040">
                        <set attributeName="fill" to="#808080" begin="arrowUp.mouseover" end="arrowUp.mouseout"/>
                  </use>
                  <path fill="none" stroke="white" stroke-width="1.5" d="M0,-3.0v7 M-2.5,-0.5L0,-3.0L2.5,-0.5"/>
                </g>
                <g id="arrowRight" xlink:href="#dirArrow" transform="rotate(90) translate(36 -43)" onmousedown="handlePan(1,0)">
                  <use xlink:href="#rim" fill="#404040">
                        <set attributeName="fill" to="#808080" begin="arrowRight.mouseover" end="arrowRight.mouseout"/>
                  </use>
                  <path fill="none" stroke="white" stroke-width="1.5" d="M0,-3.0v7 M-2.5,-0.5L0,-3.0L2.5,-0.5"/>
                </g>
                <g id="arrowDown" xlink:href="#dirArrow" transform="rotate(180) translate(-30 -48)" onmousedown="handlePan(0,1)">
                  <use xlink:href="#rim" fill="#404040">
                        <set attributeName="fill" to="#808080" begin="arrowDown.mouseover" end="arrowDown.mouseout"/>
                  </use>
                  <path fill="none" stroke="white" stroke-width="1.5" d="M0,-3.0v7 M-2.5,-0.5L0,-3.0L2.5,-0.5"/>
                </g>
                <g id="arrowLeft" xlink:href="#dirArrow" transform="rotate(270) translate(-36 17)" onmousedown="handlePan(-1,0)">
                  <use xlink:href="#rim" fill="#404040">
                        <set attributeName="fill" to="#808080" begin="arrowLeft.mouseover" end="arrowLeft.mouseout"/>
                  </use>
                  <path fill="none" stroke="white" stroke-width="1.5" d="M0,-3.0v7 M-2.5,-0.5L0,-3.0L2.5,-0.5"/>
                </g>
        </g>
        <svg viewBox="0 0 15 15" width="100%" height="30px" preserveAspectRatio="xMaxYMin meet">
         <g id="arrow_out" transform="scale(0.3 0.3)">
          <a xlink:href="PlayerCollidable_8cpp__incl_org.svg" target="_base">
           <rect id="button" ry="5" rx="5" y="6" x="6" height="38" width="38"
                fill="#f2f5e9" fill-opacity="0.5" stroke="#606060" stroke-width="1.0"/>
           <path id="arrow"
             d="M 11.500037,31.436501 C 11.940474,20.09759 22.043105,11.32322 32.158766,21.979434 L 37.068811,17.246167 C 37.068811,17.246167 37.088388,32 37.088388,32 L 22.160133,31.978069 C 22.160133,31.978069 26.997745,27.140456 26.997745,27.140456 C 18.528582,18.264221 13.291696,25.230495 11.500037,31.436501 z"
             style="fill:#404040;"/>
          </a>
         </g>
        </svg>
</svg>
