<?xml version="1.0" encoding="UTF-8" standalone="no"?>
<!DOCTYPE svg PUBLIC "-//W3C//DTD SVG 1.1//EN"
 "http://www.w3.org/Graphics/SVG/1.1/DTD/svg11.dtd">
<!-- Generated by graphviz version 7.0.5 (0)
 -->
<!-- Title: src/RoadLaneController.h Pages: 1 -->
<svg width="784pt" height="137pt"
 viewBox="0.00 0.00 784.00 137.00" xmlns="http://www.w3.org/2000/svg" xmlns:xlink="http://www.w3.org/1999/xlink">
<g id="graph0" class="graph" transform="scale(1 1) rotate(0) translate(4 133)">
<title>src/RoadLaneController.h</title>
<!-- Node1 -->
<g id="node1" class="node">
<title>Node1</title>
<g id="a_node1"><a xlink:title=" ">
<polygon fill="#999999" stroke="#666666" points="468.5,-129 330.5,-129 330.5,-110 468.5,-110 468.5,-129"/>
<text text-anchor="middle" x="399.5" y="-117" font-family="Helvetica,sans-Serif" font-size="10.00">src/RoadLaneController.h</text>
</a>
</g>
</g>
<!-- Node2 -->
<g id="node2" class="node">
<title>Node2</title>
<g id="a_node2"><a xlink:href="AnimalLaneController_8h.html" target="_top" xlink:title=" ">
<polygon fill="white" stroke="#666666" points="306.5,-74 158.5,-74 158.5,-55 306.5,-55 306.5,-74"/>
<text text-anchor="middle" x="232.5" y="-62" font-family="Helvetica,sans-Serif" font-size="10.00">src/AnimalLaneController.h</text>
</a>
</g>
</g>
<!-- Node1&#45;&gt;Node2 -->
<g id="edge1" class="edge">
<title>Node1&#45;&gt;Node2</title>
<path fill="none" stroke="#63b8ff" d="M360.46,-106.11C329.88,-96.41 288.07,-83.14 260.69,-74.45"/>
<polygon fill="#63b8ff" stroke="#63b8ff" points="359.14,-109.36 369.73,-109.05 361.26,-102.69 359.14,-109.36"/>
</g>
<!-- Node4 -->
<g id="node4" class="node">
<title>Node4</title>
<g id="a_node4"><a xlink:href="GameLoader_8cpp.html" target="_top" xlink:title=" ">
<polygon fill="white" stroke="#666666" points="293.5,-19 177.5,-19 177.5,0 293.5,0 293.5,-19"/>
<text text-anchor="middle" x="235.5" y="-7" font-family="Helvetica,sans-Serif" font-size="10.00">src/GameLoader.cpp</text>
</a>
</g>
</g>
<!-- Node1&#45;&gt;Node4 -->
<g id="edge5" class="edge">
<title>Node1&#45;&gt;Node4</title>
<path fill="none" stroke="#63b8ff" d="M318.84,-115.08C254.2,-110.44 170.9,-99.54 149.5,-74 129.54,-50.17 172.51,-30.34 204.62,-19.48"/>
<polygon fill="#63b8ff" stroke="#63b8ff" points="318.54,-118.56 328.75,-115.74 319.01,-111.58 318.54,-118.56"/>
</g>
<!-- Node6 -->
<g id="node6" class="node">
<title>Node6</title>
<g id="a_node6"><a xlink:href="RiverController_8h.html" target="_top" xlink:title=" ">
<polygon fill="white" stroke="#666666" points="608.5,-74 492.5,-74 492.5,-55 608.5,-55 608.5,-74"/>
<text text-anchor="middle" x="550.5" y="-62" font-family="Helvetica,sans-Serif" font-size="10.00">src/RiverController.h</text>
</a>
</g>
</g>
<!-- Node1&#45;&gt;Node6 -->
<g id="edge6" class="edge">
<title>Node1&#45;&gt;Node6</title>
<path fill="none" stroke="#63b8ff" d="M435.9,-105.73C463.44,-96.06 500.58,-83.02 525.01,-74.45"/>
<polygon fill="#63b8ff" stroke="#63b8ff" points="434.82,-102.39 426.54,-109.01 437.14,-109 434.82,-102.39"/>
</g>
<!-- Node8 -->
<g id="node8" class="node">
<title>Node8</title>
<g id="a_node8"><a xlink:href="RoadLaneController_8cpp.html" target="_top" xlink:title=" ">
<polygon fill="white" stroke="#666666" points="776,-74 627,-74 627,-55 776,-55 776,-74"/>
<text text-anchor="middle" x="701.5" y="-62" font-family="Helvetica,sans-Serif" font-size="10.00">src/RoadLaneController.cpp</text>
</a>
</g>
</g>
<!-- Node1&#45;&gt;Node8 -->
<g id="edge10" class="edge">
<title>Node1&#45;&gt;Node8</title>
<path fill="none" stroke="#63b8ff" d="M461.87,-107.55C517.6,-97.77 598.24,-83.62 650.27,-74.49"/>
<polygon fill="#63b8ff" stroke="#63b8ff" points="461.47,-104.07 452.22,-109.25 462.68,-110.97 461.47,-104.07"/>
</g>
<!-- Node9 -->
<g id="node9" class="node">
<title>Node9</title>
<g id="a_node9"><a xlink:href="VehicleLaneController_8h.html" target="_top" xlink:title=" ">
<polygon fill="white" stroke="#666666" points="474,-74 325,-74 325,-55 474,-55 474,-74"/>
<text text-anchor="middle" x="399.5" y="-62" font-family="Helvetica,sans-Serif" font-size="10.00">src/VehicleLaneController.h</text>
</a>
</g>
</g>
<!-- Node1&#45;&gt;Node9 -->
<g id="edge11" class="edge">
<title>Node1&#45;&gt;Node9</title>
<path fill="none" stroke="#63b8ff" d="M399.5,-98.35C399.5,-90.1 399.5,-80.97 399.5,-74.44"/>
<polygon fill="#63b8ff" stroke="#63b8ff" points="396,-98.23 399.5,-108.23 403,-98.23 396,-98.23"/>
</g>
<!-- Node3 -->
<g id="node3" class="node">
<title>Node3</title>
<g id="a_node3"><a xlink:href="AnimalLaneController_8cpp.html" target="_top" xlink:title=" ">
<polygon fill="white" stroke="#666666" points="159,-19 0,-19 0,0 159,0 159,-19"/>
<text text-anchor="middle" x="79.5" y="-7" font-family="Helvetica,sans-Serif" font-size="10.00">src/AnimalLaneController.cpp</text>
</a>
</g>
</g>
<!-- Node2&#45;&gt;Node3 -->
<g id="edge2" class="edge">
<title>Node2&#45;&gt;Node3</title>
<path fill="none" stroke="#63b8ff" d="M195.99,-50.85C168.05,-41.17 130.19,-28.06 105.33,-19.45"/>
<polygon fill="#63b8ff" stroke="#63b8ff" points="194.52,-54.05 205.12,-54.01 196.81,-47.43 194.52,-54.05"/>
</g>
<!-- Node2&#45;&gt;Node4 -->
<g id="edge3" class="edge">
<title>Node2&#45;&gt;Node4</title>
<path fill="none" stroke="#63b8ff" d="M233.64,-43.35C234.11,-35.1 234.62,-25.97 234.99,-19.44"/>
<polygon fill="#63b8ff" stroke="#63b8ff" points="230.15,-43.06 233.08,-53.24 237.14,-43.45 230.15,-43.06"/>
</g>
<!-- Node5 -->
<g id="node5" class="node">
<title>Node5</title>
<g id="a_node5"><a xlink:href="SceneBuilder_8cpp.html" target="_top" xlink:title=" ">
<polygon fill="white" stroke="#666666" points="607,-19 490,-19 490,0 607,0 607,-19"/>
<text text-anchor="middle" x="548.5" y="-7" font-family="Helvetica,sans-Serif" font-size="10.00">src/SceneBuilder.cpp</text>
</a>
</g>
</g>
<!-- Node2&#45;&gt;Node5 -->
<g id="edge4" class="edge">
<title>Node2&#45;&gt;Node5</title>
<path fill="none" stroke="#63b8ff" d="M297.4,-52.61C355.72,-42.83 440.34,-28.64 494.9,-19.49"/>
<polygon fill="#63b8ff" stroke="#63b8ff" points="296.88,-49.15 287.6,-54.26 298.04,-56.06 296.88,-49.15"/>
</g>
<!-- Node6&#45;&gt;Node4 -->
<g id="edge7" class="edge">
<title>Node6&#45;&gt;Node4</title>
<path fill="none" stroke="#63b8ff" d="M485.8,-52.61C427.67,-42.83 343.32,-28.64 288.93,-19.49"/>
<polygon fill="#63b8ff" stroke="#63b8ff" points="485.13,-56.05 495.57,-54.26 486.29,-49.15 485.13,-56.05"/>
</g>
<!-- Node6&#45;&gt;Node5 -->
<g id="edge9" class="edge">
<title>Node6&#45;&gt;Node5</title>
<path fill="none" stroke="#63b8ff" d="M549.74,-43.35C549.43,-35.1 549.08,-25.97 548.84,-19.44"/>
<polygon fill="#63b8ff" stroke="#63b8ff" points="546.24,-43.37 550.11,-53.24 553.23,-43.11 546.24,-43.37"/>
</g>
<!-- Node7 -->
<g id="node7" class="node">
<title>Node7</title>
<g id="a_node7"><a xlink:href="RiverController_8cpp.html" target="_top" xlink:title=" ">
<polygon fill="white" stroke="#666666" points="752,-19 625,-19 625,0 752,0 752,-19"/>
<text text-anchor="middle" x="688.5" y="-7" font-family="Helvetica,sans-Serif" font-size="10.00">src/RiverController.cpp</text>
</a>
</g>
</g>
<!-- Node6&#45;&gt;Node7 -->
<g id="edge8" class="edge">
<title>Node6&#45;&gt;Node7</title>
<path fill="none" stroke="#63b8ff" d="M584.47,-50.45C609.66,-40.78 643.32,-27.85 665.44,-19.36"/>
<polygon fill="#63b8ff" stroke="#63b8ff" points="583.4,-47.11 575.32,-53.97 585.91,-53.65 583.4,-47.11"/>
</g>
<!-- Node9&#45;&gt;Node4 -->
<g id="edge12" class="edge">
<title>Node9&#45;&gt;Node4</title>
<path fill="none" stroke="#63b8ff" d="M360.77,-50.98C330.77,-41.29 289.96,-28.1 263.18,-19.45"/>
<polygon fill="#63b8ff" stroke="#63b8ff" points="359.65,-54.3 370.24,-54.04 361.8,-47.64 359.65,-54.3"/>
</g>
<!-- Node9&#45;&gt;Node5 -->
<g id="edge13" class="edge">
<title>Node9&#45;&gt;Node5</title>
<path fill="none" stroke="#63b8ff" d="M435.45,-50.71C462.72,-41.01 499.5,-27.93 523.6,-19.36"/>
<polygon fill="#63b8ff" stroke="#63b8ff" points="434.45,-47.35 426.2,-54 436.8,-53.95 434.45,-47.35"/>
</g>
<!-- Node10 -->
<g id="node10" class="node">
<title>Node10</title>
<g id="a_node10"><a xlink:href="VehicleLaneController_8cpp.html" target="_top" xlink:title=" ">
<polygon fill="white" stroke="#666666" points="471.5,-19 311.5,-19 311.5,0 471.5,0 471.5,-19"/>
<text text-anchor="middle" x="391.5" y="-7" font-family="Helvetica,sans-Serif" font-size="10.00">src/VehicleLaneController.cpp</text>
</a>
</g>
</g>
<!-- Node9&#45;&gt;Node10 -->
<g id="edge14" class="edge">
<title>Node9&#45;&gt;Node10</title>
<path fill="none" stroke="#63b8ff" d="M396.5,-43.64C395.25,-35.31 393.85,-26.05 392.85,-19.44"/>
<polygon fill="#63b8ff" stroke="#63b8ff" points="393,-43.89 397.95,-53.25 399.92,-42.84 393,-43.89"/>
</g>
</g>
</svg>
