<?xml version="1.0" encoding="UTF-8" standalone="no"?>
<!DOCTYPE svg PUBLIC "-//W3C//DTD SVG 1.1//EN"
 "http://www.w3.org/Graphics/SVG/1.1/DTD/svg11.dtd">
<!-- Generated by graphviz version 7.0.5 (0)
 -->
<!-- Title: src/RoadLane.cpp Pages: 1 -->
<svg width="3021pt" height="632pt"
 viewBox="0.00 0.00 3021.21 632.00" xmlns="http://www.w3.org/2000/svg" xmlns:xlink="http://www.w3.org/1999/xlink">
<g id="graph0" class="graph" transform="scale(1 1) rotate(0) translate(4 628)">
<title>src/RoadLane.cpp</title>
<!-- Node1 -->
<g id="node1" class="node">
<title>Node1</title>
<g id="a_node1"><a xlink:title=" ">
<polygon fill="#999999" stroke="#666666" points="1862.21,-624 1760.21,-624 1760.21,-605 1862.21,-605 1862.21,-624"/>
<text text-anchor="middle" x="1811.21" y="-612" font-family="Helvetica,sans-Serif" font-size="10.00">src/RoadLane.cpp</text>
</a>
</g>
</g>
<!-- Node2 -->
<g id="node2" class="node">
<title>Node2</title>
<g id="a_node2"><a xlink:href="RoadLane_8h.html" target="_top" xlink:title=" ">
<polygon fill="white" stroke="#666666" points="1848.21,-569 1774.21,-569 1774.21,-550 1848.21,-550 1848.21,-569"/>
<text text-anchor="middle" x="1811.21" y="-557" font-family="Helvetica,sans-Serif" font-size="10.00">RoadLane.h</text>
</a>
</g>
</g>
<!-- Node1&#45;&gt;Node2 -->
<g id="edge1" class="edge">
<title>Node1&#45;&gt;Node2</title>
<path fill="none" stroke="#63b8ff" d="M1811.21,-604.75C1811.21,-598.27 1811.21,-589.16 1811.21,-580.9"/>
<polygon fill="#63b8ff" stroke="#63b8ff" points="1814.71,-580.96 1811.21,-570.96 1807.71,-580.96 1814.71,-580.96"/>
</g>
<!-- Node5 -->
<g id="node5" class="node">
<title>Node5</title>
<g id="a_node5"><a xlink:title=" ">
<polygon fill="#e0e0e0" stroke="#999999" points="159.21,-19 99.21,-19 99.21,0 159.21,0 159.21,-19"/>
<text text-anchor="middle" x="129.21" y="-7" font-family="Helvetica,sans-Serif" font-size="10.00">iostream</text>
</a>
</g>
</g>
<!-- Node1&#45;&gt;Node5 -->
<g id="edge85" class="edge">
<title>Node1&#45;&gt;Node5</title>
<path fill="none" stroke="#63b8ff" d="M1759.93,-613.19C1465.21,-611.1 0.21,-596.15 0.21,-505.5 0.21,-505.5 0.21,-505.5 0.21,-118.5 0.21,-89.04 -0.62,-76.78 19.21,-55 28.96,-44.29 61.19,-31.92 88.26,-22.94"/>
<polygon fill="#63b8ff" stroke="#63b8ff" points="89.21,-26.31 97.64,-19.91 87.05,-19.65 89.21,-26.31"/>
</g>
<!-- Node30 -->
<g id="node30" class="node">
<title>Node30</title>
<g id="a_node30"><a xlink:href="Commuters_8h.html" target="_top" xlink:title=" ">
<polygon fill="white" stroke="#666666" points="1998.71,-514 1915.71,-514 1915.71,-495 1998.71,-495 1998.71,-514"/>
<text text-anchor="middle" x="1957.21" y="-502" font-family="Helvetica,sans-Serif" font-size="10.00">Commuters.h</text>
</a>
</g>
</g>
<!-- Node1&#45;&gt;Node30 -->
<g id="edge84" class="edge">
<title>Node1&#45;&gt;Node30</title>
<path fill="none" stroke="#63b8ff" d="M1823.16,-604.66C1847.86,-586.39 1904.85,-544.23 1935.97,-521.21"/>
<polygon fill="#63b8ff" stroke="#63b8ff" points="1937.92,-524.12 1943.88,-515.36 1933.76,-518.49 1937.92,-524.12"/>
</g>
<!-- Node3 -->
<g id="node3" class="node">
<title>Node3</title>
<g id="a_node3"><a xlink:href="Random_8h.html" target="_top" xlink:title=" ">
<polygon fill="white" stroke="#666666" points="94.21,-74 28.21,-74 28.21,-55 94.21,-55 94.21,-74"/>
<text text-anchor="middle" x="61.21" y="-62" font-family="Helvetica,sans-Serif" font-size="10.00">Random.h</text>
</a>
</g>
</g>
<!-- Node2&#45;&gt;Node3 -->
<g id="edge2" class="edge">
<title>Node2&#45;&gt;Node3</title>
<path fill="none" stroke="#63b8ff" d="M1773.94,-558.23C1519.31,-556.15 46.21,-540.25 46.21,-450.5 46.21,-450.5 46.21,-450.5 46.21,-173.5 46.21,-142.63 52.3,-107.26 56.71,-85.66"/>
<polygon fill="#63b8ff" stroke="#63b8ff" points="60.14,-86.39 58.81,-75.88 53.29,-84.93 60.14,-86.39"/>
</g>
<!-- Node6 -->
<g id="node6" class="node">
<title>Node6</title>
<g id="a_node6"><a xlink:href="Lane_8h.html" target="_top" xlink:title=" ">
<polygon fill="white" stroke="#666666" points="1797.71,-294 1748.71,-294 1748.71,-275 1797.71,-275 1797.71,-294"/>
<text text-anchor="middle" x="1773.21" y="-282" font-family="Helvetica,sans-Serif" font-size="10.00">Lane.h</text>
</a>
</g>
</g>
<!-- Node2&#45;&gt;Node6 -->
<g id="edge5" class="edge">
<title>Node2&#45;&gt;Node6</title>
<path fill="none" stroke="#63b8ff" d="M1805.76,-549.63C1795.26,-531.63 1773.21,-489.26 1773.21,-450.5 1773.21,-450.5 1773.21,-450.5 1773.21,-393.5 1773.21,-362.92 1773.21,-327.48 1773.21,-305.77"/>
<polygon fill="#63b8ff" stroke="#63b8ff" points="1776.71,-305.97 1773.21,-295.97 1769.71,-305.97 1776.71,-305.97"/>
</g>
<!-- Node21 -->
<g id="node21" class="node">
<title>Node21</title>
<g id="a_node21"><a xlink:href="Entity_8h.html" target="_top" xlink:title=" ">
<polygon fill="white" stroke="#666666" points="1959.71,-294 1906.71,-294 1906.71,-275 1959.71,-275 1959.71,-294"/>
<text text-anchor="middle" x="1933.21" y="-282" font-family="Helvetica,sans-Serif" font-size="10.00">Entity.h</text>
</a>
</g>
</g>
<!-- Node2&#45;&gt;Node21 -->
<g id="edge22" class="edge">
<title>Node2&#45;&gt;Node21</title>
<path fill="none" stroke="#63b8ff" d="M1816.65,-549.63C1827.16,-531.63 1849.21,-489.26 1849.21,-450.5 1849.21,-450.5 1849.21,-450.5 1849.21,-393.5 1849.21,-353.66 1885.27,-319.66 1910.14,-300.95"/>
<polygon fill="#63b8ff" stroke="#63b8ff" points="1912.04,-303.9 1918.11,-295.22 1907.95,-298.22 1912.04,-303.9"/>
</g>
<!-- Node2&#45;&gt;Node30 -->
<g id="edge46" class="edge">
<title>Node2&#45;&gt;Node30</title>
<path fill="none" stroke="#63b8ff" d="M1835.97,-549.51C1859.61,-540.93 1895.45,-527.92 1922.04,-518.27"/>
<polygon fill="#63b8ff" stroke="#63b8ff" points="1923.18,-521.58 1931.38,-514.87 1920.79,-515 1923.18,-521.58"/>
</g>
<!-- Node31 -->
<g id="node31" class="node">
<title>Node31</title>
<g id="a_node31"><a xlink:href="Light_8h.html" target="_top" xlink:title=" ">
<polygon fill="white" stroke="#666666" points="1927.21,-459 1877.21,-459 1877.21,-440 1927.21,-440 1927.21,-459"/>
<text text-anchor="middle" x="1902.21" y="-447" font-family="Helvetica,sans-Serif" font-size="10.00">Light.h</text>
</a>
</g>
</g>
<!-- Node2&#45;&gt;Node31 -->
<g id="edge81" class="edge">
<title>Node2&#45;&gt;Node31</title>
<path fill="none" stroke="#63b8ff" d="M1823.74,-549.56C1834.92,-541.19 1851.32,-527.91 1863.21,-514 1875.02,-500.17 1885.63,-482.37 1892.78,-469.14"/>
<polygon fill="#63b8ff" stroke="#63b8ff" points="1895.7,-471.11 1897.23,-460.63 1889.5,-467.87 1895.7,-471.11"/>
</g>
<!-- Node38 -->
<g id="node38" class="node">
<title>Node38</title>
<g id="a_node38"><a xlink:title=" ">
<polygon fill="#e0e0e0" stroke="#999999" points="2512.71,-184 2447.71,-184 2447.71,-165 2512.71,-165 2512.71,-184"/>
<text text-anchor="middle" x="2480.21" y="-172" font-family="Helvetica,sans-Serif" font-size="10.00">functional</text>
</a>
</g>
</g>
<!-- Node2&#45;&gt;Node38 -->
<g id="edge83" class="edge">
<title>Node2&#45;&gt;Node38</title>
<path fill="none" stroke="#63b8ff" d="M1811.21,-549.54C1811.21,-531.03 1811.21,-487.25 1811.21,-450.5 1811.21,-450.5 1811.21,-450.5 1811.21,-393.5 1811.21,-328.16 1842.17,-308.59 1898.21,-275 1994.87,-217.06 2038.05,-257.54 2149.21,-239 2274.65,-218.08 2308.1,-209.65 2436.59,-184.31"/>
<polygon fill="#63b8ff" stroke="#63b8ff" points="2437.04,-187.78 2446.17,-182.42 2435.68,-180.92 2437.04,-187.78"/>
</g>
<!-- Node40 -->
<g id="node40" class="node">
<title>Node40</title>
<g id="a_node40"><a xlink:title=" ">
<polygon fill="#e0e0e0" stroke="#999999" points="1744.71,-514 1697.71,-514 1697.71,-495 1744.71,-495 1744.71,-514"/>
<text text-anchor="middle" x="1721.21" y="-502" font-family="Helvetica,sans-Serif" font-size="10.00">deque</text>
</a>
</g>
</g>
<!-- Node2&#45;&gt;Node40 -->
<g id="edge82" class="edge">
<title>Node2&#45;&gt;Node40</title>
<path fill="none" stroke="#63b8ff" d="M1795.94,-549.51C1782.28,-541.47 1762.01,-529.53 1746.02,-520.11"/>
<polygon fill="#63b8ff" stroke="#63b8ff" points="1747.95,-517.18 1737.55,-515.13 1744.39,-523.22 1747.95,-517.18"/>
</g>
<!-- Node4 -->
<g id="node4" class="node">
<title>Node4</title>
<g id="a_node4"><a xlink:title=" ">
<polygon fill="#e0e0e0" stroke="#999999" points="81.21,-19 27.21,-19 27.21,0 81.21,0 81.21,-19"/>
<text text-anchor="middle" x="54.21" y="-7" font-family="Helvetica,sans-Serif" font-size="10.00">random</text>
</a>
</g>
</g>
<!-- Node3&#45;&gt;Node4 -->
<g id="edge3" class="edge">
<title>Node3&#45;&gt;Node4</title>
<path fill="none" stroke="#63b8ff" d="M60.05,-54.75C59.19,-48.19 57.97,-38.95 56.86,-30.6"/>
<polygon fill="#63b8ff" stroke="#63b8ff" points="60.37,-30.4 55.59,-20.94 53.43,-31.31 60.37,-30.4"/>
</g>
<!-- Node3&#45;&gt;Node5 -->
<g id="edge4" class="edge">
<title>Node3&#45;&gt;Node5</title>
<path fill="none" stroke="#63b8ff" d="M72.74,-54.51C82.67,-46.77 97.22,-35.43 109.06,-26.2"/>
<polygon fill="#63b8ff" stroke="#63b8ff" points="110.91,-29.2 116.65,-20.29 106.61,-23.68 110.91,-29.2"/>
</g>
<!-- Node7 -->
<g id="node7" class="node">
<title>Node7</title>
<g id="a_node7"><a xlink:href="SceneNode_8h.html" target="_top" xlink:title=" ">
<polygon fill="white" stroke="#666666" points="2140.21,-239 2060.21,-239 2060.21,-220 2140.21,-220 2140.21,-239"/>
<text text-anchor="middle" x="2100.21" y="-227" font-family="Helvetica,sans-Serif" font-size="10.00">SceneNode.h</text>
</a>
</g>
</g>
<!-- Node6&#45;&gt;Node7 -->
<g id="edge6" class="edge">
<title>Node6&#45;&gt;Node7</title>
<path fill="none" stroke="#63b8ff" d="M1798.05,-279.47C1851.32,-270.84 1977.44,-250.4 2048.76,-238.84"/>
<polygon fill="#63b8ff" stroke="#63b8ff" points="2048.91,-242.36 2058.22,-237.31 2047.79,-235.45 2048.91,-242.36"/>
</g>
<!-- Node8 -->
<g id="node8" class="node">
<title>Node8</title>
<g id="a_node8"><a xlink:href="Enums_8h.html" target="_top" xlink:title=" ">
<polygon fill="white" stroke="#666666" points="805.71,-74 746.71,-74 746.71,-55 805.71,-55 805.71,-74"/>
<text text-anchor="middle" x="776.21" y="-62" font-family="Helvetica,sans-Serif" font-size="10.00">Enums.h</text>
</a>
</g>
</g>
<!-- Node6&#45;&gt;Node8 -->
<g id="edge21" class="edge">
<title>Node6&#45;&gt;Node8</title>
<path fill="none" stroke="#63b8ff" d="M1748.45,-283.3C1546.44,-281.61 175.41,-269.01 146.21,-239 106.23,-197.91 107.12,-151.94 146.21,-110 186.3,-66.98 601.6,-64.81 735.12,-65.24"/>
<polygon fill="#63b8ff" stroke="#63b8ff" points="734.89,-68.74 744.9,-65.28 734.92,-61.74 734.89,-68.74"/>
</g>
<!-- Node7&#45;&gt;Node5 -->
<g id="edge20" class="edge">
<title>Node7&#45;&gt;Node5</title>
<path fill="none" stroke="#63b8ff" d="M2137.4,-219.63C2156.09,-213.09 2177.09,-202.08 2188.21,-184 2221.2,-130.35 2155.89,-129.45 2100.21,-110 1896.66,-38.89 1833.27,-70.46 1618.21,-55 1045.8,-13.86 346.97,-10.61 170.96,-10.47"/>
<polygon fill="#63b8ff" stroke="#63b8ff" points="171.17,-6.97 161.17,-10.46 171.17,-13.97 171.17,-6.97"/>
</g>
<!-- Node7&#45;&gt;Node8 -->
<g id="edge7" class="edge">
<title>Node7&#45;&gt;Node8</title>
<path fill="none" stroke="#63b8ff" d="M2059.88,-221.59C2055.28,-220.97 2050.65,-220.42 2046.21,-220 1917.05,-207.89 996.41,-239.61 879.21,-184 877.72,-183.29 819.42,-115.7 791.2,-82.93"/>
<polygon fill="#63b8ff" stroke="#63b8ff" points="793.97,-80.78 784.8,-75.49 788.67,-85.35 793.97,-80.78"/>
</g>
<!-- Node9 -->
<g id="node9" class="node">
<title>Node9</title>
<g id="a_node9"><a xlink:title=" ">
<polygon fill="#e0e0e0" stroke="#999999" points="1609.21,-74 1499.21,-74 1499.21,-55 1609.21,-55 1609.21,-74"/>
<text text-anchor="middle" x="1554.21" y="-62" font-family="Helvetica,sans-Serif" font-size="10.00">SFML/Graphics.hpp</text>
</a>
</g>
</g>
<!-- Node7&#45;&gt;Node9 -->
<g id="edge8" class="edge">
<title>Node7&#45;&gt;Node9</title>
<path fill="none" stroke="#63b8ff" d="M2124.38,-219.52C2151.91,-207.99 2190.8,-186.82 2172.21,-165 2101.92,-82.49 1765.96,-68.15 1621.02,-65.84"/>
<polygon fill="#63b8ff" stroke="#63b8ff" points="1621.23,-62.35 1611.18,-65.7 1621.13,-69.35 1621.23,-62.35"/>
</g>
<!-- Node10 -->
<g id="node10" class="node">
<title>Node10</title>
<g id="a_node10"><a xlink:title=" ">
<polygon fill="#e0e0e0" stroke="#999999" points="1201.71,-184 1042.71,-184 1042.71,-165 1201.71,-165 1201.71,-184"/>
<text text-anchor="middle" x="1122.21" y="-172" font-family="Helvetica,sans-Serif" font-size="10.00">SFML/Graphics/Drawable.hpp</text>
</a>
</g>
</g>
<!-- Node7&#45;&gt;Node10 -->
<g id="edge9" class="edge">
<title>Node7&#45;&gt;Node10</title>
<path fill="none" stroke="#63b8ff" d="M2059.87,-221.64C2055.28,-221.01 2050.65,-220.44 2046.21,-220 1680.29,-183.43 1583.7,-209.14 1213.09,-184.08"/>
<polygon fill="#63b8ff" stroke="#63b8ff" points="1213.49,-180.6 1203.28,-183.41 1213.01,-187.58 1213.49,-180.6"/>
</g>
<!-- Node11 -->
<g id="node11" class="node">
<title>Node11</title>
<g id="a_node11"><a xlink:title=" ">
<polygon fill="#e0e0e0" stroke="#999999" points="2429.21,-184 2295.21,-184 2295.21,-165 2429.21,-165 2429.21,-184"/>
<text text-anchor="middle" x="2362.21" y="-172" font-family="Helvetica,sans-Serif" font-size="10.00">SFML/Graphics/Rect.hpp</text>
</a>
</g>
</g>
<!-- Node7&#45;&gt;Node11 -->
<g id="edge10" class="edge">
<title>Node7&#45;&gt;Node11</title>
<path fill="none" stroke="#63b8ff" d="M2140.57,-220.33C2185.05,-211.34 2256.87,-196.81 2306.65,-186.74"/>
<polygon fill="#63b8ff" stroke="#63b8ff" points="2307.26,-190.19 2316.37,-184.77 2305.87,-183.32 2307.26,-190.19"/>
</g>
<!-- Node12 -->
<g id="node12" class="node">
<title>Node12</title>
<g id="a_node12"><a xlink:title=" ">
<polygon fill="#e0e0e0" stroke="#999999" points="1398.21,-184 1220.21,-184 1220.21,-165 1398.21,-165 1398.21,-184"/>
<text text-anchor="middle" x="1309.21" y="-172" font-family="Helvetica,sans-Serif" font-size="10.00">SFML/Graphics/RenderStates.hpp</text>
</a>
</g>
</g>
<!-- Node7&#45;&gt;Node12 -->
<g id="edge11" class="edge">
<title>Node7&#45;&gt;Node12</title>
<path fill="none" stroke="#63b8ff" d="M2059.87,-221.7C2055.27,-221.06 2050.64,-220.47 2046.21,-220 1767.09,-190.24 1692.88,-203.92 1410.11,-184.18"/>
<polygon fill="#63b8ff" stroke="#63b8ff" points="1410.39,-180.69 1400.17,-183.48 1409.9,-187.67 1410.39,-180.69"/>
</g>
<!-- Node13 -->
<g id="node13" class="node">
<title>Node13</title>
<g id="a_node13"><a xlink:title=" ">
<polygon fill="#e0e0e0" stroke="#999999" points="1593.71,-184 1416.71,-184 1416.71,-165 1593.71,-165 1593.71,-184"/>
<text text-anchor="middle" x="1505.21" y="-172" font-family="Helvetica,sans-Serif" font-size="10.00">SFML/Graphics/RenderTarget.hpp</text>
</a>
</g>
</g>
<!-- Node7&#45;&gt;Node13 -->
<g id="edge12" class="edge">
<title>Node7&#45;&gt;Node13</title>
<path fill="none" stroke="#63b8ff" d="M2059.86,-221.81C2055.26,-221.15 2050.64,-220.53 2046.21,-220 1853.26,-197.03 1801.4,-200.5 1605.29,-184.25"/>
<polygon fill="#63b8ff" stroke="#63b8ff" points="1605.78,-180.78 1595.52,-183.43 1605.19,-187.75 1605.78,-180.78"/>
</g>
<!-- Node14 -->
<g id="node14" class="node">
<title>Node14</title>
<g id="a_node14"><a xlink:title=" ">
<polygon fill="#e0e0e0" stroke="#999999" points="1772.71,-184 1611.71,-184 1611.71,-165 1772.71,-165 1772.71,-184"/>
<text text-anchor="middle" x="1692.21" y="-172" font-family="Helvetica,sans-Serif" font-size="10.00">SFML/Graphics/Transform.hpp</text>
</a>
</g>
</g>
<!-- Node7&#45;&gt;Node14 -->
<g id="edge13" class="edge">
<title>Node7&#45;&gt;Node14</title>
<path fill="none" stroke="#63b8ff" d="M2059.83,-222C2055.24,-221.31 2050.62,-220.63 2046.21,-220 1955.83,-207.21 1852.2,-194.4 1780.52,-185.83"/>
<polygon fill="#63b8ff" stroke="#63b8ff" points="1781.14,-182.38 1770.8,-184.67 1780.31,-189.33 1781.14,-182.38"/>
</g>
<!-- Node15 -->
<g id="node15" class="node">
<title>Node15</title>
<g id="a_node15"><a xlink:title=" ">
<polygon fill="#e0e0e0" stroke="#999999" points="1973.21,-184 1791.21,-184 1791.21,-165 1973.21,-165 1973.21,-184"/>
<text text-anchor="middle" x="1882.21" y="-172" font-family="Helvetica,sans-Serif" font-size="10.00">SFML/Graphics/Transformable.hpp</text>
</a>
</g>
</g>
<!-- Node7&#45;&gt;Node15 -->
<g id="edge14" class="edge">
<title>Node7&#45;&gt;Node15</title>
<path fill="none" stroke="#63b8ff" d="M2063.23,-219.51C2026.55,-210.59 1970.19,-196.89 1930.11,-187.15"/>
<polygon fill="#63b8ff" stroke="#63b8ff" points="1931.02,-183.77 1920.48,-184.8 1929.37,-190.57 1931.02,-183.77"/>
</g>
<!-- Node16 -->
<g id="node16" class="node">
<title>Node16</title>
<g id="a_node16"><a xlink:title=" ">
<polygon fill="#e0e0e0" stroke="#999999" points="2163.21,-184 1991.21,-184 1991.21,-165 2163.21,-165 2163.21,-184"/>
<text text-anchor="middle" x="2077.21" y="-172" font-family="Helvetica,sans-Serif" font-size="10.00">SFML/System/NonCopyable.hpp</text>
</a>
</g>
</g>
<!-- Node7&#45;&gt;Node16 -->
<g id="edge15" class="edge">
<title>Node7&#45;&gt;Node16</title>
<path fill="none" stroke="#63b8ff" d="M2096.41,-219.75C2093.46,-212.96 2089.27,-203.3 2085.56,-194.73"/>
<polygon fill="#63b8ff" stroke="#63b8ff" points="2088.88,-193.61 2081.69,-185.83 2082.46,-196.4 2088.88,-193.61"/>
</g>
<!-- Node17 -->
<g id="node17" class="node">
<title>Node17</title>
<g id="a_node17"><a xlink:title=" ">
<polygon fill="#e0e0e0" stroke="#999999" points="2870.71,-184 2727.71,-184 2727.71,-165 2870.71,-165 2870.71,-184"/>
<text text-anchor="middle" x="2799.21" y="-172" font-family="Helvetica,sans-Serif" font-size="10.00">SFML/System/Vector2.hpp</text>
</a>
</g>
</g>
<!-- Node7&#45;&gt;Node17 -->
<g id="edge16" class="edge">
<title>Node7&#45;&gt;Node17</title>
<path fill="none" stroke="#63b8ff" d="M2140.37,-226.06C2237.27,-220.09 2491.78,-203.82 2715.91,-184.17"/>
<polygon fill="#63b8ff" stroke="#63b8ff" points="2716.07,-187.67 2725.72,-183.31 2715.45,-180.7 2716.07,-187.67"/>
</g>
<!-- Node18 -->
<g id="node18" class="node">
<title>Node18</title>
<g id="a_node18"><a xlink:title=" ">
<polygon fill="#e0e0e0" stroke="#999999" points="1043.21,-129 985.21,-129 985.21,-110 1043.21,-110 1043.21,-129"/>
<text text-anchor="middle" x="1014.21" y="-117" font-family="Helvetica,sans-Serif" font-size="10.00">memory</text>
</a>
</g>
</g>
<!-- Node7&#45;&gt;Node18 -->
<g id="edge17" class="edge">
<title>Node7&#45;&gt;Node18</title>
<path fill="none" stroke="#63b8ff" d="M2059.88,-221.61C2055.28,-220.98 2050.65,-220.43 2046.21,-220 1990.15,-214.61 1077.77,-218.43 1033.21,-184 1020.11,-173.88 1015.73,-155.08 1014.41,-140.55"/>
<polygon fill="#63b8ff" stroke="#63b8ff" points="1017.91,-140.55 1013.96,-130.72 1010.92,-140.87 1017.91,-140.55"/>
</g>
<!-- Node19 -->
<g id="node19" class="node">
<title>Node19</title>
<g id="a_node19"><a xlink:title=" ">
<polygon fill="#e0e0e0" stroke="#999999" points="935.71,-184 888.71,-184 888.71,-165 935.71,-165 935.71,-184"/>
<text text-anchor="middle" x="912.21" y="-172" font-family="Helvetica,sans-Serif" font-size="10.00">vector</text>
</a>
</g>
</g>
<!-- Node7&#45;&gt;Node19 -->
<g id="edge18" class="edge">
<title>Node7&#45;&gt;Node19</title>
<path fill="none" stroke="#63b8ff" d="M2059.88,-221.6C2055.28,-220.97 2050.65,-220.42 2046.21,-220 1562.48,-174.2 1431.82,-252.28 947.03,-183.85"/>
<polygon fill="#63b8ff" stroke="#63b8ff" points="947.77,-180.42 937.37,-182.47 946.78,-187.35 947.77,-180.42"/>
</g>
<!-- Node20 -->
<g id="node20" class="node">
<title>Node20</title>
<g id="a_node20"><a xlink:title=" ">
<polygon fill="#e0e0e0" stroke="#999999" points="986.21,-184 954.21,-184 954.21,-165 986.21,-165 986.21,-184"/>
<text text-anchor="middle" x="970.21" y="-172" font-family="Helvetica,sans-Serif" font-size="10.00">set</text>
</a>
</g>
</g>
<!-- Node7&#45;&gt;Node20 -->
<g id="edge19" class="edge">
<title>Node7&#45;&gt;Node20</title>
<path fill="none" stroke="#63b8ff" d="M2059.88,-221.6C2055.28,-220.98 2050.65,-220.42 2046.21,-220 1583.15,-175.75 1459.78,-255.93 1000.21,-184 999.37,-183.87 998.51,-183.72 997.66,-183.56"/>
<polygon fill="#63b8ff" stroke="#63b8ff" points="998.57,-180.18 988.03,-181.26 996.94,-186.99 998.57,-180.18"/>
</g>
<!-- Node21&#45;&gt;Node7 -->
<g id="edge42" class="edge">
<title>Node21&#45;&gt;Node7</title>
<path fill="none" stroke="#63b8ff" d="M1960.04,-274.98C1987.38,-266.31 2030.08,-252.76 2061.17,-242.89"/>
<polygon fill="#63b8ff" stroke="#63b8ff" points="2062.13,-246.26 2070.61,-239.89 2060.02,-239.58 2062.13,-246.26"/>
</g>
<!-- Node21&#45;&gt;Node8 -->
<g id="edge41" class="edge">
<title>Node21&#45;&gt;Node8</title>
<path fill="none" stroke="#63b8ff" d="M1906.47,-281.38C1880.78,-279.42 1840.87,-276.58 1806.21,-275 1640.66,-267.47 477.48,-272.61 315.21,-239 251.36,-225.78 215.66,-238.06 179.21,-184 115,-88.77 590.33,-69.82 735.18,-66.27"/>
<polygon fill="#63b8ff" stroke="#63b8ff" points="735.16,-69.78 745.08,-66.05 735,-62.78 735.16,-69.78"/>
</g>
<!-- Node21&#45;&gt;Node11 -->
<g id="edge43" class="edge">
<title>Node21&#45;&gt;Node11</title>
<path fill="none" stroke="#63b8ff" d="M1959.98,-278.76C2000.97,-271.32 2081.63,-256 2149.21,-239 2210.91,-223.48 2281.49,-201.61 2323.92,-188.01"/>
<polygon fill="#63b8ff" stroke="#63b8ff" points="2324.96,-191.35 2333.41,-184.95 2322.81,-184.69 2324.96,-191.35"/>
</g>
<!-- Node21&#45;&gt;Node17 -->
<g id="edge45" class="edge">
<title>Node21&#45;&gt;Node17</title>
<path fill="none" stroke="#63b8ff" d="M1960.13,-283.24C2075.54,-281.93 2528.74,-274.55 2666.21,-239 2706.7,-228.53 2749.72,-205.54 2775.52,-190.28"/>
<polygon fill="#63b8ff" stroke="#63b8ff" points="2777.1,-193.42 2783.85,-185.26 2773.48,-187.42 2777.1,-193.42"/>
</g>
<!-- Node22 -->
<g id="node22" class="node">
<title>Node22</title>
<g id="a_node22"><a xlink:href="AnimationMachine_8h.html" target="_top" xlink:title=" ">
<polygon fill="white" stroke="#666666" points="441.71,-239 324.71,-239 324.71,-220 441.71,-220 441.71,-239"/>
<text text-anchor="middle" x="383.21" y="-227" font-family="Helvetica,sans-Serif" font-size="10.00">AnimationMachine.h</text>
</a>
</g>
</g>
<!-- Node21&#45;&gt;Node22 -->
<g id="edge23" class="edge">
<title>Node21&#45;&gt;Node22</title>
<path fill="none" stroke="#63b8ff" d="M1906.47,-281.43C1880.78,-279.51 1840.86,-276.7 1806.21,-275 1287.1,-249.52 660.71,-235.87 453.5,-231.81"/>
<polygon fill="#63b8ff" stroke="#63b8ff" points="453.78,-228.32 443.72,-231.62 453.65,-235.32 453.78,-228.32"/>
</g>
<!-- Node25 -->
<g id="node25" class="node">
<title>Node25</title>
<g id="a_node25"><a xlink:title=" ">
<polygon fill="#e0e0e0" stroke="#999999" points="831.71,-184 700.71,-184 700.71,-165 831.71,-165 831.71,-184"/>
<text text-anchor="middle" x="766.21" y="-172" font-family="Helvetica,sans-Serif" font-size="10.00">SFML/System/Time.hpp</text>
</a>
</g>
</g>
<!-- Node21&#45;&gt;Node25 -->
<g id="edge44" class="edge">
<title>Node21&#45;&gt;Node25</title>
<path fill="none" stroke="#63b8ff" d="M1906.3,-281.18C1784.05,-270.62 1268.64,-225.77 846.21,-184 845.2,-183.9 844.19,-183.8 843.18,-183.7"/>
<polygon fill="#63b8ff" stroke="#63b8ff" points="843.93,-180.26 833.63,-182.73 843.22,-187.22 843.93,-180.26"/>
</g>
<!-- Node22&#45;&gt;Node5 -->
<g id="edge29" class="edge">
<title>Node22&#45;&gt;Node5</title>
<path fill="none" stroke="#63b8ff" d="M324.35,-222.38C271.77,-215.74 199.95,-203.42 179.21,-184 135.59,-143.17 129.21,-66.96 128.79,-30.69"/>
<polygon fill="#63b8ff" stroke="#63b8ff" points="132.29,-30.81 128.84,-20.79 125.29,-30.77 132.29,-30.81"/>
</g>
<!-- Node22&#45;&gt;Node8 -->
<g id="edge34" class="edge">
<title>Node22&#45;&gt;Node8</title>
<path fill="none" stroke="#63b8ff" d="M356.99,-219.59C340.94,-212.62 321.72,-201.18 312.21,-184 296.28,-155.22 290.09,-134.34 312.21,-110 340.37,-79.01 626.34,-69.04 734.8,-66.36"/>
<polygon fill="#63b8ff" stroke="#63b8ff" points="734.8,-69.86 744.71,-66.13 734.63,-62.86 734.8,-69.86"/>
</g>
<!-- Node22&#45;&gt;Node9 -->
<g id="edge24" class="edge">
<title>Node22&#45;&gt;Node9</title>
<path fill="none" stroke="#63b8ff" d="M380.66,-219.58C374.68,-196.56 362.73,-135.15 397.21,-110 441.42,-77.75 1247.93,-68.16 1487.59,-66.02"/>
<polygon fill="#63b8ff" stroke="#63b8ff" points="1487.42,-69.52 1497.39,-65.94 1487.36,-62.52 1487.42,-69.52"/>
</g>
<!-- Node23 -->
<g id="node23" class="node">
<title>Node23</title>
<g id="a_node23"><a xlink:title=" ">
<polygon fill="#e0e0e0" stroke="#999999" points="571.71,-184 430.71,-184 430.71,-165 571.71,-165 571.71,-184"/>
<text text-anchor="middle" x="501.21" y="-172" font-family="Helvetica,sans-Serif" font-size="10.00">SFML/Graphics/Sprite.hpp</text>
</a>
</g>
</g>
<!-- Node22&#45;&gt;Node23 -->
<g id="edge25" class="edge">
<title>Node22&#45;&gt;Node23</title>
<path fill="none" stroke="#63b8ff" d="M403.23,-219.51C421.81,-211.16 449.75,-198.61 471.04,-189.05"/>
<polygon fill="#63b8ff" stroke="#63b8ff" points="472.42,-192.27 480.11,-184.98 469.55,-185.88 472.42,-192.27"/>
</g>
<!-- Node24 -->
<g id="node24" class="node">
<title>Node24</title>
<g id="a_node24"><a xlink:title=" ">
<polygon fill="#e0e0e0" stroke="#999999" points="555.71,-129 406.71,-129 406.71,-110 555.71,-110 555.71,-129"/>
<text text-anchor="middle" x="481.21" y="-117" font-family="Helvetica,sans-Serif" font-size="10.00">SFML/Graphics/Texture.hpp</text>
</a>
</g>
</g>
<!-- Node22&#45;&gt;Node24 -->
<g id="edge26" class="edge">
<title>Node22&#45;&gt;Node24</title>
<path fill="none" stroke="#63b8ff" d="M381.36,-219.81C379.1,-206.69 376.82,-181.59 388.21,-165 398.43,-150.11 415.04,-140.04 431.42,-133.31"/>
<polygon fill="#63b8ff" stroke="#63b8ff" points="432.5,-136.65 440.65,-129.88 430.06,-130.08 432.5,-136.65"/>
</g>
<!-- Node22&#45;&gt;Node25 -->
<g id="edge27" class="edge">
<title>Node22&#45;&gt;Node25</title>
<path fill="none" stroke="#63b8ff" d="M441.79,-220.39C508.23,-211.2 616.78,-196.18 689.81,-186.07"/>
<polygon fill="#63b8ff" stroke="#63b8ff" points="690.29,-189.54 699.72,-184.7 689.33,-182.6 690.29,-189.54"/>
</g>
<!-- Node26 -->
<g id="node26" class="node">
<title>Node26</title>
<g id="a_node26"><a xlink:title=" ">
<polygon fill="#e0e0e0" stroke="#999999" points="260.21,-184 188.21,-184 188.21,-165 260.21,-165 260.21,-184"/>
<text text-anchor="middle" x="224.21" y="-172" font-family="Helvetica,sans-Serif" font-size="10.00">sys/types.h</text>
</a>
</g>
</g>
<!-- Node22&#45;&gt;Node26 -->
<g id="edge28" class="edge">
<title>Node22&#45;&gt;Node26</title>
<path fill="none" stroke="#63b8ff" d="M356.24,-219.51C330.23,-210.84 290.65,-197.65 261.61,-187.97"/>
<polygon fill="#63b8ff" stroke="#63b8ff" points="263.08,-184.77 252.48,-184.92 260.86,-191.41 263.08,-184.77"/>
</g>
<!-- Node27 -->
<g id="node27" class="node">
<title>Node27</title>
<g id="a_node27"><a xlink:href="Consts_8h.html" target="_top" xlink:title=" ">
<polygon fill="white" stroke="#666666" points="805.71,-129 746.71,-129 746.71,-110 805.71,-110 805.71,-129"/>
<text text-anchor="middle" x="776.21" y="-117" font-family="Helvetica,sans-Serif" font-size="10.00">Consts.h</text>
</a>
</g>
</g>
<!-- Node22&#45;&gt;Node27 -->
<g id="edge30" class="edge">
<title>Node22&#45;&gt;Node27</title>
<path fill="none" stroke="#63b8ff" d="M385.69,-219.78C390.2,-205.66 401.19,-178.05 421.21,-165 475.62,-129.55 646.79,-137.21 711.21,-129 718.94,-128.01 727.2,-126.95 735.14,-125.91"/>
<polygon fill="#63b8ff" stroke="#63b8ff" points="735.48,-129.4 744.94,-124.63 734.57,-122.46 735.48,-129.4"/>
</g>
<!-- Node28 -->
<g id="node28" class="node">
<title>Node28</title>
<g id="a_node28"><a xlink:href="TextureHolder_8h.html" target="_top" xlink:title=" ">
<polygon fill="white" stroke="#666666" points="682.71,-184 589.71,-184 589.71,-165 682.71,-165 682.71,-184"/>
<text text-anchor="middle" x="636.21" y="-172" font-family="Helvetica,sans-Serif" font-size="10.00">TextureHolder.h</text>
</a>
</g>
</g>
<!-- Node22&#45;&gt;Node28 -->
<g id="edge35" class="edge">
<title>Node22&#45;&gt;Node28</title>
<path fill="none" stroke="#63b8ff" d="M426.13,-219.51C469.24,-210.48 535.79,-196.54 582.4,-186.77"/>
<polygon fill="#63b8ff" stroke="#63b8ff" points="582.95,-190.23 592.02,-184.76 581.52,-183.38 582.95,-190.23"/>
</g>
<!-- Node27&#45;&gt;Node3 -->
<g id="edge33" class="edge">
<title>Node27&#45;&gt;Node3</title>
<path fill="none" stroke="#63b8ff" d="M746.48,-114.22C735.42,-112.73 722.76,-111.15 711.21,-110 484.16,-87.4 211.33,-72.79 105.85,-67.61"/>
<polygon fill="#63b8ff" stroke="#63b8ff" points="106.08,-64.11 95.93,-67.12 105.74,-71.1 106.08,-64.11"/>
</g>
<!-- Node27&#45;&gt;Node8 -->
<g id="edge32" class="edge">
<title>Node27&#45;&gt;Node8</title>
<path fill="none" stroke="#63b8ff" d="M776.21,-109.75C776.21,-103.27 776.21,-94.16 776.21,-85.9"/>
<polygon fill="#63b8ff" stroke="#63b8ff" points="779.71,-85.96 776.21,-75.96 772.71,-85.96 779.71,-85.96"/>
</g>
<!-- Node27&#45;&gt;Node9 -->
<g id="edge31" class="edge">
<title>Node27&#45;&gt;Node9</title>
<path fill="none" stroke="#63b8ff" d="M805.76,-116.49C918.92,-108.78 1326.47,-81.01 1487.79,-70.02"/>
<polygon fill="#63b8ff" stroke="#63b8ff" points="1487.72,-73.54 1497.46,-69.37 1487.25,-66.55 1487.72,-73.54"/>
</g>
<!-- Node28&#45;&gt;Node8 -->
<g id="edge39" class="edge">
<title>Node28&#45;&gt;Node8</title>
<path fill="none" stroke="#63b8ff" d="M636.43,-164.92C637.23,-151.48 640.71,-125.43 655.21,-110 676.11,-87.77 709.06,-76.6 735.31,-71.01"/>
<polygon fill="#63b8ff" stroke="#63b8ff" points="735.8,-74.48 744.97,-69.16 734.49,-67.6 735.8,-74.48"/>
</g>
<!-- Node28&#45;&gt;Node18 -->
<g id="edge36" class="edge">
<title>Node28&#45;&gt;Node18</title>
<path fill="none" stroke="#63b8ff" d="M683.01,-166.21C685.78,-165.8 688.53,-165.39 691.21,-165 792.76,-150.16 912.49,-134.02 973.71,-125.86"/>
<polygon fill="#63b8ff" stroke="#63b8ff" points="973.84,-129.38 983.29,-124.59 972.92,-122.44 973.84,-129.38"/>
</g>
<!-- Node28&#45;&gt;Node24 -->
<g id="edge38" class="edge">
<title>Node28&#45;&gt;Node24</title>
<path fill="none" stroke="#63b8ff" d="M609.91,-164.51C584.68,-155.88 546.32,-142.76 518.05,-133.1"/>
<polygon fill="#63b8ff" stroke="#63b8ff" points="519.4,-129.86 508.8,-129.94 517.13,-136.48 519.4,-129.86"/>
</g>
<!-- Node28&#45;&gt;Node27 -->
<g id="edge40" class="edge">
<title>Node28&#45;&gt;Node27</title>
<path fill="none" stroke="#63b8ff" d="M659.96,-164.51C682.52,-155.97 716.68,-143.03 742.14,-133.4"/>
<polygon fill="#63b8ff" stroke="#63b8ff" points="743.28,-136.71 751.39,-129.89 740.8,-130.16 743.28,-136.71"/>
</g>
<!-- Node29 -->
<g id="node29" class="node">
<title>Node29</title>
<g id="a_node29"><a xlink:title=" ">
<polygon fill="#e0e0e0" stroke="#999999" points="702.21,-129 664.21,-129 664.21,-110 702.21,-110 702.21,-129"/>
<text text-anchor="middle" x="683.21" y="-117" font-family="Helvetica,sans-Serif" font-size="10.00">map</text>
</a>
</g>
</g>
<!-- Node28&#45;&gt;Node29 -->
<g id="edge37" class="edge">
<title>Node28&#45;&gt;Node29</title>
<path fill="none" stroke="#63b8ff" d="M643.97,-164.75C650.39,-157.5 659.72,-146.98 667.67,-138.02"/>
<polygon fill="#63b8ff" stroke="#63b8ff" points="670.26,-140.38 674.27,-130.57 665.02,-135.73 670.26,-140.38"/>
</g>
<!-- Node30&#45;&gt;Node21 -->
<g id="edge47" class="edge">
<title>Node30&#45;&gt;Node21</title>
<path fill="none" stroke="#63b8ff" d="M1956.24,-494.68C1952.7,-462.57 1940.46,-351.33 1935.41,-305.49"/>
<polygon fill="#63b8ff" stroke="#63b8ff" points="1938.9,-305.25 1934.33,-295.69 1931.95,-306.01 1938.9,-305.25"/>
</g>
<!-- Node30&#45;&gt;Node31 -->
<g id="edge48" class="edge">
<title>Node30&#45;&gt;Node31</title>
<path fill="none" stroke="#63b8ff" d="M1948.13,-494.75C1940.37,-487.27 1929,-476.32 1919.51,-467.17"/>
<polygon fill="#63b8ff" stroke="#63b8ff" points="1922.21,-464.91 1912.58,-460.49 1917.35,-469.95 1922.21,-464.91"/>
</g>
<!-- Node32 -->
<g id="node32" class="node">
<title>Node32</title>
<g id="a_node32"><a xlink:href="Obstacle_8h.html" target="_top" xlink:title=" ">
<polygon fill="white" stroke="#666666" points="2202.21,-459 2134.21,-459 2134.21,-440 2202.21,-440 2202.21,-459"/>
<text text-anchor="middle" x="2168.21" y="-447" font-family="Helvetica,sans-Serif" font-size="10.00">Obstacle.h</text>
</a>
</g>
</g>
<!-- Node30&#45;&gt;Node32 -->
<g id="edge50" class="edge">
<title>Node30&#45;&gt;Node32</title>
<path fill="none" stroke="#63b8ff" d="M1993,-494.51C2028.85,-485.5 2084.14,-471.62 2123,-461.86"/>
<polygon fill="#63b8ff" stroke="#63b8ff" points="2123.68,-465.29 2132.52,-459.46 2121.97,-458.51 2123.68,-465.29"/>
</g>
<!-- Node33 -->
<g id="node33" class="node">
<title>Node33</title>
<g id="a_node33"><a xlink:href="PlayerState_8h.html" target="_top" xlink:title=" ">
<polygon fill="white" stroke="#666666" points="2733.21,-404 2651.21,-404 2651.21,-385 2733.21,-385 2733.21,-404"/>
<text text-anchor="middle" x="2692.21" y="-392" font-family="Helvetica,sans-Serif" font-size="10.00">PlayerState.h</text>
</a>
</g>
</g>
<!-- Node30&#45;&gt;Node33 -->
<g id="edge80" class="edge">
<title>Node30&#45;&gt;Node33</title>
<path fill="none" stroke="#63b8ff" d="M1999.1,-497.34C2125.21,-478.81 2501.14,-423.57 2639.95,-403.18"/>
<polygon fill="#63b8ff" stroke="#63b8ff" points="2640.2,-406.68 2649.59,-401.76 2639.19,-399.75 2640.2,-406.68"/>
</g>
<!-- Node31&#45;&gt;Node21 -->
<g id="edge49" class="edge">
<title>Node31&#45;&gt;Node21</title>
<path fill="none" stroke="#63b8ff" d="M1902.97,-439.79C1904.8,-420.06 1909.99,-370.53 1919.21,-330 1921.09,-321.71 1923.79,-312.73 1926.31,-305.03"/>
<polygon fill="#63b8ff" stroke="#63b8ff" points="1929.58,-306.28 1929.5,-295.68 1922.96,-304.01 1929.58,-306.28"/>
</g>
<!-- Node32&#45;&gt;Node7 -->
<g id="edge53" class="edge">
<title>Node32&#45;&gt;Node7</title>
<path fill="none" stroke="#63b8ff" d="M2165.46,-439.68C2155.4,-407.43 2120.45,-295.38 2106.26,-249.9"/>
<polygon fill="#63b8ff" stroke="#63b8ff" points="2109.69,-249.14 2103.37,-240.63 2103,-251.22 2109.69,-249.14"/>
</g>
<!-- Node32&#45;&gt;Node8 -->
<g id="edge52" class="edge">
<title>Node32&#45;&gt;Node8</title>
<path fill="none" stroke="#63b8ff" d="M2202.64,-447.79C2361.19,-444.05 3013.21,-423.64 3013.21,-340.5 3013.21,-340.5 3013.21,-340.5 3013.21,-283.5 3013.21,-90.13 2806.48,-130.61 2614.21,-110 2430.27,-90.29 1072.27,-69.79 817.38,-66.09"/>
<polygon fill="#63b8ff" stroke="#63b8ff" points="817.65,-62.59 807.6,-65.95 817.55,-69.59 817.65,-62.59"/>
</g>
<!-- Node32&#45;&gt;Node11 -->
<g id="edge78" class="edge">
<title>Node32&#45;&gt;Node11</title>
<path fill="none" stroke="#63b8ff" d="M2185.91,-439.56C2214.38,-423.77 2267.21,-388.06 2267.21,-340.5 2267.21,-340.5 2267.21,-340.5 2267.21,-283.5 2267.21,-241.69 2307.85,-208.37 2335.97,-190.32"/>
<polygon fill="#63b8ff" stroke="#63b8ff" points="2337.68,-193.38 2344.37,-185.17 2334.02,-187.41 2337.68,-193.38"/>
</g>
<!-- Node32&#45;&gt;Node21 -->
<g id="edge54" class="edge">
<title>Node32&#45;&gt;Node21</title>
<path fill="none" stroke="#63b8ff" d="M2133.71,-447.7C2095.95,-445.14 2035.43,-435.88 1995.21,-404 1978.42,-390.69 1953.63,-335.01 1941.09,-304.95"/>
<polygon fill="#63b8ff" stroke="#63b8ff" points="1944.4,-303.81 1937.36,-295.89 1937.93,-306.47 1944.4,-303.81"/>
</g>
<!-- Node32&#45;&gt;Node23 -->
<g id="edge79" class="edge">
<title>Node32&#45;&gt;Node23</title>
<path fill="none" stroke="#63b8ff" d="M2159.85,-439.87C2128.25,-407.5 2015.61,-294.14 1969.21,-275 1686.6,-158.43 906.94,-209.43 583.15,-184.18"/>
<polygon fill="#63b8ff" stroke="#63b8ff" points="583.59,-180.7 573.34,-183.37 583.02,-187.68 583.59,-180.7"/>
</g>
<!-- Node32&#45;&gt;Node27 -->
<g id="edge51" class="edge">
<title>Node32&#45;&gt;Node27</title>
<path fill="none" stroke="#63b8ff" d="M2171.41,-439.68C2177.73,-421.42 2191.21,-378.07 2191.21,-340.5 2191.21,-340.5 2191.21,-340.5 2191.21,-228.5 2191.21,-199.04 2195.57,-182.95 2172.21,-165 2119.49,-124.5 1042.64,-131.41 976.21,-129 921.21,-127 857.72,-124.22 817.29,-122.39"/>
<polygon fill="#63b8ff" stroke="#63b8ff" points="817.68,-118.91 807.53,-121.95 817.36,-125.9 817.68,-118.91"/>
</g>
<!-- Node32&#45;&gt;Node28 -->
<g id="edge55" class="edge">
<title>Node32&#45;&gt;Node28</title>
<path fill="none" stroke="#63b8ff" d="M2163.43,-439.63C2142.26,-400.68 2055.87,-245.64 2008.21,-220 1945.83,-186.44 838.98,-190.3 694.16,-183.82"/>
<polygon fill="#63b8ff" stroke="#63b8ff" points="694.67,-180.35 684.48,-183.23 694.25,-187.33 694.67,-180.35"/>
</g>
<!-- Node32&#45;&gt;Node33 -->
<g id="edge56" class="edge">
<title>Node32&#45;&gt;Node33</title>
<path fill="none" stroke="#63b8ff" d="M2202.59,-445.02C2292.11,-435.97 2532.87,-411.62 2639.8,-400.8"/>
<polygon fill="#63b8ff" stroke="#63b8ff" points="2639.84,-404.31 2649.43,-399.83 2639.13,-397.35 2639.84,-404.31"/>
</g>
<!-- Node39 -->
<g id="node39" class="node">
<title>Node39</title>
<g id="a_node39"><a xlink:href="PlayerCollidable_8h.html" target="_top" xlink:title=" ">
<polygon fill="white" stroke="#666666" points="2451.71,-404 2346.71,-404 2346.71,-385 2451.71,-385 2451.71,-404"/>
<text text-anchor="middle" x="2399.21" y="-392" font-family="Helvetica,sans-Serif" font-size="10.00">PlayerCollidable.h</text>
</a>
</g>
</g>
<!-- Node32&#45;&gt;Node39 -->
<g id="edge76" class="edge">
<title>Node32&#45;&gt;Node39</title>
<path fill="none" stroke="#63b8ff" d="M2202.54,-440.62C2241.27,-431.74 2304.63,-417.2 2348.93,-407.03"/>
<polygon fill="#63b8ff" stroke="#63b8ff" points="2349.6,-410.47 2358.57,-404.82 2348.04,-403.65 2349.6,-410.47"/>
</g>
<!-- Node33&#45;&gt;Node5 -->
<g id="edge75" class="edge">
<title>Node33&#45;&gt;Node5</title>
<path fill="none" stroke="#63b8ff" d="M2733.38,-390.37C2792.62,-385.11 2898.01,-372.66 2927.21,-349 2990.86,-297.43 2999.92,-218.89 2938.21,-165 2748,1.09 2059.25,-70.58 1807.21,-55 1155.82,-14.74 359.98,-10.86 170.9,-10.52"/>
<polygon fill="#63b8ff" stroke="#63b8ff" points="171.1,-7.02 161.1,-10.51 171.09,-14.02 171.1,-7.02"/>
</g>
<!-- Node33&#45;&gt;Node9 -->
<g id="edge72" class="edge">
<title>Node33&#45;&gt;Node9</title>
<path fill="none" stroke="#63b8ff" d="M2733.49,-393.24C2803.31,-390.4 2937.21,-373.47 2937.21,-285.5 2937.21,-285.5 2937.21,-285.5 2937.21,-228.5 2937.21,-51.68 2648.27,-113.96 2614.21,-110 2240.6,-66.6 1788.57,-64.12 1620.95,-64.9"/>
<polygon fill="#63b8ff" stroke="#63b8ff" points="1621.1,-61.4 1611.12,-64.95 1621.14,-68.4 1621.1,-61.4"/>
</g>
<!-- Node33&#45;&gt;Node11 -->
<g id="edge73" class="edge">
<title>Node33&#45;&gt;Node11</title>
<path fill="none" stroke="#63b8ff" d="M2682.02,-384.57C2658.27,-363.98 2597,-312.06 2541.21,-275 2490.21,-241.12 2426.84,-207.8 2390.81,-189.62"/>
<polygon fill="#63b8ff" stroke="#63b8ff" points="2392.41,-186.51 2381.9,-185.15 2389.27,-192.76 2392.41,-186.51"/>
</g>
<!-- Node33&#45;&gt;Node17 -->
<g id="edge74" class="edge">
<title>Node33&#45;&gt;Node17</title>
<path fill="none" stroke="#63b8ff" d="M2696.54,-384.68C2712.43,-352.3 2767.83,-239.42 2789.97,-194.33"/>
<polygon fill="#63b8ff" stroke="#63b8ff" points="2793.01,-196.06 2794.28,-185.55 2786.73,-192.98 2793.01,-196.06"/>
</g>
<!-- Node33&#45;&gt;Node27 -->
<g id="edge57" class="edge">
<title>Node33&#45;&gt;Node27</title>
<path fill="none" stroke="#63b8ff" d="M2733.6,-390.2C2794.01,-382.87 2899.21,-359.48 2899.21,-285.5 2899.21,-285.5 2899.21,-285.5 2899.21,-228.5 2899.21,-199.04 2903.67,-182.82 2880.21,-165 2838.08,-133.01 1029.08,-130.62 976.21,-129 921.2,-127.31 857.71,-124.46 817.28,-122.53"/>
<polygon fill="#63b8ff" stroke="#63b8ff" points="817.69,-119.04 807.53,-122.06 817.35,-126.04 817.69,-119.04"/>
</g>
<!-- Node34 -->
<g id="node34" class="node">
<title>Node34</title>
<g id="a_node34"><a xlink:href="Player_8h.html" target="_top" xlink:title=" ">
<polygon fill="white" stroke="#666666" points="2478.21,-349 2422.21,-349 2422.21,-330 2478.21,-330 2478.21,-349"/>
<text text-anchor="middle" x="2450.21" y="-337" font-family="Helvetica,sans-Serif" font-size="10.00">Player.h</text>
</a>
</g>
</g>
<!-- Node33&#45;&gt;Node34 -->
<g id="edge58" class="edge">
<title>Node33&#45;&gt;Node34</title>
<path fill="none" stroke="#63b8ff" d="M2651.16,-384.51C2606.1,-374.64 2534.26,-358.91 2489.8,-349.17"/>
<polygon fill="#63b8ff" stroke="#63b8ff" points="2490.56,-345.76 2480.05,-347.03 2489.07,-352.59 2490.56,-345.76"/>
</g>
<!-- Node34&#45;&gt;Node7 -->
<g id="edge62" class="edge">
<title>Node34&#45;&gt;Node7</title>
<path fill="none" stroke="#63b8ff" d="M2421.86,-329.75C2359.76,-310.59 2211.56,-264.86 2140.1,-242.81"/>
<polygon fill="#63b8ff" stroke="#63b8ff" points="2141.34,-239.53 2130.76,-239.93 2139.28,-246.22 2141.34,-239.53"/>
</g>
<!-- Node34&#45;&gt;Node8 -->
<g id="edge61" class="edge">
<title>Node34&#45;&gt;Node8</title>
<path fill="none" stroke="#63b8ff" d="M2452.35,-329.66C2455.52,-317.19 2461.97,-293.85 2470.21,-275 2491.87,-225.45 2559.34,-204.31 2522.21,-165 2461.73,-100.98 1076.11,-71.26 817.55,-66.27"/>
<polygon fill="#63b8ff" stroke="#63b8ff" points="817.68,-62.77 807.61,-66.08 817.55,-69.77 817.68,-62.77"/>
</g>
<!-- Node34&#45;&gt;Node11 -->
<g id="edge70" class="edge">
<title>Node34&#45;&gt;Node11</title>
<path fill="none" stroke="#63b8ff" d="M2445.48,-329.74C2431.69,-304.2 2391.32,-229.43 2372.32,-194.23"/>
<polygon fill="#63b8ff" stroke="#63b8ff" points="2375.51,-192.78 2367.68,-185.64 2369.35,-196.1 2375.51,-192.78"/>
</g>
<!-- Node34&#45;&gt;Node17 -->
<g id="edge71" class="edge">
<title>Node34&#45;&gt;Node17</title>
<path fill="none" stroke="#63b8ff" d="M2478.56,-329.74C2526.48,-314.42 2625.93,-280.43 2704.21,-239 2731.11,-224.76 2759.89,-204.78 2778.63,-191.06"/>
<polygon fill="#63b8ff" stroke="#63b8ff" points="2780.53,-194 2786.48,-185.23 2776.36,-188.38 2780.53,-194"/>
</g>
<!-- Node34&#45;&gt;Node21 -->
<g id="edge60" class="edge">
<title>Node34&#45;&gt;Node21</title>
<path fill="none" stroke="#63b8ff" d="M2422.04,-335.61C2335.08,-326.7 2070.67,-299.59 1971.41,-289.42"/>
<polygon fill="#63b8ff" stroke="#63b8ff" points="1971.96,-285.95 1961.65,-288.42 1971.24,-292.92 1971.96,-285.95"/>
</g>
<!-- Node35 -->
<g id="node35" class="node">
<title>Node35</title>
<g id="a_node35"><a xlink:href="Effect_8h.html" target="_top" xlink:title=" ">
<polygon fill="white" stroke="#666666" points="2531.71,-294 2478.71,-294 2478.71,-275 2531.71,-275 2531.71,-294"/>
<text text-anchor="middle" x="2505.21" y="-282" font-family="Helvetica,sans-Serif" font-size="10.00">Effect.h</text>
</a>
</g>
</g>
<!-- Node34&#45;&gt;Node35 -->
<g id="edge59" class="edge">
<title>Node34&#45;&gt;Node35</title>
<path fill="none" stroke="#63b8ff" d="M2459.29,-329.75C2467.05,-322.27 2478.42,-311.32 2487.9,-302.17"/>
<polygon fill="#63b8ff" stroke="#63b8ff" points="2490.07,-304.95 2494.84,-295.49 2485.21,-299.91 2490.07,-304.95"/>
</g>
<!-- Node36 -->
<g id="node36" class="node">
<title>Node36</title>
<g id="a_node36"><a xlink:href="Effects_8h.html" target="_top" xlink:title=" ">
<polygon fill="white" stroke="#666666" points="2656.71,-239 2597.71,-239 2597.71,-220 2656.71,-220 2656.71,-239"/>
<text text-anchor="middle" x="2627.21" y="-227" font-family="Helvetica,sans-Serif" font-size="10.00">Effects.h</text>
</a>
</g>
</g>
<!-- Node34&#45;&gt;Node36 -->
<g id="edge63" class="edge">
<title>Node34&#45;&gt;Node36</title>
<path fill="none" stroke="#63b8ff" d="M2471.01,-329.63C2489.83,-321.3 2518.05,-308.05 2541.21,-294 2565.08,-279.51 2590.6,-260.12 2607.59,-246.59"/>
<polygon fill="#63b8ff" stroke="#63b8ff" points="2609.76,-249.34 2615.34,-240.33 2605.36,-243.89 2609.76,-249.34"/>
</g>
<!-- Node36&#45;&gt;Node8 -->
<g id="edge65" class="edge">
<title>Node36&#45;&gt;Node8</title>
<path fill="none" stroke="#63b8ff" d="M2627.82,-219.79C2628.85,-197.26 2628.09,-136.96 2593.21,-110 2575.03,-95.96 1085.79,-70.63 817.41,-66.18"/>
<polygon fill="#63b8ff" stroke="#63b8ff" points="817.48,-62.68 807.42,-66.01 817.36,-69.68 817.48,-62.68"/>
</g>
<!-- Node36&#45;&gt;Node17 -->
<g id="edge68" class="edge">
<title>Node36&#45;&gt;Node17</title>
<path fill="none" stroke="#63b8ff" d="M2656.39,-219.51C2684.76,-210.76 2728.08,-197.42 2759.57,-187.71"/>
<polygon fill="#63b8ff" stroke="#63b8ff" points="2760.2,-191.18 2768.73,-184.89 2758.14,-184.49 2760.2,-191.18"/>
</g>
<!-- Node36&#45;&gt;Node18 -->
<g id="edge67" class="edge">
<title>Node36&#45;&gt;Node18</title>
<path fill="none" stroke="#63b8ff" d="M2616.76,-219.6C2598.83,-204.96 2560.42,-176.27 2522.21,-165 2378.05,-122.5 1280.24,-120.44 1054.65,-120.47"/>
<polygon fill="#63b8ff" stroke="#63b8ff" points="1054.9,-116.97 1044.9,-120.47 1054.91,-123.97 1054.9,-116.97"/>
</g>
<!-- Node36&#45;&gt;Node25 -->
<g id="edge69" class="edge">
<title>Node36&#45;&gt;Node25</title>
<path fill="none" stroke="#63b8ff" d="M2597.28,-227.94C2395.67,-224.15 1233.18,-201.81 879.21,-184 867.67,-183.42 855.48,-182.66 843.54,-181.83"/>
<polygon fill="#63b8ff" stroke="#63b8ff" points="843.93,-178.35 833.71,-181.13 843.43,-185.33 843.93,-178.35"/>
</g>
<!-- Node37 -->
<g id="node37" class="node">
<title>Node37</title>
<g id="a_node37"><a xlink:title=" ">
<polygon fill="#e0e0e0" stroke="#999999" points="2709.21,-184 2645.21,-184 2645.21,-165 2709.21,-165 2709.21,-184"/>
<text text-anchor="middle" x="2677.21" y="-172" font-family="Helvetica,sans-Serif" font-size="10.00">algorithm</text>
</a>
</g>
</g>
<!-- Node36&#45;&gt;Node37 -->
<g id="edge64" class="edge">
<title>Node36&#45;&gt;Node37</title>
<path fill="none" stroke="#63b8ff" d="M2635.46,-219.75C2642.37,-212.43 2652.43,-201.76 2660.95,-192.74"/>
<polygon fill="#63b8ff" stroke="#63b8ff" points="2663.42,-195.22 2667.73,-185.54 2658.33,-190.42 2663.42,-195.22"/>
</g>
<!-- Node36&#45;&gt;Node38 -->
<g id="edge66" class="edge">
<title>Node36&#45;&gt;Node38</title>
<path fill="none" stroke="#63b8ff" d="M2602.27,-219.51C2578.37,-210.89 2542.06,-197.8 2515.26,-188.14"/>
<polygon fill="#63b8ff" stroke="#63b8ff" points="2516.79,-184.97 2506.2,-184.87 2514.42,-191.56 2516.79,-184.97"/>
</g>
<!-- Node39&#45;&gt;Node34 -->
<g id="edge77" class="edge">
<title>Node39&#45;&gt;Node34</title>
<path fill="none" stroke="#63b8ff" d="M2407.63,-384.75C2414.67,-377.43 2424.94,-366.76 2433.62,-357.74"/>
<polygon fill="#63b8ff" stroke="#63b8ff" points="2436.14,-360.17 2440.55,-350.53 2431.1,-355.31 2436.14,-360.17"/>
</g>
</g>
</svg>
