<?xml version="1.0" encoding="UTF-8" standalone="no"?>
<!DOCTYPE svg PUBLIC "-//W3C//DTD SVG 1.1//EN"
 "http://www.w3.org/Graphics/SVG/1.1/DTD/svg11.dtd">
<!-- Generated by graphviz version 7.0.5 (0)
 -->
<!-- Title: src/RoadLane.h Pages: 1 -->
<svg width="848pt" height="192pt"
 viewBox="0.00 0.00 847.50 192.00" xmlns="http://www.w3.org/2000/svg" xmlns:xlink="http://www.w3.org/1999/xlink">
<g id="graph0" class="graph" transform="scale(1 1) rotate(0) translate(4 188)">
<title>src/RoadLane.h</title>
<!-- Node1 -->
<g id="node1" class="node">
<title>Node1</title>
<g id="a_node1"><a xlink:title=" ">
<polygon fill="#999999" stroke="#666666" points="336.5,-184 245.5,-184 245.5,-165 336.5,-165 336.5,-184"/>
<text text-anchor="middle" x="291" y="-172" font-family="Helvetica,sans-Serif" font-size="10.00">src/RoadLane.h</text>
</a>
</g>
</g>
<!-- Node2 -->
<g id="node2" class="node">
<title>Node2</title>
<g id="a_node2"><a xlink:href="LevelGenerator_8cpp.html" target="_top" xlink:title=" ">
<polygon fill="white" stroke="#666666" points="128,-74 0,-74 0,-55 128,-55 128,-74"/>
<text text-anchor="middle" x="64" y="-62" font-family="Helvetica,sans-Serif" font-size="10.00">src/LevelGenerator.cpp</text>
</a>
</g>
</g>
<!-- Node1&#45;&gt;Node2 -->
<g id="edge1" class="edge">
<title>Node1&#45;&gt;Node2</title>
<path fill="none" stroke="#63b8ff" d="M233.94,-166.25C183.7,-158.87 115.32,-146.09 94,-129 76.5,-114.97 68.66,-88.3 65.63,-74.41"/>
<polygon fill="#63b8ff" stroke="#63b8ff" points="233.42,-169.71 243.82,-167.66 234.41,-162.78 233.42,-169.71"/>
</g>
<!-- Node3 -->
<g id="node3" class="node">
<title>Node3</title>
<g id="a_node3"><a xlink:href="RoadLane_8cpp.html" target="_top" xlink:title=" ">
<polygon fill="white" stroke="#666666" points="615,-129 513,-129 513,-110 615,-110 615,-129"/>
<text text-anchor="middle" x="564" y="-117" font-family="Helvetica,sans-Serif" font-size="10.00">src/RoadLane.cpp</text>
</a>
</g>
</g>
<!-- Node1&#45;&gt;Node3 -->
<g id="edge2" class="edge">
<title>Node1&#45;&gt;Node3</title>
<path fill="none" stroke="#63b8ff" d="M347.72,-162.49C398.08,-152.71 470.77,-138.6 517.7,-129.49"/>
<polygon fill="#63b8ff" stroke="#63b8ff" points="347.33,-159 338.18,-164.34 348.66,-165.87 347.33,-159"/>
</g>
<!-- Node4 -->
<g id="node4" class="node">
<title>Node4</title>
<g id="a_node4"><a xlink:href="RoadLaneController_8h.html" target="_top" xlink:title=" ">
<polygon fill="white" stroke="#666666" points="495,-129 357,-129 357,-110 495,-110 495,-129"/>
<text text-anchor="middle" x="426" y="-117" font-family="Helvetica,sans-Serif" font-size="10.00">src/RoadLaneController.h</text>
</a>
</g>
</g>
<!-- Node1&#45;&gt;Node4 -->
<g id="edge3" class="edge">
<title>Node1&#45;&gt;Node4</title>
<path fill="none" stroke="#63b8ff" d="M324.56,-160.32C349.16,-150.67 381.9,-137.82 403.44,-129.36"/>
<polygon fill="#63b8ff" stroke="#63b8ff" points="323.34,-157.04 315.31,-163.96 325.9,-163.56 323.34,-157.04"/>
</g>
<!-- Node14 -->
<g id="node14" class="node">
<title>Node14</title>
<g id="a_node14"><a xlink:href="SceneBuilder_8h.html" target="_top" xlink:title=" ">
<polygon fill="white" stroke="#666666" points="209,-129 103,-129 103,-110 209,-110 209,-129"/>
<text text-anchor="middle" x="156" y="-117" font-family="Helvetica,sans-Serif" font-size="10.00">src/SceneBuilder.h</text>
</a>
</g>
</g>
<!-- Node1&#45;&gt;Node14 -->
<g id="edge18" class="edge">
<title>Node1&#45;&gt;Node14</title>
<path fill="none" stroke="#63b8ff" d="M257.44,-160.32C232.84,-150.67 200.1,-137.82 178.56,-129.36"/>
<polygon fill="#63b8ff" stroke="#63b8ff" points="256.1,-163.56 266.69,-163.96 258.66,-157.04 256.1,-163.56"/>
</g>
<!-- Node5 -->
<g id="node5" class="node">
<title>Node5</title>
<g id="a_node5"><a xlink:href="AnimalLaneController_8h.html" target="_top" xlink:title=" ">
<polygon fill="white" stroke="#666666" points="500,-74 352,-74 352,-55 500,-55 500,-74"/>
<text text-anchor="middle" x="426" y="-62" font-family="Helvetica,sans-Serif" font-size="10.00">src/AnimalLaneController.h</text>
</a>
</g>
</g>
<!-- Node4&#45;&gt;Node5 -->
<g id="edge4" class="edge">
<title>Node4&#45;&gt;Node5</title>
<path fill="none" stroke="#63b8ff" d="M426,-98.35C426,-90.1 426,-80.97 426,-74.44"/>
<polygon fill="#63b8ff" stroke="#63b8ff" points="422.5,-98.23 426,-108.23 429.5,-98.23 422.5,-98.23"/>
</g>
<!-- Node7 -->
<g id="node7" class="node">
<title>Node7</title>
<g id="a_node7"><a xlink:href="GameLoader_8cpp.html" target="_top" xlink:title=" ">
<polygon fill="white" stroke="#666666" points="634,-19 518,-19 518,0 634,0 634,-19"/>
<text text-anchor="middle" x="576" y="-7" font-family="Helvetica,sans-Serif" font-size="10.00">src/GameLoader.cpp</text>
</a>
</g>
</g>
<!-- Node4&#45;&gt;Node7 -->
<g id="edge8" class="edge">
<title>Node4&#45;&gt;Node7</title>
<path fill="none" stroke="#63b8ff" d="M501.19,-107.82C560.19,-98.67 633.84,-85.23 643,-74 660.53,-52.52 623.77,-31.07 598.09,-19.42"/>
<polygon fill="#63b8ff" stroke="#63b8ff" points="500.84,-104.33 491.49,-109.31 501.9,-111.25 500.84,-104.33"/>
</g>
<!-- Node9 -->
<g id="node9" class="node">
<title>Node9</title>
<g id="a_node9"><a xlink:href="RiverController_8h.html" target="_top" xlink:title=" ">
<polygon fill="white" stroke="#666666" points="634,-74 518,-74 518,-55 634,-55 634,-74"/>
<text text-anchor="middle" x="576" y="-62" font-family="Helvetica,sans-Serif" font-size="10.00">src/RiverController.h</text>
</a>
</g>
</g>
<!-- Node4&#45;&gt;Node9 -->
<g id="edge9" class="edge">
<title>Node4&#45;&gt;Node9</title>
<path fill="none" stroke="#63b8ff" d="M462.15,-105.73C489.52,-96.06 526.41,-83.02 550.68,-74.45"/>
<polygon fill="#63b8ff" stroke="#63b8ff" points="461.14,-102.37 452.87,-109.01 463.47,-108.97 461.14,-102.37"/>
</g>
<!-- Node11 -->
<g id="node11" class="node">
<title>Node11</title>
<g id="a_node11"><a xlink:href="RoadLaneController_8cpp.html" target="_top" xlink:title=" ">
<polygon fill="white" stroke="#666666" points="839.5,-74 690.5,-74 690.5,-55 839.5,-55 839.5,-74"/>
<text text-anchor="middle" x="765" y="-62" font-family="Helvetica,sans-Serif" font-size="10.00">src/RoadLaneController.cpp</text>
</a>
</g>
</g>
<!-- Node4&#45;&gt;Node11 -->
<g id="edge13" class="edge">
<title>Node4&#45;&gt;Node11</title>
<path fill="none" stroke="#63b8ff" d="M494.84,-107.74C557.43,-97.95 648.72,-83.68 707.49,-74.49"/>
<polygon fill="#63b8ff" stroke="#63b8ff" points="494.34,-104.27 485,-109.28 495.42,-111.19 494.34,-104.27"/>
</g>
<!-- Node12 -->
<g id="node12" class="node">
<title>Node12</title>
<g id="a_node12"><a xlink:href="VehicleLaneController_8h.html" target="_top" xlink:title=" ">
<polygon fill="white" stroke="#666666" points="333.5,-74 184.5,-74 184.5,-55 333.5,-55 333.5,-74"/>
<text text-anchor="middle" x="259" y="-62" font-family="Helvetica,sans-Serif" font-size="10.00">src/VehicleLaneController.h</text>
</a>
</g>
</g>
<!-- Node4&#45;&gt;Node12 -->
<g id="edge14" class="edge">
<title>Node4&#45;&gt;Node12</title>
<path fill="none" stroke="#63b8ff" d="M386.96,-106.11C356.38,-96.41 314.57,-83.14 287.19,-74.45"/>
<polygon fill="#63b8ff" stroke="#63b8ff" points="385.64,-109.36 396.23,-109.05 387.76,-102.69 385.64,-109.36"/>
</g>
<!-- Node6 -->
<g id="node6" class="node">
<title>Node6</title>
<g id="a_node6"><a xlink:href="AnimalLaneController_8cpp.html" target="_top" xlink:title=" ">
<polygon fill="white" stroke="#666666" points="499.5,-19 340.5,-19 340.5,0 499.5,0 499.5,-19"/>
<text text-anchor="middle" x="420" y="-7" font-family="Helvetica,sans-Serif" font-size="10.00">src/AnimalLaneController.cpp</text>
</a>
</g>
</g>
<!-- Node5&#45;&gt;Node6 -->
<g id="edge5" class="edge">
<title>Node5&#45;&gt;Node6</title>
<path fill="none" stroke="#63b8ff" d="M423.72,-43.35C422.78,-35.1 421.75,-25.97 421.01,-19.44"/>
<polygon fill="#63b8ff" stroke="#63b8ff" points="420.24,-43.7 424.84,-53.24 427.19,-42.91 420.24,-43.7"/>
</g>
<!-- Node5&#45;&gt;Node7 -->
<g id="edge6" class="edge">
<title>Node5&#45;&gt;Node7</title>
<path fill="none" stroke="#63b8ff" d="M462.15,-50.73C489.52,-41.06 526.41,-28.02 550.68,-19.45"/>
<polygon fill="#63b8ff" stroke="#63b8ff" points="461.14,-47.37 452.87,-54.01 463.47,-53.97 461.14,-47.37"/>
</g>
<!-- Node8 -->
<g id="node8" class="node">
<title>Node8</title>
<g id="a_node8"><a xlink:href="SceneBuilder_8cpp.html" target="_top" xlink:title=" ">
<polygon fill="white" stroke="#666666" points="322.5,-19 205.5,-19 205.5,0 322.5,0 322.5,-19"/>
<text text-anchor="middle" x="264" y="-7" font-family="Helvetica,sans-Serif" font-size="10.00">src/SceneBuilder.cpp</text>
</a>
</g>
</g>
<!-- Node5&#45;&gt;Node8 -->
<g id="edge7" class="edge">
<title>Node5&#45;&gt;Node8</title>
<path fill="none" stroke="#63b8ff" d="M387.74,-50.98C358.11,-41.29 317.79,-28.1 291.35,-19.45"/>
<polygon fill="#63b8ff" stroke="#63b8ff" points="386.49,-54.26 397.08,-54.04 388.66,-47.6 386.49,-54.26"/>
</g>
<!-- Node9&#45;&gt;Node7 -->
<g id="edge10" class="edge">
<title>Node9&#45;&gt;Node7</title>
<path fill="none" stroke="#63b8ff" d="M576,-43.35C576,-35.1 576,-25.97 576,-19.44"/>
<polygon fill="#63b8ff" stroke="#63b8ff" points="572.5,-43.23 576,-53.23 579.5,-43.23 572.5,-43.23"/>
</g>
<!-- Node9&#45;&gt;Node8 -->
<g id="edge12" class="edge">
<title>Node9&#45;&gt;Node8</title>
<path fill="none" stroke="#63b8ff" d="M511.92,-52.61C454.34,-42.83 370.79,-28.64 316.93,-19.49"/>
<polygon fill="#63b8ff" stroke="#63b8ff" points="511.14,-56.03 521.58,-54.26 512.31,-49.13 511.14,-56.03"/>
</g>
<!-- Node10 -->
<g id="node10" class="node">
<title>Node10</title>
<g id="a_node10"><a xlink:href="RiverController_8cpp.html" target="_top" xlink:title=" ">
<polygon fill="white" stroke="#666666" points="779.5,-19 652.5,-19 652.5,0 779.5,0 779.5,-19"/>
<text text-anchor="middle" x="716" y="-7" font-family="Helvetica,sans-Serif" font-size="10.00">src/RiverController.cpp</text>
</a>
</g>
</g>
<!-- Node9&#45;&gt;Node10 -->
<g id="edge11" class="edge">
<title>Node9&#45;&gt;Node10</title>
<path fill="none" stroke="#63b8ff" d="M610.46,-50.45C636.01,-40.78 670.16,-27.85 692.6,-19.36"/>
<polygon fill="#63b8ff" stroke="#63b8ff" points="609.28,-47.16 601.16,-53.97 611.76,-53.71 609.28,-47.16"/>
</g>
<!-- Node12&#45;&gt;Node7 -->
<g id="edge15" class="edge">
<title>Node12&#45;&gt;Node7</title>
<path fill="none" stroke="#63b8ff" d="M324.11,-52.61C382.61,-42.83 467.5,-28.64 522.23,-19.49"/>
<polygon fill="#63b8ff" stroke="#63b8ff" points="323.55,-49.16 314.27,-54.26 324.71,-56.06 323.55,-49.16"/>
</g>
<!-- Node12&#45;&gt;Node8 -->
<g id="edge16" class="edge">
<title>Node12&#45;&gt;Node8</title>
<path fill="none" stroke="#63b8ff" d="M260.9,-43.35C261.68,-35.1 262.54,-25.97 263.16,-19.44"/>
<polygon fill="#63b8ff" stroke="#63b8ff" points="257.42,-42.96 259.97,-53.24 264.39,-43.61 257.42,-42.96"/>
</g>
<!-- Node13 -->
<g id="node13" class="node">
<title>Node13</title>
<g id="a_node13"><a xlink:href="VehicleLaneController_8cpp.html" target="_top" xlink:title=" ">
<polygon fill="white" stroke="#666666" points="187,-19 27,-19 27,0 187,0 187,-19"/>
<text text-anchor="middle" x="107" y="-7" font-family="Helvetica,sans-Serif" font-size="10.00">src/VehicleLaneController.cpp</text>
</a>
</g>
</g>
<!-- Node12&#45;&gt;Node13 -->
<g id="edge17" class="edge">
<title>Node12&#45;&gt;Node13</title>
<path fill="none" stroke="#63b8ff" d="M222.36,-50.73C194.64,-41.06 157.25,-28.02 132.66,-19.45"/>
<polygon fill="#63b8ff" stroke="#63b8ff" points="221.19,-54.02 231.79,-54.01 223.5,-47.41 221.19,-54.02"/>
</g>
<!-- Node14&#45;&gt;Node2 -->
<g id="edge19" class="edge">
<title>Node14&#45;&gt;Node2</title>
<path fill="none" stroke="#63b8ff" d="M130.83,-104C114.37,-94.52 93.4,-82.43 79.38,-74.36"/>
<polygon fill="#63b8ff" stroke="#63b8ff" points="128.67,-106.79 139.08,-108.75 132.16,-100.73 128.67,-106.79"/>
</g>
<!-- Node14&#45;&gt;Node8 -->
<g id="edge20" class="edge">
<title>Node14&#45;&gt;Node8</title>
<path fill="none" stroke="#63b8ff" d="M157.81,-98.61C159.97,-85 164.68,-67.27 175,-55 189.67,-37.54 212.88,-26.26 231.91,-19.42"/>
<polygon fill="#63b8ff" stroke="#63b8ff" points="154.38,-97.82 156.65,-108.17 161.33,-98.66 154.38,-97.82"/>
</g>
</g>
</svg>
