<?xml version="1.0" encoding="UTF-8" standalone="no"?>
<!DOCTYPE svg PUBLIC "-//W3C//DTD SVG 1.1//EN"
 "http://www.w3.org/Graphics/SVG/1.1/DTD/svg11.dtd">
<!-- Generated by graphviz version 7.0.5 (0)
 -->
<!-- Title: src/RoadLaneController.cpp Pages: 1 -->
<svg width="3025pt" height="687pt"
 viewBox="0.00 0.00 3024.50 687.00" xmlns="http://www.w3.org/2000/svg" xmlns:xlink="http://www.w3.org/1999/xlink">
<g id="graph0" class="graph" transform="scale(1 1) rotate(0) translate(4 683)">
<title>src/RoadLaneController.cpp</title>
<!-- Node1 -->
<g id="node1" class="node">
<title>Node1</title>
<g id="a_node1"><a xlink:title=" ">
<polygon fill="#999999" stroke="#666666" points="1966,-679 1817,-679 1817,-660 1966,-660 1966,-679"/>
<text text-anchor="middle" x="1891.5" y="-667" font-family="Helvetica,sans-Serif" font-size="10.00">src/RoadLaneController.cpp</text>
</a>
</g>
</g>
<!-- Node2 -->
<g id="node2" class="node">
<title>Node2</title>
<g id="a_node2"><a xlink:href="RoadLaneController_8h.html" target="_top" xlink:title=" ">
<polygon fill="white" stroke="#666666" points="839,-624 718,-624 718,-605 839,-605 839,-624"/>
<text text-anchor="middle" x="778.5" y="-612" font-family="Helvetica,sans-Serif" font-size="10.00">RoadLaneController.h</text>
</a>
</g>
</g>
<!-- Node1&#45;&gt;Node2 -->
<g id="edge1" class="edge">
<title>Node1&#45;&gt;Node2</title>
<path fill="none" stroke="#63b8ff" d="M1816.74,-664.94C1613.19,-655.25 1050.89,-628.47 850.55,-618.93"/>
<polygon fill="#63b8ff" stroke="#63b8ff" points="850.96,-615.45 840.81,-618.47 850.63,-622.44 850.96,-615.45"/>
</g>
<!-- Node4 -->
<g id="node4" class="node">
<title>Node4</title>
<g id="a_node4"><a xlink:href="Random_8h.html" target="_top" xlink:title=" ">
<polygon fill="white" stroke="#666666" points="2829.5,-74 2763.5,-74 2763.5,-55 2829.5,-55 2829.5,-74"/>
<text text-anchor="middle" x="2796.5" y="-62" font-family="Helvetica,sans-Serif" font-size="10.00">Random.h</text>
</a>
</g>
</g>
<!-- Node1&#45;&gt;Node4 -->
<g id="edge86" class="edge">
<title>Node1&#45;&gt;Node4</title>
<path fill="none" stroke="#63b8ff" d="M1966.19,-669.18C2217.45,-670.49 3016.5,-666.33 3016.5,-560.5 3016.5,-560.5 3016.5,-560.5 3016.5,-173.5 3016.5,-96.19 2905.68,-74.22 2841.35,-67.98"/>
<polygon fill="#63b8ff" stroke="#63b8ff" points="2841.69,-64.49 2831.42,-67.11 2841.08,-71.47 2841.69,-64.49"/>
</g>
<!-- Node3 -->
<g id="node3" class="node">
<title>Node3</title>
<g id="a_node3"><a xlink:href="RoadLane_8h.html" target="_top" xlink:title=" ">
<polygon fill="white" stroke="#666666" points="815.5,-569 741.5,-569 741.5,-550 815.5,-550 815.5,-569"/>
<text text-anchor="middle" x="778.5" y="-557" font-family="Helvetica,sans-Serif" font-size="10.00">RoadLane.h</text>
</a>
</g>
</g>
<!-- Node2&#45;&gt;Node3 -->
<g id="edge2" class="edge">
<title>Node2&#45;&gt;Node3</title>
<path fill="none" stroke="#63b8ff" d="M778.5,-604.75C778.5,-598.27 778.5,-589.16 778.5,-580.9"/>
<polygon fill="#63b8ff" stroke="#63b8ff" points="782,-580.96 778.5,-570.96 775,-580.96 782,-580.96"/>
</g>
<!-- Node39 -->
<g id="node39" class="node">
<title>Node39</title>
<g id="a_node39"><a xlink:title=" ">
<polygon fill="#e0e0e0" stroke="#999999" points="65,-184 0,-184 0,-165 65,-165 65,-184"/>
<text text-anchor="middle" x="32.5" y="-172" font-family="Helvetica,sans-Serif" font-size="10.00">functional</text>
</a>
</g>
</g>
<!-- Node2&#45;&gt;Node39 -->
<g id="edge85" class="edge">
<title>Node2&#45;&gt;Node39</title>
<path fill="none" stroke="#63b8ff" d="M717.77,-611.07C539.89,-603.17 32.5,-574.57 32.5,-505.5 32.5,-505.5 32.5,-505.5 32.5,-283.5 32.5,-252.92 32.5,-217.48 32.5,-195.77"/>
<polygon fill="#63b8ff" stroke="#63b8ff" points="36,-195.97 32.5,-185.97 29,-195.97 36,-195.97"/>
</g>
<!-- Node3&#45;&gt;Node4 -->
<g id="edge3" class="edge">
<title>Node3&#45;&gt;Node4</title>
<path fill="none" stroke="#63b8ff" d="M815.76,-558.69C1104.86,-559.9 2978.5,-563.43 2978.5,-450.5 2978.5,-450.5 2978.5,-450.5 2978.5,-173.5 2978.5,-109.7 2894.76,-82.76 2840.88,-72.03"/>
<polygon fill="#63b8ff" stroke="#63b8ff" points="2841.84,-68.65 2831.37,-70.26 2840.56,-75.53 2841.84,-68.65"/>
</g>
<!-- Node7 -->
<g id="node7" class="node">
<title>Node7</title>
<g id="a_node7"><a xlink:href="Lane_8h.html" target="_top" xlink:title=" ">
<polygon fill="white" stroke="#666666" points="348,-294 299,-294 299,-275 348,-275 348,-294"/>
<text text-anchor="middle" x="323.5" y="-282" font-family="Helvetica,sans-Serif" font-size="10.00">Lane.h</text>
</a>
</g>
</g>
<!-- Node3&#45;&gt;Node7 -->
<g id="edge6" class="edge">
<title>Node3&#45;&gt;Node7</title>
<path fill="none" stroke="#63b8ff" d="M741.37,-557.31C635.29,-552.9 338.5,-533.19 338.5,-450.5 338.5,-450.5 338.5,-450.5 338.5,-393.5 338.5,-362.63 332.41,-327.26 327.99,-305.66"/>
<polygon fill="#63b8ff" stroke="#63b8ff" points="331.42,-304.93 325.9,-295.88 324.57,-306.39 331.42,-304.93"/>
</g>
<!-- Node22 -->
<g id="node22" class="node">
<title>Node22</title>
<g id="a_node22"><a xlink:href="Entity_8h.html" target="_top" xlink:title=" ">
<polygon fill="white" stroke="#666666" points="893,-294 840,-294 840,-275 893,-275 893,-294"/>
<text text-anchor="middle" x="866.5" y="-282" font-family="Helvetica,sans-Serif" font-size="10.00">Entity.h</text>
</a>
</g>
</g>
<!-- Node3&#45;&gt;Node22 -->
<g id="edge23" class="edge">
<title>Node3&#45;&gt;Node22</title>
<path fill="none" stroke="#63b8ff" d="M815.6,-552.12C865.9,-541.11 949.5,-513.35 949.5,-450.5 949.5,-450.5 949.5,-450.5 949.5,-393.5 949.5,-353.84 913.87,-319.78 889.3,-301.02"/>
<polygon fill="#63b8ff" stroke="#63b8ff" points="891.57,-298.34 881.43,-295.27 887.44,-303.99 891.57,-298.34"/>
</g>
<!-- Node31 -->
<g id="node31" class="node">
<title>Node31</title>
<g id="a_node31"><a xlink:href="Commuters_8h.html" target="_top" xlink:title=" ">
<polygon fill="white" stroke="#666666" points="820,-514 737,-514 737,-495 820,-495 820,-514"/>
<text text-anchor="middle" x="778.5" y="-502" font-family="Helvetica,sans-Serif" font-size="10.00">Commuters.h</text>
</a>
</g>
</g>
<!-- Node3&#45;&gt;Node31 -->
<g id="edge47" class="edge">
<title>Node3&#45;&gt;Node31</title>
<path fill="none" stroke="#63b8ff" d="M778.5,-549.75C778.5,-543.27 778.5,-534.16 778.5,-525.9"/>
<polygon fill="#63b8ff" stroke="#63b8ff" points="782,-525.96 778.5,-515.96 775,-525.96 782,-525.96"/>
</g>
<!-- Node32 -->
<g id="node32" class="node">
<title>Node32</title>
<g id="a_node32"><a xlink:href="Light_8h.html" target="_top" xlink:title=" ">
<polygon fill="white" stroke="#666666" points="921.5,-459 871.5,-459 871.5,-440 921.5,-440 921.5,-459"/>
<text text-anchor="middle" x="896.5" y="-447" font-family="Helvetica,sans-Serif" font-size="10.00">Light.h</text>
</a>
</g>
</g>
<!-- Node3&#45;&gt;Node32 -->
<g id="edge82" class="edge">
<title>Node3&#45;&gt;Node32</title>
<path fill="none" stroke="#63b8ff" d="M788.52,-549.7C798.66,-540.78 814.76,-526.53 828.5,-514 845.93,-498.11 865.6,-479.69 879.28,-466.79"/>
<polygon fill="#63b8ff" stroke="#63b8ff" points="881.36,-469.65 886.23,-460.24 876.55,-464.56 881.36,-469.65"/>
</g>
<!-- Node3&#45;&gt;Node39 -->
<g id="edge84" class="edge">
<title>Node3&#45;&gt;Node39</title>
<path fill="none" stroke="#63b8ff" d="M741.12,-558.51C654.43,-557.85 433.35,-552.2 253.5,-514 169.29,-496.11 70.5,-536.59 70.5,-450.5 70.5,-450.5 70.5,-450.5 70.5,-283.5 70.5,-250.65 54.66,-215.19 43.43,-194.19"/>
<polygon fill="#63b8ff" stroke="#63b8ff" points="46.62,-192.72 38.68,-185.69 40.5,-196.13 46.62,-192.72"/>
</g>
<!-- Node41 -->
<g id="node41" class="node">
<title>Node41</title>
<g id="a_node41"><a xlink:title=" ">
<polygon fill="#e0e0e0" stroke="#999999" points="310,-514 263,-514 263,-495 310,-495 310,-514"/>
<text text-anchor="middle" x="286.5" y="-502" font-family="Helvetica,sans-Serif" font-size="10.00">deque</text>
</a>
</g>
</g>
<!-- Node3&#45;&gt;Node41 -->
<g id="edge83" class="edge">
<title>Node3&#45;&gt;Node41</title>
<path fill="none" stroke="#63b8ff" d="M741.23,-556.4C663.41,-551.66 478.16,-538.62 324.5,-514 323.48,-513.84 322.44,-513.66 321.4,-513.48"/>
<polygon fill="#63b8ff" stroke="#63b8ff" points="322.1,-510.05 311.62,-511.55 320.75,-516.92 322.1,-510.05"/>
</g>
<!-- Node5 -->
<g id="node5" class="node">
<title>Node5</title>
<g id="a_node5"><a xlink:title=" ">
<polygon fill="#e0e0e0" stroke="#999999" points="2823.5,-19 2769.5,-19 2769.5,0 2823.5,0 2823.5,-19"/>
<text text-anchor="middle" x="2796.5" y="-7" font-family="Helvetica,sans-Serif" font-size="10.00">random</text>
</a>
</g>
</g>
<!-- Node4&#45;&gt;Node5 -->
<g id="edge4" class="edge">
<title>Node4&#45;&gt;Node5</title>
<path fill="none" stroke="#63b8ff" d="M2796.5,-54.75C2796.5,-48.27 2796.5,-39.16 2796.5,-30.9"/>
<polygon fill="#63b8ff" stroke="#63b8ff" points="2800,-30.96 2796.5,-20.96 2793,-30.96 2800,-30.96"/>
</g>
<!-- Node6 -->
<g id="node6" class="node">
<title>Node6</title>
<g id="a_node6"><a xlink:title=" ">
<polygon fill="#e0e0e0" stroke="#999999" points="2051.5,-19 1991.5,-19 1991.5,0 2051.5,0 2051.5,-19"/>
<text text-anchor="middle" x="2021.5" y="-7" font-family="Helvetica,sans-Serif" font-size="10.00">iostream</text>
</a>
</g>
</g>
<!-- Node4&#45;&gt;Node6 -->
<g id="edge5" class="edge">
<title>Node4&#45;&gt;Node6</title>
<path fill="none" stroke="#63b8ff" d="M2763.15,-57.75C2756.33,-56.71 2749.2,-55.73 2742.5,-55 2485.09,-26.86 2173.88,-15.16 2063.11,-11.69"/>
<polygon fill="#63b8ff" stroke="#63b8ff" points="2063.42,-8.2 2053.32,-11.39 2063.21,-15.2 2063.42,-8.2"/>
</g>
<!-- Node8 -->
<g id="node8" class="node">
<title>Node8</title>
<g id="a_node8"><a xlink:href="SceneNode_8h.html" target="_top" xlink:title=" ">
<polygon fill="white" stroke="#666666" points="931.5,-239 851.5,-239 851.5,-220 931.5,-220 931.5,-239"/>
<text text-anchor="middle" x="891.5" y="-227" font-family="Helvetica,sans-Serif" font-size="10.00">SceneNode.h</text>
</a>
</g>
</g>
<!-- Node7&#45;&gt;Node8 -->
<g id="edge7" class="edge">
<title>Node7&#45;&gt;Node8</title>
<path fill="none" stroke="#63b8ff" d="M348.27,-281.19C434.34,-273.16 721.57,-246.36 839.89,-235.32"/>
<polygon fill="#63b8ff" stroke="#63b8ff" points="840,-238.82 849.63,-234.41 839.35,-231.85 840,-238.82"/>
</g>
<!-- Node9 -->
<g id="node9" class="node">
<title>Node9</title>
<g id="a_node9"><a xlink:href="Enums_8h.html" target="_top" xlink:title=" ">
<polygon fill="white" stroke="#666666" points="747,-74 688,-74 688,-55 747,-55 747,-74"/>
<text text-anchor="middle" x="717.5" y="-62" font-family="Helvetica,sans-Serif" font-size="10.00">Enums.h</text>
</a>
</g>
</g>
<!-- Node7&#45;&gt;Node9 -->
<g id="edge22" class="edge">
<title>Node7&#45;&gt;Node9</title>
<path fill="none" stroke="#63b8ff" d="M298.71,-275C279.49,-267.57 252.95,-255.41 233.5,-239 187.61,-200.3 152.89,-154.2 193.5,-110 225.97,-74.66 558.64,-67.35 676.43,-65.87"/>
<polygon fill="#63b8ff" stroke="#63b8ff" points="676.32,-69.37 686.28,-65.75 676.24,-62.37 676.32,-69.37"/>
</g>
<!-- Node8&#45;&gt;Node6 -->
<g id="edge21" class="edge">
<title>Node8&#45;&gt;Node6</title>
<path fill="none" stroke="#63b8ff" d="M931.8,-228.83C1006.5,-228.41 1170.8,-222.69 1302.5,-184 1320.62,-178.68 1322.72,-171.36 1340.5,-165 1575.14,-81.11 1872.01,-32.33 1979.91,-16.36"/>
<polygon fill="#63b8ff" stroke="#63b8ff" points="1980.35,-19.84 1989.74,-14.92 1979.34,-12.91 1980.35,-19.84"/>
</g>
<!-- Node8&#45;&gt;Node9 -->
<g id="edge8" class="edge">
<title>Node8&#45;&gt;Node9</title>
<path fill="none" stroke="#63b8ff" d="M866.48,-219.58C847.76,-212.07 822.27,-199.99 803.5,-184 769.28,-154.85 741.3,-109.43 727.27,-84.13"/>
<polygon fill="#63b8ff" stroke="#63b8ff" points="730.53,-82.8 722.7,-75.66 724.37,-86.13 730.53,-82.8"/>
</g>
<!-- Node10 -->
<g id="node10" class="node">
<title>Node10</title>
<g id="a_node10"><a xlink:title=" ">
<polygon fill="#e0e0e0" stroke="#999999" points="2536.5,-74 2426.5,-74 2426.5,-55 2536.5,-55 2536.5,-74"/>
<text text-anchor="middle" x="2481.5" y="-62" font-family="Helvetica,sans-Serif" font-size="10.00">SFML/Graphics.hpp</text>
</a>
</g>
</g>
<!-- Node8&#45;&gt;Node10 -->
<g id="edge9" class="edge">
<title>Node8&#45;&gt;Node10</title>
<path fill="none" stroke="#63b8ff" d="M931.86,-228.04C1129.45,-225.64 1989.86,-213.55 2105.5,-184 2123.79,-179.33 2125.93,-171.92 2143.5,-165 2243.45,-125.66 2365.3,-93.48 2431.99,-77.14"/>
<polygon fill="#63b8ff" stroke="#63b8ff" points="2432.64,-80.58 2441.53,-74.82 2430.98,-73.78 2432.64,-80.58"/>
</g>
<!-- Node11 -->
<g id="node11" class="node">
<title>Node11</title>
<g id="a_node11"><a xlink:title=" ">
<polygon fill="#e0e0e0" stroke="#999999" points="1097,-184 938,-184 938,-165 1097,-165 1097,-184"/>
<text text-anchor="middle" x="1017.5" y="-172" font-family="Helvetica,sans-Serif" font-size="10.00">SFML/Graphics/Drawable.hpp</text>
</a>
</g>
</g>
<!-- Node8&#45;&gt;Node11 -->
<g id="edge10" class="edge">
<title>Node8&#45;&gt;Node11</title>
<path fill="none" stroke="#63b8ff" d="M912.87,-219.51C932.91,-211.08 963.1,-198.38 985.91,-188.79"/>
<polygon fill="#63b8ff" stroke="#63b8ff" points="987.19,-192.05 995.05,-184.94 984.47,-185.6 987.19,-192.05"/>
</g>
<!-- Node12 -->
<g id="node12" class="node">
<title>Node12</title>
<g id="a_node12"><a xlink:title=" ">
<polygon fill="#e0e0e0" stroke="#999999" points="689.5,-184 555.5,-184 555.5,-165 689.5,-165 689.5,-184"/>
<text text-anchor="middle" x="622.5" y="-172" font-family="Helvetica,sans-Serif" font-size="10.00">SFML/Graphics/Rect.hpp</text>
</a>
</g>
</g>
<!-- Node8&#45;&gt;Node12 -->
<g id="edge11" class="edge">
<title>Node8&#45;&gt;Node12</title>
<path fill="none" stroke="#63b8ff" d="M851.23,-220.57C805.58,-211.57 730.83,-196.84 679.28,-186.69"/>
<polygon fill="#63b8ff" stroke="#63b8ff" points="679.98,-183.26 669.49,-184.76 678.62,-190.12 679.98,-183.26"/>
</g>
<!-- Node13 -->
<g id="node13" class="node">
<title>Node13</title>
<g id="a_node13"><a xlink:title=" ">
<polygon fill="#e0e0e0" stroke="#999999" points="1293.5,-184 1115.5,-184 1115.5,-165 1293.5,-165 1293.5,-184"/>
<text text-anchor="middle" x="1204.5" y="-172" font-family="Helvetica,sans-Serif" font-size="10.00">SFML/Graphics/RenderStates.hpp</text>
</a>
</g>
</g>
<!-- Node8&#45;&gt;Node13 -->
<g id="edge12" class="edge">
<title>Node8&#45;&gt;Node13</title>
<path fill="none" stroke="#63b8ff" d="M931.78,-221.68C984.55,-212.74 1077.71,-196.97 1140.27,-186.38"/>
<polygon fill="#63b8ff" stroke="#63b8ff" points="1140.81,-189.83 1150.09,-184.71 1139.64,-182.93 1140.81,-189.83"/>
</g>
<!-- Node14 -->
<g id="node14" class="node">
<title>Node14</title>
<g id="a_node14"><a xlink:title=" ">
<polygon fill="#e0e0e0" stroke="#999999" points="1527,-184 1350,-184 1350,-165 1527,-165 1527,-184"/>
<text text-anchor="middle" x="1438.5" y="-172" font-family="Helvetica,sans-Serif" font-size="10.00">SFML/Graphics/RenderTarget.hpp</text>
</a>
</g>
</g>
<!-- Node8&#45;&gt;Node14 -->
<g id="edge13" class="edge">
<title>Node8&#45;&gt;Node14</title>
<path fill="none" stroke="#63b8ff" d="M931.72,-224.6C1016.72,-216.37 1216.76,-196.98 1338.56,-185.18"/>
<polygon fill="#63b8ff" stroke="#63b8ff" points="1338.61,-188.7 1348.22,-184.25 1337.93,-181.73 1338.61,-188.7"/>
</g>
<!-- Node15 -->
<g id="node15" class="node">
<title>Node15</title>
<g id="a_node15"><a xlink:title=" ">
<polygon fill="#e0e0e0" stroke="#999999" points="1706,-184 1545,-184 1545,-165 1706,-165 1706,-184"/>
<text text-anchor="middle" x="1625.5" y="-172" font-family="Helvetica,sans-Serif" font-size="10.00">SFML/Graphics/Transform.hpp</text>
</a>
</g>
</g>
<!-- Node8&#45;&gt;Node15 -->
<g id="edge14" class="edge">
<title>Node8&#45;&gt;Node15</title>
<path fill="none" stroke="#63b8ff" d="M931.84,-226.07C1031.73,-219.97 1298.83,-203.19 1533.41,-184.15"/>
<polygon fill="#63b8ff" stroke="#63b8ff" points="1533.36,-187.67 1543.05,-183.36 1532.8,-180.69 1533.36,-187.67"/>
</g>
<!-- Node16 -->
<g id="node16" class="node">
<title>Node16</title>
<g id="a_node16"><a xlink:title=" ">
<polygon fill="#e0e0e0" stroke="#999999" points="1906.5,-184 1724.5,-184 1724.5,-165 1906.5,-165 1906.5,-184"/>
<text text-anchor="middle" x="1815.5" y="-172" font-family="Helvetica,sans-Serif" font-size="10.00">SFML/Graphics/Transformable.hpp</text>
</a>
</g>
</g>
<!-- Node8&#45;&gt;Node16 -->
<g id="edge15" class="edge">
<title>Node8&#45;&gt;Node16</title>
<path fill="none" stroke="#63b8ff" d="M931.78,-226.75C1049.78,-221.53 1405.19,-205.17 1712.74,-184.1"/>
<polygon fill="#63b8ff" stroke="#63b8ff" points="1712.88,-187.6 1722.61,-183.42 1712.39,-180.61 1712.88,-187.6"/>
</g>
<!-- Node17 -->
<g id="node17" class="node">
<title>Node17</title>
<g id="a_node17"><a xlink:title=" ">
<polygon fill="#e0e0e0" stroke="#999999" points="2096.5,-184 1924.5,-184 1924.5,-165 2096.5,-165 2096.5,-184"/>
<text text-anchor="middle" x="2010.5" y="-172" font-family="Helvetica,sans-Serif" font-size="10.00">SFML/System/NonCopyable.hpp</text>
</a>
</g>
</g>
<!-- Node8&#45;&gt;Node17 -->
<g id="edge16" class="edge">
<title>Node8&#45;&gt;Node17</title>
<path fill="none" stroke="#63b8ff" d="M931.55,-227.42C1067.46,-223.61 1523.84,-209.69 1912.56,-184.16"/>
<polygon fill="#63b8ff" stroke="#63b8ff" points="1912.79,-187.66 1922.54,-183.5 1912.33,-180.67 1912.79,-187.66"/>
</g>
<!-- Node18 -->
<g id="node18" class="node">
<title>Node18</title>
<g id="a_node18"><a xlink:title=" ">
<polygon fill="#e0e0e0" stroke="#999999" points="537,-184 394,-184 394,-165 537,-165 537,-184"/>
<text text-anchor="middle" x="465.5" y="-172" font-family="Helvetica,sans-Serif" font-size="10.00">SFML/System/Vector2.hpp</text>
</a>
</g>
</g>
<!-- Node8&#45;&gt;Node18 -->
<g id="edge17" class="edge">
<title>Node8&#45;&gt;Node18</title>
<path fill="none" stroke="#63b8ff" d="M851.04,-223.47C781.93,-214.87 639.79,-197.18 548.75,-185.86"/>
<polygon fill="#63b8ff" stroke="#63b8ff" points="549.22,-182.39 538.86,-184.63 548.35,-189.34 549.22,-182.39"/>
</g>
<!-- Node19 -->
<g id="node19" class="node">
<title>Node19</title>
<g id="a_node19"><a xlink:title=" ">
<polygon fill="#e0e0e0" stroke="#999999" points="841.5,-129 783.5,-129 783.5,-110 841.5,-110 841.5,-129"/>
<text text-anchor="middle" x="812.5" y="-117" font-family="Helvetica,sans-Serif" font-size="10.00">memory</text>
</a>
</g>
</g>
<!-- Node8&#45;&gt;Node19 -->
<g id="edge18" class="edge">
<title>Node8&#45;&gt;Node19</title>
<path fill="none" stroke="#63b8ff" d="M860.43,-219.61C843.04,-212.87 822.83,-201.67 812.5,-184 804.91,-171.02 805.41,-153.84 807.53,-140.63"/>
<polygon fill="#63b8ff" stroke="#63b8ff" points="810.94,-141.42 809.55,-130.92 804.09,-140 810.94,-141.42"/>
</g>
<!-- Node20 -->
<g id="node20" class="node">
<title>Node20</title>
<g id="a_node20"><a xlink:title=" ">
<polygon fill="#e0e0e0" stroke="#999999" points="869,-184 822,-184 822,-165 869,-165 869,-184"/>
<text text-anchor="middle" x="845.5" y="-172" font-family="Helvetica,sans-Serif" font-size="10.00">vector</text>
</a>
</g>
</g>
<!-- Node8&#45;&gt;Node20 -->
<g id="edge19" class="edge">
<title>Node8&#45;&gt;Node20</title>
<path fill="none" stroke="#63b8ff" d="M883.9,-219.75C877.62,-212.5 868.49,-201.98 860.7,-193.02"/>
<polygon fill="#63b8ff" stroke="#63b8ff" points="863.45,-190.84 854.25,-185.59 858.16,-195.43 863.45,-190.84"/>
</g>
<!-- Node21 -->
<g id="node21" class="node">
<title>Node21</title>
<g id="a_node21"><a xlink:title=" ">
<polygon fill="#e0e0e0" stroke="#999999" points="919.5,-184 887.5,-184 887.5,-165 919.5,-165 919.5,-184"/>
<text text-anchor="middle" x="903.5" y="-172" font-family="Helvetica,sans-Serif" font-size="10.00">set</text>
</a>
</g>
</g>
<!-- Node8&#45;&gt;Node21 -->
<g id="edge20" class="edge">
<title>Node8&#45;&gt;Node21</title>
<path fill="none" stroke="#63b8ff" d="M893.48,-219.75C894.97,-213.19 897.06,-203.95 898.95,-195.6"/>
<polygon fill="#63b8ff" stroke="#63b8ff" points="902.35,-196.44 901.14,-185.92 895.52,-194.9 902.35,-196.44"/>
</g>
<!-- Node22&#45;&gt;Node8 -->
<g id="edge43" class="edge">
<title>Node22&#45;&gt;Node8</title>
<path fill="none" stroke="#63b8ff" d="M870.63,-274.75C873.83,-267.96 878.39,-258.3 882.43,-249.73"/>
<polygon fill="#63b8ff" stroke="#63b8ff" points="885.54,-251.35 886.64,-240.81 879.2,-248.36 885.54,-251.35"/>
</g>
<!-- Node22&#45;&gt;Node9 -->
<g id="edge42" class="edge">
<title>Node22&#45;&gt;Node9</title>
<path fill="none" stroke="#63b8ff" d="M857.06,-274.69C833.76,-252.46 773.01,-191.4 739.5,-129 732.05,-115.13 726.35,-98.25 722.61,-85.38"/>
<polygon fill="#63b8ff" stroke="#63b8ff" points="726.05,-84.68 720.04,-75.96 719.3,-86.53 726.05,-84.68"/>
</g>
<!-- Node22&#45;&gt;Node12 -->
<g id="edge44" class="edge">
<title>Node22&#45;&gt;Node12</title>
<path fill="none" stroke="#63b8ff" d="M839.53,-275.56C813.27,-267.5 772.48,-254.08 738.5,-239 705.56,-224.38 669.41,-203.82 646.36,-190.09"/>
<polygon fill="#63b8ff" stroke="#63b8ff" points="648.43,-187.25 638.05,-185.1 644.82,-193.25 648.43,-187.25"/>
</g>
<!-- Node22&#45;&gt;Node18 -->
<g id="edge46" class="edge">
<title>Node22&#45;&gt;Node18</title>
<path fill="none" stroke="#63b8ff" d="M839.59,-276.37C806.58,-267.61 748.9,-252.29 699.5,-239 633.22,-221.18 556.44,-200.3 509.43,-187.48"/>
<polygon fill="#63b8ff" stroke="#63b8ff" points="510.46,-184.14 499.89,-184.88 508.61,-190.89 510.46,-184.14"/>
</g>
<!-- Node23 -->
<g id="node23" class="node">
<title>Node23</title>
<g id="a_node23"><a xlink:href="AnimationMachine_8h.html" target="_top" xlink:title=" ">
<polygon fill="white" stroke="#666666" points="2584,-239 2467,-239 2467,-220 2584,-220 2584,-239"/>
<text text-anchor="middle" x="2525.5" y="-227" font-family="Helvetica,sans-Serif" font-size="10.00">AnimationMachine.h</text>
</a>
</g>
</g>
<!-- Node22&#45;&gt;Node23 -->
<g id="edge24" class="edge">
<title>Node22&#45;&gt;Node23</title>
<path fill="none" stroke="#63b8ff" d="M893.23,-282.65C1078.1,-276.74 2167.78,-241.93 2455.74,-232.73"/>
<polygon fill="#63b8ff" stroke="#63b8ff" points="2455.45,-236.24 2465.33,-232.42 2455.23,-229.24 2455.45,-236.24"/>
</g>
<!-- Node26 -->
<g id="node26" class="node">
<title>Node26</title>
<g id="a_node26"><a xlink:title=" ">
<polygon fill="#e0e0e0" stroke="#999999" points="2284,-184 2153,-184 2153,-165 2284,-165 2284,-184"/>
<text text-anchor="middle" x="2218.5" y="-172" font-family="Helvetica,sans-Serif" font-size="10.00">SFML/System/Time.hpp</text>
</a>
</g>
</g>
<!-- Node22&#45;&gt;Node26 -->
<g id="edge45" class="edge">
<title>Node22&#45;&gt;Node26</title>
<path fill="none" stroke="#63b8ff" d="M893.38,-281.68C1027.62,-272.51 1638.9,-230.07 2138.5,-184 2139.5,-183.91 2140.51,-183.81 2141.53,-183.72"/>
<polygon fill="#63b8ff" stroke="#63b8ff" points="2141.47,-187.24 2151.09,-182.79 2140.8,-180.27 2141.47,-187.24"/>
</g>
<!-- Node23&#45;&gt;Node6 -->
<g id="edge30" class="edge">
<title>Node23&#45;&gt;Node6</title>
<path fill="none" stroke="#63b8ff" d="M2568.54,-219.53C2634.66,-203.73 2749.5,-167.11 2708.5,-110 2663.91,-47.89 2620.36,-70.57 2545.5,-55 2368.85,-18.26 2152.66,-11.72 2063.25,-10.65"/>
<polygon fill="#63b8ff" stroke="#63b8ff" points="2063.54,-7.16 2053.51,-10.56 2063.47,-14.16 2063.54,-7.16"/>
</g>
<!-- Node23&#45;&gt;Node9 -->
<g id="edge35" class="edge">
<title>Node23&#45;&gt;Node9</title>
<path fill="none" stroke="#63b8ff" d="M2494.2,-219.59C2435.39,-202.9 2312.51,-168.32 2292.5,-165 1689.14,-64.79 940.42,-63.69 758.65,-65.05"/>
<polygon fill="#63b8ff" stroke="#63b8ff" points="758.75,-61.55 748.77,-65.13 758.8,-68.55 758.75,-61.55"/>
</g>
<!-- Node23&#45;&gt;Node10 -->
<g id="edge25" class="edge">
<title>Node23&#45;&gt;Node10</title>
<path fill="none" stroke="#63b8ff" d="M2584.25,-220.57C2621.52,-212.44 2660.48,-196.33 2647.5,-165 2627.83,-117.51 2572.39,-91.25 2530.96,-77.8"/>
<polygon fill="#63b8ff" stroke="#63b8ff" points="2531.99,-74.46 2521.4,-74.86 2529.93,-81.15 2531.99,-74.46"/>
</g>
<!-- Node24 -->
<g id="node24" class="node">
<title>Node24</title>
<g id="a_node24"><a xlink:title=" ">
<polygon fill="#e0e0e0" stroke="#999999" points="2874,-184 2733,-184 2733,-165 2874,-165 2874,-184"/>
<text text-anchor="middle" x="2803.5" y="-172" font-family="Helvetica,sans-Serif" font-size="10.00">SFML/Graphics/Sprite.hpp</text>
</a>
</g>
</g>
<!-- Node23&#45;&gt;Node24 -->
<g id="edge26" class="edge">
<title>Node23&#45;&gt;Node24</title>
<path fill="none" stroke="#63b8ff" d="M2572.66,-219.51C2620.33,-210.42 2694.09,-196.36 2745.35,-186.59"/>
<polygon fill="#63b8ff" stroke="#63b8ff" points="2745.92,-190.04 2755.09,-184.73 2744.61,-183.16 2745.92,-190.04"/>
</g>
<!-- Node25 -->
<g id="node25" class="node">
<title>Node25</title>
<g id="a_node25"><a xlink:title=" ">
<polygon fill="#e0e0e0" stroke="#999999" points="2584,-129 2435,-129 2435,-110 2584,-110 2584,-129"/>
<text text-anchor="middle" x="2509.5" y="-117" font-family="Helvetica,sans-Serif" font-size="10.00">SFML/Graphics/Texture.hpp</text>
</a>
</g>
</g>
<!-- Node23&#45;&gt;Node25 -->
<g id="edge27" class="edge">
<title>Node23&#45;&gt;Node25</title>
<path fill="none" stroke="#63b8ff" d="M2524.19,-219.66C2521.65,-202.5 2515.98,-164.26 2512.48,-140.6"/>
<polygon fill="#63b8ff" stroke="#63b8ff" points="2515.98,-140.34 2511.05,-130.96 2509.05,-141.36 2515.98,-140.34"/>
</g>
<!-- Node23&#45;&gt;Node26 -->
<g id="edge28" class="edge">
<title>Node23&#45;&gt;Node26</title>
<path fill="none" stroke="#63b8ff" d="M2473.42,-219.51C2420.53,-210.38 2338.55,-196.23 2281.91,-186.45"/>
<polygon fill="#63b8ff" stroke="#63b8ff" points="2282.52,-183 2272.07,-184.75 2281.33,-189.9 2282.52,-183"/>
</g>
<!-- Node27 -->
<g id="node27" class="node">
<title>Node27</title>
<g id="a_node27"><a xlink:title=" ">
<polygon fill="#e0e0e0" stroke="#999999" points="2638.5,-184 2566.5,-184 2566.5,-165 2638.5,-165 2638.5,-184"/>
<text text-anchor="middle" x="2602.5" y="-172" font-family="Helvetica,sans-Serif" font-size="10.00">sys/types.h</text>
</a>
</g>
</g>
<!-- Node23&#45;&gt;Node27 -->
<g id="edge29" class="edge">
<title>Node23&#45;&gt;Node27</title>
<path fill="none" stroke="#63b8ff" d="M2538.56,-219.51C2550.02,-211.62 2566.93,-199.98 2580.48,-190.65"/>
<polygon fill="#63b8ff" stroke="#63b8ff" points="2582.13,-193.77 2588.38,-185.22 2578.16,-188 2582.13,-193.77"/>
</g>
<!-- Node28 -->
<g id="node28" class="node">
<title>Node28</title>
<g id="a_node28"><a xlink:href="Consts_8h.html" target="_top" xlink:title=" ">
<polygon fill="white" stroke="#666666" points="2700,-129 2641,-129 2641,-110 2700,-110 2700,-129"/>
<text text-anchor="middle" x="2670.5" y="-117" font-family="Helvetica,sans-Serif" font-size="10.00">Consts.h</text>
</a>
</g>
</g>
<!-- Node23&#45;&gt;Node28 -->
<g id="edge31" class="edge">
<title>Node23&#45;&gt;Node28</title>
<path fill="none" stroke="#63b8ff" d="M2527.69,-219.89C2531.53,-206.42 2540.72,-180.31 2557.5,-165 2577.71,-146.56 2606.47,-135.38 2629.91,-128.84"/>
<polygon fill="#63b8ff" stroke="#63b8ff" points="2630.66,-132.26 2639.47,-126.37 2628.91,-125.48 2630.66,-132.26"/>
</g>
<!-- Node29 -->
<g id="node29" class="node">
<title>Node29</title>
<g id="a_node29"><a xlink:href="TextureHolder_8h.html" target="_top" xlink:title=" ">
<polygon fill="white" stroke="#666666" points="2472,-184 2379,-184 2379,-165 2472,-165 2472,-184"/>
<text text-anchor="middle" x="2425.5" y="-172" font-family="Helvetica,sans-Serif" font-size="10.00">TextureHolder.h</text>
</a>
</g>
</g>
<!-- Node23&#45;&gt;Node29 -->
<g id="edge36" class="edge">
<title>Node23&#45;&gt;Node29</title>
<path fill="none" stroke="#63b8ff" d="M2508.54,-219.51C2493.14,-211.35 2470.19,-199.19 2452.31,-189.71"/>
<polygon fill="#63b8ff" stroke="#63b8ff" points="2454.03,-186.66 2443.55,-185.07 2450.75,-192.84 2454.03,-186.66"/>
</g>
<!-- Node28&#45;&gt;Node4 -->
<g id="edge34" class="edge">
<title>Node28&#45;&gt;Node4</title>
<path fill="none" stroke="#63b8ff" d="M2691.87,-109.51C2711.91,-101.08 2742.1,-88.38 2764.91,-78.79"/>
<polygon fill="#63b8ff" stroke="#63b8ff" points="2766.19,-82.05 2774.05,-74.94 2763.47,-75.6 2766.19,-82.05"/>
</g>
<!-- Node28&#45;&gt;Node9 -->
<g id="edge33" class="edge">
<title>Node28&#45;&gt;Node9</title>
<path fill="none" stroke="#63b8ff" d="M2640.55,-114.64C2626.06,-112.92 2608.4,-111.05 2592.5,-110 1858.6,-61.39 960.02,-63.92 758.77,-65.18"/>
<polygon fill="#63b8ff" stroke="#63b8ff" points="758.8,-61.68 748.83,-65.25 758.85,-68.68 758.8,-61.68"/>
</g>
<!-- Node28&#45;&gt;Node10 -->
<g id="edge32" class="edge">
<title>Node28&#45;&gt;Node10</title>
<path fill="none" stroke="#63b8ff" d="M2640.55,-110.1C2609.28,-101.33 2559.93,-87.49 2524.49,-77.56"/>
<polygon fill="#63b8ff" stroke="#63b8ff" points="2525.55,-74.22 2514.98,-74.89 2523.66,-80.96 2525.55,-74.22"/>
</g>
<!-- Node29&#45;&gt;Node9 -->
<g id="edge40" class="edge">
<title>Node29&#45;&gt;Node9</title>
<path fill="none" stroke="#63b8ff" d="M2396.4,-164.59C2347.44,-150.07 2245.22,-121.72 2156.5,-110 1875.59,-72.88 963.48,-66.61 758.61,-65.66"/>
<polygon fill="#63b8ff" stroke="#63b8ff" points="758.75,-62.16 748.73,-65.61 758.71,-69.16 758.75,-62.16"/>
</g>
<!-- Node29&#45;&gt;Node19 -->
<g id="edge37" class="edge">
<title>Node29&#45;&gt;Node19</title>
<path fill="none" stroke="#63b8ff" d="M2378.74,-170.12C2353.26,-168.38 2321.16,-166.35 2292.5,-165 1722.05,-138.2 1027.12,-124.4 853.35,-121.22"/>
<polygon fill="#63b8ff" stroke="#63b8ff" points="853.55,-117.73 843.49,-121.04 853.42,-124.72 853.55,-117.73"/>
</g>
<!-- Node29&#45;&gt;Node25 -->
<g id="edge39" class="edge">
<title>Node29&#45;&gt;Node25</title>
<path fill="none" stroke="#63b8ff" d="M2439.75,-164.51C2452.38,-156.54 2471.06,-144.75 2485.91,-135.38"/>
<polygon fill="#63b8ff" stroke="#63b8ff" points="2487.59,-138.46 2494.18,-130.17 2483.86,-132.54 2487.59,-138.46"/>
</g>
<!-- Node29&#45;&gt;Node28 -->
<g id="edge41" class="edge">
<title>Node29&#45;&gt;Node28</title>
<path fill="none" stroke="#63b8ff" d="M2467.06,-164.51C2512.4,-154.7 2584.51,-139.1 2629.59,-129.35"/>
<polygon fill="#63b8ff" stroke="#63b8ff" points="2630.2,-132.8 2639.23,-127.26 2628.72,-125.96 2630.2,-132.8"/>
</g>
<!-- Node30 -->
<g id="node30" class="node">
<title>Node30</title>
<g id="a_node30"><a xlink:title=" ">
<polygon fill="#e0e0e0" stroke="#999999" points="2416.5,-129 2378.5,-129 2378.5,-110 2416.5,-110 2416.5,-129"/>
<text text-anchor="middle" x="2397.5" y="-117" font-family="Helvetica,sans-Serif" font-size="10.00">map</text>
</a>
</g>
</g>
<!-- Node29&#45;&gt;Node30 -->
<g id="edge38" class="edge">
<title>Node29&#45;&gt;Node30</title>
<path fill="none" stroke="#63b8ff" d="M2420.88,-164.75C2417.25,-157.88 2412.07,-148.08 2407.51,-139.45"/>
<polygon fill="#63b8ff" stroke="#63b8ff" points="2410.7,-137.99 2402.93,-130.78 2404.51,-141.26 2410.7,-137.99"/>
</g>
<!-- Node31&#45;&gt;Node22 -->
<g id="edge48" class="edge">
<title>Node31&#45;&gt;Node22</title>
<path fill="none" stroke="#63b8ff" d="M784.88,-494.62C790.98,-485.87 800.16,-471.95 806.5,-459 832.59,-405.69 852.47,-338.14 861.37,-305.27"/>
<polygon fill="#63b8ff" stroke="#63b8ff" points="864.67,-306.5 863.85,-295.93 857.9,-304.7 864.67,-306.5"/>
</g>
<!-- Node31&#45;&gt;Node32 -->
<g id="edge49" class="edge">
<title>Node31&#45;&gt;Node32</title>
<path fill="none" stroke="#63b8ff" d="M798.52,-494.51C817.11,-486.16 845.04,-473.61 866.33,-464.05"/>
<polygon fill="#63b8ff" stroke="#63b8ff" points="867.71,-467.27 875.4,-459.98 864.84,-460.88 867.71,-467.27"/>
</g>
<!-- Node33 -->
<g id="node33" class="node">
<title>Node33</title>
<g id="a_node33"><a xlink:href="Obstacle_8h.html" target="_top" xlink:title=" ">
<polygon fill="white" stroke="#666666" points="797.5,-459 729.5,-459 729.5,-440 797.5,-440 797.5,-459"/>
<text text-anchor="middle" x="763.5" y="-447" font-family="Helvetica,sans-Serif" font-size="10.00">Obstacle.h</text>
</a>
</g>
</g>
<!-- Node31&#45;&gt;Node33 -->
<g id="edge51" class="edge">
<title>Node31&#45;&gt;Node33</title>
<path fill="none" stroke="#63b8ff" d="M776.02,-494.75C774.15,-488.11 771.49,-478.73 769.11,-470.31"/>
<polygon fill="#63b8ff" stroke="#63b8ff" points="772.53,-469.57 766.44,-460.9 765.8,-471.47 772.53,-469.57"/>
</g>
<!-- Node34 -->
<g id="node34" class="node">
<title>Node34</title>
<g id="a_node34"><a xlink:href="PlayerState_8h.html" target="_top" xlink:title=" ">
<polygon fill="white" stroke="#666666" points="524.5,-404 442.5,-404 442.5,-385 524.5,-385 524.5,-404"/>
<text text-anchor="middle" x="483.5" y="-392" font-family="Helvetica,sans-Serif" font-size="10.00">PlayerState.h</text>
</a>
</g>
</g>
<!-- Node31&#45;&gt;Node34 -->
<g id="edge81" class="edge">
<title>Node31&#45;&gt;Node34</title>
<path fill="none" stroke="#63b8ff" d="M754.11,-494.57C701.87,-475.44 579.01,-430.47 518.47,-408.3"/>
<polygon fill="#63b8ff" stroke="#63b8ff" points="519.94,-405.11 509.34,-404.96 517.53,-411.69 519.94,-405.11"/>
</g>
<!-- Node32&#45;&gt;Node22 -->
<g id="edge50" class="edge">
<title>Node32&#45;&gt;Node22</title>
<path fill="none" stroke="#63b8ff" d="M895.84,-439.79C894.22,-420.06 889.54,-370.52 880.5,-330 878.65,-321.7 875.96,-312.72 873.43,-305.02"/>
<polygon fill="#63b8ff" stroke="#63b8ff" points="876.78,-304 870.23,-295.68 870.16,-306.27 876.78,-304"/>
</g>
<!-- Node33&#45;&gt;Node8 -->
<g id="edge54" class="edge">
<title>Node33&#45;&gt;Node8</title>
<path fill="none" stroke="#63b8ff" d="M765.06,-439.7C770.23,-412.65 788.83,-329.31 830.5,-275 839.73,-262.98 853.06,-252.74 864.91,-245.12"/>
<polygon fill="#63b8ff" stroke="#63b8ff" points="866.37,-248.33 873.1,-240.15 862.74,-242.35 866.37,-248.33"/>
</g>
<!-- Node33&#45;&gt;Node9 -->
<g id="edge53" class="edge">
<title>Node33&#45;&gt;Node9</title>
<path fill="none" stroke="#63b8ff" d="M729.21,-446.51C594.44,-438.24 108.5,-404.03 108.5,-340.5 108.5,-340.5 108.5,-340.5 108.5,-283.5 108.5,-200.51 110.8,-159.38 177.5,-110 217.29,-80.54 556.81,-69.44 676.19,-66.43"/>
<polygon fill="#63b8ff" stroke="#63b8ff" points="676.27,-69.92 686.18,-66.18 676.1,-62.93 676.27,-69.92"/>
</g>
<!-- Node33&#45;&gt;Node12 -->
<g id="edge79" class="edge">
<title>Node33&#45;&gt;Node12</title>
<path fill="none" stroke="#63b8ff" d="M748.74,-439.53C723.92,-423.19 676.5,-386.01 676.5,-340.5 676.5,-340.5 676.5,-340.5 676.5,-283.5 676.5,-248.55 653.6,-213.32 637.62,-192.99"/>
<polygon fill="#63b8ff" stroke="#63b8ff" points="640.48,-190.96 631.43,-185.45 635.07,-195.4 640.48,-190.96"/>
</g>
<!-- Node33&#45;&gt;Node22 -->
<g id="edge55" class="edge">
<title>Node33&#45;&gt;Node22</title>
<path fill="none" stroke="#63b8ff" d="M769.04,-439.74C785.25,-414.09 832.83,-338.78 854.95,-303.78"/>
<polygon fill="#63b8ff" stroke="#63b8ff" points="857.74,-305.91 860.13,-295.59 851.83,-302.17 857.74,-305.91"/>
</g>
<!-- Node33&#45;&gt;Node24 -->
<g id="edge80" class="edge">
<title>Node33&#45;&gt;Node24</title>
<path fill="none" stroke="#63b8ff" d="M797.83,-445.07C816.86,-443.28 840.97,-441.23 862.5,-440 1426.7,-407.82 1569.12,-432.81 2133.5,-404 2304.75,-395.26 2902.5,-511.97 2902.5,-340.5 2902.5,-340.5 2902.5,-340.5 2902.5,-283.5 2902.5,-240.95 2860.23,-207.9 2830.93,-190.09"/>
<polygon fill="#63b8ff" stroke="#63b8ff" points="2832.91,-187.2 2822.51,-185.2 2829.4,-193.25 2832.91,-187.2"/>
</g>
<!-- Node33&#45;&gt;Node28 -->
<g id="edge52" class="edge">
<title>Node33&#45;&gt;Node28</title>
<path fill="none" stroke="#63b8ff" d="M797.82,-445.01C816.86,-443.21 840.97,-441.16 862.5,-440 1598.5,-400.45 1785.79,-462.8 2520.5,-404 2614.59,-396.47 2940.5,-434.89 2940.5,-340.5 2940.5,-340.5 2940.5,-340.5 2940.5,-228.5 2940.5,-195.38 2928.74,-183.84 2901.5,-165 2871.25,-144.08 2769.24,-130.57 2711.41,-124.4"/>
<polygon fill="#63b8ff" stroke="#63b8ff" points="2711.93,-120.93 2701.63,-123.38 2711.21,-127.9 2711.93,-120.93"/>
</g>
<!-- Node33&#45;&gt;Node29 -->
<g id="edge56" class="edge">
<title>Node33&#45;&gt;Node29</title>
<path fill="none" stroke="#63b8ff" d="M797.85,-445.37C816.89,-443.68 841,-441.62 862.5,-440 948.27,-433.56 2407.5,-426.51 2407.5,-340.5 2407.5,-340.5 2407.5,-340.5 2407.5,-283.5 2407.5,-252.36 2414.87,-216.84 2420.18,-195.3"/>
<polygon fill="#63b8ff" stroke="#63b8ff" points="2423.51,-196.4 2422.62,-185.84 2416.73,-194.65 2423.51,-196.4"/>
</g>
<!-- Node33&#45;&gt;Node34 -->
<g id="edge57" class="edge">
<title>Node33&#45;&gt;Node34</title>
<path fill="none" stroke="#63b8ff" d="M729.17,-442C680.94,-432.87 592.72,-416.17 536.16,-405.47"/>
<polygon fill="#63b8ff" stroke="#63b8ff" points="536.91,-402.05 526.43,-403.63 535.61,-408.93 536.91,-402.05"/>
</g>
<!-- Node40 -->
<g id="node40" class="node">
<title>Node40</title>
<g id="a_node40"><a xlink:href="PlayerCollidable_8h.html" target="_top" xlink:title=" ">
<polygon fill="white" stroke="#666666" points="648,-404 543,-404 543,-385 648,-385 648,-404"/>
<text text-anchor="middle" x="595.5" y="-392" font-family="Helvetica,sans-Serif" font-size="10.00">PlayerCollidable.h</text>
</a>
</g>
</g>
<!-- Node33&#45;&gt;Node40 -->
<g id="edge77" class="edge">
<title>Node33&#45;&gt;Node40</title>
<path fill="none" stroke="#63b8ff" d="M735,-439.51C707.4,-430.8 665.34,-417.53 634.62,-407.84"/>
<polygon fill="#63b8ff" stroke="#63b8ff" points="635.89,-404.57 625.3,-404.9 633.78,-411.25 635.89,-404.57"/>
</g>
<!-- Node34&#45;&gt;Node6 -->
<g id="edge76" class="edge">
<title>Node34&#45;&gt;Node6</title>
<path fill="none" stroke="#63b8ff" d="M459.03,-384.55C369.23,-350.48 68.59,-225.05 177.5,-110 241.6,-42.28 1712.35,-15.47 1979.93,-11.14"/>
<polygon fill="#63b8ff" stroke="#63b8ff" points="1979.6,-14.65 1989.54,-10.99 1979.49,-7.65 1979.6,-14.65"/>
</g>
<!-- Node34&#45;&gt;Node10 -->
<g id="edge73" class="edge">
<title>Node34&#45;&gt;Node10</title>
<path fill="none" stroke="#63b8ff" d="M524.94,-386.28C527.84,-385.83 530.71,-385.4 533.5,-385 1312.55,-274.35 1580.47,-518.91 2292.5,-184 2335.45,-163.8 2329.59,-135.69 2369.5,-110 2390.92,-96.21 2417.31,-85.47 2439.09,-78"/>
<polygon fill="#63b8ff" stroke="#63b8ff" points="2440.17,-81.33 2448.57,-74.87 2437.97,-74.68 2440.17,-81.33"/>
</g>
<!-- Node34&#45;&gt;Node12 -->
<g id="edge74" class="edge">
<title>Node34&#45;&gt;Node12</title>
<path fill="none" stroke="#63b8ff" d="M487.72,-384.62C497.39,-364.54 522.24,-314.36 547.5,-275 566.69,-245.1 592.13,-212.61 607.9,-193.16"/>
<polygon fill="#63b8ff" stroke="#63b8ff" points="610.41,-195.62 614.03,-185.66 604.99,-191.19 610.41,-195.62"/>
</g>
<!-- Node34&#45;&gt;Node18 -->
<g id="edge75" class="edge">
<title>Node34&#45;&gt;Node18</title>
<path fill="none" stroke="#63b8ff" d="M449.64,-384.56C431.67,-377.91 411.16,-366.82 400.5,-349 368.78,-296 421.23,-224.88 449.42,-192.65"/>
<polygon fill="#63b8ff" stroke="#63b8ff" points="451.84,-195.19 455.94,-185.42 446.64,-190.5 451.84,-195.19"/>
</g>
<!-- Node34&#45;&gt;Node28 -->
<g id="edge58" class="edge">
<title>Node34&#45;&gt;Node28</title>
<path fill="none" stroke="#63b8ff" d="M524.93,-386.14C527.82,-385.72 530.7,-385.34 533.5,-385 1444.36,-275.55 1682.73,-357.12 2592.5,-239 2722.59,-222.11 2798.82,-285.04 2882.5,-184 2929.72,-126.98 2785.75,-119.82 2711.65,-119.77"/>
<polygon fill="#63b8ff" stroke="#63b8ff" points="2711.89,-116.27 2701.91,-119.81 2711.92,-123.27 2711.89,-116.27"/>
</g>
<!-- Node35 -->
<g id="node35" class="node">
<title>Node35</title>
<g id="a_node35"><a xlink:href="Player_8h.html" target="_top" xlink:title=" ">
<polygon fill="white" stroke="#666666" points="611.5,-349 555.5,-349 555.5,-330 611.5,-330 611.5,-349"/>
<text text-anchor="middle" x="583.5" y="-337" font-family="Helvetica,sans-Serif" font-size="10.00">Player.h</text>
</a>
</g>
</g>
<!-- Node34&#45;&gt;Node35 -->
<g id="edge59" class="edge">
<title>Node34&#45;&gt;Node35</title>
<path fill="none" stroke="#63b8ff" d="M500.46,-384.51C515.86,-376.35 538.81,-364.19 556.69,-354.71"/>
<polygon fill="#63b8ff" stroke="#63b8ff" points="558.25,-357.84 565.45,-350.07 554.97,-351.66 558.25,-357.84"/>
</g>
<!-- Node35&#45;&gt;Node8 -->
<g id="edge63" class="edge">
<title>Node35&#45;&gt;Node8</title>
<path fill="none" stroke="#63b8ff" d="M603.3,-329.6C632.53,-316.64 689.08,-292.26 738.5,-275 774.2,-262.53 815.41,-250.69 846.05,-242.36"/>
<polygon fill="#63b8ff" stroke="#63b8ff" points="846.63,-245.83 855.38,-239.85 844.81,-239.07 846.63,-245.83"/>
</g>
<!-- Node35&#45;&gt;Node9 -->
<g id="edge62" class="edge">
<title>Node35&#45;&gt;Node9</title>
<path fill="none" stroke="#63b8ff" d="M555.13,-330.67C483.66,-310.75 300.46,-258.35 279.5,-239 254.19,-215.64 242.25,-196.35 256.5,-165 271.88,-131.16 285.48,-124.97 319.5,-110 382.78,-82.16 587.9,-70.72 676.32,-67"/>
<polygon fill="#63b8ff" stroke="#63b8ff" points="676.39,-70.5 686.24,-66.6 676.1,-63.51 676.39,-70.5"/>
</g>
<!-- Node35&#45;&gt;Node12 -->
<g id="edge71" class="edge">
<title>Node35&#45;&gt;Node12</title>
<path fill="none" stroke="#63b8ff" d="M593.27,-329.71C601.7,-321.43 613.31,-308.22 618.5,-294 630.47,-261.22 628.34,-219.89 625.54,-195.71"/>
<polygon fill="#63b8ff" stroke="#63b8ff" points="629.03,-195.43 624.24,-185.98 622.09,-196.35 629.03,-195.43"/>
</g>
<!-- Node35&#45;&gt;Node18 -->
<g id="edge72" class="edge">
<title>Node35&#45;&gt;Node18</title>
<path fill="none" stroke="#63b8ff" d="M576.13,-329.79C568.71,-320.93 557.03,-306.73 547.5,-294 521.49,-259.27 493.09,-217.21 477.47,-193.69"/>
<polygon fill="#63b8ff" stroke="#63b8ff" points="480.52,-191.95 472.08,-185.54 474.68,-195.82 480.52,-191.95"/>
</g>
<!-- Node35&#45;&gt;Node22 -->
<g id="edge61" class="edge">
<title>Node35&#45;&gt;Node22</title>
<path fill="none" stroke="#63b8ff" d="M611.93,-333.18C663.2,-323.57 771.15,-303.36 828.62,-292.59"/>
<polygon fill="#63b8ff" stroke="#63b8ff" points="829.08,-296.07 838.26,-290.79 827.79,-289.19 829.08,-296.07"/>
</g>
<!-- Node36 -->
<g id="node36" class="node">
<title>Node36</title>
<g id="a_node36"><a xlink:href="Effect_8h.html" target="_top" xlink:title=" ">
<polygon fill="white" stroke="#666666" points="610,-294 557,-294 557,-275 610,-275 610,-294"/>
<text text-anchor="middle" x="583.5" y="-282" font-family="Helvetica,sans-Serif" font-size="10.00">Effect.h</text>
</a>
</g>
</g>
<!-- Node35&#45;&gt;Node36 -->
<g id="edge60" class="edge">
<title>Node35&#45;&gt;Node36</title>
<path fill="none" stroke="#63b8ff" d="M583.5,-329.75C583.5,-323.27 583.5,-314.16 583.5,-305.9"/>
<polygon fill="#63b8ff" stroke="#63b8ff" points="587,-305.96 583.5,-295.96 580,-305.96 587,-305.96"/>
</g>
<!-- Node37 -->
<g id="node37" class="node">
<title>Node37</title>
<g id="a_node37"><a xlink:href="Effects_8h.html" target="_top" xlink:title=" ">
<polygon fill="white" stroke="#666666" points="348,-239 289,-239 289,-220 348,-220 348,-239"/>
<text text-anchor="middle" x="318.5" y="-227" font-family="Helvetica,sans-Serif" font-size="10.00">Effects.h</text>
</a>
</g>
</g>
<!-- Node35&#45;&gt;Node37 -->
<g id="edge64" class="edge">
<title>Node35&#45;&gt;Node37</title>
<path fill="none" stroke="#63b8ff" d="M569.56,-329.7C548.08,-316.44 505.33,-291.17 466.5,-275 431.25,-260.32 389.45,-248.21 359.28,-240.35"/>
<polygon fill="#63b8ff" stroke="#63b8ff" points="360.35,-237.01 349.79,-237.92 358.61,-243.79 360.35,-237.01"/>
</g>
<!-- Node37&#45;&gt;Node9 -->
<g id="edge66" class="edge">
<title>Node37&#45;&gt;Node9</title>
<path fill="none" stroke="#63b8ff" d="M301.3,-219.59C280.05,-207.42 248.54,-184.85 264.5,-165 316.13,-100.79 574.7,-75.66 676.36,-68.15"/>
<polygon fill="#63b8ff" stroke="#63b8ff" points="676.44,-71.66 686.17,-67.45 675.94,-64.68 676.44,-71.66"/>
</g>
<!-- Node37&#45;&gt;Node18 -->
<g id="edge69" class="edge">
<title>Node37&#45;&gt;Node18</title>
<path fill="none" stroke="#63b8ff" d="M343.44,-219.51C367.34,-210.89 403.64,-197.8 430.45,-188.14"/>
<polygon fill="#63b8ff" stroke="#63b8ff" points="431.29,-191.56 439.51,-184.87 428.91,-184.97 431.29,-191.56"/>
</g>
<!-- Node37&#45;&gt;Node19 -->
<g id="edge68" class="edge">
<title>Node37&#45;&gt;Node19</title>
<path fill="none" stroke="#63b8ff" d="M324.59,-219.65C334.99,-205.33 357.68,-177.46 384.5,-165 452.73,-133.3 678.55,-123.94 771.74,-121.38"/>
<polygon fill="#63b8ff" stroke="#63b8ff" points="771.78,-124.88 781.69,-121.13 771.6,-117.89 771.78,-124.88"/>
</g>
<!-- Node37&#45;&gt;Node26 -->
<g id="edge70" class="edge">
<title>Node37&#45;&gt;Node26</title>
<path fill="none" stroke="#63b8ff" d="M348.44,-227.96C552.66,-224.25 1743.24,-202.12 2105.5,-184 2117.04,-183.42 2129.23,-182.66 2141.17,-181.83"/>
<polygon fill="#63b8ff" stroke="#63b8ff" points="2141.27,-185.34 2151,-181.13 2140.77,-178.35 2141.27,-185.34"/>
</g>
<!-- Node38 -->
<g id="node38" class="node">
<title>Node38</title>
<g id="a_node38"><a xlink:title=" ">
<polygon fill="#e0e0e0" stroke="#999999" points="337.5,-184 273.5,-184 273.5,-165 337.5,-165 337.5,-184"/>
<text text-anchor="middle" x="305.5" y="-172" font-family="Helvetica,sans-Serif" font-size="10.00">algorithm</text>
</a>
</g>
</g>
<!-- Node37&#45;&gt;Node38 -->
<g id="edge65" class="edge">
<title>Node37&#45;&gt;Node38</title>
<path fill="none" stroke="#63b8ff" d="M316.35,-219.75C314.74,-213.19 312.48,-203.95 310.43,-195.6"/>
<polygon fill="#63b8ff" stroke="#63b8ff" points="313.84,-194.79 308.05,-185.91 307.04,-196.46 313.84,-194.79"/>
</g>
<!-- Node37&#45;&gt;Node39 -->
<g id="edge67" class="edge">
<title>Node37&#45;&gt;Node39</title>
<path fill="none" stroke="#63b8ff" d="M288.7,-222.98C238.14,-213.61 135.3,-194.55 76.45,-183.64"/>
<polygon fill="#63b8ff" stroke="#63b8ff" points="77.25,-180.23 66.78,-181.85 75.98,-187.12 77.25,-180.23"/>
</g>
<!-- Node40&#45;&gt;Node35 -->
<g id="edge78" class="edge">
<title>Node40&#45;&gt;Node35</title>
<path fill="none" stroke="#63b8ff" d="M593.52,-384.75C592.03,-378.19 589.94,-368.95 588.05,-360.6"/>
<polygon fill="#63b8ff" stroke="#63b8ff" points="591.48,-359.9 585.86,-350.92 584.65,-361.44 591.48,-359.9"/>
</g>
</g>
</svg>
