<?xml version="1.0" encoding="UTF-8" standalone="no"?>
<!DOCTYPE svg PUBLIC "-//W3C//DTD SVG 1.1//EN"
 "http://www.w3.org/Graphics/SVG/1.1/DTD/svg11.dtd">
<!-- Generated by graphviz version 7.0.5 (0)
 -->
<!-- Title: src/RoadLane.h Pages: 1 -->
<!--zoomable 577 -->
<svg id="main" version="1.1" xmlns="http://www.w3.org/2000/svg" xmlns:xlink="http://www.w3.org/1999/xlink" xml:space="preserve" onload="init(evt)">
<style type="text/css"><![CDATA[
.edge:hover path { stroke: red; }
.edge:hover polygon { stroke: red; fill: red; }
]]></style>
<script type="text/javascript"><![CDATA[
var edges = document.getElementsByTagName('g');
if (edges && edges.length) {
  for (var i=0;i<edges.length;i++) {
    if (edges[i].id.substr(0,4)=='edge') {
      edges[i].setAttribute('class','edge');
    }
  }
}
]]></script>
        <defs>
                <circle id="rim" cx="0" cy="0" r="7"/>
                <circle id="rim2" cx="0" cy="0" r="3.5"/>
                <g id="zoomPlus">
                        <use xlink:href="#rim" fill="#404040">
                                <set attributeName="fill" to="#808080" begin="zoomplus.mouseover" end="zoomplus.mouseout"/>
                        </use>
                        <path d="M-4,0h8M0,-4v8" fill="none" stroke="white" stroke-width="1.5" pointer-events="none"/>
                </g>
                <g id="zoomMin">
                        <use xlink:href="#rim" fill="#404040">
                                <set attributeName="fill" to="#808080" begin="zoomminus.mouseover" end="zoomminus.mouseout"/>
                        </use>
                        <path d="M-4,0h8" fill="none" stroke="white" stroke-width="1.5" pointer-events="none"/>
                </g>
                <g id="dirArrow">
                        <path fill="none" stroke="white" stroke-width="1.5" d="M0,-3.0v7 M-2.5,-0.5L0,-3.0L2.5,-0.5"/>
                </g>
               <g id="resetDef">
                       <use xlink:href="#rim2" fill="#404040">
                               <set attributeName="fill" to="#808080" begin="reset.mouseover" end="reset.mouseout"/>
                       </use>
               </g>
        </defs>

<script type="text/javascript">
var viewWidth = 2981;
var viewHeight = 577;
var sectionId = 'dynsection-0';
</script>
<script xlink:href="svgpan.js"/>
<svg id="graph" class="graph">
<g id="viewport">
<title>src/RoadLane.h</title>
<!-- Node1 -->
<g id="node1" class="node">
<title>Node1</title>
<g id="a_node1"><a xlink:title=" ">
<polygon fill="#999999" stroke="#666666" points="1110.5,-569 1019.5,-569 1019.5,-550 1110.5,-550 1110.5,-569"/>
<text text-anchor="middle" x="1065" y="-557" font-family="Helvetica,sans-Serif" font-size="10.00">src/RoadLane.h</text>
</a>
</g>
</g>
<!-- Node2 -->
<g id="node2" class="node">
<title>Node2</title>
<g id="a_node2"><a xlink:href="Random_8h.html" target="_top" xlink:title=" ">
<polygon fill="white" stroke="#666666" points="331,-74 265,-74 265,-55 331,-55 331,-74"/>
<text text-anchor="middle" x="298" y="-62" font-family="Helvetica,sans-Serif" font-size="10.00">Random.h</text>
</a>
</g>
</g>
<!-- Node1&#45;&gt;Node2 -->
<g id="edge1" class="edge">
<title>Node1&#45;&gt;Node2</title>
<path fill="none" stroke="#63b8ff" d="M1019.21,-558.56C819.92,-558.24 38,-550.62 38,-450.5 38,-450.5 38,-450.5 38,-173.5 38,-81.4 178.85,-66.37 253.21,-64.85"/>
<polygon fill="#63b8ff" stroke="#63b8ff" points="253.07,-68.35 263.03,-64.73 252.99,-61.35 253.07,-68.35"/>
</g>
<!-- Node5 -->
<g id="node5" class="node">
<title>Node5</title>
<g id="a_node5"><a xlink:href="Lane_8h.html" target="_top" xlink:title=" ">
<polygon fill="white" stroke="#666666" points="1173.5,-294 1124.5,-294 1124.5,-275 1173.5,-275 1173.5,-294"/>
<text text-anchor="middle" x="1149" y="-282" font-family="Helvetica,sans-Serif" font-size="10.00">Lane.h</text>
</a>
</g>
</g>
<!-- Node1&#45;&gt;Node5 -->
<g id="edge4" class="edge">
<title>Node1&#45;&gt;Node5</title>
<path fill="none" stroke="#63b8ff" d="M1078.87,-549.67C1102.73,-533.26 1149,-495.63 1149,-450.5 1149,-450.5 1149,-450.5 1149,-393.5 1149,-362.92 1149,-327.48 1149,-305.77"/>
<polygon fill="#63b8ff" stroke="#63b8ff" points="1152.5,-305.97 1149,-295.97 1145.5,-305.97 1152.5,-305.97"/>
</g>
<!-- Node20 -->
<g id="node20" class="node">
<title>Node20</title>
<g id="a_node20"><a xlink:href="Entity_8h.html" target="_top" xlink:title=" ">
<polygon fill="white" stroke="#666666" points="1054.5,-294 1001.5,-294 1001.5,-275 1054.5,-275 1054.5,-294"/>
<text text-anchor="middle" x="1028" y="-282" font-family="Helvetica,sans-Serif" font-size="10.00">Entity.h</text>
</a>
</g>
</g>
<!-- Node1&#45;&gt;Node20 -->
<g id="edge21" class="edge">
<title>Node1&#45;&gt;Node20</title>
<path fill="none" stroke="#63b8ff" d="M1071.79,-549.52C1084.58,-531.67 1111,-490.04 1111,-450.5 1111,-450.5 1111,-450.5 1111,-393.5 1111,-353.84 1075.37,-319.78 1050.8,-301.02"/>
<polygon fill="#63b8ff" stroke="#63b8ff" points="1053.07,-298.34 1042.93,-295.27 1048.94,-303.99 1053.07,-298.34"/>
</g>
<!-- Node29 -->
<g id="node29" class="node">
<title>Node29</title>
<g id="a_node29"><a xlink:href="Commuters_8h.html" target="_top" xlink:title=" ">
<polygon fill="white" stroke="#666666" points="1036.5,-514 953.5,-514 953.5,-495 1036.5,-495 1036.5,-514"/>
<text text-anchor="middle" x="995" y="-502" font-family="Helvetica,sans-Serif" font-size="10.00">Commuters.h</text>
</a>
</g>
</g>
<!-- Node1&#45;&gt;Node29 -->
<g id="edge45" class="edge">
<title>Node1&#45;&gt;Node29</title>
<path fill="none" stroke="#63b8ff" d="M1053.13,-549.51C1042.91,-541.77 1027.93,-530.43 1015.74,-521.2"/>
<polygon fill="#63b8ff" stroke="#63b8ff" points="1017.99,-518.52 1007.91,-515.27 1013.77,-524.1 1017.99,-518.52"/>
</g>
<!-- Node30 -->
<g id="node30" class="node">
<title>Node30</title>
<g id="a_node30"><a xlink:href="Light_8h.html" target="_top" xlink:title=" ">
<polygon fill="white" stroke="#666666" points="1083,-459 1033,-459 1033,-440 1083,-440 1083,-459"/>
<text text-anchor="middle" x="1058" y="-447" font-family="Helvetica,sans-Serif" font-size="10.00">Light.h</text>
</a>
</g>
</g>
<!-- Node1&#45;&gt;Node30 -->
<g id="edge80" class="edge">
<title>Node1&#45;&gt;Node30</title>
<path fill="none" stroke="#63b8ff" d="M1064.43,-549.66C1063.32,-532.57 1060.86,-494.61 1059.32,-470.92"/>
<polygon fill="#63b8ff" stroke="#63b8ff" points="1062.82,-470.72 1058.68,-460.97 1055.83,-471.18 1062.82,-470.72"/>
</g>
<!-- Node37 -->
<g id="node37" class="node">
<title>Node37</title>
<g id="a_node37"><a xlink:title=" ">
<polygon fill="#e0e0e0" stroke="#999999" points="245.5,-184 180.5,-184 180.5,-165 245.5,-165 245.5,-184"/>
<text text-anchor="middle" x="213" y="-172" font-family="Helvetica,sans-Serif" font-size="10.00">functional</text>
</a>
</g>
</g>
<!-- Node1&#45;&gt;Node37 -->
<g id="edge82" class="edge">
<title>Node1&#45;&gt;Node37</title>
<path fill="none" stroke="#63b8ff" d="M1019.1,-557.95C833.96,-555.14 152,-538.79 152,-450.5 152,-450.5 152,-450.5 152,-283.5 152,-247.62 177.84,-212.7 195.88,-192.68"/>
<polygon fill="#63b8ff" stroke="#63b8ff" points="198.39,-195.13 202.7,-185.45 193.29,-190.33 198.39,-195.13"/>
</g>
<!-- Node39 -->
<g id="node39" class="node">
<title>Node39</title>
<g id="a_node39"><a xlink:title=" ">
<polygon fill="#e0e0e0" stroke="#999999" points="1224.5,-514 1177.5,-514 1177.5,-495 1224.5,-495 1224.5,-514"/>
<text text-anchor="middle" x="1201" y="-502" font-family="Helvetica,sans-Serif" font-size="10.00">deque</text>
</a>
</g>
</g>
<!-- Node1&#45;&gt;Node39 -->
<g id="edge81" class="edge">
<title>Node1&#45;&gt;Node39</title>
<path fill="none" stroke="#63b8ff" d="M1088.07,-549.51C1109.89,-541.01 1142.88,-528.15 1167.58,-518.53"/>
<polygon fill="#63b8ff" stroke="#63b8ff" points="1168.81,-521.8 1176.86,-514.91 1166.27,-515.28 1168.81,-521.8"/>
</g>
<!-- Node3 -->
<g id="node3" class="node">
<title>Node3</title>
<g id="a_node3"><a xlink:title=" ">
<polygon fill="#e0e0e0" stroke="#999999" points="325,-19 271,-19 271,0 325,0 325,-19"/>
<text text-anchor="middle" x="298" y="-7" font-family="Helvetica,sans-Serif" font-size="10.00">random</text>
</a>
</g>
</g>
<!-- Node2&#45;&gt;Node3 -->
<g id="edge2" class="edge">
<title>Node2&#45;&gt;Node3</title>
<path fill="none" stroke="#63b8ff" d="M298,-54.75C298,-48.27 298,-39.16 298,-30.9"/>
<polygon fill="#63b8ff" stroke="#63b8ff" points="301.5,-30.96 298,-20.96 294.5,-30.96 301.5,-30.96"/>
</g>
<!-- Node4 -->
<g id="node4" class="node">
<title>Node4</title>
<g id="a_node4"><a xlink:title=" ">
<polygon fill="#e0e0e0" stroke="#999999" points="627,-19 567,-19 567,0 627,0 627,-19"/>
<text text-anchor="middle" x="597" y="-7" font-family="Helvetica,sans-Serif" font-size="10.00">iostream</text>
</a>
</g>
</g>
<!-- Node2&#45;&gt;Node4 -->
<g id="edge3" class="edge">
<title>Node2&#45;&gt;Node4</title>
<path fill="none" stroke="#63b8ff" d="M331.43,-57.57C386.43,-47.82 495.86,-28.43 555.65,-17.83"/>
<polygon fill="#63b8ff" stroke="#63b8ff" points="556.19,-21.29 565.43,-16.1 554.97,-14.4 556.19,-21.29"/>
</g>
<!-- Node6 -->
<g id="node6" class="node">
<title>Node6</title>
<g id="a_node6"><a xlink:href="SceneNode_8h.html" target="_top" xlink:title=" ">
<polygon fill="white" stroke="#666666" points="968,-239 888,-239 888,-220 968,-220 968,-239"/>
<text text-anchor="middle" x="928" y="-227" font-family="Helvetica,sans-Serif" font-size="10.00">SceneNode.h</text>
</a>
</g>
</g>
<!-- Node5&#45;&gt;Node6 -->
<g id="edge5" class="edge">
<title>Node5&#45;&gt;Node6</title>
<path fill="none" stroke="#63b8ff" d="M1124.08,-277.52C1088.38,-268.96 1021.99,-253.04 976.43,-242.12"/>
<polygon fill="#63b8ff" stroke="#63b8ff" points="977.34,-238.73 966.8,-239.81 975.71,-245.54 977.34,-238.73"/>
</g>
<!-- Node7 -->
<g id="node7" class="node">
<title>Node7</title>
<g id="a_node7"><a xlink:href="Enums_8h.html" target="_top" xlink:title=" ">
<polygon fill="white" stroke="#666666" points="2220.5,-74 2161.5,-74 2161.5,-55 2220.5,-55 2220.5,-74"/>
<text text-anchor="middle" x="2191" y="-62" font-family="Helvetica,sans-Serif" font-size="10.00">Enums.h</text>
</a>
</g>
</g>
<!-- Node5&#45;&gt;Node7 -->
<g id="edge20" class="edge">
<title>Node5&#45;&gt;Node7</title>
<path fill="none" stroke="#63b8ff" d="M1173.88,-283.36C1387.86,-282.13 2910.64,-272.17 2943,-239 2983.03,-197.96 2982.33,-151.72 2943,-110 2918.44,-83.94 2385.36,-69.9 2231.96,-66.39"/>
<polygon fill="#63b8ff" stroke="#63b8ff" points="2232.34,-62.89 2222.27,-66.17 2232.19,-69.89 2232.34,-62.89"/>
</g>
<!-- Node6&#45;&gt;Node4 -->
<g id="edge19" class="edge">
<title>Node6&#45;&gt;Node4</title>
<path fill="none" stroke="#63b8ff" d="M914.61,-219.68C863.99,-186.34 683.83,-67.69 619.8,-25.51"/>
<polygon fill="#63b8ff" stroke="#63b8ff" points="622.09,-22.84 611.82,-20.26 618.24,-28.68 622.09,-22.84"/>
</g>
<!-- Node6&#45;&gt;Node7 -->
<g id="edge6" class="edge">
<title>Node6&#45;&gt;Node7</title>
<path fill="none" stroke="#63b8ff" d="M968.33,-221.58C972.93,-220.96 977.56,-220.42 982,-220 1047.85,-213.85 2122.32,-227.66 2172,-184 2199.7,-159.66 2198.18,-112.34 2194.6,-85.45"/>
<polygon fill="#63b8ff" stroke="#63b8ff" points="2198.11,-85.21 2193.09,-75.87 2191.2,-86.3 2198.11,-85.21"/>
</g>
<!-- Node8 -->
<g id="node8" class="node">
<title>Node8</title>
<g id="a_node8"><a xlink:title=" ">
<polygon fill="#e0e0e0" stroke="#999999" points="626,-74 516,-74 516,-55 626,-55 626,-74"/>
<text text-anchor="middle" x="571" y="-62" font-family="Helvetica,sans-Serif" font-size="10.00">SFML/Graphics.hpp</text>
</a>
</g>
</g>
<!-- Node6&#45;&gt;Node8 -->
<g id="edge7" class="edge">
<title>Node6&#45;&gt;Node8</title>
<path fill="none" stroke="#63b8ff" d="M908.3,-219.5C849.05,-192.45 672.23,-111.72 601.11,-79.25"/>
<polygon fill="#63b8ff" stroke="#63b8ff" points="602.57,-76.07 592.02,-75.1 599.66,-82.43 602.57,-76.07"/>
</g>
<!-- Node9 -->
<g id="node9" class="node">
<title>Node9</title>
<g id="a_node9"><a xlink:title=" ">
<polygon fill="#e0e0e0" stroke="#999999" points="1201.5,-184 1042.5,-184 1042.5,-165 1201.5,-165 1201.5,-184"/>
<text text-anchor="middle" x="1122" y="-172" font-family="Helvetica,sans-Serif" font-size="10.00">SFML/Graphics/Drawable.hpp</text>
</a>
</g>
</g>
<!-- Node6&#45;&gt;Node9 -->
<g id="edge8" class="edge">
<title>Node6&#45;&gt;Node9</title>
<path fill="none" stroke="#63b8ff" d="M960.91,-219.51C993.2,-210.69 1042.63,-197.18 1078.22,-187.46"/>
<polygon fill="#63b8ff" stroke="#63b8ff" points="1079.07,-190.86 1087.79,-184.85 1077.22,-184.1 1079.07,-190.86"/>
</g>
<!-- Node10 -->
<g id="node10" class="node">
<title>Node10</title>
<g id="a_node10"><a xlink:title=" ">
<polygon fill="#e0e0e0" stroke="#999999" points="756,-184 622,-184 622,-165 756,-165 756,-184"/>
<text text-anchor="middle" x="689" y="-172" font-family="Helvetica,sans-Serif" font-size="10.00">SFML/Graphics/Rect.hpp</text>
</a>
</g>
</g>
<!-- Node6&#45;&gt;Node10 -->
<g id="edge9" class="edge">
<title>Node6&#45;&gt;Node10</title>
<path fill="none" stroke="#63b8ff" d="M887.73,-219.57C847.22,-210.59 784.61,-196.7 740.51,-186.92"/>
<polygon fill="#63b8ff" stroke="#63b8ff" points="741.44,-183.54 730.92,-184.8 739.92,-190.38 741.44,-183.54"/>
</g>
<!-- Node11 -->
<g id="node11" class="node">
<title>Node11</title>
<g id="a_node11"><a xlink:title=" ">
<polygon fill="#e0e0e0" stroke="#999999" points="1398,-184 1220,-184 1220,-165 1398,-165 1398,-184"/>
<text text-anchor="middle" x="1309" y="-172" font-family="Helvetica,sans-Serif" font-size="10.00">SFML/Graphics/RenderStates.hpp</text>
</a>
</g>
</g>
<!-- Node6&#45;&gt;Node11 -->
<g id="edge10" class="edge">
<title>Node6&#45;&gt;Node11</title>
<path fill="none" stroke="#63b8ff" d="M968.38,-222.05C972.97,-221.34 977.59,-220.65 982,-220 1066.13,-207.66 1162.62,-194.67 1228.86,-185.93"/>
<polygon fill="#63b8ff" stroke="#63b8ff" points="1229.09,-189.43 1238.54,-184.66 1228.17,-182.49 1229.09,-189.43"/>
</g>
<!-- Node12 -->
<g id="node12" class="node">
<title>Node12</title>
<g id="a_node12"><a xlink:title=" ">
<polygon fill="#e0e0e0" stroke="#999999" points="1593.5,-184 1416.5,-184 1416.5,-165 1593.5,-165 1593.5,-184"/>
<text text-anchor="middle" x="1505" y="-172" font-family="Helvetica,sans-Serif" font-size="10.00">SFML/Graphics/RenderTarget.hpp</text>
</a>
</g>
</g>
<!-- Node6&#45;&gt;Node12 -->
<g id="edge11" class="edge">
<title>Node6&#45;&gt;Node12</title>
<path fill="none" stroke="#63b8ff" d="M968.35,-221.82C972.95,-221.16 977.57,-220.54 982,-220 1166.52,-197.69 1216.2,-200.09 1404.64,-184.19"/>
<polygon fill="#63b8ff" stroke="#63b8ff" points="1404.89,-187.68 1414.56,-183.35 1404.3,-180.71 1404.89,-187.68"/>
</g>
<!-- Node13 -->
<g id="node13" class="node">
<title>Node13</title>
<g id="a_node13"><a xlink:title=" ">
<polygon fill="#e0e0e0" stroke="#999999" points="1772.5,-184 1611.5,-184 1611.5,-165 1772.5,-165 1772.5,-184"/>
<text text-anchor="middle" x="1692" y="-172" font-family="Helvetica,sans-Serif" font-size="10.00">SFML/Graphics/Transform.hpp</text>
</a>
</g>
</g>
<!-- Node6&#45;&gt;Node13 -->
<g id="edge12" class="edge">
<title>Node6&#45;&gt;Node13</title>
<path fill="none" stroke="#63b8ff" d="M968.34,-221.71C972.94,-221.06 977.57,-220.48 982,-220 1253.26,-190.86 1325.45,-204.77 1599.9,-184.21"/>
<polygon fill="#63b8ff" stroke="#63b8ff" points="1599.79,-187.73 1609.5,-183.48 1599.26,-180.75 1599.79,-187.73"/>
</g>
<!-- Node14 -->
<g id="node14" class="node">
<title>Node14</title>
<g id="a_node14"><a xlink:title=" ">
<polygon fill="#e0e0e0" stroke="#999999" points="1973,-184 1791,-184 1791,-165 1973,-165 1973,-184"/>
<text text-anchor="middle" x="1882" y="-172" font-family="Helvetica,sans-Serif" font-size="10.00">SFML/Graphics/Transformable.hpp</text>
</a>
</g>
</g>
<!-- Node6&#45;&gt;Node14 -->
<g id="edge13" class="edge">
<title>Node6&#45;&gt;Node14</title>
<path fill="none" stroke="#63b8ff" d="M968.33,-221.65C972.93,-221.02 977.56,-220.45 982,-220 1332.4,-184.65 1424.9,-206.6 1779.35,-184.14"/>
<polygon fill="#63b8ff" stroke="#63b8ff" points="1779.46,-187.64 1789.22,-183.51 1779.01,-180.65 1779.46,-187.64"/>
</g>
<!-- Node15 -->
<g id="node15" class="node">
<title>Node15</title>
<g id="a_node15"><a xlink:title=" ">
<polygon fill="#e0e0e0" stroke="#999999" points="2163,-184 1991,-184 1991,-165 2163,-165 2163,-184"/>
<text text-anchor="middle" x="2077" y="-172" font-family="Helvetica,sans-Serif" font-size="10.00">SFML/System/NonCopyable.hpp</text>
</a>
</g>
</g>
<!-- Node6&#45;&gt;Node15 -->
<g id="edge14" class="edge">
<title>Node6&#45;&gt;Node15</title>
<path fill="none" stroke="#63b8ff" d="M968.33,-221.61C972.93,-220.99 977.56,-220.43 982,-220 1421.01,-177.7 1536.23,-211.26 1979.35,-184.13"/>
<polygon fill="#63b8ff" stroke="#63b8ff" points="1979.27,-187.64 1989.04,-183.53 1978.84,-180.65 1979.27,-187.64"/>
</g>
<!-- Node16 -->
<g id="node16" class="node">
<title>Node16</title>
<g id="a_node16"><a xlink:title=" ">
<polygon fill="#e0e0e0" stroke="#999999" points="565.5,-184 422.5,-184 422.5,-165 565.5,-165 565.5,-184"/>
<text text-anchor="middle" x="494" y="-172" font-family="Helvetica,sans-Serif" font-size="10.00">SFML/System/Vector2.hpp</text>
</a>
</g>
</g>
<!-- Node6&#45;&gt;Node16 -->
<g id="edge15" class="edge">
<title>Node6&#45;&gt;Node16</title>
<path fill="none" stroke="#63b8ff" d="M887.56,-223.56C817.06,-214.95 670.31,-197.03 577.29,-185.67"/>
<polygon fill="#63b8ff" stroke="#63b8ff" points="577.79,-182.21 567.44,-184.47 576.94,-189.15 577.79,-182.21"/>
</g>
<!-- Node17 -->
<g id="node17" class="node">
<title>Node17</title>
<g id="a_node17"><a xlink:title=" ">
<polygon fill="#e0e0e0" stroke="#999999" points="946,-129 888,-129 888,-110 946,-110 946,-129"/>
<text text-anchor="middle" x="917" y="-117" font-family="Helvetica,sans-Serif" font-size="10.00">memory</text>
</a>
</g>
</g>
<!-- Node6&#45;&gt;Node17 -->
<g id="edge16" class="edge">
<title>Node6&#45;&gt;Node17</title>
<path fill="none" stroke="#63b8ff" d="M925.17,-219.75C922.45,-210.86 918.54,-196.64 917,-184 915.24,-169.54 915.3,-153.1 915.76,-140.56"/>
<polygon fill="#63b8ff" stroke="#63b8ff" points="919.25,-140.84 916.26,-130.68 912.26,-140.49 919.25,-140.84"/>
</g>
<!-- Node18 -->
<g id="node18" class="node">
<title>Node18</title>
<g id="a_node18"><a xlink:title=" ">
<polygon fill="#e0e0e0" stroke="#999999" points="973.5,-184 926.5,-184 926.5,-165 973.5,-165 973.5,-184"/>
<text text-anchor="middle" x="950" y="-172" font-family="Helvetica,sans-Serif" font-size="10.00">vector</text>
</a>
</g>
</g>
<!-- Node6&#45;&gt;Node18 -->
<g id="edge17" class="edge">
<title>Node6&#45;&gt;Node18</title>
<path fill="none" stroke="#63b8ff" d="M931.63,-219.75C934.42,-213.04 938.37,-203.52 941.9,-195.02"/>
<polygon fill="#63b8ff" stroke="#63b8ff" points="945.11,-196.42 945.71,-185.84 938.64,-193.73 945.11,-196.42"/>
</g>
<!-- Node19 -->
<g id="node19" class="node">
<title>Node19</title>
<g id="a_node19"><a xlink:title=" ">
<polygon fill="#e0e0e0" stroke="#999999" points="1024,-184 992,-184 992,-165 1024,-165 1024,-184"/>
<text text-anchor="middle" x="1008" y="-172" font-family="Helvetica,sans-Serif" font-size="10.00">set</text>
</a>
</g>
</g>
<!-- Node6&#45;&gt;Node19 -->
<g id="edge18" class="edge">
<title>Node6&#45;&gt;Node19</title>
<path fill="none" stroke="#63b8ff" d="M941.57,-219.51C953.48,-211.62 971.05,-199.98 985.13,-190.65"/>
<polygon fill="#63b8ff" stroke="#63b8ff" points="986.96,-193.63 993.37,-185.19 983.1,-187.8 986.96,-193.63"/>
</g>
<!-- Node20&#45;&gt;Node6 -->
<g id="edge41" class="edge">
<title>Node20&#45;&gt;Node6</title>
<path fill="none" stroke="#63b8ff" d="M1011.04,-274.51C995.64,-266.35 972.69,-254.19 954.81,-244.71"/>
<polygon fill="#63b8ff" stroke="#63b8ff" points="956.53,-241.66 946.05,-240.07 953.25,-247.84 956.53,-241.66"/>
</g>
<!-- Node20&#45;&gt;Node7 -->
<g id="edge40" class="edge">
<title>Node20&#45;&gt;Node7</title>
<path fill="none" stroke="#63b8ff" d="M1055,-280.33C1072.16,-278.45 1094.85,-276.21 1115,-275 1294.83,-264.23 2559.55,-275.37 2736,-239 2799.86,-225.84 2835.55,-238.06 2872,-184 2945.8,-74.55 2389.85,-65.7 2232,-65.38"/>
<polygon fill="#63b8ff" stroke="#63b8ff" points="2232.43,-61.88 2222.43,-65.37 2232.43,-68.88 2232.43,-61.88"/>
</g>
<!-- Node20&#45;&gt;Node10 -->
<g id="edge42" class="edge">
<title>Node20&#45;&gt;Node10</title>
<path fill="none" stroke="#63b8ff" d="M1001,-275.72C971.09,-267.04 921.47,-252.44 879,-239 825.43,-222.05 763.81,-201.21 725.63,-188.13"/>
<polygon fill="#63b8ff" stroke="#63b8ff" points="727.06,-184.92 716.47,-184.99 724.79,-191.55 727.06,-184.92"/>
</g>
<!-- Node20&#45;&gt;Node16 -->
<g id="edge44" class="edge">
<title>Node20&#45;&gt;Node16</title>
<path fill="none" stroke="#63b8ff" d="M1001.15,-278.07C917.93,-261.24 663.08,-209.7 549.56,-186.74"/>
<polygon fill="#63b8ff" stroke="#63b8ff" points="550.36,-183.33 539.86,-184.78 548.97,-190.19 550.36,-183.33"/>
</g>
<!-- Node21 -->
<g id="node21" class="node">
<title>Node21</title>
<g id="a_node21"><a xlink:href="AnimationMachine_8h.html" target="_top" xlink:title=" ">
<polygon fill="white" stroke="#666666" points="2726.5,-239 2609.5,-239 2609.5,-220 2726.5,-220 2726.5,-239"/>
<text text-anchor="middle" x="2668" y="-227" font-family="Helvetica,sans-Serif" font-size="10.00">AnimationMachine.h</text>
</a>
</g>
</g>
<!-- Node20&#45;&gt;Node21 -->
<g id="edge22" class="edge">
<title>Node20&#45;&gt;Node21</title>
<path fill="none" stroke="#63b8ff" d="M1054.62,-280.42C1071.82,-278.55 1094.7,-276.28 1115,-275 1686.57,-238.93 2378.33,-232.08 2597.73,-230.79"/>
<polygon fill="#63b8ff" stroke="#63b8ff" points="2597.55,-234.3 2607.53,-230.74 2597.52,-227.3 2597.55,-234.3"/>
</g>
<!-- Node24 -->
<g id="node24" class="node">
<title>Node24</title>
<g id="a_node24"><a xlink:title=" ">
<polygon fill="#e0e0e0" stroke="#999999" points="2350.5,-184 2219.5,-184 2219.5,-165 2350.5,-165 2350.5,-184"/>
<text text-anchor="middle" x="2285" y="-172" font-family="Helvetica,sans-Serif" font-size="10.00">SFML/System/Time.hpp</text>
</a>
</g>
</g>
<!-- Node20&#45;&gt;Node24 -->
<g id="edge43" class="edge">
<title>Node20&#45;&gt;Node24</title>
<path fill="none" stroke="#63b8ff" d="M1054.64,-280.8C1071.86,-279.08 1094.75,-276.83 1115,-275 1599.15,-231.14 1721.04,-229.91 2205,-184 2206,-183.9 2207.01,-183.81 2208.03,-183.71"/>
<polygon fill="#63b8ff" stroke="#63b8ff" points="2207.98,-187.23 2217.58,-182.77 2207.29,-180.27 2207.98,-187.23"/>
</g>
<!-- Node21&#45;&gt;Node4 -->
<g id="edge28" class="edge">
<title>Node21&#45;&gt;Node4</title>
<path fill="none" stroke="#63b8ff" d="M2726.9,-223.73C2780.54,-218.03 2854.04,-206.3 2872,-184 2877.3,-177.42 2876.49,-172.15 2872,-165 2777.08,-13.82 2600.68,-79.32 2230,-55 1597.58,-13.51 824.93,-10.55 638.77,-10.46"/>
<polygon fill="#63b8ff" stroke="#63b8ff" points="638.88,-6.96 628.88,-10.46 638.88,-13.96 638.88,-6.96"/>
</g>
<!-- Node21&#45;&gt;Node7 -->
<g id="edge33" class="edge">
<title>Node21&#45;&gt;Node7</title>
<path fill="none" stroke="#63b8ff" d="M2694.22,-219.59C2710.27,-212.62 2729.49,-201.18 2739,-184 2754.93,-155.22 2761.29,-134.18 2739,-110 2704.83,-72.95 2354,-66.74 2232.31,-65.71"/>
<polygon fill="#63b8ff" stroke="#63b8ff" points="2232.47,-62.21 2222.44,-65.63 2232.42,-69.21 2232.47,-62.21"/>
</g>
<!-- Node21&#45;&gt;Node8 -->
<g id="edge23" class="edge">
<title>Node21&#45;&gt;Node8</title>
<path fill="none" stroke="#63b8ff" d="M2671.09,-219.77C2674.05,-210.9 2678.32,-196.69 2680,-184 2684.58,-149.44 2683.25,-128.97 2654,-110 2610.71,-81.93 989.15,-68.54 637.73,-65.97"/>
<polygon fill="#63b8ff" stroke="#63b8ff" points="637.79,-62.47 627.77,-65.89 637.74,-69.47 637.79,-62.47"/>
</g>
<!-- Node22 -->
<g id="node22" class="node">
<title>Node22</title>
<g id="a_node22"><a xlink:title=" ">
<polygon fill="#e0e0e0" stroke="#999999" points="2620.5,-184 2479.5,-184 2479.5,-165 2620.5,-165 2620.5,-184"/>
<text text-anchor="middle" x="2550" y="-172" font-family="Helvetica,sans-Serif" font-size="10.00">SFML/Graphics/Sprite.hpp</text>
</a>
</g>
</g>
<!-- Node21&#45;&gt;Node22 -->
<g id="edge24" class="edge">
<title>Node21&#45;&gt;Node22</title>
<path fill="none" stroke="#63b8ff" d="M2647.98,-219.51C2629.39,-211.16 2601.46,-198.61 2580.17,-189.05"/>
<polygon fill="#63b8ff" stroke="#63b8ff" points="2581.66,-185.88 2571.1,-184.98 2578.79,-192.27 2581.66,-185.88"/>
</g>
<!-- Node23 -->
<g id="node23" class="node">
<title>Node23</title>
<g id="a_node23"><a xlink:title=" ">
<polygon fill="#e0e0e0" stroke="#999999" points="2644.5,-129 2495.5,-129 2495.5,-110 2644.5,-110 2644.5,-129"/>
<text text-anchor="middle" x="2570" y="-117" font-family="Helvetica,sans-Serif" font-size="10.00">SFML/Graphics/Texture.hpp</text>
</a>
</g>
</g>
<!-- Node21&#45;&gt;Node23 -->
<g id="edge25" class="edge">
<title>Node21&#45;&gt;Node23</title>
<path fill="none" stroke="#63b8ff" d="M2669.84,-219.81C2672.11,-206.69 2674.39,-181.59 2663,-165 2652.78,-150.11 2636.17,-140.04 2619.79,-133.31"/>
<polygon fill="#63b8ff" stroke="#63b8ff" points="2621.15,-130.08 2610.55,-129.88 2618.71,-136.65 2621.15,-130.08"/>
</g>
<!-- Node21&#45;&gt;Node24 -->
<g id="edge26" class="edge">
<title>Node21&#45;&gt;Node24</title>
<path fill="none" stroke="#63b8ff" d="M2609.41,-220.39C2542.98,-211.2 2434.43,-196.18 2361.39,-186.07"/>
<polygon fill="#63b8ff" stroke="#63b8ff" points="2361.87,-182.6 2351.49,-184.7 2360.91,-189.54 2361.87,-182.6"/>
</g>
<!-- Node25 -->
<g id="node25" class="node">
<title>Node25</title>
<g id="a_node25"><a xlink:title=" ">
<polygon fill="#e0e0e0" stroke="#999999" points="2863,-184 2791,-184 2791,-165 2863,-165 2863,-184"/>
<text text-anchor="middle" x="2827" y="-172" font-family="Helvetica,sans-Serif" font-size="10.00">sys/types.h</text>
</a>
</g>
</g>
<!-- Node21&#45;&gt;Node25 -->
<g id="edge27" class="edge">
<title>Node21&#45;&gt;Node25</title>
<path fill="none" stroke="#63b8ff" d="M2694.97,-219.51C2720.98,-210.84 2760.55,-197.65 2789.6,-187.97"/>
<polygon fill="#63b8ff" stroke="#63b8ff" points="2790.35,-191.41 2798.73,-184.92 2788.13,-184.77 2790.35,-191.41"/>
</g>
<!-- Node26 -->
<g id="node26" class="node">
<title>Node26</title>
<g id="a_node26"><a xlink:href="Consts_8h.html" target="_top" xlink:title=" ">
<polygon fill="white" stroke="#666666" points="327.5,-129 268.5,-129 268.5,-110 327.5,-110 327.5,-129"/>
<text text-anchor="middle" x="298" y="-117" font-family="Helvetica,sans-Serif" font-size="10.00">Consts.h</text>
</a>
</g>
</g>
<!-- Node21&#45;&gt;Node26 -->
<g id="edge29" class="edge">
<title>Node21&#45;&gt;Node26</title>
<path fill="none" stroke="#63b8ff" d="M2665.67,-219.54C2661.37,-205.07 2650.67,-176.98 2630,-165 2617.09,-157.52 648.75,-126.05 338.86,-121.15"/>
<polygon fill="#63b8ff" stroke="#63b8ff" points="339.3,-117.65 329.25,-120.99 339.19,-124.65 339.3,-117.65"/>
</g>
<!-- Node27 -->
<g id="node27" class="node">
<title>Node27</title>
<g id="a_node27"><a xlink:href="TextureHolder_8h.html" target="_top" xlink:title=" ">
<polygon fill="white" stroke="#666666" points="2461.5,-184 2368.5,-184 2368.5,-165 2461.5,-165 2461.5,-184"/>
<text text-anchor="middle" x="2415" y="-172" font-family="Helvetica,sans-Serif" font-size="10.00">TextureHolder.h</text>
</a>
</g>
</g>
<!-- Node21&#45;&gt;Node27 -->
<g id="edge34" class="edge">
<title>Node21&#45;&gt;Node27</title>
<path fill="none" stroke="#63b8ff" d="M2625.08,-219.51C2581.97,-210.48 2515.42,-196.54 2468.81,-186.77"/>
<polygon fill="#63b8ff" stroke="#63b8ff" points="2469.69,-183.38 2459.19,-184.76 2468.26,-190.23 2469.69,-183.38"/>
</g>
<!-- Node26&#45;&gt;Node2 -->
<g id="edge32" class="edge">
<title>Node26&#45;&gt;Node2</title>
<path fill="none" stroke="#63b8ff" d="M298,-109.75C298,-103.27 298,-94.16 298,-85.9"/>
<polygon fill="#63b8ff" stroke="#63b8ff" points="301.5,-85.96 298,-75.96 294.5,-85.96 301.5,-85.96"/>
</g>
<!-- Node26&#45;&gt;Node7 -->
<g id="edge31" class="edge">
<title>Node26&#45;&gt;Node7</title>
<path fill="none" stroke="#63b8ff" d="M327.72,-112.06C332.48,-111.23 337.36,-110.5 342,-110 709.71,-70.34 1912.84,-66.02 2150.14,-65.56"/>
<polygon fill="#63b8ff" stroke="#63b8ff" points="2149.82,-69.06 2159.81,-65.54 2149.8,-62.06 2149.82,-69.06"/>
</g>
<!-- Node26&#45;&gt;Node8 -->
<g id="edge30" class="edge">
<title>Node26&#45;&gt;Node8</title>
<path fill="none" stroke="#63b8ff" d="M328,-112.68C372.57,-104.02 457.12,-87.61 513.78,-76.61"/>
<polygon fill="#63b8ff" stroke="#63b8ff" points="514.43,-80.05 523.58,-74.71 513.1,-73.18 514.43,-80.05"/>
</g>
<!-- Node27&#45;&gt;Node7 -->
<g id="edge38" class="edge">
<title>Node27&#45;&gt;Node7</title>
<path fill="none" stroke="#63b8ff" d="M2415.02,-164.67C2414.55,-150.9 2411.54,-124.38 2396,-110 2372.58,-88.32 2285.16,-75.47 2232.34,-69.52"/>
<polygon fill="#63b8ff" stroke="#63b8ff" points="2232.81,-66.05 2222.49,-68.45 2232.06,-73.01 2232.81,-66.05"/>
</g>
<!-- Node27&#45;&gt;Node17 -->
<g id="edge35" class="edge">
<title>Node27&#45;&gt;Node17</title>
<path fill="none" stroke="#63b8ff" d="M2368.24,-165.87C2365.46,-165.54 2362.69,-165.25 2360,-165 2076.91,-138.86 1162.4,-124.1 957.84,-121.08"/>
<polygon fill="#63b8ff" stroke="#63b8ff" points="958.04,-117.59 947.99,-120.94 957.93,-124.58 958.04,-117.59"/>
</g>
<!-- Node27&#45;&gt;Node23 -->
<g id="edge37" class="edge">
<title>Node27&#45;&gt;Node23</title>
<path fill="none" stroke="#63b8ff" d="M2441.29,-164.51C2466.53,-155.88 2504.89,-142.76 2533.16,-133.1"/>
<polygon fill="#63b8ff" stroke="#63b8ff" points="2534.07,-136.48 2542.4,-129.94 2531.81,-129.86 2534.07,-136.48"/>
</g>
<!-- Node27&#45;&gt;Node26 -->
<g id="edge39" class="edge">
<title>Node27&#45;&gt;Node26</title>
<path fill="none" stroke="#63b8ff" d="M2368.24,-165.85C2365.46,-165.52 2362.7,-165.24 2360,-165 2151.97,-146.76 610.81,-124.81 338.92,-121.06"/>
<polygon fill="#63b8ff" stroke="#63b8ff" points="339.2,-117.56 329.16,-120.92 339.11,-124.56 339.2,-117.56"/>
</g>
<!-- Node28 -->
<g id="node28" class="node">
<title>Node28</title>
<g id="a_node28"><a xlink:title=" ">
<polygon fill="#e0e0e0" stroke="#999999" points="2387,-129 2349,-129 2349,-110 2387,-110 2387,-129"/>
<text text-anchor="middle" x="2368" y="-117" font-family="Helvetica,sans-Serif" font-size="10.00">map</text>
</a>
</g>
</g>
<!-- Node27&#45;&gt;Node28 -->
<g id="edge36" class="edge">
<title>Node27&#45;&gt;Node28</title>
<path fill="none" stroke="#63b8ff" d="M2407.24,-164.75C2400.81,-157.5 2391.49,-146.98 2383.54,-138.02"/>
<polygon fill="#63b8ff" stroke="#63b8ff" points="2386.19,-135.73 2376.93,-130.57 2380.95,-140.38 2386.19,-135.73"/>
</g>
<!-- Node29&#45;&gt;Node20 -->
<g id="edge46" class="edge">
<title>Node29&#45;&gt;Node20</title>
<path fill="none" stroke="#63b8ff" d="M996.33,-494.68C1001.2,-462.57 1018.03,-351.33 1024.97,-305.49"/>
<polygon fill="#63b8ff" stroke="#63b8ff" points="1028.42,-306.09 1026.46,-295.68 1021.5,-305.05 1028.42,-306.09"/>
</g>
<!-- Node29&#45;&gt;Node30 -->
<g id="edge47" class="edge">
<title>Node29&#45;&gt;Node30</title>
<path fill="none" stroke="#63b8ff" d="M1005.69,-494.51C1014.7,-486.93 1027.83,-475.88 1038.68,-466.75"/>
<polygon fill="#63b8ff" stroke="#63b8ff" points="1040.91,-469.45 1046.31,-460.33 1036.41,-464.09 1040.91,-469.45"/>
</g>
<!-- Node31 -->
<g id="node31" class="node">
<title>Node31</title>
<g id="a_node31"><a xlink:href="Obstacle_8h.html" target="_top" xlink:title=" ">
<polygon fill="white" stroke="#666666" points="878,-459 810,-459 810,-440 878,-440 878,-459"/>
<text text-anchor="middle" x="844" y="-447" font-family="Helvetica,sans-Serif" font-size="10.00">Obstacle.h</text>
</a>
</g>
</g>
<!-- Node29&#45;&gt;Node31 -->
<g id="edge49" class="edge">
<title>Node29&#45;&gt;Node31</title>
<path fill="none" stroke="#63b8ff" d="M969.38,-494.51C944.91,-485.92 907.76,-472.88 880.25,-463.22"/>
<polygon fill="#63b8ff" stroke="#63b8ff" points="881.51,-459.96 870.92,-459.95 879.19,-466.56 881.51,-459.96"/>
</g>
<!-- Node32 -->
<g id="node32" class="node">
<title>Node32</title>
<g id="a_node32"><a xlink:href="PlayerState_8h.html" target="_top" xlink:title=" ">
<polygon fill="white" stroke="#666666" points="434,-404 352,-404 352,-385 434,-385 434,-404"/>
<text text-anchor="middle" x="393" y="-392" font-family="Helvetica,sans-Serif" font-size="10.00">PlayerState.h</text>
</a>
</g>
</g>
<!-- Node29&#45;&gt;Node32 -->
<g id="edge79" class="edge">
<title>Node29&#45;&gt;Node32</title>
<path fill="none" stroke="#63b8ff" d="M953.15,-495.99C846.19,-476.8 562.99,-426 445.37,-404.89"/>
<polygon fill="#63b8ff" stroke="#63b8ff" points="446.13,-401.48 435.67,-403.15 444.89,-408.37 446.13,-401.48"/>
</g>
<!-- Node30&#45;&gt;Node20 -->
<g id="edge48" class="edge">
<title>Node30&#45;&gt;Node20</title>
<path fill="none" stroke="#63b8ff" d="M1057.34,-439.79C1055.72,-420.06 1051.04,-370.52 1042,-330 1040.15,-321.7 1037.46,-312.72 1034.93,-305.02"/>
<polygon fill="#63b8ff" stroke="#63b8ff" points="1038.28,-304 1031.73,-295.68 1031.66,-306.27 1038.28,-304"/>
</g>
<!-- Node31&#45;&gt;Node6 -->
<g id="edge52" class="edge">
<title>Node31&#45;&gt;Node6</title>
<path fill="none" stroke="#63b8ff" d="M846.75,-439.7C854.85,-413.97 879.77,-336.84 906,-275 909.62,-266.47 914.08,-257.26 918.03,-249.44"/>
<polygon fill="#63b8ff" stroke="#63b8ff" points="921.13,-251.06 922.62,-240.57 914.92,-247.85 921.13,-251.06"/>
</g>
<!-- Node31&#45;&gt;Node7 -->
<g id="edge51" class="edge">
<title>Node31&#45;&gt;Node7</title>
<path fill="none" stroke="#63b8ff" d="M840.94,-439.66C834.9,-421.39 822,-378 822,-340.5 822,-340.5 822,-340.5 822,-228.5 822,-170.06 830.06,-141.94 879,-110 933.44,-74.47 1933.22,-66.92 2149.83,-65.7"/>
<polygon fill="#63b8ff" stroke="#63b8ff" points="2149.77,-69.2 2159.75,-65.65 2149.73,-62.2 2149.77,-69.2"/>
</g>
<!-- Node31&#45;&gt;Node10 -->
<g id="edge77" class="edge">
<title>Node31&#45;&gt;Node10</title>
<path fill="none" stroke="#63b8ff" d="M833.84,-439.5C815.56,-422.26 779,-382.52 779,-340.5 779,-340.5 779,-340.5 779,-283.5 779,-242.6 740.43,-208.96 713.79,-190.61"/>
<polygon fill="#63b8ff" stroke="#63b8ff" points="715.81,-187.75 705.53,-185.17 711.96,-193.6 715.81,-187.75"/>
</g>
<!-- Node31&#45;&gt;Node20 -->
<g id="edge53" class="edge">
<title>Node31&#45;&gt;Node20</title>
<path fill="none" stroke="#63b8ff" d="M878.23,-442.98C904.79,-437.19 941.15,-425.76 966,-404 996.76,-377.06 1014.54,-331.11 1022.64,-305.05"/>
<polygon fill="#63b8ff" stroke="#63b8ff" points="1025.91,-306.35 1025.35,-295.77 1019.19,-304.39 1025.91,-306.35"/>
</g>
<!-- Node31&#45;&gt;Node22 -->
<g id="edge78" class="edge">
<title>Node31&#45;&gt;Node22</title>
<path fill="none" stroke="#63b8ff" d="M855.81,-439.63C866.8,-431.11 883.35,-417.55 896,-404 944.79,-351.77 929.15,-309.03 992,-275 1133.96,-198.14 2261.62,-197.85 2468.15,-184.1"/>
<polygon fill="#63b8ff" stroke="#63b8ff" points="2468.16,-187.61 2477.87,-183.37 2467.64,-180.63 2468.16,-187.61"/>
</g>
<!-- Node31&#45;&gt;Node26 -->
<g id="edge50" class="edge">
<title>Node31&#45;&gt;Node26</title>
<path fill="none" stroke="#63b8ff" d="M809.75,-445.93C760,-441.44 665.35,-430.03 589,-404 390.3,-336.24 279.5,-363.72 171,-184 149.38,-148.18 212.25,-131.95 257.08,-125.07"/>
<polygon fill="#63b8ff" stroke="#63b8ff" points="257.4,-128.56 266.81,-123.69 256.42,-121.63 257.4,-128.56"/>
</g>
<!-- Node31&#45;&gt;Node27 -->
<g id="edge54" class="edge">
<title>Node31&#45;&gt;Node27</title>
<path fill="none" stroke="#63b8ff" d="M850.59,-439.78C857.21,-430.91 867.61,-416.7 876,-404 912.92,-348.09 905.29,-321 954,-275 992.02,-239.1 1007.43,-233.29 1058,-220 1194.89,-184.02 2171.56,-196.49 2356.96,-184.02"/>
<polygon fill="#63b8ff" stroke="#63b8ff" points="2357.03,-187.52 2366.73,-183.25 2356.49,-180.54 2357.03,-187.52"/>
</g>
<!-- Node31&#45;&gt;Node32 -->
<g id="edge55" class="edge">
<title>Node31&#45;&gt;Node32</title>
<path fill="none" stroke="#63b8ff" d="M809.66,-444.61C742.61,-437 589.6,-419.51 461,-404 456.02,-403.4 450.83,-402.76 445.63,-402.13"/>
<polygon fill="#63b8ff" stroke="#63b8ff" points="446.2,-398.67 435.85,-400.91 445.34,-405.62 446.2,-398.67"/>
</g>
<!-- Node38 -->
<g id="node38" class="node">
<title>Node38</title>
<g id="a_node38"><a xlink:href="PlayerCollidable_8h.html" target="_top" xlink:title=" ">
<polygon fill="white" stroke="#666666" points="703.5,-404 598.5,-404 598.5,-385 703.5,-385 703.5,-404"/>
<text text-anchor="middle" x="651" y="-392" font-family="Helvetica,sans-Serif" font-size="10.00">PlayerCollidable.h</text>
</a>
</g>
</g>
<!-- Node31&#45;&gt;Node38 -->
<g id="edge75" class="edge">
<title>Node31&#45;&gt;Node38</title>
<path fill="none" stroke="#63b8ff" d="M811.26,-439.51C779.14,-430.69 729.96,-417.18 694.55,-407.46"/>
<polygon fill="#63b8ff" stroke="#63b8ff" points="695.61,-404.12 685.04,-404.85 693.75,-410.87 695.61,-404.12"/>
</g>
<!-- Node32&#45;&gt;Node4 -->
<g id="edge74" class="edge">
<title>Node32&#45;&gt;Node4</title>
<path fill="none" stroke="#63b8ff" d="M351.68,-390.93C250.78,-383.53 0,-357.85 0,-285.5 0,-285.5 0,-285.5 0,-118.5 0,-61.95 420.07,-24.28 555.48,-13.61"/>
<polygon fill="#63b8ff" stroke="#63b8ff" points="555.37,-17.12 565.06,-12.86 554.82,-10.15 555.37,-17.12"/>
</g>
<!-- Node32&#45;&gt;Node8 -->
<g id="edge71" class="edge">
<title>Node32&#45;&gt;Node8</title>
<path fill="none" stroke="#63b8ff" d="M351.56,-388.24C265.63,-376.19 76,-343.06 76,-285.5 76,-285.5 76,-285.5 76,-173.5 76,-86.86 369.15,-69.61 504.26,-66.26"/>
<polygon fill="#63b8ff" stroke="#63b8ff" points="504.23,-69.76 514.14,-66.03 504.07,-62.76 504.23,-69.76"/>
</g>
<!-- Node32&#45;&gt;Node10 -->
<g id="edge72" class="edge">
<title>Node32&#45;&gt;Node10</title>
<path fill="none" stroke="#63b8ff" d="M400.47,-384.66C418.37,-363.82 465.8,-310.64 513,-275 560.72,-238.96 622.88,-206.82 659.12,-189.35"/>
<polygon fill="#63b8ff" stroke="#63b8ff" points="660.6,-192.52 668.12,-185.06 657.59,-186.2 660.6,-192.52"/>
</g>
<!-- Node32&#45;&gt;Node16 -->
<g id="edge73" class="edge">
<title>Node32&#45;&gt;Node16</title>
<path fill="none" stroke="#63b8ff" d="M396.3,-384.76C403.85,-364.98 423.16,-315.34 442,-275 455.37,-246.37 472.65,-214.11 483.54,-194.29"/>
<polygon fill="#63b8ff" stroke="#63b8ff" points="486.49,-196.19 488.26,-185.74 480.36,-192.8 486.49,-196.19"/>
</g>
<!-- Node32&#45;&gt;Node26 -->
<g id="edge56" class="edge">
<title>Node32&#45;&gt;Node26</title>
<path fill="none" stroke="#63b8ff" d="M372.65,-384.51C321.52,-360.65 188.19,-290.19 138,-184 115.16,-135.67 202.35,-123.88 256.96,-121.16"/>
<polygon fill="#63b8ff" stroke="#63b8ff" points="257.04,-124.66 266.89,-120.76 256.76,-117.66 257.04,-124.66"/>
</g>
<!-- Node33 -->
<g id="node33" class="node">
<title>Node33</title>
<g id="a_node33"><a xlink:href="Player_8h.html" target="_top" xlink:title=" ">
<polygon fill="white" stroke="#666666" points="632,-349 576,-349 576,-330 632,-330 632,-349"/>
<text text-anchor="middle" x="604" y="-337" font-family="Helvetica,sans-Serif" font-size="10.00">Player.h</text>
</a>
</g>
</g>
<!-- Node32&#45;&gt;Node33 -->
<g id="edge57" class="edge">
<title>Node32&#45;&gt;Node33</title>
<path fill="none" stroke="#63b8ff" d="M428.79,-384.51C466.49,-375.04 525.67,-360.17 564.65,-350.38"/>
<polygon fill="#63b8ff" stroke="#63b8ff" points="565.5,-353.78 574.34,-347.95 563.79,-346.99 565.5,-353.78"/>
</g>
<!-- Node33&#45;&gt;Node6 -->
<g id="edge61" class="edge">
<title>Node33&#45;&gt;Node6</title>
<path fill="none" stroke="#63b8ff" d="M630.79,-329.57C688.41,-310.36 824.22,-265.09 890.42,-243.03"/>
<polygon fill="#63b8ff" stroke="#63b8ff" points="891.36,-246.4 899.74,-239.92 889.15,-239.76 891.36,-246.4"/>
</g>
<!-- Node33&#45;&gt;Node7 -->
<g id="edge60" class="edge">
<title>Node33&#45;&gt;Node7</title>
<path fill="none" stroke="#63b8ff" d="M601.19,-329.63C592.94,-301.68 571.84,-214.33 613,-165 681.17,-83.31 740.53,-124.05 846,-110 1107.28,-75.19 1952.88,-67.17 2149.76,-65.76"/>
<polygon fill="#63b8ff" stroke="#63b8ff" points="2149.52,-69.26 2159.49,-65.69 2149.47,-62.26 2149.52,-69.26"/>
</g>
<!-- Node33&#45;&gt;Node10 -->
<g id="edge69" class="edge">
<title>Node33&#45;&gt;Node10</title>
<path fill="none" stroke="#63b8ff" d="M608.57,-329.74C621.89,-304.2 660.88,-229.43 679.23,-194.23"/>
<polygon fill="#63b8ff" stroke="#63b8ff" points="682.19,-196.13 683.71,-185.65 675.98,-192.9 682.19,-196.13"/>
</g>
<!-- Node33&#45;&gt;Node16 -->
<g id="edge70" class="edge">
<title>Node33&#45;&gt;Node16</title>
<path fill="none" stroke="#63b8ff" d="M575.64,-332.09C554.98,-325.89 528.07,-314.35 513,-294 491.56,-265.06 490.41,-221.17 491.93,-195.72"/>
<polygon fill="#63b8ff" stroke="#63b8ff" points="495.41,-196.03 492.74,-185.77 488.44,-195.45 495.41,-196.03"/>
</g>
<!-- Node33&#45;&gt;Node20 -->
<g id="edge59" class="edge">
<title>Node33&#45;&gt;Node20</title>
<path fill="none" stroke="#63b8ff" d="M632.48,-334.94C706.62,-325.67 905.67,-300.79 989.72,-290.29"/>
<polygon fill="#63b8ff" stroke="#63b8ff" points="990.03,-293.77 999.52,-289.06 989.16,-286.83 990.03,-293.77"/>
</g>
<!-- Node34 -->
<g id="node34" class="node">
<title>Node34</title>
<g id="a_node34"><a xlink:href="Effect_8h.html" target="_top" xlink:title=" ">
<polygon fill="white" stroke="#666666" points="575.5,-294 522.5,-294 522.5,-275 575.5,-275 575.5,-294"/>
<text text-anchor="middle" x="549" y="-282" font-family="Helvetica,sans-Serif" font-size="10.00">Effect.h</text>
</a>
</g>
</g>
<!-- Node33&#45;&gt;Node34 -->
<g id="edge58" class="edge">
<title>Node33&#45;&gt;Node34</title>
<path fill="none" stroke="#63b8ff" d="M594.92,-329.75C587.16,-322.27 575.79,-311.32 566.3,-302.17"/>
<polygon fill="#63b8ff" stroke="#63b8ff" points="569,-299.91 559.37,-295.49 564.14,-304.95 569,-299.91"/>
</g>
<!-- Node35 -->
<g id="node35" class="node">
<title>Node35</title>
<g id="a_node35"><a xlink:href="Effects_8h.html" target="_top" xlink:title=" ">
<polygon fill="white" stroke="#666666" points="368.5,-239 309.5,-239 309.5,-220 368.5,-220 368.5,-239"/>
<text text-anchor="middle" x="339" y="-227" font-family="Helvetica,sans-Serif" font-size="10.00">Effects.h</text>
</a>
</g>
</g>
<!-- Node33&#45;&gt;Node35 -->
<g id="edge62" class="edge">
<title>Node33&#45;&gt;Node35</title>
<path fill="none" stroke="#63b8ff" d="M577.16,-329.55C551.89,-320.96 513.08,-307.36 480,-294 440.66,-278.11 396.16,-257.64 367.86,-244.3"/>
<polygon fill="#63b8ff" stroke="#63b8ff" points="369.4,-241.16 358.87,-240.04 366.41,-247.49 369.4,-241.16"/>
</g>
<!-- Node35&#45;&gt;Node7 -->
<g id="edge64" class="edge">
<title>Node35&#45;&gt;Node7</title>
<path fill="none" stroke="#63b8ff" d="M342.29,-219.65C347.87,-205.84 360.53,-179.28 380,-165 454.33,-110.47 488.82,-123.59 580,-110 896.06,-62.88 1930.7,-64.42 2149.95,-65.3"/>
<polygon fill="#63b8ff" stroke="#63b8ff" points="2149.68,-68.8 2159.7,-65.34 2149.71,-61.8 2149.68,-68.8"/>
</g>
<!-- Node35&#45;&gt;Node16 -->
<g id="edge67" class="edge">
<title>Node35&#45;&gt;Node16</title>
<path fill="none" stroke="#63b8ff" d="M365.29,-219.51C390.53,-210.88 428.89,-197.76 457.16,-188.1"/>
<polygon fill="#63b8ff" stroke="#63b8ff" points="458.07,-191.48 466.4,-184.94 455.81,-184.86 458.07,-191.48"/>
</g>
<!-- Node35&#45;&gt;Node17 -->
<g id="edge66" class="edge">
<title>Node35&#45;&gt;Node17</title>
<path fill="none" stroke="#63b8ff" d="M346.06,-219.59C358.07,-205.21 383.98,-177.22 413,-165 496.41,-129.87 772.08,-122.46 876.46,-120.91"/>
<polygon fill="#63b8ff" stroke="#63b8ff" points="876.28,-124.41 886.23,-120.78 876.19,-117.41 876.28,-124.41"/>
</g>
<!-- Node35&#45;&gt;Node24 -->
<g id="edge68" class="edge">
<title>Node35&#45;&gt;Node24</title>
<path fill="none" stroke="#63b8ff" d="M368.71,-227.99C575.27,-224.38 1799.82,-202.5 2172,-184 2183.54,-183.43 2195.73,-182.67 2207.67,-181.84"/>
<polygon fill="#63b8ff" stroke="#63b8ff" points="2207.77,-185.34 2217.5,-181.14 2207.28,-178.36 2207.77,-185.34"/>
</g>
<!-- Node36 -->
<g id="node36" class="node">
<title>Node36</title>
<g id="a_node36"><a xlink:title=" ">
<polygon fill="#e0e0e0" stroke="#999999" points="328,-184 264,-184 264,-165 328,-165 328,-184"/>
<text text-anchor="middle" x="296" y="-172" font-family="Helvetica,sans-Serif" font-size="10.00">algorithm</text>
</a>
</g>
</g>
<!-- Node35&#45;&gt;Node36 -->
<g id="edge63" class="edge">
<title>Node35&#45;&gt;Node36</title>
<path fill="none" stroke="#63b8ff" d="M331.9,-219.75C326.08,-212.58 317.67,-202.2 310.44,-193.3"/>
<polygon fill="#63b8ff" stroke="#63b8ff" points="313.23,-191.18 304.21,-185.62 307.79,-195.59 313.23,-191.18"/>
</g>
<!-- Node35&#45;&gt;Node37 -->
<g id="edge65" class="edge">
<title>Node35&#45;&gt;Node37</title>
<path fill="none" stroke="#63b8ff" d="M317.63,-219.51C297.59,-211.08 267.4,-198.38 244.59,-188.79"/>
<polygon fill="#63b8ff" stroke="#63b8ff" points="246.03,-185.6 235.45,-184.94 243.31,-192.05 246.03,-185.6"/>
</g>
<!-- Node38&#45;&gt;Node33 -->
<g id="edge76" class="edge">
<title>Node38&#45;&gt;Node33</title>
<path fill="none" stroke="#63b8ff" d="M643.24,-384.75C636.81,-377.5 627.49,-366.98 619.54,-358.02"/>
<polygon fill="#63b8ff" stroke="#63b8ff" points="622.19,-355.73 612.93,-350.57 616.95,-360.38 622.19,-355.73"/>
</g>
</g>
</svg>
        <g id="navigator" transform="translate(0 0)" fill="#404254">
                <rect fill="#f2f5e9" fill-opacity="0.5" stroke="#606060" stroke-width=".5" x="0" y="0" width="60" height="60"/>
                <use id="zoomplus" xlink:href="#zoomPlus" x="17" y="9" onmousedown="handleZoom(evt,'in')"/>
                <use id="zoomminus" xlink:href="#zoomMin" x="42" y="9" onmousedown="handleZoom(evt,'out')"/>
                <use id="reset" xlink:href="#resetDef" x="30" y="36" onmousedown="handleReset()"/>
                <g id="arrowUp" xlink:href="#dirArrow" transform="translate(30 24)" onmousedown="handlePan(0,-1)">
                  <use xlink:href="#rim" fill="#404040">
                        <set attributeName="fill" to="#808080" begin="arrowUp.mouseover" end="arrowUp.mouseout"/>
                  </use>
                  <path fill="none" stroke="white" stroke-width="1.5" d="M0,-3.0v7 M-2.5,-0.5L0,-3.0L2.5,-0.5"/>
                </g>
                <g id="arrowRight" xlink:href="#dirArrow" transform="rotate(90) translate(36 -43)" onmousedown="handlePan(1,0)">
                  <use xlink:href="#rim" fill="#404040">
                        <set attributeName="fill" to="#808080" begin="arrowRight.mouseover" end="arrowRight.mouseout"/>
                  </use>
                  <path fill="none" stroke="white" stroke-width="1.5" d="M0,-3.0v7 M-2.5,-0.5L0,-3.0L2.5,-0.5"/>
                </g>
                <g id="arrowDown" xlink:href="#dirArrow" transform="rotate(180) translate(-30 -48)" onmousedown="handlePan(0,1)">
                  <use xlink:href="#rim" fill="#404040">
                        <set attributeName="fill" to="#808080" begin="arrowDown.mouseover" end="arrowDown.mouseout"/>
                  </use>
                  <path fill="none" stroke="white" stroke-width="1.5" d="M0,-3.0v7 M-2.5,-0.5L0,-3.0L2.5,-0.5"/>
                </g>
                <g id="arrowLeft" xlink:href="#dirArrow" transform="rotate(270) translate(-36 17)" onmousedown="handlePan(-1,0)">
                  <use xlink:href="#rim" fill="#404040">
                        <set attributeName="fill" to="#808080" begin="arrowLeft.mouseover" end="arrowLeft.mouseout"/>
                  </use>
                  <path fill="none" stroke="white" stroke-width="1.5" d="M0,-3.0v7 M-2.5,-0.5L0,-3.0L2.5,-0.5"/>
                </g>
        </g>
        <svg viewBox="0 0 15 15" width="100%" height="30px" preserveAspectRatio="xMaxYMin meet">
         <g id="arrow_out" transform="scale(0.3 0.3)">
          <a xlink:href="RoadLane_8h__incl_org.svg" target="_base">
           <rect id="button" ry="5" rx="5" y="6" x="6" height="38" width="38"
                fill="#f2f5e9" fill-opacity="0.5" stroke="#606060" stroke-width="1.0"/>
           <path id="arrow"
             d="M 11.500037,31.436501 C 11.940474,20.09759 22.043105,11.32322 32.158766,21.979434 L 37.068811,17.246167 C 37.068811,17.246167 37.088388,32 37.088388,32 L 22.160133,31.978069 C 22.160133,31.978069 26.997745,27.140456 26.997745,27.140456 C 18.528582,18.264221 13.291696,25.230495 11.500037,31.436501 z"
             style="fill:#404040;"/>
          </a>
         </g>
        </svg>
</svg>
