<?xml version="1.0" encoding="UTF-8" standalone="no"?>
<!DOCTYPE svg PUBLIC "-//W3C//DTD SVG 1.1//EN"
 "http://www.w3.org/Graphics/SVG/1.1/DTD/svg11.dtd">
<!-- Generated by graphviz version 7.0.5 (0)
 -->
<!-- Title: src/SceneNode.cpp Pages: 1 -->
<svg width="1918pt" height="137pt"
 viewBox="0.00 0.00 1917.50 137.00" xmlns="http://www.w3.org/2000/svg" xmlns:xlink="http://www.w3.org/1999/xlink">
<g id="graph0" class="graph" transform="scale(1 1) rotate(0) translate(4 133)">
<title>src/SceneNode.cpp</title>
<!-- Node1 -->
<g id="node1" class="node">
<title>Node1</title>
<g id="a_node1"><a xlink:title=" ">
<polygon fill="#999999" stroke="#666666" points="1176.5,-129 1067.5,-129 1067.5,-110 1176.5,-110 1176.5,-129"/>
<text text-anchor="middle" x="1122" y="-117" font-family="Helvetica,sans-Serif" font-size="10.00">src/SceneNode.cpp</text>
</a>
</g>
</g>
<!-- Node2 -->
<g id="node2" class="node">
<title>Node2</title>
<g id="a_node2"><a xlink:href="SceneNode_8h.html" target="_top" xlink:title=" ">
<polygon fill="white" stroke="#666666" points="1128,-74 1048,-74 1048,-55 1128,-55 1128,-74"/>
<text text-anchor="middle" x="1088" y="-62" font-family="Helvetica,sans-Serif" font-size="10.00">SceneNode.h</text>
</a>
</g>
</g>
<!-- Node1&#45;&gt;Node2 -->
<g id="edge1" class="edge">
<title>Node1&#45;&gt;Node2</title>
<path fill="none" stroke="#63b8ff" d="M1116.39,-109.75C1111.88,-102.73 1105.41,-92.64 1099.79,-83.87"/>
<polygon fill="#63b8ff" stroke="#63b8ff" points="1102.9,-82.24 1094.55,-75.72 1097.01,-86.02 1102.9,-82.24"/>
</g>
<!-- Node6 -->
<g id="node6" class="node">
<title>Node6</title>
<g id="a_node6"><a xlink:title=" ">
<polygon fill="#e0e0e0" stroke="#999999" points="134,-19 0,-19 0,0 134,0 134,-19"/>
<text text-anchor="middle" x="67" y="-7" font-family="Helvetica,sans-Serif" font-size="10.00">SFML/Graphics/Rect.hpp</text>
</a>
</g>
</g>
<!-- Node1&#45;&gt;Node6 -->
<g id="edge16" class="edge">
<title>Node1&#45;&gt;Node6</title>
<path fill="none" stroke="#63b8ff" d="M1067.21,-114.77C969.17,-107.92 757.3,-92.35 579,-74 424.14,-58.06 243.56,-34.49 143.56,-21.01"/>
<polygon fill="#63b8ff" stroke="#63b8ff" points="144.25,-17.57 133.87,-19.69 143.31,-24.5 144.25,-17.57"/>
</g>
<!-- Node7 -->
<g id="node7" class="node">
<title>Node7</title>
<g id="a_node7"><a xlink:title=" ">
<polygon fill="#e0e0e0" stroke="#999999" points="330,-19 152,-19 152,0 330,0 330,-19"/>
<text text-anchor="middle" x="241" y="-7" font-family="Helvetica,sans-Serif" font-size="10.00">SFML/Graphics/RenderStates.hpp</text>
</a>
</g>
</g>
<!-- Node1&#45;&gt;Node7 -->
<g id="edge17" class="edge">
<title>Node1&#45;&gt;Node7</title>
<path fill="none" stroke="#63b8ff" d="M1067.25,-112.54C991.6,-104.24 850.87,-88.59 731,-74 585.2,-56.26 415.24,-33.84 318.65,-20.94"/>
<polygon fill="#63b8ff" stroke="#63b8ff" points="319.41,-17.51 309.03,-19.66 318.48,-24.45 319.41,-17.51"/>
</g>
<!-- Node9 -->
<g id="node9" class="node">
<title>Node9</title>
<g id="a_node9"><a xlink:title=" ">
<polygon fill="#e0e0e0" stroke="#999999" points="509.5,-19 348.5,-19 348.5,0 509.5,0 509.5,-19"/>
<text text-anchor="middle" x="429" y="-7" font-family="Helvetica,sans-Serif" font-size="10.00">SFML/Graphics/Transform.hpp</text>
</a>
</g>
</g>
<!-- Node1&#45;&gt;Node9 -->
<g id="edge18" class="edge">
<title>Node1&#45;&gt;Node9</title>
<path fill="none" stroke="#63b8ff" d="M1067.04,-109.94C941.71,-90.4 635,-42.6 497.57,-21.19"/>
<polygon fill="#63b8ff" stroke="#63b8ff" points="498.3,-17.76 487.88,-19.68 497.22,-24.67 498.3,-17.76"/>
</g>
<!-- Node12 -->
<g id="node12" class="node">
<title>Node12</title>
<g id="a_node12"><a xlink:title=" ">
<polygon fill="#e0e0e0" stroke="#999999" points="1909.5,-19 1766.5,-19 1766.5,0 1909.5,0 1909.5,-19"/>
<text text-anchor="middle" x="1838" y="-7" font-family="Helvetica,sans-Serif" font-size="10.00">SFML/System/Vector2.hpp</text>
</a>
</g>
</g>
<!-- Node1&#45;&gt;Node12 -->
<g id="edge20" class="edge">
<title>Node1&#45;&gt;Node12</title>
<path fill="none" stroke="#63b8ff" d="M1126.51,-109.56C1134.33,-95.11 1151.93,-67.05 1176,-55 1288.63,1.36 1610.5,-28.09 1754.71,-19.04"/>
<polygon fill="#63b8ff" stroke="#63b8ff" points="1754.8,-22.54 1764.52,-18.32 1754.29,-15.56 1754.8,-22.54"/>
</g>
<!-- Node17 -->
<g id="node17" class="node">
<title>Node17</title>
<g id="a_node17"><a xlink:title=" ">
<polygon fill="#e0e0e0" stroke="#999999" points="1315.5,-74 1184.5,-74 1184.5,-55 1315.5,-55 1315.5,-74"/>
<text text-anchor="middle" x="1250" y="-62" font-family="Helvetica,sans-Serif" font-size="10.00">SFML/System/Time.hpp</text>
</a>
</g>
</g>
<!-- Node1&#45;&gt;Node17 -->
<g id="edge19" class="edge">
<title>Node1&#45;&gt;Node17</title>
<path fill="none" stroke="#63b8ff" d="M1143.71,-109.51C1164.16,-101.04 1195.02,-88.27 1218.23,-78.66"/>
<polygon fill="#63b8ff" stroke="#63b8ff" points="1219.31,-82 1227.21,-74.94 1216.63,-75.53 1219.31,-82"/>
</g>
<!-- Node18 -->
<g id="node18" class="node">
<title>Node18</title>
<g id="a_node18"><a xlink:title=" ">
<polygon fill="#e0e0e0" stroke="#999999" points="1398,-74 1334,-74 1334,-55 1398,-55 1398,-74"/>
<text text-anchor="middle" x="1366" y="-62" font-family="Helvetica,sans-Serif" font-size="10.00">algorithm</text>
</a>
</g>
</g>
<!-- Node1&#45;&gt;Node18 -->
<g id="edge21" class="edge">
<title>Node1&#45;&gt;Node18</title>
<path fill="none" stroke="#63b8ff" d="M1163.39,-109.51C1207.67,-99.89 1277.59,-84.7 1322.62,-74.92"/>
<polygon fill="#63b8ff" stroke="#63b8ff" points="1323.27,-78.36 1332.3,-72.82 1321.78,-71.52 1323.27,-78.36"/>
</g>
<!-- Node19 -->
<g id="node19" class="node">
<title>Node19</title>
<g id="a_node19"><a xlink:title=" ">
<polygon fill="#e0e0e0" stroke="#999999" points="1468,-74 1416,-74 1416,-55 1468,-55 1468,-74"/>
<text text-anchor="middle" x="1442" y="-62" font-family="Helvetica,sans-Serif" font-size="10.00">cassert</text>
</a>
</g>
</g>
<!-- Node1&#45;&gt;Node19 -->
<g id="edge22" class="edge">
<title>Node1&#45;&gt;Node19</title>
<path fill="none" stroke="#63b8ff" d="M1176.88,-111.32C1232.02,-103.79 1319.69,-90.98 1404.54,-74.35"/>
<polygon fill="#63b8ff" stroke="#63b8ff" points="1405.07,-77.81 1414.19,-72.44 1403.7,-70.95 1405.07,-77.81"/>
</g>
<!-- Node3 -->
<g id="node3" class="node">
<title>Node3</title>
<g id="a_node3"><a xlink:href="Enums_8h.html" target="_top" xlink:title=" ">
<polygon fill="white" stroke="#666666" points="1619.5,-19 1560.5,-19 1560.5,0 1619.5,0 1619.5,-19"/>
<text text-anchor="middle" x="1590" y="-7" font-family="Helvetica,sans-Serif" font-size="10.00">Enums.h</text>
</a>
</g>
</g>
<!-- Node2&#45;&gt;Node3 -->
<g id="edge2" class="edge">
<title>Node2&#45;&gt;Node3</title>
<path fill="none" stroke="#63b8ff" d="M1128.36,-56.84C1132.95,-56.17 1137.57,-55.54 1142,-55 1319.5,-33.24 1368.65,-45.95 1549.04,-19.08"/>
<polygon fill="#63b8ff" stroke="#63b8ff" points="1549.4,-22.57 1558.77,-17.61 1548.35,-15.65 1549.4,-22.57"/>
</g>
<!-- Node4 -->
<g id="node4" class="node">
<title>Node4</title>
<g id="a_node4"><a xlink:title=" ">
<polygon fill="#e0e0e0" stroke="#999999" points="1748,-19 1638,-19 1638,0 1748,0 1748,-19"/>
<text text-anchor="middle" x="1693" y="-7" font-family="Helvetica,sans-Serif" font-size="10.00">SFML/Graphics.hpp</text>
</a>
</g>
</g>
<!-- Node2&#45;&gt;Node4 -->
<g id="edge3" class="edge">
<title>Node2&#45;&gt;Node4</title>
<path fill="none" stroke="#63b8ff" d="M1128.35,-56.78C1132.94,-56.12 1137.57,-55.51 1142,-55 1353.92,-30.53 1411.17,-40.92 1626.16,-19.23"/>
<polygon fill="#63b8ff" stroke="#63b8ff" points="1626.42,-22.72 1636.01,-18.22 1625.71,-15.76 1626.42,-22.72"/>
</g>
<!-- Node5 -->
<g id="node5" class="node">
<title>Node5</title>
<g id="a_node5"><a xlink:title=" ">
<polygon fill="#e0e0e0" stroke="#999999" points="686.5,-19 527.5,-19 527.5,0 686.5,0 686.5,-19"/>
<text text-anchor="middle" x="607" y="-7" font-family="Helvetica,sans-Serif" font-size="10.00">SFML/Graphics/Drawable.hpp</text>
</a>
</g>
</g>
<!-- Node2&#45;&gt;Node5 -->
<g id="edge4" class="edge">
<title>Node2&#45;&gt;Node5</title>
<path fill="none" stroke="#63b8ff" d="M1047.82,-59.07C971.35,-50.65 803.18,-32.12 698.07,-20.54"/>
<polygon fill="#63b8ff" stroke="#63b8ff" points="698.67,-17.08 688.35,-19.46 697.9,-24.04 698.67,-17.08"/>
</g>
<!-- Node2&#45;&gt;Node6 -->
<g id="edge5" class="edge">
<title>Node2&#45;&gt;Node6</title>
<path fill="none" stroke="#63b8ff" d="M1047.87,-62.53C918.7,-59.23 501.85,-47.04 145.44,-19.14"/>
<polygon fill="#63b8ff" stroke="#63b8ff" points="145.87,-15.66 135.62,-18.36 145.32,-22.64 145.87,-15.66"/>
</g>
<!-- Node2&#45;&gt;Node7 -->
<g id="edge6" class="edge">
<title>Node2&#45;&gt;Node7</title>
<path fill="none" stroke="#63b8ff" d="M1047.78,-61.5C937.11,-55.9 618.43,-39.23 341.93,-19.19"/>
<polygon fill="#63b8ff" stroke="#63b8ff" points="342.19,-15.7 331.96,-18.47 341.68,-22.69 342.19,-15.7"/>
</g>
<!-- Node8 -->
<g id="node8" class="node">
<title>Node8</title>
<g id="a_node8"><a xlink:title=" ">
<polygon fill="#e0e0e0" stroke="#999999" points="881.5,-19 704.5,-19 704.5,0 881.5,0 881.5,-19"/>
<text text-anchor="middle" x="793" y="-7" font-family="Helvetica,sans-Serif" font-size="10.00">SFML/Graphics/RenderTarget.hpp</text>
</a>
</g>
</g>
<!-- Node2&#45;&gt;Node8 -->
<g id="edge7" class="edge">
<title>Node2&#45;&gt;Node8</title>
<path fill="none" stroke="#63b8ff" d="M1047.6,-56.24C997.67,-47.27 912.22,-31.92 854.22,-21.5"/>
<polygon fill="#63b8ff" stroke="#63b8ff" points="854.96,-18.07 844.49,-19.75 853.72,-24.96 854.96,-18.07"/>
</g>
<!-- Node2&#45;&gt;Node9 -->
<g id="edge8" class="edge">
<title>Node2&#45;&gt;Node9</title>
<path fill="none" stroke="#63b8ff" d="M1047.55,-60.58C955.89,-53.92 725.06,-36.86 520.77,-19.23"/>
<polygon fill="#63b8ff" stroke="#63b8ff" points="521.3,-15.76 511.03,-18.38 520.69,-22.73 521.3,-15.76"/>
</g>
<!-- Node10 -->
<g id="node10" class="node">
<title>Node10</title>
<g id="a_node10"><a xlink:title=" ">
<polygon fill="#e0e0e0" stroke="#999999" points="1082,-19 900,-19 900,0 1082,0 1082,-19"/>
<text text-anchor="middle" x="991" y="-7" font-family="Helvetica,sans-Serif" font-size="10.00">SFML/Graphics/Transformable.hpp</text>
</a>
</g>
</g>
<!-- Node2&#45;&gt;Node10 -->
<g id="edge9" class="edge">
<title>Node2&#45;&gt;Node10</title>
<path fill="none" stroke="#63b8ff" d="M1071.55,-54.51C1056.68,-46.39 1034.56,-34.3 1017.25,-24.85"/>
<polygon fill="#63b8ff" stroke="#63b8ff" points="1018.99,-21.81 1008.54,-20.08 1015.64,-27.95 1018.99,-21.81"/>
</g>
<!-- Node11 -->
<g id="node11" class="node">
<title>Node11</title>
<g id="a_node11"><a xlink:title=" ">
<polygon fill="#e0e0e0" stroke="#999999" points="1272,-19 1100,-19 1100,0 1272,0 1272,-19"/>
<text text-anchor="middle" x="1186" y="-7" font-family="Helvetica,sans-Serif" font-size="10.00">SFML/System/NonCopyable.hpp</text>
</a>
</g>
</g>
<!-- Node2&#45;&gt;Node11 -->
<g id="edge10" class="edge">
<title>Node2&#45;&gt;Node11</title>
<path fill="none" stroke="#63b8ff" d="M1104.62,-54.51C1119.78,-46.31 1142.42,-34.07 1159.97,-24.58"/>
<polygon fill="#63b8ff" stroke="#63b8ff" points="1161.16,-27.91 1168.29,-20.08 1157.83,-21.76 1161.16,-27.91"/>
</g>
<!-- Node2&#45;&gt;Node12 -->
<g id="edge11" class="edge">
<title>Node2&#45;&gt;Node12</title>
<path fill="none" stroke="#63b8ff" d="M1128.34,-56.71C1132.94,-56.07 1137.57,-55.48 1142,-55 1410.5,-26.08 1482.16,-40.87 1754.58,-19.15"/>
<polygon fill="#63b8ff" stroke="#63b8ff" points="1754.83,-22.64 1764.52,-18.35 1754.27,-15.67 1754.83,-22.64"/>
</g>
<!-- Node13 -->
<g id="node13" class="node">
<title>Node13</title>
<g id="a_node13"><a xlink:title=" ">
<polygon fill="#e0e0e0" stroke="#999999" points="1348,-19 1290,-19 1290,0 1348,0 1348,-19"/>
<text text-anchor="middle" x="1319" y="-7" font-family="Helvetica,sans-Serif" font-size="10.00">memory</text>
</a>
</g>
</g>
<!-- Node2&#45;&gt;Node13 -->
<g id="edge12" class="edge">
<title>Node2&#45;&gt;Node13</title>
<path fill="none" stroke="#63b8ff" d="M1127.19,-54.51C1169.28,-44.85 1235.85,-29.58 1278.46,-19.8"/>
<polygon fill="#63b8ff" stroke="#63b8ff" points="1279.1,-23.25 1288.07,-17.6 1277.54,-16.42 1279.1,-23.25"/>
</g>
<!-- Node14 -->
<g id="node14" class="node">
<title>Node14</title>
<g id="a_node14"><a xlink:title=" ">
<polygon fill="#e0e0e0" stroke="#999999" points="1413.5,-19 1366.5,-19 1366.5,0 1413.5,0 1413.5,-19"/>
<text text-anchor="middle" x="1390" y="-7" font-family="Helvetica,sans-Serif" font-size="10.00">vector</text>
</a>
</g>
</g>
<!-- Node2&#45;&gt;Node14 -->
<g id="edge13" class="edge">
<title>Node2&#45;&gt;Node14</title>
<path fill="none" stroke="#63b8ff" d="M1128.31,-57.03C1191.46,-46.88 1310.41,-27.62 1355.12,-19.11"/>
<polygon fill="#63b8ff" stroke="#63b8ff" points="1355.66,-22.57 1364.78,-17.18 1354.29,-15.71 1355.66,-22.57"/>
</g>
<!-- Node15 -->
<g id="node15" class="node">
<title>Node15</title>
<g id="a_node15"><a xlink:title=" ">
<polygon fill="#e0e0e0" stroke="#999999" points="1464,-19 1432,-19 1432,0 1464,0 1464,-19"/>
<text text-anchor="middle" x="1448" y="-7" font-family="Helvetica,sans-Serif" font-size="10.00">set</text>
</a>
</g>
</g>
<!-- Node2&#45;&gt;Node15 -->
<g id="edge14" class="edge">
<title>Node2&#45;&gt;Node15</title>
<path fill="none" stroke="#63b8ff" d="M1128.38,-57.01C1132.97,-56.32 1137.58,-55.63 1142,-55 1263.12,-37.71 1298.36,-46.85 1420.8,-19.08"/>
<polygon fill="#63b8ff" stroke="#63b8ff" points="1421.3,-22.56 1430.25,-16.9 1419.72,-15.73 1421.3,-22.56"/>
</g>
<!-- Node16 -->
<g id="node16" class="node">
<title>Node16</title>
<g id="a_node16"><a xlink:title=" ">
<polygon fill="#e0e0e0" stroke="#999999" points="1542,-19 1482,-19 1482,0 1542,0 1542,-19"/>
<text text-anchor="middle" x="1512" y="-7" font-family="Helvetica,sans-Serif" font-size="10.00">iostream</text>
</a>
</g>
</g>
<!-- Node2&#45;&gt;Node16 -->
<g id="edge15" class="edge">
<title>Node2&#45;&gt;Node16</title>
<path fill="none" stroke="#63b8ff" d="M1128.37,-56.93C1132.96,-56.25 1137.58,-55.59 1142,-55 1285.11,-35.97 1325.01,-42.45 1470.69,-19.21"/>
<polygon fill="#63b8ff" stroke="#63b8ff" points="1471.02,-22.7 1480.33,-17.65 1469.9,-15.79 1471.02,-22.7"/>
</g>
</g>
</svg>
