<?xml version="1.0" encoding="UTF-8" standalone="no"?>
<!DOCTYPE svg PUBLIC "-//W3C//DTD SVG 1.1//EN"
 "http://www.w3.org/Graphics/SVG/1.1/DTD/svg11.dtd">
<!-- Generated by graphviz version 7.0.5 (0)
 -->
<!-- Title: src/SceneNode.h Pages: 1 -->
<svg width="1919pt" height="82pt"
 viewBox="0.00 0.00 1918.50 82.00" xmlns="http://www.w3.org/2000/svg" xmlns:xlink="http://www.w3.org/1999/xlink">
<g id="graph0" class="graph" transform="scale(1 1) rotate(0) translate(4 78)">
<title>src/SceneNode.h</title>
<!-- Node1 -->
<g id="node1" class="node">
<title>Node1</title>
<g id="a_node1"><a xlink:title=" ">
<polygon fill="#999999" stroke="#666666" points="1151.5,-74 1053.5,-74 1053.5,-55 1151.5,-55 1151.5,-74"/>
<text text-anchor="middle" x="1102.5" y="-62" font-family="Helvetica,sans-Serif" font-size="10.00">src/SceneNode.h</text>
</a>
</g>
</g>
<!-- Node2 -->
<g id="node2" class="node">
<title>Node2</title>
<g id="a_node2"><a xlink:href="Enums_8h.html" target="_top" xlink:title=" ">
<polygon fill="white" stroke="#666666" points="59,-19 0,-19 0,0 59,0 59,-19"/>
<text text-anchor="middle" x="29.5" y="-7" font-family="Helvetica,sans-Serif" font-size="10.00">Enums.h</text>
</a>
</g>
</g>
<!-- Node1&#45;&gt;Node2 -->
<g id="edge1" class="edge">
<title>Node1&#45;&gt;Node2</title>
<path fill="none" stroke="#63b8ff" d="M1053.14,-62.5C877.8,-58.77 284.48,-44.65 70.63,-18.96"/>
<polygon fill="#63b8ff" stroke="#63b8ff" points="71.08,-15.49 60.72,-17.72 70.21,-22.43 71.08,-15.49"/>
</g>
<!-- Node3 -->
<g id="node3" class="node">
<title>Node3</title>
<g id="a_node3"><a xlink:title=" ">
<polygon fill="#e0e0e0" stroke="#999999" points="187.5,-19 77.5,-19 77.5,0 187.5,0 187.5,-19"/>
<text text-anchor="middle" x="132.5" y="-7" font-family="Helvetica,sans-Serif" font-size="10.00">SFML/Graphics.hpp</text>
</a>
</g>
</g>
<!-- Node1&#45;&gt;Node3 -->
<g id="edge2" class="edge">
<title>Node1&#45;&gt;Node3</title>
<path fill="none" stroke="#63b8ff" d="M1053.3,-62.52C918.47,-59.52 531.54,-48.87 199.27,-19.17"/>
<polygon fill="#63b8ff" stroke="#63b8ff" points="199.75,-15.7 189.48,-18.29 199.12,-22.67 199.75,-15.7"/>
</g>
<!-- Node4 -->
<g id="node4" class="node">
<title>Node4</title>
<g id="a_node4"><a xlink:title=" ">
<polygon fill="#e0e0e0" stroke="#999999" points="365,-19 206,-19 206,0 365,0 365,-19"/>
<text text-anchor="middle" x="285.5" y="-7" font-family="Helvetica,sans-Serif" font-size="10.00">SFML/Graphics/Drawable.hpp</text>
</a>
</g>
</g>
<!-- Node1&#45;&gt;Node4 -->
<g id="edge3" class="edge">
<title>Node1&#45;&gt;Node4</title>
<path fill="none" stroke="#63b8ff" d="M1053.03,-61.06C937.01,-55.21 638.13,-39.42 376.32,-19.11"/>
<polygon fill="#63b8ff" stroke="#63b8ff" points="376.82,-15.64 366.57,-18.35 376.27,-22.62 376.82,-15.64"/>
</g>
<!-- Node5 -->
<g id="node5" class="node">
<title>Node5</title>
<g id="a_node5"><a xlink:title=" ">
<polygon fill="#e0e0e0" stroke="#999999" points="517.5,-19 383.5,-19 383.5,0 517.5,0 517.5,-19"/>
<text text-anchor="middle" x="450.5" y="-7" font-family="Helvetica,sans-Serif" font-size="10.00">SFML/Graphics/Rect.hpp</text>
</a>
</g>
</g>
<!-- Node1&#45;&gt;Node5 -->
<g id="edge4" class="edge">
<title>Node1&#45;&gt;Node5</title>
<path fill="none" stroke="#63b8ff" d="M1053.14,-60.26C955.35,-53.71 729.79,-38 528.99,-19.2"/>
<polygon fill="#63b8ff" stroke="#63b8ff" points="529.41,-15.73 519.13,-18.28 528.76,-22.7 529.41,-15.73"/>
</g>
<!-- Node6 -->
<g id="node6" class="node">
<title>Node6</title>
<g id="a_node6"><a xlink:title=" ">
<polygon fill="#e0e0e0" stroke="#999999" points="713.5,-19 535.5,-19 535.5,0 713.5,0 713.5,-19"/>
<text text-anchor="middle" x="624.5" y="-7" font-family="Helvetica,sans-Serif" font-size="10.00">SFML/Graphics/RenderStates.hpp</text>
</a>
</g>
</g>
<!-- Node1&#45;&gt;Node6 -->
<g id="edge5" class="edge">
<title>Node1&#45;&gt;Node6</title>
<path fill="none" stroke="#63b8ff" d="M1053.15,-58.03C973.91,-49.24 817.04,-31.85 716.64,-20.72"/>
<polygon fill="#63b8ff" stroke="#63b8ff" points="717.12,-17.25 706.8,-19.63 716.35,-24.21 717.12,-17.25"/>
</g>
<!-- Node7 -->
<g id="node7" class="node">
<title>Node7</title>
<g id="a_node7"><a xlink:title=" ">
<polygon fill="#e0e0e0" stroke="#999999" points="909,-19 732,-19 732,0 909,0 909,-19"/>
<text text-anchor="middle" x="820.5" y="-7" font-family="Helvetica,sans-Serif" font-size="10.00">SFML/Graphics/RenderTarget.hpp</text>
</a>
</g>
</g>
<!-- Node1&#45;&gt;Node7 -->
<g id="edge6" class="edge">
<title>Node1&#45;&gt;Node7</title>
<path fill="none" stroke="#63b8ff" d="M1054.66,-54.51C1006.2,-45.4 931.17,-31.3 879.16,-21.52"/>
<polygon fill="#63b8ff" stroke="#63b8ff" points="880.06,-18.13 869.59,-19.73 878.77,-25.01 880.06,-18.13"/>
</g>
<!-- Node8 -->
<g id="node8" class="node">
<title>Node8</title>
<g id="a_node8"><a xlink:title=" ">
<polygon fill="#e0e0e0" stroke="#999999" points="1088,-19 927,-19 927,0 1088,0 1088,-19"/>
<text text-anchor="middle" x="1007.5" y="-7" font-family="Helvetica,sans-Serif" font-size="10.00">SFML/Graphics/Transform.hpp</text>
</a>
</g>
</g>
<!-- Node1&#45;&gt;Node8 -->
<g id="edge7" class="edge">
<title>Node1&#45;&gt;Node8</title>
<path fill="none" stroke="#63b8ff" d="M1086.38,-54.51C1071.83,-46.39 1050.16,-34.3 1033.21,-24.85"/>
<polygon fill="#63b8ff" stroke="#63b8ff" points="1035.14,-21.91 1024.7,-20.1 1031.73,-28.02 1035.14,-21.91"/>
</g>
<!-- Node9 -->
<g id="node9" class="node">
<title>Node9</title>
<g id="a_node9"><a xlink:title=" ">
<polygon fill="#e0e0e0" stroke="#999999" points="1288.5,-19 1106.5,-19 1106.5,0 1288.5,0 1288.5,-19"/>
<text text-anchor="middle" x="1197.5" y="-7" font-family="Helvetica,sans-Serif" font-size="10.00">SFML/Graphics/Transformable.hpp</text>
</a>
</g>
</g>
<!-- Node1&#45;&gt;Node9 -->
<g id="edge8" class="edge">
<title>Node1&#45;&gt;Node9</title>
<path fill="none" stroke="#63b8ff" d="M1118.62,-54.51C1133.17,-46.39 1154.84,-34.3 1171.79,-24.85"/>
<polygon fill="#63b8ff" stroke="#63b8ff" points="1173.27,-28.02 1180.3,-20.1 1169.86,-21.91 1173.27,-28.02"/>
</g>
<!-- Node10 -->
<g id="node10" class="node">
<title>Node10</title>
<g id="a_node10"><a xlink:title=" ">
<polygon fill="#e0e0e0" stroke="#999999" points="1478.5,-19 1306.5,-19 1306.5,0 1478.5,0 1478.5,-19"/>
<text text-anchor="middle" x="1392.5" y="-7" font-family="Helvetica,sans-Serif" font-size="10.00">SFML/System/NonCopyable.hpp</text>
</a>
</g>
</g>
<!-- Node1&#45;&gt;Node10 -->
<g id="edge9" class="edge">
<title>Node1&#45;&gt;Node10</title>
<path fill="none" stroke="#63b8ff" d="M1151.69,-54.51C1201.63,-45.38 1279.01,-31.24 1332.51,-21.46"/>
<polygon fill="#63b8ff" stroke="#63b8ff" points="1332.85,-24.96 1342.06,-19.72 1331.59,-18.07 1332.85,-24.96"/>
</g>
<!-- Node11 -->
<g id="node11" class="node">
<title>Node11</title>
<g id="a_node11"><a xlink:title=" ">
<polygon fill="#e0e0e0" stroke="#999999" points="1640,-19 1497,-19 1497,0 1640,0 1640,-19"/>
<text text-anchor="middle" x="1568.5" y="-7" font-family="Helvetica,sans-Serif" font-size="10.00">SFML/System/Vector2.hpp</text>
</a>
</g>
</g>
<!-- Node1&#45;&gt;Node11 -->
<g id="edge10" class="edge">
<title>Node1&#45;&gt;Node11</title>
<path fill="none" stroke="#63b8ff" d="M1151.93,-57.88C1231.47,-48.83 1388.73,-30.95 1485.63,-19.92"/>
<polygon fill="#63b8ff" stroke="#63b8ff" points="1485.81,-23.43 1495.35,-18.82 1485.02,-16.47 1485.81,-23.43"/>
</g>
<!-- Node12 -->
<g id="node12" class="node">
<title>Node12</title>
<g id="a_node12"><a xlink:title=" ">
<polygon fill="#e0e0e0" stroke="#999999" points="1716.5,-19 1658.5,-19 1658.5,0 1716.5,0 1716.5,-19"/>
<text text-anchor="middle" x="1687.5" y="-7" font-family="Helvetica,sans-Serif" font-size="10.00">memory</text>
</a>
</g>
</g>
<!-- Node1&#45;&gt;Node12 -->
<g id="edge11" class="edge">
<title>Node1&#45;&gt;Node12</title>
<path fill="none" stroke="#63b8ff" d="M1151.8,-61.78C1246.1,-58.01 1458.71,-47.1 1646.9,-19.18"/>
<polygon fill="#63b8ff" stroke="#63b8ff" points="1647.25,-22.67 1656.62,-17.72 1646.21,-15.75 1647.25,-22.67"/>
</g>
<!-- Node13 -->
<g id="node13" class="node">
<title>Node13</title>
<g id="a_node13"><a xlink:title=" ">
<polygon fill="#e0e0e0" stroke="#999999" points="1782,-19 1735,-19 1735,0 1782,0 1782,-19"/>
<text text-anchor="middle" x="1758.5" y="-7" font-family="Helvetica,sans-Serif" font-size="10.00">vector</text>
</a>
</g>
</g>
<!-- Node1&#45;&gt;Node13 -->
<g id="edge12" class="edge">
<title>Node1&#45;&gt;Node13</title>
<path fill="none" stroke="#63b8ff" d="M1151.72,-63C1255.64,-61.29 1505.15,-53.79 1723.46,-18.99"/>
<polygon fill="#63b8ff" stroke="#63b8ff" points="1724.01,-22.44 1733.32,-17.39 1722.89,-15.53 1724.01,-22.44"/>
</g>
<!-- Node14 -->
<g id="node14" class="node">
<title>Node14</title>
<g id="a_node14"><a xlink:title=" ">
<polygon fill="#e0e0e0" stroke="#999999" points="1832.5,-19 1800.5,-19 1800.5,0 1832.5,0 1832.5,-19"/>
<text text-anchor="middle" x="1816.5" y="-7" font-family="Helvetica,sans-Serif" font-size="10.00">set</text>
</a>
</g>
</g>
<!-- Node1&#45;&gt;Node14 -->
<g id="edge13" class="edge">
<title>Node1&#45;&gt;Node14</title>
<path fill="none" stroke="#63b8ff" d="M1151.71,-62C1284.47,-57.71 1648.88,-44.12 1789.35,-18.79"/>
<polygon fill="#63b8ff" stroke="#63b8ff" points="1789.61,-22.31 1798.78,-16.99 1788.3,-15.43 1789.61,-22.31"/>
</g>
<!-- Node15 -->
<g id="node15" class="node">
<title>Node15</title>
<g id="a_node15"><a xlink:title=" ">
<polygon fill="#e0e0e0" stroke="#999999" points="1910.5,-19 1850.5,-19 1850.5,0 1910.5,0 1910.5,-19"/>
<text text-anchor="middle" x="1880.5" y="-7" font-family="Helvetica,sans-Serif" font-size="10.00">iostream</text>
</a>
</g>
</g>
<!-- Node1&#45;&gt;Node15 -->
<g id="edge14" class="edge">
<title>Node1&#45;&gt;Node15</title>
<path fill="none" stroke="#63b8ff" d="M1151.61,-63.16C1268.89,-61.78 1574.54,-54.88 1838.98,-19.11"/>
<polygon fill="#63b8ff" stroke="#63b8ff" points="1839.42,-22.59 1848.85,-17.76 1838.47,-15.65 1839.42,-22.59"/>
</g>
</g>
</svg>
