<?xml version="1.0" encoding="UTF-8" standalone="no"?>
<!DOCTYPE svg PUBLIC "-//W3C//DTD SVG 1.1//EN"
 "http://www.w3.org/Graphics/SVG/1.1/DTD/svg11.dtd">
<!-- Generated by graphviz version 7.0.5 (0)
 -->
<!-- Title: src/SceneBuilder.h Pages: 1 -->
<svg width="3239pt" height="632pt"
 viewBox="0.00 0.00 3239.00 632.00" xmlns="http://www.w3.org/2000/svg" xmlns:xlink="http://www.w3.org/1999/xlink">
<g id="graph0" class="graph" transform="scale(1 1) rotate(0) translate(4 628)">
<title>src/SceneBuilder.h</title>
<!-- Node1 -->
<g id="node1" class="node">
<title>Node1</title>
<g id="a_node1"><a xlink:title=" ">
<polygon fill="#999999" stroke="#666666" points="355,-624 249,-624 249,-605 355,-605 355,-624"/>
<text text-anchor="middle" x="302" y="-612" font-family="Helvetica,sans-Serif" font-size="10.00">src/SceneBuilder.h</text>
</a>
</g>
</g>
<!-- Node2 -->
<g id="node2" class="node">
<title>Node2</title>
<g id="a_node2"><a xlink:title=" ">
<polygon fill="#e0e0e0" stroke="#999999" points="529,-74 419,-74 419,-55 529,-55 529,-74"/>
<text text-anchor="middle" x="474" y="-62" font-family="Helvetica,sans-Serif" font-size="10.00">SFML/Graphics.hpp</text>
</a>
</g>
</g>
<!-- Node1&#45;&gt;Node2 -->
<g id="edge1" class="edge">
<title>Node1&#45;&gt;Node2</title>
<path fill="none" stroke="#63b8ff" d="M289.79,-604.62C268.31,-587.86 226,-549.29 226,-505.5 226,-505.5 226,-505.5 226,-173.5 226,-94.27 333.73,-72.56 407.18,-66.97"/>
<polygon fill="#63b8ff" stroke="#63b8ff" points="407.4,-70.46 417.14,-66.31 406.93,-63.48 407.4,-70.46"/>
</g>
<!-- Node3 -->
<g id="node3" class="node">
<title>Node3</title>
<g id="a_node3"><a xlink:title=" ">
<polygon fill="#e0e0e0" stroke="#999999" points="587.5,-184 444.5,-184 444.5,-165 587.5,-165 587.5,-184"/>
<text text-anchor="middle" x="516" y="-172" font-family="Helvetica,sans-Serif" font-size="10.00">SFML/System/Vector2.hpp</text>
</a>
</g>
</g>
<!-- Node1&#45;&gt;Node3 -->
<g id="edge2" class="edge">
<title>Node1&#45;&gt;Node3</title>
<path fill="none" stroke="#63b8ff" d="M302,-604.54C302,-586.03 302,-542.25 302,-505.5 302,-505.5 302,-505.5 302,-338.5 302,-254.35 408.01,-207.91 470.81,-187.78"/>
<polygon fill="#63b8ff" stroke="#63b8ff" points="471.65,-191.18 480.17,-184.88 469.58,-184.49 471.65,-191.18"/>
</g>
<!-- Node4 -->
<g id="node4" class="node">
<title>Node4</title>
<g id="a_node4"><a xlink:title=" ">
<polygon fill="#e0e0e0" stroke="#999999" points="294,-19 234,-19 234,0 294,0 294,-19"/>
<text text-anchor="middle" x="264" y="-7" font-family="Helvetica,sans-Serif" font-size="10.00">iostream</text>
</a>
</g>
</g>
<!-- Node1&#45;&gt;Node4 -->
<g id="edge3" class="edge">
<title>Node1&#45;&gt;Node4</title>
<path fill="none" stroke="#63b8ff" d="M264.82,-604.58C219.82,-591.31 150,-561.67 150,-505.5 150,-505.5 150,-505.5 150,-118.5 150,-73.23 197.95,-41.26 231.66,-24.37"/>
<polygon fill="#63b8ff" stroke="#63b8ff" points="233.14,-27.54 240.65,-20.07 230.12,-21.22 233.14,-27.54"/>
</g>
<!-- Node5 -->
<g id="node5" class="node">
<title>Node5</title>
<g id="a_node5"><a xlink:href="Lane_8h.html" target="_top" xlink:title=" ">
<polygon fill="white" stroke="#666666" points="1944.5,-349 1895.5,-349 1895.5,-330 1944.5,-330 1944.5,-349"/>
<text text-anchor="middle" x="1920" y="-337" font-family="Helvetica,sans-Serif" font-size="10.00">Lane.h</text>
</a>
</g>
</g>
<!-- Node1&#45;&gt;Node5 -->
<g id="edge4" class="edge">
<title>Node1&#45;&gt;Node5</title>
<path fill="none" stroke="#63b8ff" d="M355.33,-612.92C568.44,-610.39 1359.42,-599.14 1608,-569 1744.16,-552.49 1910,-642.66 1910,-505.5 1910,-505.5 1910,-505.5 1910,-448.5 1910,-417.79 1914.06,-382.38 1917,-360.72"/>
<polygon fill="#63b8ff" stroke="#63b8ff" points="1920.45,-361.33 1918.4,-350.93 1913.52,-360.34 1920.45,-361.33"/>
</g>
<!-- Node6 -->
<g id="node6" class="node">
<title>Node6</title>
<g id="a_node6"><a xlink:href="SceneNode_8h.html" target="_top" xlink:title=" ">
<polygon fill="white" stroke="#666666" points="2017,-239 1937,-239 1937,-220 2017,-220 2017,-239"/>
<text text-anchor="middle" x="1977" y="-227" font-family="Helvetica,sans-Serif" font-size="10.00">SceneNode.h</text>
</a>
</g>
</g>
<!-- Node1&#45;&gt;Node6 -->
<g id="edge95" class="edge">
<title>Node1&#45;&gt;Node6</title>
<path fill="none" stroke="#63b8ff" d="M355.26,-613.79C584.58,-614.73 1488.86,-615.36 1769,-569 1863.94,-553.29 1976,-601.73 1976,-505.5 1976,-505.5 1976,-505.5 1976,-338.5 1976,-307.92 1976.41,-272.48 1976.7,-250.77"/>
<polygon fill="#63b8ff" stroke="#63b8ff" points="1980.2,-251.02 1976.84,-240.97 1973.2,-250.92 1980.2,-251.02"/>
</g>
<!-- Node18 -->
<g id="node18" class="node">
<title>Node18</title>
<g id="a_node18"><a xlink:href="Level_8h.html" target="_top" xlink:title=" ">
<polygon fill="white" stroke="#666666" points="122,-294 70,-294 70,-275 122,-275 122,-294"/>
<text text-anchor="middle" x="96" y="-282" font-family="Helvetica,sans-Serif" font-size="10.00">Level.h</text>
</a>
</g>
</g>
<!-- Node1&#45;&gt;Node18 -->
<g id="edge21" class="edge">
<title>Node1&#45;&gt;Node18</title>
<path fill="none" stroke="#63b8ff" d="M248.68,-610.37C213.35,-605.81 167.82,-594.89 136,-569 111.49,-549.06 104,-537.1 104,-505.5 104,-505.5 104,-505.5 104,-393.5 104,-362.84 100.75,-327.42 98.4,-305.74"/>
<polygon fill="#63b8ff" stroke="#63b8ff" points="101.89,-305.49 97.28,-295.95 94.94,-306.28 101.89,-305.49"/>
</g>
<!-- Node22 -->
<g id="node22" class="node">
<title>Node22</title>
<g id="a_node22"><a xlink:href="RoadLane_8h.html" target="_top" xlink:title=" ">
<polygon fill="white" stroke="#666666" points="1599,-569 1525,-569 1525,-550 1599,-550 1599,-569"/>
<text text-anchor="middle" x="1562" y="-557" font-family="Helvetica,sans-Serif" font-size="10.00">RoadLane.h</text>
</a>
</g>
</g>
<!-- Node1&#45;&gt;Node22 -->
<g id="edge30" class="edge">
<title>Node1&#45;&gt;Node22</title>
<path fill="none" stroke="#63b8ff" d="M355.34,-611.26C562.8,-602.53 1314.36,-570.92 1513.37,-562.55"/>
<polygon fill="#63b8ff" stroke="#63b8ff" points="1513.24,-566.05 1523.08,-562.14 1512.94,-559.06 1513.24,-566.05"/>
</g>
<!-- Node5&#45;&gt;Node6 -->
<g id="edge5" class="edge">
<title>Node5&#45;&gt;Node6</title>
<path fill="none" stroke="#63b8ff" d="M1924.66,-329.66C1933.85,-312.26 1954.47,-273.19 1966.91,-249.62"/>
<polygon fill="#63b8ff" stroke="#63b8ff" points="1969.99,-251.28 1971.56,-240.8 1963.8,-248.01 1969.99,-251.28"/>
</g>
<!-- Node7 -->
<g id="node7" class="node">
<title>Node7</title>
<g id="a_node7"><a xlink:href="Enums_8h.html" target="_top" xlink:title=" ">
<polygon fill="white" stroke="#666666" points="1645.5,-74 1586.5,-74 1586.5,-55 1645.5,-55 1645.5,-74"/>
<text text-anchor="middle" x="1616" y="-62" font-family="Helvetica,sans-Serif" font-size="10.00">Enums.h</text>
</a>
</g>
</g>
<!-- Node5&#45;&gt;Node7 -->
<g id="edge20" class="edge">
<title>Node5&#45;&gt;Node7</title>
<path fill="none" stroke="#63b8ff" d="M1944.73,-337.8C2125.09,-332.55 3231,-297.62 3231,-230.5 3231,-230.5 3231,-230.5 3231,-173.5 3231,-92.11 1908.08,-69.58 1656.9,-66.03"/>
<polygon fill="#63b8ff" stroke="#63b8ff" points="1657.32,-62.54 1647.27,-65.9 1657.22,-69.54 1657.32,-62.54"/>
</g>
<!-- Node6&#45;&gt;Node2 -->
<g id="edge7" class="edge">
<title>Node6&#45;&gt;Node2</title>
<path fill="none" stroke="#63b8ff" d="M1952.82,-219.51C1887.46,-195.74 1701.28,-131.59 1540,-110 1345.49,-83.97 742.69,-70.54 540.72,-66.69"/>
<polygon fill="#63b8ff" stroke="#63b8ff" points="541,-63.19 530.93,-66.5 540.87,-70.19 541,-63.19"/>
</g>
<!-- Node6&#45;&gt;Node3 -->
<g id="edge15" class="edge">
<title>Node6&#45;&gt;Node3</title>
<path fill="none" stroke="#63b8ff" d="M1936.56,-228.28C1771.72,-227.18 1134.29,-220.68 599.36,-184.18"/>
<polygon fill="#63b8ff" stroke="#63b8ff" points="599.66,-180.69 589.45,-183.5 599.18,-187.68 599.66,-180.69"/>
</g>
<!-- Node6&#45;&gt;Node4 -->
<g id="edge19" class="edge">
<title>Node6&#45;&gt;Node4</title>
<path fill="none" stroke="#63b8ff" d="M2017.27,-228.52C2219.03,-228.44 3111.82,-225.73 3152,-184 3157.86,-177.92 3157.45,-171.45 3152,-165 3055.88,-51.12 653.75,-15.58 305.85,-11.02"/>
<polygon fill="#63b8ff" stroke="#63b8ff" points="305.9,-7.52 295.86,-10.89 305.81,-14.52 305.9,-7.52"/>
</g>
<!-- Node6&#45;&gt;Node7 -->
<g id="edge6" class="edge">
<title>Node6&#45;&gt;Node7</title>
<path fill="none" stroke="#63b8ff" d="M2017.38,-228.5C2217.68,-228.31 3096.42,-225.12 3136,-184 3141.86,-177.92 3141.77,-171.16 3136,-165 3083.94,-109.42 1894.79,-73.3 1657.12,-66.62"/>
<polygon fill="#63b8ff" stroke="#63b8ff" points="1657.51,-63.13 1647.42,-66.35 1657.32,-70.13 1657.51,-63.13"/>
</g>
<!-- Node8 -->
<g id="node8" class="node">
<title>Node8</title>
<g id="a_node8"><a xlink:title=" ">
<polygon fill="#e0e0e0" stroke="#999999" points="2930.5,-184 2771.5,-184 2771.5,-165 2930.5,-165 2930.5,-184"/>
<text text-anchor="middle" x="2851" y="-172" font-family="Helvetica,sans-Serif" font-size="10.00">SFML/Graphics/Drawable.hpp</text>
</a>
</g>
</g>
<!-- Node6&#45;&gt;Node8 -->
<g id="edge8" class="edge">
<title>Node6&#45;&gt;Node8</title>
<path fill="none" stroke="#63b8ff" d="M2017.48,-226.76C2132.03,-221.71 2468.5,-206.07 2760.21,-184.1"/>
<polygon fill="#63b8ff" stroke="#63b8ff" points="2760.22,-187.61 2769.93,-183.37 2759.69,-180.63 2760.22,-187.61"/>
</g>
<!-- Node9 -->
<g id="node9" class="node">
<title>Node9</title>
<g id="a_node9"><a xlink:title=" ">
<polygon fill="#e0e0e0" stroke="#999999" points="1720,-184 1586,-184 1586,-165 1720,-165 1720,-184"/>
<text text-anchor="middle" x="1653" y="-172" font-family="Helvetica,sans-Serif" font-size="10.00">SFML/Graphics/Rect.hpp</text>
</a>
</g>
</g>
<!-- Node6&#45;&gt;Node9 -->
<g id="edge9" class="edge">
<title>Node6&#45;&gt;Node9</title>
<path fill="none" stroke="#63b8ff" d="M1936.62,-221.89C1882.1,-212.98 1784.26,-196.97 1718.98,-186.29"/>
<polygon fill="#63b8ff" stroke="#63b8ff" points="1719.92,-182.9 1709.48,-184.74 1718.79,-189.81 1719.92,-182.9"/>
</g>
<!-- Node10 -->
<g id="node10" class="node">
<title>Node10</title>
<g id="a_node10"><a xlink:title=" ">
<polygon fill="#e0e0e0" stroke="#999999" points="3127,-184 2949,-184 2949,-165 3127,-165 3127,-184"/>
<text text-anchor="middle" x="3038" y="-172" font-family="Helvetica,sans-Serif" font-size="10.00">SFML/Graphics/RenderStates.hpp</text>
</a>
</g>
</g>
<!-- Node6&#45;&gt;Node10 -->
<g id="edge10" class="edge">
<title>Node6&#45;&gt;Node10</title>
<path fill="none" stroke="#63b8ff" d="M2017.4,-227.22C2148.44,-222.93 2573.78,-208.06 2937.27,-184.15"/>
<polygon fill="#63b8ff" stroke="#63b8ff" points="2937.29,-187.66 2947.04,-183.51 2936.83,-180.68 2937.29,-187.66"/>
</g>
<!-- Node11 -->
<g id="node11" class="node">
<title>Node11</title>
<g id="a_node11"><a xlink:title=" ">
<polygon fill="#e0e0e0" stroke="#999999" points="2067.5,-184 1890.5,-184 1890.5,-165 2067.5,-165 2067.5,-184"/>
<text text-anchor="middle" x="1979" y="-172" font-family="Helvetica,sans-Serif" font-size="10.00">SFML/Graphics/RenderTarget.hpp</text>
</a>
</g>
</g>
<!-- Node6&#45;&gt;Node11 -->
<g id="edge11" class="edge">
<title>Node6&#45;&gt;Node11</title>
<path fill="none" stroke="#63b8ff" d="M1977.33,-219.75C1977.57,-213.27 1977.92,-204.16 1978.23,-195.9"/>
<polygon fill="#63b8ff" stroke="#63b8ff" points="1981.73,-196.08 1978.61,-185.95 1974.73,-195.82 1981.73,-196.08"/>
</g>
<!-- Node12 -->
<g id="node12" class="node">
<title>Node12</title>
<g id="a_node12"><a xlink:title=" ">
<polygon fill="#e0e0e0" stroke="#999999" points="2246.5,-184 2085.5,-184 2085.5,-165 2246.5,-165 2246.5,-184"/>
<text text-anchor="middle" x="2166" y="-172" font-family="Helvetica,sans-Serif" font-size="10.00">SFML/Graphics/Transform.hpp</text>
</a>
</g>
</g>
<!-- Node6&#45;&gt;Node12 -->
<g id="edge12" class="edge">
<title>Node6&#45;&gt;Node12</title>
<path fill="none" stroke="#63b8ff" d="M2009.06,-219.51C2040.52,-210.69 2088.68,-197.18 2123.35,-187.46"/>
<polygon fill="#63b8ff" stroke="#63b8ff" points="2123.96,-190.93 2132.64,-184.85 2122.07,-184.19 2123.96,-190.93"/>
</g>
<!-- Node13 -->
<g id="node13" class="node">
<title>Node13</title>
<g id="a_node13"><a xlink:title=" ">
<polygon fill="#e0e0e0" stroke="#999999" points="2447,-184 2265,-184 2265,-165 2447,-165 2447,-184"/>
<text text-anchor="middle" x="2356" y="-172" font-family="Helvetica,sans-Serif" font-size="10.00">SFML/Graphics/Transformable.hpp</text>
</a>
</g>
</g>
<!-- Node6&#45;&gt;Node13 -->
<g id="edge13" class="edge">
<title>Node6&#45;&gt;Node13</title>
<path fill="none" stroke="#63b8ff" d="M2017.2,-222.88C2079.66,-214.14 2201.06,-197.17 2280.3,-186.09"/>
<polygon fill="#63b8ff" stroke="#63b8ff" points="2280.76,-189.56 2290.18,-184.71 2279.79,-182.62 2280.76,-189.56"/>
</g>
<!-- Node14 -->
<g id="node14" class="node">
<title>Node14</title>
<g id="a_node14"><a xlink:title=" ">
<polygon fill="#e0e0e0" stroke="#999999" points="2637,-184 2465,-184 2465,-165 2637,-165 2637,-184"/>
<text text-anchor="middle" x="2551" y="-172" font-family="Helvetica,sans-Serif" font-size="10.00">SFML/System/NonCopyable.hpp</text>
</a>
</g>
</g>
<!-- Node6&#45;&gt;Node14 -->
<g id="edge14" class="edge">
<title>Node6&#45;&gt;Node14</title>
<path fill="none" stroke="#63b8ff" d="M2017.36,-224.77C2107.16,-216.48 2325.58,-196.31 2453.42,-184.51"/>
<polygon fill="#63b8ff" stroke="#63b8ff" points="2453.59,-188.01 2463.23,-183.6 2452.95,-181.04 2453.59,-188.01"/>
</g>
<!-- Node15 -->
<g id="node15" class="node">
<title>Node15</title>
<g id="a_node15"><a xlink:title=" ">
<polygon fill="#e0e0e0" stroke="#999999" points="1531,-129 1473,-129 1473,-110 1531,-110 1531,-129"/>
<text text-anchor="middle" x="1502" y="-117" font-family="Helvetica,sans-Serif" font-size="10.00">memory</text>
</a>
</g>
</g>
<!-- Node6&#45;&gt;Node15 -->
<g id="edge16" class="edge">
<title>Node6&#45;&gt;Node15</title>
<path fill="none" stroke="#63b8ff" d="M1944.65,-219.58C1897.44,-206.71 1806.82,-182.56 1729,-165 1647.72,-146.66 1626.76,-145.08 1545,-129 1544.02,-128.81 1543.03,-128.61 1542.03,-128.41"/>
<polygon fill="#63b8ff" stroke="#63b8ff" points="1543.12,-125.06 1532.63,-126.56 1541.76,-131.93 1543.12,-125.06"/>
</g>
<!-- Node16 -->
<g id="node16" class="node">
<title>Node16</title>
<g id="a_node16"><a xlink:title=" ">
<polygon fill="#e0e0e0" stroke="#999999" points="2702.5,-184 2655.5,-184 2655.5,-165 2702.5,-165 2702.5,-184"/>
<text text-anchor="middle" x="2679" y="-172" font-family="Helvetica,sans-Serif" font-size="10.00">vector</text>
</a>
</g>
</g>
<!-- Node6&#45;&gt;Node16 -->
<g id="edge17" class="edge">
<title>Node6&#45;&gt;Node16</title>
<path fill="none" stroke="#63b8ff" d="M2017.26,-228.42C2120.15,-227.65 2401.14,-222.11 2644.14,-183.94"/>
<polygon fill="#63b8ff" stroke="#63b8ff" points="2644.5,-187.43 2653.82,-182.4 2643.4,-180.52 2644.5,-187.43"/>
</g>
<!-- Node17 -->
<g id="node17" class="node">
<title>Node17</title>
<g id="a_node17"><a xlink:title=" ">
<polygon fill="#e0e0e0" stroke="#999999" points="2753,-184 2721,-184 2721,-165 2753,-165 2753,-184"/>
<text text-anchor="middle" x="2737" y="-172" font-family="Helvetica,sans-Serif" font-size="10.00">set</text>
</a>
</g>
</g>
<!-- Node6&#45;&gt;Node17 -->
<g id="edge18" class="edge">
<title>Node6&#45;&gt;Node17</title>
<path fill="none" stroke="#63b8ff" d="M2017.14,-227.48C2147.13,-223.97 2556.49,-211.15 2709.75,-183.8"/>
<polygon fill="#63b8ff" stroke="#63b8ff" points="2710.1,-187.29 2719.28,-182 2708.8,-180.42 2710.1,-187.29"/>
</g>
<!-- Node18&#45;&gt;Node3 -->
<g id="edge22" class="edge">
<title>Node18&#45;&gt;Node3</title>
<path fill="none" stroke="#63b8ff" d="M122.27,-276.74C191.95,-258.83 382.13,-209.92 470.16,-187.29"/>
<polygon fill="#63b8ff" stroke="#63b8ff" points="470.85,-190.72 479.66,-184.84 469.11,-183.94 470.85,-190.72"/>
</g>
<!-- Node18&#45;&gt;Node6 -->
<g id="edge26" class="edge">
<title>Node18&#45;&gt;Node6</title>
<path fill="none" stroke="#63b8ff" d="M122.23,-282.76C325.28,-277.04 1645.98,-239.83 1925.2,-231.96"/>
<polygon fill="#63b8ff" stroke="#63b8ff" points="1925.17,-235.46 1935.07,-231.68 1924.97,-228.46 1925.17,-235.46"/>
</g>
<!-- Node18&#45;&gt;Node7 -->
<g id="edge25" class="edge">
<title>Node18&#45;&gt;Node7</title>
<path fill="none" stroke="#63b8ff" d="M116.16,-274.62C167.94,-252.21 310.33,-193.18 435,-165 873.15,-65.97 1422.88,-63.48 1575.24,-64.9"/>
<polygon fill="#63b8ff" stroke="#63b8ff" points="1574.78,-68.39 1584.81,-65 1574.85,-61.39 1574.78,-68.39"/>
</g>
<!-- Node19 -->
<g id="node19" class="node">
<title>Node19</title>
<g id="a_node19"><a xlink:title=" ">
<polygon fill="#e0e0e0" stroke="#999999" points="122,-239 66,-239 66,-220 122,-220 122,-239"/>
<text text-anchor="middle" x="94" y="-227" font-family="Helvetica,sans-Serif" font-size="10.00">assert.h</text>
</a>
</g>
</g>
<!-- Node18&#45;&gt;Node19 -->
<g id="edge23" class="edge">
<title>Node18&#45;&gt;Node19</title>
<path fill="none" stroke="#63b8ff" d="M95.67,-274.75C95.43,-268.27 95.08,-259.16 94.77,-250.9"/>
<polygon fill="#63b8ff" stroke="#63b8ff" points="98.27,-250.82 94.39,-240.95 91.27,-251.08 98.27,-250.82"/>
</g>
<!-- Node20 -->
<g id="node20" class="node">
<title>Node20</title>
<g id="a_node20"><a xlink:title=" ">
<polygon fill="#e0e0e0" stroke="#999999" points="71,-19 17,-19 17,0 71,0 71,-19"/>
<text text-anchor="middle" x="44" y="-7" font-family="Helvetica,sans-Serif" font-size="10.00">random</text>
</a>
</g>
</g>
<!-- Node18&#45;&gt;Node20 -->
<g id="edge24" class="edge">
<title>Node18&#45;&gt;Node20</title>
<path fill="none" stroke="#63b8ff" d="M79.28,-274.67C51.77,-258.8 0,-222.66 0,-175.5 0,-175.5 0,-175.5 0,-118.5 0,-84.88 18.51,-49.43 31.52,-28.68"/>
<polygon fill="#63b8ff" stroke="#63b8ff" points="34.32,-30.8 36.87,-20.52 28.46,-26.96 34.32,-30.8"/>
</g>
<!-- Node21 -->
<g id="node21" class="node">
<title>Node21</title>
<g id="a_node21"><a xlink:href="Random_8h.html" target="_top" xlink:title=" ">
<polygon fill="white" stroke="#666666" points="122,-74 56,-74 56,-55 122,-55 122,-74"/>
<text text-anchor="middle" x="89" y="-62" font-family="Helvetica,sans-Serif" font-size="10.00">Random.h</text>
</a>
</g>
</g>
<!-- Node18&#45;&gt;Node21 -->
<g id="edge27" class="edge">
<title>Node18&#45;&gt;Node21</title>
<path fill="none" stroke="#63b8ff" d="M84.64,-274.67C75.22,-266.56 62.5,-253.61 57,-239 36.74,-185.15 63.44,-116.91 79.1,-84.39"/>
<polygon fill="#63b8ff" stroke="#63b8ff" points="82.04,-86.32 83.4,-75.81 75.79,-83.18 82.04,-86.32"/>
</g>
<!-- Node21&#45;&gt;Node4 -->
<g id="edge29" class="edge">
<title>Node21&#45;&gt;Node4</title>
<path fill="none" stroke="#63b8ff" d="M118.69,-54.51C147.56,-45.76 191.64,-32.42 223.67,-22.71"/>
<polygon fill="#63b8ff" stroke="#63b8ff" points="224.46,-26.13 233.01,-19.88 222.43,-19.43 224.46,-26.13"/>
</g>
<!-- Node21&#45;&gt;Node20 -->
<g id="edge28" class="edge">
<title>Node21&#45;&gt;Node20</title>
<path fill="none" stroke="#63b8ff" d="M81.57,-54.75C75.42,-47.5 66.49,-36.98 58.87,-28.02"/>
<polygon fill="#63b8ff" stroke="#63b8ff" points="61.71,-25.95 52.57,-20.6 56.38,-30.48 61.71,-25.95"/>
</g>
<!-- Node22&#45;&gt;Node5 -->
<g id="edge32" class="edge">
<title>Node22&#45;&gt;Node5</title>
<path fill="none" stroke="#63b8ff" d="M1599.45,-554.55C1657.52,-546.54 1769.58,-523.3 1837,-459 1868.84,-428.63 1895.97,-384.34 1909.92,-359.4"/>
<polygon fill="#63b8ff" stroke="#63b8ff" points="1912.93,-361.2 1914.65,-350.75 1906.79,-357.84 1912.93,-361.2"/>
</g>
<!-- Node22&#45;&gt;Node21 -->
<g id="edge31" class="edge">
<title>Node22&#45;&gt;Node21</title>
<path fill="none" stroke="#63b8ff" d="M1524.69,-557.97C1364.74,-555.51 736.3,-544.08 541,-514 368.22,-487.39 188,-515.31 188,-340.5 188,-340.5 188,-340.5 188,-173.5 188,-130.95 145.73,-97.9 116.43,-80.09"/>
<polygon fill="#63b8ff" stroke="#63b8ff" points="118.41,-77.2 108.01,-75.2 114.9,-83.25 118.41,-77.2"/>
</g>
<!-- Node23 -->
<g id="node23" class="node">
<title>Node23</title>
<g id="a_node23"><a xlink:href="Entity_8h.html" target="_top" xlink:title=" ">
<polygon fill="white" stroke="#666666" points="1589.5,-294 1536.5,-294 1536.5,-275 1589.5,-275 1589.5,-294"/>
<text text-anchor="middle" x="1563" y="-282" font-family="Helvetica,sans-Serif" font-size="10.00">Entity.h</text>
</a>
</g>
</g>
<!-- Node22&#45;&gt;Node23 -->
<g id="edge33" class="edge">
<title>Node22&#45;&gt;Node23</title>
<path fill="none" stroke="#63b8ff" d="M1558.38,-549.71C1551.24,-531.53 1536,-488.3 1536,-450.5 1536,-450.5 1536,-450.5 1536,-393.5 1536,-361.69 1547.16,-326.13 1555.13,-304.8"/>
<polygon fill="#63b8ff" stroke="#63b8ff" points="1558.32,-306.27 1558.7,-295.68 1551.8,-303.73 1558.32,-306.27"/>
</g>
<!-- Node32 -->
<g id="node32" class="node">
<title>Node32</title>
<g id="a_node32"><a xlink:href="Commuters_8h.html" target="_top" xlink:title=" ">
<polygon fill="white" stroke="#666666" points="1712.5,-514 1629.5,-514 1629.5,-495 1712.5,-495 1712.5,-514"/>
<text text-anchor="middle" x="1671" y="-502" font-family="Helvetica,sans-Serif" font-size="10.00">Commuters.h</text>
</a>
</g>
</g>
<!-- Node22&#45;&gt;Node32 -->
<g id="edge57" class="edge">
<title>Node22&#45;&gt;Node32</title>
<path fill="none" stroke="#63b8ff" d="M1580.49,-549.51C1597.5,-541.24 1622.99,-528.84 1642.59,-519.31"/>
<polygon fill="#63b8ff" stroke="#63b8ff" points="1643.96,-522.54 1651.42,-515.02 1640.9,-516.25 1643.96,-522.54"/>
</g>
<!-- Node33 -->
<g id="node33" class="node">
<title>Node33</title>
<g id="a_node33"><a xlink:href="Light_8h.html" target="_top" xlink:title=" ">
<polygon fill="white" stroke="#666666" points="1828,-459 1778,-459 1778,-440 1828,-440 1828,-459"/>
<text text-anchor="middle" x="1803" y="-447" font-family="Helvetica,sans-Serif" font-size="10.00">Light.h</text>
</a>
</g>
</g>
<!-- Node22&#45;&gt;Node33 -->
<g id="edge92" class="edge">
<title>Node22&#45;&gt;Node33</title>
<path fill="none" stroke="#63b8ff" d="M1599.48,-552.25C1632.68,-545.75 1681.82,-533.7 1721,-514 1745.74,-501.56 1770.36,-481.14 1786.06,-466.83"/>
<polygon fill="#63b8ff" stroke="#63b8ff" points="1788.19,-469.63 1793.11,-460.24 1783.41,-464.51 1788.19,-469.63"/>
</g>
<!-- Node40 -->
<g id="node40" class="node">
<title>Node40</title>
<g id="a_node40"><a xlink:title=" ">
<polygon fill="#e0e0e0" stroke="#999999" points="670.5,-184 605.5,-184 605.5,-165 670.5,-165 670.5,-184"/>
<text text-anchor="middle" x="638" y="-172" font-family="Helvetica,sans-Serif" font-size="10.00">functional</text>
</a>
</g>
</g>
<!-- Node22&#45;&gt;Node40 -->
<g id="edge94" class="edge">
<title>Node22&#45;&gt;Node40</title>
<path fill="none" stroke="#63b8ff" d="M1524.76,-557.21C1319.96,-549.86 340,-511.53 340,-450.5 340,-450.5 340,-450.5 340,-393.5 340,-269.07 511.35,-208 594.18,-185.74"/>
<polygon fill="#63b8ff" stroke="#63b8ff" points="595,-189.15 603.79,-183.24 593.23,-182.37 595,-189.15"/>
</g>
<!-- Node42 -->
<g id="node42" class="node">
<title>Node42</title>
<g id="a_node42"><a xlink:title=" ">
<polygon fill="#e0e0e0" stroke="#999999" points="1611.5,-514 1564.5,-514 1564.5,-495 1611.5,-495 1611.5,-514"/>
<text text-anchor="middle" x="1588" y="-502" font-family="Helvetica,sans-Serif" font-size="10.00">deque</text>
</a>
</g>
</g>
<!-- Node22&#45;&gt;Node42 -->
<g id="edge93" class="edge">
<title>Node22&#45;&gt;Node42</title>
<path fill="none" stroke="#63b8ff" d="M1566.29,-549.75C1569.62,-542.96 1574.36,-533.3 1578.56,-524.73"/>
<polygon fill="#63b8ff" stroke="#63b8ff" points="1581.68,-526.32 1582.95,-515.8 1575.4,-523.24 1581.68,-526.32"/>
</g>
<!-- Node23&#45;&gt;Node3 -->
<g id="edge56" class="edge">
<title>Node23&#45;&gt;Node3</title>
<path fill="none" stroke="#63b8ff" d="M1536.31,-280.09C1522,-278.36 1504.06,-276.35 1488,-275 1194.82,-250.42 1113.11,-307.57 827,-239 806.68,-234.13 804.02,-225.98 784,-220 749.18,-209.6 659.19,-195.6 593.05,-186.1"/>
<polygon fill="#63b8ff" stroke="#63b8ff" points="593.72,-182.66 583.33,-184.71 592.73,-189.59 593.72,-182.66"/>
</g>
<!-- Node23&#45;&gt;Node6 -->
<g id="edge53" class="edge">
<title>Node23&#45;&gt;Node6</title>
<path fill="none" stroke="#63b8ff" d="M1589.84,-280.06C1657.58,-271.39 1836.35,-248.51 1925.26,-237.12"/>
<polygon fill="#63b8ff" stroke="#63b8ff" points="1925.7,-240.6 1935.18,-235.85 1924.81,-233.65 1925.7,-240.6"/>
</g>
<!-- Node23&#45;&gt;Node7 -->
<g id="edge52" class="edge">
<title>Node23&#45;&gt;Node7</title>
<path fill="none" stroke="#63b8ff" d="M1563.27,-274.74C1564.05,-254.91 1566.93,-205.19 1577,-165 1584.24,-136.1 1597.75,-104.31 1606.8,-84.62"/>
<polygon fill="#63b8ff" stroke="#63b8ff" points="1609.92,-86.21 1611.01,-75.67 1603.59,-83.23 1609.92,-86.21"/>
</g>
<!-- Node23&#45;&gt;Node9 -->
<g id="edge54" class="edge">
<title>Node23&#45;&gt;Node9</title>
<path fill="none" stroke="#63b8ff" d="M1570.37,-274.66C1585.2,-256.86 1618.91,-216.41 1638.38,-193.04"/>
<polygon fill="#63b8ff" stroke="#63b8ff" points="1640.85,-195.55 1644.56,-185.62 1635.47,-191.06 1640.85,-195.55"/>
</g>
<!-- Node24 -->
<g id="node24" class="node">
<title>Node24</title>
<g id="a_node24"><a xlink:href="AnimationMachine_8h.html" target="_top" xlink:title=" ">
<polygon fill="white" stroke="#666666" points="1179.5,-239 1062.5,-239 1062.5,-220 1179.5,-220 1179.5,-239"/>
<text text-anchor="middle" x="1121" y="-227" font-family="Helvetica,sans-Serif" font-size="10.00">AnimationMachine.h</text>
</a>
</g>
</g>
<!-- Node23&#45;&gt;Node24 -->
<g id="edge34" class="edge">
<title>Node23&#45;&gt;Node24</title>
<path fill="none" stroke="#63b8ff" d="M1536.02,-280.26C1468.52,-272.17 1290.66,-250.84 1191.07,-238.9"/>
<polygon fill="#63b8ff" stroke="#63b8ff" points="1191.77,-235.46 1181.42,-237.75 1190.93,-242.41 1191.77,-235.46"/>
</g>
<!-- Node27 -->
<g id="node27" class="node">
<title>Node27</title>
<g id="a_node27"><a xlink:title=" ">
<polygon fill="#e0e0e0" stroke="#999999" points="978.5,-184 847.5,-184 847.5,-165 978.5,-165 978.5,-184"/>
<text text-anchor="middle" x="913" y="-172" font-family="Helvetica,sans-Serif" font-size="10.00">SFML/System/Time.hpp</text>
</a>
</g>
</g>
<!-- Node23&#45;&gt;Node27 -->
<g id="edge55" class="edge">
<title>Node23&#45;&gt;Node27</title>
<path fill="none" stroke="#63b8ff" d="M1536.29,-280.27C1521.98,-278.6 1504.04,-276.57 1488,-275 1294.93,-256.07 1240.76,-287.78 1053,-239 1010.58,-227.98 964.98,-204.97 937.73,-189.89"/>
<polygon fill="#63b8ff" stroke="#63b8ff" points="939.65,-186.95 929.22,-185.09 936.21,-193.05 939.65,-186.95"/>
</g>
<!-- Node24&#45;&gt;Node2 -->
<g id="edge35" class="edge">
<title>Node24&#45;&gt;Node2</title>
<path fill="none" stroke="#63b8ff" d="M1110.33,-219.52C1093.14,-205.53 1057.68,-178.74 1023,-165 857.42,-99.42 646.5,-76.72 540.77,-69.13"/>
<polygon fill="#63b8ff" stroke="#63b8ff" points="541.06,-65.64 530.85,-68.44 540.58,-72.62 541.06,-65.64"/>
</g>
<!-- Node24&#45;&gt;Node4 -->
<g id="edge40" class="edge">
<title>Node24&#45;&gt;Node4</title>
<path fill="none" stroke="#63b8ff" d="M1114.34,-219.85C1103.51,-206.32 1080.77,-180.14 1056,-165 990.4,-124.9 966.67,-128.3 892,-110 674.39,-56.67 407.09,-25.36 305.67,-14.67"/>
<polygon fill="#63b8ff" stroke="#63b8ff" points="306.24,-11.21 295.93,-13.66 305.51,-18.18 306.24,-11.21"/>
</g>
<!-- Node24&#45;&gt;Node7 -->
<g id="edge45" class="edge">
<title>Node24&#45;&gt;Node7</title>
<path fill="none" stroke="#63b8ff" d="M1171.52,-219.54C1192.76,-213.17 1215.8,-202.34 1230,-184 1250.32,-157.76 1216.34,-133.27 1240,-110 1263.54,-86.84 1481.79,-72.62 1574.57,-67.58"/>
<polygon fill="#63b8ff" stroke="#63b8ff" points="1574.71,-71.07 1584.51,-67.05 1574.34,-64.08 1574.71,-71.07"/>
</g>
<!-- Node25 -->
<g id="node25" class="node">
<title>Node25</title>
<g id="a_node25"><a xlink:title=" ">
<polygon fill="#e0e0e0" stroke="#999999" points="1529.5,-184 1388.5,-184 1388.5,-165 1529.5,-165 1529.5,-184"/>
<text text-anchor="middle" x="1459" y="-172" font-family="Helvetica,sans-Serif" font-size="10.00">SFML/Graphics/Sprite.hpp</text>
</a>
</g>
</g>
<!-- Node24&#45;&gt;Node25 -->
<g id="edge36" class="edge">
<title>Node24&#45;&gt;Node25</title>
<path fill="none" stroke="#63b8ff" d="M1178.34,-219.51C1236.94,-210.32 1327.96,-196.05 1390.36,-186.26"/>
<polygon fill="#63b8ff" stroke="#63b8ff" points="1390.83,-189.73 1400.17,-184.72 1389.75,-182.82 1390.83,-189.73"/>
</g>
<!-- Node26 -->
<g id="node26" class="node">
<title>Node26</title>
<g id="a_node26"><a xlink:title=" ">
<polygon fill="#e0e0e0" stroke="#999999" points="1398.5,-129 1249.5,-129 1249.5,-110 1398.5,-110 1398.5,-129"/>
<text text-anchor="middle" x="1324" y="-117" font-family="Helvetica,sans-Serif" font-size="10.00">SFML/Graphics/Texture.hpp</text>
</a>
</g>
</g>
<!-- Node24&#45;&gt;Node26 -->
<g id="edge37" class="edge">
<title>Node24&#45;&gt;Node26</title>
<path fill="none" stroke="#63b8ff" d="M1121.02,-219.71C1121.54,-206 1124.63,-179.57 1140,-165 1155.63,-150.18 1203.5,-138.87 1246.5,-131.36"/>
<polygon fill="#63b8ff" stroke="#63b8ff" points="1246.82,-134.86 1256.1,-129.74 1245.65,-127.95 1246.82,-134.86"/>
</g>
<!-- Node24&#45;&gt;Node27 -->
<g id="edge38" class="edge">
<title>Node24&#45;&gt;Node27</title>
<path fill="none" stroke="#63b8ff" d="M1085.72,-219.51C1050.8,-210.61 997.17,-196.95 958.95,-187.21"/>
<polygon fill="#63b8ff" stroke="#63b8ff" points="960.13,-183.9 949.58,-184.82 958.4,-190.68 960.13,-183.9"/>
</g>
<!-- Node28 -->
<g id="node28" class="node">
<title>Node28</title>
<g id="a_node28"><a xlink:title=" ">
<polygon fill="#e0e0e0" stroke="#999999" points="1221,-184 1149,-184 1149,-165 1221,-165 1221,-184"/>
<text text-anchor="middle" x="1185" y="-172" font-family="Helvetica,sans-Serif" font-size="10.00">sys/types.h</text>
</a>
</g>
</g>
<!-- Node24&#45;&gt;Node28 -->
<g id="edge39" class="edge">
<title>Node24&#45;&gt;Node28</title>
<path fill="none" stroke="#63b8ff" d="M1131.86,-219.51C1141.11,-211.85 1154.62,-200.66 1165.71,-191.47"/>
<polygon fill="#63b8ff" stroke="#63b8ff" points="1167.67,-194.4 1173.14,-185.32 1163.2,-189.01 1167.67,-194.4"/>
</g>
<!-- Node29 -->
<g id="node29" class="node">
<title>Node29</title>
<g id="a_node29"><a xlink:href="Consts_8h.html" target="_top" xlink:title=" ">
<polygon fill="white" stroke="#666666" points="503.5,-129 444.5,-129 444.5,-110 503.5,-110 503.5,-129"/>
<text text-anchor="middle" x="474" y="-117" font-family="Helvetica,sans-Serif" font-size="10.00">Consts.h</text>
</a>
</g>
</g>
<!-- Node24&#45;&gt;Node29 -->
<g id="edge41" class="edge">
<title>Node24&#45;&gt;Node29</title>
<path fill="none" stroke="#63b8ff" d="M1103.09,-219.58C1069.43,-202.87 999.02,-168.26 987,-165 981.3,-163.46 635.79,-134.17 515.08,-123.97"/>
<polygon fill="#63b8ff" stroke="#63b8ff" points="515.56,-120.5 505.3,-123.14 514.97,-127.47 515.56,-120.5"/>
</g>
<!-- Node30 -->
<g id="node30" class="node">
<title>Node30</title>
<g id="a_node30"><a xlink:href="TextureHolder_8h.html" target="_top" xlink:title=" ">
<polygon fill="white" stroke="#666666" points="1370.5,-184 1277.5,-184 1277.5,-165 1370.5,-165 1370.5,-184"/>
<text text-anchor="middle" x="1324" y="-172" font-family="Helvetica,sans-Serif" font-size="10.00">TextureHolder.h</text>
</a>
</g>
</g>
<!-- Node24&#45;&gt;Node30 -->
<g id="edge46" class="edge">
<title>Node24&#45;&gt;Node30</title>
<path fill="none" stroke="#63b8ff" d="M1155.44,-219.51C1189.37,-210.65 1241.4,-197.07 1278.68,-187.33"/>
<polygon fill="#63b8ff" stroke="#63b8ff" points="1279.48,-190.74 1288.27,-184.83 1277.71,-183.97 1279.48,-190.74"/>
</g>
<!-- Node29&#45;&gt;Node2 -->
<g id="edge42" class="edge">
<title>Node29&#45;&gt;Node2</title>
<path fill="none" stroke="#63b8ff" d="M474,-109.75C474,-103.27 474,-94.16 474,-85.9"/>
<polygon fill="#63b8ff" stroke="#63b8ff" points="477.5,-85.96 474,-75.96 470.5,-85.96 477.5,-85.96"/>
</g>
<!-- Node29&#45;&gt;Node7 -->
<g id="edge43" class="edge">
<title>Node29&#45;&gt;Node7</title>
<path fill="none" stroke="#63b8ff" d="M503.76,-116.55C532.1,-114.73 575.94,-112 614,-110 986.99,-90.4 1438.39,-72.4 1574.94,-67.08"/>
<polygon fill="#63b8ff" stroke="#63b8ff" points="1574.7,-70.6 1584.56,-66.71 1574.43,-63.6 1574.7,-70.6"/>
</g>
<!-- Node29&#45;&gt;Node21 -->
<g id="edge44" class="edge">
<title>Node29&#45;&gt;Node21</title>
<path fill="none" stroke="#63b8ff" d="M444.11,-114.39C376.75,-105.11 212.81,-82.54 133.47,-71.62"/>
<polygon fill="#63b8ff" stroke="#63b8ff" points="134.28,-68.2 123.9,-70.3 133.33,-75.14 134.28,-68.2"/>
</g>
<!-- Node30&#45;&gt;Node7 -->
<g id="edge50" class="edge">
<title>Node30&#45;&gt;Node7</title>
<path fill="none" stroke="#63b8ff" d="M1370.91,-165.09C1429.79,-154.35 1524.94,-136.27 1540,-129 1563.6,-117.61 1586.03,-97.29 1600.32,-82.69"/>
<polygon fill="#63b8ff" stroke="#63b8ff" points="1602.73,-85.24 1607.07,-75.58 1597.65,-80.43 1602.73,-85.24"/>
</g>
<!-- Node30&#45;&gt;Node15 -->
<g id="edge47" class="edge">
<title>Node30&#45;&gt;Node15</title>
<path fill="none" stroke="#63b8ff" d="M1354.2,-164.51C1383.74,-155.71 1428.94,-142.25 1461.57,-132.54"/>
<polygon fill="#63b8ff" stroke="#63b8ff" points="1462.51,-135.91 1471.1,-129.7 1460.51,-129.2 1462.51,-135.91"/>
</g>
<!-- Node30&#45;&gt;Node26 -->
<g id="edge49" class="edge">
<title>Node30&#45;&gt;Node26</title>
<path fill="none" stroke="#63b8ff" d="M1324,-164.75C1324,-158.27 1324,-149.16 1324,-140.9"/>
<polygon fill="#63b8ff" stroke="#63b8ff" points="1327.5,-140.96 1324,-130.96 1320.5,-140.96 1327.5,-140.96"/>
</g>
<!-- Node30&#45;&gt;Node29 -->
<g id="edge51" class="edge">
<title>Node30&#45;&gt;Node29</title>
<path fill="none" stroke="#63b8ff" d="M1277.17,-168.97C1262.11,-167.6 1245.36,-166.15 1230,-165 957.43,-144.66 628.99,-128.01 515.18,-122.47"/>
<polygon fill="#63b8ff" stroke="#63b8ff" points="515.59,-118.98 505.43,-122 515.25,-125.98 515.59,-118.98"/>
</g>
<!-- Node31 -->
<g id="node31" class="node">
<title>Node31</title>
<g id="a_node31"><a xlink:title=" ">
<polygon fill="#e0e0e0" stroke="#999999" points="1455,-129 1417,-129 1417,-110 1455,-110 1455,-129"/>
<text text-anchor="middle" x="1436" y="-117" font-family="Helvetica,sans-Serif" font-size="10.00">map</text>
</a>
</g>
</g>
<!-- Node30&#45;&gt;Node31 -->
<g id="edge48" class="edge">
<title>Node30&#45;&gt;Node31</title>
<path fill="none" stroke="#63b8ff" d="M1343,-164.51C1360.56,-156.2 1386.92,-143.73 1407.09,-134.18"/>
<polygon fill="#63b8ff" stroke="#63b8ff" points="1408.37,-137.45 1415.91,-130.01 1405.38,-131.12 1408.37,-137.45"/>
</g>
<!-- Node32&#45;&gt;Node23 -->
<g id="edge58" class="edge">
<title>Node32&#45;&gt;Node23</title>
<path fill="none" stroke="#63b8ff" d="M1674.43,-494.66C1678.76,-482.19 1684.95,-458.86 1679,-440 1660.61,-381.66 1609.55,-328.03 1581.7,-302.01"/>
<polygon fill="#63b8ff" stroke="#63b8ff" points="1584.09,-299.45 1574.34,-295.29 1579.37,-304.62 1584.09,-299.45"/>
</g>
<!-- Node32&#45;&gt;Node33 -->
<g id="edge59" class="edge">
<title>Node32&#45;&gt;Node33</title>
<path fill="none" stroke="#63b8ff" d="M1693.39,-494.51C1714.57,-486.01 1746.59,-473.15 1770.56,-463.53"/>
<polygon fill="#63b8ff" stroke="#63b8ff" points="1771.56,-466.9 1779.53,-459.92 1768.95,-460.4 1771.56,-466.9"/>
</g>
<!-- Node34 -->
<g id="node34" class="node">
<title>Node34</title>
<g id="a_node34"><a xlink:href="Obstacle_8h.html" target="_top" xlink:title=" ">
<polygon fill="white" stroke="#666666" points="1670,-459 1602,-459 1602,-440 1670,-440 1670,-459"/>
<text text-anchor="middle" x="1636" y="-447" font-family="Helvetica,sans-Serif" font-size="10.00">Obstacle.h</text>
</a>
</g>
</g>
<!-- Node32&#45;&gt;Node34 -->
<g id="edge61" class="edge">
<title>Node32&#45;&gt;Node34</title>
<path fill="none" stroke="#63b8ff" d="M1665.22,-494.75C1660.59,-487.73 1653.93,-477.64 1648.13,-468.87"/>
<polygon fill="#63b8ff" stroke="#63b8ff" points="1651.17,-467.12 1642.74,-460.71 1645.33,-470.98 1651.17,-467.12"/>
</g>
<!-- Node35 -->
<g id="node35" class="node">
<title>Node35</title>
<g id="a_node35"><a xlink:href="PlayerState_8h.html" target="_top" xlink:title=" ">
<polygon fill="white" stroke="#666666" points="495,-404 413,-404 413,-385 495,-385 495,-404"/>
<text text-anchor="middle" x="454" y="-392" font-family="Helvetica,sans-Serif" font-size="10.00">PlayerState.h</text>
</a>
</g>
</g>
<!-- Node32&#45;&gt;Node35 -->
<g id="edge91" class="edge">
<title>Node32&#45;&gt;Node35</title>
<path fill="none" stroke="#63b8ff" d="M1629.02,-496.22C1625.97,-495.78 1622.94,-495.36 1620,-495 1128.34,-434 1001.01,-462.09 509,-404 508.17,-403.9 507.34,-403.8 506.5,-403.7"/>
<polygon fill="#63b8ff" stroke="#63b8ff" points="507.27,-400.27 496.9,-402.42 506.35,-407.21 507.27,-400.27"/>
</g>
<!-- Node33&#45;&gt;Node23 -->
<g id="edge60" class="edge">
<title>Node33&#45;&gt;Node23</title>
<path fill="none" stroke="#63b8ff" d="M1802.73,-439.8C1801.56,-417.83 1795.29,-359.72 1762,-330 1738.54,-309.06 1651.8,-295.75 1600.91,-289.57"/>
<polygon fill="#63b8ff" stroke="#63b8ff" points="1601.56,-286.12 1591.22,-288.43 1600.74,-293.07 1601.56,-286.12"/>
</g>
<!-- Node34&#45;&gt;Node6 -->
<g id="edge64" class="edge">
<title>Node34&#45;&gt;Node6</title>
<path fill="none" stroke="#63b8ff" d="M1658.49,-439.59C1696.87,-423.93 1776.76,-389.28 1838,-349 1885.66,-317.65 1934.98,-271.84 1960.09,-247.38"/>
<polygon fill="#63b8ff" stroke="#63b8ff" points="1962.45,-249.97 1967.12,-240.46 1957.54,-244.98 1962.45,-249.97"/>
</g>
<!-- Node34&#45;&gt;Node7 -->
<g id="edge63" class="edge">
<title>Node34&#45;&gt;Node7</title>
<path fill="none" stroke="#63b8ff" d="M1651.07,-439.58C1695.68,-412.64 1824,-331.18 1824,-285.5 1824,-285.5 1824,-285.5 1824,-173.5 1824,-98.96 1717.49,-75.8 1656.9,-68.65"/>
<polygon fill="#63b8ff" stroke="#63b8ff" points="1657.62,-65.21 1647.31,-67.62 1656.88,-72.17 1657.62,-65.21"/>
</g>
<!-- Node34&#45;&gt;Node9 -->
<g id="edge89" class="edge">
<title>Node34&#45;&gt;Node9</title>
<path fill="none" stroke="#63b8ff" d="M1636.75,-439.73C1639.2,-410.97 1646.98,-316.93 1651,-239 1651.75,-224.45 1652.26,-208 1652.57,-195.5"/>
<polygon fill="#63b8ff" stroke="#63b8ff" points="1656.07,-195.72 1652.8,-185.65 1649.07,-195.56 1656.07,-195.72"/>
</g>
<!-- Node34&#45;&gt;Node23 -->
<g id="edge65" class="edge">
<title>Node34&#45;&gt;Node23</title>
<path fill="none" stroke="#63b8ff" d="M1632.08,-439.74C1620.69,-414.31 1587.44,-340.08 1571.59,-304.69"/>
<polygon fill="#63b8ff" stroke="#63b8ff" points="1574.84,-303.38 1567.56,-295.69 1568.46,-306.25 1574.84,-303.38"/>
</g>
<!-- Node34&#45;&gt;Node25 -->
<g id="edge90" class="edge">
<title>Node34&#45;&gt;Node25</title>
<path fill="none" stroke="#63b8ff" d="M1601.94,-445.94C1543.13,-440.93 1425.68,-428.15 1393,-404 1367.42,-385.1 1360,-372.31 1360,-340.5 1360,-340.5 1360,-340.5 1360,-283.5 1360,-240.95 1402.27,-207.9 1431.57,-190.09"/>
<polygon fill="#63b8ff" stroke="#63b8ff" points="1433.1,-193.25 1439.99,-185.2 1429.59,-187.2 1433.1,-193.25"/>
</g>
<!-- Node34&#45;&gt;Node29 -->
<g id="edge62" class="edge">
<title>Node34&#45;&gt;Node29</title>
<path fill="none" stroke="#63b8ff" d="M1601.75,-445.9C1533.02,-440.41 1373.54,-426.27 1241,-404 910.83,-348.51 808.91,-381.59 506,-239 469.89,-222 452.57,-219.84 435,-184 426.82,-167.32 440.08,-149.38 453.3,-136.84"/>
<polygon fill="#63b8ff" stroke="#63b8ff" points="455.4,-139.66 460.62,-130.44 450.79,-134.39 455.4,-139.66"/>
</g>
<!-- Node34&#45;&gt;Node30 -->
<g id="edge66" class="edge">
<title>Node34&#45;&gt;Node30</title>
<path fill="none" stroke="#63b8ff" d="M1601.7,-447.19C1500.14,-442.39 1208,-421.54 1208,-340.5 1208,-340.5 1208,-340.5 1208,-283.5 1208,-237.74 1256.95,-205.86 1291.25,-189.13"/>
<polygon fill="#63b8ff" stroke="#63b8ff" points="1292.4,-192.46 1299.99,-185.07 1289.44,-186.12 1292.4,-192.46"/>
</g>
<!-- Node34&#45;&gt;Node35 -->
<g id="edge67" class="edge">
<title>Node34&#45;&gt;Node35</title>
<path fill="none" stroke="#63b8ff" d="M1601.74,-441.82C1597.13,-441.1 1592.46,-440.47 1588,-440 1110.79,-390.04 986.73,-448.72 509,-404 508.17,-403.92 507.33,-403.84 506.49,-403.75"/>
<polygon fill="#63b8ff" stroke="#63b8ff" points="507.22,-400.32 496.88,-402.62 506.4,-407.27 507.22,-400.32"/>
</g>
<!-- Node41 -->
<g id="node41" class="node">
<title>Node41</title>
<g id="a_node41"><a xlink:href="PlayerCollidable_8h.html" target="_top" xlink:title=" ">
<polygon fill="white" stroke="#666666" points="1507.5,-404 1402.5,-404 1402.5,-385 1507.5,-385 1507.5,-404"/>
<text text-anchor="middle" x="1455" y="-392" font-family="Helvetica,sans-Serif" font-size="10.00">PlayerCollidable.h</text>
</a>
</g>
</g>
<!-- Node34&#45;&gt;Node41 -->
<g id="edge87" class="edge">
<title>Node34&#45;&gt;Node41</title>
<path fill="none" stroke="#63b8ff" d="M1605.3,-439.51C1575.3,-430.73 1529.45,-417.3 1496.27,-407.59"/>
<polygon fill="#63b8ff" stroke="#63b8ff" points="1497.59,-404.32 1487,-404.87 1495.62,-411.04 1497.59,-404.32"/>
</g>
<!-- Node35&#45;&gt;Node2 -->
<g id="edge83" class="edge">
<title>Node35&#45;&gt;Node2</title>
<path fill="none" stroke="#63b8ff" d="M448.33,-384.68C429.36,-354.02 370.71,-249.31 397,-165 407.61,-130.98 435.97,-99.91 455.15,-81.84"/>
<polygon fill="#63b8ff" stroke="#63b8ff" points="457.3,-84.62 462.34,-75.3 452.59,-79.44 457.3,-84.62"/>
</g>
<!-- Node35&#45;&gt;Node3 -->
<g id="edge85" class="edge">
<title>Node35&#45;&gt;Node3</title>
<path fill="none" stroke="#63b8ff" d="M457.59,-384.6C466.91,-361.16 492.12,-295.62 506,-239 509.55,-224.53 512.11,-207.88 513.76,-195.26"/>
<polygon fill="#63b8ff" stroke="#63b8ff" points="517.19,-196.07 514.92,-185.72 510.24,-195.23 517.19,-196.07"/>
</g>
<!-- Node35&#45;&gt;Node4 -->
<g id="edge86" class="edge">
<title>Node35&#45;&gt;Node4</title>
<path fill="none" stroke="#63b8ff" d="M436.8,-384.58C390.03,-358.95 264,-280.18 264,-175.5 264,-175.5 264,-175.5 264,-118.5 264,-87.92 264,-52.48 264,-30.77"/>
<polygon fill="#63b8ff" stroke="#63b8ff" points="267.5,-30.97 264,-20.97 260.5,-30.97 267.5,-30.97"/>
</g>
<!-- Node35&#45;&gt;Node9 -->
<g id="edge84" class="edge">
<title>Node35&#45;&gt;Node9</title>
<path fill="none" stroke="#63b8ff" d="M495.23,-392.79C676.1,-389.52 1394.62,-374.98 1492,-349 1543.28,-335.32 1561.31,-332.35 1598,-294 1625.35,-265.41 1640.97,-220.76 1648.14,-195.21"/>
<polygon fill="#63b8ff" stroke="#63b8ff" points="1651.45,-196.38 1650.61,-185.82 1644.68,-194.6 1651.45,-196.38"/>
</g>
<!-- Node35&#45;&gt;Node29 -->
<g id="edge68" class="edge">
<title>Node35&#45;&gt;Node29</title>
<path fill="none" stroke="#63b8ff" d="M451.25,-384.61C439.04,-344.92 390.91,-184.9 402,-165 409.64,-151.29 423.43,-141.28 436.92,-134.26"/>
<polygon fill="#63b8ff" stroke="#63b8ff" points="438.15,-137.55 445.69,-130.12 435.16,-131.22 438.15,-137.55"/>
</g>
<!-- Node36 -->
<g id="node36" class="node">
<title>Node36</title>
<g id="a_node36"><a xlink:href="Player_8h.html" target="_top" xlink:title=" ">
<polygon fill="white" stroke="#666666" points="1483,-349 1427,-349 1427,-330 1483,-330 1483,-349"/>
<text text-anchor="middle" x="1455" y="-337" font-family="Helvetica,sans-Serif" font-size="10.00">Player.h</text>
</a>
</g>
</g>
<!-- Node35&#45;&gt;Node36 -->
<g id="edge69" class="edge">
<title>Node35&#45;&gt;Node36</title>
<path fill="none" stroke="#63b8ff" d="M495.42,-391.31C658.66,-382.66 1256.3,-351.02 1415.7,-342.58"/>
<polygon fill="#63b8ff" stroke="#63b8ff" points="1415.52,-346.1 1425.32,-342.07 1415.15,-339.11 1415.52,-346.1"/>
</g>
<!-- Node36&#45;&gt;Node3 -->
<g id="edge82" class="edge">
<title>Node36&#45;&gt;Node3</title>
<path fill="none" stroke="#63b8ff" d="M1426.73,-335.19C1334.1,-324.14 1031.49,-286.58 784,-239 704.82,-223.78 613.67,-201.06 560.67,-187.32"/>
<polygon fill="#63b8ff" stroke="#63b8ff" points="561.67,-183.96 551.11,-184.83 559.91,-190.74 561.67,-183.96"/>
</g>
<!-- Node36&#45;&gt;Node6 -->
<g id="edge73" class="edge">
<title>Node36&#45;&gt;Node6</title>
<path fill="none" stroke="#63b8ff" d="M1483.44,-332.62C1567.79,-315.16 1817.46,-263.51 1925.83,-241.09"/>
<polygon fill="#63b8ff" stroke="#63b8ff" points="1926.23,-244.58 1935.31,-239.12 1924.81,-237.72 1926.23,-244.58"/>
</g>
<!-- Node36&#45;&gt;Node7 -->
<g id="edge72" class="edge">
<title>Node36&#45;&gt;Node7</title>
<path fill="none" stroke="#63b8ff" d="M1483.33,-333.49C1543.69,-321.03 1683.2,-282.25 1729,-184 1750.28,-138.35 1687.98,-99.13 1647.6,-79.3"/>
<polygon fill="#63b8ff" stroke="#63b8ff" points="1649.28,-76.23 1638.74,-75.11 1646.28,-82.55 1649.28,-76.23"/>
</g>
<!-- Node36&#45;&gt;Node9 -->
<g id="edge81" class="edge">
<title>Node36&#45;&gt;Node9</title>
<path fill="none" stroke="#63b8ff" d="M1464.64,-329.7C1478.31,-317.28 1504.23,-294.01 1527,-275 1563.46,-244.57 1607.2,-210.57 1632.38,-191.23"/>
<polygon fill="#63b8ff" stroke="#63b8ff" points="1634.35,-194.13 1640.16,-185.27 1630.1,-188.57 1634.35,-194.13"/>
</g>
<!-- Node36&#45;&gt;Node23 -->
<g id="edge71" class="edge">
<title>Node36&#45;&gt;Node23</title>
<path fill="none" stroke="#63b8ff" d="M1473.32,-329.51C1490.18,-321.24 1515.43,-308.84 1534.85,-299.31"/>
<polygon fill="#63b8ff" stroke="#63b8ff" points="1536.16,-302.57 1543.59,-295.02 1533.07,-296.29 1536.16,-302.57"/>
</g>
<!-- Node37 -->
<g id="node37" class="node">
<title>Node37</title>
<g id="a_node37"><a xlink:href="Effect_8h.html" target="_top" xlink:title=" ">
<polygon fill="white" stroke="#666666" points="1479.5,-294 1426.5,-294 1426.5,-275 1479.5,-275 1479.5,-294"/>
<text text-anchor="middle" x="1453" y="-282" font-family="Helvetica,sans-Serif" font-size="10.00">Effect.h</text>
</a>
</g>
</g>
<!-- Node36&#45;&gt;Node37 -->
<g id="edge70" class="edge">
<title>Node36&#45;&gt;Node37</title>
<path fill="none" stroke="#63b8ff" d="M1454.67,-329.75C1454.43,-323.27 1454.08,-314.16 1453.77,-305.9"/>
<polygon fill="#63b8ff" stroke="#63b8ff" points="1457.27,-305.82 1453.39,-295.95 1450.27,-306.08 1457.27,-305.82"/>
</g>
<!-- Node38 -->
<g id="node38" class="node">
<title>Node38</title>
<g id="a_node38"><a xlink:href="Effects_8h.html" target="_top" xlink:title=" ">
<polygon fill="white" stroke="#666666" points="895.5,-239 836.5,-239 836.5,-220 895.5,-220 895.5,-239"/>
<text text-anchor="middle" x="866" y="-227" font-family="Helvetica,sans-Serif" font-size="10.00">Effects.h</text>
</a>
</g>
</g>
<!-- Node36&#45;&gt;Node38 -->
<g id="edge74" class="edge">
<title>Node36&#45;&gt;Node38</title>
<path fill="none" stroke="#63b8ff" d="M1432.59,-329.55C1396.75,-315.62 1324.02,-288.89 1260,-275 1193.35,-260.54 993.84,-241.81 907.07,-234.08"/>
<polygon fill="#63b8ff" stroke="#63b8ff" points="907.62,-230.61 897.35,-233.21 907,-237.58 907.62,-230.61"/>
</g>
<!-- Node38&#45;&gt;Node3 -->
<g id="edge79" class="edge">
<title>Node38&#45;&gt;Node3</title>
<path fill="none" stroke="#63b8ff" d="M836.21,-222.55C831.46,-221.66 826.6,-220.78 822,-220 745.26,-207.02 657.3,-194.47 595.44,-186.02"/>
<polygon fill="#63b8ff" stroke="#63b8ff" points="596.08,-182.58 585.7,-184.7 595.14,-189.51 596.08,-182.58"/>
</g>
<!-- Node38&#45;&gt;Node7 -->
<g id="edge76" class="edge">
<title>Node38&#45;&gt;Node7</title>
<path fill="none" stroke="#63b8ff" d="M854.16,-219.61C838.33,-206.67 813.91,-182.31 829,-165 878.61,-108.08 1420.69,-75.67 1575.15,-67.54"/>
<polygon fill="#63b8ff" stroke="#63b8ff" points="1575.1,-71.05 1584.9,-67.03 1574.73,-64.06 1575.1,-71.05"/>
</g>
<!-- Node38&#45;&gt;Node15 -->
<g id="edge78" class="edge">
<title>Node38&#45;&gt;Node15</title>
<path fill="none" stroke="#63b8ff" d="M856.56,-219.65C843.45,-206.31 822.95,-180.94 838,-165 883.91,-116.37 1354.97,-136.81 1461.29,-128.73"/>
<polygon fill="#63b8ff" stroke="#63b8ff" points="1461.53,-132.23 1471.12,-127.72 1460.82,-125.26 1461.53,-132.23"/>
</g>
<!-- Node38&#45;&gt;Node27 -->
<g id="edge80" class="edge">
<title>Node38&#45;&gt;Node27</title>
<path fill="none" stroke="#63b8ff" d="M873.76,-219.75C880.19,-212.5 889.51,-201.98 897.46,-193.02"/>
<polygon fill="#63b8ff" stroke="#63b8ff" points="900.05,-195.38 904.07,-185.57 894.81,-190.73 900.05,-195.38"/>
</g>
<!-- Node39 -->
<g id="node39" class="node">
<title>Node39</title>
<g id="a_node39"><a xlink:title=" ">
<polygon fill="#e0e0e0" stroke="#999999" points="753,-184 689,-184 689,-165 753,-165 753,-184"/>
<text text-anchor="middle" x="721" y="-172" font-family="Helvetica,sans-Serif" font-size="10.00">algorithm</text>
</a>
</g>
</g>
<!-- Node38&#45;&gt;Node39 -->
<g id="edge75" class="edge">
<title>Node38&#45;&gt;Node39</title>
<path fill="none" stroke="#63b8ff" d="M841.4,-219.51C817.93,-210.93 782.33,-197.92 755.93,-188.27"/>
<polygon fill="#63b8ff" stroke="#63b8ff" points="757.25,-185.02 746.66,-184.88 754.85,-191.6 757.25,-185.02"/>
</g>
<!-- Node38&#45;&gt;Node40 -->
<g id="edge77" class="edge">
<title>Node38&#45;&gt;Node40</title>
<path fill="none" stroke="#63b8ff" d="M836.19,-221.57C796.8,-212.41 727.11,-196.21 681.74,-185.67"/>
<polygon fill="#63b8ff" stroke="#63b8ff" points="682.77,-182.31 672.24,-183.46 681.19,-189.13 682.77,-182.31"/>
</g>
<!-- Node41&#45;&gt;Node36 -->
<g id="edge88" class="edge">
<title>Node41&#45;&gt;Node36</title>
<path fill="none" stroke="#63b8ff" d="M1455,-384.75C1455,-378.27 1455,-369.16 1455,-360.9"/>
<polygon fill="#63b8ff" stroke="#63b8ff" points="1458.5,-360.96 1455,-350.96 1451.5,-360.96 1458.5,-360.96"/>
</g>
</g>
</svg>
