<?xml version="1.0" encoding="UTF-8" standalone="no"?>
<!DOCTYPE svg PUBLIC "-//W3C//DTD SVG 1.1//EN"
 "http://www.w3.org/Graphics/SVG/1.1/DTD/svg11.dtd">
<!-- Generated by graphviz version 7.0.5 (0)
 -->
<!-- Title: src/ScoreState.cpp Pages: 1 -->
<svg width="979pt" height="247pt"
 viewBox="0.00 0.00 979.00 247.00" xmlns="http://www.w3.org/2000/svg" xmlns:xlink="http://www.w3.org/1999/xlink">
<g id="graph0" class="graph" transform="scale(1 1) rotate(0) translate(4 243)">
<title>src/ScoreState.cpp</title>
<!-- Node1 -->
<g id="node1" class="node">
<title>Node1</title>
<g id="a_node1"><a xlink:title=" ">
<polygon fill="#999999" stroke="#666666" points="588.5,-239 481.5,-239 481.5,-220 588.5,-220 588.5,-239"/>
<text text-anchor="middle" x="535" y="-227" font-family="Helvetica,sans-Serif" font-size="10.00">src/ScoreState.cpp</text>
</a>
</g>
</g>
<!-- Node2 -->
<g id="node2" class="node">
<title>Node2</title>
<g id="a_node2"><a xlink:href="ScoreState_8h.html" target="_top" xlink:title=" ">
<polygon fill="white" stroke="#666666" points="574,-184 496,-184 496,-165 574,-165 574,-184"/>
<text text-anchor="middle" x="535" y="-172" font-family="Helvetica,sans-Serif" font-size="10.00">ScoreState.h</text>
</a>
</g>
</g>
<!-- Node1&#45;&gt;Node2 -->
<g id="edge1" class="edge">
<title>Node1&#45;&gt;Node2</title>
<path fill="none" stroke="#63b8ff" d="M535,-219.75C535,-213.27 535,-204.16 535,-195.9"/>
<polygon fill="#63b8ff" stroke="#63b8ff" points="538.5,-195.96 535,-185.96 531.5,-195.96 538.5,-195.96"/>
</g>
<!-- Node3 -->
<g id="node3" class="node">
<title>Node3</title>
<g id="a_node3"><a xlink:title=" ">
<polygon fill="#e0e0e0" stroke="#999999" points="44,-19 0,-19 0,0 44,0 44,-19"/>
<text text-anchor="middle" x="22" y="-7" font-family="Helvetica,sans-Serif" font-size="10.00">string</text>
</a>
</g>
</g>
<!-- Node2&#45;&gt;Node3 -->
<g id="edge2" class="edge">
<title>Node2&#45;&gt;Node3</title>
<path fill="none" stroke="#63b8ff" d="M506.69,-164.5C418.57,-136.51 149.47,-51 55.11,-21.02"/>
<polygon fill="#63b8ff" stroke="#63b8ff" points="56.28,-17.72 45.69,-18.03 54.16,-24.39 56.28,-17.72"/>
</g>
<!-- Node4 -->
<g id="node4" class="node">
<title>Node4</title>
<g id="a_node4"><a xlink:title=" ">
<polygon fill="#e0e0e0" stroke="#999999" points="731,-129 671,-129 671,-110 731,-110 731,-129"/>
<text text-anchor="middle" x="701" y="-117" font-family="Helvetica,sans-Serif" font-size="10.00">iostream</text>
</a>
</g>
</g>
<!-- Node2&#45;&gt;Node4 -->
<g id="edge3" class="edge">
<title>Node2&#45;&gt;Node4</title>
<path fill="none" stroke="#63b8ff" d="M563.16,-164.51C590.43,-155.8 631.99,-142.53 662.35,-132.84"/>
<polygon fill="#63b8ff" stroke="#63b8ff" points="663.08,-136.28 671.54,-129.91 660.95,-129.61 663.08,-136.28"/>
</g>
<!-- Node5 -->
<g id="node5" class="node">
<title>Node5</title>
<g id="a_node5"><a xlink:title=" ">
<polygon fill="#e0e0e0" stroke="#999999" points="432,-74 376,-74 376,-55 432,-55 432,-74"/>
<text text-anchor="middle" x="404" y="-62" font-family="Helvetica,sans-Serif" font-size="10.00">sstream</text>
</a>
</g>
</g>
<!-- Node2&#45;&gt;Node5 -->
<g id="edge4" class="edge">
<title>Node2&#45;&gt;Node5</title>
<path fill="none" stroke="#63b8ff" d="M524.28,-164.66C502.21,-146.47 451.42,-104.6 423.42,-81.51"/>
<polygon fill="#63b8ff" stroke="#63b8ff" points="425.98,-79.08 416.04,-75.42 421.53,-84.48 425.98,-79.08"/>
</g>
<!-- Node6 -->
<g id="node6" class="node">
<title>Node6</title>
<g id="a_node6"><a xlink:title=" ">
<polygon fill="#e0e0e0" stroke="#999999" points="497.5,-74 450.5,-74 450.5,-55 497.5,-55 497.5,-74"/>
<text text-anchor="middle" x="474" y="-62" font-family="Helvetica,sans-Serif" font-size="10.00">vector</text>
</a>
</g>
</g>
<!-- Node2&#45;&gt;Node6 -->
<g id="edge5" class="edge">
<title>Node2&#45;&gt;Node6</title>
<path fill="none" stroke="#63b8ff" d="M530.01,-164.66C520.13,-147.18 497.91,-107.84 484.62,-84.3"/>
<polygon fill="#63b8ff" stroke="#63b8ff" points="487.77,-82.76 479.81,-75.78 481.68,-86.21 487.77,-82.76"/>
</g>
<!-- Node7 -->
<g id="node7" class="node">
<title>Node7</title>
<g id="a_node7"><a xlink:title=" ">
<polygon fill="#e0e0e0" stroke="#999999" points="570.5,-74 515.5,-74 515.5,-55 570.5,-55 570.5,-74"/>
<text text-anchor="middle" x="543" y="-62" font-family="Helvetica,sans-Serif" font-size="10.00">fstream</text>
</a>
</g>
</g>
<!-- Node2&#45;&gt;Node7 -->
<g id="edge6" class="edge">
<title>Node2&#45;&gt;Node7</title>
<path fill="none" stroke="#63b8ff" d="M535.65,-164.66C536.92,-147.57 539.73,-109.61 541.49,-85.92"/>
<polygon fill="#63b8ff" stroke="#63b8ff" points="544.98,-86.2 542.22,-75.97 538,-85.68 544.98,-86.2"/>
</g>
<!-- Node8 -->
<g id="node8" class="node">
<title>Node8</title>
<g id="a_node8"><a xlink:title=" ">
<polygon fill="#e0e0e0" stroke="#999999" points="971,-74 921,-74 921,-55 971,-55 971,-74"/>
<text text-anchor="middle" x="946" y="-62" font-family="Helvetica,sans-Serif" font-size="10.00">chrono</text>
</a>
</g>
</g>
<!-- Node2&#45;&gt;Node8 -->
<g id="edge7" class="edge">
<title>Node2&#45;&gt;Node8</title>
<path fill="none" stroke="#63b8ff" d="M552.91,-164.54C587.89,-147.05 661.91,-110.03 662,-110 765.68,-77.55 799.66,-94.46 909.58,-74.25"/>
<polygon fill="#63b8ff" stroke="#63b8ff" points="910.16,-77.7 919.33,-72.38 908.85,-70.82 910.16,-77.7"/>
</g>
<!-- Node9 -->
<g id="node9" class="node">
<title>Node9</title>
<g id="a_node9"><a xlink:title=" ">
<polygon fill="#e0e0e0" stroke="#999999" points="796.5,-129 749.5,-129 749.5,-110 796.5,-110 796.5,-129"/>
<text text-anchor="middle" x="773" y="-117" font-family="Helvetica,sans-Serif" font-size="10.00">cmath</text>
</a>
</g>
</g>
<!-- Node2&#45;&gt;Node9 -->
<g id="edge8" class="edge">
<title>Node2&#45;&gt;Node9</title>
<path fill="none" stroke="#63b8ff" d="M574.4,-165.42C613.49,-157.29 675.36,-144.16 738.3,-129.33"/>
<polygon fill="#63b8ff" stroke="#63b8ff" points="738.84,-132.8 747.76,-127.09 737.22,-125.99 738.84,-132.8"/>
</g>
<!-- Node10 -->
<g id="node10" class="node">
<title>Node10</title>
<g id="a_node10"><a xlink:href="State_8h.html" target="_top" xlink:title=" ">
<polygon fill="white" stroke="#666666" points="614.5,-129 563.5,-129 563.5,-110 614.5,-110 614.5,-129"/>
<text text-anchor="middle" x="589" y="-117" font-family="Helvetica,sans-Serif" font-size="10.00">State.h</text>
</a>
</g>
</g>
<!-- Node2&#45;&gt;Node10 -->
<g id="edge9" class="edge">
<title>Node2&#45;&gt;Node10</title>
<path fill="none" stroke="#63b8ff" d="M543.92,-164.75C551.45,-157.35 562.47,-146.54 571.73,-137.45"/>
<polygon fill="#63b8ff" stroke="#63b8ff" points="574.12,-140 578.81,-130.5 569.22,-135.01 574.12,-140"/>
</g>
<!-- Node16 -->
<g id="node16" class="node">
<title>Node16</title>
<g id="a_node16"><a xlink:href="AudioController_8h.html" target="_top" xlink:title=" ">
<polygon fill="white" stroke="#666666" points="357.5,-74 256.5,-74 256.5,-55 357.5,-55 357.5,-74"/>
<text text-anchor="middle" x="307" y="-62" font-family="Helvetica,sans-Serif" font-size="10.00">AudioController.h</text>
</a>
</g>
</g>
<!-- Node2&#45;&gt;Node16 -->
<g id="edge28" class="edge">
<title>Node2&#45;&gt;Node16</title>
<path fill="none" stroke="#63b8ff" d="M516.34,-164.66C476.68,-145.87 383.72,-101.84 336.16,-79.31"/>
<polygon fill="#63b8ff" stroke="#63b8ff" points="337.82,-76.23 327.28,-75.11 334.82,-82.55 337.82,-76.23"/>
</g>
<!-- Node10&#45;&gt;Node5 -->
<g id="edge13" class="edge">
<title>Node10&#45;&gt;Node5</title>
<path fill="none" stroke="#63b8ff" d="M563.28,-111.13C532.06,-102.19 479.1,-87.02 442.89,-76.64"/>
<polygon fill="#63b8ff" stroke="#63b8ff" points="444.26,-73.39 433.68,-74 442.33,-80.12 444.26,-73.39"/>
</g>
<!-- Node10&#45;&gt;Node6 -->
<g id="edge15" class="edge">
<title>Node10&#45;&gt;Node6</title>
<path fill="none" stroke="#63b8ff" d="M569.49,-109.51C551.37,-101.16 524.15,-88.61 503.4,-79.05"/>
<polygon fill="#63b8ff" stroke="#63b8ff" points="505.14,-76 494.59,-74.99 502.21,-82.36 505.14,-76"/>
</g>
<!-- Node10&#45;&gt;Node7 -->
<g id="edge12" class="edge">
<title>Node10&#45;&gt;Node7</title>
<path fill="none" stroke="#63b8ff" d="M581.4,-109.75C575.12,-102.5 565.99,-91.98 558.2,-83.02"/>
<polygon fill="#63b8ff" stroke="#63b8ff" points="560.95,-80.84 551.75,-75.59 555.66,-85.43 560.95,-80.84"/>
</g>
<!-- Node10&#45;&gt;Node8 -->
<g id="edge16" class="edge">
<title>Node10&#45;&gt;Node8</title>
<path fill="none" stroke="#63b8ff" d="M614.76,-112.7C619.48,-111.73 624.38,-110.78 629,-110 750.47,-89.4 785.43,-96.95 909.72,-74.21"/>
<polygon fill="#63b8ff" stroke="#63b8ff" points="910.14,-77.7 919.33,-72.42 908.86,-70.81 910.14,-77.7"/>
</g>
<!-- Node11 -->
<g id="node11" class="node">
<title>Node11</title>
<g id="a_node11"><a xlink:title=" ">
<polygon fill="#e0e0e0" stroke="#999999" points="839,-74 795,-74 795,-55 839,-55 839,-74"/>
<text text-anchor="middle" x="817" y="-62" font-family="Helvetica,sans-Serif" font-size="10.00">ctime</text>
</a>
</g>
</g>
<!-- Node10&#45;&gt;Node11 -->
<g id="edge10" class="edge">
<title>Node10&#45;&gt;Node11</title>
<path fill="none" stroke="#63b8ff" d="M614.78,-112.56C651.65,-104.06 721.53,-87.91 781,-74 781.82,-73.81 782.65,-73.61 783.49,-73.42"/>
<polygon fill="#63b8ff" stroke="#63b8ff" points="784.13,-76.86 793.06,-71.17 782.53,-70.05 784.13,-76.86"/>
</g>
<!-- Node12 -->
<g id="node12" class="node">
<title>Node12</title>
<g id="a_node12"><a xlink:title=" ">
<polygon fill="#e0e0e0" stroke="#999999" points="903,-74 857,-74 857,-55 903,-55 903,-74"/>
<text text-anchor="middle" x="880" y="-62" font-family="Helvetica,sans-Serif" font-size="10.00">cstdio</text>
</a>
</g>
</g>
<!-- Node10&#45;&gt;Node12 -->
<g id="edge11" class="edge">
<title>Node10&#45;&gt;Node12</title>
<path fill="none" stroke="#63b8ff" d="M614.79,-112.84C619.51,-111.85 624.4,-110.87 629,-110 722.43,-92.4 749.61,-94.5 845.56,-74.35"/>
<polygon fill="#63b8ff" stroke="#63b8ff" points="846.11,-77.81 855.16,-72.3 844.65,-70.96 846.11,-77.81"/>
</g>
<!-- Node13 -->
<g id="node13" class="node">
<title>Node13</title>
<g id="a_node13"><a xlink:title=" ">
<polygon fill="#e0e0e0" stroke="#999999" points="631.5,-74 588.5,-74 588.5,-55 631.5,-55 631.5,-74"/>
<text text-anchor="middle" x="610" y="-62" font-family="Helvetica,sans-Serif" font-size="10.00">stack</text>
</a>
</g>
</g>
<!-- Node10&#45;&gt;Node13 -->
<g id="edge14" class="edge">
<title>Node10&#45;&gt;Node13</title>
<path fill="none" stroke="#63b8ff" d="M592.47,-109.75C595.13,-103.04 598.9,-93.52 602.26,-85.02"/>
<polygon fill="#63b8ff" stroke="#63b8ff" points="605.47,-86.44 605.9,-75.85 598.96,-83.86 605.47,-86.44"/>
</g>
<!-- Node14 -->
<g id="node14" class="node">
<title>Node14</title>
<g id="a_node14"><a xlink:title=" ">
<polygon fill="#e0e0e0" stroke="#999999" points="738.5,-74 649.5,-74 649.5,-55 738.5,-55 738.5,-74"/>
<text text-anchor="middle" x="694" y="-62" font-family="Helvetica,sans-Serif" font-size="10.00">TGUI/TGUI.hpp</text>
</a>
</g>
</g>
<!-- Node10&#45;&gt;Node14 -->
<g id="edge17" class="edge">
<title>Node10&#45;&gt;Node14</title>
<path fill="none" stroke="#63b8ff" d="M606.81,-109.51C623.13,-101.27 647.53,-88.96 666.37,-79.45"/>
<polygon fill="#63b8ff" stroke="#63b8ff" points="667.75,-82.67 675.1,-75.04 664.6,-76.42 667.75,-82.67"/>
</g>
<!-- Node15 -->
<g id="node15" class="node">
<title>Node15</title>
<g id="a_node15"><a xlink:title=" ">
<polygon fill="#e0e0e0" stroke="#999999" points="804,-19 766,-19 766,0 804,0 804,-19"/>
<text text-anchor="middle" x="785" y="-7" font-family="Helvetica,sans-Serif" font-size="10.00">map</text>
</a>
</g>
</g>
<!-- Node10&#45;&gt;Node15 -->
<g id="edge18" class="edge">
<title>Node10&#45;&gt;Node15</title>
<path fill="none" stroke="#63b8ff" d="M614.78,-112.41C657.02,-102.27 737.37,-82.22 748,-74 762.51,-62.78 772.39,-44.14 778.27,-29.95"/>
<polygon fill="#63b8ff" stroke="#63b8ff" points="781.48,-31.34 781.74,-20.75 774.93,-28.87 781.48,-31.34"/>
</g>
<!-- Node10&#45;&gt;Node16 -->
<g id="edge19" class="edge">
<title>Node10&#45;&gt;Node16</title>
<path fill="none" stroke="#63b8ff" d="M563.48,-113.7C519.12,-105.37 426.74,-88 365.81,-76.55"/>
<polygon fill="#63b8ff" stroke="#63b8ff" points="366.79,-73.17 356.31,-74.77 365.49,-80.05 366.79,-73.17"/>
</g>
<!-- Node16&#45;&gt;Node3 -->
<g id="edge25" class="edge">
<title>Node16&#45;&gt;Node3</title>
<path fill="none" stroke="#63b8ff" d="M256.12,-56.03C207.05,-48.5 130.49,-35.92 55.36,-19.35"/>
<polygon fill="#63b8ff" stroke="#63b8ff" points="56.29,-15.98 45.77,-17.21 54.76,-22.81 56.29,-15.98"/>
</g>
<!-- Node16&#45;&gt;Node15 -->
<g id="edge24" class="edge">
<title>Node16&#45;&gt;Node15</title>
<path fill="none" stroke="#63b8ff" d="M357.72,-56.14C360.86,-55.74 363.97,-55.35 367,-55 536.26,-35.21 584.18,-51.73 754.42,-19.12"/>
<polygon fill="#63b8ff" stroke="#63b8ff" points="754.91,-22.59 764.06,-17.25 753.58,-15.72 754.91,-22.59"/>
</g>
<!-- Node17 -->
<g id="node17" class="node">
<title>Node17</title>
<g id="a_node17"><a xlink:title=" ">
<polygon fill="#e0e0e0" stroke="#999999" points="207.5,-19 112.5,-19 112.5,0 207.5,0 207.5,-19"/>
<text text-anchor="middle" x="160" y="-7" font-family="Helvetica,sans-Serif" font-size="10.00">SFML/Audio.hpp</text>
</a>
</g>
</g>
<!-- Node16&#45;&gt;Node17 -->
<g id="edge20" class="edge">
<title>Node16&#45;&gt;Node17</title>
<path fill="none" stroke="#63b8ff" d="M282.06,-54.51C258.16,-45.89 221.86,-32.8 195.05,-23.14"/>
<polygon fill="#63b8ff" stroke="#63b8ff" points="196.59,-19.97 185.99,-19.87 194.21,-26.56 196.59,-19.97"/>
</g>
<!-- Node18 -->
<g id="node18" class="node">
<title>Node18</title>
<g id="a_node18"><a xlink:title=" ">
<polygon fill="#e0e0e0" stroke="#999999" points="352,-19 226,-19 226,0 352,0 352,-19"/>
<text text-anchor="middle" x="289" y="-7" font-family="Helvetica,sans-Serif" font-size="10.00">SFML/Audio/Music.hpp</text>
</a>
</g>
</g>
<!-- Node16&#45;&gt;Node18 -->
<g id="edge21" class="edge">
<title>Node16&#45;&gt;Node18</title>
<path fill="none" stroke="#63b8ff" d="M304.03,-54.75C301.77,-48.11 298.59,-38.73 295.73,-30.31"/>
<polygon fill="#63b8ff" stroke="#63b8ff" points="299.05,-29.22 292.52,-20.88 292.43,-31.47 299.05,-29.22"/>
</g>
<!-- Node19 -->
<g id="node19" class="node">
<title>Node19</title>
<g id="a_node19"><a xlink:title=" ">
<polygon fill="#e0e0e0" stroke="#999999" points="498,-19 370,-19 370,0 498,0 498,-19"/>
<text text-anchor="middle" x="434" y="-7" font-family="Helvetica,sans-Serif" font-size="10.00">SFML/Audio/Sound.hpp</text>
</a>
</g>
</g>
<!-- Node16&#45;&gt;Node19 -->
<g id="edge22" class="edge">
<title>Node16&#45;&gt;Node19</title>
<path fill="none" stroke="#63b8ff" d="M328.54,-54.51C348.74,-46.08 379.17,-33.38 402.16,-23.79"/>
<polygon fill="#63b8ff" stroke="#63b8ff" points="403.5,-27.02 411.38,-19.94 400.8,-20.56 403.5,-27.02"/>
</g>
<!-- Node20 -->
<g id="node20" class="node">
<title>Node20</title>
<g id="a_node20"><a xlink:title=" ">
<polygon fill="#e0e0e0" stroke="#999999" points="672,-19 516,-19 516,0 672,0 672,-19"/>
<text text-anchor="middle" x="594" y="-7" font-family="Helvetica,sans-Serif" font-size="10.00">SFML/Audio/SoundBuffer.hpp</text>
</a>
</g>
</g>
<!-- Node16&#45;&gt;Node20 -->
<g id="edge23" class="edge">
<title>Node16&#45;&gt;Node20</title>
<path fill="none" stroke="#63b8ff" d="M355.69,-54.51C405,-45.4 481.36,-31.3 534.3,-21.52"/>
<polygon fill="#63b8ff" stroke="#63b8ff" points="534.87,-24.98 544.07,-19.72 533.6,-18.1 534.87,-24.98"/>
</g>
<!-- Node21 -->
<g id="node21" class="node">
<title>Node21</title>
<g id="a_node21"><a xlink:title=" ">
<polygon fill="#e0e0e0" stroke="#999999" points="748,-19 690,-19 690,0 748,0 748,-19"/>
<text text-anchor="middle" x="719" y="-7" font-family="Helvetica,sans-Serif" font-size="10.00">memory</text>
</a>
</g>
</g>
<!-- Node16&#45;&gt;Node21 -->
<g id="edge26" class="edge">
<title>Node16&#45;&gt;Node21</title>
<path fill="none" stroke="#63b8ff" d="M357.73,-56.22C360.86,-55.8 363.97,-55.39 367,-55 502.79,-37.6 540.58,-42.11 678.61,-19.24"/>
<polygon fill="#63b8ff" stroke="#63b8ff" points="678.83,-22.76 688.11,-17.65 677.67,-15.85 678.83,-22.76"/>
</g>
<!-- Node22 -->
<g id="node22" class="node">
<title>Node22</title>
<g id="a_node22"><a xlink:title=" ">
<polygon fill="#e0e0e0" stroke="#999999" points="94,-19 62,-19 62,0 94,0 94,-19"/>
<text text-anchor="middle" x="78" y="-7" font-family="Helvetica,sans-Serif" font-size="10.00">list</text>
</a>
</g>
</g>
<!-- Node16&#45;&gt;Node22 -->
<g id="edge27" class="edge">
<title>Node16&#45;&gt;Node22</title>
<path fill="none" stroke="#63b8ff" d="M258.4,-54.5C219.26,-46.9 162.67,-35.1 105.08,-19.34"/>
<polygon fill="#63b8ff" stroke="#63b8ff" points="106.35,-16.06 95.78,-16.75 104.48,-22.8 106.35,-16.06"/>
</g>
</g>
</svg>
