<?xml version="1.0" encoding="UTF-8" standalone="no"?>
<!DOCTYPE svg PUBLIC "-//W3C//DTD SVG 1.1//EN"
 "http://www.w3.org/Graphics/SVG/1.1/DTD/svg11.dtd">
<!-- Generated by graphviz version 7.0.5 (0)
 -->
<!-- Title: src/SettingState.h Pages: 1 -->
<!--zoomable 192 -->
<svg id="main" version="1.1" xmlns="http://www.w3.org/2000/svg" xmlns:xlink="http://www.w3.org/1999/xlink" xml:space="preserve" onload="init(evt)">
<style type="text/css"><![CDATA[
.edge:hover path { stroke: red; }
.edge:hover polygon { stroke: red; fill: red; }
]]></style>
<script type="text/javascript"><![CDATA[
var edges = document.getElementsByTagName('g');
if (edges && edges.length) {
  for (var i=0;i<edges.length;i++) {
    if (edges[i].id.substr(0,4)=='edge') {
      edges[i].setAttribute('class','edge');
    }
  }
}
]]></script>
        <defs>
                <circle id="rim" cx="0" cy="0" r="7"/>
                <circle id="rim2" cx="0" cy="0" r="3.5"/>
                <g id="zoomPlus">
                        <use xlink:href="#rim" fill="#404040">
                                <set attributeName="fill" to="#808080" begin="zoomplus.mouseover" end="zoomplus.mouseout"/>
                        </use>
                        <path d="M-4,0h8M0,-4v8" fill="none" stroke="white" stroke-width="1.5" pointer-events="none"/>
                </g>
                <g id="zoomMin">
                        <use xlink:href="#rim" fill="#404040">
                                <set attributeName="fill" to="#808080" begin="zoomminus.mouseover" end="zoomminus.mouseout"/>
                        </use>
                        <path d="M-4,0h8" fill="none" stroke="white" stroke-width="1.5" pointer-events="none"/>
                </g>
                <g id="dirArrow">
                        <path fill="none" stroke="white" stroke-width="1.5" d="M0,-3.0v7 M-2.5,-0.5L0,-3.0L2.5,-0.5"/>
                </g>
               <g id="resetDef">
                       <use xlink:href="#rim2" fill="#404040">
                               <set attributeName="fill" to="#808080" begin="reset.mouseover" end="reset.mouseout"/>
                       </use>
               </g>
        </defs>

<script type="text/javascript">
var viewWidth = 1106;
var viewHeight = 192;
var sectionId = 'dynsection-0';
</script>
<script xlink:href="svgpan.js"/>
<svg id="graph" class="graph">
<g id="viewport">
<title>src/SettingState.h</title>
<!-- Node1 -->
<g id="node1" class="node">
<title>Node1</title>
<g id="a_node1"><a xlink:title=" ">
<polygon fill="#999999" stroke="#666666" points="201.98,-184 98.98,-184 98.98,-165 201.98,-165 201.98,-184"/>
<text text-anchor="middle" x="150.48" y="-172" font-family="Helvetica,sans-Serif" font-size="10.00">src/SettingState.h</text>
</a>
</g>
</g>
<!-- Node2 -->
<g id="node2" class="node">
<title>Node2</title>
<g id="a_node2"><a xlink:title=" ">
<polygon fill="#e0e0e0" stroke="#999999" points="201.48,-19 157.48,-19 157.48,0 201.48,0 201.48,-19"/>
<text text-anchor="middle" x="179.48" y="-7" font-family="Helvetica,sans-Serif" font-size="10.00">string</text>
</a>
</g>
</g>
<!-- Node1&#45;&gt;Node2 -->
<g id="edge1" class="edge">
<title>Node1&#45;&gt;Node2</title>
<path fill="none" stroke="#63b8ff" d="M98.73,-170.59C69.29,-165.98 34.59,-154.92 15.48,-129 -4.04,-102.53 -5.53,-81.11 14.48,-55 30.38,-34.23 102.66,-20.96 146.1,-14.71"/>
<polygon fill="#63b8ff" stroke="#63b8ff" points="146.34,-18.21 155.76,-13.38 145.38,-11.28 146.34,-18.21"/>
</g>
<!-- Node3 -->
<g id="node3" class="node">
<title>Node3</title>
<g id="a_node3"><a xlink:title=" ">
<polygon fill="#e0e0e0" stroke="#999999" points="84.48,-129 24.48,-129 24.48,-110 84.48,-110 84.48,-129"/>
<text text-anchor="middle" x="54.48" y="-117" font-family="Helvetica,sans-Serif" font-size="10.00">iostream</text>
</a>
</g>
</g>
<!-- Node1&#45;&gt;Node3 -->
<g id="edge2" class="edge">
<title>Node1&#45;&gt;Node3</title>
<path fill="none" stroke="#63b8ff" d="M134.19,-164.51C119.48,-156.39 97.58,-144.3 80.46,-134.85"/>
<polygon fill="#63b8ff" stroke="#63b8ff" points="82.29,-131.86 71.84,-130.09 78.91,-137.99 82.29,-131.86"/>
</g>
<!-- Node4 -->
<g id="node4" class="node">
<title>Node4</title>
<g id="a_node4"><a xlink:title=" ">
<polygon fill="#e0e0e0" stroke="#999999" points="79.48,-74 23.48,-74 23.48,-55 79.48,-55 79.48,-74"/>
<text text-anchor="middle" x="51.48" y="-62" font-family="Helvetica,sans-Serif" font-size="10.00">sstream</text>
</a>
</g>
</g>
<!-- Node1&#45;&gt;Node4 -->
<g id="edge3" class="edge">
<title>Node1&#45;&gt;Node4</title>
<path fill="none" stroke="#63b8ff" d="M142.8,-164.81C131.92,-152.52 111.33,-129.4 93.48,-110 85.02,-100.82 75.48,-90.69 67.63,-82.42"/>
<polygon fill="#63b8ff" stroke="#63b8ff" points="70.38,-80.23 60.95,-75.4 65.31,-85.06 70.38,-80.23"/>
</g>
<!-- Node5 -->
<g id="node5" class="node">
<title>Node5</title>
<g id="a_node5"><a xlink:title=" ">
<polygon fill="#e0e0e0" stroke="#999999" points="144.98,-74 97.98,-74 97.98,-55 144.98,-55 144.98,-74"/>
<text text-anchor="middle" x="121.48" y="-62" font-family="Helvetica,sans-Serif" font-size="10.00">vector</text>
</a>
</g>
</g>
<!-- Node1&#45;&gt;Node5 -->
<g id="edge4" class="edge">
<title>Node1&#45;&gt;Node5</title>
<path fill="none" stroke="#63b8ff" d="M148.1,-164.66C143.47,-147.42 133.13,-108.9 126.78,-85.27"/>
<polygon fill="#63b8ff" stroke="#63b8ff" points="130.25,-84.67 124.27,-75.92 123.49,-86.49 130.25,-84.67"/>
</g>
<!-- Node6 -->
<g id="node6" class="node">
<title>Node6</title>
<g id="a_node6"><a xlink:title=" ">
<polygon fill="#e0e0e0" stroke="#999999" points="217.98,-74 162.98,-74 162.98,-55 217.98,-55 217.98,-74"/>
<text text-anchor="middle" x="190.48" y="-62" font-family="Helvetica,sans-Serif" font-size="10.00">fstream</text>
</a>
</g>
</g>
<!-- Node1&#45;&gt;Node6 -->
<g id="edge5" class="edge">
<title>Node1&#45;&gt;Node6</title>
<path fill="none" stroke="#63b8ff" d="M153.75,-164.66C160.17,-147.34 174.53,-108.55 183.27,-84.95"/>
<polygon fill="#63b8ff" stroke="#63b8ff" points="186.44,-86.47 186.63,-75.88 179.88,-84.04 186.44,-86.47"/>
</g>
<!-- Node7 -->
<g id="node7" class="node">
<title>Node7</title>
<g id="a_node7"><a xlink:href="State_8h.html" target="_top" xlink:title=" ">
<polygon fill="white" stroke="#666666" points="374.98,-129 323.98,-129 323.98,-110 374.98,-110 374.98,-129"/>
<text text-anchor="middle" x="349.48" y="-117" font-family="Helvetica,sans-Serif" font-size="10.00">State.h</text>
</a>
</g>
</g>
<!-- Node1&#45;&gt;Node7 -->
<g id="edge6" class="edge">
<title>Node1&#45;&gt;Node7</title>
<path fill="none" stroke="#63b8ff" d="M184.23,-164.51C219.91,-155.01 275.99,-140.07 312.75,-130.28"/>
<polygon fill="#63b8ff" stroke="#63b8ff" points="313.27,-133.76 322.03,-127.81 311.47,-127 313.27,-133.76"/>
</g>
<!-- Node14 -->
<g id="node14" class="node">
<title>Node14</title>
<g id="a_node14"><a xlink:href="AudioController_8h.html" target="_top" xlink:title=" ">
<polygon fill="white" stroke="#666666" points="738.98,-74 637.98,-74 637.98,-55 738.98,-55 738.98,-74"/>
<text text-anchor="middle" x="688.48" y="-62" font-family="Helvetica,sans-Serif" font-size="10.00">AudioController.h</text>
</a>
</g>
</g>
<!-- Node1&#45;&gt;Node14 -->
<g id="edge25" class="edge">
<title>Node1&#45;&gt;Node14</title>
<path fill="none" stroke="#63b8ff" d="M198.72,-164.53C245.87,-155.7 319.67,-141.74 383.48,-129 471.92,-111.35 574.55,-89.75 635.36,-76.84"/>
<polygon fill="#63b8ff" stroke="#63b8ff" points="636.05,-80.27 645.1,-74.77 634.6,-73.42 636.05,-80.27"/>
</g>
<!-- Node7&#45;&gt;Node4 -->
<g id="edge10" class="edge">
<title>Node7&#45;&gt;Node4</title>
<path fill="none" stroke="#63b8ff" d="M323.82,-114.62C278.77,-107.71 182.27,-92.42 90.84,-74.38"/>
<polygon fill="#63b8ff" stroke="#63b8ff" points="91.7,-70.98 81.21,-72.46 90.33,-77.84 91.7,-70.98"/>
</g>
<!-- Node7&#45;&gt;Node5 -->
<g id="edge12" class="edge">
<title>Node7&#45;&gt;Node5</title>
<path fill="none" stroke="#63b8ff" d="M323.72,-112.97C288.16,-105.26 221.78,-90.63 156.16,-74.6"/>
<polygon fill="#63b8ff" stroke="#63b8ff" points="157.23,-71.26 146.69,-72.27 155.56,-78.05 157.23,-71.26"/>
</g>
<!-- Node7&#45;&gt;Node6 -->
<g id="edge9" class="edge">
<title>Node7&#45;&gt;Node6</title>
<path fill="none" stroke="#63b8ff" d="M323.58,-109.87C297.67,-101.23 257.55,-87.86 228.13,-78.05"/>
<polygon fill="#63b8ff" stroke="#63b8ff" points="229.46,-74.8 218.86,-74.96 227.24,-81.45 229.46,-74.8"/>
</g>
<!-- Node8 -->
<g id="node8" class="node">
<title>Node8</title>
<g id="a_node8"><a xlink:title=" ">
<polygon fill="#e0e0e0" stroke="#999999" points="494.48,-74 450.48,-74 450.48,-55 494.48,-55 494.48,-74"/>
<text text-anchor="middle" x="472.48" y="-62" font-family="Helvetica,sans-Serif" font-size="10.00">ctime</text>
</a>
</g>
</g>
<!-- Node7&#45;&gt;Node8 -->
<g id="edge7" class="edge">
<title>Node7&#45;&gt;Node8</title>
<path fill="none" stroke="#63b8ff" d="M370.34,-109.51C389.9,-101.08 419.37,-88.38 441.64,-78.79"/>
<polygon fill="#63b8ff" stroke="#63b8ff" points="442.73,-82.13 450.53,-74.96 439.96,-75.7 442.73,-82.13"/>
</g>
<!-- Node9 -->
<g id="node9" class="node">
<title>Node9</title>
<g id="a_node9"><a xlink:title=" ">
<polygon fill="#e0e0e0" stroke="#999999" points="558.48,-74 512.48,-74 512.48,-55 558.48,-55 558.48,-74"/>
<text text-anchor="middle" x="535.48" y="-62" font-family="Helvetica,sans-Serif" font-size="10.00">cstdio</text>
</a>
</g>
</g>
<!-- Node7&#45;&gt;Node9 -->
<g id="edge8" class="edge">
<title>Node7&#45;&gt;Node9</title>
<path fill="none" stroke="#63b8ff" d="M375.34,-111.13C408.12,-101.79 464.75,-85.65 501.13,-75.29"/>
<polygon fill="#63b8ff" stroke="#63b8ff" points="502.06,-78.66 510.72,-72.55 500.15,-71.93 502.06,-78.66"/>
</g>
<!-- Node10 -->
<g id="node10" class="node">
<title>Node10</title>
<g id="a_node10"><a xlink:title=" ">
<polygon fill="#e0e0e0" stroke="#999999" points="619.98,-74 576.98,-74 576.98,-55 619.98,-55 619.98,-74"/>
<text text-anchor="middle" x="598.48" y="-62" font-family="Helvetica,sans-Serif" font-size="10.00">stack</text>
</a>
</g>
</g>
<!-- Node7&#45;&gt;Node10 -->
<g id="edge11" class="edge">
<title>Node7&#45;&gt;Node10</title>
<path fill="none" stroke="#63b8ff" d="M375.44,-113.78C414.5,-106.55 490.93,-91.93 565.52,-74.33"/>
<polygon fill="#63b8ff" stroke="#63b8ff" points="566.12,-77.79 575.03,-72.07 564.5,-70.98 566.12,-77.79"/>
</g>
<!-- Node11 -->
<g id="node11" class="node">
<title>Node11</title>
<g id="a_node11"><a xlink:title=" ">
<polygon fill="#e0e0e0" stroke="#999999" points="286.48,-74 236.48,-74 236.48,-55 286.48,-55 286.48,-74"/>
<text text-anchor="middle" x="261.48" y="-62" font-family="Helvetica,sans-Serif" font-size="10.00">chrono</text>
</a>
</g>
</g>
<!-- Node7&#45;&gt;Node11 -->
<g id="edge13" class="edge">
<title>Node7&#45;&gt;Node11</title>
<path fill="none" stroke="#63b8ff" d="M334.55,-109.51C321.19,-101.47 301.37,-89.53 285.74,-80.11"/>
<polygon fill="#63b8ff" stroke="#63b8ff" points="287.85,-77.3 277.48,-75.14 284.24,-83.3 287.85,-77.3"/>
</g>
<!-- Node12 -->
<g id="node12" class="node">
<title>Node12</title>
<g id="a_node12"><a xlink:title=" ">
<polygon fill="#e0e0e0" stroke="#999999" points="393.98,-74 304.98,-74 304.98,-55 393.98,-55 393.98,-74"/>
<text text-anchor="middle" x="349.48" y="-62" font-family="Helvetica,sans-Serif" font-size="10.00">TGUI/TGUI.hpp</text>
</a>
</g>
</g>
<!-- Node7&#45;&gt;Node12 -->
<g id="edge14" class="edge">
<title>Node7&#45;&gt;Node12</title>
<path fill="none" stroke="#63b8ff" d="M349.48,-109.75C349.48,-103.27 349.48,-94.16 349.48,-85.9"/>
<polygon fill="#63b8ff" stroke="#63b8ff" points="352.98,-85.96 349.48,-75.96 345.98,-85.96 352.98,-85.96"/>
</g>
<!-- Node13 -->
<g id="node13" class="node">
<title>Node13</title>
<g id="a_node13"><a xlink:title=" ">
<polygon fill="#e0e0e0" stroke="#999999" points="394.48,-19 356.48,-19 356.48,0 394.48,0 394.48,-19"/>
<text text-anchor="middle" x="375.48" y="-7" font-family="Helvetica,sans-Serif" font-size="10.00">map</text>
</a>
</g>
</g>
<!-- Node7&#45;&gt;Node13 -->
<g id="edge15" class="edge">
<title>Node7&#45;&gt;Node13</title>
<path fill="none" stroke="#63b8ff" d="M366.58,-109.56C379.09,-101.97 395.12,-89.79 402.48,-74 409.65,-58.6 400.59,-40.77 391.08,-27.93"/>
<polygon fill="#63b8ff" stroke="#63b8ff" points="393.96,-25.93 384.93,-20.38 388.53,-30.35 393.96,-25.93"/>
</g>
<!-- Node7&#45;&gt;Node14 -->
<g id="edge16" class="edge">
<title>Node7&#45;&gt;Node14</title>
<path fill="none" stroke="#63b8ff" d="M375.23,-114.47C428.36,-106.17 551.41,-86.93 626.5,-75.19"/>
<polygon fill="#63b8ff" stroke="#63b8ff" points="626.83,-78.68 636.17,-73.68 625.75,-71.76 626.83,-78.68"/>
</g>
<!-- Node14&#45;&gt;Node2 -->
<g id="edge22" class="edge">
<title>Node14&#45;&gt;Node2</title>
<path fill="none" stroke="#63b8ff" d="M637.65,-56.03C634.88,-55.67 632.15,-55.32 629.48,-55 474.08,-36.13 287.75,-19.66 212.95,-13.3"/>
<polygon fill="#63b8ff" stroke="#63b8ff" points="213.29,-9.81 203.03,-12.46 212.7,-16.79 213.29,-9.81"/>
</g>
<!-- Node14&#45;&gt;Node13 -->
<g id="edge21" class="edge">
<title>Node14&#45;&gt;Node13</title>
<path fill="none" stroke="#63b8ff" d="M637.62,-55.95C568.8,-45.69 450.28,-27.8 405.99,-19.13"/>
<polygon fill="#63b8ff" stroke="#63b8ff" points="406.95,-15.75 396.44,-17.11 405.5,-22.6 406.95,-15.75"/>
</g>
<!-- Node15 -->
<g id="node15" class="node">
<title>Node15</title>
<g id="a_node15"><a xlink:title=" ">
<polygon fill="#e0e0e0" stroke="#999999" points="507.98,-19 412.98,-19 412.98,0 507.98,0 507.98,-19"/>
<text text-anchor="middle" x="460.48" y="-7" font-family="Helvetica,sans-Serif" font-size="10.00">SFML/Audio.hpp</text>
</a>
</g>
</g>
<!-- Node14&#45;&gt;Node15 -->
<g id="edge17" class="edge">
<title>Node14&#45;&gt;Node15</title>
<path fill="none" stroke="#63b8ff" d="M649.8,-54.51C611.28,-45.55 551.99,-31.77 510.03,-22.02"/>
<polygon fill="#63b8ff" stroke="#63b8ff" points="510.97,-18.64 500.44,-19.79 509.38,-25.46 510.97,-18.64"/>
</g>
<!-- Node16 -->
<g id="node16" class="node">
<title>Node16</title>
<g id="a_node16"><a xlink:title=" ">
<polygon fill="#e0e0e0" stroke="#999999" points="652.48,-19 526.48,-19 526.48,0 652.48,0 652.48,-19"/>
<text text-anchor="middle" x="589.48" y="-7" font-family="Helvetica,sans-Serif" font-size="10.00">SFML/Audio/Music.hpp</text>
</a>
</g>
</g>
<!-- Node14&#45;&gt;Node16 -->
<g id="edge18" class="edge">
<title>Node14&#45;&gt;Node16</title>
<path fill="none" stroke="#63b8ff" d="M671.68,-54.51C656.37,-46.31 633.5,-34.07 615.77,-24.58"/>
<polygon fill="#63b8ff" stroke="#63b8ff" points="617.82,-21.71 607.36,-20.07 614.52,-27.88 617.82,-21.71"/>
</g>
<!-- Node17 -->
<g id="node17" class="node">
<title>Node17</title>
<g id="a_node17"><a xlink:title=" ">
<polygon fill="#e0e0e0" stroke="#999999" points="798.48,-19 670.48,-19 670.48,0 798.48,0 798.48,-19"/>
<text text-anchor="middle" x="734.48" y="-7" font-family="Helvetica,sans-Serif" font-size="10.00">SFML/Audio/Sound.hpp</text>
</a>
</g>
</g>
<!-- Node14&#45;&gt;Node17 -->
<g id="edge19" class="edge">
<title>Node14&#45;&gt;Node17</title>
<path fill="none" stroke="#63b8ff" d="M696.07,-54.75C702.36,-47.5 711.49,-36.98 719.27,-28.02"/>
<polygon fill="#63b8ff" stroke="#63b8ff" points="721.81,-30.43 725.72,-20.59 716.52,-25.84 721.81,-30.43"/>
</g>
<!-- Node18 -->
<g id="node18" class="node">
<title>Node18</title>
<g id="a_node18"><a xlink:title=" ">
<polygon fill="#e0e0e0" stroke="#999999" points="972.48,-19 816.48,-19 816.48,0 972.48,0 972.48,-19"/>
<text text-anchor="middle" x="894.48" y="-7" font-family="Helvetica,sans-Serif" font-size="10.00">SFML/Audio/SoundBuffer.hpp</text>
</a>
</g>
</g>
<!-- Node14&#45;&gt;Node18 -->
<g id="edge20" class="edge">
<title>Node14&#45;&gt;Node18</title>
<path fill="none" stroke="#63b8ff" d="M723.42,-54.51C758,-45.61 811.11,-31.95 848.97,-22.21"/>
<polygon fill="#63b8ff" stroke="#63b8ff" points="849.42,-25.7 858.24,-19.82 847.68,-18.93 849.42,-25.7"/>
</g>
<!-- Node19 -->
<g id="node19" class="node">
<title>Node19</title>
<g id="a_node19"><a xlink:title=" ">
<polygon fill="#e0e0e0" stroke="#999999" points="1048.48,-19 990.48,-19 990.48,0 1048.48,0 1048.48,-19"/>
<text text-anchor="middle" x="1019.48" y="-7" font-family="Helvetica,sans-Serif" font-size="10.00">memory</text>
</a>
</g>
</g>
<!-- Node14&#45;&gt;Node19 -->
<g id="edge23" class="edge">
<title>Node14&#45;&gt;Node19</title>
<path fill="none" stroke="#63b8ff" d="M739.47,-56.85C795.72,-49.27 889.16,-35.96 978.86,-19.38"/>
<polygon fill="#63b8ff" stroke="#63b8ff" points="979.38,-22.85 988.57,-17.57 978.1,-15.96 979.38,-22.85"/>
</g>
<!-- Node20 -->
<g id="node20" class="node">
<title>Node20</title>
<g id="a_node20"><a xlink:title=" ">
<polygon fill="#e0e0e0" stroke="#999999" points="1098.48,-19 1066.48,-19 1066.48,0 1098.48,0 1098.48,-19"/>
<text text-anchor="middle" x="1082.48" y="-7" font-family="Helvetica,sans-Serif" font-size="10.00">list</text>
</a>
</g>
</g>
<!-- Node14&#45;&gt;Node20 -->
<g id="edge24" class="edge">
<title>Node14&#45;&gt;Node20</title>
<path fill="none" stroke="#63b8ff" d="M739.18,-60.73C808.66,-56.19 937.39,-45.19 1055.21,-19.06"/>
<polygon fill="#63b8ff" stroke="#63b8ff" points="1055.75,-22.53 1064.73,-16.91 1054.21,-15.7 1055.75,-22.53"/>
</g>
</g>
</svg>
        <g id="navigator" transform="translate(0 0)" fill="#404254">
                <rect fill="#f2f5e9" fill-opacity="0.5" stroke="#606060" stroke-width=".5" x="0" y="0" width="60" height="60"/>
                <use id="zoomplus" xlink:href="#zoomPlus" x="17" y="9" onmousedown="handleZoom(evt,'in')"/>
                <use id="zoomminus" xlink:href="#zoomMin" x="42" y="9" onmousedown="handleZoom(evt,'out')"/>
                <use id="reset" xlink:href="#resetDef" x="30" y="36" onmousedown="handleReset()"/>
                <g id="arrowUp" xlink:href="#dirArrow" transform="translate(30 24)" onmousedown="handlePan(0,-1)">
                  <use xlink:href="#rim" fill="#404040">
                        <set attributeName="fill" to="#808080" begin="arrowUp.mouseover" end="arrowUp.mouseout"/>
                  </use>
                  <path fill="none" stroke="white" stroke-width="1.5" d="M0,-3.0v7 M-2.5,-0.5L0,-3.0L2.5,-0.5"/>
                </g>
                <g id="arrowRight" xlink:href="#dirArrow" transform="rotate(90) translate(36 -43)" onmousedown="handlePan(1,0)">
                  <use xlink:href="#rim" fill="#404040">
                        <set attributeName="fill" to="#808080" begin="arrowRight.mouseover" end="arrowRight.mouseout"/>
                  </use>
                  <path fill="none" stroke="white" stroke-width="1.5" d="M0,-3.0v7 M-2.5,-0.5L0,-3.0L2.5,-0.5"/>
                </g>
                <g id="arrowDown" xlink:href="#dirArrow" transform="rotate(180) translate(-30 -48)" onmousedown="handlePan(0,1)">
                  <use xlink:href="#rim" fill="#404040">
                        <set attributeName="fill" to="#808080" begin="arrowDown.mouseover" end="arrowDown.mouseout"/>
                  </use>
                  <path fill="none" stroke="white" stroke-width="1.5" d="M0,-3.0v7 M-2.5,-0.5L0,-3.0L2.5,-0.5"/>
                </g>
                <g id="arrowLeft" xlink:href="#dirArrow" transform="rotate(270) translate(-36 17)" onmousedown="handlePan(-1,0)">
                  <use xlink:href="#rim" fill="#404040">
                        <set attributeName="fill" to="#808080" begin="arrowLeft.mouseover" end="arrowLeft.mouseout"/>
                  </use>
                  <path fill="none" stroke="white" stroke-width="1.5" d="M0,-3.0v7 M-2.5,-0.5L0,-3.0L2.5,-0.5"/>
                </g>
        </g>
        <svg viewBox="0 0 15 15" width="100%" height="30px" preserveAspectRatio="xMaxYMin meet">
         <g id="arrow_out" transform="scale(0.3 0.3)">
          <a xlink:href="SettingState_8h__incl_org.svg" target="_base">
           <rect id="button" ry="5" rx="5" y="6" x="6" height="38" width="38"
                fill="#f2f5e9" fill-opacity="0.5" stroke="#606060" stroke-width="1.0"/>
           <path id="arrow"
             d="M 11.500037,31.436501 C 11.940474,20.09759 22.043105,11.32322 32.158766,21.979434 L 37.068811,17.246167 C 37.068811,17.246167 37.088388,32 37.088388,32 L 22.160133,31.978069 C 22.160133,31.978069 26.997745,27.140456 26.997745,27.140456 C 18.528582,18.264221 13.291696,25.230495 11.500037,31.436501 z"
             style="fill:#404040;"/>
          </a>
         </g>
        </svg>
</svg>
