<?xml version="1.0" encoding="UTF-8" standalone="no"?>
<!DOCTYPE svg PUBLIC "-//W3C//DTD SVG 1.1//EN"
 "http://www.w3.org/Graphics/SVG/1.1/DTD/svg11.dtd">
<!-- Generated by graphviz version 7.0.5 (0)
 -->
<!-- Title: src/Sortable.h Pages: 1 -->
<svg width="116pt" height="137pt"
 viewBox="0.00 0.00 116.00 137.00" xmlns="http://www.w3.org/2000/svg" xmlns:xlink="http://www.w3.org/1999/xlink">
<g id="graph0" class="graph" transform="scale(1 1) rotate(0) translate(4 133)">
<title>src/Sortable.h</title>
<!-- Node1 -->
<g id="node1" class="node">
<title>Node1</title>
<g id="a_node1"><a xlink:title=" ">
<polygon fill="#999999" stroke="#666666" points="83,-129 0,-129 0,-110 83,-110 83,-129"/>
<text text-anchor="middle" x="41.5" y="-117" font-family="Helvetica,sans-Serif" font-size="10.00">src/Sortable.h</text>
</a>
</g>
</g>
<!-- Node2 -->
<g id="node2" class="node">
<title>Node2</title>
<g id="a_node2"><a xlink:href="Layer_8cpp.html" target="_top" xlink:title=" ">
<polygon fill="white" stroke="#666666" points="81.5,-19 1.5,-19 1.5,0 81.5,0 81.5,-19"/>
<text text-anchor="middle" x="41.5" y="-7" font-family="Helvetica,sans-Serif" font-size="10.00">src/Layer.cpp</text>
</a>
</g>
</g>
<!-- Node1&#45;&gt;Node2 -->
<g id="edge1" class="edge">
<title>Node1&#45;&gt;Node2</title>
<path fill="none" stroke="#63b8ff" d="M34.41,-98.57C30.81,-86.11 27.56,-69.68 29.5,-55 31.18,-42.31 35.45,-28.1 38.41,-19.23"/>
<polygon fill="#63b8ff" stroke="#63b8ff" points="31.08,-99.63 37.49,-108.07 37.74,-97.48 31.08,-99.63"/>
</g>
<!-- Node3 -->
<g id="node3" class="node">
<title>Node3</title>
<g id="a_node3"><a xlink:href="Layer_8h.html" target="_top" xlink:title=" ">
<polygon fill="white" stroke="#666666" points="108,-74 39,-74 39,-55 108,-55 108,-74"/>
<text text-anchor="middle" x="73.5" y="-62" font-family="Helvetica,sans-Serif" font-size="10.00">src/Layer.h</text>
</a>
</g>
</g>
<!-- Node1&#45;&gt;Node3 -->
<g id="edge2" class="edge">
<title>Node1&#45;&gt;Node3</title>
<path fill="none" stroke="#63b8ff" d="M52.62,-100.08C57.86,-91.4 63.88,-81.44 68.1,-74.44"/>
<polygon fill="#63b8ff" stroke="#63b8ff" points="49.74,-98.08 47.57,-108.45 55.73,-101.7 49.74,-98.08"/>
</g>
<!-- Node3&#45;&gt;Node2 -->
<g id="edge3" class="edge">
<title>Node3&#45;&gt;Node2</title>
<path fill="none" stroke="#63b8ff" d="M62.38,-45.08C57.14,-36.4 51.12,-26.44 46.9,-19.44"/>
<polygon fill="#63b8ff" stroke="#63b8ff" points="59.27,-46.7 67.43,-53.45 65.26,-43.08 59.27,-46.7"/>
</g>
</g>
</svg>
