<?xml version="1.0" encoding="UTF-8" standalone="no"?>
<!DOCTYPE svg PUBLIC "-//W3C//DTD SVG 1.1//EN"
 "http://www.w3.org/Graphics/SVG/1.1/DTD/svg11.dtd">
<!-- Generated by graphviz version 7.0.5 (0)
 -->
<!-- Title: src/SpriteNode.cpp Pages: 1 -->
<svg width="1937pt" height="302pt"
 viewBox="0.00 0.00 1937.37 302.00" xmlns="http://www.w3.org/2000/svg" xmlns:xlink="http://www.w3.org/1999/xlink">
<g id="graph0" class="graph" transform="scale(1 1) rotate(0) translate(4 298)">
<title>src/SpriteNode.cpp</title>
<!-- Node1 -->
<g id="node1" class="node">
<title>Node1</title>
<g id="a_node1"><a xlink:title=" ">
<polygon fill="#999999" stroke="#666666" points="509,-294 401,-294 401,-275 509,-275 509,-294"/>
<text text-anchor="middle" x="455" y="-282" font-family="Helvetica,sans-Serif" font-size="10.00">src/SpriteNode.cpp</text>
</a>
</g>
</g>
<!-- Node2 -->
<g id="node2" class="node">
<title>Node2</title>
<g id="a_node2"><a xlink:href="SpriteNode_8h.html" target="_top" xlink:title=" ">
<polygon fill="white" stroke="#666666" points="431,-239 351,-239 351,-220 431,-220 431,-239"/>
<text text-anchor="middle" x="391" y="-227" font-family="Helvetica,sans-Serif" font-size="10.00">SpriteNode.h</text>
</a>
</g>
</g>
<!-- Node1&#45;&gt;Node2 -->
<g id="edge1" class="edge">
<title>Node1&#45;&gt;Node2</title>
<path fill="none" stroke="#63b8ff" d="M444.14,-274.51C434.89,-266.85 421.38,-255.66 410.29,-246.47"/>
<polygon fill="#63b8ff" stroke="#63b8ff" points="412.8,-244.01 402.86,-240.32 408.33,-249.4 412.8,-244.01"/>
</g>
<!-- Node24 -->
<g id="node24" class="node">
<title>Node24</title>
<g id="a_node24"><a xlink:title=" ">
<polygon fill="#e0e0e0" stroke="#999999" points="590.5,-239 449.5,-239 449.5,-220 590.5,-220 590.5,-239"/>
<text text-anchor="middle" x="520" y="-227" font-family="Helvetica,sans-Serif" font-size="10.00">SFML/Graphics/Sprite.hpp</text>
</a>
</g>
</g>
<!-- Node1&#45;&gt;Node24 -->
<g id="edge29" class="edge">
<title>Node1&#45;&gt;Node24</title>
<path fill="none" stroke="#63b8ff" d="M466.03,-274.51C475.42,-266.85 489.15,-255.66 500.41,-246.47"/>
<polygon fill="#63b8ff" stroke="#63b8ff" points="502.43,-249.35 507.96,-240.31 498,-243.92 502.43,-249.35"/>
</g>
<!-- Node3 -->
<g id="node3" class="node">
<title>Node3</title>
<g id="a_node3"><a xlink:href="SceneNode_8h.html" target="_top" xlink:title=" ">
<polygon fill="white" stroke="#666666" points="1021,-129 941,-129 941,-110 1021,-110 1021,-129"/>
<text text-anchor="middle" x="981" y="-117" font-family="Helvetica,sans-Serif" font-size="10.00">SceneNode.h</text>
</a>
</g>
</g>
<!-- Node2&#45;&gt;Node3 -->
<g id="edge2" class="edge">
<title>Node2&#45;&gt;Node3</title>
<path fill="none" stroke="#63b8ff" d="M431.09,-221.16C535.26,-202.09 814.37,-151 929.87,-129.86"/>
<polygon fill="#63b8ff" stroke="#63b8ff" points="930.16,-133.36 939.37,-128.12 928.9,-126.48 930.16,-133.36"/>
</g>
<!-- Node5 -->
<g id="node5" class="node">
<title>Node5</title>
<g id="a_node5"><a xlink:title=" ">
<polygon fill="#e0e0e0" stroke="#999999" points="272,-74 162,-74 162,-55 272,-55 272,-74"/>
<text text-anchor="middle" x="217" y="-62" font-family="Helvetica,sans-Serif" font-size="10.00">SFML/Graphics.hpp</text>
</a>
</g>
</g>
<!-- Node2&#45;&gt;Node5 -->
<g id="edge28" class="edge">
<title>Node2&#45;&gt;Node5</title>
<path fill="none" stroke="#63b8ff" d="M389.06,-219.72C383.84,-198.06 367.48,-141.54 333,-110 316.34,-94.76 293.91,-84.54 273.21,-77.79"/>
<polygon fill="#63b8ff" stroke="#63b8ff" points="274.3,-74.46 263.71,-74.91 272.27,-81.16 274.3,-74.46"/>
</g>
<!-- Node18 -->
<g id="node18" class="node">
<title>Node18</title>
<g id="a_node18"><a xlink:href="TextureHolder_8h.html" target="_top" xlink:title=" ">
<polygon fill="white" stroke="#666666" points="245.5,-184 152.5,-184 152.5,-165 245.5,-165 245.5,-184"/>
<text text-anchor="middle" x="199" y="-172" font-family="Helvetica,sans-Serif" font-size="10.00">TextureHolder.h</text>
</a>
</g>
</g>
<!-- Node2&#45;&gt;Node18 -->
<g id="edge17" class="edge">
<title>Node2&#45;&gt;Node18</title>
<path fill="none" stroke="#63b8ff" d="M358.43,-219.51C326.47,-210.69 277.55,-197.18 242.32,-187.46"/>
<polygon fill="#63b8ff" stroke="#63b8ff" points="243.44,-184.14 232.87,-184.85 241.58,-190.88 243.44,-184.14"/>
</g>
<!-- Node4 -->
<g id="node4" class="node">
<title>Node4</title>
<g id="a_node4"><a xlink:href="Enums_8h.html" target="_top" xlink:title=" ">
<polygon fill="white" stroke="#666666" points="143.5,-74 84.5,-74 84.5,-55 143.5,-55 143.5,-74"/>
<text text-anchor="middle" x="114" y="-62" font-family="Helvetica,sans-Serif" font-size="10.00">Enums.h</text>
</a>
</g>
</g>
<!-- Node3&#45;&gt;Node4 -->
<g id="edge3" class="edge">
<title>Node3&#45;&gt;Node4</title>
<path fill="none" stroke="#63b8ff" d="M940.72,-118.62C821.92,-118.5 462.58,-114.67 155.1,-74.02"/>
<polygon fill="#63b8ff" stroke="#63b8ff" points="155.6,-70.55 145.22,-72.7 154.67,-77.49 155.6,-70.55"/>
</g>
<!-- Node3&#45;&gt;Node5 -->
<g id="edge4" class="edge">
<title>Node3&#45;&gt;Node5</title>
<path fill="none" stroke="#63b8ff" d="M940.68,-116.91C834.82,-112.51 540.07,-98.95 283.88,-74.22"/>
<polygon fill="#63b8ff" stroke="#63b8ff" points="284.27,-70.74 273.98,-73.25 283.6,-77.7 284.27,-70.74"/>
</g>
<!-- Node6 -->
<g id="node6" class="node">
<title>Node6</title>
<g id="a_node6"><a xlink:title=" ">
<polygon fill="#e0e0e0" stroke="#999999" points="525.5,-74 366.5,-74 366.5,-55 525.5,-55 525.5,-74"/>
<text text-anchor="middle" x="446" y="-62" font-family="Helvetica,sans-Serif" font-size="10.00">SFML/Graphics/Drawable.hpp</text>
</a>
</g>
</g>
<!-- Node3&#45;&gt;Node6 -->
<g id="edge5" class="edge">
<title>Node3&#45;&gt;Node6</title>
<path fill="none" stroke="#63b8ff" d="M940.79,-114.52C855.57,-106.07 654.96,-86.2 537.02,-74.52"/>
<polygon fill="#63b8ff" stroke="#63b8ff" points="537.67,-71.06 527.38,-73.56 536.98,-78.03 537.67,-71.06"/>
</g>
<!-- Node7 -->
<g id="node7" class="node">
<title>Node7</title>
<g id="a_node7"><a xlink:title=" ">
<polygon fill="#e0e0e0" stroke="#999999" points="678,-74 544,-74 544,-55 678,-55 678,-74"/>
<text text-anchor="middle" x="611" y="-62" font-family="Helvetica,sans-Serif" font-size="10.00">SFML/Graphics/Rect.hpp</text>
</a>
</g>
</g>
<!-- Node3&#45;&gt;Node7 -->
<g id="edge6" class="edge">
<title>Node3&#45;&gt;Node7</title>
<path fill="none" stroke="#63b8ff" d="M940.7,-112.73C879.38,-103.94 761.67,-87.08 684.76,-76.07"/>
<polygon fill="#63b8ff" stroke="#63b8ff" points="685.61,-72.65 675.22,-74.7 684.62,-79.58 685.61,-72.65"/>
</g>
<!-- Node8 -->
<g id="node8" class="node">
<title>Node8</title>
<g id="a_node8"><a xlink:title=" ">
<polygon fill="#e0e0e0" stroke="#999999" points="874,-74 696,-74 696,-55 874,-55 874,-74"/>
<text text-anchor="middle" x="785" y="-62" font-family="Helvetica,sans-Serif" font-size="10.00">SFML/Graphics/RenderStates.hpp</text>
</a>
</g>
</g>
<!-- Node3&#45;&gt;Node8 -->
<g id="edge7" class="edge">
<title>Node3&#45;&gt;Node8</title>
<path fill="none" stroke="#63b8ff" d="M947.75,-109.51C914.99,-100.65 864.75,-87.07 828.76,-77.33"/>
<polygon fill="#63b8ff" stroke="#63b8ff" points="830.11,-74.07 819.55,-74.84 828.28,-80.83 830.11,-74.07"/>
</g>
<!-- Node9 -->
<g id="node9" class="node">
<title>Node9</title>
<g id="a_node9"><a xlink:title=" ">
<polygon fill="#e0e0e0" stroke="#999999" points="1069.5,-74 892.5,-74 892.5,-55 1069.5,-55 1069.5,-74"/>
<text text-anchor="middle" x="981" y="-62" font-family="Helvetica,sans-Serif" font-size="10.00">SFML/Graphics/RenderTarget.hpp</text>
</a>
</g>
</g>
<!-- Node3&#45;&gt;Node9 -->
<g id="edge8" class="edge">
<title>Node3&#45;&gt;Node9</title>
<path fill="none" stroke="#63b8ff" d="M981,-109.75C981,-103.27 981,-94.16 981,-85.9"/>
<polygon fill="#63b8ff" stroke="#63b8ff" points="984.5,-85.96 981,-75.96 977.5,-85.96 984.5,-85.96"/>
</g>
<!-- Node10 -->
<g id="node10" class="node">
<title>Node10</title>
<g id="a_node10"><a xlink:title=" ">
<polygon fill="#e0e0e0" stroke="#999999" points="1248.5,-74 1087.5,-74 1087.5,-55 1248.5,-55 1248.5,-74"/>
<text text-anchor="middle" x="1168" y="-62" font-family="Helvetica,sans-Serif" font-size="10.00">SFML/Graphics/Transform.hpp</text>
</a>
</g>
</g>
<!-- Node3&#45;&gt;Node10 -->
<g id="edge9" class="edge">
<title>Node3&#45;&gt;Node10</title>
<path fill="none" stroke="#63b8ff" d="M1012.72,-109.51C1043.84,-100.69 1091.5,-87.18 1125.8,-77.46"/>
<polygon fill="#63b8ff" stroke="#63b8ff" points="1126.31,-80.95 1134.98,-74.86 1124.4,-74.22 1126.31,-80.95"/>
</g>
<!-- Node11 -->
<g id="node11" class="node">
<title>Node11</title>
<g id="a_node11"><a xlink:title=" ">
<polygon fill="#e0e0e0" stroke="#999999" points="1449,-74 1267,-74 1267,-55 1449,-55 1449,-74"/>
<text text-anchor="middle" x="1358" y="-62" font-family="Helvetica,sans-Serif" font-size="10.00">SFML/Graphics/Transformable.hpp</text>
</a>
</g>
</g>
<!-- Node3&#45;&gt;Node11 -->
<g id="edge10" class="edge">
<title>Node3&#45;&gt;Node11</title>
<path fill="none" stroke="#63b8ff" d="M1021.35,-112.83C1083.63,-104.07 1204.2,-87.12 1282.86,-76.06"/>
<polygon fill="#63b8ff" stroke="#63b8ff" points="1283.24,-79.54 1292.65,-74.69 1282.27,-72.61 1283.24,-79.54"/>
</g>
<!-- Node12 -->
<g id="node12" class="node">
<title>Node12</title>
<g id="a_node12"><a xlink:title=" ">
<polygon fill="#e0e0e0" stroke="#999999" points="1639,-74 1467,-74 1467,-55 1639,-55 1639,-74"/>
<text text-anchor="middle" x="1553" y="-62" font-family="Helvetica,sans-Serif" font-size="10.00">SFML/System/NonCopyable.hpp</text>
</a>
</g>
</g>
<!-- Node3&#45;&gt;Node12 -->
<g id="edge11" class="edge">
<title>Node3&#45;&gt;Node12</title>
<path fill="none" stroke="#63b8ff" d="M1021.22,-114.77C1110.58,-106.49 1327.77,-86.37 1455.23,-74.56"/>
<polygon fill="#63b8ff" stroke="#63b8ff" points="1455.38,-78.06 1465.01,-73.65 1454.73,-71.09 1455.38,-78.06"/>
</g>
<!-- Node13 -->
<g id="node13" class="node">
<title>Node13</title>
<g id="a_node13"><a xlink:title=" ">
<polygon fill="#e0e0e0" stroke="#999999" points="1800.5,-74 1657.5,-74 1657.5,-55 1800.5,-55 1800.5,-74"/>
<text text-anchor="middle" x="1729" y="-62" font-family="Helvetica,sans-Serif" font-size="10.00">SFML/System/Vector2.hpp</text>
</a>
</g>
</g>
<!-- Node3&#45;&gt;Node13 -->
<g id="edge12" class="edge">
<title>Node3&#45;&gt;Node13</title>
<path fill="none" stroke="#63b8ff" d="M1021.26,-116.35C1123.57,-110.76 1402.06,-94.85 1645.81,-74.15"/>
<polygon fill="#63b8ff" stroke="#63b8ff" points="1645.85,-77.66 1655.52,-73.32 1645.26,-70.69 1645.85,-77.66"/>
</g>
<!-- Node14 -->
<g id="node14" class="node">
<title>Node14</title>
<g id="a_node14"><a xlink:title=" ">
<polygon fill="#e0e0e0" stroke="#999999" points="348,-74 290,-74 290,-55 348,-55 348,-74"/>
<text text-anchor="middle" x="319" y="-62" font-family="Helvetica,sans-Serif" font-size="10.00">memory</text>
</a>
</g>
</g>
<!-- Node3&#45;&gt;Node14 -->
<g id="edge13" class="edge">
<title>Node3&#45;&gt;Node14</title>
<path fill="none" stroke="#63b8ff" d="M940.62,-117.7C842.65,-115.31 584.44,-106.38 359.73,-74.18"/>
<polygon fill="#63b8ff" stroke="#63b8ff" points="360.28,-70.72 349.88,-72.74 359.27,-77.65 360.28,-70.72"/>
</g>
<!-- Node15 -->
<g id="node15" class="node">
<title>Node15</title>
<g id="a_node15"><a xlink:title=" ">
<polygon fill="#e0e0e0" stroke="#999999" points="1865.5,-74 1818.5,-74 1818.5,-55 1865.5,-55 1865.5,-74"/>
<text text-anchor="middle" x="1842" y="-62" font-family="Helvetica,sans-Serif" font-size="10.00">vector</text>
</a>
</g>
</g>
<!-- Node3&#45;&gt;Node15 -->
<g id="edge14" class="edge">
<title>Node3&#45;&gt;Node15</title>
<path fill="none" stroke="#63b8ff" d="M1021.1,-117.44C1161.87,-113.56 1633.8,-99.11 1806.8,-74.14"/>
<polygon fill="#63b8ff" stroke="#63b8ff" points="1807.14,-77.63 1816.5,-72.67 1806.09,-70.71 1807.14,-77.63"/>
</g>
<!-- Node16 -->
<g id="node16" class="node">
<title>Node16</title>
<g id="a_node16"><a xlink:title=" ">
<polygon fill="#e0e0e0" stroke="#999999" points="1916,-74 1884,-74 1884,-55 1916,-55 1916,-74"/>
<text text-anchor="middle" x="1900" y="-62" font-family="Helvetica,sans-Serif" font-size="10.00">set</text>
</a>
</g>
</g>
<!-- Node3&#45;&gt;Node16 -->
<g id="edge15" class="edge">
<title>Node3&#45;&gt;Node16</title>
<path fill="none" stroke="#63b8ff" d="M1021.41,-117.98C1169.93,-115.83 1686.18,-106.31 1872.51,-73.81"/>
<polygon fill="#63b8ff" stroke="#63b8ff" points="1873.08,-77.27 1882.28,-72.02 1871.81,-70.38 1873.08,-77.27"/>
</g>
<!-- Node17 -->
<g id="node17" class="node">
<title>Node17</title>
<g id="a_node17"><a xlink:title=" ">
<polygon fill="#e0e0e0" stroke="#999999" points="1056,-19 996,-19 996,0 1056,0 1056,-19"/>
<text text-anchor="middle" x="1026" y="-7" font-family="Helvetica,sans-Serif" font-size="10.00">iostream</text>
</a>
</g>
</g>
<!-- Node3&#45;&gt;Node17 -->
<g id="edge16" class="edge">
<title>Node3&#45;&gt;Node17</title>
<path fill="none" stroke="#63b8ff" d="M1021.25,-118.13C1197.44,-116.34 1893.36,-107.17 1925,-74 1930.83,-67.89 1930.82,-61.12 1925,-55 1895.1,-23.58 1240.79,-13.19 1067.7,-10.98"/>
<polygon fill="#63b8ff" stroke="#63b8ff" points="1067.87,-7.48 1057.82,-10.86 1067.78,-14.48 1067.87,-7.48"/>
</g>
<!-- Node18&#45;&gt;Node4 -->
<g id="edge21" class="edge">
<title>Node18&#45;&gt;Node4</title>
<path fill="none" stroke="#63b8ff" d="M192.04,-164.66C178.1,-146.94 146.48,-106.77 128.05,-83.35"/>
<polygon fill="#63b8ff" stroke="#63b8ff" points="130.92,-81.34 121.99,-75.65 125.42,-85.67 130.92,-81.34"/>
</g>
<!-- Node18&#45;&gt;Node14 -->
<g id="edge18" class="edge">
<title>Node18&#45;&gt;Node14</title>
<path fill="none" stroke="#63b8ff" d="M245.88,-171.29C276.08,-167.14 313.28,-156.33 333,-129 342.49,-115.85 336.92,-97.47 330.21,-83.87"/>
<polygon fill="#63b8ff" stroke="#63b8ff" points="333.48,-82.55 325.58,-75.5 327.36,-85.94 333.48,-82.55"/>
</g>
<!-- Node19 -->
<g id="node19" class="node">
<title>Node19</title>
<g id="a_node19"><a xlink:title=" ">
<polygon fill="#e0e0e0" stroke="#999999" points="119,-129 81,-129 81,-110 119,-110 119,-129"/>
<text text-anchor="middle" x="100" y="-117" font-family="Helvetica,sans-Serif" font-size="10.00">map</text>
</a>
</g>
</g>
<!-- Node18&#45;&gt;Node19 -->
<g id="edge19" class="edge">
<title>Node18&#45;&gt;Node19</title>
<path fill="none" stroke="#63b8ff" d="M182.21,-164.51C166.9,-156.31 144.03,-144.07 126.3,-134.58"/>
<polygon fill="#63b8ff" stroke="#63b8ff" points="128.35,-131.71 117.88,-130.07 125.04,-137.88 128.35,-131.71"/>
</g>
<!-- Node20 -->
<g id="node20" class="node">
<title>Node20</title>
<g id="a_node20"><a xlink:title=" ">
<polygon fill="#e0e0e0" stroke="#999999" points="324.5,-129 175.5,-129 175.5,-110 324.5,-110 324.5,-129"/>
<text text-anchor="middle" x="250" y="-117" font-family="Helvetica,sans-Serif" font-size="10.00">SFML/Graphics/Texture.hpp</text>
</a>
</g>
</g>
<!-- Node18&#45;&gt;Node20 -->
<g id="edge20" class="edge">
<title>Node18&#45;&gt;Node20</title>
<path fill="none" stroke="#63b8ff" d="M207.42,-164.75C214.47,-157.43 224.73,-146.76 233.41,-137.74"/>
<polygon fill="#63b8ff" stroke="#63b8ff" points="235.93,-140.17 240.35,-130.53 230.89,-135.31 235.93,-140.17"/>
</g>
<!-- Node21 -->
<g id="node21" class="node">
<title>Node21</title>
<g id="a_node21"><a xlink:href="Consts_8h.html" target="_top" xlink:title=" ">
<polygon fill="white" stroke="#666666" points="62.5,-129 3.5,-129 3.5,-110 62.5,-110 62.5,-129"/>
<text text-anchor="middle" x="33" y="-117" font-family="Helvetica,sans-Serif" font-size="10.00">Consts.h</text>
</a>
</g>
</g>
<!-- Node18&#45;&gt;Node21 -->
<g id="edge22" class="edge">
<title>Node18&#45;&gt;Node21</title>
<path fill="none" stroke="#63b8ff" d="M170.84,-164.51C143.57,-155.8 102.01,-142.53 71.65,-132.84"/>
<polygon fill="#63b8ff" stroke="#63b8ff" points="73.05,-129.61 62.46,-129.91 70.92,-136.28 73.05,-129.61"/>
</g>
<!-- Node21&#45;&gt;Node4 -->
<g id="edge24" class="edge">
<title>Node21&#45;&gt;Node4</title>
<path fill="none" stroke="#63b8ff" d="M46.74,-109.51C58.8,-101.62 76.59,-89.98 90.84,-80.65"/>
<polygon fill="#63b8ff" stroke="#63b8ff" points="92.74,-83.59 99.2,-75.19 88.91,-77.73 92.74,-83.59"/>
</g>
<!-- Node21&#45;&gt;Node5 -->
<g id="edge23" class="edge">
<title>Node21&#45;&gt;Node5</title>
<path fill="none" stroke="#63b8ff" d="M62.97,-109.87C93.35,-101.12 140.61,-87.5 174.77,-77.66"/>
<polygon fill="#63b8ff" stroke="#63b8ff" points="175.71,-81.03 184.36,-74.9 173.78,-74.31 175.71,-81.03"/>
</g>
<!-- Node22 -->
<g id="node22" class="node">
<title>Node22</title>
<g id="a_node22"><a xlink:href="Random_8h.html" target="_top" xlink:title=" ">
<polygon fill="white" stroke="#666666" points="66,-74 0,-74 0,-55 66,-55 66,-74"/>
<text text-anchor="middle" x="33" y="-62" font-family="Helvetica,sans-Serif" font-size="10.00">Random.h</text>
</a>
</g>
</g>
<!-- Node21&#45;&gt;Node22 -->
<g id="edge25" class="edge">
<title>Node21&#45;&gt;Node22</title>
<path fill="none" stroke="#63b8ff" d="M33,-109.75C33,-103.27 33,-94.16 33,-85.9"/>
<polygon fill="#63b8ff" stroke="#63b8ff" points="36.5,-85.96 33,-75.96 29.5,-85.96 36.5,-85.96"/>
</g>
<!-- Node22&#45;&gt;Node17 -->
<g id="edge27" class="edge">
<title>Node22&#45;&gt;Node17</title>
<path fill="none" stroke="#63b8ff" d="M66.4,-56.26C69.3,-55.78 72.19,-55.35 75,-55 424.9,-11.67 851.98,-9.65 984.68,-10.18"/>
<polygon fill="#63b8ff" stroke="#63b8ff" points="984.35,-13.68 994.36,-10.23 984.38,-6.68 984.35,-13.68"/>
</g>
<!-- Node23 -->
<g id="node23" class="node">
<title>Node23</title>
<g id="a_node23"><a xlink:title=" ">
<polygon fill="#e0e0e0" stroke="#999999" points="60,-19 6,-19 6,0 60,0 60,-19"/>
<text text-anchor="middle" x="33" y="-7" font-family="Helvetica,sans-Serif" font-size="10.00">random</text>
</a>
</g>
</g>
<!-- Node22&#45;&gt;Node23 -->
<g id="edge26" class="edge">
<title>Node22&#45;&gt;Node23</title>
<path fill="none" stroke="#63b8ff" d="M33,-54.75C33,-48.27 33,-39.16 33,-30.9"/>
<polygon fill="#63b8ff" stroke="#63b8ff" points="36.5,-30.96 33,-20.96 29.5,-30.96 36.5,-30.96"/>
</g>
</g>
</svg>
