<?xml version="1.0" encoding="UTF-8" standalone="no"?>
<!DOCTYPE svg PUBLIC "-//W3C//DTD SVG 1.1//EN"
 "http://www.w3.org/Graphics/SVG/1.1/DTD/svg11.dtd">
<!-- Generated by graphviz version 7.0.5 (0)
 -->
<!-- Title: src/State.h Pages: 1 -->
<svg width="752pt" height="302pt"
 viewBox="0.00 0.00 752.00 302.00" xmlns="http://www.w3.org/2000/svg" xmlns:xlink="http://www.w3.org/1999/xlink">
<g id="graph0" class="graph" transform="scale(1 1) rotate(0) translate(4 298)">
<title>src/State.h</title>
<!-- Node1 -->
<g id="node1" class="node">
<title>Node1</title>
<g id="a_node1"><a xlink:title=" ">
<polygon fill="#999999" stroke="#666666" points="443,-294 375,-294 375,-275 443,-275 443,-294"/>
<text text-anchor="middle" x="409" y="-282" font-family="Helvetica,sans-Serif" font-size="10.00">src/State.h</text>
</a>
</g>
</g>
<!-- Node2 -->
<g id="node2" class="node">
<title>Node2</title>
<g id="a_node2"><a xlink:href="GameState_8h.html" target="_top" xlink:title=" ">
<polygon fill="white" stroke="#666666" points="388,-184 290,-184 290,-165 388,-165 388,-184"/>
<text text-anchor="middle" x="339" y="-172" font-family="Helvetica,sans-Serif" font-size="10.00">src/GameState.h</text>
</a>
</g>
</g>
<!-- Node1&#45;&gt;Node2 -->
<g id="edge1" class="edge">
<title>Node1&#45;&gt;Node2</title>
<path fill="none" stroke="#63b8ff" d="M363.4,-280.71C334.37,-276.29 298.82,-265.4 280,-239 264.8,-217.68 297.52,-196.01 320.04,-184.31"/>
<polygon fill="#63b8ff" stroke="#63b8ff" points="362.69,-284.15 373.06,-281.95 363.59,-277.2 362.69,-284.15"/>
</g>
<!-- Node9 -->
<g id="node9" class="node">
<title>Node9</title>
<g id="a_node9"><a xlink:href="PauseMenu_8h.html" target="_top" xlink:title=" ">
<polygon fill="white" stroke="#666666" points="232,-239 134,-239 134,-220 232,-220 232,-239"/>
<text text-anchor="middle" x="183" y="-227" font-family="Helvetica,sans-Serif" font-size="10.00">src/PauseMenu.h</text>
</a>
</g>
</g>
<!-- Node1&#45;&gt;Node9 -->
<g id="edge8" class="edge">
<title>Node1&#45;&gt;Node9</title>
<path fill="none" stroke="#63b8ff" d="M363.69,-272.88C321.86,-263.06 260.41,-248.65 221.05,-239.42"/>
<polygon fill="#63b8ff" stroke="#63b8ff" points="362.67,-276.23 373.2,-275.1 364.27,-269.41 362.67,-276.23"/>
</g>
<!-- Node12 -->
<g id="node12" class="node">
<title>Node12</title>
<g id="a_node12"><a xlink:href="ScoreState_8h.html" target="_top" xlink:title=" ">
<polygon fill="white" stroke="#666666" points="518.5,-239 423.5,-239 423.5,-220 518.5,-220 518.5,-239"/>
<text text-anchor="middle" x="471" y="-227" font-family="Helvetica,sans-Serif" font-size="10.00">src/ScoreState.h</text>
</a>
</g>
</g>
<!-- Node1&#45;&gt;Node12 -->
<g id="edge12" class="edge">
<title>Node1&#45;&gt;Node12</title>
<path fill="none" stroke="#63b8ff" d="M428.2,-267.09C438.9,-257.94 451.81,-246.9 460.64,-239.36"/>
<polygon fill="#63b8ff" stroke="#63b8ff" points="425.99,-264.37 420.67,-273.53 430.54,-269.69 425.99,-264.37"/>
</g>
<!-- Node14 -->
<g id="node14" class="node">
<title>Node14</title>
<g id="a_node14"><a xlink:href="SettingState_8h.html" target="_top" xlink:title=" ">
<polygon fill="white" stroke="#666666" points="738.5,-239 635.5,-239 635.5,-220 738.5,-220 738.5,-239"/>
<text text-anchor="middle" x="687" y="-227" font-family="Helvetica,sans-Serif" font-size="10.00">src/SettingState.h</text>
</a>
</g>
</g>
<!-- Node1&#45;&gt;Node14 -->
<g id="edge15" class="edge">
<title>Node1&#45;&gt;Node14</title>
<path fill="none" stroke="#63b8ff" d="M454.41,-274.84C505.61,-265.08 588.44,-249.29 640.2,-239.42"/>
<polygon fill="#63b8ff" stroke="#63b8ff" points="454.02,-271.35 444.85,-276.66 455.33,-278.23 454.02,-271.35"/>
</g>
<!-- Node16 -->
<g id="node16" class="node">
<title>Node16</title>
<g id="a_node16"><a xlink:href="State_8cpp.html" target="_top" xlink:title=" ">
<polygon fill="white" stroke="#666666" points="617,-239 537,-239 537,-220 617,-220 617,-239"/>
<text text-anchor="middle" x="577" y="-227" font-family="Helvetica,sans-Serif" font-size="10.00">src/State.cpp</text>
</a>
</g>
</g>
<!-- Node1&#45;&gt;Node16 -->
<g id="edge18" class="edge">
<title>Node1&#45;&gt;Node16</title>
<path fill="none" stroke="#63b8ff" d="M448.27,-271.11C479.03,-261.41 521.09,-248.14 548.64,-239.45"/>
<polygon fill="#63b8ff" stroke="#63b8ff" points="447.43,-267.71 438.94,-274.05 449.53,-274.38 447.43,-267.71"/>
</g>
<!-- Node17 -->
<g id="node17" class="node">
<title>Node17</title>
<g id="a_node17"><a xlink:href="SummaryMenu_8h.html" target="_top" xlink:title=" ">
<polygon fill="white" stroke="#666666" points="405.5,-239 288.5,-239 288.5,-220 405.5,-220 405.5,-239"/>
<text text-anchor="middle" x="347" y="-227" font-family="Helvetica,sans-Serif" font-size="10.00">src/SummaryMenu.h</text>
</a>
</g>
</g>
<!-- Node1&#45;&gt;Node17 -->
<g id="edge19" class="edge">
<title>Node1&#45;&gt;Node17</title>
<path fill="none" stroke="#63b8ff" d="M389.8,-267.09C379.1,-257.94 366.19,-246.9 357.36,-239.36"/>
<polygon fill="#63b8ff" stroke="#63b8ff" points="387.46,-269.69 397.33,-273.53 392.01,-264.37 387.46,-269.69"/>
</g>
<!-- Node3 -->
<g id="node3" class="node">
<title>Node3</title>
<g id="a_node3"><a xlink:href="GameState_8cpp.html" target="_top" xlink:title=" ">
<polygon fill="white" stroke="#666666" points="393.5,-129 284.5,-129 284.5,-110 393.5,-110 393.5,-129"/>
<text text-anchor="middle" x="339" y="-117" font-family="Helvetica,sans-Serif" font-size="10.00">src/GameState.cpp</text>
</a>
</g>
</g>
<!-- Node2&#45;&gt;Node3 -->
<g id="edge2" class="edge">
<title>Node2&#45;&gt;Node3</title>
<path fill="none" stroke="#63b8ff" d="M339,-153.35C339,-145.1 339,-135.97 339,-129.44"/>
<polygon fill="#63b8ff" stroke="#63b8ff" points="335.5,-153.23 339,-163.23 342.5,-153.23 335.5,-153.23"/>
</g>
<!-- Node4 -->
<g id="node4" class="node">
<title>Node4</title>
<g id="a_node4"><a xlink:href="MainMenuState_8h.html" target="_top" xlink:title=" ">
<polygon fill="white" stroke="#666666" points="602.5,-129 483.5,-129 483.5,-110 602.5,-110 602.5,-129"/>
<text text-anchor="middle" x="543" y="-117" font-family="Helvetica,sans-Serif" font-size="10.00">src/MainMenuState.h</text>
</a>
</g>
</g>
<!-- Node2&#45;&gt;Node4 -->
<g id="edge3" class="edge">
<title>Node2&#45;&gt;Node4</title>
<path fill="none" stroke="#63b8ff" d="M384.74,-161.62C422.24,-151.87 474.53,-138.29 508.57,-129.45"/>
<polygon fill="#63b8ff" stroke="#63b8ff" points="383.87,-158.23 375.07,-164.13 385.63,-165 383.87,-158.23"/>
</g>
<!-- Node5 -->
<g id="node5" class="node">
<title>Node5</title>
<g id="a_node5"><a xlink:href="Game_8h.html" target="_top" xlink:title=" ">
<polygon fill="white" stroke="#666666" points="519,-74 447,-74 447,-55 519,-55 519,-74"/>
<text text-anchor="middle" x="483" y="-62" font-family="Helvetica,sans-Serif" font-size="10.00">src/Game.h</text>
</a>
</g>
</g>
<!-- Node4&#45;&gt;Node5 -->
<g id="edge4" class="edge">
<title>Node4&#45;&gt;Node5</title>
<path fill="none" stroke="#63b8ff" d="M524.42,-102.09C514.06,-92.94 501.57,-81.9 493.03,-74.36"/>
<polygon fill="#63b8ff" stroke="#63b8ff" points="521.88,-104.51 531.69,-108.51 526.51,-99.26 521.88,-104.51"/>
</g>
<!-- Node8 -->
<g id="node8" class="node">
<title>Node8</title>
<g id="a_node8"><a xlink:href="MainMenuState_8cpp.html" target="_top" xlink:title=" ">
<polygon fill="white" stroke="#666666" points="668.5,-74 537.5,-74 537.5,-55 668.5,-55 668.5,-74"/>
<text text-anchor="middle" x="603" y="-62" font-family="Helvetica,sans-Serif" font-size="10.00">src/MainMenuState.cpp</text>
</a>
</g>
</g>
<!-- Node4&#45;&gt;Node8 -->
<g id="edge7" class="edge">
<title>Node4&#45;&gt;Node8</title>
<path fill="none" stroke="#63b8ff" d="M561.58,-102.09C571.94,-92.94 584.43,-81.9 592.97,-74.36"/>
<polygon fill="#63b8ff" stroke="#63b8ff" points="559.49,-99.26 554.31,-108.51 564.12,-104.51 559.49,-99.26"/>
</g>
<!-- Node6 -->
<g id="node6" class="node">
<title>Node6</title>
<g id="a_node6"><a xlink:href="FinalProjectCS202_8cpp.html" target="_top" xlink:title=" ">
<polygon fill="white" stroke="#666666" points="489,-19 347,-19 347,0 489,0 489,-19"/>
<text text-anchor="middle" x="418" y="-7" font-family="Helvetica,sans-Serif" font-size="10.00">src/FinalProjectCS202.cpp</text>
</a>
</g>
</g>
<!-- Node5&#45;&gt;Node6 -->
<g id="edge5" class="edge">
<title>Node5&#45;&gt;Node6</title>
<path fill="none" stroke="#63b8ff" d="M463.21,-47.37C451.92,-38.16 438.21,-26.98 428.86,-19.36"/>
<polygon fill="#63b8ff" stroke="#63b8ff" points="460.84,-49.95 470.8,-53.55 465.26,-44.52 460.84,-49.95"/>
</g>
<!-- Node7 -->
<g id="node7" class="node">
<title>Node7</title>
<g id="a_node7"><a xlink:href="Game_8cpp.html" target="_top" xlink:title=" ">
<polygon fill="white" stroke="#666666" points="590.5,-19 507.5,-19 507.5,0 590.5,0 590.5,-19"/>
<text text-anchor="middle" x="549" y="-7" font-family="Helvetica,sans-Serif" font-size="10.00">src/Game.cpp</text>
</a>
</g>
</g>
<!-- Node5&#45;&gt;Node7 -->
<g id="edge6" class="edge">
<title>Node5&#45;&gt;Node7</title>
<path fill="none" stroke="#63b8ff" d="M503.09,-47.37C514.55,-38.16 528.48,-26.98 537.97,-19.36"/>
<polygon fill="#63b8ff" stroke="#63b8ff" points="500.98,-44.57 495.38,-53.56 505.36,-50.03 500.98,-44.57"/>
</g>
<!-- Node9&#45;&gt;Node2 -->
<g id="edge9" class="edge">
<title>Node9&#45;&gt;Node2</title>
<path fill="none" stroke="#63b8ff" d="M220.22,-215.85C248.72,-206.17 287.31,-193.06 312.67,-184.45"/>
<polygon fill="#63b8ff" stroke="#63b8ff" points="219.24,-212.49 210.9,-219.02 221.49,-219.12 219.24,-212.49"/>
</g>
<!-- Node10 -->
<g id="node10" class="node">
<title>Node10</title>
<g id="a_node10"><a xlink:href="PauseMenu_8cpp.html" target="_top" xlink:title=" ">
<polygon fill="white" stroke="#666666" points="110,-184 0,-184 0,-165 110,-165 110,-184"/>
<text text-anchor="middle" x="55" y="-172" font-family="Helvetica,sans-Serif" font-size="10.00">src/PauseMenu.cpp</text>
</a>
</g>
</g>
<!-- Node9&#45;&gt;Node10 -->
<g id="edge10" class="edge">
<title>Node9&#45;&gt;Node10</title>
<path fill="none" stroke="#63b8ff" d="M150.86,-215.19C127.57,-205.55 96.73,-192.78 76.39,-184.36"/>
<polygon fill="#63b8ff" stroke="#63b8ff" points="149.31,-218.34 159.89,-218.93 151.99,-211.87 149.31,-218.34"/>
</g>
<!-- Node11 -->
<g id="node11" class="node">
<title>Node11</title>
<g id="a_node11"><a xlink:href="SummaryMenu_8cpp.html" target="_top" xlink:title=" ">
<polygon fill="white" stroke="#666666" points="256,-184 128,-184 128,-165 256,-165 256,-184"/>
<text text-anchor="middle" x="192" y="-172" font-family="Helvetica,sans-Serif" font-size="10.00">src/SummaryMenu.cpp</text>
</a>
</g>
</g>
<!-- Node9&#45;&gt;Node11 -->
<g id="edge11" class="edge">
<title>Node9&#45;&gt;Node11</title>
<path fill="none" stroke="#63b8ff" d="M186.37,-208.64C187.79,-200.31 189.36,-191.05 190.48,-184.44"/>
<polygon fill="#63b8ff" stroke="#63b8ff" points="182.96,-207.81 184.74,-218.26 189.86,-208.98 182.96,-207.81"/>
</g>
<!-- Node12&#45;&gt;Node4 -->
<g id="edge13" class="edge">
<title>Node12&#45;&gt;Node4</title>
<path fill="none" stroke="#63b8ff" d="M494.97,-213.11C505.21,-205.46 516.5,-195.41 524,-184 535.38,-166.69 540.15,-142.33 541.98,-129.39"/>
<polygon fill="#63b8ff" stroke="#63b8ff" points="493.05,-210.19 486.88,-218.8 497.07,-215.91 493.05,-210.19"/>
</g>
<!-- Node13 -->
<g id="node13" class="node">
<title>Node13</title>
<g id="a_node13"><a xlink:href="ScoreState_8cpp.html" target="_top" xlink:title=" ">
<polygon fill="white" stroke="#666666" points="514.5,-184 407.5,-184 407.5,-165 514.5,-165 514.5,-184"/>
<text text-anchor="middle" x="461" y="-172" font-family="Helvetica,sans-Serif" font-size="10.00">src/ScoreState.cpp</text>
</a>
</g>
</g>
<!-- Node12&#45;&gt;Node13 -->
<g id="edge14" class="edge">
<title>Node12&#45;&gt;Node13</title>
<path fill="none" stroke="#63b8ff" d="M467.25,-208.64C465.68,-200.31 463.93,-191.05 462.69,-184.44"/>
<polygon fill="#63b8ff" stroke="#63b8ff" points="463.77,-209.08 469.07,-218.26 470.65,-207.79 463.77,-209.08"/>
</g>
<!-- Node14&#45;&gt;Node4 -->
<g id="edge16" class="edge">
<title>Node14&#45;&gt;Node4</title>
<path fill="none" stroke="#63b8ff" d="M663.64,-213.49C650.85,-205.09 634.84,-194.27 621,-184 596.04,-165.48 568.08,-142.02 553.36,-129.44"/>
<polygon fill="#63b8ff" stroke="#63b8ff" points="661.54,-216.3 671.83,-218.82 665.36,-210.43 661.54,-216.3"/>
</g>
<!-- Node15 -->
<g id="node15" class="node">
<title>Node15</title>
<g id="a_node15"><a xlink:href="SettingState_8cpp.html" target="_top" xlink:title=" ">
<polygon fill="white" stroke="#666666" points="744,-184 630,-184 630,-165 744,-165 744,-184"/>
<text text-anchor="middle" x="687" y="-172" font-family="Helvetica,sans-Serif" font-size="10.00">src/SettingState.cpp</text>
</a>
</g>
</g>
<!-- Node14&#45;&gt;Node15 -->
<g id="edge17" class="edge">
<title>Node14&#45;&gt;Node15</title>
<path fill="none" stroke="#63b8ff" d="M687,-208.35C687,-200.1 687,-190.97 687,-184.44"/>
<polygon fill="#63b8ff" stroke="#63b8ff" points="683.5,-208.23 687,-218.23 690.5,-208.23 683.5,-208.23"/>
</g>
<!-- Node17&#45;&gt;Node2 -->
<g id="edge20" class="edge">
<title>Node17&#45;&gt;Node2</title>
<path fill="none" stroke="#63b8ff" d="M344,-208.64C342.75,-200.31 341.35,-191.05 340.35,-184.44"/>
<polygon fill="#63b8ff" stroke="#63b8ff" points="340.5,-208.89 345.45,-218.25 347.42,-207.84 340.5,-208.89"/>
</g>
</g>
</svg>
