<?xml version="1.0" encoding="UTF-8" standalone="no"?>
<!DOCTYPE svg PUBLIC "-//W3C//DTD SVG 1.1//EN"
 "http://www.w3.org/Graphics/SVG/1.1/DTD/svg11.dtd">
<!-- Generated by graphviz version 7.0.5 (0)
 -->
<!-- Title: src/State.h Pages: 1 -->
<svg width="1240pt" height="137pt"
 viewBox="0.00 0.00 1240.00 137.00" xmlns="http://www.w3.org/2000/svg" xmlns:xlink="http://www.w3.org/1999/xlink">
<g id="graph0" class="graph" transform="scale(1 1) rotate(0) translate(4 133)">
<title>src/State.h</title>
<!-- Node1 -->
<g id="node1" class="node">
<title>Node1</title>
<g id="a_node1"><a xlink:title=" ">
<polygon fill="#999999" stroke="#666666" points="361,-129 293,-129 293,-110 361,-110 361,-129"/>
<text text-anchor="middle" x="327" y="-117" font-family="Helvetica,sans-Serif" font-size="10.00">src/State.h</text>
</a>
</g>
</g>
<!-- Node2 -->
<g id="node2" class="node">
<title>Node2</title>
<g id="a_node2"><a xlink:title=" ">
<polygon fill="#e0e0e0" stroke="#999999" points="44,-74 0,-74 0,-55 44,-55 44,-74"/>
<text text-anchor="middle" x="22" y="-62" font-family="Helvetica,sans-Serif" font-size="10.00">ctime</text>
</a>
</g>
</g>
<!-- Node1&#45;&gt;Node2 -->
<g id="edge1" class="edge">
<title>Node1&#45;&gt;Node2</title>
<path fill="none" stroke="#63b8ff" d="M292.61,-114.11C242.51,-107.47 146.36,-93.73 55.35,-74.31"/>
<polygon fill="#63b8ff" stroke="#63b8ff" points="56.27,-70.93 45.76,-72.23 54.79,-77.77 56.27,-70.93"/>
</g>
<!-- Node3 -->
<g id="node3" class="node">
<title>Node3</title>
<g id="a_node3"><a xlink:title=" ">
<polygon fill="#e0e0e0" stroke="#999999" points="108,-74 62,-74 62,-55 108,-55 108,-74"/>
<text text-anchor="middle" x="85" y="-62" font-family="Helvetica,sans-Serif" font-size="10.00">cstdio</text>
</a>
</g>
</g>
<!-- Node1&#45;&gt;Node3 -->
<g id="edge2" class="edge">
<title>Node1&#45;&gt;Node3</title>
<path fill="none" stroke="#63b8ff" d="M292.69,-111.79C253.21,-103.94 186.17,-90.25 119.51,-74.51"/>
<polygon fill="#63b8ff" stroke="#63b8ff" points="120.4,-71.12 109.86,-72.21 118.77,-77.93 120.4,-71.12"/>
</g>
<!-- Node4 -->
<g id="node4" class="node">
<title>Node4</title>
<g id="a_node4"><a xlink:title=" ">
<polygon fill="#e0e0e0" stroke="#999999" points="181.5,-74 126.5,-74 126.5,-55 181.5,-55 181.5,-74"/>
<text text-anchor="middle" x="154" y="-62" font-family="Helvetica,sans-Serif" font-size="10.00">fstream</text>
</a>
</g>
</g>
<!-- Node1&#45;&gt;Node4 -->
<g id="edge3" class="edge">
<title>Node1&#45;&gt;Node4</title>
<path fill="none" stroke="#63b8ff" d="M297.65,-109.51C268.68,-100.63 224.22,-87.01 192.44,-77.28"/>
<polygon fill="#63b8ff" stroke="#63b8ff" points="193.81,-74.03 183.22,-74.45 191.75,-80.73 193.81,-74.03"/>
</g>
<!-- Node5 -->
<g id="node5" class="node">
<title>Node5</title>
<g id="a_node5"><a xlink:title=" ">
<polygon fill="#e0e0e0" stroke="#999999" points="256,-74 200,-74 200,-55 256,-55 256,-74"/>
<text text-anchor="middle" x="228" y="-62" font-family="Helvetica,sans-Serif" font-size="10.00">sstream</text>
</a>
</g>
</g>
<!-- Node1&#45;&gt;Node5 -->
<g id="edge4" class="edge">
<title>Node1&#45;&gt;Node5</title>
<path fill="none" stroke="#63b8ff" d="M310.21,-109.51C294.9,-101.31 272.03,-89.07 254.3,-79.58"/>
<polygon fill="#63b8ff" stroke="#63b8ff" points="256.35,-76.71 245.88,-75.07 253.04,-82.88 256.35,-76.71"/>
</g>
<!-- Node6 -->
<g id="node6" class="node">
<title>Node6</title>
<g id="a_node6"><a xlink:title=" ">
<polygon fill="#e0e0e0" stroke="#999999" points="317.5,-74 274.5,-74 274.5,-55 317.5,-55 317.5,-74"/>
<text text-anchor="middle" x="296" y="-62" font-family="Helvetica,sans-Serif" font-size="10.00">stack</text>
</a>
</g>
</g>
<!-- Node1&#45;&gt;Node6 -->
<g id="edge5" class="edge">
<title>Node1&#45;&gt;Node6</title>
<path fill="none" stroke="#63b8ff" d="M321.88,-109.75C317.82,-102.81 312.01,-92.86 306.91,-84.16"/>
<polygon fill="#63b8ff" stroke="#63b8ff" points="310.06,-82.61 301.99,-75.75 304.02,-86.15 310.06,-82.61"/>
</g>
<!-- Node7 -->
<g id="node7" class="node">
<title>Node7</title>
<g id="a_node7"><a xlink:title=" ">
<polygon fill="#e0e0e0" stroke="#999999" points="382.5,-74 335.5,-74 335.5,-55 382.5,-55 382.5,-74"/>
<text text-anchor="middle" x="359" y="-62" font-family="Helvetica,sans-Serif" font-size="10.00">vector</text>
</a>
</g>
</g>
<!-- Node1&#45;&gt;Node7 -->
<g id="edge6" class="edge">
<title>Node1&#45;&gt;Node7</title>
<path fill="none" stroke="#63b8ff" d="M332.28,-109.75C336.47,-102.81 342.48,-92.86 347.73,-84.16"/>
<polygon fill="#63b8ff" stroke="#63b8ff" points="350.65,-86.11 352.82,-75.74 344.65,-82.49 350.65,-86.11"/>
</g>
<!-- Node8 -->
<g id="node8" class="node">
<title>Node8</title>
<g id="a_node8"><a xlink:title=" ">
<polygon fill="#e0e0e0" stroke="#999999" points="451,-74 401,-74 401,-55 451,-55 451,-74"/>
<text text-anchor="middle" x="426" y="-62" font-family="Helvetica,sans-Serif" font-size="10.00">chrono</text>
</a>
</g>
</g>
<!-- Node1&#45;&gt;Node8 -->
<g id="edge7" class="edge">
<title>Node1&#45;&gt;Node8</title>
<path fill="none" stroke="#63b8ff" d="M343.79,-109.51C359.1,-101.31 381.97,-89.07 399.7,-79.58"/>
<polygon fill="#63b8ff" stroke="#63b8ff" points="400.96,-82.88 408.12,-75.07 397.65,-76.71 400.96,-82.88"/>
</g>
<!-- Node9 -->
<g id="node9" class="node">
<title>Node9</title>
<g id="a_node9"><a xlink:title=" ">
<polygon fill="#e0e0e0" stroke="#999999" points="558.5,-74 469.5,-74 469.5,-55 558.5,-55 558.5,-74"/>
<text text-anchor="middle" x="514" y="-62" font-family="Helvetica,sans-Serif" font-size="10.00">TGUI/TGUI.hpp</text>
</a>
</g>
</g>
<!-- Node1&#45;&gt;Node9 -->
<g id="edge8" class="edge">
<title>Node1&#45;&gt;Node9</title>
<path fill="none" stroke="#63b8ff" d="M358.72,-109.51C389.84,-100.69 437.5,-87.18 471.8,-77.46"/>
<polygon fill="#63b8ff" stroke="#63b8ff" points="472.31,-80.95 480.98,-74.86 470.4,-74.22 472.31,-80.95"/>
</g>
<!-- Node10 -->
<g id="node10" class="node">
<title>Node10</title>
<g id="a_node10"><a xlink:title=" ">
<polygon fill="#e0e0e0" stroke="#999999" points="466,-19 428,-19 428,0 466,0 466,-19"/>
<text text-anchor="middle" x="447" y="-7" font-family="Helvetica,sans-Serif" font-size="10.00">map</text>
</a>
</g>
</g>
<!-- Node1&#45;&gt;Node10 -->
<g id="edge9" class="edge">
<title>Node1&#45;&gt;Node10</title>
<path fill="none" stroke="#63b8ff" d="M361.5,-117.32C421.52,-114.47 541.26,-104.95 567,-74 572.4,-67.51 571.82,-61.93 567,-55 561.63,-47.28 510.85,-30.3 477.09,-19.69"/>
<polygon fill="#63b8ff" stroke="#63b8ff" points="478.42,-16.44 467.83,-16.81 476.34,-23.12 478.42,-16.44"/>
</g>
<!-- Node11 -->
<g id="node11" class="node">
<title>Node11</title>
<g id="a_node11"><a xlink:href="AudioController_8h.html" target="_top" xlink:title=" ">
<polygon fill="white" stroke="#666666" points="856.5,-74 755.5,-74 755.5,-55 856.5,-55 856.5,-74"/>
<text text-anchor="middle" x="806" y="-62" font-family="Helvetica,sans-Serif" font-size="10.00">AudioController.h</text>
</a>
</g>
</g>
<!-- Node1&#45;&gt;Node11 -->
<g id="edge10" class="edge">
<title>Node1&#45;&gt;Node11</title>
<path fill="none" stroke="#63b8ff" d="M361.45,-114.69C441.59,-105.82 641.48,-83.7 743.68,-72.4"/>
<polygon fill="#63b8ff" stroke="#63b8ff" points="743.99,-75.88 753.55,-71.3 743.22,-68.92 743.99,-75.88"/>
</g>
<!-- Node11&#45;&gt;Node10 -->
<g id="edge15" class="edge">
<title>Node11&#45;&gt;Node10</title>
<path fill="none" stroke="#63b8ff" d="M755.09,-59.22C691.95,-53.36 580.93,-41.19 477.43,-19.22"/>
<polygon fill="#63b8ff" stroke="#63b8ff" points="478.47,-15.86 467.96,-17.17 476.99,-22.7 478.47,-15.86"/>
</g>
<!-- Node12 -->
<g id="node12" class="node">
<title>Node12</title>
<g id="a_node12"><a xlink:title=" ">
<polygon fill="#e0e0e0" stroke="#999999" points="579.5,-19 484.5,-19 484.5,0 579.5,0 579.5,-19"/>
<text text-anchor="middle" x="532" y="-7" font-family="Helvetica,sans-Serif" font-size="10.00">SFML/Audio.hpp</text>
</a>
</g>
</g>
<!-- Node11&#45;&gt;Node12 -->
<g id="edge11" class="edge">
<title>Node11&#45;&gt;Node12</title>
<path fill="none" stroke="#63b8ff" d="M759.52,-54.51C712.54,-45.42 639.84,-31.36 589.31,-21.59"/>
<polygon fill="#63b8ff" stroke="#63b8ff" points="590.22,-18.2 579.74,-19.73 588.89,-25.07 590.22,-18.2"/>
</g>
<!-- Node13 -->
<g id="node13" class="node">
<title>Node13</title>
<g id="a_node13"><a xlink:title=" ">
<polygon fill="#e0e0e0" stroke="#999999" points="724,-19 598,-19 598,0 724,0 724,-19"/>
<text text-anchor="middle" x="661" y="-7" font-family="Helvetica,sans-Serif" font-size="10.00">SFML/Audio/Music.hpp</text>
</a>
</g>
</g>
<!-- Node11&#45;&gt;Node13 -->
<g id="edge12" class="edge">
<title>Node11&#45;&gt;Node13</title>
<path fill="none" stroke="#63b8ff" d="M781.4,-54.51C757.93,-45.93 722.33,-32.92 695.93,-23.27"/>
<polygon fill="#63b8ff" stroke="#63b8ff" points="697.25,-20.02 686.66,-19.88 694.85,-26.6 697.25,-20.02"/>
</g>
<!-- Node14 -->
<g id="node14" class="node">
<title>Node14</title>
<g id="a_node14"><a xlink:title=" ">
<polygon fill="#e0e0e0" stroke="#999999" points="870,-19 742,-19 742,0 870,0 870,-19"/>
<text text-anchor="middle" x="806" y="-7" font-family="Helvetica,sans-Serif" font-size="10.00">SFML/Audio/Sound.hpp</text>
</a>
</g>
</g>
<!-- Node11&#45;&gt;Node14 -->
<g id="edge13" class="edge">
<title>Node11&#45;&gt;Node14</title>
<path fill="none" stroke="#63b8ff" d="M806,-54.75C806,-48.27 806,-39.16 806,-30.9"/>
<polygon fill="#63b8ff" stroke="#63b8ff" points="809.5,-30.96 806,-20.96 802.5,-30.96 809.5,-30.96"/>
</g>
<!-- Node15 -->
<g id="node15" class="node">
<title>Node15</title>
<g id="a_node15"><a xlink:title=" ">
<polygon fill="#e0e0e0" stroke="#999999" points="1044,-19 888,-19 888,0 1044,0 1044,-19"/>
<text text-anchor="middle" x="966" y="-7" font-family="Helvetica,sans-Serif" font-size="10.00">SFML/Audio/SoundBuffer.hpp</text>
</a>
</g>
</g>
<!-- Node11&#45;&gt;Node15 -->
<g id="edge14" class="edge">
<title>Node11&#45;&gt;Node15</title>
<path fill="none" stroke="#63b8ff" d="M833.14,-54.51C859.31,-45.84 899.14,-32.65 928.36,-22.97"/>
<polygon fill="#63b8ff" stroke="#63b8ff" points="929.16,-26.39 937.56,-19.92 926.96,-19.74 929.16,-26.39"/>
</g>
<!-- Node16 -->
<g id="node16" class="node">
<title>Node16</title>
<g id="a_node16"><a xlink:title=" ">
<polygon fill="#e0e0e0" stroke="#999999" points="1106,-19 1062,-19 1062,0 1106,0 1106,-19"/>
<text text-anchor="middle" x="1084" y="-7" font-family="Helvetica,sans-Serif" font-size="10.00">string</text>
</a>
</g>
</g>
<!-- Node11&#45;&gt;Node16 -->
<g id="edge16" class="edge">
<title>Node11&#45;&gt;Node16</title>
<path fill="none" stroke="#63b8ff" d="M856.88,-55.7C904.56,-48.08 978.04,-35.57 1050.55,-19.39"/>
<polygon fill="#63b8ff" stroke="#63b8ff" points="1051.25,-22.82 1060.23,-17.2 1049.71,-15.99 1051.25,-22.82"/>
</g>
<!-- Node17 -->
<g id="node17" class="node">
<title>Node17</title>
<g id="a_node17"><a xlink:title=" ">
<polygon fill="#e0e0e0" stroke="#999999" points="1182,-19 1124,-19 1124,0 1182,0 1182,-19"/>
<text text-anchor="middle" x="1153" y="-7" font-family="Helvetica,sans-Serif" font-size="10.00">memory</text>
</a>
</g>
</g>
<!-- Node11&#45;&gt;Node17 -->
<g id="edge17" class="edge">
<title>Node11&#45;&gt;Node17</title>
<path fill="none" stroke="#63b8ff" d="M856.78,-57.41C915.88,-50.04 1016.68,-36.65 1112.53,-19.33"/>
<polygon fill="#63b8ff" stroke="#63b8ff" points="1112.89,-22.83 1122.1,-17.59 1111.63,-15.94 1112.89,-22.83"/>
</g>
<!-- Node18 -->
<g id="node18" class="node">
<title>Node18</title>
<g id="a_node18"><a xlink:title=" ">
<polygon fill="#e0e0e0" stroke="#999999" points="1232,-19 1200,-19 1200,0 1232,0 1232,-19"/>
<text text-anchor="middle" x="1216" y="-7" font-family="Helvetica,sans-Serif" font-size="10.00">list</text>
</a>
</g>
</g>
<!-- Node11&#45;&gt;Node18 -->
<g id="edge18" class="edge">
<title>Node11&#45;&gt;Node18</title>
<path fill="none" stroke="#63b8ff" d="M856.72,-61.08C928.73,-56.89 1064.74,-46.21 1188.56,-19.09"/>
<polygon fill="#63b8ff" stroke="#63b8ff" points="1189.27,-22.51 1198.26,-16.92 1187.74,-15.68 1189.27,-22.51"/>
</g>
</g>
</svg>
