<?xml version="1.0" encoding="UTF-8" standalone="no"?>
<!DOCTYPE svg PUBLIC "-//W3C//DTD SVG 1.1//EN"
 "http://www.w3.org/Graphics/SVG/1.1/DTD/svg11.dtd">
<!-- Generated by graphviz version 7.0.5 (0)
 -->
<!-- Title: src/SummaryMenu.h Pages: 1 -->
<svg width="330pt" height="247pt"
 viewBox="0.00 0.00 329.50 247.00" xmlns="http://www.w3.org/2000/svg" xmlns:xlink="http://www.w3.org/1999/xlink">
<g id="graph0" class="graph" transform="scale(1 1) rotate(0) translate(4 243)">
<title>src/SummaryMenu.h</title>
<!-- Node1 -->
<g id="node1" class="node">
<title>Node1</title>
<g id="a_node1"><a xlink:title=" ">
<polygon fill="#999999" stroke="#666666" points="188.5,-239 71.5,-239 71.5,-220 188.5,-220 188.5,-239"/>
<text text-anchor="middle" x="130" y="-227" font-family="Helvetica,sans-Serif" font-size="10.00">src/SummaryMenu.h</text>
</a>
</g>
</g>
<!-- Node2 -->
<g id="node2" class="node">
<title>Node2</title>
<g id="a_node2"><a xlink:href="GameState_8h.html" target="_top" xlink:title=" ">
<polygon fill="white" stroke="#666666" points="179,-184 81,-184 81,-165 179,-165 179,-184"/>
<text text-anchor="middle" x="130" y="-172" font-family="Helvetica,sans-Serif" font-size="10.00">src/GameState.h</text>
</a>
</g>
</g>
<!-- Node1&#45;&gt;Node2 -->
<g id="edge1" class="edge">
<title>Node1&#45;&gt;Node2</title>
<path fill="none" stroke="#63b8ff" d="M130,-208.35C130,-200.1 130,-190.97 130,-184.44"/>
<polygon fill="#63b8ff" stroke="#63b8ff" points="126.5,-208.23 130,-218.23 133.5,-208.23 126.5,-208.23"/>
</g>
<!-- Node3 -->
<g id="node3" class="node">
<title>Node3</title>
<g id="a_node3"><a xlink:href="GameState_8cpp.html" target="_top" xlink:title=" ">
<polygon fill="white" stroke="#666666" points="118.5,-129 9.5,-129 9.5,-110 118.5,-110 118.5,-129"/>
<text text-anchor="middle" x="64" y="-117" font-family="Helvetica,sans-Serif" font-size="10.00">src/GameState.cpp</text>
</a>
</g>
</g>
<!-- Node2&#45;&gt;Node3 -->
<g id="edge2" class="edge">
<title>Node2&#45;&gt;Node3</title>
<path fill="none" stroke="#63b8ff" d="M109.91,-157.37C98.45,-148.16 84.52,-136.98 75.03,-129.36"/>
<polygon fill="#63b8ff" stroke="#63b8ff" points="107.64,-160.03 117.62,-163.56 112.02,-154.57 107.64,-160.03"/>
</g>
<!-- Node4 -->
<g id="node4" class="node">
<title>Node4</title>
<g id="a_node4"><a xlink:href="MainMenuState_8h.html" target="_top" xlink:title=" ">
<polygon fill="white" stroke="#666666" points="255.5,-129 136.5,-129 136.5,-110 255.5,-110 255.5,-129"/>
<text text-anchor="middle" x="196" y="-117" font-family="Helvetica,sans-Serif" font-size="10.00">src/MainMenuState.h</text>
</a>
</g>
</g>
<!-- Node2&#45;&gt;Node4 -->
<g id="edge3" class="edge">
<title>Node2&#45;&gt;Node4</title>
<path fill="none" stroke="#63b8ff" d="M150.09,-157.37C161.55,-148.16 175.48,-136.98 184.97,-129.36"/>
<polygon fill="#63b8ff" stroke="#63b8ff" points="147.98,-154.57 142.38,-163.56 152.36,-160.03 147.98,-154.57"/>
</g>
<!-- Node5 -->
<g id="node5" class="node">
<title>Node5</title>
<g id="a_node5"><a xlink:href="Game_8h.html" target="_top" xlink:title=" ">
<polygon fill="white" stroke="#666666" points="172,-74 100,-74 100,-55 172,-55 172,-74"/>
<text text-anchor="middle" x="136" y="-62" font-family="Helvetica,sans-Serif" font-size="10.00">src/Game.h</text>
</a>
</g>
</g>
<!-- Node4&#45;&gt;Node5 -->
<g id="edge4" class="edge">
<title>Node4&#45;&gt;Node5</title>
<path fill="none" stroke="#63b8ff" d="M177.42,-102.09C167.06,-92.94 154.57,-81.9 146.03,-74.36"/>
<polygon fill="#63b8ff" stroke="#63b8ff" points="174.88,-104.51 184.69,-108.51 179.51,-99.26 174.88,-104.51"/>
</g>
<!-- Node8 -->
<g id="node8" class="node">
<title>Node8</title>
<g id="a_node8"><a xlink:href="MainMenuState_8cpp.html" target="_top" xlink:title=" ">
<polygon fill="white" stroke="#666666" points="321.5,-74 190.5,-74 190.5,-55 321.5,-55 321.5,-74"/>
<text text-anchor="middle" x="256" y="-62" font-family="Helvetica,sans-Serif" font-size="10.00">src/MainMenuState.cpp</text>
</a>
</g>
</g>
<!-- Node4&#45;&gt;Node8 -->
<g id="edge7" class="edge">
<title>Node4&#45;&gt;Node8</title>
<path fill="none" stroke="#63b8ff" d="M214.58,-102.09C224.94,-92.94 237.43,-81.9 245.97,-74.36"/>
<polygon fill="#63b8ff" stroke="#63b8ff" points="212.49,-99.26 207.31,-108.51 217.12,-104.51 212.49,-99.26"/>
</g>
<!-- Node6 -->
<g id="node6" class="node">
<title>Node6</title>
<g id="a_node6"><a xlink:href="FinalProjectCS202_8cpp.html" target="_top" xlink:title=" ">
<polygon fill="white" stroke="#666666" points="142,-19 0,-19 0,0 142,0 142,-19"/>
<text text-anchor="middle" x="71" y="-7" font-family="Helvetica,sans-Serif" font-size="10.00">src/FinalProjectCS202.cpp</text>
</a>
</g>
</g>
<!-- Node5&#45;&gt;Node6 -->
<g id="edge5" class="edge">
<title>Node5&#45;&gt;Node6</title>
<path fill="none" stroke="#63b8ff" d="M116.21,-47.37C104.92,-38.16 91.21,-26.98 81.86,-19.36"/>
<polygon fill="#63b8ff" stroke="#63b8ff" points="113.84,-49.95 123.8,-53.55 118.26,-44.52 113.84,-49.95"/>
</g>
<!-- Node7 -->
<g id="node7" class="node">
<title>Node7</title>
<g id="a_node7"><a xlink:href="Game_8cpp.html" target="_top" xlink:title=" ">
<polygon fill="white" stroke="#666666" points="243.5,-19 160.5,-19 160.5,0 243.5,0 243.5,-19"/>
<text text-anchor="middle" x="202" y="-7" font-family="Helvetica,sans-Serif" font-size="10.00">src/Game.cpp</text>
</a>
</g>
</g>
<!-- Node5&#45;&gt;Node7 -->
<g id="edge6" class="edge">
<title>Node5&#45;&gt;Node7</title>
<path fill="none" stroke="#63b8ff" d="M156.09,-47.37C167.55,-38.16 181.48,-26.98 190.97,-19.36"/>
<polygon fill="#63b8ff" stroke="#63b8ff" points="153.98,-44.57 148.38,-53.56 158.36,-50.03 153.98,-44.57"/>
</g>
</g>
</svg>
