<?xml version="1.0" encoding="UTF-8" standalone="no"?>
<!DOCTYPE svg PUBLIC "-//W3C//DTD SVG 1.1//EN"
 "http://www.w3.org/Graphics/SVG/1.1/DTD/svg11.dtd">
<!-- Generated by graphviz version 7.0.5 (0)
 -->
<!-- Title: src/SummaryMenu.h Pages: 1 -->
<svg width="1240pt" height="192pt"
 viewBox="0.00 0.00 1239.50 192.00" xmlns="http://www.w3.org/2000/svg" xmlns:xlink="http://www.w3.org/1999/xlink">
<g id="graph0" class="graph" transform="scale(1 1) rotate(0) translate(4 188)">
<title>src/SummaryMenu.h</title>
<!-- Node1 -->
<g id="node1" class="node">
<title>Node1</title>
<g id="a_node1"><a xlink:title=" ">
<polygon fill="#999999" stroke="#666666" points="220,-184 103,-184 103,-165 220,-165 220,-184"/>
<text text-anchor="middle" x="161.5" y="-172" font-family="Helvetica,sans-Serif" font-size="10.00">src/SummaryMenu.h</text>
</a>
</g>
</g>
<!-- Node2 -->
<g id="node2" class="node">
<title>Node2</title>
<g id="a_node2"><a xlink:href="State_8h.html" target="_top" xlink:title=" ">
<polygon fill="white" stroke="#666666" points="321,-129 270,-129 270,-110 321,-110 321,-129"/>
<text text-anchor="middle" x="295.5" y="-117" font-family="Helvetica,sans-Serif" font-size="10.00">State.h</text>
</a>
</g>
</g>
<!-- Node1&#45;&gt;Node2 -->
<g id="edge1" class="edge">
<title>Node1&#45;&gt;Node2</title>
<path fill="none" stroke="#63b8ff" d="M184.23,-164.51C205.73,-156.01 238.23,-143.15 262.57,-133.53"/>
<polygon fill="#63b8ff" stroke="#63b8ff" points="263.69,-136.85 271.7,-129.91 261.11,-130.34 263.69,-136.85"/>
</g>
<!-- Node5 -->
<g id="node5" class="node">
<title>Node5</title>
<g id="a_node5"><a xlink:title=" ">
<polygon fill="#e0e0e0" stroke="#999999" points="55,-74 0,-74 0,-55 55,-55 55,-74"/>
<text text-anchor="middle" x="27.5" y="-62" font-family="Helvetica,sans-Serif" font-size="10.00">fstream</text>
</a>
</g>
</g>
<!-- Node1&#45;&gt;Node5 -->
<g id="edge20" class="edge">
<title>Node1&#45;&gt;Node5</title>
<path fill="none" stroke="#63b8ff" d="M150.53,-164.66C127.96,-146.47 76.01,-104.6 47.36,-81.51"/>
<polygon fill="#63b8ff" stroke="#63b8ff" points="49.78,-78.96 39.8,-75.41 45.39,-84.41 49.78,-78.96"/>
</g>
<!-- Node3 -->
<g id="node3" class="node">
<title>Node3</title>
<g id="a_node3"><a xlink:title=" ">
<polygon fill="#e0e0e0" stroke="#999999" points="117.5,-74 73.5,-74 73.5,-55 117.5,-55 117.5,-74"/>
<text text-anchor="middle" x="95.5" y="-62" font-family="Helvetica,sans-Serif" font-size="10.00">ctime</text>
</a>
</g>
</g>
<!-- Node2&#45;&gt;Node3 -->
<g id="edge2" class="edge">
<title>Node2&#45;&gt;Node3</title>
<path fill="none" stroke="#63b8ff" d="M269.71,-111.8C238.56,-103.68 184.28,-89.48 128.62,-74.55"/>
<polygon fill="#63b8ff" stroke="#63b8ff" points="129.87,-71.26 119.31,-72.05 128.06,-78.02 129.87,-71.26"/>
</g>
<!-- Node4 -->
<g id="node4" class="node">
<title>Node4</title>
<g id="a_node4"><a xlink:title=" ">
<polygon fill="#e0e0e0" stroke="#999999" points="181.5,-74 135.5,-74 135.5,-55 181.5,-55 181.5,-74"/>
<text text-anchor="middle" x="158.5" y="-62" font-family="Helvetica,sans-Serif" font-size="10.00">cstdio</text>
</a>
</g>
</g>
<!-- Node2&#45;&gt;Node4 -->
<g id="edge3" class="edge">
<title>Node2&#45;&gt;Node4</title>
<path fill="none" stroke="#63b8ff" d="M272.26,-109.51C250.18,-100.97 216.75,-88.03 191.83,-78.4"/>
<polygon fill="#63b8ff" stroke="#63b8ff" points="193.4,-75.25 182.81,-74.9 190.87,-81.78 193.4,-75.25"/>
</g>
<!-- Node2&#45;&gt;Node5 -->
<g id="edge4" class="edge">
<title>Node2&#45;&gt;Node5</title>
<path fill="none" stroke="#63b8ff" d="M269.8,-113.86C228.93,-106.41 146.33,-91.08 66.14,-74.28"/>
<polygon fill="#63b8ff" stroke="#63b8ff" points="67.34,-70.96 56.84,-72.32 65.9,-77.81 67.34,-70.96"/>
</g>
<!-- Node6 -->
<g id="node6" class="node">
<title>Node6</title>
<g id="a_node6"><a xlink:title=" ">
<polygon fill="#e0e0e0" stroke="#999999" points="255.5,-74 199.5,-74 199.5,-55 255.5,-55 255.5,-74"/>
<text text-anchor="middle" x="227.5" y="-62" font-family="Helvetica,sans-Serif" font-size="10.00">sstream</text>
</a>
</g>
</g>
<!-- Node2&#45;&gt;Node6 -->
<g id="edge5" class="edge">
<title>Node2&#45;&gt;Node6</title>
<path fill="none" stroke="#63b8ff" d="M283.96,-109.51C274.04,-101.77 259.49,-90.43 247.64,-81.2"/>
<polygon fill="#63b8ff" stroke="#63b8ff" points="250.1,-78.68 240.06,-75.29 245.79,-84.2 250.1,-78.68"/>
</g>
<!-- Node7 -->
<g id="node7" class="node">
<title>Node7</title>
<g id="a_node7"><a xlink:title=" ">
<polygon fill="#e0e0e0" stroke="#999999" points="317,-74 274,-74 274,-55 317,-55 317,-74"/>
<text text-anchor="middle" x="295.5" y="-62" font-family="Helvetica,sans-Serif" font-size="10.00">stack</text>
</a>
</g>
</g>
<!-- Node2&#45;&gt;Node7 -->
<g id="edge6" class="edge">
<title>Node2&#45;&gt;Node7</title>
<path fill="none" stroke="#63b8ff" d="M295.5,-109.75C295.5,-103.27 295.5,-94.16 295.5,-85.9"/>
<polygon fill="#63b8ff" stroke="#63b8ff" points="299,-85.96 295.5,-75.96 292,-85.96 299,-85.96"/>
</g>
<!-- Node8 -->
<g id="node8" class="node">
<title>Node8</title>
<g id="a_node8"><a xlink:title=" ">
<polygon fill="#e0e0e0" stroke="#999999" points="382,-74 335,-74 335,-55 382,-55 382,-74"/>
<text text-anchor="middle" x="358.5" y="-62" font-family="Helvetica,sans-Serif" font-size="10.00">vector</text>
</a>
</g>
</g>
<!-- Node2&#45;&gt;Node8 -->
<g id="edge7" class="edge">
<title>Node2&#45;&gt;Node8</title>
<path fill="none" stroke="#63b8ff" d="M306.19,-109.51C315.2,-101.93 328.33,-90.88 339.18,-81.75"/>
<polygon fill="#63b8ff" stroke="#63b8ff" points="341.41,-84.45 346.81,-75.33 336.91,-79.09 341.41,-84.45"/>
</g>
<!-- Node9 -->
<g id="node9" class="node">
<title>Node9</title>
<g id="a_node9"><a xlink:title=" ">
<polygon fill="#e0e0e0" stroke="#999999" points="450.5,-74 400.5,-74 400.5,-55 450.5,-55 450.5,-74"/>
<text text-anchor="middle" x="425.5" y="-62" font-family="Helvetica,sans-Serif" font-size="10.00">chrono</text>
</a>
</g>
</g>
<!-- Node2&#45;&gt;Node9 -->
<g id="edge8" class="edge">
<title>Node2&#45;&gt;Node9</title>
<path fill="none" stroke="#63b8ff" d="M317.55,-109.51C338.31,-101.04 369.66,-88.27 393.23,-78.66"/>
<polygon fill="#63b8ff" stroke="#63b8ff" points="394.43,-81.95 402.37,-74.93 391.79,-75.46 394.43,-81.95"/>
</g>
<!-- Node10 -->
<g id="node10" class="node">
<title>Node10</title>
<g id="a_node10"><a xlink:title=" ">
<polygon fill="#e0e0e0" stroke="#999999" points="558,-74 469,-74 469,-55 558,-55 558,-74"/>
<text text-anchor="middle" x="513.5" y="-62" font-family="Helvetica,sans-Serif" font-size="10.00">TGUI/TGUI.hpp</text>
</a>
</g>
</g>
<!-- Node2&#45;&gt;Node10 -->
<g id="edge9" class="edge">
<title>Node2&#45;&gt;Node10</title>
<path fill="none" stroke="#63b8ff" d="M321.36,-112.21C356.85,-103.59 421.27,-87.92 465.67,-77.13"/>
<polygon fill="#63b8ff" stroke="#63b8ff" points="466.42,-80.55 475.31,-74.79 464.76,-73.75 466.42,-80.55"/>
</g>
<!-- Node11 -->
<g id="node11" class="node">
<title>Node11</title>
<g id="a_node11"><a xlink:title=" ">
<polygon fill="#e0e0e0" stroke="#999999" points="465.5,-19 427.5,-19 427.5,0 465.5,0 465.5,-19"/>
<text text-anchor="middle" x="446.5" y="-7" font-family="Helvetica,sans-Serif" font-size="10.00">map</text>
</a>
</g>
</g>
<!-- Node2&#45;&gt;Node11 -->
<g id="edge10" class="edge">
<title>Node2&#45;&gt;Node11</title>
<path fill="none" stroke="#63b8ff" d="M321.06,-118.32C382.38,-117.29 535.1,-110.98 566.5,-74 571.97,-67.56 571.32,-61.93 566.5,-55 561.13,-47.28 510.35,-30.3 476.59,-19.69"/>
<polygon fill="#63b8ff" stroke="#63b8ff" points="477.92,-16.44 467.33,-16.81 475.84,-23.12 477.92,-16.44"/>
</g>
<!-- Node12 -->
<g id="node12" class="node">
<title>Node12</title>
<g id="a_node12"><a xlink:href="AudioController_8h.html" target="_top" xlink:title=" ">
<polygon fill="white" stroke="#666666" points="856,-74 755,-74 755,-55 856,-55 856,-74"/>
<text text-anchor="middle" x="805.5" y="-62" font-family="Helvetica,sans-Serif" font-size="10.00">AudioController.h</text>
</a>
</g>
</g>
<!-- Node2&#45;&gt;Node12 -->
<g id="edge11" class="edge">
<title>Node2&#45;&gt;Node12</title>
<path fill="none" stroke="#63b8ff" d="M321.49,-115.8C399.21,-107.72 631.33,-83.6 743.48,-71.94"/>
<polygon fill="#63b8ff" stroke="#63b8ff" points="743.51,-75.46 753.1,-70.95 742.79,-68.5 743.51,-75.46"/>
</g>
<!-- Node12&#45;&gt;Node11 -->
<g id="edge16" class="edge">
<title>Node12&#45;&gt;Node11</title>
<path fill="none" stroke="#63b8ff" d="M754.59,-59.22C691.45,-53.36 580.43,-41.19 476.93,-19.22"/>
<polygon fill="#63b8ff" stroke="#63b8ff" points="477.97,-15.86 467.46,-17.17 476.49,-22.7 477.97,-15.86"/>
</g>
<!-- Node13 -->
<g id="node13" class="node">
<title>Node13</title>
<g id="a_node13"><a xlink:title=" ">
<polygon fill="#e0e0e0" stroke="#999999" points="579,-19 484,-19 484,0 579,0 579,-19"/>
<text text-anchor="middle" x="531.5" y="-7" font-family="Helvetica,sans-Serif" font-size="10.00">SFML/Audio.hpp</text>
</a>
</g>
</g>
<!-- Node12&#45;&gt;Node13 -->
<g id="edge12" class="edge">
<title>Node12&#45;&gt;Node13</title>
<path fill="none" stroke="#63b8ff" d="M759.02,-54.51C712.04,-45.42 639.34,-31.36 588.81,-21.59"/>
<polygon fill="#63b8ff" stroke="#63b8ff" points="589.72,-18.2 579.24,-19.73 588.39,-25.07 589.72,-18.2"/>
</g>
<!-- Node14 -->
<g id="node14" class="node">
<title>Node14</title>
<g id="a_node14"><a xlink:title=" ">
<polygon fill="#e0e0e0" stroke="#999999" points="723.5,-19 597.5,-19 597.5,0 723.5,0 723.5,-19"/>
<text text-anchor="middle" x="660.5" y="-7" font-family="Helvetica,sans-Serif" font-size="10.00">SFML/Audio/Music.hpp</text>
</a>
</g>
</g>
<!-- Node12&#45;&gt;Node14 -->
<g id="edge13" class="edge">
<title>Node12&#45;&gt;Node14</title>
<path fill="none" stroke="#63b8ff" d="M780.9,-54.51C757.43,-45.93 721.83,-32.92 695.43,-23.27"/>
<polygon fill="#63b8ff" stroke="#63b8ff" points="696.75,-20.02 686.16,-19.88 694.35,-26.6 696.75,-20.02"/>
</g>
<!-- Node15 -->
<g id="node15" class="node">
<title>Node15</title>
<g id="a_node15"><a xlink:title=" ">
<polygon fill="#e0e0e0" stroke="#999999" points="869.5,-19 741.5,-19 741.5,0 869.5,0 869.5,-19"/>
<text text-anchor="middle" x="805.5" y="-7" font-family="Helvetica,sans-Serif" font-size="10.00">SFML/Audio/Sound.hpp</text>
</a>
</g>
</g>
<!-- Node12&#45;&gt;Node15 -->
<g id="edge14" class="edge">
<title>Node12&#45;&gt;Node15</title>
<path fill="none" stroke="#63b8ff" d="M805.5,-54.75C805.5,-48.27 805.5,-39.16 805.5,-30.9"/>
<polygon fill="#63b8ff" stroke="#63b8ff" points="809,-30.96 805.5,-20.96 802,-30.96 809,-30.96"/>
</g>
<!-- Node16 -->
<g id="node16" class="node">
<title>Node16</title>
<g id="a_node16"><a xlink:title=" ">
<polygon fill="#e0e0e0" stroke="#999999" points="1043.5,-19 887.5,-19 887.5,0 1043.5,0 1043.5,-19"/>
<text text-anchor="middle" x="965.5" y="-7" font-family="Helvetica,sans-Serif" font-size="10.00">SFML/Audio/SoundBuffer.hpp</text>
</a>
</g>
</g>
<!-- Node12&#45;&gt;Node16 -->
<g id="edge15" class="edge">
<title>Node12&#45;&gt;Node16</title>
<path fill="none" stroke="#63b8ff" d="M832.64,-54.51C858.81,-45.84 898.64,-32.65 927.86,-22.97"/>
<polygon fill="#63b8ff" stroke="#63b8ff" points="928.66,-26.39 937.06,-19.92 926.46,-19.74 928.66,-26.39"/>
</g>
<!-- Node17 -->
<g id="node17" class="node">
<title>Node17</title>
<g id="a_node17"><a xlink:title=" ">
<polygon fill="#e0e0e0" stroke="#999999" points="1105.5,-19 1061.5,-19 1061.5,0 1105.5,0 1105.5,-19"/>
<text text-anchor="middle" x="1083.5" y="-7" font-family="Helvetica,sans-Serif" font-size="10.00">string</text>
</a>
</g>
</g>
<!-- Node12&#45;&gt;Node17 -->
<g id="edge17" class="edge">
<title>Node12&#45;&gt;Node17</title>
<path fill="none" stroke="#63b8ff" d="M856.38,-55.7C904.06,-48.08 977.54,-35.57 1050.05,-19.39"/>
<polygon fill="#63b8ff" stroke="#63b8ff" points="1050.75,-22.82 1059.73,-17.2 1049.21,-15.99 1050.75,-22.82"/>
</g>
<!-- Node18 -->
<g id="node18" class="node">
<title>Node18</title>
<g id="a_node18"><a xlink:title=" ">
<polygon fill="#e0e0e0" stroke="#999999" points="1181.5,-19 1123.5,-19 1123.5,0 1181.5,0 1181.5,-19"/>
<text text-anchor="middle" x="1152.5" y="-7" font-family="Helvetica,sans-Serif" font-size="10.00">memory</text>
</a>
</g>
</g>
<!-- Node12&#45;&gt;Node18 -->
<g id="edge18" class="edge">
<title>Node12&#45;&gt;Node18</title>
<path fill="none" stroke="#63b8ff" d="M856.28,-57.41C915.38,-50.04 1016.18,-36.65 1112.03,-19.33"/>
<polygon fill="#63b8ff" stroke="#63b8ff" points="1112.39,-22.83 1121.6,-17.59 1111.13,-15.94 1112.39,-22.83"/>
</g>
<!-- Node19 -->
<g id="node19" class="node">
<title>Node19</title>
<g id="a_node19"><a xlink:title=" ">
<polygon fill="#e0e0e0" stroke="#999999" points="1231.5,-19 1199.5,-19 1199.5,0 1231.5,0 1231.5,-19"/>
<text text-anchor="middle" x="1215.5" y="-7" font-family="Helvetica,sans-Serif" font-size="10.00">list</text>
</a>
</g>
</g>
<!-- Node12&#45;&gt;Node19 -->
<g id="edge19" class="edge">
<title>Node12&#45;&gt;Node19</title>
<path fill="none" stroke="#63b8ff" d="M856.22,-61.08C928.23,-56.89 1064.24,-46.21 1188.06,-19.09"/>
<polygon fill="#63b8ff" stroke="#63b8ff" points="1188.77,-22.51 1197.76,-16.92 1187.24,-15.68 1188.77,-22.51"/>
</g>
</g>
</svg>
