<?xml version="1.0" encoding="UTF-8" standalone="no"?>
<!DOCTYPE svg PUBLIC "-//W3C//DTD SVG 1.1//EN"
 "http://www.w3.org/Graphics/SVG/1.1/DTD/svg11.dtd">
<!-- Generated by graphviz version 7.0.5 (0)
 -->
<!-- Title: src/TextureHolder.cpp Pages: 1 -->
<svg width="592pt" height="247pt"
 viewBox="0.00 0.00 591.50 247.00" xmlns="http://www.w3.org/2000/svg" xmlns:xlink="http://www.w3.org/1999/xlink">
<g id="graph0" class="graph" transform="scale(1 1) rotate(0) translate(4 243)">
<title>src/TextureHolder.cpp</title>
<!-- Node1 -->
<g id="node1" class="node">
<title>Node1</title>
<g id="a_node1"><a xlink:title=" ">
<polygon fill="#999999" stroke="#666666" points="332.5,-239 210.5,-239 210.5,-220 332.5,-220 332.5,-239"/>
<text text-anchor="middle" x="271.5" y="-227" font-family="Helvetica,sans-Serif" font-size="10.00">src/TextureHolder.cpp</text>
</a>
</g>
</g>
<!-- Node2 -->
<g id="node2" class="node">
<title>Node2</title>
<g id="a_node2"><a xlink:title=" ">
<polygon fill="#e0e0e0" stroke="#999999" points="149,-129 0,-129 0,-110 149,-110 149,-129"/>
<text text-anchor="middle" x="74.5" y="-117" font-family="Helvetica,sans-Serif" font-size="10.00">SFML/Graphics/Texture.hpp</text>
</a>
</g>
</g>
<!-- Node1&#45;&gt;Node2 -->
<g id="edge1" class="edge">
<title>Node1&#45;&gt;Node2</title>
<path fill="none" stroke="#63b8ff" d="M255.38,-219.66C221.4,-201.03 142.14,-157.58 100.74,-134.89"/>
<polygon fill="#63b8ff" stroke="#63b8ff" points="102.62,-131.93 92.17,-130.19 99.26,-138.06 102.62,-131.93"/>
</g>
<!-- Node3 -->
<g id="node3" class="node">
<title>Node3</title>
<g id="a_node3"><a xlink:title=" ">
<polygon fill="#e0e0e0" stroke="#999999" points="583.5,-184 531.5,-184 531.5,-165 583.5,-165 583.5,-184"/>
<text text-anchor="middle" x="557.5" y="-172" font-family="Helvetica,sans-Serif" font-size="10.00">cassert</text>
</a>
</g>
</g>
<!-- Node1&#45;&gt;Node3 -->
<g id="edge2" class="edge">
<title>Node1&#45;&gt;Node3</title>
<path fill="none" stroke="#63b8ff" d="M323.42,-219.58C373.26,-210.91 450.64,-197.15 517.5,-184 518.34,-183.84 519.18,-183.67 520.03,-183.5"/>
<polygon fill="#63b8ff" stroke="#63b8ff" points="520.7,-186.93 529.79,-181.5 519.29,-180.08 520.7,-186.93"/>
</g>
<!-- Node4 -->
<g id="node4" class="node">
<title>Node4</title>
<g id="a_node4"><a xlink:title=" ">
<polygon fill="#e0e0e0" stroke="#999999" points="476.5,-19 416.5,-19 416.5,0 476.5,0 476.5,-19"/>
<text text-anchor="middle" x="446.5" y="-7" font-family="Helvetica,sans-Serif" font-size="10.00">iostream</text>
</a>
</g>
</g>
<!-- Node1&#45;&gt;Node4 -->
<g id="edge3" class="edge">
<title>Node1&#45;&gt;Node4</title>
<path fill="none" stroke="#63b8ff" d="M295.84,-219.6C342.67,-200.97 444.23,-152.95 484.5,-74 492.93,-57.48 479.76,-39.39 466.68,-26.77"/>
<polygon fill="#63b8ff" stroke="#63b8ff" points="469.25,-24.37 459.45,-20.33 464.6,-29.6 469.25,-24.37"/>
</g>
<!-- Node5 -->
<g id="node5" class="node">
<title>Node5</title>
<g id="a_node5"><a xlink:title=" ">
<polygon fill="#e0e0e0" stroke="#999999" points="225.5,-129 167.5,-129 167.5,-110 225.5,-110 225.5,-129"/>
<text text-anchor="middle" x="196.5" y="-117" font-family="Helvetica,sans-Serif" font-size="10.00">memory</text>
</a>
</g>
</g>
<!-- Node1&#45;&gt;Node5 -->
<g id="edge4" class="edge">
<title>Node1&#45;&gt;Node5</title>
<path fill="none" stroke="#63b8ff" d="M255.51,-219.55C242.91,-211.72 225.8,-199.22 215.5,-184 206.7,-171 201.88,-153.83 199.3,-140.62"/>
<polygon fill="#63b8ff" stroke="#63b8ff" points="202.79,-140.22 197.71,-130.92 195.88,-141.36 202.79,-140.22"/>
</g>
<!-- Node6 -->
<g id="node6" class="node">
<title>Node6</title>
<g id="a_node6"><a xlink:href="TextureHolder_8h.html" target="_top" xlink:title=" ">
<polygon fill="white" stroke="#666666" points="318,-184 225,-184 225,-165 318,-165 318,-184"/>
<text text-anchor="middle" x="271.5" y="-172" font-family="Helvetica,sans-Serif" font-size="10.00">TextureHolder.h</text>
</a>
</g>
</g>
<!-- Node1&#45;&gt;Node6 -->
<g id="edge5" class="edge">
<title>Node1&#45;&gt;Node6</title>
<path fill="none" stroke="#63b8ff" d="M271.5,-219.75C271.5,-213.27 271.5,-204.16 271.5,-195.9"/>
<polygon fill="#63b8ff" stroke="#63b8ff" points="275,-195.96 271.5,-185.96 268,-195.96 275,-195.96"/>
</g>
<!-- Node6&#45;&gt;Node2 -->
<g id="edge8" class="edge">
<title>Node6&#45;&gt;Node2</title>
<path fill="none" stroke="#63b8ff" d="M238.08,-164.51C205.15,-155.65 154.66,-142.07 118.48,-132.33"/>
<polygon fill="#63b8ff" stroke="#63b8ff" points="119.78,-129.06 109.21,-129.84 117.96,-135.82 119.78,-129.06"/>
</g>
<!-- Node6&#45;&gt;Node5 -->
<g id="edge6" class="edge">
<title>Node6&#45;&gt;Node5</title>
<path fill="none" stroke="#63b8ff" d="M258.78,-164.51C247.72,-156.7 231.46,-145.21 218.33,-135.93"/>
<polygon fill="#63b8ff" stroke="#63b8ff" points="220.46,-133.14 210.27,-130.23 216.42,-138.86 220.46,-133.14"/>
</g>
<!-- Node7 -->
<g id="node7" class="node">
<title>Node7</title>
<g id="a_node7"><a xlink:title=" ">
<polygon fill="#e0e0e0" stroke="#999999" points="281.5,-129 243.5,-129 243.5,-110 281.5,-110 281.5,-129"/>
<text text-anchor="middle" x="262.5" y="-117" font-family="Helvetica,sans-Serif" font-size="10.00">map</text>
</a>
</g>
</g>
<!-- Node6&#45;&gt;Node7 -->
<g id="edge7" class="edge">
<title>Node6&#45;&gt;Node7</title>
<path fill="none" stroke="#63b8ff" d="M270.01,-164.75C268.9,-158.19 267.33,-148.95 265.91,-140.6"/>
<polygon fill="#63b8ff" stroke="#63b8ff" points="269.4,-140.21 264.27,-130.93 262.5,-141.38 269.4,-140.21"/>
</g>
<!-- Node8 -->
<g id="node8" class="node">
<title>Node8</title>
<g id="a_node8"><a xlink:href="Enums_8h.html" target="_top" xlink:title=" ">
<polygon fill="white" stroke="#666666" points="263,-74 204,-74 204,-55 263,-55 263,-74"/>
<text text-anchor="middle" x="233.5" y="-62" font-family="Helvetica,sans-Serif" font-size="10.00">Enums.h</text>
</a>
</g>
</g>
<!-- Node6&#45;&gt;Node8 -->
<g id="edge9" class="edge">
<title>Node6&#45;&gt;Node8</title>
<path fill="none" stroke="#63b8ff" d="M278.22,-164.53C286.79,-151.92 299.48,-128.41 290.5,-110 284.47,-97.65 273.17,-87.72 262.22,-80.41"/>
<polygon fill="#63b8ff" stroke="#63b8ff" points="264.06,-77.43 253.7,-75.21 260.42,-83.41 264.06,-77.43"/>
</g>
<!-- Node9 -->
<g id="node9" class="node">
<title>Node9</title>
<g id="a_node9"><a xlink:href="Consts_8h.html" target="_top" xlink:title=" ">
<polygon fill="white" stroke="#666666" points="397,-129 338,-129 338,-110 397,-110 397,-129"/>
<text text-anchor="middle" x="367.5" y="-117" font-family="Helvetica,sans-Serif" font-size="10.00">Consts.h</text>
</a>
</g>
</g>
<!-- Node6&#45;&gt;Node9 -->
<g id="edge10" class="edge">
<title>Node6&#45;&gt;Node9</title>
<path fill="none" stroke="#63b8ff" d="M287.79,-164.51C302.49,-156.39 324.39,-144.3 341.52,-134.85"/>
<polygon fill="#63b8ff" stroke="#63b8ff" points="343.07,-137.99 350.13,-130.09 339.68,-131.86 343.07,-137.99"/>
</g>
<!-- Node9&#45;&gt;Node8 -->
<g id="edge12" class="edge">
<title>Node9&#45;&gt;Node8</title>
<path fill="none" stroke="#63b8ff" d="M344.77,-109.51C323.27,-101.01 290.77,-88.15 266.43,-78.53"/>
<polygon fill="#63b8ff" stroke="#63b8ff" points="267.89,-75.34 257.3,-74.91 265.31,-81.85 267.89,-75.34"/>
</g>
<!-- Node10 -->
<g id="node10" class="node">
<title>Node10</title>
<g id="a_node10"><a xlink:title=" ">
<polygon fill="#e0e0e0" stroke="#999999" points="475.5,-74 365.5,-74 365.5,-55 475.5,-55 475.5,-74"/>
<text text-anchor="middle" x="420.5" y="-62" font-family="Helvetica,sans-Serif" font-size="10.00">SFML/Graphics.hpp</text>
</a>
</g>
</g>
<!-- Node9&#45;&gt;Node10 -->
<g id="edge11" class="edge">
<title>Node9&#45;&gt;Node10</title>
<path fill="none" stroke="#63b8ff" d="M376.25,-109.75C383.65,-102.35 394.46,-91.54 403.55,-82.45"/>
<polygon fill="#63b8ff" stroke="#63b8ff" points="405.89,-85.06 410.49,-75.51 400.94,-80.11 405.89,-85.06"/>
</g>
<!-- Node11 -->
<g id="node11" class="node">
<title>Node11</title>
<g id="a_node11"><a xlink:href="Random_8h.html" target="_top" xlink:title=" ">
<polygon fill="white" stroke="#666666" points="347.5,-74 281.5,-74 281.5,-55 347.5,-55 347.5,-74"/>
<text text-anchor="middle" x="314.5" y="-62" font-family="Helvetica,sans-Serif" font-size="10.00">Random.h</text>
</a>
</g>
</g>
<!-- Node9&#45;&gt;Node11 -->
<g id="edge13" class="edge">
<title>Node9&#45;&gt;Node11</title>
<path fill="none" stroke="#63b8ff" d="M358.75,-109.75C351.35,-102.35 340.54,-91.54 331.45,-82.45"/>
<polygon fill="#63b8ff" stroke="#63b8ff" points="334.06,-80.11 324.51,-75.51 329.11,-85.06 334.06,-80.11"/>
</g>
<!-- Node11&#45;&gt;Node4 -->
<g id="edge15" class="edge">
<title>Node11&#45;&gt;Node4</title>
<path fill="none" stroke="#63b8ff" d="M336.89,-54.51C358.07,-46.01 390.09,-33.15 414.06,-23.53"/>
<polygon fill="#63b8ff" stroke="#63b8ff" points="415.06,-26.9 423.03,-19.92 412.45,-20.4 415.06,-26.9"/>
</g>
<!-- Node12 -->
<g id="node12" class="node">
<title>Node12</title>
<g id="a_node12"><a xlink:title=" ">
<polygon fill="#e0e0e0" stroke="#999999" points="341.5,-19 287.5,-19 287.5,0 341.5,0 341.5,-19"/>
<text text-anchor="middle" x="314.5" y="-7" font-family="Helvetica,sans-Serif" font-size="10.00">random</text>
</a>
</g>
</g>
<!-- Node11&#45;&gt;Node12 -->
<g id="edge14" class="edge">
<title>Node11&#45;&gt;Node12</title>
<path fill="none" stroke="#63b8ff" d="M314.5,-54.75C314.5,-48.27 314.5,-39.16 314.5,-30.9"/>
<polygon fill="#63b8ff" stroke="#63b8ff" points="318,-30.96 314.5,-20.96 311,-30.96 318,-30.96"/>
</g>
</g>
</svg>
