<?xml version="1.0" encoding="UTF-8" standalone="no"?>
<!DOCTYPE svg PUBLIC "-//W3C//DTD SVG 1.1//EN"
 "http://www.w3.org/Graphics/SVG/1.1/DTD/svg11.dtd">
<!-- Generated by graphviz version 7.0.5 (0)
 -->
<!-- Title: src/TextureHolder.h Pages: 1 -->
<svg width="1765pt" height="577pt"
 viewBox="0.00 0.00 1765.00 577.00" xmlns="http://www.w3.org/2000/svg" xmlns:xlink="http://www.w3.org/1999/xlink">
<g id="graph0" class="graph" transform="scale(1 1) rotate(0) translate(4 573)">
<title>src/TextureHolder.h</title>
<!-- Node1 -->
<g id="node1" class="node">
<title>Node1</title>
<g id="a_node1"><a xlink:title=" ">
<polygon fill="#999999" stroke="#666666" points="1505,-569 1395,-569 1395,-550 1505,-550 1505,-569"/>
<text text-anchor="middle" x="1450" y="-557" font-family="Helvetica,sans-Serif" font-size="10.00">src/TextureHolder.h</text>
</a>
</g>
</g>
<!-- Node2 -->
<g id="node2" class="node">
<title>Node2</title>
<g id="a_node2"><a xlink:href="AnimationMachine_8h.html" target="_top" xlink:title=" ">
<polygon fill="white" stroke="#666666" points="982,-514 848,-514 848,-495 982,-495 982,-514"/>
<text text-anchor="middle" x="915" y="-502" font-family="Helvetica,sans-Serif" font-size="10.00">src/AnimationMachine.h</text>
</a>
</g>
</g>
<!-- Node1&#45;&gt;Node2 -->
<g id="edge1" class="edge">
<title>Node1&#45;&gt;Node2</title>
<path fill="none" stroke="#63b8ff" d="M1383.07,-551.87C1280.43,-541.7 1085.27,-522.37 982.37,-512.17"/>
<polygon fill="#63b8ff" stroke="#63b8ff" points="1382.71,-555.35 1393,-552.85 1383.4,-548.38 1382.71,-555.35"/>
</g>
<!-- Node6 -->
<g id="node6" class="node">
<title>Node6</title>
<g id="a_node6"><a xlink:href="Commuters_8cpp.html" target="_top" xlink:title=" ">
<polygon fill="white" stroke="#666666" points="1307.5,-184 1196.5,-184 1196.5,-165 1307.5,-165 1307.5,-184"/>
<text text-anchor="middle" x="1252" y="-172" font-family="Helvetica,sans-Serif" font-size="10.00">src/Commuters.cpp</text>
</a>
</g>
</g>
<!-- Node1&#45;&gt;Node6 -->
<g id="edge78" class="edge">
<title>Node1&#45;&gt;Node6</title>
<path fill="none" stroke="#63b8ff" d="M1455.91,-538.74C1461.81,-517.23 1470,-481.74 1470,-450.5 1470,-450.5 1470,-450.5 1470,-283.5 1470,-254.04 1472.55,-240.08 1451,-220 1430.47,-200.88 1359.08,-188.37 1307.68,-181.63"/>
<polygon fill="#63b8ff" stroke="#63b8ff" points="1452.59,-537.61 1453.2,-548.19 1459.32,-539.54 1452.59,-537.61"/>
</g>
<!-- Node31 -->
<g id="node31" class="node">
<title>Node31</title>
<g id="a_node31"><a xlink:href="Light_8cpp.html" target="_top" xlink:title=" ">
<polygon fill="white" stroke="#666666" points="1442,-239 1364,-239 1364,-220 1442,-220 1442,-239"/>
<text text-anchor="middle" x="1403" y="-227" font-family="Helvetica,sans-Serif" font-size="10.00">src/Light.cpp</text>
</a>
</g>
</g>
<!-- Node1&#45;&gt;Node31 -->
<g id="edge79" class="edge">
<title>Node1&#45;&gt;Node31</title>
<path fill="none" stroke="#63b8ff" d="M1440.37,-539.34C1430.63,-518.16 1417,-482.76 1417,-450.5 1417,-450.5 1417,-450.5 1417,-338.5 1417,-301.44 1408.79,-257.82 1404.95,-239.41"/>
<polygon fill="#63b8ff" stroke="#63b8ff" points="1437.13,-540.68 1444.62,-548.17 1443.44,-537.64 1437.13,-540.68"/>
</g>
<!-- Node32 -->
<g id="node32" class="node">
<title>Node32</title>
<g id="a_node32"><a xlink:href="Obstacle_8h.html" target="_top" xlink:title=" ">
<polygon fill="white" stroke="#666666" points="942,-294 856,-294 856,-275 942,-275 942,-294"/>
<text text-anchor="middle" x="899" y="-282" font-family="Helvetica,sans-Serif" font-size="10.00">src/Obstacle.h</text>
</a>
</g>
</g>
<!-- Node1&#45;&gt;Node32 -->
<g id="edge80" class="edge">
<title>Node1&#45;&gt;Node32</title>
<path fill="none" stroke="#63b8ff" d="M1421.93,-544.59C1323.82,-495.98 997.8,-334.45 917.16,-294.5"/>
<polygon fill="#63b8ff" stroke="#63b8ff" points="1420.11,-547.6 1430.62,-548.9 1423.22,-541.32 1420.11,-547.6"/>
</g>
<!-- Node46 -->
<g id="node46" class="node">
<title>Node46</title>
<g id="a_node46"><a xlink:href="SpriteNode_8h.html" target="_top" xlink:title=" ">
<polygon fill="white" stroke="#666666" points="1748.5,-74 1651.5,-74 1651.5,-55 1748.5,-55 1748.5,-74"/>
<text text-anchor="middle" x="1700" y="-62" font-family="Helvetica,sans-Serif" font-size="10.00">src/SpriteNode.h</text>
</a>
</g>
</g>
<!-- Node1&#45;&gt;Node46 -->
<g id="edge81" class="edge">
<title>Node1&#45;&gt;Node46</title>
<path fill="none" stroke="#63b8ff" d="M1501.03,-546.24C1546.86,-531.82 1607,-502.92 1607,-450.5 1607,-450.5 1607,-450.5 1607,-173.5 1607,-126.98 1657.16,-90.54 1683.8,-74.47"/>
<polygon fill="#63b8ff" stroke="#63b8ff" points="1500.06,-542.87 1491.47,-549.08 1502.06,-549.58 1500.06,-542.87"/>
</g>
<!-- Node48 -->
<g id="node48" class="node">
<title>Node48</title>
<g id="a_node48"><a xlink:href="TextureHolder_8cpp.html" target="_top" xlink:title=" ">
<polygon fill="white" stroke="#666666" points="1757,-514 1635,-514 1635,-495 1757,-495 1757,-514"/>
<text text-anchor="middle" x="1696" y="-502" font-family="Helvetica,sans-Serif" font-size="10.00">src/TextureHolder.cpp</text>
</a>
</g>
</g>
<!-- Node1&#45;&gt;Node48 -->
<g id="edge85" class="edge">
<title>Node1&#45;&gt;Node48</title>
<path fill="none" stroke="#63b8ff" d="M1502.83,-547.12C1548.2,-537.34 1612.72,-523.44 1654.48,-514.45"/>
<polygon fill="#63b8ff" stroke="#63b8ff" points="1502.25,-543.66 1493.21,-549.19 1503.72,-550.51 1502.25,-543.66"/>
</g>
<!-- Node3 -->
<g id="node3" class="node">
<title>Node3</title>
<g id="a_node3"><a xlink:href="AnimationMachine_8cpp.html" target="_top" xlink:title=" ">
<polygon fill="white" stroke="#666666" points="862,-459 716,-459 716,-440 862,-440 862,-459"/>
<text text-anchor="middle" x="789" y="-447" font-family="Helvetica,sans-Serif" font-size="10.00">src/AnimationMachine.cpp</text>
</a>
</g>
</g>
<!-- Node2&#45;&gt;Node3 -->
<g id="edge2" class="edge">
<title>Node2&#45;&gt;Node3</title>
<path fill="none" stroke="#63b8ff" d="M883.05,-490.06C860.16,-480.43 829.98,-467.74 810.06,-459.36"/>
<polygon fill="#63b8ff" stroke="#63b8ff" points="881.66,-493.27 892.23,-493.92 884.37,-486.82 881.66,-493.27"/>
</g>
<!-- Node4 -->
<g id="node4" class="node">
<title>Node4</title>
<g id="a_node4"><a xlink:href="Entity_8h.html" target="_top" xlink:title=" ">
<polygon fill="white" stroke="#666666" points="950,-459 880,-459 880,-440 950,-440 950,-459"/>
<text text-anchor="middle" x="915" y="-447" font-family="Helvetica,sans-Serif" font-size="10.00">src/Entity.h</text>
</a>
</g>
</g>
<!-- Node2&#45;&gt;Node4 -->
<g id="edge3" class="edge">
<title>Node2&#45;&gt;Node4</title>
<path fill="none" stroke="#63b8ff" d="M915,-483.35C915,-475.1 915,-465.97 915,-459.44"/>
<polygon fill="#63b8ff" stroke="#63b8ff" points="911.5,-483.23 915,-493.23 918.5,-483.23 911.5,-483.23"/>
</g>
<!-- Node5 -->
<g id="node5" class="node">
<title>Node5</title>
<g id="a_node5"><a xlink:href="Commuters_8h.html" target="_top" xlink:title=" ">
<polygon fill="white" stroke="#666666" points="1156,-239 1056,-239 1056,-220 1156,-220 1156,-239"/>
<text text-anchor="middle" x="1106" y="-227" font-family="Helvetica,sans-Serif" font-size="10.00">src/Commuters.h</text>
</a>
</g>
</g>
<!-- Node4&#45;&gt;Node5 -->
<g id="edge4" class="edge">
<title>Node4&#45;&gt;Node5</title>
<path fill="none" stroke="#63b8ff" d="M935.75,-432.76C968.87,-406.81 1034.2,-352.1 1076,-294 1088.82,-276.18 1098.44,-252.03 1103.03,-239.26"/>
<polygon fill="#63b8ff" stroke="#63b8ff" points="933.9,-429.77 928.14,-438.66 938.19,-435.31 933.9,-429.77"/>
</g>
<!-- Node7 -->
<g id="node7" class="node">
<title>Node7</title>
<g id="a_node7"><a xlink:href="GameLoader_8cpp.html" target="_top" xlink:title=" ">
<polygon fill="white" stroke="#666666" points="732,-19 616,-19 616,0 732,0 732,-19"/>
<text text-anchor="middle" x="674" y="-7" font-family="Helvetica,sans-Serif" font-size="10.00">src/GameLoader.cpp</text>
</a>
</g>
</g>
<!-- Node4&#45;&gt;Node7 -->
<g id="edge30" class="edge">
<title>Node4&#45;&gt;Node7</title>
<path fill="none" stroke="#63b8ff" d="M868.32,-439.85C610.93,-408.8 536.89,-461.25 287,-404 214.43,-387.38 132,-414.95 132,-340.5 132,-340.5 132,-340.5 132,-118.5 132,-81.45 153.11,-72.06 186,-55 259.44,-16.9 502.98,-11.01 615.76,-10.37"/>
<polygon fill="#63b8ff" stroke="#63b8ff" points="867.66,-443.29 878.02,-441.05 868.53,-436.35 867.66,-443.29"/>
</g>
<!-- Node9 -->
<g id="node9" class="node">
<title>Node9</title>
<g id="a_node9"><a xlink:href="RoadLane_8h.html" target="_top" xlink:title=" ">
<polygon fill="white" stroke="#666666" points="1178.5,-184 1087.5,-184 1087.5,-165 1178.5,-165 1178.5,-184"/>
<text text-anchor="middle" x="1133" y="-172" font-family="Helvetica,sans-Serif" font-size="10.00">src/RoadLane.h</text>
</a>
</g>
</g>
<!-- Node4&#45;&gt;Node9 -->
<g id="edge77" class="edge">
<title>Node4&#45;&gt;Node9</title>
<path fill="none" stroke="#63b8ff" d="M945.65,-434.82C1002.61,-407.39 1122.81,-339.57 1165,-239 1173.4,-218.96 1155.13,-196.46 1142.88,-184.36"/>
<polygon fill="#63b8ff" stroke="#63b8ff" points="944.39,-431.54 936.84,-438.97 947.37,-437.88 944.39,-431.54"/>
</g>
<!-- Node21 -->
<g id="node21" class="node">
<title>Node21</title>
<g id="a_node21"><a xlink:href="Entity_8cpp.html" target="_top" xlink:title=" ">
<polygon fill="white" stroke="#666666" points="886.5,-404 805.5,-404 805.5,-385 886.5,-385 886.5,-404"/>
<text text-anchor="middle" x="846" y="-392" font-family="Helvetica,sans-Serif" font-size="10.00">src/Entity.cpp</text>
</a>
</g>
</g>
<!-- Node4&#45;&gt;Node21 -->
<g id="edge29" class="edge">
<title>Node4&#45;&gt;Node21</title>
<path fill="none" stroke="#63b8ff" d="M894.35,-432.64C882.3,-423.39 867.55,-412.05 857.53,-404.36"/>
<polygon fill="#63b8ff" stroke="#63b8ff" points="892.03,-435.27 902.09,-438.59 896.3,-429.72 892.03,-435.27"/>
</g>
<!-- Node22 -->
<g id="node22" class="node">
<title>Node22</title>
<g id="a_node22"><a xlink:href="GameLoader_8h.html" target="_top" xlink:title=" ">
<polygon fill="white" stroke="#666666" points="104,-294 0,-294 0,-275 104,-275 104,-294"/>
<text text-anchor="middle" x="52" y="-282" font-family="Helvetica,sans-Serif" font-size="10.00">src/GameLoader.h</text>
</a>
</g>
</g>
<!-- Node4&#45;&gt;Node22 -->
<g id="edge31" class="edge">
<title>Node4&#45;&gt;Node22</title>
<path fill="none" stroke="#63b8ff" d="M868.39,-440.15C747.53,-431.2 186.75,-446.64 118,-404 76.78,-378.43 59.16,-317.28 53.85,-294.37"/>
<polygon fill="#63b8ff" stroke="#63b8ff" points="867.74,-443.6 878.02,-441.05 868.39,-436.63 867.74,-443.6"/>
</g>
<!-- Node30 -->
<g id="node30" class="node">
<title>Node30</title>
<g id="a_node30"><a xlink:href="Light_8h.html" target="_top" xlink:title=" ">
<polygon fill="white" stroke="#666666" points="1279.5,-294 1212.5,-294 1212.5,-275 1279.5,-275 1279.5,-294"/>
<text text-anchor="middle" x="1246" y="-282" font-family="Helvetica,sans-Serif" font-size="10.00">src/Light.h</text>
</a>
</g>
</g>
<!-- Node4&#45;&gt;Node30 -->
<g id="edge40" class="edge">
<title>Node4&#45;&gt;Node30</title>
<path fill="none" stroke="#63b8ff" d="M961.58,-444.92C1025.81,-439.24 1137.46,-426.42 1171,-404 1212.49,-376.26 1235.63,-316.96 1243.2,-294.43"/>
<polygon fill="#63b8ff" stroke="#63b8ff" points="961.34,-441.43 951.68,-445.77 961.94,-448.4 961.34,-441.43"/>
</g>
<!-- Node4&#45;&gt;Node32 -->
<g id="edge45" class="edge">
<title>Node4&#45;&gt;Node32</title>
<path fill="none" stroke="#63b8ff" d="M913.03,-428.44C909.53,-392.74 902.34,-319.57 899.86,-294.31"/>
<polygon fill="#63b8ff" stroke="#63b8ff" points="909.53,-428.62 913.99,-438.23 916.5,-427.94 909.53,-428.62"/>
</g>
<!-- Node34 -->
<g id="node34" class="node">
<title>Node34</title>
<g id="a_node34"><a xlink:href="Pickups_8h.html" target="_top" xlink:title=" ">
<polygon fill="white" stroke="#666666" points="1040,-294 960,-294 960,-275 1040,-275 1040,-294"/>
<text text-anchor="middle" x="1000" y="-282" font-family="Helvetica,sans-Serif" font-size="10.00">src/Pickups.h</text>
</a>
</g>
</g>
<!-- Node4&#45;&gt;Node34 -->
<g id="edge50" class="edge">
<title>Node4&#45;&gt;Node34</title>
<path fill="none" stroke="#63b8ff" d="M924.74,-429.83C943.07,-394.67 982.06,-319.9 995.41,-294.31"/>
<polygon fill="#63b8ff" stroke="#63b8ff" points="921.79,-427.91 920.27,-438.39 928,-431.15 921.79,-427.91"/>
</g>
<!-- Node36 -->
<g id="node36" class="node">
<title>Node36</title>
<g id="a_node36"><a xlink:href="Player_8cpp.html" target="_top" xlink:title=" ">
<polygon fill="white" stroke="#666666" points="244,-294 160,-294 160,-275 244,-275 244,-294"/>
<text text-anchor="middle" x="202" y="-282" font-family="Helvetica,sans-Serif" font-size="10.00">src/Player.cpp</text>
</a>
</g>
</g>
<!-- Node4&#45;&gt;Node36 -->
<g id="edge54" class="edge">
<title>Node4&#45;&gt;Node36</title>
<path fill="none" stroke="#63b8ff" d="M868.33,-439.8C668.42,-413.76 612.42,-440.23 417,-404 332.24,-388.29 296.1,-405.51 231,-349 214.16,-334.38 206.55,-307.97 203.6,-294.27"/>
<polygon fill="#63b8ff" stroke="#63b8ff" points="867.64,-443.24 878.01,-441.09 868.56,-436.3 867.64,-443.24"/>
</g>
<!-- Node37 -->
<g id="node37" class="node">
<title>Node37</title>
<g id="a_node37"><a xlink:href="Player_8h.html" target="_top" xlink:title=" ">
<polygon fill="white" stroke="#666666" points="499.5,-404 426.5,-404 426.5,-385 499.5,-385 499.5,-404"/>
<text text-anchor="middle" x="463" y="-392" font-family="Helvetica,sans-Serif" font-size="10.00">src/Player.h</text>
</a>
</g>
</g>
<!-- Node4&#45;&gt;Node37 -->
<g id="edge55" class="edge">
<title>Node4&#45;&gt;Node37</title>
<path fill="none" stroke="#63b8ff" d="M868.45,-439.73C726.62,-418.71 569.93,-404.42 499.98,-398.51"/>
<polygon fill="#63b8ff" stroke="#63b8ff" points="867.6,-443.14 878,-441.16 868.63,-436.21 867.6,-443.14"/>
</g>
<!-- Node5&#45;&gt;Node6 -->
<g id="edge5" class="edge">
<title>Node5&#45;&gt;Node6</title>
<path fill="none" stroke="#63b8ff" d="M1141.58,-215.58C1168.26,-205.9 1204.09,-192.89 1227.6,-184.36"/>
<polygon fill="#63b8ff" stroke="#63b8ff" points="1140.4,-212.29 1132.19,-218.99 1142.78,-218.87 1140.4,-212.29"/>
</g>
<!-- Node5&#45;&gt;Node7 -->
<g id="edge6" class="edge">
<title>Node5&#45;&gt;Node7</title>
<path fill="none" stroke="#63b8ff" d="M1045.76,-217.1C963.2,-198.93 813.78,-156.7 714,-74 695.54,-58.7 682.95,-32.59 677.33,-19.11"/>
<polygon fill="#63b8ff" stroke="#63b8ff" points="1044.97,-220.51 1055.48,-219.18 1046.44,-213.66 1044.97,-220.51"/>
</g>
<!-- Node8 -->
<g id="node8" class="node">
<title>Node8</title>
<g id="a_node8"><a xlink:href="RoadLane_8cpp.html" target="_top" xlink:title=" ">
<polygon fill="white" stroke="#666666" points="1052,-129 950,-129 950,-110 1052,-110 1052,-129"/>
<text text-anchor="middle" x="1001" y="-117" font-family="Helvetica,sans-Serif" font-size="10.00">src/RoadLane.cpp</text>
</a>
</g>
</g>
<!-- Node5&#45;&gt;Node8 -->
<g id="edge7" class="edge">
<title>Node5&#45;&gt;Node8</title>
<path fill="none" stroke="#63b8ff" d="M1089.4,-211.43C1066.81,-188.19 1027.19,-147.44 1009.71,-129.46"/>
<polygon fill="#63b8ff" stroke="#63b8ff" points="1086.87,-213.85 1096.35,-218.58 1091.89,-208.97 1086.87,-213.85"/>
</g>
<!-- Node5&#45;&gt;Node9 -->
<g id="edge8" class="edge">
<title>Node5&#45;&gt;Node9</title>
<path fill="none" stroke="#63b8ff" d="M1115.68,-209.5C1120.03,-200.96 1124.96,-191.28 1128.44,-184.44"/>
<polygon fill="#63b8ff" stroke="#63b8ff" points="1112.57,-207.9 1111.15,-218.4 1118.8,-211.08 1112.57,-207.9"/>
</g>
<!-- Node9&#45;&gt;Node8 -->
<g id="edge10" class="edge">
<title>Node9&#45;&gt;Node8</title>
<path fill="none" stroke="#63b8ff" d="M1100.18,-160.32C1076.13,-150.67 1044.12,-137.82 1023.06,-129.36"/>
<polygon fill="#63b8ff" stroke="#63b8ff" points="1098.62,-163.47 1109.2,-163.95 1101.23,-156.97 1098.62,-163.47"/>
</g>
<!-- Node10 -->
<g id="node10" class="node">
<title>Node10</title>
<g id="a_node10"><a xlink:href="LevelGenerator_8cpp.html" target="_top" xlink:title=" ">
<polygon fill="white" stroke="#666666" points="1595,-74 1467,-74 1467,-55 1595,-55 1595,-74"/>
<text text-anchor="middle" x="1531" y="-62" font-family="Helvetica,sans-Serif" font-size="10.00">src/LevelGenerator.cpp</text>
</a>
</g>
</g>
<!-- Node9&#45;&gt;Node10 -->
<g id="edge9" class="edge">
<title>Node9&#45;&gt;Node10</title>
<path fill="none" stroke="#63b8ff" d="M1190.19,-164.44C1268.98,-151.92 1401.86,-130.69 1407,-129 1449.28,-115.12 1494.84,-88.39 1517.13,-74.45"/>
<polygon fill="#63b8ff" stroke="#63b8ff" points="1189.8,-160.96 1180.47,-165.98 1190.9,-167.87 1189.8,-160.96"/>
</g>
<!-- Node11 -->
<g id="node11" class="node">
<title>Node11</title>
<g id="a_node11"><a xlink:href="RoadLaneController_8h.html" target="_top" xlink:title=" ">
<polygon fill="white" stroke="#666666" points="1208,-129 1070,-129 1070,-110 1208,-110 1208,-129"/>
<text text-anchor="middle" x="1139" y="-117" font-family="Helvetica,sans-Serif" font-size="10.00">src/RoadLaneController.h</text>
</a>
</g>
</g>
<!-- Node9&#45;&gt;Node11 -->
<g id="edge11" class="edge">
<title>Node9&#45;&gt;Node11</title>
<path fill="none" stroke="#63b8ff" d="M1135.28,-153.35C1136.22,-145.1 1137.25,-135.97 1137.99,-129.44"/>
<polygon fill="#63b8ff" stroke="#63b8ff" points="1131.81,-152.91 1134.16,-163.24 1138.76,-153.7 1131.81,-152.91"/>
</g>
<!-- Node20 -->
<g id="node20" class="node">
<title>Node20</title>
<g id="a_node20"><a xlink:href="SceneBuilder_8h.html" target="_top" xlink:title=" ">
<polygon fill="white" stroke="#666666" points="1579,-129 1473,-129 1473,-110 1579,-110 1579,-129"/>
<text text-anchor="middle" x="1526" y="-117" font-family="Helvetica,sans-Serif" font-size="10.00">src/SceneBuilder.h</text>
</a>
</g>
</g>
<!-- Node9&#45;&gt;Node20 -->
<g id="edge26" class="edge">
<title>Node9&#45;&gt;Node20</title>
<path fill="none" stroke="#63b8ff" d="M1190.13,-164.58C1295.76,-149.44 1407.94,-135.14 1472.51,-127.09"/>
<polygon fill="#63b8ff" stroke="#63b8ff" points="1189.84,-161.08 1180.44,-165.97 1190.84,-168.01 1189.84,-161.08"/>
</g>
<!-- Node11&#45;&gt;Node7 -->
<g id="edge16" class="edge">
<title>Node11&#45;&gt;Node7</title>
<path fill="none" stroke="#63b8ff" d="M1058.3,-109.64C944.59,-97.11 750.54,-75.56 747,-74 718.4,-61.42 692.82,-33.6 680.97,-19.32"/>
<polygon fill="#63b8ff" stroke="#63b8ff" points="1057.89,-113.11 1068.21,-110.73 1058.66,-106.16 1057.89,-113.11"/>
</g>
<!-- Node12 -->
<g id="node12" class="node">
<title>Node12</title>
<g id="a_node12"><a xlink:href="AnimalLaneController_8h.html" target="_top" xlink:title=" ">
<polygon fill="white" stroke="#666666" points="1038,-74 890,-74 890,-55 1038,-55 1038,-74"/>
<text text-anchor="middle" x="964" y="-62" font-family="Helvetica,sans-Serif" font-size="10.00">src/AnimalLaneController.h</text>
</a>
</g>
</g>
<!-- Node11&#45;&gt;Node12 -->
<g id="edge12" class="edge">
<title>Node11&#45;&gt;Node12</title>
<path fill="none" stroke="#63b8ff" d="M1098.51,-106.24C1066.43,-96.52 1022.36,-83.18 993.54,-74.45"/>
<polygon fill="#63b8ff" stroke="#63b8ff" points="1097.28,-109.52 1107.87,-109.07 1099.31,-102.82 1097.28,-109.52"/>
</g>
<!-- Node15 -->
<g id="node15" class="node">
<title>Node15</title>
<g id="a_node15"><a xlink:href="RiverController_8h.html" target="_top" xlink:title=" ">
<polygon fill="white" stroke="#666666" points="872,-74 756,-74 756,-55 872,-55 872,-74"/>
<text text-anchor="middle" x="814" y="-62" font-family="Helvetica,sans-Serif" font-size="10.00">src/RiverController.h</text>
</a>
</g>
</g>
<!-- Node11&#45;&gt;Node15 -->
<g id="edge17" class="edge">
<title>Node11&#45;&gt;Node15</title>
<path fill="none" stroke="#63b8ff" d="M1072.63,-107.68C1012.64,-97.89 925.36,-83.66 869.13,-74.49"/>
<polygon fill="#63b8ff" stroke="#63b8ff" points="1071.94,-111.11 1082.37,-109.27 1073.07,-104.2 1071.94,-111.11"/>
</g>
<!-- Node17 -->
<g id="node17" class="node">
<title>Node17</title>
<g id="a_node17"><a xlink:href="RoadLaneController_8cpp.html" target="_top" xlink:title=" ">
<polygon fill="white" stroke="#666666" points="1243.5,-74 1094.5,-74 1094.5,-55 1243.5,-55 1243.5,-74"/>
<text text-anchor="middle" x="1169" y="-62" font-family="Helvetica,sans-Serif" font-size="10.00">src/RoadLaneController.cpp</text>
</a>
</g>
</g>
<!-- Node11&#45;&gt;Node17 -->
<g id="edge21" class="edge">
<title>Node11&#45;&gt;Node17</title>
<path fill="none" stroke="#63b8ff" d="M1149.59,-99.79C1154.47,-91.18 1160.02,-81.36 1163.94,-74.44"/>
<polygon fill="#63b8ff" stroke="#63b8ff" points="1146.58,-98 1144.7,-108.43 1152.67,-101.45 1146.58,-98"/>
</g>
<!-- Node18 -->
<g id="node18" class="node">
<title>Node18</title>
<g id="a_node18"><a xlink:href="VehicleLaneController_8h.html" target="_top" xlink:title=" ">
<polygon fill="white" stroke="#666666" points="1410.5,-74 1261.5,-74 1261.5,-55 1410.5,-55 1410.5,-74"/>
<text text-anchor="middle" x="1336" y="-62" font-family="Helvetica,sans-Serif" font-size="10.00">src/VehicleLaneController.h</text>
</a>
</g>
</g>
<!-- Node11&#45;&gt;Node18 -->
<g id="edge22" class="edge">
<title>Node11&#45;&gt;Node18</title>
<path fill="none" stroke="#63b8ff" d="M1183.17,-106.62C1219.39,-96.87 1269.88,-83.29 1302.75,-74.45"/>
<polygon fill="#63b8ff" stroke="#63b8ff" points="1182.63,-103.14 1173.88,-109.12 1184.45,-109.9 1182.63,-103.14"/>
</g>
<!-- Node12&#45;&gt;Node7 -->
<g id="edge14" class="edge">
<title>Node12&#45;&gt;Node7</title>
<path fill="none" stroke="#63b8ff" d="M903.75,-52.49C850.17,-42.7 772.8,-28.56 722.95,-19.45"/>
<polygon fill="#63b8ff" stroke="#63b8ff" points="902.85,-55.88 913.32,-54.24 904.11,-49 902.85,-55.88"/>
</g>
<!-- Node13 -->
<g id="node13" class="node">
<title>Node13</title>
<g id="a_node13"><a xlink:href="AnimalLaneController_8cpp.html" target="_top" xlink:title=" ">
<polygon fill="white" stroke="#666666" points="1054.5,-19 895.5,-19 895.5,0 1054.5,0 1054.5,-19"/>
<text text-anchor="middle" x="975" y="-7" font-family="Helvetica,sans-Serif" font-size="10.00">src/AnimalLaneController.cpp</text>
</a>
</g>
</g>
<!-- Node12&#45;&gt;Node13 -->
<g id="edge13" class="edge">
<title>Node12&#45;&gt;Node13</title>
<path fill="none" stroke="#63b8ff" d="M968.12,-43.64C969.85,-35.31 971.77,-26.05 973.14,-19.44"/>
<polygon fill="#63b8ff" stroke="#63b8ff" points="964.73,-42.76 966.12,-53.27 971.58,-44.19 964.73,-42.76"/>
</g>
<!-- Node14 -->
<g id="node14" class="node">
<title>Node14</title>
<g id="a_node14"><a xlink:href="SceneBuilder_8cpp.html" target="_top" xlink:title=" ">
<polygon fill="white" stroke="#666666" points="1445.5,-19 1328.5,-19 1328.5,0 1445.5,0 1445.5,-19"/>
<text text-anchor="middle" x="1387" y="-7" font-family="Helvetica,sans-Serif" font-size="10.00">src/SceneBuilder.cpp</text>
</a>
</g>
</g>
<!-- Node12&#45;&gt;Node14 -->
<g id="edge15" class="edge">
<title>Node12&#45;&gt;Node14</title>
<path fill="none" stroke="#63b8ff" d="M1047.16,-53.08C1130.02,-42.7 1255.15,-27.02 1328.21,-17.87"/>
<polygon fill="#63b8ff" stroke="#63b8ff" points="1046.75,-49.6 1037.26,-54.32 1047.62,-56.55 1046.75,-49.6"/>
</g>
<!-- Node15&#45;&gt;Node7 -->
<g id="edge18" class="edge">
<title>Node15&#45;&gt;Node7</title>
<path fill="none" stroke="#63b8ff" d="M779.54,-50.45C753.99,-40.78 719.84,-27.85 697.4,-19.36"/>
<polygon fill="#63b8ff" stroke="#63b8ff" points="778.24,-53.71 788.84,-53.97 780.72,-47.16 778.24,-53.71"/>
</g>
<!-- Node15&#45;&gt;Node14 -->
<g id="edge20" class="edge">
<title>Node15&#45;&gt;Node14</title>
<path fill="none" stroke="#63b8ff" d="M883.87,-54.75C1077.2,-34.86 1128.42,-38.73 1319,-19 1321.96,-18.69 1324.99,-18.37 1328.05,-18.02"/>
<polygon fill="#63b8ff" stroke="#63b8ff" points="883.54,-51.26 873.95,-55.77 884.26,-58.22 883.54,-51.26"/>
</g>
<!-- Node16 -->
<g id="node16" class="node">
<title>Node16</title>
<g id="a_node16"><a xlink:href="RiverController_8cpp.html" target="_top" xlink:title=" ">
<polygon fill="white" stroke="#666666" points="877.5,-19 750.5,-19 750.5,0 877.5,0 877.5,-19"/>
<text text-anchor="middle" x="814" y="-7" font-family="Helvetica,sans-Serif" font-size="10.00">src/RiverController.cpp</text>
</a>
</g>
</g>
<!-- Node15&#45;&gt;Node16 -->
<g id="edge19" class="edge">
<title>Node15&#45;&gt;Node16</title>
<path fill="none" stroke="#63b8ff" d="M814,-43.35C814,-35.1 814,-25.97 814,-19.44"/>
<polygon fill="#63b8ff" stroke="#63b8ff" points="810.5,-43.23 814,-53.23 817.5,-43.23 810.5,-43.23"/>
</g>
<!-- Node18&#45;&gt;Node7 -->
<g id="edge23" class="edge">
<title>Node18&#45;&gt;Node7</title>
<path fill="none" stroke="#63b8ff" d="M1250.08,-54.87C1023.26,-35.72 963.92,-40.98 741,-19 738.2,-18.72 735.34,-18.42 732.44,-18.11"/>
<polygon fill="#63b8ff" stroke="#63b8ff" points="1249.59,-58.34 1259.85,-55.7 1250.18,-51.36 1249.59,-58.34"/>
</g>
<!-- Node18&#45;&gt;Node14 -->
<g id="edge24" class="edge">
<title>Node18&#45;&gt;Node14</title>
<path fill="none" stroke="#63b8ff" d="M1352.36,-46.5C1361.02,-37.5 1371.3,-26.82 1378.4,-19.44"/>
<polygon fill="#63b8ff" stroke="#63b8ff" points="1349.88,-44.02 1345.47,-53.66 1354.93,-48.88 1349.88,-44.02"/>
</g>
<!-- Node19 -->
<g id="node19" class="node">
<title>Node19</title>
<g id="a_node19"><a xlink:href="VehicleLaneController_8cpp.html" target="_top" xlink:title=" ">
<polygon fill="white" stroke="#666666" points="1310,-19 1150,-19 1150,0 1310,0 1310,-19"/>
<text text-anchor="middle" x="1230" y="-7" font-family="Helvetica,sans-Serif" font-size="10.00">src/VehicleLaneController.cpp</text>
</a>
</g>
</g>
<!-- Node18&#45;&gt;Node19 -->
<g id="edge25" class="edge">
<title>Node18&#45;&gt;Node19</title>
<path fill="none" stroke="#63b8ff" d="M1307.8,-49.4C1288.72,-39.86 1264.1,-27.55 1247.72,-19.36"/>
<polygon fill="#63b8ff" stroke="#63b8ff" points="1306.16,-52.49 1316.66,-53.83 1309.29,-46.23 1306.16,-52.49"/>
</g>
<!-- Node20&#45;&gt;Node10 -->
<g id="edge27" class="edge">
<title>Node20&#45;&gt;Node10</title>
<path fill="none" stroke="#63b8ff" d="M1527.9,-98.35C1528.68,-90.1 1529.54,-80.97 1530.16,-74.44"/>
<polygon fill="#63b8ff" stroke="#63b8ff" points="1524.42,-97.96 1526.97,-108.24 1531.39,-98.61 1524.42,-97.96"/>
</g>
<!-- Node20&#45;&gt;Node14 -->
<g id="edge28" class="edge">
<title>Node20&#45;&gt;Node14</title>
<path fill="none" stroke="#63b8ff" d="M1563.76,-105.21C1591.07,-93.52 1620.52,-75.25 1604,-55 1584.37,-30.94 1503.15,-19.52 1445.85,-14.38"/>
<polygon fill="#63b8ff" stroke="#63b8ff" points="1562.47,-101.95 1554.51,-108.94 1565.09,-108.45 1562.47,-101.95"/>
</g>
<!-- Node22&#45;&gt;Node7 -->
<g id="edge32" class="edge">
<title>Node22&#45;&gt;Node7</title>
<path fill="none" stroke="#63b8ff" d="M58.2,-263.76C64.4,-242.27 73,-206.8 73,-175.5 73,-175.5 73,-175.5 73,-118.5 73,-83.91 87.93,-72.1 118,-55 160.51,-30.83 482.11,-17.09 615.89,-12.38"/>
<polygon fill="#63b8ff" stroke="#63b8ff" points="54.89,-262.62 55.36,-273.2 61.59,-264.64 54.89,-262.62"/>
</g>
<!-- Node23 -->
<g id="node23" class="node">
<title>Node23</title>
<g id="a_node23"><a xlink:href="GameState_8h.html" target="_top" xlink:title=" ">
<polygon fill="white" stroke="#666666" points="424,-239 326,-239 326,-220 424,-220 424,-239"/>
<text text-anchor="middle" x="375" y="-227" font-family="Helvetica,sans-Serif" font-size="10.00">src/GameState.h</text>
</a>
</g>
</g>
<!-- Node22&#45;&gt;Node23 -->
<g id="edge33" class="edge">
<title>Node22&#45;&gt;Node23</title>
<path fill="none" stroke="#63b8ff" d="M115.39,-273.1C177.04,-262.98 269.41,-247.83 325.73,-238.58"/>
<polygon fill="#63b8ff" stroke="#63b8ff" points="115.05,-269.61 105.75,-274.68 116.18,-276.52 115.05,-269.61"/>
</g>
<!-- Node24 -->
<g id="node24" class="node">
<title>Node24</title>
<g id="a_node24"><a xlink:href="GameState_8cpp.html" target="_top" xlink:title=" ">
<polygon fill="white" stroke="#666666" points="488.5,-184 379.5,-184 379.5,-165 488.5,-165 488.5,-184"/>
<text text-anchor="middle" x="434" y="-172" font-family="Helvetica,sans-Serif" font-size="10.00">src/GameState.cpp</text>
</a>
</g>
</g>
<!-- Node23&#45;&gt;Node24 -->
<g id="edge34" class="edge">
<title>Node23&#45;&gt;Node24</title>
<path fill="none" stroke="#63b8ff" d="M393.27,-212.09C403.46,-202.94 415.74,-191.9 424.14,-184.36"/>
<polygon fill="#63b8ff" stroke="#63b8ff" points="391.23,-209.21 386.13,-218.5 395.91,-214.42 391.23,-209.21"/>
</g>
<!-- Node25 -->
<g id="node25" class="node">
<title>Node25</title>
<g id="a_node25"><a xlink:href="MainMenuState_8h.html" target="_top" xlink:title=" ">
<polygon fill="white" stroke="#666666" points="361.5,-184 242.5,-184 242.5,-165 361.5,-165 361.5,-184"/>
<text text-anchor="middle" x="302" y="-172" font-family="Helvetica,sans-Serif" font-size="10.00">src/MainMenuState.h</text>
</a>
</g>
</g>
<!-- Node23&#45;&gt;Node25 -->
<g id="edge35" class="edge">
<title>Node23&#45;&gt;Node25</title>
<path fill="none" stroke="#63b8ff" d="M353.53,-212.92C340.72,-203.61 324.9,-192.13 314.2,-184.36"/>
<polygon fill="#63b8ff" stroke="#63b8ff" points="351.24,-215.58 361.39,-218.62 355.36,-209.91 351.24,-215.58"/>
</g>
<!-- Node26 -->
<g id="node26" class="node">
<title>Node26</title>
<g id="a_node26"><a xlink:href="Game_8h.html" target="_top" xlink:title=" ">
<polygon fill="white" stroke="#666666" points="320,-129 248,-129 248,-110 320,-110 320,-129"/>
<text text-anchor="middle" x="284" y="-117" font-family="Helvetica,sans-Serif" font-size="10.00">src/Game.h</text>
</a>
</g>
</g>
<!-- Node25&#45;&gt;Node26 -->
<g id="edge36" class="edge">
<title>Node25&#45;&gt;Node26</title>
<path fill="none" stroke="#63b8ff" d="M295.35,-153.93C292.5,-145.53 289.31,-136.13 287.04,-129.44"/>
<polygon fill="#63b8ff" stroke="#63b8ff" points="292.01,-154.97 298.54,-163.31 298.64,-152.72 292.01,-154.97"/>
</g>
<!-- Node29 -->
<g id="node29" class="node">
<title>Node29</title>
<g id="a_node29"><a xlink:href="MainMenuState_8cpp.html" target="_top" xlink:title=" ">
<polygon fill="white" stroke="#666666" points="469.5,-129 338.5,-129 338.5,-110 469.5,-110 469.5,-129"/>
<text text-anchor="middle" x="404" y="-117" font-family="Helvetica,sans-Serif" font-size="10.00">src/MainMenuState.cpp</text>
</a>
</g>
</g>
<!-- Node25&#45;&gt;Node29 -->
<g id="edge39" class="edge">
<title>Node25&#45;&gt;Node29</title>
<path fill="none" stroke="#63b8ff" d="M329.39,-159.27C347.72,-149.74 371.26,-137.51 386.95,-129.36"/>
<polygon fill="#63b8ff" stroke="#63b8ff" points="327.91,-156.09 320.65,-163.81 331.13,-162.31 327.91,-156.09"/>
</g>
<!-- Node27 -->
<g id="node27" class="node">
<title>Node27</title>
<g id="a_node27"><a xlink:href="FinalProjectCS202_8cpp.html" target="_top" xlink:title=" ">
<polygon fill="white" stroke="#666666" points="337,-74 195,-74 195,-55 337,-55 337,-74"/>
<text text-anchor="middle" x="266" y="-62" font-family="Helvetica,sans-Serif" font-size="10.00">src/FinalProjectCS202.cpp</text>
</a>
</g>
</g>
<!-- Node26&#45;&gt;Node27 -->
<g id="edge37" class="edge">
<title>Node26&#45;&gt;Node27</title>
<path fill="none" stroke="#63b8ff" d="M277.35,-98.93C274.5,-90.53 271.31,-81.13 269.04,-74.44"/>
<polygon fill="#63b8ff" stroke="#63b8ff" points="274.01,-99.97 280.54,-108.31 280.64,-97.72 274.01,-99.97"/>
</g>
<!-- Node28 -->
<g id="node28" class="node">
<title>Node28</title>
<g id="a_node28"><a xlink:href="Game_8cpp.html" target="_top" xlink:title=" ">
<polygon fill="white" stroke="#666666" points="438.5,-74 355.5,-74 355.5,-55 438.5,-55 438.5,-74"/>
<text text-anchor="middle" x="397" y="-62" font-family="Helvetica,sans-Serif" font-size="10.00">src/Game.cpp</text>
</a>
</g>
</g>
<!-- Node26&#45;&gt;Node28 -->
<g id="edge38" class="edge">
<title>Node26&#45;&gt;Node28</title>
<path fill="none" stroke="#63b8ff" d="M313.49,-104.67C333.92,-95.09 360.49,-82.62 378.11,-74.36"/>
<polygon fill="#63b8ff" stroke="#63b8ff" points="312.11,-101.45 304.54,-108.87 315.08,-107.79 312.11,-101.45"/>
</g>
<!-- Node30&#45;&gt;Node5 -->
<g id="edge41" class="edge">
<title>Node30&#45;&gt;Node5</title>
<path fill="none" stroke="#63b8ff" d="M1211.54,-270.45C1185.99,-260.78 1151.84,-247.85 1129.4,-239.36"/>
<polygon fill="#63b8ff" stroke="#63b8ff" points="1210.24,-273.71 1220.84,-273.97 1212.72,-267.16 1210.24,-273.71"/>
</g>
<!-- Node30&#45;&gt;Node9 -->
<g id="edge43" class="edge">
<title>Node30&#45;&gt;Node9</title>
<path fill="none" stroke="#63b8ff" d="M1234.37,-265.01C1225.42,-251.61 1212.2,-233.55 1198,-220 1182.96,-205.65 1162.87,-192.65 1149.02,-184.46"/>
<polygon fill="#63b8ff" stroke="#63b8ff" points="1231.38,-266.82 1239.76,-273.3 1237.25,-263.01 1231.38,-266.82"/>
</g>
<!-- Node30&#45;&gt;Node18 -->
<g id="edge44" class="edge">
<title>Node30&#45;&gt;Node18</title>
<path fill="none" stroke="#63b8ff" d="M1261.92,-266.13C1278.22,-247.34 1302.93,-215.77 1316,-184 1331.87,-145.41 1335.15,-94.79 1335.83,-74.49"/>
<polygon fill="#63b8ff" stroke="#63b8ff" points="1259.31,-263.8 1255.29,-273.6 1264.55,-268.45 1259.31,-263.8"/>
</g>
<!-- Node30&#45;&gt;Node31 -->
<g id="edge42" class="edge">
<title>Node30&#45;&gt;Node31</title>
<path fill="none" stroke="#63b8ff" d="M1283.46,-270.85C1312.14,-261.17 1350.98,-248.06 1376.5,-239.45"/>
<polygon fill="#63b8ff" stroke="#63b8ff" points="1282.42,-267.51 1274.07,-274.03 1284.66,-274.14 1282.42,-267.51"/>
</g>
<!-- Node32&#45;&gt;Node5 -->
<g id="edge46" class="edge">
<title>Node32&#45;&gt;Node5</title>
<path fill="none" stroke="#63b8ff" d="M944.92,-271.74C983.01,-261.99 1036.37,-248.33 1071.06,-239.45"/>
<polygon fill="#63b8ff" stroke="#63b8ff" points="944.4,-268.26 935.58,-274.13 946.14,-275.04 944.4,-268.26"/>
</g>
<!-- Node32&#45;&gt;Node7 -->
<g id="edge47" class="edge">
<title>Node32&#45;&gt;Node7</title>
<path fill="none" stroke="#63b8ff" d="M844.49,-274.31C761.76,-258.8 614,-224.27 614,-175.5 614,-175.5 614,-175.5 614,-118.5 614,-77.1 648.1,-36.74 664.89,-19.38"/>
<polygon fill="#63b8ff" stroke="#63b8ff" points="843.76,-277.74 854.23,-276.1 845.02,-270.85 843.76,-277.74"/>
</g>
<!-- Node32&#45;&gt;Node14 -->
<g id="edge49" class="edge">
<title>Node32&#45;&gt;Node14</title>
<path fill="none" stroke="#63b8ff" d="M897.49,-263.34C895.98,-227.11 898.46,-150.98 941,-110 976.83,-75.48 1001.09,-93.17 1047,-74 1064.42,-66.72 1066.99,-60.67 1085,-55 1107.68,-47.86 1247.03,-28.85 1328.29,-18.13"/>
<polygon fill="#63b8ff" stroke="#63b8ff" points="893.99,-263.45 898.07,-273.23 900.98,-263.04 893.99,-263.45"/>
</g>
<!-- Node33 -->
<g id="node33" class="node">
<title>Node33</title>
<g id="a_node33"><a xlink:href="Obstacle_8cpp.html" target="_top" xlink:title=" ">
<polygon fill="white" stroke="#666666" points="812.5,-239 715.5,-239 715.5,-220 812.5,-220 812.5,-239"/>
<text text-anchor="middle" x="764" y="-227" font-family="Helvetica,sans-Serif" font-size="10.00">src/Obstacle.cpp</text>
</a>
</g>
</g>
<!-- Node32&#45;&gt;Node33 -->
<g id="edge48" class="edge">
<title>Node32&#45;&gt;Node33</title>
<path fill="none" stroke="#63b8ff" d="M865.44,-270.32C840.84,-260.67 808.1,-247.82 786.56,-239.36"/>
<polygon fill="#63b8ff" stroke="#63b8ff" points="864.1,-273.56 874.69,-273.96 866.66,-267.04 864.1,-273.56"/>
</g>
<!-- Node34&#45;&gt;Node7 -->
<g id="edge51" class="edge">
<title>Node34&#45;&gt;Node7</title>
<path fill="none" stroke="#63b8ff" d="M964.55,-270.53C944.65,-262.61 919.73,-251.59 899,-239 799.03,-178.29 759.84,-170.67 694,-74 682.29,-56.8 677.16,-32.4 675.14,-19.42"/>
<polygon fill="#63b8ff" stroke="#63b8ff" points="963.03,-273.69 973.62,-274.05 965.56,-267.17 963.03,-273.69"/>
</g>
<!-- Node34&#45;&gt;Node14 -->
<g id="edge53" class="edge">
<title>Node34&#45;&gt;Node14</title>
<path fill="none" stroke="#63b8ff" d="M1007.42,-264.2C1018.62,-237.71 1042.39,-190.48 1078,-165 1141.78,-119.36 1371.38,-136.32 1419,-74 1432.49,-56.34 1411.19,-32.12 1397.35,-19.3"/>
<polygon fill="#63b8ff" stroke="#63b8ff" points="1004.23,-262.78 1003.73,-273.36 1010.72,-265.39 1004.23,-262.78"/>
</g>
<!-- Node35 -->
<g id="node35" class="node">
<title>Node35</title>
<g id="a_node35"><a xlink:href="Pickups_8cpp.html" target="_top" xlink:title=" ">
<polygon fill="white" stroke="#666666" points="999.5,-239 908.5,-239 908.5,-220 999.5,-220 999.5,-239"/>
<text text-anchor="middle" x="954" y="-227" font-family="Helvetica,sans-Serif" font-size="10.00">src/Pickups.cpp</text>
</a>
</g>
</g>
<!-- Node34&#45;&gt;Node35 -->
<g id="edge52" class="edge">
<title>Node34&#45;&gt;Node35</title>
<path fill="none" stroke="#63b8ff" d="M985,-266.22C977.24,-257.28 968.1,-246.74 961.76,-239.44"/>
<polygon fill="#63b8ff" stroke="#63b8ff" points="982.21,-268.35 991.41,-273.61 987.5,-263.76 982.21,-268.35"/>
</g>
<!-- Node37&#45;&gt;Node23 -->
<g id="edge56" class="edge">
<title>Node37&#45;&gt;Node23</title>
<path fill="none" stroke="#63b8ff" d="M416.75,-381.14C375.49,-367.37 317.62,-340.66 291,-294 276.33,-268.27 313.86,-249.68 343.41,-239.49"/>
<polygon fill="#63b8ff" stroke="#63b8ff" points="415.61,-384.45 426.2,-384.15 417.74,-377.78 415.61,-384.45"/>
</g>
<!-- Node37&#45;&gt;Node36 -->
<g id="edge57" class="edge">
<title>Node37&#45;&gt;Node36</title>
<path fill="none" stroke="#63b8ff" d="M414.63,-391.49C371.02,-387.78 306.47,-377.46 258,-349 234.68,-335.31 215.95,-308.49 207.26,-294.49"/>
<polygon fill="#63b8ff" stroke="#63b8ff" points="414.33,-394.97 424.56,-392.23 414.85,-387.99 414.33,-394.97"/>
</g>
<!-- Node38 -->
<g id="node38" class="node">
<title>Node38</title>
<g id="a_node38"><a xlink:href="PlayerCollidable_8h.html" target="_top" xlink:title=" ">
<polygon fill="white" stroke="#666666" points="832,-349 710,-349 710,-330 832,-330 832,-349"/>
<text text-anchor="middle" x="771" y="-337" font-family="Helvetica,sans-Serif" font-size="10.00">src/PlayerCollidable.h</text>
</a>
</g>
</g>
<!-- Node37&#45;&gt;Node38 -->
<g id="edge58" class="edge">
<title>Node37&#45;&gt;Node38</title>
<path fill="none" stroke="#63b8ff" d="M510.96,-385.25C567.41,-375.53 660.8,-359.46 718.96,-349.46"/>
<polygon fill="#63b8ff" stroke="#63b8ff" points="510.6,-381.76 501.34,-386.9 511.79,-388.66 510.6,-381.76"/>
</g>
<!-- Node42 -->
<g id="node42" class="node">
<title>Node42</title>
<g id="a_node42"><a xlink:href="PlayerState_8cpp.html" target="_top" xlink:title=" ">
<polygon fill="white" stroke="#666666" points="410,-294 300,-294 300,-275 410,-275 410,-294"/>
<text text-anchor="middle" x="355" y="-282" font-family="Helvetica,sans-Serif" font-size="10.00">src/PlayerState.cpp</text>
</a>
</g>
</g>
<!-- Node37&#45;&gt;Node42 -->
<g id="edge65" class="edge">
<title>Node37&#45;&gt;Node42</title>
<path fill="none" stroke="#63b8ff" d="M439.75,-378.15C428.39,-370.13 414.87,-359.75 404,-349 386.18,-331.37 369.19,-307.14 360.68,-294.31"/>
<polygon fill="#63b8ff" stroke="#63b8ff" points="437.59,-380.91 447.81,-383.7 441.55,-375.14 437.59,-380.91"/>
</g>
<!-- Node43 -->
<g id="node43" class="node">
<title>Node43</title>
<g id="a_node43"><a xlink:href="PlayerState_8h.html" target="_top" xlink:title=" ">
<polygon fill="white" stroke="#666666" points="512.5,-349 413.5,-349 413.5,-330 512.5,-330 512.5,-349"/>
<text text-anchor="middle" x="463" y="-337" font-family="Helvetica,sans-Serif" font-size="10.00">src/PlayerState.h</text>
</a>
</g>
</g>
<!-- Node37&#45;&gt;Node43 -->
<g id="edge66" class="edge">
<title>Node37&#45;&gt;Node43</title>
<path fill="none" stroke="#63b8ff" d="M463,-373.35C463,-365.1 463,-355.97 463,-349.44"/>
<polygon fill="#63b8ff" stroke="#63b8ff" points="459.5,-373.23 463,-383.23 466.5,-373.23 459.5,-373.23"/>
</g>
<!-- Node44 -->
<g id="node44" class="node">
<title>Node44</title>
<g id="a_node44"><a xlink:href="World_8h.html" target="_top" xlink:title=" ">
<polygon fill="white" stroke="#666666" points="601.5,-349 530.5,-349 530.5,-330 601.5,-330 601.5,-349"/>
<text text-anchor="middle" x="566" y="-337" font-family="Helvetica,sans-Serif" font-size="10.00">src/World.h</text>
</a>
</g>
</g>
<!-- Node37&#45;&gt;Node44 -->
<g id="edge72" class="edge">
<title>Node37&#45;&gt;Node44</title>
<path fill="none" stroke="#63b8ff" d="M490.66,-379.27C509.17,-369.74 532.94,-357.51 548.79,-349.36"/>
<polygon fill="#63b8ff" stroke="#63b8ff" points="489.11,-376.13 481.82,-383.82 492.31,-382.35 489.11,-376.13"/>
</g>
<!-- Node38&#45;&gt;Node32 -->
<g id="edge62" class="edge">
<title>Node38&#45;&gt;Node32</title>
<path fill="none" stroke="#63b8ff" d="M803.14,-325.19C826.43,-315.55 857.27,-302.78 877.61,-294.36"/>
<polygon fill="#63b8ff" stroke="#63b8ff" points="802.01,-321.87 794.11,-328.93 804.69,-328.34 802.01,-321.87"/>
</g>
<!-- Node38&#45;&gt;Node34 -->
<g id="edge63" class="edge">
<title>Node38&#45;&gt;Node34</title>
<path fill="none" stroke="#63b8ff" d="M820.99,-326.93C863.18,-317.17 922.72,-303.38 961.35,-294.45"/>
<polygon fill="#63b8ff" stroke="#63b8ff" points="820.27,-323.5 811.32,-329.17 821.85,-330.32 820.27,-323.5"/>
</g>
<!-- Node39 -->
<g id="node39" class="node">
<title>Node39</title>
<g id="a_node39"><a xlink:href="Camera_8h.html" target="_top" xlink:title=" ">
<polygon fill="white" stroke="#666666" points="547.5,-294 466.5,-294 466.5,-275 547.5,-275 547.5,-294"/>
<text text-anchor="middle" x="507" y="-282" font-family="Helvetica,sans-Serif" font-size="10.00">src/Camera.h</text>
</a>
</g>
</g>
<!-- Node38&#45;&gt;Node39 -->
<g id="edge59" class="edge">
<title>Node38&#45;&gt;Node39</title>
<path fill="none" stroke="#63b8ff" d="M715.24,-327.31C665.07,-317.23 592.55,-302.67 547.66,-293.66"/>
<polygon fill="#63b8ff" stroke="#63b8ff" points="714.24,-330.67 724.73,-329.21 715.62,-323.81 714.24,-330.67"/>
</g>
<!-- Node41 -->
<g id="node41" class="node">
<title>Node41</title>
<g id="a_node41"><a xlink:href="PlayerCollidable_8cpp.html" target="_top" xlink:title=" ">
<polygon fill="white" stroke="#666666" points="838,-294 704,-294 704,-275 838,-275 838,-294"/>
<text text-anchor="middle" x="771" y="-282" font-family="Helvetica,sans-Serif" font-size="10.00">src/PlayerCollidable.cpp</text>
</a>
</g>
</g>
<!-- Node38&#45;&gt;Node41 -->
<g id="edge64" class="edge">
<title>Node38&#45;&gt;Node41</title>
<path fill="none" stroke="#63b8ff" d="M771,-318.35C771,-310.1 771,-300.97 771,-294.44"/>
<polygon fill="#63b8ff" stroke="#63b8ff" points="767.5,-318.23 771,-328.23 774.5,-318.23 767.5,-318.23"/>
</g>
<!-- Node39&#45;&gt;Node23 -->
<g id="edge61" class="edge">
<title>Node39&#45;&gt;Node23</title>
<path fill="none" stroke="#63b8ff" d="M474.18,-270.32C450.13,-260.67 418.12,-247.82 397.06,-239.36"/>
<polygon fill="#63b8ff" stroke="#63b8ff" points="472.62,-273.47 483.2,-273.95 475.23,-266.97 472.62,-273.47"/>
</g>
<!-- Node40 -->
<g id="node40" class="node">
<title>Node40</title>
<g id="a_node40"><a xlink:href="Camera_8cpp.html" target="_top" xlink:title=" ">
<polygon fill="white" stroke="#666666" points="548,-239 456,-239 456,-220 548,-220 548,-239"/>
<text text-anchor="middle" x="502" y="-227" font-family="Helvetica,sans-Serif" font-size="10.00">src/Camera.cpp</text>
</a>
</g>
</g>
<!-- Node39&#45;&gt;Node40 -->
<g id="edge60" class="edge">
<title>Node39&#45;&gt;Node40</title>
<path fill="none" stroke="#63b8ff" d="M505.1,-263.35C504.32,-255.1 503.46,-245.97 502.84,-239.44"/>
<polygon fill="#63b8ff" stroke="#63b8ff" points="501.61,-263.61 506.03,-273.24 508.58,-262.96 501.61,-263.61"/>
</g>
<!-- Node43&#45;&gt;Node5 -->
<g id="edge68" class="edge">
<title>Node43&#45;&gt;Node5</title>
<path fill="none" stroke="#63b8ff" d="M524.4,-329.85C655.66,-319.04 946.39,-344.03 1049,-294 1073.77,-281.92 1092.63,-253.87 1101.1,-239.44"/>
<polygon fill="#63b8ff" stroke="#63b8ff" points="524.09,-326.36 514.46,-330.79 524.75,-333.33 524.09,-326.36"/>
</g>
<!-- Node43&#45;&gt;Node32 -->
<g id="edge69" class="edge">
<title>Node43&#45;&gt;Node32</title>
<path fill="none" stroke="#63b8ff" d="M524.38,-329.61C667.53,-311.53 706.24,-313.26 847,-294 849.81,-293.62 852.7,-293.2 855.61,-292.77"/>
<polygon fill="#63b8ff" stroke="#63b8ff" points="523.95,-326.13 514.47,-330.87 524.84,-333.08 523.95,-326.13"/>
</g>
<!-- Node43&#45;&gt;Node36 -->
<g id="edge70" class="edge">
<title>Node43&#45;&gt;Node36</title>
<path fill="none" stroke="#63b8ff" d="M407.73,-327.28C358.92,-317.37 288.79,-303.12 244.33,-294.1"/>
<polygon fill="#63b8ff" stroke="#63b8ff" points="406.75,-330.65 417.24,-329.21 408.14,-323.79 406.75,-330.65"/>
</g>
<!-- Node43&#45;&gt;Node39 -->
<g id="edge67" class="edge">
<title>Node43&#45;&gt;Node39</title>
<path fill="none" stroke="#63b8ff" d="M477.58,-320.93C484.95,-312.06 493.58,-301.67 499.58,-294.44"/>
<polygon fill="#63b8ff" stroke="#63b8ff" points="474.93,-318.65 471.23,-328.58 480.31,-323.13 474.93,-318.65"/>
</g>
<!-- Node43&#45;&gt;Node42 -->
<g id="edge71" class="edge">
<title>Node43&#45;&gt;Node42</title>
<path fill="none" stroke="#63b8ff" d="M434.54,-324.53C415.06,-314.97 389.82,-302.59 373.05,-294.36"/>
<polygon fill="#63b8ff" stroke="#63b8ff" points="432.8,-327.58 443.32,-328.84 435.89,-321.29 432.8,-327.58"/>
</g>
<!-- Node44&#45;&gt;Node7 -->
<g id="edge74" class="edge">
<title>Node44&#45;&gt;Node7</title>
<path fill="none" stroke="#63b8ff" d="M569,-318.28C571.94,-296.62 576,-261.21 576,-230.5 576,-230.5 576,-230.5 576,-118.5 576,-71.15 628.29,-35.35 656.48,-19.49"/>
<polygon fill="#63b8ff" stroke="#63b8ff" points="565.55,-317.67 567.6,-328.07 572.48,-318.66 565.55,-317.67"/>
</g>
<!-- Node44&#45;&gt;Node23 -->
<g id="edge75" class="edge">
<title>Node44&#45;&gt;Node23</title>
<path fill="none" stroke="#63b8ff" d="M527.93,-325.85C506.44,-318 479.46,-306.96 457,-294 428.61,-277.62 399.14,-252.44 384.48,-239.25"/>
<polygon fill="#63b8ff" stroke="#63b8ff" points="526.6,-329.09 537.19,-329.15 528.94,-322.49 526.6,-329.09"/>
</g>
<!-- Node44&#45;&gt;Node39 -->
<g id="edge73" class="edge">
<title>Node44&#45;&gt;Node39</title>
<path fill="none" stroke="#63b8ff" d="M547.73,-322.09C537.54,-312.94 525.26,-301.9 516.86,-294.36"/>
<polygon fill="#63b8ff" stroke="#63b8ff" points="545.09,-324.42 554.87,-328.5 549.77,-319.21 545.09,-324.42"/>
</g>
<!-- Node45 -->
<g id="node45" class="node">
<title>Node45</title>
<g id="a_node45"><a xlink:href="World_8cpp.html" target="_top" xlink:title=" ">
<polygon fill="white" stroke="#666666" points="686,-294 604,-294 604,-275 686,-275 686,-294"/>
<text text-anchor="middle" x="645" y="-282" font-family="Helvetica,sans-Serif" font-size="10.00">src/World.cpp</text>
</a>
</g>
</g>
<!-- Node44&#45;&gt;Node45 -->
<g id="edge76" class="edge">
<title>Node44&#45;&gt;Node45</title>
<path fill="none" stroke="#63b8ff" d="M588.82,-323.19C602.76,-313.84 620.1,-302.21 631.8,-294.36"/>
<polygon fill="#63b8ff" stroke="#63b8ff" points="587.01,-320.19 580.66,-328.67 590.91,-326 587.01,-320.19"/>
</g>
<!-- Node46&#45;&gt;Node7 -->
<g id="edge82" class="edge">
<title>Node46&#45;&gt;Node7</title>
<path fill="none" stroke="#63b8ff" d="M1639.97,-57.75C1628.06,-56.73 1615.64,-55.76 1604,-55 1220.92,-30.06 1123.54,-51.19 741,-19 738.2,-18.76 735.33,-18.5 732.43,-18.21"/>
<polygon fill="#63b8ff" stroke="#63b8ff" points="1639.42,-61.22 1649.69,-58.6 1640.03,-54.24 1639.42,-61.22"/>
</g>
<!-- Node46&#45;&gt;Node14 -->
<g id="edge83" class="edge">
<title>Node46&#45;&gt;Node14</title>
<path fill="none" stroke="#63b8ff" d="M1639.92,-53.33C1582.06,-43.53 1495.37,-28.85 1440.01,-19.48"/>
<polygon fill="#63b8ff" stroke="#63b8ff" points="1639.16,-56.75 1649.6,-54.97 1640.33,-49.85 1639.16,-56.75"/>
</g>
<!-- Node47 -->
<g id="node47" class="node">
<title>Node47</title>
<g id="a_node47"><a xlink:href="SpriteNode_8cpp.html" target="_top" xlink:title=" ">
<polygon fill="white" stroke="#666666" points="1754,-19 1646,-19 1646,0 1754,0 1754,-19"/>
<text text-anchor="middle" x="1700" y="-7" font-family="Helvetica,sans-Serif" font-size="10.00">src/SpriteNode.cpp</text>
</a>
</g>
</g>
<!-- Node46&#45;&gt;Node47 -->
<g id="edge84" class="edge">
<title>Node46&#45;&gt;Node47</title>
<path fill="none" stroke="#63b8ff" d="M1700,-43.35C1700,-35.1 1700,-25.97 1700,-19.44"/>
<polygon fill="#63b8ff" stroke="#63b8ff" points="1696.5,-43.23 1700,-53.23 1703.5,-43.23 1696.5,-43.23"/>
</g>
</g>
</svg>
