<?xml version="1.0" encoding="UTF-8" standalone="no"?>
<!DOCTYPE svg PUBLIC "-//W3C//DTD SVG 1.1//EN"
 "http://www.w3.org/Graphics/SVG/1.1/DTD/svg11.dtd">
<!-- Generated by graphviz version 7.0.5 (0)
 -->
<!-- Title: src/TextureHolder.h Pages: 1 -->
<svg width="582pt" height="192pt"
 viewBox="0.00 0.00 582.00 192.00" xmlns="http://www.w3.org/2000/svg" xmlns:xlink="http://www.w3.org/1999/xlink">
<g id="graph0" class="graph" transform="scale(1 1) rotate(0) translate(4 188)">
<title>src/TextureHolder.h</title>
<!-- Node1 -->
<g id="node1" class="node">
<title>Node1</title>
<g id="a_node1"><a xlink:title=" ">
<polygon fill="#999999" stroke="#666666" points="262,-184 152,-184 152,-165 262,-165 262,-184"/>
<text text-anchor="middle" x="207" y="-172" font-family="Helvetica,sans-Serif" font-size="10.00">src/TextureHolder.h</text>
</a>
</g>
</g>
<!-- Node2 -->
<g id="node2" class="node">
<title>Node2</title>
<g id="a_node2"><a xlink:title=" ">
<polygon fill="#e0e0e0" stroke="#999999" points="58,-129 0,-129 0,-110 58,-110 58,-129"/>
<text text-anchor="middle" x="29" y="-117" font-family="Helvetica,sans-Serif" font-size="10.00">memory</text>
</a>
</g>
</g>
<!-- Node1&#45;&gt;Node2 -->
<g id="edge1" class="edge">
<title>Node1&#45;&gt;Node2</title>
<path fill="none" stroke="#63b8ff" d="M176.8,-164.51C147.26,-155.71 102.06,-142.25 69.43,-132.54"/>
<polygon fill="#63b8ff" stroke="#63b8ff" points="70.49,-129.2 59.9,-129.7 68.49,-135.91 70.49,-129.2"/>
</g>
<!-- Node3 -->
<g id="node3" class="node">
<title>Node3</title>
<g id="a_node3"><a xlink:title=" ">
<polygon fill="#e0e0e0" stroke="#999999" points="114,-129 76,-129 76,-110 114,-110 114,-129"/>
<text text-anchor="middle" x="95" y="-117" font-family="Helvetica,sans-Serif" font-size="10.00">map</text>
</a>
</g>
</g>
<!-- Node1&#45;&gt;Node3 -->
<g id="edge2" class="edge">
<title>Node1&#45;&gt;Node3</title>
<path fill="none" stroke="#63b8ff" d="M188,-164.51C170.44,-156.2 144.08,-143.73 123.91,-134.18"/>
<polygon fill="#63b8ff" stroke="#63b8ff" points="125.62,-131.12 115.09,-130.01 122.63,-137.45 125.62,-131.12"/>
</g>
<!-- Node4 -->
<g id="node4" class="node">
<title>Node4</title>
<g id="a_node4"><a xlink:title=" ">
<polygon fill="#e0e0e0" stroke="#999999" points="281.5,-129 132.5,-129 132.5,-110 281.5,-110 281.5,-129"/>
<text text-anchor="middle" x="207" y="-117" font-family="Helvetica,sans-Serif" font-size="10.00">SFML/Graphics/Texture.hpp</text>
</a>
</g>
</g>
<!-- Node1&#45;&gt;Node4 -->
<g id="edge3" class="edge">
<title>Node1&#45;&gt;Node4</title>
<path fill="none" stroke="#63b8ff" d="M207,-164.75C207,-158.27 207,-149.16 207,-140.9"/>
<polygon fill="#63b8ff" stroke="#63b8ff" points="210.5,-140.96 207,-130.96 203.5,-140.96 210.5,-140.96"/>
</g>
<!-- Node5 -->
<g id="node5" class="node">
<title>Node5</title>
<g id="a_node5"><a xlink:href="Enums_8h.html" target="_top" xlink:title=" ">
<polygon fill="white" stroke="#666666" points="327.5,-74 268.5,-74 268.5,-55 327.5,-55 327.5,-74"/>
<text text-anchor="middle" x="298" y="-62" font-family="Helvetica,sans-Serif" font-size="10.00">Enums.h</text>
</a>
</g>
</g>
<!-- Node1&#45;&gt;Node5 -->
<g id="edge4" class="edge">
<title>Node1&#45;&gt;Node5</title>
<path fill="none" stroke="#63b8ff" d="M238.78,-164.5C256.75,-157.72 277.96,-146.52 290,-129 298.68,-116.37 300.33,-98.92 300,-85.5"/>
<polygon fill="#63b8ff" stroke="#63b8ff" points="303.51,-85.43 299.35,-75.68 296.52,-85.89 303.51,-85.43"/>
</g>
<!-- Node6 -->
<g id="node6" class="node">
<title>Node6</title>
<g id="a_node6"><a xlink:href="Consts_8h.html" target="_top" xlink:title=" ">
<polygon fill="white" stroke="#666666" points="419.5,-129 360.5,-129 360.5,-110 419.5,-110 419.5,-129"/>
<text text-anchor="middle" x="390" y="-117" font-family="Helvetica,sans-Serif" font-size="10.00">Consts.h</text>
</a>
</g>
</g>
<!-- Node1&#45;&gt;Node6 -->
<g id="edge5" class="edge">
<title>Node1&#45;&gt;Node6</title>
<path fill="none" stroke="#63b8ff" d="M238.04,-164.51C268.64,-155.65 315.57,-142.06 349.18,-132.32"/>
<polygon fill="#63b8ff" stroke="#63b8ff" points="349.94,-135.75 358.57,-129.6 347.99,-129.02 349.94,-135.75"/>
</g>
<!-- Node6&#45;&gt;Node5 -->
<g id="edge7" class="edge">
<title>Node6&#45;&gt;Node5</title>
<path fill="none" stroke="#63b8ff" d="M374.39,-109.51C360.3,-101.39 339.31,-89.3 322.9,-79.85"/>
<polygon fill="#63b8ff" stroke="#63b8ff" points="325.1,-77.07 314.69,-75.11 321.61,-83.14 325.1,-77.07"/>
</g>
<!-- Node7 -->
<g id="node7" class="node">
<title>Node7</title>
<g id="a_node7"><a xlink:title=" ">
<polygon fill="#e0e0e0" stroke="#999999" points="456,-74 346,-74 346,-55 456,-55 456,-74"/>
<text text-anchor="middle" x="401" y="-62" font-family="Helvetica,sans-Serif" font-size="10.00">SFML/Graphics.hpp</text>
</a>
</g>
</g>
<!-- Node6&#45;&gt;Node7 -->
<g id="edge6" class="edge">
<title>Node6&#45;&gt;Node7</title>
<path fill="none" stroke="#63b8ff" d="M391.82,-109.75C393.18,-103.19 395.1,-93.95 396.83,-85.6"/>
<polygon fill="#63b8ff" stroke="#63b8ff" points="400.23,-86.43 398.84,-75.92 393.38,-85 400.23,-86.43"/>
</g>
<!-- Node8 -->
<g id="node8" class="node">
<title>Node8</title>
<g id="a_node8"><a xlink:href="Random_8h.html" target="_top" xlink:title=" ">
<polygon fill="white" stroke="#666666" points="540,-74 474,-74 474,-55 540,-55 540,-74"/>
<text text-anchor="middle" x="507" y="-62" font-family="Helvetica,sans-Serif" font-size="10.00">Random.h</text>
</a>
</g>
</g>
<!-- Node6&#45;&gt;Node8 -->
<g id="edge8" class="edge">
<title>Node6&#45;&gt;Node8</title>
<path fill="none" stroke="#63b8ff" d="M409.85,-109.51C428.28,-101.16 455.98,-88.61 477.09,-79.05"/>
<polygon fill="#63b8ff" stroke="#63b8ff" points="478.4,-82.3 486.07,-74.98 475.51,-75.92 478.4,-82.3"/>
</g>
<!-- Node9 -->
<g id="node9" class="node">
<title>Node9</title>
<g id="a_node9"><a xlink:title=" ">
<polygon fill="#e0e0e0" stroke="#999999" points="496,-19 442,-19 442,0 496,0 496,-19"/>
<text text-anchor="middle" x="469" y="-7" font-family="Helvetica,sans-Serif" font-size="10.00">random</text>
</a>
</g>
</g>
<!-- Node8&#45;&gt;Node9 -->
<g id="edge9" class="edge">
<title>Node8&#45;&gt;Node9</title>
<path fill="none" stroke="#63b8ff" d="M500.73,-54.75C495.64,-47.66 488.3,-37.42 481.97,-28.59"/>
<polygon fill="#63b8ff" stroke="#63b8ff" points="484.96,-26.76 476.29,-20.67 479.28,-30.84 484.96,-26.76"/>
</g>
<!-- Node10 -->
<g id="node10" class="node">
<title>Node10</title>
<g id="a_node10"><a xlink:title=" ">
<polygon fill="#e0e0e0" stroke="#999999" points="574,-19 514,-19 514,0 574,0 574,-19"/>
<text text-anchor="middle" x="544" y="-7" font-family="Helvetica,sans-Serif" font-size="10.00">iostream</text>
</a>
</g>
</g>
<!-- Node8&#45;&gt;Node10 -->
<g id="edge10" class="edge">
<title>Node8&#45;&gt;Node10</title>
<path fill="none" stroke="#63b8ff" d="M513.11,-54.75C518.01,-47.73 525.05,-37.64 531.17,-28.87"/>
<polygon fill="#63b8ff" stroke="#63b8ff" points="534.04,-30.89 536.89,-20.68 528.3,-26.88 534.04,-30.89"/>
</g>
</g>
</svg>
