<?xml version="1.0" encoding="UTF-8" standalone="no"?>
<!DOCTYPE svg PUBLIC "-//W3C//DTD SVG 1.1//EN"
 "http://www.w3.org/Graphics/SVG/1.1/DTD/svg11.dtd">
<!-- Generated by graphviz version 7.0.5 (0)
 -->
<!-- Title: src/VehicleLaneController.cpp Pages: 1 -->
<svg width="3070pt" height="742pt"
 viewBox="0.00 0.00 3070.00 742.00" xmlns="http://www.w3.org/2000/svg" xmlns:xlink="http://www.w3.org/1999/xlink">
<g id="graph0" class="graph" transform="scale(1 1) rotate(0) translate(4 738)">
<title>src/VehicleLaneController.cpp</title>
<!-- Node1 -->
<g id="node1" class="node">
<title>Node1</title>
<g id="a_node1"><a xlink:title=" ">
<polygon fill="#999999" stroke="#666666" points="2353,-734 2193,-734 2193,-715 2353,-715 2353,-734"/>
<text text-anchor="middle" x="2273" y="-722" font-family="Helvetica,sans-Serif" font-size="10.00">src/VehicleLaneController.cpp</text>
</a>
</g>
</g>
<!-- Node2 -->
<g id="node2" class="node">
<title>Node2</title>
<g id="a_node2"><a xlink:title=" ">
<polygon fill="#e0e0e0" stroke="#999999" points="162,-19 102,-19 102,0 162,0 162,-19"/>
<text text-anchor="middle" x="132" y="-7" font-family="Helvetica,sans-Serif" font-size="10.00">iostream</text>
</a>
</g>
</g>
<!-- Node1&#45;&gt;Node2 -->
<g id="edge1" class="edge">
<title>Node1&#45;&gt;Node2</title>
<path fill="none" stroke="#63b8ff" d="M2353.36,-720.83C2554.2,-713.08 3062,-686.49 3062,-615.5 3062,-615.5 3062,-615.5 3062,-118.5 3062,73.36 2826.21,-70.85 2635,-55 2128.74,-13.03 459.94,-10.6 173.9,-10.5"/>
<polygon fill="#63b8ff" stroke="#63b8ff" points="173.95,-7 163.95,-10.5 173.95,-14 173.95,-7"/>
</g>
<!-- Node3 -->
<g id="node3" class="node">
<title>Node3</title>
<g id="a_node3"><a xlink:href="VehicleLaneController_8h.html" target="_top" xlink:title=" ">
<polygon fill="white" stroke="#666666" points="2338.5,-679 2207.5,-679 2207.5,-660 2338.5,-660 2338.5,-679"/>
<text text-anchor="middle" x="2273" y="-667" font-family="Helvetica,sans-Serif" font-size="10.00">VehicleLaneController.h</text>
</a>
</g>
</g>
<!-- Node1&#45;&gt;Node3 -->
<g id="edge2" class="edge">
<title>Node1&#45;&gt;Node3</title>
<path fill="none" stroke="#63b8ff" d="M2273,-714.75C2273,-708.27 2273,-699.16 2273,-690.9"/>
<polygon fill="#63b8ff" stroke="#63b8ff" points="2276.5,-690.96 2273,-680.96 2269.5,-690.96 2276.5,-690.96"/>
</g>
<!-- Node6 -->
<g id="node6" class="node">
<title>Node6</title>
<g id="a_node6"><a xlink:href="Random_8h.html" target="_top" xlink:title=" ">
<polygon fill="white" stroke="#666666" points="66,-74 0,-74 0,-55 66,-55 66,-74"/>
<text text-anchor="middle" x="33" y="-62" font-family="Helvetica,sans-Serif" font-size="10.00">Random.h</text>
</a>
</g>
</g>
<!-- Node1&#45;&gt;Node6 -->
<g id="edge89" class="edge">
<title>Node1&#45;&gt;Node6</title>
<path fill="none" stroke="#63b8ff" d="M2192.74,-723.94C1791.04,-725.61 18,-726.71 18,-615.5 18,-615.5 18,-615.5 18,-173.5 18,-142.63 24.09,-107.26 28.51,-85.66"/>
<polygon fill="#63b8ff" stroke="#63b8ff" points="31.93,-86.39 30.6,-75.88 25.08,-84.93 31.93,-86.39"/>
</g>
<!-- Node4 -->
<g id="node4" class="node">
<title>Node4</title>
<g id="a_node4"><a xlink:href="RoadLaneController_8h.html" target="_top" xlink:title=" ">
<polygon fill="white" stroke="#666666" points="2378.5,-624 2257.5,-624 2257.5,-605 2378.5,-605 2378.5,-624"/>
<text text-anchor="middle" x="2318" y="-612" font-family="Helvetica,sans-Serif" font-size="10.00">RoadLaneController.h</text>
</a>
</g>
</g>
<!-- Node3&#45;&gt;Node4 -->
<g id="edge3" class="edge">
<title>Node3&#45;&gt;Node4</title>
<path fill="none" stroke="#63b8ff" d="M2280.43,-659.75C2286.58,-652.5 2295.51,-641.98 2303.13,-633.02"/>
<polygon fill="#63b8ff" stroke="#63b8ff" points="2305.62,-635.48 2309.43,-625.6 2300.29,-630.95 2305.62,-635.48"/>
</g>
<!-- Node33 -->
<g id="node33" class="node">
<title>Node33</title>
<g id="a_node33"><a xlink:href="Light_8h.html" target="_top" xlink:title=" ">
<polygon fill="white" stroke="#666666" points="2343,-459 2293,-459 2293,-440 2343,-440 2343,-459"/>
<text text-anchor="middle" x="2318" y="-447" font-family="Helvetica,sans-Serif" font-size="10.00">Light.h</text>
</a>
</g>
</g>
<!-- Node3&#45;&gt;Node33 -->
<g id="edge88" class="edge">
<title>Node3&#45;&gt;Node33</title>
<path fill="none" stroke="#63b8ff" d="M2266.14,-659.56C2260.02,-650.97 2251.5,-637.37 2248,-624 2233.49,-568.53 2220.4,-545.25 2248,-495 2255.57,-481.22 2269.41,-471.1 2282.8,-464.03"/>
<polygon fill="#63b8ff" stroke="#63b8ff" points="2283.98,-467.34 2291.48,-459.85 2280.95,-461.03 2283.98,-467.34"/>
</g>
<!-- Node5 -->
<g id="node5" class="node">
<title>Node5</title>
<g id="a_node5"><a xlink:href="RoadLane_8h.html" target="_top" xlink:title=" ">
<polygon fill="white" stroke="#666666" points="2343,-569 2269,-569 2269,-550 2343,-550 2343,-569"/>
<text text-anchor="middle" x="2306" y="-557" font-family="Helvetica,sans-Serif" font-size="10.00">RoadLane.h</text>
</a>
</g>
</g>
<!-- Node4&#45;&gt;Node5 -->
<g id="edge4" class="edge">
<title>Node4&#45;&gt;Node5</title>
<path fill="none" stroke="#63b8ff" d="M2316.02,-604.75C2314.53,-598.19 2312.44,-588.95 2310.55,-580.6"/>
<polygon fill="#63b8ff" stroke="#63b8ff" points="2313.98,-579.9 2308.36,-570.92 2307.15,-581.44 2313.98,-579.9"/>
</g>
<!-- Node40 -->
<g id="node40" class="node">
<title>Node40</title>
<g id="a_node40"><a xlink:title=" ">
<polygon fill="#e0e0e0" stroke="#999999" points="3033.5,-184 2968.5,-184 2968.5,-165 3033.5,-165 3033.5,-184"/>
<text text-anchor="middle" x="3001" y="-172" font-family="Helvetica,sans-Serif" font-size="10.00">functional</text>
</a>
</g>
</g>
<!-- Node4&#45;&gt;Node40 -->
<g id="edge87" class="edge">
<title>Node4&#45;&gt;Node40</title>
<path fill="none" stroke="#63b8ff" d="M2378.72,-610.46C2548.54,-601.16 3016,-569.72 3016,-505.5 3016,-505.5 3016,-505.5 3016,-283.5 3016,-252.63 3009.91,-217.26 3005.49,-195.66"/>
<polygon fill="#63b8ff" stroke="#63b8ff" points="3008.92,-194.93 3003.4,-185.88 3002.07,-196.39 3008.92,-194.93"/>
</g>
<!-- Node5&#45;&gt;Node6 -->
<g id="edge5" class="edge">
<title>Node5&#45;&gt;Node6</title>
<path fill="none" stroke="#63b8ff" d="M2268.57,-558.26C2009.06,-556.49 481.81,-544.86 278,-514 176.53,-498.64 56,-553.12 56,-450.5 56,-450.5 56,-450.5 56,-173.5 56,-142.09 46.58,-106.65 39.8,-85.2"/>
<polygon fill="#63b8ff" stroke="#63b8ff" points="43.14,-84.16 36.67,-75.76 36.49,-86.36 43.14,-84.16"/>
</g>
<!-- Node8 -->
<g id="node8" class="node">
<title>Node8</title>
<g id="a_node8"><a xlink:href="Lane_8h.html" target="_top" xlink:title=" ">
<polygon fill="white" stroke="#666666" points="1350.5,-294 1301.5,-294 1301.5,-275 1350.5,-275 1350.5,-294"/>
<text text-anchor="middle" x="1326" y="-282" font-family="Helvetica,sans-Serif" font-size="10.00">Lane.h</text>
</a>
</g>
</g>
<!-- Node5&#45;&gt;Node8 -->
<g id="edge8" class="edge">
<title>Node5&#45;&gt;Node8</title>
<path fill="none" stroke="#63b8ff" d="M2268.72,-558.67C1981.54,-559.7 132,-562.04 132,-450.5 132,-450.5 132,-450.5 132,-393.5 132,-333.84 1090.06,-294.4 1289.79,-286.83"/>
<polygon fill="#63b8ff" stroke="#63b8ff" points="1289.69,-290.34 1299.55,-286.46 1289.42,-283.34 1289.69,-290.34"/>
</g>
<!-- Node23 -->
<g id="node23" class="node">
<title>Node23</title>
<g id="a_node23"><a xlink:href="Entity_8h.html" target="_top" xlink:title=" ">
<polygon fill="white" stroke="#666666" points="2278.5,-294 2225.5,-294 2225.5,-275 2278.5,-275 2278.5,-294"/>
<text text-anchor="middle" x="2252" y="-282" font-family="Helvetica,sans-Serif" font-size="10.00">Entity.h</text>
</a>
</g>
</g>
<!-- Node5&#45;&gt;Node23 -->
<g id="edge25" class="edge">
<title>Node5&#45;&gt;Node23</title>
<path fill="none" stroke="#63b8ff" d="M2316.16,-549.5C2334.44,-532.26 2371,-492.52 2371,-450.5 2371,-450.5 2371,-450.5 2371,-393.5 2371,-347.23 2321.06,-315.58 2285.88,-299.03"/>
<polygon fill="#63b8ff" stroke="#63b8ff" points="2287.45,-295.9 2276.89,-295 2284.58,-302.29 2287.45,-295.9"/>
</g>
<!-- Node32 -->
<g id="node32" class="node">
<title>Node32</title>
<g id="a_node32"><a xlink:href="Commuters_8h.html" target="_top" xlink:title=" ">
<polygon fill="white" stroke="#666666" points="2200.5,-514 2117.5,-514 2117.5,-495 2200.5,-495 2200.5,-514"/>
<text text-anchor="middle" x="2159" y="-502" font-family="Helvetica,sans-Serif" font-size="10.00">Commuters.h</text>
</a>
</g>
</g>
<!-- Node5&#45;&gt;Node32 -->
<g id="edge49" class="edge">
<title>Node5&#45;&gt;Node32</title>
<path fill="none" stroke="#63b8ff" d="M2281.06,-549.51C2257.16,-540.89 2220.86,-527.8 2194.05,-518.14"/>
<polygon fill="#63b8ff" stroke="#63b8ff" points="2195.59,-514.97 2184.99,-514.87 2193.21,-521.56 2195.59,-514.97"/>
</g>
<!-- Node5&#45;&gt;Node33 -->
<g id="edge84" class="edge">
<title>Node5&#45;&gt;Node33</title>
<path fill="none" stroke="#63b8ff" d="M2307.6,-549.66C2309.17,-540.7 2311.54,-526.43 2313,-514 2314.71,-499.49 2315.99,-483.05 2316.82,-470.53"/>
<polygon fill="#63b8ff" stroke="#63b8ff" points="2320.31,-470.86 2317.44,-460.66 2313.32,-470.42 2320.31,-470.86"/>
</g>
<!-- Node5&#45;&gt;Node40 -->
<g id="edge86" class="edge">
<title>Node5&#45;&gt;Node40</title>
<path fill="none" stroke="#63b8ff" d="M2343.09,-556.49C2483.96,-548.39 2978,-515.34 2978,-450.5 2978,-450.5 2978,-450.5 2978,-283.5 2978,-252.09 2987.42,-216.65 2994.2,-195.2"/>
<polygon fill="#63b8ff" stroke="#63b8ff" points="2997.51,-196.36 2997.33,-185.76 2990.86,-194.16 2997.51,-196.36"/>
</g>
<!-- Node42 -->
<g id="node42" class="node">
<title>Node42</title>
<g id="a_node42"><a xlink:title=" ">
<polygon fill="#e0e0e0" stroke="#999999" points="2304.5,-514 2257.5,-514 2257.5,-495 2304.5,-495 2304.5,-514"/>
<text text-anchor="middle" x="2281" y="-502" font-family="Helvetica,sans-Serif" font-size="10.00">deque</text>
</a>
</g>
</g>
<!-- Node5&#45;&gt;Node42 -->
<g id="edge85" class="edge">
<title>Node5&#45;&gt;Node42</title>
<path fill="none" stroke="#63b8ff" d="M2301.87,-549.75C2298.67,-542.96 2294.11,-533.3 2290.07,-524.73"/>
<polygon fill="#63b8ff" stroke="#63b8ff" points="2293.3,-523.36 2285.86,-515.81 2286.96,-526.35 2293.3,-523.36"/>
</g>
<!-- Node6&#45;&gt;Node2 -->
<g id="edge7" class="edge">
<title>Node6&#45;&gt;Node2</title>
<path fill="none" stroke="#63b8ff" d="M49.79,-54.51C65.1,-46.31 87.97,-34.07 105.7,-24.58"/>
<polygon fill="#63b8ff" stroke="#63b8ff" points="106.96,-27.88 114.12,-20.07 103.65,-21.71 106.96,-27.88"/>
</g>
<!-- Node7 -->
<g id="node7" class="node">
<title>Node7</title>
<g id="a_node7"><a xlink:title=" ">
<polygon fill="#e0e0e0" stroke="#999999" points="60,-19 6,-19 6,0 60,0 60,-19"/>
<text text-anchor="middle" x="33" y="-7" font-family="Helvetica,sans-Serif" font-size="10.00">random</text>
</a>
</g>
</g>
<!-- Node6&#45;&gt;Node7 -->
<g id="edge6" class="edge">
<title>Node6&#45;&gt;Node7</title>
<path fill="none" stroke="#63b8ff" d="M33,-54.75C33,-48.27 33,-39.16 33,-30.9"/>
<polygon fill="#63b8ff" stroke="#63b8ff" points="36.5,-30.96 33,-20.96 29.5,-30.96 36.5,-30.96"/>
</g>
<!-- Node9 -->
<g id="node9" class="node">
<title>Node9</title>
<g id="a_node9"><a xlink:href="SceneNode_8h.html" target="_top" xlink:title=" ">
<polygon fill="white" stroke="#666666" points="1313,-239 1233,-239 1233,-220 1313,-220 1313,-239"/>
<text text-anchor="middle" x="1273" y="-227" font-family="Helvetica,sans-Serif" font-size="10.00">SceneNode.h</text>
</a>
</g>
</g>
<!-- Node8&#45;&gt;Node9 -->
<g id="edge9" class="edge">
<title>Node8&#45;&gt;Node9</title>
<path fill="none" stroke="#63b8ff" d="M1317.25,-274.75C1309.85,-267.35 1299.04,-256.54 1289.95,-247.45"/>
<polygon fill="#63b8ff" stroke="#63b8ff" points="1292.56,-245.11 1283.01,-240.51 1287.61,-250.06 1292.56,-245.11"/>
</g>
<!-- Node10 -->
<g id="node10" class="node">
<title>Node10</title>
<g id="a_node10"><a xlink:href="Enums_8h.html" target="_top" xlink:title=" ">
<polygon fill="white" stroke="#666666" points="2192.5,-74 2133.5,-74 2133.5,-55 2192.5,-55 2192.5,-74"/>
<text text-anchor="middle" x="2163" y="-62" font-family="Helvetica,sans-Serif" font-size="10.00">Enums.h</text>
</a>
</g>
</g>
<!-- Node8&#45;&gt;Node10 -->
<g id="edge24" class="edge">
<title>Node8&#45;&gt;Node10</title>
<path fill="none" stroke="#63b8ff" d="M1348.76,-274.55C1403.64,-253.22 1547.91,-198.67 1672,-165 1836.55,-120.35 2037,-85.74 2121.88,-71.97"/>
<polygon fill="#63b8ff" stroke="#63b8ff" points="2122.26,-75.46 2131.58,-70.41 2121.15,-68.54 2122.26,-75.46"/>
</g>
<!-- Node9&#45;&gt;Node2 -->
<g id="edge23" class="edge">
<title>Node9&#45;&gt;Node2</title>
<path fill="none" stroke="#63b8ff" d="M1232.76,-228.5C1058.66,-228.25 375.29,-224.65 289,-184 217.06,-150.11 163.34,-66.61 142.04,-29.18"/>
<polygon fill="#63b8ff" stroke="#63b8ff" points="145.13,-27.52 137.22,-20.47 139,-30.91 145.13,-27.52"/>
</g>
<!-- Node9&#45;&gt;Node10 -->
<g id="edge10" class="edge">
<title>Node9&#45;&gt;Node10</title>
<path fill="none" stroke="#63b8ff" d="M1313.39,-229.37C1370.65,-229.06 1477.41,-222.69 1558,-184 1601.96,-162.9 1594.33,-129.55 1639,-110 1725.46,-72.16 2014.04,-66.42 2121.88,-65.61"/>
<polygon fill="#63b8ff" stroke="#63b8ff" points="2121.73,-69.11 2131.71,-65.54 2121.69,-62.11 2121.73,-69.11"/>
</g>
<!-- Node11 -->
<g id="node11" class="node">
<title>Node11</title>
<g id="a_node11"><a xlink:title=" ">
<polygon fill="#e0e0e0" stroke="#999999" points="368,-74 258,-74 258,-55 368,-55 368,-74"/>
<text text-anchor="middle" x="313" y="-62" font-family="Helvetica,sans-Serif" font-size="10.00">SFML/Graphics.hpp</text>
</a>
</g>
</g>
<!-- Node9&#45;&gt;Node11 -->
<g id="edge11" class="edge">
<title>Node9&#45;&gt;Node11</title>
<path fill="none" stroke="#63b8ff" d="M1232.55,-228.19C1053.01,-226.59 335.59,-218.11 303,-184 277.66,-157.47 292.32,-110.67 303.65,-84.53"/>
<polygon fill="#63b8ff" stroke="#63b8ff" points="306.68,-86.33 307.69,-75.79 300.32,-83.4 306.68,-86.33"/>
</g>
<!-- Node12 -->
<g id="node12" class="node">
<title>Node12</title>
<g id="a_node12"><a xlink:title=" ">
<polygon fill="#e0e0e0" stroke="#999999" points="1352.5,-184 1193.5,-184 1193.5,-165 1352.5,-165 1352.5,-184"/>
<text text-anchor="middle" x="1273" y="-172" font-family="Helvetica,sans-Serif" font-size="10.00">SFML/Graphics/Drawable.hpp</text>
</a>
</g>
</g>
<!-- Node9&#45;&gt;Node12 -->
<g id="edge12" class="edge">
<title>Node9&#45;&gt;Node12</title>
<path fill="none" stroke="#63b8ff" d="M1273,-219.75C1273,-213.27 1273,-204.16 1273,-195.9"/>
<polygon fill="#63b8ff" stroke="#63b8ff" points="1276.5,-195.96 1273,-185.96 1269.5,-195.96 1276.5,-195.96"/>
</g>
<!-- Node13 -->
<g id="node13" class="node">
<title>Node13</title>
<g id="a_node13"><a xlink:title=" ">
<polygon fill="#e0e0e0" stroke="#999999" points="1815,-184 1681,-184 1681,-165 1815,-165 1815,-184"/>
<text text-anchor="middle" x="1748" y="-172" font-family="Helvetica,sans-Serif" font-size="10.00">SFML/Graphics/Rect.hpp</text>
</a>
</g>
</g>
<!-- Node9&#45;&gt;Node13 -->
<g id="edge13" class="edge">
<title>Node9&#45;&gt;Node13</title>
<path fill="none" stroke="#63b8ff" d="M1313.5,-223.98C1392.21,-215.2 1567.08,-195.69 1669.36,-184.28"/>
<polygon fill="#63b8ff" stroke="#63b8ff" points="1669.49,-187.78 1679.04,-183.19 1668.71,-180.83 1669.49,-187.78"/>
</g>
<!-- Node14 -->
<g id="node14" class="node">
<title>Node14</title>
<g id="a_node14"><a xlink:title=" ">
<polygon fill="#e0e0e0" stroke="#999999" points="1549,-184 1371,-184 1371,-165 1549,-165 1549,-184"/>
<text text-anchor="middle" x="1460" y="-172" font-family="Helvetica,sans-Serif" font-size="10.00">SFML/Graphics/RenderStates.hpp</text>
</a>
</g>
</g>
<!-- Node9&#45;&gt;Node14 -->
<g id="edge14" class="edge">
<title>Node9&#45;&gt;Node14</title>
<path fill="none" stroke="#63b8ff" d="M1304.72,-219.51C1335.84,-210.69 1383.5,-197.18 1417.8,-187.46"/>
<polygon fill="#63b8ff" stroke="#63b8ff" points="1418.31,-190.95 1426.98,-184.86 1416.4,-184.22 1418.31,-190.95"/>
</g>
<!-- Node15 -->
<g id="node15" class="node">
<title>Node15</title>
<g id="a_node15"><a xlink:title=" ">
<polygon fill="#e0e0e0" stroke="#999999" points="489.5,-184 312.5,-184 312.5,-165 489.5,-165 489.5,-184"/>
<text text-anchor="middle" x="401" y="-172" font-family="Helvetica,sans-Serif" font-size="10.00">SFML/Graphics/RenderTarget.hpp</text>
</a>
</g>
</g>
<!-- Node9&#45;&gt;Node15 -->
<g id="edge15" class="edge">
<title>Node9&#45;&gt;Node15</title>
<path fill="none" stroke="#63b8ff" d="M1232.63,-226.61C1119.22,-221.21 787.83,-204.81 501.26,-184.22"/>
<polygon fill="#63b8ff" stroke="#63b8ff" points="501.53,-180.73 491.31,-183.5 501.03,-187.71 501.53,-180.73"/>
</g>
<!-- Node16 -->
<g id="node16" class="node">
<title>Node16</title>
<g id="a_node16"><a xlink:title=" ">
<polygon fill="#e0e0e0" stroke="#999999" points="668.5,-184 507.5,-184 507.5,-165 668.5,-165 668.5,-184"/>
<text text-anchor="middle" x="588" y="-172" font-family="Helvetica,sans-Serif" font-size="10.00">SFML/Graphics/Transform.hpp</text>
</a>
</g>
</g>
<!-- Node9&#45;&gt;Node16 -->
<g id="edge16" class="edge">
<title>Node9&#45;&gt;Node16</title>
<path fill="none" stroke="#63b8ff" d="M1232.58,-225.75C1138.06,-219.26 895,-202.24 680.13,-184.16"/>
<polygon fill="#63b8ff" stroke="#63b8ff" points="680.71,-180.7 670.45,-183.35 680.12,-187.68 680.71,-180.7"/>
</g>
<!-- Node17 -->
<g id="node17" class="node">
<title>Node17</title>
<g id="a_node17"><a xlink:title=" ">
<polygon fill="#e0e0e0" stroke="#999999" points="869,-184 687,-184 687,-165 869,-165 869,-184"/>
<text text-anchor="middle" x="778" y="-172" font-family="Helvetica,sans-Serif" font-size="10.00">SFML/Graphics/Transformable.hpp</text>
</a>
</g>
</g>
<!-- Node9&#45;&gt;Node17 -->
<g id="edge17" class="edge">
<title>Node9&#45;&gt;Node17</title>
<path fill="none" stroke="#63b8ff" d="M1232.91,-224.21C1155.11,-215.88 981.74,-197.32 872.92,-185.66"/>
<polygon fill="#63b8ff" stroke="#63b8ff" points="873.43,-182.2 863.12,-184.61 872.69,-189.16 873.43,-182.2"/>
</g>
<!-- Node18 -->
<g id="node18" class="node">
<title>Node18</title>
<g id="a_node18"><a xlink:title=" ">
<polygon fill="#e0e0e0" stroke="#999999" points="1059,-184 887,-184 887,-165 1059,-165 1059,-184"/>
<text text-anchor="middle" x="973" y="-172" font-family="Helvetica,sans-Serif" font-size="10.00">SFML/System/NonCopyable.hpp</text>
</a>
</g>
</g>
<!-- Node9&#45;&gt;Node18 -->
<g id="edge18" class="edge">
<title>Node9&#45;&gt;Node18</title>
<path fill="none" stroke="#63b8ff" d="M1232.54,-221.35C1181.76,-212.38 1094.14,-196.9 1034.9,-186.44"/>
<polygon fill="#63b8ff" stroke="#63b8ff" points="1035.77,-183.04 1025.31,-184.74 1034.55,-189.93 1035.77,-183.04"/>
</g>
<!-- Node19 -->
<g id="node19" class="node">
<title>Node19</title>
<g id="a_node19"><a xlink:title=" ">
<polygon fill="#e0e0e0" stroke="#999999" points="1976.5,-184 1833.5,-184 1833.5,-165 1976.5,-165 1976.5,-184"/>
<text text-anchor="middle" x="1905" y="-172" font-family="Helvetica,sans-Serif" font-size="10.00">SFML/System/Vector2.hpp</text>
</a>
</g>
</g>
<!-- Node9&#45;&gt;Node19 -->
<g id="edge19" class="edge">
<title>Node9&#45;&gt;Node19</title>
<path fill="none" stroke="#63b8ff" d="M1313.47,-225.57C1402.92,-219.01 1624.47,-202.37 1821.57,-184.2"/>
<polygon fill="#63b8ff" stroke="#63b8ff" points="1821.88,-187.69 1831.51,-183.28 1821.23,-180.72 1821.88,-187.69"/>
</g>
<!-- Node20 -->
<g id="node20" class="node">
<title>Node20</title>
<g id="a_node20"><a xlink:title=" ">
<polygon fill="#e0e0e0" stroke="#999999" points="2135,-129 2077,-129 2077,-110 2135,-110 2135,-129"/>
<text text-anchor="middle" x="2106" y="-117" font-family="Helvetica,sans-Serif" font-size="10.00">memory</text>
</a>
</g>
</g>
<!-- Node9&#45;&gt;Node20 -->
<g id="edge20" class="edge">
<title>Node9&#45;&gt;Node20</title>
<path fill="none" stroke="#63b8ff" d="M1313.35,-224.05C1373.92,-217.1 1491.82,-202.53 1591,-184 1627.35,-177.21 1635.53,-171.12 1672,-165 1815.7,-140.88 1988.51,-127.88 2065.53,-122.91"/>
<polygon fill="#63b8ff" stroke="#63b8ff" points="2065.35,-126.43 2075.11,-122.3 2064.91,-119.44 2065.35,-126.43"/>
</g>
<!-- Node21 -->
<g id="node21" class="node">
<title>Node21</title>
<g id="a_node21"><a xlink:title=" ">
<polygon fill="#e0e0e0" stroke="#999999" points="1124.5,-184 1077.5,-184 1077.5,-165 1124.5,-165 1124.5,-184"/>
<text text-anchor="middle" x="1101" y="-172" font-family="Helvetica,sans-Serif" font-size="10.00">vector</text>
</a>
</g>
</g>
<!-- Node9&#45;&gt;Node21 -->
<g id="edge21" class="edge">
<title>Node9&#45;&gt;Node21</title>
<path fill="none" stroke="#63b8ff" d="M1243.82,-219.51C1213.95,-210.3 1167.51,-195.99 1135.75,-186.21"/>
<polygon fill="#63b8ff" stroke="#63b8ff" points="1136.81,-182.87 1126.22,-183.27 1134.74,-189.56 1136.81,-182.87"/>
</g>
<!-- Node22 -->
<g id="node22" class="node">
<title>Node22</title>
<g id="a_node22"><a xlink:title=" ">
<polygon fill="#e0e0e0" stroke="#999999" points="1175,-184 1143,-184 1143,-165 1175,-165 1175,-184"/>
<text text-anchor="middle" x="1159" y="-172" font-family="Helvetica,sans-Serif" font-size="10.00">set</text>
</a>
</g>
</g>
<!-- Node9&#45;&gt;Node22 -->
<g id="edge22" class="edge">
<title>Node9&#45;&gt;Node22</title>
<path fill="none" stroke="#63b8ff" d="M1253.66,-219.51C1235.03,-210.85 1206.68,-197.67 1185.86,-187.99"/>
<polygon fill="#63b8ff" stroke="#63b8ff" points="1187.38,-184.84 1176.84,-183.79 1184.43,-191.18 1187.38,-184.84"/>
</g>
<!-- Node23&#45;&gt;Node9 -->
<g id="edge45" class="edge">
<title>Node23&#45;&gt;Node9</title>
<path fill="none" stroke="#63b8ff" d="M2225.05,-282.04C2091.91,-274.83 1503.63,-242.99 1324.77,-233.3"/>
<polygon fill="#63b8ff" stroke="#63b8ff" points="1325.03,-229.81 1314.85,-232.77 1324.65,-236.8 1325.03,-229.81"/>
</g>
<!-- Node23&#45;&gt;Node10 -->
<g id="edge44" class="edge">
<title>Node23&#45;&gt;Node10</title>
<path fill="none" stroke="#63b8ff" d="M2278.68,-283.66C2386.8,-283.66 2790.07,-277.35 2864,-184 2884.42,-158.21 2887.51,-133.98 2865,-110 2842.27,-85.78 2350.95,-70.58 2204.1,-66.57"/>
<polygon fill="#63b8ff" stroke="#63b8ff" points="2204.54,-63.08 2194.45,-66.31 2204.36,-70.08 2204.54,-63.08"/>
</g>
<!-- Node23&#45;&gt;Node13 -->
<g id="edge46" class="edge">
<title>Node23&#45;&gt;Node13</title>
<path fill="none" stroke="#63b8ff" d="M2225.26,-277.77C2145.44,-260.67 1907.85,-209.75 1801.04,-186.87"/>
<polygon fill="#63b8ff" stroke="#63b8ff" points="1801.89,-183.47 1791.38,-184.8 1800.43,-190.31 1801.89,-183.47"/>
</g>
<!-- Node23&#45;&gt;Node19 -->
<g id="edge48" class="edge">
<title>Node23&#45;&gt;Node19</title>
<path fill="none" stroke="#63b8ff" d="M2225.02,-276.75C2194.36,-268.81 2143,-254.72 2100,-239 2080.38,-231.83 2076.62,-227.17 2057,-220 2022.19,-207.28 1981.9,-195.62 1951.55,-187.43"/>
<polygon fill="#63b8ff" stroke="#63b8ff" points="1952.47,-184.05 1941.9,-184.85 1950.66,-190.81 1952.47,-184.05"/>
</g>
<!-- Node24 -->
<g id="node24" class="node">
<title>Node24</title>
<g id="a_node24"><a xlink:href="AnimationMachine_8h.html" target="_top" xlink:title=" ">
<polygon fill="white" stroke="#666666" points="2638.5,-239 2521.5,-239 2521.5,-220 2638.5,-220 2638.5,-239"/>
<text text-anchor="middle" x="2580" y="-227" font-family="Helvetica,sans-Serif" font-size="10.00">AnimationMachine.h</text>
</a>
</g>
</g>
<!-- Node23&#45;&gt;Node24 -->
<g id="edge26" class="edge">
<title>Node23&#45;&gt;Node24</title>
<path fill="none" stroke="#63b8ff" d="M2278.84,-279.16C2329.6,-270.96 2441.02,-252.96 2513.18,-241.3"/>
<polygon fill="#63b8ff" stroke="#63b8ff" points="2513.6,-244.77 2522.91,-239.72 2512.48,-237.86 2513.6,-244.77"/>
</g>
<!-- Node27 -->
<g id="node27" class="node">
<title>Node27</title>
<g id="a_node27"><a xlink:title=" ">
<polygon fill="#e0e0e0" stroke="#999999" points="2360.5,-184 2229.5,-184 2229.5,-165 2360.5,-165 2360.5,-184"/>
<text text-anchor="middle" x="2295" y="-172" font-family="Helvetica,sans-Serif" font-size="10.00">SFML/System/Time.hpp</text>
</a>
</g>
</g>
<!-- Node23&#45;&gt;Node27 -->
<g id="edge47" class="edge">
<title>Node23&#45;&gt;Node27</title>
<path fill="none" stroke="#63b8ff" d="M2255.52,-274.66C2262.42,-257.34 2277.86,-218.55 2287.26,-194.95"/>
<polygon fill="#63b8ff" stroke="#63b8ff" points="2290.43,-196.45 2290.87,-185.87 2283.92,-193.86 2290.43,-196.45"/>
</g>
<!-- Node24&#45;&gt;Node2 -->
<g id="edge32" class="edge">
<title>Node24&#45;&gt;Node2</title>
<path fill="none" stroke="#63b8ff" d="M2638.69,-227.84C2713.13,-225.63 2835.31,-216.92 2864,-184 2885.61,-159.2 2887.28,-134.2 2865,-110 2769.78,-6.57 510.74,-9.36 173.86,-10.35"/>
<polygon fill="#63b8ff" stroke="#63b8ff" points="173.98,-6.85 163.99,-10.38 174,-13.85 173.98,-6.85"/>
</g>
<!-- Node24&#45;&gt;Node10 -->
<g id="edge37" class="edge">
<title>Node24&#45;&gt;Node10</title>
<path fill="none" stroke="#63b8ff" d="M2638.81,-227.15C2708.69,-224.16 2819.12,-214.58 2845,-184 2866.24,-158.89 2867.49,-134 2845,-110 2801.15,-63.2 2344.95,-63.71 2204.15,-65"/>
<polygon fill="#63b8ff" stroke="#63b8ff" points="2204.14,-61.5 2194.17,-65.1 2204.21,-68.5 2204.14,-61.5"/>
</g>
<!-- Node24&#45;&gt;Node11 -->
<g id="edge27" class="edge">
<title>Node24&#45;&gt;Node11</title>
<path fill="none" stroke="#63b8ff" d="M2579.16,-219.89C2577.31,-205.93 2571.53,-178.55 2554,-165 2408.5,-52.6 2327.28,-124.48 2144,-110 1790.9,-82.11 665.66,-69.06 379.63,-66.14"/>
<polygon fill="#63b8ff" stroke="#63b8ff" points="379.77,-62.65 369.74,-66.04 379.7,-69.65 379.77,-62.65"/>
</g>
<!-- Node25 -->
<g id="node25" class="node">
<title>Node25</title>
<g id="a_node25"><a xlink:title=" ">
<polygon fill="#e0e0e0" stroke="#999999" points="2519.5,-184 2378.5,-184 2378.5,-165 2519.5,-165 2519.5,-184"/>
<text text-anchor="middle" x="2449" y="-172" font-family="Helvetica,sans-Serif" font-size="10.00">SFML/Graphics/Sprite.hpp</text>
</a>
</g>
</g>
<!-- Node24&#45;&gt;Node25 -->
<g id="edge28" class="edge">
<title>Node24&#45;&gt;Node25</title>
<path fill="none" stroke="#63b8ff" d="M2557.78,-219.51C2536.86,-211.04 2505.27,-198.27 2481.52,-188.66"/>
<polygon fill="#63b8ff" stroke="#63b8ff" points="2482.88,-185.43 2472.3,-184.93 2480.25,-191.92 2482.88,-185.43"/>
</g>
<!-- Node26 -->
<g id="node26" class="node">
<title>Node26</title>
<g id="a_node26"><a xlink:title=" ">
<polygon fill="#e0e0e0" stroke="#999999" points="2835.5,-129 2686.5,-129 2686.5,-110 2835.5,-110 2835.5,-129"/>
<text text-anchor="middle" x="2761" y="-117" font-family="Helvetica,sans-Serif" font-size="10.00">SFML/Graphics/Texture.hpp</text>
</a>
</g>
</g>
<!-- Node24&#45;&gt;Node26 -->
<g id="edge29" class="edge">
<title>Node24&#45;&gt;Node26</title>
<path fill="none" stroke="#63b8ff" d="M2633.52,-219.57C2660.52,-213.08 2692.62,-202.13 2717,-184 2732.63,-172.38 2744.68,-153.52 2752.19,-139.36"/>
<polygon fill="#63b8ff" stroke="#63b8ff" points="2755.22,-141.12 2756.54,-130.6 2748.96,-138 2755.22,-141.12"/>
</g>
<!-- Node24&#45;&gt;Node27 -->
<g id="edge30" class="edge">
<title>Node24&#45;&gt;Node27</title>
<path fill="none" stroke="#63b8ff" d="M2531.65,-219.51C2482.68,-210.4 2406.85,-196.3 2354.28,-186.52"/>
<polygon fill="#63b8ff" stroke="#63b8ff" points="2355.07,-183.11 2344.6,-184.72 2353.79,-189.99 2355.07,-183.11"/>
</g>
<!-- Node28 -->
<g id="node28" class="node">
<title>Node28</title>
<g id="a_node28"><a xlink:title=" ">
<polygon fill="#e0e0e0" stroke="#999999" points="2836,-184 2764,-184 2764,-165 2836,-165 2836,-184"/>
<text text-anchor="middle" x="2800" y="-172" font-family="Helvetica,sans-Serif" font-size="10.00">sys/types.h</text>
</a>
</g>
</g>
<!-- Node24&#45;&gt;Node28 -->
<g id="edge31" class="edge">
<title>Node24&#45;&gt;Node28</title>
<path fill="none" stroke="#63b8ff" d="M2617.32,-219.51C2654.63,-210.52 2712.15,-196.66 2752.65,-186.91"/>
<polygon fill="#63b8ff" stroke="#63b8ff" points="2753.22,-190.37 2762.12,-184.62 2751.58,-183.56 2753.22,-190.37"/>
</g>
<!-- Node29 -->
<g id="node29" class="node">
<title>Node29</title>
<g id="a_node29"><a xlink:href="Consts_8h.html" target="_top" xlink:title=" ">
<polygon fill="white" stroke="#666666" points="371.5,-129 312.5,-129 312.5,-110 371.5,-110 371.5,-129"/>
<text text-anchor="middle" x="342" y="-117" font-family="Helvetica,sans-Serif" font-size="10.00">Consts.h</text>
</a>
</g>
</g>
<!-- Node24&#45;&gt;Node29 -->
<g id="edge33" class="edge">
<title>Node24&#45;&gt;Node29</title>
<path fill="none" stroke="#63b8ff" d="M2576.17,-219.92C2569.18,-205.48 2552.85,-176.74 2529,-165 2429.06,-115.83 675.31,-119.41 383.11,-120.35"/>
<polygon fill="#63b8ff" stroke="#63b8ff" points="383.31,-116.85 373.33,-120.38 383.34,-123.85 383.31,-116.85"/>
</g>
<!-- Node30 -->
<g id="node30" class="node">
<title>Node30</title>
<g id="a_node30"><a xlink:href="TextureHolder_8h.html" target="_top" xlink:title=" ">
<polygon fill="white" stroke="#666666" points="2707.5,-184 2614.5,-184 2614.5,-165 2707.5,-165 2707.5,-184"/>
<text text-anchor="middle" x="2661" y="-172" font-family="Helvetica,sans-Serif" font-size="10.00">TextureHolder.h</text>
</a>
</g>
</g>
<!-- Node24&#45;&gt;Node30 -->
<g id="edge38" class="edge">
<title>Node24&#45;&gt;Node30</title>
<path fill="none" stroke="#63b8ff" d="M2593.74,-219.51C2605.8,-211.62 2623.59,-199.98 2637.84,-190.65"/>
<polygon fill="#63b8ff" stroke="#63b8ff" points="2639.74,-193.59 2646.2,-185.19 2635.91,-187.73 2639.74,-193.59"/>
</g>
<!-- Node29&#45;&gt;Node6 -->
<g id="edge36" class="edge">
<title>Node29&#45;&gt;Node6</title>
<path fill="none" stroke="#63b8ff" d="M312.09,-113.37C257.48,-104 141.38,-84.09 77.47,-73.13"/>
<polygon fill="#63b8ff" stroke="#63b8ff" points="78.12,-69.69 67.67,-71.45 76.93,-76.59 78.12,-69.69"/>
</g>
<!-- Node29&#45;&gt;Node10 -->
<g id="edge35" class="edge">
<title>Node29&#45;&gt;Node10</title>
<path fill="none" stroke="#63b8ff" d="M371.71,-117.64C584.41,-111.44 1874.11,-73.91 2121.86,-66.7"/>
<polygon fill="#63b8ff" stroke="#63b8ff" points="2121.77,-70.2 2131.67,-66.41 2121.57,-63.2 2121.77,-70.2"/>
</g>
<!-- Node29&#45;&gt;Node11 -->
<g id="edge34" class="edge">
<title>Node29&#45;&gt;Node11</title>
<path fill="none" stroke="#63b8ff" d="M337.21,-109.75C333.46,-102.88 328.09,-93.08 323.37,-84.45"/>
<polygon fill="#63b8ff" stroke="#63b8ff" points="326.49,-82.86 318.62,-75.77 320.35,-86.22 326.49,-82.86"/>
</g>
<!-- Node30&#45;&gt;Node10 -->
<g id="edge42" class="edge">
<title>Node30&#45;&gt;Node10</title>
<path fill="none" stroke="#63b8ff" d="M2660.79,-164.86C2659.95,-150.85 2656.07,-123.4 2639,-110 2605.13,-83.43 2313.52,-70.7 2204.18,-66.83"/>
<polygon fill="#63b8ff" stroke="#63b8ff" points="2204.3,-63.33 2194.18,-66.48 2204.06,-70.32 2204.3,-63.33"/>
</g>
<!-- Node30&#45;&gt;Node20 -->
<g id="edge39" class="edge">
<title>Node30&#45;&gt;Node20</title>
<path fill="none" stroke="#63b8ff" d="M2614.16,-169.03C2507.32,-158.82 2247.12,-133.98 2146.58,-124.38"/>
<polygon fill="#63b8ff" stroke="#63b8ff" points="2147.2,-120.92 2136.92,-123.45 2146.54,-127.89 2147.2,-120.92"/>
</g>
<!-- Node30&#45;&gt;Node26 -->
<g id="edge41" class="edge">
<title>Node30&#45;&gt;Node26</title>
<path fill="none" stroke="#63b8ff" d="M2677.96,-164.51C2693.36,-156.35 2716.31,-144.19 2734.19,-134.71"/>
<polygon fill="#63b8ff" stroke="#63b8ff" points="2735.75,-137.84 2742.95,-130.07 2732.47,-131.66 2735.75,-137.84"/>
</g>
<!-- Node30&#45;&gt;Node29 -->
<g id="edge43" class="edge">
<title>Node30&#45;&gt;Node29</title>
<path fill="none" stroke="#63b8ff" d="M2614.21,-168.85C2597.72,-167.38 2579.05,-165.9 2562,-165 1682.67,-118.49 605.09,-119.55 383.12,-120.32"/>
<polygon fill="#63b8ff" stroke="#63b8ff" points="383.25,-116.82 373.26,-120.35 383.27,-123.82 383.25,-116.82"/>
</g>
<!-- Node31 -->
<g id="node31" class="node">
<title>Node31</title>
<g id="a_node31"><a xlink:title=" ">
<polygon fill="#e0e0e0" stroke="#999999" points="2630,-129 2592,-129 2592,-110 2630,-110 2630,-129"/>
<text text-anchor="middle" x="2611" y="-117" font-family="Helvetica,sans-Serif" font-size="10.00">map</text>
</a>
</g>
</g>
<!-- Node30&#45;&gt;Node31 -->
<g id="edge40" class="edge">
<title>Node30&#45;&gt;Node31</title>
<path fill="none" stroke="#63b8ff" d="M2652.74,-164.75C2645.84,-157.43 2635.78,-146.76 2627.26,-137.74"/>
<polygon fill="#63b8ff" stroke="#63b8ff" points="2629.88,-135.42 2620.47,-130.54 2624.79,-140.22 2629.88,-135.42"/>
</g>
<!-- Node32&#45;&gt;Node23 -->
<g id="edge50" class="edge">
<title>Node32&#45;&gt;Node23</title>
<path fill="none" stroke="#63b8ff" d="M2167.83,-494.81C2189.35,-472.87 2243.77,-412.41 2258,-349 2261.24,-334.58 2259.47,-317.93 2257.03,-305.3"/>
<polygon fill="#63b8ff" stroke="#63b8ff" points="2260.48,-304.7 2254.87,-295.71 2253.66,-306.24 2260.48,-304.7"/>
</g>
<!-- Node32&#45;&gt;Node33 -->
<g id="edge51" class="edge">
<title>Node32&#45;&gt;Node33</title>
<path fill="none" stroke="#63b8ff" d="M2185.97,-494.51C2212.45,-485.68 2252.99,-472.17 2282.17,-462.44"/>
<polygon fill="#63b8ff" stroke="#63b8ff" points="2282.92,-465.88 2291.3,-459.4 2280.71,-459.24 2282.92,-465.88"/>
</g>
<!-- Node34 -->
<g id="node34" class="node">
<title>Node34</title>
<g id="a_node34"><a xlink:href="Obstacle_8h.html" target="_top" xlink:title=" ">
<polygon fill="white" stroke="#666666" points="2128,-459 2060,-459 2060,-440 2128,-440 2128,-459"/>
<text text-anchor="middle" x="2094" y="-447" font-family="Helvetica,sans-Serif" font-size="10.00">Obstacle.h</text>
</a>
</g>
</g>
<!-- Node32&#45;&gt;Node34 -->
<g id="edge53" class="edge">
<title>Node32&#45;&gt;Node34</title>
<path fill="none" stroke="#63b8ff" d="M2147.97,-494.51C2138.58,-486.85 2124.85,-475.66 2113.59,-466.47"/>
<polygon fill="#63b8ff" stroke="#63b8ff" points="2116,-463.92 2106.04,-460.31 2111.57,-469.35 2116,-463.92"/>
</g>
<!-- Node35 -->
<g id="node35" class="node">
<title>Node35</title>
<g id="a_node35"><a xlink:href="PlayerState_8h.html" target="_top" xlink:title=" ">
<polygon fill="white" stroke="#666666" points="249,-404 167,-404 167,-385 249,-385 249,-404"/>
<text text-anchor="middle" x="208" y="-392" font-family="Helvetica,sans-Serif" font-size="10.00">PlayerState.h</text>
</a>
</g>
</g>
<!-- Node32&#45;&gt;Node35 -->
<g id="edge83" class="edge">
<title>Node32&#45;&gt;Node35</title>
<path fill="none" stroke="#63b8ff" d="M2117.18,-502.87C1913.33,-499.46 1003.59,-480.46 263,-404 262.17,-403.91 261.34,-403.82 260.49,-403.73"/>
<polygon fill="#63b8ff" stroke="#63b8ff" points="261.24,-400.3 250.89,-402.54 260.38,-407.24 261.24,-400.3"/>
</g>
<!-- Node33&#45;&gt;Node23 -->
<g id="edge52" class="edge">
<title>Node33&#45;&gt;Node23</title>
<path fill="none" stroke="#63b8ff" d="M2316.96,-439.74C2314.28,-419.5 2306.02,-368.28 2287,-330 2282.15,-320.24 2274.93,-310.58 2268.31,-302.77"/>
<polygon fill="#63b8ff" stroke="#63b8ff" points="2271.01,-300.54 2261.73,-295.41 2265.78,-305.2 2271.01,-300.54"/>
</g>
<!-- Node34&#45;&gt;Node9 -->
<g id="edge56" class="edge">
<title>Node34&#45;&gt;Node9</title>
<path fill="none" stroke="#63b8ff" d="M2059.72,-443.97C2005.05,-436.59 1894.8,-421.06 1802,-404 1573.94,-362.07 1462.26,-451.42 1292,-294 1280.1,-282.99 1275.54,-264.87 1273.85,-250.8"/>
<polygon fill="#63b8ff" stroke="#63b8ff" points="1277.34,-250.55 1273.09,-240.84 1270.36,-251.08 1277.34,-250.55"/>
</g>
<!-- Node34&#45;&gt;Node10 -->
<g id="edge55" class="edge">
<title>Node34&#45;&gt;Node10</title>
<path fill="none" stroke="#63b8ff" d="M2098.92,-439.68C2114.29,-411.53 2161.38,-320.85 2177,-239 2187.5,-183.97 2175.45,-117.65 2168,-85.26"/>
<polygon fill="#63b8ff" stroke="#63b8ff" points="2171.45,-84.62 2165.7,-75.73 2164.65,-86.27 2171.45,-84.62"/>
</g>
<!-- Node34&#45;&gt;Node13 -->
<g id="edge81" class="edge">
<title>Node34&#45;&gt;Node13</title>
<path fill="none" stroke="#63b8ff" d="M2059.75,-441.54C2031.56,-434.8 1991.31,-422.82 1960,-404 1868.93,-349.26 1853.8,-321.62 1787,-239 1775.56,-224.85 1764.92,-207.09 1757.65,-193.95"/>
<polygon fill="#63b8ff" stroke="#63b8ff" points="1760.94,-192.66 1753.12,-185.51 1754.77,-195.98 1760.94,-192.66"/>
</g>
<!-- Node34&#45;&gt;Node23 -->
<g id="edge57" class="edge">
<title>Node34&#45;&gt;Node23</title>
<path fill="none" stroke="#63b8ff" d="M2128.27,-443.47C2154.2,-437.97 2188.98,-426.7 2211,-404 2237.45,-376.73 2246.89,-331.57 2250.22,-305.59"/>
<polygon fill="#63b8ff" stroke="#63b8ff" points="2253.69,-306.06 2251.28,-295.74 2246.73,-305.31 2253.69,-306.06"/>
</g>
<!-- Node34&#45;&gt;Node25 -->
<g id="edge82" class="edge">
<title>Node34&#45;&gt;Node25</title>
<path fill="none" stroke="#63b8ff" d="M2120.07,-439.53C2137.3,-432.38 2159.18,-420.76 2173,-404 2211.46,-357.38 2175.05,-319.45 2216,-275 2261.26,-225.88 2334.81,-200.02 2387.16,-187.11"/>
<polygon fill="#63b8ff" stroke="#63b8ff" points="2387.93,-190.53 2396.85,-184.82 2386.32,-183.72 2387.93,-190.53"/>
</g>
<!-- Node34&#45;&gt;Node29 -->
<g id="edge54" class="edge">
<title>Node34&#45;&gt;Node29</title>
<path fill="none" stroke="#63b8ff" d="M2059.62,-447.54C1963.73,-444.55 1685.3,-433.77 1456,-404 938.65,-336.84 635.53,-585.98 303,-184 290.66,-169.08 306.07,-149.91 321.01,-136.55"/>
<polygon fill="#63b8ff" stroke="#63b8ff" points="322.94,-139.5 328.37,-130.41 318.45,-134.13 322.94,-139.5"/>
</g>
<!-- Node34&#45;&gt;Node30 -->
<g id="edge58" class="edge">
<title>Node34&#45;&gt;Node30</title>
<path fill="none" stroke="#63b8ff" d="M2128.13,-445.71C2251.48,-435.2 2667,-395.67 2667,-340.5 2667,-340.5 2667,-340.5 2667,-283.5 2667,-252.88 2664.57,-217.44 2662.8,-195.75"/>
<polygon fill="#63b8ff" stroke="#63b8ff" points="2666.3,-195.63 2661.96,-185.96 2659.32,-196.22 2666.3,-195.63"/>
</g>
<!-- Node34&#45;&gt;Node35 -->
<g id="edge59" class="edge">
<title>Node34&#45;&gt;Node35</title>
<path fill="none" stroke="#63b8ff" d="M2059.85,-448.27C1840.87,-446.72 631.19,-436.79 263,-404 262.17,-403.93 261.33,-403.85 260.49,-403.76"/>
<polygon fill="#63b8ff" stroke="#63b8ff" points="261.21,-400.32 250.88,-402.65 260.41,-407.28 261.21,-400.32"/>
</g>
<!-- Node41 -->
<g id="node41" class="node">
<title>Node41</title>
<g id="a_node41"><a xlink:href="PlayerCollidable_8h.html" target="_top" xlink:title=" ">
<polygon fill="white" stroke="#666666" points="2074.5,-404 1969.5,-404 1969.5,-385 2074.5,-385 2074.5,-404"/>
<text text-anchor="middle" x="2022" y="-392" font-family="Helvetica,sans-Serif" font-size="10.00">PlayerCollidable.h</text>
</a>
</g>
</g>
<!-- Node34&#45;&gt;Node41 -->
<g id="edge79" class="edge">
<title>Node34&#45;&gt;Node41</title>
<path fill="none" stroke="#63b8ff" d="M2081.79,-439.51C2071.17,-431.7 2055.56,-420.21 2042.96,-410.93"/>
<polygon fill="#63b8ff" stroke="#63b8ff" points="2045.38,-408.36 2035.25,-405.26 2041.23,-414 2045.38,-408.36"/>
</g>
<!-- Node35&#45;&gt;Node2 -->
<g id="edge78" class="edge">
<title>Node35&#45;&gt;Node2</title>
<path fill="none" stroke="#63b8ff" d="M186.02,-384.58C152.89,-369.51 94,-335.66 94,-285.5 94,-285.5 94,-285.5 94,-118.5 94,-85.65 109.84,-50.19 121.07,-29.19"/>
<polygon fill="#63b8ff" stroke="#63b8ff" points="124,-31.13 125.82,-20.69 117.88,-27.72 124,-31.13"/>
</g>
<!-- Node35&#45;&gt;Node11 -->
<g id="edge75" class="edge">
<title>Node35&#45;&gt;Node11</title>
<path fill="none" stroke="#63b8ff" d="M202.56,-384.63C192.05,-366.63 170,-324.26 170,-285.5 170,-285.5 170,-285.5 170,-173.5 170,-123.09 227.28,-93.23 269.33,-78.1"/>
<polygon fill="#63b8ff" stroke="#63b8ff" points="270.43,-81.42 278.76,-74.88 268.17,-74.8 270.43,-81.42"/>
</g>
<!-- Node35&#45;&gt;Node13 -->
<g id="edge76" class="edge">
<title>Node35&#45;&gt;Node13</title>
<path fill="none" stroke="#63b8ff" d="M249.46,-393.04C399.95,-390.71 930.93,-376.75 1359,-294 1493.33,-268.03 1647.19,-213.47 1714.05,-188.49"/>
<polygon fill="#63b8ff" stroke="#63b8ff" points="1715.21,-191.79 1723.34,-185 1712.75,-185.24 1715.21,-191.79"/>
</g>
<!-- Node35&#45;&gt;Node19 -->
<g id="edge77" class="edge">
<title>Node35&#45;&gt;Node19</title>
<path fill="none" stroke="#63b8ff" d="M249.34,-393.02C374.52,-391.22 760.33,-383.09 1078,-349 1228.02,-332.9 1265.11,-323.91 1413,-294 1579.27,-260.37 1774.61,-210.06 1860.58,-187.36"/>
<polygon fill="#63b8ff" stroke="#63b8ff" points="1861.25,-190.81 1870.02,-184.86 1859.46,-184.04 1861.25,-190.81"/>
</g>
<!-- Node35&#45;&gt;Node29 -->
<g id="edge60" class="edge">
<title>Node35&#45;&gt;Node29</title>
<path fill="none" stroke="#63b8ff" d="M208,-384.54C208,-366.03 208,-322.25 208,-285.5 208,-285.5 208,-285.5 208,-228.5 208,-198.33 210.91,-186.58 232,-165 250.56,-146.01 278.32,-134.86 301.31,-128.47"/>
<polygon fill="#63b8ff" stroke="#63b8ff" points="301.86,-131.94 310.68,-126.08 300.13,-125.16 301.86,-131.94"/>
</g>
<!-- Node36 -->
<g id="node36" class="node">
<title>Node36</title>
<g id="a_node36"><a xlink:href="Player_8h.html" target="_top" xlink:title=" ">
<polygon fill="white" stroke="#666666" points="1995,-349 1939,-349 1939,-330 1995,-330 1995,-349"/>
<text text-anchor="middle" x="1967" y="-337" font-family="Helvetica,sans-Serif" font-size="10.00">Player.h</text>
</a>
</g>
</g>
<!-- Node35&#45;&gt;Node36 -->
<g id="edge61" class="edge">
<title>Node35&#45;&gt;Node36</title>
<path fill="none" stroke="#63b8ff" d="M249.31,-392.65C431.17,-388.84 1178.61,-372.51 1792,-349 1838.42,-347.22 1891.75,-344.54 1927.21,-342.66"/>
<polygon fill="#63b8ff" stroke="#63b8ff" points="1927.2,-346.17 1937,-342.14 1926.83,-339.18 1927.2,-346.17"/>
</g>
<!-- Node36&#45;&gt;Node9 -->
<g id="edge65" class="edge">
<title>Node36&#45;&gt;Node9</title>
<path fill="none" stroke="#63b8ff" d="M1938.5,-334.06C1832.69,-317.6 1461.46,-259.83 1324.37,-238.49"/>
<polygon fill="#63b8ff" stroke="#63b8ff" points="1325.29,-235.1 1314.87,-237.02 1324.21,-242.01 1325.29,-235.1"/>
</g>
<!-- Node36&#45;&gt;Node10 -->
<g id="edge64" class="edge">
<title>Node36&#45;&gt;Node10</title>
<path fill="none" stroke="#63b8ff" d="M1972.44,-329.63C1982.95,-311.63 2005,-269.26 2005,-230.5 2005,-230.5 2005,-230.5 2005,-173.5 2005,-116.71 2075.42,-87.61 2122.24,-74.54"/>
<polygon fill="#63b8ff" stroke="#63b8ff" points="2123.04,-77.95 2131.82,-72.02 2121.26,-71.18 2123.04,-77.95"/>
</g>
<!-- Node36&#45;&gt;Node13 -->
<g id="edge73" class="edge">
<title>Node36&#45;&gt;Node13</title>
<path fill="none" stroke="#63b8ff" d="M1944.31,-329.6C1925.26,-321.63 1897.76,-308.91 1876,-294 1831.26,-263.33 1786.46,-217.57 1763.59,-192.85"/>
<polygon fill="#63b8ff" stroke="#63b8ff" points="1766.3,-190.62 1756.97,-185.59 1761.13,-195.34 1766.3,-190.62"/>
</g>
<!-- Node36&#45;&gt;Node19 -->
<g id="edge74" class="edge">
<title>Node36&#45;&gt;Node19</title>
<path fill="none" stroke="#63b8ff" d="M1964.54,-329.79C1960.99,-317.47 1954.1,-294.31 1947,-275 1936.61,-246.74 1922.73,-214.78 1913.83,-194.89"/>
<polygon fill="#63b8ff" stroke="#63b8ff" points="1917.04,-193.49 1909.73,-185.82 1910.66,-196.37 1917.04,-193.49"/>
</g>
<!-- Node36&#45;&gt;Node23 -->
<g id="edge63" class="edge">
<title>Node36&#45;&gt;Node23</title>
<path fill="none" stroke="#63b8ff" d="M1995.37,-333.22C2047,-323.62 2156.33,-303.29 2214.22,-292.53"/>
<polygon fill="#63b8ff" stroke="#63b8ff" points="2214.73,-295.99 2223.92,-290.72 2213.45,-289.11 2214.73,-295.99"/>
</g>
<!-- Node37 -->
<g id="node37" class="node">
<title>Node37</title>
<g id="a_node37"><a xlink:href="Effect_8h.html" target="_top" xlink:title=" ">
<polygon fill="white" stroke="#666666" points="1938.5,-294 1885.5,-294 1885.5,-275 1938.5,-275 1938.5,-294"/>
<text text-anchor="middle" x="1912" y="-282" font-family="Helvetica,sans-Serif" font-size="10.00">Effect.h</text>
</a>
</g>
</g>
<!-- Node36&#45;&gt;Node37 -->
<g id="edge62" class="edge">
<title>Node36&#45;&gt;Node37</title>
<path fill="none" stroke="#63b8ff" d="M1957.92,-329.75C1950.16,-322.27 1938.79,-311.32 1929.3,-302.17"/>
<polygon fill="#63b8ff" stroke="#63b8ff" points="1932,-299.91 1922.37,-295.49 1927.14,-304.95 1932,-299.91"/>
</g>
<!-- Node38 -->
<g id="node38" class="node">
<title>Node38</title>
<g id="a_node38"><a xlink:href="Effects_8h.html" target="_top" xlink:title=" ">
<polygon fill="white" stroke="#666666" points="2168.5,-239 2109.5,-239 2109.5,-220 2168.5,-220 2168.5,-239"/>
<text text-anchor="middle" x="2139" y="-227" font-family="Helvetica,sans-Serif" font-size="10.00">Effects.h</text>
</a>
</g>
</g>
<!-- Node36&#45;&gt;Node38 -->
<g id="edge66" class="edge">
<title>Node36&#45;&gt;Node38</title>
<path fill="none" stroke="#63b8ff" d="M1981.08,-329.66C2010.56,-311.15 2079.06,-268.13 2115.4,-245.32"/>
<polygon fill="#63b8ff" stroke="#63b8ff" points="2116.84,-248.55 2123.45,-240.27 2113.12,-242.62 2116.84,-248.55"/>
</g>
<!-- Node38&#45;&gt;Node10 -->
<g id="edge68" class="edge">
<title>Node38&#45;&gt;Node10</title>
<path fill="none" stroke="#63b8ff" d="M2140.29,-219.74C2144,-194.53 2154.77,-121.36 2160.04,-85.62"/>
<polygon fill="#63b8ff" stroke="#63b8ff" points="2163.49,-86.21 2161.48,-75.8 2156.56,-85.19 2163.49,-86.21"/>
</g>
<!-- Node38&#45;&gt;Node19 -->
<g id="edge71" class="edge">
<title>Node38&#45;&gt;Node19</title>
<path fill="none" stroke="#63b8ff" d="M2109.36,-221.79C2070.74,-213.04 2002.59,-197.6 1955.68,-186.98"/>
<polygon fill="#63b8ff" stroke="#63b8ff" points="1956.54,-183.59 1946.01,-184.79 1954.99,-190.41 1956.54,-183.59"/>
</g>
<!-- Node38&#45;&gt;Node20 -->
<g id="edge70" class="edge">
<title>Node38&#45;&gt;Node20</title>
<path fill="none" stroke="#63b8ff" d="M2136.3,-219.66C2131.03,-202.42 2119.26,-163.9 2112.04,-140.27"/>
<polygon fill="#63b8ff" stroke="#63b8ff" points="2115.45,-139.45 2109.18,-130.91 2108.76,-141.49 2115.45,-139.45"/>
</g>
<!-- Node38&#45;&gt;Node27 -->
<g id="edge72" class="edge">
<title>Node38&#45;&gt;Node27</title>
<path fill="none" stroke="#63b8ff" d="M2165.46,-219.51C2190.86,-210.88 2229.47,-197.76 2257.92,-188.1"/>
<polygon fill="#63b8ff" stroke="#63b8ff" points="2258.89,-191.46 2267.23,-184.93 2256.64,-184.84 2258.89,-191.46"/>
</g>
<!-- Node39 -->
<g id="node39" class="node">
<title>Node39</title>
<g id="a_node39"><a xlink:title=" ">
<polygon fill="#e0e0e0" stroke="#999999" points="2097,-184 2033,-184 2033,-165 2097,-165 2097,-184"/>
<text text-anchor="middle" x="2065" y="-172" font-family="Helvetica,sans-Serif" font-size="10.00">algorithm</text>
</a>
</g>
</g>
<!-- Node38&#45;&gt;Node39 -->
<g id="edge67" class="edge">
<title>Node38&#45;&gt;Node39</title>
<path fill="none" stroke="#63b8ff" d="M2126.45,-219.51C2115.54,-211.7 2099.5,-200.21 2086.54,-190.93"/>
<polygon fill="#63b8ff" stroke="#63b8ff" points="2088.77,-188.22 2078.6,-185.24 2084.69,-193.91 2088.77,-188.22"/>
</g>
<!-- Node38&#45;&gt;Node40 -->
<g id="edge69" class="edge">
<title>Node38&#45;&gt;Node40</title>
<path fill="none" stroke="#63b8ff" d="M2168.92,-226.66C2297.59,-218.75 2804.22,-187.6 2957.1,-178.2"/>
<polygon fill="#63b8ff" stroke="#63b8ff" points="2957.03,-181.71 2966.8,-177.6 2956.6,-174.72 2957.03,-181.71"/>
</g>
<!-- Node41&#45;&gt;Node36 -->
<g id="edge80" class="edge">
<title>Node41&#45;&gt;Node36</title>
<path fill="none" stroke="#63b8ff" d="M2012.92,-384.75C2005.16,-377.27 1993.79,-366.32 1984.3,-357.17"/>
<polygon fill="#63b8ff" stroke="#63b8ff" points="1987,-354.91 1977.37,-350.49 1982.14,-359.95 1987,-354.91"/>
</g>
</g>
</svg>
