<?xml version="1.0" encoding="UTF-8" standalone="no"?>
<!DOCTYPE svg PUBLIC "-//W3C//DTD SVG 1.1//EN"
 "http://www.w3.org/Graphics/SVG/1.1/DTD/svg11.dtd">
<!-- Generated by graphviz version 7.0.5 (0)
 -->
<!-- Title: src/VehicleLaneController.h Pages: 1 -->
<svg width="2933pt" height="687pt"
 viewBox="0.00 0.00 2933.20 687.00" xmlns="http://www.w3.org/2000/svg" xmlns:xlink="http://www.w3.org/1999/xlink">
<g id="graph0" class="graph" transform="scale(1 1) rotate(0) translate(4 683)">
<title>src/VehicleLaneController.h</title>
<!-- Node1 -->
<g id="node1" class="node">
<title>Node1</title>
<g id="a_node1"><a xlink:title=" ">
<polygon fill="#999999" stroke="#666666" points="297.7,-679 148.7,-679 148.7,-660 297.7,-660 297.7,-679"/>
<text text-anchor="middle" x="223.2" y="-667" font-family="Helvetica,sans-Serif" font-size="10.00">src/VehicleLaneController.h</text>
</a>
</g>
</g>
<!-- Node2 -->
<g id="node2" class="node">
<title>Node2</title>
<g id="a_node2"><a xlink:href="RoadLaneController_8h.html" target="_top" xlink:title=" ">
<polygon fill="white" stroke="#666666" points="373.7,-624 252.7,-624 252.7,-605 373.7,-605 373.7,-624"/>
<text text-anchor="middle" x="313.2" y="-612" font-family="Helvetica,sans-Serif" font-size="10.00">RoadLaneController.h</text>
</a>
</g>
</g>
<!-- Node1&#45;&gt;Node2 -->
<g id="edge1" class="edge">
<title>Node1&#45;&gt;Node2</title>
<path fill="none" stroke="#63b8ff" d="M238.47,-659.51C252.13,-651.47 272.4,-639.53 288.38,-630.11"/>
<polygon fill="#63b8ff" stroke="#63b8ff" points="290.01,-633.22 296.85,-625.13 286.46,-627.18 290.01,-633.22"/>
</g>
<!-- Node32 -->
<g id="node32" class="node">
<title>Node32</title>
<g id="a_node32"><a xlink:href="Light_8h.html" target="_top" xlink:title=" ">
<polygon fill="white" stroke="#666666" points="285.2,-459 235.2,-459 235.2,-440 285.2,-440 285.2,-459"/>
<text text-anchor="middle" x="260.2" y="-447" font-family="Helvetica,sans-Serif" font-size="10.00">Light.h</text>
</a>
</g>
</g>
<!-- Node1&#45;&gt;Node32 -->
<g id="edge86" class="edge">
<title>Node1&#45;&gt;Node32</title>
<path fill="none" stroke="#63b8ff" d="M217.61,-659.56C201.67,-632.8 159.05,-551.71 190.2,-495 197.77,-481.22 211.61,-471.1 225,-464.03"/>
<polygon fill="#63b8ff" stroke="#63b8ff" points="226.18,-467.34 233.68,-459.85 223.15,-461.03 226.18,-467.34"/>
</g>
<!-- Node3 -->
<g id="node3" class="node">
<title>Node3</title>
<g id="a_node3"><a xlink:href="RoadLane_8h.html" target="_top" xlink:title=" ">
<polygon fill="white" stroke="#666666" points="350.2,-569 276.2,-569 276.2,-550 350.2,-550 350.2,-569"/>
<text text-anchor="middle" x="313.2" y="-557" font-family="Helvetica,sans-Serif" font-size="10.00">RoadLane.h</text>
</a>
</g>
</g>
<!-- Node2&#45;&gt;Node3 -->
<g id="edge2" class="edge">
<title>Node2&#45;&gt;Node3</title>
<path fill="none" stroke="#63b8ff" d="M313.2,-604.75C313.2,-598.27 313.2,-589.16 313.2,-580.9"/>
<polygon fill="#63b8ff" stroke="#63b8ff" points="316.7,-580.96 313.2,-570.96 309.7,-580.96 316.7,-580.96"/>
</g>
<!-- Node39 -->
<g id="node39" class="node">
<title>Node39</title>
<g id="a_node39"><a xlink:title=" ">
<polygon fill="#e0e0e0" stroke="#999999" points="2896.7,-184 2831.7,-184 2831.7,-165 2896.7,-165 2896.7,-184"/>
<text text-anchor="middle" x="2864.2" y="-172" font-family="Helvetica,sans-Serif" font-size="10.00">functional</text>
</a>
</g>
</g>
<!-- Node2&#45;&gt;Node39 -->
<g id="edge85" class="edge">
<title>Node2&#45;&gt;Node39</title>
<path fill="none" stroke="#63b8ff" d="M374.05,-612.61C765.87,-606.71 2917.2,-571.3 2917.2,-505.5 2917.2,-505.5 2917.2,-505.5 2917.2,-393.5 2917.2,-318.29 2887.04,-232.5 2872.23,-194.89"/>
<polygon fill="#63b8ff" stroke="#63b8ff" points="2875.57,-193.81 2868.58,-185.85 2869.07,-196.43 2875.57,-193.81"/>
</g>
<!-- Node4 -->
<g id="node4" class="node">
<title>Node4</title>
<g id="a_node4"><a xlink:href="Random_8h.html" target="_top" xlink:title=" ">
<polygon fill="white" stroke="#666666" points="2897.2,-74 2831.2,-74 2831.2,-55 2897.2,-55 2897.2,-74"/>
<text text-anchor="middle" x="2864.2" y="-62" font-family="Helvetica,sans-Serif" font-size="10.00">Random.h</text>
</a>
</g>
</g>
<!-- Node3&#45;&gt;Node4 -->
<g id="edge3" class="edge">
<title>Node3&#45;&gt;Node4</title>
<path fill="none" stroke="#63b8ff" d="M350.43,-558.73C549.96,-559.77 1512.87,-561.93 2298.2,-514 2427.84,-506.09 2879.2,-580.38 2879.2,-450.5 2879.2,-450.5 2879.2,-450.5 2879.2,-393.5 2879.2,-318.23 2925.2,-305.77 2925.2,-230.5 2925.2,-230.5 2925.2,-230.5 2925.2,-173.5 2925.2,-137.62 2899.36,-102.7 2881.32,-82.68"/>
<polygon fill="#63b8ff" stroke="#63b8ff" points="2883.91,-80.33 2874.5,-75.45 2878.81,-85.13 2883.91,-80.33"/>
</g>
<!-- Node7 -->
<g id="node7" class="node">
<title>Node7</title>
<g id="a_node7"><a xlink:href="Lane_8h.html" target="_top" xlink:title=" ">
<polygon fill="white" stroke="#666666" points="195.7,-294 146.7,-294 146.7,-275 195.7,-275 195.7,-294"/>
<text text-anchor="middle" x="171.2" y="-282" font-family="Helvetica,sans-Serif" font-size="10.00">Lane.h</text>
</a>
</g>
</g>
<!-- Node3&#45;&gt;Node7 -->
<g id="edge6" class="edge">
<title>Node3&#45;&gt;Node7</title>
<path fill="none" stroke="#63b8ff" d="M275.78,-553.99C248.52,-548.8 212.58,-537.68 190.2,-514 169.97,-492.59 171.2,-479.96 171.2,-450.5 171.2,-450.5 171.2,-450.5 171.2,-393.5 171.2,-362.92 171.2,-327.48 171.2,-305.77"/>
<polygon fill="#63b8ff" stroke="#63b8ff" points="174.7,-305.97 171.2,-295.97 167.7,-305.97 174.7,-305.97"/>
</g>
<!-- Node22 -->
<g id="node22" class="node">
<title>Node22</title>
<g id="a_node22"><a xlink:href="Entity_8h.html" target="_top" xlink:title=" ">
<polygon fill="white" stroke="#666666" points="684.7,-294 631.7,-294 631.7,-275 684.7,-275 684.7,-294"/>
<text text-anchor="middle" x="658.2" y="-282" font-family="Helvetica,sans-Serif" font-size="10.00">Entity.h</text>
</a>
</g>
</g>
<!-- Node3&#45;&gt;Node22 -->
<g id="edge23" class="edge">
<title>Node3&#45;&gt;Node22</title>
<path fill="none" stroke="#63b8ff" d="M313.2,-549.54C313.2,-531.03 313.2,-487.25 313.2,-450.5 313.2,-450.5 313.2,-450.5 313.2,-393.5 313.2,-329.76 530.41,-299.17 620.13,-289.26"/>
<polygon fill="#63b8ff" stroke="#63b8ff" points="620.34,-292.76 629.91,-288.21 619.59,-285.8 620.34,-292.76"/>
</g>
<!-- Node31 -->
<g id="node31" class="node">
<title>Node31</title>
<g id="a_node31"><a xlink:href="Commuters_8h.html" target="_top" xlink:title=" ">
<polygon fill="white" stroke="#666666" points="424.7,-514 341.7,-514 341.7,-495 424.7,-495 424.7,-514"/>
<text text-anchor="middle" x="383.2" y="-502" font-family="Helvetica,sans-Serif" font-size="10.00">Commuters.h</text>
</a>
</g>
</g>
<!-- Node3&#45;&gt;Node31 -->
<g id="edge47" class="edge">
<title>Node3&#45;&gt;Node31</title>
<path fill="none" stroke="#63b8ff" d="M325.07,-549.51C335.29,-541.77 350.27,-530.43 362.46,-521.2"/>
<polygon fill="#63b8ff" stroke="#63b8ff" points="364.43,-524.1 370.29,-515.27 360.21,-518.52 364.43,-524.1"/>
</g>
<!-- Node3&#45;&gt;Node32 -->
<g id="edge82" class="edge">
<title>Node3&#45;&gt;Node32</title>
<path fill="none" stroke="#63b8ff" d="M308.86,-549.66C300.32,-532.26 281.15,-493.19 269.58,-469.62"/>
<polygon fill="#63b8ff" stroke="#63b8ff" points="272.81,-468.25 265.26,-460.82 266.53,-471.34 272.81,-468.25"/>
</g>
<!-- Node3&#45;&gt;Node39 -->
<g id="edge84" class="edge">
<title>Node3&#45;&gt;Node39</title>
<path fill="none" stroke="#63b8ff" d="M350.4,-557.92C663.08,-552.92 2841.2,-515.74 2841.2,-450.5 2841.2,-450.5 2841.2,-450.5 2841.2,-283.5 2841.2,-252.09 2850.62,-216.65 2857.4,-195.2"/>
<polygon fill="#63b8ff" stroke="#63b8ff" points="2860.71,-196.36 2860.53,-185.76 2854.06,-194.16 2860.71,-196.36"/>
</g>
<!-- Node41 -->
<g id="node41" class="node">
<title>Node41</title>
<g id="a_node41"><a xlink:title=" ">
<polygon fill="#e0e0e0" stroke="#999999" points="246.7,-514 199.7,-514 199.7,-495 246.7,-495 246.7,-514"/>
<text text-anchor="middle" x="223.2" y="-502" font-family="Helvetica,sans-Serif" font-size="10.00">deque</text>
</a>
</g>
</g>
<!-- Node3&#45;&gt;Node41 -->
<g id="edge83" class="edge">
<title>Node3&#45;&gt;Node41</title>
<path fill="none" stroke="#63b8ff" d="M297.93,-549.51C284.27,-541.47 264,-529.53 248.02,-520.11"/>
<polygon fill="#63b8ff" stroke="#63b8ff" points="249.94,-517.18 239.55,-515.13 246.39,-523.22 249.94,-517.18"/>
</g>
<!-- Node5 -->
<g id="node5" class="node">
<title>Node5</title>
<g id="a_node5"><a xlink:title=" ">
<polygon fill="#e0e0e0" stroke="#999999" points="2891.2,-19 2837.2,-19 2837.2,0 2891.2,0 2891.2,-19"/>
<text text-anchor="middle" x="2864.2" y="-7" font-family="Helvetica,sans-Serif" font-size="10.00">random</text>
</a>
</g>
</g>
<!-- Node4&#45;&gt;Node5 -->
<g id="edge4" class="edge">
<title>Node4&#45;&gt;Node5</title>
<path fill="none" stroke="#63b8ff" d="M2864.2,-54.75C2864.2,-48.27 2864.2,-39.16 2864.2,-30.9"/>
<polygon fill="#63b8ff" stroke="#63b8ff" points="2867.7,-30.96 2864.2,-20.96 2860.7,-30.96 2867.7,-30.96"/>
</g>
<!-- Node6 -->
<g id="node6" class="node">
<title>Node6</title>
<g id="a_node6"><a xlink:title=" ">
<polygon fill="#e0e0e0" stroke="#999999" points="2667.2,-19 2607.2,-19 2607.2,0 2667.2,0 2667.2,-19"/>
<text text-anchor="middle" x="2637.2" y="-7" font-family="Helvetica,sans-Serif" font-size="10.00">iostream</text>
</a>
</g>
</g>
<!-- Node4&#45;&gt;Node6 -->
<g id="edge5" class="edge">
<title>Node4&#45;&gt;Node6</title>
<path fill="none" stroke="#63b8ff" d="M2830.71,-55.68C2790.29,-46.24 2722.33,-30.38 2678.65,-20.18"/>
<polygon fill="#63b8ff" stroke="#63b8ff" points="2679.57,-16.8 2669.03,-17.93 2677.98,-23.61 2679.57,-16.8"/>
</g>
<!-- Node8 -->
<g id="node8" class="node">
<title>Node8</title>
<g id="a_node8"><a xlink:href="SceneNode_8h.html" target="_top" xlink:title=" ">
<polygon fill="white" stroke="#666666" points="1451.2,-239 1371.2,-239 1371.2,-220 1451.2,-220 1451.2,-239"/>
<text text-anchor="middle" x="1411.2" y="-227" font-family="Helvetica,sans-Serif" font-size="10.00">SceneNode.h</text>
</a>
</g>
</g>
<!-- Node7&#45;&gt;Node8 -->
<g id="edge7" class="edge">
<title>Node7&#45;&gt;Node8</title>
<path fill="none" stroke="#63b8ff" d="M195.97,-282.44C347.22,-275.98 1146.93,-241.8 1359.35,-232.72"/>
<polygon fill="#63b8ff" stroke="#63b8ff" points="1359.41,-236.22 1369.25,-232.29 1359.11,-229.22 1359.41,-236.22"/>
</g>
<!-- Node9 -->
<g id="node9" class="node">
<title>Node9</title>
<g id="a_node9"><a xlink:href="Enums_8h.html" target="_top" xlink:title=" ">
<polygon fill="white" stroke="#666666" points="559.7,-74 500.7,-74 500.7,-55 559.7,-55 559.7,-74"/>
<text text-anchor="middle" x="530.2" y="-62" font-family="Helvetica,sans-Serif" font-size="10.00">Enums.h</text>
</a>
</g>
</g>
<!-- Node7&#45;&gt;Node9 -->
<g id="edge22" class="edge">
<title>Node7&#45;&gt;Node9</title>
<path fill="none" stroke="#63b8ff" d="M146.54,-276.93C92.24,-261.28 -29.54,-219.06 13.2,-165 72.2,-90.37 377.09,-71.32 488.97,-66.81"/>
<polygon fill="#63b8ff" stroke="#63b8ff" points="489.04,-70.31 498.9,-66.43 488.77,-63.31 489.04,-70.31"/>
</g>
<!-- Node8&#45;&gt;Node6 -->
<g id="edge21" class="edge">
<title>Node8&#45;&gt;Node6</title>
<path fill="none" stroke="#63b8ff" d="M1451.47,-227.95C1602.58,-225.66 2135.65,-215.47 2302.2,-184 2377.74,-169.73 2397.48,-163.46 2466.2,-129 2525.34,-99.34 2587.4,-51.46 2617.92,-26.61"/>
<polygon fill="#63b8ff" stroke="#63b8ff" points="2620.01,-29.43 2625.51,-20.37 2615.56,-24.02 2620.01,-29.43"/>
</g>
<!-- Node8&#45;&gt;Node9 -->
<g id="edge8" class="edge">
<title>Node8&#45;&gt;Node9</title>
<path fill="none" stroke="#63b8ff" d="M1370.84,-221.87C1366.25,-221.2 1361.63,-220.56 1357.2,-220 1191.09,-198.97 1143.36,-229.39 982.2,-184 963.64,-178.77 961.35,-171.52 943.2,-165 810.94,-117.49 646.74,-85.58 571.44,-72.37"/>
<polygon fill="#63b8ff" stroke="#63b8ff" points="572.08,-68.93 561.63,-70.67 570.88,-75.82 572.08,-68.93"/>
</g>
<!-- Node10 -->
<g id="node10" class="node">
<title>Node10</title>
<g id="a_node10"><a xlink:title=" ">
<polygon fill="#e0e0e0" stroke="#999999" points="2440.2,-74 2330.2,-74 2330.2,-55 2440.2,-55 2440.2,-74"/>
<text text-anchor="middle" x="2385.2" y="-62" font-family="Helvetica,sans-Serif" font-size="10.00">SFML/Graphics.hpp</text>
</a>
</g>
</g>
<!-- Node8&#45;&gt;Node10 -->
<g id="edge9" class="edge">
<title>Node8&#45;&gt;Node10</title>
<path fill="none" stroke="#63b8ff" d="M1451.51,-228.18C1611.82,-226.69 2199.11,-218.88 2274.2,-184 2320.69,-162.41 2357.15,-111.69 2374.36,-84.13"/>
<polygon fill="#63b8ff" stroke="#63b8ff" points="2377.22,-86.16 2379.4,-75.79 2371.23,-82.54 2377.22,-86.16"/>
</g>
<!-- Node11 -->
<g id="node11" class="node">
<title>Node11</title>
<g id="a_node11"><a xlink:title=" ">
<polygon fill="#e0e0e0" stroke="#999999" points="1303.7,-184 1144.7,-184 1144.7,-165 1303.7,-165 1303.7,-184"/>
<text text-anchor="middle" x="1224.2" y="-172" font-family="Helvetica,sans-Serif" font-size="10.00">SFML/Graphics/Drawable.hpp</text>
</a>
</g>
</g>
<!-- Node8&#45;&gt;Node11 -->
<g id="edge10" class="edge">
<title>Node8&#45;&gt;Node11</title>
<path fill="none" stroke="#63b8ff" d="M1379.48,-219.51C1348.36,-210.69 1300.7,-197.18 1266.4,-187.46"/>
<polygon fill="#63b8ff" stroke="#63b8ff" points="1267.8,-184.22 1257.22,-184.86 1265.89,-190.95 1267.8,-184.22"/>
</g>
<!-- Node12 -->
<g id="node12" class="node">
<title>Node12</title>
<g id="a_node12"><a xlink:title=" ">
<polygon fill="#e0e0e0" stroke="#999999" points="934.2,-184 800.2,-184 800.2,-165 934.2,-165 934.2,-184"/>
<text text-anchor="middle" x="867.2" y="-172" font-family="Helvetica,sans-Serif" font-size="10.00">SFML/Graphics/Rect.hpp</text>
</a>
</g>
</g>
<!-- Node8&#45;&gt;Node12 -->
<g id="edge11" class="edge">
<title>Node8&#45;&gt;Node12</title>
<path fill="none" stroke="#63b8ff" d="M1370.85,-221.84C1366.25,-221.17 1361.63,-220.54 1357.2,-220 1176.07,-197.8 1129.84,-201.52 948.2,-184 947.36,-183.92 946.51,-183.84 945.65,-183.75"/>
<polygon fill="#63b8ff" stroke="#63b8ff" points="946.18,-180.29 935.88,-182.79 945.49,-187.25 946.18,-180.29"/>
</g>
<!-- Node13 -->
<g id="node13" class="node">
<title>Node13</title>
<g id="a_node13"><a xlink:title=" ">
<polygon fill="#e0e0e0" stroke="#999999" points="1500.2,-184 1322.2,-184 1322.2,-165 1500.2,-165 1500.2,-184"/>
<text text-anchor="middle" x="1411.2" y="-172" font-family="Helvetica,sans-Serif" font-size="10.00">SFML/Graphics/RenderStates.hpp</text>
</a>
</g>
</g>
<!-- Node8&#45;&gt;Node13 -->
<g id="edge12" class="edge">
<title>Node8&#45;&gt;Node13</title>
<path fill="none" stroke="#63b8ff" d="M1411.2,-219.75C1411.2,-213.27 1411.2,-204.16 1411.2,-195.9"/>
<polygon fill="#63b8ff" stroke="#63b8ff" points="1414.7,-195.96 1411.2,-185.96 1407.7,-195.96 1414.7,-195.96"/>
</g>
<!-- Node14 -->
<g id="node14" class="node">
<title>Node14</title>
<g id="a_node14"><a xlink:title=" ">
<polygon fill="#e0e0e0" stroke="#999999" points="1695.7,-184 1518.7,-184 1518.7,-165 1695.7,-165 1695.7,-184"/>
<text text-anchor="middle" x="1607.2" y="-172" font-family="Helvetica,sans-Serif" font-size="10.00">SFML/Graphics/RenderTarget.hpp</text>
</a>
</g>
</g>
<!-- Node8&#45;&gt;Node14 -->
<g id="edge13" class="edge">
<title>Node8&#45;&gt;Node14</title>
<path fill="none" stroke="#63b8ff" d="M1444.45,-219.51C1477.21,-210.65 1527.45,-197.07 1563.44,-187.33"/>
<polygon fill="#63b8ff" stroke="#63b8ff" points="1563.92,-190.83 1572.65,-184.84 1562.09,-184.07 1563.92,-190.83"/>
</g>
<!-- Node15 -->
<g id="node15" class="node">
<title>Node15</title>
<g id="a_node15"><a xlink:title=" ">
<polygon fill="#e0e0e0" stroke="#999999" points="1874.7,-184 1713.7,-184 1713.7,-165 1874.7,-165 1874.7,-184"/>
<text text-anchor="middle" x="1794.2" y="-172" font-family="Helvetica,sans-Serif" font-size="10.00">SFML/Graphics/Transform.hpp</text>
</a>
</g>
</g>
<!-- Node8&#45;&gt;Node15 -->
<g id="edge14" class="edge">
<title>Node8&#45;&gt;Node15</title>
<path fill="none" stroke="#63b8ff" d="M1451.46,-222.93C1514.66,-214.18 1638.17,-197.09 1718.38,-185.99"/>
<polygon fill="#63b8ff" stroke="#63b8ff" points="1718.47,-189.51 1727.9,-184.67 1717.51,-182.58 1718.47,-189.51"/>
</g>
<!-- Node16 -->
<g id="node16" class="node">
<title>Node16</title>
<g id="a_node16"><a xlink:title=" ">
<polygon fill="#e0e0e0" stroke="#999999" points="2075.2,-184 1893.2,-184 1893.2,-165 2075.2,-165 2075.2,-184"/>
<text text-anchor="middle" x="1984.2" y="-172" font-family="Helvetica,sans-Serif" font-size="10.00">SFML/Graphics/Transformable.hpp</text>
</a>
</g>
</g>
<!-- Node8&#45;&gt;Node16 -->
<g id="edge15" class="edge">
<title>Node8&#45;&gt;Node16</title>
<path fill="none" stroke="#63b8ff" d="M1451.49,-224.77C1539.89,-216.6 1753.18,-196.87 1881.46,-185"/>
<polygon fill="#63b8ff" stroke="#63b8ff" points="1881.69,-188.5 1891.32,-184.09 1881.04,-181.53 1881.69,-188.5"/>
</g>
<!-- Node17 -->
<g id="node17" class="node">
<title>Node17</title>
<g id="a_node17"><a xlink:title=" ">
<polygon fill="#e0e0e0" stroke="#999999" points="2265.2,-184 2093.2,-184 2093.2,-165 2265.2,-165 2265.2,-184"/>
<text text-anchor="middle" x="2179.2" y="-172" font-family="Helvetica,sans-Serif" font-size="10.00">SFML/System/NonCopyable.hpp</text>
</a>
</g>
</g>
<!-- Node8&#45;&gt;Node17 -->
<g id="edge16" class="edge">
<title>Node8&#45;&gt;Node17</title>
<path fill="none" stroke="#63b8ff" d="M1451.43,-226.17C1554.3,-220.13 1835.6,-203.19 2081.43,-184.2"/>
<polygon fill="#63b8ff" stroke="#63b8ff" points="2081.53,-187.7 2091.23,-183.44 2080.99,-180.72 2081.53,-187.7"/>
</g>
<!-- Node18 -->
<g id="node18" class="node">
<title>Node18</title>
<g id="a_node18"><a xlink:title=" ">
<polygon fill="#e0e0e0" stroke="#999999" points="2660.7,-184 2517.7,-184 2517.7,-165 2660.7,-165 2660.7,-184"/>
<text text-anchor="middle" x="2589.2" y="-172" font-family="Helvetica,sans-Serif" font-size="10.00">SFML/System/Vector2.hpp</text>
</a>
</g>
</g>
<!-- Node8&#45;&gt;Node18 -->
<g id="edge17" class="edge">
<title>Node8&#45;&gt;Node18</title>
<path fill="none" stroke="#63b8ff" d="M1451.6,-227.79C1594.15,-225.11 2087.13,-214.15 2505.8,-184.12"/>
<polygon fill="#63b8ff" stroke="#63b8ff" points="2506,-187.61 2515.72,-183.4 2505.5,-180.63 2506,-187.61"/>
</g>
<!-- Node19 -->
<g id="node19" class="node">
<title>Node19</title>
<g id="a_node19"><a xlink:title=" ">
<polygon fill="#e0e0e0" stroke="#999999" points="1145.2,-129 1087.2,-129 1087.2,-110 1145.2,-110 1145.2,-129"/>
<text text-anchor="middle" x="1116.2" y="-117" font-family="Helvetica,sans-Serif" font-size="10.00">memory</text>
</a>
</g>
</g>
<!-- Node8&#45;&gt;Node19 -->
<g id="edge18" class="edge">
<title>Node8&#45;&gt;Node19</title>
<path fill="none" stroke="#63b8ff" d="M1370.82,-222.1C1294.66,-210.02 1137.31,-184.96 1136.2,-184 1123.76,-173.24 1118.97,-154.82 1117.17,-140.58"/>
<polygon fill="#63b8ff" stroke="#63b8ff" points="1120.68,-140.62 1116.37,-130.95 1113.71,-141.21 1120.68,-140.62"/>
</g>
<!-- Node20 -->
<g id="node20" class="node">
<title>Node20</title>
<g id="a_node20"><a xlink:title=" ">
<polygon fill="#e0e0e0" stroke="#999999" points="1037.7,-184 990.7,-184 990.7,-165 1037.7,-165 1037.7,-184"/>
<text text-anchor="middle" x="1014.2" y="-172" font-family="Helvetica,sans-Serif" font-size="10.00">vector</text>
</a>
</g>
</g>
<!-- Node8&#45;&gt;Node20 -->
<g id="edge19" class="edge">
<title>Node8&#45;&gt;Node20</title>
<path fill="none" stroke="#63b8ff" d="M1370.83,-221.96C1366.24,-221.27 1361.62,-220.6 1357.2,-220 1223.4,-201.71 1185.55,-208.95 1049.2,-184.11"/>
<polygon fill="#63b8ff" stroke="#63b8ff" points="1049.86,-180.67 1039.39,-182.29 1048.59,-187.55 1049.86,-180.67"/>
</g>
<!-- Node21 -->
<g id="node21" class="node">
<title>Node21</title>
<g id="a_node21"><a xlink:title=" ">
<polygon fill="#e0e0e0" stroke="#999999" points="1088.2,-184 1056.2,-184 1056.2,-165 1088.2,-165 1088.2,-184"/>
<text text-anchor="middle" x="1072.2" y="-172" font-family="Helvetica,sans-Serif" font-size="10.00">set</text>
</a>
</g>
</g>
<!-- Node8&#45;&gt;Node21 -->
<g id="edge20" class="edge">
<title>Node8&#45;&gt;Node21</title>
<path fill="none" stroke="#63b8ff" d="M1370.81,-222.07C1366.22,-221.36 1361.61,-220.66 1357.2,-220 1244,-203.1 1214.19,-207.66 1102.2,-184 1101.37,-183.82 1100.52,-183.64 1099.67,-183.44"/>
<polygon fill="#63b8ff" stroke="#63b8ff" points="1100.63,-180.07 1090.07,-180.96 1098.88,-186.85 1100.63,-180.07"/>
</g>
<!-- Node22&#45;&gt;Node8 -->
<g id="edge43" class="edge">
<title>Node22&#45;&gt;Node8</title>
<path fill="none" stroke="#63b8ff" d="M685,-281.61C794.94,-273.88 1212.49,-244.49 1359.56,-234.13"/>
<polygon fill="#63b8ff" stroke="#63b8ff" points="1359.66,-237.64 1369.39,-233.44 1359.17,-230.65 1359.66,-237.64"/>
</g>
<!-- Node22&#45;&gt;Node9 -->
<g id="edge42" class="edge">
<title>Node22&#45;&gt;Node9</title>
<path fill="none" stroke="#63b8ff" d="M631.43,-278.42C591.25,-270.66 513.03,-255.07 447.2,-239 436.11,-236.29 256.11,-193.09 249.2,-184 184.59,-99 396.14,-74.38 488.86,-67.76"/>
<polygon fill="#63b8ff" stroke="#63b8ff" points="489.08,-71.25 498.82,-67.09 488.61,-64.27 489.08,-71.25"/>
</g>
<!-- Node22&#45;&gt;Node12 -->
<g id="edge44" class="edge">
<title>Node22&#45;&gt;Node12</title>
<path fill="none" stroke="#63b8ff" d="M664.4,-274.75C674.54,-261.08 695.97,-234.71 720.2,-220 745.84,-204.43 777.34,-193.95 804.59,-187.1"/>
<polygon fill="#63b8ff" stroke="#63b8ff" points="805.2,-190.55 814.11,-184.82 803.57,-183.74 805.2,-190.55"/>
</g>
<!-- Node22&#45;&gt;Node18 -->
<g id="edge46" class="edge">
<title>Node22&#45;&gt;Node18</title>
<path fill="none" stroke="#63b8ff" d="M684.99,-283.08C895.97,-279.71 2284.15,-256.9 2370.2,-239 2392.26,-234.41 2395.8,-227.06 2417.2,-220 2456.94,-206.89 2502.86,-195.18 2537.26,-187.06"/>
<polygon fill="#63b8ff" stroke="#63b8ff" points="2538.03,-190.48 2546.98,-184.8 2536.44,-183.66 2538.03,-190.48"/>
</g>
<!-- Node23 -->
<g id="node23" class="node">
<title>Node23</title>
<g id="a_node23"><a xlink:href="AnimationMachine_8h.html" target="_top" xlink:title=" ">
<polygon fill="white" stroke="#666666" points="572.7,-239 455.7,-239 455.7,-220 572.7,-220 572.7,-239"/>
<text text-anchor="middle" x="514.2" y="-227" font-family="Helvetica,sans-Serif" font-size="10.00">AnimationMachine.h</text>
</a>
</g>
</g>
<!-- Node22&#45;&gt;Node23 -->
<g id="edge24" class="edge">
<title>Node22&#45;&gt;Node23</title>
<path fill="none" stroke="#63b8ff" d="M633.77,-274.51C610.46,-265.93 575.11,-252.92 548.89,-243.27"/>
<polygon fill="#63b8ff" stroke="#63b8ff" points="550.28,-240.05 539.69,-239.88 547.86,-246.62 550.28,-240.05"/>
</g>
<!-- Node26 -->
<g id="node26" class="node">
<title>Node26</title>
<g id="a_node26"><a xlink:title=" ">
<polygon fill="#e0e0e0" stroke="#999999" points="743.7,-184 612.7,-184 612.7,-165 743.7,-165 743.7,-184"/>
<text text-anchor="middle" x="678.2" y="-172" font-family="Helvetica,sans-Serif" font-size="10.00">SFML/System/Time.hpp</text>
</a>
</g>
</g>
<!-- Node22&#45;&gt;Node26 -->
<g id="edge45" class="edge">
<title>Node22&#45;&gt;Node26</title>
<path fill="none" stroke="#63b8ff" d="M659.84,-274.66C663.02,-257.5 670.1,-219.26 674.48,-195.6"/>
<polygon fill="#63b8ff" stroke="#63b8ff" points="677.89,-196.42 676.27,-185.95 671,-195.14 677.89,-196.42"/>
</g>
<!-- Node23&#45;&gt;Node6 -->
<g id="edge30" class="edge">
<title>Node23&#45;&gt;Node6</title>
<path fill="none" stroke="#63b8ff" d="M455.36,-222.63C381.38,-214.65 262.38,-199.58 249.2,-184 229.64,-160.89 256.81,-126.9 278.2,-110 355.26,-49.13 394.91,-68.33 492.2,-55 707.64,-25.48 2314.87,-12.79 2595.47,-10.79"/>
<polygon fill="#63b8ff" stroke="#63b8ff" points="2595.24,-14.29 2605.22,-10.72 2595.2,-7.29 2595.24,-14.29"/>
</g>
<!-- Node23&#45;&gt;Node9 -->
<g id="edge35" class="edge">
<title>Node23&#45;&gt;Node9</title>
<path fill="none" stroke="#63b8ff" d="M486.68,-219.52C458.85,-208.85 421.95,-189.39 437.2,-165 456.6,-133.99 487.52,-156.87 511.2,-129 521.58,-116.78 526.29,-99.05 528.43,-85.43"/>
<polygon fill="#63b8ff" stroke="#63b8ff" points="531.86,-86.2 529.57,-75.85 524.91,-85.37 531.86,-86.2"/>
</g>
<!-- Node23&#45;&gt;Node10 -->
<g id="edge25" class="edge">
<title>Node23&#45;&gt;Node10</title>
<path fill="none" stroke="#63b8ff" d="M517.99,-219.69C524.63,-205.44 539.83,-177.66 562.2,-165 762.93,-51.43 848.13,-126.16 1078.2,-110 1552.62,-76.68 2125.72,-68.1 2318.38,-66.07"/>
<polygon fill="#63b8ff" stroke="#63b8ff" points="2318.23,-69.58 2328.2,-65.97 2318.16,-62.58 2318.23,-69.58"/>
</g>
<!-- Node24 -->
<g id="node24" class="node">
<title>Node24</title>
<g id="a_node24"><a xlink:title=" ">
<polygon fill="#e0e0e0" stroke="#999999" points="163.7,-184 22.7,-184 22.7,-165 163.7,-165 163.7,-184"/>
<text text-anchor="middle" x="93.2" y="-172" font-family="Helvetica,sans-Serif" font-size="10.00">SFML/Graphics/Sprite.hpp</text>
</a>
</g>
</g>
<!-- Node23&#45;&gt;Node24 -->
<g id="edge26" class="edge">
<title>Node23&#45;&gt;Node24</title>
<path fill="none" stroke="#63b8ff" d="M455.22,-221.07C382.27,-211.89 257.69,-196.21 175.4,-185.85"/>
<polygon fill="#63b8ff" stroke="#63b8ff" points="175.94,-182.39 165.58,-184.61 175.06,-189.33 175.94,-182.39"/>
</g>
<!-- Node25 -->
<g id="node25" class="node">
<title>Node25</title>
<g id="a_node25"><a xlink:title=" ">
<polygon fill="#e0e0e0" stroke="#999999" points="501.7,-129 352.7,-129 352.7,-110 501.7,-110 501.7,-129"/>
<text text-anchor="middle" x="427.2" y="-117" font-family="Helvetica,sans-Serif" font-size="10.00">SFML/Graphics/Texture.hpp</text>
</a>
</g>
</g>
<!-- Node23&#45;&gt;Node25 -->
<g id="edge27" class="edge">
<title>Node23&#45;&gt;Node25</title>
<path fill="none" stroke="#63b8ff" d="M458.89,-219.57C438.16,-213.25 416.64,-202.45 404.2,-184 394.8,-170.05 403.15,-151.8 412.32,-138.45"/>
<polygon fill="#63b8ff" stroke="#63b8ff" points="415.05,-140.63 418.29,-130.55 409.47,-136.41 415.05,-140.63"/>
</g>
<!-- Node23&#45;&gt;Node26 -->
<g id="edge28" class="edge">
<title>Node23&#45;&gt;Node26</title>
<path fill="none" stroke="#63b8ff" d="M542.02,-219.51C568.84,-210.84 609.66,-197.65 639.62,-187.97"/>
<polygon fill="#63b8ff" stroke="#63b8ff" points="640.64,-191.32 649.08,-184.91 638.49,-184.66 640.64,-191.32"/>
</g>
<!-- Node27 -->
<g id="node27" class="node">
<title>Node27</title>
<g id="a_node27"><a xlink:title=" ">
<polygon fill="#e0e0e0" stroke="#999999" points="518.2,-184 446.2,-184 446.2,-165 518.2,-165 518.2,-184"/>
<text text-anchor="middle" x="482.2" y="-172" font-family="Helvetica,sans-Serif" font-size="10.00">sys/types.h</text>
</a>
</g>
</g>
<!-- Node23&#45;&gt;Node27 -->
<g id="edge29" class="edge">
<title>Node23&#45;&gt;Node27</title>
<path fill="none" stroke="#63b8ff" d="M508.92,-219.75C504.73,-212.81 498.72,-202.86 493.47,-194.16"/>
<polygon fill="#63b8ff" stroke="#63b8ff" points="496.55,-192.49 488.38,-185.74 490.55,-196.11 496.55,-192.49"/>
</g>
<!-- Node28 -->
<g id="node28" class="node">
<title>Node28</title>
<g id="a_node28"><a xlink:href="Consts_8h.html" target="_top" xlink:title=" ">
<polygon fill="white" stroke="#666666" points="2456.7,-129 2397.7,-129 2397.7,-110 2456.7,-110 2456.7,-129"/>
<text text-anchor="middle" x="2427.2" y="-117" font-family="Helvetica,sans-Serif" font-size="10.00">Consts.h</text>
</a>
</g>
</g>
<!-- Node23&#45;&gt;Node28 -->
<g id="edge31" class="edge">
<title>Node23&#45;&gt;Node28</title>
<path fill="none" stroke="#63b8ff" d="M522.65,-219.83C537.53,-205.24 570.07,-176.29 604.2,-165 691.57,-136.1 2124.53,-122.98 2386.32,-120.82"/>
<polygon fill="#63b8ff" stroke="#63b8ff" points="2386.06,-124.33 2396.03,-120.74 2386,-117.33 2386.06,-124.33"/>
</g>
<!-- Node29 -->
<g id="node29" class="node">
<title>Node29</title>
<g id="a_node29"><a xlink:href="TextureHolder_8h.html" target="_top" xlink:title=" ">
<polygon fill="white" stroke="#666666" points="351.7,-184 258.7,-184 258.7,-165 351.7,-165 351.7,-184"/>
<text text-anchor="middle" x="305.2" y="-172" font-family="Helvetica,sans-Serif" font-size="10.00">TextureHolder.h</text>
</a>
</g>
</g>
<!-- Node23&#45;&gt;Node29 -->
<g id="edge36" class="edge">
<title>Node23&#45;&gt;Node29</title>
<path fill="none" stroke="#63b8ff" d="M478.75,-219.51C443.66,-210.61 389.78,-196.95 351.37,-187.21"/>
<polygon fill="#63b8ff" stroke="#63b8ff" points="352.5,-183.88 341.95,-184.82 350.78,-190.67 352.5,-183.88"/>
</g>
<!-- Node28&#45;&gt;Node4 -->
<g id="edge34" class="edge">
<title>Node28&#45;&gt;Node4</title>
<path fill="none" stroke="#63b8ff" d="M2456.89,-114.9C2532.09,-105.78 2730.37,-81.73 2819.58,-70.91"/>
<polygon fill="#63b8ff" stroke="#63b8ff" points="2819.91,-74.4 2829.42,-69.72 2819.07,-67.45 2819.91,-74.4"/>
</g>
<!-- Node28&#45;&gt;Node9 -->
<g id="edge33" class="edge">
<title>Node28&#45;&gt;Node9</title>
<path fill="none" stroke="#63b8ff" d="M2397.26,-114.82C2381.75,-113.07 2362.48,-111.11 2345.2,-110 1636.21,-64.63 768.7,-64.66 571.42,-65.31"/>
<polygon fill="#63b8ff" stroke="#63b8ff" points="571.68,-61.81 561.69,-65.35 571.7,-68.81 571.68,-61.81"/>
</g>
<!-- Node28&#45;&gt;Node10 -->
<g id="edge32" class="edge">
<title>Node28&#45;&gt;Node10</title>
<path fill="none" stroke="#63b8ff" d="M2420.26,-109.75C2414.58,-102.58 2406.36,-92.2 2399.31,-83.3"/>
<polygon fill="#63b8ff" stroke="#63b8ff" points="2402.18,-81.29 2393.23,-75.63 2396.69,-85.64 2402.18,-81.29"/>
</g>
<!-- Node29&#45;&gt;Node9 -->
<g id="edge40" class="edge">
<title>Node29&#45;&gt;Node9</title>
<path fill="none" stroke="#63b8ff" d="M298.21,-164.67C288.58,-151.36 273.85,-126.02 287.2,-110 312.42,-79.75 426.53,-70 489,-66.9"/>
<polygon fill="#63b8ff" stroke="#63b8ff" points="489.05,-70.41 498.89,-66.45 488.74,-63.41 489.05,-70.41"/>
</g>
<!-- Node29&#45;&gt;Node19 -->
<g id="edge37" class="edge">
<title>Node29&#45;&gt;Node19</title>
<path fill="none" stroke="#63b8ff" d="M352.01,-170.44C497.38,-160.94 939.41,-132.05 1075.73,-123.14"/>
<polygon fill="#63b8ff" stroke="#63b8ff" points="1075.6,-126.66 1085.35,-122.52 1075.14,-119.68 1075.6,-126.66"/>
</g>
<!-- Node29&#45;&gt;Node25 -->
<g id="edge39" class="edge">
<title>Node29&#45;&gt;Node25</title>
<path fill="none" stroke="#63b8ff" d="M325.9,-164.51C345.2,-156.12 374.26,-143.5 396.31,-133.92"/>
<polygon fill="#63b8ff" stroke="#63b8ff" points="397.64,-137.16 405.42,-129.96 394.86,-130.74 397.64,-137.16"/>
</g>
<!-- Node29&#45;&gt;Node28 -->
<g id="edge41" class="edge">
<title>Node29&#45;&gt;Node28</title>
<path fill="none" stroke="#63b8ff" d="M351.91,-170.01C377.15,-168.25 408.87,-166.23 437.2,-165 1220.38,-131.04 2178.14,-122.32 2386.12,-120.78"/>
<polygon fill="#63b8ff" stroke="#63b8ff" points="2385.9,-124.28 2395.87,-120.71 2385.84,-117.28 2385.9,-124.28"/>
</g>
<!-- Node30 -->
<g id="node30" class="node">
<title>Node30</title>
<g id="a_node30"><a xlink:title=" ">
<polygon fill="#e0e0e0" stroke="#999999" points="334.2,-129 296.2,-129 296.2,-110 334.2,-110 334.2,-129"/>
<text text-anchor="middle" x="315.2" y="-117" font-family="Helvetica,sans-Serif" font-size="10.00">map</text>
</a>
</g>
</g>
<!-- Node29&#45;&gt;Node30 -->
<g id="edge38" class="edge">
<title>Node29&#45;&gt;Node30</title>
<path fill="none" stroke="#63b8ff" d="M306.85,-164.75C308.09,-158.19 309.83,-148.95 311.41,-140.6"/>
<polygon fill="#63b8ff" stroke="#63b8ff" points="314.82,-141.4 313.23,-130.93 307.94,-140.11 314.82,-141.4"/>
</g>
<!-- Node31&#45;&gt;Node22 -->
<g id="edge48" class="edge">
<title>Node31&#45;&gt;Node22</title>
<path fill="none" stroke="#63b8ff" d="M394.32,-494.68C436.04,-461.61 583.6,-344.64 637.93,-301.57"/>
<polygon fill="#63b8ff" stroke="#63b8ff" points="640.09,-304.32 645.75,-295.37 635.74,-298.84 640.09,-304.32"/>
</g>
<!-- Node31&#45;&gt;Node32 -->
<g id="edge49" class="edge">
<title>Node31&#45;&gt;Node32</title>
<path fill="none" stroke="#63b8ff" d="M362.33,-494.51C342.78,-486.08 313.3,-473.38 291.03,-463.79"/>
<polygon fill="#63b8ff" stroke="#63b8ff" points="292.72,-460.7 282.15,-459.96 289.95,-467.13 292.72,-460.7"/>
</g>
<!-- Node33 -->
<g id="node33" class="node">
<title>Node33</title>
<g id="a_node33"><a xlink:href="Obstacle_8h.html" target="_top" xlink:title=" ">
<polygon fill="white" stroke="#666666" points="749.2,-459 681.2,-459 681.2,-440 749.2,-440 749.2,-459"/>
<text text-anchor="middle" x="715.2" y="-447" font-family="Helvetica,sans-Serif" font-size="10.00">Obstacle.h</text>
</a>
</g>
</g>
<!-- Node31&#45;&gt;Node33 -->
<g id="edge51" class="edge">
<title>Node31&#45;&gt;Node33</title>
<path fill="none" stroke="#63b8ff" d="M424.91,-496.84C487.51,-486.85 605.27,-468.05 669.9,-457.73"/>
<polygon fill="#63b8ff" stroke="#63b8ff" points="670.13,-461.24 679.45,-456.21 669.02,-454.33 670.13,-461.24"/>
</g>
<!-- Node34 -->
<g id="node34" class="node">
<title>Node34</title>
<g id="a_node34"><a xlink:href="PlayerState_8h.html" target="_top" xlink:title=" ">
<polygon fill="white" stroke="#666666" points="2615.2,-404 2533.2,-404 2533.2,-385 2615.2,-385 2615.2,-404"/>
<text text-anchor="middle" x="2574.2" y="-392" font-family="Helvetica,sans-Serif" font-size="10.00">PlayerState.h</text>
</a>
</g>
</g>
<!-- Node31&#45;&gt;Node34 -->
<g id="edge81" class="edge">
<title>Node31&#45;&gt;Node34</title>
<path fill="none" stroke="#63b8ff" d="M425.18,-502.74C643.37,-498.56 1669.84,-475.76 2506.2,-404 2511.2,-403.57 2516.4,-403.05 2521.6,-402.48"/>
<polygon fill="#63b8ff" stroke="#63b8ff" points="2521.86,-405.98 2531.4,-401.36 2521.06,-399.02 2521.86,-405.98"/>
</g>
<!-- Node32&#45;&gt;Node22 -->
<g id="edge50" class="edge">
<title>Node32&#45;&gt;Node22</title>
<path fill="none" stroke="#63b8ff" d="M260.14,-439.62C260.53,-417.22 264.9,-358.2 299.2,-330 347.46,-290.32 537.56,-285.44 619.87,-285.23"/>
<polygon fill="#63b8ff" stroke="#63b8ff" points="619.69,-288.73 629.69,-285.23 619.69,-281.73 619.69,-288.73"/>
</g>
<!-- Node33&#45;&gt;Node8 -->
<g id="edge54" class="edge">
<title>Node33&#45;&gt;Node8</title>
<path fill="none" stroke="#63b8ff" d="M738.19,-439.56C808.86,-412.3 1029.5,-328.8 1217.2,-275 1264.97,-261.31 1320.29,-248.96 1359.6,-240.76"/>
<polygon fill="#63b8ff" stroke="#63b8ff" points="1360.18,-244.21 1369.27,-238.76 1358.77,-237.36 1360.18,-244.21"/>
</g>
<!-- Node33&#45;&gt;Node9 -->
<g id="edge53" class="edge">
<title>Node33&#45;&gt;Node9</title>
<path fill="none" stroke="#63b8ff" d="M681,-441.59C590.59,-422.86 338.42,-367.52 137.2,-294 83.23,-274.28 58.6,-281.74 20.2,-239 2.92,-219.76 5.48,-209.51 1.2,-184 -6.1,-140.54 26.53,-126.97 67.2,-110 142.93,-78.4 390.24,-68.93 488.96,-66.36"/>
<polygon fill="#63b8ff" stroke="#63b8ff" points="488.81,-69.87 498.72,-66.12 488.64,-62.87 488.81,-69.87"/>
</g>
<!-- Node33&#45;&gt;Node12 -->
<g id="edge79" class="edge">
<title>Node33&#45;&gt;Node12</title>
<path fill="none" stroke="#63b8ff" d="M717.84,-439.63C723.06,-421.3 734.2,-377.81 734.2,-340.5 734.2,-340.5 734.2,-340.5 734.2,-283.5 734.2,-234.83 788.53,-204.26 827.74,-188.53"/>
<polygon fill="#63b8ff" stroke="#63b8ff" points="828.83,-191.86 836.93,-185.02 826.34,-185.32 828.83,-191.86"/>
</g>
<!-- Node33&#45;&gt;Node22 -->
<g id="edge55" class="edge">
<title>Node33&#45;&gt;Node22</title>
<path fill="none" stroke="#63b8ff" d="M712.14,-439.74C703.28,-414.42 677.51,-340.72 665.07,-305.16"/>
<polygon fill="#63b8ff" stroke="#63b8ff" points="668.38,-304.02 661.78,-295.74 661.78,-306.33 668.38,-304.02"/>
</g>
<!-- Node33&#45;&gt;Node24 -->
<g id="edge80" class="edge">
<title>Node33&#45;&gt;Node24</title>
<path fill="none" stroke="#63b8ff" d="M694.86,-439.57C603.87,-399.64 233.89,-237.25 124.07,-189.05"/>
<polygon fill="#63b8ff" stroke="#63b8ff" points="125.65,-185.92 115.09,-185.11 122.84,-192.33 125.65,-185.92"/>
</g>
<!-- Node33&#45;&gt;Node28 -->
<g id="edge52" class="edge">
<title>Node33&#45;&gt;Node28</title>
<path fill="none" stroke="#63b8ff" d="M749.61,-446.68C1000.87,-433.03 2546.56,-342.89 2670.2,-184 2675.39,-177.34 2675.61,-171.49 2670.2,-165 2644.98,-134.75 2530.87,-125 2468.4,-121.9"/>
<polygon fill="#63b8ff" stroke="#63b8ff" points="2468.66,-118.41 2458.52,-121.45 2468.35,-125.41 2468.66,-118.41"/>
</g>
<!-- Node33&#45;&gt;Node29 -->
<g id="edge56" class="edge">
<title>Node33&#45;&gt;Node29</title>
<path fill="none" stroke="#63b8ff" d="M702.02,-439.73C643.11,-400.5 403.49,-240.95 328.05,-190.72"/>
<polygon fill="#63b8ff" stroke="#63b8ff" points="330.06,-187.85 319.79,-185.22 326.18,-193.67 330.06,-187.85"/>
</g>
<!-- Node33&#45;&gt;Node34 -->
<g id="edge57" class="edge">
<title>Node33&#45;&gt;Node34</title>
<path fill="none" stroke="#63b8ff" d="M749.63,-448.11C966.54,-445.61 2146.21,-430.9 2506.2,-404 2511.21,-403.63 2516.41,-403.14 2521.61,-402.6"/>
<polygon fill="#63b8ff" stroke="#63b8ff" points="2521.86,-406.09 2531.41,-401.5 2521.08,-399.14 2521.86,-406.09"/>
</g>
<!-- Node40 -->
<g id="node40" class="node">
<title>Node40</title>
<g id="a_node40"><a xlink:href="PlayerCollidable_8h.html" target="_top" xlink:title=" ">
<polygon fill="white" stroke="#666666" points="1281.7,-404 1176.7,-404 1176.7,-385 1281.7,-385 1281.7,-404"/>
<text text-anchor="middle" x="1229.2" y="-392" font-family="Helvetica,sans-Serif" font-size="10.00">PlayerCollidable.h</text>
</a>
</g>
</g>
<!-- Node33&#45;&gt;Node40 -->
<g id="edge77" class="edge">
<title>Node33&#45;&gt;Node40</title>
<path fill="none" stroke="#63b8ff" d="M749.32,-444.98C834.1,-436.24 1055.39,-413.42 1165.32,-402.09"/>
<polygon fill="#63b8ff" stroke="#63b8ff" points="1165.46,-405.59 1175.05,-401.08 1164.74,-398.63 1165.46,-405.59"/>
</g>
<!-- Node34&#45;&gt;Node6 -->
<g id="edge76" class="edge">
<title>Node34&#45;&gt;Node6</title>
<path fill="none" stroke="#63b8ff" d="M2615.67,-392.07C2681.66,-387.33 2803.2,-367.48 2803.2,-285.5 2803.2,-285.5 2803.2,-285.5 2803.2,-118.5 2803.2,-59.17 2727.78,-30.75 2678.61,-18.53"/>
<polygon fill="#63b8ff" stroke="#63b8ff" points="2679.66,-15.18 2669.12,-16.31 2678.06,-22 2679.66,-15.18"/>
</g>
<!-- Node34&#45;&gt;Node10 -->
<g id="edge73" class="edge">
<title>Node34&#45;&gt;Node10</title>
<path fill="none" stroke="#63b8ff" d="M2615.64,-388.57C2671.82,-379.32 2765.2,-353.69 2765.2,-285.5 2765.2,-285.5 2765.2,-285.5 2765.2,-173.5 2765.2,-109.08 2560.59,-81.05 2451.65,-70.69"/>
<polygon fill="#63b8ff" stroke="#63b8ff" points="2452.24,-67.23 2441.96,-69.8 2451.6,-74.2 2452.24,-67.23"/>
</g>
<!-- Node34&#45;&gt;Node12 -->
<g id="edge74" class="edge">
<title>Node34&#45;&gt;Node12</title>
<path fill="none" stroke="#63b8ff" d="M2532.87,-388.24C2378.54,-368.61 1821.41,-297.72 1362.2,-239 1215.05,-220.18 1043.31,-198.13 945.69,-185.59"/>
<polygon fill="#63b8ff" stroke="#63b8ff" points="946.32,-182.14 935.95,-184.34 945.43,-189.08 946.32,-182.14"/>
</g>
<!-- Node34&#45;&gt;Node18 -->
<g id="edge75" class="edge">
<title>Node34&#45;&gt;Node18</title>
<path fill="none" stroke="#63b8ff" d="M2574.81,-384.68C2577.02,-352.57 2584.67,-241.33 2587.82,-195.49"/>
<polygon fill="#63b8ff" stroke="#63b8ff" points="2591.3,-195.91 2588.5,-185.7 2584.32,-195.43 2591.3,-195.91"/>
</g>
<!-- Node34&#45;&gt;Node28 -->
<g id="edge58" class="edge">
<title>Node34&#45;&gt;Node28</title>
<path fill="none" stroke="#63b8ff" d="M2612.02,-384.54C2657.33,-371.3 2727.2,-341.75 2727.2,-285.5 2727.2,-285.5 2727.2,-285.5 2727.2,-228.5 2727.2,-198.33 2726.57,-184.08 2703.2,-165 2667.93,-136.2 2536.08,-125.71 2468.18,-122.16"/>
<polygon fill="#63b8ff" stroke="#63b8ff" points="2468.74,-118.69 2458.58,-121.69 2468.4,-125.68 2468.74,-118.69"/>
</g>
<!-- Node35 -->
<g id="node35" class="node">
<title>Node35</title>
<g id="a_node35"><a xlink:href="Player_8h.html" target="_top" xlink:title=" ">
<polygon fill="white" stroke="#666666" points="1280.2,-349 1224.2,-349 1224.2,-330 1280.2,-330 1280.2,-349"/>
<text text-anchor="middle" x="1252.2" y="-337" font-family="Helvetica,sans-Serif" font-size="10.00">Player.h</text>
</a>
</g>
</g>
<!-- Node34&#45;&gt;Node35 -->
<g id="edge59" class="edge">
<title>Node34&#45;&gt;Node35</title>
<path fill="none" stroke="#63b8ff" d="M2532.82,-391.84C2334.9,-383.91 1486.46,-349.89 1292.01,-342.1"/>
<polygon fill="#63b8ff" stroke="#63b8ff" points="1292.32,-338.61 1282.18,-341.7 1292.04,-345.6 1292.32,-338.61"/>
</g>
<!-- Node35&#45;&gt;Node8 -->
<g id="edge63" class="edge">
<title>Node35&#45;&gt;Node8</title>
<path fill="none" stroke="#63b8ff" d="M1265.21,-329.66C1292.23,-311.31 1354.71,-268.87 1388.51,-245.91"/>
<polygon fill="#63b8ff" stroke="#63b8ff" points="1390.45,-248.82 1396.76,-240.31 1386.52,-243.03 1390.45,-248.82"/>
</g>
<!-- Node35&#45;&gt;Node9 -->
<g id="edge62" class="edge">
<title>Node35&#45;&gt;Node9</title>
<path fill="none" stroke="#63b8ff" d="M1223.71,-330.35C1193.82,-321.71 1145.53,-307.47 1104.2,-294 964,-248.31 926.97,-241.53 791.2,-184 773.81,-176.63 770.27,-173.07 753.2,-165 685.33,-132.91 604.65,-97.6 561.36,-78.89"/>
<polygon fill="#63b8ff" stroke="#63b8ff" points="562.9,-75.74 552.33,-74.99 560.12,-82.17 562.9,-75.74"/>
</g>
<!-- Node35&#45;&gt;Node12 -->
<g id="edge71" class="edge">
<title>Node35&#45;&gt;Node12</title>
<path fill="none" stroke="#63b8ff" d="M1230.95,-329.5C1166.8,-302.34 974.8,-221.05 898.73,-188.85"/>
<polygon fill="#63b8ff" stroke="#63b8ff" points="900.35,-185.73 889.78,-185.06 897.62,-192.18 900.35,-185.73"/>
</g>
<!-- Node35&#45;&gt;Node18 -->
<g id="edge72" class="edge">
<title>Node35&#45;&gt;Node18</title>
<path fill="none" stroke="#63b8ff" d="M1280.3,-338.7C1410.28,-339.07 1965.61,-334.69 2407.2,-239 2462.03,-227.12 2523.11,-203.56 2558.73,-188.72"/>
<polygon fill="#63b8ff" stroke="#63b8ff" points="2559.68,-192.12 2567.54,-185.01 2556.96,-185.67 2559.68,-192.12"/>
</g>
<!-- Node35&#45;&gt;Node22 -->
<g id="edge61" class="edge">
<title>Node35&#45;&gt;Node22</title>
<path fill="none" stroke="#63b8ff" d="M1223.95,-335.98C1126.85,-327.32 806.7,-298.75 696.14,-288.89"/>
<polygon fill="#63b8ff" stroke="#63b8ff" points="696.69,-285.42 686.42,-288.02 696.07,-292.39 696.69,-285.42"/>
</g>
<!-- Node36 -->
<g id="node36" class="node">
<title>Node36</title>
<g id="a_node36"><a xlink:href="Effect_8h.html" target="_top" xlink:title=" ">
<polygon fill="white" stroke="#666666" points="1278.7,-294 1225.7,-294 1225.7,-275 1278.7,-275 1278.7,-294"/>
<text text-anchor="middle" x="1252.2" y="-282" font-family="Helvetica,sans-Serif" font-size="10.00">Effect.h</text>
</a>
</g>
</g>
<!-- Node35&#45;&gt;Node36 -->
<g id="edge60" class="edge">
<title>Node35&#45;&gt;Node36</title>
<path fill="none" stroke="#63b8ff" d="M1252.2,-329.75C1252.2,-323.27 1252.2,-314.16 1252.2,-305.9"/>
<polygon fill="#63b8ff" stroke="#63b8ff" points="1255.7,-305.96 1252.2,-295.96 1248.7,-305.96 1255.7,-305.96"/>
</g>
<!-- Node37 -->
<g id="node37" class="node">
<title>Node37</title>
<g id="a_node37"><a xlink:href="Effects_8h.html" target="_top" xlink:title=" ">
<polygon fill="white" stroke="#666666" points="2360.7,-239 2301.7,-239 2301.7,-220 2360.7,-220 2360.7,-239"/>
<text text-anchor="middle" x="2331.2" y="-227" font-family="Helvetica,sans-Serif" font-size="10.00">Effects.h</text>
</a>
</g>
</g>
<!-- Node35&#45;&gt;Node37 -->
<g id="edge64" class="edge">
<title>Node35&#45;&gt;Node37</title>
<path fill="none" stroke="#63b8ff" d="M1280.51,-335.67C1428.64,-320.84 2114.51,-252.19 2290.14,-234.61"/>
<polygon fill="#63b8ff" stroke="#63b8ff" points="2290.32,-238.11 2299.92,-233.63 2289.62,-231.14 2290.32,-238.11"/>
</g>
<!-- Node37&#45;&gt;Node9 -->
<g id="edge66" class="edge">
<title>Node37&#45;&gt;Node9</title>
<path fill="none" stroke="#63b8ff" d="M2329.78,-219.69C2326.96,-205.43 2319.21,-177.63 2300.2,-165 2151.78,-66.4 823.43,-64.77 571.39,-65.35"/>
<polygon fill="#63b8ff" stroke="#63b8ff" points="571.38,-61.85 561.39,-65.38 571.4,-68.85 571.38,-61.85"/>
</g>
<!-- Node37&#45;&gt;Node18 -->
<g id="edge69" class="edge">
<title>Node37&#45;&gt;Node18</title>
<path fill="none" stroke="#63b8ff" d="M2361.05,-222.37C2403.31,-213.69 2481.33,-197.66 2534.23,-186.79"/>
<polygon fill="#63b8ff" stroke="#63b8ff" points="2534.88,-190.23 2543.97,-184.79 2533.47,-183.38 2534.88,-190.23"/>
</g>
<!-- Node37&#45;&gt;Node19 -->
<g id="edge68" class="edge">
<title>Node37&#45;&gt;Node19</title>
<path fill="none" stroke="#63b8ff" d="M2326.61,-219.94C2318.33,-205.53 2299.41,-176.83 2274.2,-165 2171.46,-116.78 1350.13,-118.99 1156.84,-120.19"/>
<polygon fill="#63b8ff" stroke="#63b8ff" points="1157.02,-116.69 1147.05,-120.26 1157.07,-123.69 1157.02,-116.69"/>
</g>
<!-- Node37&#45;&gt;Node26 -->
<g id="edge70" class="edge">
<title>Node37&#45;&gt;Node26</title>
<path fill="none" stroke="#63b8ff" d="M2301.3,-228.15C2144.33,-226.21 1399.55,-215.65 791.2,-184 779.66,-183.4 767.47,-182.63 755.53,-181.79"/>
<polygon fill="#63b8ff" stroke="#63b8ff" points="755.93,-178.31 745.7,-181.09 755.43,-185.3 755.93,-178.31"/>
</g>
<!-- Node38 -->
<g id="node38" class="node">
<title>Node38</title>
<g id="a_node38"><a xlink:title=" ">
<polygon fill="#e0e0e0" stroke="#999999" points="2499.2,-184 2435.2,-184 2435.2,-165 2499.2,-165 2499.2,-184"/>
<text text-anchor="middle" x="2467.2" y="-172" font-family="Helvetica,sans-Serif" font-size="10.00">algorithm</text>
</a>
</g>
</g>
<!-- Node37&#45;&gt;Node38 -->
<g id="edge65" class="edge">
<title>Node37&#45;&gt;Node38</title>
<path fill="none" stroke="#63b8ff" d="M2354.27,-219.51C2376.09,-211.01 2409.08,-198.15 2433.78,-188.53"/>
<polygon fill="#63b8ff" stroke="#63b8ff" points="2435.01,-191.8 2443.06,-184.91 2432.47,-185.28 2435.01,-191.8"/>
</g>
<!-- Node37&#45;&gt;Node39 -->
<g id="edge67" class="edge">
<title>Node37&#45;&gt;Node39</title>
<path fill="none" stroke="#63b8ff" d="M2361,-225.54C2450.07,-216.68 2714.62,-190.37 2820.08,-179.89"/>
<polygon fill="#63b8ff" stroke="#63b8ff" points="2820.14,-183.4 2829.75,-178.93 2819.45,-176.43 2820.14,-183.4"/>
</g>
<!-- Node40&#45;&gt;Node35 -->
<g id="edge78" class="edge">
<title>Node40&#45;&gt;Node35</title>
<path fill="none" stroke="#63b8ff" d="M1233,-384.75C1235.94,-377.96 1240.14,-368.3 1243.85,-359.73"/>
<polygon fill="#63b8ff" stroke="#63b8ff" points="1246.95,-361.4 1247.72,-350.83 1240.53,-358.61 1246.95,-361.4"/>
</g>
</g>
</svg>
