<?xml version="1.0" encoding="UTF-8" standalone="no"?>
<!DOCTYPE svg PUBLIC "-//W3C//DTD SVG 1.1//EN"
 "http://www.w3.org/Graphics/SVG/1.1/DTD/svg11.dtd">
<!-- Generated by graphviz version 7.0.5 (0)
 -->
<!-- Title: src/World.h Pages: 1 -->
<svg width="2909pt" height="412pt"
 viewBox="0.00 0.00 2909.36 412.00" xmlns="http://www.w3.org/2000/svg" xmlns:xlink="http://www.w3.org/1999/xlink">
<g id="graph0" class="graph" transform="scale(1 1) rotate(0) translate(4 408)">
<title>src/World.h</title>
<!-- Node1 -->
<g id="node1" class="node">
<title>Node1</title>
<g id="a_node1"><a xlink:title=" ">
<polygon fill="#999999" stroke="#666666" points="2004.86,-404 1933.86,-404 1933.86,-385 2004.86,-385 2004.86,-404"/>
<text text-anchor="middle" x="1969.36" y="-392" font-family="Helvetica,sans-Serif" font-size="10.00">src/World.h</text>
</a>
</g>
</g>
<!-- Node2 -->
<g id="node2" class="node">
<title>Node2</title>
<g id="a_node2"><a xlink:href="Level_8h.html" target="_top" xlink:title=" ">
<polygon fill="white" stroke="#666666" points="176.36,-294 124.36,-294 124.36,-275 176.36,-275 176.36,-294"/>
<text text-anchor="middle" x="150.36" y="-282" font-family="Helvetica,sans-Serif" font-size="10.00">Level.h</text>
</a>
</g>
</g>
<!-- Node1&#45;&gt;Node2 -->
<g id="edge1" class="edge">
<title>Node1&#45;&gt;Node2</title>
<path fill="none" stroke="#63b8ff" d="M1933.43,-391.37C1702.11,-377.63 424.67,-301.79 188.07,-287.74"/>
<polygon fill="#63b8ff" stroke="#63b8ff" points="188.38,-284.25 178.19,-287.15 187.96,-291.24 188.38,-284.25"/>
</g>
<!-- Node3 -->
<g id="node3" class="node">
<title>Node3</title>
<g id="a_node3"><a xlink:title=" ">
<polygon fill="#e0e0e0" stroke="#999999" points="1766.86,-184 1623.86,-184 1623.86,-165 1766.86,-165 1766.86,-184"/>
<text text-anchor="middle" x="1695.36" y="-172" font-family="Helvetica,sans-Serif" font-size="10.00">SFML/System/Vector2.hpp</text>
</a>
</g>
</g>
<!-- Node1&#45;&gt;Node3 -->
<g id="edge63" class="edge">
<title>Node1&#45;&gt;Node3</title>
<path fill="none" stroke="#63b8ff" d="M1984.73,-384.67C2016.82,-365.09 2085.62,-316.52 2056.36,-275 2024.35,-229.57 1874.06,-200.44 1777.77,-186.1"/>
<polygon fill="#63b8ff" stroke="#63b8ff" points="1778.5,-182.67 1768.1,-184.69 1777.48,-189.6 1778.5,-182.67"/>
</g>
<!-- Node7 -->
<g id="node7" class="node">
<title>Node7</title>
<g id="a_node7"><a xlink:href="SceneNode_8h.html" target="_top" xlink:title=" ">
<polygon fill="white" stroke="#666666" points="1311.36,-239 1231.36,-239 1231.36,-220 1311.36,-220 1311.36,-239"/>
<text text-anchor="middle" x="1271.36" y="-227" font-family="Helvetica,sans-Serif" font-size="10.00">SceneNode.h</text>
</a>
</g>
</g>
<!-- Node1&#45;&gt;Node7 -->
<g id="edge61" class="edge">
<title>Node1&#45;&gt;Node7</title>
<path fill="none" stroke="#63b8ff" d="M1933.58,-386.04C1892.44,-377.4 1822.93,-362.61 1763.36,-349 1599.62,-311.6 1406.07,-263.98 1318.54,-242.26"/>
<polygon fill="#63b8ff" stroke="#63b8ff" points="1319.42,-238.87 1308.87,-239.85 1317.73,-245.66 1319.42,-238.87"/>
</g>
<!-- Node10 -->
<g id="node10" class="node">
<title>Node10</title>
<g id="a_node10"><a xlink:title=" ">
<polygon fill="#e0e0e0" stroke="#999999" points="2901.36,-184 2767.36,-184 2767.36,-165 2901.36,-165 2901.36,-184"/>
<text text-anchor="middle" x="2834.36" y="-172" font-family="Helvetica,sans-Serif" font-size="10.00">SFML/Graphics/Rect.hpp</text>
</a>
</g>
</g>
<!-- Node1&#45;&gt;Node10 -->
<g id="edge62" class="edge">
<title>Node1&#45;&gt;Node10</title>
<path fill="none" stroke="#63b8ff" d="M2004.88,-384.55C2141.66,-350.08 2634.27,-225.93 2788.12,-187.15"/>
<polygon fill="#63b8ff" stroke="#63b8ff" points="2788.71,-190.61 2797.55,-184.78 2787,-183.83 2788.71,-190.61"/>
</g>
<!-- Node21 -->
<g id="node21" class="node">
<title>Node21</title>
<g id="a_node21"><a xlink:href="Player_8h.html" target="_top" xlink:title=" ">
<polygon fill="white" stroke="#666666" points="1828.36,-349 1772.36,-349 1772.36,-330 1828.36,-330 1828.36,-349"/>
<text text-anchor="middle" x="1800.36" y="-337" font-family="Helvetica,sans-Serif" font-size="10.00">Player.h</text>
</a>
</g>
</g>
<!-- Node1&#45;&gt;Node21 -->
<g id="edge24" class="edge">
<title>Node1&#45;&gt;Node21</title>
<path fill="none" stroke="#63b8ff" d="M1940.69,-384.51C1912.85,-375.78 1870.36,-362.45 1839.43,-352.75"/>
<polygon fill="#63b8ff" stroke="#63b8ff" points="1840.64,-349.46 1830.05,-349.81 1838.54,-356.14 1840.64,-349.46"/>
</g>
<!-- Node35 -->
<g id="node35" class="node">
<title>Node35</title>
<g id="a_node35"><a xlink:title=" ">
<polygon fill="#e0e0e0" stroke="#999999" points="2598.36,-349 2566.36,-349 2566.36,-330 2598.36,-330 2598.36,-349"/>
<text text-anchor="middle" x="2582.36" y="-337" font-family="Helvetica,sans-Serif" font-size="10.00">list</text>
</a>
</g>
</g>
<!-- Node1&#45;&gt;Node35 -->
<g id="edge64" class="edge">
<title>Node1&#45;&gt;Node35</title>
<path fill="none" stroke="#63b8ff" d="M2005.16,-393.25C2096.88,-392.06 2347.49,-385.46 2552.36,-349 2553.2,-348.85 2554.05,-348.69 2554.91,-348.51"/>
<polygon fill="#63b8ff" stroke="#63b8ff" points="2555.65,-351.93 2564.52,-346.14 2553.98,-345.14 2555.65,-351.93"/>
</g>
<!-- Node2&#45;&gt;Node3 -->
<g id="edge2" class="edge">
<title>Node2&#45;&gt;Node3</title>
<path fill="none" stroke="#63b8ff" d="M176.81,-283.76C303.9,-284.75 864.41,-286.07 1320.36,-239 1435.86,-227.08 1569.62,-201.57 1642.06,-186.77"/>
<polygon fill="#63b8ff" stroke="#63b8ff" points="1642.57,-190.24 1651.66,-184.8 1641.16,-183.38 1642.57,-190.24"/>
</g>
<!-- Node4 -->
<g id="node4" class="node">
<title>Node4</title>
<g id="a_node4"><a xlink:title=" ">
<polygon fill="#e0e0e0" stroke="#999999" points="84.36,-239 28.36,-239 28.36,-220 84.36,-220 84.36,-239"/>
<text text-anchor="middle" x="56.36" y="-227" font-family="Helvetica,sans-Serif" font-size="10.00">assert.h</text>
</a>
</g>
</g>
<!-- Node2&#45;&gt;Node4 -->
<g id="edge3" class="edge">
<title>Node2&#45;&gt;Node4</title>
<path fill="none" stroke="#63b8ff" d="M134.42,-274.51C120.01,-266.39 98.57,-254.3 81.8,-244.85"/>
<polygon fill="#63b8ff" stroke="#63b8ff" points="83.82,-241.96 73.39,-240.1 80.38,-248.06 83.82,-241.96"/>
</g>
<!-- Node5 -->
<g id="node5" class="node">
<title>Node5</title>
<g id="a_node5"><a xlink:title=" ">
<polygon fill="#e0e0e0" stroke="#999999" points="84.36,-19 30.36,-19 30.36,0 84.36,0 84.36,-19"/>
<text text-anchor="middle" x="57.36" y="-7" font-family="Helvetica,sans-Serif" font-size="10.00">random</text>
</a>
</g>
</g>
<!-- Node2&#45;&gt;Node5 -->
<g id="edge4" class="edge">
<title>Node2&#45;&gt;Node5</title>
<path fill="none" stroke="#63b8ff" d="M123.96,-281.58C94.46,-278.02 47.2,-267.88 19.36,-239 -1.08,-217.79 0.36,-204.96 0.36,-175.5 0.36,-175.5 0.36,-175.5 0.36,-118.5 0.36,-83.18 24.51,-48.09 41.37,-27.89"/>
<polygon fill="#63b8ff" stroke="#63b8ff" points="43.78,-30.45 47.71,-20.61 38.5,-25.85 43.78,-30.45"/>
</g>
<!-- Node6 -->
<g id="node6" class="node">
<title>Node6</title>
<g id="a_node6"><a xlink:href="Enums_8h.html" target="_top" xlink:title=" ">
<polygon fill="white" stroke="#666666" points="1921.86,-74 1862.86,-74 1862.86,-55 1921.86,-55 1921.86,-74"/>
<text text-anchor="middle" x="1892.36" y="-62" font-family="Helvetica,sans-Serif" font-size="10.00">Enums.h</text>
</a>
</g>
</g>
<!-- Node2&#45;&gt;Node6 -->
<g id="edge5" class="edge">
<title>Node2&#45;&gt;Node6</title>
<path fill="none" stroke="#63b8ff" d="M151.56,-274.7C155.19,-251.96 168.3,-191.19 207.36,-165 347.9,-70.76 1606.43,-65.58 1851.21,-65.46"/>
<polygon fill="#63b8ff" stroke="#63b8ff" points="1850.9,-68.96 1860.9,-65.46 1850.9,-61.96 1850.9,-68.96"/>
</g>
<!-- Node2&#45;&gt;Node7 -->
<g id="edge6" class="edge">
<title>Node2&#45;&gt;Node7</title>
<path fill="none" stroke="#63b8ff" d="M176.69,-282.26C321.56,-275.41 1022.11,-242.28 1219.5,-232.95"/>
<polygon fill="#63b8ff" stroke="#63b8ff" points="1219.62,-236.45 1229.44,-232.48 1219.29,-229.46 1219.62,-236.45"/>
</g>
<!-- Node20 -->
<g id="node20" class="node">
<title>Node20</title>
<g id="a_node20"><a xlink:href="Random_8h.html" target="_top" xlink:title=" ">
<polygon fill="white" stroke="#666666" points="153.36,-74 87.36,-74 87.36,-55 153.36,-55 153.36,-74"/>
<text text-anchor="middle" x="120.36" y="-62" font-family="Helvetica,sans-Serif" font-size="10.00">Random.h</text>
</a>
</g>
</g>
<!-- Node2&#45;&gt;Node20 -->
<g id="edge21" class="edge">
<title>Node2&#45;&gt;Node20</title>
<path fill="none" stroke="#63b8ff" d="M147.01,-274.78C143.75,-265.91 138.91,-251.7 136.36,-239 125.36,-184.26 121.9,-118.27 120.83,-85.7"/>
<polygon fill="#63b8ff" stroke="#63b8ff" points="124.33,-85.67 120.55,-75.77 117.34,-85.87 124.33,-85.67"/>
</g>
<!-- Node7&#45;&gt;Node3 -->
<g id="edge16" class="edge">
<title>Node7&#45;&gt;Node3</title>
<path fill="none" stroke="#63b8ff" d="M1311.63,-223.47C1380.32,-214.88 1521.48,-197.24 1612.11,-185.91"/>
<polygon fill="#63b8ff" stroke="#63b8ff" points="1612.46,-189.39 1621.95,-184.68 1611.59,-182.44 1612.46,-189.39"/>
</g>
<!-- Node7&#45;&gt;Node6 -->
<g id="edge7" class="edge">
<title>Node7&#45;&gt;Node6</title>
<path fill="none" stroke="#63b8ff" d="M1311.78,-220.22C1363.8,-209.39 1449.1,-190.98 1462.36,-184 1505.51,-161.28 1499.11,-130.48 1543.36,-110 1597.38,-84.99 1771.46,-72.27 1851.46,-67.62"/>
<polygon fill="#63b8ff" stroke="#63b8ff" points="1851.26,-71.14 1861.04,-67.08 1850.86,-64.15 1851.26,-71.14"/>
</g>
<!-- Node8 -->
<g id="node8" class="node">
<title>Node8</title>
<g id="a_node8"><a xlink:title=" ">
<polygon fill="#e0e0e0" stroke="#999999" points="2148.36,-74 2038.36,-74 2038.36,-55 2148.36,-55 2148.36,-74"/>
<text text-anchor="middle" x="2093.36" y="-62" font-family="Helvetica,sans-Serif" font-size="10.00">SFML/Graphics.hpp</text>
</a>
</g>
</g>
<!-- Node7&#45;&gt;Node8 -->
<g id="edge8" class="edge">
<title>Node7&#45;&gt;Node8</title>
<path fill="none" stroke="#63b8ff" d="M1311.56,-220.7C1369.58,-209.38 1471.69,-189.17 1488.36,-184 1509.1,-177.57 1512.54,-171.16 1533.36,-165 1707.63,-113.44 1920.76,-84.59 2026.81,-72.44"/>
<polygon fill="#63b8ff" stroke="#63b8ff" points="2026.92,-75.95 2036.46,-71.35 2026.13,-69 2026.92,-75.95"/>
</g>
<!-- Node9 -->
<g id="node9" class="node">
<title>Node9</title>
<g id="a_node9"><a xlink:title=" ">
<polygon fill="#e0e0e0" stroke="#999999" points="1256.86,-184 1097.86,-184 1097.86,-165 1256.86,-165 1256.86,-184"/>
<text text-anchor="middle" x="1177.36" y="-172" font-family="Helvetica,sans-Serif" font-size="10.00">SFML/Graphics/Drawable.hpp</text>
</a>
</g>
</g>
<!-- Node7&#45;&gt;Node9 -->
<g id="edge9" class="edge">
<title>Node7&#45;&gt;Node9</title>
<path fill="none" stroke="#63b8ff" d="M1255.42,-219.51C1241.01,-211.39 1219.57,-199.3 1202.8,-189.85"/>
<polygon fill="#63b8ff" stroke="#63b8ff" points="1204.82,-186.96 1194.39,-185.1 1201.38,-193.06 1204.82,-186.96"/>
</g>
<!-- Node7&#45;&gt;Node10 -->
<g id="edge10" class="edge">
<title>Node7&#45;&gt;Node10</title>
<path fill="none" stroke="#63b8ff" d="M1311.65,-227.74C1516.24,-223.81 2442.31,-205.2 2755.91,-184.09"/>
<polygon fill="#63b8ff" stroke="#63b8ff" points="2756.01,-187.59 2765.74,-183.41 2755.52,-180.61 2756.01,-187.59"/>
</g>
<!-- Node11 -->
<g id="node11" class="node">
<title>Node11</title>
<g id="a_node11"><a xlink:title=" ">
<polygon fill="#e0e0e0" stroke="#999999" points="1453.36,-184 1275.36,-184 1275.36,-165 1453.36,-165 1453.36,-184"/>
<text text-anchor="middle" x="1364.36" y="-172" font-family="Helvetica,sans-Serif" font-size="10.00">SFML/Graphics/RenderStates.hpp</text>
</a>
</g>
</g>
<!-- Node7&#45;&gt;Node11 -->
<g id="edge11" class="edge">
<title>Node7&#45;&gt;Node11</title>
<path fill="none" stroke="#63b8ff" d="M1287.14,-219.51C1301.39,-211.39 1322.6,-199.3 1339.19,-189.85"/>
<polygon fill="#63b8ff" stroke="#63b8ff" points="1340.55,-193.1 1347.5,-185.11 1337.08,-187.02 1340.55,-193.1"/>
</g>
<!-- Node12 -->
<g id="node12" class="node">
<title>Node12</title>
<g id="a_node12"><a xlink:title=" ">
<polygon fill="#e0e0e0" stroke="#999999" points="393.86,-184 216.86,-184 216.86,-165 393.86,-165 393.86,-184"/>
<text text-anchor="middle" x="305.36" y="-172" font-family="Helvetica,sans-Serif" font-size="10.00">SFML/Graphics/RenderTarget.hpp</text>
</a>
</g>
</g>
<!-- Node7&#45;&gt;Node12 -->
<g id="edge12" class="edge">
<title>Node7&#45;&gt;Node12</title>
<path fill="none" stroke="#63b8ff" d="M1231.05,-226.96C1108.62,-222.16 730.11,-206.5 405.21,-184.17"/>
<polygon fill="#63b8ff" stroke="#63b8ff" points="405.88,-180.71 395.67,-183.52 405.4,-187.7 405.88,-180.71"/>
</g>
<!-- Node13 -->
<g id="node13" class="node">
<title>Node13</title>
<g id="a_node13"><a xlink:title=" ">
<polygon fill="#e0e0e0" stroke="#999999" points="572.86,-184 411.86,-184 411.86,-165 572.86,-165 572.86,-184"/>
<text text-anchor="middle" x="492.36" y="-172" font-family="Helvetica,sans-Serif" font-size="10.00">SFML/Graphics/Transform.hpp</text>
</a>
</g>
</g>
<!-- Node7&#45;&gt;Node13 -->
<g id="edge13" class="edge">
<title>Node7&#45;&gt;Node13</title>
<path fill="none" stroke="#63b8ff" d="M1230.95,-226.31C1126.21,-220.54 837.15,-204.06 584.55,-184.15"/>
<polygon fill="#63b8ff" stroke="#63b8ff" points="585.06,-180.68 574.81,-183.38 584.51,-187.66 585.06,-180.68"/>
</g>
<!-- Node14 -->
<g id="node14" class="node">
<title>Node14</title>
<g id="a_node14"><a xlink:title=" ">
<polygon fill="#e0e0e0" stroke="#999999" points="773.36,-184 591.36,-184 591.36,-165 773.36,-165 773.36,-184"/>
<text text-anchor="middle" x="682.36" y="-172" font-family="Helvetica,sans-Serif" font-size="10.00">SFML/Graphics/Transformable.hpp</text>
</a>
</g>
</g>
<!-- Node7&#45;&gt;Node14 -->
<g id="edge14" class="edge">
<title>Node7&#45;&gt;Node14</title>
<path fill="none" stroke="#63b8ff" d="M1230.88,-224.86C1139.9,-216.67 916.93,-196.61 784.98,-184.73"/>
<polygon fill="#63b8ff" stroke="#63b8ff" points="785.46,-181.26 775.18,-183.85 784.83,-188.23 785.46,-181.26"/>
</g>
<!-- Node15 -->
<g id="node15" class="node">
<title>Node15</title>
<g id="a_node15"><a xlink:title=" ">
<polygon fill="#e0e0e0" stroke="#999999" points="963.36,-184 791.36,-184 791.36,-165 963.36,-165 963.36,-184"/>
<text text-anchor="middle" x="877.36" y="-172" font-family="Helvetica,sans-Serif" font-size="10.00">SFML/System/NonCopyable.hpp</text>
</a>
</g>
</g>
<!-- Node7&#45;&gt;Node15 -->
<g id="edge15" class="edge">
<title>Node7&#45;&gt;Node15</title>
<path fill="none" stroke="#63b8ff" d="M1231.05,-223.08C1166.42,-214.38 1038.49,-197.18 955.5,-186.01"/>
<polygon fill="#63b8ff" stroke="#63b8ff" points="955.98,-182.54 945.6,-184.68 955.05,-189.48 955.98,-182.54"/>
</g>
<!-- Node16 -->
<g id="node16" class="node">
<title>Node16</title>
<g id="a_node16"><a xlink:title=" ">
<polygon fill="#e0e0e0" stroke="#999999" points="1919.36,-129 1861.36,-129 1861.36,-110 1919.36,-110 1919.36,-129"/>
<text text-anchor="middle" x="1890.36" y="-117" font-family="Helvetica,sans-Serif" font-size="10.00">memory</text>
</a>
</g>
</g>
<!-- Node7&#45;&gt;Node16 -->
<g id="edge17" class="edge">
<title>Node7&#45;&gt;Node16</title>
<path fill="none" stroke="#63b8ff" d="M1311.45,-222.45C1362.96,-214.5 1455.1,-199.7 1533.36,-184 1570.04,-176.64 1578.63,-172.1 1615.36,-165 1717.81,-145.21 1744.6,-147.12 1847.36,-129 1848.34,-128.83 1849.34,-128.65 1850.34,-128.47"/>
<polygon fill="#63b8ff" stroke="#63b8ff" points="1850.58,-131.98 1859.76,-126.7 1849.29,-125.1 1850.58,-131.98"/>
</g>
<!-- Node17 -->
<g id="node17" class="node">
<title>Node17</title>
<g id="a_node17"><a xlink:title=" ">
<polygon fill="#e0e0e0" stroke="#999999" points="1028.86,-184 981.86,-184 981.86,-165 1028.86,-165 1028.86,-184"/>
<text text-anchor="middle" x="1005.36" y="-172" font-family="Helvetica,sans-Serif" font-size="10.00">vector</text>
</a>
</g>
</g>
<!-- Node7&#45;&gt;Node17 -->
<g id="edge18" class="edge">
<title>Node7&#45;&gt;Node17</title>
<path fill="none" stroke="#63b8ff" d="M1231.21,-221.63C1186.92,-213.88 1113.31,-200.47 1040.34,-184.32"/>
<polygon fill="#63b8ff" stroke="#63b8ff" points="1041.11,-180.9 1030.59,-182.14 1039.58,-187.74 1041.11,-180.9"/>
</g>
<!-- Node18 -->
<g id="node18" class="node">
<title>Node18</title>
<g id="a_node18"><a xlink:title=" ">
<polygon fill="#e0e0e0" stroke="#999999" points="1079.36,-184 1047.36,-184 1047.36,-165 1079.36,-165 1079.36,-184"/>
<text text-anchor="middle" x="1063.36" y="-172" font-family="Helvetica,sans-Serif" font-size="10.00">set</text>
</a>
</g>
</g>
<!-- Node7&#45;&gt;Node18 -->
<g id="edge19" class="edge">
<title>Node7&#45;&gt;Node18</title>
<path fill="none" stroke="#63b8ff" d="M1231.11,-219.8C1196.17,-212 1144.05,-199.8 1090.44,-184.41"/>
<polygon fill="#63b8ff" stroke="#63b8ff" points="1091.73,-181.14 1081.15,-181.71 1089.78,-187.86 1091.73,-181.14"/>
</g>
<!-- Node19 -->
<g id="node19" class="node">
<title>Node19</title>
<g id="a_node19"><a xlink:title=" ">
<polygon fill="#e0e0e0" stroke="#999999" points="218.36,-19 158.36,-19 158.36,0 218.36,0 218.36,-19"/>
<text text-anchor="middle" x="188.36" y="-7" font-family="Helvetica,sans-Serif" font-size="10.00">iostream</text>
</a>
</g>
</g>
<!-- Node7&#45;&gt;Node19 -->
<g id="edge20" class="edge">
<title>Node7&#45;&gt;Node19</title>
<path fill="none" stroke="#63b8ff" d="M1230.96,-228.27C1041.12,-227 245.41,-219.57 207.36,-184 164.99,-144.39 175.36,-67 183.29,-30.48"/>
<polygon fill="#63b8ff" stroke="#63b8ff" points="186.67,-31.41 185.56,-20.87 179.85,-29.81 186.67,-31.41"/>
</g>
<!-- Node20&#45;&gt;Node5 -->
<g id="edge22" class="edge">
<title>Node20&#45;&gt;Node5</title>
<path fill="none" stroke="#63b8ff" d="M109.67,-54.51C100.66,-46.93 87.53,-35.88 76.68,-26.75"/>
<polygon fill="#63b8ff" stroke="#63b8ff" points="78.95,-24.09 69.05,-20.33 74.45,-29.45 78.95,-24.09"/>
</g>
<!-- Node20&#45;&gt;Node19 -->
<g id="edge23" class="edge">
<title>Node20&#45;&gt;Node19</title>
<path fill="none" stroke="#63b8ff" d="M131.9,-54.51C141.82,-46.77 156.37,-35.43 168.22,-26.2"/>
<polygon fill="#63b8ff" stroke="#63b8ff" points="170.07,-29.2 175.8,-20.29 165.76,-23.68 170.07,-29.2"/>
</g>
<!-- Node21&#45;&gt;Node3 -->
<g id="edge60" class="edge">
<title>Node21&#45;&gt;Node3</title>
<path fill="none" stroke="#63b8ff" d="M1794.72,-329.74C1778.19,-304.09 1729.68,-228.78 1707.13,-193.78"/>
<polygon fill="#63b8ff" stroke="#63b8ff" points="1710.21,-192.09 1701.85,-185.58 1704.33,-195.88 1710.21,-192.09"/>
</g>
<!-- Node21&#45;&gt;Node6 -->
<g id="edge50" class="edge">
<title>Node21&#45;&gt;Node6</title>
<path fill="none" stroke="#63b8ff" d="M1772.1,-334.13C1738.98,-328.24 1683.05,-315.88 1639.36,-294 1598.15,-273.36 1557.36,-276.59 1557.36,-230.5 1557.36,-230.5 1557.36,-230.5 1557.36,-173.5 1557.36,-112.39 1761.87,-80.84 1851.31,-69.97"/>
<polygon fill="#63b8ff" stroke="#63b8ff" points="1851.61,-73.46 1861.13,-68.8 1850.79,-66.51 1851.61,-73.46"/>
</g>
<!-- Node21&#45;&gt;Node7 -->
<g id="edge51" class="edge">
<title>Node21&#45;&gt;Node7</title>
<path fill="none" stroke="#63b8ff" d="M1791.33,-329.65C1776.09,-315.33 1743.68,-287.45 1710.36,-275 1640.56,-248.91 1423.32,-236.77 1323.04,-232.45"/>
<polygon fill="#63b8ff" stroke="#63b8ff" points="1323.35,-228.96 1313.21,-232.04 1323.05,-235.95 1323.35,-228.96"/>
</g>
<!-- Node21&#45;&gt;Node10 -->
<g id="edge59" class="edge">
<title>Node21&#45;&gt;Node10</title>
<path fill="none" stroke="#63b8ff" d="M1828.64,-336.84C1922.6,-330.82 2232.33,-306.75 2478.36,-239 2499.69,-233.13 2503.03,-225.84 2524.36,-220 2566.66,-208.42 2678.75,-193.77 2755.87,-184.51"/>
<polygon fill="#63b8ff" stroke="#63b8ff" points="2755.96,-188.02 2765.48,-183.36 2755.14,-181.07 2755.96,-188.02"/>
</g>
<!-- Node22 -->
<g id="node22" class="node">
<title>Node22</title>
<g id="a_node22"><a xlink:href="Effect_8h.html" target="_top" xlink:title=" ">
<polygon fill="white" stroke="#666666" points="1700.86,-294 1647.86,-294 1647.86,-275 1700.86,-275 1700.86,-294"/>
<text text-anchor="middle" x="1674.36" y="-282" font-family="Helvetica,sans-Serif" font-size="10.00">Effect.h</text>
</a>
</g>
</g>
<!-- Node21&#45;&gt;Node22 -->
<g id="edge25" class="edge">
<title>Node21&#45;&gt;Node22</title>
<path fill="none" stroke="#63b8ff" d="M1778.99,-329.51C1758.95,-321.08 1728.76,-308.38 1705.95,-298.79"/>
<polygon fill="#63b8ff" stroke="#63b8ff" points="1707.39,-295.6 1696.81,-294.94 1704.68,-302.05 1707.39,-295.6"/>
</g>
<!-- Node23 -->
<g id="node23" class="node">
<title>Node23</title>
<g id="a_node23"><a xlink:href="Entity_8h.html" target="_top" xlink:title=" ">
<polygon fill="white" stroke="#666666" points="2046.86,-294 1993.86,-294 1993.86,-275 2046.86,-275 2046.86,-294"/>
<text text-anchor="middle" x="2020.36" y="-282" font-family="Helvetica,sans-Serif" font-size="10.00">Entity.h</text>
</a>
</g>
</g>
<!-- Node21&#45;&gt;Node23 -->
<g id="edge26" class="edge">
<title>Node21&#45;&gt;Node23</title>
<path fill="none" stroke="#63b8ff" d="M1828.67,-331.68C1867.88,-322.24 1938.79,-305.15 1982.51,-294.62"/>
<polygon fill="#63b8ff" stroke="#63b8ff" points="1983.16,-298.06 1992.06,-292.32 1981.52,-291.26 1983.16,-298.06"/>
</g>
<!-- Node32 -->
<g id="node32" class="node">
<title>Node32</title>
<g id="a_node32"><a xlink:href="Effects_8h.html" target="_top" xlink:title=" ">
<polygon fill="white" stroke="#666666" points="1892.86,-239 1833.86,-239 1833.86,-220 1892.86,-220 1892.86,-239"/>
<text text-anchor="middle" x="1863.36" y="-227" font-family="Helvetica,sans-Serif" font-size="10.00">Effects.h</text>
</a>
</g>
</g>
<!-- Node21&#45;&gt;Node32 -->
<g id="edge52" class="edge">
<title>Node21&#45;&gt;Node32</title>
<path fill="none" stroke="#63b8ff" d="M1805.52,-329.66C1815.72,-312.18 1838.66,-272.84 1852.39,-249.3"/>
<polygon fill="#63b8ff" stroke="#63b8ff" points="1855.36,-251.17 1857.37,-240.77 1849.31,-247.64 1855.36,-251.17"/>
</g>
<!-- Node23&#45;&gt;Node3 -->
<g id="edge49" class="edge">
<title>Node23&#45;&gt;Node3</title>
<path fill="none" stroke="#63b8ff" d="M1993.64,-279.41C1955.55,-273.13 1883.81,-259.63 1825.36,-239 1805.15,-231.86 1754.09,-206.01 1722.31,-189.57"/>
<polygon fill="#63b8ff" stroke="#63b8ff" points="1724.17,-186.6 1713.68,-185.1 1720.95,-192.81 1724.17,-186.6"/>
</g>
<!-- Node23&#45;&gt;Node6 -->
<g id="edge45" class="edge">
<title>Node23&#45;&gt;Node6</title>
<path fill="none" stroke="#63b8ff" d="M2022.66,-274.57C2027.48,-253.98 2036.71,-202.07 2018.36,-165 1998.34,-124.55 1953.24,-95.47 1922.8,-79.55"/>
<polygon fill="#63b8ff" stroke="#63b8ff" points="1924.56,-76.52 1914.06,-75.15 1921.42,-82.78 1924.56,-76.52"/>
</g>
<!-- Node23&#45;&gt;Node7 -->
<g id="edge46" class="edge">
<title>Node23&#45;&gt;Node7</title>
<path fill="none" stroke="#63b8ff" d="M1993.7,-281.61C1884.35,-273.88 1469.02,-244.49 1322.73,-234.13"/>
<polygon fill="#63b8ff" stroke="#63b8ff" points="1323.18,-230.66 1312.95,-233.44 1322.68,-237.64 1323.18,-230.66"/>
</g>
<!-- Node23&#45;&gt;Node10 -->
<g id="edge47" class="edge">
<title>Node23&#45;&gt;Node10</title>
<path fill="none" stroke="#63b8ff" d="M2047.11,-283.54C2114.73,-283.04 2297.45,-277.89 2443.36,-239 2463.55,-233.62 2466.23,-225.61 2486.36,-220 2511.7,-212.94 2661.27,-195.15 2755.9,-184.32"/>
<polygon fill="#63b8ff" stroke="#63b8ff" points="2756.11,-187.82 2765.65,-183.21 2755.31,-180.87 2756.11,-187.82"/>
</g>
<!-- Node24 -->
<g id="node24" class="node">
<title>Node24</title>
<g id="a_node24"><a xlink:href="AnimationMachine_8h.html" target="_top" xlink:title=" ">
<polygon fill="white" stroke="#666666" points="2433.86,-239 2316.86,-239 2316.86,-220 2433.86,-220 2433.86,-239"/>
<text text-anchor="middle" x="2375.36" y="-227" font-family="Helvetica,sans-Serif" font-size="10.00">AnimationMachine.h</text>
</a>
</g>
</g>
<!-- Node23&#45;&gt;Node24 -->
<g id="edge27" class="edge">
<title>Node23&#45;&gt;Node24</title>
<path fill="none" stroke="#63b8ff" d="M2047.34,-279.47C2101.78,-271.35 2226.32,-252.75 2305.32,-240.96"/>
<polygon fill="#63b8ff" stroke="#63b8ff" points="2305.76,-244.43 2315.13,-239.49 2304.73,-237.51 2305.76,-244.43"/>
</g>
<!-- Node27 -->
<g id="node27" class="node">
<title>Node27</title>
<g id="a_node27"><a xlink:title=" ">
<polygon fill="#e0e0e0" stroke="#999999" points="2196.86,-184 2065.86,-184 2065.86,-165 2196.86,-165 2196.86,-184"/>
<text text-anchor="middle" x="2131.36" y="-172" font-family="Helvetica,sans-Serif" font-size="10.00">SFML/System/Time.hpp</text>
</a>
</g>
</g>
<!-- Node23&#45;&gt;Node27 -->
<g id="edge48" class="edge">
<title>Node23&#45;&gt;Node27</title>
<path fill="none" stroke="#63b8ff" d="M2029.44,-274.66C2047.9,-256.7 2090.06,-215.69 2113.97,-192.42"/>
<polygon fill="#63b8ff" stroke="#63b8ff" points="2116.34,-195 2121.07,-185.52 2111.46,-189.98 2116.34,-195"/>
</g>
<!-- Node24&#45;&gt;Node6 -->
<g id="edge38" class="edge">
<title>Node24&#45;&gt;Node6</title>
<path fill="none" stroke="#63b8ff" d="M2380.95,-219.7C2393.95,-197.99 2423.06,-141.35 2394.36,-110 2386.59,-101.51 2052.12,-76.89 1933.53,-68.41"/>
<polygon fill="#63b8ff" stroke="#63b8ff" points="1933.83,-64.92 1923.6,-67.7 1933.33,-71.91 1933.83,-64.92"/>
</g>
<!-- Node24&#45;&gt;Node8 -->
<g id="edge28" class="edge">
<title>Node24&#45;&gt;Node8</title>
<path fill="none" stroke="#63b8ff" d="M2391.89,-219.64C2404.21,-212.02 2420.11,-199.76 2427.36,-184 2441.12,-154.13 2449.03,-134.74 2427.36,-110 2410.04,-90.22 2252.37,-76.28 2159.99,-69.73"/>
<polygon fill="#63b8ff" stroke="#63b8ff" points="2160.51,-66.26 2150.3,-69.05 2160.03,-73.24 2160.51,-66.26"/>
</g>
<!-- Node24&#45;&gt;Node19 -->
<g id="edge33" class="edge">
<title>Node24&#45;&gt;Node19</title>
<path fill="none" stroke="#63b8ff" d="M2399.97,-219.6C2415.62,-212.53 2434.71,-200.97 2444.36,-184 2460.63,-155.4 2467.34,-135.35 2446.36,-110 2363,-9.27 2287.39,-68.75 2157.36,-55 1764.68,-13.49 477.81,-10.66 229.9,-10.5"/>
<polygon fill="#63b8ff" stroke="#63b8ff" points="230.08,-7 220.07,-10.5 230.07,-14 230.08,-7"/>
</g>
<!-- Node25 -->
<g id="node25" class="node">
<title>Node25</title>
<g id="a_node25"><a xlink:title=" ">
<polygon fill="#e0e0e0" stroke="#999999" points="2748.86,-184 2607.86,-184 2607.86,-165 2748.86,-165 2748.86,-184"/>
<text text-anchor="middle" x="2678.36" y="-172" font-family="Helvetica,sans-Serif" font-size="10.00">SFML/Graphics/Sprite.hpp</text>
</a>
</g>
</g>
<!-- Node24&#45;&gt;Node25 -->
<g id="edge29" class="edge">
<title>Node24&#45;&gt;Node25</title>
<path fill="none" stroke="#63b8ff" d="M2426.76,-219.51C2478.97,-210.38 2559.88,-196.23 2615.78,-186.45"/>
<polygon fill="#63b8ff" stroke="#63b8ff" points="2616.22,-189.92 2625.47,-184.75 2615.02,-183.03 2616.22,-189.92"/>
</g>
<!-- Node26 -->
<g id="node26" class="node">
<title>Node26</title>
<g id="a_node26"><a xlink:title=" ">
<polygon fill="#e0e0e0" stroke="#999999" points="2384.86,-129 2235.86,-129 2235.86,-110 2384.86,-110 2384.86,-129"/>
<text text-anchor="middle" x="2310.36" y="-117" font-family="Helvetica,sans-Serif" font-size="10.00">SFML/Graphics/Texture.hpp</text>
</a>
</g>
</g>
<!-- Node24&#45;&gt;Node26 -->
<g id="edge30" class="edge">
<title>Node24&#45;&gt;Node26</title>
<path fill="none" stroke="#63b8ff" d="M2374.18,-219.71C2372.14,-206.9 2367.12,-182.7 2356.36,-165 2349.85,-154.29 2340.14,-144.38 2331.32,-136.64"/>
<polygon fill="#63b8ff" stroke="#63b8ff" points="2333.72,-134.08 2323.79,-130.39 2329.25,-139.47 2333.72,-134.08"/>
</g>
<!-- Node24&#45;&gt;Node27 -->
<g id="edge31" class="edge">
<title>Node24&#45;&gt;Node27</title>
<path fill="none" stroke="#63b8ff" d="M2333.97,-219.51C2292.48,-210.5 2228.48,-196.6 2183.54,-186.83"/>
<polygon fill="#63b8ff" stroke="#63b8ff" points="2184.54,-183.47 2174.03,-184.77 2183.06,-190.31 2184.54,-183.47"/>
</g>
<!-- Node28 -->
<g id="node28" class="node">
<title>Node28</title>
<g id="a_node28"><a xlink:title=" ">
<polygon fill="#e0e0e0" stroke="#999999" points="2589.36,-184 2517.36,-184 2517.36,-165 2589.36,-165 2589.36,-184"/>
<text text-anchor="middle" x="2553.36" y="-172" font-family="Helvetica,sans-Serif" font-size="10.00">sys/types.h</text>
</a>
</g>
</g>
<!-- Node24&#45;&gt;Node28 -->
<g id="edge32" class="edge">
<title>Node24&#45;&gt;Node28</title>
<path fill="none" stroke="#63b8ff" d="M2405.56,-219.51C2434.92,-210.76 2479.76,-197.42 2512.34,-187.71"/>
<polygon fill="#63b8ff" stroke="#63b8ff" points="2513.28,-191.09 2521.86,-184.88 2511.28,-184.38 2513.28,-191.09"/>
</g>
<!-- Node29 -->
<g id="node29" class="node">
<title>Node29</title>
<g id="a_node29"><a xlink:href="Consts_8h.html" target="_top" xlink:title=" ">
<polygon fill="white" stroke="#666666" points="2122.86,-129 2063.86,-129 2063.86,-110 2122.86,-110 2122.86,-129"/>
<text text-anchor="middle" x="2093.36" y="-117" font-family="Helvetica,sans-Serif" font-size="10.00">Consts.h</text>
</a>
</g>
</g>
<!-- Node24&#45;&gt;Node29 -->
<g id="edge34" class="edge">
<title>Node24&#45;&gt;Node29</title>
<path fill="none" stroke="#63b8ff" d="M2345.81,-219.53C2319.2,-211.19 2279.21,-197.97 2245.36,-184 2227.54,-176.64 2224.01,-172.76 2206.36,-165 2180.44,-153.6 2150.61,-141.92 2128.11,-133.38"/>
<polygon fill="#63b8ff" stroke="#63b8ff" points="2129.4,-130.12 2118.81,-129.87 2126.93,-136.67 2129.4,-130.12"/>
</g>
<!-- Node30 -->
<g id="node30" class="node">
<title>Node30</title>
<g id="a_node30"><a xlink:href="TextureHolder_8h.html" target="_top" xlink:title=" ">
<polygon fill="white" stroke="#666666" points="2346.86,-184 2253.86,-184 2253.86,-165 2346.86,-165 2346.86,-184"/>
<text text-anchor="middle" x="2300.36" y="-172" font-family="Helvetica,sans-Serif" font-size="10.00">TextureHolder.h</text>
</a>
</g>
</g>
<!-- Node24&#45;&gt;Node30 -->
<g id="edge39" class="edge">
<title>Node24&#45;&gt;Node30</title>
<path fill="none" stroke="#63b8ff" d="M2362.64,-219.51C2351.58,-211.7 2335.32,-200.21 2322.19,-190.93"/>
<polygon fill="#63b8ff" stroke="#63b8ff" points="2324.32,-188.14 2314.13,-185.23 2320.28,-193.86 2324.32,-188.14"/>
</g>
<!-- Node29&#45;&gt;Node6 -->
<g id="edge36" class="edge">
<title>Node29&#45;&gt;Node6</title>
<path fill="none" stroke="#63b8ff" d="M2063.7,-110.68C2029.11,-101.56 1971.75,-86.43 1933.02,-76.22"/>
<polygon fill="#63b8ff" stroke="#63b8ff" points="1934.17,-72.9 1923.6,-73.74 1932.38,-79.67 1934.17,-72.9"/>
</g>
<!-- Node29&#45;&gt;Node8 -->
<g id="edge35" class="edge">
<title>Node29&#45;&gt;Node8</title>
<path fill="none" stroke="#63b8ff" d="M2093.36,-109.75C2093.36,-103.27 2093.36,-94.16 2093.36,-85.9"/>
<polygon fill="#63b8ff" stroke="#63b8ff" points="2096.86,-85.96 2093.36,-75.96 2089.86,-85.96 2096.86,-85.96"/>
</g>
<!-- Node29&#45;&gt;Node20 -->
<g id="edge37" class="edge">
<title>Node29&#45;&gt;Node20</title>
<path fill="none" stroke="#63b8ff" d="M2063.56,-116.72C2030.53,-114.81 1975.66,-111.8 1928.36,-110 1225.43,-83.25 368.12,-69.24 165,-66.16"/>
<polygon fill="#63b8ff" stroke="#63b8ff" points="165.21,-62.66 155.16,-66.01 165.11,-69.66 165.21,-62.66"/>
</g>
<!-- Node30&#45;&gt;Node6 -->
<g id="edge43" class="edge">
<title>Node30&#45;&gt;Node6</title>
<path fill="none" stroke="#63b8ff" d="M2270.51,-164.53C2243.88,-156.24 2204.02,-143.1 2170.36,-129 2152.95,-121.7 2150.26,-116 2132.36,-110 2064.62,-87.29 1982.01,-75.19 1933.5,-69.58"/>
<polygon fill="#63b8ff" stroke="#63b8ff" points="1934.05,-66.12 1923.72,-68.49 1933.27,-73.07 1934.05,-66.12"/>
</g>
<!-- Node30&#45;&gt;Node16 -->
<g id="edge40" class="edge">
<title>Node30&#45;&gt;Node16</title>
<path fill="none" stroke="#63b8ff" d="M2253.73,-167.47C2172.68,-156.99 2007.17,-135.6 1930.72,-125.72"/>
<polygon fill="#63b8ff" stroke="#63b8ff" points="1931.55,-122.29 1921.18,-124.48 1930.65,-129.24 1931.55,-122.29"/>
</g>
<!-- Node30&#45;&gt;Node26 -->
<g id="edge42" class="edge">
<title>Node30&#45;&gt;Node26</title>
<path fill="none" stroke="#63b8ff" d="M2302.01,-164.75C2303.25,-158.19 2304.99,-148.95 2306.57,-140.6"/>
<polygon fill="#63b8ff" stroke="#63b8ff" points="2309.98,-141.4 2308.39,-130.93 2303.1,-140.11 2309.98,-141.4"/>
</g>
<!-- Node30&#45;&gt;Node29 -->
<g id="edge44" class="edge">
<title>Node30&#45;&gt;Node29</title>
<path fill="none" stroke="#63b8ff" d="M2265.25,-164.51C2228.92,-155.21 2172.26,-140.7 2134.01,-130.91"/>
<polygon fill="#63b8ff" stroke="#63b8ff" points="2135.29,-127.62 2124.73,-128.53 2133.55,-134.4 2135.29,-127.62"/>
</g>
<!-- Node31 -->
<g id="node31" class="node">
<title>Node31</title>
<g id="a_node31"><a xlink:title=" ">
<polygon fill="#e0e0e0" stroke="#999999" points="2217.36,-129 2179.36,-129 2179.36,-110 2217.36,-110 2217.36,-129"/>
<text text-anchor="middle" x="2198.36" y="-117" font-family="Helvetica,sans-Serif" font-size="10.00">map</text>
</a>
</g>
</g>
<!-- Node30&#45;&gt;Node31 -->
<g id="edge41" class="edge">
<title>Node30&#45;&gt;Node31</title>
<path fill="none" stroke="#63b8ff" d="M2283.06,-164.51C2267.28,-156.31 2243.72,-144.07 2225.46,-134.58"/>
<polygon fill="#63b8ff" stroke="#63b8ff" points="2227.24,-131.56 2216.75,-130.06 2224.01,-137.77 2227.24,-131.56"/>
</g>
<!-- Node32&#45;&gt;Node3 -->
<g id="edge57" class="edge">
<title>Node32&#45;&gt;Node3</title>
<path fill="none" stroke="#63b8ff" d="M1834.86,-219.51C1807.26,-210.8 1765.2,-197.53 1734.48,-187.84"/>
<polygon fill="#63b8ff" stroke="#63b8ff" points="1735.75,-184.57 1725.16,-184.9 1733.65,-191.25 1735.75,-184.57"/>
</g>
<!-- Node32&#45;&gt;Node6 -->
<g id="edge54" class="edge">
<title>Node32&#45;&gt;Node6</title>
<path fill="none" stroke="#63b8ff" d="M1858.57,-219.61C1854.14,-210.85 1847.88,-196.92 1845.36,-184 1841.3,-163.12 1850.9,-113.18 1852.36,-110 1857.19,-99.46 1865.41,-89.65 1873.15,-81.94"/>
<polygon fill="#63b8ff" stroke="#63b8ff" points="1875.14,-84.87 1880.07,-75.49 1870.37,-79.75 1875.14,-84.87"/>
</g>
<!-- Node32&#45;&gt;Node16 -->
<g id="edge56" class="edge">
<title>Node32&#45;&gt;Node16</title>
<path fill="none" stroke="#63b8ff" d="M1859,-219.61C1853.48,-207.09 1845.47,-183.68 1852.36,-165 1856.2,-154.59 1863.69,-144.96 1871,-137.34"/>
<polygon fill="#63b8ff" stroke="#63b8ff" points="1873.4,-139.89 1878.2,-130.44 1868.56,-134.84 1873.4,-139.89"/>
</g>
<!-- Node32&#45;&gt;Node27 -->
<g id="edge58" class="edge">
<title>Node32&#45;&gt;Node27</title>
<path fill="none" stroke="#63b8ff" d="M1893.32,-222.57C1937.15,-213.91 2019.55,-197.61 2074.95,-186.66"/>
<polygon fill="#63b8ff" stroke="#63b8ff" points="2075.38,-190.14 2084.51,-184.77 2074.02,-183.27 2075.38,-190.14"/>
</g>
<!-- Node33 -->
<g id="node33" class="node">
<title>Node33</title>
<g id="a_node33"><a xlink:title=" ">
<polygon fill="#e0e0e0" stroke="#999999" points="1925.36,-184 1861.36,-184 1861.36,-165 1925.36,-165 1925.36,-184"/>
<text text-anchor="middle" x="1893.36" y="-172" font-family="Helvetica,sans-Serif" font-size="10.00">algorithm</text>
</a>
</g>
</g>
<!-- Node32&#45;&gt;Node33 -->
<g id="edge53" class="edge">
<title>Node32&#45;&gt;Node33</title>
<path fill="none" stroke="#63b8ff" d="M1868.31,-219.75C1872.2,-212.88 1877.75,-203.08 1882.64,-194.45"/>
<polygon fill="#63b8ff" stroke="#63b8ff" points="1885.67,-196.19 1887.55,-185.76 1879.58,-192.74 1885.67,-196.19"/>
</g>
<!-- Node34 -->
<g id="node34" class="node">
<title>Node34</title>
<g id="a_node34"><a xlink:title=" ">
<polygon fill="#e0e0e0" stroke="#999999" points="2008.86,-184 1943.86,-184 1943.86,-165 2008.86,-165 2008.86,-184"/>
<text text-anchor="middle" x="1976.36" y="-172" font-family="Helvetica,sans-Serif" font-size="10.00">functional</text>
</a>
</g>
</g>
<!-- Node32&#45;&gt;Node34 -->
<g id="edge55" class="edge">
<title>Node32&#45;&gt;Node34</title>
<path fill="none" stroke="#63b8ff" d="M1882.53,-219.51C1900.25,-211.2 1926.84,-198.73 1947.19,-189.18"/>
<polygon fill="#63b8ff" stroke="#63b8ff" points="1948.54,-192.42 1956.1,-185 1945.57,-186.08 1948.54,-192.42"/>
</g>
</g>
</svg>
