<?xml version="1.0" encoding="UTF-8" standalone="no"?>
<!DOCTYPE svg PUBLIC "-//W3C//DTD SVG 1.1//EN"
 "http://www.w3.org/Graphics/SVG/1.1/DTD/svg11.dtd">
<!-- Generated by graphviz version 7.0.5 (0)
 -->
<!-- Title: src/World.cpp Pages: 1 -->
<!--zoomable 467 -->
<svg id="main" version="1.1" xmlns="http://www.w3.org/2000/svg" xmlns:xlink="http://www.w3.org/1999/xlink" xml:space="preserve" onload="init(evt)">
<style type="text/css"><![CDATA[
.edge:hover path { stroke: red; }
.edge:hover polygon { stroke: red; fill: red; }
]]></style>
<script type="text/javascript"><![CDATA[
var edges = document.getElementsByTagName('g');
if (edges && edges.length) {
  for (var i=0;i<edges.length;i++) {
    if (edges[i].id.substr(0,4)=='edge') {
      edges[i].setAttribute('class','edge');
    }
  }
}
]]></script>
        <defs>
                <circle id="rim" cx="0" cy="0" r="7"/>
                <circle id="rim2" cx="0" cy="0" r="3.5"/>
                <g id="zoomPlus">
                        <use xlink:href="#rim" fill="#404040">
                                <set attributeName="fill" to="#808080" begin="zoomplus.mouseover" end="zoomplus.mouseout"/>
                        </use>
                        <path d="M-4,0h8M0,-4v8" fill="none" stroke="white" stroke-width="1.5" pointer-events="none"/>
                </g>
                <g id="zoomMin">
                        <use xlink:href="#rim" fill="#404040">
                                <set attributeName="fill" to="#808080" begin="zoomminus.mouseover" end="zoomminus.mouseout"/>
                        </use>
                        <path d="M-4,0h8" fill="none" stroke="white" stroke-width="1.5" pointer-events="none"/>
                </g>
                <g id="dirArrow">
                        <path fill="none" stroke="white" stroke-width="1.5" d="M0,-3.0v7 M-2.5,-0.5L0,-3.0L2.5,-0.5"/>
                </g>
               <g id="resetDef">
                       <use xlink:href="#rim2" fill="#404040">
                               <set attributeName="fill" to="#808080" begin="reset.mouseover" end="reset.mouseout"/>
                       </use>
               </g>
        </defs>

<script type="text/javascript">
var viewWidth = 2938;
var viewHeight = 467;
var sectionId = 'dynsection-0';
</script>
<script xlink:href="svgpan.js"/>
<svg id="graph" class="graph">
<g id="viewport">
<title>src/World.cpp</title>
<!-- Node1 -->
<g id="node1" class="node">
<title>Node1</title>
<g id="a_node1"><a xlink:title=" ">
<polygon fill="#999999" stroke="#666666" points="1997,-459 1915,-459 1915,-440 1997,-440 1997,-459"/>
<text text-anchor="middle" x="1956" y="-447" font-family="Helvetica,sans-Serif" font-size="10.00">src/World.cpp</text>
</a>
</g>
</g>
<!-- Node2 -->
<g id="node2" class="node">
<title>Node2</title>
<g id="a_node2"><a xlink:href="World_8h.html" target="_top" xlink:title=" ">
<polygon fill="white" stroke="#666666" points="1404.5,-404 1351.5,-404 1351.5,-385 1404.5,-385 1404.5,-404"/>
<text text-anchor="middle" x="1378" y="-392" font-family="Helvetica,sans-Serif" font-size="10.00">World.h</text>
</a>
</g>
</g>
<!-- Node1&#45;&gt;Node2 -->
<g id="edge1" class="edge">
<title>Node1&#45;&gt;Node2</title>
<path fill="none" stroke="#63b8ff" d="M1914.57,-445.06C1829.03,-437.91 1626.65,-420.69 1457,-404 1443.65,-402.69 1429.05,-401.14 1416.06,-399.74"/>
<polygon fill="#63b8ff" stroke="#63b8ff" points="1416.51,-396.27 1406.19,-398.66 1415.75,-403.22 1416.51,-396.27"/>
</g>
<!-- Node4 -->
<g id="node4" class="node">
<title>Node4</title>
<g id="a_node4"><a xlink:title=" ">
<polygon fill="#e0e0e0" stroke="#999999" points="1304.5,-184 1161.5,-184 1161.5,-165 1304.5,-165 1304.5,-184"/>
<text text-anchor="middle" x="1233" y="-172" font-family="Helvetica,sans-Serif" font-size="10.00">SFML/System/Vector2.hpp</text>
</a>
</g>
</g>
<!-- Node1&#45;&gt;Node4 -->
<g id="edge72" class="edge">
<title>Node1&#45;&gt;Node4</title>
<path fill="none" stroke="#63b8ff" d="M1932.36,-439.57C1826.17,-399.48 1393.05,-235.94 1267.35,-188.47"/>
<polygon fill="#63b8ff" stroke="#63b8ff" points="1268.84,-185.29 1258.25,-185.03 1266.36,-191.84 1268.84,-185.29"/>
</g>
<!-- Node8 -->
<g id="node8" class="node">
<title>Node8</title>
<g id="a_node8"><a xlink:href="SceneNode_8h.html" target="_top" xlink:title=" ">
<polygon fill="white" stroke="#666666" points="1996,-239 1916,-239 1916,-220 1996,-220 1996,-239"/>
<text text-anchor="middle" x="1956" y="-227" font-family="Helvetica,sans-Serif" font-size="10.00">SceneNode.h</text>
</a>
</g>
</g>
<!-- Node1&#45;&gt;Node8 -->
<g id="edge71" class="edge">
<title>Node1&#45;&gt;Node8</title>
<path fill="none" stroke="#63b8ff" d="M1956,-439.68C1956,-407.57 1956,-296.33 1956,-250.49"/>
<polygon fill="#63b8ff" stroke="#63b8ff" points="1959.5,-250.7 1956,-240.7 1952.5,-250.7 1959.5,-250.7"/>
</g>
<!-- Node17 -->
<g id="node17" class="node">
<title>Node17</title>
<g id="a_node17"><a xlink:title=" ">
<polygon fill="#e0e0e0" stroke="#999999" points="2449,-129 2391,-129 2391,-110 2449,-110 2449,-129"/>
<text text-anchor="middle" x="2420" y="-117" font-family="Helvetica,sans-Serif" font-size="10.00">memory</text>
</a>
</g>
</g>
<!-- Node1&#45;&gt;Node17 -->
<g id="edge74" class="edge">
<title>Node1&#45;&gt;Node17</title>
<path fill="none" stroke="#63b8ff" d="M1997.43,-448.14C2178.57,-446.03 2892,-431.9 2892,-340.5 2892,-340.5 2892,-340.5 2892,-283.5 2892,-220.93 2869.14,-198.03 2816,-165 2757.37,-128.55 2549.48,-121.89 2460.69,-120.72"/>
<polygon fill="#63b8ff" stroke="#63b8ff" points="2460.78,-117.22 2450.74,-120.61 2460.7,-124.22 2460.78,-117.22"/>
</g>
<!-- Node20 -->
<g id="node20" class="node">
<title>Node20</title>
<g id="a_node20"><a xlink:title=" ">
<polygon fill="#e0e0e0" stroke="#999999" points="2689,-19 2629,-19 2629,0 2689,0 2689,-19"/>
<text text-anchor="middle" x="2659" y="-7" font-family="Helvetica,sans-Serif" font-size="10.00">iostream</text>
</a>
</g>
</g>
<!-- Node1&#45;&gt;Node20 -->
<g id="edge73" class="edge">
<title>Node1&#45;&gt;Node20</title>
<path fill="none" stroke="#63b8ff" d="M1997.37,-448.27C2143.47,-447.13 2634.58,-440.61 2787,-404 2854.62,-387.76 2930,-410.04 2930,-340.5 2930,-340.5 2930,-340.5 2930,-118.5 2930,-69.66 2776.21,-33.12 2700.34,-18.06"/>
<polygon fill="#63b8ff" stroke="#63b8ff" points="2701.27,-14.67 2690.78,-16.2 2699.93,-21.55 2701.27,-14.67"/>
</g>
<!-- Node30 -->
<g id="node30" class="node">
<title>Node30</title>
<g id="a_node30"><a xlink:href="Consts_8h.html" target="_top" xlink:title=" ">
<polygon fill="white" stroke="#666666" points="287.5,-129 228.5,-129 228.5,-110 287.5,-110 287.5,-129"/>
<text text-anchor="middle" x="258" y="-117" font-family="Helvetica,sans-Serif" font-size="10.00">Consts.h</text>
</a>
</g>
</g>
<!-- Node1&#45;&gt;Node30 -->
<g id="edge66" class="edge">
<title>Node1&#45;&gt;Node30</title>
<path fill="none" stroke="#63b8ff" d="M1914.69,-448.45C1632.51,-447.82 0,-439.93 0,-340.5 0,-340.5 0,-340.5 0,-228.5 0,-190.58 24.25,-184.13 57,-165 107.07,-135.76 174.41,-125.71 217.02,-122.27"/>
<polygon fill="#63b8ff" stroke="#63b8ff" points="217.11,-125.77 226.84,-121.57 216.61,-118.79 217.11,-125.77"/>
</g>
<!-- Node37 -->
<g id="node37" class="node">
<title>Node37</title>
<g id="a_node37"><a xlink:href="LevelGenerator_8h.html" target="_top" xlink:title=" ">
<polygon fill="white" stroke="#666666" points="2762,-349 2662,-349 2662,-330 2762,-330 2762,-349"/>
<text text-anchor="middle" x="2712" y="-337" font-family="Helvetica,sans-Serif" font-size="10.00">LevelGenerator.h</text>
</a>
</g>
</g>
<!-- Node1&#45;&gt;Node37 -->
<g id="edge67" class="edge">
<title>Node1&#45;&gt;Node37</title>
<path fill="none" stroke="#63b8ff" d="M1997.45,-442.58C2123.27,-424.6 2501.25,-370.61 2650.46,-349.29"/>
<polygon fill="#63b8ff" stroke="#63b8ff" points="2650.74,-352.79 2660.14,-347.91 2649.75,-345.86 2650.74,-352.79"/>
</g>
<!-- Node3 -->
<g id="node3" class="node">
<title>Node3</title>
<g id="a_node3"><a xlink:href="Level_8h.html" target="_top" xlink:title=" ">
<polygon fill="white" stroke="#666666" points="2673,-294 2621,-294 2621,-275 2673,-275 2673,-294"/>
<text text-anchor="middle" x="2647" y="-282" font-family="Helvetica,sans-Serif" font-size="10.00">Level.h</text>
</a>
</g>
</g>
<!-- Node2&#45;&gt;Node3 -->
<g id="edge2" class="edge">
<title>Node2&#45;&gt;Node3</title>
<path fill="none" stroke="#63b8ff" d="M1404.8,-391.22C1567.22,-377.4 2419.25,-304.88 2609.36,-288.7"/>
<polygon fill="#63b8ff" stroke="#63b8ff" points="2609.49,-292.2 2619.16,-287.87 2608.9,-285.23 2609.49,-292.2"/>
</g>
<!-- Node2&#45;&gt;Node4 -->
<g id="edge64" class="edge">
<title>Node2&#45;&gt;Node4</title>
<path fill="none" stroke="#63b8ff" d="M1372.14,-384.68C1350.5,-352.16 1274.88,-238.46 1245.14,-193.75"/>
<polygon fill="#63b8ff" stroke="#63b8ff" points="1248.07,-191.83 1239.62,-185.45 1242.24,-195.71 1248.07,-191.83"/>
</g>
<!-- Node2&#45;&gt;Node8 -->
<g id="edge62" class="edge">
<title>Node2&#45;&gt;Node8</title>
<path fill="none" stroke="#63b8ff" d="M1404.72,-385.97C1496.7,-360.03 1800.75,-274.28 1913.47,-242.49"/>
<polygon fill="#63b8ff" stroke="#63b8ff" points="1914.25,-245.91 1922.93,-239.83 1912.35,-239.17 1914.25,-245.91"/>
</g>
<!-- Node11 -->
<g id="node11" class="node">
<title>Node11</title>
<g id="a_node11"><a xlink:title=" ">
<polygon fill="#e0e0e0" stroke="#999999" points="863,-184 729,-184 729,-165 863,-165 863,-184"/>
<text text-anchor="middle" x="796" y="-172" font-family="Helvetica,sans-Serif" font-size="10.00">SFML/Graphics/Rect.hpp</text>
</a>
</g>
</g>
<!-- Node2&#45;&gt;Node11 -->
<g id="edge63" class="edge">
<title>Node2&#45;&gt;Node11</title>
<path fill="none" stroke="#63b8ff" d="M1351.28,-392.1C1222.54,-385.07 670.46,-351.69 623,-294 581.51,-243.57 683.1,-205.63 747.63,-187.44"/>
<polygon fill="#63b8ff" stroke="#63b8ff" points="748.24,-190.9 756.96,-184.88 746.39,-184.15 748.24,-190.9"/>
</g>
<!-- Node22 -->
<g id="node22" class="node">
<title>Node22</title>
<g id="a_node22"><a xlink:href="Player_8h.html" target="_top" xlink:title=" ">
<polygon fill="white" stroke="#666666" points="968,-349 912,-349 912,-330 968,-330 968,-349"/>
<text text-anchor="middle" x="940" y="-337" font-family="Helvetica,sans-Serif" font-size="10.00">Player.h</text>
</a>
</g>
</g>
<!-- Node2&#45;&gt;Node22 -->
<g id="edge25" class="edge">
<title>Node2&#45;&gt;Node22</title>
<path fill="none" stroke="#63b8ff" d="M1351.26,-390.26C1276.95,-381.27 1067.63,-355.94 979.69,-345.3"/>
<polygon fill="#63b8ff" stroke="#63b8ff" points="980.21,-341.84 969.86,-344.11 979.37,-348.79 980.21,-341.84"/>
</g>
<!-- Node36 -->
<g id="node36" class="node">
<title>Node36</title>
<g id="a_node36"><a xlink:title=" ">
<polygon fill="#e0e0e0" stroke="#999999" points="1394,-349 1362,-349 1362,-330 1394,-330 1394,-349"/>
<text text-anchor="middle" x="1378" y="-337" font-family="Helvetica,sans-Serif" font-size="10.00">list</text>
</a>
</g>
</g>
<!-- Node2&#45;&gt;Node36 -->
<g id="edge65" class="edge">
<title>Node2&#45;&gt;Node36</title>
<path fill="none" stroke="#63b8ff" d="M1378,-384.75C1378,-378.27 1378,-369.16 1378,-360.9"/>
<polygon fill="#63b8ff" stroke="#63b8ff" points="1381.5,-360.96 1378,-350.96 1374.5,-360.96 1381.5,-360.96"/>
</g>
<!-- Node3&#45;&gt;Node4 -->
<g id="edge3" class="edge">
<title>Node3&#45;&gt;Node4</title>
<path fill="none" stroke="#63b8ff" d="M2620.76,-282.24C2525.11,-277.57 2186.11,-260.44 1907,-239 1645.3,-218.9 1580.27,-209.13 1319,-184 1317.99,-183.9 1316.97,-183.8 1315.94,-183.71"/>
<polygon fill="#63b8ff" stroke="#63b8ff" points="1316.59,-180.25 1306.3,-182.77 1315.92,-187.22 1316.59,-180.25"/>
</g>
<!-- Node5 -->
<g id="node5" class="node">
<title>Node5</title>
<g id="a_node5"><a xlink:title=" ">
<polygon fill="#e0e0e0" stroke="#999999" points="2750,-239 2694,-239 2694,-220 2750,-220 2750,-239"/>
<text text-anchor="middle" x="2722" y="-227" font-family="Helvetica,sans-Serif" font-size="10.00">assert.h</text>
</a>
</g>
</g>
<!-- Node3&#45;&gt;Node5 -->
<g id="edge4" class="edge">
<title>Node3&#45;&gt;Node5</title>
<path fill="none" stroke="#63b8ff" d="M2659.72,-274.51C2670.78,-266.7 2687.04,-255.21 2700.17,-245.93"/>
<polygon fill="#63b8ff" stroke="#63b8ff" points="2702.08,-248.86 2708.23,-240.23 2698.04,-243.14 2702.08,-248.86"/>
</g>
<!-- Node6 -->
<g id="node6" class="node">
<title>Node6</title>
<g id="a_node6"><a xlink:title=" ">
<polygon fill="#e0e0e0" stroke="#999999" points="2773,-19 2719,-19 2719,0 2773,0 2773,-19"/>
<text text-anchor="middle" x="2746" y="-7" font-family="Helvetica,sans-Serif" font-size="10.00">random</text>
</a>
</g>
</g>
<!-- Node3&#45;&gt;Node6 -->
<g id="edge5" class="edge">
<title>Node3&#45;&gt;Node6</title>
<path fill="none" stroke="#63b8ff" d="M2652.06,-274.67C2667.95,-246.49 2717.1,-155.73 2739,-74 2742.79,-59.85 2744.53,-43.39 2745.33,-30.78"/>
<polygon fill="#63b8ff" stroke="#63b8ff" points="2748.83,-30.95 2745.8,-20.79 2741.84,-30.62 2748.83,-30.95"/>
</g>
<!-- Node7 -->
<g id="node7" class="node">
<title>Node7</title>
<g id="a_node7"><a xlink:href="Enums_8h.html" target="_top" xlink:title=" ">
<polygon fill="white" stroke="#666666" points="763.5,-74 704.5,-74 704.5,-55 763.5,-55 763.5,-74"/>
<text text-anchor="middle" x="734" y="-62" font-family="Helvetica,sans-Serif" font-size="10.00">Enums.h</text>
</a>
</g>
</g>
<!-- Node3&#45;&gt;Node7 -->
<g id="edge6" class="edge">
<title>Node3&#45;&gt;Node7</title>
<path fill="none" stroke="#63b8ff" d="M2647.41,-274.77C2647.95,-253.2 2646.28,-196.89 2617,-165 2566.42,-109.93 2531.57,-123.34 2458,-110 2287.8,-79.13 1020.06,-67.73 774.96,-65.81"/>
<polygon fill="#63b8ff" stroke="#63b8ff" points="775.29,-62.31 765.26,-65.73 775.23,-69.31 775.29,-62.31"/>
</g>
<!-- Node3&#45;&gt;Node8 -->
<g id="edge7" class="edge">
<title>Node3&#45;&gt;Node8</title>
<path fill="none" stroke="#63b8ff" d="M2620.76,-281.49C2518.47,-273.64 2145.42,-245.03 2007.61,-234.46"/>
<polygon fill="#63b8ff" stroke="#63b8ff" points="2007.92,-230.97 1997.69,-233.7 2007.39,-237.95 2007.92,-230.97"/>
</g>
<!-- Node21 -->
<g id="node21" class="node">
<title>Node21</title>
<g id="a_node21"><a xlink:href="Random_8h.html" target="_top" xlink:title=" ">
<polygon fill="white" stroke="#666666" points="2730,-74 2664,-74 2664,-55 2730,-55 2730,-74"/>
<text text-anchor="middle" x="2697" y="-62" font-family="Helvetica,sans-Serif" font-size="10.00">Random.h</text>
</a>
</g>
</g>
<!-- Node3&#45;&gt;Node21 -->
<g id="edge22" class="edge">
<title>Node3&#45;&gt;Node21</title>
<path fill="none" stroke="#63b8ff" d="M2673.23,-277.74C2697.46,-271.4 2733.46,-259.33 2759,-239 2782.25,-220.5 2788.15,-212.36 2797,-184 2811.02,-139.05 2759.2,-100.21 2724.97,-80.11"/>
<polygon fill="#63b8ff" stroke="#63b8ff" points="2726.75,-77.09 2716.32,-75.23 2723.31,-83.19 2726.75,-77.09"/>
</g>
<!-- Node8&#45;&gt;Node4 -->
<g id="edge17" class="edge">
<title>Node8&#45;&gt;Node4</title>
<path fill="none" stroke="#63b8ff" d="M1915.72,-226.09C1815.05,-219.98 1544.35,-203 1319,-184 1317.99,-183.91 1316.97,-183.83 1315.94,-183.74"/>
<polygon fill="#63b8ff" stroke="#63b8ff" points="1316.56,-180.28 1306.29,-182.88 1315.94,-187.25 1316.56,-180.28"/>
</g>
<!-- Node8&#45;&gt;Node7 -->
<g id="edge8" class="edge">
<title>Node8&#45;&gt;Node7</title>
<path fill="none" stroke="#63b8ff" d="M1996.49,-228.38C2109.07,-227.35 2414.33,-219.56 2363,-165 2306.89,-105.36 1023.31,-72.29 775.28,-66.44"/>
<polygon fill="#63b8ff" stroke="#63b8ff" points="775.53,-62.95 765.45,-66.21 775.36,-69.94 775.53,-62.95"/>
</g>
<!-- Node9 -->
<g id="node9" class="node">
<title>Node9</title>
<g id="a_node9"><a xlink:title=" ">
<polygon fill="#e0e0e0" stroke="#999999" points="313,-74 203,-74 203,-55 313,-55 313,-74"/>
<text text-anchor="middle" x="258" y="-62" font-family="Helvetica,sans-Serif" font-size="10.00">SFML/Graphics.hpp</text>
</a>
</g>
</g>
<!-- Node8&#45;&gt;Node9 -->
<g id="edge9" class="edge">
<title>Node8&#45;&gt;Node9</title>
<path fill="none" stroke="#63b8ff" d="M1915.67,-225.95C1784.87,-217.62 1379.22,-191.34 1352,-184 1333.38,-178.98 1331.56,-170.21 1313,-165 1125.35,-112.32 525.59,-78.68 324.47,-68.65"/>
<polygon fill="#63b8ff" stroke="#63b8ff" points="324.88,-65.17 314.72,-68.17 324.54,-72.16 324.88,-65.17"/>
</g>
<!-- Node10 -->
<g id="node10" class="node">
<title>Node10</title>
<g id="a_node10"><a xlink:title=" ">
<polygon fill="#e0e0e0" stroke="#999999" points="2607.5,-184 2448.5,-184 2448.5,-165 2607.5,-165 2607.5,-184"/>
<text text-anchor="middle" x="2528" y="-172" font-family="Helvetica,sans-Serif" font-size="10.00">SFML/Graphics/Drawable.hpp</text>
</a>
</g>
</g>
<!-- Node8&#45;&gt;Node10 -->
<g id="edge10" class="edge">
<title>Node8&#45;&gt;Node10</title>
<path fill="none" stroke="#63b8ff" d="M1996.22,-224.77C2087.18,-216.34 2310.61,-195.64 2437.01,-183.93"/>
<polygon fill="#63b8ff" stroke="#63b8ff" points="2437.04,-187.44 2446.67,-183.04 2436.39,-180.47 2437.04,-187.44"/>
</g>
<!-- Node8&#45;&gt;Node11 -->
<g id="edge11" class="edge">
<title>Node8&#45;&gt;Node11</title>
<path fill="none" stroke="#63b8ff" d="M1915.59,-227.25C1776.04,-222.81 1301.48,-206.92 910,-184 898.59,-183.33 886.54,-182.53 874.72,-181.7"/>
<polygon fill="#63b8ff" stroke="#63b8ff" points="875.23,-178.23 865,-181 874.72,-185.21 875.23,-178.23"/>
</g>
<!-- Node12 -->
<g id="node12" class="node">
<title>Node12</title>
<g id="a_node12"><a xlink:title=" ">
<polygon fill="#e0e0e0" stroke="#999999" points="1539,-184 1361,-184 1361,-165 1539,-165 1539,-184"/>
<text text-anchor="middle" x="1450" y="-172" font-family="Helvetica,sans-Serif" font-size="10.00">SFML/Graphics/RenderStates.hpp</text>
</a>
</g>
</g>
<!-- Node8&#45;&gt;Node12 -->
<g id="edge12" class="edge">
<title>Node8&#45;&gt;Node12</title>
<path fill="none" stroke="#63b8ff" d="M1915.87,-224.3C1836.78,-216.01 1658.74,-197.36 1547.1,-185.67"/>
<polygon fill="#63b8ff" stroke="#63b8ff" points="1547.65,-182.21 1537.34,-184.65 1546.92,-189.17 1547.65,-182.21"/>
</g>
<!-- Node13 -->
<g id="node13" class="node">
<title>Node13</title>
<g id="a_node13"><a xlink:title=" ">
<polygon fill="#e0e0e0" stroke="#999999" points="1734.5,-184 1557.5,-184 1557.5,-165 1734.5,-165 1734.5,-184"/>
<text text-anchor="middle" x="1646" y="-172" font-family="Helvetica,sans-Serif" font-size="10.00">SFML/Graphics/RenderTarget.hpp</text>
</a>
</g>
</g>
<!-- Node8&#45;&gt;Node13 -->
<g id="edge13" class="edge">
<title>Node8&#45;&gt;Node13</title>
<path fill="none" stroke="#63b8ff" d="M1915.79,-221.63C1863.51,-212.69 1771.58,-196.97 1709.75,-186.4"/>
<polygon fill="#63b8ff" stroke="#63b8ff" points="1710.51,-182.98 1700.06,-184.74 1709.33,-189.88 1710.51,-182.98"/>
</g>
<!-- Node14 -->
<g id="node14" class="node">
<title>Node14</title>
<g id="a_node14"><a xlink:title=" ">
<polygon fill="#e0e0e0" stroke="#999999" points="1913.5,-184 1752.5,-184 1752.5,-165 1913.5,-165 1913.5,-184"/>
<text text-anchor="middle" x="1833" y="-172" font-family="Helvetica,sans-Serif" font-size="10.00">SFML/Graphics/Transform.hpp</text>
</a>
</g>
</g>
<!-- Node8&#45;&gt;Node14 -->
<g id="edge14" class="edge">
<title>Node8&#45;&gt;Node14</title>
<path fill="none" stroke="#63b8ff" d="M1935.13,-219.51C1915.58,-211.08 1886.1,-198.38 1863.83,-188.79"/>
<polygon fill="#63b8ff" stroke="#63b8ff" points="1865.52,-185.7 1854.95,-184.96 1862.75,-192.13 1865.52,-185.7"/>
</g>
<!-- Node15 -->
<g id="node15" class="node">
<title>Node15</title>
<g id="a_node15"><a xlink:title=" ">
<polygon fill="#e0e0e0" stroke="#999999" points="2114,-184 1932,-184 1932,-165 2114,-165 2114,-184"/>
<text text-anchor="middle" x="2023" y="-172" font-family="Helvetica,sans-Serif" font-size="10.00">SFML/Graphics/Transformable.hpp</text>
</a>
</g>
</g>
<!-- Node8&#45;&gt;Node15 -->
<g id="edge15" class="edge">
<title>Node8&#45;&gt;Node15</title>
<path fill="none" stroke="#63b8ff" d="M1967.37,-219.51C1977.05,-211.85 1991.2,-200.66 2002.81,-191.47"/>
<polygon fill="#63b8ff" stroke="#63b8ff" points="2004.94,-194.25 2010.62,-185.3 2000.6,-188.76 2004.94,-194.25"/>
</g>
<!-- Node16 -->
<g id="node16" class="node">
<title>Node16</title>
<g id="a_node16"><a xlink:title=" ">
<polygon fill="#e0e0e0" stroke="#999999" points="2304,-184 2132,-184 2132,-165 2304,-165 2304,-184"/>
<text text-anchor="middle" x="2218" y="-172" font-family="Helvetica,sans-Serif" font-size="10.00">SFML/System/NonCopyable.hpp</text>
</a>
</g>
</g>
<!-- Node8&#45;&gt;Node16 -->
<g id="edge16" class="edge">
<title>Node8&#45;&gt;Node16</title>
<path fill="none" stroke="#63b8ff" d="M1996.36,-220.33C2040.84,-211.34 2112.66,-196.81 2162.44,-186.74"/>
<polygon fill="#63b8ff" stroke="#63b8ff" points="2163.05,-190.19 2172.16,-184.77 2161.67,-183.32 2163.05,-190.19"/>
</g>
<!-- Node8&#45;&gt;Node17 -->
<g id="edge18" class="edge">
<title>Node8&#45;&gt;Node17</title>
<path fill="none" stroke="#63b8ff" d="M1996.21,-226.83C2098.84,-222.23 2364.64,-208.09 2396,-184 2409.44,-173.67 2415.36,-154.9 2417.96,-140.43"/>
<polygon fill="#63b8ff" stroke="#63b8ff" points="2421.41,-141.03 2419.29,-130.65 2414.47,-140.09 2421.41,-141.03"/>
</g>
<!-- Node18 -->
<g id="node18" class="node">
<title>Node18</title>
<g id="a_node18"><a xlink:title=" ">
<polygon fill="#e0e0e0" stroke="#999999" points="2787.5,-184 2740.5,-184 2740.5,-165 2787.5,-165 2787.5,-184"/>
<text text-anchor="middle" x="2764" y="-172" font-family="Helvetica,sans-Serif" font-size="10.00">vector</text>
</a>
</g>
</g>
<!-- Node8&#45;&gt;Node18 -->
<g id="edge19" class="edge">
<title>Node8&#45;&gt;Node18</title>
<path fill="none" stroke="#63b8ff" d="M1996.3,-226.06C2102.98,-219.58 2401.58,-201.23 2650,-184 2676.52,-182.16 2706.49,-179.92 2729.05,-178.2"/>
<polygon fill="#63b8ff" stroke="#63b8ff" points="2729.21,-181.7 2738.92,-177.45 2728.68,-174.72 2729.21,-181.7"/>
</g>
<!-- Node19 -->
<g id="node19" class="node">
<title>Node19</title>
<g id="a_node19"><a xlink:title=" ">
<polygon fill="#e0e0e0" stroke="#999999" points="2354,-184 2322,-184 2322,-165 2354,-165 2354,-184"/>
<text text-anchor="middle" x="2338" y="-172" font-family="Helvetica,sans-Serif" font-size="10.00">set</text>
</a>
</g>
</g>
<!-- Node8&#45;&gt;Node19 -->
<g id="edge20" class="edge">
<title>Node8&#45;&gt;Node19</title>
<path fill="none" stroke="#63b8ff" d="M1996.35,-226.16C2060.97,-221.82 2191.7,-210.69 2310.63,-184.1"/>
<polygon fill="#63b8ff" stroke="#63b8ff" points="2311.29,-187.54 2320.26,-181.9 2309.73,-180.71 2311.29,-187.54"/>
</g>
<!-- Node8&#45;&gt;Node20 -->
<g id="edge21" class="edge">
<title>Node8&#45;&gt;Node20</title>
<path fill="none" stroke="#63b8ff" d="M1996.36,-228.51C2132.6,-228.18 2569.56,-223.98 2617,-184 2640.36,-164.31 2652.65,-72.06 2657.06,-30.68"/>
<polygon fill="#63b8ff" stroke="#63b8ff" points="2660.53,-31.2 2658.05,-20.9 2653.56,-30.5 2660.53,-31.2"/>
</g>
<!-- Node21&#45;&gt;Node6 -->
<g id="edge23" class="edge">
<title>Node21&#45;&gt;Node6</title>
<path fill="none" stroke="#63b8ff" d="M2705.09,-54.75C2711.86,-47.43 2721.72,-36.76 2730.06,-27.74"/>
<polygon fill="#63b8ff" stroke="#63b8ff" points="2732.49,-30.27 2736.71,-20.55 2727.35,-25.52 2732.49,-30.27"/>
</g>
<!-- Node21&#45;&gt;Node20 -->
<g id="edge24" class="edge">
<title>Node21&#45;&gt;Node20</title>
<path fill="none" stroke="#63b8ff" d="M2690.73,-54.75C2685.64,-47.66 2678.3,-37.42 2671.97,-28.59"/>
<polygon fill="#63b8ff" stroke="#63b8ff" points="2674.96,-26.76 2666.29,-20.67 2669.28,-30.84 2674.96,-26.76"/>
</g>
<!-- Node22&#45;&gt;Node4 -->
<g id="edge61" class="edge">
<title>Node22&#45;&gt;Node4</title>
<path fill="none" stroke="#63b8ff" d="M956.17,-329.5C1004.4,-302.68 1147.54,-223.04 1206.83,-190.06"/>
<polygon fill="#63b8ff" stroke="#63b8ff" points="1208.52,-193.12 1215.56,-185.2 1205.12,-187.01 1208.52,-193.12"/>
</g>
<!-- Node22&#45;&gt;Node7 -->
<g id="edge51" class="edge">
<title>Node22&#45;&gt;Node7</title>
<path fill="none" stroke="#63b8ff" d="M911.51,-329.73C865.99,-316.04 773.83,-289.65 694,-275 553.36,-249.19 148.92,-293.54 57,-184 -27.46,-83.35 534.47,-68.17 693.11,-65.9"/>
<polygon fill="#63b8ff" stroke="#63b8ff" points="692.78,-69.4 702.74,-65.77 692.69,-62.4 692.78,-69.4"/>
</g>
<!-- Node22&#45;&gt;Node8 -->
<g id="edge52" class="edge">
<title>Node22&#45;&gt;Node8</title>
<path fill="none" stroke="#63b8ff" d="M968.48,-334.76C1047.41,-324.46 1275.74,-295.12 1466,-275 1625.54,-258.13 1814.73,-242.06 1904.19,-234.7"/>
<polygon fill="#63b8ff" stroke="#63b8ff" points="1904.44,-238.19 1914.12,-233.88 1903.86,-231.21 1904.44,-238.19"/>
</g>
<!-- Node22&#45;&gt;Node11 -->
<g id="edge60" class="edge">
<title>Node22&#45;&gt;Node11</title>
<path fill="none" stroke="#63b8ff" d="M913.51,-329.63C895.21,-322.4 871.32,-310.66 855,-294 826.94,-265.36 809.72,-220.73 801.6,-195.19"/>
<polygon fill="#63b8ff" stroke="#63b8ff" points="805.01,-194.37 798.78,-185.8 798.31,-196.38 805.01,-194.37"/>
</g>
<!-- Node23 -->
<g id="node23" class="node">
<title>Node23</title>
<g id="a_node23"><a xlink:href="Effect_8h.html" target="_top" xlink:title=" ">
<polygon fill="white" stroke="#666666" points="685.5,-294 632.5,-294 632.5,-275 685.5,-275 685.5,-294"/>
<text text-anchor="middle" x="659" y="-282" font-family="Helvetica,sans-Serif" font-size="10.00">Effect.h</text>
</a>
</g>
</g>
<!-- Node22&#45;&gt;Node23 -->
<g id="edge26" class="edge">
<title>Node22&#45;&gt;Node23</title>
<path fill="none" stroke="#63b8ff" d="M911.52,-333.42C866.53,-325.35 776.3,-308.98 700,-294 699,-293.8 697.99,-293.6 696.97,-293.4"/>
<polygon fill="#63b8ff" stroke="#63b8ff" points="697.87,-290.01 687.37,-291.46 696.48,-296.87 697.87,-290.01"/>
</g>
<!-- Node24 -->
<g id="node24" class="node">
<title>Node24</title>
<g id="a_node24"><a xlink:href="Entity_8h.html" target="_top" xlink:title=" ">
<polygon fill="white" stroke="#666666" points="917.5,-294 864.5,-294 864.5,-275 917.5,-275 917.5,-294"/>
<text text-anchor="middle" x="891" y="-282" font-family="Helvetica,sans-Serif" font-size="10.00">Entity.h</text>
</a>
</g>
</g>
<!-- Node22&#45;&gt;Node24 -->
<g id="edge27" class="edge">
<title>Node22&#45;&gt;Node24</title>
<path fill="none" stroke="#63b8ff" d="M931.91,-329.75C925.14,-322.43 915.28,-311.76 906.94,-302.74"/>
<polygon fill="#63b8ff" stroke="#63b8ff" points="909.65,-300.52 900.29,-295.55 904.51,-305.27 909.65,-300.52"/>
</g>
<!-- Node33 -->
<g id="node33" class="node">
<title>Node33</title>
<g id="a_node33"><a xlink:href="Effects_8h.html" target="_top" xlink:title=" ">
<polygon fill="white" stroke="#666666" points="1064.5,-239 1005.5,-239 1005.5,-220 1064.5,-220 1064.5,-239"/>
<text text-anchor="middle" x="1035" y="-227" font-family="Helvetica,sans-Serif" font-size="10.00">Effects.h</text>
</a>
</g>
</g>
<!-- Node22&#45;&gt;Node33 -->
<g id="edge53" class="edge">
<title>Node22&#45;&gt;Node33</title>
<path fill="none" stroke="#63b8ff" d="M947.77,-329.66C963.43,-311.86 999.02,-271.41 1019.57,-248.04"/>
<polygon fill="#63b8ff" stroke="#63b8ff" points="1022.14,-250.42 1026.12,-240.6 1016.89,-245.79 1022.14,-250.42"/>
</g>
<!-- Node24&#45;&gt;Node4 -->
<g id="edge50" class="edge">
<title>Node24&#45;&gt;Node4</title>
<path fill="none" stroke="#63b8ff" d="M917.84,-278.15C953.63,-270.74 1018.77,-256.3 1073,-239 1119.1,-224.29 1170.89,-202.79 1202.73,-188.97"/>
<polygon fill="#63b8ff" stroke="#63b8ff" points="1203.97,-192.25 1211.73,-185.03 1201.17,-185.83 1203.97,-192.25"/>
</g>
<!-- Node24&#45;&gt;Node7 -->
<g id="edge46" class="edge">
<title>Node24&#45;&gt;Node7</title>
<path fill="none" stroke="#63b8ff" d="M891.77,-274.69C893.15,-253.89 894.09,-200.83 872,-165 846.79,-124.12 797.92,-95.02 765.63,-79.24"/>
<polygon fill="#63b8ff" stroke="#63b8ff" points="767.27,-76.15 756.74,-75.04 764.29,-82.48 767.27,-76.15"/>
</g>
<!-- Node24&#45;&gt;Node8 -->
<g id="edge47" class="edge">
<title>Node24&#45;&gt;Node8</title>
<path fill="none" stroke="#63b8ff" d="M917.86,-282.16C1058.86,-275.15 1714.3,-242.53 1904.27,-233.07"/>
<polygon fill="#63b8ff" stroke="#63b8ff" points="1904.26,-236.58 1914.07,-232.59 1903.91,-229.59 1904.26,-236.58"/>
</g>
<!-- Node24&#45;&gt;Node11 -->
<g id="edge48" class="edge">
<title>Node24&#45;&gt;Node11</title>
<path fill="none" stroke="#63b8ff" d="M883.23,-274.66C867.57,-256.86 831.98,-216.41 811.43,-193.04"/>
<polygon fill="#63b8ff" stroke="#63b8ff" points="814.11,-190.79 804.88,-185.6 808.86,-195.42 814.11,-190.79"/>
</g>
<!-- Node25 -->
<g id="node25" class="node">
<title>Node25</title>
<g id="a_node25"><a xlink:href="AnimationMachine_8h.html" target="_top" xlink:title=" ">
<polygon fill="white" stroke="#666666" points="495.5,-239 378.5,-239 378.5,-220 495.5,-220 495.5,-239"/>
<text text-anchor="middle" x="437" y="-227" font-family="Helvetica,sans-Serif" font-size="10.00">AnimationMachine.h</text>
</a>
</g>
</g>
<!-- Node24&#45;&gt;Node25 -->
<g id="edge28" class="edge">
<title>Node24&#45;&gt;Node25</title>
<path fill="none" stroke="#63b8ff" d="M864.3,-280.38C795.32,-272.33 609.46,-250.63 507.06,-238.68"/>
<polygon fill="#63b8ff" stroke="#63b8ff" points="507.75,-235.24 497.41,-237.55 506.93,-242.19 507.75,-235.24"/>
</g>
<!-- Node28 -->
<g id="node28" class="node">
<title>Node28</title>
<g id="a_node28"><a xlink:title=" ">
<polygon fill="#e0e0e0" stroke="#999999" points="710.5,-184 579.5,-184 579.5,-165 710.5,-165 710.5,-184"/>
<text text-anchor="middle" x="645" y="-172" font-family="Helvetica,sans-Serif" font-size="10.00">SFML/System/Time.hpp</text>
</a>
</g>
</g>
<!-- Node24&#45;&gt;Node28 -->
<g id="edge49" class="edge">
<title>Node24&#45;&gt;Node28</title>
<path fill="none" stroke="#63b8ff" d="M870.87,-274.66C827.89,-255.79 726.93,-211.47 675.81,-189.03"/>
<polygon fill="#63b8ff" stroke="#63b8ff" points="677.36,-185.88 666.8,-185.07 674.54,-192.29 677.36,-185.88"/>
</g>
<!-- Node25&#45;&gt;Node7 -->
<g id="edge39" class="edge">
<title>Node25&#45;&gt;Node7</title>
<path fill="none" stroke="#63b8ff" d="M450.01,-219.66C468.86,-206.99 504.99,-183.19 537,-165 595.04,-132.02 665.32,-97.85 704.3,-79.38"/>
<polygon fill="#63b8ff" stroke="#63b8ff" points="705.74,-82.57 713.29,-75.14 702.75,-76.24 705.74,-82.57"/>
</g>
<!-- Node25&#45;&gt;Node9 -->
<g id="edge29" class="edge">
<title>Node25&#45;&gt;Node9</title>
<path fill="none" stroke="#63b8ff" d="M378.03,-225.83C276.61,-220.63 77.94,-207.54 57,-184 9.23,-130.31 124.18,-94.13 199.27,-76.97"/>
<polygon fill="#63b8ff" stroke="#63b8ff" points="200.02,-80.39 209.02,-74.81 198.5,-73.56 200.02,-80.39"/>
</g>
<!-- Node25&#45;&gt;Node20 -->
<g id="edge34" class="edge">
<title>Node25&#45;&gt;Node20</title>
<path fill="none" stroke="#63b8ff" d="M458.76,-219.59C479.22,-211.02 510.58,-197.44 537,-184 552.08,-176.33 553.82,-169.97 570,-165 972.93,-41.19 2359.13,-14.92 2617.4,-11.06"/>
<polygon fill="#63b8ff" stroke="#63b8ff" points="2617.37,-14.56 2627.32,-10.92 2617.27,-7.56 2617.37,-14.56"/>
</g>
<!-- Node26 -->
<g id="node26" class="node">
<title>Node26</title>
<g id="a_node26"><a xlink:title=" ">
<polygon fill="#e0e0e0" stroke="#999999" points="335.5,-184 194.5,-184 194.5,-165 335.5,-165 335.5,-184"/>
<text text-anchor="middle" x="265" y="-172" font-family="Helvetica,sans-Serif" font-size="10.00">SFML/Graphics/Sprite.hpp</text>
</a>
</g>
</g>
<!-- Node25&#45;&gt;Node26 -->
<g id="edge30" class="edge">
<title>Node25&#45;&gt;Node26</title>
<path fill="none" stroke="#63b8ff" d="M407.82,-219.51C379.44,-210.76 336.12,-197.42 304.63,-187.71"/>
<polygon fill="#63b8ff" stroke="#63b8ff" points="306.07,-184.49 295.48,-184.89 304.01,-191.18 306.07,-184.49"/>
</g>
<!-- Node27 -->
<g id="node27" class="node">
<title>Node27</title>
<g id="a_node27"><a xlink:title=" ">
<polygon fill="#e0e0e0" stroke="#999999" points="549.5,-129 400.5,-129 400.5,-110 549.5,-110 549.5,-129"/>
<text text-anchor="middle" x="475" y="-117" font-family="Helvetica,sans-Serif" font-size="10.00">SFML/Graphics/Texture.hpp</text>
</a>
</g>
</g>
<!-- Node25&#45;&gt;Node27 -->
<g id="edge31" class="edge">
<title>Node25&#45;&gt;Node27</title>
<path fill="none" stroke="#63b8ff" d="M440.79,-219.71C444.59,-210.79 450.49,-196.55 455,-184 460.21,-169.48 465.43,-152.83 469.23,-140.23"/>
<polygon fill="#63b8ff" stroke="#63b8ff" points="472.58,-141.23 472.07,-130.65 465.87,-139.24 472.58,-141.23"/>
</g>
<!-- Node25&#45;&gt;Node28 -->
<g id="edge32" class="edge">
<title>Node25&#45;&gt;Node28</title>
<path fill="none" stroke="#63b8ff" d="M472.28,-219.51C507.2,-210.61 560.83,-196.95 599.05,-187.21"/>
<polygon fill="#63b8ff" stroke="#63b8ff" points="599.6,-190.68 608.42,-184.82 597.87,-183.9 599.6,-190.68"/>
</g>
<!-- Node29 -->
<g id="node29" class="node">
<title>Node29</title>
<g id="a_node29"><a xlink:title=" ">
<polygon fill="#e0e0e0" stroke="#999999" points="138,-184 66,-184 66,-165 138,-165 138,-184"/>
<text text-anchor="middle" x="102" y="-172" font-family="Helvetica,sans-Serif" font-size="10.00">sys/types.h</text>
</a>
</g>
</g>
<!-- Node25&#45;&gt;Node29 -->
<g id="edge33" class="edge">
<title>Node25&#45;&gt;Node29</title>
<path fill="none" stroke="#63b8ff" d="M378.01,-219.53C320.35,-210.7 230.09,-196.73 152,-184 151.17,-183.86 150.33,-183.73 149.49,-183.59"/>
<polygon fill="#63b8ff" stroke="#63b8ff" points="150.24,-180.17 139.8,-181.98 149.1,-187.07 150.24,-180.17"/>
</g>
<!-- Node25&#45;&gt;Node30 -->
<g id="edge35" class="edge">
<title>Node25&#45;&gt;Node30</title>
<path fill="none" stroke="#63b8ff" d="M378.12,-226.56C311.52,-222.97 209.16,-212.8 185,-184 168.68,-164.55 197.09,-145.92 223.09,-133.94"/>
<polygon fill="#63b8ff" stroke="#63b8ff" points="224.42,-137.18 232.19,-129.98 221.63,-130.76 224.42,-137.18"/>
</g>
<!-- Node31 -->
<g id="node31" class="node">
<title>Node31</title>
<g id="a_node31"><a xlink:href="TextureHolder_8h.html" target="_top" xlink:title=" ">
<polygon fill="white" stroke="#666666" points="446.5,-184 353.5,-184 353.5,-165 446.5,-165 446.5,-184"/>
<text text-anchor="middle" x="400" y="-172" font-family="Helvetica,sans-Serif" font-size="10.00">TextureHolder.h</text>
</a>
</g>
</g>
<!-- Node25&#45;&gt;Node31 -->
<g id="edge40" class="edge">
<title>Node25&#45;&gt;Node31</title>
<path fill="none" stroke="#63b8ff" d="M430.89,-219.75C425.99,-212.73 418.95,-202.64 412.83,-193.87"/>
<polygon fill="#63b8ff" stroke="#63b8ff" points="415.7,-191.88 407.11,-185.68 409.96,-195.89 415.7,-191.88"/>
</g>
<!-- Node30&#45;&gt;Node7 -->
<g id="edge37" class="edge">
<title>Node30&#45;&gt;Node7</title>
<path fill="none" stroke="#63b8ff" d="M287.74,-111.65C290.86,-111.05 293.99,-110.48 297,-110 441.7,-86.94 615.36,-73.43 693,-68.12"/>
<polygon fill="#63b8ff" stroke="#63b8ff" points="692.92,-71.63 702.67,-67.47 692.45,-64.65 692.92,-71.63"/>
</g>
<!-- Node30&#45;&gt;Node9 -->
<g id="edge36" class="edge">
<title>Node30&#45;&gt;Node9</title>
<path fill="none" stroke="#63b8ff" d="M258,-109.75C258,-103.27 258,-94.16 258,-85.9"/>
<polygon fill="#63b8ff" stroke="#63b8ff" points="261.5,-85.96 258,-75.96 254.5,-85.96 261.5,-85.96"/>
</g>
<!-- Node30&#45;&gt;Node21 -->
<g id="edge38" class="edge">
<title>Node30&#45;&gt;Node21</title>
<path fill="none" stroke="#63b8ff" d="M287.71,-111.4C290.83,-110.84 293.97,-110.35 297,-110 539.26,-81.63 2345.61,-67.93 2652.69,-65.8"/>
<polygon fill="#63b8ff" stroke="#63b8ff" points="2652.3,-69.3 2662.27,-65.73 2652.25,-62.3 2652.3,-69.3"/>
</g>
<!-- Node31&#45;&gt;Node7 -->
<g id="edge44" class="edge">
<title>Node31&#45;&gt;Node7</title>
<path fill="none" stroke="#63b8ff" d="M395.06,-164.91C388.04,-151.46 377.48,-125.39 391,-110 410.68,-87.6 606.29,-73.17 693,-67.83"/>
<polygon fill="#63b8ff" stroke="#63b8ff" points="692.95,-71.34 702.72,-67.24 692.53,-64.35 692.95,-71.34"/>
</g>
<!-- Node31&#45;&gt;Node17 -->
<g id="edge41" class="edge">
<title>Node31&#45;&gt;Node17</title>
<path fill="none" stroke="#63b8ff" d="M446.89,-170.83C481.02,-168.96 528.36,-166.54 570,-165 1295.21,-138.15 2180.97,-124.04 2379.33,-121.09"/>
<polygon fill="#63b8ff" stroke="#63b8ff" points="2379.16,-124.59 2389.1,-120.94 2379.05,-117.59 2379.16,-124.59"/>
</g>
<!-- Node31&#45;&gt;Node27 -->
<g id="edge43" class="edge">
<title>Node31&#45;&gt;Node27</title>
<path fill="none" stroke="#63b8ff" d="M412.72,-164.51C423.78,-156.7 440.04,-145.21 453.17,-135.93"/>
<polygon fill="#63b8ff" stroke="#63b8ff" points="455.08,-138.86 461.23,-130.23 451.04,-133.14 455.08,-138.86"/>
</g>
<!-- Node31&#45;&gt;Node30 -->
<g id="edge45" class="edge">
<title>Node31&#45;&gt;Node30</title>
<path fill="none" stroke="#63b8ff" d="M375.91,-164.51C352.93,-155.93 318.06,-142.92 292.2,-133.27"/>
<polygon fill="#63b8ff" stroke="#63b8ff" points="293.74,-130.1 283.15,-129.89 291.3,-136.66 293.74,-130.1"/>
</g>
<!-- Node32 -->
<g id="node32" class="node">
<title>Node32</title>
<g id="a_node32"><a xlink:title=" ">
<polygon fill="#e0e0e0" stroke="#999999" points="344,-129 306,-129 306,-110 344,-110 344,-129"/>
<text text-anchor="middle" x="325" y="-117" font-family="Helvetica,sans-Serif" font-size="10.00">map</text>
</a>
</g>
</g>
<!-- Node31&#45;&gt;Node32 -->
<g id="edge42" class="edge">
<title>Node31&#45;&gt;Node32</title>
<path fill="none" stroke="#63b8ff" d="M387.28,-164.51C376.22,-156.7 359.96,-145.21 346.83,-135.93"/>
<polygon fill="#63b8ff" stroke="#63b8ff" points="348.96,-133.14 338.77,-130.23 344.92,-138.86 348.96,-133.14"/>
</g>
<!-- Node33&#45;&gt;Node4 -->
<g id="edge58" class="edge">
<title>Node33&#45;&gt;Node4</title>
<path fill="none" stroke="#63b8ff" d="M1064.64,-220.57C1097.54,-211.76 1150.96,-197.46 1188.79,-187.33"/>
<polygon fill="#63b8ff" stroke="#63b8ff" points="1189.29,-190.82 1198.05,-184.86 1187.48,-184.06 1189.29,-190.82"/>
</g>
<!-- Node33&#45;&gt;Node7 -->
<g id="edge55" class="edge">
<title>Node33&#45;&gt;Node7</title>
<path fill="none" stroke="#63b8ff" d="M1047.93,-219.66C1064.56,-207.2 1089.76,-183.88 1076,-165 1040.21,-115.89 857.78,-83.54 774.98,-71.16"/>
<polygon fill="#63b8ff" stroke="#63b8ff" points="775.65,-67.72 765.25,-69.73 774.63,-74.65 775.65,-67.72"/>
</g>
<!-- Node33&#45;&gt;Node17 -->
<g id="edge57" class="edge">
<title>Node33&#45;&gt;Node17</title>
<path fill="none" stroke="#63b8ff" d="M1049.27,-219.67C1075.48,-203.64 1130.59,-170.84 1152,-165 1212.49,-148.51 2168.56,-126.15 2379.17,-121.41"/>
<polygon fill="#63b8ff" stroke="#63b8ff" points="2379.15,-124.91 2389.07,-121.18 2378.99,-117.91 2379.15,-124.91"/>
</g>
<!-- Node33&#45;&gt;Node28 -->
<g id="edge59" class="edge">
<title>Node33&#45;&gt;Node28</title>
<path fill="none" stroke="#63b8ff" d="M1005.04,-224.43C945.13,-216.29 808.85,-197.77 722.2,-185.99"/>
<polygon fill="#63b8ff" stroke="#63b8ff" points="722.72,-182.53 712.34,-184.65 721.78,-189.47 722.72,-182.53"/>
</g>
<!-- Node34 -->
<g id="node34" class="node">
<title>Node34</title>
<g id="a_node34"><a xlink:title=" ">
<polygon fill="#e0e0e0" stroke="#999999" points="1067,-184 1003,-184 1003,-165 1067,-165 1067,-184"/>
<text text-anchor="middle" x="1035" y="-172" font-family="Helvetica,sans-Serif" font-size="10.00">algorithm</text>
</a>
</g>
</g>
<!-- Node33&#45;&gt;Node34 -->
<g id="edge54" class="edge">
<title>Node33&#45;&gt;Node34</title>
<path fill="none" stroke="#63b8ff" d="M1035,-219.75C1035,-213.27 1035,-204.16 1035,-195.9"/>
<polygon fill="#63b8ff" stroke="#63b8ff" points="1038.5,-195.96 1035,-185.96 1031.5,-195.96 1038.5,-195.96"/>
</g>
<!-- Node35 -->
<g id="node35" class="node">
<title>Node35</title>
<g id="a_node35"><a xlink:title=" ">
<polygon fill="#e0e0e0" stroke="#999999" points="984.5,-184 919.5,-184 919.5,-165 984.5,-165 984.5,-184"/>
<text text-anchor="middle" x="952" y="-172" font-family="Helvetica,sans-Serif" font-size="10.00">functional</text>
</a>
</g>
</g>
<!-- Node33&#45;&gt;Node35 -->
<g id="edge56" class="edge">
<title>Node33&#45;&gt;Node35</title>
<path fill="none" stroke="#63b8ff" d="M1020.92,-219.51C1008.44,-211.54 989.98,-199.75 975.31,-190.38"/>
<polygon fill="#63b8ff" stroke="#63b8ff" points="977.46,-187.6 967.15,-185.17 973.69,-193.5 977.46,-187.6"/>
</g>
<!-- Node37&#45;&gt;Node3 -->
<g id="edge68" class="edge">
<title>Node37&#45;&gt;Node3</title>
<path fill="none" stroke="#63b8ff" d="M2700.97,-329.51C2691.58,-321.85 2677.85,-310.66 2666.59,-301.47"/>
<polygon fill="#63b8ff" stroke="#63b8ff" points="2669,-298.92 2659.04,-295.31 2664.57,-304.35 2669,-298.92"/>
</g>
<!-- Node37&#45;&gt;Node17 -->
<g id="edge70" class="edge">
<title>Node37&#45;&gt;Node17</title>
<path fill="none" stroke="#63b8ff" d="M2722.86,-329.6C2754.95,-302.25 2844.24,-218.15 2797,-165 2774.93,-140.17 2553.69,-126.84 2460.76,-122.31"/>
<polygon fill="#63b8ff" stroke="#63b8ff" points="2460.98,-118.81 2450.82,-121.83 2460.64,-125.81 2460.98,-118.81"/>
</g>
<!-- Node37&#45;&gt;Node18 -->
<g id="edge69" class="edge">
<title>Node37&#45;&gt;Node18</title>
<path fill="none" stroke="#63b8ff" d="M2717.58,-329.6C2727.85,-312.69 2749.57,-274.45 2759,-239 2762.75,-224.88 2763.97,-208.42 2764.26,-195.8"/>
<polygon fill="#63b8ff" stroke="#63b8ff" points="2767.76,-195.82 2764.29,-185.81 2760.76,-195.8 2767.76,-195.82"/>
</g>
</g>
</svg>
        <g id="navigator" transform="translate(0 0)" fill="#404254">
                <rect fill="#f2f5e9" fill-opacity="0.5" stroke="#606060" stroke-width=".5" x="0" y="0" width="60" height="60"/>
                <use id="zoomplus" xlink:href="#zoomPlus" x="17" y="9" onmousedown="handleZoom(evt,'in')"/>
                <use id="zoomminus" xlink:href="#zoomMin" x="42" y="9" onmousedown="handleZoom(evt,'out')"/>
                <use id="reset" xlink:href="#resetDef" x="30" y="36" onmousedown="handleReset()"/>
                <g id="arrowUp" xlink:href="#dirArrow" transform="translate(30 24)" onmousedown="handlePan(0,-1)">
                  <use xlink:href="#rim" fill="#404040">
                        <set attributeName="fill" to="#808080" begin="arrowUp.mouseover" end="arrowUp.mouseout"/>
                  </use>
                  <path fill="none" stroke="white" stroke-width="1.5" d="M0,-3.0v7 M-2.5,-0.5L0,-3.0L2.5,-0.5"/>
                </g>
                <g id="arrowRight" xlink:href="#dirArrow" transform="rotate(90) translate(36 -43)" onmousedown="handlePan(1,0)">
                  <use xlink:href="#rim" fill="#404040">
                        <set attributeName="fill" to="#808080" begin="arrowRight.mouseover" end="arrowRight.mouseout"/>
                  </use>
                  <path fill="none" stroke="white" stroke-width="1.5" d="M0,-3.0v7 M-2.5,-0.5L0,-3.0L2.5,-0.5"/>
                </g>
                <g id="arrowDown" xlink:href="#dirArrow" transform="rotate(180) translate(-30 -48)" onmousedown="handlePan(0,1)">
                  <use xlink:href="#rim" fill="#404040">
                        <set attributeName="fill" to="#808080" begin="arrowDown.mouseover" end="arrowDown.mouseout"/>
                  </use>
                  <path fill="none" stroke="white" stroke-width="1.5" d="M0,-3.0v7 M-2.5,-0.5L0,-3.0L2.5,-0.5"/>
                </g>
                <g id="arrowLeft" xlink:href="#dirArrow" transform="rotate(270) translate(-36 17)" onmousedown="handlePan(-1,0)">
                  <use xlink:href="#rim" fill="#404040">
                        <set attributeName="fill" to="#808080" begin="arrowLeft.mouseover" end="arrowLeft.mouseout"/>
                  </use>
                  <path fill="none" stroke="white" stroke-width="1.5" d="M0,-3.0v7 M-2.5,-0.5L0,-3.0L2.5,-0.5"/>
                </g>
        </g>
        <svg viewBox="0 0 15 15" width="100%" height="30px" preserveAspectRatio="xMaxYMin meet">
         <g id="arrow_out" transform="scale(0.3 0.3)">
          <a xlink:href="World_8cpp__incl_org.svg" target="_base">
           <rect id="button" ry="5" rx="5" y="6" x="6" height="38" width="38"
                fill="#f2f5e9" fill-opacity="0.5" stroke="#606060" stroke-width="1.0"/>
           <path id="arrow"
             d="M 11.500037,31.436501 C 11.940474,20.09759 22.043105,11.32322 32.158766,21.979434 L 37.068811,17.246167 C 37.068811,17.246167 37.088388,32 37.088388,32 L 22.160133,31.978069 C 22.160133,31.978069 26.997745,27.140456 26.997745,27.140456 C 18.528582,18.264221 13.291696,25.230495 11.500037,31.436501 z"
             style="fill:#404040;"/>
          </a>
         </g>
        </svg>
</svg>
