<?xml version="1.0" encoding="UTF-8" standalone="no"?>
<!DOCTYPE svg PUBLIC "-//W3C//DTD SVG 1.1//EN"
 "http://www.w3.org/Graphics/SVG/1.1/DTD/svg11.dtd">
<!-- Generated by graphviz version 7.0.5 (0)
 -->
<!-- Title: src/World.h Pages: 1 -->
<svg width="411pt" height="302pt"
 viewBox="0.00 0.00 411.00 302.00" xmlns="http://www.w3.org/2000/svg" xmlns:xlink="http://www.w3.org/1999/xlink">
<g id="graph0" class="graph" transform="scale(1 1) rotate(0) translate(4 298)">
<title>src/World.h</title>
<!-- Node1 -->
<g id="node1" class="node">
<title>Node1</title>
<g id="a_node1"><a xlink:title=" ">
<polygon fill="#999999" stroke="#666666" points="237.5,-294 166.5,-294 166.5,-275 237.5,-275 237.5,-294"/>
<text text-anchor="middle" x="202" y="-282" font-family="Helvetica,sans-Serif" font-size="10.00">src/World.h</text>
</a>
</g>
</g>
<!-- Node2 -->
<g id="node2" class="node">
<title>Node2</title>
<g id="a_node2"><a xlink:href="Camera_8h.html" target="_top" xlink:title=" ">
<polygon fill="white" stroke="#666666" points="130.5,-239 49.5,-239 49.5,-220 130.5,-220 130.5,-239"/>
<text text-anchor="middle" x="90" y="-227" font-family="Helvetica,sans-Serif" font-size="10.00">src/Camera.h</text>
</a>
</g>
</g>
<!-- Node1&#45;&gt;Node2 -->
<g id="edge1" class="edge">
<title>Node1&#45;&gt;Node2</title>
<path fill="none" stroke="#63b8ff" d="M172.77,-269.67C152.53,-260.09 126.19,-247.62 108.72,-239.36"/>
<polygon fill="#63b8ff" stroke="#63b8ff" points="171.1,-272.75 181.63,-273.86 174.09,-266.42 171.1,-272.75"/>
</g>
<!-- Node4 -->
<g id="node4" class="node">
<title>Node4</title>
<g id="a_node4"><a xlink:href="GameState_8h.html" target="_top" xlink:title=" ">
<polygon fill="white" stroke="#666666" points="208,-184 110,-184 110,-165 208,-165 208,-184"/>
<text text-anchor="middle" x="159" y="-172" font-family="Helvetica,sans-Serif" font-size="10.00">src/GameState.h</text>
</a>
</g>
</g>
<!-- Node1&#45;&gt;Node4 -->
<g id="edge11" class="edge">
<title>Node1&#45;&gt;Node4</title>
<path fill="none" stroke="#63b8ff" d="M190.77,-264.73C186.41,-256.94 181.61,-247.71 178,-239 170.16,-220.08 164.04,-196.77 161.03,-184.32"/>
<polygon fill="#63b8ff" stroke="#63b8ff" points="187.67,-266.36 195.72,-273.25 193.73,-262.85 187.67,-266.36"/>
</g>
<!-- Node11 -->
<g id="node11" class="node">
<title>Node11</title>
<g id="a_node11"><a xlink:href="GameLoader_8cpp.html" target="_top" xlink:title=" ">
<polygon fill="white" stroke="#666666" points="303,-239 187,-239 187,-220 303,-220 303,-239"/>
<text text-anchor="middle" x="245" y="-227" font-family="Helvetica,sans-Serif" font-size="10.00">src/GameLoader.cpp</text>
</a>
</g>
</g>
<!-- Node1&#45;&gt;Node11 -->
<g id="edge10" class="edge">
<title>Node1&#45;&gt;Node11</title>
<path fill="none" stroke="#63b8ff" d="M216.25,-265.93C223.45,-257.06 231.88,-246.67 237.75,-239.44"/>
<polygon fill="#63b8ff" stroke="#63b8ff" points="213.64,-263.6 210.05,-273.57 219.07,-268.01 213.64,-263.6"/>
</g>
<!-- Node12 -->
<g id="node12" class="node">
<title>Node12</title>
<g id="a_node12"><a xlink:href="World_8cpp.html" target="_top" xlink:title=" ">
<polygon fill="white" stroke="#666666" points="403,-239 321,-239 321,-220 403,-220 403,-239"/>
<text text-anchor="middle" x="362" y="-227" font-family="Helvetica,sans-Serif" font-size="10.00">src/World.cpp</text>
</a>
</g>
</g>
<!-- Node1&#45;&gt;Node12 -->
<g id="edge12" class="edge">
<title>Node1&#45;&gt;Node12</title>
<path fill="none" stroke="#63b8ff" d="M239.79,-270.98C269.05,-261.29 308.87,-248.1 334.99,-239.45"/>
<polygon fill="#63b8ff" stroke="#63b8ff" points="238.97,-267.57 230.58,-274.03 241.17,-274.21 238.97,-267.57"/>
</g>
<!-- Node3 -->
<g id="node3" class="node">
<title>Node3</title>
<g id="a_node3"><a xlink:href="Camera_8cpp.html" target="_top" xlink:title=" ">
<polygon fill="white" stroke="#666666" points="92,-184 0,-184 0,-165 92,-165 92,-184"/>
<text text-anchor="middle" x="46" y="-172" font-family="Helvetica,sans-Serif" font-size="10.00">src/Camera.cpp</text>
</a>
</g>
</g>
<!-- Node2&#45;&gt;Node3 -->
<g id="edge2" class="edge">
<title>Node2&#45;&gt;Node3</title>
<path fill="none" stroke="#63b8ff" d="M75.42,-210.93C68.05,-202.06 59.42,-191.67 53.42,-184.44"/>
<polygon fill="#63b8ff" stroke="#63b8ff" points="72.69,-213.13 81.77,-218.58 78.07,-208.65 72.69,-213.13"/>
</g>
<!-- Node2&#45;&gt;Node4 -->
<g id="edge3" class="edge">
<title>Node2&#45;&gt;Node4</title>
<path fill="none" stroke="#63b8ff" d="M110.65,-212.64C122.7,-203.39 137.45,-192.05 147.47,-184.36"/>
<polygon fill="#63b8ff" stroke="#63b8ff" points="108.7,-209.72 102.91,-218.59 112.97,-215.27 108.7,-209.72"/>
</g>
<!-- Node5 -->
<g id="node5" class="node">
<title>Node5</title>
<g id="a_node5"><a xlink:href="GameState_8cpp.html" target="_top" xlink:title=" ">
<polygon fill="white" stroke="#666666" points="147.5,-129 38.5,-129 38.5,-110 147.5,-110 147.5,-129"/>
<text text-anchor="middle" x="93" y="-117" font-family="Helvetica,sans-Serif" font-size="10.00">src/GameState.cpp</text>
</a>
</g>
</g>
<!-- Node4&#45;&gt;Node5 -->
<g id="edge4" class="edge">
<title>Node4&#45;&gt;Node5</title>
<path fill="none" stroke="#63b8ff" d="M138.91,-157.37C127.45,-148.16 113.52,-136.98 104.03,-129.36"/>
<polygon fill="#63b8ff" stroke="#63b8ff" points="136.64,-160.03 146.62,-163.56 141.02,-154.57 136.64,-160.03"/>
</g>
<!-- Node6 -->
<g id="node6" class="node">
<title>Node6</title>
<g id="a_node6"><a xlink:href="MainMenuState_8h.html" target="_top" xlink:title=" ">
<polygon fill="white" stroke="#666666" points="284.5,-129 165.5,-129 165.5,-110 284.5,-110 284.5,-129"/>
<text text-anchor="middle" x="225" y="-117" font-family="Helvetica,sans-Serif" font-size="10.00">src/MainMenuState.h</text>
</a>
</g>
</g>
<!-- Node4&#45;&gt;Node6 -->
<g id="edge5" class="edge">
<title>Node4&#45;&gt;Node6</title>
<path fill="none" stroke="#63b8ff" d="M179.09,-157.37C190.55,-148.16 204.48,-136.98 213.97,-129.36"/>
<polygon fill="#63b8ff" stroke="#63b8ff" points="176.98,-154.57 171.38,-163.56 181.36,-160.03 176.98,-154.57"/>
</g>
<!-- Node7 -->
<g id="node7" class="node">
<title>Node7</title>
<g id="a_node7"><a xlink:href="Game_8h.html" target="_top" xlink:title=" ">
<polygon fill="white" stroke="#666666" points="201,-74 129,-74 129,-55 201,-55 201,-74"/>
<text text-anchor="middle" x="165" y="-62" font-family="Helvetica,sans-Serif" font-size="10.00">src/Game.h</text>
</a>
</g>
</g>
<!-- Node6&#45;&gt;Node7 -->
<g id="edge6" class="edge">
<title>Node6&#45;&gt;Node7</title>
<path fill="none" stroke="#63b8ff" d="M206.42,-102.09C196.06,-92.94 183.57,-81.9 175.03,-74.36"/>
<polygon fill="#63b8ff" stroke="#63b8ff" points="203.88,-104.51 213.69,-108.51 208.51,-99.26 203.88,-104.51"/>
</g>
<!-- Node10 -->
<g id="node10" class="node">
<title>Node10</title>
<g id="a_node10"><a xlink:href="MainMenuState_8cpp.html" target="_top" xlink:title=" ">
<polygon fill="white" stroke="#666666" points="350.5,-74 219.5,-74 219.5,-55 350.5,-55 350.5,-74"/>
<text text-anchor="middle" x="285" y="-62" font-family="Helvetica,sans-Serif" font-size="10.00">src/MainMenuState.cpp</text>
</a>
</g>
</g>
<!-- Node6&#45;&gt;Node10 -->
<g id="edge9" class="edge">
<title>Node6&#45;&gt;Node10</title>
<path fill="none" stroke="#63b8ff" d="M243.58,-102.09C253.94,-92.94 266.43,-81.9 274.97,-74.36"/>
<polygon fill="#63b8ff" stroke="#63b8ff" points="241.49,-99.26 236.31,-108.51 246.12,-104.51 241.49,-99.26"/>
</g>
<!-- Node8 -->
<g id="node8" class="node">
<title>Node8</title>
<g id="a_node8"><a xlink:href="FinalProjectCS202_8cpp.html" target="_top" xlink:title=" ">
<polygon fill="white" stroke="#666666" points="171,-19 29,-19 29,0 171,0 171,-19"/>
<text text-anchor="middle" x="100" y="-7" font-family="Helvetica,sans-Serif" font-size="10.00">src/FinalProjectCS202.cpp</text>
</a>
</g>
</g>
<!-- Node7&#45;&gt;Node8 -->
<g id="edge7" class="edge">
<title>Node7&#45;&gt;Node8</title>
<path fill="none" stroke="#63b8ff" d="M145.21,-47.37C133.92,-38.16 120.21,-26.98 110.86,-19.36"/>
<polygon fill="#63b8ff" stroke="#63b8ff" points="142.84,-49.95 152.8,-53.55 147.26,-44.52 142.84,-49.95"/>
</g>
<!-- Node9 -->
<g id="node9" class="node">
<title>Node9</title>
<g id="a_node9"><a xlink:href="Game_8cpp.html" target="_top" xlink:title=" ">
<polygon fill="white" stroke="#666666" points="272.5,-19 189.5,-19 189.5,0 272.5,0 272.5,-19"/>
<text text-anchor="middle" x="231" y="-7" font-family="Helvetica,sans-Serif" font-size="10.00">src/Game.cpp</text>
</a>
</g>
</g>
<!-- Node7&#45;&gt;Node9 -->
<g id="edge8" class="edge">
<title>Node7&#45;&gt;Node9</title>
<path fill="none" stroke="#63b8ff" d="M185.09,-47.37C196.55,-38.16 210.48,-26.98 219.97,-19.36"/>
<polygon fill="#63b8ff" stroke="#63b8ff" points="182.98,-44.57 177.38,-53.56 187.36,-50.03 182.98,-44.57"/>
</g>
</g>
</svg>
